<svg xmlns="http://www.w3.org/2000/svg" height="48" width="48" viewBox="0 0 48 48"><title>backpack</title><g class="nc-icon-wrapper"><path d="M34,9H14a9,9,0,0,0-9,9V43a4,4,0,0,0,4,4H39a4,4,0,0,0,4-4V18A9,9,0,0,0,34,9Z" fill="#72c472"></path><path d="M35,40a1,1,0,0,1-1,1H14a1,1,0,0,1-1-1V29a5,5,0,0,1,5-5H30a5,5,0,0,1,5,5Z" fill="#38a838"></path><rect x="18" y="30" width="12" height="7" rx="1"></rect><path d="M30,15a1,1,0,0,1-1-1V8A5,5,0,0,0,19,8v6a1,1,0,0,1-2,0V8A7,7,0,0,1,31,8v6A1,1,0,0,1,30,15Z" fill="#444"></path></g></svg>