<svg xmlns="http://www.w3.org/2000/svg" height="48" width="48" viewBox="0 0 48 48"><title>backpack 2</title><g class="nc-icon-wrapper"><rect x="2" y="21" width="44" height="25" rx="5" fill="#bf8c5a"></rect><rect x="9" y="7" width="30" height="23" rx="5" fill="#72c472"></rect><path d="M30,13a1,1,0,0,1-1-1V8A5,5,0,0,0,19,8v4a1,1,0,0,1-2,0V8A7,7,0,0,1,31,8v4A1,1,0,0,1,30,13Z" fill="#444"></path><path d="M7,21H9a0,0,0,0,1,0,0V46a0,0,0,0,1,0,0H7a5,5,0,0,1-5-5V26a5,5,0,0,1,5-5Z" fill="#87613e"></path><path d="M44,21h2a0,0,0,0,1,0,0V46a0,0,0,0,1,0,0H44a5,5,0,0,1-5-5V26a5,5,0,0,1,5-5Z" transform="translate(85 67) rotate(180)" fill="#87613e"></path><path d="M18,38a1,1,0,0,1-1-1V25a1,1,0,0,1,2,0V37A1,1,0,0,1,18,38Z" fill="#444"></path><path d="M30,38a1,1,0,0,1-1-1V25a1,1,0,0,1,2,0V37A1,1,0,0,1,30,38Z" fill="#444"></path><path d="M20,34H16a1,1,0,0,1,0-2h4a1,1,0,0,1,0,2Z" fill="#efd358"></path><path d="M32,34H28a1,1,0,0,1,0-2h4a1,1,0,0,1,0,2Z" fill="#efd358"></path></g></svg>