<svg xmlns="http://www.w3.org/2000/svg" height="48" width="48" viewBox="0 0 48 48"><title>bag 21</title><g class="nc-icon-wrapper"><path fill="#A67C52" d="M38,47H10c-4.962,0-9-4.038-9-9V14c0-0.552,0.448-1,1-1h44c0.552,0,1,0.448,1,1v24 C47,42.962,42.962,47,38,47z"></path> <path fill="#EFD358" d="M34,21c-0.552,0-1-0.448-1-1v-8c0-4.962-4.038-9-9-9s-9,4.038-9,9v8c0,0.552-0.448,1-1,1s-1-0.448-1-1v-8 c0-6.065,4.935-11,11-11s11,4.935,11,11v8C35,20.552,34.552,21,34,21z"></path> <path fill="#EFD358" d="M30,37H18c-0.552,0-1-0.448-1-1v-8c0-0.552,0.448-1,1-1h12c0.552,0,1,0.448,1,1v8C31,36.552,30.552,37,30,37 z"></path></g></svg>