<svg xmlns="http://www.w3.org/2000/svg" height="48" width="48" viewBox="0 0 48 48"><title>belt</title><g class="nc-icon-wrapper"><path fill="#87613E" d="M46,33H2c-0.553,0-1-0.447-1-1V16c0-0.553,0.447-1,1-1h44c0.553,0,1,0.447,1,1v16C47,32.553,46.553,33,46,33 z"></path> <circle fill="#5E4027" cx="43" cy="24" r="1"></circle> <circle fill="#5E4027" cx="31" cy="24" r="1"></circle> <circle fill="#5E4027" cx="7" cy="24" r="1"></circle> <path fill="#E2BC3A" d="M36,35H12V13h24V35z M14,33h20V15H14V33z"></path> <path fill="#EFD358" d="M19,25h-8c-0.553,0-1-0.447-1-1s0.447-1,1-1h8c0.553,0,1,0.447,1,1S19.553,25,19,25z"></path></g></svg>