<svg xmlns="http://www.w3.org/2000/svg" height="48" width="48" viewBox="0 0 48 48"><title>bikini</title><g class="nc-icon-wrapper"><path d="M41.945,31h-36a1,1,0,0,0-1,1v4a1.007,1.007,0,0,0,.3.714,1.018,1.018,0,0,0,.72.286,16.171,16.171,0,0,1,15.071,9.419,1,1,0,0,0,.909.581h4a1,1,0,0,0,.908-.581A16.267,16.267,0,0,1,41.924,37a1.014,1.014,0,0,0,.72-.286,1,1,0,0,0,.3-.714V32A1,1,0,0,0,41.945,31Z" fill="#f888c0"></path><path d="M6,31H42a1,1,0,0,1,1,1v2a0,0,0,0,1,0,0H5a0,0,0,0,1,0,0V32A1,1,0,0,1,6,31Z" fill="#d53987"></path><path d="M42,2a1,1,0,0,0-1,1v7.028a25.5,25.5,0,0,0-17,7.519A25.5,25.5,0,0,0,7,10.028V3A1,1,0,0,0,5,3V16a9.046,9.046,0,0,0,9,9H34a9.046,9.046,0,0,0,9-9V3A1,1,0,0,0,42,2Z" fill="#f888c0"></path><path d="M6,2H6A1,1,0,0,1,7,3v7a0,0,0,0,1,0,0H5a0,0,0,0,1,0,0V3A1,1,0,0,1,6,2Z" fill="#d53987"></path><path d="M42,2h0a1,1,0,0,1,1,1v7a0,0,0,0,1,0,0H41a0,0,0,0,1,0,0V3A1,1,0,0,1,42,2Z" fill="#d53987"></path></g></svg>