<svg xmlns="http://www.w3.org/2000/svg" height="48" width="48" style="" viewBox="0 0 48 48"><title>boots</title><g class="nc-icon-wrapper"> <g clip-path="url(#nc-boots-clip-0_307_88)"> <path d="M43.552 34.61L39.952 34.21C38.954 34.1 38.013 33.692 37.252 33.038L34.06 30.305C32.803 29.23 32.16 27.601 32.345 25.957L34.994 2.11C35.055 1.561 34.659 1.067 34.11 1.006C34.073 1.002 34.037 1 34 1H21V26L23 47C23.379 47 23.726 46.786 23.895 46.447L24.495 45.247C27.223 46.265 30.092 46.856 33 47C45.847 47 47.762 42.823 47.937 42.347C47.979 42.236 48 42.119 48 42V39.58C48 37.032 46.084 34.891 43.552 34.61Z" fill="url(#nc-boots-0_linear_307_88)"></path> <path d="M34.745 1.333C34.555 1.121 34.284 1 34 1H23V8H34.34L34.994 2.11C35.025 1.827 34.935 1.545 34.745 1.333Z" fill="url(#nc-boots-1_linear_307_88)"></path> <path d="M23 47C20.091 46.857 17.222 46.267 14.493 45.25L13.893 46.45C13.723 46.787 13.378 47 13 47H3.00002C2.56702 47 2.18302 46.721 2.04902 46.309C1.35402 43.935 1.00002 41.474 1.00002 39C1.04302 36.75 1.31502 34.511 1.81302 32.317C2.21702 30.572 2.44702 28.791 2.50002 27C2.45002 24.904 2.18502 22.819 1.71102 20.777C0.456022 14.599 -0.117978 8.303 2.21822e-05 2C2.21822e-05 1.448 0.448022 1 1.00002 1H24C24.552 1 25 1.448 25 2C25 2.037 24.998 2.074 24.994 2.11L22.345 25.957C22.16 27.601 22.803 29.23 24.06 30.305L27.247 33.038C28.008 33.692 28.949 34.1 29.947 34.21L33.547 34.61C36.081 34.889 38 37.03 38 39.58V42C38 42.119 37.979 42.236 37.937 42.347C37.762 42.823 35.847 47 23 47Z" fill="url(#nc-boots-2_linear_307_88)"></path> <path d="M0 2C0 4.238 0.051 6.217 0.136 8H24.336L24.99 2.11C25.051 1.561 24.655 1.067 24.106 1.006C24.071 1.002 24.035 1 24 1H1C0.448 1 0 1.448 0 2Z" fill="url(#nc-boots-3_linear_307_88)"></path> </g> <defs> <linearGradient id="nc-boots-0_linear_307_88" x1="34.5" y1="1" x2="34.5" y2="47" gradientUnits="userSpaceOnUse"> <stop stop-color="#4480A7"></stop> <stop offset="1" stop-color="#32597C"></stop> </linearGradient> <linearGradient id="nc-boots-1_linear_307_88" x1="29" y1="1" x2="29" y2="8" gradientUnits="userSpaceOnUse"> <stop stop-color="#4480A7"></stop> <stop offset="1" stop-color="#32597C"></stop> </linearGradient> <linearGradient id="nc-boots-2_linear_307_88" x1="18.9925" y1="1" x2="18.9925" y2="47" gradientUnits="userSpaceOnUse"> <stop stop-color="#80B0CB"></stop> <stop offset="1" stop-color="#4480A7"></stop> </linearGradient> <linearGradient id="nc-boots-3_linear_307_88" x1="12.4981" y1="1" x2="12.4981" y2="8" gradientUnits="userSpaceOnUse"> <stop stop-color="#80B0CB"></stop> <stop offset="1" stop-color="#4480A7"></stop> </linearGradient> <clipPath id="nc-boots-clip-0_307_88"> <rect width="48" height="48" fill="white"></rect> </clipPath> </defs> </g></svg>