<svg xmlns="http://www.w3.org/2000/svg" height="48" width="48" style="" viewBox="0 0 48 48"><title>gloves</title><g class="nc-icon-wrapper"> <path d="M44.0001 34.95V10.5C44.0001 9.119 42.8811 8 41.5001 8C40.1191 8 39.0001 9.119 39.0001 10.5V21C39.0001 21.552 38.5521 22 38.0001 22C37.4481 22 37.0001 21.552 37.0001 21V6.5C37.0001 5.119 35.8811 4 34.5001 4C33.1191 4 32.0001 5.119 32.0001 6.5V20C32.0001 20.552 31.5521 21 31.0001 21C30.4481 21 30.0001 20.552 30.0001 20V4.5C30.0001 3.119 28.8811 2 27.5001 2C26.1191 2 25.0001 3.119 25.0001 4.5V21C25.0001 21.552 24.5521 22 24.0001 22C23.4481 22 23.0001 21.552 23.0001 21V8.5C23.0001 7.119 21.8811 6 20.5001 6C19.1191 6 18.0001 7.119 18.0001 8.5V34.945L16.9151 44.892C16.8551 45.441 17.2521 45.935 17.8011 45.994C17.8371 45.998 17.8731 46 17.9091 46H44.0001C44.5521 46.003 45.0021 45.557 45.0051 45.005C45.0051 44.97 45.0041 44.935 45.0001 44.9L44.0001 34.95Z" fill="url(#nc-gloves-0_linear_307_306)"></path> <path d="M30 34.95V10.5C30 9.119 28.881 8 27.5 8C26.119 8 25 9.119 25 10.5V21C25 21.552 24.552 22 24 22C23.448 22 23 21.552 23 21V6.5C23 5.119 21.881 4 20.5 4C19.119 4 18 5.119 18 6.5V20C18 20.552 17.552 21 17 21C16.448 21 16 20.552 16 20V4.5C16 3.119 14.881 2 13.5 2C12.119 2 11 3.119 11 4.5V20C11 20.552 10.552 21 9.99999 21C9.44799 21 8.99999 20.552 8.99999 20V8.5C8.99999 7.119 7.88099 6 6.49999 6C5.11899 6 3.99999 7.119 3.99999 8.5V34.945L2.91499 44.892C2.85499 45.441 3.25199 45.935 3.80099 45.994C3.83699 45.998 3.87299 46 3.90899 46H30C30.552 46.003 31.002 45.557 31.005 45.005C31.005 44.97 31.004 44.935 31 44.9L30 34.95Z" fill="url(#nc-gloves-1_linear_307_306)"></path> <path d="M44 36L43.895 34.95V34H17.895V34.945L17.78 36H44Z" fill="url(#nc-gloves-2_linear_307_306)"></path> <path d="M30 34.95V34H12.937L16.225 29.367C17.383 27.771 17.213 25.572 15.825 24.172C14.243 22.66 11.751 22.66 10.169 24.172L4 30.344V33.172L6.611 30.561L11.586 25.586C12.377 24.83 13.623 24.83 14.414 25.586C15.112 26.293 15.19 27.402 14.6 28.2L10.181 34.426C9.864 34.878 9.974 35.502 10.426 35.819C10.594 35.937 10.795 36 11 36H30.105L30 34.95Z" fill="url(#nc-gloves-3_linear_307_306)"></path> <defs> <linearGradient id="nc-gloves-0_linear_307_306" x1="30.9571" y1="2" x2="30.9571" y2="46" gradientUnits="userSpaceOnUse"> <stop stop-color="#344EEA"></stop> <stop offset="1" stop-color="#2138BB"></stop> </linearGradient> <linearGradient id="nc-gloves-1_linear_307_306" x1="16.957" y1="2" x2="16.957" y2="46" gradientUnits="userSpaceOnUse"> <stop stop-color="#8192F3"></stop> <stop offset="1" stop-color="#344EEA"></stop> </linearGradient> <linearGradient id="nc-gloves-2_linear_307_306" x1="30.89" y1="30" x2="30.89" y2="38" gradientUnits="userSpaceOnUse"> <stop stop-color="#2138BB"></stop> <stop offset="1" stop-color="#172282"></stop> </linearGradient> <linearGradient id="nc-gloves-3_linear_307_306" x1="17.0525" y1="23.038" x2="17.0525" y2="36" gradientUnits="userSpaceOnUse"> <stop stop-color="#344EEA"></stop> <stop offset="1" stop-color="#2138BB"></stop> </linearGradient> </defs> </g></svg>