<svg xmlns="http://www.w3.org/2000/svg" height="48" width="48" viewBox="0 0 48 48"><title>hoodie</title><g class="nc-icon-wrapper"><path d="M36,2H12A4.951,4.951,0,0,0,7,7a4.951,4.951,0,0,0,5,5H36a4.951,4.951,0,0,0,5-5A4.951,4.951,0,0,0,36,2Z" fill="#8680d8"></path> <path d="M41,10H7a4.951,4.951,0,0,0-5,5V43a2.946,2.946,0,0,0,3,3H43a2.946,2.946,0,0,0,3-3V15A4.951,4.951,0,0,0,41,10Z" fill="#9494e0"></path> <path d="M18,18a.945.945,0,0,0-1,1V35a1,1,0,0,0,2,0V19A.945.945,0,0,0,18,18Z" fill="#c3c3ea"></path> <path d="M30,18a.945.945,0,0,0-1,1V35a1,1,0,0,0,2,0V19A.945.945,0,0,0,30,18Z" fill="#c3c3ea"></path> <path d="M34,10H14a.945.945,0,0,0-1,1,11,11,0,0,0,22,0A.945.945,0,0,0,34,10Z" fill="#5757b2"></path> <path d="M2,36v7a2.946,2.946,0,0,0,3,3h5V36Z" fill="#c3c3ea"></path> <path d="M38,36V46h5a2.946,2.946,0,0,0,3-3V36Z" fill="#c3c3ea"></path> <path d="M8,34H2v2H8a2.006,2.006,0,0,1,2,2v8h2V38A4.012,4.012,0,0,0,8,34Z" fill="#5757b2"></path> <path d="M40,34a4.012,4.012,0,0,0-4,4v8h2V38a2.006,2.006,0,0,1,2-2h6V34Z" fill="#5757b2"></path></g></svg>