<svg xmlns="http://www.w3.org/2000/svg" height="48" width="48" viewBox="0 0 48 48"><title>iron 2</title><g class="nc-icon-wrapper"><path d="M47.874,39.515l-5-9A1,1,0,0,0,42,30H1a1,1,0,0,0-.874,1.485l5,9A1,1,0,0,0,6,41H47a1,1,0,0,0,.874-1.485Z" fill="#e3e3e3"></path><path d="M47,41H6a1,1,0,0,1,0-2H47a1,1,0,0,1,0,2Z" fill="#4c4c4c"></path><path d="M44,30A24.028,24.028,0,0,0,20.025,7H5.525a2.5,2.5,0,0,0,0,5h11.5a9.993,9.993,0,0,1,10,10H5a5.007,5.007,0,0,0-5,5v4a1,1,0,0,0,1,1H43a1,1,0,0,0,1-1V30Z" fill="#4c4c4c"></path><path d="M11,22h0a1,1,0,0,0,1,1H22a1,1,0,0,0,1-1h0a1,1,0,0,0-1-1H12A1,1,0,0,0,11,22Z" fill="#212121"></path><path d="M41.358,20.074a23.8,23.8,0,0,1,2.029,5.571A2.958,2.958,0,0,1,42,26a3,3,0,0,1-.642-5.927Z" fill="#d37ff0"></path><path d="M39.475,17H37a5,5,0,0,1-5-5V10.228A24.17,24.17,0,0,1,39.475,17Z" fill="#d37ff0"></path></g></svg>