<svg xmlns="http://www.w3.org/2000/svg" height="48" width="48" viewBox="0 0 48 48"><title>leggins</title><g class="nc-icon-wrapper"><path d="M7.908,4,6,45.955A1,1,0,0,0,7,47h9a1,1,0,0,0,.977-.783l5.566-25.048a1.492,1.492,0,0,1,2.914,0l5.566,25.048A1,1,0,0,0,32,47h9a1,1,0,0,0,1-1.045L40.092,4Z" fill="#223e49"></path> <polygon points="6.09 44 17.469 44 17.914 42 6.181 42 6.09 44" fill="#ffd764"></polygon> <polygon points="41.91 44 30.531 44 30.086 42 41.819 42 41.91 44" fill="#ffd764"></polygon> <path d="M8,1.955,7.863,5H40.137L40,1.955A1,1,0,0,0,39,1H9A1,1,0,0,0,8,1.955Z" fill="#5a7a84"></path></g></svg>