<svg xmlns="http://www.w3.org/2000/svg" height="48" width="48" viewBox="0 0 48 48"><title>lipstick</title><g class="nc-icon-wrapper"><path d="M30,28H18V8.323l12-4.8Z" fill="#f74b3b"></path><path d="M21.125,10.781A3.082,3.082,0,0,1,18.4,9.553c-.772-1.182-.413-2.891.96-4.572A11.361,11.361,0,0,1,21.926,2.72a10.353,10.353,0,0,1,4.237-1.673A3.375,3.375,0,0,1,29.6,2.231c1.182,1.809-.331,4.747-3.522,6.833h0A9.463,9.463,0,0,1,21.125,10.781Zm4.4-2.553h0Z" fill="#ff7163"></path><path d="M12,32V42a5.006,5.006,0,0,0,5,5H31a5.006,5.006,0,0,0,5-5V32Z" fill="#212121"></path><path d="M36,32V26a1,1,0,0,0-1-1H13a1,1,0,0,0-1,1v6Z" fill="#4c4c4c"></path><rect x="12" y="31" width="24" height="2" fill="#ffd764"></rect></g></svg>