<svg xmlns="http://www.w3.org/2000/svg" height="48" width="48" viewBox="0 0 48 48"><title>makeup</title><g class="nc-icon-wrapper"><path d="M9,39v1a5,5,0,0,0,5,5H40a5,5,0,0,0,5-5V39Z" fill="#f7bf26"></path><path d="M27,3A18,18,0,1,0,45,21,18,18,0,0,0,27,3Z" fill="#ffd764"></path><circle cx="27" cy="21" r="16" fill="#a0e6ee"></circle><path d="M36.069,10.345l-9.362,9.362a1,1,0,0,1-1.414-1.414l9.141-9.141A13.95,13.95,0,0,0,13.216,23.37L25.293,11.293a1,1,0,0,1,1.414,1.414L13.8,25.618A13.993,13.993,0,1,0,36.069,10.345Z" fill="#d1faf0"></path><path d="M44,37H10a1,1,0,0,0-1,1v1H45V38A1,1,0,0,0,44,37Z" fill="#eba40a"></path><path d="M3,31V44a1,1,0,0,0,1,1H17a1,1,0,0,0,1-1V31Z" fill="#212121"></path><path d="M15,17V7a1,1,0,0,0-.726-.962l-7-2A1,1,0,0,0,6,5V17Z" fill="#bb385f"></path><path d="M16,18a1,1,0,0,0-1-1H6a1,1,0,0,0-1,1v8H16Z" fill="#f7bf26"></path><path d="M17,26H4a1,1,0,0,0-1,1v5H18V27A1,1,0,0,0,17,26Z" fill="#444"></path><path d="M9,4.531,7.274,4.038A1,1,0,0,0,6,5V17H9Z" fill="#ce5a7d"></path></g></svg>