<svg xmlns="http://www.w3.org/2000/svg" height="48" width="48" viewBox="0 0 48 48"><title>pilgrim hat</title><g class="nc-icon-wrapper"><ellipse cx="24" cy="36" rx="23" ry="11" fill="#444"></ellipse><path d="M38.962,30.5l-4-24.821C34.6,3.068,29.836,1,24,1S13.4,3.068,13.036,5.679L9.054,30.5A3.353,3.353,0,0,0,9,31c0,3.866,6.716,7,15,7s15-3.134,15-7C39,30.831,38.962,30.5,38.962,30.5Z" fill="#636363"></path><path d="M37.488,21.349l-.382-2.373C35.2,21.13,30.343,23,24,23s-11.183-1.865-13.1-4.016l-.38,2.372C13.34,23.562,18.268,25,24,25S34.671,23.559,37.488,21.349Z" fill="#a6a6a6"></path><rect x="19" y="20" width="10" height="8" rx="1" fill="#ffd764"></rect><ellipse cx="24" cy="6" rx="11" ry="5" fill="#a6a6a6"></ellipse></g></svg>