<svg xmlns="http://www.w3.org/2000/svg" height="48" width="48" viewBox="0 0 48 48"><title>pipe</title><g class="nc-icon-wrapper"><path fill="#87613E" d="M16,24v-8v-2c0-2.20914-1.79086-4-4-4H3c-0.55228,0-1,0.44771-1,1v2c0,0.55229,0.44772,1,1,1h5 c1.10457,0,2,0.89543,2,2v8H16z"></path> <path fill="#A67C52" d="M29,21v7.50001C29,31.53757,26.53757,34,23.50001,34h-0.00001C20.46243,34,18,31.53757,18,28.50001V22 c0-0.55228-0.44772-1-1-1H9c-0.55229,0-1,0.44772-1,1v7.00002C8,38.94114,16.05887,47,25.99998,47h0.00003 C35.94114,47,44,38.94114,44,29.00002V21H29z"></path> <path fill="#C19F85" d="M45,22H28c-0.55228,0-1-0.44772-1-1v-2c0-0.55228,0.44772-1,1-1h17c0.55228,0,1,0.44772,1,1v2 C46,21.55228,45.55228,22,45,22z"></path> <circle fill="#E6E6E6" cx="31" cy="6" r="4"></circle> <circle fill="#E6E6E6" cx="41" cy="12" r="3"></circle></g></svg>