<svg xmlns="http://www.w3.org/2000/svg" height="48" width="48" viewBox="0 0 48 48"><title>shorts</title><g class="nc-icon-wrapper"><path d="M45,41H29a1,1,0,0,1-.97-.758L25.516,30.183a1.563,1.563,0,0,0-3.032,0L19.97,40.242A1,1,0,0,1,19,41H3a1,1,0,0,1-1-1.062l2-32A1,1,0,0,1,5,7H43a1,1,0,0,1,1,.938l2,32A1,1,0,0,1,45,41Z" fill="#223e49"></path> <path d="M44,7.938A1,1,0,0,0,43,7H5a1,1,0,0,0-1,.938L3.686,13H44.314Z" fill="#47b0ea"></path> <path d="M45,23.969l-.123-1.975A9.007,9.007,0,0,1,36,13H34A11.013,11.013,0,0,0,45,24Z" fill="#47b0ea"></path> <path d="M3.123,21.994,3,23.969V24A11.013,11.013,0,0,0,14,13H12A9.007,9.007,0,0,1,3.123,21.994Z" fill="#47b0ea"></path> <rect x="20" y="10" width="2" height="12" rx="1" ry="1" fill="#fff"></rect> <rect x="26" y="10" width="2" height="12" rx="1" ry="1" fill="#fff"></rect></g></svg>