<svg xmlns="http://www.w3.org/2000/svg" height="48" width="48" viewBox="0 0 48 48"><title>slacks 12</title><g class="nc-icon-wrapper"><path fill="#C6A279" d="M3,8v37v1c0,0.552,0.448,1,1,1h17c0.552,0,1-0.448,1-1V29c0-1.105,0.895-2,2-2c1.105,0,2,0.895,2,2v17 c0,0.552,0.448,1,1,1h17c0.552,0,1-0.448,1-1v-1V8H3z"></path> <rect x="3" y="7" fill="#A67C52" width="42" height="2"></rect> <path fill="#444444" d="M45,7H3V2c0-0.552,0.448-1,1-1h40c0.552,0,1,0.448,1,1V7z"></path> <rect x="11" y="1" fill="#A67C52" width="2" height="6"></rect> <rect x="23" y="1" fill="#A67C52" width="2" height="6"></rect> <path fill="#A67C52" d="M24,19L24,19c-0.552,0-1-0.448-1-1V9h2v9C25,18.552,24.552,19,24,19z"></path> <rect x="35" y="1" fill="#A67C52" width="2" height="6"></rect> <path fill="#A67C52" d="M12,13c-0.552,0-1,0.448-1,1v2c0,3.86-3.14,7-7,7H3v2h1c4.962,0,9-4.038,9-9v-2C13,13.448,12.552,13,12,13z"></path> <path fill="#A67C52" d="M36,13c0.552,0,1,0.448,1,1v2c0,3.86,3.14,7,7,7h1v2h-1c-4.962,0-9-4.038-9-9v-2C35,13.448,35.448,13,36,13z "></path></g></svg>