<svg xmlns="http://www.w3.org/2000/svg" height="48" width="48" viewBox="0 0 48 48"><title>slippers</title><g class="nc-icon-wrapper"><path d="M14,41.05a7.005,7.005,0,0,1-6.616-4.708,26.708,26.708,0,0,1-1.4-5.368,46.2,46.2,0,0,0-1.435-6C4.087,23.517,3.59,22.236,3.108,21,1.977,18.087,1,15.572,1,12.05c0-5.356,5.382-10.494,11.518-11a7.312,7.312,0,0,1,5.772,1.7C20.088,4.408,21,7.2,21,11.05a24.642,24.642,0,0,1-.469,4.962A30.263,30.263,0,0,0,20,22.173a37.545,37.545,0,0,0,.545,6.517A29.364,29.364,0,0,1,21,34.062,7.006,7.006,0,0,1,14,41.05Z" fill="#38a838"></path><path d="M14,37.05a3,3,0,0,1-2.837-2.018l-.055-.149a22.9,22.9,0,0,1-1.193-4.636,50.52,50.52,0,0,0-1.553-6.469c-.5-1.59-1.045-2.993-1.525-4.229C5.771,16.806,5,14.825,5,12.05c0-3.274,3.812-6.68,7.845-7.011.178-.014.367-.021.551-.021a2.947,2.947,0,0,1,2.184.675C16.5,6.537,17,8.439,17,11.05a20.735,20.735,0,0,1-.407,4.262A34.01,34.01,0,0,0,16,22.173a41.4,41.4,0,0,0,.591,7.121A25.76,25.76,0,0,1,17,34.013,3.009,3.009,0,0,1,14,37.05Z" fill="#78d478"></path><path d="M20,22.156A30.271,30.271,0,0,1,20.531,16,24.634,24.634,0,0,0,21,11.033c0-3.85-.912-6.642-2.71-8.3a7.316,7.316,0,0,0-5.771-1.7C6.382,1.538,1,6.677,1,12.033c0,3.522.977,6.035,2.107,8.946.482,1.239.98,2.52,1.439,3.982a46.2,46.2,0,0,1,1.435,6,26.691,26.691,0,0,0,1.4,5.368A7,7,0,0,0,21,34.045a29.353,29.353,0,0,0-.456-5.371A37.568,37.568,0,0,1,20,22.156ZM12.682,3.03C12.93,3.01,13.171,3,13.4,3a5.021,5.021,0,0,1,3.531,1.206c1.176,1.084,1.851,2.937,2.02,5.507A19.046,19.046,0,0,0,3.019,12.561C3.013,12.385,3,12.214,3,12.033,3,7.735,7.614,3.444,12.682,3.03Zm1.318,36a5.018,5.018,0,0,1-4.739-3.4,25.239,25.239,0,0,1-1.313-5.041,48.023,48.023,0,0,0-1.494-6.232c-.024-.077-.049-.148-.074-.225A10.828,10.828,0,0,1,18,21.813c0,.117,0,.222,0,.343a39.815,39.815,0,0,0,.568,6.823A27.4,27.4,0,0,1,19,34.033,5.006,5.006,0,0,1,14,39.033Z" fill="#363636"></path><path d="M34,47.05a7.005,7.005,0,0,0,6.616-4.708,26.708,26.708,0,0,0,1.4-5.368,46.2,46.2,0,0,1,1.435-6c.459-1.461.956-2.742,1.438-3.981C46.023,24.087,47,21.572,47,18.05c0-5.356-5.382-10.494-11.518-11a7.312,7.312,0,0,0-5.772,1.7C27.912,10.408,27,13.2,27,17.05a24.642,24.642,0,0,0,.469,4.962A30.263,30.263,0,0,1,28,28.173a37.545,37.545,0,0,1-.545,6.517A29.364,29.364,0,0,0,27,40.062,7.006,7.006,0,0,0,34,47.05Z" fill="#38a838"></path><path d="M34,43.05a3,3,0,0,0,2.837-2.018l.055-.149a22.9,22.9,0,0,0,1.193-4.636,50.52,50.52,0,0,1,1.553-6.469c.5-1.59,1.045-2.993,1.525-4.229C42.229,22.806,43,20.825,43,18.05c0-3.274-3.813-6.68-7.845-7.011-.178-.014-.367-.021-.551-.021a2.947,2.947,0,0,0-2.184.675c-.915.844-1.42,2.746-1.42,5.357a20.735,20.735,0,0,0,.407,4.262A34.01,34.01,0,0,1,32,28.173a41.4,41.4,0,0,1-.591,7.121A25.76,25.76,0,0,0,31,40.013,3.009,3.009,0,0,0,34,43.05Z" fill="#78d478"></path><path d="M28,28.156A30.271,30.271,0,0,0,27.469,22,24.634,24.634,0,0,1,27,17.033c0-3.85.912-6.642,2.71-8.3a7.316,7.316,0,0,1,5.771-1.7c6.137.5,11.519,5.641,11.519,11,0,3.522-.977,6.035-2.107,8.946-.482,1.239-.98,2.52-1.439,3.982a46.2,46.2,0,0,0-1.435,6,26.691,26.691,0,0,1-1.4,5.368A7,7,0,0,1,27,40.045a29.353,29.353,0,0,1,.456-5.371A37.568,37.568,0,0,0,28,28.156ZM35.318,9.03C35.07,9.01,34.829,9,34.6,9a5.021,5.021,0,0,0-3.531,1.206c-1.176,1.084-1.851,2.937-2.02,5.507a19.046,19.046,0,0,1,15.936,2.849c.006-.176.019-.347.019-.528C45,13.735,40.386,9.444,35.318,9.03ZM34,45.033a5.018,5.018,0,0,0,4.739-3.4,25.239,25.239,0,0,0,1.313-5.041,48.023,48.023,0,0,1,1.494-6.232c.024-.077.049-.148.074-.225A10.828,10.828,0,0,0,30,27.813c0,.117,0,.222,0,.343a39.815,39.815,0,0,1-.568,6.823A27.4,27.4,0,0,0,29,40.033,5.006,5.006,0,0,0,34,45.033Z" fill="#363636"></path></g></svg>