<svg xmlns="http://www.w3.org/2000/svg" height="48" width="48" viewBox="0 0 48 48"><title>sports bra</title><g class="nc-icon-wrapper"><path d="M41,38H7c-.362,0-.822-.684-1-1-.168-.3-4-6.953-4-12.869C2,14.857,6.87,3.109,7.077,2.614A1,1,0,0,1,8,2h5a1,1,0,0,1,.94,1.341c-1.025,2.828-4.041,12.318.182,15.676C16.616,21,22.174,21,24,21s7.384,0,9.878-1.982c4.223-3.359,1.207-12.849.182-15.677A1,1,0,0,1,35,2h5a1,1,0,0,1,.923.614C41.13,3.109,46,14.857,46,24.131,46,30.047,42.168,36.7,42,37,41.822,37.316,41.362,38,41,38Z" fill="#ed7064"></path> <path d="M41,46H7a1,1,0,0,1-1-1V37H42v8A1,1,0,0,1,41,46Z" fill="#444"></path></g></svg>