<svg xmlns="http://www.w3.org/2000/svg" height="48" width="48" viewBox="0 0 48 48"><title>swimsuit</title><g class="nc-icon-wrapper"><path d="M42,1H6A1,1,0,0,0,5,2V46a1,1,0,0,0,1,1H17.219a1,1,0,0,0,.97-.757l4.84-19.362a1,1,0,0,1,1.94,0l4.84,19.362a1,1,0,0,0,.972.757H42a1,1,0,0,0,1-1V2A1,1,0,0,0,42,1Z" fill="#363636"></path><rect x="5" y="9" width="38" height="2" fill="#c8c8c8"></rect><path d="M24,21a1,1,0,0,1-1-1V10a1,1,0,0,1,2,0V20A1,1,0,0,1,24,21Z" fill="#c8c8c8"></path><path d="M5,46a1,1,0,0,0,1,1H9V11H5Z" fill="#3aace9"></path><path d="M43,46a1,1,0,0,1-1,1H39V11h4Z" fill="#3aace9"></path></g></svg>