<svg xmlns="http://www.w3.org/2000/svg" height="48" width="48" viewBox="0 0 48 48"><title>towel</title><g class="nc-icon-wrapper"><path d="M44,46H10a1,1,0,0,1-1-1V4a1,1,0,0,1,1-1H39a6.006,6.006,0,0,1,6,6V45A1,1,0,0,1,44,46Z" fill="#82adb2"></path> <path d="M34,37H4a1,1,0,0,1-1-1V8A6.006,6.006,0,0,1,9,2H39a1,1,0,0,1,.1,2C38.936,4.013,35,4.475,35,8V36A1,1,0,0,1,34,37Z" fill="#c8e9ec"></path> <path d="M39,2H35V9A5,5,0,0,1,45,9V8A6.006,6.006,0,0,0,39,2Z" fill="#c8e9ec"></path> <rect x="3" y="27" width="32" height="3" fill="#a4dae0"></rect></g></svg>