<svg xmlns="http://www.w3.org/2000/svg" height="48" width="48" viewBox="0 0 48 48"><title>tshirt sport</title><g class="nc-icon-wrapper"><path d="M37,47H11a1,1,0,0,1-1-1V26H3a1,1,0,0,1-1-1V9a8,8,0,0,1,8-8h6a1.007,1.007,0,0,1,1,1.011c.009,5.606,6.643,9.69,12.478,4.819a5.168,5.168,0,0,0,1.529-4.708A1,1,0,0,1,32,1h6a8,8,0,0,1,8,8V25a1,1,0,0,1-1,1H38V46A1,1,0,0,1,37,47Z" fill="#e86c60"></path> <path d="M10,26H3a1,1,0,0,1,0-2H8V18a1,1,0,0,1,2,0Z" fill="#c64b4b"></path> <path d="M45,26H38V18a1,1,0,0,1,2,0v6h5a1,1,0,0,1,0,2Z" fill="#c64b4b"></path> <path d="M24,34c-2.945,0-5.167-1.7-5.167-3.967,0-1.9,1.183-3.19,3.18-4.415-2.312-1.631-2.6-3.192-2.6-3.86C19.417,19.37,21.088,18,24,18s4.583,1.37,4.583,3.758c0,.668-.284,2.229-2.6,3.86,2,1.225,3.18,2.512,3.18,4.415C29.167,32.3,26.945,34,24,34Zm0-7.218c-2.623,1.427-3.167,2.312-3.167,3.251C20.833,31.118,22.254,32,24,32s3.167-.882,3.167-1.967C27.167,29.094,26.622,28.209,24,26.782ZM24,20c-2.583,0-2.583,1.188-2.583,1.758,0,.493.558,1.6,2.583,2.754,2.025-1.159,2.583-2.261,2.583-2.754C26.583,21.188,26.583,20,24,20Z" fill="#fff"></path></g></svg>