<svg xmlns="http://www.w3.org/2000/svg" height="64" width="64" viewBox="0 0 64 64"><title>ai generated img 2</title><g stroke-linecap="round" fill="#61616b" stroke-linejoin="round" class="nc-icon-wrapper"><path d="M61,20v31c0,2.761-2.239,5-5,5H8c-2.761,0-5-2.239-5-5V13c0-2.761,2.239-5,5-5h30" fill="none" stroke="#61616b" stroke-width="2"></path><circle cx="20" cy="21" r="4" fill="none" stroke="#61616b" stroke-width="2"></circle><polygon points="12 47 21 33 28 40 39 25 52 47 12 47" fill="none" stroke="#61616b" stroke-width="2"></polygon><path d="M62,11c-4.971,0-9,4.029-9,9,0-4.971-4.029-9-9-9,4.971,0,9-4.029,9-9,0,4.971,4.029,9,9,9Z" fill="none" stroke="#61616b" stroke-width="2" data-color="color-2"></path></g></svg>