<svg xmlns="http://www.w3.org/2000/svg" height="16" width="16" viewBox="0 0 16 16"><title>ai generated img</title><g fill="#61616b" class="nc-icon-wrapper"><path d="M15.5,6.5v5.5c0,.828-.672,1.5-1.5,1.5H2c-.828,0-1.5-.672-1.5-1.5V4c0-.828,.672-1.5,1.5-1.5h6.5" fill="none" stroke="#61616b" stroke-linecap="round" stroke-linejoin="round"></path><polygon points="4.5 11.5 9.5 6.5 12.5 11.5 4.5 11.5" fill="none" stroke="#61616b" stroke-linecap="round" stroke-linejoin="round"></polygon><circle cx="4.5" cy="6.5" r="1" fill="none" stroke="#61616b" stroke-linecap="round" stroke-linejoin="round"></circle><path d="M11.5,2.469c1.105,0,2-.895,2-2,0,1.105,.895,2,2,2-1.105,0-2,.895-2,2,0-1.105-.895-2-2-2" fill="#61616b" stroke="#61616b" stroke-linecap="round" stroke-linejoin="round" data-color="color-2"></path></g></svg>