<svg xmlns="http://www.w3.org/2000/svg" height="48" width="48" viewBox="0 0 48 48"><title>ai generated img 3</title><g stroke-linecap="round" fill="#61616b" stroke-linejoin="round" class="nc-icon-wrapper"><polygon points="9 36 16 26 21 30 29 19 39 36 9 36" fill="none" stroke="#61616b" stroke-width="2"></polygon><circle cx="15" cy="16" r="3" fill="none" stroke="#61616b" stroke-width="2"></circle><path d="M27,7H6c-2.209,0-4,1.791-4,4v28c0,2.209,1.791,4,4,4H42c2.209,0,4-1.791,4-4V17" fill="none" stroke="#61616b" stroke-width="2"></path><path d="M46,10c-3.866,0-7,3.134-7,7,0-3.866-3.134-7-7-7,3.866,0,7-3.134,7-7,0,3.866,3.134,7,7,7Z" fill="none" stroke="#61616b" stroke-width="2" data-color="color-2"></path></g></svg>