<svg xmlns="http://www.w3.org/2000/svg" height="24" width="24" viewBox="0 0 24 24"><title>ai generated img 4</title><g stroke-linecap="round" fill="#61616b" stroke-linejoin="round" class="nc-icon-wrapper"><path d="M23,11v8c0,1.105-.895,2-2,2H3c-1.105,0-2-.895-2-2V5c0-1.105,.895-2,2-2H13" fill="none" stroke="#61616b" stroke-width="2"></path><polygon points="7 17 14 10 18 17 7 17" fill="none" stroke="#61616b" stroke-width="2"></polygon><circle cx="7" cy="9" r="1" fill="#61616b" stroke="#61616b" stroke-width="2"></circle><path d="M23,4h0c-1.105,0-2-.895-2-2h0c0-.552-.448-1-1-1s-1,.448-1,1h0c0,1.105-.895,2-2,2h0c-.552,0-1,.448-1,1s.448,1,1,1h0c1.105,0,2,.895,2,2h0c0,.552,.448,1,1,1s1-.448,1-1h0c0-1.105,.895-2,2-2h0c.552,0,1-.448,1-1s-.448-1-1-1Z" fill="#61616b" data-color="color-2" data-stroke="none" stroke="none"></path></g></svg>