<svg xmlns="http://www.w3.org/2000/svg" height="48" width="48" viewBox="0 0 48 48"><title>api 3</title><g stroke-linecap="round" fill="#61616b" stroke-linejoin="round" class="nc-icon-wrapper"><line x1="30" y1="40.001" x2="30" y2="35" fill="none" stroke="#61616b" stroke-width="2" data-color="color-2"></line><polyline points="40.879 36.88 37 33 37 26" fill="none" stroke="#61616b" stroke-width="2" data-color="color-2"></polyline><path d="M8.121,36.88,12,33V26" fill="none" stroke="#61616b" stroke-width="2" data-color="color-2"></path><circle cx="43" cy="39.001" r="3" fill="none" stroke="#61616b" stroke-width="2" data-color="color-2"></circle><circle cx="30" cy="43.001" r="3" fill="none" stroke="#61616b" stroke-width="2" data-color="color-2"></circle><line x1="18" y1="40.001" x2="18" y2="35" fill="none" stroke="#61616b" stroke-width="2" data-color="color-2"></line><circle cx="18" cy="43.001" r="3" fill="none" stroke="#61616b" stroke-width="2" data-color="color-2"></circle><circle cx="6" cy="39.001" r="3" fill="none" stroke="#61616b" stroke-width="2" data-color="color-2"></circle><circle cx="24" cy="24" r="6" fill="none" stroke="#61616b" stroke-width="2"></circle><path d="M46,25V21l-6.4-.534a15.885,15.885,0,0,0-2.072-4.991l4.155-4.91L37.435,6.322l-4.91,4.155A15.873,15.873,0,0,0,27.534,8.4L27,2H21l-.534,6.4a15.885,15.885,0,0,0-4.991,2.072l-4.91-4.155L6.322,10.565l4.155,4.91A15.873,15.873,0,0,0,8.4,20.466L2,21v4" fill="none" stroke="#61616b" stroke-width="2"></path></g></svg>