<svg xmlns="http://www.w3.org/2000/svg" height="32" width="32" viewBox="0 0 32 32"><title>api 4</title><g stroke-linecap="round" fill="#61616b" stroke-linejoin="round" class="nc-icon-wrapper"><path d="M8,19v4L5.414,25.586" fill="none" stroke="#61616b" stroke-width="2" data-color="color-2"></path><polyline points="26.586 25.586 24 23 24 19" fill="none" stroke="#61616b" stroke-width="2" data-color="color-2"></polyline><line x1="16" y1="27" x2="16" y2="24" fill="none" stroke="#61616b" stroke-width="2" data-color="color-2"></line><circle cx="4" cy="27" r="2" fill="none" stroke="#61616b" stroke-width="2" data-color="color-2"></circle><circle cx="16" cy="29" r="2" fill="none" stroke="#61616b" stroke-width="2" data-color="color-2"></circle><circle cx="28" cy="27" r="2" fill="none" stroke="#61616b" stroke-width="2" data-color="color-2"></circle><circle cx="16" cy="16" r="4" fill="none" stroke="#61616b" stroke-width="2"></circle><path d="M31,17V14l-4.306-.538a10.9,10.9,0,0,0-1.339-3.227l2.666-3.427L25.192,3.979,21.765,6.645a10.9,10.9,0,0,0-3.227-1.339L18,1H14l-.538,4.306a10.9,10.9,0,0,0-3.227,1.339L6.808,3.979,3.979,6.808l2.666,3.427a10.9,10.9,0,0,0-1.339,3.227L1,14v3" fill="none" stroke="#61616b" stroke-width="2"></path></g></svg>