<svg xmlns="http://www.w3.org/2000/svg" height="64" width="64" viewBox="0 0 64 64"><title>api 2</title><g stroke-linecap="round" fill="#61616b" stroke-linejoin="round" class="nc-icon-wrapper"><line x1="32" y1="54" x2="32" y2="46" fill="none" stroke="#61616b" stroke-width="2" data-color="color-2"></line><polyline points="50 33 50 37 55.172 42.172" fill="none" stroke="#61616b" stroke-width="2" data-color="color-2"></polyline><circle cx="58" cy="45" r="4" fill="none" stroke="#61616b" stroke-width="2" data-color="color-2"></circle><polyline points="14 33 14 37 8.828 42.172" fill="none" stroke="#61616b" stroke-width="2" data-color="color-2"></polyline><circle cx="6" cy="45" r="4" fill="none" stroke="#61616b" stroke-width="2" data-color="color-2"></circle><polyline points="17 52 17 48 21 44 21 42" fill="none" stroke="#61616b" stroke-width="2" data-color="color-2"></polyline><circle cx="17" cy="56" r="4" fill="none" stroke="#61616b" stroke-width="2" data-color="color-2"></circle><polyline points="47 52 47 48 43 44 43 42" fill="none" stroke="#61616b" stroke-width="2" data-color="color-2"></polyline><circle cx="47" cy="56" r="4" fill="none" stroke="#61616b" stroke-width="2" data-color="color-2"></circle><circle cx="32" cy="58" r="4" fill="none" stroke="#61616b" stroke-width="2" data-color="color-2"></circle><circle cx="32" cy="32" r="8" fill="none" stroke="#61616b" stroke-width="2"></circle><path d="M62,34V28l-8.612-1.076A21.839,21.839,0,0,0,50.71,20.47l5.332-6.854L50.384,7.958,43.53,13.29a21.839,21.839,0,0,0-6.454-2.678L36,2H28l-1.076,8.612A21.839,21.839,0,0,0,20.47,13.29L13.616,7.958,7.958,13.616,13.29,20.47a21.839,21.839,0,0,0-2.678,6.454L2,28v6" fill="none" stroke="#61616b" stroke-width="2"></path></g></svg>