<svg xmlns="http://www.w3.org/2000/svg" height="48" width="48" viewBox="0 0 48 48"><title>apple 4</title><g stroke-linecap="round" fill="#61616b" stroke-linejoin="round" class="nc-icon-wrapper"><path data-color="color-2" fill-rule="evenodd" clip-rule="evenodd" fill="none" stroke="#61616b" stroke-width="2" d=" M26.069,5.394C28.632,2.016,32.195,2,32.195,2s0.53,3.176-2.016,6.235c-2.719,3.267-5.809,2.732-5.809,2.732 S23.79,8.398,26.069,5.394z"></path> <path fill-rule="evenodd" clip-rule="evenodd" fill="none" stroke="#61616b" stroke-width="2" d=" M24.535,16.896c1.38,0,3.94-1.896,7.273-1.896c5.737,0,7.994,4.082,7.994,4.082s-4.414,2.257-4.414,7.733 c0,6.177,5.499,8.306,5.499,8.306S37.043,45.94,31.851,45.94c-2.385,0-4.238-1.607-6.751-1.607c-2.56,0-5.101,1.667-6.756,1.667 c-4.741,0-10.73-10.263-10.73-18.512c0-8.116,5.07-12.374,9.825-12.374C20.529,15.114,22.928,16.896,24.535,16.896z"></path></g></svg>