<svg xmlns="http://www.w3.org/2000/svg" height="32" width="32" viewBox="0 0 32 32"><title>apple 5</title><g stroke-linecap="round" fill="#61616b" stroke-linejoin="round" class="nc-icon-wrapper"><path fill="none" stroke="#61616b" stroke-width="2" d="M28,23.697 c-0.656,1.427-0.969,2.064-1.815,3.325c-1.177,1.761-2.839,3.954-4.897,3.973c-1.829,0.017-2.299-1.168-4.781-1.155 s-3,1.176-4.829,1.159c-2.058-0.018-3.631-1.999-4.81-3.761c-3.295-4.925-3.639-10.704-1.607-13.776 c1.444-2.184,3.723-3.461,5.865-3.461c2.181,0,3.552,1.174,5.356,1.174c1.75,0,2.815-1.176,5.338-1.176 c1.906,0,3.926,1.019,5.365,2.78C22.47,15.318,23.236,21.929,28,23.697L28,23.697z"></path> <path data-color="color-2" fill="none" stroke="#61616b" stroke-width="2" d="M20.56,5.722 C21.515,4.497,22.239,2.768,21.976,1c-1.56,0.107-3.383,1.099-4.448,2.392c-0.966,1.173-1.765,2.914-1.455,4.606 C17.775,8.051,19.537,7.035,20.56,5.722L20.56,5.722z"></path></g></svg>