<svg xmlns="http://www.w3.org/2000/svg" height="48" width="48" viewBox="0 0 48 48"><title>binary code 2</title><g stroke-linecap="round" fill="#61616b" stroke-linejoin="round" class="nc-icon-wrapper"><path d="M9,5h-2c-1.105,0-2,.895-2,2v14.757c0,.796-.316,1.559-.879,2.121l-1.121,1.121,1.121,1.121c.563,.563,.879,1.326,.879,2.121v12.757c0,1.105,.895,2,2,2h2" fill="none" stroke="#61616b" stroke-width="2"></path><path d="M39,5h2c1.105,0,2,.895,2,2v14.757c0,.796,.316,1.559,.879,2.121l1.121,1.121-1.121,1.121c-.563,.563-.879,1.326-.879,2.121v12.757c0,1.105-.895,2-2,2h-2" fill="none" stroke="#61616b" stroke-width="2"></path><polyline points="15 11 17 11 17 21" fill="none" stroke="#61616b" stroke-width="2"></polyline><polyline points="31 27 33 27 33 37" fill="none" stroke="#61616b" stroke-width="2"></polyline><rect x="25" y="11" width="8" height="10" rx="2" ry="2" fill="none" stroke="#61616b" stroke-width="2" data-color="color-2"></rect><rect x="15" y="27" width="8" height="10" rx="2" ry="2" fill="none" stroke="#61616b" stroke-width="2" data-color="color-2"></rect></g></svg>