<svg xmlns="http://www.w3.org/2000/svg" height="24" width="24" viewBox="0 0 24 24"><title>binary code 5</title><g stroke-linecap="round" fill="#61616b" stroke-linejoin="round" class="nc-icon-wrapper"><path d="M4,3c-.552,0-1,.448-1,1v6.172c0,.53-.211,1.039-.586,1.414l-.414,.414,.414,.414c.375,.375,.586,.884,.586,1.414v6.172c0,.552,.448,1,1,1" fill="none" stroke="#61616b" stroke-width="2"></path><path d="M20,3c.552,0,1,.448,1,1v6.172c0,.53,.211,1.039,.586,1.414l.414,.414-.414,.414c-.375,.375-.586,.884-.586,1.414v6.172c0,.552-.448,1-1,1" fill="none" stroke="#61616b" stroke-width="2"></path><polyline points="7 5 8 5 8 10" fill="none" stroke="#61616b" stroke-width="2"></polyline><polyline points="16 14 17 14 17 19" fill="none" stroke="#61616b" stroke-width="2"></polyline><rect x="13" y="5" width="4" height="5" rx="1" ry="1" fill="none" stroke="#61616b" stroke-width="2" data-color="color-2"></rect><rect x="7" y="14" width="4" height="5" rx="1" ry="1" fill="none" stroke="#61616b" stroke-width="2" data-color="color-2"></rect></g></svg>