<svg xmlns="http://www.w3.org/2000/svg" height="32" width="32" viewBox="0 0 32 32"><title>binary code 4</title><g stroke-linecap="round" fill="#61616b" stroke-linejoin="round" class="nc-icon-wrapper"><path d="M6,3h-1.5c-.828,0-1.5,.672-1.5,1.5V14.172c0,.53-.211,1.039-.586,1.414l-.414,.414,.414,.414c.375,.375,.586,.884,.586,1.414v9.672c0,.828,.672,1.5,1.5,1.5h1.5" fill="none" stroke="#61616b" stroke-width="2"></path><path d="M26,3h1.5c.828,0,1.5,.672,1.5,1.5V14.172c0,.53,.211,1.039,.586,1.414l.414,.414-.414,.414c-.375,.375-.586,.884-.586,1.414v9.672c0,.828-.672,1.5-1.5,1.5h-1.5" fill="none" stroke="#61616b" stroke-width="2"></path><polyline points="10 7 12 7 12 14" fill="none" stroke="#61616b" stroke-width="2"></polyline><polyline points="20 18 22 18 22 25" fill="none" stroke="#61616b" stroke-width="2"></polyline><rect x="10" y="18" width="5" height="7" rx="1.5" ry="1.5" fill="none" stroke="#61616b" stroke-width="2" data-color="color-2"></rect><rect x="17" y="7" width="5" height="7" rx="1.5" ry="1.5" fill="none" stroke="#61616b" stroke-width="2" data-color="color-2"></rect></g></svg>