<svg xmlns="http://www.w3.org/2000/svg" height="16" width="16" viewBox="0 0 16 16"><title>binary code</title><g fill="#61616b" class="nc-icon-wrapper"><path d="M3.5,.5h-1c-.552,0-1,.448-1,1V6.172c0,.53-.211,1.039-.586,1.414l-.414,.414,.414,.414c.375,.375,.586,.884,.586,1.414v4.672c0,.552,.448,1,1,1h1" fill="none" stroke="#61616b" stroke-linecap="round" stroke-linejoin="round"></path><path d="M12.5,.5h1c.552,0,1,.448,1,1V6.172c0,.53,.211,1.039,.586,1.414l.414,.414-.414,.414c-.375,.375-.586,.884-.586,1.414v4.672c0,.552-.448,1-1,1h-1" fill="none" stroke="#61616b" stroke-linecap="round" stroke-linejoin="round"></path><polyline points="4.5 2.5 5.5 2.5 5.5 6.5" fill="none" stroke="#61616b" stroke-linecap="round" stroke-linejoin="round"></polyline><polyline points="10.5 9.5 11.5 9.5 11.5 13.5" fill="none" stroke="#61616b" stroke-linecap="round" stroke-linejoin="round"></polyline><rect x="4.5" y="9.5" width="3" height="4" rx="1" ry="1" fill="none" stroke="#61616b" stroke-linecap="round" stroke-linejoin="round" data-color="color-2"></rect><rect x="8.5" y="2.5" width="3" height="4" rx="1" ry="1" fill="none" stroke="#61616b" stroke-linecap="round" stroke-linejoin="round" data-color="color-2"></rect></g></svg>