<svg xmlns="http://www.w3.org/2000/svg" height="64" width="64" viewBox="0 0 64 64"><title>binary code 3</title><g stroke-linecap="round" fill="#61616b" stroke-linejoin="round" class="nc-icon-wrapper"><path d="M54,7h2.5c1.381,0,2.5,1.119,2.5,2.5V27.789c0,.79,.234,1.562,.672,2.219l1.328,1.992-1.328,1.992c-.438,.657-.672,1.429-.672,2.219v18.289c0,1.381-1.119,2.5-2.5,2.5h-2.405" fill="none" stroke="#61616b" stroke-width="2"></path><path d="M10,7h-2.5c-1.381,0-2.5,1.119-2.5,2.5V27.789c0,.79-.234,1.562-.672,2.219l-1.328,1.992,1.328,1.992c.438,.657,.672,1.429,.672,2.219v18.289c0,1.381,1.119,2.5,2.5,2.5h2.405" fill="none" stroke="#61616b" stroke-width="2"></path><polyline points="19 7 21 7 21 19" fill="none" stroke="#61616b" stroke-width="2"></polyline><polyline points="42 7 44 7 44 19" fill="none" stroke="#61616b" stroke-width="2"></polyline><rect x="28" y="7" width="8" height="12" rx="2.5" ry="2.5" fill="none" stroke="#61616b" stroke-width="2" data-color="color-2"></rect><polyline points="19 45 21 45 21 57" fill="none" stroke="#61616b" stroke-width="2"></polyline><polyline points="42 45 44 45 44 57" fill="none" stroke="#61616b" stroke-width="2"></polyline><rect x="28" y="45" width="8" height="12" rx="2.5" ry="2.5" fill="none" stroke="#61616b" stroke-width="2" data-color="color-2"></rect><polyline points="31 26 33 26 33 38" fill="none" stroke="#61616b" stroke-width="2"></polyline><rect x="17" y="26" width="8" height="12" rx="2.5" ry="2.5" fill="none" stroke="#61616b" stroke-width="2" data-color="color-2"></rect><rect x="40" y="26" width="8" height="12" rx="2.5" ry="2.5" fill="none" stroke="#61616b" stroke-width="2" data-color="color-2"></rect></g></svg>