<svg xmlns="http://www.w3.org/2000/svg" height="64" width="64" viewBox="0 0 64 64"><title>blockchain 2</title><g stroke-linecap="round" fill="#61616b" stroke-linejoin="round" class="nc-icon-wrapper"><polyline points="48 45.091 51 47 62 40 62 28 51 20.977 40 28 40 31" fill="none" stroke="#61616b" stroke-width="2" data-color="color-2"></polyline><line x1="32" y1="46.614" x2="32" y2="58.887" fill="none" stroke="#61616b" stroke-width="2" data-cap="butt"></line><polyline points="21 40 32 46.999 43 40" fill="none" stroke="#61616b" stroke-width="2" data-cap="butt"></polyline><line x1="32" y1="46.999" x2="32" y2="59" fill="none" stroke="#61616b" stroke-width="2" data-cap="butt"></line><polyline points="21 15.88 32 22.879 43 15.88" fill="none" stroke="#61616b" stroke-width="2" data-cap="butt"></polyline><line x1="32" y1="22.879" x2="32" y2="28" fill="none" stroke="#61616b" stroke-width="2" data-cap="butt"></line><polyline points="24 28 13 34.999 2 28" fill="none" stroke="#61616b" stroke-width="2" data-cap="butt" data-color="color-2"></polyline><line x1="13" y1="34.999" x2="13" y2="47" fill="none" stroke="#61616b" stroke-width="2" data-cap="butt" data-color="color-2"></line><polyline points="40 28 51 34.999 62 28" fill="none" stroke="#61616b" stroke-width="2" data-cap="butt" data-color="color-2"></polyline><line x1="51" y1="34.999" x2="51" y2="47" fill="none" stroke="#61616b" stroke-width="2" data-cap="butt" data-color="color-2"></line><polyline points="43 20 43 15.88 32 8.856 21 15.88 21 20" fill="none" stroke="#61616b" stroke-width="2"></polyline><polyline points="23.999 32 24 28 13 20.977 2 28 2 40 13 47 16 45.091" fill="none" stroke="#61616b" stroke-width="2" data-color="color-2"></polyline><polygon points="43 40 32 32.976 21 40 21 52 32 59 43 52 43 40" fill="none" stroke="#61616b" stroke-width="2" data-cap="butt"></polygon></g></svg>