<svg xmlns="http://www.w3.org/2000/svg" height="48" width="48" viewBox="0 0 48 48"><title>book bookmark 5</title><g stroke-linecap="round" fill="#61616b" stroke-linejoin="round" class="nc-icon-wrapper"><polyline data-cap="butt" data-color="color-2" points="26 2 26 18 20 14 14 18 14 2" fill="none" stroke="#61616b" stroke-width="2"></polyline> <path data-cap="butt" d="M6,42a4,4,0,0,0,4,4H38a4,4,0,0,0,4-4V34" fill="none" stroke="#61616b" stroke-width="2"></path> <path data-cap="butt" d="M10,2A4,4,0,0,0,6,6V42a4,4,0,0,1,4-4H38a4,4,0,0,0,4-4V6a4,4,0,0,0-4-4Z" fill="none" stroke="#61616b" stroke-width="2"></path></g></svg>