<svg xmlns="http://www.w3.org/2000/svg" height="24" width="24" viewBox="0 0 24 24"><title>book bookmark</title><g stroke-linecap="round" fill="#61616b" stroke-linejoin="round" class="nc-icon-wrapper"><polyline data-cap="butt" data-color="color-2" fill="none" stroke="#61616b" stroke-width="2" points="13,1 13,9 10,7 7,9 7,1 "></polyline> <path fill="none" stroke="#61616b" stroke-width="2" d="M5,1C3.895,1,3,1.895,3,3 v18c0-1.105,0.895-2,2-2h14c1.105,0,2-0.895,2-2V3c0-1.105-0.895-2-2-2H5z"></path> <path fill="none" stroke="#61616b" stroke-width="2" d="M19,23c1.105,0,2-0.895,2-2 v-2v-2c0,1.105-0.895,2-2,2H5c-1.105,0-2,0.895-2,2c0,1.105,0.895,2,2,2H19z"></path></g></svg>