<svg xmlns="http://www.w3.org/2000/svg" height="16" width="16" viewBox="0 0 16 16"><title>book bookmark 2 2</title><g fill="#61616b" class="nc-icon-wrapper"><polyline fill="none" stroke="#61616b" stroke-linecap="round" stroke-linejoin="round" points="12.5,2.5 12.5,8.5 10,6.5 7.5,8.5 7.5,2.5 " data-color="color-2"></polyline> <path fill="none" stroke="#61616b" stroke-linecap="round" stroke-linejoin="round" d="M0.5,14V2.5c0-1.105,0.895-2,2-2h11 c1.105,0,2,0.895,2,2V14"></path> <path fill="none" stroke="#61616b" stroke-linecap="round" stroke-linejoin="round" d="M2,12.5h12c0.828,0,1.5,0.672,1.5,1.5l0,0 c0,0.828-0.672,1.5-1.5,1.5H2c-0.828,0-1.5-0.672-1.5-1.5l0,0C0.5,13.172,1.172,12.5,2,12.5z"></path></g></svg>