<svg xmlns="http://www.w3.org/2000/svg" height="64" width="64" viewBox="0 0 64 64"><title>book bookmark 4</title><g stroke-linecap="round" fill="#61616b" stroke-linejoin="round" class="nc-icon-wrapper"><polyline data-cap="butt" data-color="color-2" points="31 2 31 24 24 20 17 24 17 2" fill="none" stroke="#61616b" stroke-width="2"></polyline> <path data-cap="butt" d="M7,57H7a5,5,0,0,0,5,5H52a5,5,0,0,0,5-5V48" fill="none" stroke="#61616b" stroke-width="2"></path> <path data-cap="butt" d="M52,2H12A5,5,0,0,0,7,7V57H7a5,5,0,0,1,5-5H52a5,5,0,0,0,5-5V7A5,5,0,0,0,52,2Z" fill="none" stroke="#61616b" stroke-width="2"></path></g></svg>