<svg xmlns="http://www.w3.org/2000/svg" height="64" width="64" viewBox="0 0 64 64"><title>browser ie 2</title><g stroke-linecap="round" fill="#61616b" stroke-linejoin="round" class="nc-icon-wrapper"><path fill="none" stroke="#61616b" stroke-width="2" d="M34,20c8.078,0,8,8,8,8H26 C26,28,25.636,20,34,20z"></path> <path data-cap="butt" fill="none" stroke="#61616b" stroke-width="2" d="M11.997,47.085 c2.355,3.011,8.664,8.917,21.924,8.917c16.871,0,22.117-11.327,23.568-16.002H39.731c-0.49,1.745-1.867,4-5.731,4 c-8.648,0-8-10-8-10h32.084c0.234-13.261-6.731-19.795-12.091-22.854"></path> <path data-cap="butt" fill="none" stroke="#61616b" stroke-width="2" d="M36.986,8.096 c-2.828-0.509-11.217-1.402-19.619,3.679C8.606,17.359,7.07,26.199,6.674,29.264c-0.57,4.415,1.051,9.596,1.051,9.596"></path> <path data-cap="butt" data-color="color-2" fill="none" stroke="#61616b" stroke-width="2" d="M58.795,15.413 c5.551-14.405-5.231-13.397-5.231-13.397C46.646,2.015,31.125,10,21.085,20C8,32.5,4.976,46.302,4.025,49.578 C2.913,53.407,3.654,62,11.561,62c2.195,0,4.399-0.491,6.438-1.2"></path></g></svg>