<svg xmlns="http://www.w3.org/2000/svg" height="32" width="32" viewBox="0 0 32 32"><title>browser opera 4</title><g stroke-linecap="round" fill="#61616b" stroke-linejoin="round" class="nc-icon-wrapper"><path data-cap="butt" fill="none" stroke="#61616b" stroke-width="2" d="M11.392,23.89 c-1.548-1.827-2.55-4.529-2.619-7.56c0-0.008,0-0.652,0-0.66c0.068-3.031,1.071-5.733,2.618-7.56 c2.009-2.608,4.994-4.262,8.328-4.262c2.051,0,3.97,0.626,5.611,1.715c-2.464-2.205-5.714-3.55-9.278-3.563 C16.035,2.001,16.018,2,16,2C8.268,2,2,8.268,2,16c0,7.508,5.911,13.636,13.333,13.984C15.554,29.994,15.776,30,16,30 c3.584,0,6.853-1.348,9.33-3.563c-1.641,1.088-3.559,1.714-5.61,1.714C16.386,28.152,13.4,26.498,11.392,23.89z"></path> <path data-cap="butt" fill="none" stroke="#61616b" stroke-width="2" d="M11.392,8.111 c1.285-1.516,2.944-2.431,4.757-2.431c4.075,0,7.379,4.621,7.379,10.321s-3.304,10.321-7.379,10.321 c-1.813,0-3.472-0.915-4.757-2.431c2.008,2.608,4.994,4.262,8.328,4.262c2.051,0,3.969-0.626,5.61-1.714 C28.196,23.874,30,20.148,30,16c0-4.147-1.804-7.873-4.669-10.436c-1.641-1.089-3.56-1.715-5.611-1.715 C16.386,3.849,13.4,5.502,11.392,8.111z"></path></g></svg>