<svg xmlns="http://www.w3.org/2000/svg" height="64" width="64" viewBox="0 0 64 64"><title>browser edge 2</title><g stroke-linecap="round" fill="#61616b" stroke-linejoin="round" class="nc-icon-wrapper"><path d="M41.18,59.473a17.1,17.1,0,0,1-14.217-1.794l-.02-.009a17.923,17.923,0,0,1-5.15-4.832A18.28,18.28,0,0,1,25.781,27.3,17.188,17.188,0,0,1,28.4,25.709" fill="none" stroke="#61616b" stroke-width="2" data-cap="butt" data-color="color-2"></path><path d="M3.025,31.533c.108-8.275,8.308-14.912,18.091-14.912A21.9,21.9,0,0,1,30.627,18.9a16.436,16.436,0,0,1,6.986,6.614,14.3,14.3,0,0,1,1.647,6.611" fill="none" stroke="#61616b" stroke-width="2" data-cap="butt" data-color="color-2"></path><path d="M37.495,36.71c-.183.238-.747.566-.747,1.282a2.107,2.107,0,0,0,1.069,1.637c3.256,2.264,9.4,1.965,9.411,1.965A13.473,13.473,0,0,0,54.083,39.7a13.9,13.9,0,0,0,6.891-11.974,20.043,20.043,0,0,0-2.568-9.944C53.607,8.4,43.25,3,31.986,3,16.135,3,3.025,15.866,3.025,31.612A30.053,30.053,0,0,0,5.767,44.294,28.843,28.843,0,0,0,41.153,59.482,29.62,29.62,0,0,0,56.531,47.426a.906.906,0,0,0-1.2-1.278,21.054,21.054,0,0,1-2.387,1.067,23.067,23.067,0,0,1-8.129,1.463c-10.716,0-20.05-7.371-20.05-16.83a7.13,7.13,0,0,1,3.72-6.185A7.578,7.578,0,0,1,32,24.758,7.327,7.327,0,0,1,37.817,27.7a7.227,7.227,0,0,1,1.437,4.192c0,.105.008.221.008.308A8.182,8.182,0,0,1,37.495,36.71Z" fill="none" stroke="#61616b" stroke-width="2"></path></g></svg>