<svg xmlns="http://www.w3.org/2000/svg" height="32" width="32" viewBox="0 0 32 32"><title>browser edge legacy 4</title><g stroke-linecap="round" fill="#61616b" stroke-linejoin="round" class="nc-icon-wrapper"><path fill="none" stroke="#61616b" stroke-width="2" d=" M7.759,8.946C4.19,11.167,2.15,14.324,2.15,14.324C2.735,6.997,8.475,1,16.257,1c1.396,0,4.323,0.243,6.959,1.868 c3.376,2.081,5.311,4.867,6.08,8.011c0.657,2.69,0.547,5.294,0.547,7.532H11.001c0,0-0.46,6.33,8.205,6.33 c2.966,0,5.793-0.667,8.11-2.251l0.003,6.325c0,0-3.546,2.184-8.904,2.184c-6.724,0-11.048-3.726-12.397-8.509 c-0.385-1.366-0.381-2.694-0.381-3.425c0-2.735,0.934-5.346,2.556-7.234c2.1-2.445,4.755-3.522,4.755-3.522 c-1.127,1.314-1.88,3.096-2.074,4.781h10.639c0,0,0.622-6.357-6.02-6.357C12.991,6.734,9.917,7.603,7.759,8.946z"></path></g></svg>