<svg xmlns="http://www.w3.org/2000/svg" height="64" width="64" viewBox="0 0 64 64"><title>browser edge legacy 2</title><g stroke-linecap="round" fill="#61616b" stroke-linejoin="round" class="nc-icon-wrapper"><path fill="none" stroke="#61616b" stroke-width="2" d=" M15.518,17.892C8.38,22.335,4.301,28.649,4.301,28.649C5.471,13.995,16.951,2,32.514,2c2.791,0,8.645,0.486,13.918,3.736 c6.752,4.163,10.623,9.734,12.159,16.023c1.314,5.38,1.094,10.588,1.094,15.064H22.003c0,0-0.92,12.661,16.41,12.661 c5.932,0,11.586-1.334,16.22-4.501l0.006,12.649c0,0-7.093,4.369-17.808,4.369c-13.449,0-22.095-7.452-24.794-17.018 c-0.771-2.733-0.762-5.387-0.762-6.85c0-5.47,1.869-10.693,5.112-14.468c4.201-4.89,9.51-7.043,9.51-7.043 c-2.254,2.628-3.76,6.193-4.148,9.562h21.278c0,0,1.244-12.715-12.04-12.715C25.981,13.468,19.834,15.205,15.518,17.892z"></path></g></svg>