<svg xmlns="http://www.w3.org/2000/svg" height="48" width="48" viewBox="0 0 48 48"><title>browser edge legacy 3</title><g stroke-linecap="round" fill="#61616b" stroke-linejoin="round" class="nc-icon-wrapper"><path data-cap="butt" fill="none" stroke="#61616b" stroke-width="2" d="M23.257,10.41 C20.167,11,16.537,14.417,17,20h15C32,20,32.999,10.41,23.257,10.41c-3.671,0-8.179,1.274-11.344,3.244 c-5.234,3.258-8.226,7.889-8.226,7.889C4.545,10.796,12.964,2,24.377,2C35.061,2,44,8.5,44,27H17c0,0-1.006,9.821,11.702,9.821 c4.35,0,8.497-0.978,11.895-3.301l0.004,9.276c0,0-5.201,3.204-13.059,3.204C17.68,46,11.339,40.535,9.36,33.52 c-0.565-2.004-0.558-3.951-0.558-5.023c0-4.011,1.407-7.913,3.615-10.913c3.033-4.345,8.905-7.066,8.905-7.066"></path></g></svg>