<svg xmlns="http://www.w3.org/2000/svg" height="64" width="64" viewBox="0 0 64 64"><title>browser opera 2</title><g stroke-linecap="round" fill="#61616b" stroke-linejoin="round" class="nc-icon-wrapper"><path data-cap="butt" fill="none" stroke="#61616b" stroke-width="2" d="M22.125,48.907 c-3.317-3.915-5.465-9.704-5.611-16.2c0-0.017,0-1.397,0-1.413c0.146-6.496,2.294-12.284,5.611-16.199 c4.304-5.589,10.702-9.133,17.846-9.133c4.395,0,8.507,1.342,12.024,3.675C46.714,4.912,39.75,2.03,32.113,2.001 C32.076,2.001,32.038,2,32,2C15.432,2,2,15.431,2,32c0,16.089,12.666,29.219,28.571,29.965C31.045,61.988,31.521,62,32,62 c7.681,0,14.686-2.888,19.993-7.635c-3.516,2.332-7.627,3.674-12.022,3.674C32.827,58.039,26.429,54.495,22.125,48.907z"></path> <path data-cap="butt" fill="none" stroke="#61616b" stroke-width="2" d="M22.125,15.094 c2.753-3.25,6.309-5.209,10.193-5.209c8.733,0,15.813,9.902,15.813,22.115s-7.08,22.115-15.813,22.115 c-3.884,0-7.44-1.96-10.193-5.209c4.304,5.589,10.701,9.132,17.846,9.132c4.394,0,8.506-1.342,12.022-3.674 C58.134,48.872,62,40.888,62,32c0-8.887-3.865-16.87-10.005-22.363c-3.517-2.333-7.629-3.675-12.024-3.675 C32.827,5.961,26.429,9.505,22.125,15.094z"></path></g></svg>