<svg xmlns="http://www.w3.org/2000/svg" height="48" width="48" viewBox="0 0 48 48"><title>browser ie 3</title><g stroke-linecap="round" fill="#61616b" stroke-linejoin="round" class="nc-icon-wrapper"><path fill="none" stroke="#61616b" stroke-width="2" d="M25,15c5.924,0,6,6,6,6H19 C19,21,19,15,25,15z"></path> <path data-cap="butt" fill="none" stroke="#61616b" stroke-width="2" d="M9.331,35.062 C11.058,37.27,15.276,42,25,42c12.372,0,16.875-7.25,18-11H30c-0.812,1.312-2.312,2-5,2c-6.342,0-6-7-6-7h24 c0.172-9.725-4.807-15.05-8.738-17.293"></path> <path data-cap="butt" fill="none" stroke="#61616b" stroke-width="2" d="M27.656,6.47 c-2.074-0.373-8.226-1.028-14.387,2.698c-6.425,4.095-7.551,10.578-7.841,12.825c-0.418,3.238,0.771,7.037,0.771,7.037"></path> <path data-cap="butt" data-color="color-2" fill="none" stroke="#61616b" stroke-width="2" d="M43.65,11.836 c4.071-10.564-3.836-9.825-3.836-9.825c-5.073,0-16.455,5.856-23.818,13.189C6.4,24.367,4.182,34.488,3.485,36.89 C2.669,39.699,3.213,46,9.011,46c1.609,0,3.226-0.36,4.721-0.88"></path></g></svg>