<svg xmlns="http://www.w3.org/2000/svg" height="24" width="24" viewBox="0 0 24 24"><title>browser ie</title><g stroke-linecap="round" fill="#61616b" stroke-linejoin="round" class="nc-icon-wrapper"><path fill="none" stroke="#61616b" stroke-width="2" d="M22,13 c0.347-7.188-4.708-10-10-10C3.887,3,2,9.119,2,12s1.918,10,10,10s10-4.917,10-6c-1.625,0-7,0-7,0s-0.813,1-3,1c-3.063,0-3-4-3-4H22 z M9,10c0,0-0.207-3,3-3c2.585,0,3,2.28,3,3C13.205,10,9,10,9,10z"></path> <path data-cap="butt" fill="none" stroke="#61616b" stroke-width="2" d="M8.212,21.375 c-3.078,1.803-5.335,2.047-6.474,1.019c-1.438-1.298-1.199-7.196,4.588-13.32c5.739-6.074,11.956-9.039,14.06-7.795 c1.099,0.649,1.447,2.554-0.051,5.333"></path></g></svg>