<svg xmlns="http://www.w3.org/2000/svg" height="32" width="32" viewBox="0 0 32 32"><title>browser ie 4</title><g stroke-linecap="round" fill="#61616b" stroke-linejoin="round" class="nc-icon-wrapper"><path fill="none" stroke="#61616b" stroke-width="2" d="M17,10c4.039,0,4,4,4,4h-8 C13,14,12.818,10,17,10z"></path> <path data-cap="butt" fill="none" stroke="#61616b" stroke-width="2" d="M5.998,23.542 c1.177,1.505,4.332,4.459,10.962,4.459c8.436,0,11.058-5.664,11.784-8.001h-8.879c-0.245,0.873-0.934,2-2.866,2c-4.324,0-4-5-4-5 h16.042c0.117-6.63-3.365-9.898-6.045-11.427"></path> <path data-cap="butt" fill="none" stroke="#61616b" stroke-width="2" d="M18.493,4.048 c-1.414-0.255-5.609-0.701-9.809,1.839c-4.38,2.792-5.148,7.212-5.346,8.745c-0.285,2.207,0.526,4.798,0.526,4.798"></path> <path data-cap="butt" data-color="color-2" fill="none" stroke="#61616b" stroke-width="2" d="M29.398,7.706 c2.776-7.203-2.616-6.699-2.616-6.699C23.323,1.008,15.562,5,10.542,10C4,16.25,2.488,23.151,2.012,24.789 C1.456,26.704,1.827,31,5.78,31c1.097,0,2.2-0.245,3.219-0.6"></path></g></svg>