<svg xmlns="http://www.w3.org/2000/svg" height="48" width="48" viewBox="0 0 48 48"><title>browser opera 3</title><g stroke-linecap="round" fill="#61616b" stroke-linejoin="round" class="nc-icon-wrapper"><path fill="none" stroke="#61616b" stroke-width="2" d="M16.759,36.398 c-2.432-2.871-4.008-7.116-4.115-11.88c0-0.012,0-1.024,0-1.036c0.107-4.763,1.683-9.008,4.115-11.88 c3.156-4.099,7.848-6.697,13.087-6.697c3.223,0,6.239,0.984,8.817,2.695c-3.873-3.465-8.979-5.579-14.58-5.599 C24.055,2.001,24.028,2,24,2C11.85,2,2,11.85,2,24c0,11.799,9.289,21.427,20.952,21.975C23.3,45.991,23.649,46,24,46 c5.632,0,10.769-2.118,14.661-5.599c-2.578,1.71-5.593,2.694-8.816,2.694C24.606,43.095,19.915,40.497,16.759,36.398z"></path> <path fill="none" stroke="#61616b" stroke-width="2" d="M16.758,11.602c2.019-2.383,4.627-3.82,7.475-3.82 c6.404,0,11.596,7.261,11.596,16.218s-5.192,16.218-11.596,16.218c-2.848,0-5.456-1.437-7.475-3.82 c3.156,4.098,7.848,6.697,13.087,6.697c3.222,0,6.237-0.984,8.816-2.694C43.165,36.373,46,30.518,46,24 c0-6.517-2.835-12.371-7.337-16.4c-2.579-1.711-5.594-2.695-8.817-2.695C24.606,4.905,19.915,7.504,16.758,11.602z"></path></g></svg>