<svg xmlns="http://www.w3.org/2000/svg" height="24" width="24" viewBox="0 0 24 24"><title>browser edge</title><g stroke-linecap="round" fill="#61616b" stroke-linejoin="round" class="nc-icon-wrapper"><path d="M15.482,22.421a6.487,6.487,0,0,1-5.393-.681l-.007,0A6.817,6.817,0,0,1,8.128,19.9a6.934,6.934,0,0,1,1.513-9.688,6.485,6.485,0,0,1,.993-.6" fill="none" stroke="#61616b" stroke-width="2" data-cap="butt" data-color="color-2"></path><path d="M1.009,11.823c.042-3.139,3.152-5.656,6.863-5.656a8.305,8.305,0,0,1,3.607.865,6.226,6.226,0,0,1,2.65,2.509,5.422,5.422,0,0,1,.625,2.507" fill="none" stroke="#61616b" stroke-width="2" data-cap="butt" data-color="color-2"></path><path d="M14.084,13.786c-.069.091-.283.215-.283.487a.8.8,0,0,0,.4.621,7.043,7.043,0,0,0,3.57.745,5.115,5.115,0,0,0,2.6-.717A5.272,5.272,0,0,0,22.99,10.38a7.6,7.6,0,0,0-.974-3.772A11.014,11.014,0,0,0,12,1,10.968,10.968,0,0,0,1.009,11.853a11.4,11.4,0,0,0,1.041,4.81,10.939,10.939,0,0,0,13.422,5.761,11.234,11.234,0,0,0,5.833-4.573.343.343,0,0,0-.457-.484,8.13,8.13,0,0,1-.9.4,8.756,8.756,0,0,1-3.084.555c-4.065,0-7.605-2.8-7.605-6.384A2.7,2.7,0,0,1,10.665,9.6,2.878,2.878,0,0,1,12,9.253a2.774,2.774,0,0,1,2.206,1.117,2.73,2.73,0,0,1,.546,1.589c0,.04,0,.084,0,.117A3.1,3.1,0,0,1,14.084,13.786Z" fill="none" stroke="#61616b" stroke-width="2"></path></g></svg>