<svg xmlns="http://www.w3.org/2000/svg" height="32" width="32" viewBox="0 0 32 32"><title>browser edge 4</title><g stroke-linecap="round" fill="#61616b" stroke-linejoin="round" class="nc-icon-wrapper"><path d="M20.748,30.21a8.843,8.843,0,0,1-7.353-.928l-.011,0a9.268,9.268,0,0,1-2.663-2.5,9.455,9.455,0,0,1,2.062-13.211,8.976,8.976,0,0,1,1.354-.821" fill="none" stroke="#61616b" stroke-width="2" data-cap="butt" data-color="color-2"></path><path d="M1.013,15.758c.056-4.279,4.3-7.713,9.357-7.713a11.334,11.334,0,0,1,4.92,1.18A8.5,8.5,0,0,1,18.9,12.646a7.4,7.4,0,0,1,.852,3.42" fill="none" stroke="#61616b" stroke-width="2" data-cap="butt" data-color="color-2"></path><path d="M18.842,18.436c-.094.123-.386.293-.386.663a1.089,1.089,0,0,0,.553.847c1.684,1.171,4.86,1.017,4.868,1.017a6.977,6.977,0,0,0,3.545-.978,7.193,7.193,0,0,0,3.565-6.194,10.366,10.366,0,0,0-1.329-5.144C27.176,3.792,21.819,1,15.993,1A14.956,14.956,0,0,0,1.013,15.8a15.551,15.551,0,0,0,1.418,6.56,14.919,14.919,0,0,0,18.3,7.856,15.318,15.318,0,0,0,7.954-6.236.469.469,0,0,0-.623-.661,11.079,11.079,0,0,1-1.234.552,11.931,11.931,0,0,1-4.2.756c-5.543,0-10.371-3.812-10.371-8.705a3.688,3.688,0,0,1,1.924-3.2A3.925,3.925,0,0,1,16,12.254a3.79,3.79,0,0,1,3.009,1.523,3.735,3.735,0,0,1,.743,2.168c0,.054,0,.114,0,.159A4.23,4.23,0,0,1,18.842,18.436Z" fill="none" stroke="#61616b" stroke-width="2"></path></g></svg>