<svg xmlns="http://www.w3.org/2000/svg" height="48" width="48" viewBox="0 0 48 48"><title>browser edge 3</title><g stroke-linecap="round" fill="#61616b" stroke-linejoin="round" class="nc-icon-wrapper"><path d="M30.964,44.841a12.973,12.973,0,0,1-10.785-1.36l-.016-.007a13.6,13.6,0,0,1-3.906-3.666,13.867,13.867,0,0,1,3.025-19.376,13.087,13.087,0,0,1,1.986-1.2" fill="none" stroke="#61616b" stroke-width="2" data-cap="butt" data-color="color-2"></path><path d="M2.019,23.646c.082-6.277,6.3-11.313,13.724-11.313a16.63,16.63,0,0,1,7.215,1.73,12.463,12.463,0,0,1,5.3,5.018,10.85,10.85,0,0,1,1.25,5.015" fill="none" stroke="#61616b" stroke-width="2" data-cap="butt" data-color="color-2"></path><path d="M28.169,27.573c-.139.18-.567.429-.567.972a1.6,1.6,0,0,0,.811,1.242c2.47,1.718,7.128,1.491,7.14,1.491a10.226,10.226,0,0,0,5.2-1.434A10.543,10.543,0,0,0,45.98,20.76a15.2,15.2,0,0,0-1.948-7.544C40.392,6.1,32.534,2,23.989,2A21.936,21.936,0,0,0,2.019,23.706a22.8,22.8,0,0,0,2.08,9.62A21.879,21.879,0,0,0,30.943,44.848,22.466,22.466,0,0,0,42.61,35.7a.687.687,0,0,0-.914-.969,16.02,16.02,0,0,1-1.811.809,17.5,17.5,0,0,1-6.167,1.11c-8.129,0-15.211-5.592-15.211-12.767a5.407,5.407,0,0,1,2.823-4.692A5.726,5.726,0,0,1,24,18.506a5.557,5.557,0,0,1,4.414,2.233,5.481,5.481,0,0,1,1.09,3.18c0,.08.006.167.006.234A6.207,6.207,0,0,1,28.169,27.573Z" fill="none" stroke="#61616b" stroke-width="2"></path></g></svg>