<svg xmlns="http://www.w3.org/2000/svg" height="32" width="32" viewBox="0 0 32 32"><title>browser firefox 4</title><g stroke-linecap="round" fill="#61616b" stroke-linejoin="round" class="nc-icon-wrapper"><path d="M28.016,11.816c-1.643-4.1-4.5-5.219-6.78-8.816-.115-.182-.774-1.1-1.119-1.752-3.319,1.44-4.172,4.96-4.517,7.07-.1.587.06.755.06.755a9.662,9.662,0,0,1,2.411.27l.117.037c.113.035.225.072.335.112.081.03.162.061.242.094.065.026.13.053.194.081.1.044.2.091.3.139l.134.068c.1.05.19.1.283.156.06.035.12.071.179.108a7.43,7.43,0,0,1,2.542,2.63,5.014,5.014,0,0,0-3.5-.851,6.015,6.015,0,0,1-3.421,11.276,6.424,6.424,0,0,1-1.891-.365c-.144-.054-.287-.112-.427-.174-.082-.038-.164-.076-.245-.118a6.135,6.135,0,0,1-3.425-4.757s.671-2.5,4.805-2.5a3.5,3.5,0,0,0,1.748-1.609c0-.118-2.535-1.124-3.522-2.1-.527-.52-.777-.77-1-.958a4.516,4.516,0,0,0-.376-.284,6.726,6.726,0,0,1-.041-3.553,10.769,10.769,0,0,0-3.5,2.7H7.588c-.577-.73-.571-2.372-.5-3.641A7.4,7.4,0,0,0,5.179,7.317,12.741,12.741,0,0,0,3.821,8.945a11.677,11.677,0,0,0-1.95,4.4c0,.016-.139.608-.237,1.34-.017.114-.033.228-.047.342-.034.22-.06.459-.086.833l0,.043c-.01.161-.02.322-.029.483,0,.025,0,.05,0,.074a14.539,14.539,0,0,0,28.867,2.46c.024-.186.044-.373.066-.561a13.289,13.289,0,0,0-.943-7.3A8.6,8.6,0,0,0,24.4,6.751" fill="none" stroke="#61616b" stroke-width="2" data-cap="butt"></path><path d="M15.73,9.075a6.182,6.182,0,0,0-1.908.349" fill="none" stroke="#61616b" stroke-width="2" data-cap="butt"></path></g></svg>