<svg xmlns="http://www.w3.org/2000/svg" height="64" width="64" viewBox="0 0 64 64"><title>browser firefox 2</title><g stroke-linecap="round" fill="#61616b" stroke-linejoin="round" class="nc-icon-wrapper"><path d="M55.426,23.6c-3.205-7.988-8.781-10.175-13.219-17.187C41.983,6.06,40.7,4.274,40.026,3c-6.47,2.806-8.133,9.668-8.805,13.781-.2,1.145.116,1.473.116,1.473a18.875,18.875,0,0,1,4.7.526c.077.023.152.049.229.073.22.067.437.139.653.217q.237.089.471.184c.127.052.253.1.378.157.2.087.388.177.578.272.088.044.175.087.261.132.186.1.37.2.552.3q.176.1.348.21a14.505,14.505,0,0,1,4.956,5.127A9.784,9.784,0,0,0,37.63,23.8c10.193,5.1,7.457,22.645-6.669,21.982a12.578,12.578,0,0,1-3.687-.711c-.281-.105-.559-.219-.833-.34-.16-.073-.319-.147-.477-.228a11.968,11.968,0,0,1-6.676-9.275s1.308-4.874,9.367-4.874c.871,0,3.362-2.431,3.408-3.136-.011-.23-4.943-2.192-6.866-4.087-1.028-1.012-1.516-1.5-1.948-1.867a8.248,8.248,0,0,0-.734-.554,13.128,13.128,0,0,1-.079-6.926,21,21,0,0,0-6.822,5.271H15.6c-1.124-1.423-1.112-4.623-.98-7.1a14.38,14.38,0,0,0-3.716,2.874A24.789,24.789,0,0,0,8.258,18a22.754,22.754,0,0,0-3.8,8.586c-.007.031-.271,1.186-.463,2.612-.032.222-.063.444-.09.666-.066.429-.117.9-.168,1.624l-.006.084c-.021.314-.039.628-.056.943,0,.048,0,.1,0,.144a28.342,28.342,0,0,0,56.275,4.8c.048-.362.087-.727.129-1.093a25.908,25.908,0,0,0-1.838-14.239,16.783,16.783,0,0,0-9.856-8.4" fill="none" stroke="#61616b" stroke-width="2" data-cap="butt"></path><path d="M31.474,18.257a12.084,12.084,0,0,0-3.719.68" fill="none" stroke="#61616b" stroke-width="2" data-cap="butt"></path></g></svg>