<svg xmlns="http://www.w3.org/2000/svg" height="64" width="64" viewBox="0 0 64 64"><title>brush 4</title><g stroke-linecap="round" fill="#61616b" stroke-linejoin="round" class="nc-icon-wrapper"><path data-cap="butt" data-color="color-2" fill="none" stroke="#61616b" stroke-width="2" d="M16.754,36 c0.181-0.225,0.381-0.448,0.59-0.657L53.172,5.172c1.562-1.562,4.095-1.562,5.657,0c1.562,1.562,1.562,4.095,0,5.657L28.657,46.657 c-0.195,0.195-0.447,0.408-0.657,0.579"></path> <path fill="none" stroke="#61616b" stroke-width="2" d="M24.709,39.291 C22.587,37.169,19.766,36,16.764,36s-5.823,1.169-7.945,3.291C4.601,43.509,4,60,4,60s16.491-0.601,20.709-4.82 C26.831,53.059,28,50.237,28,47.236C28,44.234,26.831,41.413,24.709,39.291z"></path></g></svg>