<svg xmlns="http://www.w3.org/2000/svg" height="48" width="48" viewBox="0 0 48 48"><title>clone 4</title><g stroke-linecap="round" fill="#61616b" stroke-linejoin="round" class="nc-icon-wrapper"><path data-color="color-2" fill="none" stroke="#61616b" stroke-width="2" d="M28,14 L10,32c0,0-1.268,4.001-2.001,4.001c-2.209,0-4,1.791-4,4c0,2.209,1.791,4,4,4s4-1.791,4-4C11.999,39.268,16,38,16,38l18.001-18.001 "></path> <path fill="none" stroke="#61616b" stroke-width="2" d="M40.001,13.999L44,10 c1.657-1.657,1.657-4.343,0-6l0,0c-1.657-1.657-4.343-1.657-6,0l-3.999,3.999l-4-4l-6,6l14,14l6-6L40.001,13.999z"></path></g></svg>