<svg xmlns="http://www.w3.org/2000/svg" height="24" width="24" viewBox="0 0 24 24"><title>clone</title><g stroke-linecap="round" fill="#61616b" stroke-linejoin="round" class="nc-icon-wrapper"><path data-cap="butt" data-color="color-2" fill="none" stroke="#61616b" stroke-width="2" d="M14,7l-9,9c0,0-0.634,2-1,2 c-1.105,0-2,0.895-2,2c0,1.105,0.895,2,2,2s2-0.895,2-2c0-0.366,2-1,2-1l9-9"></path> <path fill="none" stroke="#61616b" stroke-width="2" d="M20,7l1.379-1.379 c0.828-0.828,0.828-2.172,0-3c-0.824-0.824-2.169-0.831-3,0L17,4l-2-2l-3,3l7,7l3-3L20,7z"></path></g></svg>