<svg xmlns="http://www.w3.org/2000/svg" height="32" width="32" viewBox="0 0 32 32"><title>clone 5</title><g stroke-linecap="round" fill="#61616b" stroke-linejoin="round" class="nc-icon-wrapper"><line data-cap="butt" data-color="color-2" fill="none" stroke="#61616b" stroke-width="2" x1="11" y1="16" x2="19" y2="16"></line> <path fill="none" stroke="#61616b" stroke-width="2" d="M26,9l2-2 c1.103-1.103,1.106-2.894,0-4c-1.105-1.105-2.895-1.105-4,0l-2,2l-3-3l-3,3l10,10l3-3L26,9z"></path> <polyline fill="none" stroke="#61616b" stroke-width="2" points="19,8 8,19 8,23 12,23 23,12 "></polyline> <path data-color="color-2" fill="none" stroke="#61616b" stroke-width="2" d="M9,29 c0,1.105-0.895,2-2,2s-2-0.895-2-2s2-3,2-3S9,27.895,9,29z"></path></g></svg>