<svg xmlns="http://www.w3.org/2000/svg" height="48" width="48" viewBox="0 0 48 48"><title>command 4</title><g stroke-linecap="round" fill="#61616b" stroke-linejoin="round" class="nc-icon-wrapper"><rect x="16" y="16" fill="none" stroke="#61616b" stroke-width="2" width="16" height="16"></rect> <path fill="none" stroke="#61616b" stroke-width="2" d="M4,10c0-3.3,2.7-6,6-6 s6,2.7,6,6c0,1.5,0,6,0,6s-4.2,0-6,0C6.7,16,4,13.3,4,10z"></path> <path fill="none" stroke="#61616b" stroke-width="2" d="M44,10c0-3.3-2.7-6-6-6 s-6,2.7-6,6c0,1.5,0,6,0,6s4.2,0,6,0C41.3,16,44,13.3,44,10z"></path> <path fill="none" stroke="#61616b" stroke-width="2" d="M44,38c0,3.3-2.7,6-6,6 s-6-2.7-6-6c0-1.5,0-6,0-6s4.2,0,6,0C41.3,32,44,34.7,44,38z"></path> <path fill="none" stroke="#61616b" stroke-width="2" d="M4,38c0,3.3,2.7,6,6,6 s6-2.7,6-6c0-1.5,0-6,0-6s-4.2,0-6,0C6.7,32,4,34.7,4,38z"></path></g></svg>