<svg xmlns="http://www.w3.org/2000/svg" height="64" width="64" viewBox="0 0 64 64"><title>command 3</title><g stroke-linecap="round" fill="#61616b" stroke-linejoin="round" class="nc-icon-wrapper"><polyline fill="none" stroke="#61616b" stroke-width="2" points="42,28 42,42 22,42 22,28 "></polyline> <line fill="none" stroke="#61616b" stroke-width="2" x1="22" y1="22" x2="42" y2="22"></line> <path fill="none" stroke="#61616b" stroke-width="2" d="M6,14c0-4.418,3.582-8,8-8 s8,3.582,8,8c0,1.457,0,8,0,8s-5.039,0-8,0C9.582,22,6,18.418,6,14z"></path> <path fill="none" stroke="#61616b" stroke-width="2" d="M58,14c0-4.418-3.582-8-8-8 s-8,3.582-8,8c0,1.457,0,8,0,8s5.039,0,8,0C54.418,22,58,18.418,58,14z"></path> <path fill="none" stroke="#61616b" stroke-width="2" d="M42,42c0,0,5.039,0,8,0 c4.418,0,8,3.582,8,8s-3.582,8-8,8s-8-3.582-8-8c0-0.384,0-1.122,0-2"></path> <path fill="none" stroke="#61616b" stroke-width="2" d="M22,42c0,0-5.039,0-8,0 c-4.418,0-8,3.582-8,8s3.582,8,8,8s8-3.582,8-8c0-0.524,0-0.703,0-2"></path></g></svg>