<svg xmlns="http://www.w3.org/2000/svg" height="24" width="24" viewBox="0 0 24 24"><title>command</title><g stroke-linecap="round" fill="#61616b" stroke-linejoin="round" class="nc-icon-wrapper"><rect x="8" y="8" fill="none" stroke="#61616b" stroke-width="2" width="8" height="8"></rect> <path fill="none" stroke="#61616b" stroke-width="2" d="M2,5c0-1.7,1.3-3,3-3 s3,1.3,3,3c0,0.8,0,3,0,3S5.9,8,5,8C3.3,8,2,6.7,2,5z"></path> <path fill="none" stroke="#61616b" stroke-width="2" d="M22,5c0-1.7-1.3-3-3-3 s-3,1.3-3,3c0,0.8,0,3,0,3s2.1,0,3,0C20.7,8,22,6.7,22,5z"></path> <path fill="none" stroke="#61616b" stroke-width="2" d="M22,19c0,1.7-1.3,3-3,3 s-3-1.3-3-3c0-0.8,0-3,0-3s2.1,0,3,0C20.7,16,22,17.3,22,19z"></path> <path fill="none" stroke="#61616b" stroke-width="2" d="M2,19c0,1.7,1.3,3,3,3 s3-1.3,3-3c0-0.8,0-3,0-3s-2.1,0-3,0C3.3,16,2,17.3,2,19z"></path></g></svg>