<svg xmlns="http://www.w3.org/2000/svg" height="16" width="16" viewBox="0 0 16 16"><title>command 2</title><g fill="#61616b" class="nc-icon-wrapper"><path d="M5.5,3V5.5H3A2.5,2.5,0,1,1,5.5,3Z" fill="none" stroke="#61616b" stroke-linecap="round" stroke-linejoin="round" data-cap="butt"></path> <path d="M13,5.5H10.5V3A2.5,2.5,0,1,1,13,5.5Z" fill="none" stroke="#61616b" stroke-linecap="round" stroke-linejoin="round" data-cap="butt"></path> <path d="M10.5,13V10.5H13A2.5,2.5,0,1,1,10.5,13Z" fill="none" stroke="#61616b" stroke-linecap="round" stroke-linejoin="round" data-cap="butt"></path> <path d="M3,10.5H5.5V13A2.5,2.5,0,1,1,3,10.5Z" fill="none" stroke="#61616b" stroke-linecap="round" stroke-linejoin="round" data-cap="butt"></path> <line x1="5.5" y1="5.5" x2="10.5" y2="5.5" fill="none" stroke="#61616b" stroke-linecap="round" stroke-linejoin="round" data-cap="butt"></line> <line x1="5.5" y1="10.5" x2="5.5" y2="5.5" fill="none" stroke="#61616b" stroke-linecap="round" stroke-linejoin="round" data-cap="butt"></line> <line x1="10.5" y1="5.5" x2="10.5" y2="10.5" fill="none" stroke="#61616b" stroke-linecap="round" stroke-linejoin="round" data-cap="butt"></line> <line x1="5.5" y1="10.5" x2="10.5" y2="10.5" fill="none" stroke="#61616b" stroke-linecap="round" stroke-linejoin="round" data-cap="butt"></line></g></svg>