<svg xmlns="http://www.w3.org/2000/svg" height="32" width="32" viewBox="0 0 32 32"><title>compare items 4</title><g stroke-linecap="round" fill="#61616b" stroke-linejoin="round" class="nc-icon-wrapper"><rect x="1" y="4" width="13" height="24" rx="2" fill="none" stroke="#61616b" stroke-width="2" data-cap="butt"></rect><path d="M18,7V6a2,2,0,0,1,2-2h2" fill="none" stroke="#61616b" stroke-width="2" data-color="color-2"></path><path d="M31,7V6a2,2,0,0,0-2-2H27" fill="none" stroke="#61616b" stroke-width="2" data-color="color-2"></path><path d="M31,25v1a2,2,0,0,1-2,2H27" fill="none" stroke="#61616b" stroke-width="2" data-color="color-2"></path><path d="M18,25v1a2,2,0,0,0,2,2h2" fill="none" stroke="#61616b" stroke-width="2" data-color="color-2"></path><line x1="18" y1="11" x2="18" y2="14" fill="none" stroke="#61616b" stroke-width="2" data-color="color-2"></line><line x1="18" y1="18" x2="18" y2="21" fill="none" stroke="#61616b" stroke-width="2" data-color="color-2"></line><line x1="31" y1="11" x2="31" y2="14" fill="none" stroke="#61616b" stroke-width="2" data-color="color-2"></line><line x1="31" y1="18" x2="31" y2="21" fill="none" stroke="#61616b" stroke-width="2" data-color="color-2"></line></g></svg>