<svg xmlns="http://www.w3.org/2000/svg" height="64" width="64" viewBox="0 0 64 64"><title>compare items 2</title><g stroke-linecap="round" fill="#61616b" stroke-linejoin="round" class="nc-icon-wrapper"><rect x="4" y="8" width="24" height="48" rx="4" fill="none" stroke="#61616b" stroke-width="2" data-cap="butt"></rect><line x1="50" y1="8" x2="46" y2="8" fill="none" stroke="#61616b" stroke-width="2" data-color="color-2"></line><line x1="36" y1="24" x2="36" y2="20" fill="none" stroke="#61616b" stroke-width="2" data-color="color-2"></line><line x1="36" y1="34" x2="36" y2="30" fill="none" stroke="#61616b" stroke-width="2" data-color="color-2"></line><line x1="36" y1="44" x2="36" y2="40" fill="none" stroke="#61616b" stroke-width="2" data-color="color-2"></line><line x1="60" y1="24" x2="60" y2="20" fill="none" stroke="#61616b" stroke-width="2" data-color="color-2"></line><line x1="60" y1="34" x2="60" y2="30" fill="none" stroke="#61616b" stroke-width="2" data-color="color-2"></line><line x1="60" y1="44" x2="60" y2="40" fill="none" stroke="#61616b" stroke-width="2" data-color="color-2"></line><line x1="50" y1="56" x2="46" y2="56" fill="none" stroke="#61616b" stroke-width="2" data-color="color-2"></line><path d="M40,8a4,4,0,0,0-4,4v2" fill="none" stroke="#61616b" stroke-width="2" data-color="color-2"></path><path d="M56,8a4,4,0,0,1,4,4v2" fill="none" stroke="#61616b" stroke-width="2" data-color="color-2"></path><path d="M56,56a4,4,0,0,0,4-4V50" fill="none" stroke="#61616b" stroke-width="2" data-color="color-2"></path><path d="M40,56a4,4,0,0,1-4-4V50" fill="none" stroke="#61616b" stroke-width="2" data-color="color-2"></path></g></svg>