<svg xmlns="http://www.w3.org/2000/svg" height="24" width="24" viewBox="0 0 24 24"><title>compare items 5</title><g stroke-linecap="round" fill="#61616b" stroke-linejoin="round" class="nc-icon-wrapper"><rect x="1" y="3" width="9" height="18" rx="1.5" fill="none" stroke="#61616b" stroke-width="2"></rect><path d="M16,3h-.5A1.5,1.5,0,0,0,14,4.5V5" fill="none" stroke="#61616b" stroke-width="2" data-color="color-2"></path><path d="M21,3h.5A1.5,1.5,0,0,1,23,4.5V5" fill="none" stroke="#61616b" stroke-width="2" data-color="color-2"></path><path d="M21,21h.5A1.5,1.5,0,0,0,23,19.5V19" fill="none" stroke="#61616b" stroke-width="2" data-color="color-2"></path><path d="M16,21h-.5A1.5,1.5,0,0,1,14,19.5V19" fill="none" stroke="#61616b" stroke-width="2" data-color="color-2"></path><line x1="14" y1="9" x2="14" y2="10" fill="none" stroke="#61616b" stroke-width="2" data-color="color-2"></line><line x1="23" y1="9" x2="23" y2="10" fill="none" stroke="#61616b" stroke-width="2" data-color="color-2"></line><line x1="14" y1="14" x2="14" y2="15" fill="none" stroke="#61616b" stroke-width="2" data-color="color-2"></line><line x1="23" y1="14" x2="23" y2="15" fill="none" stroke="#61616b" stroke-width="2" data-color="color-2"></line></g></svg>