<svg xmlns="http://www.w3.org/2000/svg" height="48" width="48" viewBox="0 0 48 48"><title>compare items 3</title><g stroke-linecap="round" fill="#61616b" stroke-linejoin="round" class="nc-icon-wrapper"><rect x="2" y="6" width="19" height="36" rx="3" fill="none" stroke="#61616b" stroke-width="2" data-cap="butt"></rect><path d="M27,9a3,3,0,0,1,3-3" fill="none" stroke="#61616b" stroke-width="2" data-color="color-2"></path><path d="M46,9a3,3,0,0,0-3-3" fill="none" stroke="#61616b" stroke-width="2" data-color="color-2"></path><path d="M43,42a3,3,0,0,0,3-3V38" fill="none" stroke="#61616b" stroke-width="2" data-color="color-2"></path><path d="M30,42a3,3,0,0,1-3-3V38" fill="none" stroke="#61616b" stroke-width="2" data-color="color-2"></path><line x1="35" y1="6" x2="38" y2="6" fill="none" stroke="#61616b" stroke-width="2" data-color="color-2"></line><line x1="35" y1="42" x2="38" y2="42" fill="none" stroke="#61616b" stroke-width="2" data-color="color-2"></line><line x1="27" y1="14" x2="27" y2="17" fill="none" stroke="#61616b" stroke-width="2" data-color="color-2"></line><line x1="27" y1="22" x2="27" y2="25" fill="none" stroke="#61616b" stroke-width="2" data-color="color-2"></line><line x1="27" y1="30" x2="27" y2="33" fill="none" stroke="#61616b" stroke-width="2" data-color="color-2"></line><line x1="46" y1="14" x2="46" y2="17" fill="none" stroke="#61616b" stroke-width="2" data-color="color-2"></line><line x1="46" y1="22" x2="46" y2="25" fill="none" stroke="#61616b" stroke-width="2" data-color="color-2"></line><line x1="46" y1="30" x2="46" y2="33" fill="none" stroke="#61616b" stroke-width="2" data-color="color-2"></line></g></svg>