<svg xmlns="http://www.w3.org/2000/svg" height="64" width="64" viewBox="0 0 64 64"><title>digital image 3</title><g stroke-linecap="round" fill="#61616b" stroke-linejoin="round" class="nc-icon-wrapper"><path d="M32,56H8c-2.761,0-5-2.239-5-5V13c0-2.761,2.239-5,5-5h24" fill="none" stroke="#61616b" stroke-width="2"></path><circle cx="20" cy="21" r="4" fill="none" stroke="#61616b" stroke-width="2"></circle><line x1="37" y1="3" x2="37" y2="61" fill="none" stroke="#61616b" stroke-width="2"></line><polyline points="57 27 59 27 59 37" fill="none" stroke="#61616b" stroke-width="2"></polyline><polyline points="45 8 47 8 47 18" fill="none" stroke="#61616b" stroke-width="2"></polyline><polyline points="45 46 47 46 47 56" fill="none" stroke="#61616b" stroke-width="2"></polyline><rect x="54" y="46" width="8" height="10" rx="2.189" ry="2.189" fill="none" stroke="#61616b" stroke-width="2" data-color="color-2"></rect><rect x="54" y="8" width="8" height="10" rx="2.189" ry="2.189" fill="none" stroke="#61616b" stroke-width="2" data-color="color-2"></rect><rect x="43" y="27" width="8" height="10" rx="2.189" ry="2.189" fill="none" stroke="#61616b" stroke-width="2" data-color="color-2"></rect><polyline points="32 35 28 40 21 33 12 47 32 47" fill="none" stroke="#61616b" stroke-width="2"></polyline></g></svg>