<svg xmlns="http://www.w3.org/2000/svg" height="64" width="64" viewBox="0 0 64 64"><title>drag 2</title><g stroke-linecap="round" fill="#61616b" stroke-linejoin="round" class="nc-icon-wrapper"><polyline data-color="color-2" fill="none" stroke="#61616b" stroke-width="2" points=" 2,8 2,2 8,2 "></polyline> <polyline data-color="color-2" fill="none" stroke="#61616b" stroke-width="2" points=" 2,43 2,49 8,49 "></polyline> <polyline data-color="color-2" fill="none" stroke="#61616b" stroke-width="2" points=" 49,8 49,2 43,2 "></polyline> <line data-color="color-2" fill="none" stroke="#61616b" stroke-width="2" x1="15" y1="2" x2="22" y2="2"></line> <line data-color="color-2" fill="none" stroke="#61616b" stroke-width="2" x1="2" y1="15" x2="2" y2="22"></line> <line data-color="color-2" fill="none" stroke="#61616b" stroke-width="2" x1="49" y1="15" x2="49" y2="22"></line> <line data-color="color-2" fill="none" stroke="#61616b" stroke-width="2" x1="2" y1="29" x2="2" y2="36"></line> <line data-color="color-2" fill="none" stroke="#61616b" stroke-width="2" x1="29" y1="2" x2="36" y2="2"></line> <line data-color="color-2" fill="none" stroke="#61616b" stroke-width="2" x1="15" y1="49" x2="22" y2="49"></line> <polygon fill="none" stroke="#61616b" stroke-width="2" points="58,36 27,27 36,58 42,46 54,58 56,56 58,54 46,42 "></polygon></g></svg>