<svg xmlns="http://www.w3.org/2000/svg" height="16" width="16" viewBox="0 0 16 16"><title>edit levels</title><g fill="#61616b" class="nc-icon-wrapper"><polygon points="0.5 14.5 0.5 13 2 12 3.5 13 3.5 14.5 0.5 14.5" fill="none" stroke="#61616b" stroke-linecap="round" stroke-linejoin="round"></polygon><polygon points="6.5 14.5 6.5 13 8 12 9.5 13 9.5 14.5 6.5 14.5" fill="none" stroke="#61616b" stroke-linecap="round" stroke-linejoin="round"></polygon><polygon points="12.5 14.5 12.5 13 14 12 15.5 13 15.5 14.5 12.5 14.5" fill="none" stroke="#61616b" stroke-linecap="round" stroke-linejoin="round"></polygon><line x1="0.5" y1="9.5" x2="0.5" y2="3.5" fill="none" stroke="#61616b" stroke-linecap="round" stroke-linejoin="round" data-color="color-2"></line><line x1="9.5" y1="9.5" x2="9.5" y2="5.5" fill="none" stroke="#61616b" stroke-linecap="round" stroke-linejoin="round"></line><line x1="3.5" y1="9.5" x2="3.5" y2="1.5" fill="none" stroke="#61616b" stroke-linecap="round" stroke-linejoin="round"></line><line x1="6.5" y1="9.5" x2="6.5" y2="7.5" fill="none" stroke="#61616b" stroke-linecap="round" stroke-linejoin="round" data-color="color-2"></line><line x1="12.5" y1="9.5" x2="12.5" y2="2.5" fill="none" stroke="#61616b" stroke-linecap="round" stroke-linejoin="round" data-color="color-2"></line><line x1="15.5" y1="9.5" x2="15.5" y2="1.5" fill="none" stroke="#61616b" stroke-linecap="round" stroke-linejoin="round"></line></g></svg>