<svg xmlns="http://www.w3.org/2000/svg" height="48" width="48" viewBox="0 0 48 48"><title>fairy wand 3</title><g stroke-linecap="round" fill="#61616b" stroke-linejoin="round" class="nc-icon-wrapper"><polyline points="28 20 29.072 18.927 4 44" fill="none" stroke="#61616b" stroke-width="2"></polyline><polygon points="39.325 13.703 41.683 6.317 34.296 8.675 28 4.15 28 12 21.71 16.493 29.072 18.927 31.507 26.289 36.096 20 43.85 20 39.325 13.703" fill="none" stroke="#61616b" stroke-width="2" data-color="color-2"></polygon><path d="M16,10c-3.314,0-6,2.686-6,6,0-3.314-2.686-6-6-6,3.314,0,6-2.686,6-6,0,3.314,2.686,6,6,6Z" fill="none" stroke="#61616b" stroke-width="2" data-cap="butt"></path><path d="M44,38c-3.314,0-6,2.686-6,6,0-3.314-2.686-6-6-6,3.314,0,6-2.686,6-6,0,3.314,2.686,6,6,6Z" fill="none" stroke="#61616b" stroke-width="2" data-cap="butt"></path></g></svg>