<svg xmlns="http://www.w3.org/2000/svg" height="16" width="16" viewBox="0 0 16 16"><title>fairy wand</title><g fill="#61616b" class="nc-icon-wrapper"><line x1=".5" y1="15.5" x2="8.935" y2="7.065" fill="none" stroke="#61616b" stroke-linecap="round" stroke-linejoin="round"></line><polygon points="13.022 4.983 13.962 2.038 11.017 2.978 8.507 1.174 8.491 4.265 6 6.095 8.935 7.065 9.905 10 11.735 7.509 14.826 7.493 13.022 4.983" fill="none" stroke="#61616b" stroke-linecap="round" stroke-linejoin="round" data-color="color-2"></polygon><path d="M.5,3.5c1.105,0,2-.895,2-2,0,1.105,.895,2,2,2-1.105,0-2,.895-2,2,0-1.105-.895-2-2-2" fill="#61616b" stroke="#61616b" stroke-linecap="round" stroke-linejoin="round"></path><path d="M11.5,12.5c1.105,0,2-.895,2-2,0,1.105,.895,2,2,2-1.105,0-2,.895-2,2,0-1.105-.895-2-2-2" fill="#61616b" stroke="#61616b" stroke-linecap="round" stroke-linejoin="round"></path></g></svg>