<svg xmlns="http://www.w3.org/2000/svg" height="32" width="32" viewBox="0 0 32 32"><title>fairy wand 4</title><g stroke-linecap="round" fill="#61616b" stroke-linejoin="round" class="nc-icon-wrapper"><polyline points="2 30 19.729 12.271 19 13" fill="none" stroke="#61616b" stroke-width="2"></polyline><polygon points="26.448 8.847 27.994 4.006 23.153 5.552 19 2.586 19 7.668 14.904 10.676 19.729 12.271 21.324 17.096 24.332 13 29.414 13 26.448 8.847" fill="none" stroke="#61616b" stroke-width="2" data-color="color-2"></polygon><path d="M11,6c-2.209,0-4,1.791-4,4,0-2.209-1.791-4-4-4,2.209,0,4-1.791,4-4,0,2.209,1.791,4,4,4Z" fill="none" stroke="#61616b" stroke-width="2" data-cap="butt"></path><path d="M30,25c-2.209,0-4,1.791-4,4,0-2.209-1.791-4-4-4,2.209,0,4-1.791,4-4,0,2.209,1.791,4,4,4Z" fill="none" stroke="#61616b" stroke-width="2" data-cap="butt"></path></g></svg>