<svg xmlns="http://www.w3.org/2000/svg" height="24" width="24" viewBox="0 0 24 24"><title>fairy wand 5</title><g stroke-linecap="round" fill="#61616b" stroke-linejoin="round" class="nc-icon-wrapper"><polyline points="13 11 14.536 9.464 2 22" fill="none" stroke="#61616b" stroke-width="2"></polyline><polygon points="19.663 6.852 20.842 3.158 17.148 4.337 14 2.075 13.98 5.952 10.855 8.247 14.536 9.464 15.753 13.145 18.048 10.02 21.925 10 19.663 6.852" fill="none" stroke="#61616b" stroke-width="2" data-color="color-2"></polygon><path d="M7,3.5c-.827,0-1.5-.673-1.5-1.5,0-.552-.448-1-1-1s-1,.448-1,1c0,.827-.673,1.5-1.5,1.5-.552,0-1,.448-1,1s.448,1,1,1c.827,0,1.5,.673,1.5,1.5,0,.552,.448,1,1,1s1-.448,1-1c0-.827,.673-1.5,1.5-1.5,.552,0,1-.448,1-1s-.448-1-1-1Z" fill="#61616b" data-stroke="none" stroke="none"></path><path d="M22,18.5c-.827,0-1.5-.673-1.5-1.5,0-.552-.448-1-1-1s-1,.448-1,1c0,.827-.673,1.5-1.5,1.5-.552,0-1,.448-1,1s.448,1,1,1c.827,0,1.5,.673,1.5,1.5,0,.552,.448,1,1,1s1-.448,1-1c0-.827,.673-1.5,1.5-1.5,.552,0,1-.448,1-1s-.448-1-1-1Z" fill="#61616b" data-stroke="none" stroke="none"></path></g></svg>