<svg xmlns="http://www.w3.org/2000/svg" height="32" width="32" viewBox="0 0 32 32"><title>file xml</title><g stroke-linecap="round" fill="#61616b" stroke-linejoin="round" class="nc-icon-wrapper"><polyline data-cap="butt" fill="none" stroke="#61616b" stroke-width="2" points="20,1 20,9 28,9 "></polyline> <polyline fill="none" stroke="#61616b" stroke-width="2" points="28,13 28,9 20,1 4,1 4,13 "></polyline> <polyline fill="none" stroke="#61616b" stroke-width="2" points="4,27 4,31 28,31 28,27 "></polyline> <path data-color="color-2" data-stroke="none" fill="#61616b" d="M12.7,23h-1.8l-1.1-1.8L8.7,23H6.9l1.9-2.9L7,17.3h1.7l1,1.8l1-1.8h1.8l-1.8,2.9 L12.7,23z" stroke-linejoin="miter" stroke="none"></path> <path data-color="color-2" data-stroke="none" fill="#61616b" d="M15.8,23l-1.2-4.1h0c0.1,0.7,0.1,1.2,0.1,1.6V23h-1.4v-5.7h2.1l1.2,4.1h0l1.2-4.1 h2.1V23h-1.4v-2.5c0-0.1,0-0.3,0-0.4s0-0.5,0.1-1.2h0L17.3,23H15.8z" stroke-linejoin="miter" stroke="none"></path> <path data-color="color-2" data-stroke="none" fill="#61616b" d="M21,23v-5.7h1.5v4.5h2.2V23H21z" stroke-linejoin="miter" stroke="none"></path> <rect x="1" y="13" fill="none" stroke="#61616b" stroke-width="2" width="30" height="14"></rect></g></svg>