<svg xmlns="http://www.w3.org/2000/svg" height="64" width="64" viewBox="0 0 64 64"><title>file raw 2</title><g stroke-linecap="round" fill="#61616b" stroke-linejoin="round" class="nc-icon-wrapper"><path data-color="color-2" data-stroke="none" fill="#61616b" d="M19.8,43.4V47h-2v-9.3h2.7c1.3,0,2.2,0.2,2.8,0.7s0.9,1.2,0.9,2.1 c0,0.5-0.2,1-0.5,1.5c-0.3,0.4-0.7,0.8-1.3,1c1.4,2.1,2.3,3.4,2.7,4h-2.2l-2.2-3.6H19.8z M19.8,41.8h0.6c0.6,0,1.1-0.1,1.4-0.3 s0.4-0.5,0.4-1c0-0.4-0.2-0.8-0.5-0.9c-0.3-0.2-0.8-0.3-1.4-0.3h-0.6V41.8z" stroke-linejoin="miter" stroke="none"></path> <path data-color="color-2" data-stroke="none" fill="#61616b" d="M32.4,47l-0.7-2.2h-3.4L27.6,47h-2.1l3.3-9.3h2.4l3.3,9.3H32.4z M31.2,43.1 c-0.6-2-1-3.1-1.1-3.4c-0.1-0.3-0.1-0.5-0.2-0.6c-0.1,0.5-0.5,1.9-1.2,4H31.2z" stroke-linejoin="miter" stroke="none"></path> <path data-color="color-2" data-stroke="none" fill="#61616b" d="M45,47h-2.2l-1.3-4.9c0-0.2-0.1-0.5-0.2-1.1C41.1,40.5,41,40.1,41,40 c0,0.2-0.1,0.6-0.2,1.1s-0.2,0.9-0.2,1.1L39.4,47h-2.2l-2.4-9.3h1.9l1.2,5.1c0.2,0.9,0.4,1.7,0.5,2.4c0-0.2,0.1-0.6,0.2-1.1 c0.1-0.5,0.2-0.9,0.3-1.2l1.4-5.2H42l1.4,5.2c0.1,0.2,0.1,0.6,0.2,1.1c0.1,0.5,0.2,0.9,0.2,1.2c0-0.3,0.1-0.7,0.2-1.2 s0.2-0.9,0.3-1.2l1.2-5.1h1.9L45,47z" stroke-linejoin="miter" stroke="none"></path> <polyline data-cap="butt" fill="none" stroke="#61616b" stroke-width="2" points="40,2 40,18 56,18 "></polyline> <polyline fill="none" stroke="#61616b" stroke-width="2" points="56,32 56,18 40,2 8,2 8,32 "></polyline> <polyline fill="none" stroke="#61616b" stroke-width="2" points="8,53 8,62 56,62 56,53 "></polyline> <line data-cap="butt" fill="none" stroke="#61616b" stroke-width="2" x1="61" y1="32" x2="3" y2="32"></line> <polyline data-cap="butt" fill="none" stroke="#61616b" stroke-width="2" points="8,27 3,32 3,53 61,53 61,32 56,27 "></polyline></g></svg>