<svg xmlns="http://www.w3.org/2000/svg" height="32" width="32" viewBox="0 0 32 32"><title>file py</title><g stroke-linecap="round" fill="#61616b" stroke-linejoin="round" class="nc-icon-wrapper"><polyline data-cap="butt" fill="none" stroke="#61616b" stroke-width="2" points="20,1 20,9 28,9 "></polyline> <polyline fill="none" stroke="#61616b" stroke-width="2" points="28,13 28,9 20,1 4,1 4,13 "></polyline> <polyline fill="none" stroke="#61616b" stroke-width="2" points="4,27 4,31 28,31 28,27 "></polyline> <path data-color="color-2" data-stroke="none" fill="#61616b" d="M15.6,19.1c0,0.6-0.2,1.1-0.6,1.5s-0.9,0.5-1.6,0.5H13V23h-1.5v-5.7h2 c0.7,0,1.3,0.2,1.6,0.5S15.6,18.5,15.6,19.1z M13,19.8h0.3c0.2,0,0.4-0.1,0.6-0.2s0.2-0.3,0.2-0.5c0-0.4-0.2-0.6-0.6-0.6H13V19.8z" stroke-linejoin="miter" stroke="none"></path> <path data-color="color-2" data-stroke="none" fill="#61616b" d="M18.5,19.4l1-2.1h1.7l-1.9,3.5V23h-1.6v-2.2l-1.9-3.5h1.7L18.5,19.4z" stroke-linejoin="miter" stroke="none"></path> <rect x="1" y="13" fill="none" stroke="#61616b" stroke-width="2" width="30" height="14"></rect></g></svg>