<svg xmlns="http://www.w3.org/2000/svg" height="48" width="48" viewBox="0 0 48 48"><title>file md 3</title><g stroke-linecap="round" fill="#61616b" stroke-linejoin="round" class="nc-icon-wrapper"><polyline data-cap="butt" fill="none" stroke="#61616b" stroke-width="2" points="29,2 29,14 41,14 "></polyline> <polyline fill="none" stroke="#61616b" stroke-width="2" points="41,23 41,14 29,2 7,2 7,23 "></polyline> <polyline fill="none" stroke="#61616b" stroke-width="2" points="7,41 7,46 41,46 41,41 "></polyline> <rect x="2" y="23" fill="none" stroke="#61616b" stroke-width="2" width="44" height="18"></rect> <path data-color="color-2" data-stroke="none" fill="#61616b" d="M18.771,36l-1.605-5.656h-0.049c0.076,0.963,0.113,1.711,0.113,2.245V36h-1.88 v-7.853h2.825l1.639,5.575h0.043l1.605-5.575h2.83V36h-1.949v-3.443c0-0.179,0.003-0.378,0.008-0.596 c0.006-0.218,0.029-0.754,0.072-1.606h-0.048L20.791,36H18.771z" stroke="none"></path> <path data-color="color-2" data-stroke="none" fill="#61616b" d="M32.65,31.907c0,1.311-0.36,2.32-1.082,3.029S29.833,36,28.525,36h-2.54v-7.853h2.718 c1.261,0,2.233,0.322,2.919,0.967S32.65,30.69,32.65,31.907z M30.449,31.982c0-0.72-0.143-1.253-0.428-1.601 c-0.284-0.347-0.717-0.521-1.297-0.521h-0.617v4.399h0.473c0.645,0,1.117-0.187,1.418-0.562 C30.298,33.324,30.449,32.752,30.449,31.982z" stroke="none"></path></g></svg>