<svg xmlns="http://www.w3.org/2000/svg" height="32" width="32" viewBox="0 0 32 32"><title>file sketch</title><g stroke-linecap="round" fill="#61616b" stroke-linejoin="round" class="nc-icon-wrapper"><polyline data-cap="butt" fill="none" stroke="#61616b" stroke-width="2" points="20,1 20,9 28,9 "></polyline> <polyline fill="none" stroke="#61616b" stroke-width="2" points="28,13 28,9 20,1 4,1 4,13 "></polyline> <polyline fill="none" stroke="#61616b" stroke-width="2" points="4,27 4,31 28,31 28,27 "></polyline> <path data-color="color-2" data-stroke="none" fill="#61616b" d="M5.1,21.3c0,0.4-0.1,0.7-0.3,0.9S4.4,22.7,4,22.8s-0.7,0.2-1.2,0.2 c-0.4,0-0.7,0-1-0.1s-0.5-0.1-0.8-0.3v-1.4c0.3,0.2,0.6,0.3,0.9,0.4s0.6,0.1,0.9,0.1c0.2,0,0.4,0,0.5-0.1s0.2-0.2,0.2-0.3 c0-0.1,0-0.1-0.1-0.2S3.4,21.1,3.3,21s-0.3-0.2-0.8-0.4c-0.4-0.2-0.7-0.3-0.8-0.5s-0.3-0.3-0.4-0.5s-0.1-0.4-0.1-0.7 c0-0.5,0.2-0.9,0.6-1.2s0.9-0.4,1.6-0.4c0.6,0,1.2,0.1,1.8,0.4l-0.5,1.2c-0.5-0.2-1-0.4-1.4-0.4c-0.2,0-0.3,0-0.4,0.1 s-0.1,0.2-0.1,0.3c0,0.1,0.1,0.2,0.2,0.3s0.4,0.2,0.9,0.5c0.5,0.2,0.8,0.5,1,0.7S5.1,20.9,5.1,21.3z" stroke-linejoin="miter" stroke="none"></path> <path data-color="color-2" data-stroke="none" fill="#61616b" d="M10.8,23H9.1L8,20.8l-0.5,0.3V23H6v-5.7h1.6v2.5C7.6,19.6,7.7,19.4,8,19l1.2-1.8 h1.7l-1.8,2.6L10.8,23z" stroke-linejoin="miter" stroke="none"></path> <path data-color="color-2" data-stroke="none" fill="#61616b" d="M14.8,23h-3.4v-5.7h3.4v1.2H13v0.9h1.7v1.2H13v1.1h1.8V23z" stroke-linejoin="miter" stroke="none"></path> <path data-color="color-2" data-stroke="none" fill="#61616b" d="M18.4,23h-1.5v-4.4h-1.4v-1.3h4.3v1.3h-1.4V23z" stroke-linejoin="miter" stroke="none"></path> <path data-color="color-2" data-stroke="none" fill="#61616b" d="M23.1,18.5c-0.4,0-0.7,0.2-0.9,0.5s-0.3,0.7-0.3,1.2c0,1.1,0.4,1.6,1.3,1.6 c0.3,0,0.5,0,0.7-0.1s0.5-0.2,0.7-0.3v1.3c-0.5,0.2-1,0.3-1.6,0.3c-0.9,0-1.5-0.2-2-0.8s-0.7-1.2-0.7-2.2c0-0.6,0.1-1.1,0.3-1.6 s0.5-0.8,1-1s0.9-0.4,1.5-0.4c0.6,0,1.2,0.1,1.8,0.4l-0.5,1.2c-0.2-0.1-0.4-0.2-0.6-0.2S23.4,18.5,23.1,18.5z" stroke-linejoin="miter" stroke="none"></path> <path data-color="color-2" data-stroke="none" fill="#61616b" d="M30.7,23h-1.6v-2.3h-1.8V23h-1.6v-5.7h1.6v2.1h1.8v-2.1h1.6V23z" stroke-linejoin="miter" stroke="none"></path> <polyline fill="none" stroke="#61616b" stroke-width="2" points="31,25 31,27 1,27 1,25 "></polyline> <polyline fill="none" stroke="#61616b" stroke-width="2" points="1,15 1,13 31,13 31,15 "></polyline></g></svg>