<svg xmlns="http://www.w3.org/2000/svg" height="64" width="64" viewBox="0 0 64 64"><title>file xml 2</title><g stroke-linecap="round" fill="#61616b" stroke-linejoin="round" class="nc-icon-wrapper"><path data-color="color-2" data-stroke="none" fill="#61616b" d="M26.3,47H24l-2.2-3.5L19.7,47h-2.1l3.1-4.8l-2.9-4.5H20l2,3.3l2-3.3h2.1l-2.9,4.6 L26.3,47z" stroke-linejoin="miter" stroke="none"></path> <path data-color="color-2" data-stroke="none" fill="#61616b" d="M31.6,47l-2.2-7.3h-0.1c0.1,1.5,0.1,2.5,0.1,3V47h-1.8v-9.3h2.7l2.2,7.1h0l2.3-7.1 h2.7V47h-1.8v-4.4c0-0.2,0-0.4,0-0.7c0-0.3,0-1,0.1-2.2h-0.1L33.4,47H31.6z" stroke-linejoin="miter" stroke="none"></path> <path data-color="color-2" data-stroke="none" fill="#61616b" d="M40.2,47v-9.3h2v7.7H46V47H40.2z" stroke-linejoin="miter" stroke="none"></path> <polyline data-cap="butt" fill="none" stroke="#61616b" stroke-width="2" points="40,2 40,18 56,18 "></polyline> <polyline fill="none" stroke="#61616b" stroke-width="2" points="56,32 56,18 40,2 8,2 8,32 "></polyline> <polyline fill="none" stroke="#61616b" stroke-width="2" points="8,53 8,62 56,62 56,53 "></polyline> <line data-cap="butt" fill="none" stroke="#61616b" stroke-width="2" x1="61" y1="32" x2="3" y2="32"></line> <polyline data-cap="butt" fill="none" stroke="#61616b" stroke-width="2" points="8,27 3,32 3,53 61,53 61,32 56,27 "></polyline></g></svg>