<svg xmlns="http://www.w3.org/2000/svg" height="64" width="64" viewBox="0 0 64 64"><title>file jsp 2</title><g stroke-linecap="round" fill="#61616b" stroke-linejoin="round" class="nc-icon-wrapper"><path data-color="color-2" data-stroke="none" fill="#61616b" d="M22.1,49.7c-0.4,0-0.8,0-1.2-0.1V48c0.3,0.1,0.6,0.1,0.9,0.1 c0.4,0,0.7-0.1,0.9-0.4s0.3-0.7,0.3-1.3v-8.7h2v8.7c0,1.1-0.2,1.9-0.7,2.5C23.8,49.4,23.1,49.7,22.1,49.7z" stroke-linejoin="miter" stroke="none"></path> <path data-color="color-2" data-stroke="none" fill="#61616b" d="M33.1,44.4c0,0.8-0.3,1.5-0.9,2c-0.6,0.5-1.4,0.7-2.5,0.7c-1,0-1.9-0.2-2.6-0.6 v-1.8c0.6,0.3,1.2,0.5,1.6,0.6c0.4,0.1,0.8,0.2,1.2,0.2c0.4,0,0.8-0.1,1-0.2c0.2-0.2,0.3-0.4,0.3-0.7c0-0.2-0.1-0.3-0.2-0.5 s-0.3-0.3-0.4-0.4c-0.2-0.1-0.6-0.3-1.2-0.6c-0.6-0.3-1-0.5-1.3-0.8s-0.5-0.5-0.7-0.9c-0.2-0.3-0.3-0.7-0.3-1.1 c0-0.8,0.3-1.5,0.8-1.9s1.3-0.7,2.3-0.7c0.5,0,0.9,0.1,1.4,0.2c0.4,0.1,0.9,0.3,1.4,0.5l-0.6,1.5c-0.5-0.2-0.9-0.3-1.2-0.4 c-0.3-0.1-0.6-0.1-1-0.1c-0.4,0-0.7,0.1-0.9,0.3c-0.2,0.2-0.3,0.4-0.3,0.7c0,0.2,0,0.3,0.1,0.5c0.1,0.1,0.2,0.3,0.4,0.4 c0.2,0.1,0.6,0.3,1.2,0.7c0.9,0.4,1.5,0.8,1.8,1.2C33,43.3,33.1,43.8,33.1,44.4z" stroke-linejoin="miter" stroke="none"></path> <path data-color="color-2" data-stroke="none" fill="#61616b" d="M41.5,40.6c0,1-0.3,1.8-0.9,2.3c-0.6,0.5-1.5,0.8-2.7,0.8H37V47h-2v-9.3h3 c1.1,0,2,0.2,2.6,0.7C41.2,38.9,41.5,39.7,41.5,40.6z M37,42.1h0.6c0.6,0,1.1-0.1,1.4-0.4c0.3-0.2,0.5-0.6,0.5-1 c0-0.5-0.1-0.8-0.4-1s-0.6-0.3-1.2-0.3H37V42.1z" stroke-linejoin="miter" stroke="none"></path> <polyline data-cap="butt" fill="none" stroke="#61616b" stroke-width="2" points="40,2 40,18 56,18 "></polyline> <polyline fill="none" stroke="#61616b" stroke-width="2" points="56,32 56,18 40,2 8,2 8,32 "></polyline> <polyline fill="none" stroke="#61616b" stroke-width="2" points="8,53 8,62 56,62 56,53 "></polyline> <line data-cap="butt" fill="none" stroke="#61616b" stroke-width="2" x1="61" y1="32" x2="3" y2="32"></line> <polyline data-cap="butt" fill="none" stroke="#61616b" stroke-width="2" points="8,27 3,32 3,53 61,53 61,32 56,27 "></polyline></g></svg>