<svg xmlns="http://www.w3.org/2000/svg" height="48" width="48" viewBox="0 0 48 48"><title>file c plus plus 3</title><g stroke-linecap="round" fill="#61616b" stroke-linejoin="round" class="nc-icon-wrapper"><path data-color="color-2" data-stroke="none" fill="#61616b" d="M18.551,29.775c-0.505,0-0.898,0.206-1.182,0.62 c-0.283,0.413-0.424,0.983-0.424,1.71c0,1.512,0.574,2.268,1.724,2.268c0.347,0,0.685-0.049,1.01-0.146s0.653-0.213,0.983-0.349 v1.793c-0.656,0.291-1.396,0.436-2.225,0.436c-1.185,0-2.094-0.344-2.725-1.031c-0.633-0.688-0.949-1.682-0.949-2.98 c0-0.813,0.154-1.527,0.459-2.144c0.307-0.616,0.748-1.09,1.322-1.421s1.25-0.496,2.027-0.496c0.849,0,1.66,0.184,2.434,0.553 l-0.65,1.67c-0.29-0.136-0.58-0.25-0.87-0.344C19.195,29.821,18.884,29.775,18.551,29.775z" stroke="none"></path> <path data-color="color-2" data-stroke="none" fill="#61616b" d="M23.729,32.842H21.73v-1.439h1.998v-1.971h1.445v1.971h1.998v1.439h-1.998v1.939 h-1.445V32.842z" stroke="none"></path> <path data-color="color-2" data-stroke="none" fill="#61616b" d="M29.953,32.842h-1.998v-1.439h1.998v-1.971h1.445v1.971h1.998v1.439h-1.998v1.939 h-1.445V32.842z" stroke="none"></path> <polyline data-cap="butt" fill="none" stroke="#61616b" stroke-width="2" points="29,2 29,14 41,14 "></polyline> <polyline fill="none" stroke="#61616b" stroke-width="2" points="41,23 41,14 29,2 7,2 7,23 "></polyline> <polyline fill="none" stroke="#61616b" stroke-width="2" points="7,41 7,46 41,46 41,41 "></polyline> <rect x="2" y="23" fill="none" stroke="#61616b" stroke-width="2" width="44" height="18"></rect></g></svg>