<svg xmlns="http://www.w3.org/2000/svg" height="32" width="32" viewBox="0 0 32 32"><title>file cfm</title><g stroke-linecap="round" fill="#61616b" stroke-linejoin="round" class="nc-icon-wrapper"><polyline data-cap="butt" fill="none" stroke="#61616b" stroke-width="2" points="20,1 20,9 28,9 "></polyline> <polyline fill="none" stroke="#61616b" stroke-width="2" points="28,13 28,9 20,1 4,1 4,13 "></polyline> <polyline fill="none" stroke="#61616b" stroke-width="2" points="4,27 4,31 28,31 28,27 "></polyline> <path data-color="color-2" data-stroke="none" fill="#61616b" d="M10.5,18.5c-0.4,0-0.7,0.2-0.9,0.5s-0.3,0.7-0.3,1.2c0,1.1,0.4,1.6,1.3,1.6 c0.3,0,0.5,0,0.7-0.1s0.5-0.2,0.7-0.3v1.3c-0.5,0.2-1,0.3-1.6,0.3c-0.9,0-1.5-0.2-2-0.8s-0.7-1.2-0.7-2.2c0-0.6,0.1-1.1,0.3-1.6 s0.5-0.8,1-1s0.9-0.4,1.5-0.4c0.6,0,1.2,0.1,1.8,0.4l-0.5,1.2c-0.2-0.1-0.4-0.2-0.6-0.2S10.8,18.5,10.5,18.5z" stroke-linejoin="miter" stroke="none"></path> <path data-color="color-2" data-stroke="none" fill="#61616b" d="M14.7,23h-1.5v-5.7h3.4v1.2h-1.9v1.1h1.7v1.2h-1.7V23z" stroke-linejoin="miter" stroke="none"></path> <path data-color="color-2" data-stroke="none" fill="#61616b" d="M20,23l-1.2-4.1h0c0.1,0.7,0.1,1.2,0.1,1.6V23h-1.4v-5.7h2.1l1.2,4.1h0l1.2-4.1 H24V23h-1.4v-2.5c0-0.1,0-0.3,0-0.4s0-0.5,0.1-1.2h0L21.5,23H20z" stroke-linejoin="miter" stroke="none"></path> <rect x="1" y="13" fill="none" stroke="#61616b" stroke-width="2" width="30" height="14"></rect></g></svg>