<svg xmlns="http://www.w3.org/2000/svg" height="64" width="64" viewBox="0 0 64 64"><title>file sql 2</title><g stroke-linecap="round" fill="#61616b" stroke-linejoin="round" class="nc-icon-wrapper"><path data-color="color-2" data-stroke="none" fill="#61616b" d="M26,44.4c0,0.8-0.3,1.5-0.9,2c-0.6,0.5-1.4,0.7-2.5,0.7c-1,0-1.9-0.2-2.6-0.6 v-1.8c0.6,0.3,1.2,0.5,1.6,0.6c0.4,0.1,0.8,0.2,1.2,0.2c0.4,0,0.8-0.1,1-0.2c0.2-0.2,0.3-0.4,0.3-0.7c0-0.2-0.1-0.3-0.2-0.5 s-0.3-0.3-0.4-0.4c-0.2-0.1-0.6-0.3-1.2-0.6c-0.6-0.3-1-0.5-1.3-0.8s-0.5-0.5-0.7-0.9C20.1,41,20,40.7,20,40.2 c0-0.8,0.3-1.5,0.8-1.9c0.6-0.5,1.3-0.7,2.3-0.7c0.5,0,0.9,0.1,1.4,0.2c0.4,0.1,0.9,0.3,1.4,0.5l-0.6,1.5c-0.5-0.2-0.9-0.3-1.2-0.4 c-0.3-0.1-0.6-0.1-1-0.1c-0.4,0-0.7,0.1-0.9,0.3s-0.3,0.4-0.3,0.7c0,0.2,0,0.3,0.1,0.5s0.2,0.3,0.4,0.4c0.2,0.1,0.6,0.3,1.2,0.7 c0.9,0.4,1.5,0.8,1.8,1.2S26,43.8,26,44.4z" stroke-linejoin="miter" stroke="none"></path> <path data-color="color-2" data-stroke="none" fill="#61616b" d="M36.3,42.3c0,1.1-0.2,2-0.6,2.7c-0.4,0.7-1,1.3-1.7,1.6l2.2,2.5h-2.5l-1.7-2.1 h-0.1c-1.4,0-2.5-0.4-3.3-1.2c-0.8-0.8-1.1-2-1.1-3.6c0-1.5,0.4-2.7,1.1-3.5c0.8-0.8,1.9-1.2,3.3-1.2s2.5,0.4,3.3,1.2 C35.9,39.6,36.3,40.8,36.3,42.3z M29.6,42.3c0,1,0.2,1.8,0.6,2.3s1,0.8,1.8,0.8c1.6,0,2.4-1,2.4-3.1c0-2.1-0.8-3.1-2.3-3.1 c-0.8,0-1.4,0.3-1.8,0.8C29.8,40.5,29.6,41.3,29.6,42.3z" stroke-linejoin="miter" stroke="none"></path> <path data-color="color-2" data-stroke="none" fill="#61616b" d="M38.5,47v-9.3h2v7.7h3.8V47H38.5z" stroke-linejoin="miter" stroke="none"></path> <polyline data-cap="butt" fill="none" stroke="#61616b" stroke-width="2" points="40,2 40,18 56,18 "></polyline> <polyline fill="none" stroke="#61616b" stroke-width="2" points="56,32 56,18 40,2 8,2 8,32 "></polyline> <polyline fill="none" stroke="#61616b" stroke-width="2" points="8,53 8,62 56,62 56,53 "></polyline> <line data-cap="butt" fill="none" stroke="#61616b" stroke-width="2" x1="61" y1="32" x2="3" y2="32"></line> <polyline data-cap="butt" fill="none" stroke="#61616b" stroke-width="2" points="8,27 3,32 3,53 61,53 61,32 56,27 "></polyline></g></svg>