<svg xmlns="http://www.w3.org/2000/svg" height="32" width="32" viewBox="0 0 32 32"><title>file sql</title><g stroke-linecap="round" fill="#61616b" stroke-linejoin="round" class="nc-icon-wrapper"><polyline data-cap="butt" fill="none" stroke="#61616b" stroke-width="2" points="20,1 20,9 28,9 "></polyline> <polyline fill="none" stroke="#61616b" stroke-width="2" points="28,13 28,9 20,1 4,1 4,13 "></polyline> <polyline fill="none" stroke="#61616b" stroke-width="2" points="4,27 4,31 28,31 28,27 "></polyline> <path data-color="color-2" data-stroke="none" fill="#61616b" d="M12.5,21.3c0,0.4-0.1,0.7-0.3,0.9s-0.4,0.5-0.8,0.6s-0.7,0.2-1.2,0.2 c-0.4,0-0.7,0-1-0.1s-0.5-0.1-0.8-0.3v-1.4c0.3,0.2,0.6,0.3,0.9,0.4s0.6,0.1,0.9,0.1c0.2,0,0.4,0,0.5-0.1s0.2-0.2,0.2-0.3 c0-0.1,0-0.1-0.1-0.2s-0.1-0.1-0.2-0.2s-0.3-0.2-0.8-0.4c-0.4-0.2-0.7-0.3-0.8-0.5s-0.3-0.3-0.4-0.5s-0.1-0.4-0.1-0.7 c0-0.5,0.2-0.9,0.6-1.2s0.9-0.4,1.6-0.4c0.6,0,1.2,0.1,1.8,0.4l-0.5,1.2c-0.5-0.2-1-0.4-1.4-0.4c-0.2,0-0.3,0-0.4,0.1 s-0.1,0.2-0.1,0.3c0,0.1,0.1,0.2,0.2,0.3s0.4,0.2,0.9,0.5c0.5,0.2,0.8,0.5,1,0.7S12.5,20.9,12.5,21.3z" stroke-linejoin="miter" stroke="none"></path> <path data-color="color-2" data-stroke="none" fill="#61616b" d="M18.8,20.1c0,1.3-0.4,2.2-1.2,2.6l1.4,1.6H17l-1-1.3l0,0v0l0,0 c-0.9,0-1.6-0.3-2.1-0.8s-0.7-1.2-0.7-2.2c0-1,0.2-1.7,0.7-2.2s1.2-0.8,2.1-0.8c0.9,0,1.6,0.2,2.1,0.7S18.8,19.2,18.8,20.1z M14.8,20.1c0,1.1,0.4,1.7,1.2,1.7c0.4,0,0.7-0.1,0.9-0.4s0.3-0.7,0.3-1.3c0-0.6-0.1-1-0.3-1.3s-0.5-0.4-0.9-0.4 C15.2,18.5,14.8,19,14.8,20.1z" stroke-linejoin="miter" stroke="none"></path> <path data-color="color-2" data-stroke="none" fill="#61616b" d="M19.8,23v-5.7h1.5v4.5h2.2V23H19.8z" stroke-linejoin="miter" stroke="none"></path> <rect x="1" y="13" fill="none" stroke="#61616b" stroke-width="2" width="30" height="14"></rect></g></svg>