<svg xmlns="http://www.w3.org/2000/svg" height="64" width="64" viewBox="0 0 64 64"><title>file gzip 2</title><g stroke-linecap="round" fill="#61616b" stroke-linejoin="round" class="nc-icon-wrapper"><path data-color="color-2" data-stroke="none" fill="#61616b" d="M21.6,41.8h3.7v4.8c-0.6,0.2-1.2,0.3-1.7,0.4c-0.5,0.1-1.1,0.1-1.6,0.1 c-1.4,0-2.5-0.4-3.2-1.2c-0.7-0.8-1.1-2-1.1-3.5c0-1.5,0.4-2.7,1.3-3.5c0.9-0.8,2-1.3,3.6-1.3c1,0,1.9,0.2,2.8,0.6l-0.7,1.6 c-0.7-0.3-1.4-0.5-2.1-0.5c-0.9,0-1.5,0.3-2,0.9s-0.8,1.3-0.8,2.3c0,1,0.2,1.8,0.6,2.3s1,0.8,1.8,0.8c0.4,0,0.8,0,1.3-0.1v-1.9h-1.8 V41.8z" stroke-linejoin="miter" stroke="none"></path> <path data-color="color-2" data-stroke="none" fill="#61616b" d="M33.8,47h-6.9v-1.3l4.4-6.4H27v-1.6h6.7V39l-4.4,6.4h4.6V47z" stroke-linejoin="miter" stroke="none"></path> <path data-color="color-2" data-stroke="none" fill="#61616b" d="M35.5,47v-9.3h2V47H35.5z" stroke-linejoin="miter" stroke="none"></path> <path data-color="color-2" data-stroke="none" fill="#61616b" d="M46.5,40.6c0,1-0.3,1.8-0.9,2.3c-0.6,0.5-1.5,0.8-2.7,0.8h-0.8V47h-2v-9.3h3 c1.1,0,2,0.2,2.6,0.7S46.5,39.7,46.5,40.6z M42.1,42.1h0.6c0.6,0,1.1-0.1,1.4-0.4c0.3-0.2,0.5-0.6,0.5-1c0-0.5-0.1-0.8-0.4-1 c-0.3-0.2-0.6-0.3-1.2-0.3h-0.9V42.1z" stroke-linejoin="miter" stroke="none"></path> <polyline data-cap="butt" fill="none" stroke="#61616b" stroke-width="2" points="40,2 40,18 56,18 "></polyline> <polyline fill="none" stroke="#61616b" stroke-width="2" points="56,32 56,18 40,2 8,2 8,32 "></polyline> <polyline fill="none" stroke="#61616b" stroke-width="2" points="8,53 8,62 56,62 56,53 "></polyline> <line data-cap="butt" fill="none" stroke="#61616b" stroke-width="2" x1="61" y1="32" x2="3" y2="32"></line> <polyline data-cap="butt" fill="none" stroke="#61616b" stroke-width="2" points="8,27 3,32 3,53 61,53 61,32 56,27 "></polyline></g></svg>