<svg xmlns="http://www.w3.org/2000/svg" height="32" width="32" viewBox="0 0 32 32"><title>file obj</title><g stroke-linecap="round" fill="#61616b" stroke-linejoin="round" class="nc-icon-wrapper"><polyline data-cap="butt" fill="none" stroke="#61616b" stroke-width="2" points="20,1 20,9 28,9 "></polyline> <polyline fill="none" stroke="#61616b" stroke-width="2" points="28,13 28,9 20,1 4,1 4,13 "></polyline> <polyline fill="none" stroke="#61616b" stroke-width="2" points="4,27 4,31 28,31 28,27 "></polyline> <path data-color="color-2" data-stroke="none" fill="#61616b" d="M14.7,20.1c0,1-0.2,1.7-0.7,2.2s-1.2,0.8-2.1,0.8c-0.9,0-1.6-0.3-2.1-0.8 s-0.7-1.2-0.7-2.2c0-1,0.2-1.7,0.7-2.2s1.2-0.8,2.1-0.8c0.9,0,1.6,0.2,2.1,0.7S14.7,19.2,14.7,20.1z M10.7,20.1 c0,1.1,0.4,1.7,1.2,1.7c0.4,0,0.7-0.1,0.9-0.4s0.3-0.7,0.3-1.3c0-0.6-0.1-1-0.3-1.3s-0.5-0.4-0.9-0.4C11.1,18.5,10.7,19,10.7,20.1z" stroke-linejoin="miter" stroke="none"></path> <path data-color="color-2" data-stroke="none" fill="#61616b" d="M15.7,17.3h2c0.8,0,1.4,0.1,1.7,0.3s0.6,0.6,0.6,1.1c0,0.3-0.1,0.6-0.2,0.8 s-0.4,0.4-0.6,0.4v0c0.4,0.1,0.6,0.2,0.8,0.5s0.2,0.5,0.2,0.9c0,0.5-0.2,0.9-0.6,1.2S18.6,23,17.9,23h-2.2V17.3z M17.2,19.5h0.5 c0.2,0,0.4,0,0.5-0.1s0.2-0.2,0.2-0.4c0-0.3-0.2-0.5-0.7-0.5h-0.4V19.5z M17.2,20.6v1.2h0.5c0.5,0,0.7-0.2,0.7-0.6 c0-0.2-0.1-0.3-0.2-0.4s-0.3-0.2-0.6-0.2H17.2z" stroke-linejoin="miter" stroke="none"></path> <path data-color="color-2" data-stroke="none" fill="#61616b" d="M20.6,24.8c-0.3,0-0.5,0-0.8-0.1v-1.2c0.1,0,0.2,0,0.3,0.1s0.2,0,0.3,0 c0.3,0,0.4-0.1,0.5-0.2s0.2-0.4,0.2-0.8v-5.3h1.6v5.2c0,0.8-0.2,1.4-0.5,1.8S21.3,24.8,20.6,24.8z" stroke-linejoin="miter" stroke="none"></path> <rect x="1" y="13" fill="none" stroke="#61616b" stroke-width="2" width="30" height="14"></rect></g></svg>