<svg xmlns="http://www.w3.org/2000/svg" height="48" width="48" viewBox="0 0 48 48"><title>file xml 3</title><g stroke-linecap="round" fill="#61616b" stroke-linejoin="round" class="nc-icon-wrapper"><path data-color="color-2" data-stroke="none" fill="#61616b" d="M19.426,36h-2.455l-1.531-2.455L13.926,36h-2.401l2.605-4.018l-2.449-3.835h2.353 l1.418,2.428l1.364-2.428h2.422l-2.487,4.001L19.426,36z" stroke="none"></path> <path data-color="color-2" data-stroke="none" fill="#61616b" d="M23.729,36l-1.606-5.656h-0.048c0.075,0.964,0.113,1.712,0.113,2.246V36h-1.88 v-7.853h2.825l1.638,5.575h0.043l1.606-5.575h2.831V36H27.3v-3.443c0-0.179,0.003-0.377,0.008-0.596 c0.006-0.219,0.03-0.754,0.073-1.605h-0.048L25.748,36H23.729z" stroke="none"></path> <path data-color="color-2" data-stroke="none" fill="#61616b" d="M30.942,36v-7.853h2.122v6.14h3.024V36H30.942z" stroke="none"></path> <polyline data-cap="butt" fill="none" stroke="#61616b" stroke-width="2" points="29,2 29,14 41,14 "></polyline> <polyline fill="none" stroke="#61616b" stroke-width="2" points="41,23 41,14 29,2 7,2 7,23 "></polyline> <polyline fill="none" stroke="#61616b" stroke-width="2" points="7,41 7,46 41,46 41,41 "></polyline> <rect x="2" y="23" fill="none" stroke="#61616b" stroke-width="2" width="44" height="18"></rect></g></svg>