<svg xmlns="http://www.w3.org/2000/svg" height="32" width="32" viewBox="0 0 32 32"><title>file java</title><g stroke-linecap="round" fill="#61616b" stroke-linejoin="round" class="nc-icon-wrapper"><polyline data-cap="butt" fill="none" stroke="#61616b" stroke-width="2" points="20,1 20,9 28,9 "></polyline> <polyline fill="none" stroke="#61616b" stroke-width="2" points="28,13 28,9 20,1 4,1 4,13 "></polyline> <polyline fill="none" stroke="#61616b" stroke-width="2" points="4,27 4,31 28,31 28,27 "></polyline> <path data-color="color-2" data-stroke="none" fill="#61616b" d="M6.2,24.8c-0.3,0-0.5,0-0.8-0.1v-1.2c0.1,0,0.2,0,0.3,0.1s0.2,0,0.3,0 c0.3,0,0.4-0.1,0.5-0.2s0.2-0.4,0.2-0.8v-5.3h1.6v5.2c0,0.8-0.2,1.4-0.5,1.8S6.9,24.8,6.2,24.8z" stroke-linejoin="miter" stroke="none"></path> <path data-color="color-2" data-stroke="none" fill="#61616b" d="M12.9,23l-0.3-1.1h-1.9L10.5,23H8.8l1.9-5.7h2.1l1.9,5.7H12.9z M12.3,20.7 l-0.2-0.9c-0.1-0.2-0.1-0.5-0.2-0.8s-0.1-0.6-0.2-0.7c0,0.1-0.1,0.4-0.1,0.7s-0.2,0.9-0.5,1.8H12.3z" stroke-linejoin="miter" stroke="none"></path> <path data-color="color-2" data-stroke="none" fill="#61616b" d="M18.5,17.3h1.7L18.3,23h-1.8l-1.9-5.7h1.7l0.8,2.9c0.2,0.6,0.2,1.1,0.3,1.3 c0-0.2,0.1-0.4,0.1-0.7s0.1-0.5,0.1-0.6L18.5,17.3z" stroke-linejoin="miter" stroke="none"></path> <path data-color="color-2" data-stroke="none" fill="#61616b" d="M24.3,23L24,21.9h-1.9L21.9,23h-1.7l1.9-5.7h2.1L26,23H24.3z M23.7,20.7l-0.2-0.9 c-0.1-0.2-0.1-0.5-0.2-0.8s-0.1-0.6-0.2-0.7c0,0.1-0.1,0.4-0.1,0.7s-0.2,0.9-0.5,1.8H23.7z" stroke-linejoin="miter" stroke="none"></path> <rect x="1" y="13" fill="none" stroke="#61616b" stroke-width="2" width="30" height="14"></rect></g></svg>