<svg xmlns="http://www.w3.org/2000/svg" height="64" width="64" viewBox="0 0 64 64"><title>file max 2</title><g stroke-linecap="round" fill="#61616b" stroke-linejoin="round" class="nc-icon-wrapper"><path data-color="color-2" data-stroke="none" fill="#61616b" d="M21.9,47l-2.2-7.3h-0.1c0.1,1.5,0.1,2.5,0.1,3V47H18v-9.3h2.7l2.2,7.1h0l2.3-7.1 h2.7V47H26v-4.4c0-0.2,0-0.4,0-0.7c0-0.3,0-1,0.1-2.2h-0.1L23.7,47H21.9z" stroke-linejoin="miter" stroke="none"></path> <path data-color="color-2" data-stroke="none" fill="#61616b" d="M36.2,47l-0.7-2.2h-3.4L31.4,47h-2.1l3.3-9.3H35l3.3,9.3H36.2z M35,43.1 c-0.6-2-1-3.1-1.1-3.4c-0.1-0.3-0.1-0.5-0.2-0.6c-0.1,0.5-0.5,1.9-1.2,4H35z" stroke-linejoin="miter" stroke="none"></path> <path data-color="color-2" data-stroke="none" fill="#61616b" d="M47.2,47H45l-2.2-3.5L40.6,47h-2.1l3.1-4.8l-2.9-4.5h2.2l2,3.3l2-3.3H47l-2.9,4.6 L47.2,47z" stroke-linejoin="miter" stroke="none"></path> <polyline data-cap="butt" fill="none" stroke="#61616b" stroke-width="2" points="40,2 40,18 56,18 "></polyline> <polyline fill="none" stroke="#61616b" stroke-width="2" points="56,32 56,18 40,2 8,2 8,32 "></polyline> <polyline fill="none" stroke="#61616b" stroke-width="2" points="8,53 8,62 56,62 56,53 "></polyline> <line data-cap="butt" fill="none" stroke="#61616b" stroke-width="2" x1="61" y1="32" x2="3" y2="32"></line> <polyline data-cap="butt" fill="none" stroke="#61616b" stroke-width="2" points="8,27 3,32 3,53 61,53 61,32 56,27 "></polyline></g></svg>