<svg xmlns="http://www.w3.org/2000/svg" height="32" width="32" viewBox="0 0 32 32"><title>file md</title><g stroke-linecap="round" fill="#61616b" stroke-linejoin="round" class="nc-icon-wrapper"><polyline data-cap="butt" fill="none" stroke="#61616b" stroke-width="2" points="20,1 20,9 28,9 "></polyline> <polyline fill="none" stroke="#61616b" stroke-width="2" points="28,13 28,9 20,1 4,1 4,13 "></polyline> <polyline fill="none" stroke="#61616b" stroke-width="2" points="4,27 4,31 28,31 28,27 "></polyline> <rect x="1" y="13" fill="none" stroke="#61616b" stroke-width="2" width="30" height="14"></rect> <path data-color="color-2" data-stroke="none" fill="#61616b" d="M12.197,22.855l-1.168-4.113h-0.035c0.055,0.701,0.082,1.245,0.082,1.633v2.48 H9.709v-5.711h2.055l1.191,4.055h0.031l1.168-4.055h2.059v5.711h-1.418v-2.504c0-0.13,0.002-0.275,0.006-0.434 s0.021-0.548,0.053-1.168h-0.035l-1.152,4.105H12.197z" stroke-linejoin="miter" stroke="none"></path> <path data-color="color-2" data-stroke="none" fill="#61616b" d="M22.291,19.879c0,0.953-0.263,1.688-0.787,2.203s-1.263,0.773-2.213,0.773h-1.848 v-5.711h1.977c0.917,0,1.624,0.234,2.123,0.703S22.291,18.994,22.291,19.879z M20.689,19.934c0-0.523-0.104-0.912-0.311-1.164 s-0.521-0.379-0.943-0.379h-0.449v3.199h0.344c0.469,0,0.812-0.136,1.031-0.408S20.689,20.494,20.689,19.934z" stroke-linejoin="miter" stroke="none"></path></g></svg>