<svg xmlns="http://www.w3.org/2000/svg" height="48" width="48" viewBox="0 0 48 48"><title>file sketch 3</title><g stroke-linecap="round" fill="#61616b" stroke-linejoin="round" class="nc-icon-wrapper"><path data-color="color-2" data-stroke="none" fill="#61616b" d="M10.23,33.54c0,0.463-0.117,0.874-0.352,1.233 c-0.235,0.359-0.574,0.639-1.016,0.838c-0.443,0.2-0.962,0.299-1.558,0.299c-0.497,0-0.914-0.035-1.251-0.105 C5.715,35.735,5.365,35.613,5,35.44v-1.798c0.385,0.198,0.785,0.352,1.2,0.462c0.416,0.111,0.797,0.165,1.144,0.165 c0.299,0,0.519-0.051,0.659-0.155c0.14-0.104,0.209-0.238,0.209-0.401c0-0.102-0.028-0.191-0.084-0.268 c-0.057-0.076-0.147-0.154-0.271-0.232c-0.124-0.078-0.455-0.239-0.993-0.48c-0.487-0.221-0.852-0.436-1.095-0.644 c-0.244-0.208-0.424-0.446-0.541-0.715c-0.118-0.269-0.176-0.587-0.176-0.955c0-0.688,0.25-1.225,0.751-1.609 s1.188-0.577,2.064-0.577c0.773,0,1.561,0.178,2.365,0.536l-0.618,1.557c-0.698-0.319-1.301-0.479-1.808-0.479 c-0.262,0-0.453,0.046-0.572,0.137c-0.119,0.092-0.179,0.206-0.179,0.342c0,0.147,0.076,0.278,0.228,0.394 c0.151,0.116,0.562,0.327,1.233,0.633c0.644,0.29,1.09,0.6,1.341,0.932C10.105,32.617,10.23,33.035,10.23,33.54z" stroke="none"></path> <path data-color="color-2" data-stroke="none" fill="#61616b" d="M17.555,35.807h-2.278l-1.476-2.855l-0.598,0.357v2.498h-2.028V28.34h2.028v3.244 c0.102-0.202,0.308-0.52,0.618-0.956l1.568-2.288h2.207l-2.355,3.346L17.555,35.807z" stroke="none"></path> <path data-color="color-2" data-stroke="none" fill="#61616b" d="M22.586,35.807h-4.434V28.34h4.434v1.619H20.17v1.176h2.237v1.619H20.17v1.41 h2.416V35.807z" stroke="none"></path> <path data-color="color-2" data-stroke="none" fill="#61616b" d="M26.979,35.807h-2.018V29.99h-1.823v-1.65h5.659v1.65h-1.818V35.807z" stroke="none"></path> <path data-color="color-2" data-stroke="none" fill="#61616b" d="M32.981,29.888c-0.48,0-0.855,0.196-1.124,0.59 c-0.269,0.393-0.404,0.935-0.404,1.626c0,1.438,0.547,2.156,1.64,2.156c0.33,0,0.651-0.046,0.96-0.138s0.621-0.202,0.935-0.332 v1.705c-0.623,0.277-1.328,0.414-2.115,0.414c-1.127,0-1.991-0.327-2.592-0.981c-0.601-0.654-0.902-1.599-0.902-2.834 c0-0.774,0.146-1.452,0.436-2.038c0.292-0.586,0.71-1.036,1.257-1.351c0.547-0.315,1.19-0.472,1.928-0.472 c0.807,0,1.578,0.175,2.314,0.526l-0.618,1.588c-0.276-0.129-0.552-0.238-0.827-0.327C33.594,29.932,33.298,29.888,32.981,29.888z" stroke="none"></path> <path data-color="color-2" data-stroke="none" fill="#61616b" d="M42.635,35.807h-2.028v-3.044h-2.344v3.044h-2.028V28.34h2.028v2.768h2.344V28.34 h2.028V35.807z" stroke="none"></path> <polyline data-cap="butt" fill="none" stroke="#61616b" stroke-width="2" points="29,2 29,14 41,14 "></polyline> <polyline fill="none" stroke="#61616b" stroke-width="2" points="41,23 41,14 29,2 7,2 7,23 "></polyline> <polyline fill="none" stroke="#61616b" stroke-width="2" points="7,41 7,46 41,46 41,41 "></polyline> <rect x="2" y="23" fill="none" stroke="#61616b" stroke-width="2" width="44" height="18"></rect></g></svg>