<svg xmlns="http://www.w3.org/2000/svg" height="64" width="64" viewBox="0 0 64 64"><title>file php 2</title><g stroke-linecap="round" fill="#61616b" stroke-linejoin="round" class="nc-icon-wrapper"><path data-color="color-2" data-stroke="none" fill="#61616b" d="M26.2,40.6c0,1-0.3,1.8-0.9,2.3c-0.6,0.5-1.5,0.8-2.7,0.8h-0.8V47h-2v-9.3h3 c1.1,0,2,0.2,2.6,0.7C25.9,38.9,26.2,39.7,26.2,40.6z M21.7,42.1h0.6c0.6,0,1.1-0.1,1.4-0.4s0.5-0.6,0.5-1c0-0.5-0.1-0.8-0.4-1 s-0.6-0.3-1.2-0.3h-0.9V42.1z" stroke-linejoin="miter" stroke="none"></path> <path data-color="color-2" data-stroke="none" fill="#61616b" d="M35.8,47h-2v-4h-3.7v4h-2v-9.3h2v3.6h3.7v-3.6h2V47z" stroke-linejoin="miter" stroke="none"></path> <path data-color="color-2" data-stroke="none" fill="#61616b" d="M44.8,40.6c0,1-0.3,1.8-0.9,2.3c-0.6,0.5-1.5,0.8-2.7,0.8h-0.8V47h-2v-9.3h3 c1.1,0,2,0.2,2.6,0.7S44.8,39.7,44.8,40.6z M40.4,42.1H41c0.6,0,1.1-0.1,1.4-0.4s0.5-0.6,0.5-1c0-0.5-0.1-0.8-0.4-1 c-0.3-0.2-0.6-0.3-1.2-0.3h-0.9V42.1z" stroke-linejoin="miter" stroke="none"></path> <polyline data-cap="butt" fill="none" stroke="#61616b" stroke-width="2" points="40,2 40,18 56,18 "></polyline> <polyline fill="none" stroke="#61616b" stroke-width="2" points="56,32 56,18 40,2 8,2 8,32 "></polyline> <polyline fill="none" stroke="#61616b" stroke-width="2" points="8,53 8,62 56,62 56,53 "></polyline> <line data-cap="butt" fill="none" stroke="#61616b" stroke-width="2" x1="61" y1="32" x2="3" y2="32"></line> <polyline data-cap="butt" fill="none" stroke="#61616b" stroke-width="2" points="8,27 3,32 3,53 61,53 61,32 56,27 "></polyline></g></svg>