<svg xmlns="http://www.w3.org/2000/svg" height="48" width="48" viewBox="0 0 48 48"><title>file json 3</title><g stroke-linecap="round" fill="#61616b" stroke-linejoin="round" class="nc-icon-wrapper"><polyline points="29 2 29 14 41 14" fill="none" stroke="#61616b" stroke-width="2" data-cap="butt"></polyline> <polyline points="41 23 41 14 29 2 7 2 7 23" fill="none" stroke="#61616b" stroke-width="2"></polyline> <polyline points="7 41 7 46 41 46 41 41" fill="none" stroke="#61616b" stroke-width="2"></polyline> <rect x="2" y="23" width="44" height="18" fill="none" stroke="#61616b" stroke-width="2"></rect> <path d="M10.586,38.465a5.218,5.218,0,0,1-1.1-.112V36.7c.116.021.237.045.366.072a2.052,2.052,0,0,0,.42.04.858.858,0,0,0,.751-.316,1.94,1.94,0,0,0,.225-1.085V28.147h2.133v7.085a3.636,3.636,0,0,1-.7,2.414A2.6,2.6,0,0,1,10.586,38.465Z" fill="#61616b" data-color="color-2" data-stroke="none" stroke="none"></path> <path d="M20.211,33.615a2.307,2.307,0,0,1-.371,1.3,2.42,2.42,0,0,1-1.069.881,3.947,3.947,0,0,1-1.638.314A6.587,6.587,0,0,1,15.817,36a4.85,4.85,0,0,1-1.106-.384v-1.89a6.378,6.378,0,0,0,1.262.486,4.719,4.719,0,0,0,1.2.174,1.17,1.17,0,0,0,.693-.163.505.505,0,0,0,.221-.422A.465.465,0,0,0,18,33.516a1.065,1.065,0,0,0-.285-.245c-.13-.082-.479-.25-1.044-.5a4.991,4.991,0,0,1-1.152-.677,2.07,2.07,0,0,1-.57-.752,2.491,2.491,0,0,1-.185-1.005,2.007,2.007,0,0,1,.79-1.691,3.474,3.474,0,0,1,2.17-.607,6.091,6.091,0,0,1,2.486.564l-.65,1.638a4.7,4.7,0,0,0-1.9-.5.985.985,0,0,0-.6.145.439.439,0,0,0-.189.36.516.516,0,0,0,.239.413,9.115,9.115,0,0,0,1.3.666,3.583,3.583,0,0,1,1.41.981A2.128,2.128,0,0,1,20.211,33.615Z" fill="#61616b" data-color="color-2" data-stroke="none" stroke="none"></path> <path d="M28.773,32.063a4.235,4.235,0,0,1-.972,3.013,3.729,3.729,0,0,1-2.848,1.031,3.725,3.725,0,0,1-2.833-1.036,4.218,4.218,0,0,1-.985-3.019,4.186,4.186,0,0,1,.98-2.994,3.745,3.745,0,0,1,2.85-1.034,3.722,3.722,0,0,1,2.842,1.026A4.24,4.24,0,0,1,28.773,32.063Zm-5.4,0q0,2.277,1.584,2.277a1.361,1.361,0,0,0,1.2-.553,3.025,3.025,0,0,0,.391-1.724,3.073,3.073,0,0,0-.394-1.738,1.35,1.35,0,0,0-1.18-.561Q23.368,29.764,23.369,32.063Z" fill="#61616b" data-color="color-2" data-stroke="none" stroke="none"></path> <path d="M37.666,36H34.885l-2.869-5.532h-.047c.066.87.1,1.534.1,1.992V36H30.189V28.147h2.772L35.818,33.6h.034q-.076-1.186-.077-1.906V28.147h1.891Z" fill="#61616b" data-color="color-2" data-stroke="none" stroke="none"></path></g></svg>