<svg xmlns="http://www.w3.org/2000/svg" height="32" width="32" viewBox="0 0 32 32"><title>file c plus plus</title><g stroke-linecap="round" fill="#61616b" stroke-linejoin="round" class="nc-icon-wrapper"><polyline data-cap="butt" fill="none" stroke="#61616b" stroke-width="2" points="20,1 20,9 28,9 "></polyline> <polyline fill="none" stroke="#61616b" stroke-width="2" points="28,13 28,9 20,1 4,1 4,13 "></polyline> <polyline fill="none" stroke="#61616b" stroke-width="2" points="4,27 4,31 28,31 28,27 "></polyline> <path data-color="color-2" data-stroke="none" fill="#61616b" d="M12,18.5c-0.4,0-0.7,0.2-0.9,0.5s-0.3,0.7-0.3,1.2c0,1.1,0.4,1.6,1.3,1.6 c0.3,0,0.5,0,0.7-0.1s0.5-0.2,0.7-0.3v1.3c-0.5,0.2-1,0.3-1.6,0.3c-0.9,0-1.5-0.2-2-0.8s-0.7-1.2-0.7-2.2c0-0.6,0.1-1.1,0.3-1.6 s0.5-0.8,1-1s0.9-0.4,1.5-0.4c0.6,0,1.2,0.1,1.8,0.4l-0.5,1.2c-0.2-0.1-0.4-0.2-0.6-0.2S12.3,18.5,12,18.5z" stroke-linejoin="miter" stroke="none"></path> <path data-color="color-2" data-stroke="none" fill="#61616b" d="M15.8,20.7h-1.5v-1h1.5v-1.4h1.1v1.4h1.5v1h-1.5v1.4h-1.1V20.7z" stroke-linejoin="miter" stroke="none"></path> <path data-color="color-2" data-stroke="none" fill="#61616b" d="M20.3,20.7h-1.5v-1h1.5v-1.4h1.1v1.4h1.5v1h-1.5v1.4h-1.1V20.7z" stroke-linejoin="miter" stroke="none"></path> <rect x="1" y="13" fill="none" stroke="#61616b" stroke-width="2" width="30" height="14"></rect></g></svg>