<svg xmlns="http://www.w3.org/2000/svg" height="64" width="64" viewBox="0 0 64 64"><title>file c plus plus 2</title><g stroke-linecap="round" fill="#61616b" stroke-linejoin="round" class="nc-icon-wrapper"><path data-color="color-2" data-stroke="none" fill="#61616b" d="M25.3,39.2c-0.7,0-1.3,0.3-1.7,0.8S23,41.4,23,42.4c0,2.1,0.8,3.1,2.3,3.1 c0.7,0,1.4-0.2,2.4-0.5v1.7c-0.8,0.3-1.6,0.5-2.6,0.5c-1.3,0-2.4-0.4-3.1-1.2c-0.7-0.8-1.1-2-1.1-3.5c0-1,0.2-1.8,0.5-2.5 s0.9-1.3,1.5-1.7c0.7-0.4,1.4-0.6,2.3-0.6c0.9,0,1.8,0.2,2.7,0.7l-0.6,1.6c-0.3-0.2-0.7-0.3-1-0.4S25.6,39.2,25.3,39.2z" stroke-linejoin="miter" stroke="none"></path> <path data-color="color-2" data-stroke="none" fill="#61616b" d="M31.7,43.1h-2.5v-1.4h2.5v-2.5h1.4v2.5h2.5v1.4h-2.5v2.4h-1.4V43.1z" stroke-linejoin="miter" stroke="none"></path> <path data-color="color-2" data-stroke="none" fill="#61616b" d="M39.4,43.1H37v-1.4h2.5v-2.5h1.4v2.5h2.5v1.4h-2.5v2.4h-1.4V43.1z" stroke-linejoin="miter" stroke="none"></path> <polyline data-cap="butt" fill="none" stroke="#61616b" stroke-width="2" points="40,2 40,18 56,18 "></polyline> <polyline fill="none" stroke="#61616b" stroke-width="2" points="56,32 56,18 40,2 8,2 8,32 "></polyline> <polyline fill="none" stroke="#61616b" stroke-width="2" points="8,53 8,62 56,62 56,53 "></polyline> <line data-cap="butt" fill="none" stroke="#61616b" stroke-width="2" x1="61" y1="32" x2="3" y2="32"></line> <polyline data-cap="butt" fill="none" stroke="#61616b" stroke-width="2" points="8,27 3,32 3,53 61,53 61,32 56,27 "></polyline></g></svg>