<svg xmlns="http://www.w3.org/2000/svg" height="48" width="48" viewBox="0 0 48 48"><title>file gzip 3</title><g stroke-linecap="round" fill="#61616b" stroke-linejoin="round" class="nc-icon-wrapper"><path data-color="color-2" data-stroke="none" fill="#61616b" d="M15.181,31.402h3.39v4.232c-0.921,0.315-1.932,0.473-3.035,0.473 c-1.211,0-2.146-0.351-2.807-1.053s-0.99-1.703-0.99-3.002c0-1.268,0.361-2.255,1.084-2.96c0.724-0.705,1.737-1.058,3.041-1.058 c0.494,0,0.96,0.046,1.398,0.139c0.439,0.094,0.821,0.212,1.146,0.355l-0.671,1.664c-0.565-0.279-1.187-0.418-1.864-0.418 c-0.619,0-1.098,0.201-1.436,0.604c-0.34,0.403-0.508,0.979-0.508,1.727c0,0.734,0.152,1.294,0.459,1.679s0.747,0.577,1.324,0.577 c0.314,0,0.604-0.03,0.869-0.091v-1.229h-1.401V31.402z" stroke="none"></path> <path data-color="color-2" data-stroke="none" fill="#61616b" d="M25.768,36h-6.118v-1.311l3.399-4.828H19.73v-1.714h5.951v1.306l-3.4,4.834h3.486 V36z" stroke="none"></path> <path data-color="color-2" data-stroke="none" fill="#61616b" d="M26.89,36v-7.853h2.132V36H26.89z" stroke="none"></path> <path data-color="color-2" data-stroke="none" fill="#61616b" d="M36.418,30.645c0,0.878-0.259,1.556-0.775,2.033 c-0.518,0.479-1.253,0.717-2.205,0.717h-0.597V36h-2.122v-7.853h2.719c0.991,0,1.736,0.217,2.234,0.649 C36.169,29.23,36.418,29.847,36.418,30.645z M32.841,31.666h0.387c0.319,0,0.571-0.09,0.761-0.27 c0.188-0.179,0.281-0.426,0.281-0.74c0-0.53-0.293-0.795-0.881-0.795h-0.548V31.666z" stroke="none"></path> <polyline data-cap="butt" fill="none" stroke="#61616b" stroke-width="2" points="29,2 29,14 41,14 "></polyline> <polyline fill="none" stroke="#61616b" stroke-width="2" points="41,23 41,14 29,2 7,2 7,23 "></polyline> <polyline fill="none" stroke="#61616b" stroke-width="2" points="7,41 7,46 41,46 41,41 "></polyline> <rect x="2" y="23" fill="none" stroke="#61616b" stroke-width="2" width="44" height="18"></rect></g></svg>