<svg xmlns="http://www.w3.org/2000/svg" height="48" width="48" viewBox="0 0 48 48"><title>file cfm 3</title><g stroke-linecap="round" fill="#61616b" stroke-linejoin="round" class="nc-icon-wrapper"><path data-color="color-2" data-stroke="none" fill="#61616b" d="M16.494,29.775c-0.505,0-0.899,0.206-1.182,0.62 c-0.283,0.413-0.424,0.983-0.424,1.71c0,1.512,0.575,2.268,1.724,2.268c0.347,0,0.684-0.049,1.01-0.146s0.653-0.213,0.983-0.349 v1.793c-0.655,0.291-1.396,0.436-2.224,0.436c-1.185,0-2.094-0.344-2.726-1.031c-0.632-0.688-0.948-1.682-0.948-2.98 c0-0.813,0.153-1.527,0.459-2.144c0.307-0.616,0.747-1.09,1.321-1.421c0.575-0.331,1.251-0.496,2.028-0.496 c0.849,0,1.66,0.184,2.433,0.553l-0.65,1.67c-0.29-0.136-0.58-0.25-0.87-0.344C17.138,29.821,16.827,29.775,16.494,29.775z" stroke="none"></path> <path data-color="color-2" data-stroke="none" fill="#61616b" d="M22.225,36h-2.089v-7.853h4.641v1.702h-2.551v1.499h2.353v1.702h-2.353V36z" stroke="none"></path> <path data-color="color-2" data-stroke="none" fill="#61616b" d="M29.486,36l-1.606-5.656h-0.048c0.075,0.964,0.113,1.712,0.113,2.246V36h-1.88 v-7.853h2.825l1.638,5.575h0.043l1.606-5.575h2.831V36h-1.95v-3.443c0-0.179,0.003-0.377,0.008-0.596 c0.006-0.219,0.03-0.754,0.073-1.605H33.09L31.506,36H29.486z" stroke="none"></path> <polyline data-cap="butt" fill="none" stroke="#61616b" stroke-width="2" points="29,2 29,14 41,14 "></polyline> <polyline fill="none" stroke="#61616b" stroke-width="2" points="41,23 41,14 29,2 7,2 7,23 "></polyline> <polyline fill="none" stroke="#61616b" stroke-width="2" points="7,41 7,46 41,46 41,41 "></polyline> <rect x="2" y="23" fill="none" stroke="#61616b" stroke-width="2" width="44" height="18"></rect></g></svg>