<svg xmlns="http://www.w3.org/2000/svg" height="64" width="64" viewBox="0 0 64 64"><title>file font 2</title><g stroke-linecap="round" fill="#61616b" stroke-linejoin="round" class="nc-icon-wrapper"><path data-color="color-2" data-stroke="none" fill="#61616b" d="M16.9,47H15v-9.3h5.3v1.6h-3.4v2.4h3.1v1.6h-3.1V47z" stroke-linejoin="miter" stroke="none"></path> <path data-color="color-2" data-stroke="none" fill="#61616b" d="M30.8,42.3c0,1.5-0.4,2.7-1.1,3.5c-0.8,0.8-1.9,1.2-3.3,1.2s-2.5-0.4-3.3-1.2 c-0.8-0.8-1.1-2-1.1-3.6c0-1.5,0.4-2.7,1.1-3.5c0.8-0.8,1.9-1.2,3.3-1.2s2.5,0.4,3.3,1.2C30.4,39.6,30.8,40.8,30.8,42.3z M24,42.3 c0,1,0.2,1.8,0.6,2.3s1,0.8,1.8,0.8c1.6,0,2.4-1,2.4-3.1c0-2.1-0.8-3.1-2.3-3.1c-0.8,0-1.4,0.3-1.8,0.8C24.2,40.5,24,41.3,24,42.3z" stroke-linejoin="miter" stroke="none"></path> <path data-color="color-2" data-stroke="none" fill="#61616b" d="M41.2,47h-2.5l-4-7h-0.1c0.1,1.2,0.1,2.1,0.1,2.7V47H33v-9.3h2.5l4,7h0 c-0.1-1.2-0.1-2.1-0.1-2.6v-4.4h1.8V47z" stroke-linejoin="miter" stroke="none"></path> <path data-color="color-2" data-stroke="none" fill="#61616b" d="M47.4,47h-2v-7.6h-2.5v-1.6h7v1.6h-2.5V47z" stroke-linejoin="miter" stroke="none"></path> <polyline data-cap="butt" fill="none" stroke="#61616b" stroke-width="2" points="40,2 40,18 56,18 "></polyline> <polyline fill="none" stroke="#61616b" stroke-width="2" points="56,32 56,18 40,2 8,2 8,32 "></polyline> <polyline fill="none" stroke="#61616b" stroke-width="2" points="8,53 8,62 56,62 56,53 "></polyline> <line data-cap="butt" fill="none" stroke="#61616b" stroke-width="2" x1="61" y1="32" x2="3" y2="32"></line> <polyline data-cap="butt" fill="none" stroke="#61616b" stroke-width="2" points="8,27 3,32 3,53 61,53 61,32 56,27 "></polyline></g></svg>