<svg xmlns="http://www.w3.org/2000/svg" height="48" width="48" viewBox="0 0 48 48"><title>file otf 3</title><g stroke-linecap="round" fill="#61616b" stroke-linejoin="round" class="nc-icon-wrapper"><path data-color="color-2" data-stroke="none" fill="#61616b" d="M21.599,32.062c0,1.322-0.324,2.326-0.972,3.014s-1.597,1.031-2.847,1.031 c-1.232,0-2.176-0.346-2.833-1.037c-0.657-0.69-0.985-1.697-0.985-3.018c0-1.308,0.327-2.306,0.98-2.995 c0.653-0.689,1.603-1.034,2.849-1.034c1.25,0,2.197,0.343,2.841,1.026S21.599,30.738,21.599,32.062z M16.196,32.062 c0,1.519,0.528,2.277,1.584,2.277c0.537,0,0.936-0.184,1.195-0.553c0.26-0.369,0.39-0.943,0.39-1.725 c0-0.783-0.132-1.363-0.395-1.737c-0.264-0.374-0.656-0.562-1.179-0.562C16.728,29.764,16.196,30.53,16.196,32.062z" stroke="none"></path> <path data-color="color-2" data-stroke="none" fill="#61616b" d="M26.481,36H24.36v-6.117h-1.917v-1.735h5.951v1.735h-1.912V36z" stroke="none"></path> <path data-color="color-2" data-stroke="none" fill="#61616b" d="M31.605,36h-2.089v-7.853h4.641v1.702h-2.551v1.499h2.353v1.702h-2.353V36z" stroke="none"></path> <polyline data-cap="butt" fill="none" stroke="#61616b" stroke-width="2" points="29,2 29,14 41,14 "></polyline> <polyline fill="none" stroke="#61616b" stroke-width="2" points="41,23 41,14 29,2 7,2 7,23 "></polyline> <polyline fill="none" stroke="#61616b" stroke-width="2" points="7,41 7,46 41,46 41,41 "></polyline> <rect x="2" y="23" fill="none" stroke="#61616b" stroke-width="2" width="44" height="18"></rect></g></svg>