<svg xmlns="http://www.w3.org/2000/svg" height="64" width="64" viewBox="0 0 64 64"><title>file md 2</title><g stroke-linecap="round" fill="#61616b" stroke-linejoin="round" class="nc-icon-wrapper"><polyline data-cap="butt" fill="none" stroke="#61616b" stroke-width="2" points="40,2 40,18 56,18 "></polyline> <polyline fill="none" stroke="#61616b" stroke-width="2" points="56,32 56,18 40,2 8,2 8,32 "></polyline> <polyline fill="none" stroke="#61616b" stroke-width="2" points="8,53 8,62 56,62 56,53 "></polyline> <line data-cap="butt" fill="none" stroke="#61616b" stroke-width="2" x1="61" y1="32" x2="3" y2="32"></line> <polyline data-cap="butt" fill="none" stroke="#61616b" stroke-width="2" points="8,27 3,32 3,53 61,53 61,32 56,27 "></polyline> <path data-color="color-2" data-stroke="none" fill="#61616b" d="M25.821,46.997l-2.234-7.281h-0.058c0.08,1.481,0.12,2.469,0.12,2.964v4.316h-1.758 v-9.28h2.679l2.196,7.097h0.038l2.329-7.097h2.68v9.28h-1.835v-4.393c0-0.208,0.003-0.446,0.01-0.717 c0.006-0.271,0.034-0.99,0.085-2.158h-0.057l-2.393,7.268H25.821z" stroke-linejoin="miter" stroke="none"></path> <path data-color="color-2" data-stroke="none" fill="#61616b" d="M42.108,42.268c0,1.528-0.435,2.698-1.304,3.51c-0.87,0.812-2.126,1.219-3.768,1.219 h-2.628v-9.28h2.914c1.515,0,2.691,0.4,3.529,1.2S42.108,40.833,42.108,42.268z M40.065,42.318c0-1.993-0.881-2.99-2.641-2.99 h-1.048v6.043h0.845C39.117,45.372,40.065,44.354,40.065,42.318z" stroke-linejoin="miter" stroke="none"></path></g></svg>