<svg xmlns="http://www.w3.org/2000/svg" height="32" width="32" viewBox="0 0 32 32"><title>file aspx</title><g stroke-linecap="round" fill="#61616b" stroke-linejoin="round" class="nc-icon-wrapper"><polyline data-cap="butt" fill="none" stroke="#61616b" stroke-width="2" points="20,1 20,9 28,9 "></polyline> <polyline fill="none" stroke="#61616b" stroke-width="2" points="28,13 28,9 20,1 4,1 4,13 "></polyline> <polyline fill="none" stroke="#61616b" stroke-width="2" points="4,27 4,31 28,31 28,27 "></polyline> <path data-color="color-2" data-stroke="none" fill="#61616b" d="M9.5,23l-0.3-1.1H7.4L7.1,23H5.4l1.9-5.7h2.1l1.9,5.7H9.5z M8.9,20.7l-0.2-0.9 c-0.1-0.2-0.1-0.5-0.2-0.8s-0.1-0.6-0.2-0.7c0,0.1-0.1,0.4-0.1,0.7s-0.2,0.9-0.5,1.8H8.9z" stroke-linejoin="miter" stroke="none"></path> <path data-color="color-2" data-stroke="none" fill="#61616b" d="M15.5,21.3c0,0.4-0.1,0.7-0.3,0.9s-0.4,0.5-0.8,0.6s-0.7,0.2-1.2,0.2 c-0.4,0-0.7,0-1-0.1s-0.5-0.1-0.8-0.3v-1.4c0.3,0.2,0.6,0.3,0.9,0.4s0.6,0.1,0.9,0.1c0.2,0,0.4,0,0.5-0.1s0.2-0.2,0.2-0.3 c0-0.1,0-0.1-0.1-0.2s-0.1-0.1-0.2-0.2s-0.3-0.2-0.8-0.4c-0.4-0.2-0.7-0.3-0.8-0.5s-0.3-0.3-0.4-0.5s-0.1-0.4-0.1-0.7 c0-0.5,0.2-0.9,0.6-1.2s0.9-0.4,1.6-0.4c0.6,0,1.2,0.1,1.8,0.4l-0.5,1.2c-0.5-0.2-1-0.4-1.4-0.4c-0.2,0-0.3,0-0.4,0.1 s-0.1,0.2-0.1,0.3c0,0.1,0.1,0.2,0.2,0.3s0.4,0.2,0.9,0.5c0.5,0.2,0.8,0.5,1,0.7S15.5,20.9,15.5,21.3z" stroke-linejoin="miter" stroke="none"></path> <path data-color="color-2" data-stroke="none" fill="#61616b" d="M20.6,19.1c0,0.6-0.2,1.1-0.6,1.5s-0.9,0.5-1.6,0.5H18V23h-1.5v-5.7h2 c0.7,0,1.3,0.2,1.6,0.5S20.6,18.5,20.6,19.1z M18,19.8h0.3c0.2,0,0.4-0.1,0.6-0.2s0.2-0.3,0.2-0.5c0-0.4-0.2-0.6-0.6-0.6H18V19.8z" stroke-linejoin="miter" stroke="none"></path> <path data-color="color-2" data-stroke="none" fill="#61616b" d="M26.6,23h-1.8l-1.1-1.8L22.6,23h-1.7l1.9-2.9L21,17.3h1.7l1,1.8l1-1.8h1.8 l-1.8,2.9L26.6,23z" stroke-linejoin="miter" stroke="none"></path> <rect x="1" y="13" fill="none" stroke="#61616b" stroke-width="2" width="30" height="14"></rect></g></svg>