<svg xmlns="http://www.w3.org/2000/svg" height="32" width="32" viewBox="0 0 32 32"><title>file raw</title><g stroke-linecap="round" fill="#61616b" stroke-linejoin="round" class="nc-icon-wrapper"><polyline data-cap="butt" fill="none" stroke="#61616b" stroke-width="2" points="20,1 20,9 28,9 "></polyline> <polyline fill="none" stroke="#61616b" stroke-width="2" points="28,13 28,9 20,1 4,1 4,13 "></polyline> <polyline fill="none" stroke="#61616b" stroke-width="2" points="4,27 4,31 28,31 28,27 "></polyline> <path data-color="color-2" data-stroke="none" fill="#61616b" d="M8.4,20.9V23H6.8v-5.7h1.9c1.6,0,2.3,0.6,2.3,1.7c0,0.7-0.3,1.2-1,1.5l1.7,2.5H10 l-1.2-2.1H8.4z M8.4,19.8h0.3c0.5,0,0.8-0.2,0.8-0.7c0-0.4-0.3-0.6-0.8-0.6H8.4V19.8z" stroke-linejoin="miter" stroke="none"></path> <path data-color="color-2" data-stroke="none" fill="#61616b" d="M15.8,23l-0.3-1.1h-1.9L13.3,23h-1.7l1.9-5.7h2.1l1.9,5.7H15.8z M15.2,20.7 l-0.2-0.9c-0.1-0.2-0.1-0.5-0.2-0.8s-0.1-0.6-0.2-0.7c0,0.1-0.1,0.4-0.1,0.7s-0.2,0.9-0.5,1.8H15.2z" stroke-linejoin="miter" stroke="none"></path> <path data-color="color-2" data-stroke="none" fill="#61616b" d="M24.2,23h-1.8l-0.5-2.5c0-0.1-0.1-0.3-0.1-0.6s-0.1-0.6-0.1-0.8 c0,0.2-0.1,0.4-0.1,0.6s-0.1,0.5-0.1,0.7s-0.2,1.1-0.6,2.6H19l-1.4-5.7h1.5l0.6,2.9c0.1,0.6,0.2,1.1,0.3,1.5c0-0.3,0.1-0.6,0.2-1.1 s0.2-0.8,0.2-1.1l0.5-2.2h1.4l0.5,2.2c0.1,0.3,0.2,0.7,0.3,1.2s0.1,0.8,0.2,1c0-0.3,0.1-0.8,0.3-1.5l0.6-2.9h1.5L24.2,23z" stroke-linejoin="miter" stroke="none"></path> <rect x="1" y="13" fill="none" stroke="#61616b" stroke-width="2" width="30" height="14"></rect></g></svg>