<svg xmlns="http://www.w3.org/2000/svg" height="64" width="64" viewBox="0 0 64 64"><title>file json 2</title><g stroke-linecap="round" fill="#61616b" stroke-linejoin="round" class="nc-icon-wrapper"><polyline points="40 2 40 18 56 18" fill="none" stroke="#61616b" stroke-width="2" data-cap="butt"></polyline> <polyline points="56 32 56 18 40 2 8 2 8 32" fill="none" stroke="#61616b" stroke-width="2"></polyline> <polyline points="8 53 8 62 56 62 56 53" fill="none" stroke="#61616b" stroke-width="2"></polyline> <line x1="61" y1="32" x2="3" y2="32" fill="none" stroke="#61616b" stroke-width="2" data-cap="butt"></line> <polyline points="8 27 3 32 3 53 61 53 61 32 56 27" fill="none" stroke="#61616b" stroke-width="2" data-cap="butt"></polyline> <path d="M15.969,49.729a4.305,4.305,0,0,1-1.161-.139V47.952a3.824,3.824,0,0,0,.926.127,1.046,1.046,0,0,0,.927-.4,2.239,2.239,0,0,0,.279-1.26v-8.7h1.968V46.4a3.664,3.664,0,0,1-.742,2.476A2.762,2.762,0,0,1,15.969,49.729Z" fill="#61616b" data-color="color-2" data-stroke="none" stroke="none"></path> <path d="M26.982,44.423a2.4,2.4,0,0,1-.9,1.98,3.923,3.923,0,0,1-2.516.724,5.9,5.9,0,0,1-2.628-.559V44.74a10.86,10.86,0,0,0,1.589.591,4.733,4.733,0,0,0,1.191.171,1.689,1.689,0,0,0,.993-.248.843.843,0,0,0,.347-.736.812.812,0,0,0-.153-.486,1.7,1.7,0,0,0-.448-.409A11.414,11.414,0,0,0,23.25,43a5.747,5.747,0,0,1-1.276-.768,2.873,2.873,0,0,1-.679-.857,2.438,2.438,0,0,1-.254-1.143,2.4,2.4,0,0,1,.834-1.936,3.469,3.469,0,0,1,2.308-.7,5.458,5.458,0,0,1,1.38.172,9.539,9.539,0,0,1,1.375.482L26.3,39.77a9.224,9.224,0,0,0-1.229-.425,3.919,3.919,0,0,0-.955-.121,1.267,1.267,0,0,0-.857.26.859.859,0,0,0-.3.68.842.842,0,0,0,.12.453,1.328,1.328,0,0,0,.385.375,12.071,12.071,0,0,0,1.247.651A4.953,4.953,0,0,1,26.5,42.89,2.439,2.439,0,0,1,26.982,44.423Z" fill="#61616b" data-color="color-2" data-stroke="none" stroke="none"></path> <path d="M37.348,42.347a5.034,5.034,0,0,1-1.143,3.542,4.236,4.236,0,0,1-3.275,1.238,4.238,4.238,0,0,1-3.276-1.238,5.059,5.059,0,0,1-1.142-3.555A4.984,4.984,0,0,1,29.658,38.8a4.281,4.281,0,0,1,3.283-1.222,4.227,4.227,0,0,1,3.274,1.231A5.046,5.046,0,0,1,37.348,42.347Zm-6.774,0a3.87,3.87,0,0,0,.591,2.342,2.065,2.065,0,0,0,1.765.788q2.355,0,2.355-3.13t-2.344-3.136A2.077,2.077,0,0,0,31.172,40,3.85,3.85,0,0,0,30.574,42.347Z" fill="#61616b" data-color="color-2" data-stroke="none" stroke="none"></path> <path d="M47.764,47h-2.5l-4.037-7.021h-.059q.12,1.86.121,2.654V47H39.531V37.72h2.483l4.029,6.95h.045q-.095-1.809-.1-2.558V37.72h1.772Z" fill="#61616b" data-color="color-2" data-stroke="none" stroke="none"></path></g></svg>