<svg xmlns="http://www.w3.org/2000/svg" height="48" width="48" viewBox="0 0 48 48"><title>file max 3</title><g stroke-linecap="round" fill="#61616b" stroke-linejoin="round" class="nc-icon-wrapper"><path data-color="color-2" data-stroke="none" fill="#61616b" d="M14.982,36l-1.606-5.656h-0.048c0.074,0.964,0.112,1.712,0.112,2.246V36h-1.88 v-7.853h2.825l1.638,5.575h0.043l1.606-5.575h2.831V36h-1.95v-3.443c0-0.179,0.003-0.377,0.008-0.596 c0.006-0.219,0.03-0.754,0.073-1.605h-0.049L17.002,36H14.982z" stroke="none"></path> <path data-color="color-2" data-stroke="none" fill="#61616b" d="M27.014,36l-0.387-1.472h-2.552L23.678,36h-2.331l2.562-7.885h2.831L29.334,36 H27.014z M26.186,32.788l-0.338-1.289c-0.078-0.286-0.175-0.657-0.287-1.112c-0.113-0.454-0.188-0.78-0.223-0.977 c-0.033,0.182-0.096,0.482-0.191,0.902c-0.095,0.418-0.305,1.244-0.631,2.476H26.186z" stroke="none"></path> <path data-color="color-2" data-stroke="none" fill="#61616b" d="M37.256,36h-2.455l-1.53-2.455L31.756,36h-2.4l2.604-4.018l-2.449-3.835h2.353 l1.418,2.428l1.364-2.428h2.423l-2.487,4.001L37.256,36z" stroke="none"></path> <polyline data-cap="butt" fill="none" stroke="#61616b" stroke-width="2" points="29,2 29,14 41,14 "></polyline> <polyline fill="none" stroke="#61616b" stroke-width="2" points="41,23 41,14 29,2 7,2 7,23 "></polyline> <polyline fill="none" stroke="#61616b" stroke-width="2" points="7,41 7,46 41,46 41,41 "></polyline> <rect x="2" y="23" fill="none" stroke="#61616b" stroke-width="2" width="44" height="18"></rect></g></svg>