<svg xmlns="http://www.w3.org/2000/svg" height="32" width="32" viewBox="0 0 32 32"><title>file ttf</title><g stroke-linecap="round" fill="#61616b" stroke-linejoin="round" class="nc-icon-wrapper"><polyline data-cap="butt" fill="none" stroke="#61616b" stroke-width="2" points="20,1 20,9 28,9 "></polyline> <polyline fill="none" stroke="#61616b" stroke-width="2" points="28,13 28,9 20,1 4,1 4,13 "></polyline> <polyline fill="none" stroke="#61616b" stroke-width="2" points="4,27 4,31 28,31 28,27 "></polyline> <path data-color="color-2" data-stroke="none" fill="#61616b" d="M12.3,23h-1.5v-4.4H9.3v-1.3h4.3v1.3h-1.4V23z" stroke-linejoin="miter" stroke="none"></path> <path data-color="color-2" data-stroke="none" fill="#61616b" d="M17,23h-1.5v-4.4H14v-1.3h4.3v1.3H17V23z" stroke-linejoin="miter" stroke="none"></path> <path data-color="color-2" data-stroke="none" fill="#61616b" d="M20.7,23h-1.5v-5.7h3.4v1.2h-1.9v1.1h1.7v1.2h-1.7V23z" stroke-linejoin="miter" stroke="none"></path> <rect x="1" y="13" fill="none" stroke="#61616b" stroke-width="2" width="30" height="14"></rect></g></svg>