<svg xmlns="http://www.w3.org/2000/svg" height="48" width="48" viewBox="0 0 48 48"><title>file ttf 3</title><g stroke-linecap="round" fill="#61616b" stroke-linejoin="round" class="nc-icon-wrapper"><path data-color="color-2" data-stroke="none" fill="#61616b" d="M18.85,36h-2.122v-6.117h-1.917v-1.735h5.951v1.735H18.85V36z" stroke="none"></path> <path data-color="color-2" data-stroke="none" fill="#61616b" d="M25.348,36h-2.121v-6.117h-1.918v-1.735h5.951v1.735h-1.912V36z" stroke="none"></path> <path data-color="color-2" data-stroke="none" fill="#61616b" d="M30.473,36h-2.09v-7.853h4.641v1.702h-2.551v1.499h2.352v1.702h-2.352V36z" stroke="none"></path> <polyline data-cap="butt" fill="none" stroke="#61616b" stroke-width="2" points="29,2 29,14 41,14 "></polyline> <polyline fill="none" stroke="#61616b" stroke-width="2" points="41,23 41,14 29,2 7,2 7,23 "></polyline> <polyline fill="none" stroke="#61616b" stroke-width="2" points="7,41 7,46 41,46 41,41 "></polyline> <rect x="2" y="23" fill="none" stroke="#61616b" stroke-width="2" width="44" height="18"></rect></g></svg>