<svg xmlns="http://www.w3.org/2000/svg" height="48" width="48" viewBox="0 0 48 48"><title>file obj 3</title><g stroke-linecap="round" fill="#61616b" stroke-linejoin="round" class="nc-icon-wrapper"><path data-color="color-2" data-stroke="none" fill="#61616b" d="M22.171,32.062c0,1.322-0.324,2.326-0.972,3.014s-1.597,1.031-2.847,1.031 c-1.232,0-2.176-0.346-2.833-1.037c-0.657-0.69-0.985-1.697-0.985-3.018c0-1.308,0.327-2.306,0.98-2.995 c0.653-0.689,1.603-1.034,2.849-1.034c1.25,0,2.197,0.343,2.841,1.026S22.171,30.738,22.171,32.062z M16.768,32.062 c0,1.519,0.528,2.277,1.584,2.277c0.537,0,0.936-0.184,1.195-0.553c0.26-0.369,0.39-0.943,0.39-1.725 c0-0.783-0.132-1.363-0.395-1.737c-0.264-0.374-0.656-0.562-1.179-0.562C17.299,29.764,16.768,30.53,16.768,32.062z" stroke="none"></path> <path data-color="color-2" data-stroke="none" fill="#61616b" d="M23.589,28.147h2.739c1.067,0,1.859,0.158,2.377,0.476 c0.517,0.316,0.776,0.81,0.776,1.479c0,0.44-0.113,0.816-0.338,1.128s-0.523,0.512-0.892,0.602v0.054 c0.487,0.129,0.84,0.344,1.058,0.645s0.328,0.691,0.328,1.171c0,0.713-0.268,1.273-0.803,1.684C28.298,35.795,27.569,36,26.645,36 h-3.056V28.147z M25.71,31.16h0.639c0.304,0,0.54-0.062,0.706-0.188c0.167-0.125,0.25-0.312,0.25-0.559 c0-0.44-0.333-0.66-0.999-0.66H25.71V31.16z M25.71,32.713v1.648h0.747c0.663,0,0.994-0.279,0.994-0.838 c0-0.261-0.088-0.461-0.266-0.602c-0.177-0.139-0.434-0.209-0.771-0.209H25.71z" stroke="none"></path> <path data-color="color-2" data-stroke="none" fill="#61616b" d="M30.383,38.465c-0.387,0-0.754-0.037-1.101-0.112v-1.649 c0.115,0.021,0.236,0.046,0.365,0.073c0.129,0.026,0.269,0.04,0.419,0.04c0.351,0,0.602-0.105,0.752-0.316 c0.15-0.212,0.226-0.573,0.226-1.086v-7.267h2.132v7.085c0,1.062-0.233,1.868-0.698,2.414S31.314,38.465,30.383,38.465z" stroke="none"></path> <polyline data-cap="butt" fill="none" stroke="#61616b" stroke-width="2" points="29,2 29,14 41,14 "></polyline> <polyline fill="none" stroke="#61616b" stroke-width="2" points="41,23 41,14 29,2 7,2 7,23 "></polyline> <polyline fill="none" stroke="#61616b" stroke-width="2" points="7,41 7,46 41,46 41,41 "></polyline> <rect x="2" y="23" fill="none" stroke="#61616b" stroke-width="2" width="44" height="18"></rect></g></svg>