<svg xmlns="http://www.w3.org/2000/svg" height="32" width="32" viewBox="0 0 32 32"><title>file otf</title><g stroke-linecap="round" fill="#61616b" stroke-linejoin="round" class="nc-icon-wrapper"><polyline data-cap="butt" fill="none" stroke="#61616b" stroke-width="2" points="20,1 20,9 28,9 "></polyline> <polyline fill="none" stroke="#61616b" stroke-width="2" points="28,13 28,9 20,1 4,1 4,13 "></polyline> <polyline fill="none" stroke="#61616b" stroke-width="2" points="4,27 4,31 28,31 28,27 "></polyline> <path data-color="color-2" data-stroke="none" fill="#61616b" d="M14.3,20.1c0,1-0.2,1.7-0.7,2.2s-1.2,0.8-2.1,0.8c-0.9,0-1.6-0.3-2.1-0.8 s-0.7-1.2-0.7-2.2c0-1,0.2-1.7,0.7-2.2s1.2-0.8,2.1-0.8c0.9,0,1.6,0.2,2.1,0.7S14.3,19.2,14.3,20.1z M10.3,20.1 c0,1.1,0.4,1.7,1.2,1.7c0.4,0,0.7-0.1,0.9-0.4s0.3-0.7,0.3-1.3c0-0.6-0.1-1-0.3-1.3s-0.5-0.4-0.9-0.4C10.7,18.5,10.3,19,10.3,20.1z" stroke-linejoin="miter" stroke="none"></path> <path data-color="color-2" data-stroke="none" fill="#61616b" d="M17.8,23h-1.5v-4.4h-1.4v-1.3h4.3v1.3h-1.4V23z" stroke-linejoin="miter" stroke="none"></path> <path data-color="color-2" data-stroke="none" fill="#61616b" d="M21.5,23H20v-5.7h3.4v1.2h-1.9v1.1h1.7v1.2h-1.7V23z" stroke-linejoin="miter" stroke="none"></path> <rect x="1" y="13" fill="none" stroke="#61616b" stroke-width="2" width="30" height="14"></rect></g></svg>