<svg xmlns="http://www.w3.org/2000/svg" height="48" width="48" viewBox="0 0 48 48"><title>file cad 3</title><g stroke-linecap="round" fill="#61616b" stroke-linejoin="round" class="nc-icon-wrapper"><path data-color="color-2" data-stroke="none" fill="#61616b" d="M16.746,29.775c-0.505,0-0.899,0.206-1.182,0.62 c-0.283,0.413-0.424,0.983-0.424,1.71c0,1.512,0.575,2.268,1.724,2.268c0.347,0,0.684-0.049,1.01-0.146s0.653-0.213,0.983-0.349 v1.793c-0.655,0.291-1.396,0.436-2.224,0.436c-1.185,0-2.094-0.344-2.726-1.031c-0.632-0.688-0.948-1.682-0.948-2.98 c0-0.813,0.153-1.527,0.459-2.144c0.307-0.616,0.747-1.09,1.321-1.421c0.575-0.331,1.251-0.496,2.028-0.496 c0.849,0,1.66,0.184,2.433,0.553l-0.65,1.67c-0.29-0.136-0.58-0.25-0.87-0.344C17.391,29.821,17.079,29.775,16.746,29.775z" stroke="none"></path> <path data-color="color-2" data-stroke="none" fill="#61616b" d="M25.206,36l-0.387-1.472h-2.551L21.87,36h-2.331l2.562-7.885h2.831L27.526,36 H25.206z M24.378,32.788l-0.338-1.289c-0.079-0.286-0.175-0.657-0.287-1.112c-0.113-0.454-0.188-0.78-0.223-0.977 c-0.032,0.182-0.096,0.482-0.191,0.902c-0.095,0.418-0.305,1.244-0.631,2.476H24.378z" stroke="none"></path> <path data-color="color-2" data-stroke="none" fill="#61616b" d="M35.04,31.907c0,1.311-0.361,2.32-1.083,3.029C33.236,35.646,32.222,36,30.915,36 h-2.541v-7.853h2.718c1.26,0,2.233,0.322,2.919,0.967C34.697,29.759,35.04,30.689,35.04,31.907z M32.838,31.982 c0-0.72-0.142-1.253-0.427-1.601c-0.284-0.348-0.717-0.521-1.297-0.521h-0.618v4.398h0.473c0.645,0,1.117-0.188,1.418-0.562 C32.687,33.324,32.838,32.752,32.838,31.982z" stroke="none"></path> <polyline data-cap="butt" fill="none" stroke="#61616b" stroke-width="2" points="29,2 29,14 41,14 "></polyline> <polyline fill="none" stroke="#61616b" stroke-width="2" points="41,23 41,14 29,2 7,2 7,23 "></polyline> <polyline fill="none" stroke="#61616b" stroke-width="2" points="7,41 7,46 41,46 41,41 "></polyline> <rect x="2" y="23" fill="none" stroke="#61616b" stroke-width="2" width="44" height="18"></rect></g></svg>