<svg xmlns="http://www.w3.org/2000/svg" height="48" width="48" viewBox="0 0 48 48"><title>file html 3</title><g stroke-linecap="round" fill="#61616b" stroke-linejoin="round" class="nc-icon-wrapper"><path data-color="color-2" data-stroke="none" fill="#61616b" d="M15.597,36h-2.132v-3.201H11V36H8.867v-7.853H11v2.911h2.465v-2.911h2.132V36z" stroke="none"></path> <path data-color="color-2" data-stroke="none" fill="#61616b" d="M20.759,36h-2.122v-6.117H16.72v-1.735h5.951v1.735h-1.912V36z" stroke="none"></path> <path data-color="color-2" data-stroke="none" fill="#61616b" d="M27.215,36l-1.606-5.656h-0.048c0.075,0.964,0.113,1.712,0.113,2.246V36h-1.88 v-7.853h2.825l1.638,5.575H28.3l1.606-5.575h2.831V36h-1.95v-3.443c0-0.179,0.003-0.377,0.008-0.596 c0.006-0.219,0.03-0.754,0.073-1.605h-0.048L29.234,36H27.215z" stroke="none"></path> <path data-color="color-2" data-stroke="none" fill="#61616b" d="M34.428,36v-7.853h2.122v6.14h3.024V36H34.428z" stroke="none"></path> <polyline data-cap="butt" fill="none" stroke="#61616b" stroke-width="2" points="29,2 29,14 41,14 "></polyline> <polyline fill="none" stroke="#61616b" stroke-width="2" points="41,23 41,14 29,2 7,2 7,23 "></polyline> <polyline fill="none" stroke="#61616b" stroke-width="2" points="7,41 7,46 41,46 41,41 "></polyline> <rect x="2" y="23" fill="none" stroke="#61616b" stroke-width="2" width="44" height="18"></rect></g></svg>