<svg xmlns="http://www.w3.org/2000/svg" height="48" width="48" viewBox="0 0 48 48"><title>file java 3</title><g stroke-linecap="round" fill="#61616b" stroke-linejoin="round" class="nc-icon-wrapper"><path data-color="color-2" data-stroke="none" fill="#61616b" d="M10.492,38.465c-0.387,0-0.754-0.037-1.101-0.112v-1.649 c0.115,0.021,0.236,0.046,0.365,0.073c0.129,0.026,0.269,0.04,0.419,0.04c0.351,0,0.602-0.105,0.752-0.316 c0.15-0.212,0.226-0.573,0.226-1.086v-7.267h2.132v7.085c0,1.062-0.233,1.868-0.698,2.414S11.423,38.465,10.492,38.465z" stroke="none"></path> <path data-color="color-2" data-stroke="none" fill="#61616b" d="M19.8,36l-0.387-1.472h-2.551L16.464,36h-2.331l2.562-7.885h2.831L22.12,36H19.8z M18.973,32.788l-0.338-1.289c-0.079-0.286-0.175-0.657-0.287-1.112c-0.113-0.454-0.188-0.78-0.223-0.977 c-0.032,0.182-0.096,0.482-0.191,0.902c-0.095,0.418-0.305,1.244-0.631,2.476H18.973z" stroke="none"></path> <path data-color="color-2" data-stroke="none" fill="#61616b" d="M27.378,28.147h2.374L27.18,36h-2.498l-2.562-7.853h2.385l1.069,3.979 c0.222,0.885,0.344,1.501,0.365,1.848c0.025-0.25,0.075-0.563,0.15-0.939s0.142-0.672,0.199-0.887L27.378,28.147z" stroke="none"></path> <path data-color="color-2" data-stroke="none" fill="#61616b" d="M35.419,36l-0.387-1.472h-2.551L32.083,36h-2.331l2.562-7.885h2.831L37.739,36 H35.419z M34.592,32.788l-0.338-1.289c-0.079-0.286-0.175-0.657-0.287-1.112c-0.113-0.454-0.188-0.78-0.223-0.977 c-0.032,0.182-0.096,0.482-0.191,0.902c-0.095,0.418-0.305,1.244-0.631,2.476H34.592z" stroke="none"></path> <polyline data-cap="butt" fill="none" stroke="#61616b" stroke-width="2" points="29,2 29,14 41,14 "></polyline> <polyline fill="none" stroke="#61616b" stroke-width="2" points="41,23 41,14 29,2 7,2 7,23 "></polyline> <polyline fill="none" stroke="#61616b" stroke-width="2" points="7,41 7,46 41,46 41,41 "></polyline> <rect x="2" y="23" fill="none" stroke="#61616b" stroke-width="2" width="44" height="18"></rect></g></svg>