<svg xmlns="http://www.w3.org/2000/svg" height="64" width="64" viewBox="0 0 64 64"><title>grain effect 2</title><g stroke-linecap="round" fill="#61616b" stroke-linejoin="round" class="nc-icon-wrapper"><rect x="5" y="50" width="9" height="9" fill="none" stroke="#61616b" stroke-width="2"></rect><rect x="5" y="32" width="9" height="9" fill="none" stroke="#61616b" stroke-width="2"></rect><rect x="5" y="14" width="9" height="9" fill="none" stroke="#61616b" stroke-width="2"></rect><rect x="5" y="5" width="9" height="9" fill="none" stroke="#61616b" stroke-width="2"></rect><rect x="14" y="41" width="9" height="9" fill="none" stroke="#61616b" stroke-width="2"></rect><rect x="14" y="50" width="9" height="9" fill="none" stroke="#61616b" stroke-width="2"></rect><rect x="14" y="32" width="9" height="9" fill="none" stroke="#61616b" stroke-width="2"></rect><rect x="14" y="14" width="9" height="9" fill="none" stroke="#61616b" stroke-width="2"></rect><rect x="14" y="23" width="9" height="9" fill="none" stroke="#61616b" stroke-width="2"></rect><rect x="23" y="41" width="9" height="9" fill="none" stroke="#61616b" stroke-width="2"></rect><rect x="23" y="32" width="9" height="9" fill="none" stroke="#61616b" stroke-width="2"></rect><rect x="23" y="5" width="9" height="9" fill="none" stroke="#61616b" stroke-width="2"></rect><rect x="32" y="32" width="9" height="9" fill="none" stroke="#61616b" stroke-width="2"></rect><rect x="32" y="23" width="9" height="9" fill="none" stroke="#61616b" stroke-width="2"></rect><rect x="32" y="5" width="9" height="9" fill="none" stroke="#61616b" stroke-width="2"></rect><rect x="41" y="41" width="9" height="9" fill="none" stroke="#61616b" stroke-width="2"></rect><rect x="41" y="32" width="9" height="9" fill="none" stroke="#61616b" stroke-width="2"></rect><rect x="50" y="50" width="9" height="9" fill="none" stroke="#61616b" stroke-width="2"></rect><rect x="50" y="23" width="9" height="9" fill="none" stroke="#61616b" stroke-width="2"></rect><rect x="50" y="5" width="9" height="9" fill="none" stroke="#61616b" stroke-width="2" data-color="color-2"></rect></g></svg>