<svg xmlns="http://www.w3.org/2000/svg" height="64" width="64" viewBox="0 0 64 64"><title>graphics tablet 3</title><g stroke-linecap="round" fill="#61616b" stroke-linejoin="round" class="nc-icon-wrapper"><circle data-color="color-2" cx="10" cy="33" r="3" fill="none" stroke="#61616b" stroke-width="2"></circle><polyline data-color="color-2" points="54 25 54 47 18 47 18 19 32 19" fill="none" stroke="#61616b" stroke-width="2"></polyline><line data-color="color-2" x1="10" y1="19" x2="10" y2="24" fill="none" stroke="#61616b" stroke-width="2"></line><line data-color="color-2" x1="10" y1="42" x2="10" y2="47" fill="none" stroke="#61616b" stroke-width="2"></line><path d="M62,17V51a5,5,0,0,1-5,5H7a5,5,0,0,1-5-5V15a5,5,0,0,1,5-5H41" fill="none" stroke="#61616b" stroke-width="2"></path><path data-color="color-2" d="M33,32l2-8L54.757,4.243a4.242,4.242,0,0,1,6,0h0a4.242,4.242,0,0,1,0,6L41,30Z" fill="none" stroke="#61616b" stroke-width="2"></path></g></svg>