<svg xmlns="http://www.w3.org/2000/svg" height="24" width="24" viewBox="0 0 24 24"><title>hot key 5</title><g stroke-linecap="round" fill="#61616b" stroke-linejoin="round" class="nc-icon-wrapper"><rect x="6" y="6" width="16" height="16" rx="2" ry="2" fill="none" stroke="#61616b" stroke-width="2"></rect> <path d="M3,17H3a2,2,0,0,1-2-2V3A2,2,0,0,1,3,1H15a2,2,0,0,1,2,2h0" fill="none" stroke="#61616b" stroke-width="2" data-color="color-2"></path> <path d="M17.5,15.25h-.75v-2.5h.75a2.25,2.25,0,1,0-2.25-2.25v.75h-2.5V10.5a2.25,2.25,0,1,0-2.25,2.25h.75v2.5H10.5a2.25,2.25,0,1,0,2.25,2.25v-.75h2.5v.75a2.25,2.25,0,1,0,2.25-2.25Zm-.75-4.75a.75.75,0,1,1,.75.75h-.75Zm-6.25.75a.75.75,0,1,1,.75-.75v.75Zm.75,6.25a.75.75,0,1,1-.75-.75h.75Zm1.5-2.25v-2.5h2.5v2.5Zm4.75,3a.75.75,0,0,1-.75-.75v-.75h.75a.75.75,0,0,1,0,1.5Z" fill="#61616b" data-stroke="none" stroke="none"></path></g></svg>