<svg xmlns="http://www.w3.org/2000/svg" height="64" width="64" viewBox="0 0 64 64"><title>hot key 2</title><g stroke-linecap="round" fill="#61616b" stroke-linejoin="round" class="nc-icon-wrapper"><rect x="33" y="33" width="12" height="12" fill="none" stroke="#61616b" stroke-width="2"></rect> <path d="M33,33H29a4,4,0,0,1-4-4h0a4,4,0,0,1,4-4h0a4,4,0,0,1,4,4Z" fill="none" stroke="#61616b" stroke-width="2"></path> <path d="M45,33h4a4,4,0,0,0,4-4h0a4,4,0,0,0-4-4h0a4,4,0,0,0-4,4Z" fill="none" stroke="#61616b" stroke-width="2"></path> <path d="M33,45H29a4,4,0,0,0-4,4h0a4,4,0,0,0,4,4h0a4,4,0,0,0,4-4Z" fill="none" stroke="#61616b" stroke-width="2"></path> <path d="M45,45h4a4,4,0,0,1,4,4h0a4,4,0,0,1-4,4h0a4,4,0,0,1-4-4Z" fill="none" stroke="#61616b" stroke-width="2"></path> <rect x="17" y="17" width="44" height="44" rx="4" ry="4" fill="none" stroke="#61616b" stroke-width="2"></rect> <path d="M11,47H7a4,4,0,0,1-4-4V7A4,4,0,0,1,7,3H43a4,4,0,0,1,4,4v4" fill="none" stroke="#61616b" stroke-width="2" data-color="color-2"></path></g></svg>