<svg xmlns="http://www.w3.org/2000/svg" height="48" width="48" viewBox="0 0 48 48"><title>hot key 3</title><g stroke-linecap="round" fill="#61616b" stroke-linejoin="round" class="nc-icon-wrapper"><rect x="13" y="13" width="32" height="32" rx="4" ry="4" fill="none" stroke="#61616b" stroke-width="2"></rect> <path d="M8,35H7a4,4,0,0,1-4-4V7A4,4,0,0,1,7,3H31a4,4,0,0,1,4,4h0V8" fill="none" stroke="#61616b" stroke-width="2" data-color="color-2"></path> <rect x="25" y="25" width="8" height="8" fill="none" stroke="#61616b" stroke-width="2"></rect> <path d="M22,19h0a3,3,0,0,1,3,3v3a0,0,0,0,1,0,0H22a3,3,0,0,1-3-3v0a3,3,0,0,1,3-3Z" fill="none" stroke="#61616b" stroke-width="2"></path> <path d="M36,19h3a0,0,0,0,1,0,0v3a3,3,0,0,1-3,3h0a3,3,0,0,1-3-3v0a3,3,0,0,1,3-3Z" transform="translate(72 44) rotate(180)" fill="none" stroke="#61616b" stroke-width="2"></path> <path d="M22,33h3a0,0,0,0,1,0,0v3a3,3,0,0,1-3,3h0a3,3,0,0,1-3-3v0a3,3,0,0,1,3-3Z" fill="none" stroke="#61616b" stroke-width="2"></path> <path d="M36,33h0a3,3,0,0,1,3,3v3a0,0,0,0,1,0,0H36a3,3,0,0,1-3-3v0A3,3,0,0,1,36,33Z" transform="translate(72 72) rotate(-180)" fill="none" stroke="#61616b" stroke-width="2"></path></g></svg>