<svg xmlns="http://www.w3.org/2000/svg" height="32" width="32" viewBox="0 0 32 32"><title>hot key 4</title><g stroke-linecap="round" fill="#61616b" stroke-linejoin="round" class="nc-icon-wrapper"><rect x="16" y="16" width="6" height="6" fill="none" stroke="#61616b" stroke-width="2"></rect> <path d="M16,16H14a2,2,0,0,1-2-2h0a2,2,0,0,1,2-2h0a2,2,0,0,1,2,2Z" fill="none" stroke="#61616b" stroke-width="2"></path> <path d="M22,16h2a2,2,0,0,0,2-2h0a2,2,0,0,0-2-2h0a2,2,0,0,0-2,2Z" fill="none" stroke="#61616b" stroke-width="2"></path> <path d="M16,22H14a2,2,0,0,0-2,2h0a2,2,0,0,0,2,2h0a2,2,0,0,0,2-2Z" fill="none" stroke="#61616b" stroke-width="2"></path> <path d="M22,22h2a2,2,0,0,1,2,2h0a2,2,0,0,1-2,2h0a2,2,0,0,1-2-2Z" fill="none" stroke="#61616b" stroke-width="2"></path> <rect x="8" y="8" width="22" height="22" rx="2" ry="2" fill="none" stroke="#61616b" stroke-width="2"></rect> <path d="M4,23H3a2,2,0,0,1-2-2V3A2,2,0,0,1,3,1H21a2,2,0,0,1,2,2V4" fill="none" stroke="#61616b" stroke-width="2" data-color="color-2"></path></g></svg>