<svg xmlns="http://www.w3.org/2000/svg" height="64" width="64" viewBox="0 0 64 64"><title>invert process 3</title><g stroke-linecap="round" fill="#61616b" stroke-linejoin="round" class="nc-icon-wrapper"><path data-color="color-2" d="M3.851,39A29.046,29.046,0,0,1,3,32" fill="none" stroke="#61616b" stroke-width="2"></path><path data-color="color-2" d="M18.531,57.689A29.128,29.128,0,0,1,8,48.284" fill="none" stroke="#61616b" stroke-width="2"></path><path data-color="color-2" d="M42.161,59.17A28.939,28.939,0,0,1,32,61a29.326,29.326,0,0,1-3.59-.22" fill="none" stroke="#61616b" stroke-width="2"></path><path data-color="color-2" d="M59.156,42.2A29.049,29.049,0,0,1,51.1,53.819" fill="none" stroke="#61616b" stroke-width="2"></path><path data-cap="butt" d="M5.02,21.345A29,29,0,0,1,61,32" fill="none" stroke="#61616b" stroke-width="2"></path><polyline points="6.022 4.959 5 21.351 20.689 15.897" fill="none" stroke="#61616b" stroke-width="2"></polyline></g></svg>