<svg xmlns="http://www.w3.org/2000/svg" height="32" width="32" viewBox="0 0 32 32"><title>ladybug 5</title><g stroke-linecap="round" fill="#61616b" stroke-linejoin="round" class="nc-icon-wrapper"><line data-cap="butt" fill="none" stroke="#61616b" stroke-width="2" x1="1" y1="17" x2="5" y2="17"></line> <line data-cap="butt" fill="none" stroke="#61616b" stroke-width="2" x1="5" y1="5" x2="8.324" y2="8.324"></line> <line data-cap="butt" fill="none" stroke="#61616b" stroke-width="2" x1="27" y1="5" x2="23.676" y2="8.324"></line> <line data-cap="butt" fill="none" stroke="#61616b" stroke-width="2" x1="4" y1="30" x2="7.634" y2="26.366"></line> <line data-cap="butt" fill="none" stroke="#61616b" stroke-width="2" x1="28" y1="30" x2="24.365" y2="26.365"></line> <line data-cap="butt" fill="none" stroke="#61616b" stroke-width="2" x1="27" y1="17" x2="31" y2="17"></line> <line data-cap="butt" fill="none" stroke="#61616b" stroke-width="2" x1="12.409" y1="3.409" x2="10" y2="1"></line> <line data-cap="butt" fill="none" stroke="#61616b" stroke-width="2" x1="19.591" y1="3.409" x2="22" y2="1"></line> <path data-cap="butt" fill="none" stroke="#61616b" stroke-width="2" d="M20.978,5.999 C24.552,8.181,27,12.64,27,17.786C27,25.084,22.075,31,16,31S5,25.084,5,17.786c0-5.131,2.434-9.578,5.99-11.768"></path> <circle data-color="color-2" fill="none" stroke="#61616b" stroke-width="2" cx="12" cy="13" r="2"></circle> <circle data-color="color-2" fill="none" stroke="#61616b" stroke-width="2" cx="20" cy="13" r="2"></circle> <circle data-color="color-2" fill="none" stroke="#61616b" stroke-width="2" cx="11.5" cy="21.5" r="2.5"></circle> <circle data-color="color-2" fill="none" stroke="#61616b" stroke-width="2" cx="20.5" cy="21.5" r="2.5"></circle> <path fill="none" stroke="#61616b" stroke-width="2" d="M16,2 c-2.599,0-4.706,1.828-5.038,4.183C10.948,6.194,13.523,8.016,16,8.016s5.052-1.822,5.038-1.832C20.706,3.828,18.599,2,16,2z"></path></g></svg>