<svg xmlns="http://www.w3.org/2000/svg" height="48" width="48" viewBox="0 0 48 48"><title>ladybug 4</title><g stroke-linecap="round" fill="#61616b" stroke-linejoin="round" class="nc-icon-wrapper"><line data-cap="butt" data-color="color-2" fill="none" stroke="#61616b" stroke-width="2" x1="2" y1="26" x2="8" y2="26"></line> <line data-cap="butt" data-color="color-2" fill="none" stroke="#61616b" stroke-width="2" x1="8" y1="10" x2="12.2" y2="14.2"></line> <line data-cap="butt" data-color="color-2" fill="none" stroke="#61616b" stroke-width="2" x1="40" y1="10" x2="35.8" y2="14.2"></line> <line data-cap="butt" data-color="color-2" fill="none" stroke="#61616b" stroke-width="2" x1="8" y1="44" x2="12.2" y2="39.8"></line> <line data-cap="butt" data-color="color-2" fill="none" stroke="#61616b" stroke-width="2" x1="40" y1="44" x2="35.8" y2="39.8"></line> <line data-cap="butt" data-color="color-2" fill="none" stroke="#61616b" stroke-width="2" x1="40" y1="26" x2="46" y2="26"></line> <line data-cap="butt" data-color="color-2" fill="none" stroke="#61616b" stroke-width="2" x1="18" y1="6" x2="14" y2="2"></line> <line data-cap="butt" data-color="color-2" fill="none" stroke="#61616b" stroke-width="2" x1="30" y1="6" x2="34" y2="2"></line> <line data-cap="butt" fill="none" stroke="#61616b" stroke-width="2" x1="24" y1="14" x2="24" y2="46"></line> <path data-cap="butt" fill="none" stroke="#61616b" stroke-width="2" d="M31.8,10.4C36.7,13.6,40,19.9,40,27 c0,10.5-7.2,19-16,19S8,37.5,8,27c0-7.1,3.3-13.3,8.2-16.6"></path> <path fill="none" stroke="#61616b" stroke-width="2" d="M24,4c-4.1,0-7.4,3-7.9,7 c0,0,4,3,7.9,3s7.9-3,7.9-3C31.4,7,28.1,4,24,4z"></path></g></svg>