<svg xmlns="http://www.w3.org/2000/svg" height="48" width="48" viewBox="0 0 48 48"><title>magic wand 5</title><g stroke-linecap="round" fill="#61616b" stroke-linejoin="round" class="nc-icon-wrapper"><rect x=".115" y="25.964" width="36.77" height="7.071" transform="translate(-15.441 21.722) rotate(-45)" fill="none" stroke="#61616b" stroke-width="2"></rect><line x1="23" y1="20" x2="28" y2="25" fill="none" stroke="#61616b" stroke-width="2" data-cap="butt"></line><path d="M46,8c-3.314,0-6,2.686-6,6,0-3.314-2.686-6-6-6,3.314,0,6-2.686,6-6,0,3.314,2.686,6,6,6Z" fill="none" stroke="#61616b" stroke-width="2" data-cap="butt" data-color="color-2"></path><path d="M46,32c-3.314,0-6,2.686-6,6,0-3.314-2.686-6-6-6,3.314,0,6-2.686,6-6,0,3.314,2.686,6,6,6Z" fill="none" stroke="#61616b" stroke-width="2" data-cap="butt" data-color="color-2"></path><path d="M21,8c-3.314,0-6,2.686-6,6,0-3.314-2.686-6-6-6,3.314,0,6-2.686,6-6,0,3.314,2.686,6,6,6Z" fill="none" stroke="#61616b" stroke-width="2" data-cap="butt" data-color="color-2"></path></g></svg>