<svg xmlns="http://www.w3.org/2000/svg" height="64" width="64" viewBox="0 0 64 64"><title>magic wand 4</title><g stroke-linecap="round" fill="#61616b" stroke-linejoin="round" class="nc-icon-wrapper"><rect x="-.042" y="35.757" width="48.083" height="8.485" transform="translate(-21.255 28.686) rotate(-45)" fill="none" stroke="#61616b" stroke-width="2"></rect><line x1="30" y1="28" x2="36" y2="34" fill="none" stroke="#61616b" stroke-width="2" data-cap="butt"></line><path d="M38,9c-3.866,0-7,3.134-7,7,0-3.866-3.134-7-7-7,3.866,0,7-3.134,7-7,0,3.866,3.134,7,7,7Z" fill="none" stroke="#61616b" stroke-width="2" data-cap="butt" data-color="color-2"></path><path d="M60,9c-2.761,0-5,2.239-5,5,0-2.761-2.239-5-5-5,2.761,0,5-2.239,5-5,0,2.761,2.239,5,5,5Z" fill="none" stroke="#61616b" stroke-width="2" data-cap="butt" data-color="color-2"></path><path d="M62,33c-3.866,0-7,3.134-7,7,0-3.866-3.134-7-7-7,3.866,0,7-3.134,7-7,0,3.866,3.134,7,7,7Z" fill="none" stroke="#61616b" stroke-width="2" data-cap="butt" data-color="color-2"></path><path d="M15,28c0-2.209,1.791-4,4-4-2.209,0-4-1.791-4-4,0,2.209-1.791,4-4,4,2.209,0,4,1.791,4,4Z" fill="#61616b" stroke="#61616b" stroke-width="2" data-cap="butt" data-color="color-2"></path><path d="M40,53c0-2.209,1.791-4,4-4-2.209,0-4-1.791-4-4,0,2.209-1.791,4-4,4,2.209,0,4,1.791,4,4Z" fill="#61616b" stroke="#61616b" stroke-width="2" data-cap="butt" data-color="color-2"></path></g></svg>