<svg xmlns="http://www.w3.org/2000/svg" height="16" width="16" viewBox="0 0 16 16"><title>magic wand 3</title><g fill="#61616b" class="nc-icon-wrapper"><polygon points=".5 13.5 2.5 15.5 11.487 6.487 9.513 4.487 .5 13.5" fill="none" stroke="#61616b" stroke-linecap="round" stroke-linejoin="round"></polygon><line x1="7.513" y1="6.487" x2="9.513" y2="8.487" fill="none" stroke="#61616b" stroke-linecap="round" stroke-linejoin="round"></line><path d="M3.5,2.5c1.105,0,2-.895,2-2,0,1.105,.895,2,2,2-1.105,0-2,.895-2,2,0-1.105-.895-2-2-2" fill="#61616b" stroke="#61616b" stroke-linecap="round" stroke-linejoin="round" data-color="color-2"></path><path d="M11.5,2.5c1.105,0,2-.895,2-2,0,1.105,.895,2,2,2-1.105,0-2,.895-2,2,0-1.105-.895-2-2-2" fill="#61616b" stroke="#61616b" stroke-linecap="round" stroke-linejoin="round" data-color="color-2"></path><path d="M11.5,10.493c1.105,0,2-.895,2-2,0,1.105,.895,2,2,2-1.105,0-2,.895-2,2,0-1.105-.895-2-2-2" fill="#61616b" stroke="#61616b" stroke-linecap="round" stroke-linejoin="round" data-color="color-2"></path></g></svg>