<svg xmlns="http://www.w3.org/2000/svg" height="32" width="32" viewBox="0 0 32 32"><title>magic wand</title><g stroke-linecap="round" fill="#61616b" stroke-linejoin="round" class="nc-icon-wrapper"><polygon points="2 26 6 30 24 12 20 8 2 26" fill="none" stroke="#61616b" stroke-width="2"></polygon><line x1="16" y1="12" x2="20" y2="16" fill="none" stroke="#61616b" stroke-width="2" data-cap="butt"></line><path d="M31,5c-2.209,0-4,1.791-4,4,0-2.209-1.791-4-4-4,2.209,0,4-1.791,4-4,0,2.209,1.791,4,4,4Z" fill="none" stroke="#61616b" stroke-width="2" data-cap="butt" data-color="color-2"></path><path d="M15,5c-2.209,0-4,1.791-4,4,0-2.209-1.791-4-4-4,2.209,0,4-1.791,4-4,0,2.209,1.791,4,4,4Z" fill="none" stroke="#61616b" stroke-width="2" data-cap="butt" data-color="color-2"></path><path d="M31,21c-2.209,0-4,1.791-4,4,0-2.209-1.791-4-4-4,2.209,0,4-1.791,4-4,0,2.209,1.791,4,4,4Z" fill="none" stroke="#61616b" stroke-width="2" data-cap="butt" data-color="color-2"></path></g></svg>