<svg xmlns="http://www.w3.org/2000/svg" height="24" width="24" viewBox="0 0 24 24"><title>magic wand 2</title><g stroke-linecap="round" fill="#61616b" stroke-linejoin="round" class="nc-icon-wrapper"><polygon points="2 19 5 22 17 10 14 7 2 19" fill="none" stroke="#61616b" stroke-width="2"></polygon><line x1="11" y1="10" x2="14" y2="13" fill="none" stroke="#61616b" stroke-width="2" data-cap="butt"></line><path d="M23,2.5c-.827,0-1.5-.673-1.5-1.5,0-.552-.448-1-1-1s-1,.448-1,1c0,.827-.673,1.5-1.5,1.5-.552,0-1,.448-1,1s.448,1,1,1c.827,0,1.5,.673,1.5,1.5,0,.552,.448,1,1,1s1-.448,1-1c0-.827,.673-1.5,1.5-1.5,.552,0,1-.448,1-1s-.448-1-1-1Z" fill="#61616b" data-color="color-2" data-stroke="none" stroke="none"></path><path d="M10,2.5c-.827,0-1.5-.673-1.5-1.5,0-.552-.448-1-1-1s-1,.448-1,1c0,.827-.673,1.5-1.5,1.5-.552,0-1,.448-1,1s.448,1,1,1c.827,0,1.5,.673,1.5,1.5,0,.552,.448,1,1,1s1-.448,1-1c0-.827,.673-1.5,1.5-1.5,.552,0,1-.448,1-1s-.448-1-1-1Z" fill="#61616b" data-color="color-2" data-stroke="none" stroke="none"></path><path d="M18,17.5c.827,0,1.5,.673,1.5,1.5,0,.552,.448,1,1,1s1-.448,1-1c0-.827,.673-1.5,1.5-1.5,.552,0,1-.448,1-1s-.448-1-1-1c-.827,0-1.5-.673-1.5-1.5,0-.552-.448-1-1-1s-1,.448-1,1c0,.827-.673,1.5-1.5,1.5-.552,0-1,.448-1,1s.448,1,1,1Z" fill="#61616b" data-color="color-2" data-stroke="none" stroke="none"></path></g></svg>