<svg xmlns="http://www.w3.org/2000/svg" height="32" width="32" viewBox="0 0 32 32"><title>mirror display 5</title><g stroke-linecap="round" fill="#61616b" stroke-linejoin="round" class="nc-icon-wrapper"><path fill="none" stroke="#61616b" stroke-width="2" d="M19,27H4 c-0.552,0-1-0.448-1-1V2c0-0.552,0.448-1,1-1h20c0.552,0,1,0.448,1,1v11"></path> <polyline fill="none" stroke="#61616b" stroke-width="2" points="19,21 7,21 7,5 21,5 21,13 "></polyline> <path data-color="color-2" fill="none" stroke="#61616b" stroke-width="2" d="M28.167,31 h-8.333C19.373,31,19,30.552,19,30V14c0-0.552,0.373-1,0.833-1h8.333C28.627,13,29,13.448,29,14v16C29,30.552,28.627,31,28.167,31z"></path> <line data-color="color-2" fill="none" stroke="#61616b" stroke-width="2" x1="19" y1="27" x2="29" y2="27"></line></g></svg>