<svg xmlns="http://www.w3.org/2000/svg" height="64" width="64" viewBox="0 0 64 64"><title>mirror display 3</title><g stroke-linecap="round" fill="#61616b" stroke-linejoin="round" class="nc-icon-wrapper"><path fill="none" stroke="#61616b" stroke-width="2" d="M36,58H12 c-3.314,0-6-2.686-6-6V8c0-3.314,2.686-6,6-6h30c3.314,0,6,2.686,6,6v18"></path> <polyline data-cap="butt" fill="none" stroke="#61616b" stroke-width="2" points="36,46 14,46 14,10 40,10 40,26 "></polyline> <line data-color="color-2" fill="none" stroke="#61616b" stroke-width="2" x1="36" y1="50" x2="58" y2="50"></line> <line data-color="color-2" fill="none" stroke="#61616b" stroke-width="2" x1="36" y1="34" x2="58" y2="34"></line> <line fill="none" stroke="#61616b" stroke-width="2" x1="26" y1="52" x2="30" y2="52"></line> <path data-color="color-2" fill="none" stroke="#61616b" stroke-width="2" d="M54,62H40 c-2.209,0-4-1.791-4-4V30c0-2.209,1.791-4,4-4h14c2.209,0,4,1.791,4,4v28C58,60.209,56.209,62,54,62z"></path> <line data-color="color-2" fill="none" stroke="#61616b" stroke-width="2" x1="46" y1="56" x2="48" y2="56"></line></g></svg>