<svg xmlns="http://www.w3.org/2000/svg" height="48" width="48" viewBox="0 0 48 48"><title>mirror display 4</title><g stroke-linecap="round" fill="#61616b" stroke-linejoin="round" class="nc-icon-wrapper"><path fill="none" stroke="#61616b" stroke-width="2" d="M28,44H6 c-1.105,0-2-0.895-2-2V4c0-1.105,0.895-2,2-2h28c1.105,0,2,0.895,2,2v14"></path> <line fill="none" stroke="#61616b" stroke-width="2" x1="18" y1="38" x2="22" y2="38"></line> <polyline data-cap="butt" fill="none" stroke="#61616b" stroke-width="2" points="28,32 10,32 10,8 30,8 30,18 "></polyline> <path data-color="color-2" fill="none" stroke="#61616b" stroke-width="2" d="M42,46H30 c-1.105,0-2-0.895-2-2V20c0-1.105,0.895-2,2-2h12c1.105,0,2,0.895,2,2v24C44,45.105,43.105,46,42,46z"></path> <line data-color="color-2" fill="none" stroke="#61616b" stroke-width="2" x1="28" y1="38" x2="44" y2="38"></line> <line data-color="color-2" fill="none" stroke="#61616b" stroke-width="2" x1="28" y1="24" x2="44" y2="24"></line></g></svg>