<svg xmlns="http://www.w3.org/2000/svg" height="32" width="32" viewBox="0 0 32 32"><title>mobile design 4</title><g stroke-linecap="round" fill="#61616b" stroke-linejoin="round" class="nc-icon-wrapper"><path data-cap="butt" fill="none" stroke="#61616b" stroke-width="2" d="M25,8v21c0,1.105-0.895,2-2,2H5 c-1.105,0-2-0.895-2-2V3c0-1.105,0.895-2,2-2h18c0.812,0,1.51,0.481,1.824,1.176"></path> <polyline data-cap="butt" data-color="color-2" fill="none" stroke="#61616b" stroke-width="2" points="21,12 21,23 7,23 7,5 21,5 21,6 "></polyline> <circle fill="none" stroke="#61616b" stroke-width="2" cx="14" cy="27" r="1"></circle> <path data-color="color-2" fill="none" stroke="#61616b" stroke-width="2" d="M20,13 l-3-3l8.379-8.379c0.828-0.828,2.172-0.828,3,0l0,0c0.828,0.828,0.828,2.172,0,3L20,13z"></path> <path data-color="color-2" fill="none" stroke="#61616b" stroke-width="2" d=" M11.906,13.874c1.165-1.165,3.055-1.165,4.22,0s1.165,3.055,0,4.22S11,19,11,19S10.89,14.89,11.906,13.874z"></path></g></svg>