<svg xmlns="http://www.w3.org/2000/svg" height="24" width="24" viewBox="0 0 24 24"><title>mobile design</title><g stroke-linecap="round" fill="#61616b" stroke-linejoin="round" class="nc-icon-wrapper"><path data-cap="butt" fill="none" stroke="#61616b" stroke-width="2" d="M18,8v13c0,1.105-0.895,2-2,2H6 c-1.105,0-2-0.895-2-2V3c0-1.105,0.895-2,2-2h10c1.105,0,2,0.895,2,2v1"></path> <circle fill="none" stroke="#61616b" stroke-width="2" cx="11" cy="19" r="1"></circle> <line data-cap="butt" fill="none" stroke="#61616b" stroke-width="2" x1="4" y1="5" x2="17" y2="5"></line> <line data-cap="butt" fill="none" stroke="#61616b" stroke-width="2" x1="15" y1="15" x2="18" y2="15"></line> <line data-cap="butt" fill="none" stroke="#61616b" stroke-width="2" x1="4" y1="15" x2="9" y2="15"></line> <path data-color="color-2" fill="none" stroke="#61616b" stroke-width="2" d="M15,11l-2-2 l7-7c0.552-0.552,1.448-0.552,2,0l0,0c0.552,0.552,0.552,1.448,0,2L15,11z"></path> <path data-color="color-2" fill="none" stroke="#61616b" stroke-width="2" d=" M9.688,11.568c0.758-0.758,1.986-0.758,2.744,0s0.758,1.986,0,2.744s-3.43,0.686-3.43,0.686S8.93,12.326,9.688,11.568z"></path></g></svg>