<svg xmlns="http://www.w3.org/2000/svg" height="64" width="64" viewBox="0 0 64 64"><title>mobile design 2</title><g stroke-linecap="round" fill="#61616b" stroke-linejoin="round" class="nc-icon-wrapper"><polyline data-cap="butt" data-color="color-2" fill="none" stroke="#61616b" stroke-width="2" points="44,36 44.001,46 16.001,46 16.001,10 44.001,10 44.001,16.013 "></polyline> <path data-cap="butt" fill="none" stroke="#61616b" stroke-width="2" d="M50,29l0.001,29c0,2.209-1.791,4-4,4 h-32c-2.209,0-4-1.791-4-4V6c0-2.209,1.791-4,4-4h32c2.209,0,4,1.791,4,4v4"></path> <circle fill="none" stroke="#61616b" stroke-width="2" cx="30.001" cy="54" r="2"></circle> <path data-cap="butt" data-color="color-2" fill="none" stroke="#61616b" stroke-width="2" d="M35.848,24.152L56,4.036 c1.381-1.381,3.619-1.381,5,0l0,0c1.381,1.381,1.381,3.619,0,5L40.849,29.151"></path> <path data-color="color-2" fill="none" stroke="#61616b" stroke-width="2" d=" M39.08,25.92C37.842,24.682,36.197,24,34.446,24s-3.397,0.682-4.634,1.92C27.351,28.38,27,38,27,38s9.62-0.351,12.08-2.811 c1.238-1.238,1.92-2.884,1.92-4.634S40.318,27.158,39.08,25.92z"></path></g></svg>