<svg xmlns="http://www.w3.org/2000/svg" height="48" width="48" viewBox="0 0 48 48"><title>mobile design 3</title><g stroke-linecap="round" fill="#61616b" stroke-linejoin="round" class="nc-icon-wrapper"><path data-cap="butt" fill="none" stroke="#61616b" stroke-width="2" d="M36,16v26c0,2.2-1.8,4-4,4H12 c-2.2,0-4-1.8-4-4V6c0-2.2,1.8-4,4-4h20c2.2,0,4,1.8,4,4v2"></path> <circle fill="none" stroke="#61616b" stroke-width="2" cx="22" cy="38" r="2"></circle> <line data-cap="butt" fill="none" stroke="#61616b" stroke-width="2" x1="8" y1="10" x2="34" y2="10"></line> <line data-cap="butt" fill="none" stroke="#61616b" stroke-width="2" x1="30" y1="30" x2="36" y2="30"></line> <line data-cap="butt" fill="none" stroke="#61616b" stroke-width="2" x1="8" y1="30" x2="18" y2="30"></line> <path data-color="color-2" fill="none" stroke="#61616b" stroke-width="2" d="M30,22l-4-4 L40,4c1.1-1.1,2.9-1.1,4,0l0,0c1.1,1.1,1.1,2.9,0,4L30,22z"></path> <path data-color="color-2" fill="none" stroke="#61616b" stroke-width="2" d="M19.4,22.9 c1.6-1.6,4.1-1.6,5.7,0s1.6,4.1,0,5.7C23.5,30.1,18,30,18,30S17.9,24.5,19.4,22.9z"></path></g></svg>