<svg xmlns="http://www.w3.org/2000/svg" height="48" width="48" viewBox="0 0 48 48"><title>paint 38 4</title><g stroke-linecap="round" fill="#61616b" stroke-linejoin="round" class="nc-icon-wrapper"><line data-color="color-2" fill="none" stroke="#61616b" stroke-width="2" x1="8" y1="26" x2="40" y2="26"></line> <path fill="none" stroke="#61616b" stroke-width="2" d="M40,23c0-2.761-2.239-5-5-5 h-7l0-11.828c0-1.935-1.294-3.722-3.193-4.093C22.244,1.578,20,3.527,20,6v12h-7c-2.761,0-5,2.239-5,5v23c4.418,0,8-3.582,8-8 c0,4.418,3.582,8,8,8s8-3.582,8-8c0,4.418,3.582,8,8,8V23z"></path></g></svg>