<svg xmlns="http://www.w3.org/2000/svg" height="32" width="32" viewBox="0 0 32 32"><title>paint brush 5</title><g stroke-linecap="round" fill="#61616b" stroke-linejoin="round" class="nc-icon-wrapper"><path data-cap="butt" data-color="color-2" fill="none" stroke="#61616b" stroke-width="2" d="M19.556,26.586l9.899-9.899 l-2.828-2.828l-5.506,1.263l1.263-5.506l-7.071-7.071l-9.899,9.899"></path> <path fill="none" stroke="#61616b" stroke-width="2" d="M5.414,12.444L4,13.858 c-1.202,1.202-1.202,3.041,0,4.243l2.828,2.828l-4.95,4.95c-1.202,1.202-1.202,3.041,0,4.243l0,0c1.202,1.202,3.041,1.202,4.243,0 l4.95-4.95L13.899,28c1.202,1.202,3.041,1.202,4.243,0l1.414-1.414L5.414,12.444z"></path> <line fill="none" stroke="#61616b" stroke-width="2" x1="5.414" y1="26.586" x2="4.707" y2="27.293"></line></g></svg>