<svg xmlns="http://www.w3.org/2000/svg" height="24" width="24" viewBox="0 0 24 24"><title>paint bucket 40</title><g stroke-linecap="round" fill="#61616b" stroke-linejoin="round" class="nc-icon-wrapper"><path data-cap="butt" fill="none" stroke="#61616b" stroke-width="2" d="M3.41,12.017l10.607,7.778 c0.781,0.781,3.155-0.327,5.303-2.475s3.256-4.522,2.475-5.303L14.017,1.41"></path> <ellipse transform="matrix(0.7071 -0.7071 0.7071 0.7071 -2.195 8.1276)" fill="none" stroke="#61616b" stroke-width="2" cx="8.713" cy="6.713" rx="7.5" ry="3"></ellipse> <path data-color="color-2" fill="none" stroke="#61616b" stroke-width="2" d="M1,20 c0-1.105,2-4,2-4s2,2.895,2,4s-0.895,2-2,2S1,21.105,1,20z"></path> <path fill="none" stroke="#61616b" stroke-width="2" d="M14,11h4 c2.209,0,4-1.791,4-4c0-2.209-1.791-4-4-4h-2.817"></path></g></svg>