<svg xmlns="http://www.w3.org/2000/svg" height="64" width="64" viewBox="0 0 64 64"><title>paint 38 3</title><g stroke-linecap="round" fill="#61616b" stroke-linejoin="round" class="nc-icon-wrapper"><line data-color="color-2" fill="none" stroke="#61616b" stroke-width="2" x1="54" y1="34" x2="10" y2="34"></line> <line data-color="color-2" fill="none" stroke="#61616b" stroke-width="2" x1="32" y1="12" x2="32" y2="10"></line> <path fill="none" stroke="#61616b" stroke-width="2" d="M54,28c0-3.314-2.686-6-6-6 H38V8c0-3.314-2.686-6-6-6h0c-3.314,0-6,2.686-6,6v14H16c-3.314,0-6,2.686-6,6v34c7,0,12-5.582,12-10c0,4.418,4.917,10,10,10 c4.917,0,10-5.582,10-10c0,4.418,6.875,10,12,10V28z"></path></g></svg>