<svg xmlns="http://www.w3.org/2000/svg" height="64" width="64" viewBox="0 0 64 64"><title>paint brush 3</title><g stroke-linecap="round" fill="#61616b" stroke-linejoin="round" class="nc-icon-wrapper"><line fill="none" stroke="#61616b" stroke-width="2" x1="11.917" y1="52.083" x2="10.503" y2="53.497"></line> <polyline data-cap="butt" data-color="color-2" fill="none" stroke="#61616b" stroke-width="2" points="11.917,23.799 31.716,4 45.858,18.142 43,29 54.343,26.627 60,32.284 40.201,52.083 "></polyline> <path fill="none" stroke="#61616b" stroke-width="2" d="M11.917,23.799 l-2.828,2.828c-2.343,2.343-2.343,6.142,0,8.485l5.657,5.657l-9.899,9.899c-2.343,2.343-2.343,6.142,0,8.485 c2.343,2.343,6.142,2.343,8.485,0l9.899-9.899l5.657,5.657c2.343,2.343,6.142,2.343,8.485,0l2.828-2.828L11.917,23.799z"></path></g></svg>