<svg xmlns="http://www.w3.org/2000/svg" height="64" width="64" viewBox="0 0 64 64"><title>paint bucket 39 3</title><g stroke-linecap="round" fill="#61616b" stroke-linejoin="round" class="nc-icon-wrapper"><path data-cap="butt" fill="none" stroke="#61616b" stroke-width="2" d="M7,10v44c0,4.418,10.641,8,25,8 s25-3.582,25-8V10"></path> <path data-cap="butt" fill="none" stroke="#61616b" stroke-width="2" d="M7,10c0,17.673,10.641,32,25,32 s25-14.327,25-32"></path> <path data-color="color-2" fill="none" stroke="#61616b" stroke-width="2" d="M57,10 c0-4.418-10.641-8-25-8S7,5.582,7,10c0,4.418,10.641,8,25,8c1.364,0,2.693-0.042,4-0.104V30c0,1.657,1.343,3,3,3s3-1.343,3-3V17.385 C51.394,16.179,57,13.328,57,10z"></path></g></svg>