<svg xmlns="http://www.w3.org/2000/svg" height="32" width="32" viewBox="0 0 32 32"><title>paint 38 5</title><g stroke-linecap="round" fill="#61616b" stroke-linejoin="round" class="nc-icon-wrapper"><line data-color="color-2" fill="none" stroke="#61616b" stroke-width="2" x1="5" y1="17" x2="27" y2="17"></line> <line data-color="color-2" fill="none" stroke="#61616b" stroke-width="2" x1="16" y1="6" x2="16" y2="5"></line> <path fill="none" stroke="#61616b" stroke-width="2" d="M24,11h-5V4 c0-1.657-1.343-3-3-3s-3,1.343-3,3v7H8c-1.657,0-3,1.343-3,3v17c3.5,0,6-2.791,6-5c0,2.209,2.458,5,5,5c2.458,0,5-2.791,5-5 c0,2.209,3.437,5,6,5V14C27,12.343,25.657,11,24,11z"></path></g></svg>