<svg xmlns="http://www.w3.org/2000/svg" height="64" width="64" viewBox="0 0 64 64"><title>paint 37 3</title><g stroke-linecap="round" fill="#61616b" stroke-linejoin="round" class="nc-icon-wrapper"><path data-color="color-2" fill="none" stroke="#61616b" stroke-width="2" d="M10,10h28 v11c0,1.657,1.343,3,3,3h0c1.657,0,3-1.343,3-3l0-11h10"></path> <line fill="none" stroke="#61616b" stroke-width="2" x1="54" y1="32" x2="10" y2="32"></line> <line data-color="color-2" fill="none" stroke="#61616b" stroke-width="2" x1="32" y1="52" x2="32" y2="54"></line> <path fill="none" stroke="#61616b" stroke-width="2" d="M54,36c0,3.314-2.686,6-6,6 H38v14c0,3.314-2.686,6-6,6h0c-3.314,0-6-2.686-6-6V42H16c-3.314,0-6-2.686-6-6V2h44V36z"></path></g></svg>