<svg xmlns="http://www.w3.org/2000/svg" height="48" width="48" viewBox="0 0 48 48"><title>paint bucket 39 4</title><g stroke-linecap="round" fill="#61616b" stroke-linejoin="round" class="nc-icon-wrapper"><path data-cap="butt" fill="none" stroke="#61616b" stroke-width="2" d="M6,8v32c0,3.314,8.059,6,18,6 s18-2.686,18-6V8"></path> <path data-color="color-2" fill="none" stroke="#61616b" stroke-width="2" d="M24,2 C14.059,2,6,4.686,6,8s8.059,6,18,6c0.688,0,1.333-0.051,2-0.077V25c0,1.657,1.343,3,3,3h0c1.657,0,3-1.343,3-3V13.369 C37.922,12.386,42,10.354,42,8C42,4.686,33.941,2,24,2z"></path></g></svg>