<svg xmlns="http://www.w3.org/2000/svg" height="64" width="64" viewBox="0 0 64 64"><title>paint bucket 40 3</title><g stroke-linecap="round" fill="#61616b" stroke-linejoin="round" class="nc-icon-wrapper"><path data-cap="butt" fill="none" stroke="#61616b" stroke-width="2" d="M6.578,33.86l30.674,22.494 c2.259,2.259,9.125-0.946,15.337-7.157s9.416-13.078,7.157-15.337L37.252,3.186"></path> <path data-cap="butt" fill="none" stroke="#61616b" stroke-width="2" d="M36,30h9c7.18,0,13-5.82,13-13v0 c0-7.18-5.82-13-13-13h-7.15"></path> <ellipse transform="matrix(0.7071 -0.7071 0.7071 0.7071 -6.6787 20.9218)" fill="none" stroke="#61616b" stroke-width="2" cx="21.915" cy="18.523" rx="21.69" ry="8.676"></ellipse> <path data-color="color-2" fill="none" stroke="#61616b" stroke-width="2" d="M3,56 c0-2.761,5-10,5-10s5,7.239,5,10s-2.239,5-5,5S3,58.761,3,56z"></path></g></svg>