<svg xmlns="http://www.w3.org/2000/svg" height="24" width="24" viewBox="0 0 24 24"><title>paint 38</title><g stroke-linecap="round" fill="#61616b" stroke-linejoin="round" class="nc-icon-wrapper"><line data-cap="butt" data-color="color-2" fill="none" stroke="#61616b" stroke-width="2" x1="4" y1="13" x2="20" y2="13"></line> <path fill="none" stroke="#61616b" stroke-width="2" d="M16,19c0,2.209,1.791,4,4,4 V12c0-1.657-1.343-3-3-3h-3V3.107c0-0.996-0.681-1.92-1.664-2.08C11.083,0.824,10,1.785,10,3v6H7c-1.657,0-3,1.343-3,3v11 c2.209,0,4-1.791,4-4"></path> <path fill="none" stroke="#61616b" stroke-width="2" d="M8,19c0,2.209,1.791,4,4,4 s4-1.791,4-4"></path></g></svg>