<svg xmlns="http://www.w3.org/2000/svg" height="48" width="48" viewBox="0 0 48 48"><title>paper design 3</title><g stroke-linecap="round" fill="#61616b" stroke-linejoin="round" class="nc-icon-wrapper"><path data-cap="butt" fill="none" stroke="#61616b" stroke-width="2" d="M40,8V7c0-2.761-2.239-5-5-5H7 c2.761,0,5,2.239,5,5v34c0,2.761,2.239,5,5,5h23"></path> <line data-cap="butt" fill="none" stroke="#61616b" stroke-width="2" x1="40" y1="40" x2="40" y2="16"></line> <path data-color="color-2" fill="none" stroke="#61616b" stroke-width="2" d="M32,24l-4-4 L40,8c1.105-1.105,2.895-1.105,4,0l0,0c1.105,1.105,1.105,2.895,0,4L32,24z"></path> <path fill="none" stroke="#61616b" stroke-width="2" d="M22,40v1c0,4.5-5,5-5,5 s23.657,0,24,0c2.761,0,5-2.239,5-5v-1H22z"></path> <path fill="none" stroke="#61616b" stroke-width="2" d="M12,8H2V7 c0-2.761,2.239-5,5-5h0c2.761,0,5,2.239,5,5V8z"></path> <path data-color="color-2" fill="none" stroke="#61616b" stroke-width="2" d=" M21.418,24.925c1.562-1.562,4.095-1.562,5.657,0s1.562,4.095,0,5.657c-1.562,1.562-7.071,1.414-7.071,1.414 S19.856,26.487,21.418,24.925z"></path></g></svg>