<svg xmlns="http://www.w3.org/2000/svg" height="64" width="64" viewBox="0 0 64 64"><title>paper design 2</title><g stroke-linecap="round" fill="#61616b" stroke-linejoin="round" class="nc-icon-wrapper"><path data-cap="butt" fill="none" stroke="#61616b" stroke-width="2" d="M52,8.028C52,4.715,49.314,2,46,2H8 c3.314,0,6,2.686,6,6v48c0,3.314,2.686,6,6,6"></path> <line data-cap="butt" fill="none" stroke="#61616b" stroke-width="2" x1="52" y1="52" x2="52" y2="28"></line> <path fill="none" stroke="#61616b" stroke-width="2" d="M26,56c0,3.314-2.686,6-6,6 h36c3.314,0,6-2.686,6-6v-4H26V56z"></path> <path fill="none" stroke="#61616b" stroke-width="2" d="M2,8c0-3.314,2.686-6,6-6 s6,2.686,6,6v4H2V8z"></path> <path data-cap="butt" data-color="color-2" fill="none" stroke="#61616b" stroke-width="2" d="M35.848,24.152L56,4.036 c1.381-1.381,3.619-1.381,5,0l0,0c1.381,1.381,1.381,3.619,0,5L40.849,29.151"></path> <path data-color="color-2" fill="none" stroke="#61616b" stroke-width="2" d="M39.08,25.92 C37.842,24.682,36.197,24,34.446,24s-3.397,0.682-4.634,1.92C27.351,28.38,27,38,27,38s9.62-0.351,12.08-2.811 c1.238-1.238,1.92-2.884,1.92-4.634S40.318,27.158,39.08,25.92z"></path></g></svg>