<svg xmlns="http://www.w3.org/2000/svg" height="24" width="24" viewBox="0 0 24 24"><title>paper design</title><g stroke-linecap="round" fill="#61616b" stroke-linejoin="round" class="nc-icon-wrapper"><path data-cap="butt" fill="none" stroke="#61616b" stroke-width="2" d="M3.5,1"></path> <path data-cap="butt" fill="none" stroke="#61616b" stroke-width="2" d="M20,4V3.5C20,2.1,18.9,1,17.5,1h-14 C4.9,1,6,2.1,6,3.5v17C6,21.9,7.1,23,8.5,23H20"></path> <line data-cap="butt" fill="none" stroke="#61616b" stroke-width="2" x1="20" y1="20" x2="20" y2="8"></line> <path data-color="color-2" fill="none" stroke="#61616b" stroke-width="2" d="M16,12l-2-2 l6-6c0.6-0.6,1.4-0.6,2,0l0,0c0.6,0.6,0.6,1.4,0,2L16,12z"></path> <path fill="none" stroke="#61616b" stroke-width="2" d="M11,20v0.5 c0,2.2-2.5,2.5-2.5,2.5s11.8,0,12,0c1.4,0,2.5-1.1,2.5-2.5V20H11z"></path> <path fill="none" stroke="#61616b" stroke-width="2" d="M6,4H1V3.5 C1,2.1,2.1,1,3.5,1h0C4.9,1,6,2.1,6,3.5V4z"></path> <path data-color="color-2" fill="none" stroke="#61616b" stroke-width="2" d="M10.7,12.5 c0.8-0.8,2-0.8,2.8,0s0.8,2,0,2.8C12.8,16.1,10,16,10,16S9.9,13.2,10.7,12.5z"></path></g></svg>