<svg xmlns="http://www.w3.org/2000/svg" height="32" width="32" viewBox="0 0 32 32"><title>paper design 4</title><g stroke-linecap="round" fill="#61616b" stroke-linejoin="round" class="nc-icon-wrapper"><path fill="none" stroke="#61616b" stroke-width="2" d="M1,4c0-1.657,1.343-3,3-3 s3,1.343,3,3v2H1V4z"></path> <path data-cap="butt" fill="none" stroke="#61616b" stroke-width="2" d="M25.871,3.129 C25.497,1.897,24.353,1,23,1H4c1.657,0,3,1.343,3,3v24c0,1.657,1.343,3,3,3h16"></path> <line data-cap="butt" fill="none" stroke="#61616b" stroke-width="2" x1="26" y1="26" x2="26" y2="15"></line> <path fill="none" stroke="#61616b" stroke-width="2" d="M13,28c0,1.657-1.343,3-3,3 h18c1.657,0,3-1.343,3-3v-2H13V28z"></path> <path data-color="color-2" fill="none" stroke="#61616b" stroke-width="2" d="M22,13l-3-3 l8.379-8.379c0.828-0.828,2.172-0.828,3,0l0,0c0.828,0.828,0.828,2.172,0,3L22,13z"></path> <path data-color="color-2" fill="none" stroke="#61616b" stroke-width="2" d=" M13.906,13.874c1.165-1.165,3.055-1.165,4.22,0s1.165,3.055,0,4.22S13,19,13,19S12.89,14.89,13.906,13.874z"></path></g></svg>