<svg xmlns="http://www.w3.org/2000/svg" height="64" width="64" viewBox="0 0 64 64"><title>path intersect 3</title><g stroke-linecap="round" fill="#61616b" stroke-linejoin="round" class="nc-icon-wrapper"><polyline fill="none" stroke="#61616b" stroke-width="2" points="2,55 2,62 9,62 "></polyline> <polyline fill="none" stroke="#61616b" stroke-width="2" points="9,22 2,22 2,29 "></polyline> <line fill="none" stroke="#61616b" stroke-width="2" x1="2" y1="46" x2="2" y2="38"></line> <line fill="none" stroke="#61616b" stroke-width="2" x1="18" y1="22" x2="22" y2="22"></line> <line fill="none" stroke="#61616b" stroke-width="2" x1="18" y1="62" x2="26" y2="62"></line> <polyline fill="none" stroke="#61616b" stroke-width="2" points="42,55 42,62 35,62 "></polyline> <line fill="none" stroke="#61616b" stroke-width="2" x1="42" y1="46" x2="42" y2="42"></line> <polyline fill="none" stroke="#61616b" stroke-width="2" points="55,2 62,2 62,9 "></polyline> <polyline fill="none" stroke="#61616b" stroke-width="2" points="22,9 22,2 29,2 "></polyline> <line fill="none" stroke="#61616b" stroke-width="2" x1="46" y1="2" x2="38" y2="2"></line> <line fill="none" stroke="#61616b" stroke-width="2" x1="22" y1="18" x2="22" y2="22"></line> <line fill="none" stroke="#61616b" stroke-width="2" x1="62" y1="18" x2="62" y2="26"></line> <polyline fill="none" stroke="#61616b" stroke-width="2" points="55,42 62,42 62,35 "></polyline> <line fill="none" stroke="#61616b" stroke-width="2" x1="46" y1="42" x2="42" y2="42"></line> <rect data-color="color-2" x="22" y="22" fill="none" stroke="#61616b" stroke-width="2" width="20" height="20"></rect></g></svg>