<svg xmlns="http://www.w3.org/2000/svg" height="32" width="32" viewBox="0 0 32 32"><title>path intersect 5</title><g stroke-linecap="round" fill="#61616b" stroke-linejoin="round" class="nc-icon-wrapper"><polyline data-color="color-2" fill="none" stroke="#61616b" stroke-width="2" points=" 13,1 11,1 11,3 "></polyline> <polyline data-color="color-2" fill="none" stroke="#61616b" stroke-width="2" points=" 31,3 31,1 29,1 "></polyline> <polyline data-color="color-2" fill="none" stroke="#61616b" stroke-width="2" points=" 29,21 31,21 31,19 "></polyline> <line data-color="color-2" fill="none" stroke="#61616b" stroke-width="2" x1="17" y1="1" x2="19" y2="1"></line> <line data-color="color-2" fill="none" stroke="#61616b" stroke-width="2" x1="23" y1="1" x2="25" y2="1"></line> <line data-color="color-2" fill="none" stroke="#61616b" stroke-width="2" x1="23" y1="21" x2="25" y2="21"></line> <line data-color="color-2" fill="none" stroke="#61616b" stroke-width="2" x1="11" y1="7" x2="11" y2="9"></line> <line data-color="color-2" fill="none" stroke="#61616b" stroke-width="2" x1="31" y1="7" x2="31" y2="9"></line> <line data-color="color-2" fill="none" stroke="#61616b" stroke-width="2" x1="31" y1="13" x2="31" y2="15"></line> <polyline data-color="color-2" fill="none" stroke="#61616b" stroke-width="2" points=" 1,13 1,11 3,11 "></polyline> <polyline data-color="color-2" fill="none" stroke="#61616b" stroke-width="2" points=" 3,31 1,31 1,29 "></polyline> <polyline data-color="color-2" fill="none" stroke="#61616b" stroke-width="2" points=" 21,29 21,31 19,31 "></polyline> <line data-color="color-2" fill="none" stroke="#61616b" stroke-width="2" x1="1" y1="17" x2="1" y2="19"></line> <line data-color="color-2" fill="none" stroke="#61616b" stroke-width="2" x1="1" y1="23" x2="1" y2="25"></line> <line data-color="color-2" fill="none" stroke="#61616b" stroke-width="2" x1="21" y1="23" x2="21" y2="25"></line> <line data-color="color-2" fill="none" stroke="#61616b" stroke-width="2" x1="7" y1="11" x2="9" y2="11"></line> <line data-color="color-2" fill="none" stroke="#61616b" stroke-width="2" x1="7" y1="31" x2="9" y2="31"></line> <line data-color="color-2" fill="none" stroke="#61616b" stroke-width="2" x1="13" y1="31" x2="15" y2="31"></line> <rect x="11" y="11" fill="none" stroke="#61616b" stroke-width="2" width="10" height="10"></rect></g></svg>