<svg xmlns="http://www.w3.org/2000/svg" height="32" width="32" viewBox="0 0 32 32"><title>path minus 5</title><g stroke-linecap="round" fill="#61616b" stroke-linejoin="round" class="nc-icon-wrapper"><polyline fill="none" stroke="#61616b" stroke-width="2" points="25,21 31,21 31,1 11,1 11,7 "></polyline> <polyline data-color="color-2" fill="none" stroke="#61616b" stroke-width="2" points=" 19,31 21,31 21,29 "></polyline> <polyline data-color="color-2" fill="none" stroke="#61616b" stroke-width="2" points=" 1,29 1,31 3,31 "></polyline> <polyline data-color="color-2" fill="none" stroke="#61616b" stroke-width="2" points=" 3,11 1,11 1,13 "></polyline> <polyline data-color="color-2" fill="none" stroke="#61616b" stroke-width="2" points=" 19,11 21,11 21,13 "></polyline> <line data-color="color-2" fill="none" stroke="#61616b" stroke-width="2" x1="15" y1="31" x2="13" y2="31"></line> <line data-color="color-2" fill="none" stroke="#61616b" stroke-width="2" x1="9" y1="31" x2="7" y2="31"></line> <line data-color="color-2" fill="none" stroke="#61616b" stroke-width="2" x1="15" y1="11" x2="13" y2="11"></line> <line data-color="color-2" fill="none" stroke="#61616b" stroke-width="2" x1="9" y1="11" x2="7" y2="11"></line> <line data-color="color-2" fill="none" stroke="#61616b" stroke-width="2" x1="21" y1="25" x2="21" y2="23"></line> <line data-color="color-2" fill="none" stroke="#61616b" stroke-width="2" x1="1" y1="25" x2="1" y2="23"></line> <line data-color="color-2" fill="none" stroke="#61616b" stroke-width="2" x1="1" y1="19" x2="1" y2="17"></line> <line data-color="color-2" fill="none" stroke="#61616b" stroke-width="2" x1="21" y1="19" x2="21" y2="17"></line></g></svg>