<svg xmlns="http://www.w3.org/2000/svg" height="64" width="64" viewBox="0 0 64 64"><title>responsive 2</title><g stroke-linecap="round" fill="#61616b" stroke-linejoin="round" class="nc-icon-wrapper"><polyline data-color="color-2" fill="none" stroke="#61616b" stroke-width="2" points=" 8,48 2,48 2,8 34,8 "></polyline> <polyline data-color="color-2" fill="none" stroke="#61616b" stroke-width="2" points="56,8 62,8 62,48 22,48 "></polyline> <line data-color="color-2" fill="none" stroke="#61616b" stroke-width="2" x1="22" y1="60" x2="42" y2="60"></line> <path fill="none" stroke="#61616b" stroke-width="2" d="M55,32H35c-0.6,0-1-0.4-1-1 V3c0-0.6,0.4-1,1-1h20c0.6,0,1,0.4,1,1v28C56,31.6,55.6,32,55,32z"></path> <line fill="none" stroke="#61616b" stroke-width="2" x1="44" y1="26" x2="46" y2="26"></line> <path fill="none" stroke="#61616b" stroke-width="2" d="M21,54H9c-0.6,0-1-0.4-1-1 V31c0-0.6,0.4-1,1-1h12c0.6,0,1,0.4,1,1v22C22,53.6,21.6,54,21,54z"></path> <line fill="none" stroke="#61616b" stroke-width="2" x1="14" y1="48" x2="16" y2="48"></line> <rect data-color="color-2" x="28" y="56" fill="none" stroke="#61616b" stroke-width="2" width="8" height="4"></rect></g></svg>