<svg xmlns="http://www.w3.org/2000/svg" height="32" width="32" viewBox="0 0 32 32"><title>responsive</title><g stroke-linecap="round" fill="#61616b" stroke-linejoin="round" class="nc-icon-wrapper"><polyline fill="none" stroke="#61616b" stroke-width="2" points="4,24 1,24 1,4 17,4 "></polyline> <polyline fill="none" stroke="#61616b" stroke-width="2" points="28,4 31,4 31,24 11,24 "></polyline> <line fill="none" stroke="#61616b" stroke-width="2" x1="11" y1="30" x2="21" y2="30"></line> <path data-color="color-2" fill="none" stroke="#61616b" stroke-width="2" d="M27,16h-9 c-0.552,0-1-0.448-1-1V2c0-0.552,0.448-1,1-1h9c0.552,0,1,0.448,1,1v13C28,15.552,27.552,16,27,16z"></path> <line data-color="color-2" fill="none" stroke="#61616b" stroke-width="2" x1="22" y1="13" x2="23" y2="13"></line> <path data-color="color-2" fill="none" stroke="#61616b" stroke-width="2" d="M10,27H5 c-0.552,0-1-0.448-1-1V16c0-0.552,0.448-1,1-1h5c0.552,0,1,0.448,1,1v10C11,26.552,10.552,27,10,27z"></path> <line data-color="color-2" fill="none" stroke="#61616b" stroke-width="2" x1="7" y1="24" x2="8" y2="24"></line> <polyline fill="none" stroke="#61616b" stroke-width="2" points="18,30 18,28 14,28 14,30 "></polyline></g></svg>