<svg xmlns="http://www.w3.org/2000/svg" height="24" width="24" viewBox="0 0 24 24"><title>sparks 5</title><g stroke-linecap="round" fill="#61616b" stroke-linejoin="round" class="nc-icon-wrapper"><path d="M12,17c2.761,0,5-2.239,5-5,0,2.761,2.239,5,5,5" fill="none" stroke="#61616b" stroke-width="2" data-cap="butt"></path><path d="M12,17c2.761,0,5,2.239,5,5,0-2.761,2.239-5,5-5" fill="none" stroke="#61616b" stroke-width="2" data-cap="butt"></path><path d="M2,7c2.761,0,5-2.239,5-5,0,2.761,2.239,5,5,5" fill="none" stroke="#61616b" stroke-width="2" data-cap="butt"></path><path d="M2,7c2.761,0,5,2.239,5,5,0-2.761,2.239-5,5-5" fill="none" stroke="#61616b" stroke-width="2" data-cap="butt"></path><path d="M19,8c-.414,0-.75-.336-.75-.75,0-.828-.672-1.5-1.5-1.5-.414,0-.75-.336-.75-.75s.336-.75,.75-.75c.828,0,1.5-.672,1.5-1.5,0-.414,.336-.75,.75-.75s.75,.336,.75,.75c0,.828,.672,1.5,1.5,1.5,.414,0,.75,.336,.75,.75s-.336,.75-.75,.75c-.828,0-1.5,.672-1.5,1.5,0,.414-.336,.75-.75,.75Z" fill="#61616b" data-color="color-2" data-stroke="none" stroke="none"></path><path d="M5,22c-.414,0-.75-.336-.75-.75,0-.828-.672-1.5-1.5-1.5-.414,0-.75-.336-.75-.75s.336-.75,.75-.75c.828,0,1.5-.672,1.5-1.5,0-.414,.336-.75,.75-.75s.75,.336,.75,.75c0,.828,.672,1.5,1.5,1.5,.414,0,.75,.336,.75,.75s-.336,.75-.75,.75c-.828,0-1.5,.672-1.5,1.5,0,.414-.336,.75-.75,.75Z" fill="#61616b" data-color="color-2" data-stroke="none" stroke="none"></path></g></svg>