<svg xmlns="http://www.w3.org/2000/svg" height="64" width="64" viewBox="0 0 64 64"><title>sparks 2</title><g stroke-linecap="round" fill="#61616b" stroke-linejoin="round" class="nc-icon-wrapper"><path d="M32,46A14,14,0,0,0,46,32,14,14,0,0,0,60,46" fill="none" stroke="#61616b" stroke-width="2" data-cap="butt"></path><path d="M51.369,49A13.957,13.957,0,0,0,46,60,14,14,0,0,0,32,46" fill="none" stroke="#61616b" stroke-width="2" data-cap="butt"></path><path d="M4,18A14,14,0,0,0,18,4,14,14,0,0,0,32,18" fill="none" stroke="#61616b" stroke-width="2" data-cap="butt"></path><path d="M42,13a9,9,0,0,0,9-9,9,9,0,0,0,9,9" fill="none" stroke="#61616b" stroke-width="2" data-cap="butt" data-color="color-2"></path><path d="M42,13a9,9,0,0,1,9,9,9,9,0,0,1,9-9" fill="none" stroke="#61616b" stroke-width="2" data-cap="butt" data-color="color-2"></path><path d="M4,51a9,9,0,0,0,9-9,9,9,0,0,0,9,9" fill="none" stroke="#61616b" stroke-width="2" data-cap="butt" data-color="color-2"></path><path d="M4,51a9,9,0,0,1,9,9,9,9,0,0,1,9-9" fill="none" stroke="#61616b" stroke-width="2" data-cap="butt" data-color="color-2"></path><path d="M23.369,21A13.957,13.957,0,0,0,18,32,14,14,0,0,0,4,18" fill="none" stroke="#61616b" stroke-width="2" data-cap="butt"></path></g></svg>