<svg xmlns="http://www.w3.org/2000/svg" height="32" width="32" viewBox="0 0 32 32"><title>sparks 4</title><g stroke-linecap="round" fill="#61616b" stroke-linejoin="round" class="nc-icon-wrapper"><path d="M22,6a4,4,0,0,0,4-4,4,4,0,0,0,4,4" fill="none" stroke="#61616b" stroke-width="2" data-cap="butt" data-color="color-2"></path><path d="M22,6a4,4,0,0,1,4,4,4,4,0,0,1,4-4" fill="none" stroke="#61616b" stroke-width="2" data-cap="butt" data-color="color-2"></path><path d="M2,26a4,4,0,0,0,4-4,4,4,0,0,0,4,4" fill="none" stroke="#61616b" stroke-width="2" data-cap="butt" data-color="color-2"></path><path d="M2,26a4,4,0,0,1,4,4,4,4,0,0,1,4-4" fill="none" stroke="#61616b" stroke-width="2" data-cap="butt" data-color="color-2"></path><path d="M16,23a7,7,0,0,0,7-7,7,7,0,0,0,7,7" fill="none" stroke="#61616b" stroke-width="2" data-cap="butt"></path><path d="M16,23a7,7,0,0,1,7,7,7,7,0,0,1,7-7" fill="none" stroke="#61616b" stroke-width="2" data-cap="butt"></path><path d="M2,9A7,7,0,0,0,9,2a7,7,0,0,0,7,7" fill="none" stroke="#61616b" stroke-width="2" data-cap="butt"></path><path d="M2,9a7,7,0,0,1,7,7,7,7,0,0,1,7-7" fill="none" stroke="#61616b" stroke-width="2" data-cap="butt"></path></g></svg>