<svg xmlns="http://www.w3.org/2000/svg" height="48" width="48" viewBox="0 0 48 48"><title>sparks 3</title><g stroke-linecap="round" fill="#61616b" stroke-linejoin="round" class="nc-icon-wrapper"><path d="M4,14A10,10,0,0,0,14,4,10,10,0,0,0,24,14" fill="none" stroke="#61616b" stroke-width="2" data-cap="butt"></path><path d="M4,14A10,10,0,0,1,14,24,10,10,0,0,1,24,14" fill="none" stroke="#61616b" stroke-width="2" data-cap="butt"></path><path d="M24,34A10,10,0,0,0,34,24,10,10,0,0,0,44,34" fill="none" stroke="#61616b" stroke-width="2" data-cap="butt"></path><path d="M24,34A10,10,0,0,1,34,44,10,10,0,0,1,44,34" fill="none" stroke="#61616b" stroke-width="2" data-cap="butt"></path><path d="M4,38a6,6,0,0,0,6-6,6,6,0,0,0,6,6" fill="none" stroke="#61616b" stroke-width="2" data-cap="butt" data-color="color-2"></path><path d="M4,38a6,6,0,0,1,6,6,6,6,0,0,1,6-6" fill="none" stroke="#61616b" stroke-width="2" data-cap="butt" data-color="color-2"></path><path d="M32,10a6,6,0,0,0,6-6,6,6,0,0,0,6,6" fill="none" stroke="#61616b" stroke-width="2" data-cap="butt" data-color="color-2"></path><path d="M32,10a6,6,0,0,1,6,6,6,6,0,0,1,6-6" fill="none" stroke="#61616b" stroke-width="2" data-cap="butt" data-color="color-2"></path></g></svg>