<svg xmlns="http://www.w3.org/2000/svg" height="24" width="24" viewBox="0 0 24 24"><title>tablet mobile</title><g stroke-linecap="round" fill="#61616b" stroke-linejoin="round" class="nc-icon-wrapper"><path fill="none" stroke="#61616b" stroke-width="2" d="M14,17H2 c-0.552,0-1-0.448-1-1V2c0-0.552,0.448-1,1-1h18c0.552,0,1,0.448,1,1v7"></path> <polyline fill="none" stroke="#61616b" stroke-width="2" points="15,13 7,13 7,5 17,5 17,9 "></polyline> <circle data-stroke="none" fill="#61616b" cx="4" cy="9" r="1" stroke-linejoin="miter" stroke="none"></circle> <path data-color="color-2" fill="none" stroke="#61616b" stroke-width="2" d="M22,23h-6 c-0.552,0-1-0.448-1-1V10c0-0.552,0.448-1,1-1h6c0.552,0,1,0.448,1,1v12C23,22.552,22.552,23,22,23z"></path> <line data-color="color-2" fill="none" stroke="#61616b" stroke-width="2" x1="15" y1="19" x2="23" y2="19"></line></g></svg>