<svg xmlns="http://www.w3.org/2000/svg" height="48" width="48" viewBox="0 0 48 48"><title>tablet mobile 3</title><g stroke-linecap="round" fill="#61616b" stroke-linejoin="round" class="nc-icon-wrapper"><path data-color="color-2" fill="none" stroke="#61616b" stroke-width="2" d="M30,34H6 c-2.2,0-4-1.8-4-4V6c0-2.2,1.8-4,4-4h34c2.2,0,4,1.8,4,4v12"></path> <polyline data-color="color-2" fill="none" stroke="#61616b" stroke-width="2" points=" 30,28 14,28 14,8 38,8 38,18 "></polyline> <path fill="none" stroke="#61616b" stroke-width="2" d="M44,46H32c-1.1,0-2-0.9-2-2 V20c0-1.1,0.9-2,2-2h12c1.1,0,2,0.9,2,2v24C46,45.1,45.1,46,44,46z"></path> <line data-color="color-2" fill="none" stroke="#61616b" stroke-width="2" x1="8" y1="16" x2="8" y2="20"></line> <line fill="none" stroke="#61616b" stroke-width="2" x1="30" y1="24" x2="46" y2="24"></line> <line fill="none" stroke="#61616b" stroke-width="2" x1="30" y1="38" x2="46" y2="38"></line> <path fill="none" stroke="#61616b" stroke-width="2" d="M32,42"></path></g></svg>