<svg xmlns="http://www.w3.org/2000/svg" height="64" width="64" viewBox="0 0 64 64"><title>tablet mobile 2</title><g stroke-linecap="round" fill="#61616b" stroke-linejoin="round" class="nc-icon-wrapper"><path data-cap="butt" fill="none" stroke="#61616b" stroke-width="2" d="M40,46H8c-3.314,0-6-2.686-6-6V8 c0-3.314,2.686-6,6-6l42,0c3.314,0,6,2.686,6,6v18"></path> <path data-cap="butt" fill="none" stroke="#61616b" stroke-width="2" d="M40,39H16c-1.105,0-2-0.895-2-2V11 c0-1.105,0.895-2,2-2l31,0c1.105,0,2,0.895,2,2v15"></path> <path data-color="color-2" fill="none" stroke="#61616b" stroke-width="2" d="M58,62H44 c-2.209,0-4-1.791-4-4V30c0-2.209,1.791-4,4-4h14c2.209,0,4,1.791,4,4v28C62,60.209,60.209,62,58,62z"></path> <line fill="none" stroke="#61616b" stroke-width="2" x1="8" y1="22" x2="8" y2="26"></line> <line data-color="color-2" fill="none" stroke="#61616b" stroke-width="2" x1="40" y1="34" x2="62" y2="34"></line> <line data-color="color-2" fill="none" stroke="#61616b" stroke-width="2" x1="40" y1="50" x2="62" y2="50"></line> <line data-color="color-2" fill="none" stroke="#61616b" stroke-width="2" x1="50" y1="56" x2="52" y2="56"></line></g></svg>