<svg xmlns="http://www.w3.org/2000/svg" height="48" width="48" viewBox="0 0 48 48"><title>tool hand 4</title><g stroke-linecap="round" fill="#61616b" stroke-linejoin="round" class="nc-icon-wrapper"><path d="M25,22V5a3,3,0,0,1,3-3h0a3,3,0,0,1,3,3V22" fill="none" stroke="#61616b" stroke-width="2"></path> <path d="M31,7a3,3,0,0,1,3-3h0a3,3,0,0,1,3,3V22" fill="none" stroke="#61616b" stroke-width="2"></path> <path d="M25,8V7a3,3,0,0,0-3-3h0a3,3,0,0,0-3,3V25.977a3,3,0,0,1-4.422,2.641L7.7,24.916a2.6,2.6,0,0,0-3.068.45h0a2.6,2.6,0,0,0-.2,3.446l8.512,10.782A16.84,16.84,0,0,0,26.16,46h0A16.84,16.84,0,0,0,43,29.16V10a3,3,0,0,0-3-3h0a3,3,0,0,0-3,3" fill="none" stroke="#61616b" stroke-width="2" data-cap="butt"></path></g></svg>