<svg xmlns="http://www.w3.org/2000/svg" height="16" width="16" viewBox="0 0 16 16"><title>tool select</title><g fill="#61616b" class="nc-icon-wrapper"><path d="M.5,3.5v-2a1,1,0,0,1,1-1h2" fill="none" stroke="#61616b" stroke-linecap="round" stroke-linejoin="round" data-cap="butt"></path> <path d="M12.5.5h2a1,1,0,0,1,1,1v2" fill="none" stroke="#61616b" stroke-linecap="round" stroke-linejoin="round" data-cap="butt"></path> <line x1="6.5" y1="0.5" x2="9.5" y2="0.5" fill="none" stroke="#61616b" stroke-linecap="round" stroke-linejoin="round" data-cap="butt" data-color="color-2"></line> <path d="M.5,12.5v2a1,1,0,0,0,1,1h2" fill="none" stroke="#61616b" stroke-linecap="round" stroke-linejoin="round" data-cap="butt"></path> <path d="M12.5,15.5h2a1,1,0,0,0,1-1v-2" fill="none" stroke="#61616b" stroke-linecap="round" stroke-linejoin="round" data-cap="butt"></path> <line x1="6.5" y1="15.5" x2="9.5" y2="15.5" fill="none" stroke="#61616b" stroke-linecap="round" stroke-linejoin="round" data-cap="butt" data-color="color-2"></line> <line x1="0.5" y1="6.5" x2="0.5" y2="9.5" fill="none" stroke="#61616b" stroke-linecap="round" stroke-linejoin="round" data-cap="butt" data-color="color-2"></line> <line x1="15.5" y1="6.5" x2="15.5" y2="9.5" fill="none" stroke="#61616b" stroke-linecap="round" stroke-linejoin="round" data-cap="butt" data-color="color-2"></line></g></svg>