<svg xmlns="http://www.w3.org/2000/svg" height="64" width="64" viewBox="0 0 64 64"><title>tool hand 3</title><g stroke-linecap="round" fill="#61616b" stroke-linejoin="round" class="nc-icon-wrapper"><path d="M31,10V6.5A4.5,4.5,0,0,1,35.5,2h0A4.5,4.5,0,0,1,40,6.5V29" fill="none" stroke="#61616b" stroke-width="2"></path> <path d="M40,8.5A4.5,4.5,0,0,1,44.5,4h0A4.5,4.5,0,0,1,49,8.5V29" fill="none" stroke="#61616b" stroke-width="2"></path> <path d="M49,13s.125-4,4-4a3.708,3.708,0,0,1,4,4V42A20,20,0,0,1,37,62H30.571a20,20,0,0,1-14.483-6.207L4.839,43.981a4.218,4.218,0,0,1,.072-5.892h0a4.218,4.218,0,0,1,4.766-.84l8.054,3.759A3,3,0,0,0,22,38.289V8.5A4.5,4.5,0,0,1,26.5,4h0A4.5,4.5,0,0,1,31,8.5V29" fill="none" stroke="#61616b" stroke-width="2"></path></g></svg>