<svg xmlns="http://www.w3.org/2000/svg" height="64" width="64" viewBox="0 0 64 64"><title>tool select 3</title><g stroke-linecap="round" fill="#61616b" stroke-linejoin="round" class="nc-icon-wrapper"><path d="M2,12V8A2,2,0,0,1,4,6h6" fill="none" stroke="#61616b" stroke-width="2" data-color="color-2"></path> <path d="M54,6h6a2,2,0,0,1,2,2v4" fill="none" stroke="#61616b" stroke-width="2" data-color="color-2"></path> <line x1="18" y1="6" x2="28" y2="6" fill="none" stroke="#61616b" stroke-width="2"></line> <line x1="36" y1="6" x2="46" y2="6" fill="none" stroke="#61616b" stroke-width="2"></line> <line x1="18" y1="58" x2="28" y2="58" fill="none" stroke="#61616b" stroke-width="2"></line> <line x1="36" y1="58" x2="46" y2="58" fill="none" stroke="#61616b" stroke-width="2"></line> <path d="M2,52v4a2,2,0,0,0,2,2h6" fill="none" stroke="#61616b" stroke-width="2" data-color="color-2"></path> <path d="M54,58h6a2,2,0,0,0,2-2V52" fill="none" stroke="#61616b" stroke-width="2" data-color="color-2"></path> <line x1="2" y1="20" x2="2" y2="28" fill="none" stroke="#61616b" stroke-width="2"></line> <line x1="2" y1="36" x2="2" y2="44" fill="none" stroke="#61616b" stroke-width="2"></line> <line x1="62" y1="20" x2="62" y2="28" fill="none" stroke="#61616b" stroke-width="2"></line> <line x1="62" y1="36" x2="62" y2="44" fill="none" stroke="#61616b" stroke-width="2"></line></g></svg>