<svg xmlns="http://www.w3.org/2000/svg" height="48" width="48" viewBox="0 0 48 48"><title>tool select 2</title><g stroke-linecap="round" fill="#61616b" stroke-linejoin="round" class="nc-icon-wrapper"><path d="M2,10V6A2,2,0,0,1,4,4H9" fill="none" stroke="#61616b" stroke-width="2" data-color="color-2"></path> <path d="M39,4h5a2,2,0,0,1,2,2v4" fill="none" stroke="#61616b" stroke-width="2" data-color="color-2"></path> <line x1="15" y1="4" x2="21" y2="4" fill="none" stroke="#61616b" stroke-width="2"></line> <line x1="27" y1="4" x2="33" y2="4" fill="none" stroke="#61616b" stroke-width="2"></line> <path d="M2,38v4a2,2,0,0,0,2,2H9" fill="none" stroke="#61616b" stroke-width="2" data-color="color-2"></path> <path d="M39,44h5a2,2,0,0,0,2-2V38" fill="none" stroke="#61616b" stroke-width="2" data-color="color-2"></path> <line x1="15" y1="44" x2="21" y2="44" fill="none" stroke="#61616b" stroke-width="2"></line> <line x1="27" y1="44" x2="33" y2="44" fill="none" stroke="#61616b" stroke-width="2"></line> <line x1="2" y1="16" x2="2" y2="21" fill="none" stroke="#61616b" stroke-width="2"></line> <line x1="2" y1="27" x2="2" y2="32" fill="none" stroke="#61616b" stroke-width="2"></line> <line x1="46" y1="16" x2="46" y2="21" fill="none" stroke="#61616b" stroke-width="2"></line> <line x1="46" y1="27" x2="46" y2="32" fill="none" stroke="#61616b" stroke-width="2"></line></g></svg>