<svg xmlns="http://www.w3.org/2000/svg" height="32" width="32" viewBox="0 0 32 32"><title>tool hand 2</title><g stroke-linecap="round" fill="#61616b" stroke-linejoin="round" class="nc-icon-wrapper"><path d="M17,14V3.5A2.5,2.5,0,0,1,19.5,1h0A2.5,2.5,0,0,1,22,3.5V14" fill="none" stroke="#61616b" stroke-width="2"></path> <path d="M22,4.5A2.5,2.5,0,0,1,24.5,2h0A2.5,2.5,0,0,1,27,4.5V14" fill="none" stroke="#61616b" stroke-width="2"></path> <path d="M27,6a2,2,0,0,1,2-2h0a2,2,0,0,1,2,2V17.972A13.028,13.028,0,0,1,17.972,31h0a13.028,13.028,0,0,1-10.84-5.8L2.516,18.274a2.413,2.413,0,0,1,.929-3.5h0a2.413,2.413,0,0,1,2.785.452l4.063,4.063A1,1,0,0,0,12,18.586V4.5a2.5,2.5,0,0,1,2.758-2.487A2.6,2.6,0,0,1,17,4.643" fill="none" stroke="#61616b" stroke-width="2"></path></g></svg>