<svg xmlns="http://www.w3.org/2000/svg" height="24" width="24" viewBox="0 0 24 24"><title>transform origin</title><g stroke-linecap="round" fill="#61616b" stroke-linejoin="round" class="nc-icon-wrapper"><line fill="none" stroke="#61616b" stroke-width="2" x1="3" y1="5" x2="3" y2="10"></line> <line fill="none" stroke="#61616b" stroke-width="2" x1="3" y1="14" x2="3" y2="19"></line> <line fill="none" stroke="#61616b" stroke-width="2" x1="21" y1="14" x2="21" y2="19"></line> <line fill="none" stroke="#61616b" stroke-width="2" x1="21" y1="5" x2="21" y2="10"></line> <line fill="none" stroke="#61616b" stroke-width="2" x1="5" y1="3" x2="10" y2="3"></line> <line fill="none" stroke="#61616b" stroke-width="2" x1="14" y1="3" x2="19" y2="3"></line> <line fill="none" stroke="#61616b" stroke-width="2" x1="14" y1="21" x2="19" y2="21"></line> <line fill="none" stroke="#61616b" stroke-width="2" x1="5" y1="21" x2="10" y2="21"></line> <circle fill="none" stroke="#61616b" stroke-width="2" cx="3" cy="3" r="2"></circle> <circle fill="none" stroke="#61616b" stroke-width="2" cx="12" cy="3" r="2"></circle> <circle fill="none" stroke="#61616b" stroke-width="2" cx="21" cy="3" r="2"></circle> <circle fill="none" stroke="#61616b" stroke-width="2" cx="21" cy="12" r="2"></circle> <circle fill="none" stroke="#61616b" stroke-width="2" cx="21" cy="21" r="2"></circle> <circle fill="none" stroke="#61616b" stroke-width="2" cx="12" cy="21" r="2"></circle> <circle fill="none" stroke="#61616b" stroke-width="2" cx="3" cy="21" r="2"></circle> <circle fill="none" stroke="#61616b" stroke-width="2" cx="3" cy="12" r="2"></circle> <circle data-color="color-2" data-stroke="none" fill="#61616b" cx="12" cy="12" r="2" stroke-linejoin="miter" stroke="none"></circle></g></svg>