<svg xmlns="http://www.w3.org/2000/svg" height="16" width="16" viewBox="0 0 16 16"><title>transform origin 2</title><g fill="#61616b" class="nc-icon-wrapper"><rect x="0.5" y="0.5" width="3" height="3" fill="none" stroke="#61616b" stroke-linecap="round" stroke-linejoin="round" data-cap="butt"></rect> <rect x="6.5" y="0.5" width="3" height="3" fill="none" stroke="#61616b" stroke-linecap="round" stroke-linejoin="round" data-cap="butt"></rect> <rect x="12.5" y="0.5" width="3" height="3" fill="none" stroke="#61616b" stroke-linecap="round" stroke-linejoin="round" data-cap="butt"></rect> <rect x="0.5" y="6.5" width="3" height="3" fill="none" stroke="#61616b" stroke-linecap="round" stroke-linejoin="round" data-cap="butt"></rect> <rect x="6.5" y="6.5" width="3" height="3" rx="1.5" ry="1.5" fill="none" stroke="#61616b" stroke-linecap="round" stroke-linejoin="round" data-cap="butt" data-color="color-2"></rect> <rect x="6.5" y="6.5" width="3" height="3" rx="1.5" ry="1.5" fill="#61616b" data-color="color-2" data-stroke="none" stroke="none"></rect> <rect x="12.5" y="6.5" width="3" height="3" fill="none" stroke="#61616b" stroke-linecap="round" stroke-linejoin="round" data-cap="butt"></rect> <rect x="0.5" y="12.5" width="3" height="3" fill="none" stroke="#61616b" stroke-linecap="round" stroke-linejoin="round" data-cap="butt"></rect> <rect x="6.5" y="12.5" width="3" height="3" fill="none" stroke="#61616b" stroke-linecap="round" stroke-linejoin="round" data-cap="butt"></rect> <rect x="12.5" y="12.5" width="3" height="3" fill="none" stroke="#61616b" stroke-linecap="round" stroke-linejoin="round" data-cap="butt"></rect> <line x1="1.5" y1="3.5" x2="1.5" y2="6.5" fill="none" stroke="#61616b" stroke-linecap="round" stroke-linejoin="round" data-cap="butt"></line> <line x1="1.5" y1="12.5" x2="1.5" y2="9.5" fill="none" stroke="#61616b" stroke-linecap="round" stroke-linejoin="round" data-cap="butt"></line> <line x1="3.5" y1="14.5" x2="6.5" y2="14.5" fill="none" stroke="#61616b" stroke-linecap="round" stroke-linejoin="round" data-cap="butt"></line> <line x1="9.5" y1="14.5" x2="12.5" y2="14.5" fill="none" stroke="#61616b" stroke-linecap="round" stroke-linejoin="round" data-cap="butt"></line> <line x1="14.5" y1="12.5" x2="14.5" y2="9.5" fill="none" stroke="#61616b" stroke-linecap="round" stroke-linejoin="round" data-cap="butt"></line> <line x1="14.5" y1="6.5" x2="14.5" y2="3.5" fill="none" stroke="#61616b" stroke-linecap="round" stroke-linejoin="round" data-cap="butt"></line> <line x1="12.5" y1="1.5" x2="9.5" y2="1.5" fill="none" stroke="#61616b" stroke-linecap="round" stroke-linejoin="round" data-cap="butt"></line> <line x1="6.5" y1="1.5" x2="3.5" y2="1.5" fill="none" stroke="#61616b" stroke-linecap="round" stroke-linejoin="round" data-cap="butt"></line></g></svg>