<svg xmlns="http://www.w3.org/2000/svg" height="48" width="48" viewBox="0 0 48 48"><title>transform origin 4</title><g stroke-linecap="round" fill="#61616b" stroke-linejoin="round" class="nc-icon-wrapper"><line data-cap="butt" fill="none" stroke="#61616b" stroke-width="2" x1="6" y1="10" x2="6" y2="20"></line> <line data-cap="butt" fill="none" stroke="#61616b" stroke-width="2" x1="42" y1="10" x2="42" y2="20"></line> <line data-cap="butt" fill="none" stroke="#61616b" stroke-width="2" x1="6" y1="28" x2="6" y2="38"></line> <line data-cap="butt" fill="none" stroke="#61616b" stroke-width="2" x1="42" y1="28" x2="42" y2="38"></line> <line data-cap="butt" fill="none" stroke="#61616b" stroke-width="2" x1="10" y1="6" x2="20" y2="6"></line> <line data-cap="butt" fill="none" stroke="#61616b" stroke-width="2" x1="28" y1="6" x2="38" y2="6"></line> <line data-cap="butt" fill="none" stroke="#61616b" stroke-width="2" x1="10" y1="42" x2="20" y2="42"></line> <line data-cap="butt" fill="none" stroke="#61616b" stroke-width="2" x1="28" y1="42" x2="38" y2="42"></line> <circle fill="none" stroke="#61616b" stroke-width="2" cx="6" cy="6" r="4"></circle> <circle fill="none" stroke="#61616b" stroke-width="2" cx="24" cy="6" r="4"></circle> <circle fill="none" stroke="#61616b" stroke-width="2" cx="42" cy="6" r="4"></circle> <circle fill="none" stroke="#61616b" stroke-width="2" cx="6" cy="24" r="4"></circle> <circle fill="none" stroke="#61616b" stroke-width="2" cx="42" cy="24" r="4"></circle> <circle fill="none" stroke="#61616b" stroke-width="2" cx="6" cy="42" r="4"></circle> <circle fill="none" stroke="#61616b" stroke-width="2" cx="24" cy="42" r="4"></circle> <circle fill="none" stroke="#61616b" stroke-width="2" cx="42" cy="42" r="4"></circle> <line data-color="color-2" fill="none" stroke="#61616b" stroke-width="2" x1="20" y1="24" x2="28" y2="24"></line> <line data-color="color-2" fill="none" stroke="#61616b" stroke-width="2" x1="24" y1="20" x2="24" y2="28"></line></g></svg>