<svg xmlns="http://www.w3.org/2000/svg" height="64" width="64" viewBox="0 0 64 64"><title>transform origin 3</title><g stroke-linecap="round" fill="#61616b" stroke-linejoin="round" class="nc-icon-wrapper"><line data-cap="butt" fill="none" stroke="#61616b" stroke-width="2" x1="7" y1="12" x2="7" y2="27"></line> <line data-cap="butt" fill="none" stroke="#61616b" stroke-width="2" x1="12" y1="7" x2="27" y2="7"></line> <line data-cap="butt" fill="none" stroke="#61616b" stroke-width="2" x1="37" y1="7" x2="52" y2="7"></line> <line data-cap="butt" fill="none" stroke="#61616b" stroke-width="2" x1="12" y1="57" x2="27" y2="57"></line> <line data-cap="butt" fill="none" stroke="#61616b" stroke-width="2" x1="37" y1="57" x2="52" y2="57"></line> <line data-cap="butt" fill="none" stroke="#61616b" stroke-width="2" x1="7" y1="37" x2="7" y2="52"></line> <line data-cap="butt" fill="none" stroke="#61616b" stroke-width="2" x1="57" y1="12" x2="57" y2="27"></line> <line data-cap="butt" fill="none" stroke="#61616b" stroke-width="2" x1="57" y1="37" x2="57" y2="52"></line> <circle fill="none" stroke="#61616b" stroke-width="2" cx="7" cy="7" r="5"></circle> <circle fill="none" stroke="#61616b" stroke-width="2" cx="32" cy="7" r="5"></circle> <circle fill="none" stroke="#61616b" stroke-width="2" cx="57" cy="7" r="5"></circle> <circle fill="none" stroke="#61616b" stroke-width="2" cx="7" cy="57" r="5"></circle> <circle fill="none" stroke="#61616b" stroke-width="2" cx="32" cy="57" r="5"></circle> <circle fill="none" stroke="#61616b" stroke-width="2" cx="57" cy="57" r="5"></circle> <circle fill="none" stroke="#61616b" stroke-width="2" cx="7" cy="32" r="5"></circle> <circle fill="none" stroke="#61616b" stroke-width="2" cx="57" cy="32" r="5"></circle> <line data-color="color-2" fill="none" stroke="#61616b" stroke-width="2" x1="32" y1="27" x2="32" y2="37"></line> <line data-color="color-2" fill="none" stroke="#61616b" stroke-width="2" x1="27" y1="32" x2="37" y2="32"></line></g></svg>