<svg xmlns="http://www.w3.org/2000/svg" height="32" width="32" viewBox="0 0 32 32"><title>transform origin 5</title><g stroke-linecap="round" fill="#61616b" stroke-linejoin="round" class="nc-icon-wrapper"><circle fill="none" stroke="#61616b" stroke-width="2" cx="4" cy="4" r="3"></circle> <circle fill="none" stroke="#61616b" stroke-width="2" cx="4" cy="16" r="3"></circle> <circle fill="none" stroke="#61616b" stroke-width="2" cx="28" cy="16" r="3"></circle> <circle fill="none" stroke="#61616b" stroke-width="2" cx="16" cy="4" r="3"></circle> <circle fill="none" stroke="#61616b" stroke-width="2" cx="28" cy="4" r="3"></circle> <line fill="none" stroke="#61616b" stroke-width="2" x1="7" y1="4" x2="13" y2="4"></line> <line fill="none" stroke="#61616b" stroke-width="2" x1="19" y1="4" x2="25" y2="4"></line> <circle fill="none" stroke="#61616b" stroke-width="2" cx="4" cy="28" r="3"></circle> <circle fill="none" stroke="#61616b" stroke-width="2" cx="16" cy="28" r="3"></circle> <circle fill="none" stroke="#61616b" stroke-width="2" cx="28" cy="28" r="3"></circle> <line fill="none" stroke="#61616b" stroke-width="2" x1="7" y1="28" x2="13" y2="28"></line> <line fill="none" stroke="#61616b" stroke-width="2" x1="19" y1="28" x2="25" y2="28"></line> <line fill="none" stroke="#61616b" stroke-width="2" x1="4" y1="7" x2="4" y2="13"></line> <line fill="none" stroke="#61616b" stroke-width="2" x1="4" y1="19" x2="4" y2="25"></line> <line fill="none" stroke="#61616b" stroke-width="2" x1="28" y1="7" x2="28" y2="13"></line> <line fill="none" stroke="#61616b" stroke-width="2" x1="28" y1="19" x2="28" y2="25"></line> <line data-color="color-2" fill="none" stroke="#61616b" stroke-width="2" x1="13" y1="16" x2="19" y2="16"></line> <line data-color="color-2" fill="none" stroke="#61616b" stroke-width="2" x1="16" y1="13" x2="16" y2="19"></line></g></svg>