<svg xmlns="http://www.w3.org/2000/svg" height="32" width="32" viewBox="0 0 32 32"><title>type tool 5</title><g stroke-linecap="round" fill="#61616b" stroke-linejoin="round" class="nc-icon-wrapper"><rect x="1" y="5" width="6" height="6" fill="none" stroke="#61616b" stroke-width="2" data-color="color-2"></rect><rect x="1" y="21" width="6" height="6" fill="none" stroke="#61616b" stroke-width="2" data-color="color-2"></rect><path id="butt" d="M20,3h0c2.761,0,5,2.239,5,5V24c0,2.761-2.239,5-5,5h0" fill="none" stroke="#61616b" stroke-width="2" data-cap="butt"></path><path id="butt-2" d="M25,24c0,2.761,2.239,5,5,5h0" fill="none" stroke="#61616b" stroke-width="2" data-cap="butt"></path><path id="butt-3" d="M30,3h0c-2.761,0-5,2.239-5,5" fill="none" stroke="#61616b" stroke-width="2" data-cap="butt"></path><line x1="21" y1="20" x2="29" y2="20" fill="none" stroke="#61616b" stroke-width="2"></line><line x1="4" y1="21" x2="4" y2="11" fill="none" stroke="#61616b" stroke-width="2" data-color="color-2"></line><line x1="20" y1="24" x2="7" y2="24" fill="none" stroke="#61616b" stroke-width="2" data-color="color-2"></line><line x1="7" y1="8" x2="20" y2="8" fill="none" stroke="#61616b" stroke-width="2" data-color="color-2"></line></g></svg>