<svg xmlns="http://www.w3.org/2000/svg" height="64" width="64" viewBox="0 0 64 64"><title>type tool 3</title><g stroke-linecap="round" fill="#61616b" stroke-linejoin="round" class="nc-icon-wrapper"><line x1="13" y1="8" x2="51" y2="8" fill="none" stroke="#61616b" stroke-width="2"></line><rect x="3" y="3" width="10" height="10" fill="none" stroke="#61616b" stroke-width="2"></rect><rect x="51" y="3" width="10" height="10" fill="none" stroke="#61616b" stroke-width="2"></rect><line x1="13" y1="56" x2="51" y2="56" fill="none" stroke="#61616b" stroke-width="2"></line><rect x="3" y="51" width="10" height="10" fill="none" stroke="#61616b" stroke-width="2"></rect><rect x="51" y="51" width="10" height="10" fill="none" stroke="#61616b" stroke-width="2"></rect><path d="M24,16c4.418,0,8,3.582,8,8" fill="none" stroke="#61616b" stroke-width="2" data-cap="butt" data-color="color-2"></path><path d="M40,48c-4.418,0-8-3.582-8-8" fill="none" stroke="#61616b" stroke-width="2" data-cap="butt" data-color="color-2"></path><path d="M24,48c4.418,0,8-3.582,8-8V24c0-4.418,3.582-8,8-8" fill="none" stroke="#61616b" stroke-width="2" data-cap="butt" data-color="color-2"></path><line x1="24" y1="36" x2="40" y2="36" fill="none" stroke="#61616b" stroke-width="2" data-cap="butt" data-color="color-2"></line><line x1="8" y1="18" x2="8" y2="51" fill="none" stroke="#61616b" stroke-width="2"></line><line x1="56" y1="18" x2="56" y2="51" fill="none" stroke="#61616b" stroke-width="2"></line></g></svg>