<svg xmlns="http://www.w3.org/2000/svg" height="48" width="48" viewBox="0 0 48 48"><title>type tool 4</title><g stroke-linecap="round" fill="#61616b" stroke-linejoin="round" class="nc-icon-wrapper"><line x1="42" y1="15" x2="42" y2="38" fill="none" stroke="#61616b" stroke-width="2"></line><line x1="10" y1="6" x2="38" y2="6" fill="none" stroke="#61616b" stroke-width="2"></line><line x1="10" y1="42" x2="38" y2="42" fill="none" stroke="#61616b" stroke-width="2"></line><line x1="6" y1="38" x2="6" y2="15" fill="none" stroke="#61616b" stroke-width="2"></line><rect x="2" y="2" width="8" height="8" fill="none" stroke="#61616b" stroke-width="2"></rect><rect x="38" y="2" width="8" height="8" fill="none" stroke="#61616b" stroke-width="2"></rect><rect x="38" y="38" width="8" height="8" fill="none" stroke="#61616b" stroke-width="2"></rect><rect x="2" y="38" width="8" height="8" fill="none" stroke="#61616b" stroke-width="2"></rect><path d="M18,12c3.314,0,6,2.686,6,6" fill="none" stroke="#61616b" stroke-width="2" data-cap="butt" data-color="color-2"></path><path d="M30,36c-3.314,0-6-2.686-6-6" fill="none" stroke="#61616b" stroke-width="2" data-cap="butt" data-color="color-2"></path><path d="M18,36c3.314,0,6-2.686,6-6v-12c0-3.314,2.686-6,6-6" fill="none" stroke="#61616b" stroke-width="2" data-cap="butt" data-color="color-2"></path><line x1="18" y1="28" x2="30" y2="28" fill="none" stroke="#61616b" stroke-width="2" data-cap="butt" data-color="color-2"></line></g></svg>