<svg xmlns="http://www.w3.org/2000/svg" height="64" width="64" viewBox="0 0 64 64"><title>ungroup 3</title><g stroke-linecap="round" fill="#61616b" stroke-linejoin="round" class="nc-icon-wrapper"><rect data-color="color-2" x="54" y="18" fill="none" stroke="#61616b" stroke-width="2" width="8" height="8"></rect> <rect data-color="color-2" x="18" y="54" fill="none" stroke="#61616b" stroke-width="2" width="8" height="8"></rect> <rect data-color="color-2" x="54" y="54" fill="none" stroke="#61616b" stroke-width="2" width="8" height="8"></rect> <line data-color="color-2" fill="none" stroke="#61616b" stroke-width="2" x1="54" y1="58" x2="26" y2="58"></line> <line data-color="color-2" fill="none" stroke="#61616b" stroke-width="2" x1="58" y1="26" x2="58" y2="54"></line> <line data-color="color-2" fill="none" stroke="#61616b" stroke-width="2" x1="42" y1="22" x2="54" y2="22"></line> <line data-color="color-2" fill="none" stroke="#61616b" stroke-width="2" x1="22" y1="54" x2="22" y2="42"></line> <rect x="2" y="2" fill="none" stroke="#61616b" stroke-width="2" width="8" height="8"></rect> <rect x="38" y="2" fill="none" stroke="#61616b" stroke-width="2" width="8" height="8"></rect> <rect x="2" y="38" fill="none" stroke="#61616b" stroke-width="2" width="8" height="8"></rect> <rect x="38" y="38" fill="none" stroke="#61616b" stroke-width="2" width="8" height="8"></rect> <line fill="none" stroke="#61616b" stroke-width="2" x1="38" y1="42" x2="10" y2="42"></line> <line fill="none" stroke="#61616b" stroke-width="2" x1="42" y1="10" x2="42" y2="38"></line> <line fill="none" stroke="#61616b" stroke-width="2" x1="10" y1="6" x2="38" y2="6"></line> <line fill="none" stroke="#61616b" stroke-width="2" x1="6" y1="38" x2="6" y2="10"></line></g></svg>