<svg xmlns="http://www.w3.org/2000/svg" height="48" width="48" viewBox="0 0 48 48"><title>ungroup 4</title><g stroke-linecap="round" fill="#61616b" stroke-linejoin="round" class="nc-icon-wrapper"><line data-color="color-2" fill="none" stroke="#61616b" stroke-width="2" x1="17" y1="40" x2="17" y2="31"></line> <line data-color="color-2" fill="none" stroke="#61616b" stroke-width="2" x1="40" y1="43" x2="20" y2="43"></line> <line data-color="color-2" fill="none" stroke="#61616b" stroke-width="2" x1="43" y1="20" x2="43" y2="40"></line> <line data-color="color-2" fill="none" stroke="#61616b" stroke-width="2" x1="31" y1="17" x2="40" y2="17"></line> <line fill="none" stroke="#61616b" stroke-width="2" x1="5" y1="28" x2="5" y2="8"></line> <line fill="none" stroke="#61616b" stroke-width="2" x1="28" y1="31" x2="8" y2="31"></line> <line fill="none" stroke="#61616b" stroke-width="2" x1="31" y1="8" x2="31" y2="28"></line> <line fill="none" stroke="#61616b" stroke-width="2" x1="8" y1="5" x2="28" y2="5"></line> <rect x="2" y="2" fill="none" stroke="#61616b" stroke-width="2" width="6" height="6"></rect> <rect x="28" y="2" fill="none" stroke="#61616b" stroke-width="2" width="6" height="6"></rect> <rect x="2" y="28" fill="none" stroke="#61616b" stroke-width="2" width="6" height="6"></rect> <rect x="28" y="28" fill="none" stroke="#61616b" stroke-width="2" width="6" height="6"></rect> <rect data-color="color-2" x="40" y="14" fill="none" stroke="#61616b" stroke-width="2" width="6" height="6"></rect> <rect data-color="color-2" x="40" y="40" fill="none" stroke="#61616b" stroke-width="2" width="6" height="6"></rect> <rect data-color="color-2" x="14" y="40" fill="none" stroke="#61616b" stroke-width="2" width="6" height="6"></rect></g></svg>