<svg xmlns="http://www.w3.org/2000/svg" height="24" width="24" viewBox="0 0 24 24"><title>web design</title><g stroke-linecap="round" fill="#61616b" stroke-linejoin="round" class="nc-icon-wrapper"><line data-cap="butt" fill="none" stroke="#61616b" stroke-width="2" x1="20" y1="7" x2="23" y2="7"></line> <line data-cap="butt" fill="none" stroke="#61616b" stroke-width="2" x1="1" y1="7" x2="12.4" y2="7"></line> <polyline data-cap="butt" fill="none" stroke="#61616b" stroke-width="2" points="20.3,3 23,3 23,23 1,23 1,3 16.4,3 "></polyline> <line fill="none" stroke="#61616b" stroke-width="2" x1="6" y1="3" x2="6" y2="7"></line> <path data-color="color-2" fill="none" stroke="#61616b" stroke-width="2" d="M12.6,10.8 l-2-2L18,1.4c0.6-0.6,1.4-0.6,2,0l0,0c0.6,0.6,0.6,1.4,0,2L12.6,10.8z"></path> <path data-color="color-2" fill="none" stroke="#61616b" stroke-width="2" d="M6.8,11.8 c0.8-0.8,2-0.8,2.8,0c0.8,0.8,0.8,2,0,2.8c-0.8,0.8-3.5,0.7-3.5,0.7S6,12.5,6.8,11.8z"></path></g></svg>