<svg xmlns="http://www.w3.org/2000/svg" height="32" width="32" viewBox="0 0 32 32"><title>web design 4</title><g stroke-linecap="round" fill="#61616b" stroke-linejoin="round" class="nc-icon-wrapper"><line fill="none" stroke="#61616b" stroke-width="2" x1="7" y1="3" x2="7" y2="8"></line> <polyline data-cap="butt" fill="none" stroke="#61616b" stroke-width="2" points="31,11 31,29 1,29 1,3 26.003,3 "></polyline> <line data-cap="butt" fill="none" stroke="#61616b" stroke-width="2" x1="1" y1="8" x2="21.003" y2="8"></line> <path data-color="color-2" fill="none" stroke="#61616b" stroke-width="2" d="M22.003,13 l-3-3l8.379-8.379c0.828-0.828,2.172-0.828,3,0l0,0c0.828,0.828,0.828,2.172,0,3L22.003,13z"></path> <path data-color="color-2" fill="none" stroke="#61616b" stroke-width="2" d=" M13.91,13.874c1.165-1.165,3.054-1.165,4.22,0s1.165,3.055,0,4.22S13.003,19,13.003,19S12.894,14.89,13.91,13.874z"></path></g></svg>