<svg xmlns="http://www.w3.org/2000/svg" height="48" width="48" viewBox="0 0 48 48"><title>web design 3</title><g stroke-linecap="round" fill="#61616b" stroke-linejoin="round" class="nc-icon-wrapper"><line fill="none" stroke="#61616b" stroke-width="2" x1="12" y1="6" x2="12" y2="14"></line> <line data-cap="butt" fill="none" stroke="#61616b" stroke-width="2" x1="40" y1="14" x2="46" y2="14"></line> <line data-cap="butt" fill="none" stroke="#61616b" stroke-width="2" x1="2" y1="14" x2="24.828" y2="14"></line> <polyline data-cap="butt" fill="none" stroke="#61616b" stroke-width="2" points="40.575,6 46,6 46,46 2,46 2,6 32.828,6 "></polyline> <path data-color="color-2" fill="none" stroke="#61616b" stroke-width="2" d=" M25.248,21.581l-4-4L36,2.828c1.105-1.105,2.895-1.105,4,0l0,0c1.105,1.105,1.105,2.895,0,4L25.248,21.581z"></path> <path data-color="color-2" fill="none" stroke="#61616b" stroke-width="2" d=" M13.65,23.521c1.562-1.562,4.095-1.562,5.657,0c1.562,1.562,1.562,4.095,0,5.657c-1.562,1.562-7.071,1.414-7.071,1.414 S12.088,25.083,13.65,23.521z"></path> <line data-color="color-2" fill="none" stroke="#61616b" stroke-width="2" x1="10" y1="38" x2="38" y2="38"></line></g></svg>