<svg xmlns="http://www.w3.org/2000/svg" height="48" width="48" viewBox="0 0 48 48"><title>app services</title><g class="nc-icon-wrapper"><path d="M23,8.1V3H6A3,3,0,0,0,3,6V23H9a1,1,0,0,1,1,1.01,3.065,3.065,0,0,0,4.985,2.34A2.607,2.607,0,0,0,16,24.03,1,1,0,0,1,17,23h6V17.9a5,5,0,0,1,0-9.8Z" fill="#8e83ff"></path><path d="M8.1,25H3V42a3,3,0,0,0,3,3H23V39a1,1,0,0,1,1.01-1,3.065,3.065,0,0,0,2.34-4.985A2.607,2.607,0,0,0,24.03,32,1,1,0,0,1,23,31V25H17.9a5,5,0,0,1-9.8,0Z" fill="#47b0ea"></path><path d="M39.9,23H45V6a3,3,0,0,0-3-3H25V9a1,1,0,0,1-1.01,1,3.065,3.065,0,0,0-2.34,4.985A2.607,2.607,0,0,0,23.97,16,1,1,0,0,1,25,17v6h5.1a5,5,0,0,1,9.8,0Z" fill="#72c472"></path><path d="M25,39.9V45H42a3,3,0,0,0,3-3V25H39a1,1,0,0,1-1-1.01,3.065,3.065,0,0,0-4.985-2.34A2.607,2.607,0,0,0,32,23.97,1,1,0,0,1,31,25H25v5.1a5,5,0,0,1,0,9.8Z" fill="#ed7064"></path></g></svg>