<svg xmlns="http://www.w3.org/2000/svg" height="48" width="48" viewBox="0 0 48 48"><title>atm</title><g class="nc-icon-wrapper"><path fill="#E6E6E6" d="M38,3H10C8.3457,3,7,4.3457,7,6v38c0,0.55273,0.44775,1,1,1h32c0.55225,0,1-0.44727,1-1V6 C41,4.3457,39.6543,3,38,3z"></path> <path fill="#B3B3B3" d="M46,45H2c-0.55225,0-1-0.44727-1-1s0.44775-1,1-1h44c0.55225,0,1,0.44727,1,1S46.55225,45,46,45z"></path> <path fill="#444444" d="M36,7H12c-0.55229,0-1,0.44772-1,1v16c0,0.55228,0.44771,1,1,1h24c0.55228,0,1-0.44772,1-1V8 C37,7.44772,36.55228,7,36,7z"></path> <path fill="#BADEFC" d="M29,21H19c-0.55228,0-1-0.44772-1-1v-8c0-0.55229,0.44772-1,1-1h10c0.55228,0,1,0.44771,1,1v8 C30,20.55228,29.55228,21,29,21z"></path> <path fill="#B3B3B3" d="M36,30H12c-0.55225,0-1-0.44727-1-1s0.44775-1,1-1h24c0.55225,0,1,0.44727,1,1S36.55225,30,36,30z"></path> <rect x="13" y="11" fill="#B3B3B3" width="3" height="2"></rect> <rect x="13" y="15" fill="#B3B3B3" width="3" height="2"></rect> <rect x="13" y="19" fill="#B3B3B3" width="3" height="2"></rect> <rect x="32" y="11" fill="#B3B3B3" width="3" height="2"></rect> <rect x="32" y="15" fill="#B3B3B3" width="3" height="2"></rect> <rect x="32" y="19" fill="#B3B3B3" width="3" height="2"></rect></g></svg>