<svg xmlns="http://www.w3.org/2000/svg" height="48" width="48" viewBox="0 0 48 48"><title>bank statement</title><g class="nc-icon-wrapper"><rect x="5.079" y="1" width="37.921" height="46" rx="3" fill="#e6e6e6"></rect><path d="M36,33H12a1,1,0,0,0,0,2H36a1,1,0,0,0,0-2Z" fill="#b3b3b3"></path><path d="M23,39H12a1,1,0,0,0,0,2H23a1,1,0,0,0,0-2Z" fill="#b3b3b3"></path><path d="M36,27H12a1,1,0,0,0,0,2H36a1,1,0,0,0,0-2Z" fill="#b3b3b3"></path><path d="M36,21H35V15H33v6H31V15H29v6H27V15H25v6H23V15H21v6H20a1,1,0,0,0,0,2H36a1,1,0,0,0,0-2Z" fill="#82adb2"></path><path d="M36.447,10.105l-8-4a1,1,0,0,0-.894,0l-8,4A1,1,0,0,0,19,11v1a1,1,0,0,0,1,1H36a1,1,0,0,0,1-1V11A1,1,0,0,0,36.447,10.105Z" fill="#82adb2"></path></g></svg>