<svg xmlns="http://www.w3.org/2000/svg" height="48" width="48" viewBox="0 0 48 48"><title>bulb 62</title><g class="nc-icon-wrapper"><circle fill="#B3B3B3" cx="24" cy="42" r="5"></circle> <path fill="#EFD358" d="M22.19336,1.09389C14.44845,1.89722,8.11992,8.05841,7.14064,15.78304 C6.17717,23.38294,10.23984,30.43416,17,33.48535V39h14v-5.51465C37.09716,30.7334,41,24.72754,41,18 C41,8.03032,32.37407,0.0379,22.19336,1.09389z"></path> <path fill="#E6E6E6" d="M17,38v4c0,1.10455,0.89545,2,2,2h10c1.10461,0,2-0.89545,2-2v-4H17z"></path> <path fill="#B29930" d="M28,23c-0.25586,0-0.51172-0.09766-0.70703-0.29297L24,19.41406l-3.29297,3.29297 c-0.39062,0.39062-1.02344,0.39062-1.41406,0l-4-4c-0.39062-0.39062-0.39062-1.02344,0-1.41406s1.02344-0.39062,1.41406,0 L20,20.58594l3.29297-3.29297c0.39062-0.39062,1.02344-0.39062,1.41406,0L28,20.58594l3.29297-3.29297 c0.39062-0.39062,1.02344-0.39062,1.41406,0s0.39062,1.02344,0,1.41406l-4,4C28.51172,22.90234,28.25586,23,28,23z"></path></g></svg>