<svg xmlns="http://www.w3.org/2000/svg" height="48" width="48" viewBox="0 0 48 48"><title>candlestick chart</title><g class="nc-icon-wrapper"><path d="M8,42a1,1,0,0,1-1-1V4A1,1,0,0,1,9,4V41A1,1,0,0,1,8,42Z" fill="#c5edc5"></path><path d="M24,47a1,1,0,0,1-1-1V13a1,1,0,0,1,2,0V46A1,1,0,0,1,24,47Z" fill="#ffb4ad"></path><path d="M40,45a1,1,0,0,1-1-1V4a1,1,0,0,1,2,0V44A1,1,0,0,1,40,45Z" fill="#c5edc5"></path><path d="M28,40H20a1,1,0,0,1-1-1V23a1,1,0,0,1,1-1h8a1,1,0,0,1,1,1V39A1,1,0,0,1,28,40Z" fill="#ff7163"></path><path d="M12,33H4a1,1,0,0,1-1-1V8A1,1,0,0,1,4,7h8a1,1,0,0,1,1,1V32A1,1,0,0,1,12,33Z" fill="#78d478"></path><path d="M44,39H36a1,1,0,0,1-1-1V15a1,1,0,0,1,1-1h8a1,1,0,0,1,1,1V38A1,1,0,0,1,44,39Z" fill="#78d478"></path></g></svg>