<svg xmlns="http://www.w3.org/2000/svg" height="48" width="48" viewBox="0 0 48 48"><title>chart bar 32</title><g class="nc-icon-wrapper"><path fill="#4DA34D" d="M28,7h-8c-0.55225,0-1,0.44775-1,1v32c0,0.55225,0.44775,1,1,1h8c0.55225,0,1-0.44775,1-1V8 C29,7.44775,28.55225,7,28,7z"></path> <path fill="#9EDB9E" d="M12,27H4c-0.55225,0-1,0.44775-1,1v12c0,0.55225,0.44775,1,1,1h8c0.55225,0,1-0.44775,1-1V28 C13,27.44775,12.55225,27,12,27z"></path> <path fill="#72C472" d="M44,17h-8c-0.55225,0-1,0.44775-1,1v22c0,0.55225,0.44775,1,1,1h8c0.55225,0,1-0.44775,1-1V18 C45,17.44775,44.55225,17,44,17z"></path></g></svg>