<svg xmlns="http://www.w3.org/2000/svg" height="48" width="48" style="" viewBox="0 0 48 48"><title>chart</title><g class="nc-icon-wrapper"><path d="M25 13.0509C30.268 13.5289 34.472 17.7319 34.949 22.9999H46.974C46.463 11.1119 36.888 1.5369 25 1.0249V13.0509Z" fill="url(#nc-ui-6-0_linear_215_42)"></path> <path d="M15.313 30.7229C13.869 28.8619 13 26.5329 13 23.9999C13 18.2719 17.402 13.5579 23 13.0509V1.0249C10.78 1.5509 1 11.6529 1 23.9999C1 29.7549 3.13 35.0189 6.636 39.0569L15.313 30.7229Z" fill="url(#nc-ui-6-1_linear_215_42)"></path> <path d="M34.949 25C34.442 30.598 29.728 35 24 35C21.186 35 18.624 33.929 16.677 32.185L8.01001 40.51C12.152 44.523 17.791 47 24 47C36.347 47 46.449 37.22 46.975 25H34.949Z" fill="url(#nc-ui-6-2_linear_215_42)"></path> <defs> <linearGradient id="nc-ui-6-0_linear_215_42" x1="35.987" y1="1.0249" x2="35.987" y2="22.9999" gradientUnits="userSpaceOnUse"> <stop stop-color="#C5DCE7"></stop> <stop offset="1" stop-color="#80B0CB"></stop> </linearGradient> <linearGradient id="nc-ui-6-1_linear_215_42" x1="12" y1="1.0249" x2="12" y2="39.0569" gradientUnits="userSpaceOnUse"> <stop stop-color="#4480A7"></stop> <stop offset="1" stop-color="#32597C"></stop> </linearGradient> <linearGradient id="nc-ui-6-2_linear_215_42" x1="27.4925" y1="25" x2="27.4925" y2="47" gradientUnits="userSpaceOnUse"> <stop stop-color="#80B0CB"></stop> <stop offset="1" stop-color="#4480A7"></stop> </linearGradient> </defs></g></svg>