<svg xmlns="http://www.w3.org/2000/svg" height="48" width="48" viewBox="0 0 48 48"><title>chess tower</title><g class="nc-icon-wrapper"><path d="M37,2H34a1,1,0,0,0-.929.629L31.323,7H29.03L27.97,2.757A1,1,0,0,0,27,2H21a1,1,0,0,0-.97.757L18.97,7H16.677L14.929,2.629A1,1,0,0,0,14,2H11a1,1,0,0,0-1,1v8a1,1,0,0,0,.317.731L17.026,18H30.974l6.709-6.266A1,1,0,0,0,38,11V3A1,1,0,0,0,37,2Z" fill="#4c4c4c"></path><polygon points="17 18 11.22 37 36.78 37 31 18 17 18" fill="#363636"></polygon><path d="M42,47H6a1,1,0,0,1-1-1V40a3,3,0,0,1,3-3H40a3,3,0,0,1,3,3v6A1,1,0,0,1,42,47Z" fill="#363636"></path><path d="M8,37H40a3,3,0,0,1,3,3v1H5V40A3,3,0,0,1,8,37Z" fill="#4c4c4c"></path></g></svg>