<svg xmlns="http://www.w3.org/2000/svg" height="48" width="48" viewBox="0 0 48 48"><title>chess knight</title><g class="nc-icon-wrapper"><path d="M41,47H7a1,1,0,0,1-1-1V40.011a3,3,0,0,1,3-3H39a3,3,0,0,1,3,3V46A1,1,0,0,1,41,47Z" fill="#363636"></path><path d="M39,23A21.966,21.966,0,0,0,18.047,1.024,1,1,0,0,0,17,1.976c0,.016,0,.032,0,.048V4L9.45,12.494a1,1,0,0,0-.15,1.111l1.321,2.642a1,1,0,0,0,1.182.511L21,14c2.1,5.258-.211,8.02-2.893,11.219-1.93,2.3-4.077,4.878-4.825,8.781h-.005A15.889,15.889,0,0,0,13,37H33.971a22.145,22.145,0,0,0,2.083-3h-.021A22.086,22.086,0,0,0,39,23Z" fill="#363636"></path><path d="M8.9,37.011h30a3,3,0,0,1,3,3v1H5.9v-1A3,3,0,0,1,8.9,37.011Z" fill="#4c4c4c"></path></g></svg>