<svg xmlns="http://www.w3.org/2000/svg" height="48" width="48" viewBox="0 0 48 48"><title>cloud mining</title><g class="nc-icon-wrapper"><path d="M25,39.137V29H23V39.137a4,4,0,1,0,2,0Z" fill="#645aed"></path><path d="M42,38.995a3.957,3.957,0,0,0-2.019.567L37,36.581V29H35v8a1,1,0,0,0,.293.707l3.274,3.274A3.947,3.947,0,0,0,38,43a4,4,0,1,0,4-4Z" fill="#645aed"></path><path d="M11,29v7.586L8.019,39.562A3.957,3.957,0,0,0,6,38.995a4,4,0,1,0,4,4,3.947,3.947,0,0,0-.567-2.019L12.707,37.7A1,1,0,0,0,13,36.995V29Z" fill="#645aed"></path><path d="M37,8.995c-.118,0-.234,0-.351.009A14.063,14.063,0,0,0,26.185,1.181l-.236-.035c-.247-.036-.493-.07-.736-.09a13.021,13.021,0,0,0-2.418,0c-.251.02-.5.054-.825.1l-.142.022A14.069,14.069,0,0,0,11.351,9C11.234,9,11.118,8.995,11,8.995a10,10,0,0,0,0,20H37a10,10,0,0,0,0-20Z" fill="#cdcafc"></path><path d="M30.612,13.858c.3-2-1.221-3.069-3.3-3.785l.675-2.7-1.646-.41-.657,2.632c-.432-.107-.877-.209-1.318-.31l.661-2.65-1.645-.41-.675,2.7L19.388,8.1,18.95,9.86s1.221.279,1.2.3a.874.874,0,0,1,.767.957l-1.847,7.408a.6.6,0,0,1-.754.391c.016.023-1.2-.3-1.2-.3L16.3,20.5l3.315.837-.681,2.735,1.644.41.674-2.706c.45.122.885.235,1.312.341l-.672,2.693,1.646.41.681-2.73c2.807.531,4.917.317,5.806-2.222a2.887,2.887,0,0,0-1.513-3.991A2.625,2.625,0,0,0,30.612,13.858Zm-3.761,5.274c-.508,2.043-3.95.938-5.066.661l.9-3.623C23.805,16.449,27.383,17,26.851,19.132Zm.509-5.3c-.464,1.86-3.328.915-4.257.683l.819-3.286C24.851,11.457,27.844,11.889,27.36,13.828Z" fill="#645aed"></path></g></svg>