<svg xmlns="http://www.w3.org/2000/svg" height="48" width="48" viewBox="0 0 48 48"><title>conference room</title><g class="nc-icon-wrapper"><path d="M32,43H16a3,3,0,0,1-3-3V8a3,3,0,0,1,3-3H32a3,3,0,0,1,3,3V40A3,3,0,0,1,32,43Z" fill="#c6a279"></path><path d="M5.5,16A4.5,4.5,0,1,1,10,11.5,4.5,4.5,0,0,1,5.5,16Z" fill="#82adb2"></path><path d="M5.5,28.5A4.5,4.5,0,1,1,10,24,4.5,4.5,0,0,1,5.5,28.5Z" fill="#5a7a84"></path><path d="M5.5,41A4.5,4.5,0,1,1,10,36.5,4.5,4.5,0,0,1,5.5,41Z" fill="#82adb2"></path><path d="M42.5,16A4.5,4.5,0,1,1,47,11.5,4.5,4.5,0,0,1,42.5,16Z" fill="#5a7a84"></path><path d="M42.5,28.5A4.5,4.5,0,1,1,47,24,4.5,4.5,0,0,1,42.5,28.5Z" fill="#82adb2"></path><path d="M42.5,41A4.5,4.5,0,1,1,47,36.5,4.5,4.5,0,0,1,42.5,41Z" fill="#5a7a84"></path><rect x="22" y="21" width="4" height="7" rx="1" fill="#444"></rect></g></svg>