<svg xmlns="http://www.w3.org/2000/svg" height="48" width="48" viewBox="0 0 48 48"><title>copyright</title><g class="nc-icon-wrapper"><path d="M24,47A23,23,0,1,1,47,24,23.025,23.025,0,0,1,24,47ZM24,5A19,19,0,1,0,43,24,19.021,19.021,0,0,0,24,5Z" fill="#335262"></path><path d="M24,16a7.4,7.4,0,0,1,3.371.729l2.23,1.128,2.258-4.46-2.23-1.129A12.341,12.341,0,0,0,24,11c-7.514,0-12,4.859-12,13s4.486,13,12,13a12.341,12.341,0,0,0,5.629-1.268l2.23-1.129L29.6,30.143l-2.23,1.128A7.4,7.4,0,0,1,24,32c-1.731,0-7,0-7-8S22.269,16,24,16Z" fill="#47b0ea"></path></g></svg>