<svg xmlns="http://www.w3.org/2000/svg" height="48" width="48" viewBox="0 0 48 48"><title>crypto wallet</title><g class="nc-icon-wrapper"><path d="M45,14a1,1,0,0,0-1-1H3a1,1,0,0,0-1,1V39a8,8,0,0,0,8,8H44a1,1,0,0,0,1-1Z" fill="#a2703f"></path><path d="M47,25H38a5,5,0,0,0,0,10h9a1,1,0,0,0,1-1V26A1,1,0,0,0,47,25Z" fill="#7d5731"></path><circle cx="38" cy="30" r="2" fill="#efd358"></circle><path d="M45,15H5a1,1,0,0,0,0,2H45Z" fill="#7d5731"></path><circle cx="14" cy="14" r="13" fill="#ee7c2f"></circle><path d="M19.979,12.067c.271-1.8-1.1-2.775-2.983-3.423L17.605,6.2l-1.488-.371-.594,2.381c-.391-.1-.793-.19-1.192-.281l.6-2.4-1.487-.371-.61,2.444c-.324-.074-.642-.147-.951-.223l0-.008L9.829,6.862l-.4,1.589s1.1.253,1.081.269a.793.793,0,0,1,.694.866l-.7,2.786a1.2,1.2,0,0,1,.155.049l-.157-.039-.974,3.9a.54.54,0,0,1-.682.353c.015.022-1.082-.27-1.082-.27l-.739,1.7,1.937.483c.361.09.714.185,1.062.274L9.417,21.3l1.486.371.61-2.447c.407.11.8.212,1.187.308l-.608,2.436,1.488.371.616-2.469c2.538.48,4.447.287,5.251-2.009a2.612,2.612,0,0,0-1.368-3.61A2.374,2.374,0,0,0,19.979,12.067Zm-3.4,4.769c-.46,1.849-3.572.85-4.581.6l.818-3.277C13.824,14.41,17.059,14.909,16.578,16.836Zm.461-4.795c-.42,1.681-3.01.827-3.851.617l.742-2.972C14.77,9.9,17.476,10.287,17.039,12.041Z" fill="#fff"></path></g></svg>