<svg xmlns="http://www.w3.org/2000/svg" height="48" width="48" viewBox="0 0 48 48"><title>currency dollar</title><g class="nc-icon-wrapper"><path d="M38,31.943c0-7.013-6.468-9.372-12-11.144V8.487a27.133,27.133,0,0,1,7.126,1.3l2.337.876L37.219,5.98,34.878,5.1A31.706,31.706,0,0,0,26,3.481V0H22V3.584c-6.845.738-11,4.561-11,10.359,0,6.594,5.718,9.072,11,10.819v12.59a33.358,33.358,0,0,1-8.651-1.761L11,34.742l-1.7,4.7,2.351.849A38.2,38.2,0,0,0,22,42.364V48h4V42.388C36.788,41.737,38,34.937,38,31.943Zm-22-18c0-3.66,3.114-4.935,6-5.334V19.466C17.938,17.983,16,16.617,16,13.943ZM26,37.384V26.068c4.746,1.628,7,2.991,7,5.875C33,33.335,33,36.886,26,37.384Z" fill="#ffd764"></path></g></svg>