<svg xmlns="http://www.w3.org/2000/svg" height="48" width="48" viewBox="0 0 48 48"><title>dice</title><g class="nc-icon-wrapper"><path d="M44.9,11.594a.985.985,0,0,0-.493-.506l-20-9a1,1,0,0,0-.82,0l-20,9a.985.985,0,0,0-.493.506L24,21Z" fill="#fff"></path><path d="M3.1,11.594A.988.988,0,0,0,3,12V36a1,1,0,0,0,.59.912l20,9A1,1,0,0,0,24,46V21Z" fill="#e3e3e3"></path><path d="M44.9,11.594,24,21V46a1,1,0,0,0,.41-.088l20-9A1,1,0,0,0,45,36V12A.988.988,0,0,0,44.9,11.594ZM44,36Z" fill="#aeaeae"></path><ellipse cx="9.5" cy="21" rx="2" ry="2.5" fill="#444"></ellipse><ellipse cx="18.5" cy="36" rx="2" ry="2.5" fill="#444"></ellipse><ellipse cx="14" cy="28.5" rx="2" ry="2.5" fill="#444"></ellipse><ellipse cx="34" cy="28.5" rx="2" ry="2.5" fill="#444"></ellipse><ellipse cx="18.5" cy="12" rx="2.5" ry="1.5" fill="#444"></ellipse><ellipse cx="29.5" cy="12" rx="2.5" ry="1.5" fill="#444"></ellipse></g></svg>