<svg xmlns="http://www.w3.org/2000/svg" height="48" width="48" viewBox="0 0 48 48"><title>globe</title><g class="nc-icon-wrapper"><circle cx="24" cy="24" r="20" fill="#e3e3e3"></circle><path d="M24,3A21,21,0,1,0,45,24,21.024,21.024,0,0,0,24,3ZM5.051,25h7.975a37.731,37.731,0,0,0,1.012,8H7.273A18.867,18.867,0,0,1,5.051,25ZM25,13V5.132c2.551.627,4.811,3.616,6.274,7.868Zm6.887,2a35.519,35.519,0,0,1,1.088,8H25V15ZM23,5.132V13H16.726C18.189,8.748,20.449,5.759,23,5.132ZM23,15v8H15.025a35.462,35.462,0,0,1,1.088-8Zm-9.974,8H5.051a18.867,18.867,0,0,1,2.222-8h6.765A37.731,37.731,0,0,0,13.026,23Zm2,2H23v8H16.113A35.462,35.462,0,0,1,15.025,25ZM23,35v7.868c-2.551-.627-4.811-3.616-6.274-7.868Zm2,7.868V35h6.274C29.811,39.252,27.551,42.241,25,42.868ZM25,33V25h7.975a35.519,35.519,0,0,1-1.088,8Zm9.974-8h7.975a18.867,18.867,0,0,1-2.222,8H33.962A37.8,37.8,0,0,0,34.974,25Zm0-2a37.8,37.8,0,0,0-1.012-8h6.765a18.867,18.867,0,0,1,2.222,8Zm4.489-10H33.4a19.44,19.44,0,0,0-3.823-7.16A19.055,19.055,0,0,1,39.463,13ZM18.419,5.84A19.425,19.425,0,0,0,14.6,13H8.537A19.055,19.055,0,0,1,18.419,5.84ZM8.537,35H14.6a19.43,19.43,0,0,0,3.823,7.161A19.062,19.062,0,0,1,8.537,35Zm21.044,7.161A19.445,19.445,0,0,0,33.4,35h6.059A19.062,19.062,0,0,1,29.581,42.161Z" fill="#444"></path><path d="M16,20a4,4,0,1,1,4-4A4,4,0,0,1,16,20Z" fill="#fff"></path><path d="M33,27a4,4,0,1,1,4-4A4,4,0,0,1,33,27Z" fill="#fff"></path><path d="M24,38a4,4,0,1,1,4-4A4,4,0,0,1,24,38Z" fill="#fff"></path><circle cx="24" cy="34" r="2" fill="#58bfca"></circle><circle cx="16" cy="16" r="2" fill="#58bfca"></circle><circle cx="33" cy="23" r="2" fill="#58bfca"></circle></g></svg>