<svg xmlns="http://www.w3.org/2000/svg" height="48" width="48" viewBox="0 0 48 48"><title>hat</title><g class="nc-icon-wrapper"><path fill="#444444" d="M24,7C15.729,7,9,13.729,9,22v18c0,0.55225,0.44775,1,1,1h28c0.55225,0,1-0.44775,1-1V22 C39,13.729,32.271,7,24,7z"></path> <path fill="#565656" d="M38,41H10c-4.9624,0-9-4.0376-9-9c0-0.55225,0.44775-1,1-1s1,0.44775,1,1c0,3.85986,3.14014,7,7,7h28 c3.85986,0,7-3.14014,7-7c0-0.55225,0.44775-1,1-1s1,0.44775,1,1C47,36.9624,42.9624,41,38,41z"></path> <rect x="9" y="29" fill="#B3B3B3" width="30" height="10"></rect></g></svg>