<svg xmlns="http://www.w3.org/2000/svg" height="48" width="48" viewBox="0 0 48 48"><title>hierarchy 54</title><g class="nc-icon-wrapper"><path fill="#335262" d="M40,23H25v-5c0-0.55273-0.44775-1-1-1s-1,0.44727-1,1v5H8c-0.55225,0-1,0.44727-1,1v6 c0,0.55273,0.44775,1,1,1s1-0.44727,1-1v-5h14v5c0,0.55273,0.44775,1,1,1s1-0.44727,1-1v-5h14v5c0,0.55273,0.44775,1,1,1 s1-0.44727,1-1v-6C41,23.44727,40.55225,23,40,23z"></path> <path fill="#E86C60" d="M28,35h-8c-0.55225,0-1,0.44727-1,1v8c0,0.55273,0.44775,1,1,1h8c0.55225,0,1-0.44727,1-1v-8 C29,35.44727,28.55225,35,28,35z"></path> <path fill="#E86C60" d="M44,35h-8c-0.55225,0-1,0.44727-1,1v8c0,0.55273,0.44775,1,1,1h8c0.55225,0,1-0.44727,1-1v-8 C45,35.44727,44.55225,35,44,35z"></path> <path fill="#E86C60" d="M12,35H4c-0.55225,0-1,0.44727-1,1v8c0,0.55273,0.44775,1,1,1h8c0.55225,0,1-0.44727,1-1v-8 C13,35.44727,12.55225,35,12,35z"></path> <circle fill="#43A6DD" cx="24" cy="8" r="5"></circle></g></svg>