<svg xmlns="http://www.w3.org/2000/svg" height="48" width="48" viewBox="0 0 48 48"><title>info point</title><g class="nc-icon-wrapper"><path d="M24,11h0a5,5,0,0,1-5-5h0a5,5,0,0,1,5-5h0a5,5,0,0,1,5,5h0A5,5,0,0,1,24,11Z" fill="#6ca5b7"></path><path d="M15,26V17a4,4,0,0,1,4-4H29a4,4,0,0,1,4,4v9Z" fill="#3d6c7b"></path><path d="M14,47H34a1,1,0,0,0,1-1V31H13V46A1,1,0,0,0,14,47Z" fill="#bf8c5a"></path><path d="M11,31H37a1,1,0,0,0,1-1V27a1,1,0,0,0-1-1H11a1,1,0,0,0-1,1v3A1,1,0,0,0,11,31Z" fill="#d0ab86"></path></g></svg>