<svg xmlns="http://www.w3.org/2000/svg" height="48" width="48" viewBox="0 0 48 48"><title>joint account</title><g class="nc-icon-wrapper"><circle cx="24" cy="36" r="11" fill="#efd358"></circle><path d="M24,45a9,9,0,1,1,9-9A9.01,9.01,0,0,1,24,45Z" fill="#d8bc48"></path><path d="M24,43a7,7,0,1,1,7-7A7.008,7.008,0,0,1,24,43Z" fill="#efd358"></path><circle cx="11" cy="7" r="6" fill="#5a7a84"></circle><circle cx="37" cy="7" r="6" fill="#5a7a84"></circle><path d="M21,23.362v-.69a4.931,4.931,0,0,0-1.854-3.892A12.932,12.932,0,0,0,11,16a12.932,12.932,0,0,0-8.146,2.78A4.931,4.931,0,0,0,1,22.672V27a1,1,0,0,0,1,1H13.767A12.982,12.982,0,0,1,21,23.362Z" fill="#335262"></path><path d="M45.146,18.78a13.325,13.325,0,0,0-16.292,0A4.931,4.931,0,0,0,27,22.672v.69A12.982,12.982,0,0,1,34.233,28H46a1,1,0,0,0,1-1V22.672A4.931,4.931,0,0,0,45.146,18.78Z" fill="#335262"></path><path d="M24,40a1,1,0,0,1-.707-.293l-3-3a1,1,0,0,1,0-1.414l3-3a1,1,0,0,1,1.414,0l3,3a1,1,0,0,1,0,1.414l-3,3A1,1,0,0,1,24,40Z" fill="#d8bc48"></path></g></svg>