<svg xmlns="http://www.w3.org/2000/svg" height="48" width="48" viewBox="0 0 48 48"><title>line chart</title><g class="nc-icon-wrapper"><path d="M47.1,12.174l-1.626-1.162a.5.5,0,0,0-.7.116L36.19,23.153,27.378,6.507a.522.522,0,0,0-.457-.266.5.5,0,0,0-.44.292l-10.724,23.4L10.32,21.776a.469.469,0,0,0-.44-.221.5.5,0,0,0-.417.263L.676,38.294a.5.5,0,0,0,.206.677l1.765.941a.5.5,0,0,0,.677-.206l6.82-12.787,5.6,8.4a.506.506,0,0,0,.455.221.5.5,0,0,0,.415-.29L27.1,12.389l8.335,15.743a.5.5,0,0,0,.408.264.482.482,0,0,0,.44-.208L47.221,12.872a.5.5,0,0,0-.117-.7Z" fill="#c456eb"></path></g></svg>