<svg xmlns="http://www.w3.org/2000/svg" height="48" width="48" viewBox="0 0 48 48"><title>loan</title><g class="nc-icon-wrapper"><path d="M46.13,29.933a3.267,3.267,0,0,0-3.845-.608l-8.529,4.26a5.226,5.226,0,0,1-4.565,3.575l-11.1.793-.073,0a1,1,0,0,1-.07-2l.071-.005v0l11.008-.573a3.222,3.222,0,0,0,0-6.427l-10.3-1.872a8.024,8.024,0,0,1-1.379-.38l-5.536-2.076a8,8,0,0,0-3.693-.461l-6.209.69a1,1,0,0,0-.89.994v12.1a1,1,0,0,0,1,1h.838a8,8,0,0,1,4.031,1.09L14.358,44.4a8,8,0,0,0,5.678.918l14.259-3a8,8,0,0,0,3.155-1.43l8.276-6.213A3.192,3.192,0,0,0,46.13,29.933Z" fill="#eebc99"></path><circle cx="29" cy="12" r="11" fill="#efd358"></circle><path d="M29,21a9,9,0,1,1,9-9A9.01,9.01,0,0,1,29,21Z" fill="#d8bc48"></path><path d="M29,19a7,7,0,1,1,7-7A7.008,7.008,0,0,1,29,19Z" fill="#efd358"></path><path d="M29,16a1,1,0,0,1-.707-.293l-3-3a1,1,0,0,1,0-1.414l3-3a1,1,0,0,1,1.414,0l3,3a1,1,0,0,1,0,1.414l-3,3A1,1,0,0,1,29,16Z" fill="#d8bc48"></path></g></svg>