<svg xmlns="http://www.w3.org/2000/svg" height="48" width="48" viewBox="0 0 48 48"><title>math</title><g class="nc-icon-wrapper"><rect x="3" y="3" width="42" height="42" rx="3" fill="#212121"></rect><path d="M42,3H25V23H45V6A3,3,0,0,0,42,3Z" fill="#4c4c4c"></path><path d="M6,3A3,3,0,0,0,3,6V23H23V3Z" fill="#4c4c4c"></path><path d="M25,25V45H42a3,3,0,0,0,3-3V25Z" fill="#ee7c2f"></path><path d="M3,25V42a3,3,0,0,0,3,3H23V25Z" fill="#4c4c4c"></path><path d="M38.707,15.293a1,1,0,1,1-1.414,1.414L35,14.414l-2.293,2.293a1,1,0,0,1-1.414-1.414L33.586,13l-2.293-2.293a1,1,0,0,1,1.414-1.414L35,11.586l2.293-2.293a1,1,0,0,1,1.414,1.414L36.414,13Z" fill="#fff"></path><path d="M17,15H9a1,1,0,0,1,0-2h8a1,1,0,0,1,0,2Z" fill="#fff"></path><path d="M39,38H31a1,1,0,0,1,0-2h8a1,1,0,0,1,0,2Zm0-4H31a1,1,0,0,1,0-2h8a1,1,0,0,1,0,2Z" fill="#fff"></path><path d="M17,36H14v3a1,1,0,0,1-2,0V36H9a1,1,0,0,1,0-2h3V31a1,1,0,0,1,2,0v3h3a1,1,0,0,1,0,2Z" fill="#fff"></path></g></svg>