<svg xmlns="http://www.w3.org/2000/svg" height="48" width="48" viewBox="0 0 48 48"><title>mobile banking</title><g class="nc-icon-wrapper"><path d="M35,1H13A5.006,5.006,0,0,0,8,6V42a5.006,5.006,0,0,0,5,5H35a5.006,5.006,0,0,0,5-5V6A5.006,5.006,0,0,0,35,1Zm3,38a1,1,0,0,1-1,1H11a1,1,0,0,1-1-1V7a1,1,0,0,1,1-1H37a1,1,0,0,1,1,1Z" fill="#444"></path><path d="M38,7V39a1,1,0,0,1-1,1H11a1,1,0,0,1-1-1V7a1,1,0,0,1,1-1H37A1,1,0,0,1,38,7Z" fill="#82adb2"></path><path d="M30.833,26.8a4.386,4.386,0,0,1-1.522,3.431A7.754,7.754,0,0,1,24.919,31.9v3.115H23.01V31.986A14.82,14.82,0,0,1,17.167,30.9V27.866a14.586,14.586,0,0,0,2.886,1.012,13.026,13.026,0,0,0,2.957.424V23.933L21.8,23.488a8.487,8.487,0,0,1-3.438-2.16,4.587,4.587,0,0,1-1.084-3.108,4.044,4.044,0,0,1,1.543-3.258,7.64,7.64,0,0,1,4.185-1.55V11h1.909v2.368a15.835,15.835,0,0,1,5.526,1.178L29.4,17.172a15.411,15.411,0,0,0-4.478-1.062v5.225l1.091.416a9.986,9.986,0,0,1,3.775,2.211A4.094,4.094,0,0,1,30.833,26.8ZM20.655,18.191a1.918,1.918,0,0,0,.51,1.364,5.223,5.223,0,0,0,1.845,1.077V16.168a3.348,3.348,0,0,0-1.752.7A1.688,1.688,0,0,0,20.655,18.191Zm6.79,8.828a1.785,1.785,0,0,0-.581-1.37,6,6,0,0,0-1.945-1.041v4.579Q27.445,28.8,27.445,27.019Z" fill="#fff"></path></g></svg>