<svg xmlns="http://www.w3.org/2000/svg" height="48" width="48" viewBox="0 0 48 48"><title>money bag</title><g class="nc-icon-wrapper"><path d="M31,14H17S6,27,6,35c0,4.481,2.338,12,18,12s18-7.519,18-12C42,27,31,14,31,14Z" fill="#a67c52"></path><path d="M17,12H31l2.868-5.5a1,1,0,0,0-.513-1.431L29.349,3.54l.545-1.093A1,1,0,0,0,29,1H19a1,1,0,0,0-.895,1.447l.546,1.093L14.644,5.065A1,1,0,0,0,14.132,6.5Z" fill="#a67c52"></path><path d="M28.819,30.794a8.3,8.3,0,0,0-3.145-1.837l-.909-.347V24.257a12.847,12.847,0,0,1,3.73.885l.874-2.188a13.2,13.2,0,0,0-4.6-.981V20H23.174v2.006A6.364,6.364,0,0,0,19.688,23.3,3.365,3.365,0,0,0,18.4,26.012a3.819,3.819,0,0,0,.9,2.589,7.088,7.088,0,0,0,2.864,1.8l1,.37v4.473a10.845,10.845,0,0,1-2.463-.353,12.151,12.151,0,0,1-2.4-.843V36.57a12.329,12.329,0,0,0,4.866.91V40h1.591V37.408a6.457,6.457,0,0,0,3.659-1.388,3.652,3.652,0,0,0,1.267-2.857A3.411,3.411,0,0,0,28.819,30.794Zm-5.645-2.773a4.377,4.377,0,0,1-1.537-.9,1.6,1.6,0,0,1-.424-1.136,1.4,1.4,0,0,1,.5-1.1,2.794,2.794,0,0,1,1.458-.586Zm1.591,7.127V31.334a4.982,4.982,0,0,1,1.62.866,1.489,1.489,0,0,1,.484,1.142Q26.871,34.824,24.765,35.148Z" fill="#ffd764"></path><rect x="17" y="12" width="14" height="2" fill="#87613e"></rect><path d="M20.658,7.553,18.651,3.54l-1.879.715,2.1,4.192a1,1,0,1,0,1.789-.894Z" fill="#87613e"></path><path d="M27.342,7.553,29.349,3.54l1.879.715-2.1,4.192a1,1,0,1,1-1.789-.894Z" fill="#87613e"></path></g></svg>