<svg xmlns="http://www.w3.org/2000/svg" height="48" width="48" viewBox="0 0 48 48"><title>mortgage v2</title><g class="nc-icon-wrapper"><path d="M31,1,21,9.333V24a1,1,0,0,0,1,1h6V18h6v7h6a1,1,0,0,0,1-1V9.333Z" fill="#6ca5b7"></path><path d="M46.13,29.933a3.268,3.268,0,0,0-3.845-.608l-8.529,4.26a5.225,5.225,0,0,1-4.565,3.575l-11.1.793h-.073a1,1,0,0,1-.07-2l.071-.005h0l11.008-.573a3.222,3.222,0,0,0,0-6.427l-10.3-1.872a8.024,8.024,0,0,1-1.379-.38L11.812,24.62a8,8,0,0,0-3.693-.461l-6.209.69a1,1,0,0,0-.89.994v12.1a1,1,0,0,0,1,1h.838a8,8,0,0,1,4.031,1.09L14.358,44.4a8,8,0,0,0,5.678.918l14.259-3a8.017,8.017,0,0,0,3.155-1.43l8.276-6.213a3.192,3.192,0,0,0,.634-4.469A2.992,2.992,0,0,0,46.13,29.933Z" fill="#a2703f"></path><polygon points="21 9.333 21 13.239 31 4.905 41 13.239 41 9.333 31 1 21 9.333" fill="#4d8b9d"></polygon><path d="M43,12a1,1,0,0,1-.64-.231L31,2.3,19.641,11.769a1,1,0,1,1-1.282-1.538l12-10a1,1,0,0,1,1.282,0l12,10A1,1,0,0,1,43,12Z" fill="#6ca5b7"></path></g></svg>