<svg xmlns="http://www.w3.org/2000/svg" height="48" width="48" viewBox="0 0 48 48"><title>name card</title><g class="nc-icon-wrapper"><path d="M34,42H25V33a1,1,0,0,0-2,0v9H14a1,1,0,0,0,0,2H34a1,1,0,0,0,0-2Z" fill="#a67c52"></path> <path d="M46,30H2a1,1,0,0,1-1-1V5A1,1,0,0,1,2,4H46a1,1,0,0,1,1,1V29A1,1,0,0,1,46,30Z" fill="#bfdee0"></path> <rect x="17" y="26" width="14" height="8" rx="1" ry="1" fill="#c19f85"></rect> <path d="M34,14H14a1,1,0,0,1,0-2H34a1,1,0,0,1,0,2Z" fill="#223e49"></path> <path d="M34,21H14a1,1,0,0,1,0-2H34a1,1,0,0,1,0,2Z" fill="#223e49"></path></g></svg>