<svg xmlns="http://www.w3.org/2000/svg" height="48" width="48" viewBox="0 0 48 48"><title>negative judgement</title><g class="nc-icon-wrapper"><path d="M24,11h0a5,5,0,0,1-5-5h0a5,5,0,0,1,5-5h0a5,5,0,0,1,5,5h0A5,5,0,0,1,24,11Z" fill="#5a7a84"></path><path d="M33,17a4,4,0,0,0-4-4H19a4,4,0,0,0-4,4v9H33Z" fill="#335262"></path><path d="M40,26H8a1,1,0,0,0,0,2h2V46a1,1,0,0,0,1,1H37a1,1,0,0,0,1-1V28h2a1,1,0,0,0,0-2Z" fill="#e6e6e6"></path><path d="M28.707,40.293a1,1,0,1,1-1.414,1.414L24,38.414l-3.293,3.293a1,1,0,0,1-1.414-1.414L22.586,37l-3.293-3.293a1,1,0,0,1,1.414-1.414L24,35.586l3.293-3.293a1,1,0,0,1,1.414,1.414L25.414,37Z" fill="#ed7064"></path></g></svg>