<svg xmlns="http://www.w3.org/2000/svg" height="48" width="48" viewBox="0 0 48 48"><title>online banking</title><g class="nc-icon-wrapper"><rect x="5" y="9" width="38" height="29" fill="#867fe8"></rect><path d="M40,6H8a4,4,0,0,0-4,4V35H44V10A4,4,0,0,0,40,6ZM6,32V10H42V32Z" fill="#444"></path><path d="M31,34v3H17V34H0a8,8,0,0,0,8,8H40a8,8,0,0,0,8-8Z" fill="#e6e6e6"></path><path d="M16,34H32v2a1,1,0,0,1-1,1H17a1,1,0,0,1-1-1Z" fill="#b3b3b3"></path><path d="M29.457,24.3a3.58,3.58,0,0,1-1.242,2.8,6.333,6.333,0,0,1-3.586,1.359V31H23.07V28.527a12.1,12.1,0,0,1-4.769-.89V25.164a11.874,11.874,0,0,0,2.355.826,10.637,10.637,0,0,0,2.414.346V21.953l-.984-.363a6.929,6.929,0,0,1-2.807-1.764,3.744,3.744,0,0,1-.884-2.537,3.3,3.3,0,0,1,1.259-2.66,6.25,6.25,0,0,1,3.416-1.266V11.4h1.559v1.933a12.919,12.919,0,0,1,4.512.961l-.856,2.145a12.551,12.551,0,0,0-3.656-.868v4.266l.891.34a8.138,8.138,0,0,1,3.082,1.8A3.34,3.34,0,0,1,29.457,24.3Zm-8.309-7.031a1.569,1.569,0,0,0,.416,1.113,4.283,4.283,0,0,0,1.506.879V15.613a2.732,2.732,0,0,0-1.429.575A1.376,1.376,0,0,0,21.148,17.266Zm5.543,7.207a1.458,1.458,0,0,0-.474-1.119,4.884,4.884,0,0,0-1.588-.85v3.738Q26.692,25.926,26.691,24.473Z" fill="#fff"></path></g></svg>