<svg xmlns="http://www.w3.org/2000/svg" height="48" width="48" viewBox="0 0 48 48"><title>payor</title><g class="nc-icon-wrapper"><path d="M40.236,37.618,29,32V22H17V32L5.764,37.618A5,5,0,0,0,3,42.09V45a1,1,0,0,0,1,1H42a1,1,0,0,0,1-1V42.09A5,5,0,0,0,40.236,37.618Z" fill="#335262" fill-rule="evenodd"></path><path d="M23,28A11.013,11.013,0,0,1,12,17V13a11,11,0,0,1,22,0v4A11.013,11.013,0,0,1,23,28Z" fill="#5a7a84"></path><circle cx="39" cy="39" r="8" fill="#72c472"></circle><path d="M43.707,38.293l-4-4a1,1,0,0,0-1.414,1.414L40.586,38H35a1,1,0,0,0,0,2h5.586l-2.293,2.293a1,1,0,1,0,1.414,1.414l4-4A1,1,0,0,0,43.707,38.293Z" fill="#fff"></path></g></svg>