<svg xmlns="http://www.w3.org/2000/svg" height="48" width="48" viewBox="0 0 48 48"><title>percentage 38</title><g class="nc-icon-wrapper"><path fill="#72C472" d="M24,1C11.31738,1,1,11.31787,1,24s10.31738,23,23,23s23-10.31787,23-23S36.68262,1,24,1z"></path> <path fill="#378937" d="M16,33c-0.25586,0-0.51172-0.09766-0.70703-0.29297c-0.39062-0.39062-0.39062-1.02344,0-1.41406l16-16 c0.39062-0.39062,1.02344-0.39062,1.41406,0s0.39062,1.02344,0,1.41406l-16,16C16.51172,32.90234,16.25586,33,16,33z"></path> <path fill="#378937" d="M17,21c-2.20605,0-4-1.79443-4-4s1.79395-4,4-4s4,1.79443,4,4S19.20605,21,17,21z M17,15 c-1.10254,0-2,0.89697-2,2s0.89746,2,2,2s2-0.89697,2-2S18.10254,15,17,15z"></path> <path fill="#378937" d="M31,35c-2.20605,0-4-1.79443-4-4s1.79395-4,4-4s4,1.79443,4,4S33.20605,35,31,35z M31,29 c-1.10254,0-2,0.89697-2,2s0.89746,2,2,2s2-0.89697,2-2S32.10254,29,31,29z"></path></g></svg>