<svg xmlns="http://www.w3.org/2000/svg" height="48" width="48" viewBox="0 0 48 48"><title>positive judgement</title><g class="nc-icon-wrapper"><path d="M24,11h0a5,5,0,0,1-5-5h0a5,5,0,0,1,5-5h0a5,5,0,0,1,5,5h0A5,5,0,0,1,24,11Z" fill="#5a7a84"></path><path d="M33,17a4,4,0,0,0-4-4H19a4,4,0,0,0-4,4v9H33Z" fill="#335262"></path><path d="M40,26H8a1,1,0,0,0,0,2h2V46a1,1,0,0,0,1,1H37a1,1,0,0,0,1-1V28h2a1,1,0,0,0,0-2Z" fill="#e6e6e6"></path><path d="M30.707,33.707l-8,8a1,1,0,0,1-1.414,0l-4-4a1,1,0,0,1,1.414-1.414L22,39.586l7.293-7.293a1,1,0,0,1,1.414,1.414Z" fill="#72c472"></path></g></svg>