<svg xmlns="http://www.w3.org/2000/svg" height="48" width="48" viewBox="0 0 48 48"><title>rate down</title><g class="nc-icon-wrapper"><path d="M30,11a5,5,0,1,1,5-5A5,5,0,0,1,30,11Zm0-8a3,3,0,1,0,3,3A3,3,0,0,0,30,3Z" fill="#aeaeae"></path><path d="M42,25a5,5,0,1,1,5-5A5,5,0,0,1,42,25Zm0-8a3,3,0,1,0,3,3A3,3,0,0,0,42,17Z" fill="#aeaeae"></path><path d="M27,25a1,1,0,0,1-.773-1.633l18-22a1,1,0,1,1,1.567,1.242l-.019.024-18,22A1,1,0,0,1,27,25Z" fill="#aeaeae"></path><path d="M14,47a1,1,0,0,1-.759-.35l-12-14A1,1,0,0,1,2,31H9V2a1,1,0,0,1,1-1h8a1,1,0,0,1,1,1V31h7a1,1,0,0,1,.759,1.65l-12,14A1,1,0,0,1,14,47Z" fill="#ff7163"></path></g></svg>