<svg xmlns="http://www.w3.org/2000/svg" height="48" width="48" viewBox="0 0 48 48"><title>refund</title><g class="nc-icon-wrapper"><path d="M24,1A22.808,22.808,0,0,0,10.669,5.258L7.4,2.485a1,1,0,0,0-1.639.638L4.368,14.19a1,1,0,0,0,.867,1.117.989.989,0,0,0,.394-.029L16.5,12.25a1,1,0,0,0,.379-1.726L13.847,7.955A18.989,18.989,0,1,1,5,24a2,2,0,0,0-4,0A23,23,0,1,0,24,1Z" fill="#aeaeae"></path><path d="M18.656,30.086l-.971-.242a.5.5,0,0,0-.606.364l-.485,1.94a.5.5,0,0,0,.364.606l.97.243A22.877,22.877,0,0,0,23,33.734V37h2V33.638a7.873,7.873,0,0,0,3.979-1.515A5.2,5.2,0,0,0,31,27.9c-.048-3.3-3.5-4.969-6-5.555V16.519a14.553,14.553,0,0,1,3.209.464l.961.277a.5.5,0,0,0,.619-.342h0L30.344,15A.5.5,0,0,0,30,14.38h0l-.961-.277A17.626,17.626,0,0,0,25,13.524V11H23v2.6a8.252,8.252,0,0,0-3.517,1.115,4.965,4.965,0,0,0-2.3,3.508c-.648,4.11,3.171,6.117,5.814,6.763v5.739A20.148,20.148,0,0,1,18.656,30.086ZM28,27.938a2.2,2.2,0,0,1-.884,1.833A4.673,4.673,0,0,1,25,30.6V25.453C26.38,25.9,27.983,26.742,28,27.938ZM20.148,18.7a2.033,2.033,0,0,1,.841-1.377,4.741,4.741,0,0,1,2.011-.7V21.85C21.7,21.4,19.873,20.459,20.148,18.7Z" fill="#363636"></path></g></svg>