<svg xmlns="http://www.w3.org/2000/svg" height="48" width="48" viewBox="0 0 48 48"><title>round pound</title><g class="nc-icon-wrapper"><circle fill="#EFD358" cx="24" cy="24" r="22"></circle> <path fill="#D8BC48" d="M24,47C11.31738,47,1,36.68213,1,24S11.31738,1,24,1s23,10.31787,23,23S36.68262,47,24,47z M24,3 C12.4209,3,3,12.42041,3,24s9.4209,21,21,21s21-9.42041,21-21S35.5791,3,24,3z"></path> <path fill="#B29930" d="M25,15c2.20605,0,4,1.79443,4,4c0,0.55225,0.44727,1,1,1s1-0.44775,1-1c0-3.30859-2.69141-6-6-6 s-6,2.69141-6,6v4h-3c-0.55273,0-1,0.44775-1,1s0.44727,1,1,1h3v6h-3c-0.55273,0-1,0.44775-1,1s0.44727,1,1,1h14 c0.55273,0,1-0.44775,1-1s-0.44727-1-1-1h-9v-6h5c0.55273,0,1-0.44775,1-1s-0.44727-1-1-1h-5v-4C21,16.79443,22.79395,15,25,15z"></path></g></svg>