<svg xmlns="http://www.w3.org/2000/svg" height="48" width="48" viewBox="0 0 48 48"><title>tie 02</title><g class="nc-icon-wrapper"><path fill="#223E49" d="M34.9248,28.61914l-7-17c-0.18799-0.45752-0.68555-0.70703-1.16504-0.58984 c-0.48096,0.11914-0.80225,0.57227-0.75537,1.06543l2,21c0.03516,0.36572,0.26758,0.68311,0.60547,0.82617 C28.73535,33.97412,28.86816,34,29,34c0.22314,0,0.44434-0.07471,0.62451-0.21924l5-4 C34.97168,29.50342,35.09375,29.03027,34.9248,28.61914z"></path> <path fill="#5A7A84" d="M19.98843,12h8.02332l4.83649-7.47021c0.19238-0.30811,0.20264-0.69678,0.02637-1.01465 S32.36386,3,32.00009,3h-16c-0.36377,0-0.69824,0.19727-0.87451,0.51514s-0.16602,0.70654,0.02637,1.01465L19.98843,12z"></path> <path fill="#335262" d="M28.01174,12h-8.02332L16.0118,37.84814c-0.05273,0.34131,0.0752,0.68604,0.3374,0.91113l7,6 C23.53671,44.91992,23.76815,45,24.00009,45s0.46338-0.08008,0.65088-0.24072l7-6c0.26221-0.2251,0.39014-0.56982,0.3374-0.91113 L28.01174,12z"></path></g></svg>