<svg xmlns="http://www.w3.org/2000/svg" height="16" width="16" viewBox="0 0 16 16"><title>bamboo</title><g fill="#61616b" class="nc-icon-wrapper"><path d="M11.5,5a.5.5,0,0,1-.5-.5A4.505,4.505,0,0,1,15.5,0a.5.5,0,0,1,.5.5A4.505,4.505,0,0,1,11.5,5Z" fill="#61616b" data-color="color-2"></path><path d="M11.5,16a.5.5,0,0,1-.5-.5A4.505,4.505,0,0,1,15.5,11a.5.5,0,0,1,.5.5A4.505,4.505,0,0,1,11.5,16Z" fill="#61616b" data-color="color-2"></path><path d="M.5,0A.5.5,0,0,0,0,.5a4.488,4.488,0,0,0,2.482,4A4.488,4.488,0,0,0,0,8.5.5.5,0,0,0,.5,9a4.5,4.5,0,0,0,0-9Z" fill="#61616b" data-color="color-2"></path><path d="M10,4.069V.5A.5.5,0,0,0,9.5,0h-3A.5.5,0,0,0,6,.5V4.069Z" fill="#61616b"></path><rect x="6" y="6.069" width="4" height="3.931" fill="#61616b"></rect><path d="M6,12v3.5a.5.5,0,0,0,.5.5h3a.5.5,0,0,0,.5-.5V12Z" fill="#61616b"></path></g></svg>