<svg xmlns="http://www.w3.org/2000/svg" height="48" width="48" viewBox="0 0 48 48"><title>bamboo 3</title><g fill="#61616b" class="nc-icon-wrapper"><path d="M46,45a11,11,0,0,1,0-22,1,1,0,0,1,1,1.058,10.031,10.031,0,0,1-9.941,9.939.273.273,0,0,1-.057,0v0c0,.032.032,0,.051,0h.006A10.029,10.029,0,0,1,47,43.94a1.06,1.06,0,0,1-.289.737A1.025,1.025,0,0,1,46,45Z" fill="#61616b" data-color="color-2"></path><path d="M2,25A11,11,0,1,0,2,3,1,1,0,0,0,1,4.055a10.031,10.031,0,0,0,9.941,9.939.273.273,0,0,0,.057,0v0c0,.032-.032,0-.051,0h-.006A10.029,10.029,0,0,0,1,23.94a1.06,1.06,0,0,0,.289.737A1.025,1.025,0,0,0,2,25Z" fill="#61616b" data-color="color-2"></path><rect x="15" y="15" width="7" height="8" fill="#61616b"></rect><path d="M15,35v9a1,1,0,0,0,1,1h5a1,1,0,0,0,1-1V35Z" fill="#61616b"></path><rect x="15" y="25" width="7" height="8" fill="#61616b"></rect><path d="M22,13V4a1,1,0,0,0-1-1H16a1,1,0,0,0-1,1v9Z" fill="#61616b"></path><rect x="26" y="15" width="7" height="8" fill="#61616b"></rect><path d="M26,35v9a1,1,0,0,0,1,1h5a1,1,0,0,0,1-1V35Z" fill="#61616b"></path><rect x="26" y="25" width="7" height="8" fill="#61616b"></rect><path d="M33,13V4a1,1,0,0,0-1-1H27a1,1,0,0,0-1,1v9Z" fill="#61616b"></path><path d="M36,15.051a1,1,0,0,1-1-1.058A11.013,11.013,0,0,1,46,3a1,1,0,0,1,1,1.058h0A11.012,11.012,0,0,1,36,15.051Z" fill="#61616b" data-color="color-2"></path></g></svg>