<svg xmlns="http://www.w3.org/2000/svg" height="16" width="16" viewBox="0 0 16 16"><title>bat 2</title><g fill="#61616b" class="nc-icon-wrapper"><path fill="#61616b" d="M13.0899658,1.4545288C13.0854492,3.2097168,11.6568604,4.6637573,10,5c0-0.6460571,0-3,0-3L9,3H7L6,2 c0,0,0,2.3539429,0,3C4.3431396,4.6637573,2.9145508,3.2097168,2.9100342,1.4545288C1.1459961,2.7815552,0,4.8859863,0,7.2634888 C0,8.6439819,0.3916626,9.9299316,1.0596313,11.02948c0.7226562-0.5305176,1.6115723-0.8476562,2.5767212-0.8476562 C5.8181763,10.1818237,8,14.5454102,8,14.5454102s2.1818237-4.3635864,4.3636475-4.3635864 c0.9651489,0,1.8540649,0.3171387,2.5767212,0.8476562C15.6083374,9.9299316,16,8.6439819,16,7.2634888 C16,4.8859863,14.8540039,2.7815552,13.0899658,1.4545288z"></path></g></svg>