<svg xmlns="http://www.w3.org/2000/svg" height="16" width="16" viewBox="0 0 16 16"><title>bee 2</title><g fill="#61616b" class="nc-icon-wrapper"><path d="M14.917,11c.603,0,1.088-.533,.996-1.129-.46-3.002-2.715-5.829-6.005-6.636,.273-.244,.46-.528,.46-.835,0-1.567-1.496-2.4-2.368-2.4s-2.368,.833-2.368,2.4c0,.307,.187,.592,.46,.835C2.802,4.042,.547,6.869,.087,9.871c-.091,.596,.393,1.129,.996,1.129h3.17s0,0,0,0c.501,1.566,1.818,5,3.746,5s3.244-3.434,3.745-5c0,0,0,0,0,0h3.171Zm-8.363-2.287c.056-.228,.114-.467,.175-.713h2.544c.06,.246,.119,.485,.175,.713,.12,.492,.277,.929,.493,1.287h-3.879c.216-.358,.373-.795,.493-1.287Zm1.705-4.737c.165,.634,.341,1.324,.517,2.024h-1.551c.176-.7,.351-1.39,.517-2.024,.243,.032,.274,.032,.517,0Zm-.259,9.981c-.306-.23-.796-.99-1.24-1.957h2.481c-.445,.967-.934,1.726-1.24,1.957Z" fill="#61616b"></path></g></svg>