<svg xmlns="http://www.w3.org/2000/svg" height="48" width="48" viewBox="0 0 48 48"><title>border collie 3</title><g fill="#61616b" class="nc-icon-wrapper"><path d="M40.038,12.793c-.011-.225,.128-.365,.188-.414,.071-.06,.222-.154,.415-.103,1.247,.3,2.39,.94,3.304,1.853,.249,.248,.607,.349,.949,.262,.34-.085,.611-.343,.714-.678,.26-.854,.392-1.739,.392-2.63,0-4.963-4.037-9-9-9-1.865,0-3.646,.56-5.152,1.618-1.358,.952-2.907,1.274-4.257,.883-2.291-.666-4.89-.666-7.183,0-1.346,.392-2.898,.069-4.255-.883-1.507-1.059-3.288-1.618-5.153-1.618C6.037,2.083,2,6.12,2,11.083c0,.891,.132,1.775,.392,2.63,.103,.335,.374,.593,.714,.678,.344,.087,.701-.014,.949-.262,.914-.912,2.057-1.553,3.303-1.853,.191-.051,.346,.043,.416,.103,.061,.049,.199,.189,.188,.414-.211,4.632-1.256,7.36-2.466,10.52-1.639,4.277-3.496,9.126-3.496,19.771,0,.347,.18,.668,.475,.851,.294,.183,.661,.198,.973,.044l3.105-1.553,1.469,2.938c.195,.391,.619,.612,1.054,.54,3.931-.633,7.298-3.026,9.232-6.466-1.958-.989-3.307-3.015-3.307-5.354,0-3.156,1.146-5.238,2.359-7.442,1.706-3.101,3.641-6.613,3.641-14.558,0-1.654,1.346-3,3-3s3,1.346,3,3c0,7.944,1.935,11.457,3.641,14.558,1.213,2.204,2.359,4.286,2.359,7.442,0,2.34-1.349,4.365-3.307,5.354,1.934,3.44,5.301,5.833,9.232,6.466,.054,.009,.106,.013,.159,.013,.374,0,.724-.21,.895-.553l1.469-2.938,3.105,1.553c.31,.154,.679,.14,.973-.044,.295-.183,.475-.504,.475-.851,0-10.645-1.857-15.493-3.496-19.771-1.21-3.159-2.255-5.888-2.466-10.52Zm-25.038,4.29c-1.105,0-2-.895-2-2s.895-2,2-2,2,.895,2,2-.895,2-2,2Zm18,0c-1.105,0-2-.895-2-2s.895-2,2-2,2,.895,2,2-.895,2-2,2Z" fill="#61616b"></path><path d="M24,31.083c-2.468,0-4,.92-4,2.4,0,1.539,1.978,3.6,4,3.6s4-2.061,4-3.6c0-1.48-1.532-2.4-4-2.4Z" fill="#61616b" data-color="color-2"></path></g></svg>