<svg xmlns="http://www.w3.org/2000/svg" height="32" width="32" viewBox="0 0 32 32"><title>border collie 4</title><g fill="#61616b" class="nc-icon-wrapper"><path d="M28.041,7.141c.785,.217,1.484,.674,2.022,1.322,.241,.29,.628,.424,.992,.336,.368-.084,.657-.367,.748-.733,.13-.526,.197-1.053,.197-1.565C32,2.972,29.174,.091,25.667,.002c-.054-.009-.11-.014-.167-.014-1.592,0-3.124,.583-4.313,1.642-.748,.667-1.773,.902-2.812,.646-1.491-.367-3.259-.367-4.752,0-1.038,.255-2.063,.021-2.811-.646C9.624,.571,8.092-.012,6.5-.012c-.056,0-.111,.005-.164,.014C2.827,.09,0,2.971,0,6.5c0,.513,.066,1.039,.197,1.565,.091,.366,.38,.649,.748,.733,.366,.088,.751-.046,.992-.336,.538-.648,1.237-1.105,2.044-1.31-.126,3.694-.845,5.819-1.677,8.279-1.08,3.194-2.304,6.815-2.304,14.567,0,.369,.203,.708,.528,.882,.324,.174,.718,.154,1.026-.05l1.911-1.273,.564,1.692c.15,.451,.601,.745,1.07,.676,2.748-.335,5.18-1.958,6.596-4.311-1.584-.697-2.695-2.277-2.695-4.116,0-1.985,.924-3.788,1.902-5.696,1.217-2.375,2.598-5.067,2.598-8.804,0-1.442,.956-3,2.5-3s2.5,1.558,2.5,3c0,3.736,1.38,6.429,2.598,8.804,.979,1.908,1.902,3.711,1.902,5.696,0,1.839-1.111,3.419-2.695,4.116,1.416,2.352,3.848,3.975,6.596,4.311,.041,.006,.082,.008,.122,.008,.426,0,.811-.271,.948-.684l.564-1.692,1.911,1.273c.306,.204,.702,.224,1.026,.05,.325-.174,.528-.513,.528-.882,0-7.752-1.224-11.372-2.304-14.566-.832-2.461-1.55-4.586-1.655-8.293ZM9,12.5c-.828,0-1.5-.672-1.5-1.5s.672-1.5,1.5-1.5,1.5,.672,1.5,1.5-.672,1.5-1.5,1.5Zm14,0c-.828,0-1.5-.672-1.5-1.5s.672-1.5,1.5-1.5,1.5,.672,1.5,1.5-.672,1.5-1.5,1.5Z" fill="#61616b"></path><path d="M16,26c-1.615,0-3-1.537-3-2.795,0-1.277,1.262-2.205,3-2.205s3,.928,3,2.205c0,1.259-1.385,2.795-3,2.795Z" fill="#61616b" data-color="color-2"></path></g></svg>