<svg xmlns="http://www.w3.org/2000/svg" height="16" width="16" viewBox="0 0 16 16"><title>border collie</title><g fill="#61616b" class="nc-icon-wrapper"><path d="M8,13c-.943,0-1.75-.923-1.75-1.679,0-.766,.736-1.321,1.75-1.321s1.75,.555,1.75,1.321c0,.756-.807,1.679-1.75,1.679Z" fill="#61616b" data-color="color-2"></path><path d="M14.021,3.59c.392,.107,.742,.337,1.011,.661,.12,.146,.311,.21,.497,.168,.184-.042,.328-.185,.373-.368,.065-.265,.098-.527,.098-.781C16,1.506,14.587,.065,12.833,.021c-.027-.005-.055-.007-.083-.007-.796,0-1.562,.292-2.156,.821-.374,.332-.886,.451-1.406,.322-.742-.184-1.632-.184-2.376,0-.518,.13-1.031,.011-1.405-.322C4.812,.306,4.046,.014,3.25,.014c-.028,0-.055,.002-.082,.007C1.414,.064,0,1.505,0,3.27c0,.254,.033,.517,.098,.781,.045,.184,.189,.326,.373,.368,.186,.042,.377-.022,.497-.168,.269-.324,.619-.553,1.022-.656-.063,1.848-.423,2.91-.839,4.141-.54,1.598-1.152,3.408-1.152,7.284,0,.185,.102,.354,.264,.44,.162,.089,.36,.077,.513-.024l.956-.637,.282,.846c.075,.226,.301,.372,.535,.338,1.374-.167,2.59-.979,3.298-2.155-.792-.349-1.347-1.139-1.347-2.058,0-.993,.462-1.895,.951-2.849,.609-1.188,1.299-2.533,1.299-4.401,0-.722,.478-1.5,1.25-1.5s1.25,.778,1.25,1.5c0,1.868,.69,3.214,1.299,4.401,.489,.954,.951,1.855,.951,2.849,0,.919-.556,1.709-1.347,2.058,.708,1.176,1.923,1.988,3.298,2.155,.021,.003,.041,.004,.061,.004,.212,0,.405-.136,.474-.342l.282-.846,.956,.637c.154,.102,.352,.113,.513,.024,.163-.087,.264-.256,.264-.44,0-3.876-.612-5.687-1.152-7.284-.416-1.23-.775-2.293-.828-4.146ZM4.5,6.5c-.551,0-1-.449-1-1s.449-1,1-1,1,.449,1,1-.449,1-1,1Zm7,0c-.552,0-1-.448-1-1s.448-1,1-1,1,.448,1,1-.448,1-1,1Z" fill="#61616b"></path></g></svg>