<svg xmlns="http://www.w3.org/2000/svg" height="24" width="24" viewBox="0 0 24 24"><title>border collie 5</title><g fill="#61616b" class="nc-icon-wrapper"><path d="M21.032,6.183c.398,.146,.764,.378,1.075,.685,.25,.247,.612,.344,.948,.259,.34-.087,.609-.344,.711-.679,.157-.517,.233-.99,.233-1.447,0-2.757-2.243-5-5.007-5-1.067,.007-2.119,.357-2.96,.987-.518,.388-1.208,.499-1.891,.308-1.326-.376-2.955-.377-4.284,0-.683,.194-1.374,.082-1.892-.307C7.125,.357,6.074,.007,5,0,2.243,0,0,2.243,0,5c0,.457,.076,.931,.233,1.447,.102,.335,.372,.592,.711,.679,.339,.085,.699-.012,.948-.259,.311-.307,.677-.538,1.075-.685-.13,2.284-.636,3.696-1.209,5.295-.824,2.299-1.758,4.904-1.758,10.522,0,.347,.18,.668,.474,.851,.294,.184,.663,.198,.973,.044l1.105-.553,.553,1.105c.21,.419,.68,.64,1.137,.522,.161-.04,3.458-.891,4.901-3.244-1.258-.531-2.144-1.777-2.144-3.226,0-1.291,.567-2.522,1.224-3.948,.833-1.809,1.776-3.858,1.776-6.552,0-2.783,1.531-3,2-3s2,.217,2,3c0,2.652,.924,4.643,1.74,6.399,.648,1.396,1.26,2.714,1.26,4.101,0,1.449-.886,2.695-2.144,3.226,1.443,2.352,4.74,3.203,4.901,3.244,.081,.021,.163,.03,.243,.03,.372,0,.722-.208,.895-.553l.553-1.105,1.105,.553c.31,.154,.678,.14,.973-.044,.294-.183,.474-.504,.474-.851,0-5.618-.934-8.224-1.758-10.522-.573-1.599-1.08-3.011-1.209-5.295Zm-14.532,3.317c-.552,0-1-.448-1-1s.448-1,1-1,1,.448,1,1-.448,1-1,1Zm11,0c-.552,0-1-.448-1-1s.448-1,1-1,1,.448,1,1-.448,1-1,1Z" fill="#61616b"></path><path d="M12,19.311c-1.108,0-2-.99-2-1.811,0-.869,.841-1.5,2-1.5s2,.631,2,1.5c0,.82-.892,1.811-2,1.811Z" fill="#61616b" data-color="color-2"></path></g></svg>