<svg xmlns="http://www.w3.org/2000/svg" height="64" width="64" viewBox="0 0 64 64"><title>border collie 2</title><g fill="#61616b" class="nc-icon-wrapper"><path d="M52.011,16.058c2.164,.248,4.189,1.285,5.671,2.929,.236,.263,.596,.379,.939,.312,.346-.069,.63-.315,.747-.648,.419-1.189,.632-2.418,.632-3.649,0-6.065-4.935-11-11-11-2.667,0-5.238,.97-7.241,2.729-1.43,1.256-3.223,1.673-4.795,1.117-3.188-1.123-6.74-1.123-9.928,0-1.572,.556-3.366,.139-4.795-1.117-2.003-1.76-4.574-2.729-7.241-2.729-6.065,0-11,4.935-11,11,0,1.231,.213,2.46,.632,3.649,.117,.333,.401,.579,.747,.648,.344,.065,.702-.049,.939-.311,1.183-1.312,2.697-2.242,4.383-2.688,.307-.084,.625-.012,.876,.191,.25,.201,.385,.497,.37,.812-.29,6.132-1.769,9.99-3.333,14.075-2.163,5.646-4.614,12.044-4.614,25.623,0,.36,.193,.692,.507,.87s.698,.173,1.008-.013l4.143-2.485,2.397,3.997c.206,.343,.593,.529,.993,.477,4.825-.661,8.934-3.581,11.174-7.797-2.511-1.351-4.222-4.003-4.222-7.049,0-4.752,1.528-7.524,3.146-10.459,2.041-3.7,4.354-7.895,4.354-18.041,0-2.481,2.019-4.5,4.5-4.5s4.5,2.019,4.5,4.5c0,10.146,2.312,14.341,4.354,18.041,1.618,2.935,3.146,5.707,3.146,10.459,0,3.045-1.711,5.698-4.222,7.049,2.24,4.216,6.35,7.136,11.174,7.797,.046,.006,.091,.009,.136,.009,.348,0,.675-.182,.857-.485l2.397-3.997,4.143,2.485c.31,.186,.694,.191,1.008,.013,.313-.178,.507-.51,.507-.87,0-13.579-2.451-19.978-4.614-25.624-1.729-4.516-3.235-8.445-3.375-15.318Zm-31.511,8.942c-1.381,0-2.5-1.119-2.5-2.5s1.119-2.5,2.5-2.5,2.5,1.119,2.5,2.5-1.119,2.5-2.5,2.5Zm23,0c-1.381,0-2.5-1.119-2.5-2.5s1.119-2.5,2.5-2.5,2.5,1.119,2.5,2.5-1.119,2.5-2.5,2.5Z" fill="#61616b"></path><path d="M34.5,16.5c0-1.381-1.119-2.5-2.5-2.5s-2.5,1.119-2.5,2.5c0,18.5-7.5,18.5-7.5,28.5,0,3.314,2.686,6,6,6,1.256,0,2.408-.404,3.371-1.065-2.329-.427-4.371-3.099-4.371-4.935,0-1.794,2.01-3,5-3s5,1.206,5,3c0,1.836-2.042,4.508-4.371,4.935,.963,.661,2.114,1.065,3.371,1.065,3.314,0,6-2.686,6-6,0-10-7.5-10-7.5-28.5Z" fill="#61616b" data-color="color-2"></path></g></svg>