<svg xmlns="http://www.w3.org/2000/svg" height="24" width="24" viewBox="0 0 24 24"><title>botany 5</title><g fill="#61616b" class="nc-icon-wrapper"><path d="M13,12V9.929A7.011,7.011,0,0,0,19,3a1,1,0,0,0-1-1,7.008,7.008,0,0,0-7,7v3Z" fill="#61616b" data-color="color-2"></path><path d="M15,13H9a1,1,0,0,0-1,1v2h2a1,1,0,0,1,0,2H8v2a4,4,0,0,0,8,0V14A1,1,0,0,0,15,13Z" fill="#61616b"></path><path d="M11.544,2.743A6.985,6.985,0,0,0,6,0,1,1,0,0,0,5,1,7,7,0,0,0,9.153,7.388,8.981,8.981,0,0,1,11.544,2.743Z" fill="#61616b" data-color="color-2"></path></g></svg>