<svg xmlns="http://www.w3.org/2000/svg" height="32" width="32" viewBox="0 0 32 32"><title>botany 4</title><g fill="#61616b" class="nc-icon-wrapper"><path d="M20,17H12a1,1,0,0,0-1,1v3h2.667a1,1,0,1,1,0,2H11v2h2.667a1,1,0,1,1,0,2H11a5,5,0,0,0,10,0V18A1,1,0,0,0,20,17Z" fill="#61616b"></path><path d="M15.86,4.628A9,9,0,0,0,8,0,1,1,0,0,0,7,1a9.014,9.014,0,0,0,6.278,8.577A10.954,10.954,0,0,1,15.86,4.628Z" fill="#61616b" data-color="color-2"></path><path d="M24,3a9.01,9.01,0,0,0-9,9v3h2V12.944A9.012,9.012,0,0,0,25,4,1,1,0,0,0,24,3Z" fill="#61616b" data-color="color-2"></path></g></svg>