<svg xmlns="http://www.w3.org/2000/svg" height="48" width="48" viewBox="0 0 48 48"><title>botany 3</title><g fill="#61616b" class="nc-icon-wrapper"><rect x="16" y="24" width="16" height="3" rx="1" fill="#61616b"></rect><path d="M18,29v3h3a1,1,0,0,1,0,2H18v3h3a1,1,0,0,1,0,2H18v3a6,6,0,0,0,12,0V29Z" fill="#61616b"></path><path d="M36,4a13,13,0,0,0-11.246,6.508A13.018,13.018,0,0,0,12,0a1,1,0,0,0-1,1A13.012,13.012,0,0,0,21,13.637V13a8.956,8.956,0,0,0-6.966-8.77,1,1,0,1,1,.449-1.949A10.947,10.947,0,0,1,23,13v9h2V17A10.947,10.947,0,0,1,33.517,6.281a1,1,0,0,1,.449,1.949A8.956,8.956,0,0,0,27,17v.637A13.014,13.014,0,0,0,37,5,1,1,0,0,0,36,4Z" fill="#61616b" data-color="color-2"></path></g></svg>