<svg xmlns="http://www.w3.org/2000/svg" height="48" width="48" viewBox="0 0 48 48"><title>bug 4</title><g fill="#61616b" class="nc-icon-wrapper"><path d="M33,12.028V12a7.6,7.6,0,0,0-2.91-5.874l2.7-3.517a1,1,0,1,0-1.586-1.218l-2.8,3.641a9.93,9.93,0,0,0-8.816,0l-2.8-3.641a1,1,0,0,0-1.586,1.218l2.7,3.517A7.6,7.6,0,0,0,15,12v.028A14.967,14.967,0,0,0,9,24v8a15,15,0,0,0,30,0V24A14.967,14.967,0,0,0,33,12.028Z" fill="#61616b"></path> <path data-color="color-2" d="M5.486,39.142a1,1,0,0,0-.434.542l-2,6a1,1,0,1,0,1.9.632l1.883-5.648,1.94-1.16a16.787,16.787,0,0,1-.786-1.861Z" fill="#61616b"></path> <path data-color="color-2" d="M7,27H2a1,1,0,0,0,0,2H7Z" fill="#61616b"></path> <path data-color="color-2" d="M4.948,9.684a1,1,0,0,0-1.9.632l2,6a1,1,0,0,0,.434.542l2.5,1.5a16.787,16.787,0,0,1,.786-1.861l-1.94-1.16Z" fill="#61616b"></path> <path data-color="color-2" d="M42.948,39.684a1,1,0,0,0-.434-.542l-2.5-1.5a16.787,16.787,0,0,1-.786,1.861l1.94,1.16,1.883,5.648a1,1,0,1,0,1.9-.632Z" fill="#61616b"></path> <path data-color="color-2" d="M46,27H41v2h5a1,1,0,0,0,0-2Z" fill="#61616b"></path> <path data-color="color-2" d="M42.514,16.858a1,1,0,0,0,.434-.542l2-6a1,1,0,1,0-1.9-.632l-1.883,5.648-1.94,1.16a16.787,16.787,0,0,1,.786,1.861Z" fill="#61616b"></path></g></svg>