<svg xmlns="http://www.w3.org/2000/svg" height="64" width="64" viewBox="0 0 64 64"><title>bug 3</title><g fill="#61616b" class="nc-icon-wrapper"><path data-color="color-2" d="M23.954,8.122a12.016,12.016,0,0,0-3.7,6.482,20.956,20.956,0,0,1,23.5,0,12.016,12.016,0,0,0-3.7-6.482l4.712-5.47a1,1,0,1,0-1.516-1.3L38.458,6.9a11.915,11.915,0,0,0-12.916,0L20.758,1.348a1,1,0,1,0-1.516,1.3Z" fill="#61616b"></path> <path data-color="color-2" d="M12.054,48.532l-4.55,2.6a1,1,0,0,0-.474.626l-2,8a1,1,0,0,0,.728,1.212A1.017,1.017,0,0,0,6,61a1,1,0,0,0,.969-.758l1.9-7.586,3.91-2.234Q12.371,49.5,12.054,48.532Z" fill="#61616b"></path> <path data-color="color-2" d="M11,36H3a1,1,0,0,0,0,2h8Z" fill="#61616b"></path> <path data-color="color-2" d="M12.776,23.578l-3.91-2.234-1.9-7.586a1,1,0,0,0-1.94.484l2,8a1,1,0,0,0,.474.626l4.55,2.6Q12.371,24.5,12.776,23.578Z" fill="#61616b"></path> <path data-color="color-2" d="M51.946,48.532l4.55,2.6a1,1,0,0,1,.474.626l2,8a1,1,0,0,1-.728,1.212A1.017,1.017,0,0,1,58,61a1,1,0,0,1-.969-.758l-1.9-7.586-3.91-2.234Q51.629,49.5,51.946,48.532Z" fill="#61616b"></path> <path data-color="color-2" d="M53,36h8a1,1,0,0,1,0,2H53Z" fill="#61616b"></path> <path data-color="color-2" d="M51.224,23.578l3.91-2.234,1.9-7.586a1,1,0,1,1,1.94.484l-2,8a1,1,0,0,1-.474.626l-4.55,2.6Q51.63,24.5,51.224,23.578Z" fill="#61616b"></path> <path d="M32,13A19.021,19.021,0,0,0,13,32V42a19,19,0,0,0,38,0V32A19.021,19.021,0,0,0,32,13Z" fill="#61616b"></path></g></svg>