<svg xmlns="http://www.w3.org/2000/svg" height="24" width="24" viewBox="0 0 24 24"><title>bug</title><g fill="#61616b" class="nc-icon-wrapper"><path data-color="color-2" d="M12,3A8.964,8.964,0,0,1,16,3.951a4,4,0,0,0-7.99,0A8.964,8.964,0,0,1,12,3Z" fill="#61616b"></path> <path d="M24,7V6H22V7a2,2,0,0,1-2,2h-.589A7.992,7.992,0,0,0,4.589,9H4A2,2,0,0,1,2,7V6H0V7a4,4,0,0,0,4,4h.069A8.047,8.047,0,0,0,4,12v1H0v2H4v1a8.047,8.047,0,0,0,.069,1H4a4,4,0,0,0-4,4v1H2V21a2,2,0,0,1,2-2h.589a7.992,7.992,0,0,0,14.822,0H20a2,2,0,0,1,2,2v1h2V21a4,4,0,0,0-4-4h-.069A8.047,8.047,0,0,0,20,16V15h4V13H20V12a8.047,8.047,0,0,0-.069-1H20A4,4,0,0,0,24,7Z" fill="#61616b"></path></g></svg>