<svg xmlns="http://www.w3.org/2000/svg" height="16" width="16" viewBox="0 0 16 16"><title>cactus 2</title><g fill="#61616b" class="nc-icon-wrapper"><path d="M14,10H2c-.552,0-1,.448-1,1s.448,1,1,1h1v2c0,1.105,.895,2,2,2h6c1.105,0,2-.895,2-2v-2h1c.552,0,1-.448,1-1s-.448-1-1-1Z" fill="#61616b"></path><path d="M14.5,6h-1.601c-.13-.637-.384-1.228-.732-1.753l1.136-1.136c.195-.195,.195-.512,0-.707l-.707-.707c-.195-.195-.512-.195-.707,0l-1.136,1.136c-.523-.347-1.118-.588-1.753-.719V.5c0-.276-.224-.5-.5-.5h-1c-.276,0-.5,.224-.5,.5v1.614c-.635,.131-1.23,.372-1.753,.719l-1.136-1.136c-.195-.195-.512-.195-.707,0l-.707,.707c-.195,.195-.195,.512,0,.707l1.136,1.136c-.348,.524-.602,1.116-.732,1.753H1.5c-.276,0-.5,.224-.5,.5v1c0,.276,.224,.5,.5,.5h1.5v1h2v-2c0-1.654,1.346-3,3-3s3,1.346,3,3v2h2v-1h1.5c.276,0,.5-.224,.5-.5v-1c0-.276-.224-.5-.5-.5Z" fill="#61616b" data-color="color-2"></path></g></svg>