<svg xmlns="http://www.w3.org/2000/svg" height="48" width="48" viewBox="0 0 48 48"><title>cactus 4</title><g fill="#61616b" class="nc-icon-wrapper"><path d="M43,30H5c-.6,0-1,.4-1,1v2c0,.6,.4,1,1,1H43c.6,0,1-.4,1-1v-2c0-.6-.4-1-1-1Z" fill="#61616b"></path><path d="M9,36v8c0,1.657,1.343,3,3,3h24c1.657,0,3-1.343,3-3v-8H9Z" fill="#61616b"></path><path d="M11,21v7h26v-7h3c.552,0,1-.448,1-1s-.448-1-1-1h-3v-1c0-3.225-1.181-6.179-3.132-8.454l2.839-2.839c.391-.391,.391-1.023,0-1.414-.391-.391-1.023-.391-1.414,0l-2.85,2.85c-2.036-1.747-4.611-2.877-7.443-3.094V2c0-.552-.448-1-1-1s-1,.448-1,1v3.051c-2.834,.218-5.384,1.367-7.398,3.137l-2.895-2.895c-.391-.391-1.023-.391-1.414,0-.391,.391-.391,1.023,0,1.414l2.914,2.914c-1.999,2.375-3.207,5.453-3.207,8.756v.623h-3c-.552,0-1,.448-1,1s.448,1,1,1h3Z" fill="#61616b" data-color="color-2"></path></g></svg>