<svg xmlns="http://www.w3.org/2000/svg" height="64" width="64" viewBox="0 0 64 64"><title>cactus 3</title><g fill="#61616b" class="nc-icon-wrapper"><path d="M52,21h-4.051c-.228-3.658-1.683-6.981-3.968-9.568l2.867-2.867c.391-.391,.391-1.023,0-1.414s-1.023-.391-1.414,0l-2.867,2.867c-2.587-2.284-5.91-3.74-9.568-3.968V2c0-.552-.448-1-1-1s-1,.448-1,1V6.051c-3.658,.228-6.981,1.683-9.568,3.968l-2.867-2.867c-.391-.391-1.023-.391-1.414,0s-.391,1.023,0,1.414l2.867,2.867c-2.284,2.587-3.74,5.91-3.968,9.568h-4.051c-.552,0-1,.448-1,1s.448,1,1,1h4v11c0,.552,.448,1,1,1h30c.552,0,1-.448,1-1v-11h4c.552,0,1-.448,1-1s-.448-1-1-1Z" fill="#61616b" data-color="color-2"></path><rect x="8" y="38" width="48" height="6" rx="1" ry="1" fill="#61616b"></rect><path d="M14,46v11c0,3.309,2.691,6,6,6h24c3.309,0,6-2.691,6-6v-11H14Z" fill="#61616b"></path></g></svg>