<svg xmlns="http://www.w3.org/2000/svg" height="32" width="32" viewBox="0 0 32 32"><title>cactus 5</title><g fill="#61616b" class="nc-icon-wrapper"><path data-color="color-2" d="M5,13H7v7H25V13h2a1,1,0,0,0,0-2H24.941a8.956,8.956,0,0,0-1.916-4.611l1.46-1.46a1,1,0,0,0-1.414-1.414l-1.46,1.46A8.953,8.953,0,0,0,17,3.059V1a1,1,0,0,0-2,0V3.059a8.953,8.953,0,0,0-4.611,1.916l-1.46-1.46A1,1,0,0,0,7.515,4.929l1.46,1.46A8.956,8.956,0,0,0,7.059,11H5a1,1,0,0,0,0,2Z" fill="#61616b"></path><path d="M28,22H4a1,1,0,0,0,0,2H6v4a4,4,0,0,0,4,4H22a4,4,0,0,0,4-4V24h2a1,1,0,0,0,0-2Z" fill="#61616b"></path></g></svg>