<svg xmlns="http://www.w3.org/2000/svg" height="24" width="24" viewBox="0 0 24 24"><title>cactus</title><g fill="#61616b" class="nc-icon-wrapper"><path d="M21,17H3a1,1,0,0,0,0,2H4v2a3,3,0,0,0,3,3H17a3,3,0,0,0,3-3V19h1a1,1,0,0,0,0-2Z" fill="#61616b"></path><path data-color="color-2" d="M4,11H5v4H19V11h1a1,1,0,0,0,0-2H19a6.953,6.953,0,0,0-1.4-4.184l1.109-1.109a1,1,0,1,0-1.414-1.414L16.184,3.4A6.947,6.947,0,0,0,13,2.08V1a1,1,0,0,0-2,0V2.08A6.947,6.947,0,0,0,7.816,3.4L6.707,2.293A1,1,0,0,0,5.293,3.707L6.4,4.816A6.953,6.953,0,0,0,5,9H4a1,1,0,0,0,0,2Z" fill="#61616b"></path></g></svg>