<svg xmlns="http://www.w3.org/2000/svg" height="16" width="16" viewBox="0 0 16 16"><title>cat 2</title><g fill="#61616b" class="nc-icon-wrapper"><path d="M14.383,.076c-.373-.155-.803-.069-1.09,.217l-2.707,2.707H5.414L2.707,.293C2.421,.007,1.992-.079,1.617,.076c-.374,.155-.617,.52-.617,.924V9c0,3.86,3.141,7,7,7s7-3.14,7-7V1c0-.404-.243-.769-.617-.924ZM5,9c-.552,0-1-.448-1-1s.448-1,1-1,1,.448,1,1-.448,1-1,1Zm4.854,1.854l-1.5,1.5c-.098,.098-.226,.146-.354,.146s-.256-.049-.354-.146l-1.5-1.5c-.143-.143-.186-.358-.108-.545,.077-.187,.26-.309,.462-.309h3c.202,0,.385,.122,.462,.309,.078,.187,.035,.402-.108,.545Zm1.146-1.854c-.552,0-1-.448-1-1s.448-1,1-1,1,.448,1,1-.448,1-1,1Z" fill="#61616b"></path></g></svg>