<svg xmlns="http://www.w3.org/2000/svg" height="64" width="64" viewBox="0 0 64 64"><title>cat 3</title><g fill="#61616b" class="nc-icon-wrapper"><path d="M62.816,37.017l-4.086,.766c.174-1.237,.271-2.499,.271-3.783,0-2.636-1.037-7.373-1.081-7.573L52.977,3.787c-.075-.341-.322-.619-.652-.732-.33-.114-.696-.046-.965,.178l-7.714,6.428c-3.673-1.766-7.587-2.66-11.646-2.66s-7.973,.895-11.646,2.66L12.64,3.232c-.269-.224-.635-.292-.965-.178-.331,.113-.578,.391-.652,.732L6.081,26.427c-.044,.2-1.081,4.937-1.081,7.573,0,1.284,.096,2.546,.271,3.783l-4.086-.766c-.542-.104-1.065,.255-1.167,.799-.102,.542,.256,1.065,.799,1.167l9.052,1.697c.561,.105,.536,.917-.03,.988l-3.574,.445c.567,1.795,1.308,3.514,2.219,5.127l-4.647,.774c-.544,.091-.913,.606-.822,1.151,.082,.489,.505,.835,.985,.835,.054,0,.11-.004,.166-.014l10.338-1.723c.565-.094,.819,.682,.307,.94l-3.702,1.862c4.956,6.055,12.476,9.935,20.892,9.935s15.937-3.879,20.892-9.935l-3.702-1.862c-.512-.258-.258-1.034,.307-.94l10.338,1.723c.056,.009,.111,.014,.166,.014,.48,0,.904-.347,.985-.835,.091-.545-.277-1.06-.822-1.151l-4.647-.774c.911-1.613,1.652-3.331,2.219-5.127l-3.574-.445c-.566-.07-.591-.882-.03-.988l9.052-1.697c.543-.102,.9-.625,.799-1.167-.102-.543-.625-.902-1.167-.799ZM23.5,27c1.93,0,3.5,1.57,3.5,3.5s-1.57,3.5-3.5,3.5-3.5-1.57-3.5-3.5,1.57-3.5,3.5-3.5Zm19.168,24.217c-1.285,1.15-2.942,1.783-4.668,1.783-2.534,0-4.768-1.332-6-3.403-1.232,2.071-3.466,3.403-6,3.403-1.726,0-3.383-.633-4.668-1.783-.412-.368-.446-1-.078-1.412,.369-.411,1-.447,1.412-.078,.917,.821,2.102,1.273,3.334,1.273,2.071,0,3.92-1.311,4.655-3.198-.09-.083-.179-.168-.255-.269l-4-5.333c-.458-.61-.53-1.413-.189-2.094,.341-.682,1.026-1.106,1.789-1.106h8c.763,0,1.448,.424,1.789,1.106,.341,.682,.268,1.484-.189,2.094l-4,5.333c-.076,.101-.165,.186-.255,.269,.735,1.887,2.584,3.198,4.655,3.198,1.232,0,2.417-.452,3.334-1.273,.413-.369,1.043-.333,1.412,.078,.368,.412,.333,1.044-.078,1.412Zm-2.168-17.217c-1.93,0-3.5-1.57-3.5-3.5s1.57-3.5,3.5-3.5,3.5,1.57,3.5,3.5-1.57,3.5-3.5,3.5Z" fill="#61616b"></path></g></svg>