<svg xmlns="http://www.w3.org/2000/svg" height="48" width="48" viewBox="0 0 48 48"><title>cat 4</title><g fill="#61616b" class="nc-icon-wrapper"><path d="M46.835,27.014l-3.869,.645c.008-.22,.033-.436,.033-.658V3c0-.385-.221-.734-.566-.901-.345-.167-.758-.12-1.059,.12l-9.501,7.602c-1.259-.59-4.314-1.82-7.874-1.82s-6.615,1.23-7.874,1.82L6.625,2.219c-.301-.24-.714-.287-1.059-.12-.346,.167-.566,.517-.566,.901V27c0,.222,.026,.438,.033,.658l-3.869-.645c-.549-.09-1.06,.278-1.151,.822-.091,.545,.277,1.06,.822,1.151l7.854,1.309c.551,.092,.56,.88,.011,.984l-3.034,.576c.299,1.131,.688,2.226,1.182,3.265l-4.065,.903c-.539,.12-.879,.654-.759,1.193,.104,.466,.517,.783,.975,.783,.072,0,.145-.008,.218-.024l6.854-1.523c.513-.114,.832,.54,.426,.874l-1.517,1.249c3.475,4.504,8.904,7.424,15.02,7.424s11.546-2.92,15.02-7.424l-1.517-1.249c-.406-.334-.087-.988,.426-.874l6.854,1.523c.073,.016,.146,.024,.218,.024,.458,0,.872-.317,.975-.783,.12-.539-.22-1.073-.759-1.193l-4.065-.903c.494-1.039,.883-2.134,1.182-3.265l-3.034-.576c-.549-.104-.54-.893,.011-.984l7.854-1.309c.544-.091,.913-.606,.822-1.151-.091-.544-.602-.912-1.151-.822ZM14,23c0-1.105,.895-2,2-2s2,.895,2,2-.895,2-2,2-2-.895-2-2Zm18.59,15.808c-1.042,.78-2.283,1.192-3.59,1.192-2.097,0-3.93-1.071-5-2.725-1.07,1.654-2.903,2.725-5,2.725-1.307,0-2.548-.412-3.59-1.192-.442-.331-.533-.958-.202-1.399,.33-.442,.956-.534,1.399-.202,.694,.52,1.521,.794,2.393,.794,1.777,0,3.281-1.145,3.792-2.794l-2.475-2.475c-.459-.459-.596-1.144-.347-1.744,.248-.6,.828-.987,1.478-.987h5.104c.649,0,1.229,.388,1.478,.987,.249,.601,.112,1.285-.347,1.744l-2.475,2.475c.511,1.649,2.015,2.794,3.792,2.794,.871,0,1.698-.274,2.393-.794,.443-.332,1.069-.24,1.399,.202,.331,.441,.24,1.068-.202,1.399Zm-.59-13.808c-1.105,0-2-.895-2-2s.895-2,2-2,2,.895,2,2-.895,2-2,2Z" fill="#61616b"></path></g></svg>