<svg xmlns="http://www.w3.org/2000/svg" height="32" width="32" viewBox="0 0 32 32"><title>cat 5</title><g fill="#61616b" class="nc-icon-wrapper"><path d="M29.449,13.108L26.977,1.787c-.074-.342-.321-.619-.652-.733-.327-.112-.695-.045-.965,.178l-3.613,3.012c-3.637-1.65-7.855-1.65-11.492,0L6.641,1.231c-.269-.223-.636-.29-.965-.178-.331,.114-.578,.392-.652,.733L2.552,13.106c-.022,.103-.552,2.521-.552,3.894,0,7.72,6.28,14,14,14s14-6.28,14-14c0-1.371-.528-3.789-.551-3.892Zm-17.449-.108c1.105,0,2,.895,2,2s-.895,2-2,2-2-.895-2-2,.895-2,2-2Zm9.668,12.979c-.733,.658-1.682,1.021-2.668,1.021-1.188,0-2.263-.511-3-1.348-.737,.837-1.812,1.348-3,1.348-.986,0-1.935-.362-2.668-1.021-.411-.368-.445-1.001-.076-1.412,.37-.41,1.001-.444,1.412-.076,.366,.328,.839,.509,1.332,.509,.729,0,1.386-.408,1.735-1.018l-1.936-2.582c-.343-.456-.397-1.059-.142-1.569,.256-.512,.77-.83,1.342-.83h4c.572,0,1.086,.318,1.342,.83,.256,.511,.201,1.113-.142,1.57l-1.936,2.581c.349,.611,1.007,1.019,1.736,1.019,.493,0,.966-.181,1.332-.509,.411-.369,1.042-.335,1.412,.076,.369,.411,.335,1.044-.076,1.412Zm-1.668-8.979c-1.105,0-2-.895-2-2s.895-2,2-2,2,.895,2,2-.895,2-2,2Z" fill="#61616b"></path></g></svg>