<svg xmlns="http://www.w3.org/2000/svg" height="48" width="48" viewBox="0 0 48 48"><title>chicken front 3</title><g fill="#61616b" class="nc-icon-wrapper"><path d="M24,15c-1.654,0-3-1.346-3-3,0-2.06-.418-3.219-.821-4.34-.334-.925-.679-1.882-.679-3.16,0-2.481,2.019-4.5,4.5-4.5s4.5,2.019,4.5,4.5c0,1.278-.345,2.235-.679,3.16-.403,1.121-.821,2.28-.821,4.34,0,1.654-1.346,3-3,3Z" fill="#61616b" data-color="color-2"></path><path d="M16.724,40.342l-4.132-2.755-8.141,2.713-.633,5.026c-.043,.341,.092,.68,.357,.898,.267,.218,.626,.286,.951,.175l6.634-2.212,4.649,2.79c.277,.166,.614,.189,.908,.062l.55-.236c-.858-1.22-1.367-2.702-1.367-4.304,0-.709,.084-1.433,.224-2.158Z" fill="#61616b"></path><path d="M35.408,37.587l-4.132,2.755c.14,.725,.224,1.449,.224,2.158,0,1.602-.509,3.084-1.367,4.304l.55,.236c.126,.055,.26,.081,.394,.081,.179,0,.356-.048,.515-.143l4.649-2.79,6.634,2.212c.325,.11,.685,.042,.951-.175,.266-.219,.4-.558,.357-.898l-.633-5.026-8.141-2.713Z" fill="#61616b"></path><path d="M24,48c-3.032,0-5.5-2.468-5.5-5.5,0-4.778,4.508-10.845,4.7-11.101,.377-.504,1.223-.504,1.6,0,.192,.256,4.7,6.322,4.7,11.101,0,3.032-2.468,5.5-5.5,5.5Z" fill="#61616b" data-color="color-2"></path><path d="M28.242,23.758c-1.132-1.134-2.639-1.758-4.242-1.758s-3.11,.624-4.242,1.758c-.391,.391-.391,1.023,0,1.414l3.535,3.535c.195,.195,.451,.293,.707,.293s.512-.098,.707-.293l3.535-3.535c.391-.391,.391-1.023,0-1.414Z" fill="#61616b"></path><path d="M40.822,18.663c-.842-6.11-4.939-11.109-10.374-13.364-.114,1.235-.452,2.227-.746,3.041-.377,1.048-.702,1.952-.702,3.66,0,2.757-2.243,5-5,5s-5-2.243-5-5c0-1.708-.325-2.612-.702-3.658-.294-.815-.632-1.807-.746-3.041-5.436,2.257-9.534,7.262-10.378,13.386l-2.446,19.414,7.695-2.565c.292-.101,.614-.057,.871,.116l3.97,2.647c1.325-4.005,3.949-7.586,4.338-8.101,.05-.067,.117-.118,.173-.181l-3.431-3.431c-1.17-1.17-1.17-3.072,0-4.242,1.508-1.511,3.518-2.344,5.656-2.344s4.148,.833,5.657,2.345c1.169,1.169,1.169,3.071,0,4.241l-3.431,3.431c.057,.063,.125,.116,.176,.184,.386,.513,3.01,4.092,4.335,8.097l3.97-2.647c.257-.173,.579-.217,.871-.116l7.695,2.565-2.45-19.437Zm-25.822,1.337c-1.105,0-2-.895-2-2s.895-2,2-2,2,.895,2,2-.895,2-2,2Zm18,0c-1.105,0-2-.895-2-2s.895-2,2-2,2,.895,2,2-.895,2-2,2Z" fill="#61616b"></path></g></svg>