<svg xmlns="http://www.w3.org/2000/svg" height="16" width="16" viewBox="0 0 16 16"><title>chicken 2 2</title><g fill="#61616b" class="nc-icon-wrapper"><circle cx="7" cy="10" r="1" fill="#61616b" data-color="color-2"></circle><path d="M15,5c0-1.105-.895-2-2-2,0-1.957-1.874-3.476-3.926-2.862-.877,.263-1.598,.957-1.896,1.823-.271,.786-.216,1.545,.053,2.192-2.425,.574-4.231,2.747-4.231,5.347v.1l-2.271,1.363c-.709,.425-.625,1.479,.143,1.786l2.128,.851v2.4H14v-6.5c0-.916-.227-1.778-.624-2.538,.924-.176,1.624-.986,1.624-1.962Zm-3,9H5v-4.5c0-1.93,1.57-3.5,3.5-3.5s3.5,1.57,3.5,3.5v4.5Z" fill="#61616b"></path></g></svg>