<svg xmlns="http://www.w3.org/2000/svg" height="24" width="24" viewBox="0 0 24 24"><title>chicken front 5</title><g fill="#61616b" class="nc-icon-wrapper"><ellipse cx="12" cy="3" rx="1.5" ry="3" fill="#61616b" data-color="color-2"></ellipse><path d="M20.955,10.092s0-.009-.001-.014c-.344-3.38-2.512-6.144-5.472-7.378,.004,.102,.019,.196,.019,.3,0,2.897-1.472,5-3.5,5s-3.5-2.103-3.5-5c0-.104,.016-.198,.019-.3-2.961,1.235-5.129,4.002-5.474,7.392l-1.042,11.82c-.03,.336,.112,.664,.376,.873,.265,.208,.616,.271,.936,.163l2.684-.895,1.654,.551c-.091-.356-.154-.722-.154-1.105,0-3.134,2.66-6.416,2.963-6.78l.571-.685-1.286-1.286c-.188-.188-.194-.489-.021-.691,.548-.645,1.36-1.057,2.273-1.057s1.725,.412,2.273,1.057c.172,.203,.167,.503-.021,.691l-1.286,1.286,.571,.685c.303,.364,2.963,3.646,2.963,6.78,0,.383-.063,.749-.154,1.105l1.654-.551,2.684,.895c.104,.035,.21,.052,.316,.052,.222,0,.441-.074,.62-.215,.265-.209,.406-.537,.376-.873l-1.042-11.82Zm-13.455,.658c-.689,0-1.25-.561-1.25-1.25s.561-1.25,1.25-1.25,1.25,.561,1.25,1.25-.561,1.25-1.25,1.25Zm9,0c-.689,0-1.25-.561-1.25-1.25s.561-1.25,1.25-1.25,1.25,.561,1.25,1.25-.561,1.25-1.25,1.25Z" fill="#61616b"></path><path d="M14.5,21.5c0,1.381-1.119,2.5-2.5,2.5s-2.5-1.119-2.5-2.5c0-2.5,2.5-5.5,2.5-5.5,0,0,2.5,3,2.5,5.5Z" fill="#61616b" data-color="color-2"></path></g></svg>