<svg xmlns="http://www.w3.org/2000/svg" height="32" width="32" viewBox="0 0 32 32"><title>chicken 2 5</title><g fill="#61616b" class="nc-icon-wrapper"><path fill="#61616b" d="M18.5,7C12.15869,7,7,12.15918,7,18.5v0.88184l-5.44727,2.72363C1.21387,22.27539,1,22.62109,1,23 s0.21387,0.72461,0.55273,0.89453L7,26.61816V31c0,0.55273,0.44775,1,1,1h21c0.55225,0,1-0.44727,1-1V18.5 C30,12.15918,24.84131,7,18.5,7z M15,20c-1.10455,0-2-0.89545-2-2c0-1.10461,0.89545-2,2-2s2,0.89539,2,2 C17,19.10455,16.10455,20,15,20z"></path> <path data-color="color-2" fill="#61616b" d="M18.5,5c5.58521,0,10.38892,3.40936,12.4397,8.25629 c0.55359-0.82092,0.87866-1.7663,0.87866-2.71039c0-2.48828-1.79395-4.56543-4.15576-5.00586 C27.21729,2.41309,24.52148,0,21.27295,0c-3.23456,0-5.91315,2.3941-6.37622,5.50146C16.04565,5.1825,17.25092,5,18.5,5z"></path></g></svg>