<svg xmlns="http://www.w3.org/2000/svg" height="64" width="64" viewBox="0 0 64 64"><title>chicken front 2</title><g fill="#61616b" class="nc-icon-wrapper"><path d="M48.258,51.954l-4.901,2.101c-.862,.37-1.827,.424-2.726,.155l-.908-.272c.231,1.077,.377,2.118,.377,3.062,0,1.511-.429,2.92-1.159,4.126l2.773,.832c.094,.028,.19,.042,.287,.042,.135,0,.269-.027,.394-.081l6.69-2.867,7.674,1.918c.316,.08,.656-.002,.903-.22s.371-.543,.332-.869l-.732-6.087-7.729-1.941c-.425-.107-.873-.071-1.275,.102Z" fill="#61616b"></path><path d="M24.44,54.12l-.301,.09c-.899,.27-1.863,.215-2.726-.155l-4.901-2.101c-.402-.173-.85-.208-1.275-.102l-8.522,2.14-.708,5.888c-.039,.326,.085,.651,.332,.869,.246,.218,.585,.301,.903,.22l7.674-1.918,6.69,2.867c.216,.092,.457,.106,.682,.039l2.94-.882c-.712-1.195-1.128-2.586-1.128-4.076,0-.891,.132-1.869,.34-2.88Z" fill="#61616b"></path><path d="M53.86,25.504c-.965-8.535-6.734-15.443-14.429-18.2-.079,.57-.221,1.227-.403,2.044-.422,1.898-.996,4.478-1.027,7.403-.032,3.021-2.106,5.741-5.095,6.181-3.709,.546-6.906-2.327-6.906-5.933,0-3.027-.595-5.7-1.028-7.651-.182-.817-.324-1.475-.403-2.045-7.694,2.757-13.464,9.663-14.428,18.193l-3.17,26.37,7.78-1.954c.849-.213,1.745-.142,2.55,.203l4.901,2.1c.431,.185,.913,.212,1.363,.077l1.453-.436c1.426-4.746,4.062-9.595,4.461-10.313,.097-.174,.227-.323,.356-.471l-4.195-4.195c-1.17-1.17-1.17-3.072,0-4.242,1.698-1.7,3.959-2.637,6.363-2.637s4.665,.937,6.364,2.637c1.169,1.17,1.169,3.072,0,4.242l-4.082,4.082c.167,.174,.318,.364,.438,.579,.396,.713,2.967,5.446,4.406,10.131l2.08,.624c.449,.135,.932,.107,1.363-.077l4.901-2.1c.805-.345,1.701-.416,2.55-.203l6.986,1.754-3.145-26.164Zm-33.36,1.496c-1.381,0-2.5-1.119-2.5-2.5s1.119-2.5,2.5-2.5,2.5,1.119,2.5,2.5-1.119,2.5-2.5,2.5Zm23,0c-1.381,0-2.5-1.119-2.5-2.5s1.119-2.5,2.5-2.5,2.5,1.119,2.5,2.5-1.119,2.5-2.5,2.5Z" fill="#61616b"></path><path d="M36.949,34.051c-1.321-1.322-3.079-2.051-4.949-2.051s-3.628,.729-4.949,2.051c-.391,.391-.391,1.023,0,1.414l4.242,4.242c.195,.195,.451,.293,.707,.293s.512-.098,.707-.293l4.242-4.242c.391-.391,.391-1.023,0-1.414Z" fill="#61616b"></path><path d="M32.099,63c-3.309,0-6-2.691-6-6,0-5.203,4.917-14.108,5.126-14.485,.354-.633,1.395-.633,1.748,0,.209,.377,5.126,9.282,5.126,14.485,0,3.309-2.691,6-6,6Z" fill="#61616b" data-color="color-2"></path><path d="M32,21c-2.206,0-4-1.794-4-4,0-5-1.5-9.044-1.5-10.5,0-3.032,2.468-5.5,5.5-5.5s5.5,2.468,5.5,5.5c0,1.456-1.5,5.5-1.5,10.5,0,2.206-1.794,4-4,4Z" fill="#61616b" data-color="color-2"></path></g></svg>