<svg xmlns="http://www.w3.org/2000/svg" height="16" width="16" viewBox="0 0 16 16"><title>chicken front</title><g fill="#61616b" class="nc-icon-wrapper"><path d="M8,15.5c-.551,0-1-.448-1-1,0-.808,.554-1.889,1-2.606,.446,.718,1,1.799,1,2.606,0,.552-.449,1-1,1Z" fill="#61616b" data-color="color-2"></path><path d="M13.973,6.42c-.014-.144-.061-.42-.061-.42-.409-2.433-2.29-4.341-4.69-4.842-.215-.682-.679-1.158-1.222-1.158s-1.007,.476-1.222,1.158C4.379,1.659,2.501,3.567,2.092,6c0,0-.048,.26-.061,.396L1.007,14.88c-.044,.366,.116,.726,.417,.938,.3,.212,.693,.24,1.023,.077l1.553-.776,1.553,.776c.139,.069,.292,.105,.447,.105h.013c-.317-.419-.513-.935-.513-1.5,0-1.782,1.526-3.868,1.7-4.1l.086-.115-1.014-1.014c-.222-.222-.192-.599,.07-.773,.475-.315,1.045-.499,1.658-.499s1.183,.184,1.658,.499c.262,.174,.292,.551,.07,.773l-1.014,1.014,.086,.114c.174,.231,1.7,2.317,1.7,4.1,0,.565-.195,1.081-.513,1.5h.013c.155,0,.309-.036,.447-.105l1.553-.776,1.553,.776c.142,.07,.294,.105,.447,.105,.203,0,.404-.062,.576-.183,.301-.212,.461-.571,.417-.938l-1.02-8.46Zm-9.098,.58c-.621,0-1.125-.504-1.125-1.125s.504-1.125,1.125-1.125,1.125,.504,1.125,1.125-.504,1.125-1.125,1.125Zm6.25,0c-.621,0-1.125-.504-1.125-1.125s.504-1.125,1.125-1.125,1.125,.504,1.125,1.125-.504,1.125-1.125,1.125Z" fill="#61616b"></path></g></svg>