<svg xmlns="http://www.w3.org/2000/svg" height="32" width="32" viewBox="0 0 32 32"><title>chicken front 4</title><g fill="#61616b" class="nc-icon-wrapper"><ellipse cx="16" cy="4" rx="2" ry="4" fill="#61616b" data-color="color-2"></ellipse><path d="M19.5,28.5c0,1.933-1.567,3.5-3.5,3.5s-3.5-1.567-3.5-3.5c0-3.5,3.5-7.5,3.5-7.5,0,0,3.5,4,3.5,7.5Z" fill="#61616b" data-color="color-2"></path><path d="M22.459,23.018c.235-.155,.525-.207,.797-.138l5.041,1.261-1.41-11.634c0-.006-.001-.011-.002-.017-.554-4.022-3.285-7.306-6.893-8.728,.002,.08,.007,.157,.007,.237,0,3.477-1.682,6-4,6s-4-2.523-4-6c0-.081,.005-.158,.007-.237-3.608,1.422-6.339,4.709-6.895,8.744l-1.41,11.634,5.041-1.261c.273-.07,.563-.019,.797,.138l1.974,1.317c1.093-2.437,2.712-4.346,2.979-4.652l.361-.413-2.391-2.391c-.391-.391-.391-1.023,0-1.414,.944-.944,2.2-1.465,3.536-1.465s2.592,.521,3.536,1.465c.39,.391,.39,1.023,0,1.414l-2.391,2.391,.361,.413c.267,.306,1.886,2.215,2.979,4.651l1.974-1.316ZM10.5,13c-.827,0-1.5-.673-1.5-1.5s.673-1.5,1.5-1.5,1.5,.673,1.5,1.5-.673,1.5-1.5,1.5Zm11-3c.827,0,1.5,.673,1.5,1.5s-.673,1.5-1.5,1.5-1.5-.673-1.5-1.5,.673-1.5,1.5-1.5Z" fill="#61616b"></path><path d="M10.815,26.271l-2.015-1.344-4.983,1.246c-.122,.031-.244,.031-.362,.017l-.447,3.69c-.04,.326,.084,.652,.331,.87,.247,.218,.584,.301,.904,.22l3.571-.893,2.632,1.755c.274,.183,.62,.219,.926,.097l.258-.103c-.706-.925-1.13-2.075-1.13-3.325,0-.748,.12-1.498,.315-2.229Z" fill="#61616b"></path><path d="M28.184,26.173l-4.983-1.246-2.015,1.344c.195,.731,.315,1.481,.315,2.229,0,1.25-.424,2.401-1.13,3.325l.258,.103c.12,.048,.246,.071,.372,.071,.195,0,.388-.057,.555-.168l2.632-1.755,3.571,.893c.321,.082,.658-.002,.904-.22,.247-.218,.371-.544,.331-.87l-.447-3.69c-.118,.014-.24,.014-.362-.017Z" fill="#61616b"></path></g></svg>