<svg xmlns="http://www.w3.org/2000/svg" height="24" width="24" viewBox="0 0 24 24"><title>chicken 2</title><g fill="#61616b" class="nc-icon-wrapper"><path d="M23,8c0-1.889-1.316-3.477-3.08-3.894-.422-2.332-2.468-4.106-4.92-4.106-2.757,0-5,2.243-5,5,0,.169,.021,.34,.039,.511-3.353,1.173-5.8,4.273-6.013,7.97L.4,16.2c-.533,.4-.533,1.2,0,1.6l3.6,2.7v2.5c0,.552,.448,1,1,1H21c.552,0,1-.448,1-1V14c0-1.016-.177-1.99-.489-2.901,.921-.75,1.489-1.885,1.489-3.099Zm-3,14H6V14c0-3.859,3.14-7,7-7s7,3.141,7,7v8Z" fill="#61616b"></path><circle cx="11" cy="14" r="2" fill="#61616b" data-color="color-2"></circle></g></svg>