<svg xmlns="http://www.w3.org/2000/svg" height="16" width="16" viewBox="0 0 16 16"><title>clover 3</title><g fill="#61616b" class="nc-icon-wrapper"><path d="M16,5.5A1.419,1.419,0,0,0,14.5,4c-1.057,0-2.867.814-4.757,2.257C11.186,4.367,12,2.557,12,1.5A1.419,1.419,0,0,0,10.5,0,3.943,3.943,0,0,0,8,1.071,3.943,3.943,0,0,0,5.5,0,1.419,1.419,0,0,0,4,1.5c0,1.057.814,2.867,2.257,4.757C4.367,4.814,2.557,4,1.5,4A1.419,1.419,0,0,0,0,5.5,3.943,3.943,0,0,0,1.071,8,3.943,3.943,0,0,0,0,10.5,1.419,1.419,0,0,0,1.5,12c1.057,0,2.867-.814,4.757-2.257C4.814,11.633,4,13.443,4,14.5A1.419,1.419,0,0,0,5.5,16,3.943,3.943,0,0,0,8,14.929,3.943,3.943,0,0,0,10.5,16,1.419,1.419,0,0,0,12,14.5c0-1.057-.814-2.867-2.257-4.757C11.633,11.186,13.443,12,14.5,12A1.419,1.419,0,0,0,16,10.5,3.943,3.943,0,0,0,14.929,8,3.943,3.943,0,0,0,16,5.5Z" fill="#61616b"></path></g></svg>