<svg xmlns="http://www.w3.org/2000/svg" height="64" width="64" viewBox="0 0 64 64"><title>clover 4</title><g fill="#61616b" class="nc-icon-wrapper"><path d="M60.921,59.414a1,1,0,0,0-1.311-.531,14.078,14.078,0,0,1-18.433-7.466l-2.668-6.3c2.581,3.582,5.1,5.865,7.548,6.8A6.868,6.868,0,0,0,48.5,52.4a5.181,5.181,0,0,0,1.681-.271,5.549,5.549,0,0,0,3.341-3.547,13.765,13.765,0,0,0-.047-8.984,13.769,13.769,0,0,0,6.029-6.659,5.555,5.555,0,0,0-.122-4.873,6.05,6.05,0,0,0-3.215-2.6h0c-3.926-1.5-10.308-.558-19,2.778,8.286-4.249,13.245-8.376,14.745-12.3a6.029,6.029,0,0,0,.21-4.127,5.549,5.549,0,0,0-3.547-3.341,13.744,13.744,0,0,0-8.984.047,13.769,13.769,0,0,0-6.659-6.029,5.555,5.555,0,0,0-4.873.122,6.044,6.044,0,0,0-2.6,3.215c-1.5,3.923-.56,10.3,2.776,18.995-4.249-8.282-8.375-13.24-12.3-14.74a6.041,6.041,0,0,0-4.127-.21,5.549,5.549,0,0,0-3.341,3.547,13.765,13.765,0,0,0,.047,8.984,13.769,13.769,0,0,0-6.029,6.659,5.555,5.555,0,0,0,.122,4.873,6.044,6.044,0,0,0,3.215,2.6,12.133,12.133,0,0,0,4.334.7c3.753,0,8.675-1.175,14.691-3.486-8.3,4.254-13.268,8.385-14.77,12.313a6.029,6.029,0,0,0-.21,4.127,5.549,5.549,0,0,0,3.547,3.341,13.744,13.744,0,0,0,8.984-.047,13.769,13.769,0,0,0,6.659,6.029,6.856,6.856,0,0,0,2.453.49,4.9,4.9,0,0,0,2.419-.612,6.041,6.041,0,0,0,2.6-3.215c1.011-2.644.918-6.4-.271-11.228L39.335,52.2A16.064,16.064,0,0,0,60.39,60.725,1,1,0,0,0,60.921,59.414Z" fill="#61616b"></path></g></svg>