<svg xmlns="http://www.w3.org/2000/svg" height="24" width="24" viewBox="0 0 24 24"><title>clover</title><g fill="#61616b" class="nc-icon-wrapper"><polygon points="7.635 0 7.636 0 7.636 0 7.635 0" fill="#61616b"></polygon><polygon points="0 16.365 0 16.364 0 16.364 0 16.365" fill="#61616b"></polygon><polygon points="16.365 24 16.364 24 16.364 24 16.365 24" fill="#61616b"></polygon><polygon points="24 7.635 24 7.636 24 7.636 24 7.635" fill="#61616b"></polygon><path d="M21.818,5.455c-1.5,0-3.747,1.091-6.253,2.98,1.889-2.506,2.979-4.751,2.979-6.253A1.94,1.94,0,0,0,16.363,0,7.944,7.944,0,0,0,12,1.714,7.949,7.949,0,0,0,7.636,0,2.181,2.181,0,0,0,5.455,2.182c0,1.5,1.091,3.747,2.98,6.253C5.929,6.546,3.684,5.456,2.182,5.456A1.94,1.94,0,0,0,0,7.637,7.944,7.944,0,0,0,1.714,12,7.949,7.949,0,0,0,0,16.364a2.181,2.181,0,0,0,2.182,2.181c1.5,0,3.747-1.091,6.253-2.98-1.889,2.506-2.979,4.751-2.979,6.253A1.94,1.94,0,0,0,7.637,24,7.944,7.944,0,0,0,12,22.286,7.953,7.953,0,0,0,16.364,24a2.181,2.181,0,0,0,2.181-2.182c0-1.5-1.091-3.747-2.98-6.253,2.506,1.889,4.751,2.979,6.253,2.979A1.94,1.94,0,0,0,24,16.363,7.944,7.944,0,0,0,22.286,12,7.953,7.953,0,0,0,24,7.636,2.181,2.181,0,0,0,21.818,5.455Z" fill="#61616b"></path></g></svg>