<svg xmlns="http://www.w3.org/2000/svg" height="12" width="12" viewBox="0 0 12 12"><title>clover 2</title><g fill="#61616b" class="nc-icon-wrapper"><path d="M12,4.125A1.063,1.063,0,0,0,10.875,3,7.19,7.19,0,0,0,7.307,4.693,7.19,7.19,0,0,0,9,1.125,1.063,1.063,0,0,0,7.875,0,2.959,2.959,0,0,0,6,.8,2.959,2.959,0,0,0,4.125,0,1.063,1.063,0,0,0,3,1.125,7.19,7.19,0,0,0,4.693,4.693,7.19,7.19,0,0,0,1.125,3,1.063,1.063,0,0,0,0,4.125,2.959,2.959,0,0,0,.8,6,2.959,2.959,0,0,0,0,7.875,1.063,1.063,0,0,0,1.125,9,7.19,7.19,0,0,0,4.693,7.307,7.19,7.19,0,0,0,3,10.875,1.063,1.063,0,0,0,4.125,12,2.959,2.959,0,0,0,6,11.2a2.959,2.959,0,0,0,1.875.8A1.063,1.063,0,0,0,9,10.875,7.19,7.19,0,0,0,7.307,7.307,7.19,7.19,0,0,0,10.875,9,1.063,1.063,0,0,0,12,7.875,2.959,2.959,0,0,0,11.2,6,2.959,2.959,0,0,0,12,4.125Z" fill="#61616b"></path></g></svg>