<svg xmlns="http://www.w3.org/2000/svg" height="48" width="48" viewBox="0 0 48 48"><title>collar 4</title><g fill="#61616b" class="nc-icon-wrapper"><path fill="#61616b" d="M24,3C16.04492,3,1,4.25391,1,9v10c0,4.74609,15.04492,6,23,6c1.12762,0,2.40051-0.02637,3.75-0.08313V22.25 v-7.6875l-0.16199-1.63373C26.43921,12.97076,25.25513,13,24,13C10.41211,13,3,10.35742,3,9s7.41211-4,21-4s21,2.64258,21,4 c0,1.11707-5.02991,3.1012-14.38007,3.76996C30.85797,13.47205,31,14.21802,31,15v9.72583C38.57458,24.14746,47,22.55176,47,19V9 C47,4.25391,31.95508,3,24,3z"></path> <path data-color="color-2" fill="#61616b" d="M27.22113,31.79187C28.29987,30.87396,29,29.52399,29,28V15c0-2.75684-2.24316-5-5-5 c-1.94781,0-3.70984,1.15491-4.5282,2.88812c0.75427,0.03503,1.53333,0.06104,2.33606,0.07837C22.36536,12.36755,23.15234,12,24,12 c1.6543,0,3,1.3457,3,3v13c0,1.6543-1.3457,3-3,3s-3-1.3457-3-3v-3.05389c-0.64587-0.02216-1.31775-0.05396-2-0.09155V28 c0,1.52399,0.70013,2.87396,1.77887,3.79187C18.53699,32.96008,17,35.30231,17,38c0,3.85938,3.14062,7,7,7s7-3.14062,7-7 C31,35.30231,29.46301,32.96008,27.22113,31.79187z"></path></g></svg>