<svg xmlns="http://www.w3.org/2000/svg" height="16" width="16" viewBox="0 0 16 16"><title>cow 2</title><g fill="#61616b" class="nc-icon-wrapper"><path fill="#61616b" d="M16,2h-4V1c0-0.55273-0.44727-1-1-1s-1,0.44727-1,1v1H6V1c0-0.55273-0.44727-1-1-1S4,0.44727,4,1v1H0 c0,1.55682,1.19031,2.82178,2.70801,2.97058l-0.60742,4.2522C1.4502,9.55286,1,10.2207,1,11v1c0,2.20911,1.79083,4,4,4h6 c2.20917,0,4-1.79089,4-4v-1c0-0.7793-0.4502-1.44714-1.10059-1.77722l-0.60742-4.2522C14.80969,4.82178,16,3.55682,16,2z M4.86719,4h6.26562l0.71393,5H4.15326L4.86719,4z M5,13c-0.55231,0-1-0.44775-1-1c0-0.55231,0.44769-1,1-1s1,0.44769,1,1 C6,12.55225,5.55231,13,5,13z M11,13c-0.55231,0-1-0.44775-1-1c0-0.55231,0.44769-1,1-1s1,0.44769,1,1 C12,12.55225,11.55231,13,11,13z"></path></g></svg>