<svg xmlns="http://www.w3.org/2000/svg" height="32" width="32" viewBox="0 0 32 32"><title>cow 5</title><g fill="#61616b" class="nc-icon-wrapper"><path d="M25,18H7c-1.654,0-3,1.218-3,2.714v4.286c0,3.859,3.589,7,8,7h8c4.411,0,8-3.141,8-7v-4.286c0-1.496-1.346-2.714-3-2.714Zm-14,9c-1.105,0-2-.895-2-2s.895-2,2-2,2,.895,2,2-.895,2-2,2Zm10,0c-1.105,0-2-.895-2-2s.895-2,2-2,2,.895,2,2-.895,2-2,2Z" fill="#61616b" data-color="color-2"></path><path d="M29.901,4h-5.901V1c0-.553-.447-1-1-1s-1,.447-1,1v3H10V1c0-.553-.447-1-1-1s-1,.447-1,1v3H2.099c-.61,0-1.106,.546-.99,1.145,.509,2.631,2.74,4.645,5.473,4.834l-.582,6.021H26l-.582-6.021c2.733-.189,4.964-2.203,5.473-4.834,.116-.599-.38-1.145-.99-1.145ZM11.5,13c-.828,0-1.5-.672-1.5-1.5s.672-1.5,1.5-1.5,1.5,.672,1.5,1.5-.672,1.5-1.5,1.5Zm9,0c-.828,0-1.5-.672-1.5-1.5s.672-1.5,1.5-1.5,1.5,.672,1.5,1.5-.672,1.5-1.5,1.5Z" fill="#61616b"></path></g></svg>