<svg xmlns="http://www.w3.org/2000/svg" height="64" width="64" viewBox="0 0 64 64"><title>cow 3</title><g fill="#61616b" class="nc-icon-wrapper"><path d="M62,9h-15V3c0-1.105-.895-2-2-2h0c-1.105,0-2,.895-2,2v6s-22,0-22,0V3c0-1.105-.895-2-2-2h0c-1.105,0-2,.895-2,2v6s-15,0-15,0c-.557,0-1.001,.458-1,1.014,.008,6.059,4.939,10.986,11,10.986h2.08l-1.076,12.917c-.023,.278,.071,.555,.26,.76,.189,.206,.457,.323,.736,.323H50c.279,0,.547-.117,.736-.323,.188-.205,.283-.481,.26-.76l-1.076-12.917h2.08c6.061,0,10.992-4.927,11-10.986,0-.557-.443-1.014-1-1.014ZM22.5,27c-1.381,0-2.5-1.119-2.5-2.5s1.119-2.5,2.5-2.5,2.5,1.119,2.5,2.5-1.119,2.5-2.5,2.5Zm19,0c-1.381,0-2.5-1.119-2.5-2.5s1.119-2.5,2.5-2.5,2.5,1.119,2.5,2.5-1.119,2.5-2.5,2.5Z" fill="#61616b"></path><path d="M50,37H14c-2.757,0-5,1.986-5,4.429v8.571c0,7.168,6.729,13,15,13h16c8.271,0,15-5.832,15-13v-8.571c0-2.442-2.243-4.429-5-4.429Zm-28,17c-2.209,0-4-1.791-4-4s1.791-4,4-4,4,1.791,4,4-1.791,4-4,4Zm20,0c-2.209,0-4-1.791-4-4s1.791-4,4-4,4,1.791,4,4-1.791,4-4,4Z" fill="#61616b" data-color="color-2"></path></g></svg>