<svg xmlns="http://www.w3.org/2000/svg" height="24" width="24" viewBox="0 0 24 24"><title>cow</title><g fill="#61616b" class="nc-icon-wrapper"><circle cx="8.5" cy="17.5" r="1.5" fill="#61616b" data-color="color-2"></circle><circle cx="15.5" cy="17.5" r="1.5" fill="#61616b" data-color="color-2"></circle><path d="M18,3V1c0-.553-.447-1-1-1s-1,.447-1,1V3H8V1c0-.553-.447-1-1-1s-1,.447-1,1V3H1c-.552,0-1,.448-1,1H0c0,2.209,1.791,4,4,4h.574l-.497,4.717c-.653,.551-1.077,1.364-1.077,2.283v3c0,3.314,2.686,6,6,6h6c3.314,0,6-2.686,6-6v-3c0-.919-.424-1.732-1.077-2.283l-.497-4.717h.574c2.209,0,4-1.791,4-4h0c0-.552-.448-1-1-1h-5Zm-2.5,5c.828,0,1.5,.672,1.5,1.5s-.672,1.5-1.5,1.5-1.5-.672-1.5-1.5,.672-1.5,1.5-1.5Zm-7,0c.828,0,1.5,.672,1.5,1.5s-.672,1.5-1.5,1.5-1.5-.672-1.5-1.5,.672-1.5,1.5-1.5Zm10.5,10c0,2.206-1.794,4-4,4h-6c-2.206,0-4-1.794-4-4v-3c0-.552,.448-1,1-1h12c.552,0,1,.448,1,1v3Z" fill="#61616b"></path></g></svg>