<svg xmlns="http://www.w3.org/2000/svg" height="48" width="48" viewBox="0 0 48 48"><title>crab 4</title><g fill="#61616b" class="nc-icon-wrapper"><path data-color="color-2" fill="#61616b" d="M47,10c0-2.45-0.978-4.745-2.752-6.461c-0.238-0.23-0.575-0.33-0.901-0.26 c-0.325,0.068-0.595,0.294-0.72,0.602C41.591,6.424,39.67,9,38,9s-3.591-2.576-4.627-5.12c-0.125-0.308-0.395-0.533-0.72-0.602 c-0.325-0.07-0.663,0.029-0.901,0.26C29.978,5.255,29,7.55,29,10c0,4.608,3.483,8.414,7.954,8.934 c-0.178,1.938-0.892,3.628-1.807,4.821c0.623,0.303,1.227,0.62,1.808,0.948c1.104-1.557,1.839-3.592,2.008-5.756 C43.474,18.464,47,14.637,47,10z"></path> <path data-color="color-2" fill="#61616b" d="M15.347,3.279c-0.325,0.068-0.595,0.294-0.72,0.602C13.591,6.424,11.67,9,10,9 S6.409,6.424,5.373,3.88c-0.125-0.308-0.395-0.533-0.72-0.602c-0.324-0.07-0.662,0.029-0.901,0.26C1.978,5.255,1,7.55,1,10 c0,4.637,3.526,8.464,8.037,8.947c0.168,2.164,0.904,4.2,2.008,5.756c0.582-0.328,1.185-0.645,1.808-0.948 c-0.915-1.193-1.629-2.884-1.807-4.821C15.517,18.414,19,14.608,19,10c0-2.45-0.978-4.745-2.752-6.461 C16.01,3.308,15.671,3.208,15.347,3.279z"></path> <path fill="#61616b" d="M44.747,33.335C44.372,32.914,35.429,23,24,23S3.628,32.914,3.253,33.335c-0.337,0.379-0.337,0.95,0,1.329 c0.189,0.212,2.547,2.827,6.299,5.373C7.039,42.011,7,45.811,7,46.001C7.001,46.553,7.448,47,8,47h0.001 c0.553,0,1-0.449,0.999-1.001c0-0.038,0.029-3.665,2.421-4.777C14.885,43.267,19.224,45,24,45c4.745,0,9.083-1.738,12.554-3.788 C38.952,42.308,39,45.962,39,45.999C38.999,46.551,39.446,47,39.999,47H40c0.552,0,0.999-0.447,1-0.999 c0-0.191-0.04-4.007-2.568-5.977c3.749-2.541,6.122-5.145,6.312-5.356C45.084,34.29,45.086,33.716,44.747,33.335z M18,34 c-1.105,0-2-0.895-2-2c0-1.105,0.895-2,2-2s2,0.895,2,2C20,33.105,19.105,34,18,34z M30,34c-1.105,0-2-0.895-2-2 c0-1.105,0.895-2,2-2s2,0.895,2,2C32,33.105,31.105,34,30,34z"></path></g></svg>