<svg xmlns="http://www.w3.org/2000/svg" height="64" width="64" viewBox="0 0 64 64"><title>crab 3</title><g fill="#61616b" class="nc-icon-wrapper"><path d="M60.736,44.324C60.2,43.739,47.414,30,32,30S3.8,43.739,3.264,44.324a1,1,0,0,0,0,1.352,53.436,53.436,0,0,0,8.716,7.331C8.061,55.638,8,60.757,8,61a1,1,0,0,0,1,1H9a1,1,0,0,0,1-1c0-.209.081-4.953,3.871-6.772C18.836,57.292,25.157,60,32,60c6.8,0,13.12-2.717,18.1-5.785C53.918,56.024,54,60.793,54,61a1,1,0,0,0,2,0c0-.243-.062-5.383-4.006-8.009a54.548,54.548,0,0,0,8.739-7.311A1,1,0,0,0,60.736,44.324ZM21.5,44A2.5,2.5,0,1,1,24,41.5,2.5,2.5,0,0,1,21.5,44Zm21,0A2.5,2.5,0,1,1,45,41.5,2.5,2.5,0,0,1,42.5,44Z" fill="#61616b"></path> <path data-color="color-2" d="M9.576,36.246q.864-.621,1.806-1.246c-3.172-1.79-5.053-5.3-5-9.5A12.976,12.976,0,0,0,26.972,14.146a1,1,0,0,0-1.614-.724c-3.162,2.466-10.485,3.855-12.053,2.285-1.532-1.531-.122-8.966,2.285-12.055a1,1,0,0,0-.724-1.612A12.978,12.978,0,0,0,4.486,23.824C3.877,29.125,5.861,33.727,9.576,36.246Z" fill="#61616b"></path> <path data-color="color-2" d="M49.988,27.994a12.97,12.97,0,0,0,7.633-2.49c.05,4.193-1.831,7.706-5,9.5q.942.624,1.806,1.246c3.715-2.518,5.7-7.121,5.09-12.422A12.978,12.978,0,0,0,49.134,2.04a1,1,0,0,0-.724,1.612c2.407,3.089,3.817,10.524,2.285,12.055-1.57,1.567-8.891.181-12.053-2.285a1,1,0,0,0-1.614.724,12.973,12.973,0,0,0,12.96,13.848Z" fill="#61616b"></path></g></svg>