<svg xmlns="http://www.w3.org/2000/svg" height="16" width="16" viewBox="0 0 16 16"><title>crab 2</title><g fill="#61616b" class="nc-icon-wrapper"><path fill="#61616b" d="M12.9,9.2c0.7-0.8,1.2-1.9,1.2-3.4C15.2,5.4,16,4.3,16,3.1c0-0.8-0.3-1.6-0.9-2.1c-0.3,0.8-1.1,1.4-2,1.4 c-0.9,0-1.7-0.6-2-1.4c-0.5,0.5-0.9,1.3-0.9,2.1c0,1.3,0.8,2.3,1.9,2.7c0,0.9-0.3,2-1.1,2.3C10,7.8,9.1,7.5,8,7.5S6,7.8,5.1,8.2 C4.2,7.8,3.9,6.7,3.9,5.8C5,5.4,5.8,4.3,5.8,3.1c0-0.8-0.3-1.6-0.9-2.1c-0.3,0.8-1.1,1.4-2,1.4C2,2.4,1.2,1.8,0.9,1 C0.3,1.5,0,2.3,0,3.1c0,1.3,0.8,2.3,1.9,2.7c0,1.5,0.5,2.6,1.2,3.4c-1.5,1-2.4,2-2.4,2s0.6,0.6,1.5,1.4c-0.6,0.8-1,1.6-1.3,2.5h2.1 c0.2-0.4,0.4-0.9,0.8-1.4c1.2,0.6,2.6,1.2,4.1,1.2c1.5,0,2.9-0.5,4.1-1.2c0.4,0.4,0.7,1,0.8,1.4h2.1c-0.3-0.9-0.7-1.7-1.3-2.5 c0.9-0.7,1.5-1.3,1.5-1.3S14.4,10.2,12.9,9.2z"></path></g></svg>