<svg xmlns="http://www.w3.org/2000/svg" height="32" width="32" viewBox="0 0 32 32"><title>crab 5</title><g fill="#61616b" class="nc-icon-wrapper"><path fill="#61616b" d="M27.4,19.4c1-0.5,1.8-1.2,2.4-2.2c1-1.6,1.1-3.6,0.5-5.7c2.4-2.7,2.3-6.9-0.4-9.5c-1.4-1.4-3.4-2.2-5.4-2 c-0.4,0-0.7,0.3-0.8,0.6c-0.2,0.3-0.1,0.7,0.1,1C25,3.1,25.5,6.5,25,7c-0.5,0.5-3.9,0-5.4-1.2c-0.3-0.2-0.7-0.3-1-0.1 C18.3,5.8,18,6.2,18,6.5c-0.1,2,0.6,4,2,5.4c1.3,1.3,3.1,2.1,4.9,2.1c1.3,0,2.5-0.4,3.6-1c0.2,1.2,0.1,2.3-0.5,3.2 c-0.6,1-1.7,1.6-2.8,1.8c-2.5-1.6-5.8-3-9.3-3s-6.8,1.4-9.3,3c-1.2-0.2-2.2-0.8-2.8-1.8c-0.6-0.9-0.7-2-0.5-3.2c1.1,0.7,2.3,1,3.6,1 c1.9,0,3.6-0.7,4.9-2.1c1.4-1.4,2.2-3.4,2-5.4c0-0.4-0.3-0.7-0.6-0.8c-0.3-0.2-0.7-0.1-1,0.1C10.9,7,7.5,7.5,7,7 C6.5,6.5,7,3.1,8.2,1.6c0.2-0.3,0.3-0.7,0.1-1C8.2,0.3,7.8,0,7.5,0c-2-0.1-4,0.6-5.4,2c-2.6,2.6-2.7,6.8-0.4,9.5 c-0.7,2.1-0.5,4.1,0.5,5.7c0.6,0.9,1.4,1.7,2.4,2.2c-2,1.5-3.2,2.8-3.3,2.9c-0.4,0.4-0.4,1,0,1.4c0.1,0.1,1.6,1.7,3.9,3.4 C4,28.4,4,30.7,4,31c0,0.6,0.4,1,1,1s1-0.4,1-1c0-0.7,0.2-2.3,0.9-2.8C9.4,29.7,12.6,31,16,31c3.4,0,6.6-1.3,9.1-2.8 c0.7,0.6,0.9,2.1,0.9,2.8c0,0.6,0.4,1,1,1s1-0.4,1-1c0-0.3,0-2.6-1.2-4c2.3-1.6,3.8-3.2,3.9-3.4c0.4-0.4,0.4-1,0-1.4 C30.6,22.2,29.4,20.9,27.4,19.4z"></path></g></svg>