<svg xmlns="http://www.w3.org/2000/svg" height="16" width="16" viewBox="0 0 16 16"><title>deer 2</title><g fill="#61616b" class="nc-icon-wrapper"><path fill="#61616b" d="M16,3V1c0-0.5522461-0.4477539-1-1-1s-1,0.4477539-1,1v2c0,0.5512695-0.4487305,1-1,1h-1V3 c0-0.5522461-0.4477539-1-1-1s-1,0.4477539-1,1v1H8H6V3c0-0.5522461-0.4477539-1-1-1S4,2.4477539,4,3v1H3 C2.4487305,4,2,3.5512695,2,3V1c0-0.5522461-0.4477539-1-1-1S0,0.4477539,0,1v2c0,1.6542969,1.3457031,3,3,3h1.6687622 c-0.3031616,0.2709961-0.539856,0.6084595-0.7221069,1H0c0,1.6568604,1.3431396,3,3,3h0.6107178 C3.9348755,12.7067261,5.5062866,16,8,16s4.0651245-3.2932739,4.3892822-6H13c1.6568604,0,3-1.3431396,3-3h-3.9466553 c-0.182251-0.3915405-0.4189453-0.7290039-0.7221069-1H13C14.6542969,6,16,4.6542969,16,3z M8,14c-0.5523071,0-1-0.4477539-1-1 c0-0.5523071,0.4476929-1,1-1s1,0.4476929,1,1C9,13.5522461,8.5523071,14,8,14z"></path></g></svg>