<svg xmlns="http://www.w3.org/2000/svg" height="32" width="32" viewBox="0 0 32 32"><title>dog house 5</title><g fill="#61616b" class="nc-icon-wrapper"><path data-color="color-2" fill="#61616b" d="M30.99902,15c-0.21875,0-0.43945-0.07178-0.62402-0.21924L16,3.28076l-14.375,11.5 c-0.43262,0.3457-1.06055,0.2749-1.40625-0.15625c-0.34473-0.43115-0.27441-1.06055,0.15625-1.40527l15-12 c0.36523-0.29199,0.88477-0.29199,1.25,0l15,12c0.43066,0.34473,0.50098,0.97412,0.15625,1.40527 C31.58301,14.87158,31.29297,15,30.99902,15z"></path> <path fill="#61616b" d="M31,30h-3V15.44171L16,5.8418L4,15.44153V30H1c-0.55273,0-1,0.44727-1,1s0.44727,1,1,1h10v-8 c0-2.76141,2.23859-5,5-5s5,2.23859,5,5v8h10c0.55273,0,1-0.44727,1-1S31.55273,30,31,30z"></path></g></svg>