<svg xmlns="http://www.w3.org/2000/svg" height="16" width="16" viewBox="0 0 16 16"><title>dog house 2</title><g fill="#61616b" class="nc-icon-wrapper"><path fill="#61616b" d="M15.58105,5.18604l-7-5c-0.34766-0.24805-0.81445-0.24805-1.16211,0l-7,5 c-0.44922,0.32129-0.55371,0.9458-0.23242,1.39502c0.32031,0.4502,0.94629,0.55273,1.39453,0.23291L2,6.51471V15 c0,0.55225,0.44727,1,1,1h10c0.55273,0,1-0.44775,1-1V6.51471C14.34891,6.76394,14.59648,7,14.99902,7 c0.3125,0,0.61914-0.14551,0.81445-0.41895C16.13477,6.13184,16.03027,5.50732,15.58105,5.18604z M12,14h-2v-3 c0-1.10461-0.89545-2-2-2s-2,0.89539-2,2v3H4V5.08612L8,2.229l4,2.85712V14z"></path></g></svg>