<svg xmlns="http://www.w3.org/2000/svg" height="16" width="16" viewBox="0 0 16 16"><title>dog 2</title><g fill="#61616b" class="nc-icon-wrapper"><path fill="#61616b" d="M11.79333,2.34662C11.23486,2.13055,10.63373,2,10,2H6C5.36627,2,4.76514,2.13055,4.20667,2.34662 C3.32434,0.94305,1.78094,0,0,0v4c0,0.91876,0.42108,1.72919,1.07318,2.276C1.03815,6.51434,1,6.75208,1,7v4 c0,2.75684,2.24316,5,5,5h4c2.75684,0,5-2.24316,5-5V7c0-0.24792-0.03815-0.48566-0.07318-0.724C15.57892,5.72919,16,4.91876,16,4V0 C14.21906,0,12.67566,0.94305,11.79333,2.34662z M13,11c0,1.6543-1.3457,3-3,3H9v-2.00006l1.14642-1.14642 C10.46143,10.53857,10.23834,10,9.79291,10H6.20709c-0.44543,0-0.66852,0.53857-0.35358,0.85352L7,12v2H6c-1.6543,0-3-1.3457-3-3V7 c0-1.6543,1.3457-3,3-3h4c1.6543,0,3,1.3457,3,3V11z"></path> <circle data-color="color-2" fill="#61616b" cx="6" cy="8" r="1"></circle> <circle data-color="color-2" fill="#61616b" cx="10" cy="8" r="1"></circle></g></svg>