<svg xmlns="http://www.w3.org/2000/svg" height="24" width="24" viewBox="0 0 24 24"><title>duck 5</title><g fill="#61616b" class="nc-icon-wrapper"><path d="M21,7h2.022A.978.978,0,0,0,24,6.022V5.855A.888.888,0,0,0,23.036,5a2.39,2.39,0,0,1-1.7-1.027C20.561,3.047,19.823,1,17,1a4,4,0,0,0-4,4,6.965,6.965,0,0,0,2.111,5C7.992,10.005,4,12,4,12l-2.678-.946A1,1,0,0,0,0,12v1c0,4.971,6,10,12,10s12-2,12-8c0-4.086-4.174-5.042-3.994-7.131A.985.985,0,0,1,21,7ZM11,19a1,1,0,0,1,0-2,3,3,0,0,0,3-3,1,1,0,0,1,2,0A5.006,5.006,0,0,1,11,19Z" fill="#61616b"></path></g></svg>