<svg xmlns="http://www.w3.org/2000/svg" height="64" width="64" viewBox="0 0 64 64"><title>duck 2</title><g fill="#61616b" class="nc-icon-wrapper"><path d="M61.615,17.063A8.257,8.257,0,0,1,55.4,11.432a.717.717,0,0,0-.03-.1A11,11,0,0,0,34,15a20.739,20.739,0,0,0,3.146,11.021c-15.084.345-24.152,4.753-26.219,5.873L1.371,28.071A1,1,0,0,0,0,29l0,.721,8.369,3.347A1,1,0,0,1,8,35a.986.986,0,0,1-.371-.071L.008,31.88l0,2.248,2.358.943A1,1,0,0,1,2,37a.986.986,0,0,1-.371-.071L.054,36.3C.84,50.111,14.031,60,32,60c19.342,0,28-9.543,28-19,0-4.751-2.259-8.413-4.252-11.644-1.467-2.378-2.733-4.432-2.733-6.356A1.994,1.994,0,0,1,55,21h8a1,1,0,0,0,1-1A3.01,3.01,0,0,0,61.615,17.063ZM26,50a1,1,0,0,1,0-2A13.015,13.015,0,0,0,39,35a1,1,0,0,1,2,0A15.017,15.017,0,0,1,26,50ZM46,14a2,2,0,1,1,2-2A2,2,0,0,1,46,14Z" fill="#61616b"></path></g></svg>