<svg xmlns="http://www.w3.org/2000/svg" height="48" width="48" viewBox="0 0 48 48"><title>duck 3</title><g fill="#61616b" class="nc-icon-wrapper"><path d="M46.23,12.027a7.762,7.762,0,0,1-4.994-4.443A8,8,0,0,0,26,11a19.92,19.92,0,0,0,2.132,8.989l0,.011a61.893,61.893,0,0,0-21.12,3.889L1.447,21.105A1,1,0,0,0,0,22v.614l6.447,3.224a1,1,0,0,1-.894,1.789L0,24.85V26C0,36.477,11.317,45,24,45c12.337,0,21-5.748,21-15,0-6-5-7-5-13a2,2,0,0,1,2-2h5a1,1,0,0,0,1-1A2.233,2.233,0,0,0,46.23,12.027ZM20,37a1,1,0,0,1,0-2,8.009,8.009,0,0,0,8-8,1,1,0,0,1,2,0A10.011,10.011,0,0,1,20,37ZM34.5,11A1.5,1.5,0,1,1,36,9.5,1.5,1.5,0,0,1,34.5,11Z" fill="#61616b"></path></g></svg>