<svg xmlns="http://www.w3.org/2000/svg" height="16" width="16" viewBox="0 0 16 16"><title>duck</title><g fill="#61616b" class="nc-icon-wrapper"><path d="M15.215,3.528A1.787,1.787,0,0,1,13.829,2.5,3,3,0,0,0,8,3.505a7.887,7.887,0,0,0,.647,3.017A12.334,12.334,0,0,0,2.992,7.908L.756,6.575A.5.5,0,0,0,0,7.005v2c0,3.821,3.29,6.49,8,6.49,4.187,0,7-2.01,7-5a6.462,6.462,0,0,0-1.091-3.168,3.941,3.941,0,0,1-.656-1.572.249.249,0,0,1,.247-.25h2a.5.5,0,0,0,.5-.5v-.5A1,1,0,0,0,15.215,3.528Z" fill="#61616b"></path></g></svg>