<svg xmlns="http://www.w3.org/2000/svg" height="32" width="32" viewBox="0 0 32 32"><title>duck 4</title><g fill="#61616b" class="nc-icon-wrapper"><path d="M31.2,7.04A5.489,5.489,0,0,1,27.43,4.062,5.5,5.5,0,0,0,17,6.5,7.965,7.965,0,0,0,19.2,12L19.191,12C10.177,12,6,15,6,15L1.311,13.438A1,1,0,0,0,0,14.39L0,15H0l0,1.993C0,23.988,7,30,16,30c7,0,14-4,14-10,0-4-3.493-7-3.493-9.5A1.5,1.5,0,0,1,28,9h3a1,1,0,0,0,1-1A.985.985,0,0,0,31.2,7.04ZM13,25a1,1,0,0,1,0-2,6.006,6.006,0,0,0,6-6,1,1,0,0,1,2,0A8.009,8.009,0,0,1,13,25ZM22.5,6.5a1,1,0,1,1,1-1A1,1,0,0,1,22.5,6.5Z" fill="#61616b"></path></g></svg>