<svg xmlns="http://www.w3.org/2000/svg" height="24" width="24" viewBox="0 0 24 24"><title>earth science 5</title><g fill="#61616b" class="nc-icon-wrapper"><path d="M15,12a3,3,0,0,0-3-3v6A3,3,0,0,0,15,12Z" fill="#61616b" data-color="color-2"></path><path d="M12,4V7a5,5,0,0,1,0,10v3A8,8,0,0,0,12,4Z" fill="#61616b" data-color="color-2"></path><path d="M12,0A12,12,0,1,0,24,12,12.013,12.013,0,0,0,12,0Zm0,22a9.949,9.949,0,0,1-6.531-2.444l.146-.619L7.323,17.5a1,1,0,0,0,.318-1.04l-.7-2.473a1.012,1.012,0,0,0-.231-.408L5.474,12.262l-.187-.319.64-.547,2.487-1.258a1,1,0,0,0,.538-.746l.4-2.74a1,1,0,0,0-.26-.83L7.451,4.066a.867.867,0,0,0-.094-.088l-.588-.484A9.994,9.994,0,1,1,12,22Z" fill="#61616b"></path></g></svg>