<svg xmlns="http://www.w3.org/2000/svg" height="64" width="64" viewBox="0 0 64 64"><title>earth science 2</title><g fill="#61616b" class="nc-icon-wrapper"><path d="M42,32A10.011,10.011,0,0,0,32,22V42A10.011,10.011,0,0,0,42,32Z" fill="#61616b" data-color="color-2"></path><path d="M32,6v6a20,20,0,0,1,0,40v6A26,26,0,0,0,32,6Z" fill="#61616b" data-color="color-2"></path><path d="M50,32A18.021,18.021,0,0,0,32,14v6a12,12,0,0,1,0,24v6A18.021,18.021,0,0,0,50,32Z" fill="#61616b" data-color="color-2"></path><path d="M32,2A30,30,0,1,0,62,32,30.034,30.034,0,0,0,32,2Zm0,58a27.868,27.868,0,0,1-17.878-6.469l1.869-2.8a4.581,4.581,0,0,0,2.463-1.6c1.332-2.4-.343-5.912-.85-6.869a11.568,11.568,0,0,0-.5-2.829c-.384-.96-1.963-1.884-2.856-2.343C13.6,35.976,12.319,33.476,12.319,32a2.371,2.371,0,0,1,2.3-2.476,6.31,6.31,0,0,0,4.015-2.682c.937-.286,2.988-1.032,3.687-2.255.749-1.313-.086-4.329-.575-5.819a7.4,7.4,0,0,0-.118-3.579,6.813,6.813,0,0,0-2.206-2.806,16.989,16.989,0,0,0-2.445-3.994,27.823,27.823,0,0,1,11.053-4.1,3.974,3.974,0,0,0-.514,2.846c.342.942,1.688,1.637,2.821,2.068-.143,1.114-.155,2.937,1.036,3.891a2.6,2.6,0,0,0,.626.36V4a28,28,0,0,1,0,56Z" fill="#61616b"></path><path d="M32,37.978V27.81c-1.357,1.783-3.217,4.51-3.217,6.065,0,1.039,1,1.982,2.163,3.074C31.253,37.238,31.678,37.639,32,37.978Z" fill="#61616b"></path></g></svg>