<svg xmlns="http://www.w3.org/2000/svg" height="32" width="32" viewBox="0 0 32 32"><title>earth science 4</title><g fill="#61616b" class="nc-icon-wrapper"><path d="M22,16a6.006,6.006,0,0,0-6-6V22A6.006,6.006,0,0,0,22,16Z" fill="#61616b" data-color="color-2"></path><path d="M16,4V8a8,8,0,0,1,0,16v4A12,12,0,0,0,16,4Z" fill="#61616b" data-color="color-2"></path><path d="M16,0A16,16,0,1,0,32,16,16.019,16.019,0,0,0,16,0Zm0,30a13.888,13.888,0,0,1-8.67-3.04l1.45-.828,1.811-2.747a1,1,0,0,0-.223-1.342L7.736,20.005,6.678,18.113,5.732,16.15l1.983-2.344L11.1,13.18a1,1,0,0,0,.816-.925L12.1,9.048a.993.993,0,0,0-.217-.683L10,6,8.471,4.223A13.991,13.991,0,1,1,16,30Z" fill="#61616b"></path></g></svg>