<svg xmlns="http://www.w3.org/2000/svg" height="48" width="48" viewBox="0 0 48 48"><title>earth science 3</title><g fill="#61616b" class="nc-icon-wrapper"><path d="M24,17V31a7,7,0,0,0,0-14Z" fill="#61616b" data-color="color-2"></path><path d="M24,11v4a9,9,0,0,1,0,18v4a13,13,0,0,0,0-26Z" fill="#61616b" data-color="color-2"></path><path d="M24,28.807V20.493c-1.084,1.388-2.625,3.586-2.625,4.883,0,.877.774,1.605,1.67,2.448A10.055,10.055,0,0,1,24,28.807Z" fill="#61616b"></path><path d="M43,24A19.021,19.021,0,0,0,24,5V9a15,15,0,0,1,0,30v4A19.021,19.021,0,0,0,43,24Z" fill="#61616b" data-color="color-2"></path><path d="M24,1h0a23,23,0,0,0,0,46h0A23,23,0,0,0,24,1Zm0,44a20.893,20.893,0,0,1-13.237-4.717l1.25-1.874a3.6,3.6,0,0,0,1.924-1.3c1.048-1.887-.195-4.583-.618-5.4a8.832,8.832,0,0,0-.39-2.168,4.926,4.926,0,0,0-2.219-1.871A9.858,9.858,0,0,1,9.313,24a1.558,1.558,0,0,1,1.545-1.64A5.016,5.016,0,0,0,14.01,20.3a5.246,5.246,0,0,0,2.858-1.8c.59-1.033.045-3.193-.4-4.551a5.792,5.792,0,0,0-.112-2.778,5.364,5.364,0,0,0-1.7-2.2,13.217,13.217,0,0,0-1.673-2.812,20.838,20.838,0,0,1,7.6-2.852,2.713,2.713,0,0,0-.212,1.914,3.552,3.552,0,0,0,2.1,1.643,3.325,3.325,0,0,0,.9,2.983,2.164,2.164,0,0,0,.625.342V3a21,21,0,0,1,0,42Z" fill="#61616b"></path></g></svg>