<svg xmlns="http://www.w3.org/2000/svg" height="16" width="16" viewBox="0 0 16 16"><title>ecology</title><g fill="#61616b" class="nc-icon-wrapper"><path d="M6,15a1.977,1.977,0,0,1,.428-1.221A6.092,6.092,0,0,1,4.1,12.6,2.107,2.107,0,0,0,4.2,10c-.5-.7-1.3-1.4-1.3-2,0-.8,1.9-1.1,2.5-1.9.7-.8,0-2.3-.7-3.1A6.251,6.251,0,0,1,7.5,2,8.777,8.777,0,0,0,8.7,3.5c.5.8.6,1.3,1.3,1.3a13.3,13.3,0,0,0,3-.3,7.2,7.2,0,0,1,.72,1.623A7,7,0,0,1,15,6a1.988,1.988,0,0,1,.776.157,8,8,0,1,0-9.619,9.619A1.988,1.988,0,0,1,6,15Z" fill="#61616b"></path><path d="M16,8a1,1,0,0,0-1-1,6.006,6.006,0,0,0-6,6,1,1,0,0,1-1,1,1,1,0,0,0,0,2,2.993,2.993,0,0,0,2.836-2.065A6,6,0,0,0,16,8Z" fill="#61616b" data-color="color-2"></path></g></svg>