<svg xmlns="http://www.w3.org/2000/svg" height="32" width="32" viewBox="0 0 32 32"><title>elephant 4</title><g fill="#61616b" class="nc-icon-wrapper"><path d="M25.5,0a8.7,8.7,0,0,0-5.662,2.293,14.6,14.6,0,0,1-1.494,1.026,8.771,8.771,0,0,0-4.688,0,14.6,14.6,0,0,1-1.494-1.026A8.7,8.7,0,0,0,6.5,0,6.508,6.508,0,0,0,0,6.5a7.809,7.809,0,0,0,1.75,5.108A5.122,5.122,0,0,1,3,15a5.006,5.006,0,0,0,5,5,4.948,4.948,0,0,0,2.645-.776A8.952,8.952,0,0,0,12,20.043,6.006,6.006,0,0,1,6,26a1,1,0,0,0,0,2,8.01,8.01,0,0,0,7.962-7.242l.038.011V22.26a11.954,11.954,0,0,0,4.55,9.391,1.676,1.676,0,0,0,2.259-2.457A9.939,9.939,0,0,1,18,22.26V20.769l.038-.011A8.01,8.01,0,0,0,26,28a1,1,0,0,0,0-2,6.005,6.005,0,0,1-6-5.956,9.1,9.1,0,0,0,1.354-.82A4.942,4.942,0,0,0,24,20a5.006,5.006,0,0,0,5-5,5.122,5.122,0,0,1,1.25-3.392A7.809,7.809,0,0,0,32,6.5,6.508,6.508,0,0,0,25.5,0ZM9.109,17.776A2.928,2.928,0,0,1,8,18a3,3,0,0,1-3-3,7.069,7.069,0,0,0-1.617-4.546A5.889,5.889,0,0,1,2,6.5,4.505,4.505,0,0,1,6.5,2a6.786,6.786,0,0,1,4.45,1.883c.16.122.33.242.494.365A8.976,8.976,0,0,0,9.109,17.776ZM10,11.5A1.5,1.5,0,1,1,11.5,13,1.5,1.5,0,0,1,10,11.5ZM20.5,13A1.5,1.5,0,1,1,22,11.5,1.5,1.5,0,0,1,20.5,13Zm8.117-2.546A7.069,7.069,0,0,0,27,15a3,3,0,0,1-3,3,2.928,2.928,0,0,1-1.109-.224A8.976,8.976,0,0,0,20.556,4.248c.164-.123.334-.243.494-.365A6.786,6.786,0,0,1,25.5,2,4.505,4.505,0,0,1,30,6.5,5.889,5.889,0,0,1,28.617,10.454Z" fill="#61616b"></path></g></svg>