<svg xmlns="http://www.w3.org/2000/svg" height="48" width="48" viewBox="0 0 48 48"><title>elephant 3</title><g fill="#61616b" class="nc-icon-wrapper"><path d="M10,5a5,5,0,0,0-3.535,8.536A1,1,0,0,0,7.879,12.12,2.972,2.972,0,0,1,7,10a3,3,0,0,1,3-3,1,1,0,0,0,0-2Z" fill="#61616b"></path><path d="M38,5a1,1,0,0,0,0,2,3,3,0,0,1,3,3,2.972,2.972,0,0,1-.879,2.12,1,1,0,0,0,1.414,1.416A5,5,0,0,0,38,5Z" fill="#61616b"></path><path d="M38,1a9.983,9.983,0,0,0-6.466,2.419,12.276,12.276,0,0,1-3.907,2.1,12.838,12.838,0,0,0-7.254,0,12.276,12.276,0,0,1-3.907-2.1A9.983,9.983,0,0,0,10,1a9.01,9.01,0,0,0-9,9,10.5,10.5,0,0,0,2.168,6.555A8.476,8.476,0,0,1,5,22a7.009,7.009,0,0,0,7,7,6.831,6.831,0,0,0,3.627-1.063c.129.109.266.206.4.309A1.42,1.42,0,0,0,16,28.5V31a8.009,8.009,0,0,1-7.993,8H8a1,1,0,0,0,0,2h.008A11.013,11.013,0,0,0,19,30V28.5A1.5,1.5,0,0,0,17.5,27a1,1,0,0,1,0-2A3.5,3.5,0,0,1,21,28.5v2.8A19.94,19.94,0,0,0,28.008,46.5a2.181,2.181,0,0,0,2.948-.148,2.211,2.211,0,0,0,.162-2.92A19.858,19.858,0,0,1,27,31.3V28.5A3.5,3.5,0,0,1,30.5,25a1,1,0,0,1,0,2A1.5,1.5,0,0,0,29,28.5V30A11.013,11.013,0,0,0,39.992,41H40a1,1,0,0,0,0-2h-.007A8.009,8.009,0,0,1,32,31V28.5a1.42,1.42,0,0,0-.026-.254c.133-.1.27-.2.4-.309A6.831,6.831,0,0,0,36,29a7.009,7.009,0,0,0,7-7,8.476,8.476,0,0,1,1.832-5.445A10.5,10.5,0,0,0,47,10,9.01,9.01,0,0,0,38,1ZM11,18a12.938,12.938,0,0,0,3.156,8.476A4.836,4.836,0,0,1,12,27a5.006,5.006,0,0,1-5-5,10.5,10.5,0,0,0-2.168-6.555A8.476,8.476,0,0,1,3,10a7.009,7.009,0,0,1,7-7c2.463,0,3.714.9,5.3,2.042a19.54,19.54,0,0,0,2.444,1.565A13,13,0,0,0,11,18Zm7.5,0A1.5,1.5,0,1,1,20,16.5,1.5,1.5,0,0,1,18.5,18Zm11,0A1.5,1.5,0,1,1,31,16.5,1.5,1.5,0,0,1,29.5,18Zm13.668-2.555A10.5,10.5,0,0,0,41,22a5.006,5.006,0,0,1-5,5,4.836,4.836,0,0,1-2.156-.524A12.983,12.983,0,0,0,30.259,6.607,19.54,19.54,0,0,0,32.7,5.042C34.286,3.9,35.537,3,38,3a7.009,7.009,0,0,1,7,7A8.476,8.476,0,0,1,43.168,15.445Z" fill="#61616b"></path></g></svg>