<svg xmlns="http://www.w3.org/2000/svg" height="64" width="64" viewBox="0 0 64 64"><title>elephant 2</title><g fill="#61616b" class="nc-icon-wrapper"><path d="M21,37.476a18.97,18.97,0,0,1,3.056-32.72c-.345-.2-.69-.405-1.039-.614C20.442,2.6,17.778,1,13,1A12.013,12.013,0,0,0,1,13a14.768,14.768,0,0,0,3.316,9.64C5.756,24.677,7,26.436,7,30a9.01,9.01,0,0,0,9,9A8.9,8.9,0,0,0,21,37.476ZM8.05,17.95a1,1,0,1,1-1.414,1.414A9,9,0,0,1,13,4a1,1,0,0,1,0,2A7,7,0,0,0,8.05,17.95Z" fill="#61616b" data-color="color-2"></path><path d="M51,1c-4.778,0-7.442,1.6-10.02,3.142-.349.209-.694.414-1.039.614A18.97,18.97,0,0,1,43,37.476,8.9,8.9,0,0,0,48,39a9.01,9.01,0,0,0,9-9c0-3.564,1.244-5.323,2.684-7.36A14.768,14.768,0,0,0,63,13,12.013,12.013,0,0,0,51,1Zm6.364,18.364A1,1,0,1,1,55.95,17.95,7,7,0,0,0,51,6a1,1,0,0,1,0-2,9,9,0,0,1,6.364,15.364Z" fill="#61616b" data-color="color-2"></path><path d="M53,51A11.013,11.013,0,0,1,42,40V36a1.949,1.949,0,0,0-.027-.266,17,17,0,1,0-19.946,0A1.949,1.949,0,0,0,22,36v4A11.013,11.013,0,0,1,11,51a1,1,0,0,0,0,2h.011A15.017,15.017,0,0,0,26,38V36a2,2,0,0,0-2-2,1,1,0,0,1,0-2,4,4,0,0,1,4,4v7A20.1,20.1,0,0,0,47.608,63h.044a2.171,2.171,0,0,0,2.129-2.59,2.143,2.143,0,0,0-1.693-1.688A15.024,15.024,0,0,1,36,44V36a4,4,0,0,1,4-4,1,1,0,0,1,0,2,2,2,0,0,0-2,2v2A15.017,15.017,0,0,0,52.989,53H53a1,1,0,0,0,0-2ZM24,23a2,2,0,1,1,2-2A2,2,0,0,1,24,23Zm16,0a2,2,0,1,1,2-2A2,2,0,0,1,40,23Z" fill="#61616b"></path></g></svg>