<svg xmlns="http://www.w3.org/2000/svg" height="16" width="16" viewBox="0 0 16 16"><title>elephant</title><g fill="#61616b" class="nc-icon-wrapper"><path d="M12.344,0a4.289,4.289,0,0,0-2.717,1.21A2.464,2.464,0,0,1,8,2a2.464,2.464,0,0,1-1.627-.789A4.289,4.289,0,0,0,3.656,0a3.6,3.6,0,0,0-3.65,3.35A5.646,5.646,0,0,0,.565,5.863,4.491,4.491,0,0,1,1,7.448,2.516,2.516,0,0,0,2.447,9.781,2.58,2.58,0,0,0,4.3,9.869a.941.941,0,0,1,.886.13,4.626,4.626,0,0,0,1.312.72V11a5.945,5.945,0,0,0,2.412,4.787,1,1,0,0,0,1.4-1.4A3.955,3.955,0,0,1,9.494,12V10.723A4.635,4.635,0,0,0,10.819,10a.942.942,0,0,1,.885-.129,2.58,2.58,0,0,0,1.849-.088A2.516,2.516,0,0,0,15,7.448a4.491,4.491,0,0,1,.434-1.585,5.646,5.646,0,0,0,.559-2.512A3.6,3.6,0,0,0,12.344,0ZM5,5.667a1,1,0,1,1,1,1A1,1,0,0,1,5,5.667Zm5,1a1,1,0,1,1,1-1A1,1,0,0,1,10,6.667Z" fill="#61616b"></path></g></svg>