<svg xmlns="http://www.w3.org/2000/svg" height="48" width="48" viewBox="0 0 48 48"><title>fire 4</title><g fill="#61616b" class="nc-icon-wrapper"><path d="M42.85,37.765l-1.987-.754L26.92,42.093,39.59,46.71l.006-.017a4.751,4.751,0,1,0,3.254-8.928ZM41.231,45A2.769,2.769,0,1,1,44,42.231,2.772,2.772,0,0,1,41.231,45Z" fill="#61616b"></path><path d="M45.719,28.057a4.774,4.774,0,0,0-6.129-2.873L37.355,26a15.535,15.535,0,0,1-.9,1.543A13.847,13.847,0,0,1,24.887,34a15.952,15.952,0,0,1-13.4-7.694L8.41,25.184a4.774,4.774,0,1,0-3.269,8.971l4.916,1.792L5.15,37.765A4.752,4.752,0,1,0,8.4,46.693l.006.017L42.859,34.155A4.786,4.786,0,0,0,45.719,28.057ZM6.769,45a2.769,2.769,0,1,1,2.768-2.769A2.772,2.772,0,0,1,6.769,45Z" fill="#61616b"></path><path data-color="color-2" d="M36.31,15.872a13.428,13.428,0,0,0-5.978-6.619C27.89,7.711,26.774,7.007,28.675,2.38A1,1,0,0,0,27.75,1C21,1,11,6.317,11,17.729,11,25.464,17.359,32,24.887,32a11.881,11.881,0,0,0,9.9-5.57C37.033,23.068,37.616,19.022,36.31,15.872ZM23.631,26.5a5.033,5.033,0,0,1-4.195-2.358,4.876,4.876,0,0,1-.642-4.477,5.669,5.669,0,0,1,2.523-2.8c1.006-.635,1.423-.9.658-2.762a.5.5,0,0,1,.463-.689A7.1,7.1,0,0,1,29.5,20.47,6.031,6.031,0,0,1,23.631,26.5Z" fill="#61616b"></path></g></svg>