<svg xmlns="http://www.w3.org/2000/svg" height="32" width="32" viewBox="0 0 32 32"><title>fire 5</title><g fill="#61616b" class="nc-icon-wrapper"><path d="M30.292,24.16l-.922-.335L18.9,27.669l8.905,3.27A1.011,1.011,0,0,0,28.15,31a1,1,0,0,0,.939-.655l1.8-4.9a1,1,0,0,0-.6-1.285Z" fill="#61616b"></path><path data-color="color-2" d="M16.712,1.3a1.03,1.03,0,0,0-1.424,0C14.542,2.055,8,8.811,8,13a7.915,7.915,0,0,0,8,8,7.915,7.915,0,0,0,8-8C24,8.811,17.458,2.055,16.712,1.3ZM16,16a2.946,2.946,0,0,1-3-3c.1-.8,1.3-2.8,3-4.9,1.7,2.1,2.9,4.1,3,5A2.925,2.925,0,0,1,16,16Z" fill="#61616b"></path><path d="M30.887,20.065l-1.8-4.8a1,1,0,0,0-1.278-.589l-2.11.766A9.866,9.866,0,0,1,16,23a9.866,9.866,0,0,1-9.7-7.557l-2.11-.766a1,1,0,0,0-1.278.589l-1.8,4.8a1,1,0,0,0,.592,1.29l3.841,1.411L1.708,24.16a1,1,0,0,0-.6,1.285l1.8,4.9A1,1,0,0,0,3.85,31a1.011,1.011,0,0,0,.344-.061l26.1-9.584a1,1,0,0,0,.592-1.29Z" fill="#61616b"></path></g></svg>