<svg xmlns="http://www.w3.org/2000/svg" height="24" width="24" viewBox="0 0 24 24"><title>fire</title><g fill="#61616b" class="nc-icon-wrapper"><path data-color="color-2" d="M12.354.146a.5.5,0,0,0-.708,0C11.437.356,6.5,5.33,6.5,8.5a5.5,5.5,0,0,0,11,0C17.5,5.33,12.563.356,12.354.146Z" fill="#61616b"></path><path d="M21.7,16.437l-.7-1.9a1.04,1.04,0,0,0-1.3-.6l-4.8,1.7-2.5.9-.5.2-2.7-1-5.1-1.8a1.04,1.04,0,0,0-1.3.6l-.7,1.9a1.209,1.209,0,0,0,.7,1.3l3.3,1.2h0l-3.3,1.2a1.04,1.04,0,0,0-.6,1.3l.7,1.9a1.04,1.04,0,0,0,1.3.6l16.9-6.2A1.145,1.145,0,0,0,21.7,16.437Zm-.6,3.7-.4-.2-5.8,2.1,4.8,1.8a1.04,1.04,0,0,0,1.3-.6l.7-1.9A1.02,1.02,0,0,0,21.1,20.137Z" fill="#61616b"></path></g></svg>