<svg xmlns="http://www.w3.org/2000/svg" height="16" width="16" viewBox="0 0 16 16"><title>fire 2</title><g fill="#61616b" class="nc-icon-wrapper"><path d="M8.707.293a1.029,1.029,0,0,0-1.414,0C7.077.509,2,5.636,2,10a6,6,0,0,0,12,0C14,5.636,8.923.509,8.707.293ZM8,14a4,4,0,0,1-4-4C4,7.5,6.459,4.2,8,2.464,9.541,4.2,12,7.5,12,10A4,4,0,0,1,8,14Z" fill="#61616b"></path><path data-color="color-2" d="M7.593,6.163A7.386,7.386,0,0,0,6,9.708a2,2,0,0,0,4,0A7.378,7.378,0,0,0,8.407,6.163.519.519,0,0,0,7.593,6.163Z" fill="#61616b"></path></g></svg>