<svg xmlns="http://www.w3.org/2000/svg" height="32" width="32" viewBox="0 0 32 32"><title>fish 5</title><g fill="#61616b" class="nc-icon-wrapper"><path d="M20.669,11.277a17.983,17.983,0,0,1-4.746-8.889C13.19,1.463,9.4,1.63,7.229,3.807A1,1,0,0,0,7.642,5.47a6.01,6.01,0,0,1,2.873,2.282C7.38,13.069,7.951,19.084,8.366,21.53l-6.233.693a1,1,0,0,0-.6,1.7l6.505,6.5a1,1,0,0,0,1.7-.6l.693-6.231a23.814,23.814,0,0,0,4.022.339,17.877,17.877,0,0,0,12.888-4.895,11.57,11.57,0,0,0,1.964-2.64A19.165,19.165,0,0,1,20.669,11.277Z" fill="#61616b"></path> <path data-color="color-2" d="M22.083,9.863a17.188,17.188,0,0,0,8.042,4.7c1.968-5.549.012-11.661-.1-11.99a1,1,0,0,0-.643-.636c-.279-.091-6.125-1.913-11.563-.2A15.936,15.936,0,0,0,22.083,9.863Z" fill="#61616b"></path></g></svg>