<svg xmlns="http://www.w3.org/2000/svg" height="48" width="48" viewBox="0 0 48 48"><title>fish 4</title><g fill="#61616b" class="nc-icon-wrapper"><path fill="#61616b" d="M28.285,19.651c-3.307-3.307-5.318-7.479-6.329-13.111c-3.438-0.846-7.739-0.433-10.299,2.129 c-0.248,0.248-0.348,0.607-0.264,0.948c0.085,0.34,0.342,0.611,0.677,0.715c1.472,0.453,2.999,1.697,4.168,3.377 c-4.443,7.362-3.449,15.817-2.896,18.823l-8.734,0.97c-0.382,0.043-0.706,0.301-0.833,0.663c-0.128,0.363-0.035,0.767,0.236,1.038 l8.738,8.737c0.19,0.19,0.446,0.293,0.707,0.293c0.111,0,0.223-0.019,0.331-0.057c0.362-0.127,0.62-0.451,0.663-0.833l0.97-8.731 c1.189,0.222,3.223,0.514,5.707,0.514c4.986,0,11.767-1.179,17.063-6.477c0.742-0.742,1.379-1.531,1.926-2.353 C35.643,25.295,31.756,23.124,28.285,19.651z"></path> <path data-color="color-2" fill="#61616b" d="M29.699,18.237c3.35,3.349,7.107,5.386,11.461,6.239c3.807-7.763,0.943-17.295,0.795-17.772 c-0.099-0.319-0.352-0.568-0.672-0.663c-0.409-0.12-9.637-2.759-17.271,0.576C24.978,11.664,26.738,15.276,29.699,18.237z M32.5,10 c0.828,0,1.5,0.672,1.5,1.5S33.328,13,32.5,13S31,12.328,31,11.5S31.672,10,32.5,10z"></path></g></svg>