<svg xmlns="http://www.w3.org/2000/svg" height="24" width="24" viewBox="0 0 24 24"><title>fishbone</title><g fill="#61616b" class="nc-icon-wrapper"><path d="M22.1,2.543a1,1,0,0,0-.626-.631A15.685,15.685,0,0,0,13.07,1.59,1,1,0,0,0,12.4,2.846a13.3,13.3,0,0,0,2.635,4.72L13.284,9.312a11.243,11.243,0,0,1-2.4-4.891,1,1,0,1,0-1.957.414,13.256,13.256,0,0,0,2.923,5.915L10.1,12.494A11.238,11.238,0,0,1,8.252,9.4a1,1,0,1,0-1.859.737,13.188,13.188,0,0,0,2.294,3.775L7.219,15.377l-5.214.745a1,1,0,0,0-.566,1.7L6.19,22.57a1,1,0,0,0,1.7-.565l.745-5.214L10.1,15.323a13.167,13.167,0,0,0,3.776,2.293,1,1,0,1,0,.734-1.859,11.227,11.227,0,0,1-3.1-1.849l1.745-1.744a13.276,13.276,0,0,0,5.915,2.923.985.985,0,0,0,.208.021,1,1,0,0,0,.206-1.978,11.248,11.248,0,0,1-4.891-2.4L16.444,8.98a13.315,13.315,0,0,0,4.706,2.63.982.982,0,0,0,.3.045,1.013,1.013,0,0,0,.476-.12,1,1,0,0,0,.485-.6A15.99,15.99,0,0,0,22.1,2.543Z" fill="#61616b"></path></g></svg>