<svg xmlns="http://www.w3.org/2000/svg" height="64" width="64" viewBox="0 0 64 64"><title>fishbone 2</title><g fill="#61616b" class="nc-icon-wrapper"><path d="M50.188,38.833A26.531,26.531,0,0,1,33.6,31.758l5.227-5.227c-.245-.226-.506-.44-.74-.675s-.448-.494-.674-.739l-5.228,5.227a26.546,26.546,0,0,1-7.063-16.4,1.022,1.022,0,0,0-1.06-.935,1,1,0,0,0-.936,1.06,28.561,28.561,0,0,0,7.629,17.7L24.038,38.49a26.383,26.383,0,0,1-5.27-8.366,1,1,0,0,0-1.862.73,28.361,28.361,0,0,0,5.718,9.05l-3.941,3.941L4.394,45.433a1,1,0,0,0-.6,1.7L16.809,60.145a1,1,0,0,0,1.7-.6L20.1,45.259l3.953-3.953a28.484,28.484,0,0,0,7.155,4.913,1,1,0,0,0,.861-1.8,26.524,26.524,0,0,1-6.6-4.522l6.7-6.7a28.534,28.534,0,0,0,17.909,7.641.552.552,0,0,0,.057,0,1,1,0,0,0,.054-2Z" fill="#61616b"></path> <path data-color="color-2" d="M59.123,5.455a1,1,0,0,0-.644-.639c-.61-.2-15.1-4.737-26.558,1.245A1,1,0,0,0,31.4,7.14c1.509,7.7,4.158,13.363,8.1,17.3s9.617,6.6,17.325,8.1a.967.967,0,0,0,.192.018,1,1,0,0,0,.884-.533C63.983,20.5,59.324,6.063,59.123,5.455ZM43.5,14A2.5,2.5,0,1,1,46,11.5,2.5,2.5,0,0,1,43.5,14Z" fill="#61616b"></path></g></svg>