<svg xmlns="http://www.w3.org/2000/svg" height="16" width="16" viewBox="0 0 16 16"><title>fish 2</title><g fill="#61616b" class="nc-icon-wrapper"><path data-color="color-2" fill="#61616b" d="M11.4,4.6c1.2,1.2,2.7,2,4.4,2.4c0.7-2.8-0.2-5.7-0.3-5.8c-0.1-0.3-0.3-0.5-0.6-0.6 c-0.2-0.1-3-1-5.8-0.3C9.4,1.9,10.2,3.4,11.4,4.6z"></path> <path fill="#61616b" d="M10,6C8.6,4.6,7.6,2.9,7.1,1C6.7,1.3,6.3,1.6,5.9,1.9c-2.8,2.8-2.5,6.5-2.2,8.3l-2.9,0.4 c-0.8,0.1-1.1,1.1-0.6,1.7l3.4,3.4c0.6,0.6,1.6,0.2,1.7-0.6l0.4-2.9c0.6,0.1,1.3,0.2,2.1,0.2c1.9,0,4.3-0.5,6.2-2.4 c0.4-0.4,0.7-0.8,0.9-1.2C13.1,8.4,11.4,7.4,10,6z"></path></g></svg>