<svg xmlns="http://www.w3.org/2000/svg" height="24" width="24" viewBox="0 0 24 24"><title>fish</title><g fill="#61616b" class="nc-icon-wrapper"><path data-color="color-2" d="M15.369,8.642A12.484,12.484,0,0,0,21.986,12.1c1.837-4.215.2-9.3.109-9.557a1,1,0,0,0-.624-.63c-.259-.088-5.328-1.771-9.566.1A12.473,12.473,0,0,0,15.369,8.642Z" fill="#61616b"></path> <path d="M13.955,10.056A14.441,14.441,0,0,1,10.093,3.1a8.263,8.263,0,0,0-.737.641c-4,4.006-3.414,9.416-2.913,11.75l-4.438.634a1,1,0,0,0-.566,1.7l4.75,4.75a1,1,0,0,0,1.7-.565l.634-4.438a16.016,16.016,0,0,0,3.34.358,11.59,11.59,0,0,0,8.41-3.272,7.956,7.956,0,0,0,.639-.736A14.454,14.454,0,0,1,13.955,10.056Z" fill="#61616b"></path></g></svg>