<svg xmlns="http://www.w3.org/2000/svg" height="32" width="32" viewBox="0 0 32 32"><title>fishbone 4</title><g fill="#61616b" class="nc-icon-wrapper"><path d="M30.036,2.57a1,1,0,0,0-.643-.638c-.314-.1-7.751-2.431-13.664.655a1,1,0,0,0-.519,1.079,17.691,17.691,0,0,0,3.513,8.169l-2.615,2.614A12.771,12.771,0,0,1,13.06,6.943a1,1,0,0,0-2,.125,14.774,14.774,0,0,0,3.631,8.8l-2.648,2.648A12.658,12.658,0,0,1,9.851,14.88a1,1,0,0,0-1.864.728,14.634,14.634,0,0,0,2.645,4.317l-1.52,1.52-6.97.775a1,1,0,0,0-.6,1.7l6.506,6.5a1,1,0,0,0,1.7-.6l.774-6.97,1.514-1.514a14.778,14.778,0,0,0,3.346,2.216,1,1,0,1,0,.863-1.8,12.748,12.748,0,0,1-2.795-1.825l2.655-2.654a14.759,14.759,0,0,0,8.9,3.637l.056,0a1,1,0,0,0,.055-2,12.771,12.771,0,0,1-7.6-3.055l2.614-2.614a17.67,17.67,0,0,0,8.179,3.515,1.048,1.048,0,0,0,.192.018,1,1,0,0,0,.885-.533C32.532,10.3,30.14,2.883,30.036,2.57Z" fill="#61616b"></path></g></svg>