<svg xmlns="http://www.w3.org/2000/svg" height="48" width="48" viewBox="0 0 48 48"><title>fishbone 3</title><g fill="#61616b" class="nc-icon-wrapper"><path fill="#61616b" d="M37.195,28.018c-3.913-0.829-7.49-2.682-10.42-5.361l4.17-4.171c-0.245-0.227-0.493-0.449-0.729-0.685 c-0.236-0.236-0.459-0.484-0.685-0.729l-4.17,4.171c-2.68-2.931-4.532-6.508-5.36-10.419c-0.114-0.54-0.646-0.887-1.186-0.771 c-0.54,0.114-0.886,0.646-0.771,1.186c0.908,4.292,2.95,8.213,5.903,11.419l-4.578,4.578c-1.836-2.007-3.297-4.292-4.303-6.837 c-0.203-0.514-0.784-0.768-1.297-0.562c-0.514,0.202-0.766,0.783-0.562,1.297c1.106,2.802,2.718,5.314,4.748,7.516l-3.604,3.604 L3.835,34.014c-0.369,0.062-0.673,0.325-0.787,0.682s-0.02,0.747,0.245,1.012l9,9C12.483,44.897,12.739,45,13,45 c0.102,0,0.204-0.016,0.304-0.047c0.356-0.114,0.62-0.417,0.683-0.786l1.779-10.5l3.604-3.604c2.201,2.029,4.713,3.641,7.517,4.748 c0.12,0.048,0.244,0.07,0.367,0.07c0.398,0,0.774-0.239,0.93-0.633c0.203-0.513-0.049-1.094-0.562-1.297 c-2.546-1.007-4.831-2.468-6.837-4.303l4.578-4.578c3.206,2.953,7.127,4.995,11.42,5.904c0.069,0.015,0.14,0.021,0.208,0.021 c0.462,0,0.878-0.322,0.978-0.793C38.081,28.663,37.735,28.132,37.195,28.018z"></path> <path data-color="color-2" fill="#61616b" d="M42.976,5.778c-0.085-0.373-0.375-0.665-0.748-0.752c-0.353-0.083-8.73-2.001-15.949,0.105 c-0.258,0.075-0.475,0.25-0.602,0.486s-0.153,0.513-0.074,0.77c1.163,3.762,3.248,7.219,6.028,9.999 c2.773,2.773,6.223,4.855,9.976,6.021c0.098,0.03,0.197,0.045,0.297,0.045c0.164,0,0.328-0.041,0.476-0.12 c0.236-0.128,0.411-0.346,0.485-0.604C44.925,14.542,43.056,6.133,42.976,5.778z"></path></g></svg>