<svg xmlns="http://www.w3.org/2000/svg" height="64" width="64" viewBox="0 0 64 64"><title>fish 3</title><g fill="#61616b" class="nc-icon-wrapper"><path data-color="color-2" d="M39.972,23.942A26.5,26.5,0,0,0,58,31.822a30.3,30.3,0,0,0,2.976-14.893A44.312,44.312,0,0,0,59.1,5.459a1,1,0,0,0-.643-.637c-.593-.19-14.171-4.449-25.429.689C33.491,13.9,35.638,19.609,39.972,23.942ZM43.5,9A2.5,2.5,0,1,1,41,11.5,2.5,2.5,0,0,1,43.5,9Z" fill="#61616b"></path> <path d="M38.558,25.356C33.9,20.7,31.509,14.4,31.031,5.553,25.916,3.984,19.1,4.387,15.163,8.32a1,1,0,0,0,.413,1.663,13.4,13.4,0,0,1,6.645,5.481c-7.007,11.35-5.094,24.574-4.315,28.471l-13.53,1.5a1,1,0,0,0-.6,1.7L16.79,60.15a1,1,0,0,0,1.7-.6l1.5-13.528a46.027,46.027,0,0,0,8.934.861c7.328,0,17.283-1.733,25.055-9.505a21.708,21.708,0,0,0,2.9-3.62A28.231,28.231,0,0,1,38.558,25.356Z" fill="#61616b"></path></g></svg>