<svg xmlns="http://www.w3.org/2000/svg" height="64" width="64" viewBox="0 0 64 64"><title>flower 07 3</title><g fill="#61616b" class="nc-icon-wrapper"><path fill="#61616b" d="M51,7c-10.17285,0-16.75781,7.31836-19,10.26953C29.75781,14.31836,23.17285,7,13,7 c-0.55273,0-1,0.44775-1,1v14c0,11.02783,8.97168,20,20,20s20-8.97217,20-20V8C52,7.44775,51.55273,7,51,7z"></path> <path fill="#61616b" d="M33,52.21069V41c0-0.55225-0.44727-1-1-1s-1,0.44775-1,1v6h-2c-0.55273,0-1,0.44775-1,1s0.44727,1,1,1h2v13 c0,0.55225,0.44727,1,1,1s1-0.44775,1-1v-3.05048C39.15839,58.44019,44,53.28979,44,47v-2 C39.07617,45,34.84991,47.96832,33,52.21069z"></path> <path data-color="color-2" fill="#61616b" d="M32,14.13672c1.74121-1.93805,4.33667-4.33417,7.72064-6.18866 c-3.18384-3.38391-7.01459-5.69122-7.20892-5.80695c-0.31445-0.18848-0.70898-0.18848-1.02344,0 c-0.19434,0.11572-4.02509,2.42303-7.20892,5.80695C27.66333,9.80255,30.25879,12.19867,32,14.13672z"></path></g></svg>