<svg xmlns="http://www.w3.org/2000/svg" height="64" width="64" viewBox="0 0 64 64"><title>flower rose 2</title><g fill="#61616b" class="nc-icon-wrapper"><path d="M41.24,47.954a10.484,10.484,0,0,0-6.906-.251A27.036,27.036,0,0,0,37,36a1,1,0,0,0-2,0A24.927,24.927,0,0,1,24.456,56.388,11.881,11.881,0,0,0,14.023,41a1.01,1.01,0,0,0-.992.588,11.976,11.976,0,0,0,1.754,12.54,11.8,11.8,0,0,0,6.827,4A24.976,24.976,0,0,1,10,61a1,1,0,0,0,0,2,26.956,26.956,0,0,0,13.838-3.811,27.154,27.154,0,0,0,8.429-7.94,10.474,10.474,0,0,0,3.607,5.887A11.821,11.821,0,0,0,43.575,60,11.988,11.988,0,0,0,48.4,58.979,1,1,0,0,0,49,57.964,11.821,11.821,0,0,0,41.24,47.954Z" fill="#61616b"></path><path d="M36,1C27.028,1,20,4.514,20,9V21a16,16,0,0,0,32,0V9C52,4.514,44.972,1,36,1ZM49.96,11.5c-.413,7.929-5.654,10.712-9.911,12.953C36.3,26.428,34,27.8,34,31a3.96,3.96,0,0,0,.82,2.4A1,1,0,1,1,33.225,34.6,5.944,5.944,0,0,1,32,31c0-4.569,3.618-6.475,7.117-8.316,4.225-2.225,8.577-4.537,8.856-11.482C47.692,7.7,42.542,5,36,5,31.03,5,26,6.546,26,9.5S31.03,14,36,14c3.484,0,7-.928,7-3s-3.516-3-7-3a1,1,0,0,0,0,2c2.764,0,4.439.63,4.909,1-.47.37-2.145,1-4.909,1-5.177,0-8-1.651-8-2.5S30.823,7,36,7c5.894,0,10,2.371,10,4.5S41.894,16,36,16c-7.589,0-14-2.977-14-6.5S28.411,3,36,3,50,5.977,50,9.5Z" fill="#61616b" data-color="color-2"></path></g></svg>