<svg xmlns="http://www.w3.org/2000/svg" height="16" width="16" viewBox="0 0 16 16"><title>flower 07 2</title><g fill="#61616b" class="nc-icon-wrapper"><path fill="#61616b" d="M15,4c-3.16211,0-5.74805,2.19482-6.99414,3.4834C6.77148,6.19141,4.20605,4,1,4H0v4 c0,4.41113,3.58887,8,8,8s8-3.58887,8-8V4H15z"></path> <path data-color="color-2" fill="#61616b" d="M8.01172,4.76807c1.00543-0.81714,2.29364-1.65088,3.78931-2.18774 c-1.27979-1.48596-3.10358-2.36078-3.38501-2.4895c-0.25684-0.11865-0.55176-0.12158-0.81445-0.0083 C7.4873,0.13232,5.5368,0.99957,4.19238,2.56763C5.70825,3.10382,7.00439,3.94446,8.01172,4.76807z"></path></g></svg>