<svg xmlns="http://www.w3.org/2000/svg" height="24" width="24" viewBox="0 0 24 24"><title>flower 07</title><g fill="#61616b" class="nc-icon-wrapper"><path fill="#61616b" d="M12,11c0,0-4-6-10-6c0,2.41663,0,8,0,8c0,5.52283,4.47717,10,10,10s10-4.47717,10-10c0,0,0-5.58337,0-8 C16,5,12,11,12,11z"></path> <path data-color="color-2" fill="#61616b" d="M12,7.86182c0.98035-1.03473,2.36938-2.27289,4.09735-3.24146C14.33917,2.81262,12,2,12,2 S9.62238,2.76465,7.86176,4.59845C9.6084,5.57025,11.01202,6.81903,12,7.86182z"></path></g></svg>