<svg xmlns="http://www.w3.org/2000/svg" height="48" width="48" viewBox="0 0 48 48"><title>flower 2 4</title><g fill="#61616b" class="nc-icon-wrapper"><path data-color="color-2" fill="#61616b" d="M32,34c-3.01385,0-5.63599,1.66821-7,4.13007V34c0-0.55225-0.44775-1-1-1s-1,0.44775-1,1v12 c0,0.55225,0.44775,1,1,1s1-0.44775,1-1v-2c4.41827,0,8-3.58173,8-8v-2H32z"></path> <path fill="#61616b" d="M39,16c0-2.11115-1.57245-3.91284-3.79266-4.64612c1.04865-2.08722,0.89087-4.46887-0.60071-5.96051 c-1.49164-1.49158-3.87329-1.64935-5.96051-0.60077C27.91284,2.57239,26.11115,1,24,1s-3.91284,1.57239-4.64612,3.7926 c-2.08722-1.04858-4.46887-0.89081-5.96051,0.60077c-1.49158,1.49164-1.64935,3.87329-0.60071,5.96051 C10.57245,12.08716,9,13.88885,9,16s1.57245,3.91284,3.79266,4.64612c-1.04865,2.08722-0.89087,4.46887,0.60071,5.96045 c1.49164,1.49164,3.87329,1.64941,5.96051,0.60077C20.08716,29.42755,21.88885,31,24,31s3.91284-1.57245,4.64612-3.79266 c2.08722,1.04865,4.46887,0.89087,5.96051-0.60077c1.49158-1.49158,1.64935-3.87323,0.60071-5.96045 C37.42755,19.91284,39,18.11115,39,16z M24,20c-2.20917,0-4-1.79083-4-4s1.79083-4,4-4s4,1.79083,4,4S26.20917,20,24,20z"></path></g></svg>