<svg xmlns="http://www.w3.org/2000/svg" height="64" width="64" viewBox="0 0 64 64"><title>food dog 3</title><g fill="#61616b" class="nc-icon-wrapper"><path data-color="color-2" fill="#61616b" d="M38.9751,17.28418l-9.57037,16.68958C30.24176,33.98987,31.10254,34,32,34 c4.40253,0,8.05835-0.20782,11.02716-0.50513l5.9892-10.4613c1.81702,1.04053,4.03125,1.3877,6.21155,0.79504 c4.36047-1.18518,6.93457-5.68079,5.74939-10.04126s-5.68079-6.93457-10.04138-5.74951 c-1.18518-4.36047-5.68079-6.93457-10.04126-5.74939s-6.93469,5.68079-5.74951,10.04138 C35.73779,14.51001,37.15796,16.2439,38.9751,17.28418z"></path> <path fill="#61616b" d="M62.79297,56.14746l-6.79492-23.29675c-0.02936-0.8197-0.50311-2.53607-8.14246-3.76385l-1.06592,1.86188 c4.95135,0.7345,6.76587,1.64435,7.15857,2.0542C52.96582,34.12891,45.17188,36,32,36c-13.18457,0-20.98047-1.87402-21.95117-3 c0.90393-1.04852,7.73212-2.74402,19.31293-2.97253l1.15588-2.0155C25.11633,28.0885,8.67627,28.6601,8.03082,32.75177 L1.20703,56.14746C1.06934,56.42578,1,56.71191,1,57c0,5.93164,29.73438,6,31,6s31-0.06836,31-6 C63,56.71191,62.93066,56.42578,62.79297,56.14746z"></path></g></svg>