<svg xmlns="http://www.w3.org/2000/svg" height="48" width="48" viewBox="0 0 48 48"><title>forest 3</title><g fill="#61616b" class="nc-icon-wrapper"><path fill="#61616b" d="M38.91602,36.59912l-14-32C24.75684,4.23535,24.39746,4,24,4s-0.75684,0.23535-0.91602,0.59912l-14,32 c-0.13525,0.30908-0.10547,0.66602,0.0791,0.94824S9.6626,38,10,38h12v4c0,1.10449,0.89551,2,2,2s2-0.89551,2-2v-4h12 c0.3374,0,0.65234-0.17041,0.83691-0.45264S39.05127,36.9082,38.91602,36.59912z"></path> <path data-color="color-2" fill="#61616b" d="M45.89453,26.55273l-10-20c-0.33887-0.67773-1.4502-0.67773-1.78906,0l-3.28088,6.56207 L37.3371,28H45c0.34668,0,0.66846-0.17969,0.85059-0.47412C46.03271,27.23096,46.04932,26.86279,45.89453,26.55273z"></path> <path data-color="color-2" fill="#61616b" d="M17.17529,13.11456l-3.28076-6.56183c-0.33887-0.67773-1.4502-0.67773-1.78906,0l-10,20 c-0.15479,0.31006-0.13818,0.67822,0.04395,0.97314C2.33154,27.82031,2.65332,28,3,28h7.66321L17.17529,13.11456z"></path></g></svg>