<svg xmlns="http://www.w3.org/2000/svg" height="48" width="48" viewBox="0 0 48 48"><title>goose 3</title><g fill="#61616b" class="nc-icon-wrapper"><path d="M42.802,23.035c-1.245-2.696-2.794-6.052-3.812-13.177-.758-5.299-4.37-8.858-8.99-8.858-2.017,0-4.083,.385-6,1.116-1.917-.731-3.983-1.116-6-1.116-4.62,0-8.232,3.56-8.99,8.858-1.018,7.125-2.566,10.48-3.812,13.177-1.18,2.556-2.198,4.763-2.198,8.965,0,8.271,6.729,15,15,15h12c8.271,0,15-6.729,15-15,0-4.202-1.019-6.409-2.198-8.965Zm-8.802-12.035c1.105,0,2,.895,2,2s-.895,2-2,2-2-.895-2-2,.895-2,2-2Zm-16.961,8.564c.198-2.54,2.38-4.564,4.961-4.564,.383,0,.766,.046,1.139,.137,.572,.139,1.15,.139,1.723,0,.373-.091,.756-.137,1.139-.137,2.581,0,4.763,2.024,4.966,4.609l.772,6.223c.154,1.243,.518,2.442,1.078,3.564l2.748,5.496-.728,.121c-3.427,.571-5.046,.12-6.761-.356-1.163-.323-2.365-.658-4.069-.658h-.006c-1.705,0-2.909,.335-4.072,.658-1.715,.479-3.336,.927-6.764,.356l-.728-.121,2.748-5.496c.561-1.122,.924-2.321,1.078-3.564l.777-6.268Zm-3.039-8.564c1.105,0,2,.895,2,2s-.895,2-2,2-2-.895-2-2,.895-2,2-2Zm10.021,30.016c-2.313,0-4.638-.618-6.71-1.862l-4.615-2.19,.14,.023c1.251,.209,2.307,.291,3.222,.291,1.912,0,3.213-.361,4.405-.692,1.082-.302,2.104-.586,3.538-.586h.005c1.431,0,2.452,.284,3.534,.585,1.762,.49,3.761,1.045,7.624,.402l.14-.023-4.701,2.236c-2.011,1.209-4.291,1.816-6.582,1.816Z" fill="#61616b"></path></g></svg>