<svg xmlns="http://www.w3.org/2000/svg" height="32" width="32" viewBox="0 0 32 32"><title>goose 4</title><g fill="#61616b" class="nc-icon-wrapper"><path d="M28.257,14.166c-.886-1.893-1.722-3.68-1.756-6.964-.038-3.774-2.894-6.93-6.499-7.184-1.137-.085-2.233,.104-3.268,.554-.467,.203-1.002,.202-1.468,0C14.231,.123,13.131-.064,11.999,.019c-3.606,.254-6.462,3.409-6.5,7.183-.034,3.285-.87,5.072-1.755,6.965-.857,1.832-1.744,3.727-1.744,6.834,0,6.065,4.935,11,11,11h6c6.065,0,11-4.935,11-11.001,0-3.107-.886-5.001-1.743-6.833ZM7.5,9c0-.828,.672-1.5,1.5-1.5s1.5,.672,1.5,1.5-.672,1.5-1.5,1.5-1.5-.672-1.5-1.5Zm16.294,14.038c-.06,.267-.227,.497-.461,.638l-3.731,2.238c-1.11,.667-2.356,1-3.601,1s-2.491-.333-3.602-1l-3.731-2.238c-.235-.141-.401-.371-.461-.638-.06-.268-.008-.547,.144-.774l2.622-3.933,1.106-5.116c.358-1.854,2.01-3.215,3.922-3.215,1.89,0,3.536,1.341,3.917,3.188l1.111,5.143,2.622,3.933c.152,.228,.204,.507,.144,.774Zm-.794-12.538c-.828,0-1.5-.672-1.5-1.5s.672-1.5,1.5-1.5,1.5,.672,1.5,1.5-.672,1.5-1.5,1.5Z" fill="#61616b"></path></g></svg>