<svg xmlns="http://www.w3.org/2000/svg" height="64" width="64" viewBox="0 0 64 64"><title>goose 2</title><g fill="#61616b" class="nc-icon-wrapper"><path d="M56.186,30.608c-1.631-3.444-3.661-7.729-4.995-17.202-.991-7.035-5.279-11.406-11.191-11.406-2.665,0-5.555,.542-7.999,1.492-2.444-.95-5.335-1.492-8.001-1.492-5.91,0-10.198,4.371-11.189,11.406-1.334,9.473-3.364,13.758-4.995,17.202-1.572,3.319-2.814,5.941-2.814,11.392,0,11.028,8.972,20,20,20h14c11.028,0,20-8.972,20-20,0-5.45-1.242-8.072-2.814-11.392Zm-26.822-10.154c.478,0,.958,.058,1.428,.172,.804,.196,1.617,.197,2.417,0,.471-.114,.951-.172,1.429-.172,3.238,0,5.974,2.54,6.228,5.783l1.335,10.745,4.389,8.946-.698,.078c-5.17,.575-6.865,.14-8.662-.321-1.312-.337-2.668-.685-5.228-.685s-3.916,.348-5.228,.685c-1.797,.461-3.49,.896-8.662,.321l-.698-.078,4.389-8.946,1.34-10.79c.249-3.198,2.984-5.738,6.223-5.738Zm-13.363-2.454c0-1.657,1.343-3,3-3s3,1.343,3,3-1.343,3-3,3-3-1.343-3-3Zm16,35c-4.803,0-7.49-1.49-10.335-3.067-1.208-.67-2.46-1.36-3.922-1.955l.147,.016c5.53,.614,7.488,.113,9.38-.372,1.246-.32,2.424-.622,4.73-.622s3.484,.302,4.73,.622c1.266,.324,2.56,.656,4.936,.656,1.175,0,2.614-.081,4.444-.284l.147-.016c-1.462,.595-2.714,1.285-3.922,1.955-2.845,1.577-5.532,3.067-10.335,3.067Zm13-32c-1.657,0-3-1.343-3-3s1.343-3,3-3,3,1.343,3,3-1.343,3-3,3Z" fill="#61616b"></path></g></svg>