<svg xmlns="http://www.w3.org/2000/svg" height="64" width="64" viewBox="0 0 64 64"><title>grain 2</title><g fill="#61616b" class="nc-icon-wrapper"><path d="M48,20h-2c-6.388,0-11.841,4.021-14,9.659-2.159-5.638-7.612-9.659-14-9.659h-2c-.553,0-1,.448-1,1v1c0,8.271,6.729,15,15,15h4c8.271,0,15-6.729,15-15v-1c0-.552-.447-1-1-1Z" fill="#61616b" data-color="color-2"></path><path d="M51,37h-3c-6.489,0-12.136,3.658-15,9.017v-6.017c0-.552-.447-1-1-1s-1,.448-1,1v6.017c-2.864-5.359-8.511-9.017-15-9.017h-3c-.553,0-1,.448-1,1v2c0,9.374,7.626,17,17,17h2v5c0,.552,.447,1,1,1s1-.448,1-1v-5h2c9.374,0,17-7.626,17-17v-2c0-.552-.447-1-1-1Z" fill="#61616b"></path><path d="M33.655,2.179l-.973-.909c-.385-.359-.98-.359-1.365,0l-.973,.909c-2.856,2.67-4.355,6.209-4.349,9.821-.006,3.612,1.493,7.151,4.349,9.821l.973,.909c.385,.359,.98,.359,1.365,0l.973-.909c2.856-2.67,4.355-6.209,4.349-9.821,.006-3.612-1.493-7.151-4.349-9.821Z" fill="#61616b"></path></g></svg>