<svg xmlns="http://www.w3.org/2000/svg" height="48" width="48" viewBox="0 0 48 48"><title>grain 3</title><g fill="#61616b" class="nc-icon-wrapper"><path d="M38,27h-2c-5.4,0-10.039,3.311-12,8.008-1.961-4.697-6.6-8.008-12-8.008h-2c-.553,0-1,.448-1,1v2c0,7.168,5.832,13,13,13h1v3c0,.552,.447,1,1,1s1-.448,1-1v-3h1c7.168,0,13-5.832,13-13v-2c0-.552-.447-1-1-1Z" fill="#61616b"></path><path d="M24,17.351c1.144-1.455,2.569-2.641,4.162-3.537,.545-1.268,.838-2.63,.838-4.035,0-2.957-1.26-5.73-3.549-7.812l-.778-.707c-.383-.347-.963-.347-1.346,0l-.778,.708c-2.289,2.081-3.549,4.854-3.549,7.811,0,1.406,.293,2.767,.838,4.035,1.593,.896,3.018,2.082,4.162,3.537Z" fill="#61616b"></path><path d="M36,14h-1c-4.917,0-9.148,2.976-11,7.218-1.852-4.243-6.083-7.218-11-7.218h-1c-.553,0-1,.448-1,1v1c0,6.617,5.383,12,12,12h2c6.617,0,12-5.383,12-12v-1c0-.552-.447-1-1-1Z" fill="#61616b" data-color="color-2"></path></g></svg>