<svg xmlns="http://www.w3.org/2000/svg" height="24" width="24" viewBox="0 0 24 24"><title>grain 5</title><g fill="#61616b" class="nc-icon-wrapper"><path d="M19,10a8,8,0,0,0-7,4.136A8,8,0,0,0,5,10a1,1,0,0,0-1,1v1a8.008,8.008,0,0,0,7,7.931V23a1,1,0,0,0,2,0V19.931A8.008,8.008,0,0,0,20,12V11A1,1,0,0,0,19,10Z" fill="#61616b"></path> <path d="M11.375,9.781a1,1,0,0,0,1.25,0A6.664,6.664,0,0,0,15,5,6.664,6.664,0,0,0,12.625.219a1,1,0,0,0-1.25,0A6.664,6.664,0,0,0,9,5,6.664,6.664,0,0,0,11.375,9.781Z" fill="#61616b" data-color="color-2"></path></g></svg>