<svg xmlns="http://www.w3.org/2000/svg" height="32" width="32" viewBox="0 0 32 32"><title>grain 4</title><g fill="#61616b" class="nc-icon-wrapper"><path d="M26,12a11.007,11.007,0,0,0-10,6.444A11.007,11.007,0,0,0,6,12a1,1,0,0,0-1,1v2A11.01,11.01,0,0,0,15,25.949V31a1,1,0,0,0,2,0V25.949A11.01,11.01,0,0,0,27,15V13A1,1,0,0,0,26,12Z" fill="#61616b"></path> <path d="M15.409,12.807a1,1,0,0,0,1.182,0C16.73,12.7,20,10.264,20,6.5S16.73.3,16.591.193a1,1,0,0,0-1.182,0C15.27.3,12,2.736,12,6.5S15.27,12.7,15.409,12.807Z" fill="#61616b" data-color="color-2"></path></g></svg>