<svg xmlns="http://www.w3.org/2000/svg" height="16" width="16" viewBox="0 0 16 16"><title>grain</title><g fill="#61616b" class="nc-icon-wrapper"><path d="M12.5,7c-2.314,0-4.203,1.761-4.451,4.01-.017,0-.032-.01-.049-.01s-.032,.009-.049,.01c-.248-2.249-2.137-4.01-4.451-4.01-.276,0-.5,.224-.5,.5v1c0,2.31,1.756,4.197,4,4.449v2.051c0,.552,.447,1,1,1s1-.448,1-1v-2.051c2.244-.252,4-2.139,4-4.449v-1c0-.276-.224-.5-.5-.5Z" fill="#61616b"></path><path d="M7.723,6.916c.084,.056,.181,.084,.277,.084s.193-.028,.277-.084c.07-.047,1.723-1.174,1.723-3.416S8.348,.131,8.277,.084c-.168-.112-.387-.112-.555,0-.07,.047-1.723,1.174-1.723,3.416s1.652,3.369,1.723,3.416Z" fill="#61616b" data-color="color-2"></path></g></svg>