<svg xmlns="http://www.w3.org/2000/svg" height="24" width="24" viewBox="0 0 24 24"><title>horse 6</title><g fill="#61616b" class="nc-icon-wrapper"><path d="M22.974,15.1A13.038,13.038,0,0,0,9.875,3H9.816A2.99,2.99,0,0,0,7,1V5.061L2.3,11.846a1.681,1.681,0,0,0,.193,2.146l.465.465a1.855,1.855,0,0,0,2.294.261L8,13a4.977,4.977,0,0,0,4-2.027V13c0,1.7-1.132,2.709-2.979,4.215a13.569,13.569,0,0,0-3.916,4.338A1,1,0,0,0,6,23H20.635a.989.989,0,0,0,.894-.553A14.87,14.87,0,0,0,22.974,15.1ZM8,9A1,1,0,1,1,9,8,1,1,0,0,1,8,9Z" fill="#61616b"></path></g></svg>