<svg xmlns="http://www.w3.org/2000/svg" height="64" width="64" viewBox="0 0 64 64"><title>horse 2 3</title><g fill="#61616b" class="nc-icon-wrapper"><path d="M19,45v7A11.013,11.013,0,0,0,30,63h4A11.013,11.013,0,0,0,45,52V45Zm8,10a2,2,0,1,1,2-2A2,2,0,0,1,27,55Zm10,0a2,2,0,1,1,2-2A2,2,0,0,1,37,55Z" fill="#61616b" data-color="color-2"></path><path d="M57,4.776a12.032,12.032,0,0,0-.417-3.023A1,1,0,0,0,55.614,1H55.58A12.246,12.246,0,0,0,44.519,9.015,10.97,10.97,0,0,0,38.2,7H36.576a4.99,4.99,0,0,0-9.152,0H25.805a10.97,10.97,0,0,0-6.324,2.015A12.245,12.245,0,0,0,8.421,1a.96.96,0,0,0-1,.751A11.98,11.98,0,0,0,7,4.776a12.1,12.1,0,0,0,7.956,11.408,11.019,11.019,0,0,0,0,3.624L18.82,43H45.18l3.866-23.192a11.019,11.019,0,0,0,0-3.624A12.1,12.1,0,0,0,57,4.776ZM24.5,27A2.5,2.5,0,1,1,27,24.5,2.5,2.5,0,0,1,24.5,27ZM32,14.53c-1.216-1.39-3-3.8-3-5.53a3,3,0,0,1,6,0C35,10.727,33.216,13.14,32,14.53ZM39.5,27A2.5,2.5,0,1,1,42,24.5,2.5,2.5,0,0,1,39.5,27Z" fill="#61616b"></path></g></svg>