<svg xmlns="http://www.w3.org/2000/svg" height="24" width="24" viewBox="0 0 24 24"><title>horse 2 5</title><g fill="#61616b" class="nc-icon-wrapper"><path d="M22,1.986A4.914,4.914,0,0,0,21.832.753a.971.971,0,0,0-1-.752,4.983,4.983,0,0,0-4.185,2.57A4.988,4.988,0,0,0,14.337,2H9.663a4.984,4.984,0,0,0-2.306.571A4.985,4.985,0,0,0,3.172,0a.963.963,0,0,0-1,.752A4.914,4.914,0,0,0,2,1.986,4.93,4.93,0,0,0,4.706,6.4a4.957,4.957,0,0,0,.015,1.365L6,16.076V19a5.006,5.006,0,0,0,5,5h2a5.006,5.006,0,0,0,5-5V16.076l1.279-8.315A4.957,4.957,0,0,0,19.294,6.4,4.933,4.933,0,0,0,22,1.986ZM7,9.5A1.5,1.5,0,1,1,8.5,11,1.5,1.5,0,0,1,7,9.5ZM16,19a3,3,0,0,1-3,3H11a3,3,0,0,1-3-3V16.47h8Zm-.5-8A1.5,1.5,0,1,1,17,9.5,1.5,1.5,0,0,1,15.5,11Z" fill="#61616b"></path><circle cx="10" cy="19" r="1" fill="#61616b" data-color="color-2"></circle><circle cx="14" cy="19" r="1" fill="#61616b" data-color="color-2"></circle></g></svg>