<svg xmlns="http://www.w3.org/2000/svg" height="48" width="48" viewBox="0 0 48 48"><title>horseshoe 3</title><g fill="#61616b" class="nc-icon-wrapper"><path d="M40.426,7.846l2.426-.909a1,1,0,0,0,.585-1.288l-1.5-4A1,1,0,0,0,41,1a1.016,1.016,0,0,0-.352.064l-8,3a1,1,0,0,0-.531,1.406A41.131,41.131,0,0,1,36,23c0,8.244-4.935,14-12,14S12,31.244,12,23A41.131,41.131,0,0,1,15.883,5.47a1,1,0,0,0-.531-1.406l-8-3a1,1,0,0,0-1.289.585l-1.5,4a1,1,0,0,0,.585,1.288l2.426.909A53.183,53.183,0,0,0,4,26c0,11.58,8.972,21,20,21s20-9.42,20-21A53.183,53.183,0,0,0,40.426,7.846ZM8.5,30.75A1.25,1.25,0,1,1,9.75,29.5,1.25,1.25,0,0,1,8.5,30.75Zm5.25,8.75A1.25,1.25,0,1,1,15,38.25,1.25,1.25,0,0,1,13.75,39.5ZM24,43.5A1.5,1.5,0,1,1,25.5,42,1.5,1.5,0,0,1,24,43.5Zm10.25-4a1.25,1.25,0,1,1,1.25-1.25A1.25,1.25,0,0,1,34.25,39.5Zm5.5-9.5A1.25,1.25,0,1,1,41,28.75,1.25,1.25,0,0,1,39.75,30Z" fill="#61616b"></path></g></svg>