<svg xmlns="http://www.w3.org/2000/svg" height="16" width="16" viewBox="0 0 16 16"><title>horse 2</title><g fill="#61616b" class="nc-icon-wrapper"><path d="M15,1.011c-.004-.342-.052-.681-.141-1.011-1.301,.047-2.502,.712-3.232,1.79-.683-.511-1.514-.788-2.367-.79h-2.52c-.853,.002-1.684,.279-2.367,.79C3.643,.712,2.442,.047,1.141,0c-.089,.33-.137,.669-.141,1.011,0,1.355,.679,2.619,1.808,3.368-.084,.493-.075,.998,.027,1.488l1.165,5.27v1.863c0,1.654,1.346,3,3,3h2c1.654,0,3-1.346,3-3v-1.858l1.165-5.275c.102-.49,.111-.994,.027-1.487,1.129-.749,1.808-2.014,1.808-3.369Zm-5,3.989c.552,0,1,.448,1,1s-.448,1-1,1-1-.448-1-1,.448-1,1-1Zm-4,0c.552,0,1,.448,1,1s-.448,1-1,1-1-.448-1-1,.448-1,1-1Zm4,8c0,.552-.448,1-1,1h-2c-.552,0-1-.448-1-1v-1c0-.552,.448-1,1-1h2c.552,0,1,.448,1,1v1Z" fill="#61616b"></path></g></svg>