<svg xmlns="http://www.w3.org/2000/svg" height="48" width="48" viewBox="0 0 48 48"><title>horse 2 4</title><g fill="#61616b" class="nc-icon-wrapper"><path d="M43,2.5A9.544,9.544,0,0,0,42.851.861a1,1,0,0,0-1.06-.826A9.532,9.532,0,0,0,33.768,5.8,8.968,8.968,0,0,0,28.383,4H27.149a3.479,3.479,0,0,0-6.3,0H19.617a8.968,8.968,0,0,0-5.385,1.8A9.532,9.532,0,0,0,6.209.035a1,1,0,0,0-1.06.826A9.544,9.544,0,0,0,5,2.5a9.531,9.531,0,0,0,5.8,8.729,8.986,8.986,0,0,0-.036,3.41L13.983,32H34.017l3.215-17.361a8.986,8.986,0,0,0-.036-3.41A9.531,9.531,0,0,0,43,2.5ZM18,19a2,2,0,1,1,2-2A2,2,0,0,1,18,19ZM24,8.618A4.981,4.981,0,0,1,22.5,5.5a1.5,1.5,0,0,1,3,0A4.978,4.978,0,0,1,24,8.618ZM30,19a2,2,0,1,1,2-2A2,2,0,0,1,30,19Z" fill="#61616b"></path><path d="M14,34v6a8,8,0,0,0,8,8h4a8,8,0,0,0,8-8V34Zm5.5,8A1.5,1.5,0,1,1,21,40.5,1.5,1.5,0,0,1,19.5,42Zm9,0A1.5,1.5,0,1,1,30,40.5,1.5,1.5,0,0,1,28.5,42Z" fill="#61616b" data-color="color-2"></path></g></svg>