<svg xmlns="http://www.w3.org/2000/svg" height="32" width="32" viewBox="0 0 32 32"><title>horse 2 2</title><g fill="#61616b" class="nc-icon-wrapper"><path d="M29,2.389A6.489,6.489,0,0,0,28.776.753a.979.979,0,0,0-1-.752A6.614,6.614,0,0,0,22.04,3.778,5.984,5.984,0,0,0,19.1,3H17V5a1,1,0,0,1-2,0V3H12.9a5.984,5.984,0,0,0-2.942.778A6.614,6.614,0,0,0,4.228,0a.963.963,0,0,0-1,.751A6.528,6.528,0,0,0,3,2.389,6.531,6.531,0,0,0,6.94,8.4a6.023,6.023,0,0,0,.044,1.585L9,22.082V26a6.006,6.006,0,0,0,6,6h2a6.006,6.006,0,0,0,6-6V22.082l2.016-12.1A6.023,6.023,0,0,0,25.06,8.4,6.531,6.531,0,0,0,29,2.389ZM8.356,5.088c-.01.012-.022.022-.032.034a6.036,6.036,0,0,0-.442.6c-.016.025-.03.052-.046.077a5.983,5.983,0,0,0-.333.6c-.009.019-.021.036-.03.055A4.554,4.554,0,0,1,5,2.389c0-.092,0-.185.011-.281A4.627,4.627,0,0,1,8.359,5.084ZM10.5,11.5A1.5,1.5,0,1,1,12,13,1.5,1.5,0,0,1,10.5,11.5ZM21,26a4,4,0,0,1-4,4H15a4,4,0,0,1-4-4V23H21ZM20,13a1.5,1.5,0,1,1,1.5-1.5A1.5,1.5,0,0,1,20,13Zm4.527-6.546c-.009-.019-.021-.036-.03-.055a5.983,5.983,0,0,0-.333-.6c-.016-.025-.03-.052-.046-.077a6.036,6.036,0,0,0-.442-.6c-.01-.012-.022-.022-.032-.034l0,0a4.629,4.629,0,0,1,3.348-2.976C27,2.2,27,2.3,27,2.389A4.554,4.554,0,0,1,24.527,6.454Z" fill="#61616b"></path><circle cx="14" cy="26" r="1" fill="#61616b" data-color="color-2"></circle><circle cx="18" cy="26" r="1" fill="#61616b" data-color="color-2"></circle></g></svg>