<svg xmlns="http://www.w3.org/2000/svg" height="48" width="48" viewBox="0 0 48 48"><title>horse 4</title><g fill="#61616b" class="nc-icon-wrapper"><path d="M20,6l-1.1.038A5,5,0,0,0,14,2V8.668L3.853,22.2A4.062,4.062,0,0,0,3.266,26.1a4.332,4.332,0,0,0,6.592,2.085l4.472-3.194A10.016,10.016,0,0,0,23,19.356V25c0,4.07-2.473,6.049-5.606,8.555-3.183,2.545-6.79,5.431-8.359,11.182A1,1,0,0,0,10,46H36.959A21.988,21.988,0,0,0,20,10a1,1,0,0,1,0-2A23.98,23.98,0,0,1,39.476,46H41l.353,0a1,1,0,0,0,.857-.478A26,26,0,0,0,20,6ZM14,16.5A1.5,1.5,0,1,1,15.5,15,1.5,1.5,0,0,1,14,16.5Z" fill="#61616b"></path></g></svg>