<svg xmlns="http://www.w3.org/2000/svg" height="16" width="16" viewBox="0 0 16 16"><title>horseshoe</title><g fill="#61616b" class="nc-icon-wrapper"><path d="M8,16A7.008,7.008,0,0,1,1,9,23.3,23.3,0,0,1,2.026,2.732q.069-.261.139-.532L1.553,1.9A1,1,0,0,1,2.447.105L3.78.772A1,1,0,0,1,4.3,1.909,21.34,21.34,0,0,0,3.25,8,4.8,4.8,0,0,0,8,13a4.8,4.8,0,0,0,4.75-5A21.34,21.34,0,0,0,11.7,1.909,1,1,0,0,1,12.22.772L13.553.105a1,1,0,1,1,.894,1.79l-.612.305q.07.271.139.532A23.3,23.3,0,0,1,15,9,7.008,7.008,0,0,1,8,16Z" fill="#61616b"></path></g></svg>