<svg xmlns="http://www.w3.org/2000/svg" height="64" width="64" viewBox="0 0 64 64"><title>horse 3</title><g fill="#61616b" class="nc-icon-wrapper"><path d="M28,9c-.69,0-1.38.029-2.069.072A7,7,0,0,0,19,3v8.675L4.8,31.206a4.172,4.172,0,0,0,.426,5.43l.923.923a4.885,4.885,0,0,0,5.975.735L19.282,34A13.022,13.022,0,0,0,31,26v8c0,5.688-3.457,8.493-7.46,11.741-3.97,3.222-8.47,6.873-10.5,13.985A1,1,0,0,0,14,61H48.543A27.981,27.981,0,0,0,28,14a1,1,0,0,1,0-2A29.983,29.983,0,0,1,51.2,61h3.257a1,1,0,0,0,.826-.437A33,33,0,0,0,28,9ZM20,21a2,2,0,1,1,2-2A2,2,0,0,1,20,21Z" fill="#61616b"></path></g></svg>