<svg xmlns="http://www.w3.org/2000/svg" height="32" width="32" viewBox="0 0 32 32"><title>horse 5</title><g fill="#61616b" class="nc-icon-wrapper"><path d="M14,4,12.86,4A3.992,3.992,0,0,0,9,1V5.691L2.458,15.286a2.683,2.683,0,0,0,.319,3.4l.616.616a2.367,2.367,0,0,0,3.224.107l2.771-2.425A7.009,7.009,0,0,0,15,13.6V17c0,2.605-1.564,3.875-3.545,5.482C9.413,24.14,7.1,26.018,6.039,29.726A1,1,0,0,0,7,31H27.227a1,1,0,0,0,.826-.437A17,17,0,0,0,14,4Zm-4,6a1,1,0,1,1,1-1A1,1,0,0,1,10,10Z" fill="#61616b"></path></g></svg>