<svg xmlns="http://www.w3.org/2000/svg" height="64" width="64" viewBox="0 0 64 64"><title>horseshoe 2</title><g fill="#61616b" class="nc-icon-wrapper"><path d="M53.335,12.207l3.053-1.285A1,1,0,0,0,56.9,9.553l-3-6a1,1,0,0,0-1.283-.475l-9.5,4a1,1,0,0,0-.489,1.4A51.973,51.973,0,0,1,48,31c0,10.262-6.879,18-16,18S16,41.262,16,31A51.973,51.973,0,0,1,21.377,8.481a1,1,0,0,0-.489-1.4l-9.5-4a1,1,0,0,0-1.283.475l-3,6a1,1,0,0,0,.507,1.369l3.053,1.285A57.962,57.962,0,0,0,6,34C6,49.439,17.663,62,32,62S58,49.439,58,34A57.962,57.962,0,0,0,53.335,12.207ZM14.5,47A1.5,1.5,0,1,1,16,45.5,1.5,1.5,0,0,1,14.5,47Zm7,7.5A1.5,1.5,0,1,1,23,53,1.5,1.5,0,0,1,21.5,54.5ZM32,57a1.5,1.5,0,1,1,1.5-1.5A1.5,1.5,0,0,1,32,57Zm10.5-2.5A1.5,1.5,0,1,1,44,53,1.5,1.5,0,0,1,42.5,54.5Zm7-7.5A1.5,1.5,0,1,1,51,45.5,1.5,1.5,0,0,1,49.5,47Z" fill="#61616b"></path></g></svg>