<svg xmlns="http://www.w3.org/2000/svg" height="32" width="32" viewBox="0 0 32 32"><title>horseshoe 4</title><g fill="#61616b" class="nc-icon-wrapper"><path d="M16,32A14.016,14.016,0,0,0,30,18c0-4.626-1.231-8.9-2.534-13.418l0-.016,1.854-.618a1,1,0,0,0,.579-1.4l-1-2a1,1,0,0,0-1.211-.5l-5,1.667a1,1,0,0,0-.614,1.316A39.3,39.3,0,0,1,24.5,15.5a8.5,8.5,0,0,1-17,0A39.3,39.3,0,0,1,9.93,3.035a1,1,0,0,0-.614-1.316l-5-1.667a1,1,0,0,0-1.211.5l-1,2a1,1,0,0,0,.579,1.4l1.854.618,0,.016C3.231,9.1,2,13.375,2,18A14.016,14.016,0,0,0,16,32Z" fill="#61616b"></path></g></svg>