<svg xmlns="http://www.w3.org/2000/svg" height="24" width="24" viewBox="0 0 24 24"><title>jellyfish</title><g fill="#61616b" class="nc-icon-wrapper"><path data-color="color-2" d="M18,20a.945.945,0,0,0-1,1,1,1,0,0,1-2,0V13H13v8a3,3,0,0,0,6,0A.945.945,0,0,0,18,20Z" fill="#61616b"></path><path data-color="color-2" d="M7,16V13H5v3a.945.945,0,0,1-1,1,.945.945,0,0,1-1-1,.945.945,0,0,0-1-1,.945.945,0,0,0-1,1,2.946,2.946,0,0,0,3,3A2.946,2.946,0,0,0,7,16Z" fill="#61616b"></path><path data-color="color-2" d="M9,13v8a.945.945,0,0,1-1,1,.945.945,0,0,1-1-1,.945.945,0,0,0-1-1,.945.945,0,0,0-1,1,2.946,2.946,0,0,0,3,3,2.946,2.946,0,0,0,3-3V13Z" fill="#61616b"></path><path data-color="color-2" d="M22,15a.945.945,0,0,0-1,1,1,1,0,0,1-2,0V13H17v3a3,3,0,0,0,6,0A.945.945,0,0,0,22,15Z" fill="#61616b"></path><path d="M21.95,11H2.05a1,1,0,0,1-.995-1.1,11,11,0,0,1,21.89,0,1,1,0,0,1-1,1.1Z" fill="#61616b"></path></g></svg>