<svg xmlns="http://www.w3.org/2000/svg" height="48" width="48" viewBox="0 0 48 48"><title>jellyfish 4</title><g fill="#61616b" class="nc-icon-wrapper"><path data-color="color-2" d="M36,41a.945.945,0,0,0-1,1,3,3,0,0,1-6,0V26H27V42a5,5,0,0,0,10,0A.945.945,0,0,0,36,41Z" fill="#61616b"></path><path data-color="color-2" d="M13,32V26H11v6a2.946,2.946,0,0,1-3,3,2.946,2.946,0,0,1-3-3,.945.945,0,0,0-1-1,.945.945,0,0,0-1,1,4.951,4.951,0,0,0,5,5A4.951,4.951,0,0,0,13,32Z" fill="#61616b"></path><path data-color="color-2" d="M19,26V42a3,3,0,0,1-6,0,1,1,0,0,0-2,0,5,5,0,0,0,10,0V26Z" fill="#61616b"></path><path data-color="color-2" d="M44,31a.945.945,0,0,0-1,1,3,3,0,0,1-6,0V26H35v6a5,5,0,0,0,10,0A.945.945,0,0,0,44,31Z" fill="#61616b"></path><path d="M24,1A21,21,0,0,0,3,22v1a.945.945,0,0,0,1,1H44a.945.945,0,0,0,1-1V22A21,21,0,0,0,24,1Z" fill="#61616b"></path></g></svg>