<svg xmlns="http://www.w3.org/2000/svg" height="32" width="32" viewBox="0 0 32 32"><title>jellyfish 5</title><g fill="#61616b" class="nc-icon-wrapper"><path data-color="color-2" d="M23,28a.945.945,0,0,0-1,1,1,1,0,0,1-2,0V19H18V29a3,3,0,0,0,6,0A.945.945,0,0,0,23,28Z" fill="#61616b"></path><path data-color="color-2" d="M12,19V29a.945.945,0,0,1-1,1,.945.945,0,0,1-1-1,.945.945,0,0,0-1-1,.945.945,0,0,0-1,1,3,3,0,0,0,6,0V19Z" fill="#61616b"></path><path data-color="color-2" d="M9,24V19H7v5a.945.945,0,0,1-1,1,.945.945,0,0,1-1-1,.945.945,0,0,0-1-1,.945.945,0,0,0-1,1,2.946,2.946,0,0,0,3,3A2.946,2.946,0,0,0,9,24Z" fill="#61616b"></path><path d="M16,0A14.98,14.98,0,0,0,1,15v1a.945.945,0,0,0,1,1H30a.945.945,0,0,0,1-1V15A14.98,14.98,0,0,0,16,0Z" fill="#61616b"></path><path data-color="color-2" d="M28,23a.945.945,0,0,0-1,1,1,1,0,0,1-2,0V19H23v5a3,3,0,0,0,6,0A.945.945,0,0,0,28,23Z" fill="#61616b"></path></g></svg>