<svg xmlns="http://www.w3.org/2000/svg" height="64" width="64" viewBox="0 0 64 64"><title>jellyfish 3</title><g fill="#61616b" class="nc-icon-wrapper"><path data-color="color-2" d="M28,35V58a5,5,0,0,1-10,0,1,1,0,0,1,2,0,3,3,0,0,0,6,0V35Z" fill="#61616b"></path><path data-color="color-2" d="M18,35V48A5,5,0,0,1,8,48a1,1,0,0,1,2,0,3,3,0,0,0,6,0V35Z" fill="#61616b"></path><path data-color="color-2" d="M48,35V48a3,3,0,0,0,6,0,1,1,0,0,1,2,0,5,5,0,0,1-10,0V35Z" fill="#61616b"></path><path data-color="color-2" d="M38,35V58a3,3,0,0,0,6,0,1,1,0,0,1,2,0,5,5,0,0,1-10,0V35Z" fill="#61616b"></path><path d="M60,33H4a1,1,0,0,1-1-1V30a29,29,0,0,1,58,0v2A1,1,0,0,1,60,33Z" fill="#61616b"></path></g></svg>