<svg xmlns="http://www.w3.org/2000/svg" height="16" width="16" viewBox="0 0 16 16"><title>jellyfish 2</title><g fill="#61616b" class="nc-icon-wrapper"><path d="M15,9H1A1,1,0,0,1,0,8,8,8,0,0,1,16,8,1,1,0,0,1,15,9Z" fill="#61616b"></path><path data-color="color-2" d="M3,10v3.5a.5.5,0,0,1-1,0V13a1,1,0,0,0-2,0v.5a2.5,2.5,0,0,0,5,0V10Z" fill="#61616b"></path><path data-color="color-2" d="M13,10v3.5a.5.5,0,0,0,1,0V13a1,1,0,0,1,2,0v.5a2.5,2.5,0,0,1-5,0V10Z" fill="#61616b"></path><path data-color="color-2" d="M7,10v3a1,1,0,0,0,2,0V10Z" fill="#61616b"></path></g></svg>