<svg xmlns="http://www.w3.org/2000/svg" height="32" width="32" viewBox="0 0 32 32"><title>land 4</title><g fill="#61616b" class="nc-icon-wrapper"><path d="M15.684,8.059c.209-.666,.316-1.361,.316-2.059,0-3.309-2.243-6-5-6S6,2.691,6,6c0,.698,.107,1.393,.316,2.059-1.518,1.602-2.349,3.734-2.316,5.941-.119,3.354,1.882,6.421,5,7.663v5.475c0,.476,.386,.862,.862,.862h.275c.476,0,.862-.386,.862-.862V15c0-.552,.448-1,1-1h0c.552,0,1,.448,1,1v6.663c3.118-1.242,5.119-4.309,5-7.663,.033-2.207-.798-4.339-2.316-5.941Z" fill="#61616b" data-color="color-2"></path><path d="M25.684,8.059c.209-.666,.316-1.361,.316-2.059,0-3.309-2.243-6-5-6-1.566,.042-3.009,.859-3.852,2.179,.784,1.666,1.035,3.534,.719,5.348,1.408,1.862,2.158,4.139,2.133,6.473,.023,2.529-.861,4.983-2.494,6.915,.752,.503,1.602,.842,2.494,.994v5.229c0,.476,.386,.862,.862,.862h.275c.476,0,.862-.386,.862-.862v-5.229c3.387-.558,6-3.887,6-7.909,.033-2.207-.798-4.339-2.316-5.941Z" fill="#61616b" data-color="color-2"></path><path d="M31.625,21.372c-.972-.774-1.999-1.476-3.073-2.1-.337,.582-.732,1.128-1.178,1.631,.913,.519,1.791,1.099,2.626,1.736v7.361H2v-7.361c.832-.634,1.705-1.211,2.615-1.727-.451-.499-.85-1.042-1.19-1.623-1.066,.619-2.085,1.315-3.05,2.083C.138,21.562,0,21.849,0,22.152v8.848C0,31.552,.448,32,1,32H31c.552,0,1-.448,1-1v-8.848c0-.303-.138-.59-.375-.78Z" fill="#61616b"></path></g></svg>