<svg xmlns="http://www.w3.org/2000/svg" height="24" width="24" viewBox="0 0 24 24"><title>land 5</title><g fill="#61616b" class="nc-icon-wrapper"><path d="M11.679,6.96c.213-.631,.322-1.294,.321-1.96,0-2.757-1.794-5-4-5S4,2.243,4,5c0,.666,.108,1.329,.321,1.96-.869,1.167-1.333,2.585-1.321,4.04,0,2.9,1.721,5.321,4,5.879v2.121c0,.552,.448,1,1,1h0c.552,0,1-.448,1-1v-2.121c2.279-.558,4-2.981,4-5.879,.012-1.455-.452-2.873-1.321-4.04Z" fill="#61616b" data-color="color-2"></path><path d="M19.679,6.96c.213-.631,.322-1.294,.321-1.96,0-2.757-1.794-5-4-5-1.118,.029-2.161,.57-2.828,1.468,.548,1.097,.832,2.306,.828,3.532,0,.537-.053,1.073-.159,1.6,.765,1.34,1.165,2.857,1.159,4.4,.007,1.828-.561,3.613-1.625,5.1,.484,.367,1.036,.632,1.625,.78v2.12c0,.552,.448,1,1,1h0c.552,0,1-.448,1-1v-2.121c2.279-.558,4-2.981,4-5.879,.012-1.455-.452-2.873-1.321-4.04Z" fill="#61616b" data-color="color-2"></path><path d="M23.612,16.983c-.625-.478-1.279-.917-1.957-1.315-.36,.574-.795,1.098-1.292,1.558,.565,.318,1.111,.668,1.637,1.047v3.727H2v-3.727c.526-.379,1.072-.729,1.637-1.047-.497-.46-.932-.984-1.292-1.558-.678,.398-1.332,.837-1.957,1.315-.245,.189-.388,.481-.388,.791v5.226c0,.552,.448,1,1,1H23c.552,0,1-.448,1-1v-5.226c0-.31-.143-.602-.388-.791Z" fill="#61616b"></path></g></svg>