<svg xmlns="http://www.w3.org/2000/svg" height="16" width="16" viewBox="0 0 16 16"><title>land</title><g fill="#61616b" class="nc-icon-wrapper"><path d="M15,16H1C.448,16,0,15.553,0,15c0-.155,.036-.309,.105-.447l2-4c.247-.494,.848-.695,1.342-.448s.695,.848,.448,1.342h0l-1.277,2.553H13.382l-1.277-2.553c-.247-.494-.046-1.095,.448-1.342s1.095-.046,1.342,.448l2,4c.247,.494,.047,1.095-.448,1.342-.139,.069-.292,.106-.447,.105Z" fill="#61616b"></path><path d="M11,6.5c.004-.812-.251-1.605-.728-2.262,.15-.395,.228-.815,.228-1.238,.125-1.515-.75-3-2.5-3s-2.625,1.485-2.5,3c0,.423,.078,.843,.228,1.238-.477,.657-.732,1.45-.728,2.262-.049,1.396,.737,2.688,2,3.286v2.214c0,.552,.448,1,1,1h0c.552,0,1-.448,1-1v-2.214c1.263-.598,2.049-1.89,2-3.286Z" fill="#61616b" data-color="color-2"></path></g></svg>