<svg xmlns="http://www.w3.org/2000/svg" height="48" width="48" viewBox="0 0 48 48"><title>land 2</title><g fill="#61616b" class="nc-icon-wrapper"><path d="M23.223,14.105A11.109,11.109,0,0,0,24,10c0-4.963-3.141-9-7-9s-7,4.037-7,9a11.109,11.109,0,0,0,.777,4.105A12.213,12.213,0,0,0,8,22c0,5.224,3,9.6,7,10.717V40a1,1,0,0,0,2,0V22a1,1,0,0,1,2,0V32.717C23,31.6,26,27.224,26,22A12.213,12.213,0,0,0,23.223,14.105Z" fill="#61616b" data-color="color-2"></path><path d="M46.612,34.757a37.4,37.4,0,0,0-7.2-4.377,10.862,10.862,0,0,1-5.876,4.264L33,34.793V40a3,3,0,0,1-6,0V34.1a10.912,10.912,0,0,1-2.989-2.085,10.44,10.44,0,0,1-4.474,2.627L19,34.793V40a3,3,0,0,1-6,0V34.108a11.171,11.171,0,0,1-4.415-3.727,37.4,37.4,0,0,0-7.2,4.376A1,1,0,0,0,1,35.548V46a1,1,0,0,0,1,1H46a1,1,0,0,0,1-1V35.548A1,1,0,0,0,46.612,34.757Z" fill="#61616b"></path><path d="M37.223,14.105A11.109,11.109,0,0,0,38,10c0-4.963-3.141-9-7-9-2.488,0-4.671,1.683-5.913,4.2A12.942,12.942,0,0,1,26,10a13.32,13.32,0,0,1-.536,3.735A14.319,14.319,0,0,1,28,22a14.4,14.4,0,0,1-2.68,8.507A8.47,8.47,0,0,0,29,32.717V40a1,1,0,0,0,2,0V22a1,1,0,0,1,2,0V32.717C37,31.6,40,27.224,40,22A12.213,12.213,0,0,0,37.223,14.105Z" fill="#61616b" data-color="color-2"></path></g></svg>