<svg xmlns="http://www.w3.org/2000/svg" height="48" width="48" viewBox="0 0 48 48"><title>leaf 38 3</title><g fill="#61616b" class="nc-icon-wrapper"><path data-color="color-2" fill="#61616b" d="M17.94,29.823c-0.115-0.252-2.884-6.169-7.015-6.704C5.82,22.461,1.54,25.968,1.36,26.118 c-0.416,0.346-0.481,0.959-0.147,1.385c0.153,0.196,3.824,4.823,8.441,5.422c0.4,0.052,0.799,0.075,1.192,0.075 c3.473,0,6.555-1.815,6.698-1.901C17.983,30.837,18.154,30.287,17.94,29.823z"></path> <path data-color="color-2" fill="#61616b" d="M23.507,20.457c0.232,0,0.466-0.081,0.654-0.244c0.204-0.176,4.993-4.376,5.391-9.374 c0.339-4.253-2.274-8.227-2.386-8.394c-0.284-0.425-0.84-0.568-1.295-0.332c-0.265,0.138-6.482,3.432-6.838,7.888 c-0.439,5.521,3.566,9.947,3.737,10.133C22.968,20.348,23.236,20.457,23.507,20.457z"></path> <path fill="#61616b" d="M46.001,38.001c-0.883,0-1.755-0.045-2.62-0.114c0.218-0.897,1.231-5.631-0.524-9.716 c-2.239-5.211-8.911-7.982-9.193-8.098c-0.502-0.204-1.072,0.026-1.292,0.521c-0.116,0.261-2.809,6.466-0.334,12.226 c0.595,1.384,1.721,2.463,3.01,3.304C22.22,31.597,13.001,19.358,13.001,5.001c0-0.552-0.447-1-1-1s-1,0.448-1,1 c0,12.375,6.461,23.262,16.181,29.487c-1.688-0.438-3.541-0.653-5.358-0.336c-4.779,0.837-8.417,4.85-8.569,5.021 c-0.341,0.381-0.34,0.957,0.002,1.336c0.212,0.235,4.911,5.383,9.58,5.383c0.343,0,0.687-0.028,1.028-0.088 c6.207-1.086,9.946-6.766,10.103-7.007c0.181-0.281,0.188-0.613,0.074-0.903c3.733,1.362,7.761,2.106,11.959,2.106 c0.553,0,1-0.448,1-1S46.554,38.001,46.001,38.001z"></path></g></svg>