<svg xmlns="http://www.w3.org/2000/svg" height="32" width="32" viewBox="0 0 32 32"><title>leaf 5</title><g fill="#61616b" class="nc-icon-wrapper"><path fill="#61616b" d="M30.721,1.307c-0.228-0.237-0.558-0.349-0.882-0.294C29.211,1.115,14.39,3.595,8.293,9.693 c-4.633,4.633-4.464,9.735-3.672,12.935l8.507-5.199L1.293,29.293c-0.391,0.391-0.391,1.023,0,1.414C1.488,30.902,1.744,31,2,31 s0.512-0.098,0.707-0.293l4.174-4.174c1.061,0.479,3.239,1.283,5.929,1.283c3.059,0,5.856-1.022,8.315-3.037 c0.402-0.329,0.804-0.694,1.194-1.084c0.289-0.289,0.359-0.732,0.192-1.104l-2.324-5.163l3.857,2.239 c0.237,0.137,0.521,0.169,0.784,0.095c0.263-0.078,0.483-0.26,0.608-0.504c0.304-0.592,0.598-1.212,0.88-1.853 c2.871-6.494,4.59-14.853,4.662-15.205C31.045,1.877,30.949,1.544,30.721,1.307z"></path></g></svg>