<svg xmlns="http://www.w3.org/2000/svg" height="48" width="48" viewBox="0 0 48 48"><title>leaf 36 4</title><g fill="#61616b" class="nc-icon-wrapper"><path fill="#61616b" d="M41.819,5.239C37.531,0.951,30.554,0.95,26.262,5.241L8.291,23.294C8.104,23.482,8,23.735,8,24v13.586 l-5.707,5.707c-0.391,0.391-0.391,1.023,0,1.414C2.488,44.902,2.744,45,3,45s0.512-0.098,0.707-0.293l14.982-14.982 c0.426-0.426,1.102,0.125,0.771,0.628L13.777,39H23c0.264,0,0.516-0.104,0.703-0.289l18.116-17.916 C46.108,16.507,46.108,9.528,41.819,5.239z"></path></g></svg>