<svg xmlns="http://www.w3.org/2000/svg" height="64" width="64" viewBox="0 0 64 64"><title>leaf 38 2</title><g fill="#61616b" class="nc-icon-wrapper"><path data-color="color-2" fill="#61616b" d="M30.517,44.974c-6.274,1.099-11.062,6.38-11.262,6.604c-0.341,0.381-0.34,0.957,0.002,1.336 C19.536,53.223,25.721,60,31.804,60c0.442,0,0.886-0.036,1.325-0.113c8.153-1.428,13.073-8.9,13.279-9.218 c0.293-0.454,0.173-1.059-0.271-1.366C45.804,49.072,37.894,43.68,30.517,44.974z"></path> <path data-color="color-2" fill="#61616b" d="M24.003,40.875c-0.151-0.329-3.776-8.076-9.115-8.768C8.212,31.239,2.597,35.845,2.36,36.042 c-0.416,0.346-0.481,0.959-0.147,1.385c0.202,0.258,5.025,6.339,11.062,7.121c0.522,0.068,1.043,0.098,1.557,0.098 c4.545,0,8.588-2.381,8.776-2.494C24.046,41.89,24.217,41.339,24.003,40.875z"></path> <path data-color="color-2" fill="#61616b" d="M30.688,30c0.232,0,0.466-0.081,0.654-0.244c0.269-0.232,6.569-5.758,7.09-12.302 c0.443-5.569-2.987-10.787-3.134-11.006c-0.283-0.425-0.842-0.568-1.295-0.332c-0.347,0.181-8.5,4.499-8.961,10.272 c-0.575,7.234,4.686,13.046,4.909,13.29C30.149,29.891,30.418,30,30.688,30z"></path> <path data-color="color-2" fill="#61616b" d="M57.67,37.722c-2.059-7.156-10.324-11.883-10.675-12.081 c-0.473-0.266-1.068-0.107-1.348,0.354c-0.194,0.322-4.732,7.977-2.457,15.89c1.808,6.287,11.852,9.245,12.278,9.368 c0.092,0.026,0.185,0.039,0.276,0.039c0.397,0,0.769-0.238,0.926-0.622C56.784,50.393,59.422,43.812,57.67,37.722z"></path> <path fill="#61616b" d="M60,52C33.925,52,15,32.233,15,5c0-0.552,0.447-1,1-1s1,0.448,1,1c0,26.075,18.084,45,43,45 c0.553,0,1,0.448,1,1S60.553,52,60,52z"></path></g></svg>