<svg xmlns="http://www.w3.org/2000/svg" height="32" width="32" viewBox="0 0 32 32"><title>leaf 36 5</title><g fill="#61616b" class="nc-icon-wrapper"><path fill="#61616b" d="M28.57,3.429c-1.533-1.534-3.572-2.378-5.742-2.378s-4.209,0.845-5.744,2.38L4.291,16.295 C4.104,16.482,4,16.736,4,17v9.586l-3.707,3.707c-0.391,0.391-0.391,1.023,0,1.414C0.488,31.902,0.744,32,1,32 s0.512-0.098,0.707-0.293l11.294-11.294c0.434-0.434,1.117,0.144,0.761,0.644L8.807,28H15c0.265,0,0.518-0.104,0.705-0.291 L28.57,14.915C31.737,11.748,31.737,6.596,28.57,3.429z"></path></g></svg>