<svg xmlns="http://www.w3.org/2000/svg" height="24" width="24" viewBox="0 0 24 24"><title>leaf 36</title><g fill="#61616b" class="nc-icon-wrapper"><path fill="#61616b" d="M22.242,1.757C21.109,0.624,19.603,0,18,0s-3.109,0.624-4.245,1.76L4.29,11.295C4.104,11.483,4,11.736,4,12 v6.586l-2.707,2.707c-0.391,0.391-0.391,1.023,0,1.414c0.391,0.391,1.023,0.391,1.414,0l8.125-8.125L8.185,20H12 c0.264,0,0.518-0.104,0.704-0.29l9.538-9.467C23.376,9.109,24,7.603,24,6S23.376,2.891,22.242,1.757z"></path></g></svg>