<svg xmlns="http://www.w3.org/2000/svg" height="32" width="32" viewBox="0 0 32 32"><title>leaf 38 4</title><g fill="#61616b" class="nc-icon-wrapper"><path data-color="color-2" fill="#61616b" d="M6.879,15.727C3.721,15.318,1,17.582,1,17.582s2.352,3.004,5.202,3.373 c2.426,0.314,4.846-1.131,4.846-1.131S9.305,16.041,6.879,15.727z"></path> <path data-color="color-2" fill="#61616b" d="M18.718,9.187c0.211-2.644-1.484-5.186-1.484-5.186s-4.003,2.089-4.213,4.732 C12.746,12.175,15.344,15,15.344,15S18.471,12.293,18.718,9.187z"></path> <path fill="#61616b" d="M30,25c-0.637,0-1.26-0.04-1.878-0.09c0.336-1.12,0.827-3.343,0.232-5.411 c-0.984-3.422-5.103-5.743-5.103-5.743s-2.267,3.756-1.176,7.549c0.396,1.378,1.714,2.42,2.994,3.139C15.523,22.298,9,13.947,9,3 c0-0.552-0.447-1-1-1S7,2.448,7,3c0,8.971,4.029,16.35,10.464,20.461c-0.699-0.093-1.416-0.105-2.119,0.018 C12.342,24.005,10,26.622,10,26.622s3.475,3.854,6.478,3.328c3.241-0.568,5.438-3.205,6.095-4.091C24.876,26.6,27.365,27,30,27 c0.553,0,1-0.448,1-1S30.553,25,30,25z"></path></g></svg>