<svg xmlns="http://www.w3.org/2000/svg" height="16" width="16" viewBox="0 0 16 16"><title>leaf 2</title><g fill="#61616b" class="nc-icon-wrapper"><path fill="#61616b" d="M14.9,0C14.6,0,6.5,0.8,3.3,4c-2.8,2.8-2.2,6.5-1.2,8.5l-1.8,1.8c-0.4,0.4-0.4,1,0,1.4C0.5,15.9,0.7,16,1,16 s0.5-0.1,0.7-0.3l1.8-1.8c0.9,0.4,2.2,0.8,3.6,0.8c1.6,0,3.3-0.5,4.9-2c3.4-3.4,4-11.3,4-11.6c0-0.3-0.1-0.6-0.3-0.8 C15.5,0.1,15.2,0,14.9,0z M10.6,11.3c-1.9,1.9-4.2,1.5-5.5,1.1L9.4,8c0.4-0.4,0.4-1,0-1.4s-1-0.4-1.4,0l-4.4,4.4 C3.2,9.6,2.8,7.3,4.7,5.4c1.9-1.9,6.5-2.9,9.2-3.3C13.6,4.4,12.8,9.1,10.6,11.3z"></path></g></svg>