<svg xmlns="http://www.w3.org/2000/svg" height="64" width="64" viewBox="0 0 64 64"><title>leaf 36 3</title><g fill="#61616b" class="nc-icon-wrapper"><path fill="#61616b" d="M56.535,7.464C53.656,4.585,49.829,3,45.757,3c-4.071,0-7.898,1.585-10.779,4.466L9.291,33.295 C9.104,33.482,9,33.736,9,34v19.586l-6.707,6.707c-0.391,0.391-0.391,1.023,0,1.414C2.488,61.902,2.744,62,3,62 s0.512-0.098,0.707-0.293l20.305-20.305c0.611-0.611,1.57,0.21,1.06,0.908L15.799,55H30c0.265,0,0.518-0.104,0.705-0.291 l25.83-25.688C59.414,26.142,61,22.314,61,18.243S59.414,10.343,56.535,7.464z"></path></g></svg>