<svg xmlns="http://www.w3.org/2000/svg" height="32" width="32" viewBox="0 0 32 32"><title>lobster 4</title><g fill="#61616b" class="nc-icon-wrapper"><path fill="#61616b" d="M30.166,0.692c-0.239-0.231-0.576-0.329-0.901-0.26c-0.325,0.068-0.595,0.294-0.72,0.602 c-0.559,1.372-1.919,3.433-2.55,3.907c-0.629-0.462-1.963-2.494-2.538-3.907c-0.125-0.308-0.395-0.533-0.72-0.602 c-0.326-0.069-0.663,0.028-0.901,0.26C20.651,1.836,20,3.366,20,5c0,2.937,2.123,5.383,4.914,5.896 c-0.347,1.908-1.734,3.995-3.602,4.877c-0.124-0.493-0.296-0.978-0.529-1.443l-2.441-4.883C17.896,8.555,16.998,8,16,8 s-1.896,0.555-2.342,1.447l-2.441,4.883c-0.233,0.466-0.405,0.95-0.529,1.443c-1.867-0.882-3.254-2.969-3.602-4.877 C9.877,10.383,12,7.937,12,5c0-1.634-0.651-3.164-1.835-4.308c-0.238-0.231-0.574-0.329-0.901-0.26 c-0.325,0.068-0.595,0.294-0.72,0.602C7.984,2.41,6.618,4.479,5.988,4.946C5.365,4.504,4.05,2.494,3.456,1.034 C3.33,0.727,3.061,0.501,2.735,0.433c-0.325-0.069-0.663,0.028-0.901,0.26C0.651,1.836,0,3.366,0,5c0,2.993,2.205,5.474,5.074,5.921 c0.393,2.77,2.477,5.892,5.419,6.927c0.035,0.614,0.145,1.227,0.345,1.825l1.827,5.481C13.094,25.057,13.54,25,14,25h4 c0.46,0,0.906,0.057,1.336,0.155l1.827-5.481c0.2-0.599,0.309-1.212,0.345-1.825c2.941-1.035,5.025-4.158,5.419-6.927 C29.795,10.474,32,7.993,32,5C32,3.366,31.349,1.836,30.166,0.692z"></path> <path data-color="color-2" fill="#61616b" d="M18,27h-4c-2.206,0-4,1.794-4,4c0,0.553,0.448,1,1,1h10c0.552,0,1-0.447,1-1 C22,28.794,20.206,27,18,27z"></path></g></svg>