<svg xmlns="http://www.w3.org/2000/svg" height="64" width="64" viewBox="0 0 64 64"><title>lobster 2</title><g fill="#61616b" class="nc-icon-wrapper"><path d="M37.22,53.244l3.229-12.917a25.04,25.04,0,0,0-.135-12.64l-3.56-13.056a4.927,4.927,0,0,0-9.508,0l-3.56,13.055a25.04,25.04,0,0,0-.135,12.64L26.78,53.244c-4.582,1.046-6.432,5.248-6.77,7.614A1,1,0,0,0,21,62H43a1,1,0,0,0,.99-1.142C43.652,58.492,41.8,54.29,37.22,53.244Z" fill="#61616b"></path> <path data-color="color-2" d="M20.871,32.5A14.945,14.945,0,0,1,16.8,29.4c-1.412-1.861-2.266-5.614-2.618-7.461A11,11,0,0,0,19.6,2.2a1,1,0,0,0-1.581.6C16.953,8.138,14.281,12,13,12S9.047,8.138,7.98,2.8A1,1,0,0,0,6.4,2.2a10.994,10.994,0,0,0,5.747,19.758c.331,1.835,1.283,6.31,3.058,8.647,1.191,1.57,3.688,3.114,5.621,4.155C20.811,34,20.822,33.249,20.871,32.5Z" fill="#61616b"></path> <path data-color="color-2" d="M23.436,48.115l-.487-1.949a17.272,17.272,0,0,1-4.283,1.042,25.5,25.5,0,0,1-6.23-1.6,1,1,0,0,0-.707,1.872c.188.07,4.615,1.731,6.937,1.731A18.143,18.143,0,0,0,23.436,48.115Z" fill="#61616b"></path> <path data-color="color-2" d="M21.61,40.812c-.061-.244-.105-.492-.159-.739a9.523,9.523,0,0,1-4.154-.826c-2.359-1.692-6.317-5.4-6.357-5.437a1,1,0,1,0-1.368,1.459c.166.155,4.093,3.835,6.559,5.6,1.253.9,3.78,1.163,5.8,1.22Z" fill="#61616b"></path> <path data-color="color-2" d="M43.129,32.5A14.945,14.945,0,0,0,47.2,29.4c1.412-1.861,2.266-5.614,2.618-7.461A11,11,0,0,1,44.4,2.2a1,1,0,0,1,1.581.6C47.047,8.138,49.719,12,51,12s3.953-3.862,5.02-9.2A1,1,0,0,1,57.6,2.2a10.994,10.994,0,0,1-5.747,19.758c-.331,1.835-1.283,6.31-3.058,8.647-1.191,1.57-3.688,3.114-5.621,4.155C43.189,34,43.178,33.249,43.129,32.5Z" fill="#61616b"></path> <path data-color="color-2" d="M40.564,48.115l.487-1.949a17.272,17.272,0,0,0,4.283,1.042,25.5,25.5,0,0,0,6.23-1.6,1,1,0,0,1,.707,1.872c-.188.07-4.615,1.731-6.937,1.731A18.143,18.143,0,0,1,40.564,48.115Z" fill="#61616b"></path> <path data-color="color-2" d="M42.39,40.813c.061-.245.1-.493.159-.74a9.523,9.523,0,0,0,4.154-.826c2.359-1.692,6.317-5.4,6.357-5.437a1,1,0,1,1,1.368,1.459c-.166.155-4.093,3.835-6.559,5.6-1.253.9-3.78,1.163-5.8,1.22Z" fill="#61616b"></path></g></svg>