<svg xmlns="http://www.w3.org/2000/svg" height="48" width="48" viewBox="0 0 48 48"><title>lobster 3</title><g fill="#61616b" class="nc-icon-wrapper"><path data-color="color-2" fill="#61616b" d="M46,9c0-2.425-0.852-4.703-2.399-6.414c-0.241-0.266-0.604-0.383-0.956-0.306 c-0.35,0.076-0.633,0.335-0.74,0.678C40.809,6.459,39.167,9,38,9s-2.809-2.541-3.904-6.042c-0.107-0.342-0.39-0.601-0.74-0.678 c-0.352-0.077-0.715,0.04-0.956,0.306C30.853,4.297,30,6.574,30,9c0,4.513,2.971,8.25,6.826,8.892 c-0.601,2.403-2.426,4.926-4.554,6.511c0.121,0.761,0.18,1.525,0.177,2.29c3.081-1.842,5.728-5.342,6.412-8.748 C42.869,17.461,46,13.635,46,9z"></path> <path data-color="color-2" fill="#61616b" d="M15.566,26.703c-0.004-0.764,0.055-1.529,0.175-2.289c-2.134-1.585-3.965-4.113-4.568-6.522 C15.029,17.25,18,13.513,18,9c0-2.426-0.853-4.703-2.4-6.414c-0.241-0.266-0.605-0.383-0.956-0.306s-0.633,0.336-0.74,0.678 C12.809,6.459,11.167,9,10,9S7.191,6.459,6.096,2.958c-0.107-0.342-0.39-0.601-0.74-0.678S4.641,2.32,4.4,2.586 C2.853,4.297,2,6.574,2,9c0,4.635,3.131,8.461,7.139,8.946C9.824,21.357,12.479,24.863,15.566,26.703z"></path> <path fill="#61616b" d="M27.139,38.101l2.606-7.347c0.864-2.435,0.945-5.034,0.235-7.518l-2.452-8.58 C27.082,13.092,25.634,12,24.008,12s-3.074,1.092-3.521,2.656l-2.451,8.58c-0.71,2.483-0.628,5.084,0.235,7.518l2.605,7.345 C17.55,38.64,15,41.524,15,45c0,0.553,0.448,1,1,1h16c0.552,0,1-0.447,1-1C33,41.529,30.458,38.648,27.139,38.101z"></path></g></svg>