<svg xmlns="http://www.w3.org/2000/svg" height="16" width="16" viewBox="0 0 16 16"><title>lotus flower 6</title><g fill="#61616b" class="nc-icon-wrapper"><path d="M5.748,14.541A10.988,10.988,0,0,1,3,7.279q0-.5.046-1a7.917,7.917,0,0,0-1.807-.27,1.037,1.037,0,0,0-.992.729,6.479,6.479,0,0,0,6,8.247A3.026,3.026,0,0,1,5.748,14.541Z" fill="#61616b"></path><path d="M10.252,14.541A10.988,10.988,0,0,0,13,7.279q0-.5-.046-1a7.917,7.917,0,0,1,1.807-.27,1.037,1.037,0,0,1,.992.729,6.479,6.479,0,0,1-6,8.247A3.026,3.026,0,0,0,10.252,14.541Z" fill="#61616b"></path><path d="M8,13.559a1,1,0,0,1-.75-.339,8.967,8.967,0,0,1,0-11.881,1.03,1.03,0,0,1,1.5,0,8.967,8.967,0,0,1,0,11.881A1,1,0,0,1,8,13.559Z" fill="#61616b" data-color="color-2"></path></g></svg>