<svg xmlns="http://www.w3.org/2000/svg" height="64" width="64" viewBox="0 0 64 64"><title>lotus flower 2</title><g fill="#61616b" class="nc-icon-wrapper"><path d="M29.886,56.764a2.853,2.853,0,0,1-.709.1h-.088l-.186-.012A31.876,31.876,0,0,1,7.558,45.717,22.082,22.082,0,0,0,1.372,49.6a1,1,0,0,0-.142,1.335,21.886,21.886,0,0,0,29.541,5.611Z" fill="#61616b"></path><path d="M18,29a34.9,34.9,0,0,1,.593-6.345A29.932,29.932,0,0,0,3.921,17.144a.992.992,0,0,0-1.068.759A29.993,29.993,0,0,0,29.079,54.856c.033,0,.066,0,.1,0a.98.98,0,0,0,.229-.039A34.982,34.982,0,0,1,18,29Z" fill="#61616b" data-color="color-2"></path><path d="M34.114,56.764a2.853,2.853,0,0,0,.709.1h.088l.186-.012A31.876,31.876,0,0,0,56.442,45.717,22.082,22.082,0,0,1,62.628,49.6a1,1,0,0,1,.142,1.335,21.886,21.886,0,0,1-29.541,5.611Z" fill="#61616b"></path><path d="M46,29a34.9,34.9,0,0,0-.593-6.345,29.932,29.932,0,0,1,14.672-5.511.992.992,0,0,1,1.068.759A29.993,29.993,0,0,1,34.921,54.856c-.033,0-.066,0-.1,0a.98.98,0,0,1-.229-.039A34.982,34.982,0,0,0,46,29Z" fill="#61616b" data-color="color-2"></path><path d="M25,40a19.8,19.8,0,0,1,6.315-14.559,1,1,0,0,1,1.37,0A19.89,19.89,0,0,1,35.939,50.58,32.948,32.948,0,0,0,32.656,4.112a1,1,0,0,0-1.312,0A32.948,32.948,0,0,0,28.061,50.58,19.733,19.733,0,0,1,25,40Z" fill="#61616b"></path><ellipse cx="32" cy="40" rx="5" ry="12.424" fill="#61616b" data-color="color-2"></ellipse></g></svg>