<svg xmlns="http://www.w3.org/2000/svg" height="24" width="24" viewBox="0 0 24 24"><title>lotus flower 5</title><g fill="#61616b" class="nc-icon-wrapper"><path d="M6.6,16.189a9,9,0,0,1-3.539-6.127,8.877,8.877,0,0,1,2.435.655,15.1,15.1,0,0,1,.121-2.092A10.929,10.929,0,0,0,2,8,1,1,0,0,0,1,9,11.012,11.012,0,0,0,8.413,19.388,14.882,14.882,0,0,1,6.6,16.189Z" fill="#61616b" data-color="color-2"></path><path d="M22,8a10.929,10.929,0,0,0-3.618.625,15.1,15.1,0,0,1,.121,2.092,8.877,8.877,0,0,1,2.435-.655A9,9,0,0,1,17.4,16.189a14.882,14.882,0,0,1-1.812,3.2A11.012,11.012,0,0,0,23,9,1,1,0,0,0,22,8Z" fill="#61616b" data-color="color-2"></path><path d="M12,20a1,1,0,0,1-.707-.293,13.035,13.035,0,0,1,0-18.414,1,1,0,0,1,1.414,0,13.035,13.035,0,0,1,0,18.414A1,1,0,0,1,12,20Z" fill="#61616b"></path><path d="M1.766,16.988a8.35,8.35,0,0,0-1.036.935,1,1,0,0,0,0,1.359,8.438,8.438,0,0,0,6.2,2.7,8.53,8.53,0,0,0,2.242-.3A13.011,13.011,0,0,1,1.766,16.988Z" fill="#61616b"></path><path d="M22.234,16.988a8.35,8.35,0,0,1,1.036.935,1,1,0,0,1,0,1.359,8.438,8.438,0,0,1-6.2,2.7,8.53,8.53,0,0,1-2.242-.3A13.011,13.011,0,0,0,22.234,16.988Z" fill="#61616b"></path></g></svg>