<svg xmlns="http://www.w3.org/2000/svg" height="32" width="32" viewBox="0 0 32 32"><title>macro 5</title><g fill="#61616b" class="nc-icon-wrapper"><path fill="#61616b" d="M27.454,19.109c-0.334-0.169-0.737-0.14-1.042,0.083L17,26.036V19h-2v7.036l-9.412-6.845 c-0.305-0.223-0.708-0.252-1.042-0.083C4.211,19.28,4,19.624,4,20v5c0,3.86,3.141,7,7,7h10c3.859,0,7-3.14,7-7v-5 C28,19.624,27.789,19.28,27.454,19.109z"></path> <path data-color="color-2" fill="#61616b" d="M16,17c4.963,0,9-4.038,9-9V2c0-0.379-0.214-0.725-0.553-0.895 C24.108,0.937,23.703,0.973,23.4,1.2L20,3.75L16.6,1.2c-0.355-0.267-0.844-0.267-1.199,0L12,3.75L8.6,1.2 C8.297,0.972,7.891,0.936,7.553,1.105C7.214,1.275,7,1.621,7,2v6C7,12.962,11.037,17,16,17z"></path></g></svg>