<svg xmlns="http://www.w3.org/2000/svg" height="48" width="48" viewBox="0 0 48 48"><title>macro 4</title><g fill="#61616b" class="nc-icon-wrapper"><path d="M40.447,29.105A1,1,0,0,0,39.4,29.2L26,39.25v-12.4a13.5,13.5,0,0,1-4,0v12.4L8.6,29.2A1,1,0,0,0,7,30v8a9.01,9.01,0,0,0,9,9H32a9.01,9.01,0,0,0,9-9V30A1,1,0,0,0,40.447,29.105Z" fill="#61616b"></path><path data-color="color-2" d="M24,25A13.015,13.015,0,0,0,37,12V2a1,1,0,0,0-1.707-.707L30,6.586,24.707,1.293a1,1,0,0,0-1.414,0L18,6.586,12.707,1.293A1,1,0,0,0,11,2V12A13.015,13.015,0,0,0,24,25Z" fill="#61616b"></path></g></svg>