<svg xmlns="http://www.w3.org/2000/svg" height="64" width="64" viewBox="0 0 64 64"><title>macro 3</title><g fill="#61616b" class="nc-icon-wrapper"><path fill="#61616b" d="M54.481,38.124c-0.32-0.175-0.709-0.163-1.019,0.033L34,50.542V36h-4v14.542L10.537,38.156 c-0.309-0.196-0.698-0.208-1.019-0.033C9.199,38.299,9,38.635,9,39v10c0,7.168,5.832,13,13,13h20c7.168,0,13-5.832,13-13V39 C55,38.635,54.801,38.299,54.481,38.124z"></path> <path data-color="color-2" fill="#61616b" d="M32,32c9.374,0,17-7.626,17-17V3c0-0.379-0.214-0.725-0.553-0.895S47.703,1.973,47.4,2.2 L40,7.75L32.6,2.2c-0.355-0.267-0.844-0.267-1.199,0L24,7.75L16.6,2.2c-0.303-0.228-0.709-0.265-1.047-0.095 C15.214,2.275,15,2.621,15,3v12C15,24.374,22.626,32,32,32z"></path></g></svg>