<svg xmlns="http://www.w3.org/2000/svg" height="32" width="32" viewBox="0 0 32 32"><title>maple leaf 4</title><g fill="#61616b" class="nc-icon-wrapper"><path d="M28.287,21.873l2.364-3.548L23.733,16.87l7.9-6.981L28.23,7.618,30.8,1.205,24.382,3.771,22.111.364l-6.981,7.9L13.674,1.349,10.127,3.713,6.458.044,5.219,5H1.461l4.3,9.678-4.58,3.435,6.548,3.742L.293,29.293a1,1,0,0,0,1.414,1.414l14-14a1,1,0,0,1,1.414,1.414L10.446,24.8l3.441,6.021,3.435-4.58L27,30.539V26.781l4.956-1.239Z" fill="#61616b"></path></g></svg>