<svg xmlns="http://www.w3.org/2000/svg" height="64" width="64" viewBox="0 0 64 64"><title>maple leaf 2</title><g fill="#61616b" class="nc-icon-wrapper"><path d="M61.581,47.187l-6.4-4.572,1.765-5.3A1,1,0,0,0,56,36H42.658L61.509,24.861a1,1,0,0,0-.157-1.8l-7.137-2.675L57.962,7.274a1,1,0,0,0-1.236-1.236L43.612,9.785,40.937,2.648a1,1,0,0,0-1.8-.157L28,21.342V8a1,1,0,0,0-.415-.812.991.991,0,0,0-.9-.136l-5.3,1.765-4.572-6.4a1,1,0,0,0-1.761.265l-2.731,8.189-5.157-.859A1,1,0,0,0,6.02,11.2L9.878,30.489,3.5,34.132a1,1,0,0,0,.006,1.739l14.211,7.994L1.293,60.293a1,1,0,1,0,1.414,1.414l27-27a1,1,0,1,1,1.414,1.414L20.433,46.809l7.7,13.681A1,1,0,0,0,29,61h0a1,1,0,0,0,.868-.5l3.643-6.374L52.8,57.98a1,1,0,0,0,1.182-1.144l-.859-5.157,8.189-2.731a1,1,0,0,0,.265-1.761Z" fill="#61616b"></path></g></svg>