<svg xmlns="http://www.w3.org/2000/svg" height="24" width="24" viewBox="0 0 24 24"><title>maple leaf 5</title><g fill="#61616b" class="nc-icon-wrapper"><path d="M21.217,15.8l1.263-2.527-4.233-.846,5.568-4.641-2.65-1.325,1.21-4.838L17.536,2.835,16.21.186,11.57,5.753l-.846-4.232L8.2,2.783,5.563.148,4.279,4H1.613l2.243,6.729L1.387,13.2l4.376,2.625-5.47,5.47a1,1,0,0,0,0,1.414h0a1,1,0,0,0,1.414,0l10-10a1,1,0,0,1,1.414,0h0a1,1,0,0,1,0,1.414L8.487,18.755,10.8,22.612l2.469-2.467L20,22.388V19.721l3.851-1.283Z" fill="#61616b"></path></g></svg>