<svg xmlns="http://www.w3.org/2000/svg" height="32" width="32" viewBox="0 0 32 32"><title>mower 4</title><g fill="#61616b" class="nc-icon-wrapper"><path d="M8.459,10.762c.278-.044,.559-.068,.841-.074,.399,0,.797,.039,1.189,.113l.064,.012L7.961,1.726c-.123-.43-.515-.726-.962-.726H3c-.552,0-1,.448-1,1h0c0,.552,.448,1,1,1h3.245l2.214,7.762Z" fill="#61616b" data-color="color-2"></path><path d="M5,30c-2.761,0-5-2.239-5-5s2.239-5,5-5,5,2.239,5,5c-.003,2.76-2.24,4.997-5,5Zm0-8c-1.657,0-3,1.343-3,3s1.343,3,3,3,3-1.343,3-3-1.343-3-3-3Z" fill="#61616b" data-color="color-2"></path><path d="M12,25c0,.677-.1,1.351-.294,2h10.384c-.571-3.246,1.598-6.339,4.844-6.91,.352-.062,.709-.092,1.066-.09v-1.006c-.002-1.637-1.165-3.042-2.772-3.349l-15.115-2.879c-2.337-.445-4.592,1.088-5.037,3.425-.051,.267-.076,.538-.076,.809v1c3.866,0,7,3.134,7,7Z" fill="#61616b"></path><path d="M28,30c-2.209,0-4-1.791-4-4s1.791-4,4-4,4,1.791,4,4-1.791,4-4,4Zm0-6c-1.105,0-2,.895-2,2s.895,2,2,2,2-.895,2-2-.895-2-2-2Z" fill="#61616b" data-color="color-2"></path></g></svg>