<svg xmlns="http://www.w3.org/2000/svg" height="64" width="64" viewBox="0 0 64 64"><title>mower 2</title><g fill="#61616b" class="nc-icon-wrapper"><path d="M10.015,8.366l6.436,19.287,4.486.807L13.81,7.1A5.994,5.994,0,0,0,8.118,3H2V7H8.118A2,2,0,0,1,10.015,8.366Z" fill="#61616b"></path> <path d="M49,33.511V26a1,1,0,0,0-.9-1l-20-2a1.022,1.022,0,0,0-.771.254A1,1,0,0,0,27,24v5.551Z" fill="#61616b" data-color="color-2"></path> <path d="M11,40A10,10,0,1,0,21,50,10.011,10.011,0,0,0,11,40Zm0,17a7,7,0,1,1,7-7A7.008,7.008,0,0,1,11,57Z" fill="#61616b" data-color="color-2"></path> <path d="M11,38A11.952,11.952,0,0,1,22.605,53H45.051A10,10,0,0,1,58,42.461V41.345a5,5,0,0,0-4.114-4.922L14.239,29.287A7,7,0,0,0,6,36.177v2.929A11.9,11.9,0,0,1,11,38Z" fill="#61616b"></path> <path d="M55,44a8,8,0,1,0,8,8A8.009,8.009,0,0,0,55,44Zm0,13a5,5,0,1,1,5-5A5.006,5.006,0,0,1,55,57Z" fill="#61616b" data-color="color-2"></path></g></svg>