<svg xmlns="http://www.w3.org/2000/svg" height="16" width="16" viewBox="0 0 16 16"><title>mower</title><g fill="#61616b" class="nc-icon-wrapper"><path d="M13,10c-1.268,.002-2.396,.804-2.816,2H5.816c-.552-1.562-2.266-2.381-3.828-1.828C.425,10.724-.393,12.438,.159,14s2.266,2.381,3.828,1.828c.854-.302,1.526-.974,1.828-1.828h4.368c.555,1.558,2.268,2.371,3.826,1.816s2.371-2.268,1.816-3.826c-.426-1.195-1.558-1.992-2.827-1.99Z" fill="#61616b"></path><path d="M3.592,5.485c-.242,.111-.467,.256-.668,.432-.588,.533-.923,1.289-.924,2.083v1h2v-1c0-.229,.096-.447,.266-.6,.168-.156,.397-.231,.625-.205l7.109,.805v1l2-.1v-1c.003-1.028-.776-1.89-1.8-1.99l-6.559-.651L3.938,.653c-.145-.393-.52-.653-.938-.653H1C.448,0,0,.448,0,1H0c0,.552,.448,1,1,1h1.3l1.292,3.485Z" fill="#61616b" data-color="color-2"></path></g></svg>