<svg xmlns="http://www.w3.org/2000/svg" height="24" width="24" viewBox="0 0 24 24"><title>mower 5</title><g fill="#61616b" class="nc-icon-wrapper"><path d="M6.234,7.706c.395-.097,.799-.148,1.206-.154,.295,.002,.59,.029,.881,.079L5.946,.676c-.138-.405-.518-.676-.946-.676H2c-.552,0-1,.448-1,1h0c0,.552,.448,1,1,1h2.285l1.949,5.706Z" fill="#61616b" data-color="color-2"></path><path d="M21,16.142v-1.433c.011-1.463-1.044-2.716-2.487-2.955l-10.373-2.13c-1.865-.383-3.687,.819-4.07,2.684-.047,.228-.07,.46-.07,.692v1.1C1.294,14.649-.456,17.287,.093,19.994c.549,2.706,3.187,4.456,5.894,3.907,1.598-.324,2.937-1.406,3.589-2.901h6.566c.547,2.136,2.722,3.423,4.858,2.876,2.136-.547,3.423-2.722,2.876-4.858-.362-1.412-1.464-2.514-2.876-2.876ZM5,22c-1.657,0-3-1.343-3-3s1.343-3,3-3,3,1.343,3,3-1.343,3-3,3Zm15,0c-1.105,0-2-.895-2-2s.895-2,2-2,2,.895,2,2-.895,2-2,2Z" fill="#61616b"></path></g></svg>