<svg xmlns="http://www.w3.org/2000/svg" height="32" width="32" viewBox="0 0 32 32"><title>mushroom 5</title><g fill="#61616b" class="nc-icon-wrapper"><path fill="#61616b" d="M26.18182,8c-3.76556,0-6.81818-3.05261-6.81818-6.81818c0-0.25873,0.01917-0.51434,0.04858-0.76746 C18.31738,0.15118,17.1781,0,16,0C6.91699,0,0,8.66406,0,13c0,3.08398,7.77539,6,16,6c8.37402,0,16-2.85938,16-6 c0-1.58606-0.93323-3.75092-2.55176-5.85931C28.46539,7.6759,27.34174,8,26.18182,8z M11,13c-1.65686,0-3-1.34314-3-3s1.34314-3,3-3 s3,1.34314,3,3S12.65686,13,11,13z"></path> <path data-color="color-2" fill="#61616b" d="M24.38086,20.08337C21.76886,20.68011,18.87103,21,16,21 c-2.83716,0-5.74231-0.33429-8.37402-0.95007l-0.47656,2.37878c-0.47266,2.36035,0.13184,4.78125,1.65723,6.64258 S12.58789,32,14.99414,32h2.0127c2.40625,0,4.66113-1.06738,6.18652-2.92871c1.52539-1.86035,2.12988-4.28125,1.65723-6.6416 L24.38086,20.08337z"></path></g></svg>