<svg xmlns="http://www.w3.org/2000/svg" height="64" width="64" viewBox="0 0 64 64"><title>mushroom 3</title><g fill="#61616b" class="nc-icon-wrapper"><path fill="#61616b" d="M32,1C14.40234,1,1,17.66211,1,26c0,5.44824,15.64453,11,31,11c15.64453,0,31-5.44824,31-11 C63,17.66211,49.59766,1,32,1z M21,28c-2.76141,0-5-2.23859-5-5s2.23859-5,5-5s5,2.23859,5,5S23.76141,28,21,28z M40,25 c-4.41827,0-8-3.58173-8-8s3.58173-8,8-8s8,3.58173,8,8S44.41827,25,40,25z"></path> <path data-color="color-2" fill="#61616b" d="M47.38165,37.3526C42.52124,38.41235,37.16461,39,32,39 c-5.15527,0-10.50946-0.612-15.37061-1.69653l-1.12354,4.16235c-1.39648,5.1748-0.32812,10.58301,2.93066,14.83789 C21.69531,60.55957,26.63867,63,31.99902,63s10.30273-2.44043,13.5625-6.69629c3.25879-4.25586,4.32617-9.66406,2.92969-14.83984 L47.38165,37.3526z"></path></g></svg>