<svg xmlns="http://www.w3.org/2000/svg" height="64" width="64" viewBox="0 0 64 64"><title>octopus 3</title><g fill="#61616b" class="nc-icon-wrapper"><path data-color="color-2" d="M25,41V55a1,1,0,0,1-2,0V41Z" fill="#61616b"></path><path data-color="color-2" d="M33,41V61a1,1,0,0,1-2,0V41Z" fill="#61616b"></path><path data-color="color-2" d="M41,41V55a1,1,0,0,1-2,0V41Z" fill="#61616b"></path><path data-color="color-2" d="M17,41V57A5,5,0,0,1,7,57a1,1,0,0,1,2,0,3,3,0,0,0,6,0V41Z" fill="#61616b"></path><path data-color="color-2" d="M49,41V57a3,3,0,0,0,6,0,1,1,0,0,1,2,0,5,5,0,0,1-10,0V41Z" fill="#61616b"></path><path d="M32,1A27.03,27.03,0,0,0,5,28V38a1,1,0,0,0,1,1H58a1,1,0,0,0,1-1V28A27.03,27.03,0,0,0,32,1ZM21,25a3,3,0,1,1,3-3A3,3,0,0,1,21,25Zm23,0a3,3,0,1,1,3-3A3,3,0,0,1,44,25Z" fill="#61616b"></path></g></svg>