<svg xmlns="http://www.w3.org/2000/svg" height="24" width="24" viewBox="0 0 24 24"><title>octopus</title><g fill="#61616b" class="nc-icon-wrapper"><path d="M22,20a1,1,0,0,0-1,1,1,1,0,0,1-2,0V17h2a1,1,0,0,0,1-1V10A10,10,0,0,0,2,10v6a1,1,0,0,0,1,1H5v4a1,1,0,0,1-2,0,1,1,0,0,0-2,0,3,3,0,0,0,6,0V17H8v3a1,1,0,0,0,2,0V17h1v6a1,1,0,0,0,2,0V17h1v3a1,1,0,0,0,2,0V17h1v4a3,3,0,0,0,6,0A1,1,0,0,0,22,20ZM7.5,10A1.5,1.5,0,1,1,9,8.5,1.5,1.5,0,0,1,7.5,10Zm9,0A1.5,1.5,0,1,1,18,8.5,1.5,1.5,0,0,1,16.5,10Z" fill="#61616b"></path></g></svg>