<svg xmlns="http://www.w3.org/2000/svg" height="48" width="48" viewBox="0 0 48 48"><title>octopus 4</title><g fill="#61616b" class="nc-icon-wrapper"><path data-color="color-2" d="M11,30V42a2.946,2.946,0,0,1-3,3,2.946,2.946,0,0,1-3-3,.945.945,0,0,0-1-1,.945.945,0,0,0-1,1,4.951,4.951,0,0,0,5,5,4.951,4.951,0,0,0,5-5V30Z" fill="#61616b"></path><path data-color="color-2" d="M17,30V40a1,1,0,0,0,2,0V30Z" fill="#61616b"></path><path data-color="color-2" d="M44,41a.945.945,0,0,0-1,1,3,3,0,0,1-6,0V30H35V42a5,5,0,0,0,10,0A.945.945,0,0,0,44,41Z" fill="#61616b"></path><path data-color="color-2" d="M23,30V46a1,1,0,0,0,2,0V30Z" fill="#61616b"></path><path data-color="color-2" d="M29,30V40a1,1,0,0,0,2,0V30Z" fill="#61616b"></path><path d="M24.677,1.012A18.992,18.992,0,0,0,5,20v7a1,1,0,0,0,1,1H42a1,1,0,0,0,1-1V20.451C43,10.143,34.979,1.369,24.677,1.012ZM15,18a2,2,0,1,1,2-2A2,2,0,0,1,15,18Zm18,0a2,2,0,1,1,2-2A2,2,0,0,1,33,18Z" fill="#61616b"></path></g></svg>