<svg xmlns="http://www.w3.org/2000/svg" height="32" width="32" viewBox="0 0 32 32"><title>octopus 5</title><g fill="#61616b" class="nc-icon-wrapper"><path data-color="color-2" d="M7,20v9a.945.945,0,0,1-1,1,.945.945,0,0,1-1-1,.945.945,0,0,0-1-1,.945.945,0,0,0-1,1,2.946,2.946,0,0,0,3,3,2.946,2.946,0,0,0,3-3V20Z" fill="#61616b"></path><path data-color="color-2" d="M19,20v8a1,1,0,0,0,2,0V20Z" fill="#61616b"></path><path data-color="color-2" d="M28,28a.945.945,0,0,0-1,1,1,1,0,0,1-2,0V20H23v9a3,3,0,0,0,6,0A.945.945,0,0,0,28,28Z" fill="#61616b"></path><path data-color="color-2" d="M11,20v8a1,1,0,0,0,2,0V20Z" fill="#61616b"></path><path data-color="color-2" d="M15,20V31a1,1,0,0,0,2,0V20Z" fill="#61616b"></path><path d="M16,0A14.041,14.041,0,0,0,2,14v3a.945.945,0,0,0,1,1H29a.945.945,0,0,0,1-1V14A14.041,14.041,0,0,0,16,0ZM9.5,12A1.5,1.5,0,1,1,11,10.5,1.5,1.5,0,0,1,9.5,12Zm13,0A1.5,1.5,0,1,1,24,10.5,1.5,1.5,0,0,1,22.5,12Z" fill="#61616b"></path></g></svg>