<svg xmlns="http://www.w3.org/2000/svg" height="16" width="16" viewBox="0 0 16 16"><title>octopus 2</title><g fill="#61616b" class="nc-icon-wrapper"><path data-color="color-2" d="M3,10v3.5a.5.5,0,0,1-1,0V13a1,1,0,0,0-2,0v.5a2.5,2.5,0,0,0,5,0V10Z" fill="#61616b"></path><path data-color="color-2" d="M13,10v3.5a.5.5,0,0,0,1,0V13a1,1,0,0,1,2,0v.5a2.5,2.5,0,0,1-5,0V10Z" fill="#61616b"></path><path data-color="color-2" d="M7,10v3a1,1,0,0,0,2,0V10Z" fill="#61616b"></path><path d="M8,0A8.009,8.009,0,0,0,0,8,1,1,0,0,0,1,9H15a1,1,0,0,0,1-1A8.009,8.009,0,0,0,8,0ZM5,6A1,1,0,1,1,6,5,1,1,0,0,1,5,6Zm6,0a1,1,0,1,1,1-1A1,1,0,0,1,11,6Z" fill="#61616b"></path></g></svg>