<svg xmlns="http://www.w3.org/2000/svg" height="32" width="32" viewBox="0 0 32 32"><title>organic 5</title><g fill="#61616b" class="nc-icon-wrapper"><path d="M15,28h2v3c0,.552-.448,1-1,1h0c-.552,0-1-.448-1-1v-3Z" fill="#61616b"></path><path d="M29.789,4.895c-.103-.245-.298-.439-.544-.539-.246-.1-.52-.1-.766,0-1.745,.779-3.419,1.711-5,2.784,1.553,2.702,2.419,5.745,2.521,8.86,0,5.2-2.778,9.629-6.644,11.29,.154,.077,.306,.158,.467,.224,.785,.319,1.625,.481,2.472,.479,3.461,0,7.035-2.617,8.706-6.726,2.763-6.79-1.048-15.984-1.212-16.372Z" fill="#61616b" data-color="color-2"></path><path d="M2.211,4.895c.103-.245,.298-.439,.544-.539,.246-.1,.52-.1,.766,0,1.745,.779,3.419,1.711,5,2.784-1.553,2.702-2.419,5.745-2.521,8.86,0,5.2,2.778,9.629,6.644,11.29-.154,.077-.306,.158-.467,.224-.785,.319-1.625,.481-2.472,.479-3.461,0-7.035-2.617-8.706-6.726C-1.764,14.477,2.047,5.283,2.211,4.895Z" fill="#61616b" data-color="color-2"></path><path d="M16.707,1.293c-.39-.39-1.023-.39-1.414,0-.293,.298-7.293,7.377-7.293,14.707,0,5.089,3.06,9.3,7,9.913v-8.913c0-.552,.448-1,1-1h0c.552,0,1,.448,1,1v8.913c3.94-.618,7-4.824,7-9.913,0-7.33-6.995-14.409-7.293-14.707Z" fill="#61616b"></path></g></svg>