<svg xmlns="http://www.w3.org/2000/svg" height="48" width="48" viewBox="0 0 48 48"><title>organic 4</title><g fill="#61616b" class="nc-icon-wrapper"><path d="M24,47a1,1,0,0,1-1-1V40a1,1,0,0,1,2,0v6A1,1,0,0,1,24,47Z" fill="#61616b"></path> <path d="M24.74,2.327a1.034,1.034,0,0,0-1.48,0C22.841,2.788,13,13.731,13,24c0,7.494,3.892,12.463,10,12.952V23a1,1,0,0,1,2,0V36.952C31.108,36.463,35,31.494,35,24,35,13.731,25.159,2.788,24.74,2.327Z" fill="#61616b"></path> <path d="M42.1,6.334a1,1,0,0,0-1.359-.389,45.836,45.836,0,0,0-7.373,5.33C35.37,15.082,37,19.55,37,24c0,6.448-2.708,11.36-7.112,13.622a11.487,11.487,0,0,0,2.277.928,11.613,11.613,0,0,0,3.181.463c5.029,0,9.165-3.636,10.967-9.942C49.142,19.172,42.394,6.854,42.1,6.334Z" fill="#61616b" data-color="color-2"></path> <path d="M5.9,6.334a1,1,0,0,1,1.359-.389,45.836,45.836,0,0,1,7.373,5.33C12.63,15.082,11,19.55,11,24c0,6.448,2.708,11.36,7.112,13.622a11.487,11.487,0,0,1-2.277.928,11.613,11.613,0,0,1-3.181.463c-5.029,0-9.165-3.636-10.967-9.942C-1.142,19.172,5.606,6.854,5.9,6.334Z" fill="#61616b" data-color="color-2"></path></g></svg>