<svg xmlns="http://www.w3.org/2000/svg" height="24" width="24" viewBox="0 0 24 24"><title>organic 6</title><g fill="#61616b" class="nc-icon-wrapper"><path d="M11,21h2v2c0,.552-.448,1-1,1h0c-.552,0-1-.448-1-1v-2Z" fill="#61616b"></path><path d="M12.707,1.293c-.397-.375-1.017-.375-1.414,0-.216,.216-5.293,5.354-5.293,10.707,0,4.294,2.377,6.477,5,6.914v-6.914c0-.552,.448-1,1-1h0c.552,0,1,.448,1,1v6.914c2.623-.437,5-2.62,5-6.914,0-5.353-5.077-10.491-5.293-10.707Z" fill="#61616b"></path><path d="M21.489,2.924c-.268-.483-.877-.657-1.36-.389,0,0,0,0,0,0-.906,.526-1.774,1.113-2.6,1.758,1.503,2.3,2.356,4.962,2.471,7.707,0,3.889-1.641,6.444-3.817,7.807,.463,.117,.939,.178,1.417,.182,2.445,0,4.957-1.535,6.037-5.316,1.471-5.147-1.999-11.483-2.148-11.749Z" fill="#61616b" data-color="color-2"></path><path d="M4,12c.113-2.744,.966-5.407,2.467-7.707-.826-.645-1.694-1.232-2.6-1.758-.483-.268-1.092-.094-1.36,.389,0,0,0,0,0,0-.149,.266-3.619,6.6-2.148,11.749,1.08,3.781,3.592,5.316,6.037,5.316,.478-.004,.954-.065,1.417-.182-2.172-1.363-3.813-3.918-3.813-7.807Z" fill="#61616b" data-color="color-2"></path></g></svg>