<svg xmlns="http://www.w3.org/2000/svg" height="64" width="64" viewBox="0 0 64 64"><title>organic 2 2</title><g fill="#61616b" class="nc-icon-wrapper"><path d="M32,2A30,30,0,1,0,62,32,30.034,30.034,0,0,0,32,2Zm0,58A28,28,0,1,1,60,32,28.032,28.032,0,0,1,32,60Z" fill="#61616b"></path> <path d="M31,35V47A18,18,0,0,0,49,29V17A18,18,0,0,0,31,35Z" fill="#61616b" data-color="color-2"></path> <path d="M15,27v6A14,14,0,0,0,29,47V41A14,14,0,0,0,15,27Z" fill="#61616b" data-color="color-2"></path></g></svg>