<svg xmlns="http://www.w3.org/2000/svg" height="16" width="16" viewBox="0 0 16 16"><title>organic</title><g fill="#61616b" class="nc-icon-wrapper"><path d="M2.243,.581c-.122-.08-.271-.102-.409-.062-.139,.039-.254,.136-.316,.266-.091,.191-2.216,4.723-1.281,8.034,.275,.975,.914,1.784,1.797,2.279,.349,.195,.721,.325,1.102,.402-.712-.986-1.136-2.193-1.136-3.5,0-2.201,.961-4.407,1.958-6.107-.908-.778-1.644-1.265-1.716-1.312Z" fill="#61616b" data-color="color-2"></path><path d="M14.482,.785c-.062-.13-.177-.227-.316-.266-.138-.04-.287-.018-.409,.062-.072,.047-.808,.534-1.716,1.312,.998,1.7,1.958,3.906,1.958,6.107,0,1.307-.424,2.513-1.136,3.5,.381-.077,.753-.207,1.102-.402,.884-.495,1.522-1.304,1.797-2.279,.935-3.311-1.19-7.842-1.281-8.034Z" fill="#61616b" data-color="color-2"></path><path d="M7.624,.171c-.148,.169-3.624,4.183-3.624,7.829,0,1.858,1.28,3.411,3,3.858v3.142c0,.552,.448,1,1,1s1-.448,1-1v-3.142c1.72-.447,3-2,3-3.858C12,4.354,8.524,.34,8.376,.171c-.19-.218-.562-.218-.753,0Z" fill="#61616b"></path></g></svg>