<svg xmlns="http://www.w3.org/2000/svg" height="64" width="64" viewBox="0 0 64 64"><title>palm tree 2</title><g fill="#61616b" class="nc-icon-wrapper"><path d="M52.561,62H11.439a1,1,0,0,1-.734-1.679,28.986,28.986,0,0,1,42.59,0A1,1,0,0,1,52.561,62Z" fill="#61616b"></path><path d="M13.883,12.993l3.955.465a21.371,21.371,0,0,1,10.573-2.589c.607,0,1.231.028,1.859.069a9.216,9.216,0,0,0-5.653-3.7c-5.629-1.052-11.061,3.811-11.29,4.018a1,1,0,0,0,.556,1.733Z" fill="#61616b" data-color="color-2"></path><path d="M41.684,7.9a35.571,35.571,0,0,1,5.565-1.933,1,1,0,0,0,.145-1.888c-3.92-1.681-9.4-3.154-13.239-.624-2.2,1.448-3.433,3.89-3.885,7.481A34.552,34.552,0,0,1,41.684,7.9Z" fill="#61616b" data-color="color-2"></path><path d="M44.469,19.575c-2.918-3.7-7.412-5.908-13.359-6.569a1.1,1.1,0,0,0-.641.152c-.29.18-7.039,4.593-8.286,11.53-.662,3.684.356,7.355,3.026,10.913a1,1,0,0,0,.8.4,1.017,1.017,0,0,0,.2-.021,1,1,0,0,0,.768-.748L28.7,28.023,26,26h3.179l2.356-9.894,5.509,6.2L39,21l-.684,2.735,7.937,8.929A.994.994,0,0,0,47,33a1.014,1.014,0,0,0,.3-.045,1,1,0,0,0,.7-.831A18.277,18.277,0,0,0,44.469,19.575Z" fill="#61616b" data-color="color-2"></path><path d="M16.009,17.2A15.644,15.644,0,0,0,11,29a1,1,0,0,0,1.62.785l3.055-2.411L15,24l3.029,1.515,2.337-1.845c1.167-5.128,4.791-8.845,7.1-10.76A17.663,17.663,0,0,0,16.009,17.2Z" fill="#61616b" data-color="color-2"></path><path d="M56.949,19.687c-1.438-4.358-4-7.314-7.622-8.788-5.12-2.084-11.156-.708-14.981.625a19.549,19.549,0,0,1,11.693,6.812c.095.12.174.244.264.365l2.988.717L51,16l1.387,4.162,3.38.811A1.022,1.022,0,0,0,56,21a1,1,0,0,0,.949-1.313Z" fill="#61616b" data-color="color-2"></path><path d="M30.627,49.036c.457-.02.914-.036,1.373-.036a30.817,30.817,0,0,1,7.213.868A50.744,50.744,0,0,0,40,41a50.91,50.91,0,0,0-2.217-14.854l-5.192-5.841-.743,3.122A48.851,48.851,0,0,1,33,34,48.684,48.684,0,0,1,30.627,49.036Z" fill="#61616b"></path></g></svg>