<svg xmlns="http://www.w3.org/2000/svg" height="16" width="16" viewBox="0 0 16 16"><title>park</title><g fill="#61616b" class="nc-icon-wrapper"><path d="M16,8.25a4.2,4.2,0,0,0-.961-2.736A4.484,4.484,0,0,0,15.5,3.5C15.5,1.567,14.381,0,13,0s-2.5,1.567-2.5,3.5a4.484,4.484,0,0,0,.461,2.014A4.2,4.2,0,0,0,10,8.25a3.776,3.776,0,0,0,2,3.52V16h2V11.77A3.776,3.776,0,0,0,16,8.25Z" fill="#61616b" data-color="color-2"></path><polygon points="10 12 0 12 0 14 1 14 1 16 3 16 3 14 7 14 7 16 9 16 9 14 10 14 10 12" fill="#61616b"></polygon><path d="M9,11H1V8A1,1,0,0,1,2,7H8A1,1,0,0,1,9,8Z" fill="#61616b"></path></g></svg>