<svg xmlns="http://www.w3.org/2000/svg" height="64" width="64" viewBox="0 0 64 64"><title>park 3</title><g fill="#61616b" class="nc-icon-wrapper"><path d="M38,52H2a1,1,0,0,0-1,1v2a1,1,0,0,0,1,1H5v6a1,1,0,0,0,2,0V56H33v6a1,1,0,0,0,2,0V56h3a1,1,0,0,0,1-1V53A1,1,0,0,0,38,52Z" fill="#61616b"></path><path d="M35,50H5V37a1,1,0,0,1,1-1H34a1,1,0,0,1,1,1Z" fill="#61616b"></path><path d="M58.218,16.393A12.778,12.778,0,0,0,59,12c0-6.065-4.037-11-9-11s-9,4.935-9,11a12.778,12.778,0,0,0,.782,4.393A16.038,16.038,0,0,0,37,28c0,7.078,4.276,13.012,10,14.581V62a1,1,0,0,0,1,1h2a1,1,0,0,0,1-1V28a1,1,0,0,1,2,0V42.581c5.724-1.569,10-7.5,10-14.581A16.038,16.038,0,0,0,58.218,16.393Z" fill="#61616b" data-color="color-2"></path></g></svg>