<svg xmlns="http://www.w3.org/2000/svg" height="48" width="48" viewBox="0 0 48 48"><title>parrot 3</title><g fill="#61616b" class="nc-icon-wrapper"><path d="M29,1H16A13.015,13.015,0,0,0,3,14V46a1,1,0,0,0,1,1H17A13.015,13.015,0,0,0,30,34V2A1,1,0,0,0,29,1ZM18,23a7,7,0,1,1,7-7A7,7,0,0,1,18,23Z" fill="#61616b"></path> <path data-color="color-2" d="M34,1H32V14H46V13A12,12,0,0,0,34,1Z" fill="#61616b"></path> <circle data-color="color-2" cx="18" cy="16" r="3" fill="#61616b"></circle> <path data-color="color-2" d="M32,25h2a7,7,0,0,0,7-7V16H32Z" fill="#61616b"></path></g></svg>