<svg xmlns="http://www.w3.org/2000/svg" height="32" width="32" viewBox="0 0 32 32"><title>parrot 4</title><g fill="#61616b" class="nc-icon-wrapper"><path d="M23,0H12A11.013,11.013,0,0,0,1,11V31a1,1,0,0,0,1,1h9A11.013,11.013,0,0,0,22,21V15h1a6.006,6.006,0,0,0,5.91-5H31a1,1,0,0,0,1-1A9.01,9.01,0,0,0,23,0ZM12,15a5,5,0,1,1,5-5A5,5,0,0,1,12,15Zm11-2H22V10h4.858A4,4,0,0,1,23,13ZM22,8V2h1a7.012,7.012,0,0,1,6.929,6Z" fill="#61616b"></path> <circle data-color="color-2" cx="12" cy="10" r="2" fill="#61616b"></circle></g></svg>