<svg xmlns="http://www.w3.org/2000/svg" height="64" width="64" viewBox="0 0 64 64"><title>paw 3</title><g fill="#61616b" class="nc-icon-wrapper"><path d="M32,25c-8.879,0-19,12.785-19,24A10.011,10.011,0,0,0,23,59a8.823,8.823,0,0,0,5.6-1.791,5.377,5.377,0,0,1,6.794,0A8.823,8.823,0,0,0,41,59,10.011,10.011,0,0,0,51,49C51,37.785,40.879,25,32,25Z" fill="#61616b"></path><path data-color="color-2" d="M8.37,19.146a5.588,5.588,0,0,0-4.556.918,7.085,7.085,0,0,0-2.77,5.091c-.407,4,2.1,7.906,5.586,8.7A5.812,5.812,0,0,0,7.913,34a5.573,5.573,0,0,0,3.272-1.064,7.085,7.085,0,0,0,2.771-5.091C14.363,23.842,11.857,19.939,8.37,19.146Z" fill="#61616b"></path><path data-color="color-2" d="M62.956,25.155a7.085,7.085,0,0,0-2.77-5.091,5.58,5.58,0,0,0-4.556-.918c-3.487.793-5.993,4.7-5.586,8.7a7.085,7.085,0,0,0,2.771,5.091A5.573,5.573,0,0,0,56.087,34a5.812,5.812,0,0,0,1.283-.146C60.857,33.061,63.363,29.158,62.956,25.155Z" fill="#61616b"></path><path data-color="color-2" d="M21.136,19.854a5.7,5.7,0,0,0,1.27.146,5.449,5.449,0,0,0,3.2-1.041,7.086,7.086,0,0,0,2.768-5.116c.4-4-2.071-7.9-5.509-8.7a5.461,5.461,0,0,0-4.469.9,7.086,7.086,0,0,0-2.768,5.116C15.226,15.157,17.7,19.059,21.136,19.854Z" fill="#61616b"></path><path data-color="color-2" d="M38.23,18.936A5.586,5.586,0,0,0,41.5,20a5.812,5.812,0,0,0,1.283-.146c3.487-.793,5.993-4.7,5.586-8.7A7.085,7.085,0,0,0,45.6,6.064a5.584,5.584,0,0,0-4.555-.918c-3.486.793-5.993,4.7-5.587,8.7A7.087,7.087,0,0,0,38.23,18.936Z" fill="#61616b"></path></g></svg>