<svg xmlns="http://www.w3.org/2000/svg" height="32" width="32" viewBox="0 0 32 32"><title>paw 5</title><g fill="#61616b" class="nc-icon-wrapper"><path d="M16,12C11.327,12,6,18.659,6,24.5A5.506,5.506,0,0,0,11.5,30a4.9,4.9,0,0,0,3.079-.979,2.2,2.2,0,0,1,2.842,0A4.9,4.9,0,0,0,20.5,30,5.506,5.506,0,0,0,26,24.5C26,18.659,20.673,12,16,12Z" fill="#61616b"></path><path data-color="color-2" d="M6.978,13.673A4.21,4.21,0,0,0,4.021,9.081h0a3.055,3.055,0,0,0-2.5.5,3.814,3.814,0,0,0-1.5,2.746A4.21,4.21,0,0,0,2.98,16.919,3.136,3.136,0,0,0,3.689,17a3.056,3.056,0,0,0,1.789-.581A3.814,3.814,0,0,0,6.978,13.673Z" fill="#61616b"></path><path data-color="color-2" d="M31.978,12.327a3.814,3.814,0,0,0-1.5-2.746,3.062,3.062,0,0,0-2.5-.5h0a4.21,4.21,0,0,0-2.957,4.592,3.814,3.814,0,0,0,1.5,2.746A3.054,3.054,0,0,0,28.311,17a3.138,3.138,0,0,0,.71-.081A4.21,4.21,0,0,0,31.978,12.327Z" fill="#61616b"></path><path data-color="color-2" d="M10.48,9.919a3.136,3.136,0,0,0,.709.081,3.056,3.056,0,0,0,1.789-.581,3.814,3.814,0,0,0,1.5-2.746,4.21,4.21,0,0,0-2.957-4.592h0a3.059,3.059,0,0,0-2.5.5,3.814,3.814,0,0,0-1.5,2.746A4.21,4.21,0,0,0,10.48,9.919Z" fill="#61616b"></path><path data-color="color-2" d="M19.022,9.419A3.054,3.054,0,0,0,20.811,10a3.138,3.138,0,0,0,.71-.081,4.21,4.21,0,0,0,2.957-4.592,3.814,3.814,0,0,0-1.5-2.746,3.056,3.056,0,0,0-2.5-.5h0a4.21,4.21,0,0,0-2.957,4.592A3.814,3.814,0,0,0,19.022,9.419Z" fill="#61616b"></path></g></svg>