<svg xmlns="http://www.w3.org/2000/svg" height="48" width="48" viewBox="0 0 48 48"><title>paw 4</title><g fill="#61616b" class="nc-icon-wrapper"><path data-color="color-2" d="M46.969,17.54a5.215,5.215,0,0,0-2.043-3.762,4.087,4.087,0,0,0-3.344-.669c-2.568.594-4.348,3.383-4.051,6.351a5.215,5.215,0,0,0,2.043,3.762A4.084,4.084,0,0,0,41.967,24a4.229,4.229,0,0,0,.95-.109C45.486,23.3,47.266,20.508,46.969,17.54Z" fill="#61616b"></path><path data-color="color-2" d="M10.469,19.46c.3-2.968-1.483-5.757-4.051-6.351a4.087,4.087,0,0,0-3.344.669A5.215,5.215,0,0,0,1.031,17.54c-.3,2.968,1.483,5.757,4.051,6.351A4.238,4.238,0,0,0,6.033,24a4.084,4.084,0,0,0,2.393-.778A5.215,5.215,0,0,0,10.469,19.46Z" fill="#61616b"></path><path d="M24,18C16.416,18,9,28.88,9,37a8.009,8.009,0,0,0,8,8,8,8,0,0,0,4.561-1.241,4.3,4.3,0,0,1,4.877,0A8.217,8.217,0,0,0,39,37C39,28.88,31.584,18,24,18Z" fill="#61616b"></path><path data-color="color-2" d="M16.082,13.891a4.238,4.238,0,0,0,.951.109,4.084,4.084,0,0,0,2.393-.778A5.215,5.215,0,0,0,21.469,9.46c.3-2.968-1.483-5.757-4.051-6.351a4.087,4.087,0,0,0-3.344.669A5.215,5.215,0,0,0,12.031,7.54C11.734,10.508,13.514,13.3,16.082,13.891Z" fill="#61616b"></path><path data-color="color-2" d="M28.574,13.222A4.084,4.084,0,0,0,30.967,14a4.229,4.229,0,0,0,.95-.109c2.569-.594,4.349-3.383,4.052-6.351a5.215,5.215,0,0,0-2.043-3.762,4.087,4.087,0,0,0-3.344-.669c-2.568.594-4.348,3.383-4.051,6.351A5.215,5.215,0,0,0,28.574,13.222Z" fill="#61616b"></path></g></svg>