<svg xmlns="http://www.w3.org/2000/svg" height="24" width="24" viewBox="0 0 24 24"><title>paw</title><g fill="#61616b" class="nc-icon-wrapper"><path data-color="color-2" d="M7.829,6.939A2.582,2.582,0,0,0,8.385,7a2.476,2.476,0,0,0,1.46-.476,2.865,2.865,0,0,0,1.137-2.038A3.139,3.139,0,0,0,8.671,1.061a2.482,2.482,0,0,0-2.016.414A2.865,2.865,0,0,0,5.518,3.513,3.139,3.139,0,0,0,7.829,6.939Z" fill="#61616b"></path><path data-color="color-2" d="M5.109,10.727a3.144,3.144,0,0,0,.262-2.419A2.969,2.969,0,0,0,1.949,6.075a2.507,2.507,0,0,0-1.558,1.2A3.144,3.144,0,0,0,.129,9.692,3.065,3.065,0,0,0,2.953,12a2.442,2.442,0,0,0,.6-.074A2.507,2.507,0,0,0,5.109,10.727Z" fill="#61616b"></path><path data-color="color-2" d="M14.155,6.525A2.476,2.476,0,0,0,15.615,7a2.582,2.582,0,0,0,.556-.062,3.139,3.139,0,0,0,2.311-3.426,2.865,2.865,0,0,0-1.137-2.038,2.484,2.484,0,0,0-2.016-.414,3.139,3.139,0,0,0-2.311,3.426A2.865,2.865,0,0,0,14.155,6.525Z" fill="#61616b"></path><path data-color="color-2" d="M23.609,7.273a2.507,2.507,0,0,0-1.558-1.2,2.963,2.963,0,0,0-3.422,2.233,3.144,3.144,0,0,0,.262,2.419,2.507,2.507,0,0,0,1.558,1.2,2.44,2.44,0,0,0,.6.074,3.066,3.066,0,0,0,2.825-2.307A3.144,3.144,0,0,0,23.609,7.273Z" fill="#61616b"></path><path d="M12,9C8.411,9,4,14.514,4,19a4,4,0,0,0,4,4,4.868,4.868,0,0,0,2.447-.605A2.89,2.89,0,0,1,12,22a2.89,2.89,0,0,1,1.553.395A4.868,4.868,0,0,0,16,23a4,4,0,0,0,4-4C20,14.514,15.589,9,12,9Z" fill="#61616b"></path></g></svg>