<svg xmlns="http://www.w3.org/2000/svg" height="48" width="48" viewBox="0 0 48 48"><title>pet food 4</title><g fill="#61616b" class="nc-icon-wrapper"><path fill="#61616b" d="M46.92871,38.62891l-8-20.00049C38.77637,18.24902,38.40918,18,38,18H10 c-0.40918,0-0.77637,0.24902-0.92871,0.62842l-8,20.00049c-0.12305,0.30762-0.08496,0.65723,0.10059,0.93164 C1.3584,39.83496,1.66797,40,2,40h44c0.33203,0,0.6416-0.16504,0.82812-0.43945 C47.01367,39.28613,47.05176,38.93652,46.92871,38.62891z"></path> <path data-color="color-2" fill="#61616b" d="M35.94153,16C35.44391,11.50012,31.63251,7.99915,27,7.99915 c-3.19556,0-5.98474,1.67664-7.58167,4.18689C18.96143,12.07471,18.49109,11.99915,18,11.99915 c-2.60095,0-4.80884,1.67798-5.64117,4.00085H35.94153z"></path></g></svg>