<svg xmlns="http://www.w3.org/2000/svg" height="48" width="48" viewBox="0 0 48 48"><title>pickaxe 4</title><g fill="#61616b" class="nc-icon-wrapper"><path d="M25.456,17.986,2.318,39.318a4.5,4.5,0,0,0,6.364,6.364L30.014,22.544Q27.844,20.159,25.456,17.986Z" fill="#61616b"></path><path data-color="color-2" d="M46.856,31.936A46.922,46.922,0,0,0,38.088,15.9L39.7,14.287h0a1,1,0,0,0,0-1.414l-4.585-4.58a1,1,0,0,0-1.414,0L32.09,9.907A46.929,46.929,0,0,0,16.064,1.143a1,1,0,0,0-.962.207L11.646,4.421a1,1,0,0,0,.2,1.634,70.865,70.865,0,0,1,30.1,30.1,1,1,0,0,0,1.633.2L46.649,32.9A1,1,0,0,0,46.856,31.936Z" fill="#61616b"></path></g></svg>