<svg xmlns="http://www.w3.org/2000/svg" height="24" width="24" viewBox="0 0 24 24"><title>pickaxe</title><g fill="#61616b" class="nc-icon-wrapper"><path data-color="color-2" d="M9.965,11.207.586,20.586a2,2,0,0,0,2.828,2.828l9.379-9.379Z" fill="#61616b"></path><path d="M23.5,17.118A26.9,26.9,0,0,0,18.43,8.4l1-1A2,2,0,0,0,16.6,4.571l-1,1A26.923,26.923,0,0,0,6.882.5,1,1,0,0,0,5.846.74L4.793,1.793a1,1,0,0,0,0,1.414l16,16a1,1,0,0,0,1.414,0l1.053-1.053A1,1,0,0,0,23.5,17.118Z" fill="#61616b"></path></g></svg>