<svg xmlns="http://www.w3.org/2000/svg" height="64" width="64" viewBox="0 0 64 64"><title>pickaxe 3</title><g fill="#61616b" class="nc-icon-wrapper"><path d="M2.776,53.347,35,22.959,41.042,29,10.949,60.465a5.247,5.247,0,0,1-7.414,0A5.8,5.8,0,0,1,2.776,53.347Z" fill="#61616b"></path><rect data-color="color-2" x="37.369" y="13.92" width="14.113" height="11.314" rx="1" transform="translate(-0.825 37.164) rotate(-45.02)" fill="#61616b"></rect><path data-color="color-2" d="M18.9,4.811,20.14,2.077a1,1,0,0,1,1.194-.545A60.861,60.861,0,0,1,41.351,11.821l-5.473,5.473c-.02.02-.034.044-.053.064A94.212,94.212,0,0,0,19.335,6.105,1,1,0,0,1,18.9,4.811Z" fill="#61616b"></path><path data-color="color-2" d="M46.707,28.121l5.48-5.48a60.853,60.853,0,0,1,10.068,19.3,1,1,0,0,1-.639,1.244l-3.038,1.012a1,1,0,0,1-1.192-.465A94.457,94.457,0,0,0,46.651,28.167C46.669,28.15,46.69,28.138,46.707,28.121Z" fill="#61616b"></path></g></svg>