<svg xmlns="http://www.w3.org/2000/svg" height="32" width="32" viewBox="0 0 32 32"><title>pickaxe 5</title><g fill="#61616b" class="nc-icon-wrapper"><path data-color="color-2" d="M14.258,13.5,1.879,25.879a3,3,0,1,0,4.243,4.242L18.5,17.742Z" fill="#61616b"></path><path d="M31.683,21.994A31.913,31.913,0,0,0,25.6,10.647l1.526-1.526a3,3,0,1,0-4.243-4.242L21.357,6.4A31.786,31.786,0,0,0,10.019.305,1,1,0,0,0,9.03.557L7.293,2.293a1,1,0,0,0,0,1.414l21,21a1,1,0,0,0,1.414,0l1.724-1.724A1,1,0,0,0,31.683,21.994Z" fill="#61616b"></path></g></svg>