<svg xmlns="http://www.w3.org/2000/svg" height="16" width="16" viewBox="0 0 16 16"><title>pig 2 2</title><g fill="#61616b" class="nc-icon-wrapper"><circle cx="6" cy="12" r="1" fill="#61616b" data-color="color-2"></circle><circle cx="10" cy="12" r="1" fill="#61616b" data-color="color-2"></circle><path d="M14.851,.066c-2.121,.241-4.004,1.12-5.141,2.154-.548-.138-1.119-.219-1.71-.219s-1.162,.081-1.71,.219C5.153,1.185,3.27,.307,1.149,.066,.53-.005-.004,.514,.033,1.136,.172,3.521,.746,5.388,1.494,6.429c-.371,.939-.553,1.974-.476,3.062,.255,3.607,3.384,6.517,7,6.508,3.858-.009,6.983-3.14,6.983-7,0-.909-.179-1.774-.494-2.571,.748-1.041,1.321-2.909,1.461-5.293,.036-.622-.497-1.141-1.116-1.071ZM5,6c.552,0,1,.448,1,1s-.448,1-1,1-1-.448-1-1,.448-1,1-1Zm5,8H6c-1.105,0-2-.895-2-2s.895-2,2-2h4c1.105,0,2,.895,2,2s-.895,2-2,2Zm1-6c-.552,0-1-.448-1-1s.448-1,1-1,1,.448,1,1-.448,1-1,1Z" fill="#61616b"></path></g></svg>