<svg xmlns="http://www.w3.org/2000/svg" height="64" width="64" viewBox="0 0 64 64"><title>pig 2 3</title><g fill="#61616b" class="nc-icon-wrapper"><circle cx="26" cy="44" r="3" fill="#61616b" data-color="color-2"></circle><circle cx="38" cy="44" r="3" fill="#61616b" data-color="color-2"></circle><path d="M63,2c0-.552-.448-1-1-1-8.969,0-15.745,1.927-20.169,5.719-3.072-1.11-6.381-1.719-9.831-1.719s-6.759,.608-9.831,1.719C17.745,2.927,10.969,1,2,1c-.552,0-1,.448-1,1,0,12.101,1.026,17.164,4.31,20.663-1.486,3.485-2.31,7.316-2.31,11.337,0,15.99,13.009,29,29,29s29-13.01,29-29c0-4.021-.824-7.853-2.31-11.337,3.284-3.498,4.31-8.561,4.31-20.663ZM7.327,18.783c-1.369-2.147-2.148-5.716-2.3-13.701,5.5,.308,9.832,1.5,12.976,3.53-4.371,2.419-8.053,5.933-10.676,10.171Zm9.673,7.217c0-1.654,1.346-3,3-3s3,1.346,3,3-1.346,3-3,3-3-1.346-3-3Zm19,28h-8c-5.523,0-10-4.477-10-10s4.477-10,10-10h8c5.523,0,10,4.477,10,10s-4.477,10-10,10Zm8-25c-1.654,0-3-1.346-3-3s1.346-3,3-3,3,1.346,3,3-1.346,3-3,3Zm1.997-20.388c3.144-2.03,7.477-3.221,12.976-3.53-.151,7.984-.931,11.554-2.3,13.701-2.623-4.238-6.305-7.752-10.676-10.171Z" fill="#61616b"></path></g></svg>