<svg xmlns="http://www.w3.org/2000/svg" height="24" width="24" viewBox="0 0 24 24"><title>pig 2</title><g fill="#61616b" class="nc-icon-wrapper"><path d="M24,1c0-.552-.448-1-1-1h0c-3.587,0-6.265,.822-7.996,2.428-.956-.272-1.962-.428-3.004-.428s-2.048,.155-3.004,.428C7.265,.822,4.587,0,1,0h0C.448,0,0,.448,0,1H0C0,5.126,.279,7.415,1.762,9.006c-.786,2.007-1.024,4.287-.429,6.677,1.046,4.201,4.562,7.474,8.835,8.168,6.871,1.115,12.832-4.185,12.832-10.851,0-1.41-.276-2.754-.762-3.994,1.483-1.591,1.762-3.88,1.762-8.006h0ZM6,8.5c0-.828,.672-1.5,1.5-1.5s1.5,.672,1.5,1.5-.672,1.5-1.5,1.5-1.5-.672-1.5-1.5Zm7,11.5h-2c-2.209,0-4-1.791-4-4s1.791-4,4-4h2c2.209,0,4,1.791,4,4s-1.791,4-4,4Zm3.5-10c-.828,0-1.5-.672-1.5-1.5s.672-1.5,1.5-1.5,1.5,.672,1.5,1.5-.672,1.5-1.5,1.5Z" fill="#61616b"></path><circle cx="10" cy="16" r="1" fill="#61616b" data-color="color-2"></circle><circle cx="14" cy="16" r="1" fill="#61616b" data-color="color-2"></circle></g></svg>