<svg xmlns="http://www.w3.org/2000/svg" height="64" width="64" viewBox="0 0 64 64"><title>plant leaf 4</title><g fill="#61616b" class="nc-icon-wrapper"><path d="M60.698,3.284c-.228-.222-.548-.324-.859-.271-1.243,.203-30.577,5.111-42.546,17.08-8.674,8.675-8.621,18.193-7.218,24.374l15.537-10.212c.469-.308,.982,.322,.586,.719L1.879,59.293c-.391,.39-.391,1.024,0,1.414l1.414,1.414c.391,.391,1.024,.391,1.414,0l9.824-9.824c2.153,.913,6.212,2.292,11.122,2.292,5.526,0,12.121-1.749,18.254-7.882C56.771,33.842,60.824,5.344,60.99,4.137c.044-.315-.064-.631-.292-.853Z" fill="#61616b"></path></g></svg>