<svg xmlns="http://www.w3.org/2000/svg" height="48" width="48" viewBox="0 0 48 48"><title>plant vase 4</title><g fill="#61616b" class="nc-icon-wrapper"><path d="M43,30H5c-.6,0-1,.4-1,1v2c0,.6,.4,1,1,1H43c.6,0,1-.4,1-1v-2c0-.6-.4-1-1-1Z" fill="#61616b"></path><path d="M9,36v8c0,1.657,1.343,3,3,3h24c1.657,0,3-1.343,3-3v-8H9Z" fill="#61616b"></path><path d="M36,9c-4.634,0-8.698,2.444-11,6.103V2c0-.552-.448-1-1-1s-1,.448-1,1v6.103c-2.302-3.659-6.366-6.103-11-6.103-.552,0-1,.448-1,1v2c0,6.831,5.299,12.436,12,12.949v10.051h2v-3.051c6.701-.514,12-6.118,12-12.949v-2c0-.552-.448-1-1-1Z" fill="#61616b" data-color="color-2"></path></g></svg>