<svg xmlns="http://www.w3.org/2000/svg" height="16" width="16" viewBox="0 0 16 16"><title>plant vase 2</title><g fill="#61616b" class="nc-icon-wrapper"><path d="M14,12H2c-.553,0-1-.448-1-1s.447-1,1-1H14c.553,0,1,.448,1,1s-.447,1-1,1Z" fill="#61616b"></path><path d="M12,10H4c-.552,0-1,.448-1,1v3c0,1.105,.895,2,2,2h6c1.105,0,2-.895,2-2v-3c0-.552-.448-1-1-1Z" fill="#61616b"></path><path d="M12.5,1c-1.421,0-2.675,.675-3.5,1.706V1c0-.552-.447-1-1-1s-1,.448-1,1v7h2v-1.051c2.244-.252,4-2.139,4-4.449V1.5c0-.276-.224-.5-.5-.5Z" fill="#61616b" data-color="color-2"></path></g></svg>