<svg xmlns="http://www.w3.org/2000/svg" height="64" width="64" viewBox="0 0 64 64"><title>plant soil 3</title><g fill="#61616b" class="nc-icon-wrapper"><path d="M61,61H3c-.552,0-1-.448-1-1s.448-1,1-1H19.101c.464-2.279,2.485-4,4.899-4,.763,0,1.516,.182,2.2,.523,1.589-2.781,4.536-4.523,7.8-4.523,4.625,0,8.446,3.506,8.945,8h18.055c.552,0,1,.448,1,1s-.448,1-1,1Z" fill="#61616b"></path><path d="M49,19h-1c-6.489,0-12.136,3.658-15,9.017V3c0-.552-.448-1-1-1s-1,.448-1,1v13.017c-2.864-5.359-8.511-9.017-15-9.017h-1c-.552,0-1,.448-1,1v2c0,9.374,7.626,17,17,17v19c0,.552,.448,1,1,1s1-.448,1-1v-7c9.374,0,17-7.626,17-17v-2c0-.552-.448-1-1-1Z" fill="#61616b" data-color="color-2"></path></g></svg>