<svg xmlns="http://www.w3.org/2000/svg" height="48" width="48" viewBox="0 0 48 48"><title>plant soil 4</title><g fill="#61616b" class="nc-icon-wrapper"><path d="M36,12c-4.634,0-8.698,2.444-11,6.103V2c0-.552-.448-1-1-1s-1,.448-1,1V10.103c-2.302-3.659-6.366-6.103-11-6.103-.552,0-1,.448-1,1v2c0,6.831,5.299,12.436,12,12.949v13.051c0,.552,.448,1,1,1s1-.448,1-1v-5.051c6.701-.514,12-6.118,12-12.949v-2c0-.552-.448-1-1-1Z" fill="#61616b" data-color="color-2"></path><path d="M46,45h-11.056c-.499-4.494-4.319-8-8.944-8-3.264,0-6.212,1.741-7.801,4.523-.684-.341-1.436-.523-2.199-.523-2.415,0-4.435,1.721-4.899,4H2c-.553,0-1,.448-1,1s.447,1,1,1H46c.553,0,1-.448,1-1s-.447-1-1-1Z" fill="#61616b"></path></g></svg>