<svg xmlns="http://www.w3.org/2000/svg" height="32" width="32" viewBox="0 0 32 32"><title>plant soil 5</title><g fill="#61616b" class="nc-icon-wrapper"><path d="M23,7c-2.39,0-4.533,1.059-6,2.726V1c0-.552-.448-1-1-1s-1,.448-1,1V5.726c-1.467-1.667-3.61-2.726-6-2.726-.552,0-1,.448-1,1v3c0,4.072,3.06,7.436,7,7.931v7.069c0,.552,.448,1,1,1s1-.448,1-1v-3.069c3.94-.495,7-3.859,7-7.931v-3c0-.552-.448-1-1-1Z" fill="#61616b" data-color="color-2"></path><path d="M31,31H1c-.552,0-1-.448-1-1s.448-1,1-1H9.171c.413-1.164,1.525-2,2.829-2,.307,0,.61,.048,.9,.142,.921-1.328,2.436-2.142,4.1-2.142,2.415,0,4.435,1.721,4.899,4h9.101c.552,0,1,.448,1,1s-.448,1-1,1Z" fill="#61616b"></path></g></svg>