<svg xmlns="http://www.w3.org/2000/svg" height="24" width="24" viewBox="0 0 24 24"><title>plant soil</title><g fill="#61616b" class="nc-icon-wrapper"><path d="M18,5c-1.958,0-3.728,.81-5,2.11V1c0-.552-.448-1-1-1s-1,.448-1,1V3.11c-1.272-1.3-3.042-2.11-5-2.11-.552,0-1,.448-1,1v1c0,3.519,2.613,6.432,6,6.92v6.08c0,.552,.448,1,1,1s1-.448,1-1v-2.08c3.387-.488,6-3.401,6-6.92v-1c0-.552-.448-1-1-1Z" fill="#61616b" data-color="color-2"></path><path d="M23,22h-5.101c-.463-2.282-2.48-4-4.899-4-1.701,0-3.2,.854-4.103,2.152-.285-.09-.583-.152-.897-.152-1.304,0-2.403,.837-2.816,2H1c-.552,0-1,.448-1,1s.448,1,1,1H23c.552,0,1-.448,1-1s-.448-1-1-1Z" fill="#61616b"></path></g></svg>