<svg xmlns="http://www.w3.org/2000/svg" height="64" width="64" viewBox="0 0 64 64"><title>plant vase 3</title><g fill="#61616b" class="nc-icon-wrapper"><path d="M46,11h-1c-5.096,0-9.551,2.745-12,6.826V2c0-.552-.448-1-1-1s-1,.448-1,1V11.826c-2.449-4.081-6.904-6.826-12-6.826h-1c-.552,0-1,.448-1,1v2c0,7.72,6.28,14,14,14v12c0,.552,.448,1,1,1s1-.448,1-1v-6c7.72,0,14-6.28,14-14v-2c0-.552-.448-1-1-1Z" fill="#61616b" data-color="color-2"></path><rect x="8" y="38" width="48" height="6" rx="1" ry="1" fill="#61616b"></rect><path d="M14,46v11c0,3.309,2.691,6,6,6h24c3.309,0,6-2.691,6-6v-11H14Z" fill="#61616b"></path></g></svg>