<svg xmlns="http://www.w3.org/2000/svg" height="48" width="48" viewBox="0 0 48 48"><title>rat head 4</title><g fill="#61616b" class="nc-icon-wrapper"><path d="M47,12c0-6.065-5.383-11-12-11-3.609,0-7.044,1.526-9.331,4.085-.549-.053-1.104-.085-1.669-.085s-1.12,.033-1.669,.085c-2.287-2.559-5.722-4.085-9.331-4.085C6.383,1,1,5.935,1,12c0,4.932,3.52,9.185,8.632,10.555,.632,2.834,1.7,6.24,3.028,9.599l-6.511-.976c-.555-.085-1.056,.295-1.138,.84-.082,.546,.295,1.056,.841,1.137l10.602,1.589c.563,.084,.57,.893,.009,.988l-2.103,.354c.454,.971,.931,1.951,1.452,2.914l-7.98,1.359c-.544,.093-.91,.609-.817,1.154,.083,.488,.506,.832,.984,.832,.056,0,.112-.004,.169-.014l10.937-1.863c.518-.088,.804,.58,.382,.894l-1.528,1.137c1.839,2.606,3.906,4.502,6.041,4.502s4.202-1.896,6.041-4.502l-1.528-1.137c-.422-.314-.136-.982,.382-.894l10.937,1.863c.057,.01,.113,.014,.169,.014,.479,0,.901-.344,.984-.832,.093-.544-.273-1.061-.817-1.154l-7.98-1.359c.521-.963,.998-1.943,1.452-2.914l-2.103-.354c-.561-.094-.554-.903,.009-.988l10.602-1.589c.546-.082,.923-.591,.841-1.137-.082-.545-.583-.925-1.138-.84l-6.511,.976c1.328-3.358,2.397-6.765,3.028-9.599,5.112-1.371,8.632-5.623,8.632-10.555ZM9,18c0,.66,.071,1.445,.205,2.328-3.718-1.37-6.205-4.619-6.205-8.328C3,7.038,7.486,3,13,3c2.582,0,5.049,.922,6.908,2.504-6.286,1.549-10.908,6.558-10.908,12.496Zm9,6c-1.103,0-2-.897-2-2s.897-2,2-2,2,.897,2,2-.897,2-2,2Zm12,0c-1.103,0-2-.897-2-2s.897-2,2-2,2,.897,2,2-.897,2-2,2Zm-1.908-18.496c1.859-1.582,4.326-2.504,6.908-2.504,5.514,0,10,4.038,10,9,0,3.71-2.487,6.958-6.205,8.328,.134-.883,.205-1.669,.205-2.328,0-5.938-4.622-10.947-10.908-12.496Z" fill="#61616b"></path></g></svg>