<svg xmlns="http://www.w3.org/2000/svg" height="64" width="64" viewBox="0 0 64 64"><title>rat head 3</title><g fill="#61616b" class="nc-icon-wrapper"><path d="M63,16c0-8.271-7.178-15-16-15-5.08,0-9.84,2.269-12.862,6.089-.703-.059-1.417-.089-2.138-.089s-1.435,.03-2.138,.089c-3.021-3.82-7.782-6.089-12.862-6.089C8.178,1,1,7.729,1,16c0,6.407,4.447,12.159,10.878,14.201,.862,3.684,2.311,8.141,4.138,12.571l-8.414-1.261c-.555-.086-1.056,.295-1.138,.84-.082,.546,.295,1.056,.841,1.137l15.213,2.28c.566,.085,.572,.9,.006,.988-1.466,.228-3.15,.49-4.422,.688,.795,1.655,1.63,3.266,2.502,4.781l-10.592,1.804c-.544,.093-.91,.609-.817,1.154,.083,.488,.506,.832,.984,.832,.056,0,.112-.004,.169-.014l14.905-2.539c.561-.095,.82,.67,.317,.935l-2.703,1.427c2.952,4.267,6.13,7.175,9.131,7.175s6.18-2.908,9.131-7.175l-2.703-1.427c-.503-.265-.243-1.031,.317-.935l14.905,2.539c.057,.01,.113,.014,.169,.014,.479,0,.901-.344,.984-.832,.093-.544-.273-1.061-.817-1.154l-10.592-1.804c.872-1.516,1.707-3.127,2.502-4.781-1.272-.198-2.955-.459-4.422-.688-.566-.088-.56-.903,.006-.988l15.213-2.28c.546-.082,.923-.591,.841-1.137-.082-.545-.583-.926-1.138-.84l-8.414,1.261c1.827-4.43,3.276-8.887,4.138-12.571,6.432-2.042,10.878-7.794,10.878-14.201ZM11,24.2c0,.409,.027,.866,.071,1.351-3.672-1.934-6.071-5.577-6.071-9.551,0-6.065,5.383-11,12-11,3.062,0,5.951,1.084,8.152,2.958-8.222,2.333-14.152,8.724-14.152,16.242Zm12.5,9.8c-1.379,0-2.5-1.122-2.5-2.5s1.121-2.5,2.5-2.5,2.5,1.122,2.5,2.5-1.121,2.5-2.5,2.5Zm17,0c-1.379,0-2.5-1.122-2.5-2.5s1.121-2.5,2.5-2.5,2.5,1.122,2.5,2.5-1.121,2.5-2.5,2.5Zm-1.652-26.042c2.2-1.874,5.089-2.958,8.152-2.958,6.617,0,12,4.935,12,11,0,3.974-2.4,7.617-6.071,9.551,.044-.485,.071-.942,.071-1.351,0-7.518-5.929-13.909-14.152-16.242Z" fill="#61616b"></path></g></svg>