<svg xmlns="http://www.w3.org/2000/svg" height="16" width="16" viewBox="0 0 16 16"><title>shark 2 2</title><g fill="#61616b" class="nc-icon-wrapper"><path d="M2.116,11.522c.026-.027.056-.048.079-.076a3,3,0,0,1,4.6-.008,1.531,1.531,0,0,0,1.064.556C7.906,12,7.954,12,8,12a1.543,1.543,0,0,0,1-.365,1.522,1.522,0,0,0,.192-.193,3,3,0,0,1,4.612.01,1.49,1.49,0,0,0,.171.166A11.006,11.006,0,0,0,3,1a1,1,0,0,0-.961,1.276C2.056,2.334,3.679,8.12,2.116,11.522Z" fill="#61616b"></path><path data-color="color-2" d="M8.01,16q-.248,0-.5-.021A5.534,5.534,0,0,1,4.5,14.765,5.382,5.382,0,0,1,1,16a1,1,0,0,1,0-2h.014a3.528,3.528,0,0,0,2.717-1.273,1,1,0,0,1,.768-.36h0a1,1,0,0,1,.767.357,3.566,3.566,0,0,0,5.024.443,3.49,3.49,0,0,0,.442-.443,1,1,0,0,1,.767-.357h0a1,1,0,0,1,.767.362A3.5,3.5,0,0,0,14.976,14H15a1,1,0,0,1,.006,2,5.393,5.393,0,0,1-3.51-1.235A5.518,5.518,0,0,1,8.01,16Z" fill="#61616b"></path></g></svg>