<svg xmlns="http://www.w3.org/2000/svg" height="16" width="16" viewBox="0 0 16 16"><title>shark 3</title><g fill="#61616b" class="nc-icon-wrapper"><path d="M8,0C4.018,0,0,4.638,0,15a1,1,0,0,0,1,1H15a1,1,0,0,0,1-1C16,4.638,11.982,0,8,0ZM3,6A1,1,0,1,1,4,7,1,1,0,0,1,3,6Zm9.276,7.417A.5.5,0,0,1,11.7,13.4c-.021-.016-2.175-1.614-3.7-1.614s-3.679,1.6-3.7,1.614a.5.5,0,0,1-.785-.521c.05-.2,1.274-4.95,4.485-4.95s4.435,4.748,4.485,4.95A.5.5,0,0,1,12.276,13.417ZM12,7a1,1,0,1,1,1-1A1,1,0,0,1,12,7Z" fill="#61616b"></path></g></svg>