<svg xmlns="http://www.w3.org/2000/svg" height="48" width="48" viewBox="0 0 48 48"><title>shark 5</title><g fill="#61616b" class="nc-icon-wrapper"><path d="M24,2C13.067,2,2,16.77,2,45a1,1,0,0,0,1,1H45a1,1,0,0,0,1-1C46,16.77,34.933,2,24,2Zm9,13a2,2,0,1,1-2,2A2,2,0,0,1,33,15ZM15,15a2,2,0,1,1-2,2A2,2,0,0,1,15,15ZM38.549,37.836a1,1,0,0,1-1.2-.076C37.282,37.7,30.539,32,24,32s-13.282,5.7-13.349,5.759a1,1,0,0,1-1.607-1.053C9.216,36.146,13.383,23,24,23S38.783,36.146,38.956,36.706A1,1,0,0,1,38.549,37.836Z" fill="#61616b"></path></g></svg>