<svg xmlns="http://www.w3.org/2000/svg" height="24" width="24" viewBox="0 0 24 24"><title>shark 2</title><g fill="#61616b" class="nc-icon-wrapper"><path data-color="color-2" d="M23,22h0a5.943,5.943,0,0,1-4.71-2.3,1.035,1.035,0,0,0-1.576,0A6,6,0,0,1,12.117,22h-.21q-.315-.006-.631-.044A5.945,5.945,0,0,1,7.288,19.7a1.037,1.037,0,0,0-1.576,0A5.943,5.943,0,0,1,1,22H1a1,1,0,0,0,0,2H23a1,1,0,0,0,0-2Z" fill="#61616b"></path><path d="M4.105,16.447A1,1,0,0,0,5,17H19a1,1,0,0,0,1-1A15.017,15.017,0,0,0,5,1a1,1,0,0,0-.958,1.287C4.835,4.936,6.409,12.455,4.2,15.4A1,1,0,0,0,4.105,16.447Z" fill="#61616b"></path></g></svg>