<svg xmlns="http://www.w3.org/2000/svg" height="32" width="32" viewBox="0 0 32 32"><title>shark 2 5</title><g fill="#61616b" class="nc-icon-wrapper"><path d="M6.122,20.521A28.024,28.024,0,0,1,3.586,24.49a6.611,6.611,0,0,0,2.6-1.9,3.4,3.4,0,0,1,.286-.3,3.035,3.035,0,0,1,4.3.242,7.106,7.106,0,0,0,.868.874,6.784,6.784,0,0,0,9.559-.831,3.54,3.54,0,0,1,.278-.285,3.035,3.035,0,0,1,4.3.242l.013.015c.076-.461.149-.933.211-1.425A1.066,1.066,0,0,0,26,21V20A19.021,19.021,0,0,0,7,1a1,1,0,0,0-.935,1.357C6.106,2.462,10.06,13.022,6.122,20.521Z" fill="#61616b"></path><path data-color="color-2" d="M31,27a8.657,8.657,0,0,1-6.727-3.135,1.034,1.034,0,0,0-1.46-.086h0a1.163,1.163,0,0,0-.086.086,8.785,8.785,0,0,1-13.454,0,1.034,1.034,0,0,0-1.46-.086h0a1.163,1.163,0,0,0-.086.086A8.657,8.657,0,0,1,1,27H0v3a1,1,0,0,0,1,1H31a1,1,0,0,0,1-1V27Z" fill="#61616b"></path></g></svg>