<svg xmlns="http://www.w3.org/2000/svg" height="64" width="64" viewBox="0 0 64 64"><title>shark 4</title><g fill="#61616b" class="nc-icon-wrapper"><path d="M32,3C17.589,3,3,22.579,3,60a1,1,0,0,0,1,1H60a1,1,0,0,0,1-1C61,22.579,46.411,3,32,3ZM43.5,20A2.5,2.5,0,1,1,41,22.5,2.5,2.5,0,0,1,43.5,20Zm-23,0A2.5,2.5,0,1,1,18,22.5,2.5,2.5,0,0,1,20.5,20ZM52.576,50.817a1,1,0,0,1-1.2-.036C51.278,50.7,41.523,43,32,43c-9.539,0-19.278,7.7-19.375,7.781a1,1,0,0,1-1.571-1.106,39.083,39.083,0,0,1,4.959-9.263C20.492,34.254,26.021,31,32,31s11.508,3.254,15.987,9.412a39.083,39.083,0,0,1,4.959,9.263A1,1,0,0,1,52.576,50.817Z" fill="#61616b"></path><path data-color="color-2" d="M21,41l2.238,1.679a31.353,31.353,0,0,1,3.591-1.061L29,38l2.268,3.024c.244-.009.488-.024.732-.024s.488.015.732.024L35,38l2.173,3.622a31.452,31.452,0,0,1,3.581,1.062L43,41l.725,2.9a48.431,48.431,0,0,1,5.98,3.274,37.544,37.544,0,0,0-3.335-5.584,24.675,24.675,0,0,0-5.253-5.411L39,39l-1.648-4.945a14.632,14.632,0,0,0-2.624-.783L32,36l-2.728-2.728a14.632,14.632,0,0,0-2.624.783L25,39l-2.117-2.823a24.675,24.675,0,0,0-5.253,5.411,37.531,37.531,0,0,0-3.33,5.574,47.727,47.727,0,0,1,5.978-3.275Z" fill="#61616b"></path></g></svg>