<svg xmlns="http://www.w3.org/2000/svg" height="64" width="64" viewBox="0 0 64 64"><title>shark 2 3</title><g fill="#61616b" class="nc-icon-wrapper"><path d="M17,25a47,47,0,0,1-4.053,19.127,3.987,3.987,0,0,1,1.709.879,11.4,11.4,0,0,0,7.573,3.1,9.805,9.805,0,0,0,6.968-2.96,4,4,0,0,1,5.607,0,9.808,9.808,0,0,0,6.97,2.961,11.4,11.4,0,0,0,7.572-3.1,3.982,3.982,0,0,1,1.472-.814C50.923,43.114,51,42.048,51,41A37.042,37.042,0,0,0,14,4l-.323.008a1,1,0,0,0-.9,1.412A47.129,47.129,0,0,1,17,25Z" fill="#61616b"></path><path data-color="color-2" d="M62.707,51.292A1,1,0,0,0,62,51h0a15.382,15.382,0,0,1-9.311-3.725,1,1,0,0,0-1.352-.023C45.558,52.379,37.9,52.4,32.7,47.287a1,1,0,0,0-1.4,0c-5.193,5.109-12.855,5.093-18.635-.035a1,1,0,0,0-1.352.023A15.381,15.381,0,0,1,2,51H2a1,1,0,0,0-1,1v6a1,1,0,0,0,1,1H62a1,1,0,0,0,1-1V52A1,1,0,0,0,62.707,51.292Z" fill="#61616b"></path></g></svg>