<svg xmlns="http://www.w3.org/2000/svg" height="32" width="32" viewBox="0 0 32 32"><title>shark 6</title><g fill="#61616b" class="nc-icon-wrapper"><path d="M16,2C9.12,2,1.274,10.694,1.007,29.979A1.011,1.011,0,0,0,2.013,31H29.987a1.011,1.011,0,0,0,1.006-1.021C30.726,10.694,22.88,2,16,2ZM8.5,10A1.5,1.5,0,1,1,7,11.5,1.5,1.5,0,0,1,8.5,10ZM16,22c-5,0-10,5-10,5,.025-.1,4-11,10-11s9.975,10.9,10,11C25.949,26.962,21,22,16,22Zm7.5-9A1.5,1.5,0,1,1,25,11.5,1.5,1.5,0,0,1,23.5,13Z" fill="#61616b"></path></g></svg>