<svg xmlns="http://www.w3.org/2000/svg" height="48" width="48" viewBox="0 0 48 48"><title>shark 2 4</title><g fill="#61616b" class="nc-icon-wrapper"><path data-color="color-2" d="M46,39a8.953,8.953,0,0,1-6.3-2.577,1,1,0,0,0-1.4,0q-.184.181-.379.352a8.979,8.979,0,0,1-12.669-.836.944.944,0,0,0-.1-.1.994.994,0,0,0-1.4.1,8.784,8.784,0,0,1-.841.841,8.971,8.971,0,0,1-12.659-.841.944.944,0,0,0-.1-.1.994.994,0,0,0-1.4.1A9.008,9.008,0,0,1,2,39H1v5a1,1,0,0,0,1,1H46a1,1,0,0,0,1-1V39Z" fill="#61616b"></path><path d="M12,18A32.987,32.987,0,0,1,7.787,34.145a2.978,2.978,0,0,1,3.671.179,3.094,3.094,0,0,1,.3.3,6.972,6.972,0,0,0,9.838.654,6.9,6.9,0,0,0,.651-.651,2.994,2.994,0,0,1,4.213-.3,3.094,3.094,0,0,1,.3.3,6.981,6.981,0,0,0,9.848.65c.1-.088.2-.178.291-.271a2.979,2.979,0,0,1,2.014-.854C38.963,33.437,39,32.723,39,32A29.033,29.033,0,0,0,10,3H9.982a1,1,0,0,0-.911,1.413A32.724,32.724,0,0,1,12,18Z" fill="#61616b"></path></g></svg>