<svg xmlns="http://www.w3.org/2000/svg" height="24" width="24" viewBox="0 0 24 24"><title>sheep</title><g fill="#61616b" class="nc-icon-wrapper"><path d="M19,4c-.697,0-1.387,.133-2.037,.368,.011-.123,.037-.242,.037-.368,0-2.206-1.794-4-4-4-.986,0-1.924,.366-2.653,1.022-1.791-.226-3.347,1.209-3.347,2.978,0,.126,.025,.246,.04,.369-.651-.235-1.342-.369-2.04-.369H1c-.552,0-1,.448-1,1H0c0,2.555,1.644,4.8,4,5.64v5.36c0,4.072,3.06,7.436,7,7.931v-4.264l-1.4-1.867c-.247-.33-.012-.8,.4-.8h4c.412,0,.647,.47,.4,.8l-1.4,1.867v4.264c3.94-.495,7-3.859,7-7.931v-5.36c2.356-.84,4-3.085,4-5.64h0c0-.552-.448-1-1-1h-4ZM8.5,14c-.828,0-1.5-.672-1.5-1.5s.672-1.5,1.5-1.5,1.5,.672,1.5,1.5-.672,1.5-1.5,1.5ZM13,6c-.596,0-1.16-.274-1.547-.753l-.447-.553-.669,.241c-.124,.044-.234,.066-.337,.066-.551,0-1-.449-1-1s.449-1,1-1c.103,0,.213,.021,.337,.066l.669,.241,.447-.553c.387-.479,.951-.753,1.547-.753,1.103,0,2,.897,2,2s-.897,2-2,2Zm2.5,8c-.828,0-1.5-.672-1.5-1.5s.672-1.5,1.5-1.5,1.5,.672,1.5,1.5-.672,1.5-1.5,1.5Z" fill="#61616b"></path></g></svg>