<svg xmlns="http://www.w3.org/2000/svg" height="64" width="64" viewBox="0 0 64 64"><title>sheep 2</title><g fill="#61616b" class="nc-icon-wrapper"><path d="M36,1c-2.531,0-4.886,1.049-6.59,2.907-1.047-.596-2.21-.907-3.41-.907-3.86,0-7,3.14-7,7s3.14,7,7,7c1.2,0,2.363-.311,3.41-.907,1.704,1.858,4.059,2.907,6.59,2.907,4.962,0,9-4.038,9-9S40.962,1,36,1Z" fill="#61616b" data-color="color-2"></path><path d="M62,11h-15.051c-.508,5.598-5.221,10-10.949,10-2.599,0-5.033-.889-6.991-2.528-.964,.348-1.984,.528-3.009,.528-4.624,0-8.441-3.507-8.941-8H2c-.552,0-1,.448-1,1,0,6.078,4.159,11.253,10,12.628v17.372c0,11.242,8.886,20.422,20,20.949v-9.341c-.519-.184-.988-.493-1.343-.937l-3.838-4.798c-.727-.909-.866-2.125-.362-3.174,.504-1.049,1.541-1.7,2.704-1.7h7.678c1.164,0,2.2,.651,2.704,1.7,.504,1.049,.365,2.265-.362,3.174l-3.839,4.799c-.354,.443-.824,.752-1.342,.936v9.34c11.114-.527,20-9.708,20-20.949V24.628c5.841-1.375,10-6.55,10-12.628,0-.552-.448-1-1-1ZM21.5,36c-1.379,0-2.5-1.122-2.5-2.5s1.121-2.5,2.5-2.5,2.5,1.122,2.5,2.5-1.121,2.5-2.5,2.5Zm21,0c-1.379,0-2.5-1.122-2.5-2.5s1.121-2.5,2.5-2.5,2.5,1.122,2.5,2.5-1.121,2.5-2.5,2.5Z" fill="#61616b"></path></g></svg>