<svg xmlns="http://www.w3.org/2000/svg" height="32" width="32" viewBox="0 0 32 32"><title>sheep 4</title><g fill="#61616b" class="nc-icon-wrapper"><path d="M24.911,7c-.566-.555-1.233-1.015-1.976-1.356,.028-.213,.065-.423,.065-.644,0-2.757-2.243-5-5-5-1.279,0-2.477,.481-3.395,1.343-.504-.226-1.048-.343-1.605-.343-2.206,0-4,1.794-4,4,0,.223,.031,.438,.066,.651-.73,.339-1.391,.795-1.954,1.349H1c-.552,0-1,.448-1,1H0c0,2.757,2.243,5,5,5v8c0,5.728,4.402,10.442,10,10.949v-6.199l-1.7-2.125c-.524-.655-.058-1.625,.781-1.625h3.839c.839,0,1.305,.97,.781,1.625l-1.7,2.125v6.199c5.598-.508,10-5.221,10-10.949V13c2.757,0,5-2.243,5-5h0c0-.552-.448-1-1-1h-6.089Zm-13.911,12c-1.105,0-2-.895-2-2s.895-2,2-2,2,.895,2,2-.895,2-2,2Zm7-11c-.945,0-1.818-.443-2.395-1.215-.159-.214-.397-.355-.662-.392-.046-.006-.093-.01-.14-.01-.217,0-.43,.071-.604,.203-.357,.271-.772,.414-1.2,.414-1.103,0-2-.897-2-2s.897-2,2-2c.428,0,.843,.143,1.2,.414,.212,.161,.481,.229,.744,.193,.264-.037,.502-.178,.662-.392,.577-.772,1.449-1.215,2.395-1.215,1.654,0,3,1.346,3,3s-1.346,3-3,3Zm3,11c-1.105,0-2-.895-2-2s.895-2,2-2,2,.895,2,2-.895,2-2,2Z" fill="#61616b"></path></g></svg>