<svg xmlns="http://www.w3.org/2000/svg" height="48" width="48" viewBox="0 0 48 48"><title>sheep 3</title><g fill="#61616b" class="nc-icon-wrapper"><path d="M26,1c-1.887,0-3.549,.888-4.649,2.25-.424-.153-.874-.25-1.351-.25-2.209,0-4,1.791-4,4s1.791,4,4,4c.476,0,.927-.097,1.351-.25,1.1,1.362,2.763,2.25,4.649,2.25,3.314,0,6-2.686,6-6s-2.686-6-6-6Z" fill="#61616b" data-color="color-2"></path><path d="M46,9h-12.263c-.892,3.445-4.017,6-7.737,6-1.972,0-3.847-.733-5.306-2.044-.233,.029-.464,.044-.694,.044-2.607,0-4.824-1.673-5.65-4H2c-.552,0-1,.448-1,1,0,4.924,3.32,9.244,8,10.576v10.424c0,7.934,6.195,14.431,14,14.949v-6.34c-.071-.064-.14-.13-.2-.209l-3-4c-.742-.989-.036-2.4,1.2-2.4h6c1.236,0,1.942,1.411,1.2,2.4l-3,4c-.06,.08-.129,.146-.2,.209v6.34c7.805-.518,14-7.015,14-14.949v-10.424c4.68-1.332,8-5.652,8-10.576,0-.552-.448-1-1-1ZM17,27c-1.103,0-2-.897-2-2s.897-2,2-2,2,.897,2,2-.897,2-2,2Zm14,0c-1.103,0-2-.897-2-2s.897-2,2-2,2,.897,2,2-.897,2-2,2Z" fill="#61616b"></path></g></svg>