<svg xmlns="http://www.w3.org/2000/svg" height="32" width="32" viewBox="0 0 32 32"><title>shell 4</title><g fill="#61616b" class="nc-icon-wrapper"><path d="M27.2,7.7a4.892,4.892,0,0,0-4.8-4.978,4.615,4.615,0,0,0-2.353.664,4.687,4.687,0,0,0-8.094,0A4.615,4.615,0,0,0,9.6,2.726,4.892,4.892,0,0,0,4.8,7.7,4.891,4.891,0,0,0,0,12.681a5.042,5.042,0,0,0,1.237,3.308l3.2,3.792,1.341,8.467A2,2,0,0,0,7.766,30h2.672L6.705,22.462,12.229,29a4.648,4.648,0,0,0,7.542,0l5.524-6.54L21.562,30h2.672a2,2,0,0,0,1.985-1.752l1.341-8.467,3.2-3.792A5.042,5.042,0,0,0,32,12.681,4.891,4.891,0,0,0,27.2,7.7Z" fill="#61616b"></path></g></svg>