<svg xmlns="http://www.w3.org/2000/svg" height="48" width="48" viewBox="0 0 48 48"><title>shell 3</title><g fill="#61616b" class="nc-icon-wrapper"><path d="M31.378,43h3.091a5.008,5.008,0,0,0,4.961-4.38l.716-5.731Z" fill="#61616b" data-color="color-2"></path> <path d="M7.854,32.889,8.57,38.62A5.008,5.008,0,0,0,13.531,43h3.091Z" fill="#61616b" data-color="color-2"></path> <path d="M42.921,13a1.965,1.965,0,0,0-2.52.938L32.889,28.459a1,1,0,1,1-1.778-.918l8.365-16.17a2.01,2.01,0,0,0,.077-1.691A6.893,6.893,0,0,0,33.2,5.414a6.032,6.032,0,0,0-.789.052A1.987,1.987,0,0,0,30.726,7.15l-2.738,18A1,1,0,0,1,27,26a.961.961,0,0,1-.151-.012,1,1,0,0,1-.838-1.138L28.826,6.344a1.948,1.948,0,0,0-.7-1.844,6.74,6.74,0,0,0-8.248,0,1.948,1.948,0,0,0-.7,1.844L21.988,24.85a1,1,0,0,1-.838,1.138A.961.961,0,0,1,21,26a1,1,0,0,1-.987-.85l-2.738-18a1.987,1.987,0,0,0-1.685-1.684,6.032,6.032,0,0,0-.789-.052A6.893,6.893,0,0,0,8.447,9.68a2.01,2.01,0,0,0,.077,1.691l8.365,16.17a1,1,0,0,1-1.778.918L7.6,13.938A1.965,1.965,0,0,0,5.079,13a6.963,6.963,0,0,0-2.3,10.985l15.8,18.22a6.784,6.784,0,0,0,10.84,0l15.8-18.22A6.963,6.963,0,0,0,42.921,13Z" fill="#61616b"></path></g></svg>