<svg xmlns="http://www.w3.org/2000/svg" height="64" width="64" viewBox="0 0 64 64"><title>shell 2</title><g fill="#61616b" class="nc-icon-wrapper"><path d="M42.086,57h4.383a5.008,5.008,0,0,0,4.961-4.38l.98-7.843Z" fill="#61616b" data-color="color-2"></path> <path d="M11.59,44.778l.98,7.842A5.008,5.008,0,0,0,17.531,57h4.383Z" fill="#61616b" data-color="color-2"></path> <path d="M57.543,16.79A2.974,2.974,0,0,0,53.651,18.2l-11.6,23.244a1,1,0,0,1-.9.554.988.988,0,0,1-.445-.1,1,1,0,0,1-.448-1.341L53.008,15.012a2.956,2.956,0,0,0,.181-2.245A9.336,9.336,0,0,0,44.4,6.281a8.45,8.45,0,0,0-1.2.086A3.024,3.024,0,0,0,40.626,8.9L36.075,39.148a1,1,0,0,1-.988.852,1.067,1.067,0,0,1-.149-.011,1,1,0,0,1-.841-1.137l4.658-30.96A3.033,3.033,0,0,0,37.65,5.084a8.922,8.922,0,0,0-11.3,0,3.033,3.033,0,0,0-1.105,2.808L29.9,38.852a1,1,0,0,1-.841,1.137,1.067,1.067,0,0,1-.149.011,1,1,0,0,1-.988-.852L23.374,8.9A3.024,3.024,0,0,0,20.8,6.367a8.45,8.45,0,0,0-1.2-.086,9.336,9.336,0,0,0-8.789,6.486,2.956,2.956,0,0,0,.181,2.245L23.733,40.554a1,1,0,0,1-.448,1.341.988.988,0,0,1-.445.1,1,1,0,0,1-.9-.554L10.349,18.2A2.974,2.974,0,0,0,6.457,16.79,9.663,9.663,0,0,0,1,25.57a9.772,9.772,0,0,0,2.4,6.409l21.3,25.212a9,9,0,0,0,14.612,0L60.6,31.979A9.772,9.772,0,0,0,63,25.57,9.663,9.663,0,0,0,57.543,16.79Z" fill="#61616b"></path></g></svg>