<svg xmlns="http://www.w3.org/2000/svg" height="24" width="24" viewBox="0 0 24 24"><title>shell 5</title><g fill="#61616b" class="nc-icon-wrapper"><path d="M24,9.556a3.634,3.634,0,0,0-3.6-3.667,3.634,3.634,0,0,0-3.6-3.667,3.511,3.511,0,0,0-1.764.489,3.549,3.549,0,0,0-6.072,0A3.511,3.511,0,0,0,7.2,2.222,3.634,3.634,0,0,0,3.6,5.889,3.634,3.634,0,0,0,0,9.556a3.675,3.675,0,0,0,.928,2.436L5.15,16.9l.571,3.428A2,2,0,0,0,7.694,22H9.575a3.44,3.44,0,0,0,4.85,0h1.881a2,2,0,0,0,1.973-1.671L18.85,16.9l4.222-4.909A3.675,3.675,0,0,0,24,9.556Z" fill="#61616b"></path></g></svg>