<svg xmlns="http://www.w3.org/2000/svg" height="32" width="32" viewBox="0 0 32 32"><title>shovel 5</title><g fill="#61616b" class="nc-icon-wrapper"><path data-color="color-2" fill="#61616b" d="M15,7.899V15h2V7.899C19.279,7.434,21,5.414,21,3V1c0-0.552-0.448-1-1-1h-8 c-0.552,0-1,0.448-1,1v2C11,5.414,12.721,7.434,15,7.899z M13,2h6v1c0,1.654-1.346,3-3,3s-3-1.346-3-3V2z"></path> <path fill="#61616b" d="M25,17H7c-0.552,0-1,0.448-1,1v6c0,4.411,3.589,8,8,8h4c4.411,0,8-3.589,8-8v-6C26,17.448,25.552,17,25,17z"></path></g></svg>