<svg xmlns="http://www.w3.org/2000/svg" height="64" width="64" viewBox="0 0 64 64"><title>shovel 3</title><g fill="#61616b" class="nc-icon-wrapper"><path data-color="color-2" fill="#61616b" d="M30,13.768V29h4V13.768c4.002-0.913,7-4.494,7-8.768V2c0-0.552-0.448-1-1-1H24 c-0.552,0-1,0.448-1,1v3C23,9.274,25.998,12.855,30,13.768z M25,3h14v2c0,3.86-3.14,7-7,7s-7-3.14-7-7V3z"></path> <path fill="#61616b" d="M49,31H15c-0.552,0-1,0.448-1,1v18c0,7.168,5.832,13,13,13h10c7.168,0,13-5.832,13-13V32 C50,31.448,49.552,31,49,31z"></path></g></svg>