<svg xmlns="http://www.w3.org/2000/svg" height="48" width="48" viewBox="0 0 48 48"><title>shovel 4</title><g fill="#61616b" class="nc-icon-wrapper"><path fill="#61616b" d="M37,23H11c-0.552,0-1,0.448-1,1v14c0,4.962,4.038,9,9,9h10c4.962,0,9-4.038,9-9V24 C38,23.448,37.552,23,37,23z"></path> <path data-color="color-2" fill="#61616b" d="M23,10.92V21h2V10.92c3.387-0.488,6-3.401,6-6.92V2c0-0.552-0.448-1-1-1H18 c-0.552,0-1,0.448-1,1v2C17,7.519,19.613,10.432,23,10.92z M19,3h10v1c0,2.757-2.243,5-5,5s-5-2.243-5-5V3z"></path></g></svg>