<svg xmlns="http://www.w3.org/2000/svg" height="64" width="64" viewBox="0 0 64 64"><title>shrimp 2</title><g fill="#61616b" class="nc-icon-wrapper"><path data-color="color-2" d="M54.462,45.113a.993.993,0,0,0-1.035.068L36.425,56H35c-5.359,0-8.951-2.934-10.345-7H5.229A24.008,24.008,0,0,0,26,61H54a1,1,0,0,0,1-1V46A1,1,0,0,0,54.462,45.113Z" fill="#61616b"></path> <path data-color="color-2" d="M8.307,20.8l17.916,17.86A8.955,8.955,0,0,1,32,35.073V13H26A23.943,23.943,0,0,0,8.307,20.8Z" fill="#61616b"></path> <path d="M24.161,47A12.9,12.9,0,0,1,24,45a10.313,10.313,0,0,1,1.133-4.6L7.017,22.341A23.921,23.921,0,0,0,4.191,47Z" fill="#61616b"></path> <path d="M52.818,3H25a1,1,0,0,0,0,2H52.818A7.19,7.19,0,0,1,60,12.182V13H34V35h7A21.024,21.024,0,0,0,62,14V12.182A9.192,9.192,0,0,0,52.818,3ZM42.5,25A2.5,2.5,0,1,1,45,22.5,2.5,2.5,0,0,1,42.5,25Z" fill="#61616b"></path></g></svg>