<svg xmlns="http://www.w3.org/2000/svg" height="48" width="48" viewBox="0 0 48 48"><title>shrimp 3</title><g fill="#61616b" class="nc-icon-wrapper"><path fill="#61616b" d="M17,31.5c0-0.743,0.132-1.455,0.362-2.12L3.542,19.742C2.557,21.964,2,24.417,2,27 c0,3.955,1.298,7.605,3.469,10.579l11.703-4.551C17.07,32.543,17,32.04,17,31.5z"></path> <path data-color="color-2" fill="#61616b" d="M20,9c-6.624,0-12.408,3.606-15.533,8.949l13.844,9.654c0.691-0.918,1.615-1.652,2.69-2.101 V9H20z"></path> <path data-color="color-2" fill="#61616b" d="M42.547,33.163c-0.282-0.185-0.639-0.214-0.948-0.079l-15.782,6.905 c-2.011-0.089-6.186-1.69-7.971-5.079L6.807,39.203C10.097,42.758,14.786,45,20,45h22c0.552,0,1-0.447,1-1V34 C43,33.662,42.83,33.348,42.547,33.163z"></path> <path fill="#61616b" d="M38,1H16c-0.552,0-1,0.447-1,1s0.448,1,1,1h22c3.309,0,6,2.691,6,6H23v16.025 C23.166,25.013,23.331,25,23.5,25H31c3.892,0,15-2.756,15-15V9C46,4.589,42.411,1,38,1z M30.5,17c-0.828,0-1.5-0.672-1.5-1.5 s0.672-1.5,1.5-1.5s1.5,0.672,1.5,1.5S31.328,17,30.5,17z"></path></g></svg>