<svg xmlns="http://www.w3.org/2000/svg" height="32" width="32" viewBox="0 0 32 32"><title>shrimp 4</title><g fill="#61616b" class="nc-icon-wrapper"><path fill="#61616b" d="M11.056,22c0.126-1.223,0.496-2.212,1.121-2.977l-9.12-9.1c-1.864,2.339-3.007,5.337-3.054,8.601 C-0.016,19.709,0.144,20.874,0.446,22H11.056z"></path> <path data-color="color-2" fill="#61616b" d="M13,5C9.724,5,6.722,6.317,4.425,8.462l9.342,9.321c0.631-0.307,1.377-0.519,2.233-0.644V5H13 z"></path> <path data-color="color-2" fill="#61616b" d="M28.462,23.113c-0.332-0.174-0.731-0.147-1.035,0.067l-9.586,6.71 c-2.472-0.878-6.042-2.904-6.718-5.891H1.17c0.64,1.4,1.522,2.707,2.653,3.854C6.42,30.489,10.006,32,13.661,32H28 c0.552,0,1-0.447,1-1v-7C29,23.627,28.792,23.285,28.462,23.113z"></path> <path fill="#61616b" d="M26.909,0H13c-0.552,0-1,0.447-1,1s0.448,1,1,1h13.909c1.673,0,3.032,1.339,3.082,3H18v12h3 c6.065,0,11-4.935,11-11V5.091C32,2.284,29.716,0,26.909,0z M22.5,11c-0.828,0-1.5-0.672-1.5-1.5S21.672,8,22.5,8S24,8.672,24,9.5 S23.328,11,22.5,11z"></path></g></svg>