<svg xmlns="http://www.w3.org/2000/svg" height="32" width="32" viewBox="0 0 32 32"><title>sloth 4</title><g fill="#61616b" class="nc-icon-wrapper"><path d="M16,0A14.015,14.015,0,0,0,2,14V31a1,1,0,0,0,1,1H29a1,1,0,0,0,1-1V14A14.015,14.015,0,0,0,16,0ZM7,13.5a3.5,3.5,0,0,1,7,0v1H12v-1a1.5,1.5,0,0,0-3,0v1H7ZM23,24a4,4,0,0,1-7,2.643A4,4,0,0,1,9,24V23h2v1a2,2,0,0,0,4,0V21.816a3,3,0,1,1,2,0V24a2,2,0,0,0,4,0V23h2Zm2-9.5H23v-1a1.5,1.5,0,0,0-3,0v1H18v-1a3.5,3.5,0,0,1,7,0Z" fill="#61616b"></path></g></svg>