<svg xmlns="http://www.w3.org/2000/svg" height="64" width="64" viewBox="0 0 64 64"><title>sloth 2</title><g fill="#61616b" class="nc-icon-wrapper"><path d="M32,1A25.028,25.028,0,0,0,7,26V62a1,1,0,0,0,1,1H56a1,1,0,0,0,1-1V26A25.028,25.028,0,0,0,32,1ZM18,29a1,1,0,0,1-1-1,5,5,0,0,1,10,0,1,1,0,0,1-2,0,3,3,0,0,0-6,0A1,1,0,0,1,18,29ZM38,53a7,7,0,0,1-6-3.4A7,7,0,0,1,19,46a1,1,0,0,1,2,0,5,5,0,0,0,10,0V42.9a5,5,0,1,1,2,0V46a5,5,0,0,0,10,0,1,1,0,0,1,2,0A7.008,7.008,0,0,1,38,53Zm8-24a1,1,0,0,1-1-1,3,3,0,0,0-6,0,1,1,0,0,1-2,0,5,5,0,0,1,10,0A1,1,0,0,1,46,29Z" fill="#61616b"></path></g></svg>