<svg xmlns="http://www.w3.org/2000/svg" height="48" width="48" viewBox="0 0 48 48"><title>sloth 3</title><g fill="#61616b" class="nc-icon-wrapper"><path d="M24,1A21.024,21.024,0,0,0,3,22V46a1,1,0,0,0,1,1H44a1,1,0,0,0,1-1V22A21.024,21.024,0,0,0,24,1ZM13,20a1,1,0,0,1-2,0,5,5,0,0,1,10,0,1,1,0,0,1-2,0,3,3,0,0,0-6,0ZM28,40a5,5,0,0,1-4-2,5,5,0,0,1-9-3,1,1,0,0,1,2,0,3,3,0,0,0,6,0V31.859a4,4,0,1,1,2,0V35a3,3,0,0,0,6,0,1,1,0,0,1,2,0A5.006,5.006,0,0,1,28,40Zm8-19a1,1,0,0,1-1-1,3,3,0,0,0-6,0,1,1,0,0,1-2,0,5,5,0,0,1,10,0A1,1,0,0,1,36,21Z" fill="#61616b"></path></g></svg>