<svg xmlns="http://www.w3.org/2000/svg" height="64" width="64" viewBox="0 0 64 64"><title>teddy bear 2</title><g fill="#61616b" class="nc-icon-wrapper"><path d="M56,45A13.02,13.02,0,0,0,45.529,32.251a16.84,16.84,0,0,0,1.757-17.642A7,7,0,1,0,38.243,6.2a16.8,16.8,0,0,0-12.486,0,7,7,0,1,0-9.043,8.406,16.84,16.84,0,0,0,1.757,17.642A13.02,13.02,0,0,0,8,45a6.009,6.009,0,0,0,4.243,5.736A7.989,7.989,0,0,0,25.467,59.69a16.945,16.945,0,0,0,13.066,0,7.989,7.989,0,0,0,13.224-8.954A6.009,6.009,0,0,0,56,45ZM45,5a3,3,0,0,1,0,6c-.023,0-.045-.006-.068-.007a17.111,17.111,0,0,0-2.9-2.687A2.806,2.806,0,0,1,42,8,3,3,0,0,1,45,5ZM38.5,15A2.5,2.5,0,1,1,36,17.5,2.5,2.5,0,0,1,38.5,15ZM29,29a2,2,0,0,0,2-2,.956.956,0,0,1,.043-.214A3.38,3.38,0,0,1,29,24c0-.912.521-2,3-2s3,1.088,3,2a3.38,3.38,0,0,1-2.043,2.786A.956.956,0,0,1,33,27a2,2,0,0,0,2,2,1,1,0,0,1,0,2,3.99,3.99,0,0,1-3-1.357A3.99,3.99,0,0,1,29,31a1,1,0,0,1,0-2ZM25.5,15A2.5,2.5,0,1,1,23,17.5,2.5,2.5,0,0,1,25.5,15ZM16,8a3,3,0,0,1,6,0,2.806,2.806,0,0,1-.031.306,17.111,17.111,0,0,0-2.9,2.687c-.023,0-.045.007-.068.007A3,3,0,0,1,16,8Zm3,51a4,4,0,1,1,4-4A4,4,0,0,1,19,59Zm18.11-5.268a10.931,10.931,0,0,1-10.22,0,8.016,8.016,0,0,0-5.337-6.307,10.925,10.925,0,0,1,2.136-10.61,16.9,16.9,0,0,0,16.622,0,10.925,10.925,0,0,1,2.136,10.61A8.016,8.016,0,0,0,37.11,53.732ZM45,59a4,4,0,1,1,4-4A4,4,0,0,1,45,59Z" fill="#61616b"></path></g></svg>