<svg xmlns="http://www.w3.org/2000/svg" height="48" width="48" viewBox="0 0 48 48"><title>teddy bear 3</title><g fill="#61616b" class="nc-icon-wrapper"><path d="M43,34a10.917,10.917,0,0,0-8.323-10.6,12.906,12.906,0,0,0,1.154-12.754,4.994,4.994,0,1,0-6.474-6.474,12.859,12.859,0,0,0-10.714,0,4.994,4.994,0,1,0-6.474,6.474A12.906,12.906,0,0,0,13.323,23.4,10.917,10.917,0,0,0,5,34a4.991,4.991,0,0,0,4.373,4.937,5.995,5.995,0,0,0,10.6,5.419,12.925,12.925,0,0,0,8.058,0,5.993,5.993,0,0,0,10.6-5.419A4.991,4.991,0,0,0,43,34ZM34,4a1.995,1.995,0,0,1,.21,3.979A13.1,13.1,0,0,0,32.021,5.79,1.993,1.993,0,0,1,34,4Zm-5,7a2,2,0,1,1-2,2A2,2,0,0,1,29,11ZM22,21a.987.987,0,0,0,.966-.832l-.861-1.721A1,1,0,0,1,23,17h2a1,1,0,0,1,.895,1.447l-.861,1.721A.987.987,0,0,0,26,21a1,1,0,0,1,0,2,2.981,2.981,0,0,1-2-.78A2.981,2.981,0,0,1,22,23a1,1,0,0,1,0-2ZM19,11a2,2,0,1,1-2,2A2,2,0,0,1,19,11ZM12,6a1.995,1.995,0,0,1,3.979-.21A13.1,13.1,0,0,0,13.79,7.979,1.993,1.993,0,0,1,12,6Zm3,38a3,3,0,1,1,3-3A3,3,0,0,1,15,44Zm12.027-3.533a8.862,8.862,0,0,1-6.054,0,6,6,0,0,0-5.44-5.44A8.923,8.923,0,0,1,16.7,26.75a12.967,12.967,0,0,0,14.6,0,8.923,8.923,0,0,1,1.167,8.277A6,6,0,0,0,27.027,40.467ZM33,44a3,3,0,1,1,3-3A3,3,0,0,1,33,44Z" fill="#61616b"></path></g></svg>