<svg xmlns="http://www.w3.org/2000/svg" height="24" width="24" viewBox="0 0 24 24"><title>teddy bear</title><g fill="#61616b" class="nc-icon-wrapper"><path d="M22,17a5.93,5.93,0,0,0-3.9-5.571,6.922,6.922,0,0,0,.453-5.878A2.963,2.963,0,0,0,20,3a3,3,0,0,0-3-3,2.966,2.966,0,0,0-2.551,1.451,6.875,6.875,0,0,0-4.9,0A2.966,2.966,0,0,0,7,0,3,3,0,0,0,4,3,2.963,2.963,0,0,0,5.451,5.551,6.922,6.922,0,0,0,5.9,11.429,5.93,5.93,0,0,0,2,17a2.994,2.994,0,0,0,2.067,2.837A3.483,3.483,0,0,0,7.5,24a3.478,3.478,0,0,0,2.658-1.25,6.911,6.911,0,0,0,3.684,0A3.484,3.484,0,0,0,20,20.5a3.532,3.532,0,0,0-.067-.663A2.994,2.994,0,0,0,22,17ZM17,2a1,1,0,0,1,1,1,.97.97,0,0,1-.422.789,7.025,7.025,0,0,0-1.367-1.367A.97.97,0,0,1,17,2ZM15,6a1,1,0,1,1-1,1A1,1,0,0,1,15,6ZM10.576,9.617A1,1,0,0,1,11.5,9h1a1,1,0,0,1,.707,1.707l-.5.5a1,1,0,0,1-1.414,0l-.5-.5A1,1,0,0,1,10.576,9.617ZM9,6A1,1,0,1,1,8,7,1,1,0,0,1,9,6ZM7,2a.97.97,0,0,1,.789.422A7.025,7.025,0,0,0,6.422,3.789.97.97,0,0,1,6,3,1,1,0,0,1,7,2Zm.5,20A1.5,1.5,0,1,1,9,20.5,1.5,1.5,0,0,1,7.5,22ZM13,20.5a3.583,3.583,0,0,0,.039.389,4.918,4.918,0,0,1-2.078,0A3.583,3.583,0,0,0,11,20.5,3.5,3.5,0,0,0,7.5,17a3.583,3.583,0,0,0-.389.039A5,5,0,0,1,7,16a4.9,4.9,0,0,1,.688-2.5,6.955,6.955,0,0,0,8.624,0A4.9,4.9,0,0,1,17,16a5,5,0,0,1-.111,1.039A3.583,3.583,0,0,0,16.5,17,3.5,3.5,0,0,0,13,20.5ZM16.5,22A1.5,1.5,0,1,1,18,20.5,1.5,1.5,0,0,1,16.5,22Z" fill="#61616b"></path></g></svg>