<svg xmlns="http://www.w3.org/2000/svg" height="32" width="32" viewBox="0 0 32 32"><title>teddy bear 4</title><g fill="#61616b" class="nc-icon-wrapper"><path d="M29,22.5a7,7,0,0,0-5.345-6.791,8.941,8.941,0,0,0,.653-8.165,3.985,3.985,0,1,0-5.475-5.08,8.881,8.881,0,0,0-5.666,0,3.984,3.984,0,1,0-5.475,5.08,8.941,8.941,0,0,0,.653,8.165A7,7,0,0,0,3,22.5a3.5,3.5,0,0,0,2.343,3.288A4.415,4.415,0,0,0,5,27.5a4.481,4.481,0,0,0,7.885,2.933,8.84,8.84,0,0,0,6.23,0A4.481,4.481,0,0,0,27,27.5a4.415,4.415,0,0,0-.343-1.712A3.5,3.5,0,0,0,29,22.5ZM22.5,2a1.987,1.987,0,0,1,.831,3.8,9.085,9.085,0,0,0-2.685-2.491A1.984,1.984,0,0,1,22.5,2Zm-3,5A1.5,1.5,0,1,1,18,8.5,1.5,1.5,0,0,1,19.5,7Zm-5.424,5.617A1,1,0,0,1,15,12h2a1,1,0,0,1,.707,1.707l-1,1a1,1,0,0,1-1.414,0l-1-1A1,1,0,0,1,14.076,12.617ZM12.5,7A1.5,1.5,0,1,1,11,8.5,1.5,1.5,0,0,1,12.5,7Zm-5-3a1.987,1.987,0,0,1,3.854-.694A9.085,9.085,0,0,0,8.669,5.8,1.988,1.988,0,0,1,7.5,4Zm2,26a2.491,2.491,0,0,1-1.666-4.351c.005-.005.012-.006.018-.01a2.49,2.49,0,0,1,.79-.475l.01-.006A2.465,2.465,0,0,1,9.5,25a2.5,2.5,0,0,1,0,5ZM18,27.5c0,.05.013.1.015.146a5.912,5.912,0,0,1-4.03,0c0-.05.015-.1.015-.146a4.492,4.492,0,0,0-3.9-4.439A6.076,6.076,0,0,1,10,22a5.966,5.966,0,0,1,1.1-3.459,8.948,8.948,0,0,0,9.794,0A5.966,5.966,0,0,1,22,22a6.076,6.076,0,0,1-.1,1.061A4.492,4.492,0,0,0,18,27.5ZM22.5,30a2.5,2.5,0,0,1,0-5,2.465,2.465,0,0,1,.848.158l.01.006a2.49,2.49,0,0,1,.79.475c.006,0,.013,0,.018.01A2.491,2.491,0,0,1,22.5,30Z" fill="#61616b"></path></g></svg>