<svg xmlns="http://www.w3.org/2000/svg" height="64" width="64" viewBox="0 0 64 64"><title>tree 03 3</title><g fill="#61616b" class="nc-icon-wrapper"><path data-color="color-2" fill="#61616b" d="M44,61H34v-6h-4v6H20c-0.55225,0-1,0.44775-1,1s0.44775,1,1,1h24c0.55225,0,1-0.44775,1-1 S44.55225,61,44,61z"></path> <path fill="#61616b" d="M58.87061,51.50781l-26-46c-0.35449-0.62793-1.38672-0.62793-1.74121,0l-26,46 c-0.1748,0.30957-0.17236,0.68896,0.00684,0.99609S5.64453,53,6,53h52c0.35547,0,0.68457-0.18896,0.86377-0.49609 S59.04541,51.81738,58.87061,51.50781z M40.70703,35.70703L33,43.41406V47c0,0.55225-0.44775,1-1,1s-1-0.44775-1-1v-9.58594 l-7.70703-7.70703c-0.39062-0.39062-0.39062-1.02344,0-1.41406s1.02344-0.39062,1.41406,0L31,34.58594V23c0-0.55225,0.44775-1,1-1 s1,0.44775,1,1v17.58594l6.29297-6.29297c0.39062-0.39062,1.02344-0.39062,1.41406,0S41.09766,35.31641,40.70703,35.70703z"></path></g></svg>