<svg xmlns="http://www.w3.org/2000/svg" height="16" width="16" viewBox="0 0 16 16"><title>tree 2 2</title><g fill="#61616b" class="nc-icon-wrapper"><path d="M12.588,6.882h-.424c.263-.451,.424-.969,.424-1.529,0-1.689-1.37-3.059-3.059-3.059-.013,0-.025,.004-.038,.004-.185-1.297-1.29-2.298-2.638-2.298-1.478,0-2.677,1.198-2.677,2.676,0,.26,.049,.505,.118,.743-.975,.511-1.647,1.521-1.647,2.698,0,.291,.054,.566,.129,.833-1.384,.293-2.423,1.52-2.423,2.991,0,1.689,1.369,3.059,3.059,3.059h3.588v2c0,.552,.447,1,1,1s1-.448,1-1v-2h3.588c1.689,0,3.059-1.37,3.059-3.059s-1.369-3.059-3.059-3.059Z" fill="#61616b"></path></g></svg>