<svg xmlns="http://www.w3.org/2000/svg" height="64" width="64" viewBox="0 0 64 64"><title>tree 01 3</title><g fill="#61616b" class="nc-icon-wrapper"><path data-color="color-2" fill="#61616b" d="M44,61H34v-6h-4v6H20c-0.55225,0-1,0.44775-1,1s0.44775,1,1,1h24c0.55225,0,1-0.44775,1-1 S44.55225,61,44,61z"></path> <path fill="#61616b" d="M32.66797,3.25586c-0.37793-0.33887-0.95166-0.34131-1.33252-0.00342C30.58691,3.91797,13,19.71533,13,34 c0,10.47656,8.52344,19,19,19s19-8.52344,19-19C51,19.88281,33.4165,3.92822,32.66797,3.25586z M40.70703,33.70703L33,41.41406V45 c0,0.55225-0.44775,1-1,1s-1-0.44775-1-1v-9.58594l-7.70703-7.70703c-0.39062-0.39062-0.39062-1.02344,0-1.41406 s1.02344-0.39062,1.41406,0L31,32.58594V21c0-0.55225,0.44775-1,1-1s1,0.44775,1,1v17.58594l6.29297-6.29297 c0.39062-0.39062,1.02344-0.39062,1.41406,0S41.09766,33.31641,40.70703,33.70703z"></path></g></svg>