<svg xmlns="http://www.w3.org/2000/svg" height="32" width="32" viewBox="0 0 32 32"><title>tree 03 5</title><g fill="#61616b" class="nc-icon-wrapper"><path fill="#61616b" d="M29.87061,25.50781l-13-23c-0.35449-0.62793-1.38672-0.62793-1.74121,0l-13,23 c-0.1748,0.30957-0.17236,0.68896,0.00684,0.99609S2.64453,27,3,27h12v3h-5c-0.55225,0-1,0.44775-1,1s0.44775,1,1,1h12 c0.55225,0,1-0.44775,1-1s-0.44775-1-1-1h-5v-3h12c0.35547,0,0.68457-0.18896,0.86377-0.49609S30.04541,25.81738,29.87061,25.50781z "></path></g></svg>