<svg xmlns="http://www.w3.org/2000/svg" height="32" width="32" viewBox="0 0 32 32"><title>tree 2 5</title><g fill="#61616b" class="nc-icon-wrapper"><path fill="#61616b" d="M26.74609,12.5625C26.91357,12.05957,27,11.53271,27,11c0-2.75684-2.24316-5-5-5c0-3.30859-2.69141-6-6-6 s-6,2.69141-6,6c-2.75684,0-5,2.24316-5,5c0,0.53271,0.08643,1.05957,0.25391,1.5625C2.69922,13.6416,1,16.14111,1,19 c0,3.85986,3.14014,7,7,7h7v4h-5c-0.55225,0-1,0.44775-1,1s0.44775,1,1,1h12c0.55225,0,1-0.44775,1-1s-0.44775-1-1-1h-5v-4h7 c3.85986,0,7-3.14014,7-7C31,16.14111,29.30078,13.6416,26.74609,12.5625z"></path></g></svg>