<svg xmlns="http://www.w3.org/2000/svg" height="16" width="16" viewBox="0 0 16 16"><title>turkey head</title><g fill="#61616b" class="nc-icon-wrapper"><path d="M8,0C4.14,0,1,3.141,1,7v6c0,.431,.275,.812,.684,.948l3.541,1.18h0c-.142-.349-.224-.729-.224-1.128,0-1.969,1.439-3.403,2.098-3.958l-1.855-1.113c-.163-.098-.256-.279-.241-.469s.136-.354,.313-.424l2.5-1c.119-.049,.252-.049,.371,0l2.5,1c.177,.07,.298,.234,.313,.424s-.079,.371-.241,.469l-1.855,1.113c.659,.556,2.098,1.989,2.098,3.958,0,.4-.082,.779-.224,1.128l3.541-1.18c.408-.136,.684-.518,.684-.948V7c0-3.859-3.14-7-7-7ZM4,7.125c-.621,0-1.125-.504-1.125-1.125s.504-1.125,1.125-1.125,1.125,.504,1.125,1.125-.504,1.125-1.125,1.125Zm8,0c-.621,0-1.125-.504-1.125-1.125s.504-1.125,1.125-1.125,1.125,.504,1.125,1.125-.504,1.125-1.125,1.125Z" fill="#61616b"></path><path d="M8,15.5c-.827,0-1.5-.673-1.5-1.5,0-1.281,.995-2.315,1.5-2.759,.505,.443,1.5,1.478,1.5,2.759,0,.827-.673,1.5-1.5,1.5Z" fill="#61616b" data-color="color-2"></path></g></svg>