<svg xmlns="http://www.w3.org/2000/svg" height="48" width="48" viewBox="0 0 48 48"><title>turkey head 3</title><g fill="#61616b" class="nc-icon-wrapper"><path d="M32,23h-2.195c-1.147,0-2.241-.494-3.001-1.355l-.513-.582c-.581-.68-1.412-1.062-2.291-1.062s-1.706,.379-2.27,1.039l-.539,.609c-.759,.859-1.851,1.352-2.997,1.352h-2.194c-2.757,0-5,2.253-5,5.022,.888-.669,1.924-1.022,3-1.022h3.343c1.336,0,2.592,.521,3.536,1.465l1.707,1.707c.779,.779,2.049,.779,2.828,0l1.707-1.707c.944-.944,2.2-1.465,3.536-1.465h3.343c1.076,0,2.113,.354,3,1.021v-.021c0-2.757-2.243-5-5-5Z" fill="#61616b"></path><path d="M24,12.786c2.506-4.179,7.023-6.786,12-6.786,1.997,0,3.894,.428,5.615,1.185-2.136-4.257-6.528-7.185-11.615-7.185-2.166,0-4.204,.537-6,1.474-1.796-.937-3.834-1.474-6-1.474C12.916,0,8.526,2.925,6.389,7.177c1.719-.755,3.616-1.177,5.611-1.177,4.977,0,9.494,2.607,12,6.786Z" fill="#61616b" data-color="color-2"></path><path d="M24,48c-2.757,0-5-2.243-5-5,0-4.302,4.047-9.409,4.219-9.625,.381-.475,1.182-.475,1.562,0,.172,.216,4.219,5.323,4.219,9.625,0,2.757-2.243,5-5,5Z" fill="#61616b" data-color="color-2"></path><path d="M44.225,23.757l-.364-.818c-.568-1.279-.862-2.662-.862-4.061v-5.878c0-1.029-.132-2.026-.358-2.986-1.903-1.27-4.187-2.014-6.642-2.014-4.857,0-9.205,2.898-11.077,7.384-.155,.373-.52,.615-.923,.615s-.768-.242-.923-.615c-1.872-4.485-6.22-7.384-11.077-7.384-2.455,0-4.738,.744-6.642,2.014-.226,.96-.358,1.957-.358,2.986v5.878c0,1.399-.294,2.783-.862,4.061l-.364,.818c-1.64,3.691-.624,8.02,2.49,10.592,3.19,2.635,7.289,6.021,10.747,8.878-.002-.076-.011-.15-.011-.227,0-4.885,4.178-10.272,4.654-10.871,.025-.031,.057-.052,.082-.082-.198-.136-.389-.286-.565-.461l-1.707-1.707c-.566-.566-1.32-.879-2.122-.879h-3.343c-.638,0-1.259,.214-1.795,.619l-1.603,1.21c-.303,.229-.71,.268-1.048,.098-.34-.169-.555-.516-.555-.896v-2.009c0-3.872,3.141-7.022,7-7.022h2.194c.573,0,1.119-.246,1.499-.676l.527-.597c.933-1.093,2.314-1.728,3.779-1.728s2.851,.639,3.802,1.752l.502,.57c.38,.431,.927,.678,1.501,.678h2.195c3.859,0,7,3.141,7,7v2.009c0,.378-.213,.724-.551,.894-.336,.169-.741,.135-1.045-.091l-1.603-1.188c-.543-.409-1.164-.623-1.802-.623h-3.343c-.802,0-1.556,.312-2.122,.879l-1.707,1.707c-.175,.176-.367,.325-.564,.461,.024,.028,.054,.048,.077,.076,.481,.604,4.659,5.991,4.659,10.877,0,.077-.009,.151-.011,.227,3.459-2.857,7.557-6.243,10.747-8.878,3.114-2.572,4.13-6.901,2.49-10.592ZM12,18.002c-1.103,0-2-.897-2-2s.897-2,2-2,2,.897,2,2-.897,2-2,2Zm24,0c-1.103,0-2-.897-2-2s.897-2,2-2,2,.897,2,2-.897,2-2,2Z" fill="#61616b"></path></g></svg>