<svg xmlns="http://www.w3.org/2000/svg" height="32" width="32" viewBox="0 0 32 32"><title>turkey head 4</title><g fill="#61616b" class="nc-icon-wrapper"><path d="M8.5,3c2.966,0,5.717,1.374,7.5,3.671,1.783-2.297,4.534-3.671,7.5-3.671,.279,0,.553,.018,.826,.042C21.913,1.021,18.768-.153,15.346,.016c-2.889,.142-5.491,1.267-7.561,3.02,.237-.018,.474-.036,.715-.036Z" fill="#61616b" data-color="color-2"></path><path d="M19.5,28.5c0,1.933-1.567,3.5-3.5,3.5s-3.5-1.567-3.5-3.5c0-3.5,3.5-7.5,3.5-7.5,0,0,3.5,4,3.5,7.5Z" fill="#61616b" data-color="color-2"></path><path d="M26.786,5.768c-.994-.487-2.106-.768-3.286-.768-2.773,0-5.309,1.522-6.618,3.974-.348,.65-1.416,.65-1.764,0-1.31-2.451-3.845-3.974-6.618-3.974-1.105,0-2.152,.246-3.097,.677-1.511,2.202-2.403,4.867-2.403,7.7v8.892c0,1.14,.243,1.498,.615,1.654l7.061,2.942s0,0,0,0c.184-.904,.5-1.786,.874-2.607,.004-.009,.008-.017,.011-.026,1.092-2.388,2.67-4.247,2.934-4.549l.007-.008-3.18-2.94c-.241-.223-.357-.55-.312-.875,.046-.325,.25-.607,.543-.754l4-2c.281-.141,.613-.141,.895,0l4,2c.293,.146,.497,.429,.543,.754,.046,.325-.07,.652-.312,.875l-3.18,2.94,.007,.008c.263,.301,1.841,2.161,2.934,4.549,.004,.009,.008,.017,.011,.026,.374,.822,.69,1.703,.874,2.607,0,0,0,0,0,0l7.061-2.942c.372-.155,.615-.519,.615-.923V13c0-2.677-.822-5.161-2.214-7.232ZM8.5,12c-.827,0-1.5-.673-1.5-1.5s.673-1.5,1.5-1.5,1.5,.673,1.5,1.5-.673,1.5-1.5,1.5Zm15,0c-.827,0-1.5-.673-1.5-1.5s.673-1.5,1.5-1.5,1.5,.673,1.5,1.5-.673,1.5-1.5,1.5Z" fill="#61616b"></path></g></svg>