<svg xmlns="http://www.w3.org/2000/svg" height="64" width="64" viewBox="0 0 64 64"><title>turkey head 2</title><g fill="#61616b" class="nc-icon-wrapper"><path d="M43.041,29h-2.04c-2.201,0-4.274-1.035-5.596-2.795l-.517-.688c-.588-.783-1.446-1.362-2.418-1.486-1.291-.166-2.51,.357-3.273,1.373l-.598,.797c-1.322,1.762-3.397,2.799-5.6,2.799h-2.04c-2.994,0-5.565,1.861-6.561,4.543,1.149-.36,2.341-.543,3.561-.543h3.556c1.856,0,3.637,.737,4.95,2.05l4.122,4.122c.781,.781,2.047,.781,2.828,0l4.121-4.121c1.313-1.313,3.094-2.051,4.951-2.051h3.555c1.22,0,2.411,.183,3.561,.544-.994-2.683-3.565-4.544-6.561-4.544Z" fill="#61616b"></path><path d="M17,7c6.167,0,11.862,3.285,15,8.513,3.138-5.228,8.833-8.513,15-8.513,2.125,0,4.154,.4,6.04,1.097-2.984-4.283-7.937-7.097-13.54-7.097-2.604,0-5.186,.623-7.5,1.806-2.314-1.183-4.896-1.806-7.5-1.806-5.603,0-10.556,2.814-13.54,7.097,1.886-.697,3.915-1.097,6.04-1.097Z" fill="#61616b" data-color="color-2"></path><path d="M32,63c-3.309,0-6-2.691-6-6,0-5.203,4.917-14.108,5.126-14.485,.354-.633,1.395-.633,1.748,0,.209,.377,5.126,9.282,5.126,14.485,0,3.309-2.691,6-6,6Z" fill="#61616b" data-color="color-2"></path><path d="M58.073,31.777l-1.228-2.946c-.562-1.348-.846-2.771-.846-4.231v-7.1c0-2.284-.467-4.46-1.31-6.439-2.269-1.304-4.891-2.061-7.69-2.061-6.04,0-11.571,3.561-14.091,9.071-.162,.355-.518,.584-.909,.584s-.747-.229-.909-.584c-2.52-5.511-8.051-9.071-14.091-9.071-2.8,0-5.421,.757-7.69,2.061-.842,1.98-1.31,4.156-1.31,6.439v7.1c0,1.46-.284,2.884-.846,4.231l-1.228,2.946c-1.875,4.499-.61,9.607,3.147,12.711l14.934,12.337c.095-5.627,4.824-14.302,5.369-15.283l.268-.483-4.595-4.595c-.944-.944-2.2-1.465-3.536-1.465h-3.556c-1.571,0-3.088,.364-4.508,1.083-.323,.164-.715,.141-1.017-.068-.302-.206-.466-.561-.43-.925,.464-4.611,4.313-8.09,8.954-8.09h2.04c1.565,0,3.061-.747,4-1.999l.599-.799c1.05-1.399,2.654-2.202,4.402-2.202,1.724,0,3.369,.823,4.402,2.203l.599,.797c.939,1.253,2.435,2,4,2h2.04c4.642,0,8.491,3.479,8.954,8.091,.036,.363-.128,.718-.43,.925-.301,.206-.693,.23-1.017,.067-1.42-.719-2.937-1.083-4.508-1.083h-3.556c-1.336,0-2.592,.521-3.536,1.465l-4.595,4.595,.269,.484c.544,.979,5.274,9.655,5.368,15.282l14.934-12.337c3.758-3.104,5.022-8.212,3.147-12.711ZM16.5,22c-1.379,0-2.5-1.121-2.5-2.5s1.121-2.5,2.5-2.5,2.5,1.121,2.5,2.5-1.121,2.5-2.5,2.5Zm31,0c-1.379,0-2.5-1.121-2.5-2.5s1.121-2.5,2.5-2.5,2.5,1.121,2.5,2.5-1.121,2.5-2.5,2.5Z" fill="#61616b"></path></g></svg>