<svg xmlns="http://www.w3.org/2000/svg" height="24" width="24" viewBox="0 0 24 24"><title>turkey head 5</title><g fill="#61616b" class="nc-icon-wrapper"><path d="M12,4.997c1.39-1.856,3.583-2.988,5.976-2.996-1.67-1.251-3.734-2.001-5.976-2.001S7.693,.751,6.024,2.001c2.393,.008,4.586,1.14,5.976,2.996Z" fill="#61616b" data-color="color-2"></path><path d="M20.37,4.544c-.719-.345-1.521-.544-2.37-.544-2.226,0-4.219,1.328-5.077,3.384-.155,.373-.52,.615-.923,.615s-.768-.242-.923-.615c-.858-2.056-2.851-3.384-5.077-3.384-.849,0-1.651,.199-2.37,.544-1.027,1.571-1.63,3.443-1.63,5.456v7c0,.396,.233,.753,.594,.914l5.059,2.248c.488-2.286,2.039-4.463,2.758-5.338l-2.118-2.118c-.245-.245-.346-.6-.266-.937,.08-.338,.328-.609,.657-.719l3-1c.206-.068,.427-.068,.633,0l3,1c.329,.109,.577,.381,.657,.719,.08,.337-.021,.691-.266,.937l-2.105,2.105c.578,.718,2.241,2.948,2.748,5.349l5.057-2.247c.361-.161,.594-.519,.594-.914v-7c0-2.013-.603-3.885-1.63-5.456ZM6.5,9.75c-.689,0-1.25-.561-1.25-1.25s.561-1.25,1.25-1.25,1.25,.561,1.25,1.25-.561,1.25-1.25,1.25Zm11,0c-.689,0-1.25-.561-1.25-1.25s.561-1.25,1.25-1.25,1.25,.561,1.25,1.25-.561,1.25-1.25,1.25Z" fill="#61616b"></path><path d="M12,24.002c-1.378,0-2.5-1.121-2.5-2.5,0-2.459,2.478-5.482,2.502-5.502,.02,.02,2.498,3.043,2.498,5.502,0,1.379-1.122,2.5-2.5,2.5Z" fill="#61616b" data-color="color-2"></path></g></svg>