<svg xmlns="http://www.w3.org/2000/svg" height="48" width="48" viewBox="0 0 48 48"><title>water wave 3</title><g fill="#61616b" class="nc-icon-wrapper"><path d="M2,34a7.2,7.2,0,0,0,5.3-2.436,3,3,0,0,1,4.455.053,6.971,6.971,0,0,0,10.5,0,3.031,3.031,0,0,1,4.5,0,6.978,6.978,0,0,0,10.146.375,3,3,0,0,1,4.2,0A6.956,6.956,0,0,0,46,34a2.966,2.966,0,0,1,1,.184V26a1,1,0,0,0-1-1H44c-6.226,0-9.449-4.357-9.81-8.406-.224-2.526.721-5.693,4.125-6.3a1,1,0,0,0,.606-1.607c-.164-.206-4.084-5.055-9.734-5.628a11.614,11.614,0,0,0-8.8,3c-3.187,2.66-4.64,6.248-6.045,9.716C12.258,20.928,10.607,25,4,25H2a1,1,0,0,0-1,1v8.184A2.966,2.966,0,0,1,2,34Z" fill="#61616b" data-color="color-2"></path> <path d="M46,44H2a1,1,0,0,1-1-1V37a1,1,0,0,1,1-1,9.18,9.18,0,0,0,6.766-3.079,1.033,1.033,0,0,1,.746-.321,1,1,0,0,1,.738.338,8.971,8.971,0,0,0,13.5,0,1.032,1.032,0,0,1,1.5,0,8.979,8.979,0,0,0,13.05.484,1,1,0,0,1,1.4,0A8.95,8.95,0,0,0,46,36a1,1,0,0,1,1,1v6A1,1,0,0,1,46,44Z" fill="#61616b"></path></g></svg>