<svg xmlns="http://www.w3.org/2000/svg" height="32" width="32" viewBox="0 0 32 32"><title>water surface 4</title><g fill="#61616b" class="nc-icon-wrapper"><path d="M1,21a6.7,6.7,0,0,0,5.205-2.432,3,3,0,0,1,4.589,0,6.786,6.786,0,0,0,10.387.029,3.032,3.032,0,0,1,4.638,0A6.659,6.659,0,0,0,31,21a2.966,2.966,0,0,1,1,.184V16a1,1,0,0,0-1-1,8.655,8.655,0,0,1-6.731-3.134.987.987,0,0,0-1.543,0,8.786,8.786,0,0,1-13.466-.007A1,1,0,0,0,8.5,11.5h0a1,1,0,0,0-.765.356A8.676,8.676,0,0,1,1,15,1,1,0,0,0,0,16v5.184A2.966,2.966,0,0,1,1,21Z" fill="#61616b" data-color="color-2"></path> <path d="M1,13a6.7,6.7,0,0,0,5.205-2.432,3,3,0,0,1,4.589,0,6.786,6.786,0,0,0,10.387.029,3.032,3.032,0,0,1,4.638,0A6.659,6.659,0,0,0,31,13a2.966,2.966,0,0,1,1,.184V8a1,1,0,0,0-1-1,8.655,8.655,0,0,1-6.731-3.134.987.987,0,0,0-1.543,0A8.653,8.653,0,0,1,16,7,8.687,8.687,0,0,1,9.264,3.855,1,1,0,0,0,8.5,3.5h0a1,1,0,0,0-.765.356A8.676,8.676,0,0,1,1,7,1,1,0,0,0,0,8v5.184A2.966,2.966,0,0,1,1,13Z" fill="#61616b"></path> <path d="M31,29H1a1,1,0,0,1-1-1V24a1,1,0,0,1,1-1,8.674,8.674,0,0,0,6.735-3.144A1,1,0,0,1,8.5,19.5h0a1,1,0,0,1,.764.355,8.785,8.785,0,0,0,13.463.01,1.034,1.034,0,0,1,1.546,0A8.654,8.654,0,0,0,31,23a1,1,0,0,1,1,1v4A1,1,0,0,1,31,29Z" fill="#61616b"></path></g></svg>