<svg xmlns="http://www.w3.org/2000/svg" height="64" width="64" viewBox="0 0 64 64"><title>watering plants 2</title><g fill="#61616b" class="nc-icon-wrapper"><path d="M48.707,1.281c-.375-.375-1.039-.375-1.414,0-.216,.216-5.293,5.354-5.293,10.707,0,3.309,2.691,6,6,6s6-2.691,6-6c0-5.353-5.077-10.491-5.293-10.707Z" fill="#61616b" data-color="color-2"></path><path d="M31.671,13.259c-.381-.346-.961-.346-1.342,0-.341,.308-3.329,3.088-3.329,5.741,0,2.206,1.794,4,4,4s4-1.794,4-4c0-2.653-2.988-5.434-3.329-5.741Z" fill="#61616b" data-color="color-2"></path><path d="M16.671,3.259c-.381-.346-.961-.346-1.342,0-.443,.4-4.329,4.015-4.329,7.408,0,2.757,2.243,5,5,5s5-2.243,5-5c0-3.394-3.886-7.008-4.329-7.408Z" fill="#61616b" data-color="color-2"></path><path d="M60,28h-13c-7.012,0-13.086,4.04-16.055,9.907-.566-8.312-7.491-14.907-15.945-14.907H6c-.553,0-1,.447-1,1v1c0,9.925,8.075,18,18,18h4c0-4.82-4.847-9.149-9.196-10.02-.541-.108-.893-.635-.784-1.177,.107-.543,.637-.896,1.177-.784,5.218,1.043,10.804,6.106,10.804,11.98v19c0,.553,.447,1,1,1s1-.447,1-1v-8c0-7.595,6.347-14.917,13.858-15.99,.546-.08,1.054,.302,1.132,.849s-.302,1.054-.849,1.132c-6.468,.924-12.142,7.471-12.142,14.01h4c13.233,0,24-10.767,24-24v-1c0-.553-.447-1-1-1Z" fill="#61616b"></path></g></svg>