<svg xmlns="http://www.w3.org/2000/svg" height="32" width="32" viewBox="0 0 32 32"><title>water wave 4</title><g fill="#61616b" class="nc-icon-wrapper"><path d="M1,23a6.7,6.7,0,0,0,5.205-2.432,3,3,0,0,1,4.589,0,6.786,6.786,0,0,0,10.387.029,3.032,3.032,0,0,1,4.638,0A6.659,6.659,0,0,0,31,23a2.966,2.966,0,0,1,1,.184V17a1,1,0,0,0-1-1H29.636a6.031,6.031,0,0,1-6.371-5.441c-.142-1.588.442-3.578,2.551-3.956l1.649-.3L26.422,5c-.115-.144-2.868-3.551-6.853-3.956a8.228,8.228,0,0,0-6.235,2.118C11.1,5.022,10.05,7.617,9.123,9.907,7.744,13.312,6.654,16,2.364,16H1a1,1,0,0,0-1,1v6.184A2.966,2.966,0,0,1,1,23Z" fill="#61616b" data-color="color-2"></path> <path d="M31,31H1a1,1,0,0,1-1-1V26a1,1,0,0,1,1-1,8.674,8.674,0,0,0,6.735-3.144A1,1,0,0,1,8.5,21.5h0a1,1,0,0,1,.764.355,8.785,8.785,0,0,0,13.463.01,1.034,1.034,0,0,1,1.546,0A8.654,8.654,0,0,0,31,25a1,1,0,0,1,1,1v4A1,1,0,0,1,31,31Z" fill="#61616b"></path></g></svg>