<svg xmlns="http://www.w3.org/2000/svg" height="64" width="64" viewBox="0 0 64 64"><title>water surface 2</title><g fill="#61616b" class="nc-icon-wrapper"><path d="M2,41a9.864,9.864,0,0,0,7.314-3.241,3.927,3.927,0,0,1,2.839-1.265l.334.015a4,4,0,0,1,2.7,1.3,9.873,9.873,0,0,0,14.529,0,4.031,4.031,0,0,1,5.925,0,9.891,9.891,0,0,0,14.051.5,4,4,0,0,1,5.513,0A9.8,9.8,0,0,0,62,41a3.939,3.939,0,0,1,1,.142V30a.989.989,0,0,0-.982-1,12.781,12.781,0,0,1-8.868-3.509,1.012,1.012,0,0,0-1.386-.006,12.891,12.891,0,0,1-18.342-.657,1,1,0,0,0-1.481,0,12.871,12.871,0,0,1-18.973,0,1,1,0,0,0-.732-.328.967.967,0,0,0-.737.314A12.792,12.792,0,0,1,2,29a.973.973,0,0,0-1,.965V41.142A3.939,3.939,0,0,1,2,41Z" fill="#61616b" data-color="color-2"></path> <path d="M2,26a9.864,9.864,0,0,0,7.314-3.241,3.927,3.927,0,0,1,2.839-1.265l.334.015a4,4,0,0,1,2.7,1.3,9.873,9.873,0,0,0,14.529,0,4.031,4.031,0,0,1,5.925,0,9.891,9.891,0,0,0,14.051.5,4,4,0,0,1,5.513,0A9.8,9.8,0,0,0,62,26a3.939,3.939,0,0,1,1,.142V15a.989.989,0,0,0-.982-1,12.781,12.781,0,0,1-8.868-3.509,1.012,1.012,0,0,0-1.386-.006A12.772,12.772,0,0,1,42.909,14a12.819,12.819,0,0,1-9.487-4.172,1,1,0,0,0-1.481,0,12.871,12.871,0,0,1-18.973,0,1,1,0,0,0-.732-.328.97.97,0,0,0-.737.314A12.792,12.792,0,0,1,2,14a.973.973,0,0,0-1,.965V26.142A3.939,3.939,0,0,1,2,26Z" fill="#61616b"></path> <path d="M62,44a12.776,12.776,0,0,1-8.856-3.515,1,1,0,0,0-1.379,0,12.892,12.892,0,0,1-18.343-.657,1.031,1.031,0,0,0-1.481,0,12.871,12.871,0,0,1-18.973,0,1,1,0,0,0-1.469-.014A12.792,12.792,0,0,1,2,44a1,1,0,0,0-1,1V55a1,1,0,0,0,1,1H62a1,1,0,0,0,1-1V45A1,1,0,0,0,62,44Z" fill="#61616b"></path></g></svg>