<svg xmlns="http://www.w3.org/2000/svg" height="16" width="16" viewBox="0 0 16 16"><title>watering plants</title><g fill="#61616b" class="nc-icon-wrapper"><path d="M5,5c-.827,0-1.5-.673-1.5-1.5,0-1.016,1.009-2.198,1.124-2.329,.19-.217,.562-.217,.753,0,.115,.131,1.124,1.313,1.124,2.329,0,.827-.673,1.5-1.5,1.5Z" fill="#61616b" data-color="color-2"></path><path d="M11,5c-1.103,0-2-.897-2-2,0-1.414,1.504-2.734,1.676-2.881,.188-.158,.461-.158,.648,0,.171,.146,1.676,1.467,1.676,2.881,0,1.103-.897,2-2,2Z" fill="#61616b" data-color="color-2"></path><path d="M14,8h-3c-1.265,0-2.381,.601-3.114,1.521-.449-2.011-2.241-3.521-4.386-3.521H1.5c-.276,0-.5,.224-.5,.5,0,2.481,2.019,4.5,4.5,4.5h1.5v4c0,.553,.448,1,1,1s1-.447,1-1v-2h2c2.206,0,4-1.794,4-4,0-.553-.448-1-1-1Z" fill="#61616b"></path></g></svg>