<svg xmlns="http://www.w3.org/2000/svg" height="24" width="24" viewBox="0 0 24 24"><title>water surface 5</title><g fill="#61616b" class="nc-icon-wrapper"><path d="M1,16a3.962,3.962,0,0,0,3.138-1.528,3.033,3.033,0,0,1,4.723,0,3.992,3.992,0,0,0,5.6.682,4.075,4.075,0,0,0,.682-.682,3,3,0,0,1,4.724,0A3.961,3.961,0,0,0,23,16a2.972,2.972,0,0,1,.965.173A.9.9,0,0,0,24,16V12a1,1,0,0,0-1-1,5.946,5.946,0,0,1-4.712-2.295,1,1,0,0,0-.788-.384h0a1,1,0,0,0-.787.383,5.982,5.982,0,0,1-9.425,0,1.037,1.037,0,0,0-1.576,0A5.946,5.946,0,0,1,1,11a1,1,0,0,0-1,1v4a.9.9,0,0,0,.035.173A2.976,2.976,0,0,1,1,16Z" fill="#61616b" data-color="color-2"></path> <path d="M1,9A3.962,3.962,0,0,0,4.138,7.472a3.033,3.033,0,0,1,4.723,0,3.992,3.992,0,0,0,5.6.682,4.075,4.075,0,0,0,.682-.682,3,3,0,0,1,4.724,0A3.961,3.961,0,0,0,23,9a2.972,2.972,0,0,1,.965.173A.9.9,0,0,0,24,9V5a1,1,0,0,0-1-1,5.946,5.946,0,0,1-4.712-2.295,1,1,0,0,0-.788-.384h0a1,1,0,0,0-.787.383,6.019,6.019,0,0,1-1.024,1.025,5.991,5.991,0,0,1-8.4-1.024,1.037,1.037,0,0,0-1.576,0A5.946,5.946,0,0,1,1,4,1,1,0,0,0,0,5V9a.9.9,0,0,0,.035.173A2.976,2.976,0,0,1,1,9Z" fill="#61616b"></path> <path d="M23,18a5.946,5.946,0,0,1-4.712-2.295,1,1,0,0,0-.788-.384h0a1,1,0,0,0-.787.383,5.982,5.982,0,0,1-9.425,0,1.037,1.037,0,0,0-1.576,0A5.946,5.946,0,0,1,1,18a1,1,0,0,0-1,1v2a1,1,0,0,0,1,1H23a1,1,0,0,0,1-1V19A1,1,0,0,0,23,18Z" fill="#61616b"></path></g></svg>