<svg xmlns="http://www.w3.org/2000/svg" height="48" width="48" viewBox="0 0 48 48"><title>water surface 3</title><g fill="#61616b" class="nc-icon-wrapper"><path d="M2,31a7.2,7.2,0,0,0,5.3-2.436,3,3,0,0,1,4.455.053,6.971,6.971,0,0,0,10.5,0,3.031,3.031,0,0,1,4.5,0,6.978,6.978,0,0,0,10.146.375,3,3,0,0,1,4.2,0A6.956,6.956,0,0,0,46,31a2.966,2.966,0,0,1,1,.184V23a.993.993,0,0,0-.992-1,8.947,8.947,0,0,1-6.3-2.571,1.006,1.006,0,0,0-1.408-.007,8.977,8.977,0,0,1-13.048-.483.994.994,0,0,0-1.5,0,8.971,8.971,0,0,1-13.5,0,1,1,0,0,0-.738-.338,1.033,1.033,0,0,0-.746.321A9.179,9.179,0,0,1,2,22a1,1,0,0,0-1,1v8.184A2.966,2.966,0,0,1,2,31Z" fill="#61616b" data-color="color-2"></path> <path d="M2,20a7.2,7.2,0,0,0,5.3-2.436,3,3,0,0,1,4.455.053,6.971,6.971,0,0,0,10.5,0,3.031,3.031,0,0,1,4.5,0,6.978,6.978,0,0,0,10.146.375,3,3,0,0,1,4.2,0A6.956,6.956,0,0,0,46,20a2.966,2.966,0,0,1,1,.184V12a.993.993,0,0,0-.992-1,8.947,8.947,0,0,1-6.3-2.571A1.006,1.006,0,0,0,38.3,8.422,8.946,8.946,0,0,1,32,11a9,9,0,0,1-6.749-3.061.994.994,0,0,0-1.5,0,8.971,8.971,0,0,1-13.5,0A1,1,0,0,0,9.512,7.6a1.033,1.033,0,0,0-.746.321A9.179,9.179,0,0,1,2,11a1,1,0,0,0-1,1v8.184A2.966,2.966,0,0,1,2,20Z" fill="#61616b"></path> <path d="M46,41H2a1,1,0,0,1-1-1V34a1,1,0,0,1,1-1,9.18,9.18,0,0,0,6.766-3.079,1.033,1.033,0,0,1,.746-.321,1,1,0,0,1,.738.338,8.971,8.971,0,0,0,13.5,0,1.032,1.032,0,0,1,1.5,0,8.979,8.979,0,0,0,13.05.484,1,1,0,0,1,1.4,0A8.95,8.95,0,0,0,46,33a1,1,0,0,1,1,1v6A1,1,0,0,1,46,41Z" fill="#61616b"></path></g></svg>