<svg xmlns="http://www.w3.org/2000/svg" height="16" width="16" viewBox="0 0 16 16"><title>water surface</title><g fill="#61616b" class="nc-icon-wrapper"><path data-color="color-2" d="M14.975,9.816A5.49,5.49,0,0,1,11.5,8.582a5.578,5.578,0,0,1-6.995,0A5.523,5.523,0,0,1,1.013,9.816H1a1,1,0,0,1,0-2h.013A3.527,3.527,0,0,0,3.732,6.543a1,1,0,0,1,.767-.36h0a1,1,0,0,1,.767.358,3.566,3.566,0,0,0,5.025.442,3.475,3.475,0,0,0,.441-.442,1,1,0,0,1,.767-.358.894.894,0,0,1,.77.362,3.5,3.5,0,0,0,2.705,1.271H15a1,1,0,0,1,.005,2Z" fill="#61616b"></path><path d="M14.975,15A5.49,5.49,0,0,1,11.5,13.765a5.578,5.578,0,0,1-6.995,0A5.518,5.518,0,0,1,1.013,15H1a1,1,0,0,1,0-2h.013a3.532,3.532,0,0,0,2.719-1.273,1,1,0,0,1,.767-.36h0a1,1,0,0,1,.767.357,3.559,3.559,0,0,0,5.466,0,1,1,0,0,1,.767-.357h0a1,1,0,0,1,.768.362A3.5,3.5,0,0,0,14.975,13H15a1,1,0,0,1,.005,2Z" fill="#61616b"></path><path d="M14.975,4.633A5.49,5.49,0,0,1,11.5,3.4,5.575,5.575,0,0,1,4.5,3.4,5.785,5.785,0,0,1,1,4.633a1,1,0,0,1,0-2h.013A3.531,3.531,0,0,0,3.732,1.36,1,1,0,0,1,4.5,1h0a1,1,0,0,1,.767.357A3.54,3.54,0,0,0,7.687,2.62a3.549,3.549,0,0,0,2.6-.82,3.482,3.482,0,0,0,.441-.443A1,1,0,0,1,11.5,1h0a1,1,0,0,1,.768.362,3.5,3.5,0,0,0,2.705,1.271H15a1,1,0,0,1,.005,2Z" fill="#61616b"></path></g></svg>