<svg xmlns="http://www.w3.org/2000/svg" height="16" width="16" viewBox="0 0 16 16"><title>water wave 5</title><g fill="#61616b" class="nc-icon-wrapper"><path data-color="color-2" d="M14.975,15A5.49,5.49,0,0,1,11.5,13.765a5.578,5.578,0,0,1-6.995,0A5.518,5.518,0,0,1,1.013,15H1a1,1,0,0,1,0-2h.013a3.532,3.532,0,0,0,2.719-1.273,1,1,0,0,1,.767-.36h0a1,1,0,0,1,.767.357,3.559,3.559,0,0,0,5.466,0,1,1,0,0,1,.767-.357h0a1,1,0,0,1,.768.362A3.5,3.5,0,0,0,14.975,13H15a1,1,0,0,1,.005,2Z" fill="#61616b"></path><path d="M15,10h-.635A4.291,4.291,0,0,1,9.929,6.124,3.262,3.262,0,0,1,10.791,3.5a2.936,2.936,0,0,0-1.275-.488A2.4,2.4,0,0,0,7.7,3.666,6.2,6.2,0,0,0,6.15,6.241C5.471,7.916,4.627,10,1.637,10H1A1,1,0,0,1,1,8h.637C3.209,8,3.609,7.186,4.3,5.49A7.923,7.923,0,0,1,6.415,2.13a4.365,4.365,0,0,1,3.3-1.109A5.726,5.726,0,0,1,13.28,3.065a1,1,0,0,1-.6,1.608c-.792.142-.777,1.011-.754,1.273A2.3,2.3,0,0,0,14.365,8H15a1,1,0,0,1,0,2Z" fill="#61616b"></path></g></svg>