<svg xmlns="http://www.w3.org/2000/svg" height="64" width="64" viewBox="0 0 64 64"><title>water wave 2</title><g fill="#61616b" class="nc-icon-wrapper"><path d="M2,45a9.864,9.864,0,0,0,7.314-3.241,4,4,0,0,1,2.9-1.259,4.041,4.041,0,0,1,2.974,1.314,9.873,9.873,0,0,0,14.529,0,4.031,4.031,0,0,1,5.925,0,9.891,9.891,0,0,0,14.051.5,4,4,0,0,1,5.513,0A9.8,9.8,0,0,0,62,45a3.939,3.939,0,0,1,1,.142V35a1,1,0,0,0-1-1H59.272c-8.718,0-13.233-6.114-13.739-11.8-.32-3.6,1.039-8.108,5.923-8.984a1,1,0,0,0,.606-1.608c-.22-.276-5.473-6.772-13.026-7.54-4.1-.416-8.042.933-11.725,4.009-4.275,3.569-6.24,8.419-8.139,13.107C16.388,28.063,13.983,34,4.728,34H2a1,1,0,0,0-1,1V45.142A3.939,3.939,0,0,1,2,45Z" fill="#61616b" data-color="color-2"></path> <path d="M62,48a12.776,12.776,0,0,1-8.856-3.515,1,1,0,0,0-1.379,0,12.892,12.892,0,0,1-18.343-.657,1.031,1.031,0,0,0-1.481,0,12.871,12.871,0,0,1-18.973,0,1,1,0,0,0-1.469-.014A12.792,12.792,0,0,1,2,48a1,1,0,0,0-1,1v8a1,1,0,0,0,1,1H62a1,1,0,0,0,1-1V49A1,1,0,0,0,62,48Z" fill="#61616b"></path></g></svg>