<svg xmlns="http://www.w3.org/2000/svg" height="64" width="64" viewBox="0 0 64 64"><title>weed 3</title><g fill="#61616b" class="nc-icon-wrapper"><path fill="#61616b" d="M32.9,3.5c-0.4-0.6-1.4-0.6-1.7,0c-0.2,0.4-5.7,9.6-5.7,21.2c0,11.6,5.4,20.8,5.7,21.2 c0.2,0.3,0.5,0.5,0.9,0.5s0.7-0.2,0.9-0.5c0.2-0.4,5.7-9.6,5.7-21.2C38.5,13.1,33.1,3.9,32.9,3.5z"></path> <path data-color="color-2" fill="#61616b" d="M37.3,48.9c0.2,0.2,0.4,0.3,0.7,0.3c0.1,0,0.1,0,0.2,0c0.3-0.1,7.6-1.5,13.1-7 c5.5-5.5,6.9-12.7,7-13.1c0.1-0.3,0-0.7-0.3-0.9C57.7,28,57.3,27.9,57,28c-0.3,0.1-7.6,1.5-13.1,7c-5.5,5.5-6.9,12.7-7,13.1 C37,48.3,37.1,48.7,37.3,48.9z"></path> <path fill="#61616b" d="M48.5,51c-6.1,0-10.9,4.1-11.1,4.2C37.1,55.4,37,55.7,37,56s0.1,0.6,0.4,0.8c0.2,0.2,5,4.2,11.1,4.2 c6.1,0,10.9-4.1,11.1-4.2c0.2-0.2,0.4-0.5,0.4-0.8s-0.1-0.6-0.4-0.8C59.4,55.1,54.6,51,48.5,51z"></path> <path data-color="color-2" fill="#61616b" d="M12.8,42c5.5,5.5,12.7,6.9,13.1,7c0.1,0,0.1,0,0.2,0c0.3,0,0.5-0.1,0.7-0.3 c0.2-0.2,0.3-0.6,0.3-0.9c-0.1-0.3-1.5-7.6-7-13.1c-5.5-5.5-12.7-6.9-13.1-7c-0.3-0.1-0.7,0-0.9,0.3c-0.2,0.2-0.3,0.6-0.3,0.9 C5.9,29.3,7.3,36.6,12.8,42z"></path> <path fill="#61616b" d="M15.5,51c-6.1,0-10.9,4.1-11.1,4.2C4.1,55.4,4,55.7,4,56s0.1,0.6,0.4,0.8c0.2,0.2,5,4.2,11.1,4.2 c6.1,0,10.9-4.1,11.1-4.2c0.2-0.2,0.4-0.5,0.4-0.8s-0.1-0.6-0.4-0.8C26.4,55.1,21.6,51,15.5,51z"></path></g></svg>