<svg xmlns="http://www.w3.org/2000/svg" height="48" width="48" viewBox="0 0 48 48"><title>weed 4</title><g fill="#61616b" class="nc-icon-wrapper"><path fill="#61616b" d="M24.9,3.5c-0.4-0.6-1.4-0.6-1.7,0C23,3.8,19,10.5,19,19s4,15.2,4.1,15.5c0.2,0.3,0.5,0.5,0.9,0.5 s0.7-0.2,0.9-0.5C25,34.2,29,27.5,29,19S25,3.8,24.9,3.5z"></path> <path data-color="color-2" fill="#61616b" d="M30,37c0.1,0,0.1,0,0.2,0c0.2,0,5.6-1.1,9.6-5.1c4-4,5.1-9.4,5.1-9.6c0.1-0.3,0-0.7-0.3-0.9 S44,21,43.7,21.1c-0.2,0-5.6,1.1-9.6,5.1c-4,4-5.1,9.4-5.1,9.6c-0.1,0.3,0,0.7,0.3,0.9C29.5,36.9,29.7,37,30,37z"></path> <path fill="#61616b" d="M37,39c-4.5,0-8.1,3.1-8.3,3.2c-0.2,0.2-0.3,0.5-0.3,0.8s0.1,0.6,0.3,0.8c0.2,0.1,3.7,3.2,8.3,3.2 c4.5,0,8.1-3.1,8.3-3.2c0.2-0.2,0.3-0.5,0.3-0.8s-0.1-0.6-0.3-0.8C45.1,42.1,41.5,39,37,39z"></path> <path data-color="color-2" fill="#61616b" d="M8.2,31.9c4,4,9.4,5.1,9.6,5.1c0.1,0,0.1,0,0.2,0c0.3,0,0.5-0.1,0.7-0.3 c0.2-0.2,0.3-0.6,0.3-0.9c0-0.2-1.1-5.6-5.1-9.6c-4-4-9.4-5.1-9.6-5.1c-0.3-0.1-0.7,0-0.9,0.3C3.1,21.6,3,22,3.1,22.3 C3.2,22.5,4.2,27.9,8.2,31.9z"></path> <path fill="#61616b" d="M11,39c-4.5,0-8.1,3.1-8.3,3.2c-0.2,0.2-0.3,0.5-0.3,0.8s0.1,0.6,0.3,0.8C2.9,43.9,6.5,47,11,47 c4.5,0,8.1-3.1,8.3-3.2c0.2-0.2,0.3-0.5,0.3-0.8s-0.1-0.6-0.3-0.8C19.2,42.1,15.6,39,11,39z"></path></g></svg>