<svg xmlns="http://www.w3.org/2000/svg" height="32" width="32" viewBox="0 0 32 32"><title>weed 5</title><g fill="#61616b" class="nc-icon-wrapper"><path fill="#61616b" d="M16.9,1.5c-0.4-0.6-1.4-0.6-1.7,0c-0.1,0.2-2.9,4.9-2.9,10.9c0,5.9,2.8,10.7,2.9,10.9 c0.2,0.3,0.5,0.5,0.9,0.5s0.7-0.2,0.9-0.5c0.1-0.2,2.9-4.9,2.9-10.9C19.8,6.4,17,1.7,16.9,1.5z"></path> <path data-color="color-2" fill="#61616b" d="M18.3,24.8c0.2,0.2,0.4,0.3,0.7,0.3c0.1,0,0.1,0,0.2,0c0.2,0,4-0.8,6.8-3.6s3.6-6.6,3.6-6.8 c0.1-0.3,0-0.7-0.3-0.9s-0.6-0.3-0.9-0.3c-0.2,0-4,0.8-6.8,3.6C18.8,20,18,23.7,18,23.9C18,24.2,18.1,24.6,18.3,24.8z"></path> <path fill="#61616b" d="M30.1,27.2C30,27.1,27.5,25,24.2,25s-5.8,2.1-5.9,2.2C18.1,27.4,18,27.7,18,28s0.1,0.6,0.4,0.8 c0.1,0.1,2.7,2.2,5.9,2.2s5.8-2.1,5.9-2.2c0.2-0.2,0.4-0.5,0.4-0.8S30.4,27.4,30.1,27.2z"></path> <path data-color="color-2" fill="#61616b" d="M6,21.4c2.8,2.8,6.6,3.6,6.8,3.6c0.1,0,0.1,0,0.2,0c0.3,0,0.5-0.1,0.7-0.3 c0.2-0.2,0.3-0.6,0.3-0.9c0-0.2-0.8-4-3.6-6.8c-2.8-2.8-6.6-3.6-6.8-3.6c-0.3-0.1-0.7,0-0.9,0.3c-0.2,0.2-0.3,0.6-0.3,0.9 C2.4,14.7,3.2,18.5,6,21.4z"></path> <path fill="#61616b" d="M7.8,25c-3.2,0-5.8,2.1-5.9,2.2c-0.2,0.2-0.4,0.5-0.4,0.8s0.1,0.6,0.4,0.8C2,28.9,4.5,31,7.8,31 s5.8-2.1,5.9-2.2c0.2-0.2,0.4-0.5,0.4-0.8s-0.1-0.6-0.4-0.8C13.5,27.1,11,25,7.8,25z"></path></g></svg>