<svg xmlns="http://www.w3.org/2000/svg" height="64" width="64" viewBox="0 0 64 64"><title>windmill 2 2</title><g fill="#61616b" class="nc-icon-wrapper"><path d="M56.414,14l1.293-1.293a1,1,0,0,0,0-1.414l-4.5-4.5a1,1,0,0,0-1.414,0L50.5,8.086Z" fill="#61616b" data-color="color-2"></path><path d="M51.913,46.5,46,52.413l1.294,1.294a1,1,0,0,0,1.414,0l4.5-4.5a1,1,0,0,0,0-1.414Z" fill="#61616b" data-color="color-2"></path><path d="M28,58H19.578l-.567,3.854A1,1,0,0,0,20,63h8Z" fill="#61616b"></path><path d="M44.422,58H36v5h8a1,1,0,0,0,.989-1.146Z" fill="#61616b"></path><path d="M43.675,52.917l-11.8-11.8a3,3,0,0,1,0-4.242L34.258,34.5l-1.552-1.552a4.819,4.819,0,0,1-1.412,0l-9.417,9.417L19.872,56H28a4,4,0,0,1,8,0h8.128Z" fill="#61616b"></path><path d="M12.086,9.5,18,3.586,16.707,2.293a1,1,0,0,0-1.414,0l-4.5,4.5a1,1,0,0,0,0,1.414Z" fill="#61616b" data-color="color-2"></path><path d="M7.587,42,6.293,43.293a1,1,0,0,0,0,1.414l4.5,4.5a1,1,0,0,0,1.414,0L13.5,47.913Z" fill="#61616b" data-color="color-2"></path><path d="M34.684,29.314a2.89,2.89,0,0,0,0-2.628.944.944,0,0,0,.13-.086l2.272-2.272a2,2,0,0,1,2.828,0l2.379,2.379a1,1,0,0,0,1.414,0L55,15.414,49.086,9.5,33.4,25.186a.944.944,0,0,0-.086.13,2.89,2.89,0,0,0-2.628,0,.944.944,0,0,0-.086-.13l-2.272-2.272a2,2,0,0,1,0-2.828l2.379-2.379a1,1,0,0,0,0-1.414L19.414,5,13.5,10.914,29.186,26.6a.944.944,0,0,0,.13.086,2.89,2.89,0,0,0,0,2.628.944.944,0,0,0-.13.086l-2.272,2.272a2,2,0,0,1-2.828,0l-2.379-2.379a1,1,0,0,0-1.414,0L9,40.585,14.915,46.5,30.6,30.814a.944.944,0,0,0,.086-.13,2.89,2.89,0,0,0,2.628,0,.944.944,0,0,0,.086.13l2.272,2.272a2,2,0,0,1,0,2.828l-2.379,2.379a1,1,0,0,0,0,1.414L44.585,51,50.5,45.085,34.814,29.4A.944.944,0,0,0,34.684,29.314ZM32,29a1,1,0,1,1,1-1A1,1,0,0,1,32,29Z" fill="#61616b" data-color="color-2"></path></g></svg>