<svg xmlns="http://www.w3.org/2000/svg" height="32" width="32" viewBox="0 0 32 32"><title>windmill 2 4</title><g fill="#61616b" class="nc-icon-wrapper"><path d="M20.829,11.171a1,1,0,0,0,1.414,0l5.464-5.464a1,1,0,0,0,0-1.414l-2-2a1,1,0,0,0-1.414,0L16,10.586,14.586,9.171a1,1,0,0,1,0-1.414l.585-.586a1,1,0,0,0,0-1.414L9.707.293a1,1,0,0,0-1.414,0l-2,2a1,1,0,0,0,0,1.414L14.586,12l-1.414,1.414a1,1,0,0,1-1.415,0l-.586-.586a1,1,0,0,0-1.414,0L4.293,18.293a1,1,0,0,0,0,1.414l2,2a1,1,0,0,0,1.414,0L16,13.414l1.414,1.414a1,1,0,0,1,0,1.414l-.585.586a1,1,0,0,0,0,1.414l5.464,5.464a1,1,0,0,0,1.414,0l2-2a1,1,0,0,0,0-1.414L17.414,12l1.415-1.415a1,1,0,0,1,1.414,0Z" fill="#61616b" data-color="color-2"></path><path d="M22.474,25.948a2.974,2.974,0,0,1-1.595-.828l-5.464-5.464a2.986,2.986,0,0,1-.873-1.955L9.906,22.336l-.9,8.56A1,1,0,0,0,10,32h4V28a2,2,0,0,1,4,0v4h4a1,1,0,0,0,1-1.1Z" fill="#61616b"></path></g></svg>