<svg xmlns="http://www.w3.org/2000/svg" height="48" width="48" viewBox="0 0 48 48"><title>windmill 2 3</title><g fill="#61616b" class="nc-icon-wrapper"><path d="M30.293,18.707a1,1,0,0,0,1.414,0l10-10a1,1,0,0,0,0-1.414l-3-3a1,1,0,0,0-1.414,0L25.284,16.3a2.992,2.992,0,0,0-2.568,0l-.6-.595a1,1,0,0,1,0-1.414l1.586-1.586a1,1,0,0,0,0-1.414l-10-10a1,1,0,0,0-1.414,0l-3,3a1,1,0,0,0,0,1.414L21.3,17.716a3,3,0,0,0,0,2.568l-.595.6a1,1,0,0,1-1.414,0l-1.586-1.586a1,1,0,0,0-1.414,0l-10,10a1,1,0,0,0,0,1.414l3,3a1,1,0,0,0,1.414,0L22.716,21.7a2.9,2.9,0,0,0,2.568,0l.6.595a1,1,0,0,1,0,1.414l-1.586,1.586a1,1,0,0,0,0,1.414l10,10a1,1,0,0,0,1.414,0l3-3a1,1,0,0,0,0-1.414L26.7,20.284a3,3,0,0,0,0-2.568l.595-.6a1,1,0,0,1,1.414,0Zm-7,1a1,1,0,1,1,1.414,0A1,1,0,0,1,23.293,19.707Z" fill="#61616b" data-color="color-2"></path><path d="M21,42a3,3,0,0,1,6,0h6.418l-.58-3.92-9.959-9.959A2.978,2.978,0,0,1,22,26a3.02,3.02,0,0,1,.134-.892l-5.928,5.928L14.582,42Z" fill="#61616b"></path><path d="M14.285,44l-.274,1.853A1,1,0,0,0,15,47h6V44Z" fill="#61616b"></path><path d="M27,44v3h6a1,1,0,0,0,.989-1.147L33.715,44Z" fill="#61616b"></path></g></svg>