<svg xmlns="http://www.w3.org/2000/svg" height="24" width="24" viewBox="0 0 24 24"><title>windmill 2 5</title><g fill="#61616b" class="nc-icon-wrapper"><path d="M15.532,8.3l.7.7,4.457-4.45a1,1,0,0,0,0-1.415L19.28,1.719a1,1,0,0,0-1.414,0L12,7.585l-.7-.7a1,1,0,0,1,0-1.413l.7-.7L7.551.305A1,1,0,0,0,6.135.3L4.721,1.719a1,1,0,0,0,0,1.414L10.587,9l-.7.7a1,1,0,0,1-1.413,0L7.763,9,3.306,13.448a1,1,0,0,0,0,1.415L4.72,16.278a1,1,0,0,0,1.414,0L12,10.412l.705.705a1,1,0,0,1,0,1.413l-.7.705,4.45,4.458a1,1,0,0,0,1.415,0l1.415-1.416a1,1,0,0,0,0-1.414L13.414,9h0l.7-.7A1,1,0,0,1,15.532,8.3Z" fill="#61616b" data-color="color-2"></path><path d="M15.035,19.107l-.567-.568,0,0-2.1-2.1-1.778-1.781L9.225,16.016,7.549,17.692c-.057.057-.123.1-.183.151L7,22.929A1,1,0,0,0,8,24h3V21a1,1,0,0,1,2,0v3h3a1,1,0,0,0,1-1.071l-.213-2.979A2.965,2.965,0,0,1,15.035,19.107Z" fill="#61616b"></path></g></svg>