<svg xmlns="http://www.w3.org/2000/svg" height="16" width="16" viewBox="0 0 16 16"><title>windmill 2</title><g fill="#61616b" class="nc-icon-wrapper"><circle cx="8" cy="7" r="1" fill="#61616b" data-color="color-2"></circle><path d="M14.707,2.293l-1-1h0a1,1,0,0,0-1.414,0h0L9.586,4,8.512,5.074A2,2,0,0,1,9.926,6.489L11,5.414l1,1,2.707-2.707A1,1,0,0,0,14.707,2.293Z" fill="#61616b" data-color="color-2"></path><path d="M3.293.293l-1,1h0a1,1,0,0,0,0,1.414h0L5,5.414,6.074,6.489A2,2,0,0,1,7.488,5.074L6.414,4l1-1L4.707.293A1,1,0,0,0,3.293.293Z" fill="#61616b" data-color="color-2"></path><path d="M1.293,11.707l1,1h0a1,1,0,0,0,1.414,0h0L6.414,10,7.488,8.926A1.993,1.993,0,0,1,6.074,7.512L5,8.586l-1-1L1.293,10.293A1,1,0,0,0,1.293,11.707Z" fill="#61616b" data-color="color-2"></path><path d="M10.586,14.414,7,10.828,4.414,13.414c-.032.033-.071.057-.1.086l-.285,1.283A1,1,0,0,0,5,16h6a1,1,0,0,0,.78-.374.984.984,0,0,0,.2-.628A1.986,1.986,0,0,1,10.586,14.414Z" fill="#61616b"></path><path d="M12.707,13.707l1-1h0a1,1,0,0,0,0-1.414h0L11,8.586,9.926,7.512A1.993,1.993,0,0,1,8.512,8.926L9.586,10l-1,1,2.707,2.707A1,1,0,0,0,12.707,13.707Z" fill="#61616b" data-color="color-2"></path></g></svg>