<svg xmlns="http://www.w3.org/2000/svg" height="48" width="48" viewBox="0 0 48 48"><title>wood 4</title><g fill="#61616b" class="nc-icon-wrapper"><path fill="#61616b" d="M46,1h-5.99902c-0.40918,0-0.77637,0.24902-0.92871,0.62842L36,9.30762l-3.07031-7.67871 C32.77734,1.24902,32.41016,1,32.00098,1H16c-0.55273,0-1,0.44775-1,1v20l-6.40039-4.7998 c-0.39746-0.29834-0.95605-0.25977-1.30664,0.09277l-4,4c-0.35156,0.35205-0.3916,0.90869-0.09277,1.30713L15,38.3335V46 c0,0.55225,0.44727,1,1,1h9V34c0-0.55225,0.44727-1,1-1s1,0.44775,1,1v13h19c0.55273,0,1-0.44775,1-1V2C47,1.44775,46.55273,1,46,1z M27,28c0,0.55225-0.44727,1-1,1s-1-0.44775-1-1v-2c0-0.55225,0.44727-1,1-1s1,0.44775,1,1V28z"></path></g></svg>