<svg xmlns="http://www.w3.org/2000/svg" height="32" width="32" viewBox="0 0 32 32"><title>wood 5</title><g fill="#61616b" class="nc-icon-wrapper"><path fill="#61616b" d="M30,1h-3c-0.37891,0-0.72461,0.21387-0.89453,0.55273L24,5.76416l-2.10547-4.21143 C21.72461,1.21387,21.37891,1,21,1H10C9.44727,1,9,1.44775,9,2v11.91943l-3.375-2.7002 c-0.39648-0.31787-0.9707-0.2876-1.33203,0.07373l-3,3c-0.37402,0.37451-0.39258,0.97559-0.04004,1.37158L9,24.38037V30 c0,0.55225,0.44727,1,1,1h6v-7c0-0.55225,0.44727-1,1-1s1,0.44775,1,1v7h12c0.55273,0,1-0.44775,1-1V2C31,1.44775,30.55273,1,30,1z M18,20c0,0.55225-0.44727,1-1,1s-1-0.44775-1-1v-1c0-0.55225,0.44727-1,1-1s1,0.44775,1,1V20z"></path></g></svg>