<svg xmlns="http://www.w3.org/2000/svg" height="64" width="64" viewBox="0 0 64 64"><title>wool ball 3</title><g fill="#61616b" class="nc-icon-wrapper"><path fill="#61616b" d="M36,3C21.112,3,9,15.112,9,30s12.112,27,27,27s27-12.112,27-27S50.888,3,36,3z M19.862,49.072 c2.81-7.202,7.657-13.219,13.763-17.442c-2.437-3.071-4.368-6.488-5.742-10.118c-4.514,4.616-10.419,7.413-16.871,7.975 c0.014-0.678,0.047-1.352,0.114-2.016c6.191-0.611,11.823-3.455,16.015-8.092c-1.131-3.625-1.722-7.426-1.722-11.274 c0-0.255,0.01-0.507,0.021-0.759c0.669-0.313,1.353-0.6,2.052-0.854c-0.037,0.534-0.073,1.069-0.073,1.614 c0,8.157,2.799,16.085,7.886,22.425c2.641-1.627,5.482-2.934,8.468-3.878c-4.723-4.985-7.407-11.652-7.407-18.548 c0-0.968,0.067-1.988,0.203-3.091c0.674,0.015,1.343,0.05,2.003,0.118c-0.136,1.07-0.206,2.052-0.206,2.973 c0,6.84,2.701,13.185,7.607,17.926c2.96-0.742,6.038-1.137,9.183-1.137c1.751,0,3.531,0.142,5.395,0.417 c0.13,0.683,0.237,1.374,0.31,2.075c-1.989-0.324-3.866-0.492-5.705-0.492c-15.013,0-28.447,9.394-33.664,23.447 C20.933,49.94,20.388,49.518,19.862,49.072z M59.592,38.259c-1.495-0.273-2.982-0.417-4.433-0.417 c-10.574,0-20.103,6.844-23.576,16.759c-0.664-0.119-1.321-0.26-1.966-0.43c3.684-10.832,14.04-18.328,25.542-18.328 c1.647,0,3.334,0.173,5.026,0.496C60.013,36.99,59.813,37.629,59.592,38.259z"></path> <path data-color="color-2" fill="#61616b" d="M18,62H7c-3.309,0-6-2.691-6-6s2.691-6,6-6h5c0.553,0,1,0.448,1,1s-0.447,1-1,1H7 c-2.206,0-4,1.794-4,4s1.794,4,4,4h11c0.553,0,1,0.448,1,1S18.553,62,18,62z"></path></g></svg>