<svg xmlns="http://www.w3.org/2000/svg" height="48" width="48" viewBox="0 0 48 48"><title>wool ball 4</title><g fill="#61616b" class="nc-icon-wrapper"><path fill="#61616b" d="M46.157,26.716c0.003-0.01,0.005-0.021,0.008-0.031v0C46.701,24.881,47,22.976,47,21C47,9.972,38.028,1,27,1 S7,9.972,7,21c0,9.487,6.647,17.437,15.524,19.477c0.007,0.002,0.014,0.004,0.021,0.005c0,0,0,0,0,0C23.98,40.81,25.467,41,27,41 C36.041,41,43.691,34.966,46.157,26.716L46.157,26.716z M43.861,27.241C42.896,27.083,41.938,27,41,27 c-7.501,0-14.274,4.781-16.864,11.75c-0.667-0.107-1.321-0.247-1.961-0.426c3.177-8.943,12.482-14.705,22.275-12.988 C44.288,25.986,44.092,26.621,43.861,27.241z M41,19c-10.787,0-20.436,6.713-24.263,16.768c-0.573-0.399-1.115-0.836-1.636-1.298 c2.06-5.065,5.493-9.314,9.793-12.348c-1.633-2.102-2.949-4.413-3.918-6.865c-3.247,3.195-7.418,5.145-11.969,5.599 c0.005-0.686,0.056-1.36,0.137-2.026c4.278-0.508,8.164-2.494,11.095-5.692C19.44,10.515,19,7.778,19,5 c0-0.035,0.004-0.068,0.005-0.103c0.659-0.328,1.339-0.616,2.04-0.863C21.023,4.354,21,4.674,21,5 c0,5.819,1.985,11.468,5.569,16.024c1.771-1.069,3.666-1.939,5.646-2.596C28.892,14.771,27,9.97,27,5 c0-0.626,0.052-1.296,0.128-1.994c0.676,0.005,1.341,0.053,1.997,0.131C29.051,3.794,29,4.422,29,5 c0,4.878,1.918,9.397,5.384,12.799C36.519,17.278,38.736,17,41,17c1.174,0,2.363,0.084,3.601,0.251 c0.145,0.682,0.249,1.378,0.315,2.086C43.558,19.126,42.261,19,41,19z"></path> <path data-color="color-2" fill="#61616b" d="M13,47H6c-2.757,0-5-2.243-5-5s2.243-5,5-5h3c0.553,0,1,0.448,1,1s-0.447,1-1,1H6 c-1.654,0-3,1.346-3,3s1.346,3,3,3h7c0.553,0,1,0.448,1,1S13.553,47,13,47z"></path></g></svg>