<svg xmlns="http://www.w3.org/2000/svg" height="32" width="32" viewBox="0 0 32 32"><title>wool ball 5</title><g fill="#61616b" class="nc-icon-wrapper"><path fill="#61616b" d="M18,1C10.28,1,4,7.28,4,15c0,6.632,4.64,12.189,10.841,13.627c0.007,0.002,0.013,0.004,0.02,0.005h0 C15.872,28.865,16.919,29,18,29c7.72,0,14-6.28,14-14S25.72,1,18,1z M9.732,23.675c1.404-3.234,3.633-5.96,6.382-7.969 c-0.951-1.267-1.737-2.639-2.349-4.087c-2.151,1.982-4.835,3.218-7.754,3.569C6.009,15.125,6,15.063,6,15 c0-0.628,0.063-1.24,0.157-1.843c2.631-0.404,5.017-1.666,6.861-3.62c-0.481-1.633-0.749-3.331-0.79-5.052 c0.635-0.35,1.306-0.638,2.004-0.87c-0.008,0.145-0.02,0.29-0.02,0.437c0,3.821,1.274,7.532,3.579,10.555 c1.025-0.599,2.108-1.1,3.233-1.504c-2.133-2.513-3.339-5.729-3.339-9.051c0-0.335,0.015-0.679,0.045-1.039 C17.821,3.012,17.909,3,18,3c0.588,0,1.162,0.057,1.728,0.139c-0.028,0.319-0.043,0.623-0.043,0.914c0,3.194,1.236,6.155,3.47,8.409 c1.43-0.335,2.912-0.515,4.425-0.515c0.669,0,1.351,0.051,2.046,0.129c0.168,0.668,0.281,1.356,0.332,2.063 c-0.818-0.116-1.609-0.192-2.377-0.192c-7.168,0-13.586,4.411-16.216,11.042C10.78,24.6,10.237,24.157,9.732,23.675z M29.106,19.528 c-5.514-0.718-10.635,2.454-12.637,7.363c-0.676-0.087-1.336-0.221-1.972-0.416c2.282-6.019,8.57-9.893,15.21-8.87 C29.559,18.269,29.359,18.911,29.106,19.528z"></path> <path data-color="color-2" fill="#61616b" d="M10,32H4c-2.206,0-4-1.794-4-4s1.794-4,4-4h2v2H4c-1.103,0-2,0.897-2,2s0.897,2,2,2h6V32z"></path></g></svg>