<svg xmlns="http://www.w3.org/2000/svg" height="24" width="24" viewBox="0 0 24 24"><title>apron</title><g stroke-linecap="round" fill="#61616b" stroke-linejoin="round" class="nc-icon-wrapper"><path fill="none" stroke="#61616b" stroke-width="2" d="M8,7V5c0-2.2,1.8-4,4-4h0 c2.2,0,4,1.8,4,4v2"></path> <path fill="none" stroke="#61616b" stroke-width="2" d="M16,7L16,7L8,7v0 c0,2.2-1.8,4-4,4H2v12h20V11h-2C17.8,11,16,9.2,16,7z"></path> <path data-color="color-2" fill="none" stroke="#61616b" stroke-width="2" d="M12,19L12,19 c-1.7,0-3-1.3-3-3v-2h6v2C15,17.7,13.7,19,12,19z"></path></g></svg>