<svg xmlns="http://www.w3.org/2000/svg" height="48" width="48" viewBox="0 0 48 48"><title>apron 4</title><g stroke-linecap="round" fill="#61616b" stroke-linejoin="round" class="nc-icon-wrapper"><path fill="none" stroke="#61616b" stroke-width="2" d="M16,14v-4c0-4.4,3.6-8,8-8 h0c4.4,0,8,3.6,8,8v4"></path> <path fill="none" stroke="#61616b" stroke-width="2" d="M32,14L32,14l-16,0v0 c0,4.4-3.6,8-8,8H4v24h40V22h-4C35.6,22,32,18.4,32,14z"></path> <path data-color="color-2" fill="none" stroke="#61616b" stroke-width="2" d="M24,38L24,38 c-3.3,0-6-2.7-6-6v-4h12v4C30,35.3,27.3,38,24,38z"></path></g></svg>