<svg xmlns="http://www.w3.org/2000/svg" height="32" width="32" viewBox="0 0 32 32"><title>apron 5</title><g stroke-linecap="round" fill="#61616b" stroke-linejoin="round" class="nc-icon-wrapper"><path data-color="color-2" fill="none" stroke="#61616b" stroke-width="2" d="M16,27 L16,27c-2.2,0-4-1.8-4-4v-3h8v3C20,25.2,18.2,27,16,27z"></path> <path fill="none" stroke="#61616b" stroke-width="2" d="M10,9V7c0-3.3,2.7-6,6-6h0 c3.3,0,6,2.7,6,6v2"></path> <path fill="none" stroke="#61616b" stroke-width="2" d="M22,9L22,9L10,9v0 c0,3.3-2.7,6-6,6H3v16h26V15h-1C24.7,15,22,12.3,22,9z"></path></g></svg>