<svg xmlns="http://www.w3.org/2000/svg" height="16" width="16" viewBox="0 0 16 16"><title>apron 2</title><g fill="#61616b" class="nc-icon-wrapper"><path d="M5.5,9.5h5a0,0,0,0,1,0,0V11A2.5,2.5,0,0,1,8,13.5H8A2.5,2.5,0,0,1,5.5,11V9.5A0,0,0,0,1,5.5,9.5Z" fill="none" stroke="#61616b" stroke-linecap="round" stroke-linejoin="round" data-color="color-2"></path> <path d="M11.5,5.5h-7a3,3,0,0,1-3,3H.5v7h15v-7h-1A3,3,0,0,1,11.5,5.5Z" fill="none" stroke="#61616b" stroke-linecap="round" stroke-linejoin="round"></path> <path d="M4.5,5.5V4A3.5,3.5,0,0,1,8,.5H8A3.5,3.5,0,0,1,11.5,4V5.5" fill="none" stroke="#61616b" stroke-linecap="round" stroke-linejoin="round"></path></g></svg>