<svg xmlns="http://www.w3.org/2000/svg" height="64" width="64" viewBox="0 0 64 64"><title>apron 3</title><g stroke-linecap="round" fill="#61616b" stroke-linejoin="round" class="nc-icon-wrapper"><path data-color="color-2" fill="none" stroke="#61616b" stroke-width="2" d="M32,54 L32,54c-4.4,0-8-3.6-8-8v-6h16v6C40,50.4,36.4,54,32,54z"></path> <path fill="none" stroke="#61616b" stroke-width="2" d="M20,18v-4 c0-6.6,5.4-12,12-12h0c6.6,0,12,5.4,12,12v4"></path> <path fill="none" stroke="#61616b" stroke-width="2" d="M44,18L44,18l-24,0v0 c0,6.6-5.4,12-12,12H6v32h52V30h-2C49.4,30,44,24.6,44,18z"></path> <path fill="none" stroke="#61616b" stroke-width="2" d="M12,18L12,18 c-3.3,0-6,2.7-6,6v6"></path> <path fill="none" stroke="#61616b" stroke-width="2" d="M52,18L52,18 c3.3,0,6,2.7,6,6v6"></path></g></svg>