<svg xmlns="http://www.w3.org/2000/svg" height="32" width="32" viewBox="0 0 32 32"><title>baby clothes 5</title><g stroke-linecap="round" fill="#61616b" stroke-linejoin="round" class="nc-icon-wrapper"><path d="M23.9,2H21A5,5,0,0,1,11,2H8.105A6,6,0,0,0,4.357,3.315L1,6v7H6V24H6a6.018,6.018,0,0,1,6,6h8a6.018,6.018,0,0,1,6-6h0V13h5V6L27.643,3.315A6,6,0,0,0,23.9,2Z" fill="none" stroke="#61616b" stroke-width="2"></path><path data-color="color-2" d="M20.2,12.812a2.7,2.7,0,0,0-3.818-.04A2.64,2.64,0,0,0,16,13.24a2.7,2.7,0,0,0-3.732-.81,2.731,2.731,0,0,0-.468.382,2.8,2.8,0,0,0,0,3.919L16,21l4.2-4.269A2.8,2.8,0,0,0,20.2,12.812Z" fill="none" stroke="#61616b" stroke-width="2"></path></g></svg>