<svg xmlns="http://www.w3.org/2000/svg" height="64" width="64" viewBox="0 0 64 64"><title>backpack 4</title><g stroke-linecap="round" fill="#61616b" stroke-linejoin="round" class="nc-icon-wrapper"><path d="M19,14H47A10,10,0,0,1,57,24V56a5,5,0,0,1-5,5H14a5,5,0,0,1-5-5V24A10,10,0,0,1,19,14Z" fill="none" stroke="#61616b" stroke-width="2"></path><path d="M25,19V10a8,8,0,0,1,16,0v9" fill="none" stroke="#61616b" stroke-width="2"></path><path data-color="color-2" d="M24,35H42a5,5,0,0,1,5,5V54a0,0,0,0,1,0,0H19a0,0,0,0,1,0,0V40A5,5,0,0,1,24,35Z" fill="none" stroke="#61616b" stroke-width="2"></path></g></svg>