<svg xmlns="http://www.w3.org/2000/svg" height="16" width="16" viewBox="0 0 16 16"><title>backpack 2 2</title><g fill="#61616b" class="nc-icon-wrapper"><line x1="0.5" y1="10.5" x2="0.5" y2="15.5" fill="none" stroke="#61616b" stroke-linecap="round" stroke-linejoin="round" data-color="color-2"></line> <line x1="15.5" y1="10.5" x2="15.5" y2="15.5" fill="none" stroke="#61616b" stroke-linecap="round" stroke-linejoin="round" data-color="color-2"></line> <line x1="2.5" y1="10.5" x2="6.5" y2="10.5" fill="none" stroke="#61616b" stroke-linecap="round" stroke-linejoin="round" data-color="color-2"></line> <rect x="6.5" y="8.5" width="3" height="4" fill="none" stroke="#61616b" stroke-linecap="round" stroke-linejoin="round" data-color="color-2"></rect> <line x1="9.5" y1="10.5" x2="13.5" y2="10.5" fill="none" stroke="#61616b" stroke-linecap="round" stroke-linejoin="round" data-color="color-2"></line> <path d="M4.5,3.5h7a2,2,0,0,1,2,2v10a0,0,0,0,1,0,0H2.5a0,0,0,0,1,0,0V5.5A2,2,0,0,1,4.5,3.5Z" fill="none" stroke="#61616b" stroke-linecap="round" stroke-linejoin="round"></path> <polyline points="5.5 3.5 5.5 0.5 10.5 0.5 10.5 3.5" fill="none" stroke="#61616b" stroke-linecap="round" stroke-linejoin="round"></polyline></g></svg>