<svg xmlns="http://www.w3.org/2000/svg" height="24" width="24" viewBox="0 0 24 24"><title>backpack 2</title><g stroke-linecap="round" fill="#61616b" stroke-linejoin="round" class="nc-icon-wrapper"><path d="M18,9h2a2.006,2.006,0,0,1,2,2v9a2,2,0,0,1-2,2H4a2,2,0,0,1-2-2V11A2.006,2.006,0,0,1,4,9H6" fill="none" stroke="#61616b" stroke-width="2"></path><path data-color="color-2" d="M6,11V4A2.006,2.006,0,0,1,8,2h8a2.006,2.006,0,0,1,2,2v7a2,2,0,0,1-2,2H8A2,2,0,0,1,6,11Z" fill="none" stroke="#61616b" stroke-width="2"></path><line data-color="color-2" x1="12" y1="15" x2="12" y2="11" fill="none" stroke="#61616b" stroke-width="2"></line><line x1="6" y1="22" x2="6" y2="17" fill="none" stroke="#61616b" stroke-width="2"></line><line x1="18" y1="22" x2="18" y2="17" fill="none" stroke="#61616b" stroke-width="2"></line></g></svg>