<svg xmlns="http://www.w3.org/2000/svg" height="32" width="32" viewBox="0 0 32 32"><title>backpack 6</title><g stroke-linecap="round" fill="#61616b" stroke-linejoin="round" class="nc-icon-wrapper"><path d="M12,9V5a4.012,4.012,0,0,1,4-4h0a4.012,4.012,0,0,1,4,4V9" fill="none" stroke="#61616b" stroke-width="2"></path><path d="M25,31H7a3,3,0,0,1-3-3V12a6.018,6.018,0,0,1,6-6H22a6.018,6.018,0,0,1,6,6V28A3,3,0,0,1,25,31Z" fill="none" stroke="#61616b" stroke-width="2"></path><path data-color="color-2" d="M23,26V19.727A2.727,2.727,0,0,0,20.273,17H11.727A2.727,2.727,0,0,0,9,19.727V26Z" fill="none" stroke="#61616b" stroke-width="2"></path></g></svg>