<svg xmlns="http://www.w3.org/2000/svg" height="48" width="48" viewBox="0 0 48 48"><title>backpack 5</title><g stroke-linecap="round" fill="#61616b" stroke-linejoin="round" class="nc-icon-wrapper"><path d="M18,14V8a6.018,6.018,0,0,1,6-6h0a6.018,6.018,0,0,1,6,6v6" fill="none" stroke="#61616b" stroke-width="2"></path><path d="M38,46H10a4,4,0,0,1-4-4V18a8.024,8.024,0,0,1,8-8H34a8.024,8.024,0,0,1,8,8V42A4,4,0,0,1,38,46Z" fill="none" stroke="#61616b" stroke-width="2"></path><path data-color="color-2" d="M18,25H30a4,4,0,0,1,4,4V40a0,0,0,0,1,0,0H14a0,0,0,0,1,0,0V29A4,4,0,0,1,18,25Z" fill="none" stroke="#61616b" stroke-width="2"></path></g></svg>