<svg xmlns="http://www.w3.org/2000/svg" height="24" width="24" viewBox="0 0 24 24"><title>backpack</title><g stroke-linecap="round" fill="#61616b" stroke-linejoin="round" class="nc-icon-wrapper"><path d="M19,23H5a2,2,0,0,1-2-2V9A4.012,4.012,0,0,1,7,5H17a4.012,4.012,0,0,1,4,4V21A2,2,0,0,1,19,23Z" fill="none" stroke="#61616b" stroke-width="2"></path><path data-color="color-2" d="M9,7V4a2.946,2.946,0,0,1,3-3h0a2.946,2.946,0,0,1,3,3V7" fill="none" stroke="#61616b" stroke-width="2"></path><path data-color="color-2" d="M17,19V15a2,2,0,0,0-2-2H9a2,2,0,0,0-2,2v4Z" fill="none" stroke="#61616b" stroke-width="2"></path></g></svg>