<svg xmlns="http://www.w3.org/2000/svg" height="64" width="64" viewBox="0 0 64 64"><title>backpack 2 3</title><g stroke-linecap="round" fill="#61616b" stroke-linejoin="round" class="nc-icon-wrapper"><path d="M52,29h3a5,5,0,0,1,5,5V55a5,5,0,0,1-5,5H9a5,5,0,0,1-5-5V34a5,5,0,0,1,5-5h3" fill="none" stroke="#61616b" stroke-width="2"></path><line x1="12" y1="45" x2="12" y2="60" fill="none" stroke="#61616b" stroke-width="2"></line><line x1="52" y1="45" x2="52" y2="60" fill="none" stroke="#61616b" stroke-width="2"></line><rect data-color="color-2" x="12" y="11" width="40" height="28" rx="5" fill="none" stroke="#61616b" stroke-width="2"></rect><line data-color="color-2" x1="24" y1="43" x2="24" y2="35" fill="none" stroke="#61616b" stroke-width="2"></line><line data-color="color-2" x1="40" y1="43" x2="40" y2="35" fill="none" stroke="#61616b" stroke-width="2"></line><path data-color="color-2" d="M24,19V11a8,8,0,0,1,16,0v8" fill="none" stroke="#61616b" stroke-width="2"></path></g></svg>