<svg xmlns="http://www.w3.org/2000/svg" height="16" width="16" viewBox="0 0 16 16"><title>backpack 3</title><g fill="#61616b" class="nc-icon-wrapper"><path d="M4.5,3.5h7a3,3,0,0,1,3,3v9H1.5v-9A3,3,0,0,1,4.5,3.5Z" fill="none" stroke="#61616b" stroke-linecap="round" stroke-linejoin="round"></path><path data-color="color-2" d="M5.5,5.5V3A2.5,2.5,0,0,1,8,.5H8A2.5,2.5,0,0,1,10.5,3V5.5" fill="none" stroke="#61616b" stroke-linecap="round" stroke-linejoin="round"></path><path data-color="color-2" d="M6.5,8.5h3a2,2,0,0,1,2,2v2a0,0,0,0,1,0,0h-7a0,0,0,0,1,0,0v-2A2,2,0,0,1,6.5,8.5Z" fill="none" stroke="#61616b" stroke-linecap="round" stroke-linejoin="round"></path></g></svg>