<svg xmlns="http://www.w3.org/2000/svg" height="32" width="32" viewBox="0 0 32 32"><title>backpack 2 5</title><g stroke-linecap="round" fill="#61616b" stroke-linejoin="round" class="nc-icon-wrapper"><path data-color="color-2" d="M12,9V5a4.012,4.012,0,0,1,4-4h0a4.012,4.012,0,0,1,4,4V9" fill="none" stroke="#61616b" stroke-width="2"></path><path d="M26,15h1a3.009,3.009,0,0,1,3,3v9a3,3,0,0,1-3,3H5a3,3,0,0,1-3-3V18a3.009,3.009,0,0,1,3-3H6" fill="none" stroke="#61616b" stroke-width="2"></path><path data-color="color-2" d="M26,16a3.009,3.009,0,0,1-3,3H9a3.009,3.009,0,0,1-3-3V8A3.009,3.009,0,0,1,9,5H23a3.009,3.009,0,0,1,3,3Z" fill="none" stroke="#61616b" stroke-width="2"></path><line data-color="color-2" x1="12" y1="21" x2="12" y2="17" fill="none" stroke="#61616b" stroke-width="2"></line><line data-color="color-2" x1="20" y1="21" x2="20" y2="17" fill="none" stroke="#61616b" stroke-width="2"></line><line x1="7" y1="23" x2="7" y2="30" fill="none" stroke="#61616b" stroke-width="2"></line><line x1="25" y1="23" x2="25" y2="30" fill="none" stroke="#61616b" stroke-width="2"></line></g></svg>