<svg xmlns="http://www.w3.org/2000/svg" height="48" width="48" viewBox="0 0 48 48"><title>backpack 2 4</title><g stroke-linecap="round" fill="#61616b" stroke-linejoin="round" class="nc-icon-wrapper"><path d="M39,22h2a4,4,0,0,1,4,4V41a4,4,0,0,1-4,4H7a4,4,0,0,1-4-4V26a4,4,0,0,1,4-4H9" fill="none" stroke="#61616b" stroke-width="2"></path><path data-color="color-2" d="M39,12V25a4,4,0,0,1-4,4H13a4,4,0,0,1-4-4V12a4,4,0,0,1,4-4H35A4,4,0,0,1,39,12Z" fill="none" stroke="#61616b" stroke-width="2"></path><line data-color="color-2" x1="18" y1="32" x2="18" y2="26" fill="none" stroke="#61616b" stroke-width="2"></line><line data-color="color-2" x1="30" y1="32" x2="30" y2="26" fill="none" stroke="#61616b" stroke-width="2"></line><line x1="9" y1="34" x2="9" y2="45" fill="none" stroke="#61616b" stroke-width="2"></line><line x1="39" y1="34" x2="39" y2="45" fill="none" stroke="#61616b" stroke-width="2"></line><path data-color="color-2" d="M18,14V8A6,6,0,0,1,30,8v6" fill="none" stroke="#61616b" stroke-width="2"></path></g></svg>