<svg xmlns="http://www.w3.org/2000/svg" height="24" width="24" viewBox="0 0 24 24"><title>boots 5</title><g stroke-linecap="round" fill="#61616b" stroke-linejoin="round" class="nc-icon-wrapper"><path d="M1,1s.5,7.99.5,11S1,15.877,1,19a18.92,18.92,0,0,0,.5,4H7V21.5A14.733,14.733,0,0,0,12,23a22.682,22.682,0,0,0,5-.5V19.236a2,2,0,0,0-1.106-1.789L13.581,16.29a3.987,3.987,0,0,1-1.04-.749l-.24-.24a4,4,0,0,1-1.16-3.135L12,1Z" fill="none" stroke="#61616b" stroke-width="2" data-cap="butt"></path><line x1="1.258" y1="5" x2="10.733" y2="5" fill="none" stroke="#61616b" stroke-width="2" data-cap="butt"></line><line x1="15" y1="5" x2="16.714" y2="5" fill="none" stroke="#61616b" stroke-width="2" data-color="color-2"></line><path d="M21,21.829a17.789,17.789,0,0,0,2-.329V18.236a2,2,0,0,0-1.106-1.789L19.581,15.29a3.987,3.987,0,0,1-1.04-.749l-.24-.24a4,4,0,0,1-1.16-3.135L17.923,1H16" fill="none" stroke="#61616b" stroke-width="2" data-color="color-2"></path></g></svg>