<svg xmlns="http://www.w3.org/2000/svg" height="16" width="16" viewBox="0 0 16 16"><title>boots</title><g fill="#61616b" class="nc-icon-wrapper"><line x1="0.588" y1="3.5" x2="8.2" y2="3.5" fill="none" stroke="#61616b" stroke-linecap="round" stroke-linejoin="round"></line><path d="M14.447,14.233a1.708,1.708,0,0,0-.021-3.163l-1.83-.732a3,3,0,0,1-1.871-3.084L11.4.5h-.89" fill="none" stroke="#61616b" stroke-linecap="round" stroke-linejoin="round" data-color="color-2"></path><path d="M.5.5c0,6.5,1,7,1,9,0,1-.5,2.5-.5,3.5a11.341,11.341,0,0,0,.25,2.5H4.5v-1a10.343,10.343,0,0,0,4,1,18.659,18.659,0,0,0,2.549-.153,1.7,1.7,0,0,0,1.451-1.69h0a1.709,1.709,0,0,0-1.074-1.587L9.6,11.338A3,3,0,0,1,7.725,8.254L8.5.5Z" fill="none" stroke="#61616b" stroke-linecap="round" stroke-linejoin="round"></path></g></svg>