<svg xmlns="http://www.w3.org/2000/svg" height="48" width="48" viewBox="0 0 48 48"><title>boots 3</title><g stroke-linecap="round" fill="#61616b" stroke-linejoin="round" class="nc-icon-wrapper"><path d="M41,44.65c3.186-.288,5-.65,5-.65V40.062a6,6,0,0,0-3.772-5.571l-7.022-2.809a6,6,0,0,1-3.74-6.188L33.9,2h-4.87" fill="none" stroke="#61616b" stroke-width="2" data-color="color-2"></path><line x1="2.257" y1="11" x2="23.054" y2="11" fill="none" stroke="#61616b" stroke-width="2" data-cap="butt"></line><polyline points="28 11 32.966 11 32 11" fill="none" stroke="#61616b" stroke-width="2" data-color="color-2"></polyline><path d="M2,2C2,20,4.5,22.133,4.5,28,4.5,30.933,3,34,3,38a33.294,33.294,0,0,0,1,8H14V43l6.415,2.138a16.094,16.094,0,0,0,5.6.814A67.116,67.116,0,0,0,36,45V41.062a6,6,0,0,0-3.772-5.571l-7.022-2.809a6,6,0,0,1-3.74-6.188L24,2Z" fill="none" stroke="#61616b" stroke-width="2" data-cap="butt"></path></g></svg>