<svg xmlns="http://www.w3.org/2000/svg" height="64" width="64" viewBox="0 0 64 64"><title>boots 2</title><g stroke-linecap="round" fill="#61616b" stroke-linejoin="round" class="nc-icon-wrapper"><line x1="2.432" y1="16" x2="29.682" y2="16" fill="none" stroke="#61616b" stroke-width="2" data-cap="butt"></line><path d="M2,4C2,24,5,29,5,36c0,5.536-2,9-2,15a41.263,41.263,0,0,0,1,9H18V57l10,3c12,0,19-2,19-2V53.416a8,8,0,0,0-5.029-7.428l-9.319-3.727a8,8,0,0,1-4.98-8.311L31,4Z" fill="none" stroke="#61616b" stroke-width="2" data-cap="butt"></path><path d="M52,58a57.861,57.861,0,0,0,9-1.506V51.91a8,8,0,0,0-5.029-7.428l-9.319-3.727a8,8,0,0,1-4.98-8.312L44.833,4H36" fill="none" stroke="#61616b" stroke-width="2" data-color="color-2"></path><polyline points="42 16 43.499 16 35 16" fill="none" stroke="#61616b" stroke-width="2" data-color="color-2"></polyline></g></svg>