<svg xmlns="http://www.w3.org/2000/svg" height="32" width="32" viewBox="0 0 32 32"><title>boots 4</title><g stroke-linecap="round" fill="#61616b" stroke-linejoin="round" class="nc-icon-wrapper"><polyline points="19 7 22.3 7 21 7" fill="none" stroke="#61616b" stroke-width="2" data-color="color-2"></polyline><path d="M28,30l3-1V26.708a4,4,0,0,0-2.514-3.714l-4.692-1.876a4,4,0,0,1-2.5-4.112L22.9,1H20" fill="none" stroke="#61616b" stroke-width="2" data-color="color-2"></path><line x1="1.175" y1="7" x2="15.4" y2="7" fill="none" stroke="#61616b" stroke-width="2" data-cap="butt"></line><path d="M1,1C1,14,3,15,3,19c0,2-1,5-1,7a22.682,22.682,0,0,0,.5,5H9V29s4,2,7,2a27.673,27.673,0,0,0,8-1V27.708a4,4,0,0,0-2.514-3.714l-4.692-1.876a4,4,0,0,1-2.5-4.112L16,1Z" fill="none" stroke="#61616b" stroke-width="2" data-cap="butt"></path></g></svg>