<svg xmlns="http://www.w3.org/2000/svg" height="16" width="16" viewBox="0 0 16 16"><title>businessman 03 2</title><g fill="#61616b" class="nc-icon-wrapper"><polyline points="10.667 6.278 9 8.5 7 8.5 5.333 6.278" fill="none" stroke="#61616b" stroke-linecap="round" stroke-linejoin="round" data-color="color-2"></polyline> <line x1="5.5" y1="15.5" x2="7" y2="8.5" fill="none" stroke="#61616b" stroke-linecap="round" stroke-linejoin="round" data-color="color-2"></line> <line x1="9" y1="8.5" x2="10.5" y2="15.5" fill="none" stroke="#61616b" stroke-linecap="round" stroke-linejoin="round" data-color="color-2"></line> <path d="M12.5,2.5h2a1,1,0,0,1,1,1v11a1,1,0,0,1-1,1H1.5a1,1,0,0,1-1-1V3.5a1,1,0,0,1,1-1h2" fill="none" stroke="#61616b" stroke-linecap="round" stroke-linejoin="round"></path> <polygon points="3.5 0.5 3.5 7.5 8 4.5 3.5 0.5" fill="none" stroke="#61616b" stroke-linecap="round" stroke-linejoin="round"></polygon> <polygon points="12.5 0.5 12.5 7.5 8 4.5 12.5 0.5" fill="none" stroke="#61616b" stroke-linecap="round" stroke-linejoin="round"></polygon> <line x1="3.5" y1="0.5" x2="12.5" y2="0.5" fill="none" stroke="#61616b" stroke-linecap="round" stroke-linejoin="round"></line></g></svg>