<svg xmlns="http://www.w3.org/2000/svg" height="64" width="64" viewBox="0 0 64 64"><title>glasses 3</title><g stroke-linecap="round" fill="#61616b" stroke-linejoin="round" class="nc-icon-wrapper"><line data-cap="butt" data-color="color-2" fill="none" stroke="#61616b" stroke-width="2" x1="26" y1="36" x2="38" y2="36"></line> <path data-cap="butt" data-color="color-2" fill="none" stroke="#61616b" stroke-width="2" d="M28,48v-2c0-2.2,1.8-4,4-4h0 c2.2,0,4,1.8,4,4v2"></path> <path data-cap="butt" fill="none" stroke="#61616b" stroke-width="2" d="M2,36h26v16c0,2.2-1.8,4-4,4H6 c-2.2,0-4-1.8-4-4V36L12,8h11v6h-7l-4,22"></path> <path data-cap="butt" fill="none" stroke="#61616b" stroke-width="2" d="M62,36H36v16c0,2.2,1.8,4,4,4h18 c2.2,0,4-1.8,4-4V36L52,8H41v6h7l4,22"></path></g></svg>