<svg xmlns="http://www.w3.org/2000/svg" height="16" width="16" viewBox="0 0 16 16"><title>glasses 2</title><g fill="#61616b" class="nc-icon-wrapper"><polyline points="0.5 8.5 2.5 1.5 4.5 1.5" fill="none" stroke="#61616b" stroke-linecap="round" stroke-linejoin="round" data-color="color-2"></polyline> <polyline points="15.5 8.5 13.5 1.5 11.5 1.5" fill="none" stroke="#61616b" stroke-linecap="round" stroke-linejoin="round" data-color="color-2"></polyline> <path d="M.5,8.5h6a0,0,0,0,1,0,0v4a1,1,0,0,1-1,1h-4a1,1,0,0,1-1-1v-4A0,0,0,0,1,.5,8.5Z" fill="none" stroke="#61616b" stroke-linecap="round" stroke-linejoin="round"></path> <path d="M9.5,8.5h6a0,0,0,0,1,0,0v4a1,1,0,0,1-1,1h-4a1,1,0,0,1-1-1v-4A0,0,0,0,1,9.5,8.5Z" fill="none" stroke="#61616b" stroke-linecap="round" stroke-linejoin="round"></path> <line x1="6.5" y1="8.5" x2="9.5" y2="8.5" fill="none" stroke="#61616b" stroke-linecap="round" stroke-linejoin="round"></line></g></svg>