<svg xmlns="http://www.w3.org/2000/svg" height="48" width="48" viewBox="0 0 48 48"><title>gloves 4</title><g stroke-linecap="round" fill="#61616b" stroke-linejoin="round" class="nc-icon-wrapper"><path data-color="color-2" d="M36,19V12a3,3,0,0,1,6,0V35l1,10H37" fill="none" stroke="#61616b" stroke-width="2"></path><line data-color="color-2" x1="42" y1="35" x2="36" y2="35" fill="none" stroke="#61616b" stroke-width="2"></line><path d="M12,18V6a3,3,0,0,1,6,0V18" fill="none" stroke="#61616b" stroke-width="2"></path><path d="M18,19V8a3,3,0,0,1,6,0V19" fill="none" stroke="#61616b" stroke-width="2"></path><line x1="30" y1="35" x2="19" y2="35" fill="none" stroke="#61616b" stroke-width="2"></line><path d="M12,34l4.121-4.879a3,3,0,1,0-4.242-4.242L5.972,30.785l.932-.932" fill="none" stroke="#61616b" stroke-width="2"></path><path d="M24,20V12a3,3,0,0,1,6,0V35l1,10H4.909L6,35V10a3,3,0,0,1,6,0v8" fill="none" stroke="#61616b" stroke-width="2"></path><path data-color="color-2" d="M36,20V8a2.989,2.989,0,0,0-5.286-1.923" fill="none" stroke="#61616b" stroke-width="2"></path></g></svg>