<svg xmlns="http://www.w3.org/2000/svg" height="16" width="16" viewBox="0 0 16 16"><title>gloves 2</title><g fill="#61616b" class="nc-icon-wrapper"><path d="M4.5,6.5v-5a1,1,0,0,1,2,0v2" fill="none" stroke="#61616b" stroke-linecap="round" stroke-linejoin="round"></path><path d="M6.5,6V2a1,1,0,0,1,2,0V6.5" fill="none" stroke="#61616b" stroke-linecap="round" stroke-linejoin="round"></path><path d="M12.5,3.5a1,1,0,0,1,2,0v8l.5,4H13.5" fill="none" stroke="#61616b" stroke-linecap="round" stroke-linejoin="round" data-color="color-2"></path><line x1="10.5" y1="11.5" x2="7.5" y2="11.5" fill="none" stroke="#61616b" stroke-linecap="round" stroke-linejoin="round"></line><line x1="14.5" y1="11.5" x2="12.5" y2="11.5" fill="none" stroke="#61616b" stroke-linecap="round" stroke-linejoin="round" data-color="color-2"></line><path d="M12.5,6.5V2a1,1,0,0,0-1.752-.653" fill="none" stroke="#61616b" stroke-linecap="round" stroke-linejoin="round" data-color="color-2"></path><path d="M8.5,3.5a1,1,0,0,1,2,0v8l.5,4H2l.5-4V3a1,1,0,0,1,2,0" fill="none" stroke="#61616b" stroke-linecap="round" stroke-linejoin="round"></path><path d="M5,12.5l1.326-2.438A1,1,0,0,0,4.793,8.793L2.5,11.085" fill="none" stroke="#61616b" stroke-linecap="round" stroke-linejoin="round"></path></g></svg>