<svg xmlns="http://www.w3.org/2000/svg" height="64" width="64" viewBox="0 0 64 64"><title>gloves 3</title><g stroke-linecap="round" fill="#61616b" stroke-linejoin="round" class="nc-icon-wrapper"><path d="M16,20.008V8a4,4,0,0,1,8,0V26" fill="none" stroke="#61616b" stroke-width="2"></path><line x1="40" y1="47" x2="25" y2="47" fill="none" stroke="#61616b" stroke-width="2"></line><path d="M32,27V10a4,4,0,0,0-8,0V26" fill="none" stroke="#61616b" stroke-width="2"></path><path d="M16,46l6.15-7.565a3.99,3.99,0,0,0-5.978-5.263L8,41.343l.656-.656" fill="none" stroke="#61616b" stroke-width="2"></path><line data-color="color-2" x1="56" y1="47" x2="46" y2="47" fill="none" stroke="#61616b" stroke-width="2"></line><path data-color="color-2" d="M48,27V16a4,4,0,0,1,8,0V47l2,13H48" fill="none" stroke="#61616b" stroke-width="2"></path><path d="M32,27V16a4,4,0,0,1,8,0V47l2,13H6L8,47V13a4,4,0,0,1,8,0V24" fill="none" stroke="#61616b" stroke-width="2"></path><path data-color="color-2" d="M48,27V10a3.988,3.988,0,0,0-7.547-1.811" fill="none" stroke="#61616b" stroke-width="2"></path></g></svg>