<svg xmlns="http://www.w3.org/2000/svg" height="24" width="24" viewBox="0 0 24 24"><title>gloves</title><g stroke-linecap="round" fill="#61616b" stroke-linejoin="round" class="nc-icon-wrapper"><path data-color="color-2" d="M19,5.5a1.5,1.5,0,0,1,3,0V18l.5,5H19" fill="none" stroke="#61616b" stroke-width="2"></path><path d="M6,9V2.5a1.5,1.5,0,0,1,3,0V6" fill="none" stroke="#61616b" stroke-width="2"></path><path d="M9,9V3.5a1.5,1.5,0,0,1,3,0V9" fill="none" stroke="#61616b" stroke-width="2"></path><path data-color="color-2" d="M19,9V3.5a1.494,1.494,0,0,0-2.646-.957" fill="none" stroke="#61616b" stroke-width="2"></path><path d="M6,7V4.5a1.5,1.5,0,0,0-3,0V18l-.5,5h13L15,18V5.5a1.5,1.5,0,0,0-3,0V8" fill="none" stroke="#61616b" stroke-width="2"></path><line x1="15" y1="18" x2="10" y2="18" fill="none" stroke="#61616b" stroke-width="2"></line><path d="M7,17.011l1.656-2.594a1.485,1.485,0,0,0-.1-1.978,1.5,1.5,0,0,0-2.122,0L3,15.878l.254-.254" fill="none" stroke="#61616b" stroke-width="2"></path><line data-color="color-2" x1="18" y1="18" x2="22" y2="18" fill="none" stroke="#61616b" stroke-width="2"></line></g></svg>