<svg xmlns="http://www.w3.org/2000/svg" height="32" width="32" viewBox="0 0 32 32"><title>gloves 5</title><g stroke-linecap="round" fill="#61616b" stroke-linejoin="round" class="nc-icon-wrapper"><path d="M8,12V3a2,2,0,0,1,4,0V7" fill="none" stroke="#61616b" stroke-width="2"></path><path d="M12,12V4a2,2,0,0,1,4,0v9" fill="none" stroke="#61616b" stroke-width="2"></path><path data-color="color-2" d="M24,7a2,2,0,0,1,4,0V24l1,7H25" fill="none" stroke="#61616b" stroke-width="2"></path><line x1="20" y1="24" x2="13" y2="24" fill="none" stroke="#61616b" stroke-width="2"></line><line data-color="color-2" x1="28" y1="24" x2="24" y2="24" fill="none" stroke="#61616b" stroke-width="2"></line><path data-color="color-2" d="M24,13V4a1.992,1.992,0,0,0-3.5-1.306" fill="none" stroke="#61616b" stroke-width="2"></path><path d="M16,7a2,2,0,0,1,4,0V24l1,7H3l1-7V6A2,2,0,0,1,8,6" fill="none" stroke="#61616b" stroke-width="2"></path><path d="M9,23l2.651-3.876a2,2,0,0,0-3.065-2.538L4,21.17l.532-.531" fill="none" stroke="#61616b" stroke-width="2"></path></g></svg>