<svg xmlns="http://www.w3.org/2000/svg" height="64" width="64" viewBox="0 0 64 64"><title>gym shoes 3</title><g stroke-linecap="round" fill="#61616b" stroke-linejoin="round" class="nc-icon-wrapper"><line data-cap="butt" data-color="color-2" x1="2" y1="42" x2="62" y2="42" fill="none" stroke="#61616b" stroke-width="2"></line> <line data-cap="butt" data-color="color-2" x1="32" y1="27" x2="37.524" y2="21.476" fill="none" stroke="#61616b" stroke-width="2"></line> <line data-cap="butt" data-color="color-2" x1="37" y1="32" x2="42.762" y2="26.238" fill="none" stroke="#61616b" stroke-width="2"></line> <path d="M28,20.724A13.94,13.94,0,0,1,19,24,13.715,13.715,0,0,1,7.9,18.372,3.305,3.305,0,0,0,5.252,17h0A3.252,3.252,0,0,0,2,20.252V45a4.012,4.012,0,0,0,4,4H58a4.012,4.012,0,0,0,4-4V39a8,8,0,0,0-8-8H48L26,11" fill="none" stroke="#61616b" stroke-width="2"></path></g></svg>