<svg xmlns="http://www.w3.org/2000/svg" height="32" width="32" viewBox="0 0 32 32"><title>gym shoes 5</title><g stroke-linecap="round" fill="#61616b" stroke-linejoin="round" class="nc-icon-wrapper"><line data-cap="butt" data-color="color-2" x1="1" y1="21" x2="31" y2="21" fill="none" stroke="#61616b" stroke-width="2"></line> <path d="M13,5,24,15h3a4,4,0,0,1,4,4v4a2.006,2.006,0,0,1-2,2H3a2.006,2.006,0,0,1-2-2V9.273A1.273,1.273,0,0,1,2.273,8h.01a1.293,1.293,0,0,1,1.058.566A5.575,5.575,0,0,0,8,11a5.491,5.491,0,0,0,4-1.646" fill="none" stroke="#61616b" stroke-width="2"></path></g></svg>