<svg xmlns="http://www.w3.org/2000/svg" height="64" width="64" viewBox="0 0 64 64"><title>hoodie 2</title><g stroke-linecap="round" fill="#61616b" stroke-linejoin="round" class="nc-icon-wrapper"><line data-cap="butt" data-color="color-2" x1="24" y1="26.472" x2="24" y2="47" fill="none" stroke="#61616b" stroke-width="2"></line> <line data-cap="butt" data-color="color-2" x1="40" y1="26.472" x2="40" y2="47" fill="none" stroke="#61616b" stroke-width="2"></line> <path d="M16,15a6.018,6.018,0,0,1-6-6h0a6.018,6.018,0,0,1,6-6H48a6.018,6.018,0,0,1,6,6h0a6.018,6.018,0,0,1-6,6" fill="none" stroke="#61616b" stroke-width="2"></path> <path d="M46,15a14,14,0,0,1-28,0H8a5,5,0,0,0-5,5V56a5,5,0,0,0,5,5H56a5,5,0,0,0,5-5V20a5,5,0,0,0-5-5Z" fill="none" stroke="#61616b" stroke-width="2"></path></g></svg>