<svg xmlns="http://www.w3.org/2000/svg" height="32" width="32" viewBox="0 0 32 32"><title>hoodie 4</title><g stroke-linecap="round" fill="#61616b" stroke-linejoin="round" class="nc-icon-wrapper"><line data-cap="butt" data-color="color-2" x1="12" y1="12.764" x2="12" y2="23" fill="none" stroke="#61616b" stroke-width="2"></line> <line data-cap="butt" data-color="color-2" x1="20" y1="12.764" x2="20" y2="23" fill="none" stroke="#61616b" stroke-width="2"></line> <path d="M8,7A2.946,2.946,0,0,1,5,4H5A2.946,2.946,0,0,1,8,1H24a2.946,2.946,0,0,1,3,3h0a2.946,2.946,0,0,1-3,3" fill="none" stroke="#61616b" stroke-width="2"></path> <path d="M23,7A7,7,0,0,1,9,7H4a3,3,0,0,0-3,3V28a3,3,0,0,0,3,3H28a3,3,0,0,0,3-3V10a3,3,0,0,0-3-3Z" fill="none" stroke="#61616b" stroke-width="2"></path></g></svg>