<svg xmlns="http://www.w3.org/2000/svg" height="48" width="48" viewBox="0 0 48 48"><title>hoodie 3</title><g stroke-linecap="round" fill="#61616b" stroke-linejoin="round" class="nc-icon-wrapper"><line data-cap="butt" data-color="color-2" x1="18" y1="18" x2="18" y2="34" fill="none" stroke="#61616b" stroke-width="2"></line> <line data-cap="butt" data-color="color-2" x1="30" y1="18" x2="30" y2="34" fill="none" stroke="#61616b" stroke-width="2"></line> <path d="M34,10a10,10,0,0,1-20,0H7a4.012,4.012,0,0,0-4,4V41a4,4,0,0,0,4,4H41a4,4,0,0,0,4-4V14a4.012,4.012,0,0,0-4-4Z" fill="none" stroke="#61616b" stroke-width="2"></path> <path d="M12,10A4.012,4.012,0,0,1,8,6H8a4.012,4.012,0,0,1,4-4H36a4.012,4.012,0,0,1,4,4h0a4.012,4.012,0,0,1-4,4" fill="none" stroke="#61616b" stroke-width="2"></path></g></svg>