<svg xmlns="http://www.w3.org/2000/svg" height="24" width="24" viewBox="0 0 24 24"><title>hoodie</title><g stroke-linecap="round" fill="#61616b" stroke-linejoin="round" class="nc-icon-wrapper"><line data-cap="butt" data-color="color-2" fill="none" stroke="#61616b" stroke-width="2" x1="9" y1="9" x2="9" y2="17"></line> <line data-cap="butt" data-color="color-2" fill="none" stroke="#61616b" stroke-width="2" x1="15" y1="9" x2="15" y2="17"></line> <path fill="none" stroke="#61616b" stroke-width="2" d="M17,5c0,2.8-2.2,5-5,5 S7,7.8,7,5H3C1.9,5,1,5.9,1,7v16h22V7c0-1.1-0.9-2-2-2H17z"></path> <path fill="none" stroke="#61616b" stroke-width="2" d="M6,5C4.9,5,4,4.1,4,3v0 c0-1.1,0.9-2,2-2h12c1.1,0,2,0.9,2,2v0c0,1.1-0.9,2-2,2"></path></g></svg>