<svg xmlns="http://www.w3.org/2000/svg" height="48" width="48" viewBox="0 0 48 48"><title>iron 2 4</title><g stroke-linecap="round" fill="#61616b" stroke-linejoin="round" class="nc-icon-wrapper"><line data-cap="butt" data-color="color-2" x1="41" y1="32" x2="2" y2="32" fill="none" stroke="#61616b" stroke-width="2"></line><path data-cap="butt" data-color="color-2" d="M39.682,23.484A3,3,0,1,1,36.9,18.215" fill="none" stroke="#61616b" stroke-width="2"></path><path d="M27,24a9,9,0,0,0-9-9H9a3,3,0,0,1-3-3H6A3,3,0,0,1,9,9H19A22,22,0,0,1,41,31v1l4,7H6L2,32V28a4,4,0,0,1,4-4H21" fill="none" stroke="#61616b" stroke-width="2"></path></g></svg>