<svg xmlns="http://www.w3.org/2000/svg" height="64" width="64" viewBox="0 0 64 64"><title>iron 2 3</title><g stroke-linecap="round" fill="#61616b" stroke-linejoin="round" class="nc-icon-wrapper"><line data-cap="butt" data-color="color-2" x1="55" y1="42" x2="2" y2="42" fill="none" stroke="#61616b" stroke-width="2"></line><path data-cap="butt" data-color="color-2" d="M52.838,30.816a4,4,0,1,1-3.751-6.7" fill="none" stroke="#61616b" stroke-width="2"></path><path d="M14,29v3H26V29a2,2,0,0,0-2-2H16A2,2,0,0,0,14,29Z" fill="none" stroke="#61616b" stroke-width="2"></path><path d="M31,32h4A13,13,0,0,0,22,19H7.5a3.5,3.5,0,0,1,0-7H25A30,30,0,0,1,55,42l6,10H8L2,42V36a4,4,0,0,1,4-4H26" fill="none" stroke="#61616b" stroke-width="2"></path></g></svg>