<svg xmlns="http://www.w3.org/2000/svg" height="64" width="64" viewBox="0 0 64 64"><title>long sleeve 3</title><g stroke-linecap="round" fill="#61616b" stroke-linejoin="round" class="nc-icon-wrapper"><line data-color="color-2" fill="none" stroke="#61616b" stroke-width="2" x1="36" y1="24" x2="42" y2="24"></line> <line fill="none" stroke="#61616b" stroke-width="2" x1="14" y1="54" x2="14" y2="28"></line> <line fill="none" stroke="#61616b" stroke-width="2" x1="50" y1="54" x2="50" y2="28"></line> <line fill="none" stroke="#61616b" stroke-width="2" x1="4" y1="49" x2="14" y2="49"></line> <line fill="none" stroke="#61616b" stroke-width="2" x1="50" y1="49" x2="60" y2="49"></line> <path fill="none" stroke="#61616b" stroke-width="2" d="M44,2c0,6.6-5.4,12-12,12 S20,8.6,20,2H10c-4.4,0-8,3.6-8,8v38c0,0.6,0.4,1,1,1h1v5h10v8h36v-8h10v-5h1c0.6,0,1-0.4,1-1V10c0-4.4-3.6-8-8-8H44z"></path></g></svg>