<svg xmlns="http://www.w3.org/2000/svg" height="64" width="64" viewBox="0 0 64 64"><title>makeup 2</title><g stroke-linecap="round" fill="#61616b" stroke-linejoin="round" class="nc-icon-wrapper"><path d="M29,49h1l2,3h9l2-3H59v5a5,5,0,0,1-5,5H29" fill="none" stroke="#61616b" stroke-width="2"></path><polyline points="9 19 8.999 8 19 10 19 19" fill="none" stroke="#61616b" stroke-width="2" data-color="color-2"></polyline><polygon points="23 32.001 5.049 32 5 59 22.999 59 23 32.001" fill="none" stroke="#61616b" stroke-width="2" data-cap="butt"></polygon><line x1="23" y1="49" x2="5" y2="49" fill="none" stroke="#61616b" stroke-width="2" data-cap="butt"></line><polyline points="21 32 21 24.001 7 24 7 31.999" fill="none" stroke="#61616b" stroke-width="2"></polyline><path d="M46,49h-.621A23,23,0,1,0,24,8.377" fill="none" stroke="#61616b" stroke-width="2" data-cap="butt"></path><path d="M27,13.6a17,17,0,1,1,2,29.879L42.891,29.585" fill="none" stroke="#61616b" stroke-width="2" data-color="color-2"></path><line x1="38.647" y1="25.343" x2="29" y2="34.991" fill="none" stroke="#61616b" stroke-width="2" data-color="color-2"></line></g></svg>