<svg xmlns="http://www.w3.org/2000/svg" height="32" width="32" viewBox="0 0 32 32"><title>makeup 4</title><g stroke-linecap="round" fill="#61616b" stroke-linejoin="round" class="nc-icon-wrapper"><path d="M19,26H31v2a3,3,0,0,1-3,3H16" fill="none" stroke="#61616b" stroke-width="2"></path><polyline points="3 10 3 2 9.999 3 10 10" fill="none" stroke="#61616b" stroke-width="2" data-color="color-2"></polyline><rect x="1" y="14" width="11" height="17" fill="none" stroke="#61616b" stroke-width="2" data-cap="butt"></rect><line x1="12" y1="25" x2="1" y2="24.999" fill="none" stroke="#61616b" stroke-width="2" data-cap="butt"></line><path d="M16,25.733A12.179,12.179,0,0,0,18.5,26a12.5,12.5,0,0,0,0-25,12.347,12.347,0,0,0-4.5.862" fill="none" stroke="#61616b" stroke-width="2"></path><path d="M16,21.625A8.5,8.5,0,1,0,14,6.3" fill="none" stroke="#61616b" stroke-width="2" data-color="color-2"></path></g></svg>