<svg xmlns="http://www.w3.org/2000/svg" height="24" width="24" viewBox="0 0 24 24"><title>needle</title><g stroke-linecap="round" fill="#61616b" stroke-linejoin="round" class="nc-icon-wrapper"><path fill="none" stroke="#61616b" stroke-width="2" d="M2.3,19.6L15.7,2.8 C17,1.2,19.5,1,20.9,2.5l0,0c1.5,1.5,1.3,3.9-0.3,5.2L3.8,21.2C2.8,22,1.5,20.6,2.3,19.6z"></path> <line data-color="color-2" fill="none" stroke="#61616b" stroke-width="2" x1="17.1" y1="6.4" x2="18.2" y2="5.3"></line> <line data-cap="butt" fill="none" stroke="#61616b" stroke-width="2" x1="10.1" y1="16.2" x2="16.4" y2="22.5"></line> <path data-cap="butt" fill="none" stroke="#61616b" stroke-width="2" d="M19.9,8.3l0.9,0.9 c1.2,1.2,1.2,3.2,0,4.4l0,0c-1.2,1.2-3.2,1.2-4.4,0L8.7,5.9c-1.2-1.2-3.2-1.2-4.4,0l0,0C3,7.2,3,9.1,4.3,10.4l3,3"></path></g></svg>