<svg xmlns="http://www.w3.org/2000/svg" height="64" width="64" viewBox="0 0 64 64"><title>needle 2</title><g stroke-linecap="round" fill="#61616b" stroke-linejoin="round" class="nc-icon-wrapper"><path fill="none" stroke="#61616b" stroke-width="2" d="M5.2,53L42.3,6.6 c3.6-4.5,10.3-4.9,14.3-0.8l0,0c4.1,4.1,3.7,10.8-0.8,14.3L9.5,57.3C6.6,59.6,2.9,55.9,5.2,53z"></path> <line data-cap="butt" fill="none" stroke="#61616b" stroke-width="2" x1="26.7" y1="43.5" x2="44.2" y2="61"></line> <path data-cap="butt" fill="none" stroke="#61616b" stroke-width="2" d="M47,15l9.4,9.4c3.4,3.4,3.4,8.8,0,12.2 l0,0c-3.4,3.4-8.8,3.4-12.2,0L22.9,15.3c-3.4-3.4-8.8-3.4-12.2,0l0,0c-3.4,3.4-3.4,8.8,0,12.2l8.3,8.3"></path> <line data-cap="butt" fill="none" stroke="#61616b" stroke-width="2" x1="34.5" y1="2.5" x2="40.7" y2="8.7"></line> <line data-color="color-2" fill="none" stroke="#61616b" stroke-width="2" x1="45" y1="17" x2="49" y2="13"></line></g></svg>