<svg xmlns="http://www.w3.org/2000/svg" height="32" width="32" viewBox="0 0 32 32"><title>needle 4</title><g stroke-linecap="round" fill="#61616b" stroke-linejoin="round" class="nc-icon-wrapper"><path fill="none" stroke="#61616b" stroke-width="2" d=" M2.6,26.5L21.2,3.3c1.8-2.2,5.1-2.4,7.2-0.4l0,0c2,2,1.8,5.4-0.4,7.2L4.7,28.7C3.3,29.8,1.5,27.9,2.6,26.5z"></path> <line data-color="color-2" fill="none" stroke="#61616b" stroke-width="2" x1="23" y1="8" x2="24" y2="7"></line> <line data-cap="butt" fill="none" stroke="#61616b" stroke-width="2" x1="13.4" y1="21.8" x2="22.1" y2="30.5"></line> <path data-cap="butt" fill="none" stroke="#61616b" stroke-width="2" d="M26.9,10.9l1.3,1.3 c1.7,1.7,1.7,4.4,0,6.1l0,0c-1.7,1.7-4.4,1.7-6.1,0L11.4,7.6C9.7,5.9,7,5.9,5.3,7.6l0,0c-1.7,1.7-1.7,4.4,0,6.1l4.2,4.2"></path></g></svg>