<svg xmlns="http://www.w3.org/2000/svg" height="48" width="48" viewBox="0 0 48 48"><title>needle 3</title><g stroke-linecap="round" fill="#61616b" stroke-linejoin="round" class="nc-icon-wrapper"><path fill="none" stroke="#61616b" stroke-width="2" d="M4.6,39.2L31.5,5.6 c2.6-3.3,7.4-3.5,10.4-0.6l0,0c2.9,2.9,2.7,7.8-0.6,10.4L7.7,42.3C5.6,44,2.9,41.3,4.6,39.2z"></path> <line data-cap="butt" fill="none" stroke="#61616b" stroke-width="2" x1="20.2" y1="32.3" x2="32.8" y2="45"></line> <path data-cap="butt" fill="none" stroke="#61616b" stroke-width="2" d="M35.1,11.9l6.6,6.6 c2.4,2.4,2.4,6.4,0,8.8l0,0c-2.4,2.4-6.4,2.4-8.8,0L17.4,11.9c-2.4-2.4-6.4-2.4-8.8,0l0,0c-2.4,2.4-2.4,6.4,0,8.8l6,6"></path> <line data-cap="butt" fill="none" stroke="#61616b" stroke-width="2" x1="27.1" y1="3.9" x2="30.3" y2="7.1"></line> <line data-color="color-2" fill="none" stroke="#61616b" stroke-width="2" x1="34.1" y1="12.8" x2="36.4" y2="10.6"></line></g></svg>