<svg xmlns="http://www.w3.org/2000/svg" height="24" width="24" viewBox="0 0 24 24"><title>pilgrim hat 5</title><g stroke-linecap="round" fill="#61616b" stroke-linejoin="round" class="nc-icon-wrapper"><path d="M5.5,9.408c0,1.153,1.895,2.128,4.5,2.465" fill="none" stroke="#61616b" stroke-width="2" data-cap="butt" data-color="color-2"></path><path d="M14,11.873c2.605-.337,4.5-1.313,4.5-2.465" fill="none" stroke="#61616b" stroke-width="2" data-cap="butt" data-color="color-2"></path><ellipse cx="12" cy="3" rx="5" ry="2" fill="none" stroke="#61616b" stroke-width="2"></ellipse><path d="M7.017,2.839,4.03,15.778A1.2,1.2,0,0,0,4,16c0,1.657,3.582,3,8,3s8-1.343,8-3a1.2,1.2,0,0,0-.03-.222L16.984,2.839" fill="none" stroke="#61616b" stroke-width="2" data-cap="butt"></path><path d="M4.344,14.418C2.287,15.326,1,16.593,1,18c0,2.761,4.925,5,11,5s11-2.239,11-5c0-1.407-1.287-2.674-3.344-3.582" fill="none" stroke="#61616b" stroke-width="2" data-cap="butt"></path><rect x="10" y="10" width="4" height="4" fill="none" stroke="#61616b" stroke-width="2" data-color="color-2"></rect></g></svg>