<svg xmlns="http://www.w3.org/2000/svg" height="32" width="32" viewBox="0 0 32 32"><title>pilgrim hat 4</title><g stroke-linecap="round" fill="#61616b" stroke-linejoin="round" class="nc-icon-wrapper"><path d="M7.034,12.16c0,1.5,2.025,2.8,4.966,3.433" fill="none" stroke="#61616b" stroke-width="2" data-cap="butt" data-color="color-2"></path><path d="M20,15.593c2.942-.63,4.969-1.929,4.969-3.433" fill="none" stroke="#61616b" stroke-width="2" data-cap="butt" data-color="color-2"></path><ellipse cx="16" cy="4" rx="7" ry="3" fill="none" stroke="#61616b" stroke-width="2"></ellipse><path d="M9.027,3.741,5.078,20.427A2.314,2.314,0,0,0,5,21c0,2.761,4.925,5,11,5s11-2.239,11-5a4.314,4.314,0,0,0-.072-.573L22.974,3.741" fill="none" stroke="#61616b" stroke-width="2" data-cap="butt"></path><path d="M5.317,19.413C2.658,20.643,1,22.321,1,24.182,1,27.947,7.716,31,16,31s15-3.053,15-6.818c0-1.859-1.656-3.536-4.311-4.766" fill="none" stroke="#61616b" stroke-width="2" data-cap="butt"></path><rect x="12" y="13" width="8" height="6" fill="none" stroke="#61616b" stroke-width="2" data-color="color-2"></rect></g></svg>