<svg xmlns="http://www.w3.org/2000/svg" height="64" width="64" viewBox="0 0 64 64"><title>pilgrim hat 2</title><g stroke-linecap="round" fill="#61616b" stroke-linejoin="round" class="nc-icon-wrapper"><path d="M39,31.365c6.1-1.152,10.375-3.755,10.375-6.787" fill="none" stroke="#61616b" stroke-width="2" data-cap="butt" data-color="color-2"></path><path d="M14.623,24.578c0,3.032,4.281,5.635,10.377,6.787" fill="none" stroke="#61616b" stroke-width="2" data-cap="butt" data-color="color-2"></path><path d="M11.6,38.761C6.292,41.118,3,44.386,3,48c0,7.18,12.984,13,29,13s29-5.82,29-13c0-3.614-3.292-6.883-8.6-9.239" fill="none" stroke="#61616b" stroke-width="2" data-cap="butt"></path><rect x="25" y="27" width="14" height="10" fill="none" stroke="#61616b" stroke-width="2" data-color="color-2"></rect><path d="M18.046,8.513,11.091,41.16A7.3,7.3,0,0,0,11,42c0,4.971,9.4,9,21,9s21-4.029,21-9a7.3,7.3,0,0,0-.091-.84L45.952,8.513" fill="none" stroke="#61616b" stroke-width="2" data-cap="butt"></path><ellipse cx="32" cy="9" rx="14" ry="6" fill="none" stroke="#61616b" stroke-width="2"></ellipse></g></svg>