<svg xmlns="http://www.w3.org/2000/svg" height="48" width="48" viewBox="0 0 48 48"><title>pilgrim hat 3</title><g stroke-linecap="round" fill="#61616b" stroke-linejoin="round" class="nc-icon-wrapper"><path d="M9.646,28.425C4.966,30.259,2,32.971,2,36c0,5.523,9.85,10,22,10s22-4.477,22-10c0-3.033-2.974-5.748-7.665-7.582" fill="none" stroke="#61616b" stroke-width="2" data-cap="butt"></path><path d="M29,23.583c4.426-.771,7.531-2.532,7.531-4.583" fill="none" stroke="#61616b" stroke-width="2" data-cap="butt" data-color="color-2"></path><path d="M11.464,19c0,2.05,3.107,3.81,7.531,4.581" fill="none" stroke="#61616b" stroke-width="2" data-cap="butt" data-color="color-2"></path><path d="M14.034,5.679,9.024,31.648S9,31.881,9,32c0,3.314,6.716,6,15,6s15-2.686,15-6a2.454,2.454,0,0,0-.044-.352L33.968,5.679" fill="none" stroke="#61616b" stroke-width="2" data-cap="butt"></path><ellipse cx="24" cy="6" rx="10" ry="4" fill="none" stroke="#61616b" stroke-width="2"></ellipse><rect x="19" y="20" width="10" height="8" fill="none" stroke="#61616b" stroke-width="2" data-color="color-2"></rect></g></svg>