<svg xmlns="http://www.w3.org/2000/svg" height="64" width="64" viewBox="0 0 64 64"><title>scarf 3</title><g stroke-linecap="round" fill="#61616b" stroke-linejoin="round" class="nc-icon-wrapper"><line data-color="color-2" fill="none" stroke="#61616b" stroke-width="2" x1="6" y1="58" x2="6" y2="62"></line> <line data-color="color-2" fill="none" stroke="#61616b" stroke-width="2" x1="16" y1="58" x2="16" y2="62"></line> <line data-color="color-2" fill="none" stroke="#61616b" stroke-width="2" x1="24" y1="58" x2="24" y2="62"></line> <line data-color="color-2" fill="none" stroke="#61616b" stroke-width="2" x1="34" y1="58" x2="34" y2="62"></line> <line data-color="color-2" fill="none" stroke="#61616b" stroke-width="2" x1="30" y1="2" x2="30" y2="6"></line> <line data-color="color-2" fill="none" stroke="#61616b" stroke-width="2" x1="40" y1="2" x2="40" y2="6"></line> <line data-color="color-2" fill="none" stroke="#61616b" stroke-width="2" x1="48" y1="2" x2="48" y2="6"></line> <line data-color="color-2" fill="none" stroke="#61616b" stroke-width="2" x1="58" y1="2" x2="58" y2="6"></line> <line data-cap="butt" fill="none" stroke="#61616b" stroke-width="2" x1="34" y1="38" x2="52" y2="38"></line> <path fill="none" stroke="#61616b" stroke-width="2" d="M40,24h-6H12 c-3.3,0-6,2.7-6,6v28h28V30C34,26.7,36.7,24,40,24z"></path> <path fill="none" stroke="#61616b" stroke-width="2" d="M40,24L40,24 c3.3,0,6,2.7,6,6v2c0,3.3,2.7,6,6,6h0c3.3,0,6-2.7,6-6V6H30v18"></path></g></svg>