<svg xmlns="http://www.w3.org/2000/svg" height="24" width="24" viewBox="0 0 24 24"><title>scarf</title><g stroke-linecap="round" fill="#61616b" stroke-linejoin="round" class="nc-icon-wrapper"><line data-color="color-2" fill="none" stroke="#61616b" stroke-width="2" x1="3" y1="21" x2="3" y2="23"></line> <line data-color="color-2" fill="none" stroke="#61616b" stroke-width="2" x1="8" y1="21" x2="8" y2="23"></line> <line data-color="color-2" fill="none" stroke="#61616b" stroke-width="2" x1="13" y1="21" x2="13" y2="23"></line> <line data-color="color-2" fill="none" stroke="#61616b" stroke-width="2" x1="11" y1="1" x2="11" y2="3"></line> <line data-color="color-2" fill="none" stroke="#61616b" stroke-width="2" x1="16" y1="1" x2="16" y2="3"></line> <line data-color="color-2" fill="none" stroke="#61616b" stroke-width="2" x1="21" y1="1" x2="21" y2="3"></line> <line data-cap="butt" fill="none" stroke="#61616b" stroke-width="2" x1="13" y1="14" x2="19" y2="14"></line> <path fill="none" stroke="#61616b" stroke-width="2" d="M15,9h-3H5 c-1.1,0-2,0.9-2,2v10h10v-7v-3C13,9.9,13.9,9,15,9z"></path> <path fill="none" stroke="#61616b" stroke-width="2" d="M21,9v3c0,1.1-0.9,2-2,2h0 c-1.1,0-2-0.9-2-2v-1c0-1.1-0.9-2-2-2"></path> <polyline fill="none" stroke="#61616b" stroke-width="2" points="11,9 11,3 21,3 21,9 "></polyline></g></svg>