<svg xmlns="http://www.w3.org/2000/svg" height="48" width="48" viewBox="0 0 48 48"><title>scarf 4</title><g stroke-linecap="round" fill="#61616b" stroke-linejoin="round" class="nc-icon-wrapper"><line data-color="color-2" fill="none" stroke="#61616b" stroke-width="2" x1="6" y1="42" x2="6" y2="46"></line> <line data-color="color-2" fill="none" stroke="#61616b" stroke-width="2" x1="16" y1="42" x2="16" y2="46"></line> <line data-color="color-2" fill="none" stroke="#61616b" stroke-width="2" x1="26" y1="42" x2="26" y2="46"></line> <line data-color="color-2" fill="none" stroke="#61616b" stroke-width="2" x1="22" y1="2" x2="22" y2="6"></line> <line data-color="color-2" fill="none" stroke="#61616b" stroke-width="2" x1="32" y1="2" x2="32" y2="6"></line> <line data-color="color-2" fill="none" stroke="#61616b" stroke-width="2" x1="42" y1="2" x2="42" y2="6"></line> <line data-cap="butt" fill="none" stroke="#61616b" stroke-width="2" x1="26" y1="28" x2="38" y2="28"></line> <path fill="none" stroke="#61616b" stroke-width="2" d="M30,18h-6H10 c-2.2,0-4,1.8-4,4v20h20V28v-6C26,19.8,27.8,18,30,18z"></path> <path fill="none" stroke="#61616b" stroke-width="2" d="M42,18v6c0,2.2-1.8,4-4,4h0 c-2.2,0-4-1.8-4-4v-2c0-2.2-1.8-4-4-4"></path> <polyline fill="none" stroke="#61616b" stroke-width="2" points="22,18 22,6 42,6 42,18 "></polyline></g></svg>