<svg xmlns="http://www.w3.org/2000/svg" height="32" width="32" viewBox="0 0 32 32"><title>scarf 5</title><g stroke-linecap="round" fill="#61616b" stroke-linejoin="round" class="nc-icon-wrapper"><line data-color="color-2" fill="none" stroke="#61616b" stroke-width="2" x1="3" y1="29" x2="3" y2="31"></line> <line data-color="color-2" fill="none" stroke="#61616b" stroke-width="2" x1="8" y1="29" x2="8" y2="31"></line> <line data-color="color-2" fill="none" stroke="#61616b" stroke-width="2" x1="12" y1="29" x2="12" y2="31"></line> <line data-color="color-2" fill="none" stroke="#61616b" stroke-width="2" x1="17" y1="29" x2="17" y2="31"></line> <line data-color="color-2" fill="none" stroke="#61616b" stroke-width="2" x1="15" y1="1" x2="15" y2="3"></line> <line data-color="color-2" fill="none" stroke="#61616b" stroke-width="2" x1="20" y1="1" x2="20" y2="3"></line> <line data-color="color-2" fill="none" stroke="#61616b" stroke-width="2" x1="24" y1="1" x2="24" y2="3"></line> <line data-color="color-2" fill="none" stroke="#61616b" stroke-width="2" x1="29" y1="1" x2="29" y2="3"></line> <line data-cap="butt" fill="none" stroke="#61616b" stroke-width="2" x1="17" y1="19" x2="26" y2="19"></line> <path fill="none" stroke="#61616b" stroke-width="2" d="M20,12h-3H6 c-1.7,0-3,1.3-3,3v14h14V15C17,13.3,18.3,12,20,12z"></path> <path fill="none" stroke="#61616b" stroke-width="2" d="M20,12L20,12 c1.7,0,3,1.3,3,3v1c0,1.7,1.3,3,3,3h0c1.7,0,3-1.3,3-3V3H15v9"></path></g></svg>