<svg xmlns="http://www.w3.org/2000/svg" height="48" width="48" viewBox="0 0 48 48"><title>slacks 13 3</title><g stroke-linecap="round" fill="#61616b" stroke-linejoin="round" class="nc-icon-wrapper"><line data-color="color-2" fill="none" stroke="#61616b" stroke-width="2" x1="4" y1="8" x2="44" y2="8"></line> <line data-color="color-2" fill="none" stroke="#61616b" stroke-width="2" x1="24" y1="8" x2="24" y2="18"></line> <path data-color="color-2" fill="none" stroke="#61616b" stroke-width="2" d="M36,14v2 c0,4.4,3.6,8,8,8h0"></path> <path data-color="color-2" fill="none" stroke="#61616b" stroke-width="2" d="M12,14v2 c0,4.4-3.6,8-8,8h0"></path> <line data-color="color-2" fill="none" stroke="#61616b" stroke-width="2" x1="20" y1="2" x2="20" y2="8"></line> <line data-color="color-2" fill="none" stroke="#61616b" stroke-width="2" x1="28" y1="2" x2="28" y2="8"></line> <path fill="none" stroke="#61616b" stroke-width="2" d="M4,2v44h17V29 c0-1.7,1.3-3,3-3h0c1.7,0,3,1.3,3,3v17h17V2H4z"></path></g></svg>