<svg xmlns="http://www.w3.org/2000/svg" height="24" width="24" viewBox="0 0 24 24"><title>slippers 5</title><g stroke-linecap="round" fill="#61616b" stroke-linejoin="round" class="nc-icon-wrapper"><path d="M21.384,14.911a5.96,5.96,0,0,0-6.405-1.554" fill="none" stroke="#61616b" stroke-width="2" data-cap="butt" data-color="color-2"></path><path d="M21.386,14.914a5.97,5.97,0,0,0-6.89-1.361" fill="none" stroke="#61616b" stroke-width="2" data-cap="butt" data-color="color-2"></path><path d="M14,8.523a8.935,8.935,0,0,1,8.9,1.693" fill="none" stroke="#61616b" stroke-width="2" data-cap="butt" data-color="color-2"></path><path d="M21.386,14.914a5.97,5.97,0,0,0-6.89-1.361" fill="none" stroke="#61616b" stroke-width="2" data-cap="butt" data-color="color-2"></path><path d="M2.617,11.911a5.96,5.96,0,0,1,6.405-1.554" fill="none" stroke="#61616b" stroke-width="2" data-cap="butt"></path><path d="M2.615,11.914a5.97,5.97,0,0,1,6.89-1.361" fill="none" stroke="#61616b" stroke-width="2" data-cap="butt"></path><path d="M10,5.523A8.935,8.935,0,0,0,1.1,7.216" fill="none" stroke="#61616b" stroke-width="2" data-cap="butt"></path><path d="M2.615,11.914a5.97,5.97,0,0,1,6.89-1.361" fill="none" stroke="#61616b" stroke-width="2" data-cap="butt"></path><path d="M10,5.5c0,2.38-.5,2.5-.5,5.561,0,2.94.528,3.67.5,5.939a3,3,0,0,1-5.836.982c-.733-1.873-.576-3-1.414-5.668C1.984,9.875,1,8.4,1,6,1,3.515,3.582,1.222,6.3,1,8.459.823,10,2,10,5.5Z" fill="none" stroke="#61616b" stroke-width="2"></path><path d="M14,8.5c0,2.38.5,2.5.5,5.561,0,2.94-.529,3.67-.5,5.939a3,3,0,0,0,5.836.982c.733-1.873.576-3,1.414-5.668C22.017,12.875,23,11.4,23,9c0-2.485-2.582-4.778-5.3-5C15.542,3.823,14,5,14,8.5Z" fill="none" stroke="#61616b" stroke-width="2" data-color="color-2"></path></g></svg>