<svg xmlns="http://www.w3.org/2000/svg" height="48" width="48" viewBox="0 0 48 48"><title>slippers 3</title><g stroke-linecap="round" fill="#61616b" stroke-linejoin="round" class="nc-icon-wrapper"><path d="M5.235,23.823a11.916,11.916,0,0,1,12.809-3.109" fill="none" stroke="#61616b" stroke-width="2" data-cap="butt"></path><path d="M5.229,23.829a11.938,11.938,0,0,1,13.782-2.722" fill="none" stroke="#61616b" stroke-width="2" data-cap="butt"></path><path d="M20,11.046A17.869,17.869,0,0,0,2.2,14.432" fill="none" stroke="#61616b" stroke-width="2" data-cap="butt"></path><path d="M42.767,29.823a11.916,11.916,0,0,0-12.809-3.109" fill="none" stroke="#61616b" stroke-width="2" data-cap="butt" data-color="color-2"></path><path d="M42.773,29.829a11.938,11.938,0,0,0-13.782-2.722" fill="none" stroke="#61616b" stroke-width="2" data-cap="butt" data-color="color-2"></path><path d="M28,17.046a17.869,17.869,0,0,1,17.8,3.386" fill="none" stroke="#61616b" stroke-width="2" data-cap="butt" data-color="color-2"></path><path d="M42.772,29.828a11.94,11.94,0,0,0-13.78-2.722" fill="none" stroke="#61616b" stroke-width="2" data-cap="butt" data-color="color-2"></path><circle cx="14" cy="34" r="2" fill="#61616b" data-stroke="none" stroke="none"></circle><circle cx="34" cy="40" r="2" fill="#61616b" data-color="color-2" data-stroke="none" stroke="none"></circle><path d="M20,11c0,4.76-1,5-1,11.123C19,28,20.055,29.461,20,34A6,6,0,0,1,8.329,35.964c-1.467-3.746-1.154-6-2.829-11.336C3.968,19.75,2,16.805,2,12,2,7.031,7.165,2.445,12.6,2,16.918,1.647,20,4,20,11Z" fill="none" stroke="#61616b" stroke-width="2"></path><path d="M28,17c0,4.76,1,5,1,11.123C29,34,27.947,35.461,28,40a6,6,0,0,0,11.671,1.964c1.467-3.746,1.154-6,2.829-11.336C44.034,25.75,46,22.805,46,18c0-4.969-5.165-9.555-10.6-10C31.084,7.647,28,10,28,17Z" fill="none" stroke="#61616b" stroke-width="2" data-color="color-2"></path></g></svg>