<svg xmlns="http://www.w3.org/2000/svg" height="16" width="16" viewBox="0 0 16 16"><title>slippers</title><g fill="#61616b" class="nc-icon-wrapper"><path d="M6.5,11.5a2,2,0,0,1-3.894.643c-.489-1.28-.381-2.074-.94-3.9C1.156,6.579.5,5.572.5,3.93A3.838,3.838,0,0,1,4.033.512C5.472.391,6.5,1.2,6.5,3.588c0,1.627-.333,1.711-.333,3.8C6.166,9.4,6.518,9.949,6.5,11.5Z" fill="none" stroke="#61616b" stroke-linecap="round" stroke-linejoin="round"></path><path d="M6.5,3.815A6.472,6.472,0,0,0,.575,4.827" fill="none" stroke="#61616b" stroke-linecap="round" stroke-linejoin="round"></path><path d="M1.5,7.74a4.249,4.249,0,0,1,4.675-.9" fill="none" stroke="#61616b" stroke-linecap="round" stroke-linejoin="round"></path><path d="M9.5,13.5a2,2,0,0,0,3.894.643c.489-1.28.381-2.074.94-3.9C14.844,8.579,15.5,7.572,15.5,5.93a3.838,3.838,0,0,0-3.533-3.418C10.528,2.391,9.5,3.2,9.5,5.588c0,1.627.333,1.711.333,3.8C9.834,11.4,9.482,11.949,9.5,13.5Z" fill="none" stroke="#61616b" stroke-linecap="round" stroke-linejoin="round" data-color="color-2"></path><path d="M9.5,5.815a6.472,6.472,0,0,1,5.921,1.012" fill="none" stroke="#61616b" stroke-linecap="round" stroke-linejoin="round" data-color="color-2"></path><path d="M14.5,9.74a4.249,4.249,0,0,0-4.675-.9" fill="none" stroke="#61616b" stroke-linecap="round" stroke-linejoin="round" data-color="color-2"></path></g></svg>