<svg xmlns="http://www.w3.org/2000/svg" height="24" width="24" viewBox="0 0 24 24"><title>sports tank</title><g stroke-linecap="round" fill="#61616b" stroke-linejoin="round" class="nc-icon-wrapper"><line data-cap="butt" x1="2" y1="19" x2="22" y2="19" fill="none" stroke="#61616b" stroke-width="2"></line> <path d="M22,9a12,12,0,0,1-3-8H16A4,4,0,0,1,8,1H5A12,12,0,0,1,2,9V23H22Z" fill="none" stroke="#61616b" stroke-width="2"></path> <path data-color="color-2" data-stroke="none" d="M12.023,7.694a3.544,3.544,0,0,1,2.107.545,1.8,1.8,0,0,1,.753,1.547,2.043,2.043,0,0,1-.355,1.193,2.882,2.882,0,0,1-1.122.893,4.213,4.213,0,0,1,1.339,1.075,1.929,1.929,0,0,1,.39,1.157,2.094,2.094,0,0,1-.826,1.77A3.748,3.748,0,0,1,12,16.5a3.759,3.759,0,0,1-2.314-.612,2.08,2.08,0,0,1-.8-1.761,2.2,2.2,0,0,1,.357-1.269,3.136,3.136,0,0,1,1.2-.952,3.212,3.212,0,0,1-.993-.981,2.205,2.205,0,0,1-.313-1.152A1.776,1.776,0,0,1,9.9,8.242,3.6,3.6,0,0,1,12.023,7.694ZM11,14.034a.727.727,0,0,0,.258.583,1.065,1.065,0,0,0,.715.22q1.031,0,1.031-.756a.89.89,0,0,0-.226-.565,3.093,3.093,0,0,0-.8-.624,2.413,2.413,0,0,0-.748.553A.924.924,0,0,0,11,14.034Zm1.008-4.67a.756.756,0,0,0-.5.173.558.558,0,0,0-.2.448q0,.5.685.891a1.98,1.98,0,0,0,.569-.439.729.729,0,0,0,.152-.452.556.556,0,0,0-.205-.451A.749.749,0,0,0,12.012,9.364Z" fill="#61616b" stroke="none"></path></g></svg>