<svg xmlns="http://www.w3.org/2000/svg" height="64" width="64" viewBox="0 0 64 64"><title>sports tank 2</title><g stroke-linecap="round" fill="#61616b" stroke-linejoin="round" class="nc-icon-wrapper"><line data-cap="butt" data-color="color-2" x1="7" y1="54" x2="57" y2="54" fill="none" stroke="#61616b" stroke-width="2"></line> <path d="M49,2H44A12,12,0,0,1,20,2H15c0,8.3-2.1,18.1-8,24V62H57V26C51,20.1,49,10.3,49,2Z" fill="none" stroke="#61616b" stroke-width="2"></path> <path data-color="color-2" d="M32,46c-3.452,0-5.952-1.91-5.952-4.239s1.607-4,5.967-6.268,5.1-4.538,5.1-5.553S36.972,26,32,26s-5.119,2.925-5.119,3.94.743,3.284,5.1,5.553,5.967,3.94,5.967,6.268S35.452,46,32,46Z" fill="none" stroke="#61616b" stroke-width="2"></path></g></svg>