<svg xmlns="http://www.w3.org/2000/svg" height="48" width="48" viewBox="0 0 48 48"><title>sports tank 3</title><g stroke-linecap="round" fill="#61616b" stroke-linejoin="round" class="nc-icon-wrapper"><line data-color="color-2" x1="5" y1="40" x2="43" y2="40" fill="none" stroke="#61616b" stroke-width="2"></line> <path d="M43,18c-3.7-4.2-5-9.9-5-16H32A8,8,0,0,1,16,2H10c0,6.1-1.3,11.8-5,16V46H43Z" fill="none" stroke="#61616b" stroke-width="2"></path> <path data-color="color-2" d="M24,33c-2.417,0-4.167-1.337-4.167-2.967s1.125-2.8,4.178-4.388,3.572-3.176,3.572-3.887S27.48,19,24,19s-3.583,2.048-3.583,2.758.52,2.3,3.572,3.887,4.178,2.758,4.178,4.388S26.417,33,24,33Z" fill="none" stroke="#61616b" stroke-width="2"></path></g></svg>