<svg xmlns="http://www.w3.org/2000/svg" height="64" width="64" viewBox="0 0 64 64"><title>tie bow 3</title><g stroke-linecap="round" fill="#61616b" stroke-linejoin="round" class="nc-icon-wrapper"><line data-color="color-2" fill="none" stroke="#61616b" stroke-width="2" x1="38" y1="32" x2="46" y2="32"></line> <line data-color="color-2" fill="none" stroke="#61616b" stroke-width="2" x1="26" y1="32" x2="18" y2="32"></line> <path data-cap="butt" fill="none" stroke="#61616b" stroke-width="2" d="M37.6,23.8L53.1,15 c4-2.3,8.9,0.6,8.9,5.2v23.5c0,4.6-4.9,7.5-8.9,5.2l-15.5-8.7"></path> <path data-cap="butt" fill="none" stroke="#61616b" stroke-width="2" d="M26.4,23.7L10.9,15 c-4-2.2-8.9,0.6-8.9,5.2v23.5c0,4.6,4.9,7.5,8.9,5.2l15.5-8.7"></path> <path fill="none" stroke="#61616b" stroke-width="2" d="M32,44L32,44 c-3.3,0-6-2.7-6-6V26c0-3.3,2.7-6,6-6h0c3.3,0,6,2.7,6,6v12C38,41.3,35.3,44,32,44z"></path></g></svg>