<svg xmlns="http://www.w3.org/2000/svg" height="32" width="32" viewBox="0 0 32 32"><title>tie bow 5</title><g stroke-linecap="round" fill="#61616b" stroke-linejoin="round" class="nc-icon-wrapper"><line data-color="color-2" fill="none" stroke="#61616b" stroke-width="2" x1="19" y1="16" x2="23" y2="16"></line> <line data-color="color-2" fill="none" stroke="#61616b" stroke-width="2" x1="13" y1="16" x2="9" y2="16"></line> <path data-cap="butt" fill="none" stroke="#61616b" stroke-width="2" d="M18.8,11.9l7.7-4.4 c2-1.1,4.5,0.3,4.5,2.6v11.7c0,2.3-2.5,3.7-4.5,2.6l-7.7-4.4"></path> <path data-cap="butt" fill="none" stroke="#61616b" stroke-width="2" d="M13.2,11.9L5.5,7.5 C3.5,6.4,1,7.8,1,10.1v11.7c0,2.3,2.5,3.7,4.5,2.6l7.7-4.4"></path> <path fill="none" stroke="#61616b" stroke-width="2" d="M16,22L16,22 c-1.7,0-3-1.3-3-3v-6c0-1.7,1.3-3,3-3h0c1.7,0,3,1.3,3,3v6C19,20.7,17.7,22,16,22z"></path></g></svg>