<svg xmlns="http://www.w3.org/2000/svg" height="24" width="24" viewBox="0 0 24 24"><title>tie bow</title><g stroke-linecap="round" fill="#61616b" stroke-linejoin="round" class="nc-icon-wrapper"><line data-color="color-2" fill="none" stroke="#61616b" stroke-width="2" x1="14" y1="12" x2="17" y2="12"></line> <line data-color="color-2" fill="none" stroke="#61616b" stroke-width="2" x1="10" y1="12" x2="7" y2="12"></line> <path data-cap="butt" fill="none" stroke="#61616b" stroke-width="2" d="M13.8,9.1L20,5.7c1.3-0.7,3,0.2,3,1.7 v9.2c0,1.5-1.6,2.5-3,1.7l-6.2-3.5"></path> <path data-cap="butt" fill="none" stroke="#61616b" stroke-width="2" d="M10.2,9.1L4,5.7C2.6,4.9,1,5.9,1,7.4 v9.2c0,1.5,1.6,2.5,3,1.7l6.2-3.5"></path> <path fill="none" stroke="#61616b" stroke-width="2" d="M12,16L12,16 c-1.1,0-2-0.9-2-2v-4c0-1.1,0.9-2,2-2h0c1.1,0,2,0.9,2,2v4C14,15.1,13.1,16,12,16z"></path></g></svg>