<svg xmlns="http://www.w3.org/2000/svg" height="24" width="24" viewBox="0 0 24 24"><title>tshirt sport</title><g stroke-linecap="round" fill="#61616b" stroke-linejoin="round" class="nc-icon-wrapper"><path data-cap="butt" d="M19,13h4V5a4,4,0,0,0-4-4H16A4,4,0,0,1,8,1H5A4,4,0,0,0,1,5v8H5" fill="none" stroke="#61616b" stroke-width="2"></path> <path d="M5,10V23H19V10" fill="none" stroke="#61616b" stroke-width="2"></path> <path data-color="color-2" data-stroke="none" d="M12.015,9.311a3.543,3.543,0,0,1,2.106.544,1.8,1.8,0,0,1,.753,1.547A2.049,2.049,0,0,1,14.52,12.6a2.884,2.884,0,0,1-1.123.893,4.215,4.215,0,0,1,1.339,1.075,1.932,1.932,0,0,1,.39,1.158A2.091,2.091,0,0,1,14.3,17.49a3.748,3.748,0,0,1-2.309.627,3.759,3.759,0,0,1-2.314-.612,2.082,2.082,0,0,1-.8-1.761,2.2,2.2,0,0,1,.357-1.268,3.133,3.133,0,0,1,1.2-.953,3.194,3.194,0,0,1-.994-.981,2.2,2.2,0,0,1-.313-1.151,1.776,1.776,0,0,1,.768-1.533A3.6,3.6,0,0,1,12.015,9.311ZM11,15.65a.726.726,0,0,0,.258.583,1.065,1.065,0,0,0,.715.22Q13,16.453,13,15.7a.89.89,0,0,0-.226-.565,3.093,3.093,0,0,0-.8-.624,2.38,2.38,0,0,0-.747.554A.915.915,0,0,0,11,15.65ZM12,10.98a.758.758,0,0,0-.5.173.56.56,0,0,0-.205.449q0,.5.685.89a1.963,1.963,0,0,0,.569-.439A.726.726,0,0,0,12.7,11.6a.558.558,0,0,0-.205-.452A.749.749,0,0,0,12,10.98Z" fill="#61616b" stroke="none"></path></g></svg>