<svg xmlns="http://www.w3.org/2000/svg" height="48" width="48" viewBox="0 0 48 48"><title>tshirt sport 3</title><g stroke-linecap="round" fill="#61616b" stroke-linejoin="round" class="nc-icon-wrapper"><line data-cap="butt" x1="3" y1="19" x2="11" y2="19" fill="none" stroke="#61616b" stroke-width="2"></line> <line data-cap="butt" x1="37" y1="19" x2="45" y2="19" fill="none" stroke="#61616b" stroke-width="2"></line> <path d="M37,24h8V10a8.024,8.024,0,0,0-8-8H32A8,8,0,0,1,16,2H11a8.024,8.024,0,0,0-8,8V24h8" fill="none" stroke="#61616b" stroke-width="2"></path> <path d="M11,14V46H37V14" fill="none" stroke="#61616b" stroke-width="2"></path> <path data-color="color-2" d="M24.011,33c-2.417,0-4.167-1.337-4.167-2.967s1.125-2.8,4.177-4.388,3.573-3.176,3.573-3.887S27.491,19,24.011,19s-3.584,2.048-3.584,2.758.521,2.3,3.573,3.887,4.177,2.758,4.177,4.388S26.427,33,24.011,33Z" fill="none" stroke="#61616b" stroke-width="2"></path></g></svg>