<svg xmlns="http://www.w3.org/2000/svg" height="32" width="32" viewBox="0 0 32 32"><title>tshirt sport 4</title><g stroke-linecap="round" fill="#61616b" stroke-linejoin="round" class="nc-icon-wrapper"><line x1="7" y1="17" x2="7" y2="11" fill="none" stroke="#61616b" stroke-width="2"></line> <line x1="25" y1="17" x2="25" y2="11" fill="none" stroke="#61616b" stroke-width="2"></line> <path d="M21,1A5,5,0,0,1,11,1H7A6.018,6.018,0,0,0,1,7V17H7V31H25V17h6V7a6.018,6.018,0,0,0-6-6Z" fill="none" stroke="#61616b" stroke-width="2"></path> <path data-color="color-2" data-stroke="none" d="M16.007,13a4.063,4.063,0,0,1,2.481.7,2.23,2.23,0,0,1,.942,1.887,2.465,2.465,0,0,1-.455,1.462A3.864,3.864,0,0,1,17.51,18.2a5.2,5.2,0,0,1,1.726,1.345,2.5,2.5,0,0,1,.523,1.535A2.555,2.555,0,0,1,18.726,23.2a4.31,4.31,0,0,1-2.719.8,4.53,4.53,0,0,1-2.762-.748,2.482,2.482,0,0,1-1-2.117,2.807,2.807,0,0,1,.487-1.627,4.052,4.052,0,0,1,1.564-1.254,4,4,0,0,1-1.319-1.238,2.715,2.715,0,0,1-.4-1.444,2.217,2.217,0,0,1,.953-1.861A4.047,4.047,0,0,1,16.007,13Zm-1.671,8a1.188,1.188,0,0,0,.44.982,1.876,1.876,0,0,0,1.2.351,1.881,1.881,0,0,0,1.261-.362,1.207,1.207,0,0,0,.417-.957,1.306,1.306,0,0,0-.414-.919,5.323,5.323,0,0,0-1.345-.913Q14.337,19.9,14.336,21Zm1.657-6.347a1.411,1.411,0,0,0-.935.3.983.983,0,0,0-.355.8,1.219,1.219,0,0,0,.282.788,3.1,3.1,0,0,0,1.022.714,2.852,2.852,0,0,0,1-.688,1.252,1.252,0,0,0,.286-.814.97.97,0,0,0-.366-.8A1.459,1.459,0,0,0,15.993,14.656Z" fill="#61616b" stroke="none"></path></g></svg>