<svg xmlns="http://www.w3.org/2000/svg" height="64" width="64" viewBox="0 0 64 64"><title>tshirt sport 2</title><g stroke-linecap="round" fill="#61616b" stroke-linejoin="round" class="nc-icon-wrapper"><path data-cap="butt" d="M50,34H61V13A10.029,10.029,0,0,0,51,3H42A10,10,0,0,1,22,3H13A10.029,10.029,0,0,0,3,13V34H14" fill="none" stroke="#61616b" stroke-width="2"></path> <path d="M14,22V61H50V22" fill="none" stroke="#61616b" stroke-width="2"></path> <path data-color="color-2" d="M32,47c-3.48,0-6-1.91-6-4.239s1.62-4,6.015-6.268,5.145-4.538,5.145-5.553S37.012,27,32,27s-5.16,2.925-5.16,3.94.749,3.284,5.145,5.553S38,40.433,38,42.761,35.48,47,32,47Z" fill="none" stroke="#61616b" stroke-width="2"></path> <line data-cap="butt" x1="3" y1="28" x2="14" y2="28" fill="none" stroke="#61616b" stroke-width="2"></line> <line data-cap="butt" x1="50" y1="28" x2="61" y2="28" fill="none" stroke="#61616b" stroke-width="2"></line></g></svg>