<svg xmlns="http://www.w3.org/2000/svg" height="24" width="24" viewBox="0 0 24 24"><title>wash hand</title><g stroke-linecap="round" fill="#61616b" stroke-linejoin="round" class="nc-icon-wrapper"><path data-cap="butt" data-color="color-2" fill="none" stroke="#61616b" stroke-width="2" d="M18,11.6c0.6,0.3,1.3,0.4,2,0.4 c1.1,0,2.2-0.4,3-1"></path> <path data-cap="butt" data-color="color-2" fill="none" stroke="#61616b" stroke-width="2" d="M1,11c0.8,0.6,1.9,1,3,1 c0.9,0,1.8-0.3,2.5-0.7"></path> <polyline fill="none" stroke="#61616b" stroke-width="2" points="1,4 1,22 23,22 23,4 "></polyline> <path fill="none" stroke="#61616b" stroke-width="2" d="M9,2v3.8l-3,3 C5.4,9.4,5.4,10.4,6,11c0.6,0.6,1.5,0.6,2.1,0L9,10.1V16c0,0.6,0.4,1,1,1h7c0.6,0,1-0.4,1-1V2H9z"></path> <line fill="none" stroke="#61616b" stroke-width="2" x1="12" y1="17" x2="12" y2="13"></line> <line fill="none" stroke="#61616b" stroke-width="2" x1="15" y1="17" x2="15" y2="13"></line></g></svg>