<svg xmlns="http://www.w3.org/2000/svg" height="32" width="32" viewBox="0 0 32 32"><title>wash hand 4</title><g stroke-linecap="round" fill="#61616b" stroke-linejoin="round" class="nc-icon-wrapper"><path data-cap="butt" data-color="color-2" fill="none" stroke="#61616b" stroke-width="2" d="M24,11.4 c0.9,0.4,1.9,0.6,2.9,0.6c1.5,0,2.9-0.5,4.1-1.4"></path> <path data-cap="butt" data-color="color-2" fill="none" stroke="#61616b" stroke-width="2" d="M1,10.6C2.1,11.5,3.6,12,5.1,12 c0.8,0,1.6-0.1,2.3-0.4"></path> <polyline fill="none" stroke="#61616b" stroke-width="2" points="1,6 1,30 31,30 31,6 "></polyline> <path fill="none" stroke="#61616b" stroke-width="2" d="M16,19v5c0,1.1-0.9,2-2,2h0 c-1.1,0-2-0.9-2-2V13l-2.5,2.5c-0.8,0.8-2.2,0.8-3,0l0,0c-0.8-0.8-0.8-2.2,0-3L12,7V2h12v19"></path> <path fill="none" stroke="#61616b" stroke-width="2" d="M24,19v5c0,1.1-0.9,2-2,2h0 c-1.1,0-2-0.9-2-2v-5"></path> <path fill="none" stroke="#61616b" stroke-width="2" d="M20,24c0,1.1-0.9,2-2,2h0 c-1.1,0-2-0.9-2-2v0"></path></g></svg>