<svg xmlns="http://www.w3.org/2000/svg" height="64" width="64" viewBox="0 0 64 64"><title>wash hand 2</title><g stroke-linecap="round" fill="#61616b" stroke-linejoin="round" class="nc-icon-wrapper"><path data-cap="butt" data-color="color-2" fill="none" stroke="#61616b" stroke-width="2" d="M48,22.8 c1.8,0.9,3.7,1.2,5.8,1.2c3.1,0,5.9-1.1,8.2-2.8"></path> <path data-cap="butt" data-color="color-2" fill="none" stroke="#61616b" stroke-width="2" d="M2,21.2C4.3,23,7.1,24,10.2,24 c1.6,0,3.2-0.3,4.6-0.8"></path> <polyline fill="none" stroke="#61616b" stroke-width="2" points="2,12 2,60 62,60 62,12 "></polyline> <path fill="none" stroke="#61616b" stroke-width="2" d="M32,38v10c0,2.2-1.8,4-4,4 h0c-2.2,0-4-1.8-4-4V26l-5,5c-1.7,1.7-4.3,1.7-6,0l0,0c-1.7-1.7-1.7-4.3,0-6l11-11V4h24v38"></path> <path fill="none" stroke="#61616b" stroke-width="2" d="M48,38v10c0,2.2-1.8,4-4,4 h0c-2.2,0-4-1.8-4-4V38"></path> <path fill="none" stroke="#61616b" stroke-width="2" d="M40,48c0,2.2-1.8,4-4,4h0 c-2.2,0-4-1.8-4-4v0"></path></g></svg>