<svg xmlns="http://www.w3.org/2000/svg" height="24" width="24" viewBox="0 0 24 24"><title>wash 30</title><g stroke-linecap="round" fill="#61616b" stroke-linejoin="round" class="nc-icon-wrapper"><path data-cap="butt" data-color="color-2" fill="none" stroke="#61616b" stroke-width="2" d="M1,6c0.8,0.6,1.9,1,3,1 c1.6,0,3.1-0.8,4-2c0.9,1.2,2.4,2,4,2s3.1-0.8,4-2c0.9,1.2,2.4,2,4,2c1.1,0,2.2-0.4,3-1"></path> <polyline fill="none" stroke="#61616b" stroke-width="2" points="1,3 1,21 23,21 23,3 "></polyline> <polyline fill="none" stroke="#61616b" stroke-width="2" points="6,11 10,11 10,17 6,17 "></polyline> <line fill="none" stroke="#61616b" stroke-width="2" x1="10" y1="14" x2="6" y2="14"></line> <rect x="14" y="11" fill="none" stroke="#61616b" stroke-width="2" width="4" height="6"></rect></g></svg>