<svg xmlns="http://www.w3.org/2000/svg" height="48" width="48" viewBox="0 0 48 48"><title>wash 60 3</title><g stroke-linecap="round" fill="#61616b" stroke-linejoin="round" class="nc-icon-wrapper"><path data-cap="butt" data-color="color-2" fill="none" stroke="#61616b" stroke-width="2" d="M2,12c1.7,1.3,3.7,2,6,2 c3.3,0,6.2-1.6,8-4.1c1.8,2.4,4.7,4.1,8,4.1s6.2-1.6,8-4.1c1.8,2.4,4.7,4.1,8,4.1c2.3,0,4.3-0.8,6-2"></path> <polyline fill="none" stroke="#61616b" stroke-width="2" points="2,6 2,42 46,42 46,6 "></polyline> <path fill="none" stroke="#61616b" stroke-width="2" d="M12,32L12,32 c0,1.7,1.3,3,3,3h2c1.7,0,3-1.3,3-3v-1c0-1.7-1.3-3-3-3h-2c-1.7,0-3,1.3-3,3V32z"></path> <path fill="none" stroke="#61616b" stroke-width="2" d="M12,30v-6c0-1.7,1.3-3,3-3 h2c1.7,0,3,1.3,3,3v0"></path> <path fill="none" stroke="#61616b" stroke-width="2" d="M29,35h-2c-1.7,0-3-1.3-3-3 v-8c0-1.7,1.3-3,3-3h2c1.7,0,3,1.3,3,3v8C32,33.7,30.7,35,29,35z"></path> <circle fill="none" stroke="#61616b" stroke-width="2" cx="38" cy="23" r="2"></circle></g></svg>