<svg xmlns="http://www.w3.org/2000/svg" height="64" width="64" viewBox="0 0 64 64"><title>wash 60 2</title><g stroke-linecap="round" fill="#61616b" stroke-linejoin="round" class="nc-icon-wrapper"><path data-cap="butt" data-color="color-2" fill="none" stroke="#61616b" stroke-width="2" d="M2,17.2C4.3,19,7.1,20,10.2,20 c4.5,0,8.4-2.2,10.9-5.5C23.6,17.8,27.5,20,32,20s8.4-2.2,10.9-5.5c2.5,3.3,6.4,5.5,10.9,5.5c3.1,0,5.9-1.1,8.2-2.8"></path> <polyline fill="none" stroke="#61616b" stroke-width="2" points="2,8 2,56 62,56 62,8 "></polyline> <path data-cap="butt" fill="none" stroke="#61616b" stroke-width="2" d="M18,42L18,42c0-2.2,1.8-4,4-4h2 c2.2,0,4,1.8,4,4v0c0,2.2-1.8,4-4,4h-2C19.8,46,18,44.2,18,42v-8c0-2.2,1.8-4,4-4h2c2.2,0,4,1.8,4,4v0"></path> <path fill="none" stroke="#61616b" stroke-width="2" d="M41,46L41,46 c-2.8,0-5-2.2-5-5v-6c0-2.8,2.2-5,5-5h0c2.8,0,5,2.2,5,5v6C46,43.8,43.8,46,41,46z"></path></g></svg>