<svg xmlns="http://www.w3.org/2000/svg" height="32" width="32" viewBox="0 0 32 32"><title>wash 60 4</title><g stroke-linecap="round" fill="#61616b" stroke-linejoin="round" class="nc-icon-wrapper"><path data-cap="butt" data-color="color-2" fill="none" stroke="#61616b" stroke-width="2" d="M1,8.6C2.1,9.5,3.6,10,5.1,10 c2.2,0,4.2-1.1,5.5-2.8C11.8,8.9,13.8,10,16,10s4.2-1.1,5.5-2.8c1.2,1.7,3.2,2.8,5.5,2.8c1.5,0,2.9-0.5,4.1-1.4"></path> <polyline fill="none" stroke="#61616b" stroke-width="2" points="1,4 1,28 31,28 31,4 "></polyline> <path data-cap="butt" fill="none" stroke="#61616b" stroke-width="2" d="M14,15h-3c-1.1,0-2,0.9-2,2v4 c0,1.1,0.9,2,2,2h1c1.1,0,2-0.9,2-2v0c0-1.1-0.9-2-2-2h-1c-1.1,0-2,0.9-2,2l0,0"></path> <path fill="none" stroke="#61616b" stroke-width="2" d="M20.5,23L20.5,23 c-1.4,0-2.5-1.1-2.5-2.5v-3c0-1.4,1.1-2.5,2.5-2.5h0c1.4,0,2.5,1.1,2.5,2.5v3C23,21.9,21.9,23,20.5,23z"></path></g></svg>