<svg xmlns="http://www.w3.org/2000/svg" height="48" width="48" viewBox="0 0 48 48"><title>wash hand 3</title><g stroke-linecap="round" fill="#61616b" stroke-linejoin="round" class="nc-icon-wrapper"><path data-cap="butt" data-color="color-2" fill="none" stroke="#61616b" stroke-width="2" d="M38,23.9c0.6,0.1,1.3,0.2,2,0.2 c2.3,0,4.3-0.8,6-2"></path> <path data-cap="butt" data-color="color-2" fill="none" stroke="#61616b" stroke-width="2" d="M2,22c1.7,1.3,3.7,2,6,2 c1.9,0,3.6-0.5,5.1-1.4"></path> <polyline fill="none" stroke="#61616b" stroke-width="2" points="2,8 2,44 46,44 46,8 "></polyline> <path fill="none" stroke="#61616b" stroke-width="2" d="M33,26v8.5 c0,1.4-1.1,2.5-2.5,2.5h0c-1.4,0-2.5-1.1-2.5-2.5V26"></path> <path fill="none" stroke="#61616b" stroke-width="2" d="M28,34.5 c0,1.4-1.1,2.5-2.5,2.5h0c-1.4,0-2.5-1.1-2.5-2.5V26"></path> <path fill="none" stroke="#61616b" stroke-width="2" d="M33,34.5 c0,1.4,1.1,2.5,2.5,2.5h0c1.4,0,2.5-1.1,2.5-2.5V4H18v7.7l-6,6c-1.2,1.2-1.2,3.1,0,4.2c1.2,1.2,3.1,1.2,4.2,0l1.8-1.8v14.3 c0,1.4,1.1,2.5,2.5,2.5h0c1.4,0,2.5-1.1,2.5-2.5"></path></g></svg>