<svg xmlns="http://www.w3.org/2000/svg" height="48" width="48" style="" viewBox="0 0 48 48"><title>ai generated img</title><g class="nc-icon-wrapper"><path d="M44 5H4C2.343 5 1 6.343 1 8V40C1 41.657 2.343 43 4 43H44C45.657 43 47 41.657 47 40V8C47 6.343 45.657 5 44 5Z" fill="url(#nc-ai-generated-img-0_linear_410_2)"></path> <path d="M15 20C17.2091 20 19 18.2091 19 16C19 13.7909 17.2091 12 15 12C12.7909 12 11 13.7909 11 16C11 18.2091 12.7909 20 15 20Z" fill="url(#nc-ai-generated-img-1_linear_410_2)"></path> <path d="M39.871 34.51L30.871 18.51C30.702 18.209 30.391 18.018 30.047 18.001C29.705 17.98 29.374 18.147 29.178 18.431L20.86 30.446L15.708 25.294C15.496 25.083 15.208 24.982 14.902 25.006C14.604 25.035 14.335 25.197 14.169 25.446L8.169 34.446C7.965 34.753 7.945 35.147 8.119 35.472C8.293 35.797 8.632 36 9.001 36H39.001C39.356 36 39.685 35.812 39.864 35.505C40.043 35.198 40.047 34.819 39.872 34.51H39.871Z" fill="url(#nc-ai-generated-img-2_linear_410_2)"></path> <path d="M40 16C44.4183 16 48 12.4183 48 8C48 3.58172 44.4183 0 40 0C35.5817 0 32 3.58172 32 8C32 12.4183 35.5817 16 40 16Z" fill="url(#nc-ai-generated-img-3_linear_410_2)"></path> <path d="M40 13C39.539 13 39.167 12.627 39.167 12.167C39.167 10.329 37.672 8.834 35.834 8.834C35.373 8.834 35.001 8.461 35.001 8.001C35.001 7.541 35.374 7.168 35.834 7.168C37.672 7.168 39.167 5.673 39.167 3.835C39.167 3.374 39.54 3.002 40 3.002C40.46 3.002 40.833 3.375 40.833 3.835C40.833 5.673 42.328 7.168 44.166 7.168C44.627 7.168 44.999 7.541 44.999 8.001C44.999 8.461 44.626 8.834 44.166 8.834C42.328 8.834 40.833 10.329 40.833 12.167C40.833 12.628 40.46 13 40 13Z" fill="url(#nc-ai-generated-img-4_linear_410_2)"></path> <defs> <linearGradient id="nc-ai-generated-img-0_linear_410_2" x1="24" y1="5" x2="24" y2="43" gradientUnits="userSpaceOnUse"> <stop stop-color="#E0E0E6"></stop> <stop offset="1" stop-color="#C2C3CD"></stop> </linearGradient> <linearGradient id="nc-ai-generated-img-1_linear_410_2" x1="15" y1="12" x2="15" y2="20" gradientUnits="userSpaceOnUse"> <stop stop-color="#A2A3B4"></stop> <stop offset="1" stop-color="#83849B"></stop> </linearGradient> <linearGradient id="nc-ai-generated-img-2_linear_410_2" x1="24.0009" y1="17.9992" x2="24.0009" y2="36" gradientUnits="userSpaceOnUse"> <stop stop-color="#A2A3B4"></stop> <stop offset="1" stop-color="#83849B"></stop> </linearGradient> <linearGradient id="nc-ai-generated-img-3_linear_410_2" x1="40" y1="0" x2="40" y2="16" gradientUnits="userSpaceOnUse"> <stop stop-color="#344EEA"></stop> <stop offset="1" stop-color="#2138BB"></stop> </linearGradient> <linearGradient id="nc-ai-generated-img-4_linear_410_2" x1="40" y1="3.002" x2="40" y2="13" gradientUnits="userSpaceOnUse"> <stop stop-color="#FEE7F5"></stop> <stop offset="1" stop-color="#FBB0DD"></stop> </linearGradient> </defs></g></svg>