<svg xmlns="http://www.w3.org/2000/svg" height="48" width="48" viewBox="0 0 48 48"><title>animation 31</title><g class="nc-icon-wrapper"><rect x="1" y="11" fill="#444444" width="46" height="26"></rect> <path fill="#999999" d="M47,12V7c0-1.105-0.895-2-2-2H3C1.895,5,1,5.895,1,7v5h5c1.105,0,2,0.895,2,2v20c0,1.105-0.895,2-2,2H1v5 c0,1.105,0.895,2,2,2h42c1.105,0,2-0.895,2-2v-5h-5c-1.105,0-2-0.895-2-2V14c0-1.105,0.895-2,2-2H47z M35,36H13 c-1.105,0-2-0.895-2-2V14c0-1.105,0.895-2,2-2h22c1.105,0,2,0.895,2,2v20C37,35.105,36.105,36,35,36z"></path></g></svg>