<svg xmlns="http://www.w3.org/2000/svg" height="48" width="48" viewBox="0 0 48 48"><title>animation 32</title><g class="nc-icon-wrapper"><path fill="#B3B3B3" d="M7,39H2c-0.552,0-1-0.447-1-1v-5h2v4h4V39z"></path> <path fill="#B3B3B3" d="M18,39h-5v-2h4v-4h2v5C19,38.553,18.552,39,18,39z"></path> <path fill="#B3B3B3" d="M19,15h-2v-4h-4V9h5c0.552,0,1,0.447,1,1V15z"></path> <path fill="#B3B3B3" d="M3,15H1v-5c0-0.553,0.448-1,1-1h5v2H3V15z"></path> <path fill="#72C472" d="M45,47H29c-1.105,0-2-0.895-2-2V3c0-1.105,0.895-2,2-2h16c1.105,0,2,0.895,2,2v42C47,46.105,46.105,47,45,47 z"></path> <rect x="1" y="21" fill="#B3B3B3" width="2" height="6"></rect> <rect x="17" y="21" fill="#B3B3B3" width="2" height="6"></rect></g></svg>