<svg xmlns="http://www.w3.org/2000/svg" height="48" width="48" viewBox="0 0 48 48"><title>api</title><g class="nc-icon-wrapper"><path d="M17,24a7,7,0,0,1,14,0H47V21a1,1,0,0,0-.917-1L40.4,19.529a16.739,16.739,0,0,0-1.641-3.956l3.691-4.362a1,1,0,0,0-.056-1.353L38.142,5.615a1,1,0,0,0-1.353-.056l-4.361,3.69A16.837,16.837,0,0,0,28.471,7.6L28,1.917A1,1,0,0,0,27,1H21a1,1,0,0,0-1,.917L19.529,7.6a16.739,16.739,0,0,0-3.956,1.641L11.211,5.554a1,1,0,0,0-1.353.056L5.615,9.858a1,1,0,0,0-.056,1.353l3.69,4.361A16.837,16.837,0,0,0,7.6,19.529L1.917,20A1,1,0,0,0,1,21v3Z" fill="#b3b3b3"></path><path d="M24,17a7,7,0,0,1,7,7h4a11,11,0,0,0-22,0h4A7,7,0,0,1,24,17Z" fill="#969696"></path><path d="M10,26v8.586L6.286,38.3A2.969,2.969,0,0,0,5,38a3,3,0,1,0,3,3,2.969,2.969,0,0,0-.3-1.286l4.007-4.007A1,1,0,0,0,12,35V26Z" fill="#5a7a84"></path><path d="M30,42.184V26H28V42.184a3,3,0,1,0,2,0Z" fill="#5a7a84"></path><path d="M20,37.184V26H18V37.184a3,3,0,1,0,2,0Z" fill="#223e49"></path><path d="M43,38a2.969,2.969,0,0,0-1.286.3L38,34.586V26H36v9a1,1,0,0,0,.293.707L40.3,39.714A2.969,2.969,0,0,0,40,41a3,3,0,1,0,3-3Z" fill="#223e49"></path></g></svg>