<svg xmlns="http://www.w3.org/2000/svg" height="48" width="48" style="" viewBox="0 0 48 48"><title>app store</title><g class="nc-icon-wrapper"><path d="M17 3H6C4.34315 3 3 4.34315 3 6V17C3 18.6569 4.34315 20 6 20H17C18.6569 20 20 18.6569 20 17V6C20 4.34315 18.6569 3 17 3Z" fill="url(#nc-ui-1-0_linear_43_161)"></path> <path d="M46.138 9.41898L38.581 1.86198C37.431 0.713977 35.569 0.713977 34.419 1.86198L26.862 9.41898C25.713 10.568 25.713 12.432 26.862 13.581L34.419 21.138C35.569 22.285 37.431 22.285 38.581 21.138L46.138 13.581C47.287 12.432 47.287 10.568 46.138 9.41898Z" fill="url(#nc-ui-1-1_linear_43_161)"></path> <path d="M42 28H31C29.3431 28 28 29.3431 28 31V42C28 43.6569 29.3431 45 31 45H42C43.6569 45 45 43.6569 45 42V31C45 29.3431 43.6569 28 42 28Z" fill="url(#nc-ui-1-2_linear_43_161)"></path> <path d="M17 28H6C4.34315 28 3 29.3431 3 31V42C3 43.6569 4.34315 45 6 45H17C18.6569 45 20 43.6569 20 42V31C20 29.3431 18.6569 28 17 28Z" fill="url(#nc-ui-1-3_linear_43_161)"></path> <defs> <linearGradient id="nc-ui-1-0_linear_43_161" x1="11.5" y1="3" x2="11.5" y2="20" gradientUnits="userSpaceOnUse"> <stop stop-color="#9ED9FA"></stop> <stop offset="1" stop-color="#60BEF6"></stop> </linearGradient> <linearGradient id="nc-ui-1-1_linear_43_161" x1="36.5" y1="1.00098" x2="36.5" y2="21.9982" gradientUnits="userSpaceOnUse"> <stop stop-color="#344EEA"></stop> <stop offset="1" stop-color="#2138BB"></stop> </linearGradient> <linearGradient id="nc-ui-1-2_linear_43_161" x1="36.5" y1="28" x2="36.5" y2="45" gradientUnits="userSpaceOnUse"> <stop stop-color="#9ED9FA"></stop> <stop offset="1" stop-color="#60BEF6"></stop> </linearGradient> <linearGradient id="nc-ui-1-3_linear_43_161" x1="11.5" y1="28" x2="11.5" y2="45" gradientUnits="userSpaceOnUse"> <stop stop-color="#9ED9FA"></stop> <stop offset="1" stop-color="#60BEF6"></stop> </linearGradient> </defs></g></svg>