<svg xmlns="http://www.w3.org/2000/svg" height="48" width="48" style="" viewBox="0 0 48 48"><title>apps</title><g class="nc-icon-wrapper"><path d="M9 14C11.7614 14 14 11.7614 14 9C14 6.23858 11.7614 4 9 4C6.23858 4 4 6.23858 4 9C4 11.7614 6.23858 14 9 14Z" fill="url(#nc-ui-1-0_linear_43_280)"></path> <path d="M24 14C26.7614 14 29 11.7614 29 9C29 6.23858 26.7614 4 24 4C21.2386 4 19 6.23858 19 9C19 11.7614 21.2386 14 24 14Z" fill="url(#nc-ui-1-1_linear_43_280)"></path> <path d="M39 14C41.7614 14 44 11.7614 44 9C44 6.23858 41.7614 4 39 4C36.2386 4 34 6.23858 34 9C34 11.7614 36.2386 14 39 14Z" fill="url(#nc-ui-1-2_linear_43_280)"></path> <path d="M9 29C11.7614 29 14 26.7614 14 24C14 21.2386 11.7614 19 9 19C6.23858 19 4 21.2386 4 24C4 26.7614 6.23858 29 9 29Z" fill="url(#nc-ui-1-3_linear_43_280)"></path> <path d="M24 29C26.7614 29 29 26.7614 29 24C29 21.2386 26.7614 19 24 19C21.2386 19 19 21.2386 19 24C19 26.7614 21.2386 29 24 29Z" fill="url(#nc-ui-1-4_linear_43_280)"></path> <path d="M39 29C41.7614 29 44 26.7614 44 24C44 21.2386 41.7614 19 39 19C36.2386 19 34 21.2386 34 24C34 26.7614 36.2386 29 39 29Z" fill="url(#nc-ui-1-5_linear_43_280)"></path> <path d="M9 44C11.7614 44 14 41.7614 14 39C14 36.2386 11.7614 34 9 34C6.23858 34 4 36.2386 4 39C4 41.7614 6.23858 44 9 44Z" fill="url(#nc-ui-1-6_linear_43_280)"></path> <path d="M24 44C26.7614 44 29 41.7614 29 39C29 36.2386 26.7614 34 24 34C21.2386 34 19 36.2386 19 39C19 41.7614 21.2386 44 24 44Z" fill="url(#nc-ui-1-7_linear_43_280)"></path> <path d="M39 44C41.7614 44 44 41.7614 44 39C44 36.2386 41.7614 34 39 34C36.2386 34 34 36.2386 34 39C34 41.7614 36.2386 44 39 44Z" fill="url(#nc-ui-1-8_linear_43_280)"></path> <defs> <linearGradient id="nc-ui-1-0_linear_43_280" x1="9" y1="4" x2="9" y2="14" gradientUnits="userSpaceOnUse"> <stop stop-color="#9ED9FA"></stop> <stop offset="1" stop-color="#60BEF6"></stop> </linearGradient> <linearGradient id="nc-ui-1-1_linear_43_280" x1="24" y1="4" x2="24" y2="14" gradientUnits="userSpaceOnUse"> <stop stop-color="#344EEA"></stop> <stop offset="1" stop-color="#2138BB"></stop> </linearGradient> <linearGradient id="nc-ui-1-2_linear_43_280" x1="39" y1="4" x2="39" y2="14" gradientUnits="userSpaceOnUse"> <stop stop-color="#9ED9FA"></stop> <stop offset="1" stop-color="#60BEF6"></stop> </linearGradient> <linearGradient id="nc-ui-1-3_linear_43_280" x1="9" y1="19" x2="9" y2="29" gradientUnits="userSpaceOnUse"> <stop stop-color="#344EEA"></stop> <stop offset="1" stop-color="#2138BB"></stop> </linearGradient> <linearGradient id="nc-ui-1-4_linear_43_280" x1="24" y1="19" x2="24" y2="29" gradientUnits="userSpaceOnUse"> <stop stop-color="#9ED9FA"></stop> <stop offset="1" stop-color="#60BEF6"></stop> </linearGradient> <linearGradient id="nc-ui-1-5_linear_43_280" x1="39" y1="19" x2="39" y2="29" gradientUnits="userSpaceOnUse"> <stop stop-color="#344EEA"></stop> <stop offset="1" stop-color="#2138BB"></stop> </linearGradient> <linearGradient id="nc-ui-1-6_linear_43_280" x1="9" y1="34" x2="9" y2="44" gradientUnits="userSpaceOnUse"> <stop stop-color="#9ED9FA"></stop> <stop offset="1" stop-color="#60BEF6"></stop> </linearGradient> <linearGradient id="nc-ui-1-7_linear_43_280" x1="24" y1="34" x2="24" y2="44" gradientUnits="userSpaceOnUse"> <stop stop-color="#344EEA"></stop> <stop offset="1" stop-color="#2138BB"></stop> </linearGradient> <linearGradient id="nc-ui-1-8_linear_43_280" x1="39" y1="34" x2="39" y2="44" gradientUnits="userSpaceOnUse"> <stop stop-color="#9ED9FA"></stop> <stop offset="1" stop-color="#60BEF6"></stop> </linearGradient> </defs></g></svg>