<svg xmlns="http://www.w3.org/2000/svg" height="48" width="48" style="" viewBox="0 0 48 48"><title>binary code</title><g class="nc-icon-wrapper"><path d="M14.5 9H12C11.448 9 11 9.448 11 10V11C11 11.552 11.448 12 12 12H13V21C13 21.552 13.448 22 14 22H15C15.552 22 16 21.552 16 21V10.5C16 9.672 15.328 9 14.5 9Z" fill="url(#nc-binary-code-0_linear_401_2)"></path> <path d="M34.5 9H32C31.448 9 31 9.448 31 10V11C31 11.552 31.448 12 32 12H33V21C33 21.552 33.448 22 34 22H35C35.552 22 36 21.552 36 21V10.5C36 9.672 35.328 9 34.5 9Z" fill="url(#nc-binary-code-1_linear_401_2)"></path> <path d="M24.5 26H22C21.448 26 21 26.448 21 27V28C21 28.552 21.448 29 22 29H23V38C23 38.552 23.448 39 24 39H25C25.552 39 26 38.552 26 38V27.5C26 26.672 25.328 26 24.5 26Z" fill="url(#nc-binary-code-2_linear_401_2)"></path> <path d="M29 14C29 11.243 26.757 9 24 9C21.243 9 19 11.243 19 14V17C19 19.757 21.243 22 24 22C26.757 22 29 19.757 29 17V14ZM26 17C26 18.103 25.103 19 24 19C22.897 19 22 18.103 22 17V14C22 12.897 22.897 12 24 12C25.103 12 26 12.897 26 14V17Z" fill="url(#nc-binary-code-3_linear_401_2)"></path> <path d="M14 26C11.243 26 9 28.243 9 31V34C9 36.757 11.243 39 14 39C16.757 39 19 36.757 19 34V31C19 28.243 16.757 26 14 26ZM16 34C16 35.103 15.103 36 14 36C12.897 36 12 35.103 12 34V31C12 29.897 12.897 29 14 29C15.103 29 16 29.897 16 31V34Z" fill="url(#nc-binary-code-4_linear_401_2)"></path> <path d="M34 26C31.243 26 29 28.243 29 31V34C29 36.757 31.243 39 34 39C36.757 39 39 36.757 39 34V31C39 28.243 36.757 26 34 26ZM36 34C36 35.103 35.103 36 34 36C32.897 36 32 35.103 32 34V31C32 29.897 32.897 29 34 29C35.103 29 36 29.897 36 31V34Z" fill="url(#nc-binary-code-5_linear_401_2)"></path> <path d="M42 44H40C39.447 44 39 43.553 39 43C39 42.447 39.447 42 40 42H42C42.552 42 43 41.552 43 41V29.652C43 28.416 43.292 27.179 43.845 26.075L44.882 24L43.845 21.925C43.292 20.821 43 19.584 43 18.348V7C43 6.448 42.552 6 42 6H40C39.447 6 39 5.553 39 5C39 4.447 39.447 4 40 4H42C43.654 4 45 5.346 45 7V18.348C45 19.275 45.219 20.202 45.634 21.031L46.895 23.553C47.036 23.834 47.036 24.166 46.895 24.448L45.634 26.97C45.219 27.798 45 28.726 45 29.653V41.001C45 42.655 43.654 44 42 44Z" fill="url(#nc-binary-code-6_linear_401_2)"></path> <path d="M6.00002 44H8.00002C8.55302 44 9.00002 43.553 9.00002 43C9.00002 42.447 8.55302 42 8.00002 42H6.00002C5.44802 42 5.00002 41.552 5.00002 41V29.652C5.00002 28.416 4.70802 27.179 4.15502 26.075L3.11802 24L4.15502 21.925C4.70802 20.821 5.00002 19.584 5.00002 18.348V7C5.00002 6.448 5.44802 6 6.00002 6H8.00002C8.55302 6 9.00002 5.553 9.00002 5C9.00002 4.447 8.55302 4 8.00002 4H6.00002C4.34602 4 3.00002 5.346 3.00002 7V18.348C3.00002 19.275 2.78102 20.202 2.36602 21.031L1.10502 23.553C0.964018 23.834 0.964018 24.166 1.10502 24.448L2.36602 26.97C2.78102 27.798 3.00002 28.726 3.00002 29.653V41.001C3.00002 42.655 4.34602 44 6.00002 44Z" fill="url(#nc-binary-code-7_linear_401_2)"></path> <defs> <linearGradient id="nc-binary-code-0_linear_401_2" x1="13.5" y1="9" x2="13.5" y2="22" gradientUnits="userSpaceOnUse"> <stop stop-color="#C2C3CD"></stop> <stop offset="1" stop-color="#A2A3B4"></stop> </linearGradient> <linearGradient id="nc-binary-code-1_linear_401_2" x1="33.5" y1="9" x2="33.5" y2="22" gradientUnits="userSpaceOnUse"> <stop stop-color="#C2C3CD"></stop> <stop offset="1" stop-color="#A2A3B4"></stop> </linearGradient> <linearGradient id="nc-binary-code-2_linear_401_2" x1="23.5" y1="26" x2="23.5" y2="39" gradientUnits="userSpaceOnUse"> <stop stop-color="#C2C3CD"></stop> <stop offset="1" stop-color="#A2A3B4"></stop> </linearGradient> <linearGradient id="nc-binary-code-3_linear_401_2" x1="24" y1="9" x2="24" y2="22" gradientUnits="userSpaceOnUse"> <stop stop-color="#C2C3CD"></stop> <stop offset="1" stop-color="#A2A3B4"></stop> </linearGradient> <linearGradient id="nc-binary-code-4_linear_401_2" x1="14" y1="26" x2="14" y2="39" gradientUnits="userSpaceOnUse"> <stop stop-color="#C2C3CD"></stop> <stop offset="1" stop-color="#A2A3B4"></stop> </linearGradient> <linearGradient id="nc-binary-code-5_linear_401_2" x1="34" y1="26" x2="34" y2="39" gradientUnits="userSpaceOnUse"> <stop stop-color="#C2C3CD"></stop> <stop offset="1" stop-color="#A2A3B4"></stop> </linearGradient> <linearGradient id="nc-binary-code-6_linear_401_2" x1="43.0004" y1="4" x2="43.0004" y2="44.001" gradientUnits="userSpaceOnUse"> <stop stop-color="#5B5E71"></stop> <stop offset="1" stop-color="#393A46"></stop> </linearGradient> <linearGradient id="nc-binary-code-7_linear_401_2" x1="4.99964" y1="4" x2="4.99964" y2="44.001" gradientUnits="userSpaceOnUse"> <stop stop-color="#5B5E71"></stop> <stop offset="1" stop-color="#393A46"></stop> </linearGradient> </defs></g></svg>