<svg xmlns="http://www.w3.org/2000/svg" height="48" width="48" viewBox="0 0 48 48"><title>block</title><g class="nc-icon-wrapper"><path d="M43.879,12.037a.994.994,0,0,0-.413-.422l-19-10a1,1,0,0,0-.932,0l-19,10a1,1,0,0,0-.413.421L24,22.5Z" fill="#a0e6ee"></path><path d="M24,22.5v24a1,1,0,0,0,.466-.115l19-10A1,1,0,0,0,44,35.5v-23a.986.986,0,0,0-.121-.463Zm19,13h0Z" fill="#2594d0"></path><path d="M4.121,12.036A1,1,0,0,0,4,12.5v23a1,1,0,0,0,.534.885l19,10A1,1,0,0,0,24,46.5v-24Z" fill="#6cc4f5"></path></g></svg>