<svg xmlns="http://www.w3.org/2000/svg" height="48" width="48" style="" viewBox="0 0 48 48"><title>board 2</title><g class="nc-icon-wrapper"><path d="M40 3H8C5.239 3 3 5.239 3 8V40C3 42.761 5.239 45 8 45H40C42.761 45 45 42.761 45 40V8C45 5.239 42.761 3 40 3Z" fill="url(#nc-ui-1-0_linear_43_166)"></path> <path d="M21 28H10C9.44772 28 9 28.4477 9 29V38C9 38.5523 9.44772 39 10 39H21C21.5523 39 22 38.5523 22 38V29C22 28.4477 21.5523 28 21 28Z" fill="url(#nc-ui-1-1_linear_43_166)"></path> <path d="M21 9H10C9.44772 9 9 9.44772 9 10V23C9 23.5523 9.44772 24 10 24H21C21.5523 24 22 23.5523 22 23V10C22 9.44772 21.5523 9 21 9Z" fill="url(#nc-ui-1-2_linear_43_166)"></path> <path d="M38 9H27C26.4477 9 26 9.44772 26 10V38C26 38.5523 26.4477 39 27 39H38C38.5523 39 39 38.5523 39 38V10C39 9.44772 38.5523 9 38 9Z" fill="url(#nc-ui-1-3_linear_43_166)"></path> <defs> <linearGradient id="nc-ui-1-0_linear_43_166" x1="24" y1="3" x2="24" y2="45" gradientUnits="userSpaceOnUse"> <stop stop-color="#4480A7"></stop> <stop offset="1" stop-color="#32597C"></stop> </linearGradient> <linearGradient id="nc-ui-1-1_linear_43_166" x1="15.5" y1="9" x2="15.5" y2="39" gradientUnits="userSpaceOnUse"> <stop stop-color="#80B0CB"></stop> <stop offset="1" stop-color="#4480A7"></stop> </linearGradient> <linearGradient id="nc-ui-1-2_linear_43_166" x1="15.5" y1="9" x2="15.5" y2="39" gradientUnits="userSpaceOnUse"> <stop stop-color="#80B0CB"></stop> <stop offset="1" stop-color="#4480A7"></stop> </linearGradient> <linearGradient id="nc-ui-1-3_linear_43_166" x1="32.5" y1="9" x2="32.5" y2="39" gradientUnits="userSpaceOnUse"> <stop stop-color="#80B0CB"></stop> <stop offset="1" stop-color="#4480A7"></stop> </linearGradient> </defs></g></svg>