<svg xmlns="http://www.w3.org/2000/svg" height="48" width="48" style="" viewBox="0 0 48 48"><title>border width</title><g class="nc-icon-wrapper"><path d="M46 5H2C1.44772 5 1 5.44772 1 6V16C1 16.5523 1.44772 17 2 17H46C46.5523 17 47 16.5523 47 16V6C47 5.44772 46.5523 5 46 5Z" fill="url(#nc-border-width-0_linear_435_2)"></path> <path d="M46 20H2C1.44772 20 1 20.4477 1 21V29C1 29.5523 1.44772 30 2 30H46C46.5523 30 47 29.5523 47 29V21C47 20.4477 46.5523 20 46 20Z" fill="url(#nc-border-width-1_linear_435_2)"></path> <path d="M46 33H2C1.44772 33 1 33.4477 1 34V37C1 37.5523 1.44772 38 2 38H46C46.5523 38 47 37.5523 47 37V34C47 33.4477 46.5523 33 46 33Z" fill="url(#nc-border-width-2_linear_435_2)"></path> <path d="M46 41H2C1.447 41 1 41.447 1 42C1 42.553 1.447 43 2 43H46C46.553 43 47 42.553 47 42C47 41.447 46.553 41 46 41Z" fill="url(#nc-border-width-3_linear_435_2)"></path> <defs> <linearGradient id="nc-border-width-0_linear_435_2" x1="24" y1="5" x2="24" y2="17" gradientUnits="userSpaceOnUse"> <stop stop-color="#C5DCE7"></stop> <stop offset="1" stop-color="#80B0CB"></stop> </linearGradient> <linearGradient id="nc-border-width-1_linear_435_2" x1="24" y1="20" x2="24" y2="30" gradientUnits="userSpaceOnUse"> <stop stop-color="#80B0CB"></stop> <stop offset="1" stop-color="#4480A7"></stop> </linearGradient> <linearGradient id="nc-border-width-2_linear_435_2" x1="24" y1="33" x2="24" y2="38" gradientUnits="userSpaceOnUse"> <stop stop-color="#4480A7"></stop> <stop offset="1" stop-color="#32597C"></stop> </linearGradient> <linearGradient id="nc-border-width-3_linear_435_2" x1="24" y1="41" x2="24" y2="43" gradientUnits="userSpaceOnUse"> <stop stop-color="#32597C"></stop> <stop offset="1" stop-color="#203B50"></stop> </linearGradient> </defs></g></svg>