<svg xmlns="http://www.w3.org/2000/svg" height="48" width="48" viewBox="0 0 48 48"><title>border</title><g class="nc-icon-wrapper"><path d="M46,1H2A1,1,0,0,0,1,2V46a1,1,0,0,0,1,1H46a1,1,0,0,0,1-1V2A1,1,0,0,0,46,1ZM43,43H5V5H43Z" fill="#8680d8"></path> <path d="M24,16a1,1,0,0,0,1-1V10a1,1,0,0,0-2,0v5A1,1,0,0,0,24,16Z" fill="#b3b3b3"></path> <path d="M33,25h5a1,1,0,0,0,0-2H33a1,1,0,0,0,0,2Z" fill="#b3b3b3"></path> <path d="M24,39a1,1,0,0,0,1-1V33a1,1,0,0,0-2,0v5A1,1,0,0,0,24,39Z" fill="#b3b3b3"></path> <path d="M10,25h5a1,1,0,0,0,0-2H10a1,1,0,0,0,0,2Z" fill="#b3b3b3"></path></g></svg>