<svg xmlns="http://www.w3.org/2000/svg" height="48" width="48" viewBox="0 0 48 48"><title>browser opera</title><g class="nc-icon-wrapper"><path fill="#C94F49" d="M24,1C11.297,1,1,11.297,1,24c0,12.703,10.297,23,23,23s23-10.297,23-23C47,11.297,36.703,1,24,1z M24,41 c-6.627,0-12-7.611-12-17S17.373,7,24,7s12,7.611,12,17S30.627,41,24,41z"></path> <path fill="#E86C60" d="M30,44c-9.941,0-18-8.954-18-20c0-11.046,8.059-20,18-20c3.531,0,6.815,1.147,9.595,3.099 C35.495,3.315,30.019,1,24,1C11.297,1,1,11.297,1,24c0,12.703,10.297,23,23,23c6.019,0,11.495-2.315,15.595-6.099 C36.815,42.853,33.531,44,30,44z"></path></g></svg>