<svg xmlns="http://www.w3.org/2000/svg" height="48" width="48" viewBox="0 0 48 48"><title>bullet list 70</title><g class="nc-icon-wrapper"><path fill="#335262" d="M44,5H20c-0.553,0-1,0.447-1,1v4c0,0.553,0.447,1,1,1h24c0.553,0,1-0.447,1-1V6C45,5.447,44.553,5,44,5z"></path> <path fill="#335262" d="M44,21H20c-0.553,0-1,0.447-1,1v4c0,0.553,0.447,1,1,1h24c0.553,0,1-0.447,1-1v-4C45,21.447,44.553,21,44,21 z"></path> <path fill="#335262" d="M44,37H20c-0.553,0-1,0.447-1,1v4c0,0.553,0.447,1,1,1h24c0.553,0,1-0.447,1-1v-4C45,37.447,44.553,37,44,37 z"></path> <path fill="#EF8EC3" d="M12,3H4C3.447,3,3,3.447,3,4v8c0,0.553,0.447,1,1,1h8c0.553,0,1-0.447,1-1V4C13,3.447,12.553,3,12,3z"></path> <path fill="#EF8EC3" d="M12,19H4c-0.553,0-1,0.447-1,1v8c0,0.553,0.447,1,1,1h8c0.553,0,1-0.447,1-1v-8C13,19.447,12.553,19,12,19z"></path> <path fill="#EF8EC3" d="M12,35H4c-0.553,0-1,0.447-1,1v8c0,0.553,0.447,1,1,1h8c0.553,0,1-0.447,1-1v-8C13,35.447,12.553,35,12,35z"></path></g></svg>