<svg xmlns="http://www.w3.org/2000/svg" height="48" width="48" style="" viewBox="0 0 48 48"><title>compare items</title><g class="nc-icon-wrapper"><path d="M43 5H30C27.7909 5 26 6.79086 26 9V39C26 41.2091 27.7909 43 30 43H43C45.2091 43 47 41.2091 47 39V9C47 6.79086 45.2091 5 43 5Z" fill="url(#nc-ui-1-0_linear_43_265)"></path> <path d="M18 5H5C2.79086 5 1 6.79086 1 9V39C1 41.2091 2.79086 43 5 43H18C20.2091 43 22 41.2091 22 39V9C22 6.79086 20.2091 5 18 5Z" fill="url(#nc-ui-1-1_linear_43_265)"></path> <path d="M27 10C26.448 10 26 9.552 26 9C26 6.791 27.791 5 30 5C30.552 5 31 5.448 31 6C31 6.552 30.552 7 30 7C28.895 7 28 7.895 28 9C28 9.552 27.552 10 27 10Z" fill="#F77CC6"></path> <path d="M46 10C45.448 10 45 9.552 45 9C45 7.895 44.105 7 43 7C42.448 7 42 6.552 42 6C42 5.448 42.448 5 43 5C45.209 5 47 6.791 47 9C47 9.552 46.552 10 46 10Z" fill="#F77CC6"></path> <path d="M43 43C42.448 43 42 42.552 42 42C42 41.448 42.448 41 43 41C44.105 41 45 40.105 45 39V38C45 37.448 45.448 37 46 37C46.552 37 47 37.448 47 38V39C47 41.209 45.209 43 43 43Z" fill="#F77CC6"></path> <path d="M30 43C27.791 43 26 41.209 26 39V38C26 37.448 26.448 37 27 37C27.552 37 28 37.448 28 38V39C28 40.105 28.895 41 30 41C30.552 41 31 41.448 31 42C31 42.552 30.552 43 30 43Z" fill="#F77CC6"></path> <path d="M38 7H35C34.448 7 34 6.552 34 6C34 5.448 34.448 5 35 5H38C38.552 5 39 5.448 39 6C39 6.552 38.552 7 38 7Z" fill="#F77CC6"></path> <path d="M38 43H35C34.448 43 34 42.552 34 42C34 41.448 34.448 41 35 41H38C38.552 41 39 41.448 39 42C39 42.552 38.552 43 38 43Z" fill="#F77CC6"></path> <path d="M27 18C26.448 18 26 17.552 26 17V14C26 13.448 26.448 13 27 13C27.552 13 28 13.448 28 14V17C28 17.552 27.552 18 27 18Z" fill="#F77CC6"></path> <path d="M27 26C26.448 26 26 25.552 26 25V22C26 21.448 26.448 21 27 21C27.552 21 28 21.448 28 22V25C28 25.552 27.552 26 27 26Z" fill="#F77CC6"></path> <path d="M27 34C26.448 34 26 33.552 26 33V30C26 29.448 26.448 29 27 29C27.552 29 28 29.448 28 30V33C28 33.552 27.552 34 27 34Z" fill="#F77CC6"></path> <path d="M46 18C45.448 18 45 17.552 45 17V14C45 13.448 45.448 13 46 13C46.552 13 47 13.448 47 14V17C47 17.552 46.552 18 46 18Z" fill="#F77CC6"></path> <path d="M46 26C45.448 26 45 25.552 45 25V22C45 21.448 45.448 21 46 21C46.552 21 47 21.448 47 22V25C47 25.552 46.552 26 46 26Z" fill="#F77CC6"></path> <path d="M46 34C45.448 34 45 33.552 45 33V30C45 29.448 45.448 29 46 29C46.552 29 47 29.448 47 30V33C47 33.552 46.552 34 46 34Z" fill="#F77CC6"></path> <defs> <linearGradient id="nc-ui-1-0_linear_43_265" x1="36.5" y1="5" x2="36.5" y2="43" gradientUnits="userSpaceOnUse"> <stop stop-color="#FEE7F5"></stop> <stop offset="1" stop-color="#FBB0DD"></stop> </linearGradient> <linearGradient id="nc-ui-1-1_linear_43_265" x1="11.5" y1="5" x2="11.5" y2="43" gradientUnits="userSpaceOnUse"> <stop stop-color="#344EEA"></stop> <stop offset="1" stop-color="#2138BB"></stop> </linearGradient> </defs></g></svg>