<svg xmlns="http://www.w3.org/2000/svg" height="48" width="48" style="" viewBox="0 0 48 48"><title>components</title><g class="nc-icon-wrapper"><path d="M14 3H4C3.44772 3 3 3.44772 3 4V44C3 44.5523 3.44772 45 4 45H14C14.5523 45 15 44.5523 15 44V4C15 3.44772 14.5523 3 14 3Z" fill="url(#nc-ui-2-0_linear_103_67)"></path> <path d="M44 18H34C33.4477 18 33 18.4477 33 19V44C33 44.5523 33.4477 45 34 45H44C44.5523 45 45 44.5523 45 44V19C45 18.4477 44.5523 18 44 18Z" fill="url(#nc-ui-2-1_linear_103_67)"></path> <path d="M44 3H19C18.4477 3 18 3.44772 18 4V14C18 14.5523 18.4477 15 19 15H44C44.5523 15 45 14.5523 45 14V4C45 3.44772 44.5523 3 44 3Z" fill="url(#nc-ui-2-2_linear_103_67)"></path> <path d="M29 33H19C18.4477 33 18 33.4477 18 34V44C18 44.5523 18.4477 45 19 45H29C29.5523 45 30 44.5523 30 44V34C30 33.4477 29.5523 33 29 33Z" fill="url(#nc-ui-2-3_linear_103_67)"></path> <path d="M29 18H19C18.4477 18 18 18.4477 18 19V29C18 29.5523 18.4477 30 19 30H29C29.5523 30 30 29.5523 30 29V19C30 18.4477 29.5523 18 29 18Z" fill="url(#nc-ui-2-4_linear_103_67)"></path> <defs> <linearGradient id="nc-ui-2-0_linear_103_67" x1="9" y1="3" x2="9" y2="45" gradientUnits="userSpaceOnUse"> <stop stop-color="#D0D8FB"></stop> <stop offset="1" stop-color="#8192F3"></stop> </linearGradient> <linearGradient id="nc-ui-2-1_linear_103_67" x1="39" y1="3" x2="39" y2="45" gradientUnits="userSpaceOnUse"> <stop stop-color="#D0D8FB"></stop> <stop offset="1" stop-color="#8192F3"></stop> </linearGradient> <linearGradient id="nc-ui-2-2_linear_103_67" x1="31.5" y1="3" x2="31.5" y2="45" gradientUnits="userSpaceOnUse"> <stop stop-color="#D0D8FB"></stop> <stop offset="1" stop-color="#8192F3"></stop> </linearGradient> <linearGradient id="nc-ui-2-3_linear_103_67" x1="24" y1="18" x2="24" y2="45" gradientUnits="userSpaceOnUse"> <stop stop-color="#344EEA"></stop> <stop offset="1" stop-color="#2138BB"></stop> </linearGradient> <linearGradient id="nc-ui-2-4_linear_103_67" x1="24" y1="18" x2="24" y2="45" gradientUnits="userSpaceOnUse"> <stop stop-color="#344EEA"></stop> <stop offset="1" stop-color="#2138BB"></stop> </linearGradient> </defs></g></svg>