<svg xmlns="http://www.w3.org/2000/svg" height="48" width="48" viewBox="0 0 48 48"><title>creative commons</title><g class="nc-icon-wrapper"><path d="M35.766,29.455A5.575,5.575,0,0,1,33.238,30C31.942,30,28,30,28,24s3.942-6,5.238-6a5.575,5.575,0,0,1,2.528.545l.768.388,1.788-3.577-.754-.381A9.5,9.5,0,0,0,33.238,14C27.453,14,24,17.738,24,24s3.453,10,9.238,10a9.5,9.5,0,0,0,4.33-.975l.754-.381-1.788-3.577Z" fill="#444"></path><path d="M24,0A24,24,0,1,0,48,24,24.028,24.028,0,0,0,24,0Zm0,44A20,20,0,1,1,44,24,20.023,20.023,0,0,1,24,44Z" fill="#b3b3b3"></path><path d="M17.238,18a5.575,5.575,0,0,1,2.528.545l.768.388,1.788-3.577-.754-.381A9.5,9.5,0,0,0,17.238,14C11.453,14,8,17.738,8,24s3.453,10,9.238,10a9.5,9.5,0,0,0,4.33-.975l.754-.381-1.788-3.577-.768.388A5.575,5.575,0,0,1,17.238,30C15.942,30,12,30,12,24S15.942,18,17.238,18Z" fill="#444"></path></g></svg>