<svg xmlns="http://www.w3.org/2000/svg" height="48" width="48" viewBox="0 0 48 48"><title>data table</title><g class="nc-icon-wrapper"><path d="M42,3H6A3,3,0,0,0,3,6V42a3,3,0,0,0,3,3H42a3,3,0,0,0,3-3V6A3,3,0,0,0,42,3Z" fill="#363636"></path><rect x="5" y="20" width="38" height="23" rx="1" fill="#636363"></rect><path d="M9,28H21a1,1,0,0,1,1,1h0a1,1,0,0,1-1,1H9a1,1,0,0,1-1-1H8A1,1,0,0,1,9,28Z" fill="#aeaeae"></path><path d="M9,38H21a1,1,0,0,1,1,1h0a1,1,0,0,1-1,1H9a1,1,0,0,1-1-1H8A1,1,0,0,1,9,38Z" fill="#aeaeae"></path><path d="M9,33H21a1,1,0,0,1,1,1h0a1,1,0,0,1-1,1H9a1,1,0,0,1-1-1H8A1,1,0,0,1,9,33Z" fill="#aeaeae"></path><path d="M27,28H39a1,1,0,0,1,1,1h0a1,1,0,0,1-1,1H27a1,1,0,0,1-1-1h0A1,1,0,0,1,27,28Z" fill="#aeaeae"></path><path d="M9,23H21a1,1,0,0,1,1,1h0a1,1,0,0,1-1,1H9a1,1,0,0,1-1-1H8A1,1,0,0,1,9,23Z" fill="#aeaeae"></path><path d="M27,23H39a1,1,0,0,1,1,1h0a1,1,0,0,1-1,1H27a1,1,0,0,1-1-1h0A1,1,0,0,1,27,23Z" fill="#aeaeae"></path><path d="M27,38H39a1,1,0,0,1,1,1h0a1,1,0,0,1-1,1H27a1,1,0,0,1-1-1h0A1,1,0,0,1,27,38Z" fill="#aeaeae"></path><path d="M27,33H39a1,1,0,0,1,1,1h0a1,1,0,0,1-1,1H27a1,1,0,0,1-1-1h0A1,1,0,0,1,27,33Z" fill="#aeaeae"></path><rect x="7" y="7" width="15" height="9" rx="1" fill="#ffd764"></rect><rect x="26" y="7" width="15" height="9" rx="1" fill="#ffd764"></rect><rect x="10" y="10" width="9" height="3" fill="#eba40a"></rect><rect x="29" y="10" width="9" height="3" fill="#eba40a"></rect></g></svg>