<svg xmlns="http://www.w3.org/2000/svg" height="48" width="48" viewBox="0 0 48 48"><title>decision process</title><g class="nc-icon-wrapper"><path d="M36,28V39H23v2H37a1,1,0,0,0,1-1V28Z" fill="#82adb2"></path><path d="M37,8H23v2H36V20h2V9A1,1,0,0,0,37,8Z" fill="#82adb2"></path><rect x="13" y="14" width="2" height="21" fill="#82adb2"></rect><path d="M14,16a1,1,0,0,1-.515-.143l-10-6a1,1,0,0,1,0-1.714l10-6a1,1,0,0,1,1.03,0l10,6a1,1,0,0,1,0,1.714l-10,6A1,1,0,0,1,14,16Z" fill="#335262"></path><path d="M45,30H29a1,1,0,0,1-1-1V19a1,1,0,0,1,1-1H45a1,1,0,0,1,1,1V29A1,1,0,0,1,45,30Z" fill="#ea9860"></path><path d="M18,46H10a6,6,0,0,1,0-12h8a6,6,0,0,1,0,12Z" fill="#335262"></path></g></svg>