<svg xmlns="http://www.w3.org/2000/svg" height="48" width="48" viewBox="0 0 48 48"><title>depth</title><g class="nc-icon-wrapper"><path d="M45,31H19c-1.105,0-2-.895-2-2V3c0-.552,.448-1,1-1h2c.552,0,1,.448,1,1V27h24c.552,0,1,.448,1,1v2c0,.552-.448,1-1,1Z" fill="#ada8fa"></path><path d="M21,27c-.781-.781-2.047-.781-2.828,0l-10.879,10.879-2.586-2.586c-.261-.261-.642-.359-.997-.25-.353,.106-.618,.399-.69,.761l-2,10c-.065,.328,.037,.667,.273,.903,.189,.189,.444,.293,.707,.293,.065,0,.131-.007,.196-.02l10-2c.361-.072,.654-.338,.761-.69,.106-.354,.011-.736-.25-.997l-2.586-2.586,10.879-10.879c.781-.781,.781-2.047,0-2.828Z" fill="#645aed"></path></g></svg>