<svg xmlns="http://www.w3.org/2000/svg" height="48" width="48" style="" viewBox="0 0 48 48"><title>design system</title><g class="nc-icon-wrapper"><path d="M9 36V14H7V36C7.003 38.76 9.24 40.997 12 41H34V39H12C10.343 39 9 37.657 9 36Z" fill="url(#nc-ui-2-0_linear_103_73)"></path> <path d="M39 12V34H41V12C40.997 9.24 38.76 7.003 36 7H14V9H36C37.657 9 39 10.343 39 12Z" fill="url(#nc-ui-2-1_linear_103_73)"></path> <path d="M13 2H3C2.44772 2 2 2.44772 2 3V13C2 13.5523 2.44772 14 3 14H13C13.5523 14 14 13.5523 14 13V3C14 2.44772 13.5523 2 13 2Z" fill="url(#nc-ui-2-2_linear_103_73)"></path> <path d="M45 34H35C34.4477 34 34 34.4477 34 35V45C34 45.5523 34.4477 46 35 46H45C45.5523 46 46 45.5523 46 45V35C46 34.4477 45.5523 34 45 34Z" fill="url(#nc-ui-2-3_linear_103_73)"></path> <defs> <linearGradient id="nc-ui-2-0_linear_103_73" x1="20.5" y1="14" x2="20.5" y2="41" gradientUnits="userSpaceOnUse"> <stop stop-color="#FFF0CC"></stop> <stop offset="1" stop-color="#FFE39E"></stop> </linearGradient> <linearGradient id="nc-ui-2-1_linear_103_73" x1="27.5" y1="7" x2="27.5" y2="34" gradientUnits="userSpaceOnUse"> <stop stop-color="#FFF0CC"></stop> <stop offset="1" stop-color="#FFE39E"></stop> </linearGradient> <linearGradient id="nc-ui-2-2_linear_103_73" x1="8" y1="2" x2="8" y2="14" gradientUnits="userSpaceOnUse"> <stop stop-color="#FFD36E"></stop> <stop offset="1" stop-color="#F6B828"></stop> </linearGradient> <linearGradient id="nc-ui-2-3_linear_103_73" x1="40" y1="34" x2="40" y2="46" gradientUnits="userSpaceOnUse"> <stop stop-color="#FFD36E"></stop> <stop offset="1" stop-color="#F6B828"></stop> </linearGradient> </defs></g></svg>