<svg xmlns="http://www.w3.org/2000/svg" height="48" width="48" viewBox="0 0 48 48"><title>devto</title><g class="nc-icon-wrapper"><rect x="5" y="1" width="38" height="46" rx="3" transform="translate(0 48) rotate(-90)" fill="#0a0a0a"></rect><path d="M16.851,20.566A4.41,4.41,0,0,0,12.277,16H7.7V31.98h4.481a4.412,4.412,0,0,0,4.67-4.564ZM14.124,27.4a1.472,1.472,0,0,1-.562,1.261,1.875,1.875,0,0,1-1.125.42H10.752V18.99h1.684a1.875,1.875,0,0,1,1.125.42,1.479,1.479,0,0,1,.563,1.261Z" fill="#fff"></path><path d="M26.576,18.854H21.43v3.71h3.146V25.42H21.43v3.71h5.147v2.855H20.572a1.951,1.951,0,0,1-2-1.9V18a1.953,1.953,0,0,1,1.9-2h6.1v2.851Z" fill="#fff"></path><path d="M36.585,29.988c-1.275,2.97-3.559,2.379-4.582,0L28.282,16h3.146L34.3,26.987,37.153,16H40.3L36.585,29.988Z" fill="#fff"></path></g></svg>