<svg xmlns="http://www.w3.org/2000/svg" height="48" width="48" style="" viewBox="0 0 48 48"><title>digital image</title><g class="nc-icon-wrapper"><path d="M34 5H4C2.343 5 1 6.343 1 8V40C1 41.657 2.343 43 4 43H34V5Z" fill="url(#nc-digital-image-0_linear_422_9)"></path> <path d="M15 20C17.2091 20 19 18.2091 19 16C19 13.7909 17.2091 12 15 12C12.7909 12 11 13.7909 11 16C11 18.2091 12.7909 20 15 20Z" fill="url(#nc-digital-image-1_linear_422_9)"></path> <path d="M43 29C42.448 29 42 28.552 42 28V21H41C40.448 21 40 20.552 40 20C40 19.448 40.448 19 41 19H43C43.552 19 44 19.448 44 20V28C44 28.552 43.552 29 43 29Z" fill="url(#nc-digital-image-2_linear_422_9)"></path> <path d="M43 5C40.791 5 39 6.791 39 9V12C39 14.209 40.791 16 43 16C45.209 16 47 14.209 47 12V9C47 6.791 45.209 5 43 5ZM45 12C45 13.103 44.103 14 43 14C41.897 14 41 13.103 41 12V9C41 7.897 41.897 7 43 7C44.103 7 45 7.897 45 9V12Z" fill="url(#nc-digital-image-3_linear_422_9)"></path> <path d="M43 32C40.791 32 39 33.791 39 36V39C39 41.209 40.791 43 43 43C45.209 43 47 41.209 47 39V36C47 33.791 45.209 32 43 32ZM45 39C45 40.103 44.103 41 43 41C41.897 41 41 40.103 41 39V36C41 34.897 41.897 34 43 34C44.103 34 45 34.897 45 36V39Z" fill="url(#nc-digital-image-4_linear_422_9)"></path> <path d="M34 24.073L30.871 18.51C30.702 18.209 30.391 18.018 30.047 18.001C29.705 17.98 29.374 18.147 29.178 18.431L20.86 30.446L15.708 25.294C15.496 25.083 15.208 24.982 14.902 25.006C14.604 25.035 14.335 25.197 14.169 25.446L8.169 34.446C7.965 34.753 7.945 35.147 8.119 35.472C8.293 35.797 8.632 36 9.001 36H34.001L34 24.073Z" fill="url(#nc-digital-image-5_linear_422_9)"></path> <path d="M33 46C32.447 46 32 45.553 32 45V3C32 2.447 32.447 2 33 2C33.553 2 34 2.447 34 3V45C34 45.553 33.553 46 33 46Z" fill="url(#nc-digital-image-6_linear_422_9)"></path> <defs> <linearGradient id="nc-digital-image-0_linear_422_9" x1="17.5" y1="5" x2="17.5" y2="43" gradientUnits="userSpaceOnUse"> <stop stop-color="#E0E0E6"></stop> <stop offset="1" stop-color="#C2C3CD"></stop> </linearGradient> <linearGradient id="nc-digital-image-1_linear_422_9" x1="15" y1="12" x2="15" y2="20" gradientUnits="userSpaceOnUse"> <stop stop-color="#C2C3CD"></stop> <stop offset="1" stop-color="#A2A3B4"></stop> </linearGradient> <linearGradient id="nc-digital-image-2_linear_422_9" x1="42" y1="19" x2="42" y2="29" gradientUnits="userSpaceOnUse"> <stop stop-color="#5B5E71"></stop> <stop offset="1" stop-color="#393A46"></stop> </linearGradient> <linearGradient id="nc-digital-image-3_linear_422_9" x1="43" y1="5" x2="43" y2="16" gradientUnits="userSpaceOnUse"> <stop stop-color="#5B5E71"></stop> <stop offset="1" stop-color="#393A46"></stop> </linearGradient> <linearGradient id="nc-digital-image-4_linear_422_9" x1="43" y1="32" x2="43" y2="43" gradientUnits="userSpaceOnUse"> <stop stop-color="#5B5E71"></stop> <stop offset="1" stop-color="#393A46"></stop> </linearGradient> <linearGradient id="nc-digital-image-5_linear_422_9" x1="21.001" y1="17.9992" x2="21.001" y2="36" gradientUnits="userSpaceOnUse"> <stop stop-color="#C2C3CD"></stop> <stop offset="1" stop-color="#A2A3B4"></stop> </linearGradient> <linearGradient id="nc-digital-image-6_linear_422_9" x1="33" y1="2" x2="33" y2="46" gradientUnits="userSpaceOnUse"> <stop stop-color="#5B5E71"></stop> <stop offset="1" stop-color="#393A46"></stop> </linearGradient> </defs></g></svg>