<svg xmlns="http://www.w3.org/2000/svg" height="48" width="48" viewBox="0 0 48 48"><title>distribute horizontal</title><g class="nc-icon-wrapper"><path fill="#B3B3B3" d="M4,47c-0.552,0-1-0.447-1-1V2c0-0.553,0.448-1,1-1s1,0.447,1,1v44C5,46.553,4.552,47,4,47z"></path> <path fill="#B3B3B3" d="M44,47c-0.552,0-1-0.447-1-1V2c0-0.553,0.448-1,1-1s1,0.447,1,1v44C45,46.553,44.552,47,44,47z"></path> <path fill="#43A6DD" d="M30,9H18c-0.552,0-1,0.447-1,1v28c0,0.553,0.448,1,1,1h12c0.552,0,1-0.447,1-1V10C31,9.447,30.552,9,30,9z"></path></g></svg>