<svg xmlns="http://www.w3.org/2000/svg" height="48" width="48" viewBox="0 0 48 48"><title>divider</title><g class="nc-icon-wrapper"><path fill="#72C472" d="M41,19H7c-1.105,0-2-0.895-2-2V3c0-1.105,0.895-2,2-2h34c1.105,0,2,0.895,2,2v14C43,18.105,42.105,19,41,19z "></path> <path fill="#72C472" d="M41,47H7c-1.105,0-2-0.895-2-2V31c0-1.105,0.895-2,2-2h34c1.105,0,2,0.895,2,2v14C43,46.105,42.105,47,41,47 z"></path> <path fill="#B3B3B3" d="M46,25H2c-0.553,0-1-0.448-1-1s0.447-1,1-1h44c0.553,0,1,0.448,1,1S46.553,25,46,25z"></path></g></svg>