<svg xmlns="http://www.w3.org/2000/svg" height="48" width="48" viewBox="0 0 48 48"><title>edit curves</title><g class="nc-icon-wrapper"><rect x="1" y="5" width="46" height="38" rx="1" fill="#444"></rect><rect x="23" y="5" width="2" height="38" fill="#606060"></rect><rect x="11" y="5" width="2" height="38" fill="#606060"></rect><rect x="35" y="5" width="2" height="38" fill="#606060"></rect><rect x="1" y="23" width="46" height="2" fill="#606060"></rect><rect x="1" y="14" width="46" height="2" fill="#606060"></rect><rect x="1" y="32" width="46" height="2" fill="#606060"></rect><path d="M2,43a1,1,0,0,1-.082-2c10.957-.913,16.865-9.346,21.2-17.475C27.937,14.492,34.034,5.994,45.917,5A.982.982,0,0,1,47,5.917,1,1,0,0,1,46.083,7c-10.928.911-16.647,8.938-21.2,17.475C20.294,33.074,14,42,2.083,43A.8.8,0,0,1,2,43Z" fill="#b3b3b3"></path></g></svg>