<svg xmlns="http://www.w3.org/2000/svg" height="48" width="48" style="" viewBox="0 0 48 48"><title>empty</title><g class="nc-icon-wrapper"><path d="M24 44C12.972 44 4 35.028 4 24C4 12.972 12.972 4 24 4C35.028 4 44 12.972 44 24C44 35.028 35.028 44 24 44ZM24 8C15.178 8 8 15.178 8 24C8 32.822 15.178 40 24 40C32.822 40 40 32.822 40 24C40 15.178 32.822 8 24 8Z" fill="url(#nc-ui-1-0_linear_43_243)"></path> <path opacity="0.15" d="M15.014 37.229C14.181 36.661 13.403 36.019 12.692 35.309L9.86499 38.136C10.575 38.846 11.352 39.485 12.161 40.082L15.014 37.229Z" fill="black"></path> <path opacity="0.15" d="M38.135 9.86499L35.308 12.692C36.019 13.402 36.661 14.181 37.228 15.014L40.081 12.161C39.484 11.352 38.844 10.575 38.135 9.86499Z" fill="black"></path> <path d="M3 46C2.448 46 2 45.552 2 45C2 44.735 2.105 44.481 2.293 44.293L44.293 2.29299C44.677 1.89599 45.31 1.88499 45.707 2.26799C46.104 2.65099 46.115 3.28499 45.732 3.68199C45.724 3.68999 45.716 3.69799 45.707 3.70699L3.707 45.707C3.52 45.895 3.265 46 3 46Z" fill="url(#nc-ui-1-1_linear_43_243)"></path> <defs> <linearGradient id="nc-ui-1-0_linear_43_243" x1="24" y1="4" x2="24" y2="44" gradientUnits="userSpaceOnUse"> <stop stop-color="#5B5E71"></stop> <stop offset="1" stop-color="#393A46"></stop> </linearGradient> <linearGradient id="nc-ui-1-1_linear_43_243" x1="24.0061" y1="1.98784" x2="24.0061" y2="46" gradientUnits="userSpaceOnUse"> <stop stop-color="#FF666D"></stop> <stop offset="1" stop-color="#E0211F"></stop> </linearGradient> </defs></g></svg>