<svg xmlns="http://www.w3.org/2000/svg" height="48" width="48" style="" viewBox="0 0 48 48"><title>fairy wand</title><g class="nc-icon-wrapper"><path d="M4.00001 45C3.74401 45 3.48801 44.902 3.29301 44.707C2.90201 44.316 2.90201 43.684 3.29301 43.293L29.293 17.293C29.684 16.902 30.316 16.902 30.707 17.293C31.098 17.684 31.098 18.316 30.707 18.707L4.70701 44.707C4.51201 44.902 4.25601 45 4.00001 45Z" fill="url(#nc-fairy-wand-0_linear_422_2)"></path> <path d="M12 23C10.895 23 10 22.105 10 21C10 20.447 9.552 20 9 20C8.448 20 8 20.447 8 21C8 22.105 7.105 23 6 23C5.448 23 5 23.447 5 24C5 24.553 5.448 25 6 25C7.105 25 8 25.895 8 27C8 27.553 8.448 28 9 28C9.552 28 10 27.553 10 27C10 25.895 10.895 25 12 25C12.552 25 13 24.553 13 24C13 23.447 12.552 23 12 23Z" fill="url(#nc-fairy-wand-1_linear_422_2)"></path> <path d="M24 35C23.447 35 23 35.448 23 36C23 37.105 22.105 38 21 38C20.447 38 20 38.448 20 39C20 39.552 20.447 40 21 40C22.105 40 23 40.895 23 42C23 42.552 23.447 43 24 43C24.553 43 25 42.552 25 42C25 40.895 25.895 40 27 40C27.553 40 28 39.552 28 39C28 38.448 27.553 38 27 38C25.895 38 25 37.105 25 36C25 35.448 24.553 35 24 35Z" fill="url(#nc-fairy-wand-2_linear_422_2)"></path> <path d="M18 7C15.791 7 14 5.209 14 3C14 2.447 13.553 2 13 2C12.447 2 12 2.447 12 3C12 5.209 10.209 7 8 7C7.447 7 7 7.447 7 8C7 8.553 7.447 9 8 9C10.209 9 12 10.791 12 13C12 13.553 12.447 14 13 14C13.553 14 14 13.553 14 13C14 10.791 15.791 9 18 9C18.553 9 19 8.553 19 8C19 7.447 18.553 7 18 7Z" fill="url(#nc-fairy-wand-3_linear_422_2)"></path> <path d="M45 34C42.791 34 41 32.209 41 30C41 29.447 40.553 29 40 29C39.447 29 39 29.447 39 30C39 32.209 37.209 34 35 34C34.447 34 34 34.447 34 35C34 35.553 34.447 36 35 36C37.209 36 39 37.791 39 40C39 40.553 39.447 41 40 41C40.553 41 41 40.553 41 40C41 37.791 42.791 36 45 36C45.553 36 46 35.553 46 35C46 34.447 45.553 34 45 34Z" fill="url(#nc-fairy-wand-4_linear_422_2)"></path> <path d="M31.74 26.985C31.688 26.985 31.636 26.981 31.584 26.972C31.215 26.914 30.909 26.655 30.791 26.299L28.526 19.474L21.681 17.209C21.326 17.092 21.066 16.785 21.008 16.416C20.949 16.046 21.103 15.675 21.404 15.453L27.215 11.196L27.252 3.988C27.254 3.613 27.465 3.271 27.799 3.101C28.131 2.933 28.532 2.961 28.837 3.181L34.681 7.392L41.549 5.2C41.904 5.088 42.296 5.181 42.561 5.446C42.825 5.712 42.919 6.102 42.805 6.459L40.606 13.317L44.813 19.171C45.032 19.476 45.062 19.876 44.892 20.209C44.722 20.543 44.38 20.753 44.005 20.755L36.801 20.784L32.545 26.576C32.356 26.835 32.055 26.984 31.739 26.984L31.74 26.985Z" fill="url(#nc-fairy-wand-5_linear_422_2)"></path> <defs> <linearGradient id="nc-fairy-wand-0_linear_422_2" x1="17" y1="16.9997" x2="17" y2="45" gradientUnits="userSpaceOnUse"> <stop stop-color="#C88509"></stop> <stop offset="1" stop-color="#976507"></stop> </linearGradient> <linearGradient id="nc-fairy-wand-1_linear_422_2" x1="9" y1="20" x2="9" y2="28" gradientUnits="userSpaceOnUse"> <stop stop-color="#FFD36E"></stop> <stop offset="1" stop-color="#F6B828"></stop> </linearGradient> <linearGradient id="nc-fairy-wand-2_linear_422_2" x1="24" y1="35" x2="24" y2="43" gradientUnits="userSpaceOnUse"> <stop stop-color="#FFD36E"></stop> <stop offset="1" stop-color="#F6B828"></stop> </linearGradient> <linearGradient id="nc-fairy-wand-3_linear_422_2" x1="13" y1="2" x2="13" y2="14" gradientUnits="userSpaceOnUse"> <stop stop-color="#FFE39E"></stop> <stop offset="1" stop-color="#FFD36E"></stop> </linearGradient> <linearGradient id="nc-fairy-wand-4_linear_422_2" x1="40" y1="29" x2="40" y2="41" gradientUnits="userSpaceOnUse"> <stop stop-color="#FFE39E"></stop> <stop offset="1" stop-color="#FFD36E"></stop> </linearGradient> <linearGradient id="nc-fairy-wand-5_linear_422_2" x1="32.9984" y1="2.99268" x2="32.9984" y2="26.985" gradientUnits="userSpaceOnUse"> <stop stop-color="#FFD36E"></stop> <stop offset="1" stop-color="#F6B828"></stop> </linearGradient> </defs></g></svg>