<svg xmlns="http://www.w3.org/2000/svg" height="48" width="48" viewBox="0 0 48 48"><title>file tif</title><g class="nc-icon-wrapper"><polygon fill="#4DA34D" points="44,27 4,27 1,23 5,19 43,19 47,23 "></polygon> <path fill="#E6E6E6" d="M41,47H7c-1.105,0-2-0.895-2-2V3c0-1.105,0.895-2,2-2l24,0l12,12v32C43,46.105,42.105,47,41,47z"></path> <path fill="#B3B3B3" d="M31,1v10c0,1.105,0.895,2,2,2h10L31,1z"></path> <path fill="#72C472" d="M45,41H3c-1.105,0-2-0.895-2-2V23h46v16C47,40.105,46.105,41,45,41z"></path> <path fill="#FFFFFF" d="M20.184,36h-2.122v-6.117h-1.917v-1.735h5.951v1.735h-1.912V36z"></path> <path fill="#FFFFFF" d="M23.219,36v-7.853h2.132V36H23.219z"></path> <path fill="#FFFFFF" d="M29.138,36h-2.089v-7.853h4.641v1.702h-2.551v1.499h2.353v1.702h-2.353V36z"></path></g></svg>