<svg xmlns="http://www.w3.org/2000/svg" height="48" width="48" viewBox="0 0 48 48"><title>filter organization</title><g class="nc-icon-wrapper"><path fill="#B3B3B3" d="M19,11V9H7V1c0-0.552-0.448-1-1-1C5.448,0,5,0.448,5,1v41c0,0.552,0.448,1,1,1h13v-2H7V27h12v-2H7V11H19z"></path> <path fill="#EFD358" d="M42,16H20c-0.552,0-1-0.447-1-1V5c0-0.553,0.448-1,1-1h22c0.552,0,1,0.447,1,1v10C43,15.553,42.552,16,42,16 z"></path> <path fill="#EFD358" d="M42,48H20c-0.552,0-1-0.447-1-1V37c0-0.553,0.448-1,1-1h22c0.552,0,1,0.447,1,1v10 C43,47.553,42.552,48,42,48z"></path> <path fill="#EFD358" d="M42,32H20c-0.552,0-1-0.447-1-1V21c0-0.553,0.448-1,1-1h22c0.552,0,1,0.447,1,1v10 C43,31.553,42.552,32,42,32z"></path></g></svg>