<svg xmlns="http://www.w3.org/2000/svg" height="48" width="48" style="" viewBox="0 0 48 48"><title>floors</title><g class="nc-icon-wrapper"><path d="M40 15H2.99998C2.44798 15 1.99998 14.552 2.00098 13.999C2.00098 13.829 2.04398 13.663 2.12598 13.515L7.12598 4.515C7.30198 4.197 7.63698 4 7.99998 4H45C45.552 4 46 4.448 45.999 5.001C45.999 5.171 45.956 5.337 45.874 5.485L40.874 14.485C40.698 14.803 40.363 15 40 15Z" fill="url(#nc-ui-1-0_linear_43_215)"></path> <path d="M40 29H2.99998C2.44798 29 1.99998 28.552 2.00098 27.999C2.00098 27.829 2.04398 27.663 2.12598 27.515L7.12598 18.515C7.30198 18.197 7.63698 18 7.99998 18H45C45.552 18 46 18.448 45.999 19.001C45.999 19.171 45.956 19.337 45.874 19.485L40.874 28.485C40.698 28.803 40.363 29 40 29Z" fill="url(#nc-ui-1-1_linear_43_215)"></path> <path d="M40 43H2.99998C2.44798 43 1.99998 42.552 2.00098 41.999C2.00098 41.829 2.04398 41.663 2.12598 41.515L7.12598 32.515C7.30198 32.197 7.63698 32 7.99998 32H45C45.552 32 46 32.448 45.999 33.001C45.999 33.171 45.956 33.337 45.874 33.485L40.874 42.485C40.698 42.803 40.363 43 40 43Z" fill="url(#nc-ui-1-2_linear_43_215)"></path> <defs> <linearGradient id="nc-ui-1-0_linear_43_215" x1="24" y1="4" x2="24" y2="15" gradientUnits="userSpaceOnUse"> <stop stop-color="#D4D3C9"></stop> <stop offset="1" stop-color="#B0B09C"></stop> </linearGradient> <linearGradient id="nc-ui-1-1_linear_43_215" x1="24" y1="18" x2="24" y2="29" gradientUnits="userSpaceOnUse"> <stop stop-color="#929170"></stop> <stop offset="1" stop-color="#6C6C56"></stop> </linearGradient> <linearGradient id="nc-ui-1-2_linear_43_215" x1="24" y1="32" x2="24" y2="43" gradientUnits="userSpaceOnUse"> <stop stop-color="#464738"></stop> <stop offset="1" stop-color="#303026"></stop> </linearGradient> </defs></g></svg>