<svg xmlns="http://www.w3.org/2000/svg" height="48" width="48" viewBox="0 0 48 48"><title>form</title><g class="nc-icon-wrapper"><path fill="#8680D8" d="M43,47H24c-0.552,0-1-0.448-1-1v-8c0-0.552,0.448-1,1-1h19c0.552,0,1,0.448,1,1v8C44,46.552,43.552,47,43,47 z"></path> <path fill="#B3B3B3" d="M43,33H5c-0.552,0-1-0.448-1-1V14c0-0.552,0.448-1,1-1h38c0.552,0,1,0.448,1,1v18C44,32.552,43.552,33,43,33 z"></path> <rect x="6" y="15" fill="#FFFFFF" width="36" height="16"></rect> <path fill="#B3B3B3" d="M43,9H5C4.448,9,4,8.552,4,8V2c0-0.552,0.448-1,1-1h38c0.552,0,1,0.448,1,1v6C44,8.552,43.552,9,43,9z"></path> <rect x="6" y="3" fill="#FFFFFF" width="36" height="4"></rect></g></svg>