<svg xmlns="http://www.w3.org/2000/svg" height="48" width="48" style="" viewBox="0 0 48 48"><title>geometry</title><g class="nc-icon-wrapper"><path d="M37 26C42.5228 26 47 21.5228 47 16C47 10.4772 42.5228 6 37 6C31.4772 6 27 10.4772 27 16C27 21.5228 31.4772 26 37 26Z" fill="url(#nc-ui-1-0_linear_43_261)"></path> <path d="M27 27H11C10.4477 27 10 27.4477 10 28V44C10 44.5523 10.4477 45 11 45H27C27.5523 45 28 44.5523 28 44V28C28 27.4477 27.5523 27 27 27Z" fill="url(#nc-ui-1-1_linear_43_261)"></path> <path d="M3.99997 21H22C22.552 21 23 20.552 23 20C23 19.819 22.951 19.641 22.857 19.485L13.857 4.48502C13.532 4.01202 12.884 3.89201 12.411 4.21701C12.306 4.28901 12.215 4.38002 12.143 4.48502L3.14297 19.485C2.85897 19.958 3.01197 20.573 3.48497 20.857C3.63997 20.95 3.81797 21 3.99997 21Z" fill="url(#nc-ui-1-2_linear_43_261)"></path> <defs> <linearGradient id="nc-ui-1-0_linear_43_261" x1="37" y1="6" x2="37" y2="26" gradientUnits="userSpaceOnUse"> <stop stop-color="#C5DCE7"></stop> <stop offset="1" stop-color="#80B0CB"></stop> </linearGradient> <linearGradient id="nc-ui-1-1_linear_43_261" x1="19" y1="27" x2="19" y2="45" gradientUnits="userSpaceOnUse"> <stop stop-color="#4480A7"></stop> <stop offset="1" stop-color="#32597C"></stop> </linearGradient> <linearGradient id="nc-ui-1-2_linear_43_261" x1="13.0001" y1="4.03424" x2="13.0001" y2="21" gradientUnits="userSpaceOnUse"> <stop stop-color="#203B50"></stop> <stop offset="1" stop-color="#13232F"></stop> </linearGradient> </defs></g></svg>