<svg xmlns="http://www.w3.org/2000/svg" height="48" width="48" viewBox="0 0 48 48"><title>grid system</title><g class="nc-icon-wrapper"><rect x="1" y="37" width="46" height="7" rx="1" ry="1" fill="#43a6dd"></rect> <rect x="1" y="14" width="12" height="6" rx="1" ry="1" fill="#43a6dd"></rect> <rect x="1" y="4" width="6" height="5" rx="1" ry="1" fill="#badefc"></rect> <rect x="14" y="4" width="6" height="5" rx="1" ry="1" fill="#badefc"></rect> <rect x="28" y="4" width="6" height="5" rx="1" ry="1" fill="#badefc"></rect> <rect x="41" y="4" width="6" height="5" rx="1" ry="1" fill="#badefc"></rect> <rect x="1" y="25" width="20" height="7" rx="1" ry="1" fill="#badefc"></rect> <rect x="27" y="25" width="20" height="7" rx="1" ry="1" fill="#badefc"></rect> <rect x="18" y="14" width="12" height="6" rx="1" ry="1" fill="#43a6dd"></rect> <rect x="35" y="14" width="12" height="6" rx="1" ry="1" fill="#43a6dd"></rect></g></svg>