<svg xmlns="http://www.w3.org/2000/svg" height="48" width="48" viewBox="0 0 48 48"><title>group</title><g class="nc-icon-wrapper"><path fill="#335262" d="M38,39H20c-0.552,0-1-0.448-1-1V20c0-0.552,0.448-1,1-1h18c0.552,0,1,0.448,1,1v18 C39,38.552,38.552,39,38,39z"></path> <path fill="#B3B3B3" d="M46,47H2c-0.553,0-1-0.447-1-1V2c0-0.553,0.447-1,1-1h44c0.553,0,1,0.447,1,1v44C47,46.553,46.553,47,46,47z M3,45h42V3H3V45z"></path> <path fill="#5A7A84" d="M28,29H10c-0.552,0-1-0.448-1-1V10c0-0.552,0.448-1,1-1h18c0.552,0,1,0.448,1,1v18 C29,28.552,28.552,29,28,29z"></path></g></svg>