<svg xmlns="http://www.w3.org/2000/svg" height="48" width="48" style="" viewBox="0 0 48 48"><title>hash mark</title><g class="nc-icon-wrapper"><path d="M13.0029 46C12.9029 46 12.8039 45.993 12.7029 45.978C11.6109 45.814 10.8579 44.796 11.0219 43.703L17.0219 3.70298C17.1849 2.60998 18.2109 1.85898 19.2959 2.02198C20.3879 2.18598 21.1409 3.20398 20.9769 4.29698L14.9769 44.297C14.8289 45.289 13.9749 46.001 13.0019 46.001L13.0029 46Z" fill="url(#nc-hash-mark-0_linear_235_195)"></path> <path d="M29.0029 46C28.9029 46 28.8039 45.993 28.7029 45.978C27.6109 45.814 26.8579 44.796 27.0219 43.703L33.0219 3.70298C33.1849 2.60998 34.2109 1.85898 35.2959 2.02198C36.3879 2.18598 37.1409 3.20398 36.9769 4.29698L30.9769 44.297C30.8289 45.289 29.9749 46.001 29.0019 46.001L29.0029 46Z" fill="url(#nc-hash-mark-1_linear_235_195)"></path> <path opacity="0.15" d="M14.578 20H18.622L19.222 16H15.178L14.578 20Z" fill="black"></path> <path opacity="0.15" d="M30.578 20H34.622L35.222 16H31.178L30.578 20Z" fill="black"></path> <path opacity="0.15" d="M16.222 36L16.822 32H12.778L12.178 36H16.222Z" fill="black"></path> <path opacity="0.15" d="M32.222 36L32.822 32H28.778L28.178 36H32.222Z" fill="black"></path> <path d="M40 18H10C8.896 18 8 17.104 8 16C8 14.896 8.896 14 10 14H40C41.104 14 42 14.896 42 16C42 17.104 41.104 18 40 18Z" fill="url(#nc-hash-mark-2_linear_235_195)"></path> <path d="M38 34H8C6.896 34 6 33.104 6 32C6 30.896 6.896 30 8 30H38C39.104 30 40 30.896 40 32C40 33.104 39.104 34 38 34Z" fill="url(#nc-hash-mark-3_linear_235_195)"></path> <defs> <linearGradient id="nc-hash-mark-0_linear_235_195" x1="15.9994" y1="1.99976" x2="15.9994" y2="46.001" gradientUnits="userSpaceOnUse"> <stop stop-color="#929170"></stop> <stop offset="1" stop-color="#6C6C56"></stop> </linearGradient> <linearGradient id="nc-hash-mark-1_linear_235_195" x1="31.9994" y1="1.99976" x2="31.9994" y2="46.001" gradientUnits="userSpaceOnUse"> <stop stop-color="#929170"></stop> <stop offset="1" stop-color="#6C6C56"></stop> </linearGradient> <linearGradient id="nc-hash-mark-2_linear_235_195" x1="25" y1="14" x2="25" y2="18" gradientUnits="userSpaceOnUse"> <stop stop-color="#B0B09C"></stop> <stop offset="1" stop-color="#929170"></stop> </linearGradient> <linearGradient id="nc-hash-mark-3_linear_235_195" x1="23" y1="30" x2="23" y2="34" gradientUnits="userSpaceOnUse"> <stop stop-color="#B0B09C"></stop> <stop offset="1" stop-color="#929170"></stop> </linearGradient> </defs> </g></svg>