<svg xmlns="http://www.w3.org/2000/svg" height="48" width="48" style="" viewBox="0 0 48 48"><title>hot key</title><g class="nc-icon-wrapper"><path d="M31 2H7C4.24 2.003 2.003 4.24 2 7V31C2.003 33.76 4.24 35.997 7 36H31C33.76 35.997 35.997 33.76 36 31V7C35.997 4.24 33.76 2.003 31 2Z" fill="url(#nc-ui-2-0_linear_103_165)"></path> <path d="M41 12H17C14.24 12.003 12.003 14.24 12 17V41C12.003 43.76 14.24 45.997 17 46H41C43.76 45.997 45.997 43.76 46 41V17C45.997 14.24 43.76 12.003 41 12Z" fill="url(#nc-ui-2-1_linear_103_165)"></path> <path opacity="0.2" d="M41 12H17C14.24 12.003 12.003 14.24 12 17V18C12.003 15.24 14.24 13.003 17 13H41C43.76 13.003 45.997 15.24 46 18V17C45.997 14.24 43.76 12.003 41 12Z" fill="white"></path> <path d="M36 32H34V26H36C38.209 26 40 24.209 40 22C40 19.791 38.209 18 36 18C33.791 18 32 19.791 32 22V24H26V22C26 19.791 24.209 18 22 18C19.791 18 18 19.791 18 22C18 24.209 19.791 26 22 26H24V32H22C19.791 32 18 33.791 18 36C18 38.209 19.791 40 22 40C24.209 40 26 38.209 26 36V34H32V36C32 38.209 33.791 40 36 40C38.209 40 40 38.209 40 36C40 33.791 38.209 32 36 32ZM34 22C34 20.895 34.895 20 36 20C37.105 20 38 20.895 38 22C38 23.105 37.105 24 36 24H34V22ZM22 24C20.895 24 20 23.105 20 22C20 20.895 20.895 20 22 20C23.105 20 24 20.895 24 22V24H22ZM24 36C24 37.105 23.105 38 22 38C20.895 38 20 37.105 20 36C20 34.895 20.895 34 22 34H24V36ZM26 32V26H32V32H26ZM36 38C34.895 38 34 37.105 34 36V34H36C37.105 34 38 34.895 38 36C38 37.105 37.105 38 36 38Z" fill="url(#nc-ui-2-2_linear_103_165)"></path> <defs> <linearGradient id="nc-ui-2-0_linear_103_165" x1="19" y1="2" x2="19" y2="36" gradientUnits="userSpaceOnUse"> <stop stop-color="#C2C3CD"></stop> <stop offset="1" stop-color="#A2A3B4"></stop> </linearGradient> <linearGradient id="nc-ui-2-1_linear_103_165" x1="29" y1="12" x2="29" y2="46" gradientUnits="userSpaceOnUse"> <stop stop-color="#E0E0E6"></stop> <stop offset="1" stop-color="#C2C3CD"></stop> </linearGradient> <linearGradient id="nc-ui-2-2_linear_103_165" x1="29" y1="18" x2="29" y2="40" gradientUnits="userSpaceOnUse"> <stop stop-color="#5B5E71"></stop> <stop offset="1" stop-color="#393A46"></stop> </linearGradient> </defs></g></svg>