<svg xmlns="http://www.w3.org/2000/svg" height="48" width="48" viewBox="0 0 48 48"><title>image 2</title><g class="nc-icon-wrapper"><path fill="#335262" d="M44.908,42.581l-12-26c-0.148-0.32-0.453-0.538-0.803-0.575c-0.358-0.036-0.694,0.112-0.905,0.395L19.8,31.6 L12.6,26.2c-0.238-0.178-0.541-0.241-0.83-0.174c-0.289,0.068-0.532,0.261-0.665,0.526l-8,16c-0.155,0.31-0.138,0.678,0.044,0.973 S3.653,44,4,44h40c0.341,0,0.659-0.174,0.842-0.461C45.026,43.252,45.051,42.891,44.908,42.581z"></path> <circle fill="#EFD358" cx="17" cy="10" r="6"></circle></g></svg>