<svg xmlns="http://www.w3.org/2000/svg" height="48" width="48" viewBox="0 0 48 48"><title>layers</title><g class="nc-icon-wrapper"><path fill="#B3B3B3" d="M23,12v-2H9V1c0-0.552-0.448-1-1-1S7,0.448,7,1v36c0,0.552,0.448,1,1,1h15v-2H9V12H23z"></path> <path fill="#43A6DD" d="M40,22H24c-0.552,0-1-0.447-1-1V1c0-0.553,0.448-1,1-1h10l7,7v14C41,21.553,40.552,22,40,22z"></path> <path fill="#458BC4" d="M34,6V0l7,7h-6C34.448,7,34,6.552,34,6z"></path> <path fill="#43A6DD" d="M40,48H24c-0.552,0-1-0.447-1-1V27c0-0.553,0.448-1,1-1h10l7,7v14C41,47.553,40.552,48,40,48z"></path> <path fill="#458BC4" d="M34,32v-6l7,7h-6C34.448,33,34,32.552,34,32z"></path></g></svg>