<svg xmlns="http://www.w3.org/2000/svg" height="48" width="48" viewBox="0 0 48 48"><title>layers 2</title><g class="nc-icon-wrapper"><path fill="#C6C6C6" d="M45,35H15c-1.10457,0-2-0.89543-2-2V3c0-1.10457,0.89543-2,2-2h30c1.10457,0,2,0.89543,2,2v30 C47,34.10457,46.10457,35,45,35z"></path> <path fill="#E6E6E6" d="M39,41H9c-1.10457,0-2-0.89543-2-2V9c0-1.10457,0.89543-2,2-2h30c1.10457,0,2,0.89543,2,2v30 C41,40.10457,40.10457,41,39,41z"></path> <path fill="#42A6DD" d="M33,47H3c-1.10457,0-2-0.89543-2-2V15c0-1.10457,0.89543-2,2-2h30c1.10457,0,2,0.89543,2,2v30 C35,46.10457,34.10457,47,33,47z"></path></g></svg>