<svg xmlns="http://www.w3.org/2000/svg" height="48" width="48" style="" viewBox="0 0 48 48"><title>layout grid</title><g class="nc-icon-wrapper"><path d="M30 16V3H8C5.239 3 3 5.239 3 8V16H30Z" fill="url(#nc-ui-2-0_linear_103_87)"></path> <path d="M40 3H32V45H40C42.761 45 45 42.761 45 40V8C45 5.239 42.761 3 40 3Z" fill="url(#nc-ui-2-1_linear_103_87)"></path> <path d="M30 18H3V30H30V18Z" fill="url(#nc-ui-2-2_linear_103_87)"></path> <path d="M3 32V40C3 42.761 5.239 45 8 45H30V32H3Z" fill="url(#nc-ui-2-3_linear_103_87)"></path> <defs> <linearGradient id="nc-ui-2-0_linear_103_87" x1="16.5" y1="3" x2="16.5" y2="16" gradientUnits="userSpaceOnUse"> <stop stop-color="#E0E0E6"></stop> <stop offset="1" stop-color="#C2C3CD"></stop> </linearGradient> <linearGradient id="nc-ui-2-1_linear_103_87" x1="38.5" y1="3" x2="38.5" y2="45" gradientUnits="userSpaceOnUse"> <stop stop-color="#5B5E71"></stop> <stop offset="1" stop-color="#393A46"></stop> </linearGradient> <linearGradient id="nc-ui-2-2_linear_103_87" x1="16.5" y1="18" x2="16.5" y2="30" gradientUnits="userSpaceOnUse"> <stop stop-color="#C2C3CD"></stop> <stop offset="1" stop-color="#A2A3B4"></stop> </linearGradient> <linearGradient id="nc-ui-2-3_linear_103_87" x1="16.5" y1="32" x2="16.5" y2="45" gradientUnits="userSpaceOnUse"> <stop stop-color="#A2A3B4"></stop> <stop offset="1" stop-color="#83849B"></stop> </linearGradient> </defs></g></svg>