<svg xmlns="http://www.w3.org/2000/svg" height="48" width="48" style="" viewBox="0 0 48 48"><title>layout</title><g class="nc-icon-wrapper"><path d="M31 3.99999H1.99999C1.47899 3.96899 1.03099 4.36599 0.99999 4.88699C0.99799 4.92499 0.99799 4.96299 0.99999 4.99999V13C0.96899 13.521 1.36599 13.969 1.88699 14C1.92499 14.002 1.96299 14.002 1.99999 14H31C31.521 14.031 31.969 13.634 32 13.113C32.002 13.075 32.002 13.037 32 13V4.99999C32.031 4.47899 31.634 4.03099 31.113 3.99999C31.075 3.99799 31.037 3.99799 31 3.99999Z" fill="url(#nc-ui-2-0_linear_103_153)"></path> <path d="M31 19H1.99999C1.47899 18.969 1.03099 19.366 0.99999 19.887C0.99799 19.925 0.99799 19.963 0.99999 20V28C0.96899 28.521 1.36599 28.969 1.88699 29C1.92499 29.002 1.96299 29.002 1.99999 29H31C31.521 29.031 31.969 28.634 32 28.113C32.002 28.075 32.002 28.037 32 28V20C32.031 19.479 31.634 19.031 31.113 19C31.075 18.998 31.037 18.998 31 19Z" fill="url(#nc-ui-2-1_linear_103_153)"></path> <path d="M31 34H1.99999C1.47899 33.969 1.03099 34.366 0.99999 34.887C0.99799 34.925 0.99799 34.963 0.99999 35V43C0.96899 43.521 1.36599 43.969 1.88699 44C1.92499 44.002 1.96299 44.002 1.99999 44H31C31.521 44.031 31.969 43.634 32 43.113C32.002 43.075 32.002 43.037 32 43V35C32.031 34.479 31.634 34.031 31.113 34C31.075 33.998 31.037 33.998 31 34Z" fill="url(#nc-ui-2-2_linear_103_153)"></path> <path d="M46 3.99999H38C37.479 3.96899 37.031 4.36599 37 4.88699C36.998 4.92499 36.998 4.96299 37 4.99999V43C36.969 43.521 37.366 43.969 37.887 44C37.925 44.002 37.963 44.002 38 44H46C46.521 44.031 46.969 43.634 47 43.113C47.002 43.075 47.002 43.037 47 43V4.99999C47.031 4.47899 46.634 4.03099 46.113 3.99999C46.075 3.99799 46.037 3.99799 46 3.99999Z" fill="url(#nc-ui-2-3_linear_103_153)"></path> <defs> <linearGradient id="nc-ui-2-0_linear_103_153" x1="16.5" y1="3.99829" x2="16.5" y2="44" gradientUnits="userSpaceOnUse"> <stop stop-color="#D0D8FB"></stop> <stop offset="1" stop-color="#8192F3"></stop> </linearGradient> <linearGradient id="nc-ui-2-1_linear_103_153" x1="16.5" y1="4" x2="16.5" y2="44" gradientUnits="userSpaceOnUse"> <stop stop-color="#D0D8FB"></stop> <stop offset="1" stop-color="#8192F3"></stop> </linearGradient> <linearGradient id="nc-ui-2-2_linear_103_153" x1="16.5" y1="4" x2="16.5" y2="44.0017" gradientUnits="userSpaceOnUse"> <stop stop-color="#D0D8FB"></stop> <stop offset="1" stop-color="#8192F3"></stop> </linearGradient> <linearGradient id="nc-ui-2-3_linear_103_153" x1="42" y1="3.99829" x2="42" y2="44.0017" gradientUnits="userSpaceOnUse"> <stop stop-color="#344EEA"></stop> <stop offset="1" stop-color="#2138BB"></stop> </linearGradient> </defs></g></svg>