<svg xmlns="http://www.w3.org/2000/svg" height="48" width="48" viewBox="0 0 48 48"><title>license key</title><g class="nc-icon-wrapper"><path d="M45,45H3a2,2,0,0,1-2-2V5A2,2,0,0,1,3,3H45a2,2,0,0,1,2,2V43A2,2,0,0,1,45,45Z" fill="#444"></path><rect x="3" y="10" width="42" height="33" fill="#fff"></rect><circle cx="4.5" cy="6.5" r="1.5" fill="#e86c60"></circle><circle cx="9.5" cy="6.5" r="1.5" fill="#efd358"></circle><circle cx="14.5" cy="6.5" r="1.5" fill="#72c472"></circle><path d="M40.773,23.366A1,1,0,0,0,40,23H22.134a7.5,7.5,0,1,0,0,7h3.63l1.789.895a1,1,0,0,0,.894,0L30.236,30h1.528l1.789.895a1,1,0,0,0,.894,0L36.236,30H39a1,1,0,0,0,.98-.8l1-5A1,1,0,0,0,40.773,23.366ZM13.5,29A2.5,2.5,0,1,1,16,26.5,2.5,2.5,0,0,1,13.5,29Z" fill="#b3b3b3"></path><polygon points="40.82 25 23 25 23 27 40.42 27 40.82 25" fill="#e6e6e6"></polygon></g></svg>