<svg xmlns="http://www.w3.org/2000/svg" height="48" width="48" style="" viewBox="0 0 48 48"><title>markdown</title><g class="nc-icon-wrapper"><path d="M44 8H4C2.343 8 1 9.343 1 11V37C1 38.657 2.343 40 4 40H44C45.657 40 47 38.657 47 37V11C47 9.343 45.657 8 44 8Z" fill="url(#nc-markdown-0_linear_235_25)"></path> <path d="M23 29C23 29.552 22.552 30 22 30C21.448 30 21 29.552 21 29V21.059L16.874 28.486C16.521 29.121 15.478 29.121 15.126 28.486L11 21.059V29C11 29.552 10.552 30 10 30C9.448 30 9 29.552 9 29V19C9 18.448 9.448 18 10 18H11C11.363 18 11.698 18.197 11.874 18.514L16 25.941L20.126 18.514C20.302 18.197 20.637 18 21 18H22C22.552 18 23 18.448 23 19V29Z" fill="url(#nc-markdown-1_linear_235_25)"></path> <path d="M39.707 24.707L34.707 29.707C34.512 29.902 34.256 30 34 30C33.744 30 33.488 29.902 33.293 29.707L28.293 24.707C27.902 24.316 27.902 23.684 28.293 23.293C28.684 22.902 29.316 22.902 29.707 23.293L33 26.586V19C33 18.448 33.448 18 34 18C34.552 18 35 18.448 35 19V26.586L38.293 23.293C38.684 22.902 39.316 22.902 39.707 23.293C40.098 23.684 40.098 24.316 39.707 24.707Z" fill="url(#nc-markdown-2_linear_235_25)"></path> <defs> <linearGradient id="nc-markdown-0_linear_235_25" x1="24" y1="8" x2="24" y2="40" gradientUnits="userSpaceOnUse"> <stop stop-color="#5B5E71"></stop> <stop offset="1" stop-color="#393A46"></stop> </linearGradient> <linearGradient id="nc-markdown-1_linear_235_25" x1="16" y1="18" x2="16" y2="30" gradientUnits="userSpaceOnUse"> <stop stop-color="white"></stop> <stop offset="1" stop-color="#E0E0E6"></stop> </linearGradient> <linearGradient id="nc-markdown-2_linear_235_25" x1="34" y1="18" x2="34" y2="30" gradientUnits="userSpaceOnUse"> <stop stop-color="white"></stop> <stop offset="1" stop-color="#E0E0E6"></stop> </linearGradient> </defs> </g></svg>