<svg xmlns="http://www.w3.org/2000/svg" height="48" width="48" viewBox="0 0 48 48"><title>mask rect</title><g class="nc-icon-wrapper"><rect x="20" y="2" width="26" height="44" fill="#9edb9e"></rect> <path d="M46,47H20a1,1,0,0,1-1-1V2a1,1,0,0,1,1-1H46a1,1,0,0,1,1,1V46A1,1,0,0,1,46,47ZM21,45H45V3H21Z" fill="#72c472"></path> <rect x="10" y="13" width="5" height="2" fill="#b3b3b3"></rect> <path d="M3,18H1V14a1,1,0,0,1,1-1H6v2H3Z" fill="#b3b3b3"></path> <rect x="1" y="22" width="2" height="5" fill="#b3b3b3"></rect> <path d="M6,36H2a1,1,0,0,1-1-1V31H3v3H6Z" fill="#b3b3b3"></path> <rect x="10" y="34" width="5" height="2" fill="#b3b3b3"></rect> <path d="M36,13H19V36H36a1,1,0,0,0,1-1V14A1,1,0,0,0,36,13Z" fill="#335262"></path></g></svg>