<svg xmlns="http://www.w3.org/2000/svg" height="48" width="48" style="" viewBox="0 0 48 48"><title>mirror tablet phone</title><g class="nc-icon-wrapper"><path d="M32 2H6C4.89543 2 4 2.89543 4 4V37C4 38.1046 4.89543 39 6 39H32C33.1046 39 34 38.1046 34 37V4C34 2.89543 33.1046 2 32 2Z" fill="url(#nc-ui-2-0_linear_103_101)"></path> <path d="M32 1H6C4.343 1 3 2.343 3 4V40C3 41.657 4.343 43 6 43H32C33.657 43 35 41.657 35 40V4C35 2.343 33.657 1 32 1ZM33 36C33 36.552 32.552 37 32 37H6C5.448 37 5 36.552 5 36V4C5 3.448 5.448 3 6 3H32C32.552 3 33 3.448 33 4V36Z" fill="url(#nc-ui-2-1_linear_103_101)"></path> <path d="M42 20H26C24.8954 20 24 20.8954 24 22V43C24 44.1046 24.8954 45 26 45H42C43.1046 45 44 44.1046 44 43V22C44 20.8954 43.1046 20 42 20Z" fill="url(#nc-ui-2-2_linear_103_101)"></path> <path d="M42 19H26C24.343 19 23 20.343 23 22V44C23 45.657 24.343 47 26 47H42C43.657 47 45 45.657 45 44V22C45 20.343 43.657 19 42 19ZM43 42C43 42.552 42.552 43 42 43H26C25.448 43 25 42.552 25 42V22C25 21.448 25.448 21 26 21H42C42.552 21 43 21.448 43 22V42Z" fill="url(#nc-ui-2-3_linear_103_101)"></path> <defs> <linearGradient id="nc-ui-2-0_linear_103_101" x1="19" y1="2" x2="19" y2="39" gradientUnits="userSpaceOnUse"> <stop stop-color="#A2A3B4"></stop> <stop offset="1" stop-color="#83849B"></stop> </linearGradient> <linearGradient id="nc-ui-2-1_linear_103_101" x1="19" y1="1" x2="19" y2="43" gradientUnits="userSpaceOnUse"> <stop stop-color="#5B5E71"></stop> <stop offset="1" stop-color="#393A46"></stop> </linearGradient> <linearGradient id="nc-ui-2-2_linear_103_101" x1="34" y1="20" x2="34" y2="45" gradientUnits="userSpaceOnUse"> <stop stop-color="#A2A3B4"></stop> <stop offset="1" stop-color="#83849B"></stop> </linearGradient> <linearGradient id="nc-ui-2-3_linear_103_101" x1="34" y1="19" x2="34" y2="47" gradientUnits="userSpaceOnUse"> <stop stop-color="#E0E0E6"></stop> <stop offset="1" stop-color="#C2C3CD"></stop> </linearGradient> </defs> </g></svg>