<svg xmlns="http://www.w3.org/2000/svg" height="48" width="48" style="" viewBox="0 0 48 48"><title>note</title><g class="nc-icon-wrapper"><path d="M45 5H3C1.895 5 1 5.895 1 7V41C1 42.105 1.895 43 3 43H45C46.105 43 47 42.105 47 41V7C47 5.895 46.105 5 45 5Z" fill="url(#nc-ui-1-0_linear_43_171)"></path><path d="M23 34H10C9.448 34 9 33.552 9 33C9 32.448 9.448 32 10 32H23C23.552 32 24 32.448 24 33C24 33.552 23.552 34 23 34Z" fill="url(#nc-ui-1-1_linear_43_171)"></path><path d="M38 25H10C9.448 25 9 24.552 9 24C9 23.448 9.448 23 10 23H38C38.552 23 39 23.448 39 24C39 24.552 38.552 25 38 25Z" fill="url(#nc-ui-1-2_linear_43_171)"></path><path d="M38 16H10C9.448 16 9 15.552 9 15C9 14.448 9.448 14 10 14H38C38.552 14 39 14.448 39 15C39 15.552 38.552 16 38 16Z" fill="url(#nc-ui-1-3_linear_43_171)"></path><defs><linearGradient id="nc-ui-1-0_linear_43_171" x1="24" y1="5" x2="24" y2="43" gradientUnits="userSpaceOnUse"><stop stop-color="#FCEAE3"></stop><stop offset="1" stop-color="#F8D3C4"></stop></linearGradient><linearGradient id="nc-ui-1-1_linear_43_171" x1="9" y1="33" x2="24" y2="33" gradientUnits="userSpaceOnUse"><stop stop-color="#ED9C7C"></stop><stop offset="1" stop-color="#D3795F"></stop></linearGradient><linearGradient id="nc-ui-1-2_linear_43_171" x1="9" y1="24" x2="39" y2="24" gradientUnits="userSpaceOnUse"><stop stop-color="#ED9C7C"></stop><stop offset="1" stop-color="#D3795F"></stop></linearGradient><linearGradient id="nc-ui-1-3_linear_43_171" x1="9" y1="15" x2="39" y2="15" gradientUnits="userSpaceOnUse"><stop stop-color="#ED9C7C"></stop><stop offset="1" stop-color="#D3795F"></stop></linearGradient></defs></g></svg>