<svg xmlns="http://www.w3.org/2000/svg" height="48" width="48" viewBox="0 0 48 48"><title>octagon m</title><g class="nc-icon-wrapper"><path d="M38.8,40H27.2a1,1,0,0,1-.707-.293l-8.2-8.2A1,1,0,0,1,18,30.8V19.2a1,1,0,0,1,.293-.707l8.2-8.2A1,1,0,0,1,27.2,10H38.8a1,1,0,0,1,.707.293l8.2,8.2A1,1,0,0,1,48,19.2V30.8a1,1,0,0,1-.293.707l-8.2,8.2A1,1,0,0,1,38.8,40Z" fill="#5a7a84"></path><path d="M15.143,36H6.857a1,1,0,0,1-.707-.293L.293,29.85A1,1,0,0,1,0,29.143V20.857a1,1,0,0,1,.293-.707L6.15,14.293A1,1,0,0,1,6.857,14h8.286a1,1,0,0,1,.707.293l5.857,5.857a1,1,0,0,1,.293.707v8.286a1,1,0,0,1-.293.707L15.85,35.707A1,1,0,0,1,15.143,36Z" fill="#82adb2"></path></g></svg>