<svg xmlns="http://www.w3.org/2000/svg" height="48" width="48" style="" viewBox="0 0 48 48"><title>paragraph 2</title><g class="nc-icon-wrapper"> <path d="M28.911 32.987C32.049 31.54 34 28.65 34 25C34 18.764 27.619 15.574 24.895 14.211C21.602 12.565 20 10.533 20 8C20 5.794 21.794 4 24 4C26.206 4 28 5.794 28 8C28 9.104 28.896 10 30 10C31.104 10 32 9.104 32 8C32 3.589 28.411 0 24 0C19.589 0 16 3.589 16 8C16 10.019 16.631 12.622 19.089 15.013C15.951 16.46 14 19.35 14 23C14 29.236 20.381 32.426 23.105 33.789C26.398 35.435 28 37.467 28 40C28 42.206 26.206 44 24 44C21.794 44 20 42.206 20 40C20 38.896 19.104 38 18 38C16.896 38 16 38.896 16 40C16 44.411 19.589 48 24 48C28.411 48 32 44.411 32 40C32 37.981 31.369 35.378 28.911 32.987ZM18 23C18 19.511 20.888 18.152 23.542 18.014C28.115 20.366 30 22.409 30 25C30 28.489 27.112 29.848 24.458 29.986C19.885 27.634 18 25.591 18 23Z" fill="url(#nc-paragraph-2-0_linear_235_29)"></path> <defs> <linearGradient id="nc-paragraph-2-0_linear_235_29" x1="24" y1="0" x2="24" y2="48" gradientUnits="userSpaceOnUse"> <stop stop-color="#929170"></stop> <stop offset="1" stop-color="#6C6C56"></stop> </linearGradient> </defs> </g></svg>