<svg xmlns="http://www.w3.org/2000/svg" height="48" width="48" viewBox="0 0 48 48"><title>photo editor</title><g class="nc-icon-wrapper"><path opacity="0.8" fill="#43A6DD" d="M24,31c-8.271,0-15-6.729-15-15S15.729,1,24,1s15,6.729,15,15S32.271,31,24,31z"></path> <path opacity="0.8" fill="#E86C60" d="M16,47C7.729,47,1,40.271,1,32s6.729-15,15-15s15,6.729,15,15S24.271,47,16,47z"></path> <path opacity="0.8" fill="#EFD358" d="M32,47c-8.271,0-15-6.729-15-15s6.729-15,15-15s15,6.729,15,15S40.271,47,32,47z"></path></g></svg>