<svg xmlns="http://www.w3.org/2000/svg" height="48" width="48" style="" viewBox="0 0 48 48"><title>pilcrow</title><g class="nc-icon-wrapper"> <path d="M41 1H19C11.28 1 5 7.28 5 15C5 22.72 11.28 29 19 29H21V45C21 46.104 21.896 47 23 47C24.104 47 25 46.104 25 45V5H32V45C32 46.104 32.896 47 34 47C35.104 47 36 46.104 36 45V5H41C42.104 5 43 4.104 43 3C43 1.896 42.104 1 41 1Z" fill="url(#nc-pilcrow-0_linear_235_41)"></path> <defs> <linearGradient id="nc-pilcrow-0_linear_235_41" x1="24" y1="1" x2="24" y2="47" gradientUnits="userSpaceOnUse"> <stop stop-color="#E0E0E6"></stop> <stop offset="1" stop-color="#C2C3CD"></stop> </linearGradient> </defs> </g></svg>