<svg xmlns="http://www.w3.org/2000/svg" height="48" width="48" viewBox="0 0 48 48"><title>position</title><g class="nc-icon-wrapper"><circle cx="24" cy="24" r="6" fill="#72c472"></circle> <path d="M23,8a1,1,0,0,0,2,0V2a1,1,0,0,0-2,0Z" fill="#b3b3b3"></path> <path d="M46,23H40a1,1,0,0,0,0,2h6a1,1,0,0,0,0-2Z" fill="#b3b3b3"></path> <path d="M24,39a1,1,0,0,0-1,1v6a1,1,0,0,0,2,0V40A1,1,0,0,0,24,39Z" fill="#b3b3b3"></path> <path d="M8,23H2a1,1,0,0,0,0,2H8a1,1,0,0,0,0-2Z" fill="#b3b3b3"></path></g></svg>