<svg xmlns="http://www.w3.org/2000/svg" height="48" width="48" viewBox="0 0 48 48"><title>priority highest</title><g class="nc-icon-wrapper"><path d="M24,46.536a4.963,4.963,0,0,1-3.535-1.465h0L2.928,27.534a5.006,5.006,0,0,1,0-7.071L20.465,2.926a5.005,5.005,0,0,1,7.07,0L45.072,20.463a5.006,5.006,0,0,1,0,7.071L27.535,45.071A4.961,4.961,0,0,1,24,46.536Z" fill="#d55240"></path><path d="M33,23a1,1,0,0,1-.707-.293L24,14.414l-8.293,8.293a1,1,0,0,1-1.414-1.414l9-9a1,1,0,0,1,1.414,0l9,9A1,1,0,0,1,33,23Z" fill="#fff"></path><path d="M33,31a1,1,0,0,1-.707-.293L24,22.414l-8.293,8.293a1,1,0,0,1-1.414-1.414l9-9a1,1,0,0,1,1.414,0l9,9A1,1,0,0,1,33,31Z" fill="#fff"></path></g></svg>