<svg xmlns="http://www.w3.org/2000/svg" height="48" width="48" viewBox="0 0 48 48"><title>prototype</title><g class="nc-icon-wrapper"><rect x="2" y="4" width="23" height="40" fill="#e6e6e6"></rect> <path d="M25,45H2a1,1,0,0,1-1-1V4A1,1,0,0,1,2,3H25a1,1,0,0,1,1,1V44A1,1,0,0,1,25,45ZM3,43H24V5H3Z" fill="#b3b3b3"></path> <path d="M45.707,23.293l-7-7a1,1,0,0,0-1.414,1.414L42.586,23H29v2H42.586l-5.293,5.293a1,1,0,1,0,1.414,1.414l7-7A1,1,0,0,0,45.707,23.293Z" fill="#72c472"></path> <circle cx="25" cy="24" r="4" fill="#fff"></circle> <path d="M25,29a5,5,0,1,1,5-5A5.006,5.006,0,0,1,25,29Zm0-8a3,3,0,1,0,3,3A3,3,0,0,0,25,21Z" fill="#4da34d"></path></g></svg>