<svg xmlns="http://www.w3.org/2000/svg" height="48" width="48" style="" viewBox="0 0 48 48"><title>roadmap</title><g class="nc-icon-wrapper"><g clip-path="url(#nc-ui-1-clip0_43_158)"> <path d="M17.001 41H40.001C40.327 41 40.633 40.841 40.82 40.574L47.82 30.574C48.061 30.23 48.061 29.772 47.82 29.428L40.82 19.428C40.633 19.16 40.327 19 40.001 19H17.001C15.344 19 14.001 20.343 14.001 22V38C14.001 39.657 15.344 41 17.001 41Z" fill="url(#nc-ui-1-0_linear_43_158)"></path> <path d="M31.001 29H8.001C7.675 29 7.369 28.841 7.182 28.574L0.182001 18.574C-0.0589988 18.23 -0.0589988 17.772 0.182001 17.428L7.182 7.428C7.369 7.16 7.674 7 8.001 7H31.001C32.658 7 34.001 8.343 34.001 10V26C34.001 27.657 32.658 29 31.001 29Z" fill="url(#nc-ui-1-1_linear_43_158)"></path> </g> <defs> <linearGradient id="nc-ui-1-0_linear_43_158" x1="31.0009" y1="19" x2="31.0009" y2="41" gradientUnits="userSpaceOnUse"> <stop stop-color="#32597C"></stop> <stop offset="1" stop-color="#203B50"></stop> </linearGradient> <linearGradient id="nc-ui-1-1_linear_43_158" x1="17.0011" y1="7" x2="17.0011" y2="29" gradientUnits="userSpaceOnUse"> <stop stop-color="#80B0CB"></stop> <stop offset="1" stop-color="#4480A7"></stop> </linearGradient> <clipPath id="nc-ui-1-clip0_43_158"> <rect width="48" height="48" fill="white"></rect> </clipPath> </defs></g></svg>