<svg xmlns="http://www.w3.org/2000/svg" height="48" width="48" viewBox="0 0 48 48"><title>row table</title><g class="nc-icon-wrapper"><rect x="4" y="4" width="40" height="40" rx="4" fill="#c5edc5"></rect><path d="M40,3H8A5.006,5.006,0,0,0,3,8V40a5.006,5.006,0,0,0,5,5H40a5.006,5.006,0,0,0,5-5V8A5.006,5.006,0,0,0,40,3Zm3,12v8H16V15ZM16,25H43v8H16Zm-2,8H5V25h9Zm0-18v8H5V15ZM5,40V35h9v8H8A3,3,0,0,1,5,40Zm35,3H16V35H43v5A3,3,0,0,1,40,43Z" fill="#49c549"></path><path d="M40,20H19a1,1,0,0,1,0-2H40a1,1,0,0,1,0,2Z" fill="#2a4b55"></path><path d="M11,20H8a1,1,0,0,1,0-2h3a1,1,0,0,1,0,2Z" fill="#2a4b55"></path><path d="M11,30H8a1,1,0,0,1,0-2h3a1,1,0,0,1,0,2Z" fill="#2a4b55"></path><path d="M11,40H8a1,1,0,0,1,0-2h3a1,1,0,0,1,0,2Z" fill="#2a4b55"></path><path d="M30,30H19a1,1,0,0,1,0-2H30a1,1,0,0,1,0,2Z" fill="#2a4b55"></path><path d="M40,40H19a1,1,0,0,1,0-2H40a1,1,0,0,1,0,2Z" fill="#2a4b55"></path></g></svg>