<svg xmlns="http://www.w3.org/2000/svg" height="48" width="48" viewBox="0 0 48 48"><title>ruler pencil</title><g class="nc-icon-wrapper"><path fill="#EFD358" d="M21,1H5C4.448,1,4,1.448,4,2v44c0,0.552,0.448,1,1,1h16c0.552,0,1-0.448,1-1V2C22,1.448,21.552,1,21,1z"></path> <rect x="4" y="7" fill="#CEB341" width="8" height="2"></rect> <rect x="4" y="15" fill="#CEB341" width="5" height="2"></rect> <rect x="4" y="23" fill="#CEB341" width="8" height="2"></rect> <rect x="4" y="39" fill="#CEB341" width="8" height="2"></rect> <rect x="4" y="31" fill="#CEB341" width="5" height="2"></rect> <path fill="#335262" d="M44,9V2c0-0.552-0.447-1-1-1H31c-0.553,0-1,0.448-1,1v7H44z"></path> <rect x="30" y="8" fill="#E6E6E6" width="14" height="2"></rect> <rect x="30" y="10" fill="#E86C60" width="7" height="27"></rect> <rect x="37" y="10" fill="#DD5E58" width="7" height="27"></rect> <polygon fill="#EAD8C5" points="30,37 37,47 44,37 "></polygon> <polygon fill="#223E49" points="39.8,43 34.2,43 37,47 "></polygon></g></svg>