<svg xmlns="http://www.w3.org/2000/svg" height="48" width="48" style="" viewBox="0 0 48 48"><title>sidebar</title><g class="nc-icon-wrapper"><path d="M29 8H1V40C1 41.657 2.343 43 4 43H29V8Z" fill="url(#nc-ui-2-0_linear_103_54)"></path><path d="M47 8H28V43H44C45.657 43 47 41.657 47 40V8Z" fill="url(#nc-ui-2-1_linear_103_54)"></path><path d="M41 25H34C33.448 25 33 24.552 33 24C33 23.448 33.448 23 34 23H41C41.552 23 42 23.448 42 24C42 24.552 41.552 25 41 25Z" fill="url(#nc-ui-2-2_linear_103_54)"></path><path d="M41 19H34C33.448 19 33 18.552 33 18C33 17.448 33.448 17 34 17H41C41.552 17 42 17.448 42 18C42 18.552 41.552 19 41 19Z" fill="url(#nc-ui-2-3_linear_103_54)"></path><path d="M41 31H34C33.448 31 33 30.552 33 30C33 29.448 33.448 29 34 29H41C41.552 29 42 29.448 42 30C42 30.552 41.552 31 41 31Z" fill="url(#nc-ui-2-4_linear_103_54)"></path><path d="M41 37H34C33.448 37 33 36.552 33 36C33 35.448 33.448 35 34 35H41C41.552 35 42 35.448 42 36C42 36.552 41.552 37 41 37Z" fill="url(#nc-ui-2-5_linear_103_54)"></path><path d="M4 5H44C45.657 5 47 6.343 47 8V11H1V8C1 6.343 2.343 5 4 5Z" fill="url(#nc-ui-2-6_linear_103_54)"></path><defs><linearGradient id="nc-ui-2-0_linear_103_54" x1="15" y1="8" x2="15" y2="43" gradientUnits="userSpaceOnUse"><stop stop-color="#DEF2FD"></stop><stop offset="1" stop-color="#9ED9FA"></stop></linearGradient><linearGradient id="nc-ui-2-1_linear_103_54" x1="37.5" y1="8" x2="37.5" y2="43" gradientUnits="userSpaceOnUse"><stop stop-color="#60BEF6"></stop><stop offset="1" stop-color="#29A0EA"></stop></linearGradient><linearGradient id="nc-ui-2-2_linear_103_54" x1="33" y1="24" x2="41.5" y2="24" gradientUnits="userSpaceOnUse"><stop stop-color="white"></stop><stop offset="1" stop-color="#DEF2FD"></stop></linearGradient><linearGradient id="nc-ui-2-3_linear_103_54" x1="33" y1="18" x2="41.5" y2="18" gradientUnits="userSpaceOnUse"><stop stop-color="white"></stop><stop offset="1" stop-color="#DEF2FD"></stop></linearGradient><linearGradient id="nc-ui-2-4_linear_103_54" x1="33" y1="30" x2="41.5" y2="30" gradientUnits="userSpaceOnUse"><stop stop-color="white"></stop><stop offset="1" stop-color="#DEF2FD"></stop></linearGradient><linearGradient id="nc-ui-2-5_linear_103_54" x1="33" y1="36" x2="41.5" y2="36" gradientUnits="userSpaceOnUse"><stop stop-color="white"></stop><stop offset="1" stop-color="#DEF2FD"></stop></linearGradient><linearGradient id="nc-ui-2-6_linear_103_54" x1="24" y1="5" x2="24" y2="11" gradientUnits="userSpaceOnUse"><stop stop-color="#1C75B5"></stop><stop offset="1" stop-color="#155989"></stop></linearGradient></defs></g></svg>