<svg xmlns="http://www.w3.org/2000/svg" height="48" width="48" viewBox="0 0 48 48"><title>size medium</title><g class="nc-icon-wrapper"><path d="M10,2H2A1,1,0,0,0,2,4h8a1,1,0,0,0,0-2Z" fill="#ea9860"></path> <path d="M10,16H2a1,1,0,0,0,0,2h8a1,1,0,0,0,0-2Z" fill="#ea9860"></path> <path d="M10,30H2a1,1,0,0,0,0,2h8a1,1,0,0,0,0-2Z" fill="#ea9860"></path> <path d="M10,44H2a1,1,0,0,0,0,2h8a1,1,0,0,0,0-2Z" fill="#ea9860"></path> <path d="M2,11H6A1,1,0,0,0,6,9H2a1,1,0,0,0,0,2Z" fill="#ea9860"></path> <path d="M2,25H6a1,1,0,0,0,0-2H2a1,1,0,0,0,0,2Z" fill="#ea9860"></path> <path d="M2,39H6a1,1,0,0,0,0-2H2a1,1,0,0,0,0,2Z" fill="#ea9860"></path> <rect x="21" y="16" width="26" height="30" rx="1" ry="1" fill="#a67c52"></rect></g></svg>