<svg xmlns="http://www.w3.org/2000/svg" height="48" width="48" style="" viewBox="0 0 48 48"><title>space divider</title><g class="nc-icon-wrapper"><path d="M46 4C46.552 4 47 4.448 47 5V11C47 12.657 45.657 14 44 14H4C2.343 14 1 12.657 1 11V5C1 4.448 1.448 4 2 4H46Z" fill="url(#nc-space-divider-0_linear_402_2)"></path> <path d="M2 44C1.448 44 1 43.552 1 43V37C1 35.343 2.343 34 4 34H44C45.657 34 47 35.343 47 37V43C47 43.552 46.552 44 46 44H2Z" fill="url(#nc-space-divider-1_linear_402_2)"></path> <path d="M4 26C5.10457 26 6 25.1046 6 24C6 22.8954 5.10457 22 4 22C2.89543 22 2 22.8954 2 24C2 25.1046 2.89543 26 4 26Z" fill="url(#nc-space-divider-2_linear_402_2)"></path> <path d="M44 26C45.1046 26 46 25.1046 46 24C46 22.8954 45.1046 22 44 22C42.8954 22 42 22.8954 42 24C42 25.1046 42.8954 26 44 26Z" fill="url(#nc-space-divider-3_linear_402_2)"></path> <path d="M34 26C35.1046 26 36 25.1046 36 24C36 22.8954 35.1046 22 34 22C32.8954 22 32 22.8954 32 24C32 25.1046 32.8954 26 34 26Z" fill="url(#nc-space-divider-4_linear_402_2)"></path> <path d="M24 26C25.1046 26 26 25.1046 26 24C26 22.8954 25.1046 22 24 22C22.8954 22 22 22.8954 22 24C22 25.1046 22.8954 26 24 26Z" fill="url(#nc-space-divider-5_linear_402_2)"></path> <path d="M14 26C15.1046 26 16 25.1046 16 24C16 22.8954 15.1046 22 14 22C12.8954 22 12 22.8954 12 24C12 25.1046 12.8954 26 14 26Z" fill="url(#nc-space-divider-6_linear_402_2)"></path> <defs> <linearGradient id="nc-space-divider-0_linear_402_2" x1="24" y1="4" x2="24" y2="14" gradientUnits="userSpaceOnUse"> <stop stop-color="#E0E0E6"></stop> <stop offset="1" stop-color="#C2C3CD"></stop> </linearGradient> <linearGradient id="nc-space-divider-1_linear_402_2" x1="24" y1="34" x2="24" y2="44" gradientUnits="userSpaceOnUse"> <stop stop-color="#E0E0E6"></stop> <stop offset="1" stop-color="#C2C3CD"></stop> </linearGradient> <linearGradient id="nc-space-divider-2_linear_402_2" x1="4" y1="22" x2="4" y2="26" gradientUnits="userSpaceOnUse"> <stop stop-color="#A2A3B4"></stop> <stop offset="1" stop-color="#83849B"></stop> </linearGradient> <linearGradient id="nc-space-divider-3_linear_402_2" x1="44" y1="22" x2="44" y2="26" gradientUnits="userSpaceOnUse"> <stop stop-color="#A2A3B4"></stop> <stop offset="1" stop-color="#83849B"></stop> </linearGradient> <linearGradient id="nc-space-divider-4_linear_402_2" x1="34" y1="22" x2="34" y2="26" gradientUnits="userSpaceOnUse"> <stop stop-color="#A2A3B4"></stop> <stop offset="1" stop-color="#83849B"></stop> </linearGradient> <linearGradient id="nc-space-divider-5_linear_402_2" x1="24" y1="22" x2="24" y2="26" gradientUnits="userSpaceOnUse"> <stop stop-color="#A2A3B4"></stop> <stop offset="1" stop-color="#83849B"></stop> </linearGradient> <linearGradient id="nc-space-divider-6_linear_402_2" x1="14" y1="22" x2="14" y2="26" gradientUnits="userSpaceOnUse"> <stop stop-color="#A2A3B4"></stop> <stop offset="1" stop-color="#83849B"></stop> </linearGradient> </defs></g></svg>