<svg xmlns="http://www.w3.org/2000/svg" height="48" width="48" style="" viewBox="0 0 48 48"><title>stack</title><g class="nc-icon-wrapper"><path d="M45.5 32.131L24.5 20.131C24.193 19.955 23.815 19.955 23.508 20.131L2.50799 32.131C2.02899 32.405 1.86199 33.016 2.13699 33.496C2.22599 33.651 2.35399 33.779 2.50799 33.867L23.508 45.867C23.815 46.043 24.193 46.043 24.5 45.867L45.5 33.867C45.979 33.593 46.146 32.982 45.871 32.502C45.782 32.347 45.654 32.219 45.5 32.131Z" fill="url(#nc-ui-4-0_linear_143_118)"></path> <path d="M45.5 23.132L24.5 11.132C24.193 10.956 23.815 10.956 23.508 11.132L2.50799 23.132C2.02899 23.406 1.86199 24.017 2.13699 24.497C2.22599 24.652 2.35399 24.78 2.50799 24.868L23.508 36.868C23.815 37.044 24.193 37.044 24.5 36.868L45.5 24.868C45.979 24.594 46.146 23.983 45.871 23.503C45.782 23.348 45.654 23.22 45.5 23.132Z" fill="url(#nc-ui-4-1_linear_143_118)"></path> <path d="M45.5 14.132L24.5 2.132C24.193 1.956 23.815 1.956 23.508 2.132L2.50799 14.132C2.02899 14.406 1.86199 15.017 2.13699 15.497C2.22599 15.652 2.35399 15.78 2.50799 15.868L23.508 27.868C23.815 28.044 24.193 28.044 24.5 27.868L45.5 15.868C45.979 15.594 46.146 14.983 45.871 14.503C45.782 14.348 45.654 14.22 45.5 14.132Z" fill="url(#nc-ui-4-2_linear_143_118)"></path> <defs> <linearGradient id="nc-ui-4-0_linear_143_118" x1="24.004" y1="19.999" x2="24.004" y2="45.999" gradientUnits="userSpaceOnUse"> <stop stop-color="#203B50"></stop> <stop offset="1" stop-color="#13232F"></stop> </linearGradient> <linearGradient id="nc-ui-4-1_linear_143_118" x1="24.004" y1="11" x2="24.004" y2="37" gradientUnits="userSpaceOnUse"> <stop stop-color="#4480A7"></stop> <stop offset="1" stop-color="#32597C"></stop> </linearGradient> <linearGradient id="nc-ui-4-2_linear_143_118" x1="24.004" y1="2" x2="24.004" y2="28" gradientUnits="userSpaceOnUse"> <stop stop-color="#C5DCE7"></stop> <stop offset="1" stop-color="#80B0CB"></stop> </linearGradient> </defs></g></svg>