<svg xmlns="http://www.w3.org/2000/svg" height="48" width="48" viewBox="0 0 48 48"><title>style</title><g class="nc-icon-wrapper"><rect x="3" y="3" width="42" height="42" rx="3" fill="#a4dae0"></rect><path d="M44.975,3.025a3.5,3.5,0,0,0-4.95,0L20.464,20.464a5,5,0,0,0,7.072,7.072L44.975,7.975A3.5,3.5,0,0,0,44.975,3.025Z" fill="#a67c52"></path><path d="M29.482,18.521a15.5,15.5,0,0,0-3.744-2.758l-5.274,4.7a5,5,0,0,0,7.072,7.072l4.7-5.274A15.487,15.487,0,0,0,29.482,18.521Z" fill="#e6e6e6"></path><path d="M18.569,22a7.383,7.383,0,0,0-5.255,2.177c-2.7,2.7-3.257,11.688-3.312,12.7A1.061,1.061,0,0,0,11.062,38a.552.552,0,0,0,.058,0c1.016-.055,10.007-.615,12.7-3.312A7.432,7.432,0,0,0,18.569,22Z" fill="#444"></path></g></svg>