<svg xmlns="http://www.w3.org/2000/svg" height="48" width="48" viewBox="0 0 48 48"><title>texture</title><g class="nc-icon-wrapper"><polygon points="44.172 1 1 44.172 1 47 3.828 47 47 3.828 47 1 44.172 1" fill="#ea9860"></polygon> <polygon points="37.172 47 42.828 47 47 42.828 47 37.172 37.172 47" fill="#eebc99"></polygon> <polygon points="24.172 47 29.828 47 47 29.828 47 24.172 24.172 47" fill="#ea9860"></polygon> <polygon points="11.172 47 16.828 47 47 16.828 47 11.172 11.172 47" fill="#eebc99"></polygon> <polygon points="10.828 1 5.172 1 1 5.172 1 10.828 10.828 1" fill="#eebc99"></polygon> <polygon points="36.828 1 31.172 1 1 31.172 1 36.828 36.828 1" fill="#eebc99"></polygon> <polygon points="23.828 1 18.172 1 1 18.172 1 23.828 23.828 1" fill="#ea9860"></polygon></g></svg>