<svg xmlns="http://www.w3.org/2000/svg" height="48" width="48" viewBox="0 0 48 48"><title>three dimensional object</title><g class="nc-icon-wrapper"><path d="M3,44a1,1,0,0,1-.449-1.9l8-4a1,1,0,0,1,.895,1.79l-8,4A1.006,1.006,0,0,1,3,44Z" fill="#b3b3b3"></path><path d="M45,44a1.007,1.007,0,0,1-.447-.1l-8-4a1,1,0,0,1,.9-1.79l8,4A1,1,0,0,1,45,44Z" fill="#b3b3b3"></path><path d="M24,12a1,1,0,0,1-1-1V3a1,1,0,0,1,2,0v8A1,1,0,0,1,24,12Z" fill="#b3b3b3"></path><path d="M10,16V39c0,3.364,6.149,6,14,6s14-2.636,14-6V16Z" fill="#43a6dd"></path><path d="M24,22c-7.851,0-14-2.636-14-6s6.149-6,14-6,14,2.636,14,6S31.85,22,24,22Z" fill="#badefc"></path></g></svg>