<svg xmlns="http://www.w3.org/2000/svg" height="48" width="48" style="" viewBox="0 0 48 48"><title>timeline</title><g class="nc-icon-wrapper"><path d="M25 2C25 1.448 24.552 1 24 1C23.448 1 23 1.448 23 2V23H14V25H23V46C23 46.552 23.448 47 24 47C24.552 47 25 46.552 25 46V39H34V37H25V11H34V9H25V2Z" fill="url(#nc-ui-2-0_linear_103_25)"></path> <path d="M44 4H34C33.4477 4 33 4.44772 33 5V15C33 15.5523 33.4477 16 34 16H44C44.5523 16 45 15.5523 45 15V5C45 4.44772 44.5523 4 44 4Z" fill="url(#nc-ui-2-1_linear_103_25)"></path> <path d="M44 32H34C33.4477 32 33 32.4477 33 33V43C33 43.5523 33.4477 44 34 44H44C44.5523 44 45 43.5523 45 43V33C45 32.4477 44.5523 32 44 32Z" fill="url(#nc-ui-2-2_linear_103_25)"></path> <path d="M14 18H4C3.44772 18 3 18.4477 3 19V29C3 29.5523 3.44772 30 4 30H14C14.5523 30 15 29.5523 15 29V19C15 18.4477 14.5523 18 14 18Z" fill="url(#nc-ui-2-3_linear_103_25)"></path> <defs> <linearGradient id="nc-ui-2-0_linear_103_25" x1="24" y1="1" x2="24" y2="47" gradientUnits="userSpaceOnUse"> <stop stop-color="#FDDACE"></stop> <stop offset="1" stop-color="#FBAE93"></stop> </linearGradient> <linearGradient id="nc-ui-2-1_linear_103_25" x1="39" y1="4" x2="39" y2="16" gradientUnits="userSpaceOnUse"> <stop stop-color="#F98E5E"></stop> <stop offset="1" stop-color="#EA6524"></stop> </linearGradient> <linearGradient id="nc-ui-2-2_linear_103_25" x1="39" y1="32" x2="39" y2="44" gradientUnits="userSpaceOnUse"> <stop stop-color="#F98E5E"></stop> <stop offset="1" stop-color="#EA6524"></stop> </linearGradient> <linearGradient id="nc-ui-2-3_linear_103_25" x1="9" y1="18" x2="9" y2="30" gradientUnits="userSpaceOnUse"> <stop stop-color="#F98E5E"></stop> <stop offset="1" stop-color="#EA6524"></stop> </linearGradient> </defs> </g></svg>