<svg xmlns="http://www.w3.org/2000/svg" height="48" width="48" viewBox="0 0 48 48"><title>transparent</title><g class="nc-icon-wrapper"><rect x="4" y="4" width="40" height="40" rx="3" ry="3" fill="#fff"></rect> <path d="M6,4h6a0,0,0,0,1,0,0v8a0,0,0,0,1,0,0H4a0,0,0,0,1,0,0V6A2,2,0,0,1,6,4Z" fill="#dbdbdb"></path> <rect x="20" y="4" width="8" height="8" fill="#dbdbdb"></rect> <path d="M36,4h6a2,2,0,0,1,2,2v6a0,0,0,0,1,0,0H36a0,0,0,0,1,0,0V4A0,0,0,0,1,36,4Z" fill="#dbdbdb"></path> <rect x="4" y="20" width="8" height="8" fill="#dbdbdb"></rect> <rect x="20" y="20" width="8" height="8" fill="#dbdbdb"></rect> <rect x="36" y="20" width="8" height="8" fill="#dbdbdb"></rect> <path d="M4,36h8a0,0,0,0,1,0,0v8a0,0,0,0,1,0,0H6a2,2,0,0,1-2-2V36A0,0,0,0,1,4,36Z" fill="#dbdbdb"></path> <rect x="20" y="36" width="8" height="8" fill="#dbdbdb"></rect> <path d="M36,36h8a0,0,0,0,1,0,0v6a2,2,0,0,1-2,2H36a0,0,0,0,1,0,0V36A0,0,0,0,1,36,36Z" fill="#dbdbdb"></path> <rect x="12" y="12" width="8" height="8" fill="#dbdbdb"></rect> <rect x="28" y="12" width="8" height="8" fill="#dbdbdb"></rect> <rect x="12" y="28" width="8" height="8" fill="#dbdbdb"></rect> <rect x="28" y="28" width="8" height="8" fill="#dbdbdb"></rect></g></svg>