<svg xmlns="http://www.w3.org/2000/svg" height="48" width="48" viewBox="0 0 48 48"><title>transform origin</title><g class="nc-icon-wrapper"><path fill="#B3B3B3" d="M42,43H6c-0.553,0-1-0.448-1-1V6c0-0.552,0.447-1,1-1h36c0.553,0,1,0.448,1,1v36C43,42.552,42.553,43,42,43z M7,41h34V7H7V41z"></path> <circle fill="#43A6DD" cx="24" cy="24" r="7"></circle> <circle fill="#444444" cx="24" cy="6" r="5"></circle> <circle fill="#E6E6E6" cx="24" cy="6" r="3"></circle> <circle fill="#444444" cx="42" cy="6" r="5"></circle> <circle fill="#E6E6E6" cx="42" cy="6" r="3"></circle> <circle fill="#444444" cx="42" cy="42" r="5"></circle> <circle fill="#E6E6E6" cx="42" cy="42" r="3"></circle> <circle fill="#444444" cx="24" cy="42" r="5"></circle> <circle fill="#E6E6E6" cx="24" cy="42" r="3"></circle> <circle fill="#444444" cx="6" cy="42" r="5"></circle> <circle fill="#E6E6E6" cx="6" cy="42" r="3"></circle> <circle fill="#444444" cx="6" cy="24" r="5"></circle> <circle fill="#E6E6E6" cx="6" cy="24" r="3"></circle> <circle fill="#444444" cx="42" cy="24" r="5"></circle> <circle fill="#E6E6E6" cx="42" cy="24" r="3"></circle> <circle fill="#444444" cx="6" cy="6" r="5"></circle> <circle fill="#E6E6E6" cx="6" cy="6" r="3"></circle></g></svg>