<svg xmlns="http://www.w3.org/2000/svg" height="48" width="48" viewBox="0 0 48 48"><title>transform</title><g class="nc-icon-wrapper"><path fill="#72C472" d="M45,33H17c-1.105,0-2-0.895-2-2V3c0-1.105,0.895-2,2-2h28c1.105,0,2,0.895,2,2v28C47,32.105,46.105,33,45,33 z"></path> <path fill="#B3B3B3" d="M9,47H2c-0.552,0-1-0.448-1-1v-7h2v6h6V47z"></path> <path fill="#B3B3B3" d="M22,47h-7v-2h6v-6h2v7C23,46.552,22.552,47,22,47z"></path> <path fill="#B3B3B3" d="M1,33v-7c0-0.552,0.448-1,1-1h7v2H3v6H1z"></path></g></svg>