<svg xmlns="http://www.w3.org/2000/svg" height="48" width="48" style="" viewBox="0 0 48 48"><title>type tool</title><g class="nc-icon-wrapper"><path d="M42 43H6C5.447 43 5 42.552 5 42V6C5 5.448 5.447 5 6 5H42C42.553 5 43 5.448 43 6V42C43 42.552 42.553 43 42 43ZM7 41H41V7H7V41Z" fill="url(#nc-type-tool-0_linear_235_94)"></path> <path d="M10 11H2C1.447 11 1 10.552 1 10V2C1 1.448 1.447 1 2 1H10C10.553 1 11 1.448 11 2V10C11 10.552 10.553 11 10 11Z" fill="url(#nc-type-tool-1_linear_235_94)"></path> <path d="M46 11H38C37.447 11 37 10.552 37 10V2C37 1.448 37.447 1 38 1H46C46.553 1 47 1.448 47 2V10C47 10.552 46.553 11 46 11Z" fill="url(#nc-type-tool-2_linear_235_94)"></path> <path d="M46 47H38C37.447 47 37 46.552 37 46V38C37 37.448 37.447 37 38 37H46C46.553 37 47 37.448 47 38V46C47 46.552 46.553 47 46 47Z" fill="url(#nc-type-tool-3_linear_235_94)"></path> <path d="M10 47H2C1.447 47 1 46.552 1 46V38C1 37.448 1.447 37 2 37H10C10.553 37 11 37.448 11 38V46C11 46.552 10.553 47 10 47Z" fill="url(#nc-type-tool-4_linear_235_94)"></path> <path d="M30 35C27.243 35 25 32.757 25 30V18C25 15.243 27.243 13 30 13C30.553 13 31 12.552 31 12C31 11.448 30.553 11 30 11C27.452 11 25.225 12.373 24 14.413C22.775 12.373 20.548 11 18 11C17.447 11 17 11.448 17 12C17 12.552 17.447 13 18 13C20.757 13 23 15.243 23 18V30C23 32.757 20.757 35 18 35C17.447 35 17 35.448 17 36C17 36.552 17.447 37 18 37C20.548 37 22.775 35.627 24 33.587C25.225 35.627 27.452 37 30 37C30.553 37 31 36.552 31 36C31 35.448 30.553 35 30 35Z" fill="url(#nc-type-tool-5_linear_235_94)"></path> <path d="M30 29H18C17.447 29 17 28.552 17 28C17 27.448 17.447 27 18 27H30C30.553 27 31 27.448 31 28C31 28.552 30.553 29 30 29Z" fill="url(#nc-type-tool-6_linear_235_94)"></path> <path opacity="0.15" d="M7 11H5V13H7V11Z" fill="black"></path> <path opacity="0.15" d="M25 29H23V31H25V29Z" fill="black"></path> <path opacity="0.15" d="M43 11H41V13H43V11Z" fill="black"></path> <defs> <linearGradient id="nc-type-tool-0_linear_235_94" x1="24" y1="5" x2="24" y2="43" gradientUnits="userSpaceOnUse"> <stop stop-color="#9ED9FA"></stop> <stop offset="1" stop-color="#60BEF6"></stop> </linearGradient> <linearGradient id="nc-type-tool-1_linear_235_94" x1="6" y1="1" x2="6" y2="11" gradientUnits="userSpaceOnUse"> <stop stop-color="#60BEF6"></stop> <stop offset="1" stop-color="#29A0EA"></stop> </linearGradient> <linearGradient id="nc-type-tool-2_linear_235_94" x1="42" y1="1" x2="42" y2="11" gradientUnits="userSpaceOnUse"> <stop stop-color="#60BEF6"></stop> <stop offset="1" stop-color="#29A0EA"></stop> </linearGradient> <linearGradient id="nc-type-tool-3_linear_235_94" x1="42" y1="37" x2="42" y2="47" gradientUnits="userSpaceOnUse"> <stop stop-color="#60BEF6"></stop> <stop offset="1" stop-color="#29A0EA"></stop> </linearGradient> <linearGradient id="nc-type-tool-4_linear_235_94" x1="6" y1="37" x2="6" y2="47" gradientUnits="userSpaceOnUse"> <stop stop-color="#60BEF6"></stop> <stop offset="1" stop-color="#29A0EA"></stop> </linearGradient> <linearGradient id="nc-type-tool-5_linear_235_94" x1="24" y1="11" x2="24" y2="37" gradientUnits="userSpaceOnUse"> <stop stop-color="#60BEF6"></stop> <stop offset="1" stop-color="#29A0EA"></stop> </linearGradient> <linearGradient id="nc-type-tool-6_linear_235_94" x1="24" y1="27" x2="24" y2="29" gradientUnits="userSpaceOnUse"> <stop stop-color="#9ED9FA"></stop> <stop offset="1" stop-color="#60BEF6"></stop> </linearGradient> </defs> </g></svg>