<svg xmlns="http://www.w3.org/2000/svg" height="48" width="48" style="" viewBox="0 0 48 48"><title>typography</title><g class="nc-icon-wrapper"><path d="M41.9801 1.804C41.8871 1.337 41.4761 1 41.0001 1H7.00005C6.52305 1 6.11305 1.336 6.02005 1.804L4.02005 11.804C3.96105 12.098 4.03705 12.403 4.22705 12.634C4.41705 12.866 4.70105 13 5.00005 13H7.00005C7.49805 13 7.91905 12.634 7.99005 12.142C8.02605 11.891 8.92605 6 14.0001 6H20.0001V38.806C20.0001 40.694 18.5881 42.294 16.7151 42.528L12.8761 43.008C12.3761 43.07 12.0001 43.496 12.0001 44V46C12.0001 46.552 12.4481 47 13.0001 47H35.0001C35.5521 47 36.0001 46.552 36.0001 46V44C36.0001 43.496 35.6251 43.07 35.1241 43.008L31.2851 42.528C29.4121 42.294 28.0001 40.694 28.0001 38.806V6H34.0001C39.0471 6 39.9741 11.893 40.0101 12.142C40.0801 12.635 40.5021 13 41.0001 13H43.0001C43.3001 13 43.5831 12.866 43.7731 12.634C43.9631 12.403 44.0391 12.098 43.9801 11.804L41.9801 1.804Z" fill="url(#nc-typography-0_linear_235_57)"></path> <defs> <linearGradient id="nc-typography-0_linear_235_57" x1="24.0001" y1="1" x2="24.0001" y2="47" gradientUnits="userSpaceOnUse"> <stop stop-color="#5B5E71"></stop> <stop offset="1" stop-color="#393A46"></stop> </linearGradient> </defs> </g></svg>