<svg xmlns="http://www.w3.org/2000/svg" height="48" width="48" style="" viewBox="0 0 48 48"><title>wand</title><g class="nc-icon-wrapper"> <path d="M24.294 17.294L2.29299 39.294C1.90299 39.685 1.90299 40.317 2.29299 40.708L7.29299 45.708C7.68299 46.098 8.31599 46.098 8.70699 45.708L30.708 23.708L24.294 17.294Z" fill="url(#nc-wand-0_linear_409_11)"></path> <path d="M30.414 24L35.707 18.707C36.097 18.317 36.097 17.683 35.707 17.293L30.707 12.293C30.317 11.903 29.683 11.903 29.293 12.293L24 17.586L30.414 24Z" fill="url(#nc-wand-1_linear_409_11)"></path> <path d="M30 8C29.447 8 29 7.553 29 7V2C29 1.447 29.447 1 30 1C30.553 1 31 1.447 31 2V7C31 7.553 30.553 8 30 8Z" fill="#F77CC6"></path> <path d="M37.778 11.222C37.522 11.222 37.266 11.124 37.071 10.929C36.68 10.538 36.68 9.906 37.071 9.515L40.606 5.98C40.997 5.589 41.629 5.589 42.02 5.98C42.411 6.371 42.411 7.003 42.02 7.394L38.485 10.929C38.29 11.124 38.034 11.222 37.778 11.222Z" fill="#F77CC6"></path> <path d="M46 19H41C40.447 19 40 18.553 40 18C40 17.447 40.447 17 41 17H46C46.553 17 47 17.447 47 18C47 18.553 46.553 19 46 19Z" fill="#F77CC6"></path> <path d="M41.313 30.313C41.057 30.313 40.801 30.215 40.606 30.02L37.071 26.485C36.68 26.094 36.68 25.462 37.071 25.071C37.462 24.68 38.094 24.68 38.485 25.071L42.02 28.606C42.411 28.997 42.411 29.629 42.02 30.02C41.825 30.215 41.569 30.313 41.313 30.313Z" fill="#F77CC6"></path> <path d="M22.222 11.222C21.966 11.222 21.71 11.124 21.515 10.929L17.98 7.394C17.589 7.003 17.589 6.371 17.98 5.98C18.371 5.589 19.003 5.589 19.394 5.98L22.929 9.515C23.32 9.906 23.32 10.538 22.929 10.929C22.734 11.124 22.478 11.222 22.222 11.222Z" fill="#F77CC6"></path> <defs> <linearGradient id="nc-wand-0_linear_409_11" x1="16.3542" y1="17.294" x2="16.3542" y2="46.0005" gradientUnits="userSpaceOnUse"> <stop stop-color="#5B5E71"></stop> <stop offset="1" stop-color="#393A46"></stop> </linearGradient> <linearGradient id="nc-wand-1_linear_409_11" x1="29.9998" y1="12.0005" x2="29.9998" y2="24" gradientUnits="userSpaceOnUse"> <stop stop-color="#A2A3B4"></stop> <stop offset="1" stop-color="#83849B"></stop> </linearGradient> </defs> </g></svg>