<svg xmlns="http://www.w3.org/2000/svg" height="48" width="48" style="" viewBox="0 0 48 48"><title>webpage</title><g class="nc-icon-wrapper"><path d="M6 3H42C44.76 3 47 5.24 47 8V13H1V8C1 5.24 3.24 3 6 3Z" fill="url(#nc-ui-2-0_linear_103_216)"></path><path d="M1 13H47V40C47 42.76 44.76 45 42 45H6C3.24 45 1 42.76 1 40V13Z" fill="url(#nc-ui-2-1_linear_103_216)"></path><path d="M7 10C8.10457 10 9 9.10457 9 8C9 6.89543 8.10457 6 7 6C5.89543 6 5 6.89543 5 8C5 9.10457 5.89543 10 7 10Z" fill="url(#nc-ui-2-2_linear_103_216)"></path><path d="M14 10C15.1046 10 16 9.10457 16 8C16 6.89543 15.1046 6 14 6C12.8954 6 12 6.89543 12 8C12 9.10457 12.8954 10 14 10Z" fill="url(#nc-ui-2-3_linear_103_216)"></path><path d="M12 26H6C5.44772 26 5 26.4477 5 27V40C5 40.5523 5.44772 41 6 41H12C12.5523 41 13 40.5523 13 40V27C13 26.4477 12.5523 26 12 26Z" fill="url(#nc-ui-2-4_linear_103_216)"></path><path d="M42 26H17C16.4477 26 16 26.4477 16 27V40C16 40.5523 16.4477 41 17 41H42C42.5523 41 43 40.5523 43 40V27C43 26.4477 42.5523 26 42 26Z" fill="url(#nc-ui-2-5_linear_103_216)"></path><path d="M42 17H6C5.44772 17 5 17.4477 5 18V22C5 22.5523 5.44772 23 6 23H42C42.5523 23 43 22.5523 43 22V18C43 17.4477 42.5523 17 42 17Z" fill="url(#nc-ui-2-6_linear_103_216)"></path><defs><linearGradient id="nc-ui-2-0_linear_103_216" x1="24" y1="3" x2="24" y2="13" gradientUnits="userSpaceOnUse"><stop stop-color="#5B5E71"></stop><stop offset="1" stop-color="#393A46"></stop></linearGradient><linearGradient id="nc-ui-2-1_linear_103_216" x1="24" y1="13" x2="24" y2="45" gradientUnits="userSpaceOnUse"><stop stop-color="#E0E0E6"></stop><stop offset="1" stop-color="#C2C3CD"></stop></linearGradient><linearGradient id="nc-ui-2-2_linear_103_216" x1="7" y1="6" x2="7" y2="10" gradientUnits="userSpaceOnUse"><stop stop-color="#A2A3B4"></stop><stop offset="1" stop-color="#83849B"></stop></linearGradient><linearGradient id="nc-ui-2-3_linear_103_216" x1="14" y1="6" x2="14" y2="10" gradientUnits="userSpaceOnUse"><stop stop-color="#A2A3B4"></stop><stop offset="1" stop-color="#83849B"></stop></linearGradient><linearGradient id="nc-ui-2-4_linear_103_216" x1="9" y1="26" x2="9" y2="41" gradientUnits="userSpaceOnUse"><stop stop-color="#C2C3CD"></stop><stop offset="1" stop-color="#A2A3B4"></stop></linearGradient><linearGradient id="nc-ui-2-5_linear_103_216" x1="29.5" y1="26" x2="29.5" y2="41" gradientUnits="userSpaceOnUse"><stop stop-color="#C2C3CD"></stop><stop offset="1" stop-color="#A2A3B4"></stop></linearGradient><linearGradient id="nc-ui-2-6_linear_103_216" x1="24" y1="17" x2="24" y2="23" gradientUnits="userSpaceOnUse"><stop stop-color="#C2C3CD"></stop><stop offset="1" stop-color="#A2A3B4"></stop></linearGradient></defs></g></svg>