<svg xmlns="http://www.w3.org/2000/svg" height="48" width="48" viewBox="0 0 48 48"><title>width</title><g class="nc-icon-wrapper"><path d="M1.879,44.707l1.414,1.414c.391,.391,1.024,.391,1.414,0l15.707-15.707c.375-.375,.586-.884,.586-1.415V3c0-.552-.448-1-1-1h-2c-.552,0-1,.448-1,1V28.172L1.879,43.293c-.391,.391-.391,1.024,0,1.414Z" fill="#ada8fa"></path><path d="M38.6,22.2l8,6c.533,.4,.533,1.2,0,1.6l-8,6c-.303,.228-.708,.264-1.047,.095-.339-.17-.553-.516-.553-.895v-4H19c-1.105,0-2-.895-2-2h0c0-1.105,.895-2,2-2h18v-4c0-.379,.214-.725,.553-.895,.339-.169,.744-.133,1.047,.095Z" fill="#645aed"></path></g></svg>