<svg xmlns="http://www.w3.org/2000/svg" height="48" width="48" style="" viewBox="0 0 48 48"><title>wireframe</title><g class="nc-icon-wrapper"><path d="M6 3H42C44.76 3 47 5.24 47 8V13H1V8C1 5.24 3.24 3 6 3Z" fill="url(#nc-ui-2-0_linear_103_30)"></path><path d="M7 10C8.10457 10 9 9.10457 9 8C9 6.89543 8.10457 6 7 6C5.89543 6 5 6.89543 5 8C5 9.10457 5.89543 10 7 10Z" fill="url(#nc-ui-2-1_linear_103_30)"></path><path d="M14 10C15.1046 10 16 9.10457 16 8C16 6.89543 15.1046 6 14 6C12.8954 6 12 6.89543 12 8C12 9.10457 12.8954 10 14 10Z" fill="url(#nc-ui-2-2_linear_103_30)"></path><path d="M17 13V45H42C44.761 45 47 42.761 47 40V13H17Z" fill="url(#nc-ui-2-3_linear_103_30)"></path><path d="M1 13V40C1 42.761 3.239 45 6 45H17V13H1Z" fill="url(#nc-ui-2-4_linear_103_30)"></path><defs><linearGradient id="nc-ui-2-0_linear_103_30" x1="24" y1="3" x2="24" y2="13" gradientUnits="userSpaceOnUse"><stop stop-color="#5B5E71"></stop><stop offset="1" stop-color="#393A46"></stop></linearGradient><linearGradient id="nc-ui-2-1_linear_103_30" x1="7" y1="6" x2="7" y2="10" gradientUnits="userSpaceOnUse"><stop stop-color="#A2A3B4"></stop><stop offset="1" stop-color="#83849B"></stop></linearGradient><linearGradient id="nc-ui-2-2_linear_103_30" x1="14" y1="6" x2="14" y2="10" gradientUnits="userSpaceOnUse"><stop stop-color="#A2A3B4"></stop><stop offset="1" stop-color="#83849B"></stop></linearGradient><linearGradient id="nc-ui-2-3_linear_103_30" x1="32" y1="13" x2="32" y2="45" gradientUnits="userSpaceOnUse"><stop stop-color="#E0E0E6"></stop><stop offset="1" stop-color="#C2C3CD"></stop></linearGradient><linearGradient id="nc-ui-2-4_linear_103_30" x1="9" y1="13" x2="9" y2="45" gradientUnits="userSpaceOnUse"><stop stop-color="#C2C3CD"></stop><stop offset="1" stop-color="#A2A3B4"></stop></linearGradient></defs></g></svg>