<svg xmlns="http://www.w3.org/2000/svg" height="48" width="48" style="" viewBox="0 0 48 48"><title>zoom</title><g class="nc-icon-wrapper"><path d="M45.414 42.586L31.628 28.8C30.806 29.857 29.857 30.806 28.8 31.628L42.586 45.4141C42.976 45.8051 43.488 46 44 46C44.512 46 45.024 45.8051 45.414 45.4141C46.195 44.6331 46.195 43.367 45.414 42.586Z" fill="url(#nc-ui-2-0_linear_103_148)"></path> <path opacity="0.15" d="M31.628 28.8C30.806 29.857 29.857 30.806 28.8 31.628L30.935 33.7631C31.974 32.9211 32.922 31.974 33.763 30.935L31.628 28.8Z" fill="black"></path> <path d="M19 35C27.8366 35 35 27.8366 35 19C35 10.1634 27.8366 3 19 3C10.1634 3 3 10.1634 3 19C3 27.8366 10.1634 35 19 35Z" fill="url(#nc-ui-2-1_linear_103_148)"></path> <path d="M19 36C9.626 36 2 28.374 2 19C2 9.626 9.626 2 19 2C28.374 2 36 9.626 36 19C36 28.374 28.374 36 19 36ZM19 4C10.729 4 4 10.729 4 19C4 27.271 10.729 34 19 34C27.271 34 34 27.271 34 19C34 10.729 27.271 4 19 4Z" fill="url(#nc-ui-2-2_linear_103_148)"></path> <defs> <linearGradient id="nc-ui-2-0_linear_103_148" x1="37.3999" y1="28.8" x2="37.3999" y2="46" gradientUnits="userSpaceOnUse"> <stop stop-color="#60BEF6"></stop> <stop offset="1" stop-color="#29A0EA"></stop> </linearGradient> <linearGradient id="nc-ui-2-1_linear_103_148" x1="19" y1="3" x2="19" y2="35" gradientUnits="userSpaceOnUse"> <stop stop-color="#DEF2FD"></stop> <stop offset="1" stop-color="#9ED9FA"></stop> </linearGradient> <linearGradient id="nc-ui-2-2_linear_103_148" x1="19" y1="2" x2="19" y2="36" gradientUnits="userSpaceOnUse"> <stop stop-color="#9ED9FA"></stop> <stop offset="1" stop-color="#60BEF6"></stop> </linearGradient> </defs></g></svg>