<svg xmlns="http://www.w3.org/2000/svg" height="16" width="16" viewBox="0 0 16 16"><title>3d 29 2</title><g fill="#61616b" class="nc-icon-wrapper"><path fill="#61616b" d="M14.447,4.105l-6-3c-0.281-0.141-0.613-0.141-0.895,0l-6,3C1.214,4.275,1,4.621,1,5v7 c0,0.379,0.214,0.725,0.553,0.895l6,3C7.693,15.965,7.847,16,8,16s0.307-0.035,0.447-0.105l6-3C14.786,12.725,15,12.379,15,12V5 C15,4.621,14.786,4.275,14.447,4.105z M8,3.118L11.764,5L8,6.882L4.236,5L8,3.118z M3,6.618l4,2v4.764l-4-2V6.618z M9,13.382V8.618 l4-2v4.764L9,13.382z"></path></g></svg>