<svg xmlns="http://www.w3.org/2000/svg" height="32" width="32" viewBox="0 0 32 32"><title>3d 29 5</title><g fill="#61616b" class="nc-icon-wrapper"><path data-color="color-2" fill="#61616b" d="M31.447,25.105l-4.506-2.253l-0.994,1.739l4.605,2.302C30.696,26.966,30.848,27,30.999,27 c0.367,0,0.72-0.202,0.896-0.553C32.141,25.953,31.941,25.353,31.447,25.105z"></path> <path data-color="color-2" fill="#61616b" d="M4.553,23.106l-4,2c-0.494,0.247-0.694,0.848-0.447,1.342C0.282,26.798,0.634,27,1.001,27 c0.15,0,0.303-0.034,0.446-0.105l4-2L4.553,23.106z"></path> <path data-color="color-2" fill="#61616b" d="M17,6V1c0-0.553-0.447-1-1-1s-1,0.447-1,1v5H17z"></path> <path fill="#61616b" d="M27.414,9.09l-11-5c-0.264-0.119-0.564-0.119-0.828,0l-11,5C4.229,9.252,4,9.607,4,10v14 c0,0.393,0.229,0.748,0.586,0.91l11,5C15.718,29.97,15.858,30,16,30s0.282-0.03,0.414-0.09l11-5C27.771,24.748,28,24.393,28,24V10 C28,9.607,27.771,9.252,27.414,9.09z M16,6.099L24.584,10L16,13.901L7.416,10L16,6.099z M6,11.553l9,4.091v11.803l-9-4.09V11.553z M17,27.447V15.644l9-4.091v11.804L17,27.447z"></path></g></svg>