<svg xmlns="http://www.w3.org/2000/svg" height="64" width="64" viewBox="0 0 64 64"><title>3d 29 3</title><g fill="#61616b" class="nc-icon-wrapper"><path data-color="color-2" fill="#61616b" d="M32,13c-0.553,0-1-0.447-1-1V2c0-0.553,0.447-1,1-1s1,0.447,1,1v10 C33,12.553,32.553,13,32,13z"></path> <path data-color="color-2" fill="#61616b" d="M2.001,53c-0.367,0-0.72-0.202-0.896-0.553c-0.247-0.494-0.047-1.095,0.447-1.342l16-8 c0.493-0.245,1.094-0.047,1.342,0.447c0.247,0.494,0.047,1.095-0.447,1.342l-16,8C2.304,52.966,2.151,53,2.001,53z"></path> <path data-color="color-2" fill="#61616b" d="M61.999,53c-0.15,0-0.303-0.034-0.446-0.105l-16-8c-0.494-0.247-0.694-0.848-0.447-1.342 s0.848-0.692,1.342-0.447l16,8c0.494,0.247,0.694,0.848,0.447,1.342C62.719,52.798,62.366,53,61.999,53z"></path> <path fill="#61616b" d="M33,30.644v25.804l19.414-8.824C52.771,47.461,53,47.105,53,46.713v-25.16L33,30.644z M11.586,47.623 L31,56.447V30.644l-20-9.091v25.16C11,47.105,11.229,47.461,11.586,47.623z M12.417,20L32,28.901L51.583,20l-19.169-8.713 c-0.263-0.12-0.565-0.12-0.828,0L12.417,20z"></path></g></svg>