<svg xmlns="http://www.w3.org/2000/svg" height="48" width="48" viewBox="0 0 48 48"><title>3d 29 4</title><g fill="#61616b" class="nc-icon-wrapper"><path data-color="color-2" fill="#61616b" d="M24,13c-0.553,0-1-0.447-1-1V2c0-0.553,0.447-1,1-1s1,0.447,1,1v10 C25,12.553,24.553,13,24,13z"></path> <path data-color="color-2" fill="#61616b" d="M2.001,41c-0.367,0-0.72-0.202-0.896-0.553c-0.247-0.494-0.047-1.095,0.447-1.342l8-4 c0.495-0.245,1.094-0.047,1.342,0.447c0.247,0.494,0.047,1.095-0.447,1.342l-8,4C2.304,40.966,2.151,41,2.001,41z"></path> <path data-color="color-2" fill="#61616b" d="M45.999,41c-0.15,0-0.303-0.034-0.446-0.105l-8-4c-0.494-0.247-0.694-0.848-0.447-1.342 c0.248-0.494,0.848-0.692,1.342-0.447l8,4c0.494,0.247,0.694,0.848,0.447,1.342C46.719,40.798,46.366,41,45.999,41z"></path> <path fill="#61616b" d="M24,24.882l14-7l-13.553-6.776c-0.281-0.141-0.613-0.141-0.895,0L10,17.882L24,24.882z"></path> <path fill="#61616b" d="M25,26.618v17l13.447-6.724C38.786,36.725,39,36.379,39,36V19.618L25,26.618z"></path> <path fill="#61616b" d="M23,26.618l-14-7V36c0,0.379,0.214,0.725,0.553,0.895L23,43.618V26.618z"></path></g></svg>