<svg xmlns="http://www.w3.org/2000/svg" height="16" width="16" viewBox="0 0 16 16"><title>3d model 2</title><g fill="#61616b" class="nc-icon-wrapper"><path fill="#61616b" d="M15.817,10.424l-7.057-10C8.573,0.158,8.269,0,7.943,0C7.942,0,7.94,0,7.939,0 C7.613,0.001,7.308,0.162,7.122,0.43l-6.943,10c-0.16,0.23-0.216,0.518-0.154,0.791c0.062,0.273,0.236,0.509,0.479,0.647l7,4 C7.657,15.956,7.829,16,8,16s0.343-0.044,0.496-0.132l7-4c0.245-0.14,0.419-0.376,0.48-0.651 C16.037,10.941,15.979,10.653,15.817,10.424z M7,4.112v9.165l-4.556-2.603L7,4.112z M9,13.277V4.231l4.549,6.446L9,13.277z"></path></g></svg>