<svg xmlns="http://www.w3.org/2000/svg" height="16" width="16" viewBox="0 0 16 16"><title>ai generated img</title><g fill="#61616b" class="nc-icon-wrapper"><circle cx="4.748" cy="6.75" r="1.25" fill="#61616b"></circle><path d="M15.497,2c-.827,0-1.5-.673-1.5-1.5,0-.276-.224-.5-.5-.5s-.5,.224-.5,.5c0,.827-.673,1.5-1.5,1.5-.276,0-.5,.224-.5,.5s.224,.5,.5,.5c.827,0,1.5,.673,1.5,1.5,0,.276,.224,.5,.5,.5s.5-.224,.5-.5c0-.827,.673-1.5,1.5-1.5,.276,0,.5-.224,.5-.5s-.224-.5-.5-.5Z" fill="#61616b" data-color="color-2"></path><path d="M13.998,6.949v5.051H1.998V4h7.274c-.168-.471-.276-.971-.276-1.5,0-.171,.032-.334,.05-.5H2C.895,2,0,2.895,0,4V12c-.001,1.105,.894,2,1.999,2H13.998c1.105,0,2-.895,2-2V6.239c-.583,.391-1.268,.628-2,.71Z" fill="#61616b"></path><path d="M12.9,10.2l-3-4c-.087-.116-.22-.188-.364-.199-.147-.009-.287,.043-.389,.146l-4,4c-.143,.143-.186,.358-.108,.545,.077,.187,.26,.309,.462,.309h7c.189,0,.362-.107,.447-.276,.084-.169,.066-.372-.047-.523Z" fill="#61616b"></path></g></svg>