<svg xmlns="http://www.w3.org/2000/svg" height="48" width="48" viewBox="0 0 48 48"><title>ai generated img 4</title><g fill="#61616b" class="nc-icon-wrapper"><path d="M42,43H6c-2.757,0-5-2.243-5-5V10c0-2.757,2.243-5,5-5H27c.553,0,1,.447,1,1s-.447,1-1,1H6c-1.654,0-3,1.346-3,3v28c0,1.654,1.346,3,3,3H42c1.654,0,3-1.346,3-3V16c0-.553,.447-1,1-1s1,.447,1,1v22c0,2.757-2.243,5-5,5Z" fill="#61616b"></path><path d="M39,17c-.553,0-1-.447-1-1,0-3.309-2.691-6-6-6-.553,0-1-.447-1-1s.447-1,1-1c3.309,0,6-2.691,6-6,0-.553,.447-1,1-1s1,.447,1,1c0,3.309,2.691,6,6,6,.553,0,1,.447,1,1s-.447,1-1,1c-3.309,0-6,2.691-6,6,0,.553-.447,1-1,1Z" fill="#61616b" data-color="color-2"></path><circle cx="15" cy="16" r="4" fill="#61616b"></circle><path d="M39.871,34.51l-9-16c-.169-.301-.48-.492-.824-.509-.342-.021-.673,.146-.869,.43l-8.318,12.015-5.152-5.152c-.212-.211-.5-.312-.806-.288-.298,.029-.567,.191-.733,.44l-6,9c-.204,.307-.224,.701-.05,1.026s.513,.528,.882,.528h30c.355,0,.684-.188,.863-.495s.183-.686,.008-.995Z" fill="#61616b"></path></g></svg>