<svg xmlns="http://www.w3.org/2000/svg" height="24" width="24" viewBox="0 0 24 24"><title>ai generated img 5</title><g fill="#61616b" class="nc-icon-wrapper"><path d="M18,18H7c-.404,0-.769-.243-.924-.617s-.069-.804,.217-1.09l7-7c.22-.221,.527-.327,.84-.284,.309,.041,.581,.225,.735,.495l4,7c.177,.31,.176,.689-.003,.998-.179,.309-.508,.498-.865,.498Z" fill="#61616b"></path><circle cx="7" cy="9" r="2" fill="#61616b"></circle><path d="M21,22H3c-1.654,0-3-1.346-3-3V5c0-1.654,1.346-3,3-3H13c.552,0,1,.447,1,1s-.448,1-1,1H3c-.551,0-1,.448-1,1v14c0,.552,.449,1,1,1H21c.551,0,1-.448,1-1V11c0-.553,.448-1,1-1s1,.447,1,1v8c0,1.654-1.346,3-3,3Z" fill="#61616b"></path><path d="M23,4h0c-1.105,0-2-.895-2-2h0c0-.552-.448-1-1-1s-1,.448-1,1h0c0,1.105-.895,2-2,2h0c-.552,0-1,.448-1,1s.448,1,1,1h0c1.105,0,2,.895,2,2h0c0,.552,.448,1,1,1s1-.448,1-1h0c0-1.105,.895-2,2-2h0c.552,0,1-.448,1-1s-.448-1-1-1Z" fill="#61616b" data-color="color-2"></path></g></svg>