<svg xmlns="http://www.w3.org/2000/svg" height="32" width="32" viewBox="0 0 32 32"><title>ai generated img 3</title><g fill="#61616b" class="nc-icon-wrapper"><path d="M28,29H4c-2.206,0-4-1.794-4-4V7C0,4.794,1.794,3,4,3h14c.552,0,1,.447,1,1s-.448,1-1,1H4c-1.103,0-2,.897-2,2V25c0,1.103,.897,2,2,2H28c1.103,0,2-.897,2-2V12c0-.553,.448-1,1-1s1,.447,1,1v13c0,2.206-1.794,4-4,4Z" fill="#61616b"></path><path d="M26,13c-.552,0-1-.447-1-1,0-2.206-1.794-4-4-4-.552,0-1-.447-1-1s.448-1,1-1c2.206,0,4-1.794,4-4,0-.553,.448-1,1-1s1,.447,1,1c0,2.206,1.794,4,4,4,.552,0,1,.447,1,1s-.448,1-1,1c-2.206,0-4,1.794-4,4,0,.553-.448,1-1,1Z" fill="#61616b" data-color="color-2"></path><path d="M25.878,22.521l-6-11c-.151-.277-.424-.467-.735-.512-.316-.046-.628,.062-.85,.283L7.293,22.293c-.286,.286-.372,.716-.217,1.09,.154,.374,.52,.617,.924,.617H25c.353,0,.68-.187,.86-.489,.18-.304,.187-.68,.018-.989Z" fill="#61616b"></path><circle cx="8" cy="11" r="3" fill="#61616b"></circle></g></svg>