<svg xmlns="http://www.w3.org/2000/svg" height="48" width="48" viewBox="0 0 48 48"><title>album 5</title><g fill="#61616b" class="nc-icon-wrapper"><path d="M41,8H7a2,2,0,0,0-2,2V45a2,2,0,0,0,2,2H41a2,2,0,0,0,2-2V10A2,2,0,0,0,41,8ZM35,33a1,1,0,0,1-1,1H14a1,1,0,0,1-1-1V17a1,1,0,0,1,1-1H34a1,1,0,0,1,1,1Z" fill="#61616b"></path><path data-color="color-2" d="M16,6V2a1,1,0,0,0-2,0V6Z" fill="#61616b"></path><path data-color="color-2" d="M25,6V2a1,1,0,0,0-2,0V6Z" fill="#61616b"></path><path data-color="color-2" d="M34,6V2a1,1,0,0,0-2,0V6Z" fill="#61616b"></path><path data-color="color-2" d="M31,23H17a1,1,0,0,1,0-2H31a1,1,0,0,1,0,2Z" fill="#61616b"></path><path data-color="color-2" d="M31,29H17a1,1,0,0,1,0-2H31a1,1,0,0,1,0,2Z" fill="#61616b"></path></g></svg>