<svg xmlns="http://www.w3.org/2000/svg" height="64" width="64" viewBox="0 0 64 64"><title>album 4</title><g fill="#61616b" class="nc-icon-wrapper"><path data-color="color-2" d="M40,31H24a1,1,0,0,1,0-2H40a1,1,0,0,1,0,2Z" fill="#61616b"></path><path data-color="color-2" d="M32,37H24a1,1,0,0,1,0-2h8a1,1,0,0,1,0,2Z" fill="#61616b"></path><path data-color="color-2" d="M32,13a1,1,0,0,1-1-1V2a1,1,0,0,1,2,0V12A1,1,0,0,1,32,13Z" fill="#61616b"></path><path data-color="color-2" d="M18,13a1,1,0,0,1-1-1V2a1,1,0,0,1,2,0V12A1,1,0,0,1,18,13Z" fill="#61616b"></path><path d="M55,7H49v5a3,3,0,0,1-6,0V7H35v5a3,3,0,0,1-6,0V7H21v5a3,3,0,0,1-6,0V7H9A2,2,0,0,0,7,9V60a2,2,0,0,0,2,2H55a2,2,0,0,0,2-2V9A2,2,0,0,0,55,7ZM47,43a1,1,0,0,1-1,1H18a1,1,0,0,1-1-1V23a1,1,0,0,1,1-1H46a1,1,0,0,1,1,1Z" fill="#61616b"></path><path data-color="color-2" d="M46,13a1,1,0,0,1-1-1V2a1,1,0,0,1,2,0V12A1,1,0,0,1,46,13Z" fill="#61616b"></path></g></svg>