<svg xmlns="http://www.w3.org/2000/svg" height="64" width="64" viewBox="0 0 64 64"><title>align center horizontal 3</title><g fill="#61616b" class="nc-icon-wrapper"><path data-color="color-2" fill="#61616b" d="M32,1c-0.552,0-1,0.447-1,1v60c0,0.553,0.448,1,1,1s1-0.447,1-1V2C33,1.447,32.552,1,32,1z"></path> <path fill="#61616b" d="M52,37H12c-1.105,0-2,0.895-2,2v12c0,1.105,0.895,2,2,2h40c1.105,0,2-0.895,2-2V39 C54,37.895,53.105,37,52,37z"></path> <path fill="#61616b" d="M43,11H21c-1.105,0-2,0.895-2,2v12c0,1.105,0.895,2,2,2h22c1.105,0,2-0.895,2-2V13 C45,11.895,44.105,11,43,11z"></path></g></svg>