<svg xmlns="http://www.w3.org/2000/svg" height="48" width="48" viewBox="0 0 48 48"><title>align center vertical 4</title><g fill="#61616b" class="nc-icon-wrapper"><path data-color="color-2" fill="#61616b" d="M46,23H2c-0.553,0-1,0.447-1,1s0.447,1,1,1h44c0.553,0,1-0.447,1-1S46.553,23,46,23z"></path> <path fill="#61616b" d="M19,9h-8c-1.105,0-2,0.895-2,2v26c0,1.105,0.895,2,2,2h8c1.105,0,2-0.895,2-2V11C21,9.895,20.105,9,19,9z"></path> <path fill="#61616b" d="M37,15h-8c-1.105,0-2,0.895-2,2v14c0,1.105,0.895,2,2,2h8c1.105,0,2-0.895,2-2V17C39,15.895,38.105,15,37,15 z"></path></g></svg>