<svg xmlns="http://www.w3.org/2000/svg" height="32" width="32" viewBox="0 0 32 32"><title>align left 5</title><g fill="#61616b" class="nc-icon-wrapper"><path data-color="color-2" fill="#61616b" d="M4,1C3.4,1,3,1.4,3,2v28c0,0.6,0.4,1,1,1s1-0.4,1-1V2C5,1.4,4.6,1,4,1z"></path> <path fill="#61616b" d="M28,5H10C9.4,5,9,5.4,9,6v7c0,0.6,0.4,1,1,1h18c0.6,0,1-0.4,1-1V6C29,5.4,28.6,5,28,5z"></path> <path fill="#61616b" d="M19,18h-9c-0.6,0-1,0.4-1,1v7c0,0.6,0.4,1,1,1h9c0.6,0,1-0.4,1-1v-7C20,18.4,19.6,18,19,18z"></path></g></svg>