<svg xmlns="http://www.w3.org/2000/svg" height="48" width="48" viewBox="0 0 48 48"><title>align bottom 4</title><g fill="#61616b" class="nc-icon-wrapper"><path data-color="color-2" fill="#61616b" d="M46,41H2c-0.553,0-1,0.447-1,1s0.447,1,1,1h44c0.553,0,1-0.447,1-1S46.553,41,46,41z"></path> <path fill="#61616b" d="M11,35h8c1.105,0,2-0.895,2-2V7c0-1.105-0.895-2-2-2h-8C9.895,5,9,5.895,9,7v26C9,34.105,9.895,35,11,35z"></path> <path fill="#61616b" d="M29,35h8c1.105,0,2-0.895,2-2V19c0-1.105-0.895-2-2-2h-8c-1.105,0-2,0.895-2,2v14C27,34.105,27.895,35,29,35 z"></path></g></svg>