<svg xmlns="http://www.w3.org/2000/svg" height="24" width="24" viewBox="0 0 24 24"><title>align center vertical</title><g fill="#61616b" class="nc-icon-wrapper"><rect data-color="color-2" x="11" transform="matrix(4.547455e-11 1 -1 4.547455e-11 24 -5.911698e-10)" fill="#61616b" width="2" height="24"></rect> <path fill="#61616b" d="M10,4H5C4.447,4,4,4.447,4,5v14c0,0.553,0.447,1,1,1h5c0.553,0,1-0.447,1-1V5C11,4.447,10.553,4,10,4z"></path> <path fill="#61616b" d="M19,7h-5c-0.553,0-1,0.447-1,1v8c0,0.553,0.447,1,1,1h5c0.553,0,1-0.447,1-1V8C20,7.447,19.553,7,19,7z"></path></g></svg>