<svg xmlns="http://www.w3.org/2000/svg" height="48" width="48" viewBox="0 0 48 48"><title>align top 4</title><g fill="#61616b" class="nc-icon-wrapper"><path data-color="color-2" fill="#61616b" d="M46,5H2C1.447,5,1,5.447,1,6s0.447,1,1,1h44c0.553,0,1-0.447,1-1S46.553,5,46,5z"></path> <path fill="#61616b" d="M37,13h-8c-1.105,0-2,0.895-2,2v26c0,1.105,0.895,2,2,2h8c1.105,0,2-0.895,2-2V15C39,13.895,38.105,13,37,13 z"></path> <path fill="#61616b" d="M19,13h-8c-1.105,0-2,0.895-2,2v14c0,1.105,0.895,2,2,2h8c1.105,0,2-0.895,2-2V15C21,13.895,20.105,13,19,13 z"></path></g></svg>