<svg xmlns="http://www.w3.org/2000/svg" height="32" width="32" viewBox="0 0 32 32"><title>align center vertical 5</title><g fill="#61616b" class="nc-icon-wrapper"><path data-color="color-2" fill="#61616b" d="M6,17H2c-0.6,0-1-0.4-1-1s0.4-1,1-1h4c0.6,0,1,0.4,1,1S6.6,17,6,17z"></path> <path data-color="color-2" fill="#61616b" d="M19,17h-6c-0.6,0-1-0.4-1-1s0.4-1,1-1h6c0.6,0,1,0.4,1,1S19.6,17,19,17z"></path> <path data-color="color-2" fill="#61616b" d="M30,17h-4c-0.6,0-1-0.4-1-1s0.4-1,1-1h4c0.6,0,1,0.4,1,1S30.6,17,30,17z"></path> <path fill="#61616b" d="M13,6H6C5.4,6,5,6.4,5,7v18c0,0.6,0.4,1,1,1h7c0.6,0,1-0.4,1-1V7C14,6.4,13.6,6,13,6z"></path> <path fill="#61616b" d="M26,10h-7c-0.6,0-1,0.4-1,1v10c0,0.6,0.4,1,1,1h7c0.6,0,1-0.4,1-1V11C27,10.4,26.6,10,26,10z"></path></g></svg>