<svg xmlns="http://www.w3.org/2000/svg" height="24" width="24" viewBox="0 0 24 24"><title>align right</title><g fill="#61616b" class="nc-icon-wrapper"><rect data-color="color-2" x="20" fill="#61616b" width="2" height="24"></rect> <path fill="#61616b" d="M17,4H3C2.448,4,2,4.447,2,5v5c0,0.553,0.448,1,1,1h14c0.552,0,1-0.447,1-1V5C18,4.447,17.552,4,17,4z"></path> <path fill="#61616b" d="M17,13H9c-0.552,0-1,0.447-1,1v5c0,0.553,0.448,1,1,1h8c0.552,0,1-0.447,1-1v-5C18,13.447,17.552,13,17,13z"></path></g></svg>