<svg xmlns="http://www.w3.org/2000/svg" height="64" width="64" viewBox="0 0 64 64"><title>align left 3</title><g fill="#61616b" class="nc-icon-wrapper"><path data-color="color-2" fill="#61616b" d="M7,1C6.448,1,6,1.447,6,2v60c0,0.553,0.448,1,1,1s1-0.447,1-1V2C8,1.447,7.552,1,7,1z"></path> <path fill="#61616b" d="M56,11H16c-1.105,0-2,0.895-2,2v12c0,1.105,0.895,2,2,2h40c1.105,0,2-0.895,2-2V13 C58,11.895,57.105,11,56,11z"></path> <path fill="#61616b" d="M38,37H16c-1.105,0-2,0.895-2,2v12c0,1.105,0.895,2,2,2h22c1.105,0,2-0.895,2-2V39 C40,37.895,39.105,37,38,37z"></path></g></svg>