<svg xmlns="http://www.w3.org/2000/svg" height="64" width="64" viewBox="0 0 64 64"><title>align top 3</title><g fill="#61616b" class="nc-icon-wrapper"><path data-color="color-2" fill="#61616b" d="M63,7c0-0.552-0.447-1-1-1H2C1.447,6,1,6.448,1,7s0.447,1,1,1h60C62.553,8,63,7.552,63,7z"></path> <path fill="#61616b" d="M53,56V16c0-1.105-0.895-2-2-2H39c-1.105,0-2,0.895-2,2v40c0,1.105,0.895,2,2,2h12 C52.105,58,53,57.105,53,56z"></path> <path fill="#61616b" d="M27,38V16c0-1.105-0.895-2-2-2H13c-1.105,0-2,0.895-2,2v22c0,1.105,0.895,2,2,2h12 C26.105,40,27,39.105,27,38z"></path></g></svg>