<svg xmlns="http://www.w3.org/2000/svg" height="64" width="64" viewBox="0 0 64 64"><title>align bottom 3</title><g fill="#61616b" class="nc-icon-wrapper"><path data-color="color-2" fill="#61616b" d="M1,57c0,0.552,0.447,1,1,1h60c0.553,0,1-0.448,1-1s-0.447-1-1-1H2C1.447,56,1,56.448,1,57z"></path> <path fill="#61616b" d="M11,8v40c0,1.105,0.895,2,2,2h12c1.105,0,2-0.895,2-2V8c0-1.105-0.895-2-2-2H13C11.895,6,11,6.895,11,8z"></path> <path fill="#61616b" d="M37,26v22c0,1.105,0.895,2,2,2h12c1.105,0,2-0.895,2-2V26c0-1.105-0.895-2-2-2H39C37.895,24,37,24.895,37,26 z"></path></g></svg>