<svg xmlns="http://www.w3.org/2000/svg" height="48" width="48" viewBox="0 0 48 48"><title>align center horizontal 4</title><g fill="#61616b" class="nc-icon-wrapper"><path data-color="color-2" fill="#61616b" d="M24,1c-0.552,0-1,0.447-1,1v44c0,0.553,0.448,1,1,1s1-0.447,1-1V2C25,1.447,24.552,1,24,1z"></path> <path fill="#61616b" d="M37,27H11c-1.105,0-2,0.895-2,2v8c0,1.105,0.895,2,2,2h26c1.105,0,2-0.895,2-2v-8C39,27.895,38.105,27,37,27 z"></path> <path fill="#61616b" d="M17,21h14c1.105,0,2-0.895,2-2v-8c0-1.105-0.895-2-2-2H17c-1.105,0-2,0.895-2,2v8C15,20.105,15.895,21,17,21 z"></path></g></svg>