<svg xmlns="http://www.w3.org/2000/svg" height="48" width="48" viewBox="0 0 48 48"><title>align left 4</title><g fill="#61616b" class="nc-icon-wrapper"><path data-color="color-2" fill="#61616b" d="M6,1C5.448,1,5,1.447,5,2v44c0,0.553,0.448,1,1,1s1-0.447,1-1V2C7,1.447,6.552,1,6,1z"></path> <path fill="#61616b" d="M41,9H15c-1.105,0-2,0.895-2,2v8c0,1.105,0.895,2,2,2h26c1.105,0,2-0.895,2-2v-8C43,9.895,42.105,9,41,9z"></path> <path fill="#61616b" d="M29,27H15c-1.105,0-2,0.895-2,2v8c0,1.105,0.895,2,2,2h14c1.105,0,2-0.895,2-2v-8C31,27.895,30.105,27,29,27 z"></path></g></svg>