<svg xmlns="http://www.w3.org/2000/svg" height="48" width="48" viewBox="0 0 48 48"><title>align right 4</title><g fill="#61616b" class="nc-icon-wrapper"><path data-color="color-2" fill="#61616b" d="M42,1c-0.552,0-1,0.447-1,1v44c0,0.553,0.448,1,1,1s1-0.447,1-1V2C43,1.447,42.552,1,42,1z"></path> <path fill="#61616b" d="M33,9H7c-1.105,0-2,0.895-2,2v8c0,1.105,0.895,2,2,2h26c1.105,0,2-0.895,2-2v-8C35,9.895,34.105,9,33,9z"></path> <path fill="#61616b" d="M33,27H19c-1.105,0-2,0.895-2,2v8c0,1.105,0.895,2,2,2h14c1.105,0,2-0.895,2-2v-8C35,27.895,34.105,27,33,27 z"></path></g></svg>