<svg xmlns="http://www.w3.org/2000/svg" height="64" width="64" viewBox="0 0 64 64"><title>align right 3</title><g fill="#61616b" class="nc-icon-wrapper"><path data-color="color-2" fill="#61616b" d="M57,1c0.552,0,1,0.447,1,1v60c0,0.553-0.448,1-1,1s-1-0.447-1-1V2C56,1.447,56.448,1,57,1z"></path> <path fill="#61616b" d="M8,11h40c1.105,0,2,0.895,2,2v12c0,1.105-0.895,2-2,2H8c-1.105,0-2-0.895-2-2V13C6,11.895,6.895,11,8,11z"></path> <path fill="#61616b" d="M26,37h22c1.105,0,2,0.895,2,2v12c0,1.105-0.895,2-2,2H26c-1.105,0-2-0.895-2-2V39 C24,37.895,24.895,37,26,37z"></path></g></svg>