<svg xmlns="http://www.w3.org/2000/svg" height="24" width="24" viewBox="0 0 24 24"><title>align bottom</title><g fill="#61616b" class="nc-icon-wrapper"><path fill="#61616b" d="M5,18h5c0.553,0,1-0.447,1-1V3c0-0.553-0.447-1-1-1H5C4.447,2,4,2.447,4,3v14C4,17.553,4.447,18,5,18z"></path> <path fill="#61616b" d="M14,18h5c0.553,0,1-0.447,1-1V9c0-0.553-0.447-1-1-1h-5c-0.553,0-1,0.447-1,1v8C13,17.553,13.447,18,14,18z"></path> <rect data-color="color-2" x="11" y="9" transform="matrix(4.547455e-11 1 -1 4.547455e-11 33 9)" fill="#61616b" width="2" height="24"></rect></g></svg>