<svg xmlns="http://www.w3.org/2000/svg" height="32" width="32" viewBox="0 0 32 32"><title>align center horizontal 5</title><g fill="#61616b" class="nc-icon-wrapper"><path data-color="color-2" fill="#61616b" d="M16,31c-0.6,0-1-0.4-1-1v-4c0-0.6,0.4-1,1-1s1,0.4,1,1v4C17,30.6,16.6,31,16,31z"></path> <path data-color="color-2" fill="#61616b" d="M16,20c-0.6,0-1-0.4-1-1v-6c0-0.6,0.4-1,1-1s1,0.4,1,1v6C17,19.6,16.6,20,16,20z"></path> <path data-color="color-2" fill="#61616b" d="M16,7c-0.6,0-1-0.4-1-1V2c0-0.6,0.4-1,1-1s1,0.4,1,1v4C17,6.6,16.6,7,16,7z"></path> <path fill="#61616b" d="M25,18H7c-0.6,0-1,0.4-1,1v7c0,0.6,0.4,1,1,1h18c0.6,0,1-0.4,1-1v-7C26,18.4,25.6,18,25,18z"></path> <path fill="#61616b" d="M11,14h10c0.6,0,1-0.4,1-1V6c0-0.6-0.4-1-1-1H11c-0.6,0-1,0.4-1,1v7C10,13.6,10.4,14,11,14z"></path></g></svg>