<svg xmlns="http://www.w3.org/2000/svg" height="32" width="32" viewBox="0 0 32 32"><title>align bottom 5</title><g fill="#61616b" class="nc-icon-wrapper"><path data-color="color-2" fill="#61616b" d="M30,27H2c-0.6,0-1,0.4-1,1s0.4,1,1,1h28c0.6,0,1-0.4,1-1S30.6,27,30,27z"></path> <path fill="#61616b" d="M6,23h7c0.6,0,1-0.4,1-1V4c0-0.6-0.4-1-1-1H6C5.4,3,5,3.4,5,4v18C5,22.6,5.4,23,6,23z"></path> <path fill="#61616b" d="M19,23h7c0.6,0,1-0.4,1-1v-9c0-0.6-0.4-1-1-1h-7c-0.6,0-1,0.4-1,1v9C18,22.6,18.4,23,19,23z"></path></g></svg>