<svg xmlns="http://www.w3.org/2000/svg" height="32" width="32" viewBox="0 0 32 32"><title>align top 5</title><g fill="#61616b" class="nc-icon-wrapper"><path data-color="color-2" fill="#61616b" d="M30,3H2C1.4,3,1,3.4,1,4s0.4,1,1,1h28c0.6,0,1-0.4,1-1S30.6,3,30,3z"></path> <path fill="#61616b" d="M26,9h-7c-0.6,0-1,0.4-1,1v18c0,0.6,0.4,1,1,1h7c0.6,0,1-0.4,1-1V10C27,9.4,26.6,9,26,9z"></path> <path fill="#61616b" d="M13,9H6c-0.6,0-1,0.4-1,1v9c0,0.6,0.4,1,1,1h7c0.6,0,1-0.4,1-1v-9C14,9.4,13.6,9,13,9z"></path></g></svg>