<svg xmlns="http://www.w3.org/2000/svg" height="64" width="64" viewBox="0 0 64 64"><title>align center vertical 3</title><g fill="#61616b" class="nc-icon-wrapper"><path data-color="color-2" fill="#61616b" d="M63,32c0-0.552-0.447-1-1-1H2c-0.553,0-1,0.448-1,1s0.447,1,1,1h60 C62.553,33,63,32.552,63,32z"></path> <path fill="#61616b" d="M27,52V12c0-1.105-0.895-2-2-2H13c-1.105,0-2,0.895-2,2v40c0,1.105,0.895,2,2,2h12 C26.105,54,27,53.105,27,52z"></path> <path fill="#61616b" d="M53,43V21c0-1.105-0.895-2-2-2H39c-1.105,0-2,0.895-2,2v22c0,1.105,0.895,2,2,2h12 C52.105,45,53,44.105,53,43z"></path></g></svg>