<svg xmlns="http://www.w3.org/2000/svg" height="32" width="32" viewBox="0 0 32 32"><title>align right 5</title><g fill="#61616b" class="nc-icon-wrapper"><path data-color="color-2" fill="#61616b" d="M28,1c-0.6,0-1,0.4-1,1v28c0,0.6,0.4,1,1,1s1-0.4,1-1V2C29,1.4,28.6,1,28,1z"></path> <path fill="#61616b" d="M22,5H4C3.4,5,3,5.4,3,6v7c0,0.6,0.4,1,1,1h18c0.6,0,1-0.4,1-1V6C23,5.4,22.6,5,22,5z"></path> <path fill="#61616b" d="M22,18h-9c-0.6,0-1,0.4-1,1v7c0,0.6,0.4,1,1,1h9c0.6,0,1-0.4,1-1v-7C23,18.4,22.6,18,22,18z"></path></g></svg>