<svg xmlns="http://www.w3.org/2000/svg" height="48" width="48" viewBox="0 0 48 48"><title>animation 32 4</title><g fill="#61616b" class="nc-icon-wrapper"><path data-color="color-2" fill="#61616b" d="M7,39H2c-0.552,0-1-0.447-1-1v-5c0-0.553,0.448-1,1-1s1,0.447,1,1v4h4c0.552,0,1,0.447,1,1 S7.552,39,7,39z"></path> <path data-color="color-2" fill="#61616b" d="M18,39h-5c-0.552,0-1-0.447-1-1s0.448-1,1-1h4v-4c0-0.553,0.448-1,1-1s1,0.447,1,1v5 C19,38.553,18.552,39,18,39z"></path> <path data-color="color-2" fill="#61616b" d="M18,16c-0.552,0-1-0.447-1-1v-4h-4c-0.552,0-1-0.447-1-1s0.448-1,1-1h5c0.552,0,1,0.447,1,1 v5C19,15.553,18.552,16,18,16z"></path> <path data-color="color-2" fill="#61616b" d="M2,16c-0.552,0-1-0.447-1-1v-5c0-0.553,0.448-1,1-1h5c0.552,0,1,0.447,1,1s-0.448,1-1,1H3v4 C3,15.553,2.552,16,2,16z"></path> <path fill="#61616b" d="M45,47H29c-1.105,0-2-0.895-2-2V3c0-1.105,0.895-2,2-2h16c1.105,0,2,0.895,2,2v42C47,46.105,46.105,47,45,47 z"></path> <path data-color="color-2" fill="#61616b" d="M2,28c-0.552,0-1-0.447-1-1v-6c0-0.553,0.448-1,1-1s1,0.447,1,1v6C3,27.553,2.552,28,2,28z"></path> <path data-color="color-2" fill="#61616b" d="M18,28c-0.552,0-1-0.447-1-1v-6c0-0.553,0.448-1,1-1s1,0.447,1,1v6 C19,27.553,18.552,28,18,28z"></path></g></svg>