<svg xmlns="http://www.w3.org/2000/svg" height="64" width="64" viewBox="0 0 64 64"><title>animation 31 3</title><g fill="#61616b" class="nc-icon-wrapper"><path fill="#61616b" d="M56,43V21c0-1.105,0.895-2,2-2h5V9c0-1.105-0.895-2-2-2H3C1.895,7,1,7.895,1,9v10h5c1.105,0,2,0.895,2,2v22 c0,1.105-0.895,2-2,2H1v10c0,1.105,0.895,2,2,2h58c1.105,0,2-0.895,2-2V45h-5C56.895,45,56,44.105,56,43z M44,45H20 c-1.105,0-2-0.895-2-2V21c0-1.105,0.895-2,2-2h24c1.105,0,2,0.895,2,2v22C46,44.105,45.105,45,44,45z"></path></g></svg>