<svg xmlns="http://www.w3.org/2000/svg" height="24" width="24" viewBox="0 0 24 24"><title>animation 32</title><g fill="#61616b" class="nc-icon-wrapper"><path data-color="color-2" fill="#61616b" d="M4,20H1c-0.552,0-1-0.447-1-1v-3h2v2h2V20z"></path> <path data-color="color-2" fill="#61616b" d="M9,20H6v-2h2v-2h2v3C10,19.553,9.552,20,9,20z"></path> <path data-color="color-2" fill="#61616b" d="M10,8H8V6H6V4h3c0.552,0,1,0.447,1,1V8z"></path> <path data-color="color-2" fill="#61616b" d="M2,8H0V5c0-0.553,0.448-1,1-1h3v2H2V8z"></path> <path fill="#61616b" d="M23,24h-9c-0.552,0-1-0.448-1-1V1c0-0.552,0.448-1,1-1h9c0.552,0,1,0.448,1,1v22C24,23.552,23.552,24,23,24z "></path> <rect data-color="color-2" y="10" fill="#61616b" width="2" height="4"></rect> <rect data-color="color-2" x="8" y="10" fill="#61616b" width="2" height="4"></rect></g></svg>