<svg xmlns="http://www.w3.org/2000/svg" height="32" width="32" viewBox="0 0 32 32"><title>animation 32 5</title><g fill="#61616b" class="nc-icon-wrapper"><path data-color="color-2" fill="#61616b" d="M5,27H1c-0.552,0-1-0.447-1-1v-4h2v3h3V27z"></path> <path data-color="color-2" fill="#61616b" d="M12,27H8v-2h3v-3h2v4C13,26.553,12.552,27,12,27z"></path> <path data-color="color-2" fill="#61616b" d="M13,11h-2V8H8V6h4c0.552,0,1,0.447,1,1V11z"></path> <path data-color="color-2" fill="#61616b" d="M2,11H0V7c0-0.553,0.448-1,1-1h4v2H2V11z"></path> <path fill="#61616b" d="M31,32H17c-0.552,0-1-0.447-1-1V1c0-0.553,0.448-1,1-1h14c0.552,0,1,0.447,1,1v30C32,31.553,31.552,32,31,32 z"></path> <rect data-color="color-2" y="14" fill="#61616b" width="2" height="5"></rect> <rect data-color="color-2" x="11" y="14" fill="#61616b" width="2" height="5"></rect></g></svg>