<svg xmlns="http://www.w3.org/2000/svg" height="64" width="64" viewBox="0 0 64 64"><title>animation 32 3</title><g fill="#61616b" class="nc-icon-wrapper"><path data-color="color-2" fill="#61616b" d="M9,53H2c-0.552,0-1-0.447-1-1v-7c0-0.553,0.448-1,1-1s1,0.447,1,1v6h6c0.552,0,1,0.447,1,1 S9.552,53,9,53z"></path> <path data-color="color-2" fill="#61616b" d="M24,53h-7c-0.552,0-1-0.447-1-1s0.448-1,1-1h6v-6c0-0.553,0.448-1,1-1s1,0.447,1,1v7 C25,52.553,24.552,53,24,53z"></path> <path data-color="color-2" fill="#61616b" d="M24,22c-0.552,0-1-0.447-1-1v-6h-6c-0.552,0-1-0.447-1-1s0.448-1,1-1h7c0.552,0,1,0.447,1,1 v7C25,21.553,24.552,22,24,22z"></path> <path data-color="color-2" fill="#61616b" d="M2,22c-0.552,0-1-0.447-1-1v-7c0-0.553,0.448-1,1-1h7c0.552,0,1,0.447,1,1s-0.448,1-1,1H3v6 C3,21.553,2.552,22,2,22z"></path> <path fill="#61616b" d="M61,63H35c-1.105,0-2-0.895-2-2V3c0-1.105,0.895-2,2-2h26c1.105,0,2,0.895,2,2v58C63,62.105,62.105,63,61,63 z"></path> <path data-color="color-2" fill="#61616b" d="M2,37c-0.552,0-1-0.447-1-1v-7c0-0.553,0.448-1,1-1s1,0.447,1,1v7C3,36.553,2.552,37,2,37z"></path> <path data-color="color-2" fill="#61616b" d="M24,37c-0.552,0-1-0.447-1-1v-7c0-0.553,0.448-1,1-1s1,0.447,1,1v7 C25,36.553,24.552,37,24,37z"></path></g></svg>