<svg xmlns="http://www.w3.org/2000/svg" height="48" width="48" viewBox="0 0 48 48"><title>animation 31 4</title><g fill="#61616b" class="nc-icon-wrapper"><path fill="#61616b" d="M47,14V7c0-1.105-0.895-2-2-2H3C1.895,5,1,5.895,1,7v7h3c1.105,0,2,0.895,2,2v16c0,1.105-0.895,2-2,2H1v7 c0,1.105,0.895,2,2,2h42c1.105,0,2-0.895,2-2v-7h-3c-1.105,0-2-0.895-2-2V16c0-1.105,0.895-2,2-2H47z M33,34H15 c-1.105,0-2-0.895-2-2V16c0-1.105,0.895-2,2-2h18c1.105,0,2,0.895,2,2v16C35,33.105,34.105,34,33,34z"></path></g></svg>