<svg xmlns="http://www.w3.org/2000/svg" height="32" width="32" viewBox="0 0 32 32"><title>animation 31 5</title><g fill="#61616b" class="nc-icon-wrapper"><path fill="#61616b" d="M31,29H1c-0.552,0-1-0.448-1-1v-5h3c0.552,0,1-0.448,1-1V10c0-0.552-0.448-1-1-1H0V4c0-0.552,0.448-1,1-1h30 c0.552,0,1,0.448,1,1v5h-3c-0.552,0-1,0.448-1,1v12c0,0.552,0.448,1,1,1h3v5C32,28.552,31.552,29,31,29z M10,23h12 c0.552,0,1-0.448,1-1V10c0-0.552-0.448-1-1-1H10c-0.552,0-1,0.448-1,1v12C9,22.552,9.448,23,10,23z"></path></g></svg>