<svg xmlns="http://www.w3.org/2000/svg" height="64" width="64" viewBox="0 0 64 64"><title>animation 14 3</title><g fill="#61616b" class="nc-icon-wrapper"><path fill="#61616b" d="M52,34c-6.065,0-11-4.935-11-11s4.935-11,11-11s11,4.935,11,11S58.065,34,52,34z"></path> <path data-color="color-2" fill="#61616b" d="M35.56,28.538c-0.299-0.464-0.917-0.599-1.382-0.3c-6.745,4.338-11.547,10.83-13.774,18.26 c-1.316-10.762-5.426-26.141-17.902-33.363c-0.478-0.276-1.09-0.114-1.366,0.364c-0.277,0.478-0.114,1.09,0.364,1.366 C5.604,17.242,19,27.231,19,56c0,0.552,0.448,1,1,1s1-0.448,1-1c0-10.588,5.331-20.338,14.259-26.08 C35.724,29.621,35.858,29.002,35.56,28.538z"></path></g></svg>