<svg xmlns="http://www.w3.org/2000/svg" height="64" width="64" viewBox="0 0 64 64"><title>api 2</title><g fill="#61616b" class="nc-icon-wrapper"><path d="M21,32c0-.02,0-.039,0-.059a11,11,0,0,1,22,0c0,.02,0,.039,0,.059H63V27.941a1,1,0,0,0-.876-.992l-7.916-.989a22.774,22.774,0,0,0-2.275-5.493l4.9-6.3a1,1,0,0,0-.083-1.321L51.091,7.193a1,1,0,0,0-1.321-.082l-6.3,4.9a22.8,22.8,0,0,0-5.488-2.27l-.99-7.921A1,1,0,0,0,36,.941H28a1,1,0,0,0-.992.876l-.99,7.924a22.68,22.68,0,0,0-5.491,2.275l-6.3-4.9a1,1,0,0,0-1.321.082L7.252,12.85a1,1,0,0,0-.083,1.321l4.9,6.3A22.825,22.825,0,0,0,9.8,25.96l-7.921.989A1,1,0,0,0,1,27.941V32Z" fill="#61616b"></path><path d="M56,43a3.957,3.957,0,0,0-2.02.566L49,38.586V34H47v5a1,1,0,0,0,.293.707l5.273,5.273A3.957,3.957,0,0,0,52,47a4,4,0,1,0,4-4Z" fill="#61616b" data-color="color-2"></path><path d="M16.707,39.707A1,1,0,0,0,17,39V34H15v4.586l-4.98,4.98A3.957,3.957,0,0,0,8,43a4,4,0,1,0,4,4,3.957,3.957,0,0,0-.566-2.02Z" fill="#61616b" data-color="color-2"></path><path d="M23,42.586l-5.707,5.707A1,1,0,0,0,17,49v4.141a4,4,0,1,0,2,0V49.414l5.707-5.707A1,1,0,0,0,25,43V34H23Z" fill="#61616b" data-color="color-2"></path><path d="M47,53.141V49a1,1,0,0,0-.293-.707L41,42.586V34H39v9a1,1,0,0,0,.293.707L45,49.414v3.727a4,4,0,1,0,2,0Z" fill="#61616b" data-color="color-2"></path><path d="M33,55.141V34H31V55.141a4,4,0,1,0,2,0Z" fill="#61616b" data-color="color-2"></path></g></svg>