<svg xmlns="http://www.w3.org/2000/svg" height="32" width="32" viewBox="0 0 32 32"><title>api 4</title><g fill="#61616b" class="nc-icon-wrapper"><path d="M18.5,29A2.5,2.5,0,0,0,17,26.712V21H15v5.712A2.5,2.5,0,1,0,18.5,29Z" fill="#61616b" data-color="color-2"></path><path d="M8,23.586,5.909,25.677A2.5,2.5,0,1,0,7.5,28a2.464,2.464,0,0,0-.177-.909l2.384-2.384A1,1,0,0,0,10,24V18H8Z" fill="#61616b" data-color="color-2"></path><path d="M27.947,25.677a2.521,2.521,0,0,0-1.856,0L24,23.586V18H22v6a1,1,0,0,0,.293.707l2.384,2.384a2.519,2.519,0,1,0,3.27-1.414Z" fill="#61616b" data-color="color-2"></path><path d="M0,13.867V16H11a5,5,0,0,1,10,0H32V13.867l-4.593-.574a11.625,11.625,0,0,0-1.428-3.442L28.822,6.2,25.805,3.178,22.149,6.021a11.625,11.625,0,0,0-3.442-1.428L18.133,0H13.867l-.574,4.593A11.625,11.625,0,0,0,9.851,6.021L6.2,3.178,3.178,6.2,6.021,9.851a11.625,11.625,0,0,0-1.428,3.442Z" fill="#61616b"></path></g></svg>