<svg xmlns="http://www.w3.org/2000/svg" height="64" width="64" viewBox="0 0 64 64"><title>apple 3</title><g fill="#61616b" class="nc-icon-wrapper"><path data-color="color-2" fill-rule="evenodd" clip-rule="evenodd" fill="#61616b" d="M34.616,6.395C38.69,1.026,44.353,1,44.353,1 s0.842,5.048-3.205,9.911c-4.321,5.192-9.233,4.343-9.233,4.343S30.993,11.17,34.616,6.395z"></path> <path fill-rule="evenodd" clip-rule="evenodd" fill="#61616b" d="M32.434,18.79c2.096,0,5.985-2.881,11.048-2.881 c8.715,0,12.143,6.201,12.143,6.201s-6.705,3.428-6.705,11.747c0,9.384,8.353,12.618,8.353,12.618s-5.839,16.435-13.726,16.435 c-3.622,0-6.439-2.441-10.255-2.441c-3.889,0-7.749,2.532-10.263,2.532c-7.202,0-16.3-15.59-16.3-28.121 c0-12.329,7.701-18.797,14.925-18.797C26.348,16.082,29.992,18.79,32.434,18.79z"></path></g></svg>