<svg xmlns="http://www.w3.org/2000/svg" height="16" width="16" viewBox="0 0 16 16"><title>apple 2</title><g fill="#61616b" class="nc-icon-wrapper"><path fill="#61616b" d="M14.326,12.08c-0.346,0.766-0.511,1.108-0.957,1.785c-0.621,0.945-1.496,2.123-2.581,2.133 c-0.964,0.009-1.212-0.627-2.52-0.62S6.686,16.009,5.722,16c-1.085-0.01-1.914-1.073-2.536-2.019 C1.45,11.337,1.268,8.235,2.339,6.586c0.761-1.173,1.962-1.858,3.092-1.858c1.15,0,1.872,0.63,2.823,0.63 c0.922,0,1.484-0.631,2.814-0.631c1.005,0,2.07,0.547,2.828,1.492C11.411,7.582,11.815,11.131,14.326,12.08L14.326,12.08z"></path> <path data-color="color-2" fill="#61616b" d="M10.604,2.699c0.546-0.7,0.96-1.689,0.809-2.699C10.522,0.061,9.48,0.628,8.871,1.367 C8.319,2.038,7.863,3.033,8.04,4C9.013,4.03,10.019,3.449,10.604,2.699L10.604,2.699z"></path></g></svg>