<svg xmlns="http://www.w3.org/2000/svg" height="64" width="64" viewBox="0 0 64 64"><title>artboard 3</title><g fill="#61616b" class="nc-icon-wrapper"><path fill="#61616b" d="M50,13H14c-0.6,0-1,0.4-1,1v36c0,0.6,0.4,1,1,1h36c0.6,0,1-0.4,1-1V14C51,13.4,50.6,13,50,13z"></path> <path data-color="color-2" fill="#61616b" d="M8,13H2c-0.6,0-1,0.4-1,1s0.4,1,1,1h6c0.6,0,1-0.4,1-1S8.6,13,8,13z"></path> <path data-color="color-2" fill="#61616b" d="M8,49H2c-0.6,0-1,0.4-1,1s0.4,1,1,1h6c0.6,0,1-0.4,1-1S8.6,49,8,49z"></path> <path data-color="color-2" fill="#61616b" d="M56,15h6c0.6,0,1-0.4,1-1s-0.4-1-1-1h-6c-0.6,0-1,0.4-1,1S55.4,15,56,15z"></path> <path data-color="color-2" fill="#61616b" d="M62,49h-6c-0.6,0-1,0.4-1,1s0.4,1,1,1h6c0.6,0,1-0.4,1-1S62.6,49,62,49z"></path> <path data-color="color-2" fill="#61616b" d="M14,9c0.6,0,1-0.4,1-1V2c0-0.6-0.4-1-1-1s-1,0.4-1,1v6C13,8.6,13.4,9,14,9z"></path> <path data-color="color-2" fill="#61616b" d="M50,1c-0.6,0-1,0.4-1,1v6c0,0.6,0.4,1,1,1s1-0.4,1-1V2C51,1.4,50.6,1,50,1z"></path> <path data-color="color-2" fill="#61616b" d="M14,55c-0.6,0-1,0.4-1,1v6c0,0.6,0.4,1,1,1s1-0.4,1-1v-6C15,55.4,14.6,55,14,55z"></path> <path data-color="color-2" fill="#61616b" d="M50,55c-0.6,0-1,0.4-1,1v6c0,0.6,0.4,1,1,1s1-0.4,1-1v-6C51,55.4,50.6,55,50,55z"></path></g></svg>