<svg xmlns="http://www.w3.org/2000/svg" height="48" width="48" viewBox="0 0 48 48"><title>artboard 4</title><g fill="#61616b" class="nc-icon-wrapper"><path fill="#61616b" d="M37,10H11c-0.6,0-1,0.4-1,1v26c0,0.6,0.4,1,1,1h26c0.6,0,1-0.4,1-1V11C38,10.4,37.6,10,37,10z"></path> <path data-color="color-2" fill="#61616b" d="M6,10H2c-0.6,0-1,0.4-1,1s0.4,1,1,1h4c0.6,0,1-0.4,1-1S6.6,10,6,10z"></path> <path data-color="color-2" fill="#61616b" d="M6,36H2c-0.6,0-1,0.4-1,1s0.4,1,1,1h4c0.6,0,1-0.4,1-1S6.6,36,6,36z"></path> <path data-color="color-2" fill="#61616b" d="M42,12h4c0.6,0,1-0.4,1-1s-0.4-1-1-1h-4c-0.6,0-1,0.4-1,1S41.4,12,42,12z"></path> <path data-color="color-2" fill="#61616b" d="M46,36h-4c-0.6,0-1,0.4-1,1s0.4,1,1,1h4c0.6,0,1-0.4,1-1S46.6,36,46,36z"></path> <path data-color="color-2" fill="#61616b" d="M11,7c0.6,0,1-0.4,1-1V2c0-0.6-0.4-1-1-1s-1,0.4-1,1v4C10,6.6,10.4,7,11,7z"></path> <path data-color="color-2" fill="#61616b" d="M37,1c-0.6,0-1,0.4-1,1v4c0,0.6,0.4,1,1,1s1-0.4,1-1V2C38,1.4,37.6,1,37,1z"></path> <path data-color="color-2" fill="#61616b" d="M11,41c-0.6,0-1,0.4-1,1v4c0,0.6,0.4,1,1,1s1-0.4,1-1v-4C12,41.4,11.6,41,11,41z"></path> <path data-color="color-2" fill="#61616b" d="M37,41c-0.6,0-1,0.4-1,1v4c0,0.6,0.4,1,1,1s1-0.4,1-1v-4C38,41.4,37.6,41,37,41z"></path></g></svg>