<svg xmlns="http://www.w3.org/2000/svg" height="64" width="64" viewBox="0 0 64 64"><title>binary code 2</title><g fill="#61616b" class="nc-icon-wrapper"><path d="M32,5c-3.314,0-6,2.686-6,6v4c0,3.314,2.686,6,6,6s6-2.686,6-6v-4c0-3.314-2.686-6-6-6Zm3,10c0,1.654-1.346,3-3,3s-3-1.346-3-3v-4c0-1.654,1.346-3,3-3s3,1.346,3,3v4Z" fill="#61616b" data-color="color-2"></path><path d="M20,24c-3.314,0-6,2.686-6,6v4c0,3.314,2.686,6,6,6s6-2.686,6-6v-4c0-3.314-2.686-6-6-6Zm3,10c0,1.654-1.346,3-3,3s-3-1.346-3-3v-4c0-1.654,1.346-3,3-3s3,1.346,3,3v4Z" fill="#61616b" data-color="color-2"></path><path d="M44,24c-3.314,0-6,2.686-6,6v4c0,3.314,2.686,6,6,6s6-2.686,6-6v-4c0-3.314-2.686-6-6-6Zm3,10c0,1.654-1.346,3-3,3s-3-1.346-3-3v-4c0-1.654,1.346-3,3-3s3,1.346,3,3v4Z" fill="#61616b" data-color="color-2"></path><path d="M21,21h-1c-.552,0-1-.448-1-1V8h-2c-.552,0-1-.448-1-1v-1c0-.552,.448-1,1-1h4c.552,0,1,.448,1,1v14c0,.552-.448,1-1,1Z" fill="#61616b"></path><path d="M46,21h-1c-.552,0-1-.448-1-1V8h-2c-.552,0-1-.448-1-1v-1c0-.552,.448-1,1-1h4c.552,0,1,.448,1,1v14c0,.552-.448,1-1,1Z" fill="#61616b"></path><path d="M32,43c-3.314,0-6,2.686-6,6v4c0,3.314,2.686,6,6,6s6-2.686,6-6v-4c0-3.314-2.686-6-6-6Zm3,10c0,1.654-1.346,3-3,3s-3-1.346-3-3v-4c0-1.654,1.346-3,3-3s3,1.346,3,3v4Z" fill="#61616b" data-color="color-2"></path><path d="M21,59h-1c-.552,0-1-.448-1-1v-12h-2c-.552,0-1-.448-1-1v-1c0-.552,.448-1,1-1h4c.552,0,1,.448,1,1v14c0,.552-.448,1-1,1Z" fill="#61616b"></path><path d="M46,59h-1c-.552,0-1-.448-1-1v-12h-2c-.552,0-1-.448-1-1v-1c0-.552,.448-1,1-1h4c.552,0,1,.448,1,1v14c0,.552-.448,1-1,1Z" fill="#61616b"></path><path d="M33,40h-1c-.552,0-1-.448-1-1v-12h-2c-.552,0-1-.448-1-1v-1c0-.552,.448-1,1-1h4c.552,0,1,.448,1,1v14c0,.552-.448,1-1,1Z" fill="#61616b"></path><path d="M9.904,59h-2.404c-1.93,0-3.5-1.57-3.5-3.5v-16.838c0-.905-.246-1.795-.713-2.572l-2.145-3.575c-.19-.316-.19-.713,0-1.029l2.145-3.575c.467-.777,.713-1.667,.713-2.572V8.5c0-1.93,1.57-3.5,3.5-3.5h2.5c.553,0,1,.447,1,1s-.447,1-1,1h-2.5c-.827,0-1.5,.673-1.5,1.5V25.338c0,1.268-.345,2.514-.998,3.602l-1.836,3.061,1.836,3.061c.653,1.088,.998,2.334,.998,3.602v16.838c0,.827,.673,1.5,1.5,1.5h2.404c.553,0,1,.447,1,1s-.447,1-1,1Z" fill="#61616b"></path><path d="M54.095,59h2.404c1.93,0,3.5-1.57,3.5-3.5v-16.838c0-.905,.246-1.795,.713-2.572l2.145-3.575c.19-.316,.19-.713,0-1.029l-2.145-3.575c-.467-.777-.713-1.667-.713-2.572V8.5c0-1.93-1.57-3.5-3.5-3.5h-2.5c-.553,0-1,.447-1,1s.447,1,1,1h2.5c.827,0,1.5,.673,1.5,1.5V25.338c0,1.268,.345,2.514,.998,3.602l1.836,3.061-1.836,3.061c-.653,1.088-.998,2.334-.998,3.602v16.838c0,.827-.673,1.5-1.5,1.5h-2.404c-.553,0-1,.447-1,1s.447,1,1,1Z" fill="#61616b"></path></g></svg>