<svg xmlns="http://www.w3.org/2000/svg" height="16" width="16" viewBox="0 0 16 16"><title>binary code</title><g fill="#61616b" class="nc-icon-wrapper"><path d="M1,15c-.552,0-1-.447-1-1V2c0-.553,.448-1,1-1s1,.447,1,1V14c0,.553-.448,1-1,1Z" fill="#61616b"></path><path d="M15,15c-.552,0-1-.447-1-1V2c0-.553,.448-1,1-1s1,.447,1,1V14c0,.553-.448,1-1,1Z" fill="#61616b"></path><path d="M5,7c-.552,0-1-.447-1-1V2c0-.553,.448-1,1-1s1,.447,1,1V6c0,.553-.448,1-1,1Z" fill="#61616b"></path><path d="M11,15c-.552,0-1-.447-1-1v-4c0-.553,.448-1,1-1s1,.447,1,1v4c0,.553-.448,1-1,1Z" fill="#61616b"></path><path d="M9.5,7c-1.378,0-2.5-1.121-2.5-2.5v-1c0-1.379,1.122-2.5,2.5-2.5s2.5,1.121,2.5,2.5v1c0,1.379-1.122,2.5-2.5,2.5Zm0-4c-.276,0-.5,.225-.5,.5v1c0,.275,.224,.5,.5,.5s.5-.225,.5-.5v-1c0-.275-.224-.5-.5-.5Z" fill="#61616b" data-color="color-2"></path><path d="M6.5,15c-1.378,0-2.5-1.121-2.5-2.5v-1c0-1.379,1.122-2.5,2.5-2.5s2.5,1.121,2.5,2.5v1c0,1.379-1.122,2.5-2.5,2.5Zm0-4c-.276,0-.5,.225-.5,.5v1c0,.275,.224,.5,.5,.5s.5-.225,.5-.5v-1c0-.275-.224-.5-.5-.5Z" fill="#61616b" data-color="color-2"></path></g></svg>