<svg xmlns="http://www.w3.org/2000/svg" height="64" width="64" viewBox="0 0 64 64"><title>blend 3</title><g fill="#61616b" class="nc-icon-wrapper"><path data-color="color-2" fill="#61616b" d="M30.046,23h16.251c-1.076-7.452-3.128-14.373-4.318-18H22.732 C25.322,9.216,28.491,15.521,30.046,23z"></path> <path data-color="color-2" fill="#61616b" d="M46.557,25h-16.14C30.784,27.248,31,29.587,31,32c0,2.417-0.213,4.755-0.574,7h16.136 C46.834,36.67,47,34.311,47,32C47,29.695,46.832,27.334,46.557,25z"></path> <path fill="#61616b" d="M29,32c0-2.409-0.233-4.749-0.623-7H1v14h27.385C28.77,36.752,29,34.413,29,32z"></path> <path data-color="color-2" fill="#61616b" d="M30.058,41c-1.544,7.507-4.705,13.797-7.298,18h19.224c1.192-3.62,3.246-10.526,4.319-18 H30.058z"></path> <path fill="#61616b" d="M48.326,23H63V7c0-1.105-0.895-2-2-2H44.091C45.348,8.878,47.303,15.659,48.326,23z"></path> <path fill="#61616b" d="M27.997,41H1v16c0,1.105,0.895,2,2,2h17.358C22.899,55.043,26.324,48.661,27.997,41z"></path> <path fill="#61616b" d="M63,39V25H48.578C48.841,27.324,49,29.681,49,32c0,2.324-0.157,4.68-0.418,7H63z"></path> <path fill="#61616b" d="M27.986,23c-1.681-7.633-5.111-14.031-7.649-18H3C1.895,5,1,5.895,1,7v16H27.986z"></path> <path fill="#61616b" d="M48.331,41c-1.019,7.362-2.975,14.129-4.234,18H61c1.105,0,2-0.895,2-2V41H48.331z"></path></g></svg>