<svg xmlns="http://www.w3.org/2000/svg" height="16" width="16" viewBox="0 0 16 16"><title>blend 2</title><g fill="#61616b" class="nc-icon-wrapper"><path fill="#61616b" d="M15,1H1C0.4,1,0,1.4,0,2v12c0,0.6,0.4,1,1,1h14c0.6,0,1-0.4,1-1V2C16,1.4,15.6,1,15,1z M2,7h6.9 c0.1,0.8,0.1,1.6,0,2H2V7z M10.9,7H14v2h-3.1C11.1,8.6,11.1,7.6,10.9,7z M14,5h-3.5c-0.3-0.8-0.7-1.5-1.2-2H14V5z M5.9,3 c0.3,0.1,1.6,0.6,2.4,2H2V3H5.9z M2,11h6.3c-0.8,1.4-2.1,1.9-2.4,2H2V11z M9.3,13c0.5-0.5,0.9-1.2,1.2-2H14v2H9.3z"></path></g></svg>