<svg xmlns="http://www.w3.org/2000/svg" height="48" width="48" viewBox="0 0 48 48"><title>blend 4</title><g fill="#61616b" class="nc-icon-wrapper"><path fill="#61616b" d="M21,24c0-1.763-0.196-3.426-0.502-5H1v10h19.528C20.816,27.39,21,25.721,21,24z"></path> <path fill="#61616b" d="M47,29V19H36.61c0.238,1.599,0.39,3.267,0.39,5c0,1.736-0.151,3.403-0.386,5H47z"></path> <path data-color="color-2" fill="#61616b" d="M22.179,31c-0.893,3.919-2.379,7.354-3.795,10h12.19c1.143-2.195,2.705-5.734,3.636-10 H22.179z"></path> <path data-color="color-2" fill="#61616b" d="M34.581,19h-12.04C22.823,20.578,23,22.24,23,24c0,1.724-0.166,3.392-0.431,5h12.016 C34.838,27.403,35,25.733,35,24C35,22.269,34.837,20.599,34.581,19z"></path> <path data-color="color-2" fill="#61616b" d="M22.115,17h12.091c-0.933-4.257-2.496-7.8-3.637-10h-12.93 C19.224,9.364,21.054,12.777,22.115,17z"></path> <path fill="#61616b" d="M20.106,31H1v8c0,1.105,0.895,2,2,2h13.073C17.505,38.468,19.125,34.999,20.106,31z"></path> <path fill="#61616b" d="M36.264,31c-0.841,4.124-2.251,7.601-3.432,10H45c1.105,0,2-0.895,2-2v-8H36.264z"></path> <path fill="#61616b" d="M36.257,17H47V9c0-1.105-0.895-2-2-2H32.821C34.001,9.404,35.413,12.886,36.257,17z"></path> <path fill="#61616b" d="M20.032,17c-1.211-4.429-3.312-7.897-4.853-10H3C1.895,7,1,7.895,1,9v8H20.032z"></path></g></svg>