<svg xmlns="http://www.w3.org/2000/svg" height="32" width="32" viewBox="0 0 32 32"><title>blend 5</title><g fill="#61616b" class="nc-icon-wrapper"><path data-color="color-2" fill="#61616b" d="M22.828,13h-7.046C15.916,13.972,16,14.971,16,16c0,1.031-0.084,2.029-0.216,3h7.045 C22.934,17.998,23,16.99,23,16C23,15.012,22.933,14.003,22.828,13z"></path> <path fill="#61616b" d="M14,16c0-1.027-0.087-2.03-0.235-3H0v6h13.767C13.913,18.031,14,17.029,14,16z"></path> <path data-color="color-2" fill="#61616b" d="M15.425,11h7.141c-0.634-3.999-1.786-7.589-2.273-9h-8.655 C12.937,4.072,14.573,7.22,15.425,11z"></path> <path data-color="color-2" fill="#61616b" d="M15.433,21c-0.847,3.794-2.481,6.934-3.782,9h8.644c0.487-1.408,1.641-4.991,2.274-9H15.433 z"></path> <path fill="#61616b" d="M32,19v-6h-7.159C24.939,13.999,25,15.006,25,16c0,0.996-0.06,2.002-0.157,3H32z"></path> <path fill="#61616b" d="M13.362,21H0v8c0,0.552,0.447,1,1,1h8.245C10.433,28.279,12.366,25.031,13.362,21z"></path> <path fill="#61616b" d="M22.409,30H31c0.553,0,1-0.448,1-1v-8h-7.405C24.03,24.782,23.011,28.192,22.409,30z"></path> <path fill="#61616b" d="M9.239,2H1C0.447,2,0,2.448,0,3v8h13.356C12.357,6.983,10.426,3.727,9.239,2z"></path> <path fill="#61616b" d="M24.592,11H32V3c0-0.552-0.447-1-1-1h-8.593C23.007,3.811,24.026,7.227,24.592,11z"></path></g></svg>