<svg xmlns="http://www.w3.org/2000/svg" height="24" width="24" viewBox="0 0 24 24"><title>board 2 5</title><g fill="#61616b" class="nc-icon-wrapper"><path d="M20,1H4c-1.657,0-3,1.343-3,3V20c0,1.657,1.343,3,3,3H20c1.657,0,3-1.343,3-3V4c0-1.657-1.343-3-3-3ZM10,19H6c-.552,0-1-.448-1-1v-4c0-.552,.448-1,1-1h4c.552,0,1,.448,1,1v4c0,.552-.448,1-1,1Zm0-8H6c-.552,0-1-.448-1-1V6c0-.552,.448-1,1-1h4c.552,0,1,.448,1,1v4c0,.552-.448,1-1,1Zm8,8h-4c-.552,0-1-.448-1-1V6c0-.552,.448-1,1-1h4c.552,0,1,.448,1,1v12c0,.552-.448,1-1,1Z" fill="#61616b"></path></g></svg>