<svg xmlns="http://www.w3.org/2000/svg" height="16" width="16" viewBox="0 0 16 16"><title>board 2</title><g fill="#61616b" class="nc-icon-wrapper"><path d="M14,0H2A2,2,0,0,0,0,2V14a2,2,0,0,0,2,2H14a2,2,0,0,0,2-2V2A2,2,0,0,0,14,0ZM6.5,13h-3a.5.5,0,0,1-.5-.5v-3A.5.5,0,0,1,3.5,9h3a.5.5,0,0,1,.5.5v3A.5.5,0,0,1,6.5,13Zm0-6h-3A.5.5,0,0,1,3,6.5v-3A.5.5,0,0,1,3.5,3h3a.5.5,0,0,1,.5.5v3A.5.5,0,0,1,6.5,7Zm6,6h-3a.5.5,0,0,1-.5-.5v-9A.5.5,0,0,1,9.5,3h3a.5.5,0,0,1,.5.5v9A.5.5,0,0,1,12.5,13Z" fill="#61616b"></path></g></svg>