<svg xmlns="http://www.w3.org/2000/svg" height="32" width="32" viewBox="0 0 32 32"><title>board 2 4</title><g fill="#61616b" class="nc-icon-wrapper"><path d="M27,1H5C2.791,1,1,2.791,1,5V27c0,2.209,1.791,4,4,4H27c2.209,0,4-1.791,4-4V5c0-2.209-1.791-4-4-4ZM13,26H7c-.552,0-1-.448-1-1v-6c0-.552,.448-1,1-1h6c.552,0,1,.448,1,1v6c0,.552-.448,1-1,1Zm0-12H7c-.552,0-1-.448-1-1V7c0-.552,.448-1,1-1h6c.552,0,1,.448,1,1v6c0,.552-.448,1-1,1Zm12,12h-6c-.552,0-1-.448-1-1V7c0-.552,.448-1,1-1h6c.552,0,1,.448,1,1V25c0,.552-.448,1-1,1Z" fill="#61616b"></path></g></svg>