<svg xmlns="http://www.w3.org/2000/svg" height="64" width="64" viewBox="0 0 64 64"><title>board 2 2</title><g fill="#61616b" class="nc-icon-wrapper"><path d="M54,4H10c-3.314,0-6,2.686-6,6V54c0,3.314,2.686,6,6,6H54c3.314,0,6-2.686,6-6V10c0-3.314-2.686-6-6-6ZM29,52.176c-.073,.516-.541,.88-1.059,.824H12.059c-.518,.056-.986-.308-1.059-.824v-12.352c.073-.516,.541-.88,1.059-.824h15.882c.518-.056,.986,.308,1.059,.824v12.352Zm0-20.47c.058,.648-.412,1.223-1.059,1.294H12.059c-.647-.071-1.117-.646-1.059-1.294V12.294c-.058-.648,.412-1.223,1.059-1.294h15.882c.647,.071,1.117,.646,1.059,1.294V31.706Zm24,20.244c-.002,.582-.476,1.052-1.058,1.05,0,0,0,0-.001,0h-15.882c-.582,.003-1.056-.467-1.059-1.049,0,0,0,0,0-.001V12.05c.002-.582,.476-1.052,1.058-1.05,0,0,0,0,.001,0h15.882c.582-.003,1.056,.467,1.059,1.049,0,0,0,0,0,.001V51.95Z" fill="#61616b"></path></g></svg>