<svg xmlns="http://www.w3.org/2000/svg" height="32" width="32" viewBox="0 0 32 32"><title>book bookmark 6</title><g fill="#61616b" class="nc-icon-wrapper"><path d="M28.888,25.438c.013-.026.028-.05.039-.077A.966.966,0,0,0,29,25.022.174.174,0,0,0,29,25V1a1,1,0,0,0-1-1H17V11L13,8,9,11V0H7A4,4,0,0,0,3,4V28a4,4,0,0,0,4,4H28a1,1,0,0,0,.825-1.565A5.153,5.153,0,0,1,28,28a5.141,5.141,0,0,1,.825-2.435A.938.938,0,0,0,28.888,25.438ZM26.39,30H7a2,2,0,0,1,0-4H26.39a5.323,5.323,0,0,0,0,4Z" fill="#61616b"></path></g></svg>