<svg xmlns="http://www.w3.org/2000/svg" height="48" width="48" viewBox="0 0 48 48"><title>book bookmark 2 4</title><g fill="#61616b" class="nc-icon-wrapper"><path fill="#61616b" d="M42,1h-6v17c0,0.369-0.203,0.708-0.528,0.882c-0.324,0.174-0.72,0.155-1.026-0.05L29,15.202l-5.445,3.63 c-0.307,0.204-0.701,0.224-1.026,0.05S22,18.369,22,18V1H10C7.243,1,5,3.243,5,6v36c0,2.757,2.243,5,5,5h32c0.553,0,1-0.448,1-1V2 C43,1.448,42.553,1,42,1z M41,45H10c-1.654,0-3-1.346-3-3s1.346-3,3-3h31V45z"></path></g></svg>