<svg xmlns="http://www.w3.org/2000/svg" height="48" width="48" viewBox="0 0 48 48"><title>book open 5</title><g fill="#61616b" class="nc-icon-wrapper"><path fill="#61616b" d="M45,7h-1l0,28.004C44,36.107,43.099,37,41.995,37c-11.975-0.001-16.714,3.537-16.759,3.572L23.99,41.53 l-1.226-0.958C22.719,40.537,17.98,36.999,6.005,37C4.901,37,4,36.107,4,35.004L4,7H3C1.895,7,1,7.895,1,9v34c0,1.105,0.895,2,2,2 h42c1.105,0,2-0.895,2-2V9C47,7.895,46.105,7,45,7z"></path> <path data-color="color-2" fill="#61616b" d="M23,6.366c-1.946-1.087-6.881-3.208-15.98-3.358C6.463,2.999,6,3.456,6,4.013v30 c0,0.547,0.447,0.986,0.994,0.995c9.114,0.146,14.057,2.27,16.006,3.358V6.366z"></path> <path data-color="color-2" fill="#61616b" d="M40.98,3.008C31.881,3.158,26.946,5.279,25,6.366v32c1.949-1.088,6.892-3.212,16.006-3.358 C41.553,34.999,42,34.56,42,34.013v-30C42,3.456,41.537,2.999,40.98,3.008z"></path></g></svg>