<svg xmlns="http://www.w3.org/2000/svg" height="64" width="64" viewBox="0 0 64 64"><title>book bookmark 2 3</title><g fill="#61616b" class="nc-icon-wrapper"><path data-color="color-2" fill="#61616b" d="M54,55H15c-0.553,0-1,0.448-1,1s0.447,1,1,1h39V55z"></path> <path fill="#61616b" d="M57,1h-7v20c0,0.364-0.197,0.698-0.516,0.875C49.334,21.958,49.167,22,49,22 c-0.185,0-0.368-0.051-0.53-0.152L41,17.179l-7.47,4.669c-0.309,0.193-0.698,0.203-1.015,0.026C32.197,21.698,32,21.364,32,21V1H13 C9.141,1,6,4.14,6,8v48c0,3.86,3.141,7,7,7h44c0.553,0,1-0.448,1-1V2C58,1.448,57.553,1,57,1z M56,61H13c-2.757,0-5-2.243-5-5 s2.243-5,5-5h43V61z"></path></g></svg>