<svg xmlns="http://www.w3.org/2000/svg" height="24" width="24" viewBox="0 0 24 24"><title>border width 5</title><g fill="#61616b" class="nc-icon-wrapper"><path d="M23,9H1c-.552,0-1-.447-1-1V4c0-.553,.448-1,1-1H23c.552,0,1,.447,1,1v4c0,.553-.448,1-1,1Z" fill="#61616b"></path><path d="M23,16H1c-.552,0-1-.447-1-1v-2c0-.553,.448-1,1-1H23c.552,0,1,.447,1,1v2c0,.553-.448,1-1,1Z" fill="#61616b" data-color="color-2"></path><path d="M0,20H0c0,.552,.448,1,1,1H23c.552,0,1-.448,1-1h0c0-.552-.448-1-1-1H1c-.552,0-1,.448-1,1Z" fill="#61616b"></path></g></svg>