<svg xmlns="http://www.w3.org/2000/svg" height="64" width="64" viewBox="0 0 64 64"><title>border 4</title><g fill="#61616b" class="nc-icon-wrapper"><path d="M61,1H3A2,2,0,0,0,1,3V61a2,2,0,0,0,2,2H61a2,2,0,0,0,2-2V3A2,2,0,0,0,61,1ZM59,59H5V5H59Z" fill="#61616b"></path> <path d="M32,18a1,1,0,0,0,1-1V10a1,1,0,0,0-2,0v7A1,1,0,0,0,32,18Z" fill="#61616b" data-color="color-2"></path> <path d="M47,33h7a1,1,0,0,0,0-2H47a1,1,0,0,0,0,2Z" fill="#61616b" data-color="color-2"></path> <path d="M32,55a1,1,0,0,0,1-1V47a1,1,0,0,0-2,0v7A1,1,0,0,0,32,55Z" fill="#61616b" data-color="color-2"></path> <path d="M10,33h7a1,1,0,0,0,0-2H10a1,1,0,0,0,0,2Z" fill="#61616b" data-color="color-2"></path></g></svg>