<svg xmlns="http://www.w3.org/2000/svg" height="64" width="64" viewBox="0 0 64 64"><title>border radius 4</title><g fill="#61616b" class="nc-icon-wrapper"><path d="M5,21H1V9A8.009,8.009,0,0,1,9,1H21V5H9A4,4,0,0,0,5,9Z" fill="#61616b"></path> <path d="M63,21H59V9a4,4,0,0,0-4-4H43V1H55a8.009,8.009,0,0,1,8,8Z" fill="#61616b" data-color="color-2"></path> <path d="M21,63H9a8.009,8.009,0,0,1-8-8V43H5V55a4,4,0,0,0,4,4H21Z" fill="#61616b" data-color="color-2"></path> <path d="M55,63H43V59H55a4,4,0,0,0,4-4V43h4V55A8.009,8.009,0,0,1,55,63Z" fill="#61616b"></path></g></svg>