<svg xmlns="http://www.w3.org/2000/svg" height="48" width="48" viewBox="0 0 48 48"><title>border radius 2</title><g fill="#61616b" class="nc-icon-wrapper"><path d="M5,15H1V7A6.007,6.007,0,0,1,7,1h8V5H7A2,2,0,0,0,5,7Z" fill="#61616b"></path> <path d="M47,15H43V7a2,2,0,0,0-2-2H33V1h8a6.007,6.007,0,0,1,6,6Z" fill="#61616b" data-color="color-2"></path> <path d="M15,47H7a6.007,6.007,0,0,1-6-6V33H5v8a2,2,0,0,0,2,2h8Z" fill="#61616b" data-color="color-2"></path> <path d="M41,47H33V43h8a2,2,0,0,0,2-2V33h4v8A6.007,6.007,0,0,1,41,47Z" fill="#61616b"></path></g></svg>