<svg xmlns="http://www.w3.org/2000/svg" height="16" width="16" viewBox="0 0 16 16"><title>border width</title><g fill="#61616b" class="nc-icon-wrapper"><path d="M15,6H1c-.552,0-1-.448-1-1V3c0-.552,.448-1,1-1H15c.552,0,1,.448,1,1v2c0,.552-.448,1-1,1Z" fill="#61616b"></path><path d="M15,11H1c-.552,0-1-.448-1-1v-1c0-.552,.448-1,1-1H15c.552,0,1,.448,1,1v1c0,.552-.448,1-1,1Z" fill="#61616b" data-color="color-2"></path><rect x="0" y="13" width="16" height="2" rx="1" ry="1" fill="#61616b"></rect></g></svg>