<svg xmlns="http://www.w3.org/2000/svg" height="32" width="32" viewBox="0 0 32 32"><title>border radius 5</title><g fill="#61616b" class="nc-icon-wrapper"><path d="M4,12H0V5A5.006,5.006,0,0,1,5,0h7V4H5A1,1,0,0,0,4,5Z" fill="#61616b"></path> <path d="M32,12H28V5a1,1,0,0,0-1-1H20V0h7a5.006,5.006,0,0,1,5,5Z" fill="#61616b" data-color="color-2"></path> <path d="M12,32H5a5.006,5.006,0,0,1-5-5V20H4v7a1,1,0,0,0,1,1h7Z" fill="#61616b" data-color="color-2"></path> <path d="M27,32H20V28h7a1,1,0,0,0,1-1V20h4v7A5.006,5.006,0,0,1,27,32Z" fill="#61616b"></path></g></svg>