<svg xmlns="http://www.w3.org/2000/svg" height="48" width="48" viewBox="0 0 48 48"><title>browser opera 3</title><g fill="#61616b" class="nc-icon-wrapper"><path data-color="color-2" fill="#61616b" d="M47,24L47,24L47,24c0,6.814-2.963,12.934-7.67,17.145c-5.899,2.875-11.398,0.862-13.218-0.393 C31.907,39.481,36.285,32.475,36.285,24S31.907,8.52,26.112,7.248c1.82-1.255,7.319-3.268,13.218-0.393 C44.037,11.066,47,17.187,47,24L47,24L47,24z"></path> <path fill="#61616b" d="M16.429,11.039c-2.543,3.002-4.19,7.44-4.302,12.42c0,0.013,0,1.071,0,1.084 c0.112,4.98,1.759,9.418,4.302,12.42c3.3,4.285,8.205,7.001,13.682,7.001c3.369,0,6.521-1.029,9.217-2.817 C35.259,44.786,29.889,47,24,47c-0.367,0-0.732-0.01-1.095-0.027C10.711,46.402,1,36.335,1,24C1,11.297,11.298,1,24,1 c0.029,0,0.058,0.001,0.087,0.001c5.855,0.022,11.194,2.231,15.243,5.854c-2.696-1.789-5.849-2.818-9.218-2.818 C24.634,4.037,19.729,6.754,16.429,11.039z"></path></g></svg>