<svg xmlns="http://www.w3.org/2000/svg" height="48" width="48" viewBox="0 0 48 48"><title>browser firefox 3</title><g fill="#61616b" class="nc-icon-wrapper"><path d="M44.655,16.427c-.969-2.33-2.931-4.845-4.471-5.64a23.135,23.135,0,0,1,2.257,6.764l0,.037c-2.52-6.282-6.794-8.815-10.284-14.33-.176-.279-.353-.558-.525-.853-.088-.151-.17-.3-.245-.461a4.043,4.043,0,0,1-.333-.881A.059.059,0,0,0,31.007,1a.072.072,0,0,0-.041,0l-.011.006-.017.009L30.948,1a16.288,16.288,0,0,0-7.539,11.219,11.869,11.869,0,0,0-4.417,1.128.57.57,0,0,0-.282.707.56.56,0,0,0,.712.346.478.478,0,0,0,.048-.019,10.783,10.783,0,0,1,3.847-1l.13-.009c.184-.011.367-.018.551-.02a11.231,11.231,0,0,1,3.2.443c.061.018.121.039.181.057.172.053.344.11.514.171.124.046.247.1.37.145.1.041.2.081.3.124q.229.1.455.214l.2.1q.219.116.434.24c.092.054.183.109.274.165a11.411,11.411,0,0,1,3.9,4.032,7.7,7.7,0,0,0-5.374-1.3c8.017,4.008,5.865,17.81-5.244,17.289a9.9,9.9,0,0,1-2.9-.56q-.331-.124-.655-.267c-.126-.058-.251-.116-.376-.18a9.413,9.413,0,0,1-5.25-7.294S15.053,22.9,21.391,22.9c.685,0,2.644-1.912,2.68-2.466-.008-.182-3.887-1.724-5.4-3.215-.809-.8-1.192-1.179-1.532-1.468a6.6,6.6,0,0,0-.577-.435A10.331,10.331,0,0,1,16.5,9.865a16.519,16.519,0,0,0-5.365,4.146h-.01c-.884-1.119-.822-4.811-.771-5.582a4.044,4.044,0,0,0-.744.395A16.286,16.286,0,0,0,7.431,10.69a19.547,19.547,0,0,0-2.081,2.5v0a18.8,18.8,0,0,0-2.99,6.753c-.006.024-.213.932-.364,2.054-.026.174-.049.349-.071.524-.052.337-.092.7-.132,1.276l0,.066c-.017.247-.032.495-.045.742,0,.038,0,.076,0,.114A22.29,22.29,0,0,0,46,28.486c.038-.286.068-.572.1-.86a22.92,22.92,0,0,0-1.446-11.2Z" fill="#61616b"></path></g></svg>