<svg xmlns="http://www.w3.org/2000/svg" height="32" width="32" viewBox="0 0 32 32"><title>browser ie 4</title><g fill="#61616b" class="nc-icon-wrapper"><path fill="#61616b" d="M30.291,7.153c2.961-7.683-2.79-7.145-2.79-7.145c-3.69,0-8.302,3.36-8.302,3.36S13.697,1.886,8.196,5.213 C2.2,9.035,2.398,15.821,2.398,15.821C7.273,8.837,14.06,6.004,14.06,6.004v0.461C4.045,13.314,1.673,23.332,1.08,25.375 C0.487,27.417,0.882,32,5.099,32c4.217,0,8.499-3.397,8.499-3.397s0.922,0.198,3.426,0.198c10.542,0,13.046-9.29,13.046-9.29h-9.356 c0,0-0.659,3.031-4.019,3.031c-4.612,0-4.349-4.81-4.349-4.81h17.856c0.856-12.387-9.949-14.166-9.949-14.166 s3.819-2.701,7.116-2.701c5.226,0,2.755,6.122,2.755,6.122L30.291,7.153z M13.076,28.466c0,0-6.435,3.905-9.324,1.199 c-1.547-2.706,0.967-6.538,0.967-6.538S6.847,27.073,13.076,28.466z M20.816,13.517h-8.492c0,0-0.108-4.138,4.353-4.138 C20.985,9.378,20.816,13.517,20.816,13.517z"></path></g></svg>