<svg xmlns="http://www.w3.org/2000/svg" height="64" width="64" viewBox="0 0 64 64"><title>browser edge legacy 2</title><g fill="#61616b" class="nc-icon-wrapper"><path fill="#61616b" d="M3.384,28.537C4.598,13.334,16.511,1,32.538,1c2.884,0,8.933,0.502,14.382,3.861 c6.977,4.302,10.977,10.058,12.564,16.557c1.008,4.127,1.131,9.063,1.131,9.063v6.91H21.529c0,0-0.803,12.675,17.105,12.675 c6.143,0,11.811-1.32,16.591-4.588v13.007c0,0-7.153,4.514-18.226,4.514c-10.566,0-17.858-4.197-22.023-10.291 c-3.56-5.208-4.385-8.787-4.385-14.373c0-10.492,6.562-18.763,15.109-22.229c-2.348,2.738-3.774,5.701-4.172,9.153h21.565 c0,0,0.955-12.411-12.134-12.411C19.582,12.85,8.966,19.899,3.384,28.537z"></path></g></svg>