<svg xmlns="http://www.w3.org/2000/svg" height="32" width="32" viewBox="0 0 32 32"><title>browser edge legacy 4</title><g fill="#61616b" class="nc-icon-wrapper"><path fill="#61616b" d="M1.231,14.213C1.857,6.366,8.006,0,16.278,0c1.489,0,4.611,0.259,7.423,1.993 c3.601,2.22,5.666,5.191,6.485,8.545c0.52,2.13,0.584,4.678,0.584,4.678v3.356H10.672c0,0-0.491,6.752,8.752,6.752 c3.17,0,6.183-0.714,8.651-2.401l0.003,6.746c0,0-3.783,2.33-9.497,2.33c-5.453,0-9.217-2.166-11.367-5.311 C5.376,24,4.95,22.154,4.95,19.27c0-5.415,3.387-9.684,7.798-11.473c-1.212,1.413-2.007,3.318-2.212,5.1h11.348 c0,0,0.664-6.781-6.421-6.781C9.591,6.116,4.111,9.754,1.231,14.213z"></path></g></svg>