<svg xmlns="http://www.w3.org/2000/svg" height="64" width="64" viewBox="0 0 64 64"><title>browser chrome 2</title><g fill="#61616b" class="nc-icon-wrapper"><path data-color="color-2" fill="#61616b" d="M32,21c-6.065,0-11,4.935-11,11s4.935,11,11,11s11-4.935,11-11S38.065,21,32,21z"></path> <path fill="#61616b" d="M19.024,31.525C19.277,24.578,24.992,19,32,19h28.132C55.207,8.384,44.453,1,32,1 C22.329,1,13.68,5.454,7.991,12.415L19.024,31.525z"></path> <path fill="#61616b" d="M38.896,21C42.555,23.303,45,27.367,45,32c0,2.341-0.631,4.534-1.719,6.434 c-0.01,0.021-0.01,0.045-0.022,0.066L29.191,62.867C30.117,62.95,31.052,63,32,63c17.094,0,31-13.906,31-31 c0-3.873-0.72-7.579-2.023-11H38.896z"></path> <path fill="#61616b" d="M38.07,43.487C36.256,44.45,34.192,45,32,45c-4.754,0-8.908-2.573-11.175-6.391 c-0.028-0.036-0.06-0.068-0.084-0.109L6.681,14.147C3.108,19.198,1,25.356,1,32c0,15.404,11.295,28.214,26.036,30.598L38.07,43.487z "></path></g></svg>