<svg xmlns="http://www.w3.org/2000/svg" height="32" width="32" viewBox="0 0 32 32"><title>browser chrome 4</title><g fill="#61616b" class="nc-icon-wrapper"><path fill="#61616b" d="M8.158,14.418C8.895,10.762,12.13,8,16,8h13.835C27.063,3.226,21.907,0,16,0 C10.882,0,6.33,2.424,3.399,6.175L8.158,14.418z"></path> <circle data-color="color-2" fill="#61616b" cx="16" cy="16" r="6"></circle> <path fill="#61616b" d="M18.555,23.574C17.752,23.846,16.894,24,16,24c-2.955,0-5.535-1.615-6.92-4.005L9.071,20L2.154,8.019 C0.792,10.371,0,13.092,0,16c0,8.07,6.012,14.746,13.789,15.829L18.555,23.574z"></path> <path fill="#61616b" d="M21.274,10C22.941,11.467,24,13.61,24,16c0,1.456-0.397,2.818-1.08,3.995L22.929,20L16,32 c8.822,0,16-7.178,16-16c0-2.122-0.424-4.145-1.178-6H21.274z"></path></g></svg>