<svg xmlns="http://www.w3.org/2000/svg" height="64" width="64" viewBox="0 0 64 64"><title>browser safari 2</title><g fill="#61616b" class="nc-icon-wrapper"><path fill="#61616b" d="M32,63C14.906,63,1,49.094,1,32S14.906,1,32,1s31,13.906,31,31S49.094,63,32,63z M32,3C16.01,3,3,16.01,3,32 s13.01,29,29,29s29-13.01,29-29S47.99,3,32,3z"></path> <path data-color="color-2" fill="#61616b" d="M32.048,5c-0.214,0-0.381,0.167-0.381,0.357v4.976c0,0.19,0.167,0.357,0.381,0.357 c0.19,0,0.381-0.167,0.381-0.357V5.357C32.429,5.167,32.262,5,32.048,5z"></path> <path data-color="color-2" fill="#61616b" d="M34.429,8.024c0.214,0.024,0.381-0.119,0.405-0.333L35,5.476c0-0.19-0.143-0.357-0.357-0.381 c-0.214-0.024-0.381,0.143-0.405,0.333l-0.167,2.214C34.071,7.833,34.214,8,34.429,8.024z"></path> <path data-color="color-2" fill="#61616b" d="M36.214,11.119c0.214,0.024,0.405-0.095,0.452-0.286l0.976-4.881 c0.024-0.19-0.095-0.381-0.31-0.429c-0.214-0.048-0.405,0.095-0.452,0.286l-0.976,4.881C35.881,10.881,36,11.071,36.214,11.119z M37.588,5.819c0.011,0.041,0.014,0.086,0.008,0.134C37.601,5.906,37.598,5.861,37.588,5.819z"></path> <path data-color="color-2" fill="#61616b" d="M39.071,8.976c0.214,0.048,0.405-0.071,0.452-0.262l0.595-2.143 c0.071-0.19-0.071-0.405-0.262-0.452c-0.143-0.036-0.3,0.023-0.389,0.135c-0.003,0.003-0.004,0.007-0.007,0.011 c-0.025,0.035-0.046,0.073-0.056,0.116L38.81,8.524C38.738,8.714,38.881,8.929,39.071,8.976z"></path> <path data-color="color-2" fill="#61616b" d="M42.429,7.071c-0.214-0.071-0.429,0-0.5,0.19l-1.905,4.595 c-0.071,0.19,0.024,0.405,0.214,0.476c0.19,0.095,0.405,0,0.5-0.19l1.905-4.595C42.714,7.357,42.619,7.143,42.429,7.071z"></path> <path data-color="color-2" fill="#61616b" d="M43.452,10.81c0.19,0.095,0.405,0.024,0.5-0.167l1-1.976c0.095-0.19,0.024-0.405-0.167-0.5 c-0.19-0.095-0.405-0.024-0.5,0.167l-1,1.976C43.19,10.5,43.262,10.714,43.452,10.81z"></path> <path data-color="color-2" fill="#61616b" d="M43.767,14.013c0,0.003,0,0.006,0,0.009c0.007,0.119,0.058,0.238,0.161,0.311 c0.167,0.119,0.405,0.071,0.524-0.095l2.762-4.119c0.095-0.167,0.048-0.405-0.119-0.524c-0.19-0.119-0.405-0.071-0.524,0.095 L43.81,13.81C43.774,13.871,43.765,13.942,43.767,14.013z"></path> <path data-color="color-2" fill="#61616b" d="M47.381,13.452c0.167,0.143,0.405,0.119,0.524-0.048l1.381-1.738 c0.119-0.167,0.095-0.405-0.071-0.524C49.048,11,48.81,11.024,48.69,11.19l-1.381,1.738C47.19,13.095,47.214,13.333,47.381,13.452z M47.405,13.429c0.069,0.057,0.154,0.08,0.238,0.074C47.561,13.512,47.477,13.489,47.405,13.429z"></path> <path data-color="color-2" fill="#61616b" d="M50.714,16.833c0.143,0.167,0.381,0.19,0.524,0.048l1.69-1.429 c0.143-0.119,0.167-0.357,0.024-0.524c-0.143-0.167-0.381-0.19-0.524-0.048l-1.69,1.429C50.595,16.429,50.571,16.667,50.714,16.833z "></path> <path data-color="color-2" fill="#61616b" d="M49.762,20.238c0.119,0.19,0.357,0.238,0.524,0.119l4.143-2.762 c0.167-0.119,0.214-0.357,0.095-0.524c-0.119-0.19-0.357-0.238-0.524-0.119l-4.143,2.762C49.69,19.833,49.643,20.071,49.762,20.238z M50.144,20.379c0.042-0.007,0.082-0.022,0.118-0.045C50.225,20.358,50.185,20.372,50.144,20.379z"></path> <path data-color="color-2" fill="#61616b" d="M53.31,20.762c0.095,0.167,0.333,0.238,0.5,0.143l1.929-1.095 c0.126-0.072,0.183-0.211,0.163-0.357c-0.005-0.049-0.018-0.098-0.044-0.143c-0.072-0.125-0.21-0.197-0.346-0.184 c-0.054,0.002-0.107,0.014-0.154,0.041l-1.929,1.095C53.262,20.357,53.214,20.571,53.31,20.762z"></path> <path data-color="color-2" fill="#61616b" d="M51.714,23.929c0.071,0.19,0.286,0.286,0.476,0.214l4.595-1.905 c0.144-0.072,0.219-0.211,0.217-0.357c0-0.046-0.009-0.095-0.027-0.143c-0.071-0.19-0.286-0.286-0.476-0.214l-4.595,1.905 C51.714,23.524,51.643,23.738,51.714,23.929z"></path> <path data-color="color-2" fill="#61616b" d="M55.071,25.119c0.071,0.19,0.286,0.286,0.476,0.238l2.095-0.69 c0.214-0.071,0.31-0.286,0.238-0.476c-0.055-0.146-0.194-0.25-0.342-0.258c-0.045-0.004-0.091,0.001-0.134,0.019l-2.095,0.69 C55.095,24.714,55,24.929,55.071,25.119z M57.643,24.619l-2.095,0.69c-0.011,0.003-0.022,0.001-0.032,0.003 c0.003-0.001,0.006-0.001,0.008-0.003l2.095-0.69c0.069-0.026,0.125-0.068,0.166-0.119C57.75,24.549,57.706,24.592,57.643,24.619z M57.821,24.444c-0.006,0.014-0.016,0.027-0.025,0.04C57.805,24.471,57.814,24.458,57.821,24.444z"></path> <path data-color="color-2" fill="#61616b" d="M52.905,27.929c0.048,0.214,0.238,0.357,0.429,0.31l4.881-0.952 c0.046-0.011,0.088-0.031,0.127-0.058c0.11-0.058,0.177-0.179,0.168-0.31c0-0.028-0.002-0.056-0.009-0.084 c-0.048-0.214-0.238-0.357-0.429-0.31l-4.881,0.952C53,27.524,52.857,27.714,52.905,27.929z"></path> <path data-color="color-2" fill="#61616b" d="M56.286,29.333c-0.19,0.024-0.333,0.214-0.31,0.429c0.024,0.214,0.214,0.357,0.405,0.333 l2.19-0.262c0.19-0.024,0.333-0.214,0.31-0.429c-0.024-0.214-0.214-0.357-0.405-0.333L56.286,29.333z"></path> <path data-color="color-2" fill="#61616b" d="M58.643,31.69h-4.976c-0.19,0-0.357,0.167-0.357,0.381c0,0.214,0.167,0.381,0.357,0.381 h4.976c0.19,0,0.357-0.167,0.357-0.381C59,31.857,58.833,31.69,58.643,31.69z"></path> <path data-color="color-2" fill="#61616b" d="M58.548,34.286l-2.214-0.167c-0.19,0-0.357,0.143-0.381,0.357 c0,0.19,0.143,0.381,0.333,0.405l2.214,0.167c0.19,0,0.357-0.143,0.381-0.357C58.905,34.476,58.738,34.31,58.548,34.286z M58.857,34.69c0.003-0.021,0.003-0.042,0.001-0.063C58.86,34.648,58.86,34.669,58.857,34.69z"></path> <path data-color="color-2" fill="#61616b" d="M58.19,36.881l-4.881-0.976c-0.19-0.024-0.381,0.095-0.429,0.31 c-0.024,0.214,0.095,0.405,0.286,0.452l4.881,0.976c0.19,0.024,0.381-0.095,0.429-0.31C58.524,37.119,58.381,36.929,58.19,36.881z M58.181,37.588c-0.041,0.011-0.086,0.014-0.134,0.008C58.094,37.601,58.139,37.598,58.181,37.588z"></path> <path data-color="color-2" fill="#61616b" d="M57.746,39.468c-0.003-0.003-0.007-0.004-0.011-0.007c-0.035-0.025-0.073-0.046-0.116-0.056 l-2.143-0.595c-0.19-0.071-0.405,0.071-0.452,0.262c-0.048,0.214,0.071,0.405,0.262,0.452l2.143,0.595 c0.19,0.071,0.405-0.071,0.452-0.262C57.917,39.714,57.858,39.557,57.746,39.468z"></path> <path data-color="color-2" fill="#61616b" d="M56.738,41.881l-4.595-1.905c-0.19-0.071-0.405,0.024-0.476,0.214 c-0.071,0.19,0,0.405,0.19,0.5l4.595,1.905c0.19,0.071,0.405-0.024,0.476-0.214c0.018-0.043,0.025-0.089,0.023-0.135 C56.961,42.082,56.888,41.937,56.738,41.881z M51.927,40.012c0.019-0.006,0.039-0.01,0.059-0.011 C51.966,40.003,51.947,40.008,51.927,40.012z M52.047,40.004c0.008,0.001,0.015,0.003,0.023,0.005 C52.062,40.007,52.055,40.005,52.047,40.004z"></path> <path data-color="color-2" fill="#61616b" d="M55.69,44.238l-1.976-1c-0.19-0.095-0.405-0.024-0.5,0.167 c-0.095,0.19-0.024,0.429,0.167,0.5l1.976,1c0.19,0.095,0.405,0.024,0.5-0.167C55.952,44.548,55.881,44.333,55.69,44.238z"></path> <path data-color="color-2" fill="#61616b" d="M54.381,46.5l-4.143-2.762c-0.167-0.095-0.405-0.048-0.524,0.119 c-0.119,0.167-0.095,0.405,0.095,0.524l4.143,2.762c0.063,0.036,0.137,0.046,0.211,0.042c0.007,0,0.013-0.001,0.019-0.001 c0.029-0.003,0.057-0.008,0.085-0.017c0.013-0.005,0.026-0.009,0.038-0.016c0.065-0.028,0.127-0.067,0.17-0.127 C54.595,46.833,54.548,46.619,54.381,46.5z"></path> <path data-color="color-2" fill="#61616b" d="M51.119,47.238c-0.167-0.119-0.405-0.095-0.524,0.071c-0.119,0.167-0.095,0.405,0.071,0.524 l1.738,1.357c0.167,0.119,0.405,0.095,0.524-0.071c0.119-0.167,0.095-0.405-0.071-0.524L51.119,47.238z M52.881,49.095 c0.057-0.069,0.08-0.154,0.074-0.238C52.964,48.939,52.941,49.023,52.881,49.095z"></path> <path data-color="color-2" fill="#61616b" d="M47.595,47.071c-0.143-0.143-0.381-0.143-0.524,0c-0.167,0.143-0.167,0.381,0,0.524 l3.524,3.5c0.143,0.143,0.381,0.143,0.524,0c0.143-0.143,0.143-0.381,0-0.524L47.595,47.071z"></path> <path data-color="color-2" fill="#61616b" d="M47.786,50.667c-0.143-0.143-0.357-0.167-0.524-0.024c-0.167,0.119-0.167,0.357-0.048,0.524 l1.452,1.667c0.143,0.143,0.357,0.167,0.524,0.024c0.167-0.143,0.19-0.381,0.048-0.524L47.786,50.667z M48.927,52.895 c0.084,0.001,0.17-0.027,0.24-0.085C49.094,52.87,49.009,52.899,48.927,52.895z"></path> <path data-color="color-2" fill="#61616b" d="M44.381,49.81c-0.119-0.167-0.357-0.214-0.524-0.095c-0.19,0.119-0.238,0.333-0.119,0.524 l2.762,4.119c0.119,0.167,0.357,0.214,0.524,0.095c0.19-0.119,0.238-0.357,0.119-0.524L44.381,49.81z M47.139,54.139 c0-0.017,0.004-0.033,0.001-0.049C47.143,54.106,47.139,54.122,47.139,54.139z"></path> <path data-color="color-2" fill="#61616b" d="M43.857,53.357c-0.095-0.167-0.31-0.214-0.5-0.119c-0.19,0.119-0.238,0.333-0.143,0.5 l1.095,1.929c0.072,0.125,0.211,0.183,0.346,0.164c0.051-0.006,0.103-0.019,0.154-0.045c0.19-0.095,0.238-0.333,0.143-0.5 L43.857,53.357z"></path> <path data-color="color-2" fill="#61616b" d="M40.69,51.857c-0.095-0.19-0.31-0.262-0.5-0.19c-0.19,0.095-0.286,0.31-0.214,0.476 l1.929,4.595c0.095,0.19,0.31,0.262,0.5,0.19c0.19-0.071,0.286-0.286,0.214-0.476L40.69,51.857z M40.07,51.781 c-0.01,0.012-0.021,0.024-0.029,0.037C40.05,51.805,40.058,51.792,40.07,51.781z M40.036,51.825c-0.038,0.06-0.059,0.13-0.059,0.199 C39.971,51.955,39.993,51.885,40.036,51.825z"></path> <path data-color="color-2" fill="#61616b" d="M40.167,57.357l-0.69-2.095c-0.071-0.19-0.286-0.286-0.476-0.214 c-0.19,0.071-0.286,0.286-0.238,0.476l0.69,2.095c0.071,0.19,0.286,0.286,0.476,0.214c0.051-0.019,0.096-0.049,0.135-0.085 c0.074-0.064,0.122-0.162,0.123-0.259C40.188,57.445,40.183,57.401,40.167,57.357z"></path> <path data-color="color-2" fill="#61616b" d="M36.667,53.167c-0.048-0.19-0.238-0.333-0.452-0.286c-0.214,0.048-0.333,0.238-0.286,0.429 l1,4.881c0.013,0.106,0.079,0.189,0.167,0.234c0.08,0.052,0.18,0.075,0.285,0.052c0.19-0.024,0.333-0.238,0.286-0.429L36.667,53.167 z"></path> <path data-color="color-2" fill="#61616b" d="M34.833,56.286c-0.024-0.19-0.214-0.333-0.429-0.31C34.19,56,34.048,56.19,34.071,56.381 l0.286,2.19c0.024,0.19,0.214,0.333,0.429,0.31c0.214-0.024,0.357-0.214,0.333-0.405L34.833,56.286z"></path> <path data-color="color-2" fill="#61616b" d="M31.952,53.31c-0.19,0-0.381,0.167-0.381,0.357v4.976c0,0.19,0.167,0.357,0.381,0.357 c0.214,0,0.381-0.167,0.381-0.357v-4.976C32.333,53.476,32.167,53.31,31.952,53.31z"></path> <path data-color="color-2" fill="#61616b" d="M29.571,55.976c-0.214-0.024-0.381,0.119-0.405,0.333L29,58.524 c0,0.19,0.143,0.357,0.357,0.381s0.381-0.143,0.405-0.333l0.167-2.214C29.929,56.167,29.786,56,29.571,55.976z"></path> <path data-color="color-2" fill="#61616b" d="M27.786,52.881c-0.214-0.024-0.405,0.095-0.452,0.286l-0.976,4.881 c-0.024,0.19,0.095,0.381,0.31,0.429c0.214,0.048,0.405-0.095,0.452-0.286l0.976-4.881C28.119,53.119,28,52.929,27.786,52.881z M26.412,58.181c-0.01-0.041-0.014-0.086-0.008-0.134C26.399,58.094,26.402,58.139,26.412,58.181z"></path> <path data-color="color-2" fill="#61616b" d="M24.929,55.024c-0.214-0.048-0.405,0.071-0.452,0.262l-0.595,2.143 c-0.071,0.19,0.071,0.405,0.262,0.452c0.143,0.036,0.3-0.023,0.389-0.135c0.003-0.003,0.004-0.007,0.007-0.011 c0.025-0.035,0.046-0.073,0.056-0.116l0.595-2.143C25.262,55.286,25.119,55.071,24.929,55.024z"></path> <path data-color="color-2" fill="#61616b" d="M23.762,51.667c-0.19-0.095-0.405,0-0.5,0.19l-1.905,4.595 c-0.071,0.19,0.024,0.405,0.214,0.476c0.214,0.071,0.429,0,0.5-0.19l1.905-4.595C24.048,51.952,23.952,51.738,23.762,51.667z"></path> <path data-color="color-2" fill="#61616b" d="M20.548,53.19c-0.19-0.095-0.405-0.024-0.5,0.167l-1,1.976 c-0.095,0.19-0.024,0.405,0.167,0.5c0.19,0.095,0.405,0.024,0.5-0.167l1-1.976C20.81,53.5,20.738,53.286,20.548,53.19z"></path> <path data-color="color-2" fill="#61616b" d="M20.233,49.987c0-0.003,0-0.006,0-0.009c-0.007-0.119-0.058-0.238-0.161-0.311 c-0.167-0.119-0.405-0.071-0.524,0.095l-2.762,4.119c-0.095,0.167-0.048,0.405,0.119,0.524c0.19,0.119,0.405,0.071,0.524-0.095 l2.762-4.119C20.226,50.129,20.235,50.058,20.233,49.987z"></path> <path data-color="color-2" fill="#61616b" d="M16.619,50.548c-0.167-0.143-0.405-0.119-0.524,0.048l-1.381,1.738 c-0.119,0.167-0.095,0.405,0.071,0.524C14.952,53,15.19,52.976,15.31,52.81l1.381-1.738C16.81,50.905,16.786,50.667,16.619,50.548z M16.595,50.571c-0.069-0.057-0.154-0.08-0.238-0.074C16.439,50.488,16.523,50.511,16.595,50.571z"></path> <path data-color="color-2" fill="#61616b" d="M13.286,47.167c-0.143-0.167-0.381-0.19-0.524-0.048l-1.69,1.429 c-0.143,0.119-0.167,0.357-0.024,0.524c0.143,0.167,0.381,0.19,0.524,0.048l1.69-1.429C13.405,47.571,13.429,47.333,13.286,47.167z"></path> <path data-color="color-2" fill="#61616b" d="M14.238,43.762c-0.119-0.19-0.357-0.238-0.524-0.119l-4.143,2.762 c-0.167,0.119-0.214,0.357-0.095,0.524c0.119,0.19,0.357,0.238,0.524,0.119l4.143-2.762C14.31,44.167,14.357,43.929,14.238,43.762z M13.856,43.621c-0.042,0.007-0.082,0.022-0.118,0.045C13.775,43.642,13.815,43.628,13.856,43.621z"></path> <path data-color="color-2" fill="#61616b" d="M10.69,43.238c-0.095-0.167-0.333-0.238-0.5-0.143L8.262,44.19 c-0.126,0.072-0.183,0.211-0.163,0.357c0.005,0.049,0.019,0.098,0.044,0.143c0.072,0.125,0.21,0.197,0.346,0.184 c0.054-0.002,0.107-0.014,0.154-0.041l1.929-1.095C10.738,43.643,10.786,43.429,10.69,43.238z"></path> <path data-color="color-2" fill="#61616b" d="M12.286,40.071c-0.071-0.19-0.286-0.286-0.476-0.214l-4.595,1.905 c-0.144,0.072-0.219,0.211-0.217,0.357c0,0.046,0.009,0.095,0.027,0.143c0.071,0.19,0.286,0.286,0.476,0.214l4.595-1.905 C12.286,40.476,12.357,40.262,12.286,40.071z"></path> <path data-color="color-2" fill="#61616b" d="M8.929,38.881c-0.071-0.19-0.286-0.286-0.476-0.238l-2.095,0.69 c-0.214,0.071-0.31,0.286-0.238,0.476c0.055,0.146,0.194,0.25,0.342,0.258c0.045,0.004,0.091-0.001,0.134-0.019l2.095-0.69 C8.905,39.286,9,39.071,8.929,38.881z M6.357,39.381l2.095-0.69c0.011-0.003,0.022-0.001,0.032-0.003 c-0.003,0.001-0.006,0.001-0.008,0.003l-2.095,0.69c-0.069,0.026-0.125,0.068-0.166,0.119C6.25,39.451,6.294,39.408,6.357,39.381z M6.179,39.556c0.006-0.015,0.016-0.027,0.025-0.04C6.195,39.529,6.186,39.542,6.179,39.556z"></path> <path data-color="color-2" fill="#61616b" d="M11.095,36.071c-0.048-0.214-0.238-0.357-0.429-0.31l-4.881,0.952 c-0.046,0.011-0.088,0.032-0.127,0.058c-0.11,0.058-0.177,0.179-0.168,0.31c0,0.028,0.002,0.056,0.009,0.084 c0.048,0.214,0.238,0.357,0.429,0.31l4.881-0.952C11,36.476,11.143,36.286,11.095,36.071z"></path> <path data-color="color-2" fill="#61616b" d="M7.714,34.667c0.19-0.024,0.333-0.214,0.31-0.429C8,34.024,7.81,33.881,7.619,33.905 l-2.19,0.262c-0.19,0.024-0.333,0.214-0.31,0.429c0.024,0.214,0.214,0.357,0.405,0.333L7.714,34.667z"></path> <path data-color="color-2" fill="#61616b" d="M10.333,32.31c0.19,0,0.357-0.167,0.357-0.381c0-0.214-0.167-0.381-0.357-0.381H5.357 C5.167,31.548,5,31.714,5,31.929c0,0.214,0.167,0.381,0.357,0.381H10.333z"></path> <path data-color="color-2" fill="#61616b" d="M5.452,29.714l2.214,0.167c0.19,0,0.357-0.143,0.381-0.357c0-0.19-0.143-0.381-0.333-0.405 L5.5,28.952c-0.19,0-0.357,0.143-0.381,0.357C5.095,29.524,5.262,29.69,5.452,29.714z M5.143,29.31 c-0.003,0.021-0.003,0.042-0.001,0.063C5.14,29.352,5.14,29.331,5.143,29.31z"></path> <path data-color="color-2" fill="#61616b" d="M5.81,27.119l4.881,0.976c0.19,0.024,0.381-0.095,0.429-0.31 c0.024-0.214-0.095-0.405-0.286-0.452l-4.881-0.976c-0.19-0.024-0.381,0.095-0.429,0.31C5.476,26.881,5.619,27.071,5.81,27.119z"></path> <path data-color="color-2" fill="#61616b" d="M6.254,24.532c0.003,0.003,0.007,0.004,0.011,0.007c0.035,0.025,0.073,0.046,0.116,0.056 l2.143,0.595c0.19,0.071,0.405-0.071,0.452-0.262c0.048-0.214-0.071-0.405-0.262-0.452l-2.143-0.595 c-0.19-0.071-0.405,0.071-0.452,0.262C6.083,24.286,6.142,24.443,6.254,24.532z"></path> <path data-color="color-2" fill="#61616b" d="M7.262,22.119l4.595,1.905c0.19,0.071,0.405-0.024,0.476-0.214c0.071-0.19,0-0.405-0.19-0.5 l-4.595-1.905c-0.19-0.071-0.405,0.024-0.476,0.214c-0.018,0.043-0.025,0.089-0.023,0.135C7.039,21.918,7.112,22.063,7.262,22.119z M12.073,23.988c-0.019,0.006-0.039,0.01-0.059,0.011C12.034,23.997,12.053,23.992,12.073,23.988z M11.953,23.996 c-0.008-0.001-0.015-0.003-0.023-0.005C11.938,23.993,11.945,23.995,11.953,23.996z"></path> <path data-color="color-2" fill="#61616b" d="M8.31,19.762l1.976,1c0.19,0.095,0.405,0.024,0.5-0.167c0.095-0.19,0.024-0.429-0.167-0.5 l-1.976-1c-0.19-0.095-0.405-0.024-0.5,0.167C8.048,19.452,8.119,19.667,8.31,19.762z"></path> <path data-color="color-2" fill="#61616b" d="M9.643,17.5l4.119,2.762c0.167,0.095,0.405,0.048,0.524-0.119 c0.119-0.167,0.095-0.405-0.095-0.524l-4.119-2.762c-0.167-0.095-0.405-0.048-0.524,0.119C9.429,17.167,9.476,17.381,9.643,17.5z"></path> <path data-color="color-2" fill="#61616b" d="M12.881,16.762c0.167,0.119,0.405,0.095,0.524-0.071c0.119-0.167,0.095-0.405-0.071-0.524 l-1.738-1.357c-0.167-0.119-0.405-0.095-0.524,0.071c-0.119,0.167-0.095,0.405,0.071,0.524L12.881,16.762z M11.119,14.905 c-0.057,0.069-0.08,0.154-0.074,0.238C11.036,15.061,11.059,14.977,11.119,14.905z"></path> <path data-color="color-2" fill="#61616b" d="M16.405,16.929c0.143,0.143,0.381,0.143,0.524,0c0.167-0.143,0.167-0.381,0-0.524l-3.524-3.5 c-0.143-0.143-0.381-0.143-0.524,0c-0.143,0.143-0.143,0.381,0,0.524L16.405,16.929z"></path> <path data-color="color-2" fill="#61616b" d="M16.214,13.333c0.143,0.143,0.357,0.167,0.524,0.024c0.167-0.119,0.167-0.357,0.048-0.524 l-1.452-1.667C15.19,11.024,14.976,11,14.81,11.143c-0.167,0.143-0.19,0.381-0.048,0.524L16.214,13.333z M15.073,11.105 c-0.084-0.001-0.17,0.027-0.24,0.085C14.906,11.13,14.991,11.101,15.073,11.105z"></path> <path data-color="color-2" fill="#61616b" d="M19.619,14.19c0.119,0.167,0.357,0.214,0.524,0.095c0.19-0.119,0.238-0.333,0.119-0.524 L17.5,9.643c-0.119-0.167-0.357-0.214-0.524-0.095c-0.19,0.119-0.238,0.357-0.119,0.524L19.619,14.19z"></path> <path data-color="color-2" fill="#61616b" d="M19.69,8.333C19.619,8.208,19.48,8.15,19.344,8.17c-0.051,0.006-0.103,0.019-0.154,0.045 c-0.19,0.095-0.238,0.333-0.143,0.5l1.095,1.929c0.095,0.167,0.31,0.214,0.5,0.119c0.19-0.119,0.238-0.333,0.143-0.5L19.69,8.333z"></path> <path data-color="color-2" fill="#61616b" d="M23.31,12.143c0.095,0.19,0.31,0.262,0.5,0.19c0.19-0.095,0.286-0.31,0.214-0.476 l-1.929-4.595C22,7.071,21.786,7,21.595,7.071c-0.19,0.071-0.286,0.286-0.214,0.476L23.31,12.143z M23.93,12.219 c0.01-0.012,0.021-0.024,0.029-0.037C23.95,12.195,23.942,12.208,23.93,12.219z M23.964,12.175c0.038-0.06,0.059-0.13,0.059-0.199 C24.029,12.045,24.007,12.115,23.964,12.175z"></path> <path data-color="color-2" fill="#61616b" d="M24.548,6.381c-0.071-0.19-0.286-0.286-0.476-0.214c-0.051,0.019-0.096,0.049-0.135,0.085 c-0.074,0.064-0.122,0.162-0.123,0.259c-0.002,0.044,0.003,0.089,0.019,0.132l0.69,2.095C24.595,8.929,24.81,9.024,25,8.952 c0.19-0.071,0.286-0.286,0.238-0.476L24.548,6.381z"></path> <path data-color="color-2" fill="#61616b" d="M27.786,11.119c0.214-0.048,0.333-0.238,0.286-0.429l-1-4.881 c-0.013-0.106-0.079-0.189-0.167-0.234c-0.08-0.052-0.18-0.075-0.285-0.052c-0.19,0.024-0.333,0.238-0.286,0.429l1,4.881 C27.381,11.024,27.571,11.167,27.786,11.119z"></path> <path data-color="color-2" fill="#61616b" d="M29.643,5.429c-0.024-0.19-0.214-0.333-0.429-0.31C29,5.143,28.857,5.333,28.881,5.524 l0.286,2.19c0.024,0.19,0.214,0.333,0.429,0.31C29.81,8,29.952,7.81,29.929,7.619L29.643,5.429z"></path> <polygon fill="#61616b" points="51.552,12.313 28.596,28.619 12.448,51.687 35.404,35.38 "></polygon></g></svg>