<svg xmlns="http://www.w3.org/2000/svg" height="64" width="64" viewBox="0 0 64 64"><title>browser ie 2</title><g fill="#61616b" class="nc-icon-wrapper"><path fill="#61616b" d="M59.689,14.86c5.736-14.885-5.406-13.844-5.406-13.844c-7.149,0-16.085,6.51-16.085,6.51 s-10.659-2.872-21.319,3.574C5.263,18.505,5.646,31.653,5.646,31.653c9.447-13.532,22.595-19.021,22.595-19.021v0.894 c-19.404,13.269-24,32.68-25.148,36.637C1.943,54.121,2.709,63,10.879,63c8.17,0,16.468-6.581,16.468-6.581s1.787,0.383,6.638,0.383 c20.425,0,25.276-18.063,25.276-18.063H41.134c0,0-1.277,5.935-7.787,5.935c-8.936,0-8.425-9.319-8.425-9.319h34.595 C61.176,11.356,40.241,7.909,40.241,7.909s7.398-5.234,13.787-5.234c10.125,0,5.338,11.861,5.338,11.861L59.689,14.86z M26.334,56.153c0,0-12.468,7.567-18.065,2.324c-2.998-5.243,1.874-12.668,1.874-12.668S14.266,53.455,26.334,56.153z M41.331,27.188H24.878c0,0-0.208-8.018,8.435-8.018C41.659,19.17,41.331,27.188,41.331,27.188z"></path></g></svg>