<svg xmlns="http://www.w3.org/2000/svg" height="64" width="64" viewBox="0 0 64 64"><title>browser firefox 2</title><g fill="#61616b" class="nc-icon-wrapper"><path d="M58.941,22.123c-1.263-3.039-3.822-6.321-5.832-7.358a30.161,30.161,0,0,1,2.944,8.823s0,.017.006.049c-3.288-8.194-8.862-11.5-13.414-18.692-.23-.363-.461-.728-.685-1.112-.114-.2-.221-.4-.32-.6a5.315,5.315,0,0,1-.434-1.149A.075.075,0,0,0,41.14,2a.1.1,0,0,0-.054,0l-.015.008c-.006,0-.014.008-.021.011l.012-.016a21.245,21.245,0,0,0-9.833,14.634,15.475,15.475,0,0,0-5.761,1.47.744.744,0,0,0-.368.923.73.73,0,0,0,.929.451c.021-.007.042-.016.062-.025a14.047,14.047,0,0,1,5.018-1.309l.17-.013c.239-.014.478-.023.718-.025a14.61,14.61,0,0,1,4.172.578c.079.023.157.05.236.074q.338.1.67.223.243.09.483.189c.13.053.259.105.387.161q.3.133.593.279c.09.045.18.089.268.136q.287.15.566.313c.12.069.239.141.357.214a14.884,14.884,0,0,1,5.084,5.26,10.033,10.033,0,0,0-7.01-1.7c10.457,5.228,7.65,23.229-6.84,22.55a12.931,12.931,0,0,1-3.783-.73q-.432-.162-.854-.349c-.164-.075-.328-.15-.49-.234a12.276,12.276,0,0,1-6.848-9.514s1.342-5,9.609-5c.894,0,3.449-2.493,3.5-3.217-.011-.236-5.071-2.249-7.043-4.192-1.054-1.039-1.555-1.539-2-1.915a8.479,8.479,0,0,0-.753-.568,13.468,13.468,0,0,1-.082-7.1,21.546,21.546,0,0,0-7,5.407h-.013c-1.153-1.46-1.071-6.275-1-7.28a5.213,5.213,0,0,0-.971.514,21.2,21.2,0,0,0-2.841,2.434A25.46,25.46,0,0,0,7.674,17.9v0a24.554,24.554,0,0,0-3.9,8.807c-.007.032-.277,1.217-.474,2.68q-.049.341-.093.683c-.067.44-.12.919-.172,1.666,0,.028,0,.057,0,.086-.022.322-.041.644-.059.967,0,.05,0,.1,0,.148A29.074,29.074,0,0,0,60.7,37.851c.049-.372.088-.746.132-1.122a29.874,29.874,0,0,0-1.886-14.606Z" fill="#61616b"></path></g></svg>