<svg xmlns="http://www.w3.org/2000/svg" height="32" width="32" viewBox="0 0 32 32"><title>browser opera 4</title><g fill="#61616b" class="nc-icon-wrapper"><path fill="#61616b" d="M32,16L32,16L32,16c0,4.74-2.061,8.997-5.336,11.927c-4.104,2-7.929,0.6-9.195-0.273 C21.5,26.769,24.546,21.895,24.546,16S21.5,5.231,17.469,4.346c1.266-0.873,5.091-2.273,9.195-0.273C29.938,7.003,32,11.26,32,16 L32,16L32,16z"></path> <path fill="#61616b" d="M10.734,6.984c-1.769,2.088-2.915,5.175-2.993,8.64c0,0.009,0,0.745,0,0.754 c0.078,3.464,1.224,6.552,2.993,8.64c2.295,2.981,5.707,4.871,9.518,4.871c2.344,0,4.536-0.715,6.412-1.959 C23.832,30.46,20.096,32,16,32c-0.255,0-0.509-0.007-0.762-0.018C6.755,31.584,0,24.581,0,16C0,7.163,7.164,0,16,0 c0.02,0,0.04,0.001,0.06,0.001c4.073,0.015,7.787,1.552,10.603,4.072c-1.875-1.244-4.069-1.96-6.413-1.96 C16.441,2.113,13.029,4.003,10.734,6.984z"></path></g></svg>