<svg xmlns="http://www.w3.org/2000/svg" height="32" width="32" viewBox="0 0 32 32"><title>browser edge 4</title><g fill="#61616b" class="nc-icon-wrapper"><path d="M8.339,7.046a12.264,12.264,0,0,1,5.385,1.293,9.21,9.21,0,0,1,4.013,3.807,6.268,6.268,0,0,1,.326,5.663v0a1.748,1.748,0,0,0-.606,1.292,2.059,2.059,0,0,0,.982,1.669c1.84,1.278,4.886,1.217,5.441,1.2a7.978,7.978,0,0,0,4.048-1.115A8.214,8.214,0,0,0,31.986,13.8a11.188,11.188,0,0,0-1.371-5.481l-.066-.13C27.966,3.139,22.388,0,15.993,0h0A16.018,16.018,0,0,0,1.452,9.3,11.391,11.391,0,0,1,8.339,7.046Z" fill="#61616b"></path><path d="M10.781,29.192a10.455,10.455,0,0,1,2.288-14.6,9.364,9.364,0,0,1,2.995-1.33c-.02-.038-.035-.078-.057-.116a7.506,7.506,0,0,0-3.213-3.037A10.358,10.358,0,0,0,8.339,9.046c-4.232,0-7.761,2.6-8.286,5.939-.014.272-.04.541-.04.815a16.435,16.435,0,0,0,1.513,6.983,15.97,15.97,0,0,0,11.953,9A10.207,10.207,0,0,1,10.781,29.192Z" fill="#61616b" data-color="color-2"></path><path d="M29.079,22.487a1.454,1.454,0,0,0-1.477-.055,10.094,10.094,0,0,1-1.122.5,10.92,10.92,0,0,1-3.839.693h-.015c-4.735,0-8.651-2.906-9.275-6.653A8.439,8.439,0,0,0,12.4,28.022a8.287,8.287,0,0,0,2.338,2.211l.059.035a7.828,7.828,0,0,0,6.286.882,16.33,16.33,0,0,0,8.446-6.634,1.468,1.468,0,0,0-.453-2.029Z" fill="#61616b"></path></g></svg>