<svg xmlns="http://www.w3.org/2000/svg" height="64" width="64" viewBox="0 0 64 64"><title>browser opera 2</title><g fill="#61616b" class="nc-icon-wrapper"><path data-color="color-2" fill="#61616b" d="M63,32L63,32L63,32c0,9.183-3.994,17.433-10.338,23.109 c-7.951,3.874-15.362,1.162-17.815-0.53C42.657,52.865,48.558,43.422,48.558,32S42.657,11.135,34.846,9.421 c2.453-1.692,9.864-4.404,17.815-0.53C59.006,14.567,63,22.817,63,32L63,32L63,32z"></path> <path fill="#61616b" d="M21.796,14.531c-3.427,4.046-5.647,10.027-5.798,16.739c0,0.017,0,1.443,0,1.46 c0.151,6.712,2.371,12.694,5.798,16.74c4.447,5.775,11.058,9.437,18.44,9.437c4.541,0,8.789-1.386,12.422-3.796 C47.175,60.016,39.937,63,32,63c-0.495,0-0.987-0.013-1.476-0.036C14.089,62.193,1,48.625,1,32C1,14.879,14.879,1,32,1 c0.039,0,0.078,0.001,0.117,0.001c7.892,0.029,15.087,3.007,20.544,7.89c-3.634-2.411-7.883-3.798-12.425-3.798 C32.855,5.094,26.244,8.755,21.796,14.531z"></path></g></svg>