<svg xmlns="http://www.w3.org/2000/svg" height="64" width="64" viewBox="0 0 64 64"><title>browser edge 2</title><g fill="#61616b" class="nc-icon-wrapper"><path d="M19.091,15.486a22.723,22.723,0,0,1,9.975,2.395,17.379,17.379,0,0,1,7.387,7,15.534,15.534,0,0,1,1.776,6.775,6.511,6.511,0,0,1-1.515,4.43l-.083.081a2.449,2.449,0,0,0-.883,1.824,3.075,3.075,0,0,0,1.5,2.459C40.628,42.8,46.6,42.622,47.23,42.6a14.475,14.475,0,0,0,7.357-2.029A14.948,14.948,0,0,0,61.974,27.74a20.742,20.742,0,0,0-2.551-10.162L59.3,17.33C54.463,7.874,44,2,31.985,2h0a29.928,29.928,0,0,0-21.123,8.688,29.592,29.592,0,0,0-7.283,11.56A20.365,20.365,0,0,1,19.091,15.486Z" fill="#61616b"></path><path d="M27.354,60.393l-.064-.037a18.813,18.813,0,0,1-5.436-5.1,19.278,19.278,0,0,1,4.212-26.929c.833-.608,3.267-2.575,5.926-2.567a6.273,6.273,0,0,1,3.105.857c-.114-.248-.236-.494-.374-.732a15.409,15.409,0,0,0-6.586-6.231,21,21,0,0,0-9.046-2.166c-9.081,0-16.569,5.931-17.047,13.333-.007.265-.02.528-.02.793A30.878,30.878,0,0,0,4.861,44.719,29.947,29.947,0,0,0,30.484,61.931,18.017,18.017,0,0,1,27.354,60.393Z" fill="#61616b" data-color="color-2"></path><path d="M56.787,45.331a1.892,1.892,0,0,0-1.925-.068,20.261,20.261,0,0,1-2.273,1.015,21.983,21.983,0,0,1-7.733,1.4H44.81c-10.5,0-19.05-7.1-19.05-15.82a6,6,0,0,1,.058-.749,17.27,17.27,0,0,0-2.342,22.975A16.837,16.837,0,0,0,28.3,58.627l.07.041a16.059,16.059,0,0,0,13.117,1.756A30.618,30.618,0,0,0,57.376,47.961,1.909,1.909,0,0,0,56.787,45.331Z" fill="#61616b"></path></g></svg>