<svg xmlns="http://www.w3.org/2000/svg" height="24" width="24" viewBox="0 0 24 24"><title>browser firefox</title><g fill="#61616b" class="nc-icon-wrapper"><path d="M22.776,8.049a6.518,6.518,0,0,0-2.332-2.943,12.074,12.074,0,0,1,1.177,3.529l0,.02c-1.315-3.278-3.544-4.6-5.365-7.477-.092-.145-.184-.291-.274-.445C15.938.654,15.9.574,15.856.492a2.106,2.106,0,0,1-.174-.459A.029.029,0,0,0,15.656,0a.028.028,0,0,0-.022,0l-.006,0-.008,0L15.625,0a8.494,8.494,0,0,0-3.933,5.853,6.21,6.21,0,0,0-2.3.588.3.3,0,0,0-.147.37.292.292,0,0,0,.372.18l.025-.01a5.616,5.616,0,0,1,2.007-.524l.068,0c.1,0,.191-.009.287-.01a5.859,5.859,0,0,1,1.669.231l.094.03c.09.028.179.057.268.089.065.024.129.05.193.076l.155.064c.08.036.159.073.237.112l.108.054c.076.04.151.082.226.125l.143.086a5.947,5.947,0,0,1,2.033,2.1,4.018,4.018,0,0,0-2.8-.681,4.811,4.811,0,0,1-2.736,9.02,5.144,5.144,0,0,1-1.513-.292c-.115-.043-.229-.09-.341-.139-.066-.03-.132-.061-.2-.094a4.91,4.91,0,0,1-2.74-3.8s.537-2,3.844-2a2.806,2.806,0,0,0,1.4-1.286A18.4,18.4,0,0,1,9.22,8.461c-.422-.416-.622-.616-.8-.766a3.715,3.715,0,0,0-.3-.228,5.385,5.385,0,0,1-.033-2.842,8.608,8.608,0,0,0-2.8,2.163H5.282c-.461-.583-.428-2.51-.4-2.912a2.107,2.107,0,0,0-.388.206,8.368,8.368,0,0,0-1.136.974,10.09,10.09,0,0,0-1.086,1.3v0A9.827,9.827,0,0,0,.709,9.881c0,.013-.11.486-.189,1.072-.014.091-.026.182-.038.273-.027.176-.048.368-.068.666l0,.035c-.008.129-.016.258-.023.387,0,.019,0,.039,0,.059A11.629,11.629,0,0,0,23.478,14.34c.02-.148.035-.3.053-.448a11.953,11.953,0,0,0-.755-5.843Z" fill="#61616b"></path></g></svg>