<svg xmlns="http://www.w3.org/2000/svg" height="32" width="32" viewBox="0 0 32 32"><title>browser firefox 4</title><g fill="#61616b" class="nc-icon-wrapper"><path d="M30.369,10.732a8.689,8.689,0,0,0-3.111-3.924,16.1,16.1,0,0,1,1.57,4.706l0,.026c-1.753-4.37-4.726-6.133-7.154-9.969-.122-.194-.245-.389-.365-.594-.061-.1-.118-.211-.171-.32A2.872,2.872,0,0,1,20.91.044.041.041,0,0,0,20.875,0a.048.048,0,0,0-.029,0l-.008,0-.011.006L20.833,0a11.326,11.326,0,0,0-5.244,7.8,8.28,8.28,0,0,0-3.073.784.4.4,0,0,0-.2.493.388.388,0,0,0,.495.24l.034-.013a7.472,7.472,0,0,1,2.676-.7l.091-.007c.127-.008.255-.012.382-.013a7.76,7.76,0,0,1,2.226.308c.042.012.083.026.125.04.12.036.239.076.358.118.086.032.172.066.257.1.069.028.139.056.207.086.106.047.212.1.316.149.048.024.1.047.143.072.1.053.2.109.3.167.064.037.127.075.19.115a7.93,7.93,0,0,1,2.712,2.805,5.355,5.355,0,0,0-3.739-.908,6.414,6.414,0,0,1-3.648,12.026,6.888,6.888,0,0,1-2.018-.389q-.229-.085-.455-.186c-.087-.04-.175-.08-.261-.125A6.547,6.547,0,0,1,9.06,17.9s.716-2.666,5.125-2.666a3.741,3.741,0,0,0,1.865-1.716c-.006-.126-2.7-1.2-3.757-2.236-.562-.554-.829-.821-1.065-1.021a4.545,4.545,0,0,0-.4-.3,7.19,7.19,0,0,1-.043-3.79A11.5,11.5,0,0,0,7.05,9.051H7.043c-.614-.778-.571-3.346-.536-3.883a2.776,2.776,0,0,0-.518.275,11.285,11.285,0,0,0-1.515,1.3A13.586,13.586,0,0,0,3.026,8.477v0a13.083,13.083,0,0,0-2.08,4.7c0,.017-.148.648-.253,1.428-.018.122-.035.243-.05.365-.036.235-.064.49-.091.888l0,.046c-.012.172-.022.344-.031.516,0,.027,0,.053,0,.079A15.506,15.506,0,0,0,31.3,19.12c.026-.2.047-.4.07-.6a15.934,15.934,0,0,0-1-7.79Z" fill="#61616b"></path></g></svg>