<svg xmlns="http://www.w3.org/2000/svg" height="32" width="32" viewBox="0 0 32 32"><title>brush 6</title><g fill="#61616b" class="nc-icon-wrapper"><path fill="#61616b" d="M28.964,3.036c-1.381-1.381-3.619-1.381-5,0L9.716,17.284c1.194,0.309,2.29,0.923,3.183,1.817 c0.912,0.912,1.513,2.018,1.815,3.185l14.25-14.25C30.345,6.655,30.345,4.416,28.964,3.036z"></path> <path data-color="color-2" fill="#61616b" d="M11.485,20.515c-1.949-1.949-5.122-1.95-7.071,0c-1.731,1.73-2.311,7.297-2.41,8.396 c-0.026,0.295,0.08,0.587,0.289,0.796C2.481,29.896,2.736,30,3,30c0.03,0,0.06-0.001,0.089-0.004 c1.099-0.099,6.666-0.679,8.396-2.41C13.435,25.636,13.435,22.464,11.485,20.515z"></path></g></svg>