<svg xmlns="http://www.w3.org/2000/svg" height="12" width="12" viewBox="0 0 12 12"><title>brush 2</title><g fill="#61616b" class="nc-icon-wrapper"><path d="M11.487.513a1.748,1.748,0,0,0-2.474,0L5.256,4.27a4.407,4.407,0,0,1,1.431,1,4.378,4.378,0,0,1,.979,1.544l3.821-3.822A1.748,1.748,0,0,0,11.487.513Z" fill="#61616b"></path><path d="M1.4,6.3C.2,7.5,0,12,0,12s4.4-.4,5.6-1.5a2.988,2.988,0,0,0,0-4.2,2.9,2.9,0,0,0-4.1-.1C1.466,6.233,1.433,6.266,1.4,6.3Z" fill="#61616b" data-color="color-2"></path></g></svg>