<svg xmlns="http://www.w3.org/2000/svg" height="64" width="64" viewBox="0 0 64 64"><title>brush 4</title><g fill="#61616b" class="nc-icon-wrapper"><path data-color="color-2" fill="#61616b" d="M59.536,4.464c-1.953-1.953-5.118-1.953-7.071,0L17.595,35.121 c2.855,0.367,5.498,1.646,7.568,3.715s3.348,4.712,3.715,7.568l30.657-34.869C61.488,9.583,61.488,6.417,59.536,4.464z"></path> <path fill="#61616b" d="M23.749,40.251C21.653,38.155,18.866,37,15.901,37s-5.752,1.155-7.848,3.251 c-4.167,4.166-5.018,19.063-5.052,19.695c-0.015,0.284,0.091,0.561,0.292,0.761C3.481,60.895,3.735,61,4,61 c0.018,0,0.036,0,0.054-0.001c0.632-0.034,15.529-0.885,19.695-5.052C25.845,53.851,27,51.063,27,48.099 S25.845,42.347,23.749,40.251z"></path></g></svg>