<svg xmlns="http://www.w3.org/2000/svg" height="48" width="48" viewBox="0 0 48 48"><title>brush 5</title><g fill="#61616b" class="nc-icon-wrapper"><path data-color="color-2" fill="#61616b" d="M10.568,30c-1.985,0-3.851,0.773-5.255,2.177c-2.697,2.697-3.257,11.688-3.312,12.704 c-0.016,0.301,0.096,0.595,0.309,0.808c0.2,0.2,0.47,0.311,0.751,0.311C3.081,46,3.1,46,3.119,45.998 c1.016-0.055,10.007-0.615,12.704-3.312C17.227,41.283,18,39.417,18,37.432c0-1.985-0.773-3.851-2.177-5.255 C14.42,30.773,12.554,30,10.568,30z"></path> <path fill="#61616b" d="M45.121,2.879c-1.172-1.172-3.071-1.172-4.243,0L14.464,26.464c-0.561,0.561-0.942,1.228-1.181,1.932 c1.478,0.442,2.833,1.245,3.954,2.366c1.121,1.121,1.924,2.476,2.366,3.953c0.704-0.239,1.37-0.619,1.932-1.181L45.121,7.121 C46.293,5.95,46.293,4.05,45.121,2.879z"></path></g></svg>