<svg xmlns="http://www.w3.org/2000/svg" height="16" width="16" viewBox="0 0 16 16"><title>bullet list 70 2</title><g fill="#61616b" class="nc-icon-wrapper"><path fill="#61616b" d="M15,0H7C6.4,0,6,0.4,6,1v2c0,0.6,0.4,1,1,1h8c0.6,0,1-0.4,1-1V1C16,0.4,15.6,0,15,0z"></path> <path fill="#61616b" d="M15,6H7C6.4,6,6,6.4,6,7v2c0,0.6,0.4,1,1,1h8c0.6,0,1-0.4,1-1V7C16,6.4,15.6,6,15,6z"></path> <path fill="#61616b" d="M15,12H7c-0.6,0-1,0.4-1,1v2c0,0.6,0.4,1,1,1h8c0.6,0,1-0.4,1-1v-2C16,12.4,15.6,12,15,12z"></path> <path data-color="color-2" fill="#61616b" d="M3,0H1C0.4,0,0,0.4,0,1v2c0,0.6,0.4,1,1,1h2c0.6,0,1-0.4,1-1V1C4,0.4,3.6,0,3,0z"></path> <path data-color="color-2" fill="#61616b" d="M3,6H1C0.4,6,0,6.4,0,7v2c0,0.6,0.4,1,1,1h2c0.6,0,1-0.4,1-1V7C4,6.4,3.6,6,3,6z"></path> <path data-color="color-2" fill="#61616b" d="M3,12H1c-0.6,0-1,0.4-1,1v2c0,0.6,0.4,1,1,1h2c0.6,0,1-0.4,1-1v-2C4,12.4,3.6,12,3,12z"></path></g></svg>