<svg xmlns="http://www.w3.org/2000/svg" height="32" width="32" viewBox="0 0 32 32"><title>bullet list 70 5</title><g fill="#61616b" class="nc-icon-wrapper"><path data-color="color-2" fill="#61616b" d="M30,3H13c-0.6,0-1,0.4-1,1v2c0,0.6,0.4,1,1,1h17c0.6,0,1-0.4,1-1V4C31,3.4,30.6,3,30,3z"></path> <path data-color="color-2" fill="#61616b" d="M30,14H13c-0.6,0-1,0.4-1,1v2c0,0.6,0.4,1,1,1h17c0.6,0,1-0.4,1-1v-2C31,14.4,30.6,14,30,14z "></path> <path data-color="color-2" fill="#61616b" d="M30,25H13c-0.6,0-1,0.4-1,1v2c0,0.6,0.4,1,1,1h17c0.6,0,1-0.4,1-1v-2C31,25.4,30.6,25,30,25z "></path> <path fill="#61616b" d="M8,1H2C1.4,1,1,1.4,1,2v6c0,0.6,0.4,1,1,1h6c0.6,0,1-0.4,1-1V2C9,1.4,8.6,1,8,1z"></path> <path fill="#61616b" d="M8,12H2c-0.6,0-1,0.4-1,1v6c0,0.6,0.4,1,1,1h6c0.6,0,1-0.4,1-1v-6C9,12.4,8.6,12,8,12z"></path> <path fill="#61616b" d="M8,23H2c-0.6,0-1,0.4-1,1v6c0,0.6,0.4,1,1,1h6c0.6,0,1-0.4,1-1v-6C9,23.4,8.6,23,8,23z"></path></g></svg>