<svg xmlns="http://www.w3.org/2000/svg" height="16" width="16" viewBox="0 0 16 16"><title>bullet list 68 2</title><g fill="#61616b" class="nc-icon-wrapper"><circle data-color="color-2" fill="#61616b" cx="2" cy="2" r="2"></circle> <circle data-color="color-2" fill="#61616b" cx="2" cy="8" r="2"></circle> <circle data-color="color-2" fill="#61616b" cx="2" cy="14" r="2"></circle> <path fill="#61616b" d="M15,0H7C6.4,0,6,0.4,6,1v2c0,0.6,0.4,1,1,1h8c0.6,0,1-0.4,1-1V1C16,0.4,15.6,0,15,0z"></path> <path fill="#61616b" d="M15,6H7C6.4,6,6,6.4,6,7v2c0,0.6,0.4,1,1,1h8c0.6,0,1-0.4,1-1V7C16,6.4,15.6,6,15,6z"></path> <path fill="#61616b" d="M15,12H7c-0.6,0-1,0.4-1,1v2c0,0.6,0.4,1,1,1h8c0.6,0,1-0.4,1-1v-2C16,12.4,15.6,12,15,12z"></path></g></svg>