<svg xmlns="http://www.w3.org/2000/svg" height="48" width="48" viewBox="0 0 48 48"><title>bullet list 69 4</title><g fill="#61616b" class="nc-icon-wrapper"><path data-color="color-2" fill="#61616b" d="M44,7H20c-0.6,0-1,0.4-1,1s0.4,1,1,1h24c0.6,0,1-0.4,1-1S44.6,7,44,7z"></path> <path data-color="color-2" fill="#61616b" d="M44,23H20c-0.6,0-1,0.4-1,1s0.4,1,1,1h24c0.6,0,1-0.4,1-1S44.6,23,44,23z"></path> <path data-color="color-2" fill="#61616b" d="M44,39H20c-0.6,0-1,0.4-1,1s0.4,1,1,1h24c0.6,0,1-0.4,1-1S44.6,39,44,39z"></path> <path fill="#61616b" d="M12,3H4C3.4,3,3,3.4,3,4v8c0,0.6,0.4,1,1,1h8c0.6,0,1-0.4,1-1V4C13,3.4,12.6,3,12,3z"></path> <path fill="#61616b" d="M12,19H4c-0.6,0-1,0.4-1,1v8c0,0.6,0.4,1,1,1h8c0.6,0,1-0.4,1-1v-8C13,19.4,12.6,19,12,19z"></path> <path fill="#61616b" d="M12,35H4c-0.6,0-1,0.4-1,1v8c0,0.6,0.4,1,1,1h8c0.6,0,1-0.4,1-1v-8C13,35.4,12.6,35,12,35z"></path></g></svg>