<svg xmlns="http://www.w3.org/2000/svg" height="32" width="32" viewBox="0 0 32 32"><title>bullet list 67 5</title><g fill="#61616b" class="nc-icon-wrapper"><path fill="#61616b" d="M5,1C2.8,1,1,2.8,1,5s1.8,4,4,4s4-1.8,4-4S7.2,1,5,1z"></path> <path fill="#61616b" d="M5,12c-2.2,0-4,1.8-4,4s1.8,4,4,4s4-1.8,4-4S7.2,12,5,12z"></path> <path fill="#61616b" d="M5,23c-2.2,0-4,1.8-4,4s1.8,4,4,4s4-1.8,4-4S7.2,23,5,23z"></path> <path data-color="color-2" fill="#61616b" d="M30,4H13c-0.6,0-1,0.4-1,1s0.4,1,1,1h17c0.6,0,1-0.4,1-1S30.6,4,30,4z"></path> <path data-color="color-2" fill="#61616b" d="M30,15H13c-0.6,0-1,0.4-1,1s0.4,1,1,1h17c0.6,0,1-0.4,1-1S30.6,15,30,15z"></path> <path data-color="color-2" fill="#61616b" d="M30,26H13c-0.6,0-1,0.4-1,1s0.4,1,1,1h17c0.6,0,1-0.4,1-1S30.6,26,30,26z"></path></g></svg>