<svg xmlns="http://www.w3.org/2000/svg" height="24" width="24" viewBox="0 0 24 24"><title>bullet list 69</title><g fill="#61616b" class="nc-icon-wrapper"><path fill="#61616b" d="M6,1H2C1.447,1,1,1.447,1,2v4c0,0.553,0.447,1,1,1h4c0.553,0,1-0.447,1-1V2C7,1.447,6.553,1,6,1z"></path> <path fill="#61616b" d="M6,9H2c-0.553,0-1,0.447-1,1v4c0,0.553,0.447,1,1,1h4c0.553,0,1-0.447,1-1v-4C7,9.447,6.553,9,6,9z"></path> <path fill="#61616b" d="M6,17H2c-0.553,0-1,0.447-1,1v4c0,0.553,0.447,1,1,1h4c0.553,0,1-0.447,1-1v-4C7,17.447,6.553,17,6,17z"></path> <rect data-color="color-2" x="9" y="3" fill="#61616b" width="14" height="2"></rect> <rect data-color="color-2" x="9" y="11" fill="#61616b" width="14" height="2"></rect> <rect data-color="color-2" x="9" y="19" fill="#61616b" width="14" height="2"></rect></g></svg>