<svg xmlns="http://www.w3.org/2000/svg" height="32" width="32" viewBox="0 0 32 32"><title>bullet list 68 5</title><g fill="#61616b" class="nc-icon-wrapper"><path fill="#61616b" d="M5,1C2.8,1,1,2.8,1,5s1.8,4,4,4s4-1.8,4-4S7.2,1,5,1z"></path> <path fill="#61616b" d="M5,12c-2.2,0-4,1.8-4,4s1.8,4,4,4s4-1.8,4-4S7.2,12,5,12z"></path> <path fill="#61616b" d="M5,23c-2.2,0-4,1.8-4,4s1.8,4,4,4s4-1.8,4-4S7.2,23,5,23z"></path> <path data-color="color-2" fill="#61616b" d="M30,3H13c-0.6,0-1,0.4-1,1v2c0,0.6,0.4,1,1,1h17c0.6,0,1-0.4,1-1V4C31,3.4,30.6,3,30,3z"></path> <path data-color="color-2" fill="#61616b" d="M30,14H13c-0.6,0-1,0.4-1,1v2c0,0.6,0.4,1,1,1h17c0.6,0,1-0.4,1-1v-2C31,14.4,30.6,14,30,14z "></path> <path data-color="color-2" fill="#61616b" d="M30,25H13c-0.6,0-1,0.4-1,1v2c0,0.6,0.4,1,1,1h17c0.6,0,1-0.4,1-1v-2C31,25.4,30.6,25,30,25z "></path></g></svg>