<svg xmlns="http://www.w3.org/2000/svg" height="32" width="32" viewBox="0 0 32 32"><title>bullet list 69 5</title><g fill="#61616b" class="nc-icon-wrapper"><path data-color="color-2" fill="#61616b" d="M30,4H13c-0.6,0-1,0.4-1,1s0.4,1,1,1h17c0.6,0,1-0.4,1-1S30.6,4,30,4z"></path> <path data-color="color-2" fill="#61616b" d="M30,15H13c-0.6,0-1,0.4-1,1s0.4,1,1,1h17c0.6,0,1-0.4,1-1S30.6,15,30,15z"></path> <path data-color="color-2" fill="#61616b" d="M30,26H13c-0.6,0-1,0.4-1,1s0.4,1,1,1h17c0.6,0,1-0.4,1-1S30.6,26,30,26z"></path> <path fill="#61616b" d="M8,1H2C1.4,1,1,1.4,1,2v6c0,0.6,0.4,1,1,1h6c0.6,0,1-0.4,1-1V2C9,1.4,8.6,1,8,1z"></path> <path fill="#61616b" d="M8,12H2c-0.6,0-1,0.4-1,1v6c0,0.6,0.4,1,1,1h6c0.6,0,1-0.4,1-1v-6C9,12.4,8.6,12,8,12z"></path> <path fill="#61616b" d="M8,23H2c-0.6,0-1,0.4-1,1v6c0,0.6,0.4,1,1,1h6c0.6,0,1-0.4,1-1v-6C9,23.4,8.6,23,8,23z"></path></g></svg>