<svg xmlns="http://www.w3.org/2000/svg" height="64" width="64" viewBox="0 0 64 64"><title>bullet list 67 3</title><g fill="#61616b" class="nc-icon-wrapper"><path fill="#61616b" d="M10,3c-3.9,0-7,3.1-7,7s3.1,7,7,7s7-3.1,7-7S13.9,3,10,3z"></path> <path fill="#61616b" d="M10,25c-3.9,0-7,3.1-7,7s3.1,7,7,7s7-3.1,7-7S13.9,25,10,25z"></path> <path fill="#61616b" d="M10,47c-3.9,0-7,3.1-7,7s3.1,7,7,7s7-3.1,7-7S13.9,47,10,47z"></path> <path data-color="color-2" fill="#61616b" d="M60,9H26c-0.6,0-1,0.4-1,1s0.4,1,1,1h34c0.6,0,1-0.4,1-1S60.6,9,60,9z"></path> <path data-color="color-2" fill="#61616b" d="M60,31H26c-0.6,0-1,0.4-1,1s0.4,1,1,1h34c0.6,0,1-0.4,1-1S60.6,31,60,31z"></path> <path data-color="color-2" fill="#61616b" d="M60,53H26c-0.6,0-1,0.4-1,1s0.4,1,1,1h34c0.6,0,1-0.4,1-1S60.6,53,60,53z"></path></g></svg>