<svg xmlns="http://www.w3.org/2000/svg" height="64" width="64" viewBox="0 0 64 64"><title>button 2 3</title><g fill="#61616b" class="nc-icon-wrapper"><path data-color="color-2" fill="#61616b" d="M62,37H52v-2h9V3H3v32h11v2H2c-0.553,0-1-0.448-1-1V2c0-0.552,0.447-1,1-1h60 c0.553,0,1,0.448,1,1v34C63,36.552,62.553,37,62,37z"></path> <path fill="#61616b" d="M57.535,57.293L37.637,37.394l13.789-6.489c0.371-0.175,0.598-0.559,0.572-0.968 c-0.026-0.41-0.299-0.762-0.689-0.888l-37-12c-0.357-0.116-0.75-0.022-1.016,0.244c-0.266,0.266-0.36,0.658-0.244,1.016l12,37 c0.127,0.39,0.479,0.664,0.888,0.689C25.958,55.999,25.979,56,26,56c0.386,0,0.739-0.222,0.905-0.574l6.489-13.789l19.899,19.899 c0.391,0.391,1.024,0.391,1.414,0l2.828-2.828C57.926,58.316,57.926,57.683,57.535,57.293z"></path></g></svg>