<svg xmlns="http://www.w3.org/2000/svg" height="48" width="48" viewBox="0 0 48 48"><title>button 2 4</title><g fill="#61616b" class="nc-icon-wrapper"><path data-color="color-2" fill="#61616b" d="M46,30h-5v-2h4V3H3v25h9v2H2c-0.553,0-1-0.448-1-1V2c0-0.552,0.447-1,1-1h44 c0.553,0,1,0.448,1,1v27C47,29.552,46.553,30,46,30z"></path> <path fill="#61616b" d="M41.78,43.904L29.577,30.829l9.871-4.935c0.359-0.18,0.577-0.558,0.551-0.959 c-0.026-0.402-0.291-0.749-0.671-0.88l-26-9c-0.356-0.123-0.747-0.037-1.019,0.222c-0.271,0.259-0.374,0.647-0.268,1.007l8,27 c0.117,0.394,0.462,0.676,0.871,0.712C20.941,43.999,20.971,44,21,44c0.376,0,0.724-0.212,0.895-0.553l4.879-9.759l12.082,12.945 c0.377,0.404,1.01,0.426,1.413,0.049l1.462-1.365C42.135,44.941,42.156,44.308,41.78,43.904z"></path></g></svg>