<svg xmlns="http://www.w3.org/2000/svg" height="64" width="64" viewBox="0 0 64 64"><title>canvas 3</title><g fill="#61616b" class="nc-icon-wrapper"><path data-color="color-2" fill="#61616b" d="M47.955,61.702l-5-16c-0.165-0.527-0.727-0.818-1.253-0.656 c-0.527,0.165-0.821,0.726-0.656,1.253L43.14,53H20.86l2.094-6.702c0.165-0.527-0.129-1.088-0.656-1.253 c-0.526-0.164-1.088,0.129-1.253,0.656l-5,16c-0.165,0.527,0.129,1.088,0.656,1.253C16.801,62.985,16.901,63,17,63 c0.426,0,0.82-0.274,0.954-0.702L20.235,55h23.529l2.281,7.298C46.179,62.726,46.574,63,47,63c0.099,0,0.2-0.015,0.299-0.046 C47.825,62.79,48.119,62.229,47.955,61.702z"></path> <path data-color="color-2" fill="#61616b" d="M36,7h-8c-0.552,0-1-0.448-1-1V2c0-0.552,0.448-1,1-1h8c0.552,0,1,0.448,1,1v4 C37,6.552,36.552,7,36,7z"></path> <path fill="#61616b" d="M6,6v40c0,0.552,0.448,1,1,1h50c0.552,0,1-0.448,1-1V6c0-0.552-0.448-1-1-1H7C6.448,5,6,5.448,6,6z M56,7v27 L42.67,22.575c-0.383-0.328-0.95-0.32-1.323,0.019L31,32l4,7L18.581,26.445c-0.346-0.265-0.824-0.275-1.181-0.025L8,33V7H56z"></path> <path fill="#61616b" d="M26,23c-2.757,0-5-2.243-5-5s2.243-5,5-5s5,2.243,5,5S28.757,23,26,23z"></path></g></svg>