<svg xmlns="http://www.w3.org/2000/svg" height="32" width="32" viewBox="0 0 32 32"><title>canvas 5</title><g fill="#61616b" class="nc-icon-wrapper"><path data-color="color-2" fill="#61616b" d="M23.97,30.757l-2-8c-0.134-0.536-0.679-0.861-1.213-0.728 c-0.536,0.134-0.861,0.677-0.728,1.213L20.719,26h-9.438l0.689-2.757c0.134-0.536-0.192-1.079-0.728-1.213 c-0.534-0.133-1.079,0.192-1.213,0.728l-2,8c-0.134,0.536,0.192,1.079,0.728,1.213C8.839,31.991,8.92,32,9.001,32 c0.448,0,0.855-0.303,0.969-0.757L10.781,28h10.438l0.811,3.243C22.144,31.697,22.551,32,22.999,32c0.081,0,0.162-0.009,0.244-0.03 C23.778,31.836,24.104,31.293,23.97,30.757z"></path> <path fill="#61616b" d="M27,2h-9V1c0-0.552-0.448-1-1-1h-2c-0.552,0-1,0.448-1,1v1H5C4.448,2,4,2.448,4,3v20c0,0.552,0.448,1,1,1h22 c0.552,0,1-0.448,1-1V3C28,2.448,27.552,2,27,2z M26,22H6v-2h20V22z"></path></g></svg>