<svg xmlns="http://www.w3.org/2000/svg" height="48" width="48" viewBox="0 0 48 48"><title>canvas 4</title><g fill="#61616b" class="nc-icon-wrapper"><path data-color="color-2" fill="#61616b" d="M26,6h-4c-0.552,0-1-0.448-1-1V1c0-0.552,0.448-1,1-1h4c0.552,0,1,0.448,1,1v4 C27,5.552,26.552,6,26,6z"></path> <path data-color="color-2" fill="#61616b" d="M36.956,46.706l-4-13c-0.163-0.529-0.726-0.825-1.25-0.662 c-0.528,0.162-0.824,0.722-0.662,1.25L32.492,39H15.508l1.448-4.706c0.163-0.528-0.134-1.087-0.662-1.25 c-0.525-0.164-1.088,0.132-1.25,0.662l-4,13c-0.163,0.528,0.134,1.087,0.662,1.25C11.804,47.986,11.903,48,12,48 c0.427,0,0.823-0.276,0.955-0.707l1.943-6.314C14.934,40.983,14.964,41,15,41h18c0.036,0,0.066-0.017,0.102-0.021l1.943,6.314 C35.176,47.724,35.572,48,36,48c0.098,0,0.197-0.015,0.294-0.045C36.822,47.793,37.118,47.234,36.956,46.706z"></path> <path fill="#61616b" d="M42,4H6C5.448,4,5,4.448,5,5v29c0,0.552,0.448,1,1,1h36c0.552,0,1-0.448,1-1V5C43,4.448,42.552,4,42,4z M41,6v19l-9.347-7.477c-0.378-0.303-0.919-0.291-1.283,0.028L23,24l3,5l-11.414-8.561c-0.349-0.262-0.827-0.267-1.181-0.014L7,25V6 H41z"></path> <path fill="#61616b" d="M18,16c-1.654,0-3-1.346-3-3s1.346-3,3-3s3,1.346,3,3S19.654,16,18,16z"></path></g></svg>