<svg xmlns="http://www.w3.org/2000/svg" height="16" width="16" viewBox="0 0 16 16"><title>canvas 2</title><g fill="#61616b" class="nc-icon-wrapper"><path fill="#61616b" d="M15,0H1C0.448,0,0,0.448,0,1v9c0,0.552,0.448,1,1,1h2.882l-1.776,3.553 c-0.247,0.494-0.047,1.095,0.447,1.342C2.696,15.966,2.849,16,2.999,16c0.367,0,0.72-0.202,0.896-0.553L4.618,14h6.764l0.724,1.447 C12.281,15.798,12.634,16,13.001,16c0.15,0,0.303-0.034,0.446-0.105c0.494-0.247,0.694-0.848,0.447-1.342L12.118,11H15 c0.552,0,1-0.448,1-1V1C16,0.448,15.552,0,15,0z M5.618,12l0.5-1h3.764l0.5,1H5.618z M14,9H2V2h12V9z"></path></g></svg>