<svg xmlns="http://www.w3.org/2000/svg" height="48" width="48" viewBox="0 0 48 48"><title>clone 4</title><g fill="#61616b" class="nc-icon-wrapper"><path data-color="color-2" fill="#61616b" d="M26.172,14.414L8.292,32.293c-0.127,0.127-0.218,0.287-0.262,0.461 c-0.424,1.671-1.069,3.663-1.44,4.287C4.579,37.25,3,38.935,3,41c0,2.206,1.794,4,4,4c2.065,0,3.75-1.579,3.959-3.59 c0.624-0.371,2.615-1.016,4.287-1.44c0.175-0.044,0.334-0.135,0.461-0.262l17.879-17.879L26.172,14.414z"></path> <path fill="#61616b" d="M39.414,15.999l5.05-5.05C45.454,9.959,46,8.643,46,7.243c0-1.4-0.546-2.717-1.536-3.707 C43.474,2.545,42.157,2,40.757,2c-1.4,0-2.717,0.545-3.707,1.536L32,8.585l-3.293-3.293c-0.391-0.391-1.023-0.391-1.414,0l-3,3 c-0.391,0.391-0.391,1.023,0,1.414l14,14C38.488,23.902,38.744,24,39,24s0.512-0.098,0.707-0.293l3-3 c0.391-0.391,0.391-1.023,0-1.414L39.414,15.999z"></path></g></svg>