<svg xmlns="http://www.w3.org/2000/svg" height="32" width="32" viewBox="0 0 32 32"><title>clone 5</title><g fill="#61616b" class="nc-icon-wrapper"><path data-color="color-2" fill="#61616b" d="M6.177,24.432C5.522,25.379,4,27.722,4,29c0,1.654,1.346,3,3,3s3-1.346,3-3 c0-1.278-1.522-3.621-2.177-4.568C7.45,23.891,6.55,23.891,6.177,24.432z"></path> <path fill="#61616b" d="M18.172,7.414l-8.879,8.879c-0.14,0.14-0.235,0.317-0.273,0.511l-1,5c-0.066,0.328,0.037,0.667,0.273,0.903 C8.482,22.896,8.737,23,9,23c0.065,0,0.131-0.006,0.196-0.02l5-1c0.193-0.039,0.371-0.134,0.511-0.273l8.879-8.879L18.172,7.414z"></path> <path data-color="color-2" fill="#61616b" d="M30.414,12l-3-3l2.267-2.267c1.015-1.015,1.508-2.489,1.156-3.88 c-0.77-3.039-4.489-3.615-6.376-1.727L22,3.586l-3-3L16.586,3L28,14.414L30.414,12z"></path></g></svg>