<svg xmlns="http://www.w3.org/2000/svg" height="32" width="32" viewBox="0 0 32 32"><title>code 5</title><g fill="#61616b" class="nc-icon-wrapper"><path d="M11.499,24.5c-.322,0-.646-.103-.92-.316L1.579,17.184c-.365-.284-.579-.721-.579-1.184s.214-.9,.579-1.184L10.579,7.816c.654-.508,1.596-.392,2.105,.263,.509,.654,.391,1.596-.263,2.105l-7.478,5.816,7.478,5.816c.654,.509,.772,1.451,.263,2.105-.296,.38-.738,.579-1.185,.579Z" fill="#61616b"></path><path d="M20.501,24.5c-.447,0-.889-.199-1.185-.579-.509-.654-.391-1.596,.263-2.105l7.478-5.816-7.478-5.816c-.654-.509-.772-1.451-.263-2.105,.509-.655,1.45-.772,2.105-.263l9,7c.365,.284,.579,.721,.579,1.184s-.214,.9-.579,1.184l-9,7c-.274,.213-.598,.316-.92,.316Z" fill="#61616b" data-color="color-2"></path></g></svg>