<svg xmlns="http://www.w3.org/2000/svg" height="48" width="48" viewBox="0 0 48 48"><title>code 4</title><g fill="#61616b" class="nc-icon-wrapper"><path d="M14.562,14.75c-.69-.863-1.948-1.003-2.811-.312L1.75,22.438c-.474,.379-.75,.954-.75,1.562s.276,1.182,.75,1.562l10,8c.369,.295,.81,.438,1.248,.438,.587,0,1.168-.257,1.563-.75,.69-.863,.55-2.121-.312-2.811l-8.048-6.438,8.048-6.438c.862-.69,1.002-1.948,.312-2.811Z" fill="#61616b"></path><path d="M36.25,14.438c-.863-.691-2.121-.551-2.811,.312-.69,.863-.55,2.121,.312,2.811l8.048,6.438-8.048,6.438c-.862,.69-1.002,1.948-.312,2.811,.395,.494,.976,.75,1.563,.75,.438,0,.879-.143,1.248-.438l10-8c.474-.379,.75-.954,.75-1.562s-.276-1.182-.75-1.562l-10-8Z" fill="#61616b"></path><path d="M29.535,4.073c-1.062-.293-2.167,.328-2.462,1.392l-10,36c-.295,1.064,.328,2.167,1.392,2.462,.179,.049,.359,.073,.536,.073,.876,0,1.68-.58,1.926-1.465L30.927,6.535c.295-1.064-.328-2.167-1.392-2.462Z" fill="#61616b" data-color="color-2"></path></g></svg>