<svg xmlns="http://www.w3.org/2000/svg" height="48" width="48" viewBox="0 0 48 48"><title>code editor 3</title><g fill="#61616b" class="nc-icon-wrapper"><path data-color="color-2" fill="#61616b" d="M15,3H3C1.895,3,1,3.895,1,5v38c0,1.105,0.895,2,2,2h12V3z M6,11h4c0.553,0,1,0.447,1,1 s-0.447,1-1,1H6c-0.553,0-1-0.447-1-1S5.447,11,6,11z M6,17h4c0.553,0,1,0.447,1,1s-0.447,1-1,1H6c-0.553,0-1-0.447-1-1 S5.447,17,6,17z M6,23h4c0.553,0,1,0.447,1,1s-0.447,1-1,1H6c-0.553,0-1-0.447-1-1S5.447,23,6,23z M10,37H6c-0.553,0-1-0.447-1-1 s0.447-1,1-1h4c0.553,0,1,0.447,1,1S10.553,37,10,37z M10,31H6c-0.553,0-1-0.447-1-1s0.447-1,1-1h4c0.553,0,1,0.447,1,1 S10.553,31,10,31z"></path> <path fill="#61616b" d="M45,3H17v42h28c1.105,0,2-0.895,2-2V5C47,3.895,46.105,3,45,3z M28,17h5c0.553,0,1,0.447,1,1s-0.447,1-1,1 h-5c-0.553,0-1-0.447-1-1S27.447,17,28,17z M24,11h4c0.553,0,1,0.447,1,1s-0.447,1-1,1h-4c-0.553,0-1-0.447-1-1S23.447,11,24,11z M28,37h-4c-0.553,0-1-0.447-1-1s0.447-1,1-1h4c0.553,0,1,0.447,1,1S28.553,37,28,37z M33,31h-5c-0.553,0-1-0.447-1-1s0.447-1,1-1h5 c0.553,0,1,0.447,1,1S33.553,31,33,31z M40,25h-8c-0.553,0-1-0.447-1-1s0.447-1,1-1h8c0.553,0,1,0.447,1,1S40.553,25,40,25z"></path></g></svg>