<svg xmlns="http://www.w3.org/2000/svg" height="64" width="64" viewBox="0 0 64 64"><title>code 3</title><g fill="#61616b" class="nc-icon-wrapper"><path d="M19.562,18.75c-.69-.862-1.948-1.003-2.811-.312L1.75,30.438c-.474,.379-.75,.954-.75,1.562s.276,1.182,.75,1.562l15,12c.369,.295,.81,.438,1.248,.438,.587,0,1.168-.257,1.563-.75,.69-.863,.55-2.121-.312-2.811l-13.048-10.438,13.048-10.438c.862-.69,1.002-1.948,.312-2.811Z" fill="#61616b"></path><path d="M47.25,18.438c-.862-.691-2.121-.55-2.811,.312-.69,.863-.55,2.121,.312,2.811l13.048,10.438-13.048,10.438c-.862,.69-1.002,1.948-.312,2.811,.395,.494,.976,.75,1.563,.75,.438,0,.879-.143,1.248-.438l15-12c.474-.379,.75-.954,.75-1.562s-.276-1.182-.75-1.562l-15-12Z" fill="#61616b"></path><path d="M39.539,5.074c-1.063-.298-2.167,.324-2.465,1.387l-14,50c-.298,1.063,.323,2.167,1.387,2.465,.18,.051,.362,.075,.54,.075,.875,0,1.678-.578,1.925-1.461L40.926,7.539c.298-1.063-.323-2.167-1.387-2.465Z" fill="#61616b" data-color="color-2"></path></g></svg>