<svg xmlns="http://www.w3.org/2000/svg" height="16" width="16" viewBox="0 0 16 16"><title>code 2</title><g fill="#61616b" class="nc-icon-wrapper"><path d="M5,13c-.256,0-.512-.098-.707-.293L.293,8.707c-.391-.391-.391-1.023,0-1.414L4.293,3.293c.391-.391,1.023-.391,1.414,0s.391,1.023,0,1.414l-3.293,3.293,3.293,3.293c.391,.391,.391,1.023,0,1.414-.195,.195-.451,.293-.707,.293Z" fill="#61616b"></path><path data-color="color-2" d="M11,13c-.256,0-.512-.098-.707-.293-.391-.391-.391-1.023,0-1.414l3.293-3.293-3.293-3.293c-.391-.391-.391-1.023,0-1.414s1.023-.391,1.414,0l4,4c.391,.391,.391,1.023,0,1.414l-4,4c-.195,.195-.451,.293-.707,.293Z" fill="#61616b"></path></g></svg>