<svg xmlns="http://www.w3.org/2000/svg" height="24" width="24" viewBox="0 0 24 24"><title>code</title><g fill="#61616b" class="nc-icon-wrapper"><path d="M8.707,5.293c-.391-.391-1.023-.391-1.414,0L1.293,11.293c-.391,.391-.391,1.023,0,1.414l6,6c.195,.195,.451,.293,.707,.293s.512-.098,.707-.293c.391-.391,.391-1.023,0-1.414L3.414,12l5.293-5.293c.391-.391,.391-1.023,0-1.414Z" fill="#61616b"></path><path d="M22.707,11.293l-6-6c-.391-.391-1.023-.391-1.414,0s-.391,1.023,0,1.414l5.293,5.293-5.293,5.293c-.391,.391-.391,1.023,0,1.414,.195,.195,.451,.293,.707,.293s.512-.098,.707-.293l6-6c.391-.391,.391-1.023,0-1.414Z" fill="#61616b" data-color="color-2"></path></g></svg>