<svg xmlns="http://www.w3.org/2000/svg" height="32" width="32" viewBox="0 0 32 32"><title>command 5</title><g fill="#61616b" class="nc-icon-wrapper"><path fill="#61616b" d="M25,20h-3v-8h3c2.8,0,5-2.2,5-5s-2.2-5-5-5s-5,2.2-5,5v3h-8V7c0-2.8-2.2-5-5-5S2,4.2,2,7s2.2,5,5,5h3v8H7 c-2.8,0-5,2.2-5,5s2.2,5,5,5s5-2.2,5-5v-3h8v3c0,2.8,2.2,5,5,5s5-2.2,5-5S27.8,20,25,20z M22,7c0-1.7,1.3-3,3-3s3,1.3,3,3 s-1.3,3-3,3h-3V7z M4,7c0-1.7,1.3-3,3-3s3,1.3,3,3v3H7C5.3,10,4,8.7,4,7z M10,25c0,1.7-1.3,3-3,3s-3-1.3-3-3s1.3-3,3-3h3V25z M12,12 h8v8h-8V12z M25,28c-1.7,0-3-1.3-3-3v-3h3c1.7,0,3,1.3,3,3S26.7,28,25,28z"></path></g></svg>