<svg xmlns="http://www.w3.org/2000/svg" height="16" width="16" viewBox="0 0 16 16"><title>command 2</title><g fill="#61616b" class="nc-icon-wrapper"><path fill="#61616b" d="M12.5,9H11V7h1.5C14.4,7,16,5.4,16,3.5S14.4,0,12.5,0S9,1.6,9,3.5V5H7V3.5C7,1.6,5.4,0,3.5,0S0,1.6,0,3.5 S1.6,7,3.5,7H5v2H3.5C1.6,9,0,10.6,0,12.5S1.6,16,3.5,16S7,14.4,7,12.5V11h2v1.5c0,1.9,1.6,3.5,3.5,3.5s3.5-1.6,3.5-3.5 S14.4,9,12.5,9z M11,3.5C11,2.7,11.7,2,12.5,2S14,2.7,14,3.5S13.3,5,12.5,5H11V3.5z M2,3.5C2,2.7,2.7,2,3.5,2S5,2.7,5,3.5V5H3.5 C2.7,5,2,4.3,2,3.5z M5,12.5C5,13.3,4.3,14,3.5,14S2,13.3,2,12.5S2.7,11,3.5,11H5V12.5z M7,7h2v2H7V7z M12.5,14 c-0.8,0-1.5-0.7-1.5-1.5V11h1.5c0.8,0,1.5,0.7,1.5,1.5S13.3,14,12.5,14z"></path></g></svg>