<svg xmlns="http://www.w3.org/2000/svg" height="48" width="48" viewBox="0 0 48 48"><title>compare items 3</title><g fill="#61616b" class="nc-icon-wrapper"><rect x="1" y="5" width="21" height="38" rx="4" fill="#61616b"></rect><path d="M27,10a1,1,0,0,1-1-1,4,4,0,0,1,4-4,1,1,0,0,1,0,2,2,2,0,0,0-2,2A1,1,0,0,1,27,10Z" fill="#61616b" data-color="color-2"></path><path d="M46,10a1,1,0,0,1-1-1,2,2,0,0,0-2-2,1,1,0,0,1,0-2,4,4,0,0,1,4,4A1,1,0,0,1,46,10Z" fill="#61616b" data-color="color-2"></path><path d="M43,43a1,1,0,0,1,0-2,2,2,0,0,0,2-2V38a1,1,0,0,1,2,0v1A4,4,0,0,1,43,43Z" fill="#61616b" data-color="color-2"></path><path d="M30,43a4,4,0,0,1-4-4V38a1,1,0,0,1,2,0v1a2,2,0,0,0,2,2,1,1,0,0,1,0,2Z" fill="#61616b" data-color="color-2"></path><path d="M38,7H35a1,1,0,0,1,0-2h3a1,1,0,0,1,0,2Z" fill="#61616b" data-color="color-2"></path><path d="M38,43H35a1,1,0,0,1,0-2h3a1,1,0,0,1,0,2Z" fill="#61616b" data-color="color-2"></path><path d="M27,18a1,1,0,0,1-1-1V14a1,1,0,0,1,2,0v3A1,1,0,0,1,27,18Z" fill="#61616b" data-color="color-2"></path><path d="M27,26a1,1,0,0,1-1-1V22a1,1,0,0,1,2,0v3A1,1,0,0,1,27,26Z" fill="#61616b" data-color="color-2"></path><path d="M27,34a1,1,0,0,1-1-1V30a1,1,0,0,1,2,0v3A1,1,0,0,1,27,34Z" fill="#61616b" data-color="color-2"></path><path d="M46,18a1,1,0,0,1-1-1V14a1,1,0,0,1,2,0v3A1,1,0,0,1,46,18Z" fill="#61616b" data-color="color-2"></path><path d="M46,26a1,1,0,0,1-1-1V22a1,1,0,0,1,2,0v3A1,1,0,0,1,46,26Z" fill="#61616b" data-color="color-2"></path><path d="M46,34a1,1,0,0,1-1-1V30a1,1,0,0,1,2,0v3A1,1,0,0,1,46,34Z" fill="#61616b" data-color="color-2"></path></g></svg>