<svg xmlns="http://www.w3.org/2000/svg" height="32" width="32" viewBox="0 0 32 32"><title>compare items 4</title><g fill="#61616b" class="nc-icon-wrapper"><path d="M12,29H3a3,3,0,0,1-3-3V6A3,3,0,0,1,3,3h9a3,3,0,0,1,3,3V26A3,3,0,0,1,12,29Z" fill="#61616b"></path><path d="M19,8H17V6a3,3,0,0,1,3-3h3V5H20a1,1,0,0,0-1,1Z" fill="#61616b" data-color="color-2"></path><path d="M32,8H30V6a1,1,0,0,0-1-1H26V3h3a3,3,0,0,1,3,3Z" fill="#61616b" data-color="color-2"></path><path d="M29,29H26V27h3a1,1,0,0,0,1-1V24h2v2A3,3,0,0,1,29,29Z" fill="#61616b" data-color="color-2"></path><path d="M23,29H20a3,3,0,0,1-3-3V24h2v2a1,1,0,0,0,1,1h3Z" fill="#61616b" data-color="color-2"></path><rect x="17" y="10" width="2" height="5" fill="#61616b" data-color="color-2"></rect><rect x="17" y="17" width="2" height="5" fill="#61616b" data-color="color-2"></rect><rect x="30" y="10" width="2" height="5" fill="#61616b" data-color="color-2"></rect><rect x="30" y="17" width="2" height="5" fill="#61616b" data-color="color-2"></rect></g></svg>