<svg xmlns="http://www.w3.org/2000/svg" height="12" width="12" viewBox="0 0 12 12"><title>compare items 6</title><g fill="#61616b" class="nc-icon-wrapper"><path d="M3.5,11h-2A1.5,1.5,0,0,1,0,9.5v-7A1.5,1.5,0,0,1,1.5,1h2A1.5,1.5,0,0,1,5,2.5v7A1.5,1.5,0,0,1,3.5,11Z" fill="#61616b"></path><path d="M7.5,7A.5.5,0,0,1,7,6.5v-1a.5.5,0,0,1,1,0v1A.5.5,0,0,1,7.5,7Z" fill="#61616b" data-color="color-2"></path><path d="M11.5,7a.5.5,0,0,1-.5-.5v-1a.5.5,0,0,1,1,0v1A.5.5,0,0,1,11.5,7Z" fill="#61616b" data-color="color-2"></path><path d="M11.5,4a.5.5,0,0,1-.5-.5v-1a.5.5,0,0,0-.5-.5.5.5,0,0,1,0-1A1.5,1.5,0,0,1,12,2.5v1A.5.5,0,0,1,11.5,4Z" fill="#61616b" data-color="color-2"></path><path d="M7.5,4A.5.5,0,0,1,7,3.5v-1A1.5,1.5,0,0,1,8.5,1a.5.5,0,0,1,0,1,.5.5,0,0,0-.5.5v1A.5.5,0,0,1,7.5,4Z" fill="#61616b" data-color="color-2"></path><path d="M8.5,11A1.5,1.5,0,0,1,7,9.5v-1a.5.5,0,0,1,1,0v1a.5.5,0,0,0,.5.5.5.5,0,0,1,0,1Z" fill="#61616b" data-color="color-2"></path><path d="M10.5,11a.5.5,0,0,1,0-1,.5.5,0,0,0,.5-.5v-1a.5.5,0,0,1,1,0v1A1.5,1.5,0,0,1,10.5,11Z" fill="#61616b" data-color="color-2"></path></g></svg>