<svg xmlns="http://www.w3.org/2000/svg" height="64" width="64" viewBox="0 0 64 64"><title>compare items 2</title><g fill="#61616b" class="nc-icon-wrapper"><rect x="3" y="7" width="26" height="50" rx="5" fill="#61616b"></rect><path d="M50,9H46a1,1,0,0,1,0-2h4a1,1,0,0,1,0,2Z" fill="#61616b" data-color="color-2"></path><path d="M36,25a1,1,0,0,1-1-1V20a1,1,0,0,1,2,0v4A1,1,0,0,1,36,25Z" fill="#61616b" data-color="color-2"></path><path d="M36,35a1,1,0,0,1-1-1V30a1,1,0,0,1,2,0v4A1,1,0,0,1,36,35Z" fill="#61616b" data-color="color-2"></path><path d="M36,45a1,1,0,0,1-1-1V40a1,1,0,0,1,2,0v4A1,1,0,0,1,36,45Z" fill="#61616b" data-color="color-2"></path><path d="M60,25a1,1,0,0,1-1-1V20a1,1,0,0,1,2,0v4A1,1,0,0,1,60,25Z" fill="#61616b" data-color="color-2"></path><path d="M60,35a1,1,0,0,1-1-1V30a1,1,0,0,1,2,0v4A1,1,0,0,1,60,35Z" fill="#61616b" data-color="color-2"></path><path d="M60,45a1,1,0,0,1-1-1V40a1,1,0,0,1,2,0v4A1,1,0,0,1,60,45Z" fill="#61616b" data-color="color-2"></path><path d="M50,57H46a1,1,0,0,1,0-2h4a1,1,0,0,1,0,2Z" fill="#61616b" data-color="color-2"></path><path d="M36,15a1,1,0,0,1-1-1V12a5.006,5.006,0,0,1,5-5,1,1,0,0,1,0,2,3,3,0,0,0-3,3v2A1,1,0,0,1,36,15Z" fill="#61616b" data-color="color-2"></path><path d="M60,15a1,1,0,0,1-1-1V12a3,3,0,0,0-3-3,1,1,0,0,1,0-2,5.006,5.006,0,0,1,5,5v2A1,1,0,0,1,60,15Z" fill="#61616b" data-color="color-2"></path><path d="M56,57a1,1,0,0,1,0-2,3,3,0,0,0,3-3V50a1,1,0,0,1,2,0v2A5.006,5.006,0,0,1,56,57Z" fill="#61616b" data-color="color-2"></path><path d="M40,57a5.006,5.006,0,0,1-5-5V50a1,1,0,0,1,2,0v2a3,3,0,0,0,3,3,1,1,0,0,1,0,2Z" fill="#61616b" data-color="color-2"></path></g></svg>