<svg xmlns="http://www.w3.org/2000/svg" height="16" width="16" viewBox="0 0 16 16"><title>compare items</title><g fill="#61616b" class="nc-icon-wrapper"><path d="M6,15H1a1,1,0,0,1-1-1V2A1,1,0,0,1,1,1H6A1,1,0,0,1,7,2V14A1,1,0,0,1,6,15Z" fill="#61616b"></path><rect x="9" y="6" width="2" height="4" fill="#61616b" data-color="color-2"></rect><path d="M14,13H11V12H9v2a1,1,0,0,0,1,1h5a1,1,0,0,0,1-1V12H14Z" fill="#61616b" data-color="color-2"></path><path d="M15,1H10A1,1,0,0,0,9,2V4h2V3h3V4h2V2A1,1,0,0,0,15,1Z" fill="#61616b" data-color="color-2"></path><rect x="14" y="6" width="2" height="4" fill="#61616b" data-color="color-2"></rect></g></svg>