<svg xmlns="http://www.w3.org/2000/svg" height="48" width="48" viewBox="0 0 48 48"><title>compass 4</title><g fill="#61616b" class="nc-icon-wrapper"><path data-color="color-2" fill="#61616b" d="M25,4.069V2c0-0.552-0.448-1-1-1s-1,0.448-1,1v2.069C19.06,4.564,16,7.928,16,12 c0,4.411,3.589,8,8,8s8-3.589,8-8C32,7.928,28.94,4.564,25,4.069z"></path> <path fill="#61616b" d="M39.745,33H43c0.552,0,1-0.448,1-1s-0.448-1-1-1h-4.256l-6.611-13.203c-1.59,2.224-4.063,3.77-6.906,4.12 L29.768,31H25v-2c0-0.552-0.448-1-1-1s-1,0.448-1,1v2h-4.768l4.542-9.083c-2.843-0.35-5.316-1.896-6.906-4.12L9.256,31H5 c-0.552,0-1,0.448-1,1s0.448,1,1,1h3.255L1,47c0,0,8.969,0.281,11.66-4.856L17.232,33H23v2c0,0.552,0.448,1,1,1s1-0.448,1-1v-2 h5.768l4.572,9.144C38.031,47.281,47,47,47,47L39.745,33z"></path></g></svg>