<svg xmlns="http://www.w3.org/2000/svg" height="64" width="64" viewBox="0 0 64 64"><title>copy 3</title><g fill="#61616b" class="nc-icon-wrapper"><path fill="#61616b" d="M57,14H7c-1.105,0-2,0.895-2,2v44c0,1.105,0.895,2,2,2h50c1.105,0,2-0.895,2-2V16C59,14.895,58.105,14,57,14 z"></path> <path data-color="color-2" fill="#61616b" d="M13,12h38V9c0-0.552-0.448-1-1-1H14c-0.552,0-1,0.448-1,1V12z"></path> <path data-color="color-2" fill="#61616b" d="M21,6h22V3c0-0.552-0.448-1-1-1H22c-0.552,0-1,0.448-1,1V6z"></path></g></svg>