<svg xmlns="http://www.w3.org/2000/svg" height="32" width="32" viewBox="0 0 32 32"><title>creative commons 4</title><g fill="#61616b" class="nc-icon-wrapper"><path d="M16,32A16,16,0,1,1,32,16,16.018,16.018,0,0,1,16,32ZM16,3A13,13,0,1,0,29,16,13.015,13.015,0,0,0,16,3Z" fill="#61616b"></path><path d="M11.571,22C8.135,22,6,19.7,6,16s2.135-6,5.571-6a5.706,5.706,0,0,1,2.607.59l1.338.678-1.355,2.675-1.339-.677A2.711,2.711,0,0,0,11.571,13C10.8,13,9,13,9,16s1.8,3,2.571,3a2.711,2.711,0,0,0,1.251-.266l1.339-.677,1.355,2.675-1.338.678A5.706,5.706,0,0,1,11.571,22Z" fill="#61616b" data-color="color-2"></path><path d="M21.571,22C18.135,22,16,19.7,16,16s2.135-6,5.571-6a5.706,5.706,0,0,1,2.607.59l1.338.678-1.355,2.675-1.339-.677A2.711,2.711,0,0,0,21.571,13C20.8,13,19,13,19,16s1.8,3,2.571,3a2.711,2.711,0,0,0,1.251-.266l1.339-.677,1.355,2.675-1.338.678A5.706,5.706,0,0,1,21.571,22Z" fill="#61616b" data-color="color-2"></path></g></svg>