<svg xmlns="http://www.w3.org/2000/svg" height="48" width="48" viewBox="0 0 48 48"><title>creative commons 3</title><g fill="#61616b" class="nc-icon-wrapper"><path d="M36.534,29.067l-.768.388A5.575,5.575,0,0,1,33.238,30C31.942,30,28,30,28,24s3.942-6,5.238-6a5.575,5.575,0,0,1,2.528.545l.768.388,1.788-3.577-.754-.381A9.5,9.5,0,0,0,33.238,14C27.453,14,24,17.738,24,24s3.453,10,9.238,10a9.5,9.5,0,0,0,4.33-.975l.754-.381Z" fill="#61616b" data-color="color-2"></path><path d="M24,0A24,24,0,1,0,48,24,24.028,24.028,0,0,0,24,0Zm0,44A20,20,0,1,1,44,24,20.023,20.023,0,0,1,24,44Z" fill="#61616b"></path><path d="M20.534,29.067l-.768.388A5.575,5.575,0,0,1,17.238,30C15.942,30,12,30,12,24s3.942-6,5.238-6a5.575,5.575,0,0,1,2.528.545l.768.388,1.788-3.577-.754-.381A9.5,9.5,0,0,0,17.238,14C11.453,14,8,17.738,8,24s3.453,10,9.238,10a9.5,9.5,0,0,0,4.33-.975l.754-.381Z" fill="#61616b" data-color="color-2"></path></g></svg>