<svg xmlns="http://www.w3.org/2000/svg" height="24" width="24" viewBox="0 0 24 24"><title>creative commons 5</title><g fill="#61616b" class="nc-icon-wrapper"><path d="M8.714,10a1.8,1.8,0,0,1,.833.177l.892.453.9-1.784-.891-.452A3.806,3.806,0,0,0,8.714,8C6.423,8,5,9.532,5,12s1.423,4,3.714,4a3.806,3.806,0,0,0,1.739-.394l.891-.452-.9-1.784-.892.453A1.8,1.8,0,0,1,8.714,14C8.2,14,7,14,7,12S8.2,10,8.714,10Z" fill="#61616b" data-color="color-2"></path><path d="M15.714,10a1.8,1.8,0,0,1,.833.177l.892.453.905-1.784-.891-.452A3.806,3.806,0,0,0,15.714,8C13.423,8,12,9.532,12,12s1.423,4,3.714,4a3.806,3.806,0,0,0,1.739-.394l.891-.452-.905-1.784-.892.453a1.8,1.8,0,0,1-.833.177C15.2,14,14,14,14,12S15.2,10,15.714,10Z" fill="#61616b" data-color="color-2"></path><path d="M12,24A12,12,0,1,1,24,12,12.013,12.013,0,0,1,12,24ZM12,2A10,10,0,1,0,22,12,10.011,10.011,0,0,0,12,2Z" fill="#61616b"></path></g></svg>