<svg xmlns="http://www.w3.org/2000/svg" height="64" width="64" viewBox="0 0 64 64"><title>creative commons 2</title><g fill="#61616b" class="nc-icon-wrapper"><path d="M47.451,36.553A10.791,10.791,0,0,1,43.143,38C41.6,38,38,38,38,32s3.6-6,5.143-6a10.791,10.791,0,0,1,4.308,1.447L50.3,22.162A14.67,14.67,0,0,0,43.143,20C36.27,20,32,24.6,32,32s4.27,12,11.143,12A14.67,14.67,0,0,0,50.3,41.838Z" fill="#61616b" data-color="color-2"></path><path d="M27.451,36.553A10.791,10.791,0,0,1,23.143,38C21.6,38,18,38,18,32s3.6-6,5.143-6a10.791,10.791,0,0,1,4.308,1.447L30.3,22.162A14.67,14.67,0,0,0,23.143,20C16.27,20,12,24.6,12,32s4.27,12,11.143,12A14.67,14.67,0,0,0,30.3,41.838Z" fill="#61616b" data-color="color-2"></path><path d="M32,62A30,30,0,1,1,62,32,30.034,30.034,0,0,1,32,62ZM32,7A25,25,0,1,0,57,32,25.028,25.028,0,0,0,32,7Z" fill="#61616b"></path></g></svg>