<svg xmlns="http://www.w3.org/2000/svg" height="48" width="48" viewBox="0 0 48 48"><title>crop 4</title><g fill="#61616b" class="nc-icon-wrapper"><path data-color="color-2" fill="#61616b" d="M44.707,3.293c-0.391-0.391-1.023-0.391-1.414,0l-6.008,6.008 c0.619,0.296,1.118,0.795,1.414,1.414l6.008-6.008C45.098,4.316,45.098,3.684,44.707,3.293z"></path> <path fill="#61616b" d="M46,33h-9V12c0-0.552-0.448-1-1-1H15V2c0-0.552-0.448-1-1-1h-2c-0.552,0-1,0.448-1,1v9H2 c-0.552,0-1,0.448-1,1v2c0,0.552,0.448,1,1,1h31v18H15V17h-4v19c0,0.552,0.448,1,1,1h34c0.552,0,1-0.448,1-1v-2 C47,33.448,46.552,33,46,33z"></path> <path fill="#61616b" d="M33,46c0,0.552,0.448,1,1,1h2c0.552,0,1-0.448,1-1v-7h-4V46z"></path> <path data-color="color-2" fill="#61616b" d="M18,31c-0.256,0-0.512-0.098-0.707-0.293c-0.391-0.391-0.391-1.023,0-1.414l12-12 c0.391-0.391,1.023-0.391,1.414,0s0.391,1.023,0,1.414l-12,12C18.512,30.902,18.256,31,18,31z"></path></g></svg>