<svg xmlns="http://www.w3.org/2000/svg" height="64" width="64" viewBox="0 0 64 64"><title>crop 3</title><g fill="#61616b" class="nc-icon-wrapper"><path fill="#61616b" d="M21,18V3c0-0.552-0.448-1-1-1h-4c-0.552,0-1,0.448-1,1v15H21z"></path> <path fill="#61616b" d="M43,46h6V16c0-0.552-0.448-1-1-1H3c-0.552,0-1,0.448-1,1v4c0,0.552,0.448,1,1,1h40V46z"></path> <path fill="#61616b" d="M43,51v10c0,0.552,0.448,1,1,1h4c0.552,0,1-0.448,1-1V51H43z"></path> <path fill="#61616b" d="M61,43H21V23h-6v25c0,0.552,0.448,1,1,1h45c0.552,0,1-0.448,1-1v-4C62,43.448,61.552,43,61,43z"></path> <path data-color="color-2" fill="#61616b" d="M51,14c-0.256,0-0.512-0.098-0.707-0.293c-0.391-0.391-0.391-1.023,0-1.414l10-10 c0.391-0.391,1.023-0.391,1.414,0s0.391,1.023,0,1.414l-10,10C51.512,13.902,51.256,14,51,14z"></path> <path data-color="color-2" fill="#61616b" d="M24,41c-0.256,0-0.512-0.098-0.707-0.293c-0.391-0.391-0.391-1.023,0-1.414l16-16 c0.391-0.391,1.023-0.391,1.414,0s0.391,1.023,0,1.414l-16,16C24.512,40.902,24.256,41,24,41z"></path></g></svg>