<svg xmlns="http://www.w3.org/2000/svg" height="64" width="64" viewBox="0 0 64 64"><title>css3 3</title><g fill="#61616b" class="nc-icon-wrapper"><path fill="#61616b" d="M59.47,2.684C59.091,2.273,58.558,2.04,58,2.04H6c-0.558,0-1.091,0.233-1.47,0.644 c-0.378,0.41-0.568,0.96-0.524,1.516l4,49.96c0.067,0.842,0.656,1.551,1.471,1.771l22,5.96c0.171,0.046,0.347,0.069,0.523,0.069 s0.352-0.023,0.523-0.069l22-5.96c0.815-0.221,1.403-0.93,1.471-1.771l4-49.96C60.038,3.644,59.848,3.094,59.47,2.684z M49,20.061 L30.957,27h17.298l-1.409,19.214L32,51.162l-15-5V37h6v4.838l9,3l9.154-3.052L41.799,33H17v-7.061L35.043,19H15v-6h34V20.061z"></path></g></svg>