<svg xmlns="http://www.w3.org/2000/svg" height="16" width="16" viewBox="0 0 16 16"><title>css3 2</title><g fill="#61616b" class="nc-icon-wrapper"><path fill="#61616b" d="M14.736,0.323C14.546,0.117,14.28,0,14,0H2C1.72,0,1.454,0.117,1.264,0.323 C1.075,0.529,0.98,0.804,1.003,1.083l1,12c0.031,0.378,0.273,0.705,0.625,0.846l5,2C7.748,15.977,7.874,16,8,16 s0.252-0.023,0.372-0.071l5-2c0.352-0.141,0.594-0.468,0.625-0.846l1-12C15.02,0.804,14.925,0.529,14.736,0.323z M12,4.721L8.162,6 H12v5.721l-4,1.333l-4-1.333V9h2v1.279l2,0.667l2-0.667V8H4V5.279L7.838,4H4V2h8V4.721z"></path></g></svg>