<svg xmlns="http://www.w3.org/2000/svg" height="48" width="48" viewBox="0 0 48 48"><title>data table 3</title><g fill="#61616b" class="nc-icon-wrapper"><rect x="8" y="28" width="14" height="2" rx="1" fill="#61616b" data-color="color-2"></rect><rect x="8" y="38" width="14" height="2" rx="1" fill="#61616b" data-color="color-2"></rect><rect x="8" y="33" width="14" height="2" rx="1" fill="#61616b" data-color="color-2"></rect><rect x="26" y="28" width="14" height="2" rx="1" fill="#61616b" data-color="color-2"></rect><rect x="8" y="23" width="14" height="2" rx="1" fill="#61616b" data-color="color-2"></rect><rect x="26" y="23" width="14" height="2" rx="1" fill="#61616b" data-color="color-2"></rect><rect x="26" y="38" width="14" height="2" rx="1" fill="#61616b" data-color="color-2"></rect><rect x="26" y="33" width="14" height="2" rx="1" fill="#61616b" data-color="color-2"></rect><path d="M42,3H6A3,3,0,0,0,3,6V42a3,3,0,0,0,3,3H42a3,3,0,0,0,3-3V6A3,3,0,0,0,42,3ZM26,8a1,1,0,0,1,1-1H40a1,1,0,0,1,1,1v7a1,1,0,0,1-1,1H27a1,1,0,0,1-1-1ZM7,8A1,1,0,0,1,8,7H21a1,1,0,0,1,1,1v7a1,1,0,0,1-1,1H8a1,1,0,0,1-1-1ZM43,42a1,1,0,0,1-1,1H6a1,1,0,0,1-1-1V21a1,1,0,0,1,1-1H42a1,1,0,0,1,1,1Z" fill="#61616b"></path></g></svg>