<svg xmlns="http://www.w3.org/2000/svg" height="16" width="16" viewBox="0 0 16 16"><title>data table</title><g fill="#61616b" class="nc-icon-wrapper"><path data-color="color-2" d="M6,12H1a1,1,0,0,1,0-2H6a1,1,0,0,1,0,2Z" fill="#61616b"></path><path data-color="color-2" d="M15,12H10a1,1,0,0,1,0-2h5a1,1,0,0,1,0,2Z" fill="#61616b"></path><path data-color="color-2" d="M6,16H1a1,1,0,0,1,0-2H6a1,1,0,0,1,0,2Z" fill="#61616b"></path><path data-color="color-2" d="M15,16H10a1,1,0,0,1,0-2h5a1,1,0,0,1,0,2Z" fill="#61616b"></path><path d="M15,0H1A1,1,0,0,0,0,1V7A1,1,0,0,0,1,8H15a1,1,0,0,0,1-1V1A1,1,0,0,0,15,0ZM6.5,5h-4A.5.5,0,0,1,2,4.5v-1A.5.5,0,0,1,2.5,3h4a.5.5,0,0,1,.5.5v1A.5.5,0,0,1,6.5,5Zm7,0h-4A.5.5,0,0,1,9,4.5v-1A.5.5,0,0,1,9.5,3h4a.5.5,0,0,1,.5.5v1A.5.5,0,0,1,13.5,5Z" fill="#61616b"></path></g></svg>