<svg xmlns="http://www.w3.org/2000/svg" height="64" width="64" viewBox="0 0 64 64"><title>data table 2</title><g fill="#61616b" class="nc-icon-wrapper"><rect x="10" y="46" width="20" height="2" rx="1" fill="#61616b" data-color="color-2"></rect><rect x="34" y="46" width="20" height="2" rx="1" fill="#61616b" data-color="color-2"></rect><rect x="10" y="40" width="20" height="2" rx="1" fill="#61616b" data-color="color-2"></rect><rect x="34" y="40" width="20" height="2" rx="1" fill="#61616b" data-color="color-2"></rect><rect x="10" y="34" width="20" height="2" rx="1" fill="#61616b" data-color="color-2"></rect><rect x="34" y="34" width="20" height="2" rx="1" fill="#61616b" data-color="color-2"></rect><rect x="10" y="28" width="20" height="2" rx="1" fill="#61616b" data-color="color-2"></rect><rect x="34" y="28" width="20" height="2" rx="1" fill="#61616b" data-color="color-2"></rect><rect x="10" y="52" width="20" height="2" rx="1" fill="#61616b" data-color="color-2"></rect><rect x="34" y="52" width="20" height="2" rx="1" fill="#61616b" data-color="color-2"></rect><path d="M56,4H8A4,4,0,0,0,4,8V56a4,4,0,0,0,4,4H56a4,4,0,0,0,4-4V8A4,4,0,0,0,56,4ZM34,10.111A1.108,1.108,0,0,1,35.1,9H53.9A1.108,1.108,0,0,1,55,10.111v7.778A1.109,1.109,0,0,1,53.9,19H35.1A1.109,1.109,0,0,1,34,17.889Zm-25,0A1.108,1.108,0,0,1,10.105,9H28.9A1.108,1.108,0,0,1,30,10.111v7.778A1.109,1.109,0,0,1,28.9,19H10.105A1.109,1.109,0,0,1,9,17.889ZM58,56a2,2,0,0,1-2,2H8a2,2,0,0,1-2-2V26a2,2,0,0,1,2-2H56a2,2,0,0,1,2,2Z" fill="#61616b"></path></g></svg>