<svg xmlns="http://www.w3.org/2000/svg" height="24" width="24" viewBox="0 0 24 24"><title>data table 5</title><g fill="#61616b" class="nc-icon-wrapper"><path data-color="color-2" d="M1,2v8a1,1,0,0,0,1,1H22a1,1,0,0,0,1-1V2a1,1,0,0,0-1-1H2A1,1,0,0,0,1,2Zm9.5,6h-6A.5.5,0,0,1,4,7.5v-3A.5.5,0,0,1,4.5,4h6a.5.5,0,0,1,.5.5v3A.5.5,0,0,1,10.5,8Zm9,0h-6a.5.5,0,0,1-.5-.5v-3a.5.5,0,0,1,.5-.5h6a.5.5,0,0,1,.5.5v3A.5.5,0,0,1,19.5,8Z" fill="#61616b"></path><rect x="1" y="13" width="10" height="2" rx="1" fill="#61616b"></rect><rect x="1" y="17" width="10" height="2" rx="1" fill="#61616b"></rect><rect x="1" y="21" width="10" height="2" rx="1" fill="#61616b"></rect><rect x="13" y="13" width="10" height="2" rx="1" fill="#61616b"></rect><rect x="13" y="17" width="10" height="2" rx="1" fill="#61616b"></rect><rect x="13" y="21" width="10" height="2" rx="1" fill="#61616b"></rect></g></svg>