<svg xmlns="http://www.w3.org/2000/svg" height="64" width="64" viewBox="0 0 64 64"><title>decision process 2</title><g fill="#61616b" class="nc-icon-wrapper"><path d="M19,21a1.007,1.007,0,0,1-.524-.148l-13-8a1,1,0,0,1,0-1.7l13-8a1,1,0,0,1,1.048,0l13,8a1,1,0,0,1,0,1.7l-13,8A1.007,1.007,0,0,1,19,21Z" fill="#61616b"></path><path d="M60,40H38a1,1,0,0,1-1-1V25a1,1,0,0,1,1-1H60a1,1,0,0,1,1,1V39A1,1,0,0,1,60,40Z" fill="#61616b" data-color="color-2"></path><path d="M24,61H14a8,8,0,0,1,0-16H24a8,8,0,0,1,0,16Z" fill="#61616b"></path><rect x="18" y="23" width="2" height="20" fill="#61616b"></rect><path d="M49,11H35v2H48v9h2V12A1,1,0,0,0,49,11Z" fill="#61616b"></path><path d="M48,42V52H34v2H49a1,1,0,0,0,1-1V42Z" fill="#61616b"></path></g></svg>