<svg xmlns="http://www.w3.org/2000/svg" height="16" width="16" viewBox="0 0 16 16"><title>design 2</title><g fill="#61616b" class="nc-icon-wrapper"><path data-color="color-2" fill="#61616b" d="M2.2,5.6l3.4-3.4L3.7,0.3c-0.4-0.4-1-0.4-1.4,0l-2,2c-0.4,0.4-0.4,1,0,1.4L2.2,5.6z"></path> <path data-color="color-2" fill="#61616b" d="M13.8,10.4l-3.4,3.4l1.9,1.9c0.2,0.2,0.4,0.3,0.7,0.3h3v-3c0-0.3-0.1-0.5-0.3-0.7L13.8,10.4z "></path> <path fill="#61616b" d="M15.7,4.3l-4-4c-0.4-0.4-1-0.4-1.4,0L9,1.6l1.7,1.7L9.3,4.7L7.6,3L6,4.6l1.7,1.7L6.3,7.7L4.6,6L3,7.6 l1.7,1.7l-1.4,1.4L1.6,9l-1.3,1.3c-0.4,0.4-0.4,1,0,1.4l4,4c0.4,0.4,1,0.4,1.4,0l10-10C16.1,5.3,16.1,4.7,15.7,4.3z"></path></g></svg>