<svg xmlns="http://www.w3.org/2000/svg" height="32" width="32" viewBox="0 0 32 32"><title>design 5</title><g fill="#61616b" class="nc-icon-wrapper"><path fill="#61616b" d="M30.849,8.222l-7.071-7.071c-0.39-0.39-1.024-0.39-1.414,0l-2.828,2.828l2.121,2.121l-1.414,1.414 l-2.121-2.121L16,7.515l2.828,2.828l-1.414,1.414l-2.828-2.828l-2.121,2.121l2.121,2.121l-1.414,1.414l-2.121-2.121l-2.121,2.121 l2.828,2.828l-1.414,1.414L7.515,16l-2.121,2.121l2.121,2.121l-1.414,1.414l-2.121-2.121l-2.828,2.828 c-0.39,0.39-0.39,1.024,0,1.414l7.071,7.071c0.39,0.39,1.024,0.39,1.414,0L30.849,9.636C31.24,9.246,31.24,8.612,30.849,8.222z M24.839,10.697c-0.586-0.586-0.586-1.536,0-2.121s1.536-0.586,2.121,0s0.586,1.536,0,2.121S25.425,11.282,24.839,10.697z"></path> <path data-color="color-2" fill="#61616b" d="M28.961,22.725c-0.046-0.163-0.134-0.312-0.254-0.432l-3.843-3.843l-6.414,6.414l3.843,3.843 c0.12,0.12,0.269,0.208,0.432,0.254l7,2C29.816,30.987,29.908,31,30,31c0.262,0,0.517-0.103,0.707-0.293 c0.257-0.257,0.354-0.632,0.254-0.982L28.961,22.725z"></path> <path data-color="color-2" fill="#61616b" d="M7.136,13.55l6.414-6.414L7.707,1.293c-0.391-0.391-1.023-0.391-1.414,0l-5,5 c-0.391,0.391-0.391,1.023,0,1.414L7.136,13.55z"></path></g></svg>