<svg xmlns="http://www.w3.org/2000/svg" height="64" width="64" viewBox="0 0 64 64"><title>design system 3</title><g fill="#61616b" class="nc-icon-wrapper"><rect data-color="color-2" x="3" y="3" width="14" height="14" rx="1" fill="#61616b"></rect><rect data-color="color-2" x="47" y="47" width="14" height="14" rx="1" fill="#61616b"></rect><path d="M42,53H22A11.013,11.013,0,0,1,11,42V22a1,1,0,0,0-2,0V42A13.015,13.015,0,0,0,22,55H42a1,1,0,0,0,0-2Z" fill="#61616b"></path><path d="M22,11H42A11.013,11.013,0,0,1,53,22V42a1,1,0,0,0,2,0V22A13.015,13.015,0,0,0,42,9H22a1,1,0,0,0,0,2Z" fill="#61616b"></path></g></svg>