<svg xmlns="http://www.w3.org/2000/svg" height="64" width="64" viewBox="0 0 64 64"><title>design 3</title><g fill="#61616b" class="nc-icon-wrapper"><path data-color="color-2" fill="#61616b" d="M59.061,48.343L48.333,59.071l11.492,1.915C59.881,60.996,59.935,61,59.99,61 c0.005,0,0.011,0,0.02,0c0.552,0,1-0.448,1-1c0-0.126-0.023-0.247-0.066-0.357L59.061,48.343z"></path> <path data-color="color-2" fill="#61616b" d="M19.99,8.586l-5.293-5.293c-0.391-0.391-1.023-0.391-1.414,0l-10,10 c-0.391,0.391-0.391,1.023,0,1.414L8.576,20L19.99,8.586z"></path> <path fill="#61616b" d="M60.707,15.293l-12-12c-0.391-0.391-1.023-0.391-1.414,0L38,12.586l3.707,3.707 c0.391,0.391,0.391,1.023,0,1.414c-0.391,0.391-1.023,0.391-1.414,0L36.586,14L32,18.586l1.707,1.707 c0.391,0.391,0.391,1.023,0,1.414c-0.391,0.391-1.023,0.391-1.414,0L30.586,20L26,24.586l3.707,3.707 c0.391,0.391,0.391,1.023,0,1.414c-0.391,0.391-1.023,0.391-1.414,0L24.586,26L20,30.586l1.707,1.707 c0.391,0.391,0.391,1.023,0,1.414c-0.391,0.391-1.023,0.391-1.414,0L18.586,32L14,36.586l3.707,3.707 c0.391,0.391,0.391,1.023,0,1.414c-0.391,0.391-1.023,0.391-1.414,0L12.586,38l-9.293,9.293c-0.391,0.391-0.391,1.023,0,1.414l12,12 C15.488,60.902,15.744,61,16,61s0.512-0.098,0.707-0.293l44-44C61.098,16.316,61.098,15.684,60.707,15.293z M50.5,20 c-1.378,0-2.5-1.122-2.5-2.5s1.122-2.5,2.5-2.5s2.5,1.122,2.5,2.5S51.878,20,50.5,20z"></path> <rect data-color="color-2" x="38.129" y="37.606" transform="matrix(0.7071 -0.7071 0.7071 0.7071 -19.1435 46.2025)" fill="#61616b" width="16.142" height="17.207"></rect> <rect data-color="color-2" x="11.715" y="14.014" transform="matrix(0.7071 -0.7071 0.7071 0.7071 -8.2025 19.7884)" fill="#61616b" width="16.142" height="11.564"></rect></g></svg>