<svg xmlns="http://www.w3.org/2000/svg" height="48" width="48" viewBox="0 0 48 48"><title>devto 3</title><g fill="#61616b" class="nc-icon-wrapper"><path d="M13.561,19.41a1.875,1.875,0,0,0-1.125-.42H10.752V29.079h1.685a1.875,1.875,0,0,0,1.125-.42,1.472,1.472,0,0,0,.562-1.261V20.671A1.479,1.479,0,0,0,13.561,19.41Z" fill="#61616b"></path><path d="M44,5H4A3,3,0,0,0,1,8V40a3,3,0,0,0,3,3H44a3,3,0,0,0,3-3V8A3,3,0,0,0,44,5ZM12.182,31.98H7.7V16h4.576a4.41,4.41,0,0,1,4.574,4.566v6.85A4.412,4.412,0,0,1,12.182,31.98Zm12.394-9.416V25.42H21.43v3.71h5.147v2.855H20.572a1.951,1.951,0,0,1-2-1.9V18a1.953,1.953,0,0,1,1.9-2h6.1v2.851H21.43v3.71Zm12.009,7.424c-1.275,2.97-3.559,2.379-4.582,0L28.282,16h3.146L34.3,26.987,37.153,16H40.3Z" fill="#61616b"></path></g></svg>