<svg xmlns="http://www.w3.org/2000/svg" height="64" width="64" viewBox="0 0 64 64"><title>devto 2</title><g fill="#61616b" class="nc-icon-wrapper"><path d="M18.55,26.086a2.417,2.417,0,0,0-1.449-.541h-2.17v13H17.1A2.416,2.416,0,0,0,18.552,38a1.9,1.9,0,0,0,.724-1.625V27.711A1.907,1.907,0,0,0,18.55,26.086Z" fill="#61616b"></path><path d="M58,7H6a4,4,0,0,0-4,4V53a4,4,0,0,0,4,4H58a4,4,0,0,0,4-4V11A4,4,0,0,0,58,7ZM16.774,42.281H11V21.693h5.9a5.682,5.682,0,0,1,5.894,5.883V36.4A5.684,5.684,0,0,1,16.774,42.281ZM32.742,30.15v3.68H28.689v4.779H35.32v3.679H27.583a2.512,2.512,0,0,1-2.578-2.45V24.271A2.515,2.515,0,0,1,27.457,21.7H35.32V25.37h-6.63v4.78Zm15.472,9.565c-1.642,3.826-4.585,3.065-5.9,0L37.517,21.7H41.57l3.7,14.15L48.946,21.7H53Z" fill="#61616b"></path></g></svg>