<svg xmlns="http://www.w3.org/2000/svg" height="32" width="32" viewBox="0 0 32 32"><title>devto 4</title><g fill="#61616b" class="nc-icon-wrapper"><path d="M9.044,12.805a1.3,1.3,0,0,0-.78-.291H7.1v7H8.264a1.3,1.3,0,0,0,.78-.292,1.02,1.02,0,0,0,.39-.874V13.68a1.027,1.027,0,0,0-.39-.875ZM28.06,1H3.94A2.94,2.94,0,0,0,1,3.933V28.067A2.94,2.94,0,0,0,3.94,31H28.06A2.94,2.94,0,0,0,31,28.067V3.933A2.94,2.94,0,0,0,28.06,1ZM11.326,18.356a3.06,3.06,0,0,1-3.239,3.165H4.98V10.441H8.153a3.057,3.057,0,0,1,3.172,3.166v4.749Zm6.742-5.937H14.5v2.573h2.181v1.98H14.5v2.572h3.569v1.981H13.905a1.354,1.354,0,0,1-1.388-1.319V11.828a1.353,1.353,0,0,1,1.32-1.385h4.232v1.976Zm6.94,7.721c-.884,2.059-2.468,1.649-3.177,0l-2.58-9.7h2.181l1.99,7.615,1.98-7.615h2.181l-2.575,9.7Z" fill="#61616b"></path></g></svg>