<svg xmlns="http://www.w3.org/2000/svg" height="16" width="16" viewBox="0 0 16 16"><title>devto</title><g fill="#61616b" class="nc-icon-wrapper"><path d="M4.29,6.3a.69.69,0,0,0-.416-.155H3.251V9.872h.623a.689.689,0,0,0,.416-.156A.543.543,0,0,0,4.5,9.25V6.762A.547.547,0,0,0,4.29,6.3ZM14.432,0H1.568A1.568,1.568,0,0,0,0,1.564V14.436A1.568,1.568,0,0,0,1.568,16H14.432A1.568,1.568,0,0,0,16,14.436V1.564A1.568,1.568,0,0,0,14.432,0ZM5.507,9.257A1.631,1.631,0,0,1,3.78,10.944H2.123V5.035H3.815A1.631,1.631,0,0,1,5.507,6.724V9.257ZM9.1,6.09H7.2V7.462H8.363V8.519H7.2V9.89H9.1v1.056H6.883a.72.72,0,0,1-.74-.7V5.775a.721.721,0,0,1,.7-.739H9.1V6.09Zm3.7,4.118c-.471,1.1-1.316.88-1.694,0L9.734,5.036H10.9L11.958,9.1l1.056-4.062h1.164L12.8,10.208Z" fill="#61616b"></path></g></svg>