<svg xmlns="http://www.w3.org/2000/svg" height="64" width="64" viewBox="0 0 64 64"><title>digital image 2</title><g fill="#61616b" class="nc-icon-wrapper"><path d="M39,62c-.553,0-1-.447-1-1V3c0-.553,.447-1,1-1s1,.447,1,1V61c0,.553-.447,1-1,1Z" fill="#61616b"></path><path d="M60,39h-1c-.552,0-1-.448-1-1v-10h-1c-.552,0-1-.448-1-1v-1c0-.552,.448-1,1-1h3c.552,0,1,.448,1,1v12c0,.552-.448,1-1,1Z" fill="#61616b"></path><path d="M47,21h-1c-.552,0-1-.448-1-1V10h-1c-.552,0-1-.448-1-1v-1c0-.552,.448-1,1-1h3c.552,0,1,.448,1,1v12c0,.552-.448,1-1,1Z" fill="#61616b"></path><path d="M47,57h-1c-.552,0-1-.448-1-1v-10h-1c-.552,0-1-.448-1-1v-1c0-.552,.448-1,1-1h3c.552,0,1,.448,1,1v12c0,.552-.448,1-1,1Z" fill="#61616b"></path><path d="M57.5,7c-3.038,0-5.5,2.462-5.5,5.5v3c0,3.038,2.462,5.5,5.5,5.5s5.5-2.462,5.5-5.5v-3c0-3.038-2.462-5.5-5.5-5.5Zm2.5,8.5c0,1.379-1.121,2.5-2.5,2.5s-2.5-1.121-2.5-2.5v-3c0-1.379,1.121-2.5,2.5-2.5s2.5,1.121,2.5,2.5v3Z" fill="#61616b" data-color="color-2"></path><path d="M48.5,25c-3.038,0-5.5,2.462-5.5,5.5v3c0,3.038,2.462,5.5,5.5,5.5s5.5-2.462,5.5-5.5v-3c0-3.038-2.462-5.5-5.5-5.5Zm2.5,8.5c0,1.379-1.121,2.5-2.5,2.5s-2.5-1.121-2.5-2.5v-3c0-1.379,1.121-2.5,2.5-2.5s2.5,1.121,2.5,2.5v3Z" fill="#61616b" data-color="color-2"></path><path d="M57.5,43c-3.038,0-5.5,2.462-5.5,5.5v3c0,3.038,2.462,5.5,5.5,5.5s5.5-2.462,5.5-5.5v-3c0-3.038-2.462-5.5-5.5-5.5Zm2.5,8.5c0,1.379-1.121,2.5-2.5,2.5s-2.5-1.121-2.5-2.5v-3c0-1.379,1.121-2.5,2.5-2.5s2.5,1.121,2.5,2.5v3Z" fill="#61616b" data-color="color-2"></path><path d="M20,26c-2.757,0-5-2.243-5-5s2.243-5,5-5,5,2.243,5,5-2.243,5-5,5Z" fill="#61616b"></path><path d="M36,55H8c-2.206,0-4-1.794-4-4V13c0-2.206,1.794-4,4-4h28v-2H8c-3.309,0-6,2.691-6,6V51c0,3.309,2.691,6,6,6h28v-2Z" fill="#61616b"></path><path d="M36,27.399l-8.117,11.069-6.176-6.176c-.214-.214-.516-.323-.813-.287-.301,.032-.571,.199-.734,.453l-9,14c-.198,.308-.212,.699-.037,1.021,.176,.32,.512,.521,.878,.521h24V27.399Z" fill="#61616b"></path></g></svg>