<svg xmlns="http://www.w3.org/2000/svg" height="16" width="16" viewBox="0 0 16 16"><title>digital image</title><g fill="#61616b" class="nc-icon-wrapper"><path d="M13.5,15c-1.378,0-2.5-1.121-2.5-2.5v-1c0-1.379,1.122-2.5,2.5-2.5s2.5,1.121,2.5,2.5v1c0,1.379-1.122,2.5-2.5,2.5Zm0-4c-.276,0-.5,.225-.5,.5v1c0,.275,.224,.5,.5,.5s.5-.225,.5-.5v-1c0-.275-.224-.5-.5-.5Z" fill="#61616b" data-color="color-2"></path><circle cx="4.75" cy="6.75" r="1.25" fill="#61616b"></circle><path d="M9,0c-.552,0-1,.447-1,1v1H2.001C.897,2,.002,2.895,.001,4V12c-.001,1.105,.894,2,1.999,2h6v1c0,.553,.448,1,1,1s1-.447,1-1V1c0-.553-.448-1-1-1ZM2,12V4h6v3.295l-2.852,2.852c-.143,.143-.186,.358-.108,.545,.077,.187,.26,.309,.462,.309h2.498v1H2Z" fill="#61616b"></path><path d="M14,7c-.552,0-1-.447-1-1V3c-.552,0-1-.447-1-1s.448-1,1-1h1c.552,0,1,.447,1,1V6c0,.553-.448,1-1,1Z" fill="#61616b" data-color="color-2"></path></g></svg>