<svg xmlns="http://www.w3.org/2000/svg" height="64" width="64" viewBox="0 0 64 64"><title>distribute vertical 3</title><g fill="#61616b" class="nc-icon-wrapper"><path fill="#61616b" d="M51,40V24c0-1.105-0.895-2-2-2H15c-1.105,0-2,0.895-2,2v16c0,1.105,0.895,2,2,2h34 C50.105,42,51,41.105,51,40z"></path> <path data-color="color-2" fill="#61616b" d="M63,7c0-0.552-0.447-1-1-1H2C1.447,6,1,6.448,1,7s0.447,1,1,1h60C62.553,8,63,7.552,63,7z"></path> <path data-color="color-2" fill="#61616b" d="M63,57c0-0.552-0.447-1-1-1H2c-0.553,0-1,0.448-1,1s0.447,1,1,1h60 C62.553,58,63,57.552,63,57z"></path></g></svg>