<svg xmlns="http://www.w3.org/2000/svg" height="48" width="48" viewBox="0 0 48 48"><title>distribute vertical 4</title><g fill="#61616b" class="nc-icon-wrapper"><path fill="#61616b" d="M37,31c1.105,0,2-0.895,2-2V19c0-1.105-0.895-2-2-2H11c-1.105,0-2,0.895-2,2v10c0,1.105,0.895,2,2,2H37z"></path> <path data-color="color-2" fill="#61616b" d="M46,3H2C1.448,3,1,3.447,1,4s0.448,1,1,1h44c0.552,0,1-0.447,1-1S46.552,3,46,3z"></path> <path data-color="color-2" fill="#61616b" d="M46,43H2c-0.552,0-1,0.447-1,1s0.448,1,1,1h44c0.552,0,1-0.447,1-1S46.552,43,46,43z"></path></g></svg>