<svg xmlns="http://www.w3.org/2000/svg" height="32" width="32" viewBox="0 0 32 32"><title>distribute horizontal 5</title><g fill="#61616b" class="nc-icon-wrapper"><path fill="#61616b" d="M20,7h-8c-0.6,0-1,0.4-1,1v16c0,0.6,0.4,1,1,1h8c0.6,0,1-0.4,1-1V8C21,7.4,20.6,7,20,7z"></path> <path data-color="color-2" fill="#61616b" d="M3,1C2.4,1,2,1.4,2,2v28c0,0.6,0.4,1,1,1s1-0.4,1-1V2C4,1.4,3.6,1,3,1z"></path> <path data-color="color-2" fill="#61616b" d="M29,1c-0.6,0-1,0.4-1,1v28c0,0.6,0.4,1,1,1s1-0.4,1-1V2C30,1.4,29.6,1,29,1z"></path></g></svg>