<svg xmlns="http://www.w3.org/2000/svg" height="64" width="64" viewBox="0 0 64 64"><title>distribute horizontal 3</title><g fill="#61616b" class="nc-icon-wrapper"><path fill="#61616b" d="M40,13H24c-1.105,0-2,0.895-2,2v34c0,1.105,0.895,2,2,2h16c1.105,0,2-0.895,2-2V15 C42,13.895,41.105,13,40,13z"></path> <path data-color="color-2" fill="#61616b" d="M7,1C6.448,1,6,1.447,6,2v60c0,0.553,0.448,1,1,1s1-0.447,1-1V2C8,1.447,7.552,1,7,1z"></path> <path data-color="color-2" fill="#61616b" d="M57,1c-0.552,0-1,0.447-1,1v60c0,0.553,0.448,1,1,1s1-0.447,1-1V2C58,1.447,57.552,1,57,1z"></path></g></svg>