<svg xmlns="http://www.w3.org/2000/svg" height="32" width="32" viewBox="0 0 32 32"><title>distribute vertical 5</title><g fill="#61616b" class="nc-icon-wrapper"><path fill="#61616b" d="M24,21c0.6,0,1-0.4,1-1v-8c0-0.6-0.4-1-1-1H8c-0.6,0-1,0.4-1,1v8c0,0.6,0.4,1,1,1H24z"></path> <path data-color="color-2" fill="#61616b" d="M30,2H2C1.4,2,1,2.4,1,3s0.4,1,1,1h28c0.6,0,1-0.4,1-1S30.6,2,30,2z"></path> <path data-color="color-2" fill="#61616b" d="M30,28H2c-0.6,0-1,0.4-1,1s0.4,1,1,1h28c0.6,0,1-0.4,1-1S30.6,28,30,28z"></path></g></svg>