<svg xmlns="http://www.w3.org/2000/svg" height="48" width="48" viewBox="0 0 48 48"><title>distribute horizontal 4</title><g fill="#61616b" class="nc-icon-wrapper"><path fill="#61616b" d="M29,9H19c-1.105,0-2,0.895-2,2v26c0,1.105,0.895,2,2,2h10c1.105,0,2-0.895,2-2V11C31,9.895,30.105,9,29,9z"></path> <path data-color="color-2" fill="#61616b" d="M4,1C3.448,1,3,1.447,3,2v44c0,0.553,0.448,1,1,1s1-0.447,1-1V2C5,1.447,4.552,1,4,1z"></path> <path data-color="color-2" fill="#61616b" d="M44,1c-0.552,0-1,0.447-1,1v44c0,0.553,0.448,1,1,1s1-0.447,1-1V2C45,1.447,44.552,1,44,1z"></path></g></svg>