<svg xmlns="http://www.w3.org/2000/svg" height="64" width="64" viewBox="0 0 64 64"><title>divider 3</title><g fill="#61616b" class="nc-icon-wrapper"><path fill="#61616b" d="M53,25H11c-1.105,0-2-0.895-2-2V3c0-1.105,0.895-2,2-2h42c1.105,0,2,0.895,2,2v20C55,24.105,54.105,25,53,25 z"></path> <path fill="#61616b" d="M53,63H11c-1.105,0-2-0.895-2-2V41c0-1.105,0.895-2,2-2h42c1.105,0,2,0.895,2,2v20 C55,62.105,54.105,63,53,63z"></path> <path data-color="color-2" fill="#61616b" d="M62,33H2c-0.553,0-1-0.448-1-1s0.447-1,1-1h60c0.553,0,1,0.448,1,1S62.553,33,62,33z"></path></g></svg>