<svg xmlns="http://www.w3.org/2000/svg" height="16" width="16" viewBox="0 0 16 16"><title>divider 2</title><g fill="#61616b" class="nc-icon-wrapper"><path fill="#61616b" d="M1,1v3c0,0.552,0.448,1,1,1h12c0.552,0,1-0.448,1-1V1c0-0.552-0.448-1-1-1H2C1.448,0,1,0.448,1,1z"></path> <path fill="#61616b" d="M1,12v3c0,0.552,0.448,1,1,1h12c0.552,0,1-0.448,1-1v-3c0-0.552-0.448-1-1-1H2C1.448,11,1,11.448,1,12z"></path> <path data-color="color-2" fill="#61616b" d="M15,9H1C0.448,9,0,8.552,0,8v0c0-0.552,0.448-1,1-1h14c0.552,0,1,0.448,1,1v0 C16,8.552,15.552,9,15,9z"></path></g></svg>