<svg xmlns="http://www.w3.org/2000/svg" height="32" width="32" viewBox="0 0 32 32"><title>divider 5</title><g fill="#61616b" class="nc-icon-wrapper"><path fill="#61616b" d="M27,12H5c-0.553,0-1-0.448-1-1V1c0-0.552,0.447-1,1-1h22c0.553,0,1,0.448,1,1v10C28,11.552,27.553,12,27,12z "></path> <path fill="#61616b" d="M27,32H5c-0.553,0-1-0.448-1-1V21c0-0.552,0.447-1,1-1h22c0.553,0,1,0.448,1,1v10C28,31.552,27.553,32,27,32 z"></path> <path data-color="color-2" fill="#61616b" d="M31,17H1c-0.553,0-1-0.448-1-1s0.447-1,1-1h30c0.553,0,1,0.448,1,1S31.553,17,31,17z"></path></g></svg>