<svg xmlns="http://www.w3.org/2000/svg" height="64" width="64" viewBox="0 0 64 64"><title>drag 2</title><g fill="#61616b" class="nc-icon-wrapper"><path data-color="color-2" fill="#61616b" d="M2,9C1.447,9,1,8.552,1,8V2c0-0.552,0.447-1,1-1h6c0.553,0,1,0.448,1,1S8.553,3,8,3H3v5 C3,8.552,2.553,9,2,9z"></path> <path data-color="color-2" fill="#61616b" d="M8,48H2c-0.553,0-1-0.448-1-1v-6c0-0.552,0.447-1,1-1s1,0.448,1,1v5h5c0.553,0,1,0.448,1,1 S8.553,48,8,48z"></path> <path data-color="color-2" fill="#61616b" d="M47,9c-0.553,0-1-0.448-1-1V3h-5c-0.553,0-1-0.448-1-1s0.447-1,1-1h6c0.553,0,1,0.448,1,1v6 C48,8.552,47.553,9,47,9z"></path> <path data-color="color-2" fill="#61616b" d="M21,3h-6c-0.553,0-1-0.448-1-1s0.447-1,1-1h6c0.553,0,1,0.448,1,1S21.553,3,21,3z"></path> <path data-color="color-2" fill="#61616b" d="M2,22c-0.553,0-1-0.448-1-1v-6c0-0.552,0.447-1,1-1s1,0.448,1,1v6C3,21.552,2.553,22,2,22z"></path> <path data-color="color-2" fill="#61616b" d="M2,35c-0.553,0-1-0.448-1-1v-6c0-0.552,0.447-1,1-1s1,0.448,1,1v6C3,34.552,2.553,35,2,35z"></path> <path data-color="color-2" fill="#61616b" d="M47,22c-0.553,0-1-0.448-1-1v-6c0-0.552,0.447-1,1-1s1,0.448,1,1v6 C48,21.552,47.553,22,47,22z"></path> <path data-color="color-2" fill="#61616b" d="M47,31c-0.553,0-1-0.448-1-1v-2c0-0.552,0.447-1,1-1s1,0.448,1,1v2 C48,30.552,47.553,31,47,31z"></path> <path data-color="color-2" fill="#61616b" d="M34,3h-6c-0.553,0-1-0.448-1-1s0.447-1,1-1h6c0.553,0,1,0.448,1,1S34.553,3,34,3z"></path> <path data-color="color-2" fill="#61616b" d="M21,48h-6c-0.553,0-1-0.448-1-1s0.447-1,1-1h6c0.553,0,1,0.448,1,1S21.553,48,21,48z"></path> <path data-color="color-2" fill="#61616b" d="M30,48h-2c-0.553,0-1-0.448-1-1s0.447-1,1-1h2c0.553,0,1,0.448,1,1S30.553,48,30,48z"></path> <path fill="#61616b" d="M62.707,57.293L51.688,46.274l10.759-5.379c0.368-0.184,0.586-0.575,0.549-0.985 c-0.037-0.41-0.322-0.755-0.717-0.87l-31-9c-0.355-0.1-0.729-0.005-0.986,0.253c-0.258,0.258-0.355,0.636-0.253,0.986l9,31 c0.114,0.396,0.46,0.68,0.869,0.717C39.94,62.999,39.971,63,40,63c0.376,0,0.724-0.212,0.895-0.553l5.38-10.759l11.019,11.019 c0.391,0.391,1.023,0.391,1.414,0l4-4C63.098,58.316,63.098,57.684,62.707,57.293z"></path></g></svg>