<svg xmlns="http://www.w3.org/2000/svg" height="32" width="32" viewBox="0 0 32 32"><title>drag 4</title><g fill="#61616b" class="nc-icon-wrapper"><path data-color="color-2" fill="#61616b" d="M2,5H0V1c0-0.552,0.447-1,1-1h4v2H2V5z"></path> <path data-color="color-2" fill="#61616b" d="M5,29H1c-0.553,0-1-0.448-1-1v-4h2v3h3V29z"></path> <path data-color="color-2" fill="#61616b" d="M29,5h-2V2h-3V0h4c0.553,0,1,0.448,1,1V5z"></path> <rect data-color="color-2" x="8" fill="#61616b" width="5" height="2"></rect> <rect data-color="color-2" x="16" fill="#61616b" width="5" height="2"></rect> <rect data-color="color-2" x="8" y="27" fill="#61616b" width="5" height="2"></rect> <rect data-color="color-2" y="8" fill="#61616b" width="2" height="5"></rect> <rect data-color="color-2" y="16" fill="#61616b" width="2" height="5"></rect> <rect data-color="color-2" x="27" y="8" fill="#61616b" width="2" height="5"></rect> <path fill="#61616b" d="M30.561,28.439l-6.211-6.211L30,19l-15-4l4,15l3.229-5.65l6.211,6.211c0.586,0.586,1.535,0.586,2.121,0 C31.146,29.975,31.146,29.025,30.561,28.439z"></path></g></svg>