<svg xmlns="http://www.w3.org/2000/svg" height="24" width="24" viewBox="0 0 24 24"><title>drag</title><g fill="#61616b" class="nc-icon-wrapper"><polygon data-color="color-2" fill="#61616b" points="2,5 0,5 0,0 5,0 5,2 2,2 "></polygon> <polygon data-color="color-2" fill="#61616b" points="5,20 0,20 0,15 2,15 2,18 5,18 "></polygon> <polygon data-color="color-2" fill="#61616b" points="20,5 18,5 18,2 15,2 15,0 20,0 "></polygon> <rect data-color="color-2" x="8" fill="#61616b" width="4" height="2"></rect> <rect data-color="color-2" x="8" y="18" fill="#61616b" width="4" height="2"></rect> <rect data-color="color-2" x="18" y="8" fill="#61616b" width="2" height="4"></rect> <rect data-color="color-2" y="8" fill="#61616b" width="2" height="4"></rect> <polygon fill="#61616b" points="24,16 13,13 16,24 18,20 22,24 24,22 20,18 "></polygon></g></svg>