<svg xmlns="http://www.w3.org/2000/svg" height="48" width="48" viewBox="0 0 48 48"><title>drag 3</title><g fill="#61616b" class="nc-icon-wrapper"><path data-color="color-2" fill="#61616b" d="M2,9C1.447,9,1,8.552,1,8V2c0-0.552,0.447-1,1-1h6c0.553,0,1,0.448,1,1S8.553,3,8,3H3v5 C3,8.552,2.553,9,2,9z"></path> <path data-color="color-2" fill="#61616b" d="M8,43H2c-0.553,0-1-0.448-1-1v-6c0-0.552,0.447-1,1-1s1,0.448,1,1v5h5c0.553,0,1,0.448,1,1 S8.553,43,8,43z"></path> <path data-color="color-2" fill="#61616b" d="M42,9c-0.553,0-1-0.448-1-1V3h-5c-0.553,0-1-0.448-1-1s0.447-1,1-1h6c0.553,0,1,0.448,1,1v6 C43,8.552,42.553,9,42,9z"></path> <path fill="#61616b" d="M46.707,41.293L36.688,31.274l8.759-4.379c0.367-0.184,0.585-0.573,0.549-0.982 c-0.036-0.409-0.318-0.754-0.712-0.871l-27-8c-0.354-0.104-0.732-0.008-0.991,0.252c-0.26,0.259-0.355,0.64-0.252,0.991l8,27 c0.117,0.394,0.462,0.676,0.871,0.712c0.402,0.035,0.798-0.182,0.982-0.549l4.38-8.759l10.019,10.019C41.488,46.902,41.744,47,42,47 s0.512-0.098,0.707-0.293l4-4C47.098,42.316,47.098,41.684,46.707,41.293z"></path> <path data-color="color-2" fill="#61616b" d="M19,3h-5c-0.553,0-1-0.448-1-1s0.447-1,1-1h5c0.553,0,1,0.448,1,1S19.553,3,19,3z"></path> <path data-color="color-2" fill="#61616b" d="M19,43h-5c-0.553,0-1-0.448-1-1s0.447-1,1-1h5c0.553,0,1,0.448,1,1S19.553,43,19,43z"></path> <path data-color="color-2" fill="#61616b" d="M30,3h-5c-0.553,0-1-0.448-1-1s0.447-1,1-1h5c0.553,0,1,0.448,1,1S30.553,3,30,3z"></path> <path data-color="color-2" fill="#61616b" d="M2,20c-0.553,0-1-0.448-1-1v-5c0-0.552,0.447-1,1-1s1,0.448,1,1v5C3,19.552,2.553,20,2,20z"></path> <path data-color="color-2" fill="#61616b" d="M42,20c-0.553,0-1-0.448-1-1v-5c0-0.552,0.447-1,1-1s1,0.448,1,1v5C43,19.552,42.553,20,42,20 z"></path> <path data-color="color-2" fill="#61616b" d="M2,31c-0.553,0-1-0.448-1-1v-5c0-0.552,0.447-1,1-1s1,0.448,1,1v5C3,30.552,2.553,31,2,31z"></path></g></svg>