<svg xmlns="http://www.w3.org/2000/svg" height="32" width="32" viewBox="0 0 32 32"><title>edit levels 4</title><g fill="#61616b" class="nc-icon-wrapper"><path d="M0,28V26l3-2,3,2v2a1,1,0,0,1-1,1H1A1,1,0,0,1,0,28Z" fill="#61616b"></path><path d="M13,28V26l3-2,3,2v2a1,1,0,0,1-1,1H14A1,1,0,0,1,13,28Z" fill="#61616b"></path><path d="M26,28V26l3-2,3,2v2a1,1,0,0,1-1,1H27A1,1,0,0,1,26,28Z" fill="#61616b"></path><rect x="1" y="9" width="2" height="13" fill="#61616b" data-color="color-2"></rect><rect x="13" y="11" width="2" height="11" fill="#61616b"></rect><rect x="25" y="5" width="2" height="17" fill="#61616b" data-color="color-2"></rect><rect x="29" y="3" width="2" height="19" fill="#61616b"></rect><rect x="5" y="3" width="2" height="19" fill="#61616b"></rect><rect x="9" y="16" width="2" height="6" fill="#61616b" data-color="color-2"></rect><rect x="17" y="3" width="2" height="19" fill="#61616b" data-color="color-2"></rect><rect x="21" y="11" width="2" height="11" fill="#61616b"></rect></g></svg>