<svg xmlns="http://www.w3.org/2000/svg" height="32" width="32" viewBox="0 0 32 32"><title>empty 4</title><g fill="#61616b" class="nc-icon-wrapper"><path d="M8.225,23.775a11,11,0,1,1,15.55-15.55l2.12-2.12A13.994,13.994,0,1,0,6.105,25.9Z" fill="#61616b"></path><path d="M25.6,10.643A10.988,10.988,0,0,1,10.643,25.6l-2.18,2.18A13.977,13.977,0,0,0,27.779,8.463Z" fill="#61616b"></path><path d="M2,31a1,1,0,0,1-.707-1.707l28-28a1,1,0,0,1,1.414,1.414l-28,28A1,1,0,0,1,2,31Z" fill="#61616b" data-color="color-2"></path></g></svg>