<svg xmlns="http://www.w3.org/2000/svg" height="64" width="64" viewBox="0 0 64 64"><title>empty 2</title><g fill="#61616b" class="nc-icon-wrapper"><path d="M17.158,46.842A20.99,20.99,0,1,1,46.842,17.158l4.241-4.241A26.987,26.987,0,1,0,12.917,51.083Z" fill="#61616b"></path><path d="M48.8,19.447A20.96,20.96,0,0,1,19.447,48.8L15.16,53.082A26.979,26.979,0,0,0,53.082,15.16Z" fill="#61616b"></path><path d="M4,61a1,1,0,0,1-.707-1.707l56-56a1,1,0,1,1,1.414,1.414l-56,56A1,1,0,0,1,4,61Z" fill="#61616b" data-color="color-2"></path></g></svg>