<svg xmlns="http://www.w3.org/2000/svg" height="48" width="48" viewBox="0 0 48 48"><title>empty 3</title><g fill="#61616b" class="nc-icon-wrapper"><path d="M12.692,35.308A15.992,15.992,0,1,1,35.308,12.692l2.828-2.828A19.991,19.991,0,1,0,9.864,38.136Z" fill="#61616b"></path><path d="M37.229,15.014A15.99,15.99,0,0,1,15.014,37.229L12.16,40.082A19.962,19.962,0,0,0,40.082,12.16Z" fill="#61616b"></path><path d="M3,46a1,1,0,0,1-.707-1.707l42-42a1,1,0,1,1,1.414,1.414l-42,42A1,1,0,0,1,3,46Z" fill="#61616b" data-color="color-2"></path></g></svg>