<svg xmlns="http://www.w3.org/2000/svg" height="24" width="24" viewBox="0 0 24 24"><title>empty 5</title><g fill="#61616b" class="nc-icon-wrapper"><path d="M4.932,19.068l1.414-1.414A8,8,0,1,1,17.654,6.346l1.414-1.414A10,10,0,1,0,4.932,19.068Z" fill="#61616b"></path><path d="M19.365,8.877A8,8,0,0,1,8.877,19.365l-1.5,1.5a9.987,9.987,0,0,0,13.48-13.48Z" fill="#61616b"></path><path d="M2,23a1,1,0,0,1-.707-1.707l20-20a1,1,0,0,1,1.414,1.414l-20,20A1,1,0,0,1,2,23Z" fill="#61616b" data-color="color-2"></path></g></svg>