<svg xmlns="http://www.w3.org/2000/svg" height="64" width="64" viewBox="0 0 64 64"><title>eraser 32 3</title><g fill="#61616b" class="nc-icon-wrapper"><path data-color="color-2" fill="#61616b" d="M15,13h34V4c0-1.105-0.895-2-2-2H17c-1.105,0-2,0.895-2,2V13z"></path> <path data-color="color-2" fill="#61616b" d="M49,51H15v9c0,1.105,0.895,2,2,2h30c1.105,0,2-0.895,2-2V51z"></path> <path fill="#61616b" d="M50,15H14c-0.552,0-1,0.448-1,1v32c0,0.552,0.448,1,1,1h36c0.552,0,1-0.448,1-1V16 C51,15.448,50.552,15,50,15z M23,40c0,0.552-0.448,1-1,1s-1-0.448-1-1V30c0-0.552,0.448-1,1-1s1,0.448,1,1V40z"></path></g></svg>