<svg xmlns="http://www.w3.org/2000/svg" height="48" width="48" viewBox="0 0 48 48"><title>eraser 32 4</title><g fill="#61616b" class="nc-icon-wrapper"><path data-color="color-2" fill="#61616b" d="M11,9h26V3c0-1.105-0.895-2-2-2H13c-1.105,0-2,0.895-2,2V9z"></path> <path data-color="color-2" fill="#61616b" d="M37,39H11v6c0,1.105,0.895,2,2,2h22c1.105,0,2-0.895,2-2V39z"></path> <path fill="#61616b" d="M38,11H10c-0.552,0-1,0.448-1,1v24c0,0.552,0.448,1,1,1h28c0.552,0,1-0.448,1-1V12 C39,11.448,38.552,11,38,11z M15,31c0,0.552-0.448,1-1,1s-1-0.448-1-1v-6c0-0.552,0.448-1,1-1s1,0.448,1,1V31z"></path></g></svg>