<svg xmlns="http://www.w3.org/2000/svg" height="16" width="16" viewBox="0 0 16 16"><title>fairy wand</title><g fill="#61616b" class="nc-icon-wrapper"><path d="M4.5,3c-.827,0-1.5-.673-1.5-1.5,0-.276-.224-.5-.5-.5s-.5,.224-.5,.5c0,.827-.673,1.5-1.5,1.5-.276,0-.5,.224-.5,.5s.224,.5,.5,.5c.827,0,1.5,.673,1.5,1.5,0,.276,.224,.5,.5,.5s.5-.224,.5-.5c0-.827,.673-1.5,1.5-1.5,.276,0,.5-.224,.5-.5s-.224-.5-.5-.5Z" fill="#61616b"></path><path d="M14.5,13c-.827,0-1.5-.673-1.5-1.5,0-.276-.224-.5-.5-.5s-.5,.224-.5,.5c0,.827-.673,1.5-1.5,1.5-.276,0-.5,.224-.5,.5s.224,.5,.5,.5c.827,0,1.5,.673,1.5,1.5,0,.276,.224,.5,.5,.5s.5-.224,.5-.5c0-.827,.673-1.5,1.5-1.5,.276,0,.5-.224,.5-.5s-.224-.5-.5-.5Z" fill="#61616b"></path><path d="M8.325,7.675l-1.062-.352L.293,14.293c-.391,.391-.391,1.023,0,1.414,.195,.195,.451,.293,.707,.293s.512-.098,.707-.293l6.97-6.969-.352-1.063Z" fill="#61616b"></path><path d="M10.819,9.392c-.025,0-.05-.002-.075-.006-.177-.028-.323-.152-.379-.322l-.852-2.577-2.577-.852c-.169-.056-.294-.203-.322-.379s.045-.354,.189-.46l2.188-1.606,.014-2.714c0-.178,.102-.342,.261-.423,.16-.082,.351-.066,.496,.037l2.204,1.584,2.586-.825c.17-.053,.357-.009,.483,.118s.172,.313,.117,.484l-.826,2.585,1.585,2.205c.104,.146,.119,.337,.037,.496-.081,.16-.245,.26-.423,.261l-2.714,.014-1.606,2.187c-.091,.124-.234,.195-.385,.195Z" fill="#61616b" data-color="color-2"></path></g></svg>