<svg xmlns="http://www.w3.org/2000/svg" height="32" width="32" viewBox="0 0 32 32"><title>fairy wand 4</title><g fill="#61616b" class="nc-icon-wrapper"><path d="M31.226,11.384l-2.672-3.718,1.393-4.362c.114-.356,.019-.746-.246-1.011s-.655-.359-1.011-.246l-4.361,1.393-3.718-2.672c-.304-.217-.703-.248-1.038-.078-.333,.17-.544,.512-.546,.886l-.024,4.578-3.69,2.71c-.302,.221-.455,.593-.396,.962,.059,.37,.318,.676,.674,.793l4.347,1.438,1.438,4.348c.117,.355,.423,.615,.793,.674,.052,.009,.104,.013,.156,.013,.315,0,.616-.149,.806-.408l2.71-3.69,4.579-.023c.374-.002,.716-.213,.886-.546,.17-.334,.139-.733-.079-1.038Z" fill="#61616b" data-color="color-2"></path><path d="M18.354,13.639l-1.058-.35L1.293,29.293c-.391,.391-.391,1.023,0,1.414,.195,.195,.451,.293,.707,.293s.512-.098,.707-.293L18.708,14.706l-.353-1.068Z" fill="#61616b"></path><path d="M7,2c-.553,0-1,.448-1,1h0c0,1.105-.895,2-2,2h0c-.553,0-1,.448-1,1,0,.552,.447,1,1,1h0c1.105,0,2,.895,2,2h0c0,.552,.447,1,1,1s1-.448,1-1h0c0-1.105,.895-2,2-2h0c.553,0,1-.448,1-1,0-.552-.447-1-1-1h0c-1.105,0-2-.895-2-2h0c0-.552-.447-1-1-1Z" fill="#61616b"></path><path d="M26,21c-.553,0-1,.448-1,1h0c0,1.105-.895,2-2,2h0c-.553,0-1,.448-1,1,0,.552,.447,1,1,1h0c1.105,0,2,.895,2,2h0c0,.552,.447,1,1,1s1-.448,1-1h0c0-1.105,.895-2,2-2h0c.553,0,1-.448,1-1,0-.552-.447-1-1-1h0c-1.105,0-2-.895-2-2h0c0-.552-.447-1-1-1Z" fill="#61616b"></path></g></svg>