<svg xmlns="http://www.w3.org/2000/svg" height="64" width="64" viewBox="0 0 64 64"><title>fairy wand 2</title><g fill="#61616b" class="nc-icon-wrapper"><path d="M13,11c3.309,0,6,2.691,6,6,0,.553,.447,1,1,1s1-.447,1-1c0-3.309,2.691-6,6-6,.553,0,1-.447,1-1s-.447-1-1-1c-3.309,0-6-2.691-6-6,0-.553-.447-1-1-1s-1,.447-1,1c0,3.309-2.691,6-6,6-.553,0-1,.447-1,1s.447,1,1,1Z" fill="#61616b"></path><path d="M54,52c.553,0,1-.447,1-1,0-3.309,2.691-6,6-6,.553,0,1-.447,1-1,0-.553-.447-1-1-1-3.309,0-6-2.691-6-6,0-.553-.447-1-1-1s-1,.447-1,1c0,3.309-2.691,6-6,6-.553,0-1,.447-1,1,0,.553,.447,1,1,1,3.309,0,6,2.691,6,6,0,.553,.447,1,1,1Z" fill="#61616b"></path><path d="M42.521,35c-.052,0-.104-.004-.156-.013-.37-.059-.676-.318-.793-.674l-2.954-8.931-8.931-2.954c-.355-.117-.615-.423-.674-.793-.059-.369,.094-.741,.396-.962l7.592-5.568V5.697c.002-.375,.213-.716,.546-.886,.334-.17,.734-.139,1.038,.078l7.678,5.491,8.962-2.86c.355-.114,.746-.02,1.011,.245s.359,.654,.245,1.011l-2.86,8.962,5.491,7.678c.218,.305,.248,.704,.078,1.038-.17,.333-.511,.544-.886,.546h-9.408l-5.568,7.592c-.189,.259-.49,.408-.806,.408Z" fill="#61616b" data-color="color-2"></path><path d="M37.034,26.966l-1.063-.352L4.293,58.293c-.391,.391-.391,1.023,0,1.414,.195,.195,.451,.293,.707,.293s.512-.098,.707-.293l31.679-31.679-.352-1.063Z" fill="#61616b"></path><path d="M18,28c-2.206,0-4-1.794-4-4,0-.553-.447-1-1-1s-1,.447-1,1c0,2.206-1.794,4-4,4-.553,0-1,.447-1,1s.447,1,1,1c2.206,0,4,1.794,4,4,0,.553,.447,1,1,1s1-.447,1-1c0-2.206,1.794-4,4-4,.553,0,1-.447,1-1s-.447-1-1-1Z" fill="#61616b" data-color="color-2"></path><path d="M40,50c-2.206,0-4-1.794-4-4,0-.553-.447-1-1-1s-1,.447-1,1c0,2.206-1.794,4-4,4-.553,0-1,.447-1,1s.447,1,1,1c2.206,0,4,1.794,4,4,0,.553,.447,1,1,1s1-.447,1-1c0-2.206,1.794-4,4-4,.553,0,1-.447,1-1s-.447-1-1-1Z" fill="#61616b" data-color="color-2"></path></g></svg>