<svg xmlns="http://www.w3.org/2000/svg" height="48" width="48" viewBox="0 0 48 48"><title>fairy wand 3</title><g fill="#61616b" class="nc-icon-wrapper"><path d="M31.74,26.985c-.052,0-.104-.004-.156-.013-.369-.058-.675-.317-.793-.673l-2.265-6.825-6.845-2.265c-.355-.117-.615-.424-.673-.793-.059-.37,.095-.741,.396-.963l5.811-4.257,.037-7.208c.002-.375,.213-.717,.547-.887,.332-.168,.733-.14,1.038,.08l5.844,4.211,6.868-2.192c.355-.112,.747-.019,1.012,.246,.264,.266,.358,.656,.244,1.013l-2.199,6.858,4.207,5.854c.219,.305,.249,.705,.079,1.038-.17,.334-.512,.544-.887,.546l-7.204,.029-4.256,5.792c-.189,.259-.49,.408-.806,.408Z" fill="#61616b" data-color="color-2"></path><path d="M26.944,21.058l-1.064-.352L3.293,43.293c-.391,.391-.391,1.023,0,1.414,.195,.195,.451,.293,.707,.293s.512-.098,.707-.293L27.296,22.118l-.352-1.06Z" fill="#61616b"></path><path d="M15,9h0c-2.209,0-4-1.791-4-4h0c0-.553-.447-1-1-1s-1,.447-1,1h0c0,2.209-1.791,4-4,4h0c-.553,0-1,.447-1,1s.447,1,1,1h0c2.209,0,4,1.791,4,4h0c0,.553,.447,1,1,1s1-.447,1-1h0c0-2.209,1.791-4,4-4h0c.553,0,1-.447,1-1s-.447-1-1-1Z" fill="#61616b"></path><path d="M43,37h0c-2.209,0-4-1.791-4-4h0c0-.553-.447-1-1-1s-1,.447-1,1h0c0,2.209-1.791,4-4,4h0c-.553,0-1,.447-1,1s.447,1,1,1h0c2.209,0,4,1.791,4,4h0c0,.553,.447,1,1,1s1-.447,1-1h0c0-2.209,1.791-4,4-4h0c.553,0,1-.447,1-1s-.447-1-1-1Z" fill="#61616b"></path></g></svg>