<svg xmlns="http://www.w3.org/2000/svg" height="24" width="24" viewBox="0 0 24 24"><title>fairy wand 5</title><g fill="#61616b" class="nc-icon-wrapper"><path d="M7,3.5c-.827,0-1.5-.673-1.5-1.5,0-.552-.448-1-1-1s-1,.448-1,1c0,.827-.673,1.5-1.5,1.5-.552,0-1,.448-1,1s.448,1,1,1c.827,0,1.5,.673,1.5,1.5,0,.552,.448,1,1,1s1-.448,1-1c0-.827,.673-1.5,1.5-1.5,.552,0,1-.448,1-1s-.448-1-1-1Z" fill="#61616b"></path><path d="M22,18.5c-.827,0-1.5-.673-1.5-1.5,0-.552-.448-1-1-1s-1,.448-1,1c0,.827-.673,1.5-1.5,1.5-.552,0-1,.448-1,1s.448,1,1,1c.827,0,1.5,.673,1.5,1.5,0,.552,.448,1,1,1s1-.448,1-1c0-.827,.673-1.5,1.5-1.5,.552,0,1-.448,1-1s-.448-1-1-1Z" fill="#61616b"></path><path d="M15.885,14c-.052,0-.104-.004-.156-.013-.376-.06-.686-.327-.799-.69l-1.002-3.225-3.225-1.002c-.363-.113-.631-.423-.691-.799s.1-.753,.41-.973l2.757-1.95-.043-3.376c-.005-.381,.207-.73,.546-.903,.338-.174,.747-.139,1.052,.089l2.707,2.02,3.197-1.085c.36-.119,.759-.029,1.028,.24,.269,.269,.362,.668,.24,1.028l-1.084,3.198,2.019,2.706c.228,.305,.263,.713,.09,1.052s-.54,.543-.904,.546l-3.376-.043-1.95,2.757c-.189,.268-.495,.423-.816,.423Z" fill="#61616b" data-color="color-2"></path><path d="M12.33,11.67l-1.079-.335L1.293,21.293c-.391,.391-.391,1.023,0,1.414,.195,.195,.451,.293,.707,.293s.512-.098,.707-.293L12.665,12.749l-.335-1.079Z" fill="#61616b"></path></g></svg>