<svg xmlns="http://www.w3.org/2000/svg" height="32" width="32" viewBox="0 0 32 32"><title>file jsp</title><g fill="#61616b" class="nc-icon-wrapper"><path data-color="color-2" fill="#61616b" d="M3,29v2c0,0.6,0.4,1,1,1h24c0.6,0,1-0.4,1-1v-2H3z"></path> <polygon data-color="color-2" fill="#61616b" points="22,1.6 22,7 27.4,7 "></polygon> <path fill="#61616b" d="M31,13h-2V9h-8c-0.6,0-1-0.4-1-1V0H4C3.4,0,3,0.4,3,1v12H1c-0.6,0-1,0.4-1,1v12c0,0.6,0.4,1,1,1h30 c0.6,0,1-0.4,1-1V14C32,13.4,31.6,13,31,13z M12,22.4c0,0.8-0.2,1.4-0.5,1.8s-0.8,0.6-1.5,0.6c-0.3,0-0.5,0-0.8-0.1v-1.2 c0.1,0,0.2,0,0.3,0.1s0.2,0,0.3,0c0.3,0,0.4-0.1,0.5-0.2s0.2-0.4,0.2-0.8v-5.3H12V22.4z M14.7,19.1c0.1,0.1,0.4,0.2,0.9,0.5 c0.5,0.2,0.8,0.5,1,0.7s0.3,0.6,0.3,1c0,0.4-0.1,0.7-0.3,0.9s-0.4,0.5-0.8,0.6s-0.7,0.2-1.2,0.2c-0.4,0-0.7,0-1-0.1 s-0.5-0.1-0.8-0.3v-1.4c0.3,0.2,0.6,0.3,0.9,0.4s0.6,0.1,0.9,0.1c0.2,0,0.4,0,0.5-0.1s0.2-0.2,0.2-0.3c0-0.1,0-0.1-0.1-0.2 s-0.1-0.1-0.2-0.2s-0.3-0.2-0.8-0.4c-0.4-0.2-0.7-0.3-0.8-0.5s-0.3-0.3-0.4-0.5C13,19.4,13,19.2,13,18.9c0-0.5,0.2-0.9,0.6-1.2 s0.9-0.4,1.6-0.4c0.6,0,1.2,0.1,1.8,0.4l-0.5,1.2c-0.5-0.2-1-0.4-1.4-0.4c-0.2,0-0.3,0-0.4,0.1s-0.1,0.2-0.1,0.3 C14.5,18.9,14.6,19,14.7,19.1z M21.4,20.6c-0.4,0.3-0.9,0.5-1.6,0.5h-0.4V23h-1.5v-5.7h2c0.7,0,1.3,0.2,1.6,0.5s0.5,0.8,0.5,1.3 C22,19.7,21.8,20.2,21.4,20.6z"></path> <path fill="#61616b" d="M19.7,18.5h-0.4v1.3h0.3c0.2,0,0.4-0.1,0.6-0.2s0.2-0.3,0.2-0.5C20.4,18.7,20.2,18.5,19.7,18.5z"></path></g></svg>