<svg xmlns="http://www.w3.org/2000/svg" height="64" width="64" viewBox="0 0 64 64"><title>file raw 2</title><g fill="#61616b" class="nc-icon-wrapper"><polygon data-color="color-2" fill="#61616b" points="42,2.6 42,16 55.4,16 "></polygon> <path fill="#61616b" d="M57,29V18H41c-0.6,0-1-0.4-1-1V1H8C7.4,1,7,1.4,7,2v27H57z"></path> <path fill="#61616b" d="M7,56v6c0,0.6,0.4,1,1,1h48c0.6,0,1-0.4,1-1v-6H7z"></path> <path data-color="color-2" fill="#61616b" d="M30,39.1c-0.1,0.5-0.5,1.9-1.2,4h2.4c-0.6-2-1-3.1-1.1-3.4C30.1,39.5,30,39.3,30,39.1z"></path> <path data-color="color-2" fill="#61616b" d="M20.4,39.3h-0.6v2.5h0.6c0.6,0,1.1-0.1,1.4-0.3s0.4-0.5,0.4-1c0-0.4-0.2-0.8-0.5-0.9 C21.5,39.4,21,39.3,20.4,39.3z"></path> <path data-color="color-2" fill="#61616b" d="M61,31H3c-0.6,0-1,0.4-1,1v21c0,0.6,0.4,1,1,1h58c0.6,0,1-0.4,1-1V32C62,31.4,61.6,31,61,31z M23.1,47l-2.2-3.6h-1V47h-2v-9.3h2.7c1.3,0,2.2,0.2,2.8,0.7s0.9,1.2,0.9,2.1c0,0.5-0.2,1-0.5,1.5c-0.3,0.4-0.7,0.8-1.3,1 c1.4,2.1,2.3,3.4,2.7,4H23.1z M32.4,47l-0.7-2.2h-3.4L27.6,47h-2.1l3.3-9.3h2.4l3.3,9.3H32.4z M45,47h-2.2l-1.3-4.9 c0-0.2-0.1-0.5-0.2-1.1C41.1,40.5,41,40.1,41,40c0,0.2-0.1,0.6-0.2,1.1s-0.2,0.9-0.2,1.1L39.4,47h-2.2l-2.4-9.3h1.9l1.2,5.1 c0.2,0.9,0.4,1.7,0.5,2.4c0-0.2,0.1-0.6,0.2-1.1c0.1-0.5,0.2-0.9,0.3-1.2l1.4-5.2H42l1.4,5.2c0.1,0.2,0.1,0.6,0.2,1.1 c0.1,0.5,0.2,0.9,0.2,1.2c0-0.3,0.1-0.7,0.2-1.2s0.2-0.9,0.3-1.2l1.2-5.1h1.9L45,47z"></path></g></svg>