<svg xmlns="http://www.w3.org/2000/svg" height="64" width="64" viewBox="0 0 64 64"><title>file otf 2</title><g fill="#61616b" class="nc-icon-wrapper"><polygon data-color="color-2" fill="#61616b" points="42,2.6 42,16 55.4,16 "></polygon> <path fill="#61616b" d="M57,29V18H41c-0.6,0-1-0.4-1-1V1H8C7.4,1,7,1.4,7,2v27H57z"></path> <path fill="#61616b" d="M7,56v6c0,0.6,0.4,1,1,1h48c0.6,0,1-0.4,1-1v-6H7z"></path> <path data-color="color-2" fill="#61616b" d="M61,31H3c-0.6,0-1,0.4-1,1v21c0,0.6,0.4,1,1,1h58c0.6,0,1-0.4,1-1V32C62,31.4,61.6,31,61,31 z M27.7,45.9c-0.8,0.8-1.9,1.2-3.3,1.2s-2.5-0.4-3.3-1.2c-0.8-0.8-1.1-2-1.1-3.6c0-1.5,0.4-2.7,1.1-3.5c0.8-0.8,1.9-1.2,3.3-1.2 s2.5,0.4,3.3,1.2c0.8,0.8,1.1,2,1.1,3.5C28.8,43.9,28.4,45.1,27.7,45.9z M37.1,39.4h-2.5V47h-2v-7.6h-2.5v-1.6h7V39.4z M44.1,39.3 h-3.4v2.4h3.1v1.6h-3.1V47h-1.9v-9.3h5.3V39.3z"></path> <path data-color="color-2" fill="#61616b" d="M24.4,39.2c-0.8,0-1.4,0.3-1.8,0.8c-0.4,0.5-0.6,1.3-0.6,2.3c0,1,0.2,1.8,0.6,2.3 s1,0.8,1.8,0.8c1.6,0,2.4-1,2.4-3.1C26.8,40.3,26,39.2,24.4,39.2z"></path></g></svg>