<svg xmlns="http://www.w3.org/2000/svg" height="48" width="48" viewBox="0 0 48 48"><title>file ruby 3</title><g fill="#61616b" class="nc-icon-wrapper"><path fill="#61616b" d="M5,43v3c0,0.552,0.447,1,1,1h36c0.553,0,1-0.448,1-1v-3H5z"></path> <path fill="#61616b" d="M43,21v-7H31c-0.553,0-1-0.448-1-1V1H6C5.447,1,5,1.448,5,2v19H43z"></path> <polygon data-color="color-2" fill="#61616b" points="32,2.586 32,12 41.414,12 "></polygon> <path data-color="color-2" fill="#61616b" d="M28.332,30.973c0.167-0.125,0.25-0.312,0.25-0.559c0-0.44-0.333-0.66-0.999-0.66h-0.596 v1.406h0.639C27.93,31.16,28.166,31.098,28.332,30.973z"></path> <path data-color="color-2" fill="#61616b" d="M27.69,32.713h-0.704v1.648h0.747c0.663,0,0.994-0.279,0.994-0.838 c0-0.261-0.088-0.461-0.266-0.602C28.284,32.783,28.026,32.713,27.69,32.713z"></path> <path data-color="color-2" fill="#61616b" d="M19.961,29.754h-0.419v1.793h0.397c0.741,0,1.112-0.327,1.112-0.982 C21.051,30.023,20.688,29.754,19.961,29.754z"></path> <path data-color="color-2" fill="#61616b" d="M46,23H2c-0.552,0-1,0.448-1,1v16c0,0.552,0.448,1,1,1h44c0.552,0,1-0.448,1-1V24 C47,23.448,46.552,23,46,23z M21.744,36l-1.665-2.857h-0.537V36H17.42v-7.853h2.573c2.134,0,3.201,0.773,3.201,2.32 c0,0.909-0.444,1.613-1.332,2.11L24.15,36H21.744z M30.11,35.385C29.574,35.795,28.845,36,27.921,36h-3.056v-7.853h2.739 c1.067,0,1.859,0.158,2.377,0.476c0.517,0.316,0.776,0.81,0.776,1.479c0,0.44-0.113,0.816-0.338,1.128s-0.523,0.512-0.892,0.602 v0.054c0.487,0.129,0.84,0.344,1.058,0.645s0.328,0.691,0.328,1.171C30.913,34.414,30.645,34.975,30.11,35.385z"></path></g></svg>