<svg xmlns="http://www.w3.org/2000/svg" height="48" width="48" viewBox="0 0 48 48"><title>file md 3</title><g fill="#61616b" class="nc-icon-wrapper"><path fill="#61616b" d="M5,43v3c0,0.552,0.447,1,1,1h36c0.553,0,1-0.448,1-1v-3H5z"></path> <path fill="#61616b" d="M43,21v-7H31c-0.553,0-1-0.448-1-1V1H6C5.447,1,5,1.448,5,2v19H43z"></path> <polygon data-color="color-2" fill="#61616b" points="32,2.586 32,12 41.414,12 "></polygon> <path data-color="color-2" fill="#61616b" d="M28.724,29.861h-0.617v4.399h0.473c0.645,0,1.117-0.187,1.418-0.562 c0.301-0.374,0.451-0.946,0.451-1.716c0-0.72-0.143-1.253-0.428-1.601C29.737,30.035,29.304,29.861,28.724,29.861z"></path> <path data-color="color-2" fill="#61616b" d="M46,23H2c-0.552,0-1,0.448-1,1v16c0,0.552,0.448,1,1,1h44c0.552,0,1-0.448,1-1V24 C47,23.448,46.552,23,46,23z M24.292,36h-1.949v-3.443c0-0.179,0.003-0.378,0.008-0.596c0.006-0.218,0.029-0.754,0.072-1.606h-0.048 L20.791,36h-2.02l-1.605-5.656h-0.049c0.076,0.963,0.113,1.711,0.113,2.245V36h-1.88v-7.853h2.825l1.639,5.575h0.043l1.605-5.575 h2.83V36z M31.568,34.937C30.846,35.646,29.833,36,28.525,36h-2.54v-7.853h2.718c1.261,0,2.233,0.322,2.919,0.967 s1.028,1.576,1.028,2.793C32.65,33.218,32.29,34.228,31.568,34.937z"></path></g></svg>