<svg xmlns="http://www.w3.org/2000/svg" height="32" width="32" viewBox="0 0 32 32"><title>file php</title><g fill="#61616b" class="nc-icon-wrapper"><path data-color="color-2" fill="#61616b" d="M3,29v2c0,0.6,0.4,1,1,1h24c0.6,0,1-0.4,1-1v-2H3z"></path> <polygon data-color="color-2" fill="#61616b" points="22,1.6 22,7 27.4,7 "></polygon> <path fill="#61616b" d="M21.6,18.5h-0.4v1.3h0.3c0.2,0,0.4-0.1,0.6-0.2s0.2-0.3,0.2-0.5C22.3,18.7,22.1,18.5,21.6,18.5z"></path> <path fill="#61616b" d="M10.4,18.5H10v1.3h0.3c0.2,0,0.4-0.1,0.6-0.2s0.2-0.3,0.2-0.5C11.1,18.7,10.9,18.5,10.4,18.5z"></path> <path fill="#61616b" d="M31,13h-2V9h-8c-0.6,0-1-0.4-1-1V0H4C3.4,0,3,0.4,3,1v12H1c-0.6,0-1,0.4-1,1v12c0,0.6,0.4,1,1,1h30 c0.6,0,1-0.4,1-1V14C32,13.4,31.6,13,31,13z M12.1,20.6c-0.4,0.3-0.9,0.5-1.6,0.5H10V23H8.5v-5.7h2c0.7,0,1.3,0.2,1.6,0.5 s0.5,0.8,0.5,1.3C12.6,19.7,12.5,20.2,12.1,20.6z M18.4,23h-1.6v-2.3h-1.8V23h-1.6v-5.7h1.6v2.1h1.8v-2.1h1.6V23z M23.3,20.6 c-0.4,0.3-0.9,0.5-1.6,0.5h-0.4V23h-1.5v-5.7h2c0.7,0,1.3,0.2,1.6,0.5s0.5,0.8,0.5,1.3C23.8,19.7,23.6,20.2,23.3,20.6z"></path></g></svg>