<svg xmlns="http://www.w3.org/2000/svg" height="32" width="32" viewBox="0 0 32 32"><title>file font</title><g fill="#61616b" class="nc-icon-wrapper"><path data-color="color-2" fill="#61616b" d="M3,29v2c0,0.6,0.4,1,1,1h24c0.6,0,1-0.4,1-1v-2H3z"></path> <polygon data-color="color-2" fill="#61616b" points="22,1.6 22,7 27.4,7 "></polygon> <path fill="#61616b" d="M12.5,18.5c-0.8,0-1.2,0.6-1.2,1.7c0,1.1,0.4,1.7,1.2,1.7c0.4,0,0.7-0.1,0.9-0.4s0.3-0.7,0.3-1.3 c0-0.6-0.1-1-0.3-1.3S12.8,18.5,12.5,18.5z"></path> <path fill="#61616b" d="M31,13h-2V9h-8c-0.6,0-1-0.4-1-1V0H4C3.4,0,3,0.4,3,1v12H1c-0.6,0-1,0.4-1,1v12c0,0.6,0.4,1,1,1h30 c0.6,0,1-0.4,1-1V14C32,13.4,31.6,13,31,13z M8.9,18.5H7.1v1.1h1.7v1.2H7.1V23H5.6v-5.7h3.4V18.5z M14.5,22.3 c-0.5,0.5-1.2,0.8-2.1,0.8c-0.9,0-1.6-0.3-2.1-0.8s-0.7-1.2-0.7-2.2c0-1,0.2-1.7,0.7-2.2s1.2-0.8,2.1-0.8c0.9,0,1.6,0.2,2.1,0.7 s0.7,1.2,0.7,2.2C15.2,21.1,15,21.8,14.5,22.3z M21.7,23h-2l-2.1-4h0c0,0.6,0.1,1.1,0.1,1.4V23h-1.4v-5.7h2l2.1,4h0 c0-0.6-0.1-1-0.1-1.4v-2.6h1.4V23z M26.8,18.6h-1.4V23h-1.5v-4.4h-1.4v-1.3h4.3V18.6z"></path></g></svg>