<svg xmlns="http://www.w3.org/2000/svg" height="48" width="48" viewBox="0 0 48 48"><title>file jsp 3</title><g fill="#61616b" class="nc-icon-wrapper"><path fill="#61616b" d="M5,43v3c0,0.552,0.447,1,1,1h36c0.553,0,1-0.448,1-1v-3H5z"></path> <path fill="#61616b" d="M43,21v-7H31c-0.553,0-1-0.448-1-1V1H6C5.447,1,5,1.448,5,2v19H43z"></path> <polygon data-color="color-2" fill="#61616b" points="32,2.586 32,12 41.414,12 "></polygon> <path data-color="color-2" fill="#61616b" d="M29.154,29.861h-0.549v1.805h0.387c0.319,0,0.572-0.09,0.761-0.27 c0.188-0.179,0.282-0.426,0.282-0.74C30.035,30.126,29.741,29.861,29.154,29.861z"></path> <path data-color="color-2" fill="#61616b" d="M46,23H2c-0.552,0-1,0.448-1,1v16c0,0.552,0.448,1,1,1h44c0.552,0,1-0.448,1-1V24 C47,23.448,46.552,23,46,23z M18.438,35.232c0,1.062-0.233,1.868-0.698,2.414s-1.164,0.818-2.095,0.818 c-0.387,0-0.754-0.037-1.101-0.112v-1.649c0.114,0.021,0.236,0.046,0.365,0.073c0.129,0.026,0.268,0.04,0.418,0.04 c0.352,0,0.602-0.105,0.752-0.316c0.15-0.212,0.227-0.573,0.227-1.086v-7.267h2.132V35.232z M22.169,30.65 c0.159,0.122,0.591,0.344,1.297,0.666c0.677,0.305,1.146,0.631,1.41,0.98c0.263,0.349,0.395,0.788,0.395,1.318 c0,0.487-0.124,0.919-0.37,1.297c-0.248,0.378-0.604,0.672-1.069,0.881c-0.466,0.21-1.012,0.314-1.638,0.314 c-0.523,0-0.962-0.037-1.316-0.11s-0.723-0.201-1.106-0.384v-1.891c0.405,0.208,0.825,0.37,1.263,0.486 c0.437,0.116,0.838,0.174,1.203,0.174c0.314,0,0.545-0.054,0.692-0.163s0.22-0.25,0.22-0.422c0-0.107-0.029-0.201-0.088-0.282 c-0.06-0.08-0.154-0.162-0.285-0.244s-0.479-0.251-1.045-0.505c-0.512-0.232-0.896-0.458-1.151-0.677 c-0.257-0.219-0.446-0.469-0.569-0.752c-0.124-0.283-0.186-0.617-0.186-1.004c0-0.724,0.264-1.288,0.789-1.692 c0.527-0.404,1.25-0.606,2.17-0.606c0.813,0,1.643,0.188,2.487,0.563l-0.649,1.638c-0.734-0.336-1.368-0.504-1.902-0.504 c-0.275,0-0.476,0.048-0.602,0.145c-0.125,0.097-0.188,0.217-0.188,0.359C21.93,30.391,22.01,30.528,22.169,30.65z M31.407,32.678 c-0.518,0.479-1.253,0.717-2.205,0.717h-0.597V36h-2.121v-7.853h2.718c0.991,0,1.737,0.217,2.234,0.649 c0.497,0.434,0.747,1.05,0.747,1.848C32.184,31.522,31.924,32.2,31.407,32.678z"></path></g></svg>