<svg xmlns="http://www.w3.org/2000/svg" height="64" width="64" viewBox="0 0 64 64"><title>file cgi 2</title><g fill="#61616b" class="nc-icon-wrapper"><polygon data-color="color-2" fill="#61616b" points="42,2.6 42,16 55.4,16 "></polygon> <path fill="#61616b" d="M57,29V18H41c-0.6,0-1-0.4-1-1V1H8C7.4,1,7,1.4,7,2v27H57z"></path> <path fill="#61616b" d="M7,56v6c0,0.6,0.4,1,1,1h48c0.6,0,1-0.4,1-1v-6H7z"></path> <path data-color="color-2" fill="#61616b" d="M61,31H3c-0.6,0-1,0.4-1,1v21c0,0.6,0.4,1,1,1h58c0.6,0,1-0.4,1-1V32C62,31.4,61.6,31,61,31 z M25.8,45.5c0.7,0,1.4-0.2,2.4-0.5v1.7c-0.8,0.3-1.6,0.5-2.6,0.5c-1.4,0-2.4-0.4-3.1-1.2c-0.7-0.8-1.1-2-1.1-3.5 c0-1,0.2-1.8,0.5-2.5c0.4-0.7,0.9-1.3,1.5-1.7c0.7-0.4,1.4-0.6,2.3-0.6c0.9,0,1.8,0.2,2.7,0.7l-0.6,1.6c-0.3-0.2-0.7-0.3-1-0.4 c-0.4-0.1-0.7-0.2-1-0.2c-0.7,0-1.3,0.3-1.7,0.8s-0.6,1.3-0.6,2.3C23.5,44.5,24.3,45.5,25.8,45.5z M37.7,46.6 c-0.6,0.2-1.2,0.3-1.7,0.4c-0.5,0.1-1.1,0.1-1.6,0.1c-1.4,0-2.5-0.4-3.2-1.2s-1.1-2-1.1-3.5c0-1.5,0.4-2.7,1.3-3.5 c0.9-0.8,2-1.3,3.6-1.3c1,0,1.9,0.2,2.8,0.6L37,39.7c-0.7-0.3-1.4-0.5-2.1-0.5c-0.8,0-1.5,0.3-2,0.9c-0.5,0.6-0.8,1.3-0.8,2.3 c0,1,0.2,1.8,0.6,2.3c0.4,0.5,1,0.8,1.8,0.8c0.4,0,0.8,0,1.2-0.1v-1.9H34v-1.6h3.7V46.6z M42.1,47h-2v-9.3h2V47z"></path></g></svg>