<svg xmlns="http://www.w3.org/2000/svg" height="48" width="48" viewBox="0 0 48 48"><title>file cad 3</title><g fill="#61616b" class="nc-icon-wrapper"><path fill="#61616b" d="M5,43v3c0,0.552,0.447,1,1,1h36c0.553,0,1-0.448,1-1v-3H5z"></path> <path fill="#61616b" d="M43,21v-7H31c-0.553,0-1-0.448-1-1V1H6C5.447,1,5,1.448,5,2v19H43z"></path> <polygon data-color="color-2" fill="#61616b" points="32,2.586 32,12 41.414,12 "></polygon> <path data-color="color-2" fill="#61616b" d="M31.114,29.861h-0.618v4.398h0.473c0.645,0,1.117-0.188,1.418-0.562 c0.301-0.374,0.451-0.946,0.451-1.716c0-0.72-0.142-1.253-0.427-1.601C32.126,30.034,31.694,29.861,31.114,29.861z"></path> <path data-color="color-2" fill="#61616b" d="M23.753,30.387c-0.113-0.454-0.188-0.78-0.223-0.977c-0.032,0.182-0.096,0.482-0.191,0.902 c-0.095,0.418-0.305,1.244-0.631,2.476h1.67l-0.338-1.289C23.961,31.213,23.865,30.842,23.753,30.387z"></path> <path data-color="color-2" fill="#61616b" d="M46,23H2c-0.552,0-1,0.448-1,1v16c0,0.552,0.448,1,1,1h44c0.552,0,1-0.448,1-1V24 C47,23.448,46.552,23,46,23z M16.864,34.373c0.347,0,0.684-0.049,1.01-0.146s0.653-0.213,0.983-0.349v1.793 c-0.655,0.291-1.396,0.436-2.224,0.436c-1.185,0-2.094-0.344-2.726-1.031c-0.632-0.688-0.948-1.682-0.948-2.98 c0-0.813,0.153-1.527,0.459-2.144c0.307-0.616,0.747-1.09,1.321-1.421c0.575-0.331,1.251-0.496,2.028-0.496 c0.849,0,1.66,0.184,2.433,0.553l-0.65,1.67c-0.29-0.136-0.58-0.25-0.87-0.344c-0.29-0.093-0.602-0.139-0.935-0.139 c-0.505,0-0.899,0.206-1.182,0.62c-0.283,0.413-0.424,0.983-0.424,1.71C15.14,33.617,15.715,34.373,16.864,34.373z M25.206,36 l-0.387-1.472h-2.551L21.87,36h-2.331l2.562-7.885h2.831L27.526,36H25.206z M33.958,34.937C33.236,35.646,32.222,36,30.915,36 h-2.541v-7.853h2.718c1.26,0,2.233,0.322,2.919,0.967c0.686,0.645,1.029,1.575,1.029,2.793 C35.04,33.218,34.679,34.228,33.958,34.937z"></path></g></svg>