<svg xmlns="http://www.w3.org/2000/svg" height="32" width="32" viewBox="0 0 32 32"><title>file sketch</title><g fill="#61616b" class="nc-icon-wrapper"><path data-color="color-2" fill="#61616b" d="M3,29v2c0,0.6,0.4,1,1,1h24c0.6,0,1-0.4,1-1v-2H3z"></path> <polygon data-color="color-2" fill="#61616b" points="22,1.6 22,7 27.4,7 "></polygon> <path fill="#61616b" d="M31,13h-2V9h-8c-0.6,0-1-0.4-1-1V0H4C3.4,0,3,0.4,3,1v12H1c-0.6,0-1,0.4-1,1v12c0,0.6,0.4,1,1,1h30 c0.6,0,1-0.4,1-1V14C32,13.4,31.6,13,31,13z M3.8,19.1c0.1,0.1,0.4,0.2,0.9,0.5c0.5,0.2,0.8,0.5,1,0.7s0.3,0.6,0.3,1 c0,0.4-0.1,0.7-0.3,0.9S5.3,22.7,5,22.8s-0.7,0.2-1.2,0.2c-0.4,0-0.7,0-1-0.1S2.3,22.9,2,22.7v-1.4c0.3,0.2,0.6,0.3,0.9,0.4 s0.6,0.1,0.9,0.1c0.2,0,0.4,0,0.5-0.1s0.2-0.2,0.2-0.3c0-0.1,0-0.1-0.1-0.2S4.3,21.1,4.2,21s-0.3-0.2-0.8-0.4 c-0.4-0.2-0.7-0.3-0.8-0.5s-0.3-0.3-0.4-0.5S2,19.2,2,18.9c0-0.5,0.2-0.9,0.6-1.2s0.9-0.4,1.6-0.4c0.6,0,1.2,0.1,1.8,0.4l-0.5,1.2 c-0.5-0.2-1-0.4-1.4-0.4c-0.2,0-0.3,0-0.4,0.1s-0.1,0.2-0.1,0.3C3.6,18.9,3.6,19,3.8,19.1z M11.5,23H9.7l-1.1-2.2l-0.5,0.3V23H6.6 v-5.7h1.6v2.5c0.1-0.2,0.2-0.4,0.5-0.7l1.2-1.8h1.7l-1.8,2.6L11.5,23z M15.1,18.5h-1.8v0.9H15v1.2h-1.7v1.1h1.8V23h-3.4v-5.7h3.4 V18.5z M19.7,18.6h-1.4V23h-1.5v-4.4h-1.4v-1.3h4.3V18.6z M22.9,21.8c0.3,0,0.5,0,0.7-0.1s0.5-0.2,0.7-0.3v1.3 c-0.5,0.2-1,0.3-1.6,0.3c-0.9,0-1.5-0.2-2-0.8S20,21.1,20,20.2c0-0.6,0.1-1.1,0.3-1.6s0.5-0.8,1-1s0.9-0.4,1.5-0.4 c0.6,0,1.2,0.1,1.8,0.4l-0.5,1.2c-0.2-0.1-0.4-0.2-0.6-0.2s-0.4-0.1-0.7-0.1c-0.4,0-0.7,0.2-0.9,0.5s-0.3,0.7-0.3,1.2 C21.6,21.3,22,21.8,22.9,21.8z M30,23h-1.6v-2.3h-1.8V23h-1.6v-5.7h1.6v2.1h1.8v-2.1H30V23z"></path></g></svg>