<svg xmlns="http://www.w3.org/2000/svg" height="32" width="32" viewBox="0 0 32 32"><title>file ruby</title><g fill="#61616b" class="nc-icon-wrapper"><path data-color="color-2" fill="#61616b" d="M3,29v2c0,0.6,0.4,1,1,1h24c0.6,0,1-0.4,1-1v-2H3z"></path> <polygon data-color="color-2" fill="#61616b" points="22,1.6 22,7 27.4,7 "></polygon> <path fill="#61616b" d="M19.2,19.3c0.1-0.1,0.2-0.2,0.2-0.4c0-0.3-0.2-0.5-0.7-0.5h-0.4v1h0.5C18.9,19.5,19,19.4,19.2,19.3z"></path> <path fill="#61616b" d="M18.7,20.6h-0.5v1.2h0.5c0.5,0,0.7-0.2,0.7-0.6c0-0.2-0.1-0.3-0.2-0.4S18.9,20.6,18.7,20.6z"></path> <path fill="#61616b" d="M31,13h-2V9h-8c-0.6,0-1-0.4-1-1V0H4C3.4,0,3,0.4,3,1v12H1c-0.6,0-1,0.4-1,1v12c0,0.6,0.4,1,1,1h30 c0.6,0,1-0.4,1-1V14C32,13.4,31.6,13,31,13z M14.4,23l-1.2-2.1h-0.4V23h-1.5v-5.7h1.9c1.6,0,2.3,0.6,2.3,1.7c0,0.7-0.3,1.2-1,1.5 l1.7,2.5H14.4z M20.4,22.6c-0.4,0.3-0.9,0.4-1.6,0.4h-2.2v-5.7h2c0.8,0,1.4,0.1,1.7,0.3s0.6,0.6,0.6,1.1c0,0.3-0.1,0.6-0.2,0.8 S20.3,19.9,20,20v0c0.4,0.1,0.6,0.2,0.8,0.5S21,21,21,21.3C21,21.8,20.8,22.3,20.4,22.6z"></path> <path fill="#61616b" d="M13.1,18.5h-0.3v1.3H13c0.5,0,0.8-0.2,0.8-0.7C13.9,18.7,13.6,18.5,13.1,18.5z"></path></g></svg>