<svg xmlns="http://www.w3.org/2000/svg" height="48" width="48" viewBox="0 0 48 48"><title>file max 3</title><g fill="#61616b" class="nc-icon-wrapper"><path fill="#61616b" d="M5,43v3c0,0.552,0.447,1,1,1h36c0.553,0,1-0.448,1-1v-3H5z"></path> <path fill="#61616b" d="M43,21v-7H31c-0.553,0-1-0.448-1-1V1H6C5.447,1,5,1.448,5,2v19H43z"></path> <polygon data-color="color-2" fill="#61616b" points="32,2.586 32,12 41.414,12 "></polygon> <path data-color="color-2" fill="#61616b" d="M25.561,30.387c-0.113-0.454-0.188-0.78-0.223-0.977c-0.033,0.182-0.096,0.482-0.191,0.902 c-0.095,0.418-0.305,1.244-0.631,2.476h1.67l-0.338-1.289C25.77,31.213,25.673,30.842,25.561,30.387z"></path> <path data-color="color-2" fill="#61616b" d="M46,23H2c-0.552,0-1,0.448-1,1v16c0,0.552,0.448,1,1,1h44c0.552,0,1-0.448,1-1V24 C47,23.448,46.552,23,46,23z M20.504,36h-1.95v-3.443c0-0.179,0.003-0.377,0.008-0.596c0.006-0.219,0.03-0.754,0.073-1.605h-0.049 L17.002,36h-2.02l-1.606-5.656h-0.048c0.074,0.964,0.112,1.712,0.112,2.246V36h-1.88v-7.853h2.825l1.638,5.575h0.043l1.606-5.575 h2.831V36z M27.014,36l-0.387-1.472h-2.552L23.678,36h-2.331l2.562-7.885h2.831L29.334,36H27.014z M34.801,36l-1.53-2.455L31.756,36 h-2.4l2.604-4.018l-2.449-3.835h2.353l1.418,2.428l1.364-2.428h2.423l-2.487,4.001L37.256,36H34.801z"></path></g></svg>