<svg xmlns="http://www.w3.org/2000/svg" height="64" width="64" viewBox="0 0 64 64"><title>file png 2</title><g fill="#61616b" class="nc-icon-wrapper"><polygon data-color="color-2" fill="#61616b" points="42,2.6 42,16 55.4,16 "></polygon> <path fill="#61616b" d="M57,29V18H41c-0.6,0-1-0.4-1-1V1H8C7.4,1,7,1.4,7,2v27H57z"></path> <path fill="#61616b" d="M7,56v6c0,0.6,0.4,1,1,1h48c0.6,0,1-0.4,1-1v-6H7z"></path> <path data-color="color-2" fill="#61616b" d="M21.7,39.3h-0.9v2.8h0.6c0.6,0,1.1-0.1,1.4-0.4c0.3-0.2,0.5-0.6,0.5-1c0-0.5-0.1-0.8-0.4-1 C22.6,39.4,22.2,39.3,21.7,39.3z"></path> <path data-color="color-2" fill="#61616b" d="M61,31H3c-0.6,0-1,0.4-1,1v21c0,0.6,0.4,1,1,1h58c0.6,0,1-0.4,1-1V32C62,31.4,61.6,31,61,31 z M24.3,42.9c-0.6,0.5-1.5,0.8-2.7,0.8h-0.8V47h-2v-9.3h3c1.1,0,2,0.2,2.6,0.7s0.9,1.2,0.9,2.2C25.2,41.6,24.9,42.4,24.3,42.9z M35.5,47H33l-4-7h-0.1c0.1,1.2,0.1,2.1,0.1,2.7V47h-1.8v-9.3h2.5l4,7h0c-0.1-1.2-0.1-2.1-0.1-2.6v-4.4h1.8V47z M45.3,46.6 c-0.6,0.2-1.2,0.3-1.7,0.4c-0.5,0.1-1.1,0.1-1.6,0.1c-1.4,0-2.5-0.4-3.2-1.2c-0.7-0.8-1.1-2-1.1-3.5c0-1.5,0.4-2.7,1.3-3.5 c0.9-0.8,2-1.3,3.6-1.3c1,0,1.9,0.2,2.8,0.6l-0.7,1.6c-0.7-0.3-1.4-0.5-2.1-0.5c-0.9,0-1.5,0.3-2,0.9s-0.8,1.3-0.8,2.3 c0,1,0.2,1.8,0.6,2.3s1,0.8,1.8,0.8c0.4,0,0.8,0,1.3-0.1v-1.9h-1.8v-1.6h3.7V46.6z"></path></g></svg>