<svg xmlns="http://www.w3.org/2000/svg" height="64" width="64" viewBox="0 0 64 64"><title>file md 2</title><g fill="#61616b" class="nc-icon-wrapper"><polygon data-color="color-2" fill="#61616b" points="42,2.586 42,16 55.414,16 "></polygon> <path fill="#61616b" d="M57,29V18H41c-0.553,0-1-0.448-1-1V1H8C7.447,1,7,1.448,7,2v27H57z"></path> <path fill="#61616b" d="M7,56v6c0,0.552,0.447,1,1,1h48c0.553,0,1-0.448,1-1v-6H7z"></path> <path data-color="color-2" fill="#61616b" d="M37.425,39.472h-1.048v6.043h0.845c1.896,0,2.844-1.018,2.844-3.053 C40.065,40.469,39.185,39.472,37.425,39.472z"></path> <path data-color="color-2" fill="#61616b" d="M61,31H3c-0.552,0-1,0.448-1,1v21c0,0.552,0.448,1,1,1h58c0.552,0,1-0.448,1-1V32 C62,31.448,61.552,31,61,31z M31.813,47.14h-1.835v-4.393c0-0.208,0.003-0.446,0.01-0.717c0.006-0.271,0.034-0.99,0.085-2.158 h-0.057l-2.393,7.268h-1.803l-2.234-7.281h-0.058c0.08,1.481,0.12,2.469,0.12,2.964v4.316h-1.758v-9.28h2.679l2.196,7.097h0.038 l2.329-7.097h2.68V47.14z M40.805,45.921c-0.87,0.812-2.126,1.219-3.768,1.219h-2.628v-9.28h2.914c1.515,0,2.691,0.4,3.529,1.2 s1.256,1.917,1.256,3.352C42.108,43.939,41.674,45.109,40.805,45.921z"></path></g></svg>