<svg xmlns="http://www.w3.org/2000/svg" height="64" width="64" viewBox="0 0 64 64"><title>file svg 2</title><g fill="#61616b" class="nc-icon-wrapper"><polygon data-color="color-2" fill="#61616b" points="42,2.6 42,16 55.4,16 "></polygon> <path fill="#61616b" d="M57,29V18H41c-0.6,0-1-0.4-1-1V1H8C7.4,1,7,1.4,7,2v27H57z"></path> <path fill="#61616b" d="M7,56v6c0,0.6,0.4,1,1,1h48c0.6,0,1-0.4,1-1v-6H7z"></path> <path data-color="color-2" fill="#61616b" d="M61,31H3c-0.6,0-1,0.4-1,1v21c0,0.6,0.4,1,1,1h58c0.6,0,1-0.4,1-1V32C62,31.4,61.6,31,61,31z M25,46.4c-0.6,0.5-1.4,0.7-2.5,0.7c-1,0-1.9-0.2-2.6-0.6v-1.8c0.6,0.3,1.2,0.5,1.6,0.6c0.4,0.1,0.8,0.2,1.2,0.2 c0.4,0,0.8-0.1,1-0.2c0.2-0.2,0.3-0.4,0.3-0.7c0-0.2-0.1-0.3-0.2-0.5s-0.2-0.3-0.4-0.4s-0.6-0.3-1.2-0.6c-0.6-0.3-1-0.5-1.3-0.8 c-0.3-0.2-0.5-0.5-0.7-0.9c-0.2-0.3-0.3-0.7-0.3-1.1c0-0.8,0.3-1.5,0.8-1.9c0.6-0.5,1.3-0.7,2.3-0.7c0.5,0,0.9,0.1,1.4,0.2 c0.4,0.1,0.9,0.3,1.4,0.5l-0.6,1.5c-0.5-0.2-0.9-0.3-1.2-0.4c-0.3-0.1-0.6-0.1-1-0.1c-0.4,0-0.7,0.1-0.9,0.3s-0.3,0.4-0.3,0.7 c0,0.2,0,0.3,0.1,0.5s0.2,0.3,0.4,0.4c0.2,0.1,0.6,0.3,1.2,0.7c0.9,0.4,1.5,0.8,1.8,1.2s0.5,0.9,0.5,1.5 C25.9,45.3,25.6,45.9,25,46.4z M31.9,47h-2.1l-3.1-9.3h2l1.7,5.5c0.1,0.3,0.2,0.7,0.3,1.1c0.1,0.4,0.2,0.7,0.2,0.9 c0-0.4,0.2-1.1,0.5-2l1.8-5.5h2L31.9,47z M43.7,46.6c-0.6,0.2-1.2,0.3-1.7,0.4s-1.1,0.1-1.6,0.1c-1.4,0-2.5-0.4-3.2-1.2 s-1.1-2-1.1-3.5c0-1.5,0.4-2.7,1.3-3.5s2-1.3,3.6-1.3c1,0,1.9,0.2,2.8,0.6l-0.7,1.6c-0.7-0.3-1.4-0.5-2.1-0.5c-0.9,0-1.5,0.3-2,0.9 s-0.8,1.3-0.8,2.3c0,1,0.2,1.8,0.6,2.3c0.4,0.5,1,0.8,1.8,0.8c0.4,0,0.8,0,1.2-0.1v-1.9H40v-1.6h3.7V46.6z"></path></g></svg>