<svg xmlns="http://www.w3.org/2000/svg" height="48" width="48" viewBox="0 0 48 48"><title>file raw 3</title><g fill="#61616b" class="nc-icon-wrapper"><path fill="#61616b" d="M5,43v3c0,0.552,0.447,1,1,1h36c0.553,0,1-0.448,1-1v-3H5z"></path> <path fill="#61616b" d="M43,21v-7H31c-0.553,0-1-0.448-1-1V1H6C5.447,1,5,1.448,5,2v19H43z"></path> <polygon data-color="color-2" fill="#61616b" points="32,2.586 32,12 41.414,12 "></polygon> <path data-color="color-2" fill="#61616b" d="M46,23H2c-0.552,0-1,0.448-1,1v16c0,0.552,0.448,1,1,1h44c0.552,0,1-0.448,1-1V24 C47,23.448,46.552,23,46,23z M23.68,36l-0.387-1.472h-2.551L20.345,36h-2.197h-0.134h-2.272l-1.665-2.857H13.54V36h-2.122v-7.853 h2.573c2.134,0,3.201,0.773,3.201,2.32c0,0.909-0.444,1.613-1.332,2.11l2.198,3.287l2.518-7.75h2.831L26,36H23.68z M35.33,36h-2.508 l-0.752-3.422c-0.036-0.143-0.092-0.428-0.169-0.854c-0.077-0.426-0.134-0.782-0.169-1.068c-0.029,0.232-0.075,0.521-0.14,0.867 s-0.128,0.663-0.191,0.953c-0.062,0.29-0.323,1.465-0.781,3.523h-2.508l-1.944-7.853h2.046l0.854,3.937 c0.193,0.871,0.326,1.563,0.397,2.079c0.046-0.365,0.13-0.861,0.25-1.487c0.12-0.627,0.232-1.146,0.336-1.559l0.693-2.97h1.966 l0.671,2.97c0.115,0.477,0.231,1.026,0.349,1.649s0.197,1.089,0.236,1.396c0.046-0.397,0.174-1.087,0.381-2.067l0.87-3.948h2.046 L35.33,36z"></path> <path data-color="color-2" fill="#61616b" d="M13.958,29.754H13.54v1.793h0.397c0.741,0,1.112-0.327,1.112-0.982 C15.049,30.023,14.686,29.754,13.958,29.754z"></path> <path data-color="color-2" fill="#61616b" d="M22.228,30.387c-0.113-0.454-0.188-0.78-0.223-0.977c-0.032,0.182-0.096,0.482-0.191,0.902 c-0.095,0.418-0.305,1.244-0.631,2.476h1.67l-0.338-1.289C22.436,31.213,22.34,30.842,22.228,30.387z"></path></g></svg>