<svg xmlns="http://www.w3.org/2000/svg" height="48" width="48" viewBox="0 0 48 48"><title>file png 3</title><g fill="#61616b" class="nc-icon-wrapper"><path fill="#61616b" d="M5,43v3c0,0.552,0.447,1,1,1h36c0.553,0,1-0.448,1-1v-3H5z"></path> <path fill="#61616b" d="M43,21v-7H31c-0.553,0-1-0.448-1-1V1H6C5.447,1,5,1.448,5,2v19H43z"></path> <polygon data-color="color-2" fill="#61616b" points="32,2.586 32,12 41.414,12 "></polygon> <path data-color="color-2" fill="#61616b" d="M46,23H2c-0.552,0-1,0.448-1,1v16c0,0.552,0.448,1,1,1h44c0.552,0,1-0.448,1-1V24 C47,23.448,46.552,23,46,23z M17.639,32.678c-0.518,0.479-1.253,0.717-2.205,0.717h-0.597V36h-2.122v-7.853h2.719 c0.991,0,1.736,0.217,2.234,0.649c0.497,0.434,0.746,1.05,0.746,1.848C18.414,31.522,18.155,32.2,17.639,32.678z M27.143,36h-2.783 l-2.867-5.532h-0.049c0.068,0.87,0.102,1.534,0.102,1.993V36h-1.879v-7.853h2.771l2.857,5.457h0.031 c-0.05-0.791-0.074-1.427-0.074-1.907v-3.55h1.891V36z M35.381,35.635c-0.92,0.315-1.932,0.473-3.034,0.473 c-1.21,0-2.146-0.351-2.806-1.053c-0.662-0.702-0.992-1.703-0.992-3.002c0-1.268,0.362-2.255,1.086-2.96 c0.723-0.705,1.736-1.058,3.039-1.058c0.494,0,0.961,0.046,1.4,0.139c0.438,0.094,0.82,0.212,1.146,0.355l-0.672,1.664 c-0.566-0.279-1.188-0.418-1.863-0.418c-0.62,0-1.1,0.201-1.438,0.604c-0.338,0.403-0.508,0.979-0.508,1.727 c0,0.734,0.154,1.294,0.459,1.679c0.307,0.385,0.748,0.577,1.324,0.577c0.315,0,0.605-0.03,0.871-0.091v-1.229h-1.402v-1.639h3.389 V35.635z"></path> <path data-color="color-2" fill="#61616b" d="M15.385,29.861h-0.548v1.805h0.387c0.319,0,0.571-0.09,0.761-0.27 c0.188-0.179,0.281-0.426,0.281-0.74C16.266,30.126,15.973,29.861,15.385,29.861z"></path></g></svg>