<svg xmlns="http://www.w3.org/2000/svg" height="32" width="32" viewBox="0 0 32 32"><title>file ttf</title><g fill="#61616b" class="nc-icon-wrapper"><path data-color="color-2" fill="#61616b" d="M3,29v2c0,0.6,0.4,1,1,1h24c0.6,0,1-0.4,1-1v-2H3z"></path> <polygon data-color="color-2" fill="#61616b" points="22,1.6 22,7 27.4,7 "></polygon> <path fill="#61616b" d="M31,13h-2V9h-8c-0.6,0-1-0.4-1-1V0H4C3.4,0,3,0.4,3,1v12H1c-0.6,0-1,0.4-1,1v12c0,0.6,0.4,1,1,1h30 c0.6,0,1-0.4,1-1V14C32,13.4,31.6,13,31,13z M13.6,18.6h-1.4V23h-1.5v-4.4H9.3v-1.3h4.3V18.6z M18.4,18.6H17V23h-1.5v-4.4H14v-1.3 h4.3V18.6z M22.6,18.5h-1.9v1.1h1.7v1.2h-1.7V23h-1.5v-5.7h3.4V18.5z"></path></g></svg>