<svg xmlns="http://www.w3.org/2000/svg" height="64" width="64" viewBox="0 0 64 64"><title>file js 2</title><g fill="#61616b" class="nc-icon-wrapper"><polygon data-color="color-2" fill="#61616b" points="42,2.6 42,16 55.4,16 "></polygon> <path fill="#61616b" d="M57,29V18H41c-0.6,0-1-0.4-1-1V1H8C7.4,1,7,1.4,7,2v27H57z"></path> <path fill="#61616b" d="M7,56v6c0,0.6,0.4,1,1,1h48c0.6,0,1-0.4,1-1v-6H7z"></path> <path data-color="color-2" fill="#61616b" d="M61,31H3c-0.6,0-1,0.4-1,1v21c0,0.6,0.4,1,1,1h58c0.6,0,1-0.4,1-1V32C62,31.4,61.6,31,61,31z M29.3,46.4c0,1.1-0.2,1.9-0.7,2.5s-1.2,0.9-2.2,0.9c-0.4,0-0.8,0-1.2-0.1V48c0.3,0.1,0.6,0.1,0.9,0.1c0.4,0,0.7-0.1,0.9-0.4 s0.3-0.7,0.3-1.3v-8.7h2V46.4z M36.4,46.4c-0.6,0.5-1.4,0.7-2.5,0.7c-1,0-1.9-0.2-2.6-0.6v-1.8c0.6,0.3,1.2,0.5,1.6,0.6 c0.4,0.1,0.8,0.2,1.2,0.2c0.4,0,0.8-0.1,1-0.2c0.2-0.2,0.3-0.4,0.3-0.7c0-0.2-0.1-0.3-0.2-0.5s-0.3-0.3-0.4-0.4 c-0.2-0.1-0.6-0.3-1.2-0.6c-0.6-0.3-1-0.5-1.3-0.8s-0.5-0.5-0.7-0.9c-0.2-0.3-0.3-0.7-0.3-1.1c0-0.8,0.3-1.5,0.8-1.9 c0.6-0.5,1.3-0.7,2.3-0.7c0.5,0,0.9,0.1,1.4,0.2c0.4,0.1,0.9,0.3,1.4,0.5l-0.6,1.5c-0.5-0.2-0.9-0.3-1.2-0.4c-0.3-0.1-0.6-0.1-1-0.1 c-0.4,0-0.7,0.1-0.9,0.3s-0.3,0.4-0.3,0.7c0,0.2,0,0.3,0.1,0.5s0.2,0.3,0.4,0.4c0.2,0.1,0.6,0.3,1.2,0.7c0.9,0.4,1.5,0.8,1.8,1.2 s0.5,0.9,0.5,1.5C37.3,45.3,37,45.9,36.4,46.4z"></path></g></svg>