<svg xmlns="http://www.w3.org/2000/svg" height="32" width="32" viewBox="0 0 32 32"><title>file pdf</title><g fill="#61616b" class="nc-icon-wrapper"><path data-color="color-2" fill="#61616b" d="M3,29v2c0,0.6,0.4,1,1,1h24c0.6,0,1-0.4,1-1v-2H3z"></path> <polygon data-color="color-2" fill="#61616b" points="22,1.6 22,7 27.4,7 "></polygon> <path fill="#61616b" d="M10.9,18.5h-0.4v1.3h0.3c0.2,0,0.4-0.1,0.6-0.2s0.2-0.3,0.2-0.5C11.6,18.7,11.4,18.5,10.9,18.5z"></path> <path fill="#61616b" d="M16,18.5h-0.4v3.2h0.3c0.5,0,0.8-0.1,1-0.4s0.3-0.7,0.3-1.2c0-0.5-0.1-0.9-0.3-1.2S16.5,18.5,16,18.5z"></path> <path fill="#61616b" d="M31,13h-2V9h-8c-0.6,0-1-0.4-1-1V0H4C3.4,0,3,0.4,3,1v12H1c-0.6,0-1,0.4-1,1v12c0,0.6,0.4,1,1,1h30 c0.6,0,1-0.4,1-1V14C32,13.4,31.6,13,31,13z M12.6,20.6c-0.4,0.3-0.9,0.5-1.6,0.5h-0.4V23H9v-5.7h2c0.7,0,1.3,0.2,1.6,0.5 s0.5,0.8,0.5,1.3C13.1,19.7,13,20.2,12.6,20.6z M18.1,22.2c-0.5,0.5-1.3,0.8-2.2,0.8h-1.8v-5.7h2c0.9,0,1.6,0.2,2.1,0.7 s0.7,1.1,0.7,2C18.9,21,18.6,21.7,18.1,22.2z M23.3,18.5h-1.9v1.1h1.7v1.2h-1.7V23h-1.5v-5.7h3.4V18.5z"></path></g></svg>