<svg xmlns="http://www.w3.org/2000/svg" height="64" width="64" viewBox="0 0 64 64"><title>file json 2</title><g fill="#61616b" class="nc-icon-wrapper"><polygon points="42 2.586 42 16 55.414 16 42 2.586" fill="#61616b" data-color="color-2"></polygon> <path d="M57,29V18H41a1,1,0,0,1-1-1V1H8A1,1,0,0,0,7,2V29Z" fill="#61616b"></path> <path d="M7,56v6a1,1,0,0,0,1,1H56a1,1,0,0,0,1-1V56Z" fill="#61616b"></path> <path d="M32.941,39.168a2.077,2.077,0,0,0-1.769.791,3.851,3.851,0,0,0-.6,2.346,3.871,3.871,0,0,0,.591,2.341,2.063,2.063,0,0,0,1.765.788q2.355,0,2.355-3.129T32.941,39.168Z" fill="#61616b" data-color="color-2"></path> <path d="M61,31H3a1,1,0,0,0-1,1V53a1,1,0,0,0,1,1H61a1,1,0,0,0,1-1V32A1,1,0,0,0,61,31ZM18.908,46.36a3.664,3.664,0,0,1-.742,2.476,2.766,2.766,0,0,1-2.2.851,4.263,4.263,0,0,1-1.161-.14V47.909a3.824,3.824,0,0,0,.926.127,1.046,1.046,0,0,0,.927-.4,2.239,2.239,0,0,0,.279-1.26v-8.7h1.968Zm7.169,0a3.923,3.923,0,0,1-2.516.724,5.9,5.9,0,0,1-2.628-.559V44.7a10.612,10.612,0,0,0,1.589.59,4.692,4.692,0,0,0,1.191.172,1.682,1.682,0,0,0,.993-.248.842.842,0,0,0,.347-.736.812.812,0,0,0-.153-.486,1.7,1.7,0,0,0-.448-.409,11.558,11.558,0,0,0-1.2-.629,5.637,5.637,0,0,1-1.276-.767,2.864,2.864,0,0,1-.679-.858,2.431,2.431,0,0,1-.254-1.142,2.4,2.4,0,0,1,.834-1.936,3.469,3.469,0,0,1,2.308-.7,5.458,5.458,0,0,1,1.38.172,9.539,9.539,0,0,1,1.375.482l-.635,1.53a9.224,9.224,0,0,0-1.229-.425,3.917,3.917,0,0,0-.955-.12,1.267,1.267,0,0,0-.857.259.861.861,0,0,0-.3.68.842.842,0,0,0,.12.453,1.341,1.341,0,0,0,.385.375,12.071,12.071,0,0,0,1.247.651A4.953,4.953,0,0,1,26.5,42.847a2.439,2.439,0,0,1,.482,1.533A2.4,2.4,0,0,1,26.077,46.36Zm10.128-.514a4.232,4.232,0,0,1-3.275,1.238,4.235,4.235,0,0,1-3.276-1.238,5.059,5.059,0,0,1-1.142-3.555,4.984,4.984,0,0,1,1.146-3.538,4.281,4.281,0,0,1,3.283-1.222,4.227,4.227,0,0,1,3.274,1.231,5.047,5.047,0,0,1,1.133,3.543A5.033,5.033,0,0,1,36.205,45.846Zm11.559,1.111h-2.5l-4.037-7.02h-.059q.12,1.859.121,2.653v4.367H39.531v-9.28h2.483l4.029,6.95h.045q-.095-1.808-.1-2.558V37.677h1.772Z" fill="#61616b" data-color="color-2"></path></g></svg>