<svg xmlns="http://www.w3.org/2000/svg" height="48" width="48" viewBox="0 0 48 48"><title>file obj 3</title><g fill="#61616b" class="nc-icon-wrapper"><path fill="#61616b" d="M5,43v3c0,0.552,0.447,1,1,1h36c0.553,0,1-0.448,1-1v-3H5z"></path> <path fill="#61616b" d="M43,21v-7H31c-0.553,0-1-0.448-1-1V1H6C5.447,1,5,1.448,5,2v19H43z"></path> <polygon data-color="color-2" fill="#61616b" points="32,2.586 32,12 41.414,12 "></polygon> <path data-color="color-2" fill="#61616b" d="M27.056,30.973c0.167-0.125,0.25-0.312,0.25-0.559c0-0.44-0.333-0.66-0.999-0.66H25.71v1.406 h0.639C26.654,31.16,26.89,31.098,27.056,30.973z"></path> <path data-color="color-2" fill="#61616b" d="M18.363,29.764c-1.063,0-1.595,0.767-1.595,2.299c0,1.519,0.528,2.277,1.584,2.277 c0.537,0,0.936-0.184,1.195-0.553c0.26-0.369,0.39-0.943,0.39-1.725c0-0.783-0.132-1.363-0.395-1.737 C19.278,29.951,18.886,29.764,18.363,29.764z"></path> <path data-color="color-2" fill="#61616b" d="M26.414,32.713H25.71v1.648h0.747c0.663,0,0.994-0.279,0.994-0.838 c0-0.261-0.088-0.461-0.266-0.602C27.008,32.783,26.75,32.713,26.414,32.713z"></path> <path data-color="color-2" fill="#61616b" d="M46,23H2c-0.552,0-1,0.448-1,1v16c0,0.552,0.448,1,1,1h44c0.552,0,1-0.448,1-1V24 C47,23.448,46.552,23,46,23z M21.199,35.076c-0.648,0.688-1.597,1.031-2.847,1.031c-1.232,0-2.176-0.346-2.833-1.037 c-0.657-0.69-0.985-1.697-0.985-3.018c0-1.308,0.327-2.306,0.98-2.995c0.653-0.689,1.603-1.034,2.849-1.034 c1.25,0,2.197,0.343,2.841,1.026s0.967,1.688,0.967,3.013C22.171,33.385,21.847,34.389,21.199,35.076z M28.834,35.385 C28.298,35.795,27.569,36,26.645,36h-3.056v-7.853h2.739c1.067,0,1.859,0.158,2.377,0.476c0.517,0.316,0.776,0.81,0.776,1.479 c0,0.44-0.113,0.816-0.338,1.128s-0.523,0.512-0.892,0.602v0.054c0.487,0.129,0.84,0.344,1.058,0.645s0.328,0.691,0.328,1.171 C29.637,34.414,29.369,34.975,28.834,35.385z M33.176,35.232c0,1.062-0.233,1.868-0.698,2.414s-1.164,0.818-2.095,0.818 c-0.387,0-0.754-0.037-1.101-0.112v-1.649c0.115,0.021,0.236,0.046,0.365,0.073c0.129,0.026,0.269,0.04,0.419,0.04 c0.351,0,0.602-0.105,0.752-0.316c0.15-0.212,0.226-0.573,0.226-1.086v-7.267h2.132V35.232z"></path></g></svg>