<svg xmlns="http://www.w3.org/2000/svg" height="32" width="32" viewBox="0 0 32 32"><title>file obj</title><g fill="#61616b" class="nc-icon-wrapper"><path data-color="color-2" fill="#61616b" d="M3,29v2c0,0.6,0.4,1,1,1h24c0.6,0,1-0.4,1-1v-2H3z"></path> <polygon data-color="color-2" fill="#61616b" points="22,1.6 22,7 27.4,7 "></polygon> <path fill="#61616b" d="M17.8,20.6h-0.5v1.2h0.5c0.5,0,0.7-0.2,0.7-0.6c0-0.2-0.1-0.3-0.2-0.4S18,20.6,17.8,20.6z"></path> <path fill="#61616b" d="M18.2,19.3c0.1-0.1,0.2-0.2,0.2-0.4c0-0.3-0.2-0.5-0.7-0.5h-0.4v1h0.5C17.9,19.5,18.1,19.4,18.2,19.3z"></path> <path fill="#61616b" d="M11.9,18.5c-0.8,0-1.2,0.6-1.2,1.7c0,1.1,0.4,1.7,1.2,1.7c0.4,0,0.7-0.1,0.9-0.4s0.3-0.7,0.3-1.3 c0-0.6-0.1-1-0.3-1.3S12.3,18.5,11.9,18.5z"></path> <path fill="#61616b" d="M31,13h-2V9h-8c-0.6,0-1-0.4-1-1V0H4C3.4,0,3,0.4,3,1v12H1c-0.6,0-1,0.4-1,1v12c0,0.6,0.4,1,1,1h30 c0.6,0,1-0.4,1-1V14C32,13.4,31.6,13,31,13z M14,22.3c-0.5,0.5-1.2,0.8-2.1,0.8c-0.9,0-1.6-0.3-2.1-0.8s-0.7-1.2-0.7-2.2 c0-1,0.2-1.7,0.7-2.2s1.2-0.8,2.1-0.8c0.9,0,1.6,0.2,2.1,0.7s0.7,1.2,0.7,2.2C14.7,21.1,14.4,21.8,14,22.3z M19.5,22.6 c-0.4,0.3-0.9,0.4-1.6,0.4h-2.2v-5.7h2c0.8,0,1.4,0.1,1.7,0.3s0.6,0.6,0.6,1.1c0,0.3-0.1,0.6-0.2,0.8s-0.4,0.4-0.6,0.4v0 c0.4,0.1,0.6,0.2,0.8,0.5s0.2,0.5,0.2,0.9C20.1,21.8,19.9,22.3,19.5,22.6z M22.7,22.4c0,0.8-0.2,1.4-0.5,1.8s-0.8,0.6-1.5,0.6 c-0.3,0-0.5,0-0.8-0.1v-1.2c0.1,0,0.2,0,0.3,0.1s0.2,0,0.3,0c0.3,0,0.4-0.1,0.5-0.2s0.2-0.4,0.2-0.8v-5.3h1.6V22.4z"></path></g></svg>