<svg xmlns="http://www.w3.org/2000/svg" height="48" width="48" viewBox="0 0 48 48"><title>file gif 3</title><g fill="#61616b" class="nc-icon-wrapper"><path fill="#61616b" d="M5,43v3c0,0.552,0.447,1,1,1h36c0.553,0,1-0.448,1-1v-3H5z"></path> <path fill="#61616b" d="M43,21v-7H31c-0.553,0-1-0.448-1-1V1H6C5.447,1,5,1.448,5,2v19H43z"></path> <polygon data-color="color-2" fill="#61616b" points="32,2.586 32,12 41.414,12 "></polygon> <path data-color="color-2" fill="#61616b" d="M46,23H2c-0.552,0-1,0.448-1,1v16c0,0.552,0.448,1,1,1h44c0.552,0,1-0.448,1-1V24 C47,23.448,46.552,23,46,23z M22.439,35.635c-0.92,0.315-1.932,0.473-3.035,0.473c-1.21,0-2.146-0.351-2.806-1.053 c-0.661-0.702-0.991-1.703-0.991-3.002c0-1.268,0.361-2.255,1.085-2.96s1.737-1.058,3.04-1.058c0.494,0,0.961,0.046,1.399,0.139 c0.438,0.094,0.821,0.212,1.146,0.355l-0.671,1.664c-0.566-0.279-1.188-0.418-1.864-0.418c-0.62,0-1.099,0.201-1.437,0.604 c-0.339,0.403-0.508,0.979-0.508,1.727c0,0.734,0.153,1.294,0.459,1.679c0.307,0.385,0.748,0.577,1.324,0.577 c0.314,0,0.605-0.03,0.87-0.091v-1.229h-1.401v-1.639h3.389V35.635z M26.172,36H24.04v-7.853h2.132V36z M32.51,29.85h-2.551v1.499 h2.353v1.702h-2.353V36h-2.09v-7.853h4.641V29.85z"></path></g></svg>