<svg xmlns="http://www.w3.org/2000/svg" height="64" width="64" viewBox="0 0 64 64"><title>file java 2</title><g fill="#61616b" class="nc-icon-wrapper"><polygon data-color="color-2" fill="#61616b" points="42,2.6 42,16 55.4,16 "></polygon> <path fill="#61616b" d="M57,29V18H41c-0.6,0-1-0.4-1-1V1H8C7.4,1,7,1.4,7,2v27H57z"></path> <path fill="#61616b" d="M7,56v6c0,0.6,0.4,1,1,1h48c0.6,0,1-0.4,1-1v-6H7z"></path> <path data-color="color-2" fill="#61616b" d="M43.3,39.1c-0.1,0.5-0.5,1.9-1.2,4h2.4c-0.6-2-1-3.1-1.1-3.4C43.3,39.5,43.3,39.3,43.3,39.1z "></path> <path data-color="color-2" fill="#61616b" d="M61,31H3c-0.6,0-1,0.4-1,1v21c0,0.6,0.4,1,1,1h58c0.6,0,1-0.4,1-1V32C62,31.4,61.6,31,61,31z M19.4,46.4c0,1.1-0.2,1.9-0.7,2.5s-1.2,0.9-2.2,0.9c-0.4,0-0.8,0-1.2-0.1V48c0.3,0.1,0.6,0.1,0.9,0.1c0.4,0,0.7-0.1,0.9-0.4 s0.3-0.7,0.3-1.3v-8.7h2V46.4z M27.7,47L27,44.8h-3.4L22.9,47h-2.1l3.3-9.3h2.4l3.3,9.3H27.7z M35.4,47h-2.1l-3.1-9.3h2l1.7,5.5 c0.1,0.3,0.2,0.7,0.3,1.1c0.1,0.4,0.2,0.7,0.2,0.9c0-0.4,0.2-1.1,0.5-2l1.8-5.5h2L35.4,47z M45.6,47l-0.7-2.2h-3.4L40.9,47h-2.1 l3.3-9.3h2.4l3.3,9.3H45.6z"></path> <path data-color="color-2" fill="#61616b" d="M25.3,39.1c-0.1,0.5-0.5,1.9-1.2,4h2.4c-0.6-2-1-3.1-1.1-3.4C25.4,39.5,25.3,39.3,25.3,39.1z "></path></g></svg>