<svg xmlns="http://www.w3.org/2000/svg" height="32" width="32" viewBox="0 0 32 32"><title>file md</title><g fill="#61616b" class="nc-icon-wrapper"><path data-color="color-2" fill="#61616b" d="M3,29v2c0,0.552,0.447,1,1,1h24c0.553,0,1-0.448,1-1v-2H3z"></path> <polygon data-color="color-2" fill="#61616b" points="22,1.586 22,7 27.414,7 "></polygon> <path fill="#61616b" d="M19.436,18.535h-0.449v3.199h0.344c0.469,0,0.812-0.136,1.031-0.408s0.328-0.688,0.328-1.248 c0-0.523-0.104-0.912-0.311-1.164S19.857,18.535,19.436,18.535z"></path> <path fill="#61616b" d="M31,13h-2V9h-8c-0.553,0-1-0.448-1-1V0H4C3.447,0,3,0.448,3,1v12H1c-0.552,0-1,0.448-1,1v12 c0,0.552,0.448,1,1,1h30c0.552,0,1-0.448,1-1V14C32,13.448,31.552,13,31,13z M16.213,23h-1.418v-2.504 c0-0.13,0.002-0.275,0.006-0.434s0.021-0.548,0.053-1.168h-0.035L13.666,23h-1.469l-1.168-4.113h-0.035 c0.055,0.701,0.082,1.245,0.082,1.633V23H9.709v-5.711h2.055l1.191,4.055h0.031l1.168-4.055h2.059V23z M21.504,22.227 C20.979,22.742,20.241,23,19.291,23h-1.848v-5.711h1.977c0.917,0,1.624,0.234,2.123,0.703s0.748,1.146,0.748,2.031 C22.291,20.977,22.028,21.711,21.504,22.227z"></path></g></svg>