<svg xmlns="http://www.w3.org/2000/svg" height="32" width="32" viewBox="0 0 32 32"><title>file max</title><g fill="#61616b" class="nc-icon-wrapper"><path data-color="color-2" fill="#61616b" d="M3,29v2c0,0.6,0.4,1,1,1h24c0.6,0,1-0.4,1-1v-2H3z"></path> <polygon data-color="color-2" fill="#61616b" points="22,1.6 22,7 27.4,7 "></polygon> <path fill="#61616b" d="M17.1,18.9c-0.1-0.3-0.1-0.6-0.2-0.7c0,0.1-0.1,0.4-0.1,0.7s-0.2,0.9-0.5,1.8h1.2l-0.2-0.9 C17.3,19.5,17.2,19.2,17.1,18.9z"></path> <path fill="#61616b" d="M31,13h-2V9h-8c-0.6,0-1-0.4-1-1V0H4C3.4,0,3,0.4,3,1v12H1c-0.6,0-1,0.4-1,1v12c0,0.6,0.4,1,1,1h30 c0.6,0,1-0.4,1-1V14C32,13.4,31.6,13,31,13z M13.5,23H12v-2.5c0-0.1,0-0.3,0-0.4s0-0.5,0.1-1.2h0L10.9,23H9.4l-1.2-4.1h0 c0.1,0.7,0.1,1.2,0.1,1.6V23H7v-5.7H9l1.2,4.1h0l1.2-4.1h2.1V23z M18.2,23l-0.3-1.1h-1.9L15.8,23h-1.7l1.9-5.7H18l1.9,5.7H18.2z M23.9,23l-1.1-1.8L21.6,23h-1.7l1.9-2.9L20,17.3h1.7l1,1.8l1-1.8h1.8l-1.8,2.9l1.9,2.8H23.9z"></path></g></svg>