<svg xmlns="http://www.w3.org/2000/svg" height="48" width="48" viewBox="0 0 48 48"><title>file eps 3</title><g fill="#61616b" class="nc-icon-wrapper"><path fill="#61616b" d="M5,43v3c0,0.552,0.447,1,1,1h36c0.553,0,1-0.448,1-1v-3H5z"></path> <path fill="#61616b" d="M43,21v-7H31c-0.553,0-1-0.448-1-1V1H6C5.447,1,5,1.448,5,2v19H43z"></path> <polygon data-color="color-2" fill="#61616b" points="32,2.586 32,12 41.414,12 "></polygon> <path data-color="color-2" fill="#61616b" d="M23.887,29.861h-0.548v1.805h0.387c0.319,0,0.572-0.09,0.76-0.27 c0.188-0.179,0.282-0.426,0.282-0.74C24.768,30.126,24.475,29.861,23.887,29.861z"></path> <path data-color="color-2" fill="#61616b" d="M46,23H2c-0.552,0-1,0.448-1,1v16c0,0.552,0.448,1,1,1h44c0.552,0,1-0.448,1-1V24 C47,23.448,46.552,23,46,23z M19.843,29.85h-2.541v1.236h2.353v1.702h-2.353v1.482h2.541V36h-4.662v-7.853h4.662V29.85z M26.141,32.678c-0.518,0.479-1.252,0.717-2.205,0.717h-0.596V36h-2.122v-7.853h2.718c0.992,0,1.737,0.217,2.234,0.649 c0.498,0.434,0.747,1.05,0.747,1.848C26.917,31.522,26.658,32.2,26.141,32.678z M30.201,30.65c0.159,0.122,0.591,0.344,1.297,0.666 c0.677,0.305,1.146,0.631,1.41,0.98c0.263,0.349,0.395,0.788,0.395,1.318c0,0.487-0.124,0.919-0.371,1.297s-0.604,0.672-1.069,0.881 c-0.465,0.21-1.012,0.314-1.638,0.314c-0.523,0-0.961-0.037-1.316-0.11s-0.723-0.201-1.106-0.384v-1.891 c0.405,0.208,0.825,0.37,1.262,0.486s0.838,0.174,1.203,0.174c0.315,0,0.546-0.054,0.693-0.163s0.22-0.25,0.22-0.422 c0-0.107-0.03-0.201-0.088-0.282c-0.06-0.08-0.154-0.162-0.285-0.244c-0.13-0.082-0.479-0.251-1.044-0.505 c-0.512-0.232-0.896-0.458-1.152-0.677c-0.256-0.219-0.446-0.469-0.569-0.752c-0.124-0.283-0.186-0.617-0.186-1.004 c0-0.724,0.263-1.288,0.79-1.692s1.25-0.606,2.17-0.606c0.813,0,1.642,0.188,2.487,0.563l-0.65,1.638 c-0.734-0.336-1.368-0.504-1.901-0.504c-0.276,0-0.476,0.048-0.602,0.145s-0.188,0.217-0.188,0.359 C29.962,30.391,30.042,30.528,30.201,30.65z"></path></g></svg>