<svg xmlns="http://www.w3.org/2000/svg" height="32" width="32" viewBox="0 0 32 32"><title>file py</title><g fill="#61616b" class="nc-icon-wrapper"><path data-color="color-2" fill="#61616b" d="M3,29v2c0,0.6,0.4,1,1,1h24c0.6,0,1-0.4,1-1v-2H3z"></path> <polygon data-color="color-2" fill="#61616b" points="22,1.6 22,7 27.4,7 "></polygon> <path fill="#61616b" d="M13.4,18.5H13v1.3h0.3c0.2,0,0.4-0.1,0.6-0.2s0.2-0.3,0.2-0.5C14,18.7,13.8,18.5,13.4,18.5z"></path> <path fill="#61616b" d="M31,13h-2V9h-8c-0.6,0-1-0.4-1-1V0H4C3.4,0,3,0.4,3,1v12H1c-0.6,0-1,0.4-1,1v12c0,0.6,0.4,1,1,1h30 c0.6,0,1-0.4,1-1V14C32,13.4,31.6,13,31,13z M15,20.6c-0.4,0.3-0.9,0.5-1.6,0.5H13V23h-1.5v-5.7h2c0.7,0,1.3,0.2,1.6,0.5 s0.5,0.8,0.5,1.3C15.6,19.7,15.4,20.2,15,20.6z M19.3,20.8V23h-1.6v-2.2l-1.9-3.5h1.7l1,2.1l1-2.1h1.7L19.3,20.8z"></path></g></svg>