<svg xmlns="http://www.w3.org/2000/svg" height="48" width="48" viewBox="0 0 48 48"><title>file ase 3</title><g fill="#61616b" class="nc-icon-wrapper"><path fill="#61616b" d="M5,43v3c0,0.552,0.447,1,1,1h36c0.553,0,1-0.448,1-1v-3H5z"></path> <path fill="#61616b" d="M43,21v-7H31c-0.553,0-1-0.448-1-1V1H6C5.447,1,5,1.448,5,2v19H43z"></path> <polygon data-color="color-2" fill="#61616b" points="32,2.586 32,12 41.414,12 "></polygon> <path data-color="color-2" fill="#61616b" d="M18.027,30.387c-0.113-0.454-0.188-0.78-0.223-0.977c-0.033,0.182-0.096,0.482-0.191,0.902 c-0.095,0.418-0.305,1.244-0.631,2.476h1.67l-0.338-1.289C18.236,31.213,18.14,30.842,18.027,30.387z"></path> <path data-color="color-2" fill="#61616b" d="M46,23H2c-0.552,0-1,0.448-1,1v16c0,0.552,0.448,1,1,1h44c0.552,0,1-0.448,1-1V24 C47,23.448,46.552,23,46,23z M19.48,36l-0.387-1.472h-2.552L16.145,36h-2.331l2.562-7.885h2.831L21.801,36H19.48z M24.682,30.65 c0.16,0.122,0.592,0.344,1.297,0.666c0.678,0.305,1.146,0.631,1.41,0.98c0.264,0.349,0.395,0.788,0.395,1.318 c0,0.487-0.123,0.919-0.37,1.297s-0.604,0.672-1.069,0.881c-0.465,0.21-1.012,0.314-1.638,0.314c-0.522,0-0.962-0.037-1.315-0.11 c-0.355-0.073-0.724-0.201-1.107-0.384v-1.891c0.405,0.208,0.826,0.37,1.263,0.486s0.838,0.174,1.203,0.174 c0.315,0,0.546-0.054,0.692-0.163c0.147-0.109,0.221-0.25,0.221-0.422c0-0.107-0.029-0.201-0.088-0.282 c-0.061-0.08-0.154-0.162-0.285-0.244s-0.479-0.251-1.045-0.505c-0.512-0.232-0.896-0.458-1.152-0.677s-0.445-0.469-0.568-0.752 c-0.125-0.283-0.186-0.617-0.186-1.004c0-0.724,0.263-1.288,0.789-1.692s1.25-0.606,2.17-0.606c0.812,0,1.642,0.188,2.486,0.563 l-0.649,1.638c-0.733-0.336-1.368-0.504-1.901-0.504c-0.275,0-0.477,0.048-0.602,0.145s-0.188,0.217-0.188,0.359 C24.443,30.391,24.522,30.528,24.682,30.65z M33.66,29.85h-2.541v1.236h2.353v1.702h-2.353v1.482h2.541V36h-4.662v-7.853h4.662 V29.85z"></path></g></svg>