<svg xmlns="http://www.w3.org/2000/svg" height="48" width="48" viewBox="0 0 48 48"><title>file php 3</title><g fill="#61616b" class="nc-icon-wrapper"><path fill="#61616b" d="M5,43v3c0,0.552,0.447,1,1,1h36c0.553,0,1-0.448,1-1v-3H5z"></path> <path fill="#61616b" d="M43,21v-7H31c-0.553,0-1-0.448-1-1V1H6C5.447,1,5,1.448,5,2v19H43z"></path> <polygon data-color="color-2" fill="#61616b" points="32,2.586 32,12 41.414,12 "></polygon> <path data-color="color-2" fill="#61616b" d="M31.731,29.861h-0.548v1.805h0.387c0.318,0,0.572-0.09,0.76-0.27 c0.188-0.179,0.282-0.426,0.282-0.74C32.612,30.126,32.318,29.861,31.731,29.861z"></path> <path data-color="color-2" fill="#61616b" d="M16.354,29.861h-0.547v1.805h0.387c0.318,0,0.571-0.09,0.76-0.27 c0.188-0.179,0.281-0.426,0.281-0.74C17.234,30.126,16.941,29.861,16.354,29.861z"></path> <path data-color="color-2" fill="#61616b" d="M46,23H2c-0.552,0-1,0.448-1,1v16c0,0.552,0.448,1,1,1h44c0.552,0,1-0.448,1-1V24 C47,23.448,46.552,23,46,23z M18.607,32.678c-0.518,0.479-1.252,0.717-2.205,0.717h-0.596V36h-2.122v-7.853h2.718 c0.992,0,1.736,0.217,2.234,0.649c0.498,0.434,0.746,1.05,0.746,1.848C19.383,31.522,19.125,32.2,18.607,32.678z M27.365,36h-2.133 v-3.201h-2.465V36h-2.133v-7.853h2.133v2.911h2.465v-2.911h2.133V36z M33.984,32.678c-0.518,0.479-1.252,0.717-2.205,0.717h-0.596 V36h-2.121v-7.853h2.717c0.992,0,1.737,0.217,2.234,0.649c0.498,0.434,0.747,1.05,0.747,1.848 C34.761,31.522,34.502,32.2,33.984,32.678z"></path></g></svg>