<svg xmlns="http://www.w3.org/2000/svg" height="48" width="48" viewBox="0 0 48 48"><title>file c plus plus 3</title><g fill="#61616b" class="nc-icon-wrapper"><path fill="#61616b" d="M5,43v3c0,0.552,0.447,1,1,1h36c0.553,0,1-0.448,1-1v-3H5z"></path> <path fill="#61616b" d="M43,21v-7H31c-0.553,0-1-0.448-1-1V1H6C5.447,1,5,1.448,5,2v19H43z"></path> <polygon data-color="color-2" fill="#61616b" points="32,2.586 32,12 41.414,12 "></polygon> <path data-color="color-2" fill="#61616b" d="M46,23H2c-0.552,0-1,0.448-1,1v16c0,0.552,0.448,1,1,1h44c0.552,0,1-0.448,1-1V24 C47,23.448,46.552,23,46,23z M18.669,34.373c0.347,0,0.685-0.049,1.01-0.146s0.653-0.213,0.983-0.349v1.793 c-0.656,0.291-1.396,0.436-2.225,0.436c-1.185,0-2.094-0.344-2.725-1.031c-0.633-0.688-0.949-1.682-0.949-2.98 c0-0.813,0.154-1.527,0.459-2.144c0.307-0.616,0.748-1.09,1.322-1.421s1.25-0.496,2.027-0.496c0.849,0,1.66,0.184,2.434,0.553 l-0.65,1.67c-0.29-0.136-0.58-0.25-0.87-0.344c-0.29-0.093-0.602-0.139-0.935-0.139c-0.505,0-0.898,0.206-1.182,0.62 c-0.283,0.413-0.424,0.983-0.424,1.71C16.945,33.617,17.52,34.373,18.669,34.373z M27.172,32.842h-1.998v1.939h-1.445v-1.939H21.73 v-1.439h1.998v-1.971h1.445v1.971h1.998V32.842z M33.396,32.842h-1.998v1.939h-1.445v-1.939h-1.998v-1.439h1.998v-1.971h1.445v1.971 h1.998V32.842z"></path></g></svg>