<svg xmlns="http://www.w3.org/2000/svg" height="32" width="32" viewBox="0 0 32 32"><title>file eps</title><g fill="#61616b" class="nc-icon-wrapper"><path data-color="color-2" fill="#61616b" d="M3,29v2c0,0.6,0.4,1,1,1h24c0.6,0,1-0.4,1-1v-2H3z"></path> <polygon data-color="color-2" fill="#61616b" points="22,1.6 22,7 27.4,7 "></polygon> <path fill="#61616b" d="M31,13h-2V9h-8c-0.6,0-1-0.4-1-1V0H4C3.4,0,3,0.4,3,1v12H1c-0.6,0-1,0.4-1,1v12c0,0.6,0.4,1,1,1h30 c0.6,0,1-0.4,1-1V14C32,13.4,31.6,13,31,13z M13,18.5h-1.8v0.9h1.7v1.2h-1.7v1.1H13V23H9.6v-5.7H13V18.5z M17.6,20.6 c-0.4,0.3-0.9,0.5-1.6,0.5h-0.4V23H14v-5.7h2c0.7,0,1.3,0.2,1.6,0.5s0.5,0.8,0.5,1.3C18.1,19.7,17.9,20.2,17.6,20.6z M20.5,19.1 c0.1,0.1,0.4,0.2,0.9,0.5c0.5,0.2,0.8,0.5,1,0.7s0.3,0.6,0.3,1c0,0.4-0.1,0.7-0.3,0.9s-0.4,0.5-0.8,0.6s-0.7,0.2-1.2,0.2 c-0.4,0-0.7,0-1-0.1c-0.3-0.1-0.5-0.1-0.8-0.3v-1.4c0.3,0.2,0.6,0.3,0.9,0.4s0.6,0.1,0.9,0.1c0.2,0,0.4,0,0.5-0.1 c0.1-0.1,0.2-0.2,0.2-0.3c0-0.1,0-0.1-0.1-0.2S21,21.1,21,21s-0.3-0.2-0.8-0.4c-0.4-0.2-0.7-0.3-0.8-0.5s-0.3-0.3-0.4-0.5 s-0.1-0.4-0.1-0.7c0-0.5,0.2-0.9,0.6-1.2s0.9-0.4,1.6-0.4c0.6,0,1.2,0.1,1.8,0.4l-0.5,1.2c-0.5-0.2-1-0.4-1.4-0.4 c-0.2,0-0.3,0-0.4,0.1s-0.1,0.2-0.1,0.3C20.3,18.9,20.4,19,20.5,19.1z"></path> <path fill="#61616b" d="M15.9,18.5h-0.4v1.3h0.3c0.2,0,0.4-0.1,0.6-0.2s0.2-0.3,0.2-0.5C16.6,18.7,16.3,18.5,15.9,18.5z"></path></g></svg>