<svg xmlns="http://www.w3.org/2000/svg" height="32" width="32" viewBox="0 0 32 32"><title>file jpg</title><g fill="#61616b" class="nc-icon-wrapper"><path data-color="color-2" fill="#61616b" d="M3,29v2c0,0.6,0.4,1,1,1h24c0.6,0,1-0.4,1-1v-2H3z"></path> <polygon data-color="color-2" fill="#61616b" points="22,1.6 22,7 27.4,7 "></polygon> <path fill="#61616b" d="M14.5,18.5h-0.4v1.3h0.3c0.2,0,0.4-0.1,0.6-0.2s0.2-0.3,0.2-0.5C15.1,18.7,14.9,18.5,14.5,18.5z"></path> <path fill="#61616b" d="M31,13h-2V9h-8c-0.6,0-1-0.4-1-1V0H4C3.4,0,3,0.4,3,1v12H1c-0.6,0-1,0.4-1,1v12c0,0.6,0.4,1,1,1h30 c0.6,0,1-0.4,1-1V14C32,13.4,31.6,13,31,13z M11.3,22.4c0,0.8-0.2,1.4-0.5,1.8s-0.8,0.6-1.5,0.6c-0.3,0-0.5,0-0.8-0.1v-1.2 c0.1,0,0.2,0,0.3,0.1s0.2,0,0.3,0c0.3,0,0.4-0.1,0.5-0.2s0.2-0.4,0.2-0.8v-5.3h1.6V22.4z M16.1,20.6c-0.4,0.3-0.9,0.5-1.6,0.5h-0.4 V23h-1.5v-5.7h2c0.7,0,1.3,0.2,1.6,0.5s0.5,0.8,0.5,1.3C16.7,19.7,16.5,20.2,16.1,20.6z M22.3,22.7c-0.7,0.2-1.4,0.3-2.2,0.3 c-0.9,0-1.6-0.3-2-0.8s-0.7-1.2-0.7-2.2c0-0.9,0.3-1.6,0.8-2.2s1.3-0.8,2.2-0.8c0.4,0,0.7,0,1,0.1s0.6,0.2,0.8,0.3l-0.5,1.2 c-0.4-0.2-0.9-0.3-1.4-0.3c-0.5,0-0.8,0.1-1,0.4S19,19.6,19,20.2c0,0.5,0.1,0.9,0.3,1.2s0.5,0.4,1,0.4c0.2,0,0.4,0,0.6-0.1v-0.9h-1 v-1.2h2.5V22.7z"></path></g></svg>