<svg xmlns="http://www.w3.org/2000/svg" height="32" width="32" viewBox="0 0 32 32"><title>file svg</title><g fill="#61616b" class="nc-icon-wrapper"><path data-color="color-2" fill="#61616b" d="M3,29v2c0,0.6,0.4,1,1,1h24c0.6,0,1-0.4,1-1v-2H3z"></path> <polygon data-color="color-2" fill="#61616b" points="22,1.6 22,7 27.4,7 "></polygon> <path fill="#61616b" d="M31,13h-2V9h-8c-0.6,0-1-0.4-1-1V0H4C3.4,0,3,0.4,3,1v12H1c-0.6,0-1,0.4-1,1v12c0,0.6,0.4,1,1,1h30 c0.6,0,1-0.4,1-1V14C32,13.4,31.6,13,31,13z M10.1,19.1c0.1,0.1,0.4,0.2,0.9,0.5c0.5,0.2,0.8,0.5,1,0.7s0.3,0.6,0.3,1 c0,0.4-0.1,0.7-0.3,0.9s-0.4,0.5-0.8,0.6s-0.7,0.2-1.2,0.2c-0.4,0-0.7,0-1-0.1s-0.5-0.1-0.8-0.3v-1.4c0.3,0.2,0.6,0.3,0.9,0.4 s0.6,0.1,0.9,0.1c0.2,0,0.4,0,0.5-0.1s0.2-0.2,0.2-0.3c0-0.1,0-0.1-0.1-0.2s-0.1-0.1-0.2-0.2s-0.3-0.2-0.8-0.4 c-0.4-0.2-0.7-0.3-0.8-0.5s-0.3-0.3-0.4-0.5s-0.1-0.4-0.1-0.7c0-0.5,0.2-0.9,0.6-1.2s0.9-0.4,1.6-0.4c0.6,0,1.2,0.1,1.8,0.4 l-0.5,1.2c-0.5-0.2-1-0.4-1.4-0.4c-0.2,0-0.3,0-0.4,0.1s-0.1,0.2-0.1,0.3C9.9,18.9,9.9,19,10.1,19.1z M16.3,23h-1.8l-1.9-5.7h1.7 l0.8,2.9c0.2,0.6,0.2,1.1,0.3,1.3c0-0.2,0.1-0.4,0.1-0.7s0.1-0.5,0.1-0.6l0.8-2.9h1.7L16.3,23z M23.5,22.7c-0.7,0.2-1.4,0.3-2.2,0.3 c-0.9,0-1.6-0.3-2-0.8s-0.7-1.2-0.7-2.2c0-0.9,0.3-1.6,0.8-2.2s1.3-0.8,2.2-0.8c0.4,0,0.7,0,1,0.1s0.6,0.2,0.8,0.3l-0.5,1.2 c-0.4-0.2-0.9-0.3-1.4-0.3c-0.5,0-0.8,0.1-1,0.4s-0.4,0.7-0.4,1.3c0,0.5,0.1,0.9,0.3,1.2s0.5,0.4,1,0.4c0.2,0,0.4,0,0.6-0.1v-0.9h-1 v-1.2h2.5V22.7z"></path></g></svg>