<svg xmlns="http://www.w3.org/2000/svg" height="64" width="64" viewBox="0 0 64 64"><title>file sketch 2</title><g fill="#61616b" class="nc-icon-wrapper"><polygon data-color="color-2" fill="#61616b" points="42,2.6 42,16 55.4,16 "></polygon> <path fill="#61616b" d="M57,29V18H41c-0.6,0-1-0.4-1-1V1H8C7.4,1,7,1.4,7,2v27H57z"></path> <path fill="#61616b" d="M7,56v6c0,0.6,0.4,1,1,1h48c0.6,0,1-0.4,1-1v-6H7z"></path> <path data-color="color-2" fill="#61616b" d="M61,31H3c-0.6,0-1,0.4-1,1v21c0,0.6,0.4,1,1,1h58c0.6,0,1-0.4,1-1V32C62,31.4,61.6,31,61,31z M12.7,46.4c-0.6,0.5-1.4,0.7-2.5,0.7c-1,0-1.9-0.2-2.6-0.6v-1.8c0.6,0.3,1.2,0.5,1.6,0.6c0.4,0.1,0.8,0.2,1.2,0.2 c0.4,0,0.8-0.1,1-0.2c0.2-0.2,0.3-0.4,0.3-0.7c0-0.2-0.1-0.3-0.2-0.5s-0.3-0.3-0.4-0.4c-0.2-0.1-0.6-0.3-1.2-0.6 c-0.6-0.3-1-0.5-1.3-0.8s-0.5-0.5-0.7-0.9c-0.2-0.3-0.3-0.7-0.3-1.1c0-0.8,0.3-1.5,0.8-1.9c0.6-0.5,1.3-0.7,2.3-0.7 c0.5,0,0.9,0.1,1.4,0.2c0.4,0.1,0.9,0.3,1.4,0.5l-0.6,1.5c-0.5-0.2-0.9-0.3-1.2-0.4c-0.3-0.1-0.6-0.1-1-0.1c-0.4,0-0.7,0.1-0.9,0.3 s-0.3,0.4-0.3,0.7c0,0.2,0,0.3,0.1,0.5s0.2,0.3,0.4,0.4c0.2,0.1,0.6,0.3,1.2,0.7c0.9,0.4,1.5,0.8,1.8,1.2s0.5,0.9,0.5,1.5 C13.6,45.3,13.3,45.9,12.7,46.4z M20.8,47l-2.4-3.9l-0.8,0.6V47h-2v-9.3h2V42l0.8-1.1l2.5-3.2H23l-3.2,4.1L23,47H20.8z M29.8,39.3 h-3.4v2h3.1V43h-3.1v2.4h3.4V47h-5.3v-9.3h5.3V39.3z M38.1,39.4h-2.5V47h-2v-7.6H31v-1.6h7V39.4z M43.7,45.5c0.7,0,1.4-0.2,2.4-0.5 v1.7c-0.8,0.3-1.6,0.5-2.6,0.5c-1.4,0-2.4-0.4-3.1-1.2c-0.7-0.8-1.1-2-1.1-3.5c0-1,0.2-1.8,0.5-2.5s0.9-1.3,1.5-1.7 c0.7-0.4,1.4-0.6,2.3-0.6c0.9,0,1.8,0.2,2.7,0.7l-0.6,1.6c-0.3-0.2-0.7-0.3-1-0.4s-0.7-0.2-1-0.2c-0.7,0-1.3,0.3-1.7,0.8 s-0.6,1.3-0.6,2.3C41.4,44.5,42.1,45.5,43.7,45.5z M55.9,47h-2v-4h-3.7v4h-2v-9.3h2v3.6h3.7v-3.6h2V47z"></path></g></svg>