<svg xmlns="http://www.w3.org/2000/svg" height="64" width="64" viewBox="0 0 64 64"><title>file max 2</title><g fill="#61616b" class="nc-icon-wrapper"><polygon data-color="color-2" fill="#61616b" points="42,2.6 42,16 55.4,16 "></polygon> <path fill="#61616b" d="M57,29V18H41c-0.6,0-1-0.4-1-1V1H8C7.4,1,7,1.4,7,2v27H57z"></path> <path fill="#61616b" d="M7,56v6c0,0.6,0.4,1,1,1h48c0.6,0,1-0.4,1-1v-6H7z"></path> <path data-color="color-2" fill="#61616b" d="M61,31H3c-0.6,0-1,0.4-1,1v21c0,0.6,0.4,1,1,1h58c0.6,0,1-0.4,1-1V32C62,31.4,61.6,31,61,31z M27.9,47H26v-4.4c0-0.2,0-0.4,0-0.7c0-0.3,0-1,0.1-2.2h-0.1L23.7,47h-1.8l-2.2-7.3h-0.1c0.1,1.5,0.1,2.5,0.1,3V47H18v-9.3h2.7 l2.2,7.1h0l2.3-7.1h2.7V47z M36.2,47l-0.7-2.2h-3.4L31.4,47h-2.1l3.3-9.3H35l3.3,9.3H36.2z M45,47l-2.2-3.5L40.6,47h-2.1l3.1-4.8 l-2.9-4.5h2.2l2,3.3l2-3.3H47l-2.9,4.6l3.1,4.7H45z"></path> <path data-color="color-2" fill="#61616b" d="M33.8,39.1c-0.1,0.5-0.5,1.9-1.2,4H35c-0.6-2-1-3.1-1.1-3.4C33.9,39.5,33.8,39.3,33.8,39.1z"></path></g></svg>