<svg xmlns="http://www.w3.org/2000/svg" height="64" width="64" viewBox="0 0 64 64"><title>file php 2</title><g fill="#61616b" class="nc-icon-wrapper"><polygon data-color="color-2" fill="#61616b" points="42,2.6 42,16 55.4,16 "></polygon> <path fill="#61616b" d="M57,29V18H41c-0.6,0-1-0.4-1-1V1H8C7.4,1,7,1.4,7,2v27H57z"></path> <path fill="#61616b" d="M7,56v6c0,0.6,0.4,1,1,1h48c0.6,0,1-0.4,1-1v-6H7z"></path> <path data-color="color-2" fill="#61616b" d="M41.3,39.3h-0.9v2.8H41c0.6,0,1.1-0.1,1.4-0.4s0.5-0.6,0.5-1c0-0.5-0.1-0.8-0.4-1 C42.2,39.4,41.8,39.3,41.3,39.3z"></path> <path data-color="color-2" fill="#61616b" d="M22.6,39.3h-0.9v2.8h0.6c0.6,0,1.1-0.1,1.4-0.4s0.5-0.6,0.5-1c0-0.5-0.1-0.8-0.4-1 S23.2,39.3,22.6,39.3z"></path> <path data-color="color-2" fill="#61616b" d="M61,31H3c-0.6,0-1,0.4-1,1v21c0,0.6,0.4,1,1,1h58c0.6,0,1-0.4,1-1V32C62,31.4,61.6,31,61,31 z M25.2,42.9c-0.6,0.5-1.5,0.8-2.7,0.8h-0.8V47h-2v-9.3h3c1.1,0,2,0.2,2.6,0.7c0.6,0.5,0.9,1.2,0.9,2.2 C26.2,41.6,25.9,42.4,25.2,42.9z M35.8,47h-2v-4h-3.7v4h-2v-9.3h2v3.6h3.7v-3.6h2V47z M43.9,42.9c-0.6,0.5-1.5,0.8-2.7,0.8h-0.8V47 h-2v-9.3h3c1.1,0,2,0.2,2.6,0.7s0.9,1.2,0.9,2.2C44.8,41.6,44.5,42.4,43.9,42.9z"></path></g></svg>