<svg xmlns="http://www.w3.org/2000/svg" height="48" width="48" viewBox="0 0 48 48"><title>file py 3</title><g fill="#61616b" class="nc-icon-wrapper"><path fill="#61616b" d="M5,43v3c0,0.552,0.447,1,1,1h36c0.553,0,1-0.448,1-1v-3H5z"></path> <path fill="#61616b" d="M43,21v-7H31c-0.553,0-1-0.448-1-1V1H6C5.447,1,5,1.448,5,2v19H43z"></path> <polygon data-color="color-2" fill="#61616b" points="32,2.586 32,12 41.414,12 "></polygon> <path data-color="color-2" fill="#61616b" d="M46,23H2c-0.552,0-1,0.448-1,1v16c0,0.552,0.448,1,1,1h44c0.552,0,1-0.448,1-1V24 C47,23.448,46.552,23,46,23z M22.645,32.678c-0.518,0.479-1.253,0.717-2.205,0.717h-0.597V36h-2.122v-7.853h2.719 c0.991,0,1.736,0.217,2.234,0.649c0.497,0.434,0.746,1.05,0.746,1.848C23.42,31.522,23.161,32.2,22.645,32.678z M28.544,32.934V36 h-2.138v-3.002l-2.584-4.851h2.311l1.342,2.911l1.354-2.911h2.299L28.544,32.934z"></path> <path data-color="color-2" fill="#61616b" d="M20.391,29.861h-0.548v1.805h0.387c0.319,0,0.571-0.09,0.761-0.27 c0.188-0.179,0.281-0.426,0.281-0.74C21.271,30.126,20.979,29.861,20.391,29.861z"></path></g></svg>