<svg xmlns="http://www.w3.org/2000/svg" height="48" width="48" viewBox="0 0 48 48"><title>file gzip 3</title><g fill="#61616b" class="nc-icon-wrapper"><path fill="#61616b" d="M5,43v3c0,0.552,0.447,1,1,1h36c0.553,0,1-0.448,1-1v-3H5z"></path> <path fill="#61616b" d="M43,21v-7H31c-0.553,0-1-0.448-1-1V1H6C5.447,1,5,1.448,5,2v19H43z"></path> <polygon data-color="color-2" fill="#61616b" points="32,2.586 32,12 41.414,12 "></polygon> <path data-color="color-2" fill="#61616b" d="M33.389,29.861h-0.548v1.805h0.387c0.319,0,0.571-0.09,0.761-0.27 c0.188-0.179,0.281-0.426,0.281-0.74C34.27,30.126,33.977,29.861,33.389,29.861z"></path> <path data-color="color-2" fill="#61616b" d="M46,23H2c-0.552,0-1,0.448-1,1v16c0,0.552,0.448,1,1,1h44c0.552,0,1-0.448,1-1V24 C47,23.448,46.552,23,46,23z M18.57,35.635c-0.921,0.315-1.932,0.473-3.035,0.473c-1.211,0-2.146-0.351-2.807-1.053 s-0.99-1.703-0.99-3.002c0-1.268,0.361-2.255,1.084-2.96c0.724-0.705,1.737-1.058,3.041-1.058c0.494,0,0.96,0.046,1.398,0.139 c0.439,0.094,0.821,0.212,1.146,0.355l-0.671,1.664c-0.565-0.279-1.187-0.418-1.864-0.418c-0.619,0-1.098,0.201-1.436,0.604 c-0.34,0.403-0.508,0.979-0.508,1.727c0,0.734,0.152,1.294,0.459,1.679s0.747,0.577,1.324,0.577c0.314,0,0.604-0.03,0.869-0.091 v-1.229h-1.401v-1.639h3.39V35.635z M25.768,36h-6.118v-1.311l3.399-4.828H19.73v-1.714h5.951v1.306l-3.4,4.834h3.486V36z M29.021,36H26.89v-7.853h2.132V36z M35.643,32.678c-0.518,0.479-1.253,0.717-2.205,0.717h-0.597V36h-2.122v-7.853h2.719 c0.991,0,1.736,0.217,2.234,0.649c0.497,0.434,0.746,1.05,0.746,1.848C36.418,31.522,36.159,32.2,35.643,32.678z"></path></g></svg>