<svg xmlns="http://www.w3.org/2000/svg" height="32" width="32" viewBox="0 0 32 32"><title>file html</title><g fill="#61616b" class="nc-icon-wrapper"><path data-color="color-2" fill="#61616b" d="M3,29v2c0,0.6,0.4,1,1,1h24c0.6,0,1-0.4,1-1v-2H3z"></path> <polygon data-color="color-2" fill="#61616b" points="22,1.6 22,7 27.4,7 "></polygon> <path fill="#61616b" d="M31,13h-2V9h-8c-0.6,0-1-0.4-1-1V0H4C3.4,0,3,0.4,3,1v12H1c-0.6,0-1,0.4-1,1v12c0,0.6,0.4,1,1,1h30 c0.6,0,1-0.4,1-1V14C32,13.4,31.6,13,31,13z M9.9,23H8.3v-2.3H6.5V23H5v-5.7h1.6v2.1h1.8v-2.1h1.6V23z M15,18.6h-1.4V23h-1.5v-4.4 h-1.4v-1.3H15V18.6z M22.4,23h-1.4v-2.5c0-0.1,0-0.3,0-0.4c0-0.2,0-0.5,0.1-1.2h0L19.8,23h-1.5l-1.2-4.1h0c0.1,0.7,0.1,1.2,0.1,1.6 V23h-1.4v-5.7h2.1l1.2,4.1h0l1.2-4.1h2.1V23z M27.3,23h-3.7v-5.7h1.5v4.5h2.2V23z"></path></g></svg>