<svg xmlns="http://www.w3.org/2000/svg" height="48" width="48" viewBox="0 0 48 48"><title>file log 3</title><g fill="#61616b" class="nc-icon-wrapper"><path fill="#61616b" d="M5,43v3c0,0.552,0.447,1,1,1h36c0.553,0,1-0.448,1-1v-3H5z"></path> <path fill="#61616b" d="M43,21v-7H31c-0.553,0-1-0.448-1-1V1H6C5.447,1,5,1.448,5,2v19H43z"></path> <polygon data-color="color-2" fill="#61616b" points="32,2.586 32,12 41.414,12 "></polygon> <path data-color="color-2" fill="#61616b" d="M23.135,29.764c-1.063,0-1.595,0.767-1.595,2.299c0,1.519,0.528,2.277,1.584,2.277 c0.537,0,0.936-0.184,1.195-0.553c0.26-0.369,0.39-0.943,0.39-1.725c0-0.783-0.132-1.363-0.395-1.737 C24.051,29.951,23.658,29.764,23.135,29.764z"></path> <path data-color="color-2" fill="#61616b" d="M46,23H2c-0.552,0-1,0.448-1,1v16c0,0.552,0.448,1,1,1h44c0.552,0,1-0.448,1-1V24 C47,23.448,46.552,23,46,23z M18.339,36h-5.146v-7.853h2.122v6.14h3.024V36z M25.971,35.076c-0.648,0.688-1.597,1.031-2.847,1.031 c-1.232,0-2.176-0.346-2.833-1.037c-0.657-0.69-0.985-1.697-0.985-3.018c0-1.308,0.327-2.306,0.98-2.995 c0.653-0.689,1.603-1.034,2.849-1.034c1.25,0,2.197,0.343,2.841,1.026s0.967,1.688,0.967,3.013 C26.943,33.385,26.619,34.389,25.971,35.076z M34.903,35.635c-0.92,0.315-1.932,0.473-3.035,0.473c-1.21,0-2.146-0.351-2.806-1.053 c-0.661-0.702-0.991-1.703-0.991-3.002c0-1.268,0.362-2.255,1.085-2.96s1.737-1.058,3.04-1.058c0.494,0,0.96,0.046,1.399,0.139 c0.438,0.094,0.821,0.212,1.146,0.355l-0.671,1.664c-0.566-0.279-1.187-0.418-1.864-0.418c-0.62,0-1.099,0.201-1.437,0.604 c-0.339,0.403-0.508,0.979-0.508,1.727c0,0.734,0.153,1.294,0.459,1.679c0.307,0.385,0.748,0.577,1.324,0.577 c0.315,0,0.605-0.03,0.87-0.091v-1.229h-1.402v-1.639h3.389V35.635z"></path></g></svg>