<svg xmlns="http://www.w3.org/2000/svg" height="32" width="32" viewBox="0 0 32 32"><title>file csh</title><g fill="#61616b" class="nc-icon-wrapper"><path data-color="color-2" fill="#61616b" d="M3,29v2c0,0.6,0.4,1,1,1h24c0.6,0,1-0.4,1-1v-2H3z"></path> <polygon data-color="color-2" fill="#61616b" points="22,1.6 22,7 27.4,7 "></polygon> <path fill="#61616b" d="M31,13h-2V9h-8c-0.6,0-1-0.4-1-1V0H4C3.4,0,3,0.4,3,1v12H1c-0.6,0-1,0.4-1,1v12c0,0.6,0.4,1,1,1h30 c0.6,0,1-0.4,1-1V14C32,13.4,31.6,13,31,13z M11.3,21.8c0.3,0,0.5,0,0.7-0.1s0.5-0.2,0.7-0.3v1.3c-0.5,0.2-1,0.3-1.6,0.3 c-0.9,0-1.5-0.2-2-0.8s-0.7-1.2-0.7-2.2c0-0.6,0.1-1.1,0.3-1.6s0.5-0.8,1-1s0.9-0.4,1.5-0.4c0.6,0,1.2,0.1,1.8,0.4l-0.5,1.2 c-0.2-0.1-0.4-0.2-0.6-0.2s-0.4-0.1-0.7-0.1c-0.4,0-0.7,0.2-0.9,0.5S10,19.6,10,20.2C10,21.3,10.4,21.8,11.3,21.8z M15.3,19.1 c0.1,0.1,0.4,0.2,0.9,0.5c0.5,0.2,0.8,0.5,1,0.7s0.3,0.6,0.3,1c0,0.4-0.1,0.7-0.3,0.9s-0.4,0.5-0.8,0.6s-0.7,0.2-1.2,0.2 c-0.4,0-0.7,0-1-0.1s-0.5-0.1-0.8-0.3v-1.4c0.3,0.2,0.6,0.3,0.9,0.4s0.6,0.1,0.9,0.1c0.2,0,0.4,0,0.5-0.1s0.2-0.2,0.2-0.3 c0-0.1,0-0.1-0.1-0.2s-0.1-0.1-0.2-0.2s-0.3-0.2-0.8-0.4c-0.4-0.2-0.7-0.3-0.8-0.5s-0.3-0.3-0.4-0.5s-0.1-0.4-0.1-0.7 c0-0.5,0.2-0.9,0.6-1.2s0.9-0.4,1.6-0.4c0.6,0,1.2,0.1,1.8,0.4l-0.5,1.2c-0.5-0.2-1-0.4-1.4-0.4c-0.2,0-0.3,0-0.4,0.1 s-0.1,0.2-0.1,0.3C15.1,18.9,15.2,19,15.3,19.1z M23.4,23h-1.6v-2.3H20V23h-1.6v-5.7H20v2.1h1.8v-2.1h1.6V23z"></path></g></svg>