<svg xmlns="http://www.w3.org/2000/svg" height="48" width="48" viewBox="0 0 48 48"><title>file font 3</title><g fill="#61616b" class="nc-icon-wrapper"><path fill="#61616b" d="M5,43v3c0,0.552,0.447,1,1,1h36c0.553,0,1-0.448,1-1v-3H5z"></path> <path fill="#61616b" d="M43,21v-7H31c-0.553,0-1-0.448-1-1V1H6C5.447,1,5,1.448,5,2v19H43z"></path> <polygon data-color="color-2" fill="#61616b" points="32,2.586 32,12 41.414,12 "></polygon> <path data-color="color-2" fill="#61616b" d="M19.134,29.764c-1.063,0-1.595,0.767-1.595,2.299c0,1.519,0.528,2.277,1.584,2.277 c0.537,0,0.936-0.184,1.195-0.553c0.26-0.369,0.39-0.943,0.39-1.725c0-0.783-0.132-1.363-0.395-1.737 C20.049,29.951,19.657,29.764,19.134,29.764z"></path> <path data-color="color-2" fill="#61616b" d="M46,23H2c-0.552,0-1,0.448-1,1v16c0,0.552,0.448,1,1,1h44c0.552,0,1-0.448,1-1V24 C47,23.448,46.552,23,46,23z M14.305,29.85h-2.551v1.499h2.353v1.702h-2.353V36H9.665v-7.853h4.641V29.85z M21.97,35.076 c-0.648,0.688-1.597,1.031-2.847,1.031c-1.232,0-2.176-0.346-2.833-1.037c-0.657-0.69-0.985-1.697-0.985-3.018 c0-1.308,0.327-2.306,0.98-2.995c0.653-0.689,1.603-1.034,2.849-1.034c1.25,0,2.197,0.343,2.841,1.026s0.967,1.688,0.967,3.013 C22.942,33.385,22.618,34.389,21.97,35.076z M31.836,36h-2.782l-2.868-5.532h-0.048c0.068,0.87,0.102,1.534,0.102,1.993V36h-1.88 v-7.853h2.771l2.857,5.457h0.032c-0.05-0.791-0.075-1.427-0.075-1.907v-3.55h1.891V36z M38.91,29.883h-1.912V36h-2.122v-6.117 h-1.917v-1.735h5.951V29.883z"></path></g></svg>