<svg xmlns="http://www.w3.org/2000/svg" height="32" width="32" viewBox="0 0 32 32"><title>file log</title><g fill="#61616b" class="nc-icon-wrapper"><path data-color="color-2" fill="#61616b" d="M3,29v2c0,0.6,0.4,1,1,1h24c0.6,0,1-0.4,1-1v-2H3z"></path> <polygon data-color="color-2" fill="#61616b" points="22,1.6 22,7 27.4,7 "></polygon> <path fill="#61616b" d="M15.4,18.5c-0.8,0-1.2,0.6-1.2,1.7c0,1.1,0.4,1.7,1.2,1.7c0.4,0,0.7-0.1,0.9-0.4s0.3-0.7,0.3-1.3 c0-0.6-0.1-1-0.3-1.3S15.8,18.5,15.4,18.5z"></path> <path fill="#61616b" d="M31,13h-2V9h-8c-0.6,0-1-0.4-1-1V0H4C3.4,0,3,0.4,3,1v12H1c-0.6,0-1,0.4-1,1v12c0,0.6,0.4,1,1,1h30 c0.6,0,1-0.4,1-1V14C32,13.4,31.6,13,31,13z M11.9,23H8.1v-5.7h1.5v4.5h2.2V23z M17.4,22.3c-0.5,0.5-1.2,0.8-2.1,0.8 c-0.9,0-1.6-0.3-2.1-0.8s-0.7-1.2-0.7-2.2c0-1,0.2-1.7,0.7-2.2s1.2-0.8,2.1-0.8c0.9,0,1.6,0.2,2.1,0.7s0.7,1.2,0.7,2.2 C18.1,21.1,17.9,21.8,17.4,22.3z M23.9,22.7c-0.7,0.2-1.4,0.3-2.2,0.3c-0.9,0-1.6-0.3-2-0.8S19,21.1,19,20.1c0-0.9,0.3-1.6,0.8-2.2 s1.3-0.8,2.2-0.8c0.4,0,0.7,0,1,0.1s0.6,0.2,0.8,0.3l-0.5,1.2c-0.4-0.2-0.9-0.3-1.4-0.3c-0.5,0-0.8,0.1-1,0.4s-0.4,0.7-0.4,1.3 c0,0.5,0.1,0.9,0.3,1.2s0.5,0.4,1,0.4c0.2,0,0.4,0,0.6-0.1v-0.9h-1v-1.2h2.5V22.7z"></path></g></svg>