<svg xmlns="http://www.w3.org/2000/svg" height="48" width="48" viewBox="0 0 48 48"><title>file jpg 3</title><g fill="#61616b" class="nc-icon-wrapper"><path fill="#61616b" d="M5,43v3c0,0.552,0.447,1,1,1h36c0.553,0,1-0.448,1-1v-3H5z"></path> <path fill="#61616b" d="M43,21v-7H31c-0.553,0-1-0.448-1-1V1H6C5.447,1,5,1.448,5,2v19H43z"></path> <polygon data-color="color-2" fill="#61616b" points="32,2.586 32,12 41.414,12 "></polygon> <path data-color="color-2" fill="#61616b" d="M21.908,29.861H21.36v1.805h0.387c0.319,0,0.572-0.09,0.76-0.27 c0.188-0.179,0.282-0.426,0.282-0.74C22.789,30.126,22.495,29.861,21.908,29.861z"></path> <path data-color="color-2" fill="#61616b" d="M46,23H2c-0.552,0-1,0.448-1,1v16c0,0.552,0.448,1,1,1h44c0.552,0,1-0.448,1-1V24 C47,23.448,46.552,23,46,23z M17.541,35.232c0,1.062-0.233,1.868-0.698,2.414s-1.164,0.818-2.095,0.818 c-0.387,0-0.754-0.037-1.101-0.112v-1.649c0.115,0.021,0.236,0.046,0.365,0.073c0.129,0.026,0.269,0.04,0.419,0.04 c0.351,0,0.602-0.105,0.752-0.316c0.15-0.212,0.226-0.573,0.226-1.086v-7.267h2.132V35.232z M24.161,32.678 c-0.518,0.479-1.252,0.717-2.205,0.717H21.36V36h-2.122v-7.853h2.718c0.992,0,1.737,0.217,2.234,0.649 c0.498,0.434,0.747,1.05,0.747,1.848C24.937,31.522,24.678,32.2,24.161,32.678z M32.73,35.635c-0.92,0.315-1.932,0.473-3.035,0.473 c-1.21,0-2.146-0.351-2.806-1.053c-0.661-0.702-0.991-1.703-0.991-3.002c0-1.268,0.362-2.255,1.085-2.96s1.737-1.058,3.04-1.058 c0.494,0,0.96,0.046,1.399,0.139c0.438,0.094,0.821,0.212,1.146,0.355l-0.671,1.664c-0.566-0.279-1.187-0.418-1.864-0.418 c-0.62,0-1.099,0.201-1.437,0.604c-0.339,0.403-0.508,0.979-0.508,1.727c0,0.734,0.153,1.294,0.459,1.679 c0.307,0.385,0.748,0.577,1.324,0.577c0.315,0,0.605-0.03,0.87-0.091v-1.229h-1.402v-1.639h3.389V35.635z"></path></g></svg>