<svg xmlns="http://www.w3.org/2000/svg" height="64" width="64" viewBox="0 0 64 64"><title>file eps 2</title><g fill="#61616b" class="nc-icon-wrapper"><polygon data-color="color-2" fill="#61616b" points="42,2.6 42,16 55.4,16 "></polygon> <path fill="#61616b" d="M57,29V18H41c-0.6,0-1-0.4-1-1V1H8C7.4,1,7,1.4,7,2v27H57z"></path> <path fill="#61616b" d="M7,56v6c0,0.6,0.4,1,1,1h48c0.6,0,1-0.4,1-1v-6H7z"></path> <path data-color="color-2" fill="#61616b" d="M61,31H3c-0.6,0-1,0.4-1,1v21c0,0.6,0.4,1,1,1h58c0.6,0,1-0.4,1-1V32C62,31.4,61.6,31,61,31z M27,39.3h-3.4v2h3.1V43h-3.1v2.4H27V47h-5.3v-9.3H27V39.3z M34.6,42.9c-0.6,0.5-1.5,0.8-2.7,0.8h-0.8V47h-2v-9.3h3 c1.1,0,2,0.2,2.6,0.7c0.6,0.5,0.9,1.2,0.9,2.2C35.6,41.6,35.2,42.4,34.6,42.9z M42.1,46.4c-0.6,0.5-1.4,0.7-2.5,0.7 c-1,0-1.9-0.2-2.6-0.6v-1.8c0.6,0.3,1.2,0.5,1.6,0.6c0.4,0.1,0.8,0.2,1.2,0.2c0.4,0,0.8-0.1,1-0.2c0.2-0.2,0.3-0.4,0.3-0.7 c0-0.2-0.1-0.3-0.2-0.5s-0.3-0.3-0.4-0.4c-0.2-0.1-0.6-0.3-1.2-0.6c-0.6-0.3-1-0.5-1.3-0.8s-0.5-0.5-0.7-0.9 c-0.2-0.3-0.3-0.7-0.3-1.1c0-0.8,0.3-1.5,0.8-1.9c0.6-0.5,1.3-0.7,2.3-0.7c0.5,0,0.9,0.1,1.4,0.2c0.4,0.1,0.9,0.3,1.4,0.5l-0.6,1.5 c-0.5-0.2-0.9-0.3-1.2-0.4c-0.3-0.1-0.6-0.1-1-0.1c-0.4,0-0.7,0.1-0.9,0.3S39,39.9,39,40.2c0,0.2,0,0.3,0.1,0.5s0.2,0.3,0.4,0.4 c0.2,0.1,0.6,0.3,1.2,0.7c0.9,0.4,1.5,0.8,1.8,1.2s0.5,0.9,0.5,1.5C43,45.3,42.7,45.9,42.1,46.4z"></path> <path data-color="color-2" fill="#61616b" d="M32,39.3h-0.9v2.8h0.6c0.6,0,1.1-0.1,1.4-0.4s0.5-0.6,0.5-1c0-0.5-0.1-0.8-0.4-1 C32.9,39.4,32.5,39.3,32,39.3z"></path></g></svg>