<svg xmlns="http://www.w3.org/2000/svg" height="48" width="48" viewBox="0 0 48 48"><title>file java 3</title><g fill="#61616b" class="nc-icon-wrapper"><path fill="#61616b" d="M5,43v3c0,0.552,0.447,1,1,1h36c0.553,0,1-0.448,1-1v-3H5z"></path> <path fill="#61616b" d="M43,21v-7H31c-0.553,0-1-0.448-1-1V1H6C5.447,1,5,1.448,5,2v19H43z"></path> <polygon data-color="color-2" fill="#61616b" points="32,2.586 32,12 41.414,12 "></polygon> <path data-color="color-2" fill="#61616b" d="M33.966,30.387c-0.113-0.454-0.188-0.78-0.223-0.977c-0.032,0.182-0.096,0.482-0.191,0.902 c-0.095,0.418-0.305,1.244-0.631,2.476h1.67l-0.338-1.289C34.175,31.213,34.079,30.842,33.966,30.387z"></path> <path data-color="color-2" fill="#61616b" d="M18.347,30.387c-0.113-0.454-0.188-0.78-0.223-0.977c-0.032,0.182-0.096,0.482-0.191,0.902 c-0.095,0.418-0.305,1.244-0.631,2.476h1.67l-0.338-1.289C18.556,31.213,18.459,30.842,18.347,30.387z"></path> <path data-color="color-2" fill="#61616b" d="M46,23H2c-0.552,0-1,0.448-1,1v16c0,0.552,0.448,1,1,1h44c0.552,0,1-0.448,1-1V24 C47,23.448,46.552,23,46,23z M13.285,35.232c0,1.062-0.233,1.868-0.698,2.414s-1.164,0.818-2.095,0.818 c-0.387,0-0.754-0.037-1.101-0.112v-1.649c0.115,0.021,0.236,0.046,0.365,0.073c0.129,0.026,0.269,0.04,0.419,0.04 c0.351,0,0.602-0.105,0.752-0.316c0.15-0.212,0.226-0.573,0.226-1.086v-7.267h2.132V35.232z M19.8,36l-0.387-1.472h-2.551L16.464,36 h-2.331l2.562-7.885h2.831L22.12,36H19.8z M24.682,36l-2.562-7.853h2.385l1.069,3.979c0.222,0.885,0.344,1.501,0.365,1.848 c0.025-0.25,0.075-0.563,0.15-0.939s0.142-0.672,0.199-0.887l1.09-4.001h2.374L27.18,36H24.682z M35.419,36l-0.387-1.472h-2.551 L32.083,36h-2.331l2.562-7.885h2.831L37.739,36H35.419z"></path></g></svg>