<svg xmlns="http://www.w3.org/2000/svg" height="48" width="48" viewBox="0 0 48 48"><title>file cgi 3</title><g fill="#61616b" class="nc-icon-wrapper"><path fill="#61616b" d="M5,43v3c0,0.552,0.447,1,1,1h36c0.553,0,1-0.448,1-1v-3H5z"></path> <path fill="#61616b" d="M43,21v-7H31c-0.553,0-1-0.448-1-1V1H6C5.447,1,5,1.448,5,2v19H43z"></path> <polygon data-color="color-2" fill="#61616b" points="32,2.586 32,12 41.414,12 "></polygon> <path data-color="color-2" fill="#61616b" d="M46,23H2c-0.552,0-1,0.448-1,1v16c0,0.552,0.448,1,1,1h44c0.552,0,1-0.448,1-1V24 C47,23.448,46.552,23,46,23z M18.908,34.373c0.348,0,0.684-0.049,1.01-0.146s0.653-0.213,0.982-0.349v1.793 c-0.654,0.291-1.396,0.436-2.223,0.436c-1.186,0-2.094-0.344-2.727-1.031c-0.632-0.688-0.947-1.682-0.947-2.98 c0-0.813,0.152-1.527,0.459-2.144s0.746-1.09,1.32-1.421c0.576-0.331,1.252-0.496,2.028-0.496c0.849,0,1.659,0.184,2.433,0.553 l-0.649,1.67c-0.29-0.136-0.58-0.25-0.87-0.344c-0.29-0.093-0.602-0.139-0.935-0.139c-0.505,0-0.899,0.206-1.182,0.62 c-0.282,0.413-0.425,0.983-0.425,1.71C17.184,33.617,17.759,34.373,18.908,34.373z M28.974,35.635 c-0.921,0.315-1.932,0.473-3.034,0.473c-1.211,0-2.146-0.351-2.807-1.053c-0.661-0.702-0.991-1.703-0.991-3.002 c0-1.268,0.362-2.255,1.085-2.96s1.736-1.058,3.04-1.058c0.494,0,0.96,0.046,1.399,0.139c0.438,0.094,0.82,0.212,1.146,0.355 l-0.672,1.664c-0.565-0.279-1.187-0.418-1.863-0.418c-0.619,0-1.099,0.201-1.437,0.604c-0.339,0.403-0.508,0.979-0.508,1.727 c0,0.734,0.153,1.294,0.459,1.679c0.307,0.385,0.747,0.577,1.324,0.577c0.315,0,0.604-0.03,0.87-0.091v-1.229h-1.402v-1.639h3.39 V35.635z M32.707,36h-2.133v-7.853h2.133V36z"></path></g></svg>