<svg xmlns="http://www.w3.org/2000/svg" height="32" width="32" viewBox="0 0 32 32"><title>file raw</title><g fill="#61616b" class="nc-icon-wrapper"><path data-color="color-2" fill="#61616b" d="M3,29v2c0,0.6,0.4,1,1,1h24c0.6,0,1-0.4,1-1v-2H3z"></path> <polygon data-color="color-2" fill="#61616b" points="22,1.6 22,7 27.4,7 "></polygon> <path fill="#61616b" d="M14.7,18.9c-0.1-0.3-0.1-0.6-0.2-0.7c0,0.1-0.1,0.4-0.1,0.7s-0.2,0.9-0.5,1.8h1.2l-0.2-0.9 C14.9,19.5,14.8,19.2,14.7,18.9z"></path> <path fill="#61616b" d="M8.7,18.5H8.4v1.3h0.3c0.5,0,0.8-0.2,0.8-0.7C9.5,18.7,9.2,18.5,8.7,18.5z"></path> <path fill="#61616b" d="M31,13h-2V9h-8c-0.6,0-1-0.4-1-1V0H4C3.4,0,3,0.4,3,1v12H1c-0.6,0-1,0.4-1,1v12c0,0.6,0.4,1,1,1h30 c0.6,0,1-0.4,1-1V14C32,13.4,31.6,13,31,13z M15.8,23l-0.3-1.1h-1.9L13.3,23h-1.6h-0.1H10l-1.2-2.1H8.4V23H6.8v-5.7h1.9 c1.6,0,2.3,0.6,2.3,1.7c0,0.7-0.3,1.2-1,1.5l1.6,2.4l1.8-5.6h2.1l1.9,5.7H15.8z M24.2,23h-1.8l-0.5-2.5c0-0.1-0.1-0.3-0.1-0.6 s-0.1-0.6-0.1-0.8c0,0.2-0.1,0.4-0.1,0.6s-0.1,0.5-0.1,0.7s-0.2,1.1-0.6,2.6H19l-1.4-5.7h1.5l0.6,2.9c0.1,0.6,0.2,1.1,0.3,1.5 c0-0.3,0.1-0.6,0.2-1.1s0.2-0.8,0.2-1.1l0.5-2.2h1.4l0.5,2.2c0.1,0.3,0.2,0.7,0.3,1.2s0.1,0.8,0.2,1c0-0.3,0.1-0.8,0.3-1.5l0.6-2.9 h1.5L24.2,23z"></path></g></svg>