<svg xmlns="http://www.w3.org/2000/svg" height="32" width="32" viewBox="0 0 32 32"><title>file c plus plus</title><g fill="#61616b" class="nc-icon-wrapper"><path data-color="color-2" fill="#61616b" d="M3,29v2c0,0.6,0.4,1,1,1h24c0.6,0,1-0.4,1-1v-2H3z"></path> <polygon data-color="color-2" fill="#61616b" points="22,1.6 22,7 27.4,7 "></polygon> <path fill="#61616b" d="M31,13h-2V9h-8c-0.6,0-1-0.4-1-1V0H4C3.4,0,3,0.4,3,1v12H1c-0.6,0-1,0.4-1,1v12c0,0.6,0.4,1,1,1h30 c0.6,0,1-0.4,1-1V14C32,13.4,31.6,13,31,13z M12.1,21.8c0.3,0,0.5,0,0.7-0.1s0.5-0.2,0.7-0.3v1.3c-0.5,0.2-1,0.3-1.6,0.3 c-0.9,0-1.5-0.2-2-0.8s-0.7-1.2-0.7-2.2c0-0.6,0.1-1.1,0.3-1.6s0.5-0.8,1-1s0.9-0.4,1.5-0.4c0.6,0,1.2,0.1,1.8,0.4l-0.5,1.2 c-0.2-0.1-0.4-0.2-0.6-0.2s-0.4-0.1-0.7-0.1c-0.4,0-0.7,0.2-0.9,0.5s-0.3,0.7-0.3,1.2C10.9,21.3,11.3,21.8,12.1,21.8z M18.3,20.7 h-1.5v1.4h-1.1v-1.4h-1.5v-1h1.5v-1.4h1.1v1.4h1.5V20.7z M22.8,20.7h-1.5v1.4h-1.1v-1.4h-1.5v-1h1.5v-1.4h1.1v1.4h1.5V20.7z"></path></g></svg>