<svg xmlns="http://www.w3.org/2000/svg" height="64" width="64" viewBox="0 0 64 64"><title>file psd 2</title><g fill="#61616b" class="nc-icon-wrapper"><polygon data-color="color-2" fill="#61616b" points="42,2.6 42,16 55.4,16 "></polygon> <path fill="#61616b" d="M57,29V18H41c-0.6,0-1-0.4-1-1V1H8C7.4,1,7,1.4,7,2v27H57z"></path> <path fill="#61616b" d="M7,56v6c0,0.6,0.4,1,1,1h48c0.6,0,1-0.4,1-1v-6H7z"></path> <path data-color="color-2" fill="#61616b" d="M39.3,39.3h-1v6h0.8c1.9,0,2.8-1,2.8-3.1C41.9,40.3,41.1,39.3,39.3,39.3z"></path> <path data-color="color-2" fill="#61616b" d="M23.3,39.3h-0.9v2.8h0.6c0.6,0,1.1-0.1,1.4-0.4s0.5-0.6,0.5-1c0-0.5-0.1-0.8-0.4-1 C24.2,39.4,23.8,39.3,23.3,39.3z"></path> <path data-color="color-2" fill="#61616b" d="M61,31H3c-0.6,0-1,0.4-1,1v21c0,0.6,0.4,1,1,1h58c0.6,0,1-0.4,1-1V32C62,31.4,61.6,31,61,31z M25.9,42.9c-0.6,0.5-1.5,0.8-2.7,0.8h-0.8V47h-2v-9.3h3c1.1,0,2,0.2,2.6,0.7c0.6,0.5,0.9,1.2,0.9,2.2 C26.8,41.6,26.5,42.4,25.9,42.9z M33.4,46.4c-0.6,0.5-1.4,0.7-2.5,0.7c-1,0-1.9-0.2-2.6-0.6v-1.8c0.6,0.3,1.2,0.5,1.6,0.6 c0.4,0.1,0.8,0.2,1.2,0.2c0.4,0,0.8-0.1,1-0.2c0.2-0.2,0.3-0.4,0.3-0.7c0-0.2-0.1-0.3-0.2-0.5s-0.3-0.3-0.4-0.4 c-0.2-0.1-0.6-0.3-1.2-0.6c-0.6-0.3-1-0.5-1.3-0.8s-0.5-0.5-0.7-0.9c-0.2-0.3-0.3-0.7-0.3-1.1c0-0.8,0.3-1.5,0.8-1.9 c0.6-0.5,1.3-0.7,2.3-0.7c0.5,0,0.9,0.1,1.4,0.2c0.4,0.1,0.9,0.3,1.4,0.5l-0.6,1.5c-0.5-0.2-0.9-0.3-1.2-0.4c-0.3-0.1-0.6-0.1-1-0.1 c-0.4,0-0.7,0.1-0.9,0.3s-0.3,0.4-0.3,0.7c0,0.2,0,0.3,0.1,0.5s0.2,0.3,0.4,0.4c0.2,0.1,0.6,0.3,1.2,0.7c0.9,0.4,1.5,0.8,1.8,1.2 s0.5,0.9,0.5,1.5C34.3,45.3,34,45.9,33.4,46.4z M42.7,45.8c-0.9,0.8-2.1,1.2-3.8,1.2h-2.6v-9.3h2.9c1.5,0,2.7,0.4,3.5,1.2 c0.8,0.8,1.3,1.9,1.3,3.4C44,43.8,43.5,45,42.7,45.8z"></path></g></svg>