<svg xmlns="http://www.w3.org/2000/svg" height="64" width="64" viewBox="0 0 64 64"><title>file jpg 2</title><g fill="#61616b" class="nc-icon-wrapper"><polygon data-color="color-2" fill="#61616b" points="42,2.6 42,16 55.4,16 "></polygon> <path fill="#61616b" d="M57,29V18H41c-0.6,0-1-0.4-1-1V1H8C7.4,1,7,1.4,7,2v27H57z"></path> <path fill="#61616b" d="M7,56v6c0,0.6,0.4,1,1,1h48c0.6,0,1-0.4,1-1v-6H7z"></path> <path data-color="color-2" fill="#61616b" d="M61,31H3c-0.6,0-1,0.4-1,1v21c0,0.6,0.4,1,1,1h58c0.6,0,1-0.4,1-1V32C62,31.4,61.6,31,61,31z M23.9,46.4c0,1.1-0.2,1.9-0.7,2.5S22,49.7,21,49.7c-0.4,0-0.8,0-1.2-0.1V48c0.3,0.1,0.6,0.1,0.9,0.1c0.4,0,0.7-0.1,0.9-0.4 S22,47,22,46.4v-8.7h2V46.4z M32,42.9c-0.6,0.5-1.5,0.8-2.7,0.8h-0.8V47h-2v-9.3h3c1.1,0,2,0.2,2.6,0.7c0.6,0.5,0.9,1.2,0.9,2.2 C32.9,41.6,32.6,42.4,32,42.9z M42.2,46.6c-0.6,0.2-1.2,0.3-1.7,0.4c-0.5,0.1-1.1,0.1-1.6,0.1c-1.4,0-2.5-0.4-3.2-1.2 c-0.7-0.8-1.1-2-1.1-3.5c0-1.5,0.4-2.7,1.3-3.5c0.9-0.8,2-1.3,3.6-1.3c1,0,1.9,0.2,2.8,0.6l-0.7,1.6c-0.7-0.3-1.4-0.5-2.1-0.5 c-0.9,0-1.5,0.3-2,0.9s-0.8,1.3-0.8,2.3c0,1,0.2,1.8,0.6,2.3c0.4,0.5,1,0.8,1.8,0.8c0.4,0,0.8,0,1.3-0.1v-1.9h-1.8v-1.6h3.7V46.6z"></path> <path data-color="color-2" fill="#61616b" d="M29.4,39.3h-0.9v2.8h0.6c0.6,0,1.1-0.1,1.4-0.4s0.5-0.6,0.5-1c0-0.5-0.1-0.8-0.4-1 C30.3,39.4,29.9,39.3,29.4,39.3z"></path></g></svg>