<svg xmlns="http://www.w3.org/2000/svg" height="32" width="32" viewBox="0 0 32 32"><title>file java</title><g fill="#61616b" class="nc-icon-wrapper"><path data-color="color-2" fill="#61616b" d="M3,29v2c0,0.6,0.4,1,1,1h24c0.6,0,1-0.4,1-1v-2H3z"></path> <polygon data-color="color-2" fill="#61616b" points="22,1.6 22,7 27.4,7 "></polygon> <path fill="#61616b" d="M31,13h-2V9h-8c-0.6,0-1-0.4-1-1V0H4C3.4,0,3,0.4,3,1v12H1c-0.6,0-1,0.4-1,1v12c0,0.6,0.4,1,1,1h30 c0.6,0,1-0.4,1-1V14C32,13.4,31.6,13,31,13z M8.2,22.4c0,0.8-0.2,1.4-0.5,1.8s-0.8,0.6-1.5,0.6c-0.3,0-0.5,0-0.8-0.1v-1.2 c0.1,0,0.2,0,0.3,0.1s0.2,0,0.3,0c0.3,0,0.4-0.1,0.5-0.2s0.2-0.4,0.2-0.8v-5.3h1.6V22.4z M12.9,23l-0.3-1.1h-1.9L10.5,23H8.8 l1.9-5.7h2.1l1.9,5.7H12.9z M16.5,23l-1.9-5.7h1.7l0.8,2.9c0.2,0.6,0.2,1.1,0.3,1.3c0-0.2,0.1-0.4,0.1-0.7s0.1-0.5,0.1-0.6l0.8-2.9 h1.7L18.3,23H16.5z M24.3,23L24,21.9h-1.9L21.9,23h-1.7l1.9-5.7h2.1L26,23H24.3z"></path> <path fill="#61616b" d="M23.2,18.9c-0.1-0.3-0.1-0.6-0.2-0.7c0,0.1-0.1,0.4-0.1,0.7s-0.2,0.9-0.5,1.8h1.2l-0.2-0.9 C23.4,19.5,23.3,19.2,23.2,18.9z"></path> <path fill="#61616b" d="M11.9,18.9c-0.1-0.3-0.1-0.6-0.2-0.7c0,0.1-0.1,0.4-0.1,0.7s-0.2,0.9-0.5,1.8h1.2l-0.2-0.9 C12,19.5,12,19.2,11.9,18.9z"></path></g></svg>