<svg xmlns="http://www.w3.org/2000/svg" height="48" width="48" viewBox="0 0 48 48"><title>file tiff 3</title><g fill="#61616b" class="nc-icon-wrapper"><path fill="#61616b" d="M5,43v3c0,0.552,0.447,1,1,1h36c0.553,0,1-0.448,1-1v-3H5z"></path> <path fill="#61616b" d="M43,21v-7H31c-0.553,0-1-0.448-1-1V1H6C5.447,1,5,1.448,5,2v19H43z"></path> <polygon data-color="color-2" fill="#61616b" points="32,2.586 32,12 41.414,12 "></polygon> <path data-color="color-2" fill="#61616b" d="M46,23H2c-0.552,0-1,0.448-1,1v16c0,0.552,0.448,1,1,1h44c0.552,0,1-0.448,1-1V24 C47,23.448,46.552,23,46,23z M19.131,29.883h-1.912V36h-2.122v-6.117H13.18v-1.735h5.951V29.883z M22.386,36h-2.132v-7.853h2.132V36 z M28.724,29.85h-2.551v1.499h2.353v1.702h-2.353V36h-2.089v-7.853h4.641V29.85z M34.654,29.85h-2.551v1.499h2.353v1.702h-2.353V36 h-2.089v-7.853h4.641V29.85z"></path></g></svg>