<svg xmlns="http://www.w3.org/2000/svg" height="32" width="32" viewBox="0 0 32 32"><title>file cad</title><g fill="#61616b" class="nc-icon-wrapper"><path data-color="color-2" fill="#61616b" d="M3,29v2c0,0.6,0.4,1,1,1h24c0.6,0,1-0.4,1-1v-2H3z"></path> <polygon data-color="color-2" fill="#61616b" points="22,1.6 22,7 27.4,7 "></polygon> <path fill="#61616b" d="M21.2,18.5h-0.4v3.2h0.3c0.5,0,0.8-0.1,1-0.4s0.3-0.7,0.3-1.2c0-0.5-0.1-0.9-0.3-1.2S21.6,18.5,21.2,18.5z"></path> <path fill="#61616b" d="M15.8,18.9c-0.1-0.3-0.1-0.6-0.2-0.7c0,0.1-0.1,0.4-0.1,0.7s-0.2,0.9-0.5,1.8h1.2L16,19.7 C16,19.5,15.9,19.2,15.8,18.9z"></path> <path fill="#61616b" d="M31,13h-2V9h-8c-0.6,0-1-0.4-1-1V0H4C3.4,0,3,0.4,3,1v12H1c-0.6,0-1,0.4-1,1v12c0,0.6,0.4,1,1,1h30 c0.6,0,1-0.4,1-1V14C32,13.4,31.6,13,31,13z M10.8,21.8c0.3,0,0.5,0,0.7-0.1s0.5-0.2,0.7-0.3v1.3c-0.5,0.2-1,0.3-1.6,0.3 c-0.9,0-1.5-0.2-2-0.8S8,21.1,8,20.2c0-0.6,0.1-1.1,0.3-1.6s0.5-0.8,1-1s0.9-0.4,1.5-0.4c0.6,0,1.2,0.1,1.8,0.4L12,18.8 c-0.2-0.1-0.4-0.2-0.6-0.2s-0.4-0.1-0.7-0.1c-0.4,0-0.7,0.2-0.9,0.5s-0.3,0.7-0.3,1.2C9.6,21.3,10,21.8,10.8,21.8z M16.9,23 l-0.3-1.1h-1.9L14.5,23h-1.7l1.9-5.7h2.1l1.9,5.7H16.9z M23.2,22.2C22.7,22.7,22,23,21,23h-1.8v-5.7h2c0.9,0,1.6,0.2,2.1,0.7 s0.7,1.1,0.7,2C24,21,23.8,21.7,23.2,22.2z"></path></g></svg>