<svg xmlns="http://www.w3.org/2000/svg" height="64" width="64" viewBox="0 0 64 64"><title>file obj 2</title><g fill="#61616b" class="nc-icon-wrapper"><polygon data-color="color-2" fill="#61616b" points="42,2.6 42,16 55.4,16 "></polygon> <path fill="#61616b" d="M57,29V18H41c-0.6,0-1-0.4-1-1V1H8C7.4,1,7,1.4,7,2v27H57z"></path> <path fill="#61616b" d="M7,56v6c0,0.6,0.4,1,1,1h48c0.6,0,1-0.4,1-1v-6H7z"></path> <path data-color="color-2" fill="#61616b" d="M25.2,39.2c-0.8,0-1.4,0.3-1.8,0.8c-0.4,0.5-0.6,1.3-0.6,2.3c0,1,0.2,1.8,0.6,2.3 s1,0.8,1.8,0.8c1.6,0,2.4-1,2.4-3.1C27.6,40.3,26.8,39.2,25.2,39.2z"></path> <path data-color="color-2" fill="#61616b" d="M35,43h-1.2v2.4h1.3c0.5,0,0.9-0.1,1.2-0.3c0.3-0.2,0.4-0.5,0.4-1C36.7,43.3,36.1,43,35,43z "></path> <path data-color="color-2" fill="#61616b" d="M36.1,41.1c0.2-0.2,0.4-0.4,0.4-0.8c0-0.4-0.1-0.6-0.4-0.8c-0.3-0.2-0.7-0.2-1.2-0.2h-1v2.1 h1.1C35.5,41.4,35.9,41.3,36.1,41.1z"></path> <path data-color="color-2" fill="#61616b" d="M61,31H3c-0.6,0-1,0.4-1,1v21c0,0.6,0.4,1,1,1h58c0.6,0,1-0.4,1-1V32C62,31.4,61.6,31,61,31 z M28.5,45.9c-0.8,0.8-1.9,1.2-3.3,1.2s-2.5-0.4-3.3-1.2c-0.8-0.8-1.1-2-1.1-3.6c0-1.5,0.4-2.7,1.1-3.5c0.8-0.8,1.9-1.2,3.3-1.2 s2.5,0.4,3.3,1.2c0.8,0.8,1.1,2,1.1,3.5C29.6,43.9,29.3,45.1,28.5,45.9z M37.8,46.3c-0.6,0.5-1.4,0.7-2.5,0.7h-3.5v-9.3h2.9 c1.3,0,2.3,0.2,2.9,0.6c0.6,0.4,0.9,1,0.9,1.8c0,0.6-0.1,1-0.4,1.4c-0.3,0.4-0.6,0.6-1,0.6v0.1c0.6,0.1,1,0.4,1.3,0.7 c0.3,0.4,0.4,0.8,0.4,1.4C38.7,45.2,38.4,45.8,37.8,46.3z M42.8,46.4c0,1.1-0.2,1.9-0.7,2.5s-1.2,0.9-2.2,0.9c-0.4,0-0.8,0-1.2-0.1 V48c0.3,0.1,0.6,0.1,0.9,0.1c0.4,0,0.7-0.1,0.9-0.4s0.3-0.7,0.3-1.3v-8.7h2V46.4z"></path></g></svg>