<svg xmlns="http://www.w3.org/2000/svg" height="48" width="48" viewBox="0 0 48 48"><title>file cfm 3</title><g fill="#61616b" class="nc-icon-wrapper"><path fill="#61616b" d="M5,43v3c0,0.552,0.447,1,1,1h36c0.553,0,1-0.448,1-1v-3H5z"></path> <path fill="#61616b" d="M43,21v-7H31c-0.553,0-1-0.448-1-1V1H6C5.447,1,5,1.448,5,2v19H43z"></path> <polygon data-color="color-2" fill="#61616b" points="32,2.586 32,12 41.414,12 "></polygon> <path data-color="color-2" fill="#61616b" d="M46,23H2c-0.552,0-1,0.448-1,1v16c0,0.552,0.448,1,1,1h44c0.552,0,1-0.448,1-1V24 C47,23.448,46.552,23,46,23z M16.612,34.373c0.347,0,0.684-0.049,1.01-0.146s0.653-0.213,0.983-0.349v1.793 c-0.655,0.291-1.396,0.436-2.224,0.436c-1.185,0-2.094-0.344-2.726-1.031c-0.632-0.688-0.948-1.682-0.948-2.98 c0-0.813,0.153-1.527,0.459-2.144c0.307-0.616,0.747-1.09,1.321-1.421c0.575-0.331,1.251-0.496,2.028-0.496 c0.849,0,1.66,0.184,2.433,0.553l-0.65,1.67c-0.29-0.136-0.58-0.25-0.87-0.344c-0.29-0.093-0.602-0.139-0.935-0.139 c-0.505,0-0.899,0.206-1.182,0.62c-0.283,0.413-0.424,0.983-0.424,1.71C14.888,33.617,15.462,34.373,16.612,34.373z M24.776,29.85 h-2.551v1.499h2.353v1.702h-2.353V36h-2.089v-7.853h4.641V29.85z M35.008,36h-1.95v-3.443c0-0.179,0.003-0.377,0.008-0.596 c0.006-0.219,0.03-0.754,0.073-1.605H33.09L31.506,36h-2.02l-1.606-5.656h-0.048c0.075,0.964,0.113,1.712,0.113,2.246V36h-1.88 v-7.853h2.825l1.638,5.575h0.043l1.606-5.575h2.831V36z"></path></g></svg>