<svg xmlns="http://www.w3.org/2000/svg" height="16" width="16" viewBox="0 0 16 16"><title>filter organization 2</title><g fill="#61616b" class="nc-icon-wrapper"><path fill="#61616b" d="M15,10H7c-0.552,0-1,0.448-1,1v1v2v1c0,0.552,0.448,1,1,1h8c0.552,0,1-0.448,1-1v-4 C16,10.448,15.552,10,15,10z"></path> <path data-color="color-2" fill="#61616b" d="M5,12H2V6h3V4H2V1c0-0.552-0.448-1-1-1S0,0.448,0,1v12c0,0.553,0.448,1,1,1h4V12z"></path> <path fill="#61616b" d="M15,2H7C6.448,2,6,2.448,6,3v1v2v1c0,0.552,0.448,1,1,1h8c0.552,0,1-0.448,1-1V3C16,2.448,15.552,2,15,2z"></path></g></svg>