<svg xmlns="http://www.w3.org/2000/svg" height="32" width="32" viewBox="0 0 32 32"><title>filter organization 5</title><g fill="#61616b" class="nc-icon-wrapper"><path data-color="color-2" fill="#61616b" d="M11,9V7H5V1c0-0.553-0.448-1-1-1S3,0.447,3,1v27c0,0.553,0.448,1,1,1h7v-2H5v-8h6v-2H5V9H11z "></path> <path fill="#61616b" d="M28,12H14c-0.552,0-1-0.447-1-1V5c0-0.553,0.448-1,1-1h14c0.552,0,1,0.447,1,1v6C29,11.553,28.552,12,28,12z "></path> <path fill="#61616b" d="M28,32H14c-0.552,0-1-0.447-1-1v-6c0-0.553,0.448-1,1-1h14c0.552,0,1,0.447,1,1v6C29,31.553,28.552,32,28,32 z"></path> <path fill="#61616b" d="M28,22H14c-0.552,0-1-0.447-1-1v-6c0-0.553,0.448-1,1-1h14c0.552,0,1,0.447,1,1v6C29,21.553,28.552,22,28,22 z"></path></g></svg>