<svg xmlns="http://www.w3.org/2000/svg" height="64" width="64" viewBox="0 0 64 64"><title>filter organization 3</title><g fill="#61616b" class="nc-icon-wrapper"><path data-color="color-2" fill="#61616b" d="M23,17v-2H9V2c0-0.552-0.448-1-1-1C7.448,1,7,1.448,7,2v54c0,0.552,0.448,1,1,1h15v-2H9V37 h14v-2H9V17H23z"></path> <path fill="#61616b" d="M56,23H26c-0.552,0-1-0.447-1-1V10c0-0.553,0.448-1,1-1h30c0.552,0,1,0.447,1,1v12 C57,22.553,56.552,23,56,23z"></path> <path fill="#61616b" d="M56,63H26c-0.552,0-1-0.447-1-1V50c0-0.553,0.448-1,1-1h30c0.552,0,1,0.447,1,1v12 C57,62.553,56.552,63,56,63z"></path> <path fill="#61616b" d="M56,42H26c-0.552,0-1-0.447-1-1V30c0-0.553,0.448-1,1-1h30c0.552,0,1,0.447,1,1v11 C57,41.553,56.552,42,56,42z"></path></g></svg>