<svg xmlns="http://www.w3.org/2000/svg" height="64" width="64" viewBox="0 0 64 64"><title>flip vertical 3</title><g fill="#61616b" class="nc-icon-wrapper"><path data-color="color-2" fill="#61616b" d="M63,32c0-0.553-0.447-1-1-1H2c-0.553,0-1,0.447-1,1s0.447,1,1,1h60 C62.553,33,63,32.553,63,32z"></path> <path fill="#61616b" d="M19,25h26c0.424,0,0.802-0.268,0.942-0.667c0.142-0.399,0.016-0.845-0.314-1.111l-26-21 c-0.299-0.242-0.713-0.29-1.059-0.124C18.222,2.264,18,2.615,18,3v21C18,24.553,18.447,25,19,25z"></path> <path fill="#61616b" d="M45,39H19c-0.553,0-1,0.447-1,1v21c0,0.385,0.222,0.736,0.569,0.902C18.706,61.968,18.854,62,19,62 c0.225,0,0.447-0.075,0.628-0.222l26-21c0.33-0.267,0.456-0.712,0.314-1.111C45.802,39.268,45.424,39,45,39z"></path></g></svg>