<svg xmlns="http://www.w3.org/2000/svg" height="64" width="64" viewBox="0 0 64 64"><title>flip horizontal 3</title><g fill="#61616b" class="nc-icon-wrapper"><path data-color="color-2" fill="#61616b" d="M32,1c-0.553,0-1,0.447-1,1v60c0,0.553,0.447,1,1,1s1-0.447,1-1V2C33,1.447,32.553,1,32,1z"></path> <path fill="#61616b" d="M24.333,18.058c-0.399-0.143-0.844-0.016-1.111,0.314l-21,26c-0.241,0.299-0.29,0.711-0.124,1.059 S2.615,46,3,46h21c0.553,0,1-0.447,1-1V19C25,18.576,24.732,18.198,24.333,18.058z"></path> <path fill="#61616b" d="M40.778,18.372c-0.268-0.33-0.711-0.457-1.111-0.314C39.268,18.198,39,18.576,39,19v26c0,0.553,0.447,1,1,1 h21c0.385,0,0.736-0.222,0.902-0.569s0.117-0.76-0.124-1.059L40.778,18.372z"></path></g></svg>