<svg xmlns="http://www.w3.org/2000/svg" height="32" width="32" viewBox="0 0 32 32"><title>flip horizontal 5</title><g fill="#61616b" class="nc-icon-wrapper"><path data-color="color-2" fill="#61616b" d="M16,1c-0.6,0-1,0.4-1,1v28c0,0.6,0.4,1,1,1s1-0.4,1-1V2C17,1.4,16.6,1,16,1z"></path> <path fill="#61616b" d="M12.3,9.1c-0.4-0.1-0.9,0-1.1,0.3l-9,12c-0.2,0.3-0.3,0.7-0.1,1C2.3,22.8,2.6,23,3,23h9c0.6,0,1-0.4,1-1V10 C13,9.6,12.7,9.2,12.3,9.1z"></path> <path fill="#61616b" d="M20.8,9.4c-0.3-0.3-0.7-0.5-1.1-0.3C19.3,9.2,19,9.6,19,10v12c0,0.6,0.4,1,1,1h9c0.4,0,0.7-0.2,0.9-0.6 c0.2-0.3,0.1-0.7-0.1-1L20.8,9.4z"></path></g></svg>