<svg xmlns="http://www.w3.org/2000/svg" height="48" width="48" viewBox="0 0 48 48"><title>flip vertical 4</title><g fill="#61616b" class="nc-icon-wrapper"><path data-color="color-2" fill="#61616b" d="M46,23H2c-0.6,0-1,0.4-1,1s0.4,1,1,1h44c0.6,0,1-0.4,1-1S46.6,23,46,23z"></path> <path fill="#61616b" d="M12,17h20c0,0,0,0,0,0c0.6,0,1-0.4,1-1c0-0.4-0.3-0.8-0.6-0.9L12.5,3.1c-0.3-0.2-0.7-0.2-1,0S11,3.6,11,4v12 C11,16.6,11.4,17,12,17z"></path> <path fill="#61616b" d="M32,31H12c-0.6,0-1,0.4-1,1v12c0,0.4,0.2,0.7,0.5,0.9C11.7,45,11.8,45,12,45c0.2,0,0.4,0,0.5-0.1l20-12 c0.4-0.2,0.6-0.7,0.4-1.1C32.8,31.3,32.4,31,32,31z"></path></g></svg>