<svg xmlns="http://www.w3.org/2000/svg" height="32" width="32" viewBox="0 0 32 32"><title>flip vertical 5</title><g fill="#61616b" class="nc-icon-wrapper"><path data-color="color-2" fill="#61616b" d="M30,15H2c-0.6,0-1,0.4-1,1s0.4,1,1,1h28c0.6,0,1-0.4,1-1S30.6,15,30,15z"></path> <path fill="#61616b" d="M10,13h12c0,0,0,0,0,0c0.6,0,1-0.4,1-1c0-0.4-0.2-0.7-0.5-0.9L10.6,2.2c-0.3-0.2-0.7-0.3-1-0.1 C9.2,2.3,9,2.6,9,3v9C9,12.6,9.4,13,10,13z"></path> <path fill="#61616b" d="M22,19H10c-0.6,0-1,0.4-1,1v9c0,0.4,0.2,0.7,0.6,0.9C9.7,30,9.8,30,10,30c0.2,0,0.4-0.1,0.6-0.2l12-9 c0.3-0.3,0.5-0.7,0.3-1.1C22.8,19.3,22.4,19,22,19z"></path></g></svg>