<svg xmlns="http://www.w3.org/2000/svg" height="48" width="48" viewBox="0 0 48 48"><title>flip horizontal 4</title><g fill="#61616b" class="nc-icon-wrapper"><path data-color="color-2" fill="#61616b" d="M24,1c-0.6,0-1,0.4-1,1v44c0,0.6,0.4,1,1,1s1-0.4,1-1V2C25,1.4,24.6,1,24,1z"></path> <path fill="#61616b" d="M16.3,15c-0.4-0.1-0.9,0.1-1.1,0.4l-12,20c-0.2,0.3-0.2,0.7,0,1C3.3,36.8,3.6,37,4,37h12c0.6,0,1-0.4,1-1V16 C17,15.6,16.7,15.2,16.3,15z"></path> <path fill="#61616b" d="M32.9,15.5c-0.2-0.4-0.7-0.6-1.1-0.4c-0.4,0.1-0.7,0.5-0.7,1v20c0,0.6,0.4,1,1,1h12c0.4,0,0.7-0.2,0.9-0.5 c0.2-0.3,0.2-0.7,0-1L32.9,15.5z"></path></g></svg>