<svg xmlns="http://www.w3.org/2000/svg" height="32" width="32" viewBox="0 0 32 32"><title>floors 4</title><g fill="#61616b" class="nc-icon-wrapper"><path d="M1.5,10H26.5c.18,0,.345-.096,.435-.252l4-7c.088-.155,.087-.345-.002-.499-.09-.154-.254-.249-.433-.249H5.5c-.18,0-.345,.096-.435,.252L1.065,9.252c-.088,.155-.087,.345,.002,.499,.09,.154,.254,.249,.433,.249Z" fill="#61616b"></path><path data-color="color-2" d="M30.5,12H5.5c-.18,0-.345,.096-.435,.252L1.065,19.252c-.088,.155-.087,.345,.002,.499,.09,.154,.254,.249,.433,.249H26.5c.18,0,.345-.096,.435-.252l4-7c.088-.155,.087-.345-.002-.499-.09-.154-.254-.249-.433-.249Z" fill="#61616b"></path><path d="M30.5,22H5.5c-.18,0-.345,.096-.435,.252L1.065,29.252c-.088,.155-.087,.345,.002,.499,.09,.154,.254,.249,.433,.249H26.5c.18,0,.345-.096,.435-.252l4-7c.088-.155,.087-.345-.002-.499-.09-.154-.254-.249-.433-.249Z" fill="#61616b"></path></g></svg>