<svg xmlns="http://www.w3.org/2000/svg" height="16" width="16" viewBox="0 0 16 16"><title>floors</title><g fill="#61616b" class="nc-icon-wrapper"><path d="M.5,4h13a.5.5,0,0,0,.416-.223l2-3A.5.5,0,0,0,15.5,0H2.5a.5.5,0,0,0-.416.223l-2,3A.5.5,0,0,0,.5,4Z" fill="#61616b"></path><path data-color="color-2" d="M15.5,6H2.5a.5.5,0,0,0-.416.223l-2,3A.5.5,0,0,0,.5,10h13a.5.5,0,0,0,.416-.223l2-3A.5.5,0,0,0,15.5,6Z" fill="#61616b"></path><path d="M15.5,12H2.5a.5.5,0,0,0-.416.223l-2,3A.5.5,0,0,0,.5,16h13a.5.5,0,0,0,.416-.223l2-3A.5.5,0,0,0,15.5,12Z" fill="#61616b"></path></g></svg>