<svg xmlns="http://www.w3.org/2000/svg" height="64" width="64" viewBox="0 0 64 64"><title>floors 2</title><g fill="#61616b" class="nc-icon-wrapper"><path d="M54,20H3a1,1,0,0,1-.895-1.447l7-14A1,1,0,0,1,10,4H61a1,1,0,0,1,.9,1.447l-7,14A1,1,0,0,1,54,20Z" fill="#61616b"></path><path d="M54,60H3a1,1,0,0,1-.895-1.447l7-14A1,1,0,0,1,10,44H61a1,1,0,0,1,.9,1.447l-7,14A1,1,0,0,1,54,60Z" fill="#61616b"></path><path d="M61.851,24.475A1,1,0,0,0,61,24H10a1,1,0,0,0-.895.553l-7,14A1,1,0,0,0,3,40H54a1,1,0,0,0,.9-.553l7-14A1,1,0,0,0,61.851,24.475Z" fill="#61616b" data-color="color-2"></path></g></svg>