<svg xmlns="http://www.w3.org/2000/svg" height="24" width="24" viewBox="0 0 24 24"><title>floors 5</title><g fill="#61616b" class="nc-icon-wrapper"><path d="M1.5,7H19.5c.176,0,.339-.092,.429-.243l3-5c.093-.155,.095-.347,.007-.504-.089-.157-.256-.253-.436-.253H4.5c-.176,0-.339,.092-.429,.243L1.071,6.243c-.093,.155-.095,.347-.007,.504,.089,.157,.256,.253,.436,.253Z" fill="#61616b"></path><path data-color="color-2" d="M22.5,9H4.5c-.176,0-.339,.092-.429,.243L1.071,14.243c-.093,.155-.095,.347-.007,.504,.089,.157,.256,.253,.436,.253H19.5c.176,0,.339-.092,.429-.243l3-5c.093-.155,.095-.347,.007-.504-.089-.157-.256-.253-.436-.253Z" fill="#61616b"></path><path d="M22.5,17H4.5c-.176,0-.339,.092-.429,.243l-3,5c-.093,.155-.095,.347-.007,.504,.089,.157,.256,.253,.436,.253H19.5c.176,0,.339-.092,.429-.243l3-5c.093-.155,.095-.347,.007-.504-.089-.157-.256-.253-.436-.253Z" fill="#61616b"></path></g></svg>