<svg xmlns="http://www.w3.org/2000/svg" height="48" width="48" viewBox="0 0 48 48"><title>floors 3</title><g fill="#61616b" class="nc-icon-wrapper"><path d="M40,15H3a1,1,0,0,1-.874-1.485l5-9A1,1,0,0,1,8,4H45a1,1,0,0,1,.874,1.485l-5,9A1,1,0,0,1,40,15Z" fill="#61616b"></path><path d="M40,29H3a1,1,0,0,1-.874-1.485l5-9A1,1,0,0,1,8,18H45a1,1,0,0,1,.874,1.485l-5,9A1,1,0,0,1,40,29Z" fill="#61616b" data-color="color-2"></path><path d="M40,43H3a1,1,0,0,1-.874-1.485l5-9A1,1,0,0,1,8,32H45a1,1,0,0,1,.874,1.485l-5,9A1,1,0,0,1,40,43Z" fill="#61616b"></path></g></svg>