<svg xmlns="http://www.w3.org/2000/svg" height="64" width="64" viewBox="0 0 64 64"><title>form 3</title><g fill="#61616b" class="nc-icon-wrapper"><path data-color="color-2" fill="#61616b" d="M58,63H30c-0.552,0-1-0.448-1-1V52c0-0.552,0.448-1,1-1h28c0.552,0,1,0.448,1,1v10 C59,62.552,58.552,63,58,63z"></path> <path fill="#61616b" d="M58,45H6c-0.552,0-1-0.448-1-1V18c0-0.552,0.448-1,1-1h52c0.552,0,1,0.448,1,1v26C59,44.552,58.552,45,58,45 z"></path> <path fill="#61616b" d="M58,11H6c-0.552,0-1-0.448-1-1V2c0-0.552,0.448-1,1-1h52c0.552,0,1,0.448,1,1v8C59,10.552,58.552,11,58,11z"></path></g></svg>