<svg xmlns="http://www.w3.org/2000/svg" height="32" width="32" viewBox="0 0 32 32"><title>form 5</title><g fill="#61616b" class="nc-icon-wrapper"><path data-color="color-2" fill="#61616b" d="M28,31H16c-0.552,0-1-0.448-1-1v-4c0-0.552,0.448-1,1-1h12c0.552,0,1,0.448,1,1v4 C29,30.552,28.552,31,28,31z"></path> <path fill="#61616b" d="M28,23H4c-0.552,0-1-0.448-1-1V10c0-0.552,0.448-1,1-1h24c0.552,0,1,0.448,1,1v12C29,22.552,28.552,23,28,23 z"></path> <path fill="#61616b" d="M28,7H4C3.448,7,3,6.552,3,6V2c0-0.552,0.448-1,1-1h24c0.552,0,1,0.448,1,1v4C29,6.552,28.552,7,28,7z"></path></g></svg>