<svg xmlns="http://www.w3.org/2000/svg" height="48" width="48" viewBox="0 0 48 48"><title>frame 4</title><g fill="#61616b" class="nc-icon-wrapper"><path fill="#61616b" d="M42,7c-2.757,0-5-2.243-5-5c0-0.552-0.447-1-1-1H12c-0.553,0-1,0.448-1,1c0,2.757-2.243,5-5,5 C5.447,7,5,7.448,5,8v32c0,0.552,0.447,1,1,1c2.757,0,5,2.243,5,5c0,0.552,0.447,1,1,1h24c0.553,0,1-0.448,1-1c0-2.757,2.243-5,5-5 c0.553,0,1-0.448,1-1V8C43,7.448,42.553,7,42,7z M24,41c-7.168,0-13-7.626-13-17S16.832,7,24,7s13,7.626,13,17S31.168,41,24,41z"></path></g></svg>