<svg xmlns="http://www.w3.org/2000/svg" height="12" width="12" viewBox="0 0 12 12"><title>function</title><g fill="#61616b" class="nc-icon-wrapper"><path d="M11.03,8.363a1,1,0,0,0-.03-2,2.586,2.586,0,0,0-1.836.976,2.114,2.114,0,0,0-1.8-.976,1,1,0,1,0,0,2c.145,0,.308.309.455.661a4.008,4.008,0,0,1-.91.976,1,1,0,1,0,0,2,2.586,2.586,0,0,0,1.836-.976,2.113,2.113,0,0,0,1.8.976,1,1,0,1,0,0-2c-.145,0-.308-.308-.455-.66A3.75,3.75,0,0,1,11.03,8.363Z" fill="#61616b" data-color="color-2"></path><path d="M6.455,5.637a1,1,0,1,0,0-2H6.1C6.317,2.737,6.59,2,6.909,2a.364.364,0,0,1,.364.363,1,1,0,0,0,2,0A2.367,2.367,0,0,0,6.909,0C5.184,0,4.478,1.627,4.042,3.637H2.818a1,1,0,0,0,0,2h.863l-.033.206C3.434,7.192,2.987,10,2.364,10A.364.364,0,0,1,2,9.637a1,1,0,0,0-2,0A2.366,2.366,0,0,0,2.363,12c2.331,0,2.8-2.971,3.261-5.843.025-.156.053-.332.084-.52Z" fill="#61616b"></path></g></svg>