<svg xmlns="http://www.w3.org/2000/svg" height="32" width="32" viewBox="0 0 32 32"><title>function 4</title><g fill="#61616b" class="nc-icon-wrapper"><path d="M30,19c-2.405,0-3.971,1.753-5.356,3.772C23.708,20.761,22.438,19,20,19a1,1,0,0,0,0,2c1.569,0,2.36,1.419,3.327,3.773C21.85,27.025,20.364,29,18,29a1,1,0,0,0,0,2c2.884,0,4.731-1.892,6.243-4.018C25.191,29.093,26.463,31,29,31a1,1,0,0,0,0-2c-1.621,0-2.411-1.514-3.425-4.012C26.977,22.827,28.217,21,30,21a1,1,0,0,0,0-2Z" fill="#61616b" data-color="color-2"></path><path d="M20,1c-4.114,0-6.159,4.558-7.721,10H7a1,1,0,0,0,0,2h4.73c-.239.913-.47,1.837-.7,2.758-1.37,5.481-2.784,11.1-5.414,12.748C4.171,28.947,5.329,26,3.5,26A2.5,2.5,0,0,0,1,28.5,2.784,2.784,0,0,0,4,31c5.28,0,7.156-7.5,8.97-14.757.271-1.086.545-2.177.829-3.243H19a1,1,0,0,0,0-2H14.36c1.016-3.43,2.221-6.329,3.965-7.469C19.655,2.829,18.642,6,20.5,6A2.5,2.5,0,0,0,23,3.5,2.784,2.784,0,0,0,20,1Z" fill="#61616b"></path></g></svg>