<svg xmlns="http://www.w3.org/2000/svg" height="24" width="24" viewBox="0 0 24 24"><title>function 5</title><g fill="#61616b" class="nc-icon-wrapper"><path d="M23,14c-1.576,0-2.905,1.332-4.228,3C18.047,15.422,17,14,15,14a1,1,0,0,0,0,2c1.114,0,1.681,1.066,2.368,2.841C16.23,20.347,14.91,22,14,22a1,1,0,0,0,0,2c1.576,0,2.905-1.332,4.228-3C18.953,22.578,20,24,22,24a1,1,0,0,0,0-2c-1.114,0-1.682-1.067-2.368-2.841C20.769,17.652,22.089,16,23,16a1,1,0,0,0,0-2Z" fill="#61616b" data-color="color-2"></path><path d="M16,0c-4.134,0-5.868,3.648-7.057,8H5a1,1,0,0,0,0,2H8.436c-.14.591-.276,1.185-.411,1.778-1.181,5.195-2.207,8.873-4.551,9.913A1.839,1.839,0,0,0,1.75,20,1.888,1.888,0,0,0,0,22a2,2,0,0,0,2,2c5.3,0,6.659-5.987,7.975-11.778.177-.778.35-1.516.525-2.222H14a1,1,0,0,0,0-2H11.033c.855-2.934,1.85-4.962,3.493-5.691A1.839,1.839,0,0,0,16.25,4,1.888,1.888,0,0,0,18,2,2,2,0,0,0,16,0Z" fill="#61616b"></path></g></svg>