<svg xmlns="http://www.w3.org/2000/svg" height="16" width="16" viewBox="0 0 16 16"><title>function 6</title><g fill="#61616b" class="nc-icon-wrapper"><path d="M15,9a3.841,3.841,0,0,0-2.661,1.545A2.524,2.524,0,0,0,10,9a1,1,0,0,0,0,2c.361,0,.57.279.89,1.284C10.243,13.08,9.441,14,9,14a1,1,0,0,0,0,2,3.841,3.841,0,0,0,2.661-1.545A2.524,2.524,0,0,0,14,16a1,1,0,0,0,0-2c-.361,0-.571-.279-.89-1.284C13.757,11.92,14.559,11,15,11a1,1,0,0,0,0-2Z" fill="#61616b" data-color="color-2"></path><path d="M10,8a1,1,0,0,0,0-2H7.825C8.257,3.579,8.808,2,10,2a1,1,0,0,1,1,1,1,1,0,0,0,2,0,3,3,0,0,0-3-3C7.193,0,6.313,2.9,5.793,6H3A1,1,0,0,0,3,8H5.49c-.506,3.52-1,6-2.49,6a1,1,0,0,1-1-1,1,1,0,0,0-2,0,3,3,0,0,0,3,3c3.367,0,3.964-4.175,4.49-7.858L7.51,8Z" fill="#61616b"></path></g></svg>