<svg xmlns="http://www.w3.org/2000/svg" height="64" width="64" viewBox="0 0 64 64"><title>function 2</title><g fill="#61616b" class="nc-icon-wrapper"><path d="M44,1C35.224,1,29.426,11.727,25.354,24H16.5a1.5,1.5,0,0,0,0,3h7.9c-.48,1.573-.935,3.158-1.366,4.738C19.115,46.124,17.062,61,8,61a1.4,1.4,0,0,1-1.474-1.5c0-1,1.474-1.653,1.474-3A2.784,2.784,0,0,0,5,54a3,3,0,0,0-3,3,6.006,6.006,0,0,0,6,6c10.591,0,16.848-15.625,20.964-30.736.478-1.757.929-3.521,1.368-5.264H39.5a1.5,1.5,0,0,0,0-3H31.086C33.935,12.7,36.683,3,44,3a1.4,1.4,0,0,1,1.474,1.5c0,1-1.474,1.653-1.474,3A2.784,2.784,0,0,0,47,10a3,3,0,0,0,3-3A6.006,6.006,0,0,0,44,1Z" fill="#61616b"></path><path d="M60.5,38c-4.214,0-7.96,3.826-11.056,8.345C47.926,41.849,45.611,38,42,38a4.091,4.091,0,0,0-2.742,1.329,1,1,0,0,0,1.479,1.346A2.15,2.15,0,0,1,42,40c2.926,0,3.222,5.169,4.476,10.168.056.224.116.448.175.672-2.388,4.238-4.1,8.395-7.156,9.717,0-.02.005-.038.005-.057a2.292,2.292,0,0,0-2-2.5,2.5,2.5,0,0,0,0,5c4.263,0,7.406-3.914,10.268-8.5C49.424,59.145,51.922,63,56,63a4.086,4.086,0,0,0,2.741-1.329,1,1,0,0,0-1.478-1.347A2.148,2.148,0,0,1,56,61c-3.686,0-4.176-5.567-5.519-11.045,2.46-4.166,5.016-8.211,8.024-9.512,0,.02-.005.038-.005.057a2.292,2.292,0,0,0,2,2.5,2.5,2.5,0,0,0,0-5Z" fill="#61616b" data-color="color-2"></path></g></svg>