<svg xmlns="http://www.w3.org/2000/svg" height="48" width="48" viewBox="0 0 48 48"><title>grain effect 3</title><g fill="#61616b" class="nc-icon-wrapper"><rect x="3" y="38" width="7" height="7" fill="#61616b" data-color="color-2"></rect><rect x="17" y="38" width="7" height="7" fill="#61616b" data-color="color-2"></rect><rect x="17" y="3" width="7" height="7" fill="#61616b" data-color="color-2"></rect><polygon points="31 24 31 17 38 17 38 10 24 10 24 17 17 17 17 10 10 10 10 3 3 3 3 31 10 31 10 38 17 38 17 31 24 31 24 24 31 24" fill="#61616b"></polygon><polygon points="38 38 38 31 24 31 24 38 31 38 31 45 45 45 45 38 38 38" fill="#61616b"></polygon><rect x="38" y="24" width="7" height="7" fill="#61616b" data-color="color-2"></rect><rect x="38" y="3" width="7" height="7" fill="#61616b" data-color="color-2"></rect></g></svg>