<svg xmlns="http://www.w3.org/2000/svg" height="64" width="64" viewBox="0 0 64 64"><title>graphics tablet 3</title><g fill="#61616b" class="nc-icon-wrapper"><path d="M55,20.242V47a1,1,0,0,1-1,1H18a1,1,0,0,1-1-1V19a1,1,0,0,1,1-1H36.757l9-9H7a6.006,6.006,0,0,0-6,6V51a6.006,6.006,0,0,0,6,6H57a6.006,6.006,0,0,0,6-6V15a5.961,5.961,0,0,0-.459-2.3ZM9,19a1,1,0,0,1,2,0v5a1,1,0,0,1-2,0Zm2,28a1,1,0,0,1-2,0V42a1,1,0,0,1,2,0ZM10,37a4,4,0,1,1,4-4A4,4,0,0,1,10,37Z" fill="#61616b"></path><path data-color="color-2" d="M61.463,3.535a5.246,5.246,0,0,0-7.413,0L34.293,23.293a1,1,0,0,0-.263.464l-2,8A1,1,0,0,0,33,33a1.01,1.01,0,0,0,.243-.03l8-2a1,1,0,0,0,.464-.263L61.465,10.949a5.241,5.241,0,0,0,0-7.414Z" fill="#61616b"></path></g></svg>