<svg xmlns="http://www.w3.org/2000/svg" height="48" width="48" viewBox="0 0 48 48"><title>graphics tablet 4</title><g fill="#61616b" class="nc-icon-wrapper"><path d="M45.44,10.388,40.6,15.224a1.027,1.027,0,0,1,.1.069A1,1,0,0,1,41,16V36a1,1,0,0,1-1,1H16a1,1,0,0,1-1-1V16a1,1,0,0,1,1-1H27.172l6-6H6a5.006,5.006,0,0,0-5,5V38a5.006,5.006,0,0,0,5,5H42a5.006,5.006,0,0,0,5-5V14A4.98,4.98,0,0,0,45.44,10.388ZM9,15a1,1,0,0,1,1,1v4a1,1,0,0,1-2,0V16A1,1,0,0,1,9,15Zm1,21a1,1,0,0,1-2,0V32a1,1,0,0,1,2,0ZM9,29a3,3,0,1,1,3-3A3,3,0,0,1,9,29Z" fill="#61616b"></path><path data-color="color-2" d="M24,25l1-5L42.172,2.828a2.828,2.828,0,0,1,4,4L29,24Z" fill="#61616b"></path></g></svg>