<svg xmlns="http://www.w3.org/2000/svg" height="64" width="64" viewBox="0 0 64 64"><title>grid system 3</title><g fill="#61616b" class="nc-icon-wrapper"><rect x="1" y="48" width="62" height="9" rx="1" ry="1" fill="#61616b"></rect> <rect x="1" y="33" width="28" height="9" rx="1" ry="1" fill="#61616b" data-color="color-2"></rect> <rect x="1" y="19" width="16" height="8" rx="1" ry="1" fill="#61616b"></rect> <rect x="1" y="6" width="10" height="7" rx="1" ry="1" fill="#61616b" data-color="color-2"></rect> <rect x="18" y="6" width="10" height="7" rx="1" ry="1" fill="#61616b" data-color="color-2"></rect> <rect x="36" y="6" width="10" height="7" rx="1" ry="1" fill="#61616b" data-color="color-2"></rect> <rect x="53" y="6" width="10" height="7" rx="1" ry="1" fill="#61616b" data-color="color-2"></rect> <rect x="47" y="19" width="16" height="8" rx="1" ry="1" fill="#61616b"></rect> <rect x="24" y="19" width="16" height="8" rx="1" ry="1" fill="#61616b"></rect> <rect x="35" y="33" width="28" height="9" rx="1" ry="1" fill="#61616b" data-color="color-2"></rect></g></svg>