<svg xmlns="http://www.w3.org/2000/svg" height="48" width="48" viewBox="0 0 48 48"><title>group 4</title><g fill="#61616b" class="nc-icon-wrapper"><path data-color="color-2" fill="#61616b" d="M28,29H10c-0.553,0-1-0.447-1-1V10c0-0.553,0.447-1,1-1h18c0.553,0,1,0.447,1,1v18 C29,28.553,28.553,29,28,29z"></path> <path fill="#61616b" d="M46,47H2c-0.553,0-1-0.447-1-1V2c0-0.553,0.447-1,1-1h44c0.553,0,1,0.447,1,1v44C47,46.553,46.553,47,46,47z M3,45h42V3H3V45z"></path> <path data-color="color-2" fill="#61616b" d="M38,19h-7v11c0,0.552-0.448,1-1,1H19v7c0,0.552,0.448,1,1,1h18c0.552,0,1-0.448,1-1V20 C39,19.448,38.552,19,38,19z"></path></g></svg>