<svg xmlns="http://www.w3.org/2000/svg" height="32" width="32" viewBox="0 0 32 32"><title>group 5</title><g fill="#61616b" class="nc-icon-wrapper"><path data-color="color-2" fill="#61616b" d="M25,12h-3v9c0,0.552-0.448,1-1,1h-9v3c0,0.552,0.448,1,1,1h12c0.552,0,1-0.448,1-1V13 C26,12.448,25.552,12,25,12z"></path> <path data-color="color-2" fill="#61616b" d="M19,20H7c-0.553,0-1-0.447-1-1V7c0-0.553,0.447-1,1-1h12c0.553,0,1,0.447,1,1v12 C20,19.553,19.553,20,19,20z"></path> <path fill="#61616b" d="M31,32H1c-0.553,0-1-0.447-1-1V1c0-0.553,0.447-1,1-1h30c0.553,0,1,0.447,1,1v30C32,31.553,31.553,32,31,32z M2,30h28V2H2V30z"></path></g></svg>