<svg xmlns="http://www.w3.org/2000/svg" height="64" width="64" viewBox="0 0 64 64"><title>group 3</title><g fill="#61616b" class="nc-icon-wrapper"><path fill="#61616b" d="M62,13c0.553,0,1-0.447,1-1V2c0-0.553-0.447-1-1-1H52c-0.553,0-1,0.447-1,1v4H13V2c0-0.553-0.447-1-1-1H2 C1.447,1,1,1.447,1,2v10c0,0.553,0.447,1,1,1h4v38H2c-0.553,0-1,0.447-1,1v10c0,0.553,0.447,1,1,1h10c0.553,0,1-0.447,1-1v-4h38v4 c0,0.553,0.447,1,1,1h10c0.553,0,1-0.447,1-1V52c0-0.553-0.447-1-1-1h-4V13H62z M56,51h-4c-0.553,0-1,0.447-1,1v4H13v-4 c0-0.553-0.447-1-1-1H8V13h4c0.553,0,1-0.447,1-1V8h38v4c0,0.553,0.447,1,1,1h4V51z"></path> <path data-color="color-2" fill="#61616b" d="M36,37H20c-0.552,0-1-0.448-1-1V20c0-0.552,0.448-1,1-1h16c0.552,0,1,0.448,1,1v16 C37,36.552,36.552,37,36,37z"></path> <path data-color="color-2" fill="#61616b" d="M44,27h-5v12H27v5c0,0.552,0.448,1,1,1h16c0.552,0,1-0.448,1-1V28C45,27.448,44.552,27,44,27 z"></path></g></svg>