<svg xmlns="http://www.w3.org/2000/svg" height="24" width="24" viewBox="0 0 24 24"><title>group</title><g fill="#61616b" class="nc-icon-wrapper"><path data-color="color-2" fill="#61616b" d="M18,19H9v-2h8V9h2v9C19,18.553,18.553,19,18,19z"></path> <path fill="#61616b" d="M14,15H6c-0.552,0-1-0.448-1-1V6c0-0.552,0.448-1,1-1h8c0.552,0,1,0.448,1,1v8C15,14.552,14.552,15,14,15z"></path> <path fill="#61616b" d="M23,24H1c-0.553,0-1-0.447-1-1V1c0-0.552,0.447-1,1-1h22c0.553,0,1,0.448,1,1v22C24,23.553,23.553,24,23,24z M2,22h20V2H2V22z"></path></g></svg>