<svg xmlns="http://www.w3.org/2000/svg" height="16" width="16" viewBox="0 0 16 16"><title>group 2</title><g fill="#61616b" class="nc-icon-wrapper"><path data-color="color-2" fill="#61616b" d="M12,13H6v-2h5V6h2v6C13,12.553,12.553,13,12,13z"></path> <path fill="#61616b" d="M9,10H4c-0.553,0-1-0.447-1-1V4c0-0.552,0.447-1,1-1h5c0.553,0,1,0.448,1,1v5C10,9.553,9.553,10,9,10z"></path> <path fill="#61616b" d="M15,16H1c-0.553,0-1-0.447-1-1V1c0-0.552,0.447-1,1-1h14c0.553,0,1,0.448,1,1v14C16,15.553,15.553,16,15,16z M2,14h12V2H2V14z"></path></g></svg>