<svg xmlns="http://www.w3.org/2000/svg" height="32" width="32" viewBox="0 0 32 32"><title>hash mark 4</title><g fill="#61616b" class="nc-icon-wrapper"><path d="M27.5,12c.828,0,1.5-.671,1.5-1.5s-.672-1.5-1.5-1.5h-3.947l.93-6.28c.122-.819-.444-1.582-1.264-1.704-.814-.117-1.582,.444-1.703,1.264l-.996,6.72h-6.968l.93-6.28c.122-.819-.444-1.582-1.264-1.704-.814-.117-1.582,.444-1.703,1.264l-.996,6.72H5.5c-.828,0-1.5,.671-1.5,1.5s.672,1.5,1.5,1.5h4.577l-1.185,8H4.5c-.828,0-1.5,.671-1.5,1.5s.672,1.5,1.5,1.5h3.947l-.93,6.28c-.122,.819,.444,1.582,1.264,1.704,.074,.011,.148,.016,.222,.016,.731,0,1.371-.535,1.481-1.28l.996-6.72h6.968l-.93,6.28c-.122,.819,.444,1.582,1.264,1.704,.074,.011,.148,.016,.222,.016,.731,0,1.371-.535,1.481-1.28l.996-6.72h5.021c.828,0,1.5-.671,1.5-1.5s-.672-1.5-1.5-1.5h-4.577l1.185-8h4.391Zm-8.609,8h-6.968l1.185-8h6.968l-1.185,8Z" fill="#61616b"></path></g></svg>