<svg xmlns="http://www.w3.org/2000/svg" height="64" width="64" viewBox="0 0 64 64"><title>hash mark 2</title><g fill="#61616b" class="nc-icon-wrapper"><path d="M53,25H13c-1.104,0-2-.896-2-2s.896-2,2-2H53c1.104,0,2,.896,2,2s-.896,2-2,2Z" fill="#61616b" data-color="color-2"></path><path d="M51,43H11c-1.104,0-2-.896-2-2s.896-2,2-2H51c1.104,0,2,.896,2,2s-.896,2-2,2Z" fill="#61616b" data-color="color-2"></path><path d="M18.003,60c-.102,0-.204-.008-.307-.024-1.092-.168-1.841-1.189-1.673-2.281L24.023,5.696c.168-1.092,1.2-1.843,2.28-1.672,1.092,.168,1.841,1.189,1.673,2.281l-8,52c-.152,.989-1.004,1.696-1.974,1.696Z" fill="#61616b"></path><path d="M37.574,60c-.095,0-.189-.007-.286-.021-1.093-.156-1.853-1.169-1.696-2.263L43.021,5.717c.156-1.094,1.167-1.854,2.263-1.697,1.093,.156,1.853,1.169,1.696,2.263l-7.429,52c-.143,.998-.998,1.718-1.977,1.718Z" fill="#61616b"></path></g></svg>