<svg xmlns="http://www.w3.org/2000/svg" height="16" width="16" viewBox="0 0 16 16"><title>hash mark 6</title><g fill="#61616b" class="nc-icon-wrapper"><path d="M14,4h-1.32l.306-1.835c.091-.545-.277-1.06-.822-1.151-.545-.091-1.06,.277-1.15,.822l-.361,2.165h-3.972l.306-1.835c.091-.545-.277-1.06-.822-1.151-.547-.091-1.061,.277-1.15,.822l-.361,2.165h-1.653c-.553,0-1,.448-1,1s.447,1,1,1h1.32l-.667,4h-1.653c-.553,0-1,.448-1,1s.447,1,1,1h1.32l-.306,1.835c-.091,.545,.277,1.06,.822,1.151,.056,.009,.11,.014,.165,.014,.48,0,.904-.347,.985-.835l.361-2.165h3.972l-.306,1.835c-.091,.545,.277,1.06,.822,1.151,.056,.009,.11,.014,.165,.014,.48,0,.904-.347,.985-.835l.361-2.165h1.653c.553,0,1-.448,1-1s-.447-1-1-1h-1.32l.667-4h1.653c.553,0,1-.448,1-1s-.447-1-1-1Zm-4.347,6h-3.972l.667-4h3.972l-.667,4Z" fill="#61616b"></path></g></svg>