<svg xmlns="http://www.w3.org/2000/svg" height="12" width="12" viewBox="0 0 12 12"><title>hash mark</title><g fill="#61616b" class="nc-icon-wrapper"><path d="M11,3H9.62l.36-1.8A1,1,0,0,0,8.02.8L7.58,3H5.62l.36-1.8A1,1,0,1,0,4.02.8L3.58,3H2A1,1,0,0,0,2,5H3.18l-.4,2H1A1,1,0,0,0,1,9H2.38l-.36,1.8A1,1,0,0,0,2.8,11.98.948.948,0,0,0,3,12a1,1,0,0,0,.979-.8L4.42,9H6.38l-.36,1.8A1,1,0,0,0,6.8,11.98.948.948,0,0,0,7,12a1,1,0,0,0,.979-.8L8.42,9H10a1,1,0,0,0,0-2H8.82l.4-2H11a1,1,0,0,0,0-2ZM6.78,7H4.82l.4-2H7.18Z" fill="#61616b"></path></g></svg>