<svg xmlns="http://www.w3.org/2000/svg" height="24" width="24" viewBox="0 0 24 24"><title>hash mark 5</title><g fill="#61616b" class="nc-icon-wrapper"><path d="M20,7h-2.738l.728-4.852c.082-.546-.295-1.056-.841-1.137-.557-.083-1.056,.295-1.138,.84l-.772,5.148h-4.977l.728-4.852c.082-.546-.295-1.056-.841-1.137-.554-.083-1.056,.295-1.138,.84l-.772,5.148h-3.238c-.553,0-1,.448-1,1s.447,1,1,1h2.938l-.9,6h-3.038c-.553,0-1,.448-1,1s.447,1,1,1h2.738l-.728,4.852c-.082,.546,.295,1.056,.841,1.137,.051,.008,.101,.011,.149,.011,.487,0,.914-.356,.988-.852l.772-5.148h4.977l-.728,4.852c-.082,.546,.295,1.056,.841,1.137,.051,.008,.101,.011,.149,.011,.487,0,.914-.356,.988-.852l.772-5.148h3.238c.553,0,1-.448,1-1s-.447-1-1-1h-2.938l.9-6h3.038c.553,0,1-.448,1-1s-.447-1-1-1Zm-5.962,8h-4.977l.9-6h4.977l-.9,6Z" fill="#61616b"></path></g></svg>