<svg xmlns="http://www.w3.org/2000/svg" height="48" width="48" viewBox="0 0 48 48"><title>hash mark 3</title><g fill="#61616b" class="nc-icon-wrapper"><path d="M40,14h-4.478l1.455-9.703c.164-1.093-.589-2.111-1.681-2.275-1.085-.164-2.111,.588-2.274,1.681l-1.545,10.297h-11.956l1.455-9.703c.164-1.093-.589-2.111-1.681-2.275-1.085-.164-2.111,.588-2.274,1.681l-1.545,10.297h-5.478c-1.104,0-2,.896-2,2s.896,2,2,2h4.878l-1.8,12h-5.078c-1.104,0-2,.896-2,2s.896,2,2,2h4.478l-1.455,9.703c-.164,1.093,.589,2.111,1.681,2.275,.101,.015,.2,.022,.3,.022,.973,0,1.826-.712,1.975-1.704l1.545-10.297h11.956l-1.455,9.703c-.164,1.093,.589,2.111,1.681,2.275,.101,.015,.2,.022,.3,.022,.973,0,1.826-.712,1.975-1.704l1.545-10.297h5.478c1.104,0,2-.896,2-2s-.896-2-2-2h-4.878l1.8-12h5.078c1.104,0,2-.896,2-2s-.896-2-2-2Zm-10.922,16h-11.956l1.8-12h11.956l-1.8,12Z" fill="#61616b"></path></g></svg>