<svg xmlns="http://www.w3.org/2000/svg" height="64" width="64" viewBox="0 0 64 64"><title>height 2 2</title><g fill="#61616b" class="nc-icon-wrapper"><path d="M33.819,12.427L26.819,2.427c-.398-.569-1.241-.569-1.639,0l-7,10c-.214,.306-.24,.704-.067,1.035,.172,.331,.514,.538,.887,.538h5v24c0,.552,.448,1,1,1h2c.552,0,1-.448,1-1V14h5c.373,0,.715-.207,.887-.538,.173-.331,.146-.729-.067-1.035Z" fill="#61616b" data-color="color-2"></path><path d="M4.293,61.121l-1.414-1.414c-.391-.391-.391-1.024,0-1.414l21.707-21.707c.375-.375,.884-.586,1.414-.586H60c.552,0,1,.448,1,1v2c0,.552-.448,1-1,1H26.828L5.707,61.121c-.391,.391-1.024,.391-1.414,0Z" fill="#61616b"></path></g></svg>