<svg xmlns="http://www.w3.org/2000/svg" height="24" width="24" viewBox="0 0 24 24"><title>height 2 5</title><g fill="#61616b" class="nc-icon-wrapper"><path d="M9,16c.552,0,1-.447,1-1V4.601s2.536,0,2.536,0c.202,0,.382-.122,.462-.309,.078-.187,.035-.402-.108-.545L9.354,.212c-.195-.195-.512-.195-.707,0l-3.536,3.536c-.143,.143-.186,.358-.108,.545,.077,.187,.26,.309,.462,.309h2.536s0,10.399,0,10.399c0,.552,.447,1,1,1Z" fill="#61616b" data-color="color-2"></path><path d="M1,24c-.256,0-.512-.098-.707-.293-.391-.391-.391-1.023,0-1.414L8.293,14.293c.188-.188,.442-.293,.707-.293h14c.552,0,1,.447,1,1s-.448,1-1,1H9.414L1.707,23.707c-.195,.195-.451,.293-.707,.293Z" fill="#61616b"></path></g></svg>