<svg xmlns="http://www.w3.org/2000/svg" height="32" width="32" viewBox="0 0 32 32"><title>height 2 4</title><g fill="#61616b" class="nc-icon-wrapper"><path d="M16.707,4.293L12.707,.293c-.391-.391-1.023-.391-1.414,0L7.293,4.293c-.286,.286-.372,.716-.217,1.09s.52,.617,.924,.617h3v14c0,.552,.448,1,1,1s1-.448,1-1V6h3c.404,0,.769-.243,.924-.617s.069-.804-.217-1.09Z" fill="#61616b" data-color="color-2"></path><path d="M1,32c-.256,0-.512-.098-.707-.293-.391-.391-.391-1.023,0-1.414l11-11c.188-.188,.442-.293,.707-.293H31c.553,0,1,.447,1,1s-.447,1-1,1H12.414L1.707,31.707c-.195,.195-.451,.293-.707,.293Z" fill="#61616b"></path></g></svg>