<svg xmlns="http://www.w3.org/2000/svg" height="32" width="32" viewBox="0 0 32 32"><title>hot key 4</title><g fill="#61616b" class="nc-icon-wrapper"><path d="M14,13a1,1,0,0,0,0,2h1V14A1,1,0,0,0,14,13Z" fill="#61616b"></path> <path d="M25,14a1,1,0,0,0-2,0v1h1A1,1,0,0,0,25,14Z" fill="#61616b"></path> <path d="M13,24a1,1,0,0,0,2,0V23H14A1,1,0,0,0,13,24Z" fill="#61616b"></path> <rect x="17" y="17" width="4" height="4" fill="#61616b"></rect> <path d="M28,7H10a3,3,0,0,0-3,3V28a3,3,0,0,0,3,3H28a3,3,0,0,0,3-3V10A3,3,0,0,0,28,7ZM24,21a3,3,0,1,1-3,3V23H17v1a3,3,0,1,1-3-3h1V17H14a3,3,0,1,1,3-3v1h4V14a3,3,0,1,1,3,3H23v4Z" fill="#61616b"></path> <path d="M24,25a1,1,0,0,0,0-2H23v1A1,1,0,0,0,24,25Z" fill="#61616b"></path> <path d="M5,24H3a3,3,0,0,1-3-3V3A3,3,0,0,1,3,0H21a3,3,0,0,1,3,3V5H22V3a1,1,0,0,0-1-1H3A1,1,0,0,0,2,3V21a1,1,0,0,0,1,1H5Z" fill="#61616b" data-color="color-2"></path></g></svg>