<svg xmlns="http://www.w3.org/2000/svg" height="48" width="48" viewBox="0 0 48 48"><title>hot key 3</title><g fill="#61616b" class="nc-icon-wrapper"><path d="M8,36H7a5.006,5.006,0,0,1-5-5V7A5.006,5.006,0,0,1,7,2H31a5.006,5.006,0,0,1,5,5V8a1,1,0,0,1-2,0V7a3,3,0,0,0-3-3H7A3,3,0,0,0,4,7V31a3,3,0,0,0,3,3H8a1,1,0,0,1,0,2Z" fill="#61616b" data-color="color-2"></path> <path d="M24,22a2,2,0,1,0-2,2h2Z" fill="#61616b"></path> <path d="M38,22a2,2,0,0,0-4,0v2h2A2,2,0,0,0,38,22Z" fill="#61616b"></path> <rect x="26" y="26" width="6" height="6" fill="#61616b"></rect> <path d="M20,36a2,2,0,0,0,4,0V34H22A2,2,0,0,0,20,36Z" fill="#61616b"></path> <path d="M41,12H17a5.006,5.006,0,0,0-5,5V41a5.006,5.006,0,0,0,5,5H41a5.006,5.006,0,0,0,5-5V17A5.006,5.006,0,0,0,41,12ZM36,32a4,4,0,1,1-4,4V34H26v2a4,4,0,1,1-4-4h2V26H22a4,4,0,1,1,4-4v2h6V22a4,4,0,1,1,4,4H34v6Z" fill="#61616b"></path> <path d="M34,36a2,2,0,1,0,2-2H34Z" fill="#61616b"></path></g></svg>