<svg xmlns="http://www.w3.org/2000/svg" height="64" width="64" viewBox="0 0 64 64"><title>hot key 2</title><g fill="#61616b" class="nc-icon-wrapper"><path d="M29,26a3,3,0,0,0,0,6h3V29A3,3,0,0,0,29,26Z" fill="#61616b"></path> <path d="M52,29a3,3,0,0,0-6,0v3h3A3,3,0,0,0,52,29Z" fill="#61616b"></path> <path d="M26,49a3,3,0,0,0,6,0V46H29A3,3,0,0,0,26,49Z" fill="#61616b"></path> <path d="M57,16H21a5.006,5.006,0,0,0-5,5V57a5.006,5.006,0,0,0,5,5H57a5.006,5.006,0,0,0,5-5V21A5.006,5.006,0,0,0,57,16ZM49,44a5,5,0,1,1-5,5V46H34v3a5,5,0,1,1-5-5h3V34H29a5,5,0,1,1,5-5v3H44V29a5,5,0,1,1,5,5H46V44Z" fill="#61616b"></path> <rect x="34" y="34" width="10" height="10" fill="#61616b"></rect> <path d="M49,52a3,3,0,0,0,0-6H46v3A3,3,0,0,0,49,52Z" fill="#61616b"></path> <path d="M11,48H7a5.006,5.006,0,0,1-5-5V7A5.006,5.006,0,0,1,7,2H43a5.006,5.006,0,0,1,5,5v4a1,1,0,0,1-2,0V7a3,3,0,0,0-3-3H7A3,3,0,0,0,4,7V43a3,3,0,0,0,3,3h4a1,1,0,0,1,0,2Z" fill="#61616b" data-color="color-2"></path></g></svg>