<svg xmlns="http://www.w3.org/2000/svg" height="24" width="24" viewBox="0 0 24 24"><title>hot key 5</title><g fill="#61616b" class="nc-icon-wrapper"><path d="M2,15V3A1,1,0,0,1,3,2H15a1,1,0,0,1,1,1V4h2V3a3,3,0,0,0-3-3H3A3,3,0,0,0,0,3V15a3,3,0,0,0,3,3H4V16H3A1,1,0,0,1,2,15Z" fill="#61616b" data-color="color-2"></path> <path d="M17,18a1,1,0,1,0,1-1H17Z" fill="#61616b"></path> <path d="M10,18a1,1,0,0,0,2,0V17H11A1,1,0,0,0,10,18Z" fill="#61616b"></path> <path d="M19,11a1,1,0,0,0-2,0v1h1A1,1,0,0,0,19,11Z" fill="#61616b"></path> <path d="M11,10a1,1,0,0,0,0,2h1V11A1,1,0,0,0,11,10Z" fill="#61616b"></path> <rect x="13" y="13" width="3" height="3" fill="#61616b"></rect> <path d="M21,5H8A3,3,0,0,0,5,8V21a3,3,0,0,0,3,3H21a3,3,0,0,0,3-3V8A3,3,0,0,0,21,5ZM18,16a2,2,0,1,1-2,2V17H13v1a2,2,0,1,1-2-2h1V13H11a2,2,0,1,1,2-2v1h3V11a2,2,0,1,1,2,2H17v3Z" fill="#61616b"></path></g></svg>