<svg xmlns="http://www.w3.org/2000/svg" height="16" width="16" viewBox="0 0 16 16"><title>hot key</title><g fill="#61616b" class="nc-icon-wrapper"><path d="M3,13H2a2,2,0,0,1-2-2V2A2,2,0,0,1,2,0h9a2,2,0,0,1,2,2V3H11V2H2v9H3Z" fill="#61616b" data-color="color-2"></path> <path d="M7.5,7a.5.5,0,0,0,0,1H8V7.5A.5.5,0,0,0,7.5,7Z" fill="#61616b"></path> <path d="M13,7.5a.5.5,0,0,0-1,0V8h.5A.5.5,0,0,0,13,7.5Z" fill="#61616b"></path> <path d="M7,12.5a.5.5,0,0,0,1,0V12H7.5A.5.5,0,0,0,7,12.5Z" fill="#61616b"></path> <rect x="9" y="9" width="2" height="2" fill="#61616b"></rect> <path d="M14,4H6A2,2,0,0,0,4,6v8a2,2,0,0,0,2,2h8a2,2,0,0,0,2-2V6A2,2,0,0,0,14,4Zm-1.5,7A1.5,1.5,0,1,1,11,12.5V12H9v.5A1.5,1.5,0,1,1,7.5,11H8V9H7.5A1.5,1.5,0,1,1,9,7.5V8h2V7.5A1.5,1.5,0,1,1,12.5,9H12v2Z" fill="#61616b"></path> <path d="M12.5,13a.5.5,0,0,0,0-1H12v.5A.5.5,0,0,0,12.5,13Z" fill="#61616b"></path></g></svg>