<svg xmlns="http://www.w3.org/2000/svg" height="16" width="16" viewBox="0 0 16 16"><title>html5 2</title><g fill="#61616b" class="nc-icon-wrapper"><path fill="#61616b" d="M14.738,0.326C14.549,0.118,14.281,0,14,0H2C1.719,0,1.451,0.118,1.262,0.326S0.979,0.811,1.004,1.09l1,11 c0.029,0.317,0.208,0.603,0.481,0.767l5,3C7.644,15.952,7.822,16,8,16s0.356-0.048,0.515-0.143l5-3 c0.273-0.164,0.452-0.449,0.481-0.767l1-11C15.021,0.811,14.928,0.533,14.738,0.326z M12,4H6v2h6v5.721l-4,1.333l-4-1.333V9h2v1.279 l2,0.667l2-0.667V8H4V2h8V4z"></path></g></svg>