<svg xmlns="http://www.w3.org/2000/svg" height="64" width="64" viewBox="0 0 64 64"><title>html5 3</title><g fill="#61616b" class="nc-icon-wrapper"><path fill="#61616b" d="M59.47,2.644C59.091,2.233,58.558,2,58,2H6C5.442,2,4.909,2.233,4.53,2.644 c-0.378,0.41-0.568,0.96-0.524,1.516l4,50C8.074,55,8.661,55.708,9.474,55.93l22,6C31.646,61.977,31.823,62,32,62 s0.354-0.023,0.526-0.07l22-6c0.813-0.222,1.4-0.93,1.467-1.771l4-50C60.038,3.604,59.848,3.054,59.47,2.644z M49,19H21.222l0.571,8 h26.429L46.85,46.213L32,51.162l-15-5V37h6v4.838l9,3l9.15-3.051L41.778,33H16.207l-1.429-20H49V19z"></path></g></svg>