<svg xmlns="http://www.w3.org/2000/svg" height="16" width="16" viewBox="0 0 16 16"><title>image 2 2</title><g fill="#61616b" class="nc-icon-wrapper"><path fill="#61616b" d="M15.895,13.553l-4-8c-0.153-0.305-0.45-0.512-0.789-0.547c-0.338-0.039-0.673,0.104-0.886,0.369L6.792,9.659 L4.555,8.168C4.327,8.017,4.046,7.964,3.781,8.024c-0.267,0.06-0.498,0.227-0.638,0.461l-3,5c-0.186,0.309-0.19,0.693-0.013,1.008 C0.307,14.807,0.64,15,1,15h14c0.347,0,0.668-0.18,0.851-0.475S16.049,13.862,15.895,13.553z"></path> <circle data-color="color-2" fill="#61616b" cx="6" cy="3" r="2"></circle></g></svg>