<svg xmlns="http://www.w3.org/2000/svg" height="32" width="32" viewBox="0 0 32 32"><title>image 2 5</title><g fill="#61616b" class="nc-icon-wrapper"><path fill="#61616b" d="M30.895,27.553l-9-18c-0.156-0.312-0.464-0.521-0.812-0.55c-0.35-0.022-0.686,0.126-0.891,0.409 l-7.384,10.153l-4.183-3.347c-0.231-0.185-0.533-0.255-0.822-0.199c-0.29,0.059-0.539,0.242-0.681,0.502l-6,11 c-0.169,0.31-0.162,0.686,0.018,0.989C1.32,28.813,1.647,29,2,29h28c0.347,0,0.668-0.18,0.851-0.475S31.049,27.862,30.895,27.553z"></path> <circle data-color="color-2" fill="#61616b" cx="10" cy="7" r="4"></circle></g></svg>