<svg xmlns="http://www.w3.org/2000/svg" height="64" width="64" viewBox="0 0 64 64"><title>image 2 3</title><g fill="#61616b" class="nc-icon-wrapper"><circle data-color="color-2" fill="#61616b" cx="21" cy="14" r="7"></circle> <path fill="#61616b" d="M62.874,55.515l-20-36c-0.166-0.299-0.472-0.492-0.813-0.513c-0.353-0.016-0.669,0.134-0.87,0.41 L27.842,37.768l6.781,9.599L16.625,33.219c-0.222-0.177-0.508-0.251-0.789-0.205c-0.28,0.047-0.527,0.21-0.68,0.449l-14,22 c-0.196,0.309-0.208,0.698-0.033,1.019C1.299,56.801,1.635,57,2,57h60c0.354,0,0.682-0.188,0.862-0.493 C63.042,56.202,63.046,55.824,62.874,55.515z"></path></g></svg>