<svg xmlns="http://www.w3.org/2000/svg" height="32" width="32" viewBox="0 0 32 32"><title>invert process 5</title><g fill="#61616b" class="nc-icon-wrapper"><path data-color="color-2" d="M17,29.967c-.333.024-.659.028-1,.036a13.89,13.89,0,0,1-3.618-.479,1,1,0,1,0-.521,1.931A15.88,15.88,0,0,0,15.991,32h.021c.377,0,.754-.014,1.129-.041a1,1,0,0,0-.145-2Z" fill="#61616b"></path><path data-color="color-2" d="M25.422,26.366a13.96,13.96,0,0,1-3.911,2.506,1,1,0,1,0,.786,1.839,15.951,15.951,0,0,0,4.469-2.864,1,1,0,0,0-1.344-1.481Z" fill="#61616b"></path><path data-color="color-2" d="M4.79,24.383a1,1,0,0,0-1.6,1.2,15.943,15.943,0,0,0,3.84,3.666,1,1,0,0,0,1.121-1.657A13.959,13.959,0,0,1,4.79,24.383Z" fill="#61616b"></path><path data-color="color-2" d="M2,16a1,1,0,0,0-1-1H1a1,1,0,0,0-1,1,15.994,15.994,0,0,0,.758,4.862,1,1,0,0,0,.952.7,1.011,1.011,0,0,0,.305-.048,1,1,0,0,0,.648-1.257A14,14,0,0,1,2,16Z" fill="#61616b"></path><path d="M23.221,1.729A15.966,15.966,0,0,0,6.642,3.023L3.965.346a1,1,0,0,0-1.69.525L.658,9.567a1,1,0,0,0,.984,1.183.971.971,0,0,0,.193-.019l8.617-1.7a1,1,0,0,0,.513-1.688l-2.89-2.89A14,14,0,0,1,28.487,22.333c-.123.243-.251.479-.385.711a1,1,0,1,0,1.729,1q.23-.4.44-.81a16,16,0,0,0-7.05-21.509Z" fill="#61616b"></path></g></svg>