<svg xmlns="http://www.w3.org/2000/svg" height="64" width="64" viewBox="0 0 64 64"><title>invert process 3</title><g fill="#61616b" class="nc-icon-wrapper"><path data-color="color-2" d="M6,32a2,2,0,0,0-4,0A29.835,29.835,0,0,0,4.144,43.156a2,2,0,1,0,3.712-1.488A25.882,25.882,0,0,1,6,32Z" fill="#61616b"></path><path data-color="color-2" d="M19.142,59.112A2,2,0,1,0,20.858,55.5a26.274,26.274,0,0,1-8.775-6.786,2,2,0,1,0-3.062,2.574A30.287,30.287,0,0,0,19.142,59.112Z" fill="#61616b"></path><path data-color="color-2" d="M32,62a29.732,29.732,0,0,0,12.858-2.888A2,2,0,1,0,43.142,55.5,25.757,25.757,0,0,1,32,58c-.747,0-1.5-.032-2.242-.095a2,2,0,0,0-.34,3.985C30.271,61.963,31.14,62,32,62Z" fill="#61616b"></path><path data-color="color-2" d="M58.876,40.132a2,2,0,0,0-2.583,1.154,26.183,26.183,0,0,1-6.1,9.285A2,2,0,0,0,53,53.429,30.248,30.248,0,0,0,60.03,42.714,2,2,0,0,0,58.876,40.132Z" fill="#61616b"></path><path d="M32,2A29.924,29.924,0,0,0,13.069,8.738L8.251,4.267a1,1,0,0,0-1.666.564l-2.571,15A1,1,0,0,0,5,21a.96.96,0,0,0,.225-.026l15-3.467A1,1,0,0,0,20.68,15.8l-4.649-4.314A26,26,0,0,1,58,32a2,2,0,0,0,4,0A30.034,30.034,0,0,0,32,2Z" fill="#61616b"></path></g></svg>