<svg xmlns="http://www.w3.org/2000/svg" height="48" width="48" viewBox="0 0 48 48"><title>invert process 4</title><g fill="#61616b" class="nc-icon-wrapper"><path d="M34.579,3.586A23.075,23.075,0,0,0,10.686,5.281L7.422,2.512a1,1,0,0,0-1.639.637L4.393,14.2a1,1,0,0,0,.992,1.125,1.032,1.032,0,0,0,.269-.037l10.852-3.024a1,1,0,0,0,.379-1.726L13.843,7.96A18.972,18.972,0,0,1,42.978,24a2,2,0,0,0,2,2h0a2,2,0,0,0,2-2A22.891,22.891,0,0,0,34.579,3.586Z" fill="#61616b"></path><path data-color="color-2" d="M30.246,41.906a18.921,18.921,0,0,1-7.862.992,2,2,0,0,0-.336,3.986q.984.082,1.961.082a22.881,22.881,0,0,0,7.552-1.282,2,2,0,0,0-1.315-3.778Z" fill="#61616b"></path><path data-color="color-2" d="M44.1,30.3a2,2,0,0,0-2.619,1.069c-.2.465-.41.922-.64,1.367a18.835,18.835,0,0,1-4.165,5.374,2,2,0,1,0,2.67,2.978A22.849,22.849,0,0,0,44.4,34.571c.279-.541.54-1.1.774-1.656A2,2,0,0,0,44.1,30.3Z" fill="#61616b"></path><path data-color="color-2" d="M5.027,24a2,2,0,0,0-2-2h0a2,2,0,0,0-2,2,22.868,22.868,0,0,0,1.325,7.659A2,2,0,0,0,6.121,30.32,18.855,18.855,0,0,1,5.027,24Z" fill="#61616b"></path><path data-color="color-2" d="M15.26,40.832a18.871,18.871,0,0,1-5.376-4.18A2,2,0,0,0,6.9,39.317a22.825,22.825,0,0,0,6.513,5.062,2,2,0,1,0,1.846-3.547Z" fill="#61616b"></path></g></svg>