<svg xmlns="http://www.w3.org/2000/svg" height="64" width="64" viewBox="0 0 64 64"><title>js console 2</title><g fill="#61616b" class="nc-icon-wrapper"><path d="M56,5H8A4,4,0,0,0,4,9V57a4,4,0,0,0,4,4H56a4,4,0,0,0,4-4V9A4,4,0,0,0,56,5ZM16.293,48.121l-1.414-1.414a1,1,0,0,1,0-1.414L27.172,33,14.879,20.707a1,1,0,0,1,0-1.414l1.414-1.414a1,1,0,0,1,1.414,0L32.121,32.293a1,1,0,0,1,0,1.414L17.707,48.121A1,1,0,0,1,16.293,48.121ZM49,47a1,1,0,0,1-1,1H29a1,1,0,0,1-1-1V45a1,1,0,0,1,1-1H48a1,1,0,0,1,1,1Zm0-13a1,1,0,0,1-1,1H38a1,1,0,0,1-1-1V32a1,1,0,0,1,1-1H48a1,1,0,0,1,1,1Zm0-13a1,1,0,0,1-1,1H29a1,1,0,0,1-1-1V19a1,1,0,0,1,1-1H48a1,1,0,0,1,1,1Z" fill="#61616b"></path></g></svg>