<svg xmlns="http://www.w3.org/2000/svg" height="48" width="48" viewBox="0 0 48 48"><title>js console 3</title><g fill="#61616b" class="nc-icon-wrapper"><path d="M42,3H6A3,3,0,0,0,3,6V42a3,3,0,0,0,3,3H42a3,3,0,0,0,3-3V6A3,3,0,0,0,42,3ZM13,34a1,1,0,0,1-.707-1.707L20.586,24l-8.293-8.293a1,1,0,0,1,1.414-1.414l9,9a1,1,0,0,1,0,1.414l-9,9A1,1,0,0,1,13,34Zm22,0H23a1,1,0,0,1,0-2H35a1,1,0,0,1,0,2Zm0-9H29a1,1,0,0,1,0-2h6a1,1,0,0,1,0,2Zm0-9H23a1,1,0,0,1,0-2H35a1,1,0,0,1,0,2Z" fill="#61616b"></path></g></svg>