<svg xmlns="http://www.w3.org/2000/svg" height="16" width="16" viewBox="0 0 16 16"><title>json logo</title><g fill="#61616b" class="nc-icon-wrapper"><path d="M8,0a8,8,0,1,0,8,8A8.009,8.009,0,0,0,8,0ZM7.991,5.457A3.36,3.36,0,0,1,9.3,8.14a3.062,3.062,0,0,1-1.294,2.4A3.36,3.36,0,0,1,6.7,7.86,3.062,3.062,0,0,1,7.991,5.457ZM8,14a5.957,5.957,0,0,1-1.761-.265A5.527,5.527,0,0,1,4.2,9.144,4.15,4.15,0,0,1,6.01,5.375,4.319,4.319,0,0,0,5.2,7.86c0,2.167,1.482,4.506,3.876,4.506,2.37,0,4.227-2.42,4.227-5.51a8.675,8.675,0,0,0-.245-2.075A5.99,5.99,0,0,1,8,14Z" fill="#61616b"></path></g></svg>