<svg xmlns="http://www.w3.org/2000/svg" height="64" width="64" viewBox="0 0 64 64"><title>json logo 2</title><g fill="#61616b" class="nc-icon-wrapper"><path d="M32,2A30,30,0,1,0,62,32,30.034,30.034,0,0,0,32,2Zm7.507,30.58c0,6.094-4.325,10.692-7.338,12.411-4.718-2.259-7.676-8.059-7.676-13.571,0-6.094,4.325-10.692,7.338-12.411C36.549,21.268,39.507,27.068,39.507,32.58ZM32,60a28.039,28.039,0,0,1-5.118-.477C18.909,55.857,14.15,47.353,14.15,36.736c0-10.5,5.888-18.719,13.4-18.719a9.844,9.844,0,0,1,1.858.2A16.882,16.882,0,0,0,22.493,31.42c0,10.23,7.243,16.563,13.953,16.563,8.638,0,15.4-9.1,15.4-20.719,0-8.536-2.9-15.819-8-20.626A28,28,0,0,1,32,60Z" fill="#61616b"></path></g></svg>