<svg xmlns="http://www.w3.org/2000/svg" height="32" width="32" viewBox="0 0 32 32"><title>json logo 3</title><g fill="#61616b" class="nc-icon-wrapper"><path d="M16,0A16,16,0,1,0,32,16,16.019,16.019,0,0,0,16,0Zm-.048,9.828C18.21,11.055,19.4,14.014,19.4,16.3a7.269,7.269,0,0,1-3.352,5.872C13.79,20.945,12.6,17.986,12.6,15.7A7.269,7.269,0,0,1,15.952,9.828ZM16,30a14.021,14.021,0,0,1-2.518-.239C9.578,27.927,7.25,23.714,7.25,18.45c0-5.041,2.707-9,6.205-9.183A9.044,9.044,0,0,0,10.6,15.7c0,4.353,2.944,9.05,7.7,9.05,4.738,0,8.45-4.92,8.45-11.2a15.925,15.925,0,0,0-2.419-8.775A13.982,13.982,0,0,1,16,30Z" fill="#61616b"></path></g></svg>