<svg xmlns="http://www.w3.org/2000/svg" height="24" width="24" viewBox="0 0 24 24"><title>layers 2</title><g fill="#61616b" class="nc-icon-wrapper"><path data-color="color-2" d="M23,0H9A1,1,0,0,0,8,1V2H21a1,1,0,0,1,1,1V16h1a1,1,0,0,0,1-1V1A1,1,0,0,0,23,0Z" fill="#61616b"></path><path data-color="color-2" d="M19,4H5A1,1,0,0,0,4,5V6H17a1,1,0,0,1,1,1V20h1a1,1,0,0,0,1-1V5A1,1,0,0,0,19,4Z" fill="#61616b"></path><path d="M15,8H1A1,1,0,0,0,0,9V23a1,1,0,0,0,1,1H15a1,1,0,0,0,1-1V9A1,1,0,0,0,15,8Z" fill="#61616b"></path></g></svg>