<svg xmlns="http://www.w3.org/2000/svg" height="48" width="48" viewBox="0 0 48 48"><title>layers 2 5</title><g fill="#61616b" class="nc-icon-wrapper"><path d="M33,14H3a1,1,0,0,0-1,1V45a1,1,0,0,0,1,1H33a1,1,0,0,0,1-1V15A1,1,0,0,0,33,14Z" fill="#61616b"></path><path data-color="color-2" d="M39,8H9A1,1,0,0,0,8,9v3H35a1,1,0,0,1,1,1V40h3a1,1,0,0,0,1-1V9A1,1,0,0,0,39,8Z" fill="#61616b"></path><path data-color="color-2" d="M45,2H15a1,1,0,0,0-1,1V6H41a1,1,0,0,1,1,1V34h3a1,1,0,0,0,1-1V3A1,1,0,0,0,45,2Z" fill="#61616b"></path></g></svg>