<svg xmlns="http://www.w3.org/2000/svg" height="32" width="32" viewBox="0 0 32 32"><title>layers 6</title><g fill="#61616b" class="nc-icon-wrapper"><path data-color="color-2" fill="#61616b" d="M14,24H6V10h8V8H6V1c0-0.553-0.448-1-1-1S4,0.447,4,1v24c0,0.553,0.448,1,1,1h9V24z"></path> <path fill="#61616b" d="M27,16H17c-0.552,0-1-0.447-1-1V3c0-0.553,0.448-1,1-1h6c0.265,0,0.52,0.105,0.707,0.293l4,4 C27.895,6.48,28,6.734,28,7v8C28,15.553,27.552,16,27,16z"></path> <path fill="#61616b" d="M27,32H17c-0.552,0-1-0.447-1-1V19c0-0.553,0.448-1,1-1h6c0.265,0,0.52,0.105,0.707,0.293l4,4 C27.895,22.48,28,22.734,28,23v8C28,31.553,27.552,32,27,32z"></path></g></svg>