<svg xmlns="http://www.w3.org/2000/svg" height="24" width="24" viewBox="0 0 24 24"><title>layout grid</title><g fill="#61616b" class="nc-icon-wrapper"><path d="M15,2H1A.945.945,0,0,0,0,3V6A.945.945,0,0,0,1,7H15a.945.945,0,0,0,1-1V3A.945.945,0,0,0,15,2Z" fill="#61616b"></path> <path d="M15,10H1a.945.945,0,0,0-1,1v3a.945.945,0,0,0,1,1H15a.945.945,0,0,0,1-1V11A.945.945,0,0,0,15,10Z" fill="#61616b"></path> <path d="M15,18H1a.945.945,0,0,0-1,1v3a.945.945,0,0,0,1,1H15a.945.945,0,0,0,1-1V19A.945.945,0,0,0,15,18Z" fill="#61616b"></path> <path data-color="color-2" d="M23,2H20a.945.945,0,0,0-1,1V22a.945.945,0,0,0,1,1h3a.945.945,0,0,0,1-1V3A.945.945,0,0,0,23,2Z" fill="#61616b"></path></g></svg>