<svg xmlns="http://www.w3.org/2000/svg" height="48" width="48" viewBox="0 0 48 48"><title>layout 11 4</title><g fill="#61616b" class="nc-icon-wrapper"><path fill="#61616b" d="M20,27H5c-0.552,0-1-0.448-1-1V2c0-0.552,0.448-1,1-1h15c0.552,0,1,0.448,1,1v24C21,26.552,20.552,27,20,27z "></path> <path data-color="color-2" fill="#61616b" d="M20,47H5c-0.552,0-1-0.448-1-1V34c0-0.552,0.448-1,1-1h15c0.552,0,1,0.448,1,1v12 C21,46.552,20.552,47,20,47z"></path> <path data-color="color-2" fill="#61616b" d="M43,15H28c-0.552,0-1-0.448-1-1V2c0-0.552,0.448-1,1-1h15c0.552,0,1,0.448,1,1v12 C44,14.552,43.552,15,43,15z"></path> <path fill="#61616b" d="M43,47H28c-0.552,0-1-0.448-1-1V22c0-0.552,0.448-1,1-1h15c0.552,0,1,0.448,1,1v24 C44,46.552,43.552,47,43,47z"></path></g></svg>