<svg xmlns="http://www.w3.org/2000/svg" height="64" width="64" viewBox="0 0 64 64"><title>layout 11 3</title><g fill="#61616b" class="nc-icon-wrapper"><path fill="#61616b" d="M27,36H6c-0.552,0-1-0.448-1-1V2c0-0.552,0.448-1,1-1h21c0.552,0,1,0.448,1,1v33C28,35.552,27.552,36,27,36z "></path> <path data-color="color-2" fill="#61616b" d="M27,63H6c-0.552,0-1-0.448-1-1V45c0-0.552,0.448-1,1-1h21c0.552,0,1,0.448,1,1v17 C28,62.552,27.552,63,27,63z"></path> <path data-color="color-2" fill="#61616b" d="M58,20H37c-0.552,0-1-0.448-1-1V2c0-0.552,0.448-1,1-1h21c0.552,0,1,0.448,1,1v17 C59,19.552,58.552,20,58,20z"></path> <path fill="#61616b" d="M58,63H37c-0.552,0-1-0.448-1-1V29c0-0.552,0.448-1,1-1h21c0.552,0,1,0.448,1,1v33 C59,62.552,58.552,63,58,63z"></path></g></svg>