<svg xmlns="http://www.w3.org/2000/svg" height="16" width="16" viewBox="0 0 16 16"><title>layout 3</title><g fill="#61616b" class="nc-icon-wrapper"><path fill="#61616b" d="M10,0H1C0.4,0,0,0.4,0,1v1c0,0.6,0.4,1,1,1h9c0.6,0,1-0.4,1-1V1C11,0.4,10.6,0,10,0z"></path> <path fill="#61616b" d="M10,6H1C0.4,6,0,6.4,0,7v1c0,0.6,0.4,1,1,1h9c0.6,0,1-0.4,1-1V7C11,6.4,10.6,6,10,6z"></path> <path fill="#61616b" d="M10,12H1c-0.6,0-1,0.4-1,1v1c0,0.6,0.4,1,1,1h9c0.6,0,1-0.4,1-1v-1C11,12.4,10.6,12,10,12z"></path> <path data-color="color-2" fill="#61616b" d="M15,0h-1c-0.6,0-1,0.4-1,1v13c0,0.6,0.4,1,1,1h1c0.6,0,1-0.4,1-1V1C16,0.4,15.6,0,15,0z"></path></g></svg>