<svg xmlns="http://www.w3.org/2000/svg" height="16" width="16" viewBox="0 0 16 16"><title>layout 11 2</title><g fill="#61616b" class="nc-icon-wrapper"><path fill="#61616b" d="M6,9H1C0.448,9,0,8.552,0,8V1c0-0.552,0.448-1,1-1h5c0.552,0,1,0.448,1,1v7C7,8.552,6.552,9,6,9z"></path> <path data-color="color-2" fill="#61616b" d="M6,16H1c-0.552,0-1-0.448-1-1v-3c0-0.552,0.448-1,1-1h5c0.552,0,1,0.448,1,1v3 C7,15.552,6.552,16,6,16z"></path> <path data-color="color-2" fill="#61616b" d="M15,6h-5C9.448,6,9,5.552,9,5V1c0-0.552,0.448-1,1-1h5c0.552,0,1,0.448,1,1v4 C16,5.552,15.552,6,15,6z"></path> <path fill="#61616b" d="M15,16h-5c-0.552,0-1-0.448-1-1V9c0-0.552,0.448-1,1-1h5c0.552,0,1,0.448,1,1v6C16,15.552,15.552,16,15,16z"></path></g></svg>