<svg xmlns="http://www.w3.org/2000/svg" height="48" width="48" viewBox="0 0 48 48"><title>layout 5</title><g fill="#61616b" class="nc-icon-wrapper"><path d="M31,4H2A.945.945,0,0,0,1,5v8a.945.945,0,0,0,1,1H31a.945.945,0,0,0,1-1V5A.945.945,0,0,0,31,4Z" fill="#61616b"></path><path d="M31,19H2a.945.945,0,0,0-1,1v8a.945.945,0,0,0,1,1H31a.945.945,0,0,0,1-1V20A.945.945,0,0,0,31,19Z" fill="#61616b"></path><path d="M31,34H2a.945.945,0,0,0-1,1v8a.945.945,0,0,0,1,1H31a.945.945,0,0,0,1-1V35A.945.945,0,0,0,31,34Z" fill="#61616b"></path><path data-color="color-2" d="M46,4H38a.945.945,0,0,0-1,1V43a.945.945,0,0,0,1,1h8a.945.945,0,0,0,1-1V5A.945.945,0,0,0,46,4Z" fill="#61616b"></path></g></svg>