<svg xmlns="http://www.w3.org/2000/svg" height="64" width="64" viewBox="0 0 64 64"><title>license key 2</title><g fill="#61616b" class="nc-icon-wrapper"><path d="M59,7H5a3,3,0,0,0-3,3V54a3,3,0,0,0,3,3H59a3,3,0,0,0,3-3V10A3,3,0,0,0,59,7ZM18,12a2,2,0,1,1-2,2A2,2,0,0,1,18,12Zm-8,0a2,2,0,1,1-2,2A2,2,0,0,1,10,12ZM60,54a1,1,0,0,1-1,1H5a1,1,0,0,1-1-1V21H60Z" fill="#61616b"></path><path d="M54.75,32.338A1,1,0,0,0,54,32H29.651a10,10,0,1,0,0,10h3.86l2.96,1.849a1,1,0,0,0,1.088-.02L40.272,42h1.239l2.96,1.849a1,1,0,0,0,1.088-.02L48.272,42H53a1,1,0,0,0,.992-.876l1-8A1,1,0,0,0,54.75,32.338ZM18,40a3,3,0,1,1,3-3A3,3,0,0,1,18,40Z" fill="#61616b" data-color="color-2"></path></g></svg>