<svg xmlns="http://www.w3.org/2000/svg" height="48" width="48" viewBox="0 0 48 48"><title>linux 3</title><g fill="#61616b" class="nc-icon-wrapper"><path d="M43.622,39.658a2.121,2.121,0,0,0-1.1-1.267c-1.186-.679-1.949-1.438-2.093-2.082a6.384,6.384,0,0,1-.111-.763,2.516,2.516,0,0,0-.843-1.954,2,2,0,0,0-.643-.3,10.857,10.857,0,0,0,.4-4.324,16.048,16.048,0,0,0-3.537-8.3c-1.8-1.985-4.583-4.836-4.583-7V7.659a6.659,6.659,0,0,0-13.318,0v8.752c-.289,1.516-1.047,1.66-2.238,3.32a19.872,19.872,0,0,0-2.779,5.125c-.577,1.733-1.84,3.573-2.346,4.981a4.687,4.687,0,0,0-.205,2.767,8.383,8.383,0,0,0-.672.911,4.268,4.268,0,0,1-.562.738,3.839,3.839,0,0,1-1.182.167,3.446,3.446,0,0,0-2.328.646c-.586.627-.478,1.891-.364,3.228a10.051,10.051,0,0,1,.064,1.588,4.143,4.143,0,0,1-.5,1.522,2.927,2.927,0,0,0-.34.918,1.939,1.939,0,0,0,1.532,2.146c1.106.393,5.187,1.414,6.578,1.725a8.76,8.76,0,0,1,1.027.351,9.09,9.09,0,0,0,3.089.757A2.891,2.891,0,0,0,19.2,45.847a4.605,4.605,0,0,0,.446-.978,24.633,24.633,0,0,1,10.035.264,3.779,3.779,0,0,0,1.5,1.806,3.247,3.247,0,0,0,1.833.564,5.3,5.3,0,0,0,3.51-1.657,13.788,13.788,0,0,1,3.425-2.566c.778-.318,2.913-1.338,3.44-2.228A1.8,1.8,0,0,0,43.622,39.658ZM19.2,13.642c.348-.6,2.2-2.132,3.417-2.132a4.318,4.318,0,0,1,2.026.745,4.648,4.648,0,0,0,.974.469c.132.037.274.07.419.1.555.129,1.129.263,1.337.654a.643.643,0,0,1,.035.516,1.849,1.849,0,0,1-.973.967,8.209,8.209,0,0,0-1.066.694,5.107,5.107,0,0,1-2.944,1.275,2.952,2.952,0,0,1-2.323-1.456,4.421,4.421,0,0,0-.663-.721C18.92,14.343,18.924,14.126,19.2,13.642ZM25.64,7.328c1.2,0,2.177,1.4,2.177,3.116a4.067,4.067,0,0,1-.4,1.787,5.166,5.166,0,0,0-1.152-.377l-.015,0A1.766,1.766,0,0,0,26.7,10.7c.03-.826-.418-1.514-1-1.535s-1.081.631-1.111,1.458a2.071,2.071,0,0,0,.042.478,5.592,5.592,0,0,0-1.146-.462c0-.066-.018-.127-.018-.194C23.462,8.723,24.437,7.328,25.64,7.328Zm-5.813.5c1-.084,1.911,1.021,2.033,2.468.009.113.007.223,0,.333a4.827,4.827,0,0,0-.795.3,1.829,1.829,0,0,0-.007-.338c-.118-.738-.629-1.27-1.14-1.188s-.831.746-.713,1.484a1.665,1.665,0,0,0,.446.922c-.241.188-.466.377-.658.561a3.674,3.674,0,0,1-.581-1.784C18.3,9.136,18.826,7.908,19.827,7.824Zm-1.482,37.5c-.924,1.5-2.588,1.019-4.508.286a9.376,9.376,0,0,0-1.165-.392c-1.335-.3-5.408-1.317-6.463-1.691-.856-.3-.917-.737-.874-1.079a2.346,2.346,0,0,1,.243-.6,5.126,5.126,0,0,0,.6-1.872,10.785,10.785,0,0,0-.063-1.77c-.073-.859-.184-2.158.1-2.461.235-.251,1.055-.3,1.653-.329a3.13,3.13,0,0,0,1.767-.4,4.578,4.578,0,0,0,.752-.951c.316-.472.748-1.12,1.1-1.177a.777.777,0,0,1,.109-.008c.516,0,1.188.556,1.823,1.522.176.266.454.732.793,1.3a41.916,41.916,0,0,0,3.266,4.939C18.979,42.36,19.253,43.847,18.345,45.323Zm1.1-3.472a7.372,7.372,0,0,0-1.214-1.865c-.094-.107-.2-.235-.3-.365a1.387,1.387,0,0,0,1.086-.4c.541-.794-.144-2.13-1.047-2.849s-3.08-2.039-4.331-3.9c-.4-4.006,2.6-8.951,4.151-11.73a8.162,8.162,0,0,0,1.345-4.864c.061.074.121.146.185.226a3.9,3.9,0,0,0,3.1,1.83,5.979,5.979,0,0,0,3.53-1.465,7.509,7.509,0,0,1,.928-.61,3.413,3.413,0,0,0,.863-.615,86.349,86.349,0,0,1,4.231,9.107,24.676,24.676,0,0,1,.787,8.381c-.933-.1-1.737-.16-2.178.232-.523.465-.446,1.494-.372,2.489.015.218.031.421.036.594.015.5-.064,1.906-.165,3.107a8.282,8.282,0,0,1-6.68,3.387A11.094,11.094,0,0,1,19.447,41.851Zm23.074-1.309a8.7,8.7,0,0,1-2.959,1.812,14.7,14.7,0,0,0-3.746,2.777c-.376.368-2.34,2.14-4.088.976-1.719-1.146-1.409-2.93-.982-4.512.061-.227.111-.419.138-.565a44.4,44.4,0,0,0,.369-5.012c-.006-.186-.022-.406-.039-.638a5.007,5.007,0,0,1,.032-1.663,4.946,4.946,0,0,1,1.631.032c.344.038.684.075.981.089l.529.017c.98.032,3.962.126,4.48.528.343.265.394.616.461,1.265a7.516,7.516,0,0,0,.128.879c.269,1.194,1.548,2.144,2.574,2.732a1.251,1.251,0,0,1,.625.654A.821.821,0,0,1,42.521,40.542Z" fill="#61616b"></path></g></svg>