<svg xmlns="http://www.w3.org/2000/svg" height="32" width="32" viewBox="0 0 32 32"><title>linux 4</title><g fill="#61616b" class="nc-icon-wrapper"><path d="M22.12,20.479a6,6,0,0,1,1.306.576c.088.049.173.1.256.143.212-.019.558-.092.843-.151a7.693,7.693,0,0,1,1.561-.217,3.228,3.228,0,0,1,.54.048,9.593,9.593,0,0,0-.028-1.42,11.17,11.17,0,0,0-2.461-5.775c-1.255-1.381-3.188-3.364-3.188-4.87V4.632a4.633,4.633,0,0,0-9.265,0v6.089c-.2,1.054-.728,1.155-1.556,2.31A13.783,13.783,0,0,0,8.194,16.6c-.387,1.16-1.205,2.384-1.58,3.348a2.614,2.614,0,0,1,.3-.076,2.933,2.933,0,0,1,.454-.036,3.073,3.073,0,0,1,1.519.417,22.074,22.074,0,0,1,2.792-6.515,6.014,6.014,0,0,0,.93-3.891c.486.386.971,1.589,2.292,1.589s2.21-1.038,2.946-1.406a1.977,1.977,0,0,0,.509-.365l.127.03a62.48,62.48,0,0,1,3.063,6.553A14.811,14.811,0,0,1,22.12,20.479ZM14.586,7.032a2.978,2.978,0,0,0-.62.2c-.036.015-.069.031-.1.047a3.324,3.324,0,0,0-.5.288h0a1.772,1.772,0,0,1-.456-1.1c-.065-.774.273-1.434.755-1.474s.924.554.989,1.328A2.062,2.062,0,0,1,14.586,7.032Zm3.2-.557a2.138,2.138,0,0,1-.372,1.071c-.076-.041-.16-.082-.247-.124L17.1,7.391c-.1-.048-.215-.094-.335-.139l-.013,0a4.328,4.328,0,0,0-.9-.223,2.35,2.35,0,0,1-.051-.716c.073-.872.578-1.541,1.126-1.495S17.86,5.6,17.787,6.475Z" fill="#61616b"></path> <path d="M8.931,23.048c-.452-.686-1.072-1.3-1.691-1.2S6.186,23.065,5.784,23.4s-1.942.033-2.41.535-.034,2.293-.117,3.147-.536,1.306-.586,1.707.083.854.837,1.122,3.565.971,4.536,1.188,3.247,1.657,4.318-.083c.837-1.36.285-2.612-.636-3.666A45.359,45.359,0,0,1,8.931,23.048Z" fill="#61616b" data-color="color-2"></path> <path d="M15.588,28.9c-.311,0-.6-.017-.888-.045a4.285,4.285,0,0,1,.027,1.41,18.664,18.664,0,0,1,3.444.123,6.124,6.124,0,0,1,.109-2.167A5.582,5.582,0,0,1,15.588,28.9Z" fill="#61616b"></path> <path d="M28.715,26.312a3.209,3.209,0,0,1-1.624-1.674c-.15-.669-.016-1.288-.535-1.69s-2.212.364-3.212.24c-.7-.088-1.746-1.185-2.46-.731-.424.27-.2,1.344-.186,1.914a30.66,30.66,0,0,1-.252,3.414c-.117.653-1.021,2.712.737,3.883,1.215.81,2.578-.033,3.281-.719a9.813,9.813,0,0,1,2.494-1.858,6.155,6.155,0,0,0,2.226-1.406C29.452,27.233,29.418,26.714,28.715,26.312Z" fill="#61616b" data-color="color-2"></path></g></svg>