<svg xmlns="http://www.w3.org/2000/svg" height="64" width="64" viewBox="0 0 64 64"><title>linux 2</title><g fill="#61616b" class="nc-icon-wrapper"><path d="M58.161,52.541a2.834,2.834,0,0,0-1.461-1.69c-1.582-.905-2.6-1.917-2.792-2.776a8.537,8.537,0,0,1-.147-1.017,3.361,3.361,0,0,0-1.123-2.6,2.7,2.7,0,0,0-.859-.4,14.461,14.461,0,0,0,.531-5.765A21.4,21.4,0,0,0,47.6,27.225c-2.406-2.647-6.111-6.448-6.111-9.335V9.878a8.878,8.878,0,0,0-17.756,0V21.547c-.385,2.021-1.4,2.213-2.983,4.427a26.44,26.44,0,0,0-3.706,6.833c-.769,2.309-2.454,4.763-3.127,6.64a6.243,6.243,0,0,0-.274,3.689,11.27,11.27,0,0,0-.9,1.214,5.534,5.534,0,0,1-.749.984,5.083,5.083,0,0,1-1.575.223c-1.193.066-2.426.134-3.1.862-.782.836-.638,2.521-.486,4.3a13.474,13.474,0,0,1,.085,2.117,5.521,5.521,0,0,1-.668,2.03,3.937,3.937,0,0,0-.454,1.224,2.586,2.586,0,0,0,2.043,2.86c1.476.525,6.917,1.886,8.771,2.3a11.642,11.642,0,0,1,1.369.467,12.093,12.093,0,0,0,4.119,1.009,3.854,3.854,0,0,0,3.5-1.938,6.178,6.178,0,0,0,.594-1.3,32.856,32.856,0,0,1,13.379.352,5.045,5.045,0,0,0,2,2.409A4.336,4.336,0,0,0,44.007,63a7.064,7.064,0,0,0,4.679-2.209,18.365,18.365,0,0,1,4.567-3.421c1.037-.424,3.883-1.784,4.586-2.971A2.4,2.4,0,0,0,58.161,52.541ZM25.6,17.854c.464-.8,2.935-2.842,4.556-2.842a5.763,5.763,0,0,1,2.7.994,6.241,6.241,0,0,0,1.3.625c.176.049.365.093.559.139.74.172,1.5.35,1.782.872a.855.855,0,0,1,.047.688,2.47,2.47,0,0,1-1.3,1.289,10.645,10.645,0,0,0-1.422.925,6.809,6.809,0,0,1-3.926,1.7c-1.536,0-2.364-1.031-3.1-1.941a6.034,6.034,0,0,0-.884-.961C25.226,18.789,25.232,18.5,25.6,17.854Zm8.582-8.417c1.6,0,2.9,1.86,2.9,4.154a5.422,5.422,0,0,1-.531,2.383,6.972,6.972,0,0,0-1.537-.5l-.019,0a2.36,2.36,0,0,0,.592-1.535c.04-1.1-.557-2.018-1.335-2.047s-1.441.842-1.481,1.944a2.708,2.708,0,0,0,.056.638,7.418,7.418,0,0,0-1.528-.616c-.005-.088-.023-.169-.023-.259C31.283,11.3,32.582,9.437,34.186,9.437Zm-7.75.662c1.335-.112,2.548,1.361,2.71,3.289a4.15,4.15,0,0,1,.007.445,6.372,6.372,0,0,0-1.061.4,2.354,2.354,0,0,0-.008-.451c-.158-.984-.838-1.693-1.521-1.584s-1.107.995-.95,1.979a2.221,2.221,0,0,0,.595,1.229,11.374,11.374,0,0,0-.877.748,4.9,4.9,0,0,1-.775-2.379C24.394,11.847,25.1,10.211,26.436,10.1Zm-1.976,50c-1.232,2-3.451,1.358-6.01.381a12.723,12.723,0,0,0-1.554-.523c-1.78-.4-7.21-1.755-8.616-2.254-1.142-.406-1.223-.983-1.166-1.438a3.1,3.1,0,0,1,.325-.8,6.862,6.862,0,0,0,.8-2.495,14.53,14.53,0,0,0-.084-2.36c-.1-1.146-.246-2.878.13-3.281.314-.335,1.407-.4,2.205-.439a4.174,4.174,0,0,0,2.355-.531,6.075,6.075,0,0,0,1-1.267c.421-.63,1-1.493,1.468-1.57a.979.979,0,0,1,.145-.011c.689,0,1.584.742,2.431,2.03.234.354.605.975,1.057,1.732a55.882,55.882,0,0,0,4.355,6.584C25.305,56.144,25.67,58.125,24.46,60.094Zm1.469-4.63a9.811,9.811,0,0,0-1.618-2.486c-.125-.143-.26-.313-.395-.486a1.849,1.849,0,0,0,1.448-.534c.722-1.059-.193-2.839-1.4-3.8s-4.107-2.718-5.774-5.2c-.529-5.342,3.465-11.934,5.534-15.639,1.722-3.084,1.811-4.512,1.793-6.484.081.1.162.194.247.3A5.208,5.208,0,0,0,29.9,23.577a7.975,7.975,0,0,0,4.707-1.953,10.068,10.068,0,0,1,1.237-.813A4.515,4.515,0,0,0,37,19.99a115.56,115.56,0,0,1,5.642,12.143c1.344,3.907,1.15,9.153,1.049,11.174-1.244-.135-2.316-.213-2.9.309-.7.62-.595,1.992-.5,3.319.021.29.042.561.048.791.02.669-.085,2.541-.219,4.143a11.046,11.046,0,0,1-8.907,4.516A14.787,14.787,0,0,1,25.929,55.464Zm30.764-1.745c-.36.608-2.38,1.778-3.945,2.417a19.577,19.577,0,0,0-4.994,3.7c-.5.491-3.121,2.853-5.452,1.3-2.291-1.528-1.877-3.907-1.308-6.016.08-.3.148-.559.183-.753a58.957,58.957,0,0,0,.492-6.683c-.007-.247-.028-.54-.052-.85a6.7,6.7,0,0,1,.043-2.217,6.6,6.6,0,0,1,2.175.043c.458.05.911.1,1.308.118l.7.024c1.307.041,5.282.167,5.973.7.457.354.525.821.615,1.687a10.037,10.037,0,0,0,.17,1.172c.358,1.591,2.064,2.858,3.432,3.642a1.666,1.666,0,0,1,.834.872A1.1,1.1,0,0,1,56.693,53.719Z" fill="#61616b"></path></g></svg>