<svg xmlns="http://www.w3.org/2000/svg" height="16" width="16" viewBox="0 0 16 16"><title>linux</title><g fill="#61616b" class="nc-icon-wrapper"><path d="M11.06,10.24a3,3,0,0,1,.653.287c.044.025.087.051.128.072.106-.01.279-.046.421-.076a3.886,3.886,0,0,1,.781-.108,1.567,1.567,0,0,1,.27.024,4.8,4.8,0,0,0-.014-.71,5.589,5.589,0,0,0-1.23-2.887c-.628-.691-1.6-1.683-1.6-2.436V2.316a2.316,2.316,0,0,0-4.632,0V5.36c-.1.528-.364.578-.778,1.155A6.918,6.918,0,0,0,4.1,8.3c-.193.58-.6,1.192-.79,1.674a1.425,1.425,0,0,1,.153-.038,1.457,1.457,0,0,1,.227-.018,1.527,1.527,0,0,1,.759.209,11.055,11.055,0,0,1,1.4-3.258,3,3,0,0,0,.465-1.945c.243.193.485.794,1.146.794s1.1-.519,1.473-.7a1,1,0,0,0,.255-.182l.063.015a31.342,31.342,0,0,1,1.532,3.276A7.422,7.422,0,0,1,11.06,10.24ZM7.293,3.516a1.48,1.48,0,0,0-.31.1c-.018.008-.035.015-.052.024a1.633,1.633,0,0,0-.25.144h0a.886.886,0,0,1-.228-.551c-.033-.387.136-.717.377-.737s.462.277.5.664A1.056,1.056,0,0,1,7.293,3.516Zm1.6-.279a1.066,1.066,0,0,1-.185.536l-.124-.062L8.551,3.7c-.051-.024-.108-.047-.167-.069l-.007,0a2.1,2.1,0,0,0-.452-.112A1.161,1.161,0,0,1,7.9,3.154c.036-.436.288-.77.563-.747S8.93,2.8,8.893,3.237Z" fill="#61616b"></path> <path d="M4.465,11.524c-.226-.343-.535-.653-.845-.6s-.527.611-.728.778-.971.017-1.2.268-.017,1.146-.059,1.573-.268.653-.293.854.042.427.419.56,1.782.486,2.268.6,1.623.828,2.159-.042a1.462,1.462,0,0,0-.318-1.833A22.731,22.731,0,0,1,4.465,11.524Z" fill="#61616b" data-color="color-2"></path> <path d="M7.794,14.449c-.155,0-.3-.009-.444-.023a2.164,2.164,0,0,1,.014.706,9.361,9.361,0,0,1,1.721.061,3.088,3.088,0,0,1,.055-1.084A2.791,2.791,0,0,1,7.794,14.449Z" fill="#61616b"></path> <path d="M14.358,13.156a1.6,1.6,0,0,1-.812-.837c-.076-.335-.009-.644-.268-.845s-1.106.182-1.606.12c-.351-.044-.873-.592-1.23-.365-.212.134-.1.672-.093.956a15.347,15.347,0,0,1-.126,1.708c-.058.326-.51,1.355.368,1.941a1.344,1.344,0,0,0,1.641-.36,4.93,4.93,0,0,1,1.247-.929,3.064,3.064,0,0,0,1.113-.7C14.726,13.616,14.709,13.357,14.358,13.156Z" fill="#61616b" data-color="color-2"></path></g></svg>