<svg xmlns="http://www.w3.org/2000/svg" height="24" width="24" viewBox="0 0 24 24"><title>magic wand 2</title><g fill="#61616b" class="nc-icon-wrapper"><path d="M17.707,9.293l-3-3c-.391-.391-1.023-.391-1.414,0L.293,19.293c-.391,.391-.391,1.023,0,1.414l3,3c.195,.195,.451,.293,.707,.293s.512-.098,.707-.293l13-13c.391-.391,.391-1.023,0-1.414Zm-4.707,3.293l-1.586-1.586,2.586-2.586,1.586,1.586-2.586,2.586Z" fill="#61616b"></path><path d="M23,2.5c-.827,0-1.5-.673-1.5-1.5,0-.552-.448-1-1-1s-1,.448-1,1c0,.827-.673,1.5-1.5,1.5-.552,0-1,.448-1,1s.448,1,1,1c.827,0,1.5,.673,1.5,1.5,0,.552,.448,1,1,1s1-.448,1-1c0-.827,.673-1.5,1.5-1.5,.552,0,1-.448,1-1s-.448-1-1-1Z" fill="#61616b" data-color="color-2"></path><path d="M10,2.5c-.827,0-1.5-.673-1.5-1.5,0-.552-.448-1-1-1s-1,.448-1,1c0,.827-.673,1.5-1.5,1.5-.552,0-1,.448-1,1s.448,1,1,1c.827,0,1.5,.673,1.5,1.5,0,.552,.448,1,1,1s1-.448,1-1c0-.827,.673-1.5,1.5-1.5,.552,0,1-.448,1-1s-.448-1-1-1Z" fill="#61616b" data-color="color-2"></path><path d="M18,17.5c.827,0,1.5,.673,1.5,1.5,0,.552,.448,1,1,1s1-.448,1-1c0-.827,.673-1.5,1.5-1.5,.552,0,1-.448,1-1s-.448-1-1-1c-.827,0-1.5-.673-1.5-1.5,0-.552-.448-1-1-1s-1,.448-1,1c0,.827-.673,1.5-1.5,1.5-.552,0-1,.448-1,1s.448,1,1,1Z" fill="#61616b" data-color="color-2"></path></g></svg>