<svg xmlns="http://www.w3.org/2000/svg" height="48" width="48" viewBox="0 0 48 48"><title>magic wand 5</title><g fill="#61616b" class="nc-icon-wrapper"><path d="M35.707,17.293l-5-5c-.39-.39-1.024-.39-1.414,0L2.293,39.293c-.39,.39-.39,1.024,0,1.414l5,5c.39,.39,1.023,.39,1.414,0l27-27c.39-.39,.39-1.024,0-1.414Zm-6.707,5.293l-3.586-3.586,4.586-4.586,3.586,3.586-4.586,4.586Z" fill="#61616b"></path><path d="M45,32h0c-2.209,0-4-1.791-4-4h0c0-.553-.447-1-1-1s-1,.447-1,1h0c0,2.209-1.791,4-4,4h0c-.553,0-1,.447-1,1s.447,1,1,1h0c2.209,0,4,1.791,4,4h0c0,.553,.447,1,1,1s1-.447,1-1h0c0-2.209,1.791-4,4-4h0c.553,0,1-.447,1-1s-.447-1-1-1Z" fill="#61616b" data-color="color-2"></path><path d="M46,6h0c-2.209,0-4-1.791-4-4h0c0-.553-.447-1-1-1s-1,.447-1,1h0c0,2.209-1.791,4-4,4h0c-.553,0-1,.447-1,1s.447,1,1,1h0c2.209,0,4,1.791,4,4h0c0,.553,.447,1,1,1s1-.447,1-1h0c0-2.209,1.791-4,4-4h0c.553,0,1-.447,1-1s-.447-1-1-1Z" fill="#61616b" data-color="color-2"></path><path d="M20,7h0c-2.209,0-4-1.791-4-4h0c0-.553-.447-1-1-1s-1,.447-1,1h0c0,2.209-1.791,4-4,4h0c-.553,0-1,.447-1,1s.447,1,1,1h0c2.209,0,4,1.791,4,4h0c0,.553,.447,1,1,1s1-.447,1-1h0c0-2.209,1.791-4,4-4h0c.553,0,1-.447,1-1s-.447-1-1-1Z" fill="#61616b" data-color="color-2"></path></g></svg>