<svg xmlns="http://www.w3.org/2000/svg" height="64" width="64" viewBox="0 0 64 64"><title>magic wand 4</title><g fill="#61616b" class="nc-icon-wrapper"><path d="M44.707,25.293l-6-6c-.391-.39-1.024-.39-1.414,0L3.293,53.293c-.39,.391-.39,1.023,0,1.414l6,6c.39,.39,1.023,.39,1.414,0L44.707,26.707c.39-.391,.39-1.023,0-1.414Zm-8.707,7.293l-4.586-4.586,6.586-6.586,4.586,4.586-6.586,6.586Z" fill="#61616b"></path><path d="M24,10c3.309,0,6,2.691,6,6,0,.553,.447,1,1,1s1-.447,1-1c0-3.309,2.691-6,6-6,.553,0,1-.447,1-1s-.447-1-1-1c-3.309,0-6-2.691-6-6,0-.553-.447-1-1-1s-1,.447-1,1c0,3.309-2.691,6-6,6-.553,0-1,.447-1,1s.447,1,1,1Z" fill="#61616b" data-color="color-2"></path><path d="M50,10c2.206,0,4,1.794,4,4,0,.553,.447,1,1,1s1-.447,1-1c0-2.206,1.794-4,4-4,.553,0,1-.447,1-1s-.447-1-1-1c-2.206,0-4-1.794-4-4,0-.553-.447-1-1-1s-1,.447-1,1c0,2.206-1.794,4-4,4-.553,0-1,.447-1,1s.447,1,1,1Z" fill="#61616b" data-color="color-2"></path><path d="M62,32c-3.309,0-6-2.691-6-6,0-.553-.447-1-1-1s-1,.447-1,1c0,3.309-2.691,6-6,6-.553,0-1,.447-1,1s.447,1,1,1c3.309,0,6,2.691,6,6,0,.553,.447,1,1,1s1-.447,1-1c0-3.309,2.691-6,6-6,.553,0,1-.447,1-1s-.447-1-1-1Z" fill="#61616b" data-color="color-2"></path><path d="M11,25c1.654,0,3,1.346,3,3,0,.553,.447,1,1,1s1-.447,1-1c0-1.654,1.346-3,3-3,.553,0,1-.447,1-1s-.447-1-1-1c-1.654,0-3-1.346-3-3,0-.553-.447-1-1-1s-1,.447-1,1c0,1.654-1.346,3-3,3-.553,0-1,.447-1,1s.447,1,1,1Z" fill="#61616b" data-color="color-2"></path><path d="M44,48c-1.654,0-3-1.346-3-3,0-.553-.447-1-1-1s-1,.447-1,1c0,1.654-1.346,3-3,3-.553,0-1,.447-1,1s.447,1,1,1c1.654,0,3,1.346,3,3,0,.553,.447,1,1,1s1-.447,1-1c0-1.654,1.346-3,3-3,.553,0,1-.447,1-1s-.447-1-1-1Z" fill="#61616b" data-color="color-2"></path></g></svg>