<svg xmlns="http://www.w3.org/2000/svg" height="32" width="32" viewBox="0 0 32 32"><title>magnet 5</title><g fill="#61616b" class="nc-icon-wrapper"><path data-color="color-2" fill="#61616b" d="M16,9.5l3.4-3.4c0.2-0.2,0.3-0.4,0.3-0.7s-0.1-0.5-0.3-0.7l-4-4c-0.4-0.4-1-0.4-1.4,0 l-3.4,3.4L16,9.5z"></path> <path fill="#61616b" d="M21,17.5l-5.1,5.1c-0.9,0.9-2,1.3-3.2,1.3c-1.2,0-2.4-0.5-3.2-1.3c-0.9-0.9-1.3-2-1.3-3.2 c0-1.2,0.5-2.4,1.3-3.2l5.1-5.1L9.2,5.6l-5.1,5.1c-2.3,2.3-3.6,5.4-3.6,8.6c0,3.3,1.3,6.3,3.6,8.6s5.4,3.6,8.6,3.6 c3.3,0,6.3-1.3,8.6-3.6l5.1-5.1L21,17.5z"></path> <path data-color="color-2" fill="#61616b" d="M31.2,16.6l-4-4c-0.2-0.2-0.4-0.3-0.7-0.3s-0.5,0.1-0.7,0.3L22.5,16l5.4,5.4l3.4-3.4 C31.6,17.6,31.6,17,31.2,16.6z"></path></g></svg>