<svg xmlns="http://www.w3.org/2000/svg" height="64" width="64" viewBox="0 0 64 64"><title>magnet 3</title><g fill="#61616b" class="nc-icon-wrapper"><path data-color="color-2" fill="#61616b" d="M30.5,19.1l7.5-7.5c0.4-0.4,0.4-1,0-1.4L30,2.3c-0.4-0.4-1-0.4-1.4,0l-7.5,7.5L30.5,19.1z"></path> <path data-color="color-2" fill="#61616b" d="M61.7,34L53.8,26c-0.4-0.4-1-0.4-1.4,0l-7.5,7.5l9.3,9.3l7.5-7.5C62.1,35,62.1,34.3,61.7,34z "></path> <path fill="#61616b" d="M43.5,34.9L32.6,45.8c-1.9,1.9-4.5,3-7.2,3c-2.7,0-5.3-1.1-7.2-3c-4-4-4-10.4,0-14.4l10.9-10.9l-9.3-9.3 L8.8,22.1c-9.1,9.1-9.1,24,0,33.1c4.4,4.4,10.3,6.8,16.5,6.8c6.2,0,12.1-2.4,16.5-6.8l10.9-10.9L43.5,34.9z"></path></g></svg>