<svg xmlns="http://www.w3.org/2000/svg" height="16" width="16" viewBox="0 0 16 16"><title>magnet 2</title><g fill="#61616b" class="nc-icon-wrapper"><path data-color="color-2" fill="#61616b" d="M15.7,7.9L13.8,6c-0.4-0.4-1-0.4-1.4,0l-1.5,1.5l3.3,3.3l1.5-1.5C16.2,8.8,15.9,8.1,15.7,7.9z "></path> <path data-color="color-2" fill="#61616b" d="M8.5,5.1L10,3.6c0.4-0.4,0.4-1,0-1.4L8.1,0.3c-0.4-0.4-1-0.4-1.4,0L5.2,1.8L8.5,5.1z"></path> <path fill="#61616b" d="M9.5,8.9l-1.9,1.9c-0.7,0.7-1.7,0.7-2.4,0c-0.7-0.7-0.7-1.7,0-2.4l1.9-1.9L3.8,3.2L1.9,5.1 C0.7,6.3,0,7.9,0,9.6s0.7,3.3,1.9,4.5c1.2,1.2,5.6,3.5,9.1,0l1.9-1.9L9.5,8.9z"></path></g></svg>