<svg xmlns="http://www.w3.org/2000/svg" height="48" width="48" viewBox="0 0 48 48"><title>magnet 4</title><g fill="#61616b" class="nc-icon-wrapper"><path data-color="color-2" fill="#61616b" d="M24.01,14.082l4.708-4.708c0.188-0.188,0.293-0.441,0.293-0.707s-0.105-0.52-0.293-0.707 l-5.657-5.656c-0.391-0.391-1.023-0.391-1.414,0l-4.707,4.707L24.01,14.082z"></path> <path data-color="color-2" fill="#61616b" d="M45.688,24.931l-5.656-5.657c-0.188-0.188-0.441-0.293-0.707-0.293s-0.52,0.105-0.707,0.293 l-4.708,4.708l7.071,7.071l4.707-4.707C46.078,25.954,46.078,25.321,45.688,24.931z"></path> <path fill="#61616b" d="M32.496,25.395l-8.554,8.554c-1.32,1.32-3.077,2.047-4.949,2.047s-3.63-0.727-4.95-2.047 s-2.047-3.078-2.047-4.95s0.727-3.629,2.047-4.949l8.554-8.554l-7.071-7.071l-8.554,8.554c-6.628,6.628-6.628,17.414,0,24.042 C10.182,44.231,14.451,46,18.991,46c4.541,0,8.811-1.769,12.021-4.979l8.554-8.554L32.496,25.395z"></path></g></svg>