<svg xmlns="http://www.w3.org/2000/svg" height="48" width="48" viewBox="0 0 48 48"><title>markdown 4</title><g fill="#61616b" class="nc-icon-wrapper"><path d="M44,8H4c-1.657,0-3,1.343-3,3v26c0,1.657,1.343,3,3,3H44c1.657,0,3-1.343,3-3V11c0-1.657-1.343-3-3-3ZM23,29c0,.552-.448,1-1,1s-1-.448-1-1v-7.941l-4.126,7.427c-.353,.635-1.396,.635-1.748,0l-4.126-7.427v7.941c0,.552-.448,1-1,1s-1-.448-1-1v-10c0-.552,.448-1,1-1h1c.363,0,.698,.197,.874,.514l4.126,7.427,4.126-7.427c.176-.317,.511-.514,.874-.514h1c.552,0,1,.448,1,1v10Zm16.707-4.293l-5,5c-.195,.195-.451,.293-.707,.293s-.512-.098-.707-.293l-5-5c-.391-.391-.391-1.023,0-1.414s1.023-.391,1.414,0l3.293,3.293v-7.586c0-.552,.448-1,1-1s1,.448,1,1v7.586l3.293-3.293c.391-.391,1.023-.391,1.414,0s.391,1.023,0,1.414Z" fill="#61616b"></path></g></svg>