<svg xmlns="http://www.w3.org/2000/svg" height="24" width="24" viewBox="0 0 24 24"><title>markdown</title><g fill="#61616b" class="nc-icon-wrapper"><path d="M23.5,10h-6c-.189,0-.362,.107-.447,.276-.084,.169-.066,.372,.047,.523l3,4c.094,.126,.243,.2,.4,.2s.306-.074,.4-.2l3-4c.114-.151,.132-.354,.047-.523-.085-.169-.258-.276-.447-.276Z" fill="#61616b" data-color="color-2"></path><path d="M14,4h-1c-.414,0-.785,.255-.934,.641l-4.566,11.873L2.934,4.641c-.149-.386-.52-.641-.934-.641H1c-.552,0-1,.448-1,1v14c0,.552,.448,1,1,1s1-.448,1-1V7.786l4.066,10.573c.149,.386,.52,.641,.934,.641h1c.414,0,.785-.255,.934-.641L13,7.786v11.214c0,.552,.448,1,1,1s1-.448,1-1V5c0-.552-.448-1-1-1Z" fill="#61616b"></path></g></svg>