<svg xmlns="http://www.w3.org/2000/svg" height="32" width="32" viewBox="0 0 32 32"><title>marker 5</title><g fill="#61616b" class="nc-icon-wrapper"><path fill="#61616b" d="M30.707,8.293L29.414,7l-7.707,7.707C21.512,14.902,21.256,15,21,15s-0.512-0.098-0.707-0.293l-3-3 c-0.391-0.391-0.391-1.023,0-1.414L25,2.586l-1.293-1.293c-0.391-0.391-1.023-0.391-1.414,0l-18,18 c-0.391,0.391-0.391,1.023,0,1.414l7,7C11.488,27.902,11.744,28,12,28s0.512-0.098,0.707-0.293l18-18 C31.098,9.316,31.098,8.684,30.707,8.293z"></path> <path data-color="color-2" fill="#61616b" d="M4.172,23.414l-2.879,2.879c-0.261,0.261-0.357,0.644-0.25,0.997 c0.107,0.353,0.399,0.619,0.761,0.691l5,1C6.869,28.994,6.935,29,7,29c0.263,0,0.518-0.104,0.707-0.293l0.879-0.879L4.172,23.414z"></path></g></svg>