<svg xmlns="http://www.w3.org/2000/svg" height="64" width="64" viewBox="0 0 64 64"><title>markdown 3</title><g fill="#61616b" class="nc-icon-wrapper"><path d="M57,9H7c-3.314,0-6,2.686-6,6V49c0,3.314,2.686,6,6,6H57c3.314,0,6-2.686,6-6V15c0-3.314-2.686-6-6-6Zm-24,31c0,1.104-.896,2-2,2s-2-.896-2-2v-10.219l-5.264,9.211c-.356,.623-1.019,1.008-1.736,1.008s-1.38-.385-1.736-1.008l-5.264-9.211v10.219c0,1.104-.896,2-2,2s-2-.896-2-2V24c0-1.104,.896-2,2-2h1c.718,0,1.38,.385,1.736,1.008l6.264,10.961,6.264-10.961c.356-.623,1.019-1.008,1.736-1.008h1c1.104,0,2,.896,2,2v16Zm20.752-6.341l-7,8c-.19,.217-.464,.341-.752,.341s-.562-.125-.752-.341l-7-8c-.258-.295-.32-.715-.158-1.072,.162-.357,.518-.587,.911-.587h5v-8c0-1.104,.896-2,2-2s2,.896,2,2v8h5c.393,0,.749,.229,.911,.587,.162,.357,.1,.776-.158,1.072Z" fill="#61616b"></path></g></svg>