<svg xmlns="http://www.w3.org/2000/svg" height="48" width="48" viewBox="0 0 48 48"><title>marker 4</title><g fill="#61616b" class="nc-icon-wrapper"><path fill="#61616b" d="M45.707,14.293L42.414,11L28.707,24.707C28.512,24.902,28.256,25,28,25s-0.512-0.098-0.707-0.293l-4-4 c-0.391-0.391-0.391-1.023,0-1.414L37,5.586l-3.293-3.293c-0.391-0.391-1.023-0.391-1.414,0l-25,25 c-0.391,0.391-0.391,1.023,0,1.414l12,12C19.488,40.902,19.744,41,20,41s0.512-0.098,0.707-0.293l25-25 C46.098,15.316,46.098,14.684,45.707,14.293z"></path> <path data-color="color-2" fill="#61616b" d="M9.172,33.414l-6.879,6.879c-0.245,0.245-0.346,0.6-0.266,0.937 c0.08,0.337,0.328,0.609,0.657,0.719l6,2c0.358,0.119,0.755,0.027,1.023-0.242l4.879-4.879L9.172,33.414z"></path></g></svg>