<svg xmlns="http://www.w3.org/2000/svg" height="16" width="16" viewBox="0 0 16 16"><title>markdown 2</title><g fill="#61616b" class="nc-icon-wrapper"><path data-color="color-2" d="M15.953,6.288c-.082-.176-.259-.288-.453-.288h-5c-.194,0-.371,.112-.453,.288-.083,.175-.056,.383,.068,.532l2.5,3c.095,.114,.236,.18,.384,.18s.289-.066,.384-.18l2.5-3c.124-.149,.151-.357,.068-.532Z" fill="#61616b"></path><path d="M8.325,3.054c-.405-.14-.853-.006-1.114,.332l-2.71,3.485L1.79,3.386c-.262-.337-.709-.47-1.114-.332-.404,.139-.675,.519-.675,.946V12c0,.552,.448,1,1,1s1-.448,1-1V6.915l1.71,2.199c.379,.487,1.2,.487,1.579,0l1.71-2.199v5.085c0,.552,.448,1,1,1s1-.448,1-1V4c0-.427-.271-.807-.675-.946Z" fill="#61616b"></path></g></svg>