<svg xmlns="http://www.w3.org/2000/svg" height="64" width="64" viewBox="0 0 64 64"><title>marker 3</title><g fill="#61616b" class="nc-icon-wrapper"><path fill="#61616b" d="M61.707,16.293L58.414,13L42.707,28.707C42.512,28.902,42.256,29,42,29s-0.512-0.098-0.707-0.293l-6-6 c-0.391-0.391-0.391-1.023,0-1.414L51,5.586l-3.293-3.293c-0.391-0.391-1.023-0.391-1.414,0l-37,37 c-0.391,0.391-0.391,1.023,0,1.414l14,14C23.488,54.902,23.744,55,24,55s0.512-0.098,0.707-0.293l37-37 C62.098,17.316,62.098,16.684,61.707,16.293z"></path> <path data-color="color-2" fill="#61616b" d="M11.172,45.414l-8.879,8.879c-0.261,0.261-0.357,0.644-0.25,0.997 c0.107,0.353,0.399,0.619,0.761,0.691l10,2c0.326,0.066,0.665-0.035,0.903-0.273l4.879-4.879L11.172,45.414z"></path></g></svg>