<svg xmlns="http://www.w3.org/2000/svg" height="32" width="32" viewBox="0 0 32 32"><title>markdown 5</title><g fill="#61616b" class="nc-icon-wrapper"><path d="M29.5,5H2.5c-1.381,0-2.5,1.119-2.5,2.5V24.5c0,1.381,1.119,2.5,2.5,2.5H29.5c1.381,0,2.5-1.119,2.5-2.5V7.5c0-1.381-1.119-2.5-2.5-2.5Zm-12.5,15c0,.552-.448,1-1,1s-1-.448-1-1v-5.764l-2.605,5.211c-.339,.678-1.45,.678-1.789,0l-2.605-5.211v5.764c0,.552-.448,1-1,1s-1-.448-1-1V12c0-.552,.448-1,1-1h1c.379,0,.725,.214,.895,.553l2.605,5.211,2.605-5.211c.169-.339,.516-.553,.895-.553h1c.552,0,1,.448,1,1v8Zm9.876-3.171l-3.5,4c-.095,.109-.232,.171-.376,.171s-.281-.062-.376-.171l-3.5-4c-.129-.147-.16-.357-.079-.536,.081-.179,.259-.293,.455-.293h2.5v-4c0-.552,.448-1,1-1s1,.448,1,1v4h2.5c.196,0,.374,.115,.455,.293,.082,.179,.05,.388-.079,.536Z" fill="#61616b"></path></g></svg>