<svg xmlns="http://www.w3.org/2000/svg" height="64" width="64" viewBox="0 0 64 64"><title>mask rect 2</title><g fill="#61616b" class="nc-icon-wrapper"><path d="M62,1H26a1,1,0,0,0-1,1V62a1,1,0,0,0,1,1H62a1,1,0,0,0,1-1V2A1,1,0,0,0,62,1ZM61,61H27V48H50a1,1,0,0,0,1-1V18a1,1,0,0,0-1-1H27V3H61Z" fill="#61616b"></path> <rect x="13" y="17" width="7" height="2" fill="#61616b" data-color="color-2"></rect> <path d="M1,18v6H3V19H8V17H2A1,1,0,0,0,1,18Z" fill="#61616b" data-color="color-2"></path> <rect x="1" y="29" width="2" height="7" fill="#61616b" data-color="color-2"></rect> <path d="M3,41H1v6a1,1,0,0,0,1,1H8V46H3Z" fill="#61616b" data-color="color-2"></path> <rect x="13" y="46" width="7" height="2" fill="#61616b" data-color="color-2"></rect></g></svg>