<svg xmlns="http://www.w3.org/2000/svg" height="48" width="48" viewBox="0 0 48 48"><title>mask rect 3</title><g fill="#61616b" class="nc-icon-wrapper"><path d="M46,1H20a1,1,0,0,0-1,1V46a1,1,0,0,0,1,1H46a1,1,0,0,0,1-1V2A1,1,0,0,0,46,1ZM45,45H21V36H36a1,1,0,0,0,1-1V14a1,1,0,0,0-1-1H21V3H45Z" fill="#61616b"></path> <rect x="10" y="13" width="5" height="2" fill="#61616b" data-color="color-2"></rect> <path d="M1,14v4H3V15H6V13H2A1,1,0,0,0,1,14Z" fill="#61616b" data-color="color-2"></path> <rect x="1" y="22" width="2" height="5" fill="#61616b" data-color="color-2"></rect> <path d="M3,31H1v4a1,1,0,0,0,1,1H6V34H3Z" fill="#61616b" data-color="color-2"></path> <rect x="10" y="34" width="5" height="2" fill="#61616b" data-color="color-2"></rect></g></svg>