<svg xmlns="http://www.w3.org/2000/svg" height="64" width="64" viewBox="0 0 64 64"><title>measure 17 3</title><g fill="#61616b" class="nc-icon-wrapper"><path fill="#61616b" d="M61.707,16.293l-14-14c-0.391-0.391-1.023-0.391-1.414,0L35,13.586l5.707,5.707 c0.391,0.391,0.391,1.023,0,1.414C40.512,20.902,40.256,21,40,21s-0.512-0.098-0.707-0.293L33.586,15L29,19.586l3.707,3.707 c0.391,0.391,0.391,1.023,0,1.414C32.512,24.902,32.256,25,32,25s-0.512-0.098-0.707-0.293L27.586,21L23,25.586l5.707,5.707 c0.391,0.391,0.391,1.023,0,1.414C28.512,32.902,28.256,33,28,33s-0.512-0.098-0.707-0.293L21.586,27L17,31.586l3.707,3.707 c0.391,0.391,0.391,1.023,0,1.414C20.512,36.902,20.256,37,20,37s-0.512-0.098-0.707-0.293L15.586,33L11,37.586l5.707,5.707 c0.391,0.391,0.391,1.023,0,1.414C16.512,44.902,16.256,45,16,45s-0.512-0.098-0.707-0.293L9.586,39l-7.293,7.293 c-0.391,0.391-0.391,1.023,0,1.414l14,14C16.488,61.902,16.744,62,17,62s0.512-0.098,0.707-0.293l44-44 C62.098,17.316,62.098,16.684,61.707,16.293z M51,20c-1.654,0-3-1.346-3-3s1.346-3,3-3s3,1.346,3,3S52.654,20,51,20z"></path></g></svg>