<svg xmlns="http://www.w3.org/2000/svg" height="64" width="64" viewBox="0 0 64 64"><title>measure big 3</title><g fill="#61616b" class="nc-icon-wrapper"><path fill="#61616b" d="M61.707,60.293l-58-58C3.42,2.006,2.99,1.921,2.617,2.076C2.244,2.231,2,2.596,2,3v16h3c0.552,0,1,0.448,1,1 s-0.448,1-1,1H2v6h7c0.552,0,1,0.448,1,1s-0.448,1-1,1H2v6h3c0.552,0,1,0.448,1,1s-0.448,1-1,1H2v6h7c0.552,0,1,0.448,1,1 s-0.448,1-1,1H2v6h3c0.552,0,1,0.448,1,1s-0.448,1-1,1H2v8c0,0.552,0.448,1,1,1h58c0.404,0,0.769-0.244,0.924-0.617 C62.079,61.009,61.993,60.579,61.707,60.293z M31.924,48.383C31.769,48.756,31.404,49,31,49H17c-0.552,0-1-0.448-1-1V34 c0-0.404,0.244-0.769,0.617-0.924c0.374-0.156,0.803-0.07,1.09,0.217l14,14C31.993,47.579,32.079,48.009,31.924,48.383z"></path></g></svg>