<svg xmlns="http://www.w3.org/2000/svg" height="32" width="32" viewBox="0 0 32 32"><title>measure 17 5</title><g fill="#61616b" class="nc-icon-wrapper"><path fill="#61616b" d="M21.3,1.3L18,4.6L20.4,7L19,8.4L16.6,6L14,8.6l2.4,2.4L15,12.4L12.6,10L10,12.6l2.4,2.4L11,16.4L8.6,14 L6,16.6L8.4,19L7,20.4L4.6,18l-3.3,3.3c-0.4,0.4-0.4,1,0,1.4l7,7c0.4,0.4,1,0.4,1.4,0l20-20c0.4-0.4,0.4-1,0-1.4l-7-7 C22.3,0.9,21.7,0.9,21.3,1.3z M24.5,11c-0.8,0-1.5-0.7-1.5-1.5S23.7,8,24.5,8S26,8.7,26,9.5S25.3,11,24.5,11z"></path></g></svg>