<svg xmlns="http://www.w3.org/2000/svg" height="64" width="64" viewBox="0 0 64 64"><title>measure 02 3</title><g fill="#61616b" class="nc-icon-wrapper"><path fill="#61616b" d="M43,1H21c-0.6,0-1,0.4-1,1v9h9c0.6,0,1,0.4,1,1s-0.4,1-1,1h-9v6h5c0.6,0,1,0.4,1,1s-0.4,1-1,1h-5v6h9 c0.6,0,1,0.4,1,1s-0.4,1-1,1h-9v6h5c0.6,0,1,0.4,1,1s-0.4,1-1,1h-5v6h9c0.6,0,1,0.4,1,1s-0.4,1-1,1h-9v6h5c0.6,0,1,0.4,1,1 s-0.4,1-1,1h-5v9c0,0.6,0.4,1,1,1h22c0.6,0,1-0.4,1-1V2C44,1.4,43.6,1,43,1z M37.5,10C36.1,10,35,8.9,35,7.5S36.1,5,37.5,5 S40,6.1,40,7.5S38.9,10,37.5,10z"></path></g></svg>