<svg xmlns="http://www.w3.org/2000/svg" height="64" width="64" viewBox="0 0 64 64"><title>mirror tablet phone 3</title><g fill="#61616b" class="nc-icon-wrapper"><path d="M31,55H10a6.006,6.006,0,0,1-6-6V8a6.006,6.006,0,0,1,6-6H42a6.006,6.006,0,0,1,6,6V25H46V8a4,4,0,0,0-4-4H10A4,4,0,0,0,6,8V45a4,4,0,0,0,4,4H31Z" fill="#61616b"></path><path data-color="color-2" d="M55,62H38a5.006,5.006,0,0,1-5-5V32a5.006,5.006,0,0,1,5-5H55a5.006,5.006,0,0,1,5,5V57A5.006,5.006,0,0,1,55,62ZM38,29a3,3,0,0,0-3,3V53a3,3,0,0,0,3,3H55a3,3,0,0,0,3-3V32a3,3,0,0,0-3-3Z" fill="#61616b"></path></g></svg>