<svg xmlns="http://www.w3.org/2000/svg" height="64" width="64" viewBox="0 0 64 64"><title>mirror display 3</title><g fill="#61616b" class="nc-icon-wrapper"><path data-color="color-2" fill="#61616b" d="M55,25H39c-2.209,0-4,1.791-4,4v30c0,2.209,1.791,4,4,4h16c2.209,0,4-1.791,4-4V29 C59,26.791,57.209,25,55,25z M47,60c-1.105,0-2-0.895-2-2c0-1.105,0.895-2,2-2s2,0.895,2,2C49,59.105,48.105,60,47,60z M55,52 c0,0.552-0.448,1-1,1H40c-0.552,0-1-0.448-1-1V30c0-0.552,0.448-1,1-1h14c0.552,0,1,0.448,1,1V52z"></path> <path fill="#61616b" d="M33,47H12c-0.552,0-1-0.448-1-1V8c0-0.552,0.448-1,1-1h30c0.552,0,1,0.448,1,1v15h6V7c0-3.314-2.686-6-6-6 H11C7.686,1,5,3.686,5,7v46c0,3.314,2.686,6,6,6h22V47z M27,56c-1.657,0-3-1.343-3-3s1.343-3,3-3s3,1.343,3,3S28.657,56,27,56z"></path></g></svg>