<svg xmlns="http://www.w3.org/2000/svg" height="32" width="32" viewBox="0 0 32 32"><title>mirror display 5</title><g fill="#61616b" class="nc-icon-wrapper"><path data-color="color-2" fill="#61616b" d="M29,12h-9c-1.105,0-2,0.895-2,2v16c0,1.105,0.895,2,2,2h9c1.105,0,2-0.895,2-2V14 C31,12.895,30.105,12,29,12z M24.5,30c-0.828,0-1.5-0.672-1.5-1.5s0.672-1.5,1.5-1.5s1.5,0.672,1.5,1.5S25.328,30,24.5,30z M28,25 h-7c-0.552,0-1-0.448-1-1v-9c0-0.552,0.448-1,1-1h7c0.552,0,1,0.448,1,1v9C29,24.552,28.552,25,28,25z"></path> <path fill="#61616b" d="M16,21H6c-0.552,0-1-0.448-1-1V5c0-0.552,0.448-1,1-1h13c0.552,0,1,0.448,1,1v5h4V3c0-1.657-1.343-3-3-3H4 C2.343,0,1,1.343,1,3v22c0,1.657,1.343,3,3,3h12V21z M12.5,26c-0.828,0-1.5-0.672-1.5-1.5s0.672-1.5,1.5-1.5s1.5,0.672,1.5,1.5 S13.328,26,12.5,26z"></path></g></svg>