<svg xmlns="http://www.w3.org/2000/svg" height="48" width="48" viewBox="0 0 48 48"><title>mobile design 3</title><g fill="#61616b" class="nc-icon-wrapper"><path data-color="color-2" fill="#61616b" d="M42.121,1.879c-1.171-1.172-3.071-1.172-4.242,0L24.347,15.411 c0.967,0.344,1.855,0.893,2.602,1.64c0.747,0.747,1.296,1.636,1.64,2.602L42.121,6.121C43.293,4.95,43.293,3.05,42.121,1.879z"></path> <path data-color="color-2" fill="#61616b" d="M25.536,18.465C24.591,17.521,23.335,17,22,17s-2.591,0.521-3.536,1.465 c-1.728,1.728-2.352,7.332-2.459,8.438c-0.029,0.298,0.077,0.593,0.288,0.804C16.481,27.896,16.736,28,17,28 c0.032,0,0.064-0.002,0.097-0.005c1.106-0.107,6.71-0.731,8.439-2.46C26.48,24.591,27,23.336,27,22S26.48,19.409,25.536,18.465z"></path> <path fill="#61616b" d="M32,19.07V32c0,0.552-0.448,1-1,1H11c-0.552,0-1-0.448-1-1V6c0-0.552,0.448-1,1-1h20 c0.258,0,0.488,0.104,0.665,0.265L34.79,2.14C34.069,1.437,33.087,1,32,1H10C7.791,1,6,2.791,6,5v38c0,2.209,1.791,4,4,4h22 c2.209,0,4-1.791,4-4V15.071L32,19.07z M21,43c-1.654,0-3-1.346-3-3s1.346-3,3-3s3,1.346,3,3S22.654,43,21,43z"></path></g></svg>