<svg xmlns="http://www.w3.org/2000/svg" height="32" width="32" viewBox="0 0 32 32"><title>mobile design 4</title><g fill="#61616b" class="nc-icon-wrapper"><path fill="#61616b" d="M22,13.657V23c0,0.553-0.448,1-1,1H7c-0.552,0-1-0.447-1-1V5c0-0.553,0.448-1,1-1h14c0.552,0,1,0.447,1,1 v2.998l3-2.999V3c0-1.654-1.346-3-3-3H6C4.346,0,3,1.346,3,3v26c0,1.654,1.346,3,3,3h16c1.654,0,3-1.346,3-3V10.656L22,13.657z M14,30c-1.103,0-2-0.897-2-2s0.897-2,2-2s2,0.897,2,2S15.103,30,14,30z"></path> <path data-color="color-2" fill="#61616b" d="M29.414,0.586c-0.781-0.781-2.048-0.781-2.828,0l-9.499,9.499 c-1.174-0.247-2.444,0.08-3.356,0.991C12.297,12.51,12,18,12,18s5.49-0.297,6.924-1.731c0.912-0.912,1.238-2.182,0.991-3.356 l9.499-9.499C30.195,2.633,30.195,1.367,29.414,0.586z"></path></g></svg>