<svg xmlns="http://www.w3.org/2000/svg" height="64" width="64" viewBox="0 0 64 64"><title>mobile design 2</title><g fill="#61616b" class="nc-icon-wrapper"><path fill="#61616b" d="M45,26.828V47c0,1.105-0.895,2-2,2H13c-1.105,0-2-0.895-2-2V7c0-1.105,0.895-2,2-2h30c1.105,0,2,0.895,2,2 v2.171l3.924-3.924C48.557,2.849,46.499,1,44,1H12C9.243,1,7,3.243,7,6v52c0,2.757,2.243,5,5,5h32c2.757,0,5-2.243,5-5V22.828 L45,26.828z M28,59c-1.654,0-3-1.346-3-3s1.346-3,3-3s3,1.346,3,3S29.654,59,28,59z"></path> <path data-color="color-2" fill="#61616b" d="M59.757,3.243L59.757,3.243c-1.657-1.657-4.343-1.657-6,0L35.708,21.292 c1.427,0.378,2.738,1.119,3.81,2.191c1.072,1.072,1.812,2.383,2.191,3.809L59.757,9.243C61.414,7.586,61.414,4.899,59.757,3.243z"></path> <path data-color="color-2" fill="#61616b" d="M38.104,24.896C36.881,23.674,35.255,23,33.526,23s-3.355,0.674-4.578,1.896 c-2.431,2.43-2.927,11.12-2.947,11.489c-0.009,0.165,0.053,0.327,0.17,0.444c0.11,0.11,0.258,0.171,0.412,0.171 c0.011,0,0.021,0,0.032-0.001c0.369-0.02,9.058-0.516,11.489-2.947C39.326,32.83,40,31.204,40,29.474 C40,27.745,39.326,26.119,38.104,24.896z"></path></g></svg>