<svg xmlns="http://www.w3.org/2000/svg" height="32" width="32" viewBox="0 0 32 32"><title>move up 2 5</title><g fill="#61616b" class="nc-icon-wrapper"><path d="M24.8,1.4a1,1,0,0,0-1.6,0l-6,8A1,1,0,0,0,18,11h5V30a1,1,0,0,0,2,0V11h5a1,1,0,0,0,.8-1.6Z" fill="#61616b"></path><path d="M12,19H8v2h3v3h2V20A1,1,0,0,0,12,19Z" fill="#61616b"></path><path d="M1,20v4H3V21H6V19H2A1,1,0,0,0,1,20Z" fill="#61616b"></path><path d="M3,26H1v4a1,1,0,0,0,1,1H6V29H3Z" fill="#61616b"></path><path d="M11,29H8v2h4a1,1,0,0,0,1-1V26H11Z" fill="#61616b"></path><rect data-color="color-2" x="1" y="1" width="12" height="12" rx="1" fill="#61616b"></rect></g></svg>