<svg xmlns="http://www.w3.org/2000/svg" height="24" width="24" viewBox="0 0 24 24"><title>move up 2</title><g fill="#61616b" class="nc-icon-wrapper"><rect data-color="color-2" width="10" height="10" rx="1" fill="#61616b"></rect><path d="M2,20H0v3a1,1,0,0,0,1,1H4V22H2Z" fill="#61616b"></path><path d="M9,14H6v2H8v2h2V15A1,1,0,0,0,9,14Z" fill="#61616b"></path><path d="M8,22H6v2H9a1,1,0,0,0,1-1V20H8Z" fill="#61616b"></path><path d="M0,15v3H2V16H4V14H1A1,1,0,0,0,0,15Z" fill="#61616b"></path><path d="M18.769.359a1.037,1.037,0,0,0-1.538,0l-5,6A1,1,0,0,0,13,8h4V23a1,1,0,0,0,2,0V8h4a1,1,0,0,0,.769-1.641Z" fill="#61616b"></path></g></svg>