<svg xmlns="http://www.w3.org/2000/svg" height="24" width="24" viewBox="0 0 24 24"><title>move</title><g fill="#61616b" class="nc-icon-wrapper"><path d="M23.835,11.628l-5-4.5A.5.5,0,0,0,18,7.5V11H13V6h3.5a.5.5,0,0,0,.372-.834l-4.5-5a.516.516,0,0,0-.744,0l-4.5,5A.5.5,0,0,0,7.5,6H11v5H6V7.5a.5.5,0,0,0-.835-.372l-5,4.5a.5.5,0,0,0,0,.744l5,4.5A.5.5,0,0,0,5.5,17a.5.5,0,0,0,.5-.5V13h5v5H7.5a.5.5,0,0,0-.372.834l4.5,5a.5.5,0,0,0,.744,0l4.5-5A.5.5,0,0,0,16.5,18H13V13h5v3.5a.5.5,0,0,0,.835.372l5-4.5a.5.5,0,0,0,0-.744Z" fill="#61616b"></path></g></svg>