<svg xmlns="http://www.w3.org/2000/svg" height="64" width="64" viewBox="0 0 64 64"><title>move up 2 3</title><g fill="#61616b" class="nc-icon-wrapper"><rect x="3" y="3" width="25" height="25" rx="2" fill="#61616b"></rect><path d="M11,59H5V53a1,1,0,0,0-2,0v6a2,2,0,0,0,2,2h6a1,1,0,0,0,0-2Z" fill="#61616b"></path><path d="M26,36H20a1,1,0,0,0,0,2h6v6a1,1,0,0,0,2,0V38A2,2,0,0,0,26,36Z" fill="#61616b"></path><path d="M27,52a1,1,0,0,0-1,1v6H20a1,1,0,1,0,0,2h6a2,2,0,0,0,2-2V53A1,1,0,0,0,27,52Z" fill="#61616b"></path><path d="M11,36H5a2,2,0,0,0-2,2v6a1,1,0,0,0,2,0V38h6a1,1,0,0,0,0-2Z" fill="#61616b"></path><path data-color="color-2" d="M48.8,3.4a1.036,1.036,0,0,0-1.6,0l-12,16A1,1,0,0,0,36,21h9V58a3,3,0,0,0,6,0V21h9a1,1,0,0,0,.8-1.6Z" fill="#61616b"></path></g></svg>