<svg xmlns="http://www.w3.org/2000/svg" height="64" width="64" viewBox="0 0 64 64"><title>move down 2 3</title><g fill="#61616b" class="nc-icon-wrapper"><rect x="3" y="36" width="25" height="25" rx="2" fill="#61616b"></rect><path d="M11,5H5v6a1,1,0,0,1-2,0V5A2,2,0,0,1,5,3h6a1,1,0,0,1,0,2Z" fill="#61616b"></path><path d="M26,28H20a1,1,0,0,1,0-2h6V20a1,1,0,0,1,2,0v6A2,2,0,0,1,26,28Z" fill="#61616b"></path><path d="M27,12a1,1,0,0,1-1-1V5H20a1,1,0,0,1,0-2h6a2,2,0,0,1,2,2v6A1,1,0,0,1,27,12Z" fill="#61616b"></path><path d="M11,28H5a2,2,0,0,1-2-2V20a1,1,0,0,1,2,0v6h6a1,1,0,0,1,0,2Z" fill="#61616b"></path><path data-color="color-2" d="M48.8,60.6a1.036,1.036,0,0,1-1.6,0l-12-16A1,1,0,0,1,36,43h9V6a3,3,0,0,1,6,0V43h9a1,1,0,0,1,.8,1.6Z" fill="#61616b"></path></g></svg>