<svg xmlns="http://www.w3.org/2000/svg" height="48" width="48" viewBox="0 0 48 48"><title>move 4</title><g fill="#61616b" class="nc-icon-wrapper"><path d="M37.614,16.21A1,1,0,0,0,36,17v5H26V12h5a1,1,0,0,0,.789-1.614l-7-9a1.035,1.035,0,0,0-1.578,0l-7,9A1,1,0,0,0,17,12h5V22H12V17a1,1,0,0,0-1.614-.79l-9,7a1,1,0,0,0,0,1.58l9,7A1,1,0,0,0,12,31V26H22V36H17a1,1,0,0,0-.789,1.614l7,9a1,1,0,0,0,1.578,0l7-9A1,1,0,0,0,31,36H26V26H36v5a1,1,0,0,0,1.614.79l9-7a1,1,0,0,0,0-1.58Z" fill="#61616b"></path></g></svg>