<svg xmlns="http://www.w3.org/2000/svg" height="16" width="16" viewBox="0 0 16 16"><title>move up 2 2</title><g fill="#61616b" class="nc-icon-wrapper"><rect data-color="color-2" width="7" height="7" rx="1" fill="#61616b"></rect><path d="M6,9H1a1,1,0,0,0-1,1v5a1,1,0,0,0,1,1H6a1,1,0,0,0,1-1V10A1,1,0,0,0,6,9ZM5,14H2V11H5Z" fill="#61616b"></path><path d="M15.876,4.171l-3.5-4a.516.516,0,0,0-.752,0l-3.5,4A.5.5,0,0,0,8.5,5H11V15a1,1,0,0,0,2,0V5h2.5a.5.5,0,0,0,.376-.829Z" fill="#61616b"></path></g></svg>