<svg xmlns="http://www.w3.org/2000/svg" height="48" width="48" viewBox="0 0 48 48"><title>move up 2 4</title><g fill="#61616b" class="nc-icon-wrapper"><rect x="3" y="2" width="18" height="18" rx="1" fill="#61616b"></rect><path d="M9,44H5V40a1,1,0,0,0-2,0v5a1,1,0,0,0,1,1H9a1,1,0,0,0,0-2Z" fill="#61616b"></path><path d="M20,28H15a1,1,0,0,0,0,2h4v4a1,1,0,0,0,2,0V29A1,1,0,0,0,20,28Z" fill="#61616b"></path><path d="M20,39a1,1,0,0,0-1,1v4H15a1,1,0,0,0,0,2h5a1,1,0,0,0,1-1V40A1,1,0,0,0,20,39Z" fill="#61616b"></path><path d="M9,28H4a1,1,0,0,0-1,1v5a1,1,0,0,0,2,0V30H9a1,1,0,0,0,0-2Z" fill="#61616b"></path><path data-color="color-2" d="M36.809,2.412a1.038,1.038,0,0,0-1.618,0l-8,11A1,1,0,0,0,28,15h6V44a2,2,0,0,0,4,0V15h6a1,1,0,0,0,.809-1.588Z" fill="#61616b"></path></g></svg>