<svg xmlns="http://www.w3.org/2000/svg" height="32" width="32" viewBox="0 0 32 32"><title>note code 5</title><g fill="#61616b" class="nc-icon-wrapper"><path data-color="color-2" fill="#61616b" d="M20,0h-8c-0.553,0-1,0.447-1,1v4c0,0.553,0.447,1,1,1h8c0.553,0,1-0.447,1-1V1 C21,0.447,20.553,0,20,0z"></path> <path fill="#61616b" d="M31,2h-8v4c0,1.105-0.895,2-2,2H11C9.895,8,9,7.105,9,6V2H1C0.448,2,0,2.448,0,3v24 c0,0.304,0.138,0.59,0.374,0.78c0.237,0.189,0.55,0.261,0.843,0.196l8.691-1.932l11.707,4.878C21.738,30.975,21.869,31,22,31 c0.139,0,0.277-0.028,0.406-0.086l9-4C31.767,26.754,32,26.396,32,26V3C32,2.448,31.552,2,31,2z M14.414,20L13,21.414l-3.707-3.707 c-0.391-0.391-0.391-1.023,0-1.414L13,12.586L14.414,14l-3,3L14.414,20z M22.707,17.707L19,21.414L17.586,20l3-3l-3-3L19,12.586 l3.707,3.707C23.098,16.684,23.098,17.316,22.707,17.707z"></path></g></svg>