<svg xmlns="http://www.w3.org/2000/svg" height="48" width="48" viewBox="0 0 48 48"><title>note code 4</title><g fill="#61616b" class="nc-icon-wrapper"><path data-color="color-2" fill="#61616b" d="M30,1H18c-0.553,0-1,0.447-1,1v6c0,0.553,0.447,1,1,1h12c0.553,0,1-0.447,1-1V2 C31,1.447,30.553,1,30,1z"></path> <path fill="#61616b" d="M45,5H33v4c0,1.105-0.895,2-2,2H17c-1.105,0-2-0.895-2-2V5H3C1.895,5,1,5.895,1,7v35 c0,0.313,0.147,0.609,0.397,0.799c0.251,0.188,0.576,0.249,0.877,0.163l13.684-3.91l15.69,5.885C31.762,44.979,31.881,45,32,45 c0.047,0,0.095-0.003,0.142-0.01l14-2C46.634,42.92,47,42.498,47,42V7C47,5.895,46.105,5,45,5z M16.707,29.293 c0.391,0.391,0.391,1.023,0,1.414C16.512,30.902,16.256,31,16,31s-0.512-0.098-0.707-0.293l-4-4c-0.391-0.391-0.391-1.023,0-1.414 l4-4c0.391-0.391,1.023-0.391,1.414,0s0.391,1.023,0,1.414L13.414,26L16.707,29.293z M26.97,18.242l-4,16 C22.856,34.697,22.449,35,22.001,35c-0.08,0-0.162-0.01-0.243-0.03c-0.536-0.134-0.862-0.677-0.728-1.212l4-16 c0.134-0.537,0.675-0.866,1.212-0.728C26.778,17.164,27.104,17.707,26.97,18.242z M36.707,26.707l-4,4 C32.512,30.902,32.256,31,32,31s-0.512-0.098-0.707-0.293c-0.391-0.391-0.391-1.023,0-1.414L34.586,26l-3.293-3.293 c-0.391-0.391-0.391-1.023,0-1.414s1.023-0.391,1.414,0l4,4C37.098,25.684,37.098,26.316,36.707,26.707z"></path></g></svg>