<svg xmlns="http://www.w3.org/2000/svg" height="64" width="64" viewBox="0 0 64 64"><title>octagon m 2</title><g fill="#61616b" class="nc-icon-wrapper"><path d="M63.707,23.423l-11.13-11.13A1,1,0,0,0,51.87,12H36.13a1,1,0,0,0-.707.293l-9.252,9.251,2.95,2.95A2.984,2.984,0,0,1,30,26.615v10.77a2.984,2.984,0,0,1-.879,2.121l-2.95,2.95,9.252,9.251A1,1,0,0,0,36.13,52H51.87a1,1,0,0,0,.707-.293l11.13-11.13A1,1,0,0,0,64,39.87V24.13A1,1,0,0,0,63.707,23.423Z" fill="#61616b"></path><path d="M19.385,46H8.615a1,1,0,0,1-.707-.293L.293,38.092A1,1,0,0,1,0,37.385V26.615a1,1,0,0,1,.293-.707l7.615-7.615A1,1,0,0,1,8.615,18h10.77a1,1,0,0,1,.707.293l7.615,7.615a1,1,0,0,1,.293.707v10.77a1,1,0,0,1-.293.707l-7.615,7.615A1,1,0,0,1,19.385,46Z" fill="#61616b" data-color="color-2"></path></g></svg>