<svg xmlns="http://www.w3.org/2000/svg" height="48" width="48" viewBox="0 0 48 48"><title>octagon m 3</title><g fill="#61616b" class="nc-icon-wrapper"><path d="M47.707,17.494l-8.2-8.2A1,1,0,0,0,38.8,9H27.2a1,1,0,0,0-.707.293L20.586,15.2l2.535,2.535A2.981,2.981,0,0,1,24,19.857v8.286a2.981,2.981,0,0,1-.879,2.121L20.586,32.8l5.908,5.908A1,1,0,0,0,27.2,39H38.8a1,1,0,0,0,.707-.293l8.2-8.2A1,1,0,0,0,48,29.8V18.2A1,1,0,0,0,47.707,17.494Z" fill="#61616b"></path><path d="M15.143,35H6.857a1,1,0,0,1-.707-.293L.293,28.85A1,1,0,0,1,0,28.143V19.857a1,1,0,0,1,.293-.707L6.15,13.293A1,1,0,0,1,6.857,13h8.286a1,1,0,0,1,.707.293l5.857,5.857a1,1,0,0,1,.293.707v8.286a1,1,0,0,1-.293.707L15.85,34.707A1,1,0,0,1,15.143,35Z" fill="#61616b" data-color="color-2"></path></g></svg>