<svg xmlns="http://www.w3.org/2000/svg" height="32" width="32" viewBox="0 0 32 32"><title>octagon m 4</title><g fill="#61616b" class="nc-icon-wrapper"><path d="M31.707,11.293l-5-5A1,1,0,0,0,26,6H18a.988.988,0,0,0-.562.2l3.683,3.683A2.978,2.978,0,0,1,22,12v8a2.978,2.978,0,0,1-.879,2.121L17.438,25.8A.988.988,0,0,0,18,26h8a1,1,0,0,0,.707-.293l5-5A1,1,0,0,0,32,20V12A1,1,0,0,0,31.707,11.293Z" fill="#61616b" data-color="color-2"></path><path d="M19.707,11.293l-5-5A1,1,0,0,0,14,6H6a1,1,0,0,0-.707.293l-5,5A1,1,0,0,0,0,12v8a1,1,0,0,0,.293.707l5,5A1,1,0,0,0,6,26h8a1,1,0,0,0,.707-.293l5-5A1,1,0,0,0,20,20V12A1,1,0,0,0,19.707,11.293Z" fill="#61616b"></path></g></svg>