<svg xmlns="http://www.w3.org/2000/svg" height="48" width="48" viewBox="0 0 48 48"><title>paint brush 4</title><g fill="#61616b" class="nc-icon-wrapper"><path data-color="color-2" fill="#61616b" d="M32.163,39.879L8.121,15.837L21.556,2.402c0.781-0.781,2.047-0.781,2.828,0L35.913,13.93 c0.296,0.296,0.376,0.745,0.201,1.125l-3.274,7.117l7.178-3.224c0.379-0.17,0.823-0.088,1.117,0.205l4.462,4.462 c0.781,0.781,0.781,2.047,0,2.828L32.163,39.879z"></path> <path fill="#61616b" d="M6.707,17.251L6,17.958c-2.729,2.729-2.729,7.171,0,9.899l3.536,3.536l-7.071,7.071 c-1.949,1.949-1.949,5.122,0,7.071s5.122,1.949,7.071,0l7.071-7.071L20.142,42c2.729,2.729,7.17,2.729,9.899,0l0.707-0.707 L6.707,17.251z M4.586,43.414c-0.781-0.781-0.781-2.047,0-2.828c0.781-0.781,2.047-0.781,2.828,0c0.781,0.781,0.781,2.047,0,2.828 C6.633,44.195,5.367,44.195,4.586,43.414z"></path></g></svg>