<svg xmlns="http://www.w3.org/2000/svg" height="64" width="64" viewBox="0 0 64 64"><title>paint bucket 39 3</title><g fill="#61616b" class="nc-icon-wrapper"><path fill="#61616b" d="M32,1C19.396,1,6,4.154,6,10v44c0,5.846,13.396,9,26,9s26-3.154,26-9V10C58,4.154,44.604,1,32,1z M32,3 c14.144,0,24,3.689,24,7c0,1.989-4.116,4.777-13.155,6.197C42.358,16.273,42,16.692,42,17.185V33c0,1.654-1.346,3-3,3s-3-1.346-3-3 V17.94c0-0.272-0.11-0.532-0.307-0.721C35.507,17.04,35.258,16.94,35,16.94c-0.013,0-0.025,0-0.039,0.001 C33.989,16.979,33.003,17,32,17c-14.144,0-24-3.689-24-7S17.856,3,32,3z"></path></g></svg>