<svg xmlns="http://www.w3.org/2000/svg" height="32" width="32" viewBox="0 0 32 32"><title>paint 16 5</title><g fill="#61616b" class="nc-icon-wrapper"><path data-color="color-2" fill="#61616b" d="M28.823,13.432c-0.375-0.541-1.271-0.541-1.646,0C26.522,14.379,25,16.722,25,18 c0,1.654,1.346,3,3,3s3-1.346,3-3C31,16.722,29.478,14.379,28.823,13.432z"></path> <path data-color="color-2" fill="#61616b" d="M30,1H2C1.448,1,1,1.448,1,2v6c0,0.552,0.448,1,1,1h28c0.552,0,1-0.448,1-1V2 C31,1.448,30.552,1,30,1z"></path> <path fill="#61616b" d="M18,19h-1v-5c0-0.552-0.447-1-1-1H5v-2H3v3c0,0.552,0.447,1,1,1h11v4h-1c-0.552,0-1,0.448-1,1v10 c0,0.552,0.448,1,1,1h4c0.552,0,1-0.448,1-1V20C19,19.448,18.552,19,18,19z"></path></g></svg>