<svg xmlns="http://www.w3.org/2000/svg" height="32" width="32" viewBox="0 0 32 32"><title>paint bucket 40 5</title><g fill="#61616b" class="nc-icon-wrapper"><path data-color="color-2" fill="#61616b" d="M4.823,23.432c-0.375-0.541-1.271-0.541-1.646,0C2.522,24.379,1,26.722,1,28 c0,1.654,1.346,3,3,3s3-1.346,3-3C7,26.722,5.478,24.379,4.823,23.432z"></path> <path fill="#61616b" d="M30.642,16.287c0,0-0.517-0.705-1.327-1.807C27.945,15.431,26.291,16,24.5,16H18c-0.552,0-1-0.448-1-1 c0-0.552,0.448-1,1-1h6.5c3.584,0,6.5-2.916,6.5-6.5S28.084,1,24.5,1h-5.083c-0.05-0.068-0.084-0.114-0.084-0.114 C18.754,0.306,17.927,0,16.942,0c-2.595,0-6.426,2.154-9.759,5.487c-4.061,4.061-7.054,9.699-4.602,12.15 c0.027,0.027,15.399,11.308,15.399,11.308c0.454,0.42,1.029,0.607,1.683,0.607c2.109,0,5.036-1.944,7.338-4.246 c1.582-1.583,2.853-3.309,3.576-4.86C31.652,18.145,31.225,16.919,30.642,16.287z M24.5,3C26.981,3,29,5.019,29,7.5 c0,1.576-0.817,2.959-2.047,3.764C24.893,8.457,22.442,5.12,20.886,3H24.5z M3.996,16.223c-0.962-0.962,0.352-5.072,4.602-9.322 c4.192-4.192,8.321-5.599,9.321-4.601c1.632,1.633-2.532,7.254-4.601,9.322C9.045,15.895,4.955,17.18,3.996,16.223z"></path></g></svg>