<svg xmlns="http://www.w3.org/2000/svg" height="32" width="32" viewBox="0 0 32 32"><title>paint 38 5</title><g fill="#61616b" class="nc-icon-wrapper"><path fill="#61616b" d="M4,18l0,13c0,0.547,0.444,0.999,0.99,1c2.609,0.003,4.789-1.336,5.995-3.054C12.082,30.627,13.97,32,16,32 c2.035,0,3.992-1.466,5.091-3.215c1.429,1.847,3.988,3.25,5.985,3.214C27.599,31.99,28,31.523,28,31l0-13H4z"></path> <path data-color="color-2" fill="#61616b" d="M25,10h-6V3c0-1.657-1.343-3-3-3s-3,1.343-3,3v7H7c-1.657,0-3,1.343-3,3v3h24v-3 C28,11.343,26.657,10,25,10z"></path></g></svg>