<svg xmlns="http://www.w3.org/2000/svg" height="48" width="48" viewBox="0 0 48 48"><title>paint 16 4</title><g fill="#61616b" class="nc-icon-wrapper"><path data-color="color-2" fill="#61616b" d="M42.823,23.432c-0.375-0.541-1.271-0.541-1.646,0C40.479,24.441,37,29.601,37,32 c0,2.757,2.243,5,5,5s5-2.243,5-5C47,29.601,43.521,24.441,42.823,23.432z"></path> <path fill="#61616b" d="M27,27h-2v-5c0-1.654-1.346-3-3-3H4c-0.552,0-1-0.449-1-1V8c0-0.552-0.447-1-1-1S1,7.448,1,8v10 c0,1.654,1.346,3,3,3h18c0.552,0,1,0.449,1,1v5h-2c-0.553,0-1,0.448-1,1v17c0,0.552,0.447,1,1,1h6c0.553,0,1-0.448,1-1V28 C28,27.448,27.553,27,27,27z"></path> <path fill="#61616b" d="M41,2H7C5.895,2,5,2.895,5,4v8c0,1.105,0.895,2,2,2h34c1.105,0,2-0.895,2-2V4C43,2.895,42.105,2,41,2z"></path></g></svg>