<svg xmlns="http://www.w3.org/2000/svg" height="64" width="64" viewBox="0 0 64 64"><title>paint 16 3</title><g fill="#61616b" class="nc-icon-wrapper"><path fill="#61616b" d="M60,2H8C7.447,2,7,2.448,7,3v14c0,0.552,0.447,1,1,1h52c0.553,0,1-0.448,1-1V3C61,2.448,60.553,2,60,2z"></path> <path fill="#61616b" d="M38,36h-4v-8c0-2.206-1.794-4-4-4H7c-1.103,0-2-0.897-2-2V9c0-0.552-0.447-1-1-1S3,8.448,3,9v13 c0,2.206,1.794,4,4,4h23c1.103,0,2,0.897,2,2v8h-4c-0.553,0-1,0.448-1,1v24c0,0.552,0.447,1,1,1h10c0.553,0,1-0.448,1-1V37 C39,36.448,38.553,36,38,36z"></path> <path data-color="color-2" fill="#61616b" d="M56.823,27.432c-0.375-0.541-1.271-0.541-1.646,0C54.647,28.199,50,35.013,50,38 c0,3.309,2.691,6,6,6s6-2.691,6-6C62,35.013,57.353,28.199,56.823,27.432z"></path></g></svg>