<svg xmlns="http://www.w3.org/2000/svg" height="64" width="64" viewBox="0 0 64 64"><title>paint brush 3</title><g fill="#61616b" class="nc-icon-wrapper"><path data-color="color-2" fill="#61616b" d="M42.234,52.464L12.536,22.766L32.335,2.967c0.781-0.781,2.047-0.781,2.828,0l14.142,14.142 L45.77,27.716l10.607-3.536l5.657,5.657c0.781,0.781,0.781,2.047,0,2.828L42.234,52.464z"></path> <path fill="#61616b" d="M11.121,24.18L9,26.302c-2.729,2.729-2.729,7.171,0,9.899l5.657,5.657l-9.899,9.899 c-2.343,2.343-2.343,6.142,0,8.485s6.142,2.343,8.485,0l9.899-9.899L28.799,56c2.729,2.729,7.17,2.729,9.899,0l2.121-2.121 L11.121,24.18z M7.586,57.414c-0.781-0.781-0.781-2.047,0-2.828c0.781-0.781,2.047-0.781,2.828,0c0.781,0.781,0.781,2.047,0,2.828 C9.633,58.195,8.367,58.195,7.586,57.414z"></path></g></svg>