<svg xmlns="http://www.w3.org/2000/svg" height="64" width="64" viewBox="0 0 64 64"><title>paint 37 3</title><g fill="#61616b" class="nc-icon-wrapper"><path data-color="color-2" fill="#61616b" d="M55,33V3c0-1.105-0.895-2-2-2h-8.999c-0.392,0-0.748,0.229-0.911,0.586L39,10.583 l-4.09-8.997C34.748,1.229,34.392,1,33.999,1H11C9.895,1,9,1.895,9,3v30H55z"></path> <path fill="#61616b" d="M9,35v1c0,3.866,3.134,7,7,7h10v14c0,3.314,2.686,6,6,6s6-2.686,6-6V43h10c3.866,0,7-3.134,7-7v-1H9z M32,59 c-1.105,0-2-0.895-2-2c0-1.105,0.895-2,2-2s2,0.895,2,2C34,58.105,33.105,59,32,59z"></path></g></svg>