<svg xmlns="http://www.w3.org/2000/svg" height="32" width="32" viewBox="0 0 32 32"><title>paint brush 5</title><g fill="#61616b" class="nc-icon-wrapper"><path data-color="color-2" fill="#61616b" d="M6.121,10.322l8.485-8.485c0.39-0.39,1.023-0.391,1.414,0l7.071,7.071l-1.414,5.657 l5.657-1.414l2.828,2.828c0.391,0.391,0.39,1.024,0,1.414l-8.485,8.485L6.121,10.322z"></path> <path fill="#61616b" d="M4.707,11.737l-1.414,1.414c-1.586,1.586-1.586,4.071,0,5.657l2.95,2.95l-5.414,5.414 c-1.105,1.105-1.105,2.895,0,4c1.105,1.105,2.895,1.105,4,0l5.414-5.414l2.95,2.95c1.586,1.586,4.071,1.586,5.657,0l1.414-1.414 L4.707,11.737z"></path></g></svg>