<svg xmlns="http://www.w3.org/2000/svg" height="64" width="64" viewBox="0 0 64 64"><title>paint 38 3</title><g fill="#61616b" class="nc-icon-wrapper"><path data-color="color-2" fill="#61616b" d="M55,33H9l0,29c0,0.557,0.457,1.001,1.014,1c4.637-0.006,9.85-2.866,11.989-7.017 C23.785,59.672,27.719,63,32,63c4.285,0,8.38-3.544,10.122-7.35c2.244,3.848,7.448,7.351,11.88,7.35C54.553,63,55,62.553,55,62.002 C55,56.936,55,33,55,33z"></path> <path fill="#61616b" d="M48,21H38V7c0-3.314-2.686-6-6-6s-6,2.686-6,6v14H16c-3.866,0-7,3.134-7,7v3h46v-3 C55,24.134,51.866,21,48,21z M32,9c-1.105,0-2-0.895-2-2s0.895-2,2-2s2,0.895,2,2S33.105,9,32,9z"></path></g></svg>