<svg xmlns="http://www.w3.org/2000/svg" height="48" width="48" viewBox="0 0 48 48"><title>paint bucket 40 4</title><g fill="#61616b" class="nc-icon-wrapper"><path data-color="color-2" fill="#61616b" d="M6.823,31.432c-0.375-0.541-1.271-0.541-1.646,0C4.479,32.441,1,37.601,1,40 c0,2.757,2.243,5,5,5s5-2.243,5-5C11,37.601,7.521,32.441,6.823,31.432z"></path> <path fill="#61616b" d="M42.356,23.388c0,0-0.528-0.723-1.388-1.898C39.072,23.055,36.647,24,34,24h-6c-0.552,0-1-0.448-1-1 c0-0.552,0.448-1,1-1h6c4.963,0,9-4.038,9-9s-4.037-9-9-9h-5.852c-0.837-1.134-1.365-1.845-1.408-1.887 C26.001,1.376,24.98,1,23.703,1c-3.492,0-8.685,2.935-13.227,7.477c-2.921,2.921-5.219,6.137-6.469,9.056 c-1.374,3.206-1.337,5.766,0.105,7.208c0.028,0.028,21.274,15.616,21.274,15.616c0.545,0.511,1.254,0.741,2.074,0.741 c2.725,0,6.672-2.538,9.885-5.75C41.526,31.167,44.564,25.743,42.356,23.388z M34,6c3.859,0,7,3.14,7,7 c0,2.096-0.931,3.975-2.395,5.259C35.845,14.487,32.15,9.442,29.62,6H34z M25.008,8.533c-1.153,2.691-3.301,5.685-6.046,8.43 c-4.121,4.122-8.868,6.891-11.812,6.891c-0.728,0-1.273-0.178-1.623-0.527c-0.801-0.801-0.682-2.672,0.318-5.006 c1.153-2.69,3.3-5.684,6.045-8.429C16.013,5.77,20.76,3,23.703,3c0.728,0,1.273,0.178,1.623,0.527 C26.127,4.328,26.008,6.199,25.008,8.533z"></path></g></svg>