<svg xmlns="http://www.w3.org/2000/svg" height="48" width="48" viewBox="0 0 48 48"><title>paint 38 4</title><g fill="#61616b" class="nc-icon-wrapper"><path data-color="color-2" fill="#61616b" d="M7,27v19c0,0.552,0.447,1,1,1c3.479,0,6.502-1.984,8-4.879C17.498,45.016,20.521,47,24,47 s6.502-1.984,8-4.879C33.498,45.016,36.521,47,40,47c0.553,0,1-0.448,1-1V27H7z"></path> <path fill="#61616b" d="M41,25v-2c0-3.314-2.686-6-6-6h-6V6c0-2.757-2.243-5-5-5c-0.276,0-0.557,0.023-0.832,0.068 C20.792,1.454,19,3.667,19,6.214V17h-6c-3.314,0-6,2.686-6,6v2H41z M26,6c0,1.105-0.895,2-2,2s-2-0.895-2-2c0-1.105,0.895-2,2-2 S26,4.895,26,6z"></path></g></svg>