<svg xmlns="http://www.w3.org/2000/svg" height="64" width="64" viewBox="0 0 64 64"><title>paint bucket 40 3</title><g fill="#61616b" class="nc-icon-wrapper"><path data-color="color-2" fill="#61616b" d="M8.823,45.406c-0.375-0.541-1.271-0.541-1.646,0C6.647,46.173,2,52.987,2,55.974 c0,3.309,2.691,6,6,6s6-2.691,6-6C14,52.987,9.353,46.173,8.823,45.406z"></path> <path fill="#61616b" d="M60.12,33.212l-4.317-5.887C53.174,29.611,49.75,31,46,31h-9c-0.552,0-1-0.448-1-1c0-0.552,0.448-1,1-1h7h2 c7.168,0,13-5.832,13-13S53.168,3,46,3h-8.019c-0.092-0.124-0.406-0.513-0.414-0.521c-3.834-3.836-13.889,0.205-22.887,9.202 C5.685,20.678,1.643,30.73,5.479,34.567c0.051,0.051,0.646,0.532,0.93,0.697L36.213,57.12c0.669,0.634,1.59,0.95,2.716,0.95 c1.274,0,2.811-0.404,4.54-1.212c3-1.4,6.351-3.87,9.436-6.954C58.663,44.145,63.121,36.367,60.12,33.212z M57,16 c0,3.2-1.382,6.077-3.571,8.088L39.431,5H46C52.065,5,57,9.935,57,16z M16.095,13.095c5.528-5.528,12.983-10.138,17.39-10.138 c1.109,0,2.025,0.292,2.669,0.936c3.198,3.199-2.283,13.138-9.203,20.058C20.03,30.87,10.093,36.35,6.893,33.153 C3.694,29.954,9.176,20.015,16.095,13.095z"></path></g></svg>