<svg xmlns="http://www.w3.org/2000/svg" height="48" width="48" viewBox="0 0 48 48"><title>paint bucket 39 4</title><g fill="#61616b" class="nc-icon-wrapper"><path fill="#61616b" d="M24,1C14.789,1,5,3.453,5,8v32c0,4.547,9.789,7,19,7s19-2.453,19-7V8C43,3.453,33.211,1,24,1z M24,3 c10.532,0,17,2.912,17,5c0,1.422-3.147,3.384-9.164,4.382C31.354,12.462,31,12.879,31,13.369V27c0,1.103-0.897,2-2,2s-2-0.897-2-2 V13.923c0-0.546-0.442-1-1-1c0,0-1.518,0.077-2,0.077C13.468,13,7,10.088,7,8S13.468,3,24,3z"></path></g></svg>