<svg xmlns="http://www.w3.org/2000/svg" height="48" width="48" viewBox="0 0 48 48"><title>paint 37 4</title><g fill="#61616b" class="nc-icon-wrapper"><path data-color="color-2" fill="#61616b" d="M41,21V3c0-1.105-0.895-2-2-2h-6.307c-0.417,0-0.79,0.259-0.936,0.649l-1.82,4.854 c-0.324,0.865-1.548,0.865-1.873,0l-1.821-4.854C26.097,1.259,25.724,1,25.307,1H9C7.895,1,7,1.895,7,3v18H41z"></path> <path fill="#61616b" d="M7,23v2c0,3.314,2.686,6,6,6h6v10.786c0,2.547,1.792,4.76,4.168,5.146C23.443,46.977,23.724,47,24,47 c2.757,0,5-2.243,5-5V31h6c3.314,0,6-2.686,6-6v-2H7z M24,44c-1.105,0-2-0.895-2-2c0-1.105,0.895-2,2-2s2,0.895,2,2 C26,43.105,25.105,44,24,44z"></path></g></svg>