<svg xmlns="http://www.w3.org/2000/svg" height="64" width="64" viewBox="0 0 64 64"><title>palette 3</title><g fill="#61616b" class="nc-icon-wrapper"><path fill="#61616b" d="M62.7,27.3c-0.9-5.5-3.7-9.6-8.1-11.8c-2.7-1.3-5.5-1.9-8.5-1.9c-4.1,0-7.9,1.2-11.3,2.3 c-2.6,0.8-4.8,1.5-6.6,1.5c-1.5,0-2.6-0.5-3.4-1.5c-0.7-0.9-0.2-2.3,0.3-4c0.6-2.1,1.4-4.8-0.3-7c-1-1.3-2.7-2-4.7-2 c-2,0-4.1,0.7-5.8,1.8C6,10.4,1,19.9,1,30.1c0,17.2,14,31.2,31.2,31.2c13.9,0,26.2-9.3,30-22.7C62.5,37.2,63.5,32.4,62.7,27.3z M10,28c0-2.2,1.8-4,4-4s4,1.8,4,4c0,2.2-1.8,4-4,4S10,30.2,10,28z M18,46c-2.2,0-4-1.8-4-4c0-2.2,1.8-4,4-4s4,1.8,4,4 C22,44.2,20.2,46,18,46z M32,52c-2.2,0-4-1.8-4-4c0-2.2,1.8-4,4-4s4,1.8,4,4C36,50.2,34.2,52,32,52z M46,35c-3.9,0-7-3.1-7-7 s3.1-7,7-7s7,3.1,7,7S49.9,35,46,35z"></path></g></svg>