<svg xmlns="http://www.w3.org/2000/svg" height="48" width="48" viewBox="0 0 48 48"><title>pantone 4</title><g fill="#61616b" class="nc-icon-wrapper"><path data-color="color-2" fill="#61616b" d="M44.971,19.522c-0.063-0.258-0.227-0.479-0.454-0.617l-6.975-4.213l-6.701,28.786 l14.015-23.2C44.994,20.052,45.035,19.779,44.971,19.522z"></path> <path data-color="color-2" fill="#61616b" d="M36.857,7.924c-0.137-0.227-0.358-0.391-0.616-0.454L29,5.676v35.182l7.972-32.177 C37.035,8.424,36.994,8.151,36.857,7.924z"></path> <path fill="#61616b" d="M27,29V3c0-1.105-0.895-2-2-2H7C5.895,1,5,1.895,5,3v26H27z"></path> <path fill="#61616b" d="M5,31v14c0,1.105,0.895,2,2,2h18c1.105,0,2-0.895,2-2V31H5z M16,43c-1.654,0-3-1.346-3-3s1.346-3,3-3 s3,1.346,3,3S17.654,43,16,43z"></path></g></svg>