<svg xmlns="http://www.w3.org/2000/svg" height="64" width="64" viewBox="0 0 64 64"><title>pantone 3</title><g fill="#61616b" class="nc-icon-wrapper"><path data-color="color-2" fill="#61616b" d="M58.656,23.245l-9.117-7.929l-9.256,30.076l18.463-20.727 c0.178-0.199,0.269-0.462,0.251-0.729S58.858,23.421,58.656,23.245z"></path> <path data-color="color-2" fill="#61616b" d="M48.883,9.655c-0.124-0.234-0.336-0.41-0.59-0.488L37,5.692v43.571l11.955-38.846 C49.033,10.164,49.007,9.89,48.883,9.655z"></path> <path fill="#61616b" d="M35,39V3c0-1.105-0.895-2-2-2H11C9.895,1,9,1.895,9,3v36H35z"></path> <path fill="#61616b" d="M9,41v20c0,1.105,0.895,2,2,2h22c1.105,0,2-0.895,2-2V41H9z M22,55c-1.654,0-3-1.346-3-3s1.346-3,3-3 s3,1.346,3,3S23.654,55,22,55z"></path></g></svg>