<svg xmlns="http://www.w3.org/2000/svg" height="32" width="32" viewBox="0 0 32 32"><title>paper design 4</title><g fill="#61616b" class="nc-icon-wrapper"><path fill="#61616b" d="M32,25h-5V10.657l-2.003,2.004c0.006,1.497-0.578,2.943-1.658,4.023c-1.783,1.782-6.35,2.212-8.23,2.313 l-2.225,0.12l0.12-2.226c0.102-1.88,0.531-6.447,2.313-8.23C16.389,7.589,17.818,7,19.338,7.004c0,0,0,0,0,0l6.129-6.128 C24.785,0.336,23.935,0,23,0H4C1.791,0,0,1.791,0,4v3h6v21c0,2.209,1.791,4,4,4h18c2.209,0,4-1.791,4-4V25z M6,5H2V4 c0-1.103,0.897-2,2-2s2,0.897,2,2V5z M30,28c0,1.103-0.897,2-2,2H13.463C13.805,29.411,14,28.728,14,28v-1h16V28z"></path> <path data-color="color-2" fill="#61616b" d="M31.414,0.586c-0.781-0.781-2.048-0.781-2.828,0l-8.499,8.499 c-1.174-0.247-2.444,0.08-3.356,0.991C15.297,11.51,15,17,15,17s5.49-0.297,6.924-1.731c0.912-0.912,1.238-2.182,0.991-3.356 l8.499-8.499C32.195,2.633,32.195,1.367,31.414,0.586z"></path></g></svg>