<svg xmlns="http://www.w3.org/2000/svg" height="48" width="48" viewBox="0 0 48 48"><title>paper design 3</title><g fill="#61616b" class="nc-icon-wrapper"><path data-color="color-2" fill="#61616b" d="M11,8H1V6c0-2.761,2.239-5,5-5h0c2.761,0,5,2.239,5,5V8z"></path> <path data-color="color-2" fill="#61616b" d="M23,40v2c0,4.5-5,5-5,5s23.657,0,24,0c2.761,0,5-2.239,5-5v-2H23z"></path> <path fill="#61616b" d="M36.996,18.074c-0.019,1.841-0.742,3.57-2.047,4.875c-2.022,2.022-6.92,2.771-9.66,3.036l-0.097,0.01L25,26 c-0.801,0-1.555-0.312-2.121-0.879c-0.637-0.636-0.953-1.516-0.864-2.413c0.266-2.738,1.014-7.636,3.036-9.657 c1.306-1.305,3.034-2.028,4.875-2.047l9.148-9.147C38.173,1.316,37.124,1,36,1H10.889C12.19,2.272,13,4.042,13,6v1v34 c0,2.209,1.791,4,4,4c2.209,0,4-1.791,4-4v-3h21V13.071L36.996,18.074z"></path> <path data-color="color-2" fill="#61616b" d="M47.121,0.879c-1.171-1.172-3.071-1.172-4.242,0L32.347,11.411 c0.967,0.344,1.855,0.893,2.602,1.64c0.747,0.747,1.296,1.636,1.64,2.602L47.121,5.121C48.293,3.95,48.293,2.05,47.121,0.879z"></path> <path data-color="color-2" fill="#61616b" d="M33.536,14.465C32.591,13.521,31.335,13,30,13s-2.591,0.521-3.536,1.465 c-1.728,1.728-2.352,7.332-2.459,8.438c-0.029,0.298,0.077,0.593,0.288,0.804C24.481,23.896,24.736,24,25,24 c0.032,0,0.064-0.002,0.097-0.005c1.106-0.107,6.71-0.731,8.439-2.46C34.48,20.591,35,19.336,35,18S34.48,15.409,33.536,14.465z"></path></g></svg>