<svg xmlns="http://www.w3.org/2000/svg" height="64" width="64" viewBox="0 0 64 64"><title>paper design 2</title><g fill="#61616b" class="nc-icon-wrapper"><path data-color="color-2" fill="#61616b" d="M26,57c0,3.314-2.686,6-6,6h36c3.314,0,6-2.686,6-6v-4H26V57z"></path> <path data-color="color-2" fill="#61616b" d="M12,11H2V6c0-2.761,2.239-5,5-5h0c2.761,0,5,2.239,5,5V11z"></path> <path fill="#61616b" d="M45.993,28.836c-0.089,2.128-0.96,4.115-2.475,5.63c-2.866,2.867-11.163,3.443-12.797,3.53L30.583,38 c-0.69,0-1.339-0.269-1.827-0.757c-0.518-0.517-0.792-1.233-0.753-1.964c0.086-1.635,0.664-9.933,3.531-12.798 c1.514-1.515,3.502-2.385,5.63-2.474L52.911,4.261C51.67,2.303,49.489,1,47,1H11.889C13.19,2.272,14,4.042,14,6v50 c0,2.761,2.239,5,5,5s5-2.239,5-5v-5h30V20.828L45.993,28.836z"></path> <path data-color="color-2" fill="#61616b" d="M61.757,4.243L61.757,4.243c-1.657-1.657-4.343-1.657-6,0L39.708,20.292 c1.427,0.378,2.738,1.119,3.81,2.191c1.072,1.072,1.812,2.382,2.191,3.809l16.049-16.049C63.414,8.586,63.414,5.899,61.757,4.243z"></path> <path data-color="color-2" fill="#61616b" d="M42.104,23.896C40.881,22.674,39.255,22,37.526,22s-3.355,0.674-4.578,1.896 c-2.431,2.43-2.927,11.12-2.947,11.489c-0.009,0.165,0.053,0.327,0.17,0.444c0.11,0.11,0.258,0.171,0.412,0.171 c0.011,0,0.021,0,0.032-0.001c0.369-0.02,9.058-0.516,11.489-2.947C43.326,31.83,44,30.204,44,28.474 C44,26.745,43.326,25.119,42.104,23.896z"></path></g></svg>