<svg xmlns="http://www.w3.org/2000/svg" height="48" width="48" viewBox="0 0 48 48"><title>paragraph 2 3</title><g fill="#61616b" class="nc-icon-wrapper"><path d="M28.911,32.987c3.138-1.447,5.089-4.337,5.089-7.987,0-6.236-6.381-9.426-9.105-10.789-3.293-1.646-4.895-3.678-4.895-6.211,0-2.206,1.794-4,4-4s4,1.794,4,4c0,1.104,.896,2,2,2s2-.896,2-2c0-4.411-3.589-8-8-8s-8,3.589-8,8c0,2.019,.631,4.622,3.089,7.013-3.138,1.447-5.089,4.337-5.089,7.987,0,6.236,6.381,9.426,9.105,10.789,3.293,1.646,4.895,3.678,4.895,6.211,0,2.206-1.794,4-4,4s-4-1.794-4-4c0-1.104-.896-2-2-2s-2,.896-2,2c0,4.411,3.589,8,8,8s8-3.589,8-8c0-2.019-.631-4.622-3.089-7.013Zm-10.911-9.987c0-3.489,2.888-4.848,5.542-4.986,4.573,2.352,6.458,4.395,6.458,6.986,0,3.489-2.888,4.848-5.542,4.986-4.573-2.352-6.458-4.395-6.458-6.986Z" fill="#61616b"></path></g></svg>