<svg xmlns="http://www.w3.org/2000/svg" height="24" width="24" viewBox="0 0 24 24"><title>paragraph 2 5</title><g fill="#61616b" class="nc-icon-wrapper"><path d="M17,12.5c0-3.117-3.19-4.713-4.553-5.395C10.8,6.282,10,5.267,10,4a2,2,0,0,1,4,0,1,1,0,0,0,2,0A4,4,0,0,0,8,4,4.8,4.8,0,0,0,9.571,7.518,4.252,4.252,0,0,0,7,11.5c0,3.117,3.19,4.713,4.553,5.4C13.2,17.718,14,18.733,14,20a2,2,0,0,1-4,0,1,1,0,0,0-2,0,4,4,0,0,0,8,0,4.8,4.8,0,0,0-1.571-3.518A4.252,4.252,0,0,0,17,12.5Zm-8-1c0-1.748,1.448-2.419,2.777-2.487C14.053,10.187,15,11.208,15,12.5c0,1.748-1.448,2.419-2.777,2.487C9.947,13.813,9,12.792,9,11.5Z" fill="#61616b"></path></g></svg>