<svg xmlns="http://www.w3.org/2000/svg" height="32" width="32" viewBox="0 0 32 32"><title>paragraph 2 4</title><g fill="#61616b" class="nc-icon-wrapper"><path d="M23.3,16.967c0-3.7-3.73-6.19-6.459-8.009-.002-.001-.003-.002-.005-.003-.001,0-.003-.002-.004-.003-2.981-1.988-3.199-2.334-3.199-3.585,0-1.305,1.062-2.367,2.367-2.367s2.367,1.062,2.367,2.367c0,.829,.671,1.5,1.5,1.5s1.5-.671,1.5-1.5c0-2.959-2.408-5.367-5.367-5.367s-5.367,2.408-5.367,5.367c0,1.833,.658,2.996,1.766,4.029-2.301,1.002-3.699,3.023-3.699,5.637,0,3.7,3.429,5.989,6.459,8.009,.002,.001,.003,.002,.005,.003,.001,0,.003,.002,.004,.003,2.556,1.704,3.199,2.304,3.199,3.585,0,1.305-1.062,2.367-2.367,2.367s-2.367-1.062-2.367-2.367c0-.829-.671-1.5-1.5-1.5s-1.5,.671-1.5,1.5c0,2.959,2.408,5.367,5.367,5.367s5.367-2.408,5.367-5.367c0-1.778-.722-2.99-1.796-4.017,2.318-.998,3.729-3.024,3.729-5.649Zm-6.867,3.319c-2.486-1.662-4.733-3.261-4.733-5.252,0-2.737,2.574-3.239,3.867-3.319,2.113,1.416,4.733,3.28,4.733,5.252,0,2.737-2.574,3.239-3.867,3.319Z" fill="#61616b"></path></g></svg>