<svg xmlns="http://www.w3.org/2000/svg" height="64" width="64" viewBox="0 0 64 64"><title>paragraph 2 2</title><g fill="#61616b" class="nc-icon-wrapper"><path d="M46,33c0-6.436-6.575-11.061-13.008-14.736C27.83,15.313,26,13.151,26,10a6,6,0,0,1,12,0,2,2,0,0,0,4,0,10,10,0,0,0-20,0c0,4.067,1.994,6.867,5.239,9.306C22.142,21.09,18,24.054,18,31c0,6.436,6.575,11.061,13.008,14.736C36.17,48.687,38,50.849,38,54a6,6,0,0,1-12,0,2,2,0,0,0-4,0,10,10,0,0,0,20,0c0-4.067-1.994-6.867-5.239-9.306C41.858,42.91,46,39.946,46,33ZM32.294,41.856C25.1,37.652,22,34.383,22,31c0-4.827,2.214-6.887,9.706-8.856C38.9,26.348,42,29.617,42,33,42,37.827,39.786,39.887,32.294,41.856Z" fill="#61616b"></path></g></svg>