<svg xmlns="http://www.w3.org/2000/svg" height="32" width="32" viewBox="0 0 32 32"><title>patch 34 5</title><g fill="#61616b" class="nc-icon-wrapper"><path fill="#61616b" d="M15.414,26L26,15.414L16.586,6L6,16.586L15.414,26z M20,15c0.552,0,1,0.448,1,1c0,0.552-0.448,1-1,1 s-1-0.448-1-1C19,15.448,19.448,15,20,15z M16,11c0.552,0,1,0.448,1,1c0,0.552-0.448,1-1,1s-1-0.448-1-1C15,11.448,15.448,11,16,11z M16,19c0.552,0,1,0.448,1,1c0,0.552-0.448,1-1,1s-1-0.448-1-1C15,19.448,15.448,19,16,19z M12,15c0.552,0,1,0.448,1,1 c0,0.552-0.448,1-1,1s-1-0.448-1-1C11,15.448,11.448,15,12,15z"></path> <path data-color="color-2" fill="#61616b" d="M30.707,9.293l-8-8c-0.391-0.391-1.023-0.391-1.414,0L18,4.586L27.414,14l3.293-3.293 C31.098,10.316,31.098,9.684,30.707,9.293z"></path> <path data-color="color-2" fill="#61616b" d="M4.586,18l-3.293,3.293c-0.391,0.391-0.391,1.023,0,1.414l8,8C9.488,30.902,9.744,31,10,31 s0.512-0.098,0.707-0.293L14,27.414L4.586,18z"></path></g></svg>