<svg xmlns="http://www.w3.org/2000/svg" height="64" width="64" viewBox="0 0 64 64"><title>patch 19 3</title><g fill="#61616b" class="nc-icon-wrapper"><path data-color="color-2" fill="#61616b" d="M26,11V2c0-0.552-0.447-1-1-1s-1,0.448-1,1v9H26z"></path> <path data-color="color-2" fill="#61616b" d="M33,11V2c0-0.552-0.447-1-1-1s-1,0.448-1,1v9H33z"></path> <path data-color="color-2" fill="#61616b" d="M40,11V2c0-0.552-0.447-1-1-1s-1,0.448-1,1v9H40z"></path> <path data-color="color-2" fill="#61616b" d="M53,26h9c0.552,0,1-0.447,1-1s-0.448-1-1-1h-9V26z"></path> <path data-color="color-2" fill="#61616b" d="M53,33h9c0.552,0,1-0.447,1-1s-0.448-1-1-1h-9V33z"></path> <path data-color="color-2" fill="#61616b" d="M53,40h9c0.552,0,1-0.447,1-1s-0.448-1-1-1h-9V40z"></path> <path data-color="color-2" fill="#61616b" d="M38,53v9c0,0.552,0.447,1,1,1s1-0.448,1-1v-9H38z"></path> <path data-color="color-2" fill="#61616b" d="M31,53v9c0,0.552,0.447,1,1,1s1-0.448,1-1v-9H31z"></path> <path data-color="color-2" fill="#61616b" d="M24,53v9c0,0.552,0.447,1,1,1s1-0.448,1-1v-9H24z"></path> <path data-color="color-2" fill="#61616b" d="M11,38H2c-0.552,0-1,0.447-1,1s0.448,1,1,1h9V38z"></path> <path data-color="color-2" fill="#61616b" d="M11,31H2c-0.552,0-1,0.447-1,1s0.448,1,1,1h9V31z"></path> <path data-color="color-2" fill="#61616b" d="M11,24H2c-0.552,0-1,0.447-1,1s0.448,1,1,1h9V24z"></path> <path fill="#61616b" d="M51,11H40v6c0,0.552-0.447,1-1,1s-1-0.448-1-1v-6h-5v6c0,0.552-0.447,1-1,1s-1-0.448-1-1v-6h-5v6 c0,0.552-0.447,1-1,1s-1-0.448-1-1v-6H13c-1.105,0-2,0.895-2,2v11h6c0.552,0,1,0.447,1,1s-0.448,1-1,1h-6v5h6c0.552,0,1,0.447,1,1 s-0.448,1-1,1h-6v5h6c0.552,0,1,0.447,1,1s-0.448,1-1,1h-6v11c0,1.105,0.895,2,2,2h11v-6c0-0.552,0.447-1,1-1s1,0.448,1,1v6h5v-6 c0-0.552,0.447-1,1-1s1,0.448,1,1v6h5v-6c0-0.552,0.447-1,1-1s1,0.448,1,1v6h11c1.105,0,2-0.895,2-2V40h-6c-0.552,0-1-0.447-1-1 s0.448-1,1-1h6v-5h-6c-0.552,0-1-0.447-1-1s0.448-1,1-1h6v-5h-6c-0.552,0-1-0.447-1-1s0.448-1,1-1h6V13C53,11.895,52.105,11,51,11z"></path></g></svg>