<svg xmlns="http://www.w3.org/2000/svg" height="16" width="16" viewBox="0 0 16 16"><title>patch 34 2</title><g fill="#61616b" class="nc-icon-wrapper"><path fill="#61616b" d="M15.7,6.3l-6-6c-0.4-0.4-1-0.4-1.4,0l-8,8c-0.4,0.4-0.4,1,0,1.4l6,6c0.4,0.4,1.1,0.4,1.4,0l8-8 C16.1,7.3,16.1,6.7,15.7,6.3z M5,9C4.4,9,4,8.6,4,8c0-0.6,0.4-1,1-1s1,0.4,1,1C6,8.6,5.6,9,5,9z M8,12c-0.6,0-1-0.4-1-1 c0-0.6,0.4-1,1-1s1,0.4,1,1C9,11.6,8.6,12,8,12z M8,6C7.4,6,7,5.6,7,5c0-0.6,0.4-1,1-1s1,0.4,1,1C9,5.6,8.6,6,8,6z M11,9 c-0.6,0-1-0.4-1-1c0-0.6,0.4-1,1-1s1,0.4,1,1C12,8.6,11.6,9,11,9z"></path></g></svg>