<svg xmlns="http://www.w3.org/2000/svg" height="48" width="48" viewBox="0 0 48 48"><title>patch 34 4</title><g fill="#61616b" class="nc-icon-wrapper"><path fill="#61616b" d="M24.914,38.5L38.5,24.914L23.086,9.5L9.5,23.086L24.914,38.5z M29,22c1.105,0,2,0.895,2,2 c0,1.105-0.895,2-2,2s-2-0.895-2-2C27,22.895,27.895,22,29,22z M24,17c1.105,0,2,0.895,2,2c0,1.105-0.895,2-2,2s-2-0.895-2-2 C22,17.895,22.895,17,24,17z M24,27c1.105,0,2,0.895,2,2c0,1.105-0.895,2-2,2s-2-0.895-2-2C22,27.895,22.895,27,24,27z M19,22 c1.105,0,2,0.895,2,2c0,1.105-0.895,2-2,2s-2-0.895-2-2C17,22.895,17.895,22,19,22z"></path> <path data-color="color-2" fill="#61616b" d="M8.086,24.5l-4.257,4.257c-2.339,2.339-2.339,6.146,0,8.485l6.929,6.929 c1.169,1.17,2.706,1.755,4.243,1.755s3.073-0.585,4.243-1.755l4.257-4.257L8.086,24.5z"></path> <path data-color="color-2" fill="#61616b" d="M44.171,10.757l-6.929-6.929c-2.339-2.34-6.146-2.34-8.485,0L24.5,8.086L39.914,23.5 l4.257-4.257C46.511,16.903,46.511,13.097,44.171,10.757z"></path></g></svg>