<svg xmlns="http://www.w3.org/2000/svg" height="32" width="32" viewBox="0 0 32 32"><title>patch 19 5</title><g fill="#61616b" class="nc-icon-wrapper"><path fill="#61616b" d="M25,6H7C6.447,6,6,6.448,6,7v18c0,0.552,0.447,1,1,1h18c0.553,0,1-0.448,1-1V7C26,6.448,25.553,6,25,6z"></path> <rect data-color="color-2" x="15" fill="#61616b" width="2" height="4"></rect> <rect data-color="color-2" x="11" fill="#61616b" width="2" height="4"></rect> <rect data-color="color-2" x="19" fill="#61616b" width="2" height="4"></rect> <rect data-color="color-2" x="29" y="14" transform="matrix(-1.836970e-16 1 -1 -1.836970e-16 46 -14)" fill="#61616b" width="2" height="4"></rect> <rect data-color="color-2" x="29" y="10" transform="matrix(-1.836970e-16 1 -1 -1.836970e-16 42 -18)" fill="#61616b" width="2" height="4"></rect> <rect data-color="color-2" x="29" y="18" transform="matrix(-1.836970e-16 1 -1 -1.836970e-16 50 -10)" fill="#61616b" width="2" height="4"></rect> <rect data-color="color-2" x="15" y="28" transform="matrix(-1 -1.224647e-16 1.224647e-16 -1 32 60)" fill="#61616b" width="2" height="4"></rect> <rect data-color="color-2" x="19" y="28" transform="matrix(-1 -1.224647e-16 1.224647e-16 -1 40 60)" fill="#61616b" width="2" height="4"></rect> <rect data-color="color-2" x="11" y="28" transform="matrix(-1 -1.224647e-16 1.224647e-16 -1 24 60)" fill="#61616b" width="2" height="4"></rect> <rect data-color="color-2" x="1" y="14" transform="matrix(6.123234e-17 -1 1 6.123234e-17 -14 18)" fill="#61616b" width="2" height="4"></rect> <rect data-color="color-2" x="1" y="18" transform="matrix(6.123234e-17 -1 1 6.123234e-17 -18 22)" fill="#61616b" width="2" height="4"></rect> <rect data-color="color-2" x="1" y="10" transform="matrix(6.123234e-17 -1 1 6.123234e-17 -10 14)" fill="#61616b" width="2" height="4"></rect></g></svg>