<svg xmlns="http://www.w3.org/2000/svg" height="32" width="32" viewBox="0 0 32 32"><title>pen tool 5</title><g fill="#61616b" class="nc-icon-wrapper"><path fill="#61616b" d="M12.2,7.443l-6.572,2.629c-0.324,0.13-0.557,0.419-0.615,0.764L2.066,28.52l8.234-8.234 c-0.581-1.217-0.282-2.547,0.579-3.407c1.133-1.133,3.109-1.133,4.243,0c1.172,1.172,1.172,3.07,0,4.242c0,0,0,0,0,0s0,0,0,0 c-0.855,0.855-2.183,1.162-3.407,0.578L3.48,29.934l17.684-2.947c0.345-0.058,0.634-0.291,0.764-0.615l2.629-6.572L12.2,7.443z"></path> <path data-color="color-2" fill="#61616b" d="M30.707,14.293l-13-13c-0.391-0.391-1.023-0.391-1.414,0l-3,3 c-0.391,0.391-0.391,1.023,0,1.414l13,13c0.391,0.391,1.023,0.391,1.414,0l3-3C31.098,15.316,31.098,14.684,30.707,14.293z"></path></g></svg>