<svg xmlns="http://www.w3.org/2000/svg" height="32" width="32" viewBox="0 0 32 32"><title>pen 01 5</title><g fill="#61616b" class="nc-icon-wrapper"><polygon fill="#61616b" points="19.586,6 17,8.586 4,21.586 10.414,28 26,12.414 "></polygon> <path data-color="color-2" fill="#61616b" d="M2.877,23.291l-1.838,6.434c-0.1,0.35-0.002,0.725,0.254,0.982C1.483,30.897,1.738,31,2,31 c0.092,0,0.184-0.013,0.275-0.039l6.434-1.838L2.877,23.291z"></path> <path data-color="color-2" fill="#61616b" d="M30.707,6.293l-5-5c-0.391-0.391-1.023-0.391-1.414,0L21,4.586L27.414,11l3.293-3.293 C31.098,7.316,31.098,6.684,30.707,6.293z"></path></g></svg>