<svg xmlns="http://www.w3.org/2000/svg" height="64" width="64" viewBox="0 0 64 64"><title>pen tool 3</title><g fill="#61616b" class="nc-icon-wrapper"><path fill="#61616b" d="M28.2,14.4l-16.6,6.6c-0.3,0.1-0.6,0.4-0.6,0.8L5.6,54.4c-0.2,1,1,1.6,1.7,0.9l14.6-14.6 c-1.3-1.9-1.1-4.6,0.6-6.3c0.9-0.9,2.2-1.5,3.5-1.5c1.6,0,3.2,0.8,4.1,2.2c1.2,1.7,1.2,4,0,5.7c-1,1.4-2.5,2.2-4.1,2.2 c-1,0-1.9-0.3-2.8-0.8L8.7,56.7c-0.7,0.7-0.1,1.9,0.9,1.7L42.2,53c0.3-0.1,0.6-0.3,0.8-0.6l6.6-16.6L28.2,14.4z"></path> <path data-color="color-2" fill="#61616b" d="M60.7,29.3l-26-26c-0.4-0.4-1-0.4-1.4,0l-6,6c-0.4,0.4-0.4,1,0,1.4l26,26 c0.2,0.2,0.5,0.3,0.7,0.3s0.5-0.1,0.7-0.3l6-6C61.1,30.3,61.1,29.7,60.7,29.3z"></path></g></svg>