<svg xmlns="http://www.w3.org/2000/svg" height="64" width="64" viewBox="0 0 64 64"><title>pen 01 3</title><g fill="#61616b" class="nc-icon-wrapper"><polygon fill="#61616b" points="7,43.586 13,49.586 32,30.586 45.586,17 39.586,11 "></polygon> <polygon fill="#61616b" points="47,18.414 35,30.414 14.414,51 20.414,57 53,24.414 "></polygon> <path data-color="color-2" fill="#61616b" d="M5.892,45.307L2.03,60.757c-0.085,0.341,0.015,0.701,0.263,0.95C2.483,61.897,2.738,62,3,62 c0.081,0,0.162-0.01,0.243-0.03l15.451-3.863L5.892,45.307z"></path> <path data-color="color-2" fill="#61616b" d="M61.707,14.293l-12-12c-0.391-0.391-1.023-0.391-1.414,0L41,9.586L54.414,23l7.293-7.293 C62.098,15.316,62.098,14.684,61.707,14.293z"></path></g></svg>