<svg xmlns="http://www.w3.org/2000/svg" height="48" width="48" viewBox="0 0 48 48"><title>pen 23 4</title><g fill="#61616b" class="nc-icon-wrapper"><path data-color="color-2" fill="#61616b" d="M9.172,33.414l-4.879,4.879c-0.391,0.391-0.391,1.023,0,1.414L5.586,41l-3.293,3.293 c-0.391,0.391-0.391,1.023,0,1.414C2.488,45.902,2.744,46,3,46s0.512-0.098,0.707-0.293L7,42.414l1.293,1.293 C8.488,43.902,8.744,44,9,44s0.512-0.098,0.707-0.293l4.879-4.879L9.172,33.414z"></path> <path fill="#61616b" d="M46.707,17.293l-12-12c-0.391-0.391-1.023-0.391-1.414,0l-24,24c-0.391,0.391-0.391,1.023,0,1.414l8,8 C17.488,38.902,17.744,39,18,39s0.512-0.098,0.707-0.293L42,15.414L44.586,18L29.293,33.293c-0.391,0.391-0.391,1.023,0,1.414 C29.488,34.902,29.744,35,30,35s0.512-0.098,0.707-0.293l16-16C47.098,18.316,47.098,17.684,46.707,17.293z"></path> <path data-color="color-2" fill="#61616b" d="M42.828,10.586l2.051-2.051c1.495-1.495,1.495-3.919,0-5.414s-3.919-1.495-5.414,0 l-2.051,2.051L42.828,10.586z"></path></g></svg>