<svg xmlns="http://www.w3.org/2000/svg" height="32" width="32" viewBox="0 0 32 32"><title>pen 23 5</title><g fill="#61616b" class="nc-icon-wrapper"><path fill="#61616b" d="M30.707,13.293l-9-9c-0.391-0.391-1.023-0.391-1.414,0l-13,13c-0.391,0.391-0.391,1.023,0,1.414l6,6 C13.488,24.902,13.744,25,14,25s0.512-0.098,0.707-0.293L27,12.414L28.586,14l-8.293,8.293l1.414,1.414l9-9 C31.098,14.316,31.098,13.684,30.707,13.293z"></path> <path data-color="color-2" fill="#61616b" d="M7.172,21.414L2.586,26l1,1l-2.293,2.293c-0.391,0.391-0.391,1.023,0,1.414 C1.488,30.902,1.744,31,2,31s0.512-0.098,0.707-0.293L5,28.414l1,1l4.586-4.586L7.172,21.414z"></path> <path data-color="color-2" fill="#61616b" d="M28.121,7.879l2.586-2.586c0.391-0.391,0.391-1.024,0-1.414l-2.586-2.586 c-0.391-0.391-1.024-0.391-1.414,0l-2.586,2.586L28.121,7.879z"></path></g></svg>