<svg xmlns="http://www.w3.org/2000/svg" height="48" width="48" viewBox="0 0 48 48"><title>pen tool 4</title><g fill="#61616b" class="nc-icon-wrapper"><path data-color="color-2" fill="#61616b" d="M45.707,22.293l-20-20c-0.391-0.391-1.023-0.391-1.414,0l-4,4 c-0.391,0.391-0.391,1.023,0,1.414l20,20C40.488,27.902,40.744,28,41,28s0.512-0.098,0.707-0.293l4-4 C46.098,23.316,46.098,22.684,45.707,22.293z"></path> <path fill="#61616b" d="M22.047,12.289L6.649,18.063c-0.339,0.127-0.583,0.427-0.637,0.785l-3.95,25.676l10.767-10.767 c-1.283-1.94-1.072-4.585,0.635-6.293c1.95-1.95,5.123-1.949,7.071,0c1.949,1.95,1.949,5.122,0,7.071 C19.561,35.51,18.28,35.998,17,35.998c-0.962,0-1.924-0.276-2.757-0.826L3.476,45.938l25.676-3.95 c0.357-0.055,0.658-0.298,0.785-0.637l5.774-15.398L22.047,12.289z"></path></g></svg>