<svg xmlns="http://www.w3.org/2000/svg" height="48" width="48" viewBox="0 0 48 48"><title>pen 01 4</title><g fill="#61616b" class="nc-icon-wrapper"><polygon fill="#61616b" points="35,14.414 31,18.414 10.414,39 14.414,43 39,18.414 "></polygon> <polygon fill="#61616b" points="5,33.586 9,37.586 28,18.586 33.586,13 29.586,9 "></polygon> <path data-color="color-2" fill="#61616b" d="M45.707,10.293l-8-8c-0.39-0.39-1.024-0.39-1.414,0L31,7.586L40.414,17l5.293-5.293 C46.098,11.316,46.098,10.683,45.707,10.293z"></path> <path data-color="color-2" fill="#61616b" d="M3.915,35.329L2.02,44.804c-0.066,0.328,0.037,0.667,0.273,0.903C2.482,45.896,2.737,46,3,46 c0.065,0,0.131-0.006,0.196-0.02l9.475-1.895L3.915,35.329z"></path></g></svg>