<svg xmlns="http://www.w3.org/2000/svg" height="32" width="32" viewBox="0 0 32 32"><title>photo album 5</title><g fill="#61616b" class="nc-icon-wrapper"><path d="M31,4H24V1a1,1,0,0,0-2,0V4H17V1a1,1,0,0,0-2,0V4H10V1A1,1,0,0,0,8,1V4H1A1,1,0,0,0,0,5V29a1,1,0,0,0,1,1H31a1,1,0,0,0,1-1V5A1,1,0,0,0,31,4ZM30,28H2V6H30Z" fill="#61616b"></path><path data-color="color-2" d="M21.232,13.027a.993.993,0,0,0-.8.148l-16,11A1,1,0,0,0,5,26H27a1,1,0,0,0,.878-1.478l-6-11A1,1,0,0,0,21.232,13.027Z" fill="#61616b"></path><circle data-color="color-2" cx="9.5" cy="11.5" r="2.5" fill="#61616b"></circle></g></svg>