<svg xmlns="http://www.w3.org/2000/svg" height="32" width="32" viewBox="0 0 32 32"><title>photo editor 4</title><g fill="#61616b" class="nc-icon-wrapper"><circle data-color="color-2" fill="#61616b" cx="16" cy="10" r="9"></circle> <path fill="#61616b" d="M16,21c-5.107,0-9.4-3.504-10.633-8.23C2.208,14.167,0,17.323,0,21c0,4.971,4.029,9,9,9c4.971,0,9-4.029,9-9 c0-0.064-0.008-0.126-0.01-0.19C17.344,20.929,16.68,21,16,21z"></path> <path fill="#61616b" d="M26.633,12.77c-0.895,3.431-3.402,6.21-6.667,7.479C19.983,20.497,20,20.747,20,21 c0,2.685-0.97,5.146-2.574,7.058C18.96,29.27,20.893,30,23,30c4.971,0,9-4.029,9-9C32,17.323,29.792,14.167,26.633,12.77z"></path></g></svg>