<svg xmlns="http://www.w3.org/2000/svg" height="48" width="48" viewBox="0 0 48 48"><title>photo editor 3</title><g fill="#61616b" class="nc-icon-wrapper"><path fill="#61616b" d="M24,33c-8.097,0-14.879-5.695-16.579-13.287C3.545,22.428,1,26.919,1,32c0,8.271,6.729,15,15,15 s15-6.729,15-15c0-0.173-0.02-0.341-0.026-0.513C28.843,32.45,26.487,33,24,33z"></path> <path fill="#61616b" d="M40.579,19.713c-1.013,4.522-3.832,8.358-7.658,10.73C32.968,30.957,33,31.475,33,32 c0,5.642-2.774,10.637-7.017,13.73C27.827,46.542,29.86,47,32,47c8.271,0,15-6.729,15-15C47,26.919,44.455,22.428,40.579,19.713z"></path> <path data-color="color-2" fill="#61616b" d="M24,1C15.729,1,9,7.729,9,16s6.729,15,15,15s15-6.729,15-15S32.271,1,24,1z"></path></g></svg>