<svg xmlns="http://www.w3.org/2000/svg" height="16" width="16" viewBox="0 0 16 16"><title>photo album 2</title><g fill="#61616b" class="nc-icon-wrapper"><path fill="#61616b" d="M15,2h-2V0h-2v2H9V0H7v2H5V0H3v2H1C0.4,2,0,2.4,0,3v12c0,0.6,0.4,1,1,1h14c0.6,0,1-0.4,1-1V3 C16,2.4,15.6,2,15,2z M14,14H2V4h12V14z"></path> <path data-color="color-2" fill="#61616b" d="M6,8c0.6,0,1-0.4,1-1c0-0.6-0.4-1-1-1S5,6.4,5,7C5,7.6,5.4,8,6,8z"></path> <polygon data-color="color-2" fill="#61616b" points="10,7 7,11 5,9 3,13 13,13 "></polygon></g></svg>