<svg xmlns="http://www.w3.org/2000/svg" height="24" width="24" viewBox="0 0 24 24"><title>photo album</title><g fill="#61616b" class="nc-icon-wrapper"><path d="M23,3H18V0H16V3H13V0H11V3H8V0H6V3H1A1,1,0,0,0,0,4V22a1,1,0,0,0,1,1H23a1,1,0,0,0,1-1V4A1,1,0,0,0,23,3ZM22,21H2V5H22Z" fill="#61616b"></path><path data-color="color-2" d="M14.848,9.47a1,1,0,0,0-1.513-.218l-9,8A1,1,0,0,0,5,19H19a1,1,0,0,0,.849-1.53Z" fill="#61616b"></path><circle data-color="color-2" cx="6.5" cy="9.5" r="1.5" fill="#61616b"></circle></g></svg>