<svg xmlns="http://www.w3.org/2000/svg" height="64" width="64" viewBox="0 0 64 64"><title>photo album 3</title><g fill="#61616b" class="nc-icon-wrapper"><path data-color="color-2" d="M16,16a1,1,0,0,1-1-1V3a1,1,0,0,1,2,0V15A1,1,0,0,1,16,16Z" fill="#61616b"></path><path data-color="color-2" d="M32,16a1,1,0,0,1-1-1V3a1,1,0,0,1,2,0V15A1,1,0,0,1,32,16Z" fill="#61616b"></path><path data-color="color-2" d="M48,16a1,1,0,0,1-1-1V3a1,1,0,0,1,2,0V15A1,1,0,0,1,48,16Z" fill="#61616b"></path><path d="M59,8H51v7a3,3,0,0,1-6,0V8H35v7a3,3,0,0,1-6,0V8H19v7a3,3,0,0,1-6,0V8H5a3,3,0,0,0-3,3V57a3,3,0,0,0,3,3H59a3,3,0,0,0,3-3V11A3,3,0,0,0,59,8Zm1,49a1,1,0,0,1-1,1H5a1,1,0,0,1-1-1V24H60Z" fill="#61616b"></path><circle data-color="color-2" cx="16" cy="33" r="4" fill="#61616b"></circle><path data-color="color-2" d="M40.458,32.16l-31,20A1,1,0,0,0,10,54H54a1,1,0,0,0,.838-1.545l-13-20A1,1,0,0,0,40.458,32.16Z" fill="#61616b"></path></g></svg>