<svg xmlns="http://www.w3.org/2000/svg" height="48" width="48" viewBox="0 0 48 48"><title>photo album 4</title><g fill="#61616b" class="nc-icon-wrapper"><path data-color="color-2" d="M12,11a1,1,0,0,1-1-1V2a1,1,0,0,1,2,0v8A1,1,0,0,1,12,11Z" fill="#61616b"></path><path data-color="color-2" d="M36,11a1,1,0,0,0,1-1V2a1,1,0,0,0-2,0v8A1,1,0,0,0,36,11Z" fill="#61616b"></path><path d="M44,5H39v5a3,3,0,0,1-6,0V5H27v5a3,3,0,0,1-6,0V5H15v5a3,3,0,0,1-6,0V5H4A3,3,0,0,0,1,8V43a3,3,0,0,0,3,3H44a3,3,0,0,0,3-3V8A3,3,0,0,0,44,5Zm1,38a1,1,0,0,1-1,1H4a1,1,0,0,1-1-1V18H45Z" fill="#61616b"></path><path data-color="color-2" d="M24,11a1,1,0,0,0,1-1V2a1,1,0,0,0-2,0v8A1,1,0,0,0,24,11Z" fill="#61616b"></path><circle data-color="color-2" cx="12.5" cy="24.5" r="3.5" fill="#61616b"></circle><path data-color="color-2" d="M29.158,23.013a.983.983,0,0,0-.764.192l-21,16A1,1,0,0,0,8,41H40a1,1,0,0,0,.824-1.567l-11-16A1,1,0,0,0,29.158,23.013Z" fill="#61616b"></path></g></svg>