<svg xmlns="http://www.w3.org/2000/svg" height="48" width="48" viewBox="0 0 48 48"><title>plug 2 3</title><g fill="#61616b" class="nc-icon-wrapper"><path d="M24.485,39.071l2.293-2.293a1,1,0,0,0,0-1.414l-3.01-3.01,2.793-2.793a1.5,1.5,0,0,0-2.122-2.122l-2.793,2.793-3.878-3.878,2.793-2.793a1.5,1.5,0,0,0-2.122-2.122l-2.793,2.793-3.01-3.01a1,1,0,0,0-1.414,0L8.929,23.515Z" fill="#61616b"></path><path d="M7.515,24.929l-.293.293A11.01,11.01,0,0,0,6.55,40.035L1.293,45.293a1,1,0,1,0,1.414,1.414L7.965,41.45a11,11,0,0,0,14.813-.672l.293-.293Z" fill="#61616b"></path><path d="M23.515,8.929l-2.293,2.293a1,1,0,0,0,0,1.414L35.364,26.778a1,1,0,0,0,1.414,0l2.293-2.293Z" fill="#61616b" data-color="color-2"></path><path d="M46.707,1.293a1,1,0,0,0-1.414,0L40.035,6.55a11.01,11.01,0,0,0-14.813.672l-.293.293L40.485,23.071l.293-.293A11.01,11.01,0,0,0,41.45,7.965l5.257-5.258A1,1,0,0,0,46.707,1.293Z" fill="#61616b" data-color="color-2"></path></g></svg>