<svg xmlns="http://www.w3.org/2000/svg" height="64" width="64" viewBox="0 0 64 64"><title>plug 2 2</title><g fill="#61616b" class="nc-icon-wrapper"><path d="M32.077,52.663,35.37,49.37a1,1,0,0,0,0-1.414l-4.235-4.235,4.284-4.312a2,2,0,1,0-2.838-2.818l-4.274,4.3-5.172-5.172,4.284-4.312a2,2,0,1,0-2.838-2.818l-4.274,4.3L16.044,28.63a1.029,1.029,0,0,0-1.414,0l-3.293,3.293Z" fill="#61616b"></path><path d="M9.941,33.355a14.606,14.606,0,0,0-.318,19.608l-8.33,8.33a1,1,0,1,0,1.414,1.414l8.33-8.33a14.6,14.6,0,0,0,19.607-.319Z" fill="#61616b"></path><path d="M31.923,11.337,28.63,14.63a1,1,0,0,0,0,1.414L47.956,35.37a1,1,0,0,0,1.414,0l3.293-3.293Z" fill="#61616b" data-color="color-2"></path><path d="M62.707,1.293a1,1,0,0,0-1.414,0l-8.33,8.33a14.606,14.606,0,0,0-19.608.318l20.7,20.7a14.606,14.606,0,0,0,.318-19.608l8.33-8.33A1,1,0,0,0,62.707,1.293Z" fill="#61616b" data-color="color-2"></path></g></svg>