<svg xmlns="http://www.w3.org/2000/svg" height="48" width="48" viewBox="0 0 48 48"><title>position 3</title><g fill="#61616b" class="nc-icon-wrapper"><circle cx="24" cy="24" r="6" fill="#61616b" data-color="color-2"></circle> <path d="M24,9a1,1,0,0,0,1-1V2a1,1,0,0,0-2,0V8A1,1,0,0,0,24,9Z" fill="#61616b"></path> <path d="M46,23H40a1,1,0,0,0,0,2h6a1,1,0,0,0,0-2Z" fill="#61616b"></path> <path d="M24,47a1,1,0,0,0,1-1V40a1,1,0,0,0-2,0v6A1,1,0,0,0,24,47Z" fill="#61616b"></path> <path d="M8,23H2a1,1,0,0,0,0,2H8a1,1,0,0,0,0-2Z" fill="#61616b"></path></g></svg>