<svg xmlns="http://www.w3.org/2000/svg" height="64" width="64" viewBox="0 0 64 64"><title>position 2</title><g fill="#61616b" class="nc-icon-wrapper"><circle cx="32" cy="32" r="7" fill="#61616b" data-color="color-2"></circle> <path d="M32,11a1,1,0,0,0,1-1V2a1,1,0,0,0-2,0v8A1,1,0,0,0,32,11Z" fill="#61616b"></path> <path d="M62,31H54a1,1,0,0,0,0,2h8a1,1,0,0,0,0-2Z" fill="#61616b"></path> <path d="M32,53a1,1,0,0,0-1,1v8a1,1,0,0,0,2,0V54A1,1,0,0,0,32,53Z" fill="#61616b"></path> <path d="M10,31H2a1,1,0,0,0,0,2h8a1,1,0,0,0,0-2Z" fill="#61616b"></path></g></svg>