<svg xmlns="http://www.w3.org/2000/svg" height="64" width="64" viewBox="0 0 64 64"><title>priority highest 2</title><g fill="#61616b" class="nc-icon-wrapper"><path d="M60.117,27.757,36.242,3.883a6,6,0,0,0-8.484,0L3.883,27.757a6.008,6.008,0,0,0,0,8.486L27.758,60.117a6,6,0,0,0,8.484,0L60.117,36.243A6.008,6.008,0,0,0,60.117,27.757Zm-14.41,12.95a1,1,0,0,1-1.414,0L32,28.414,19.707,40.707a1,1,0,0,1-1.414-1.414l13-13a1,1,0,0,1,1.414,0l13,13A1,1,0,0,1,45.707,40.707Zm0-10a1,1,0,0,1-1.414,0L32,18.414,19.707,30.707a1,1,0,0,1-1.414-1.414l13-13a1,1,0,0,1,1.414,0l13,13A1,1,0,0,1,45.707,30.707Z" fill="#61616b"></path></g></svg>