<svg xmlns="http://www.w3.org/2000/svg" height="48" width="48" viewBox="0 0 48 48"><title>priority highest 3</title><g fill="#61616b" class="nc-icon-wrapper"><path d="M45.072,20.463,27.535,2.926a5.005,5.005,0,0,0-7.07,0L2.928,20.463a5.006,5.006,0,0,0,0,7.071L20.465,45.071a5,5,0,0,0,7.07,0L45.072,27.534A5.006,5.006,0,0,0,45.072,20.463ZM33.707,30.707a1,1,0,0,1-1.414,0L24,22.414l-8.293,8.293a1,1,0,0,1-1.414-1.414l9-9a1,1,0,0,1,1.414,0l9,9A1,1,0,0,1,33.707,30.707Zm0-8a1,1,0,0,1-1.414,0L24,14.414l-8.293,8.293a1,1,0,0,1-1.414-1.414l9-9a1,1,0,0,1,1.414,0l9,9A1,1,0,0,1,33.707,22.707Z" fill="#61616b"></path></g></svg>