<svg xmlns="http://www.w3.org/2000/svg" height="24" width="24" viewBox="0 0 24 24"><title>priority lowest 5</title><g fill="#61616b" class="nc-icon-wrapper"><path d="M22,9.5a1.5,1.5,0,0,0-1.061.439L12,18.879,3.061,9.939A1.5,1.5,0,0,0,.939,12.061l10,10a1.5,1.5,0,0,0,2.122,0l10-10A1.5,1.5,0,0,0,22,9.5Z" fill="#61616b" data-color="color-2"></path><path d="M22,1.5a1.5,1.5,0,0,0-1.061.439L12,10.879,3.061,1.939A1.5,1.5,0,0,0,.939,4.061l10,10a1.5,1.5,0,0,0,2.122,0l10-10A1.5,1.5,0,0,0,22,1.5Z" fill="#61616b"></path></g></svg>