<svg xmlns="http://www.w3.org/2000/svg" height="24" width="24" viewBox="0 0 24 24"><title>priority highest 5</title><g fill="#61616b" class="nc-icon-wrapper"><path d="M22,14.5a1.5,1.5,0,0,1-1.061-.439L12,5.121l-8.939,8.94A1.5,1.5,0,0,1,.939,11.939l10-10a1.5,1.5,0,0,1,2.122,0l10,10A1.5,1.5,0,0,1,22,14.5Z" fill="#61616b"></path><path d="M22,22.5a1.5,1.5,0,0,1-1.061-.439L12,13.121l-8.939,8.94A1.5,1.5,0,0,1,.939,19.939l10-10a1.5,1.5,0,0,1,2.122,0l10,10A1.5,1.5,0,0,1,22,22.5Z" fill="#61616b" data-color="color-2"></path></g></svg>