<svg xmlns="http://www.w3.org/2000/svg" height="48" width="48" viewBox="0 0 48 48"><title>prototype 3</title><g fill="#61616b" class="nc-icon-wrapper"><path d="M45.707,23.293l-7-7a1,1,0,0,0-1.414,1.414L42.586,23H29.9a5,5,0,1,0,0,2H42.586l-5.293,5.293a1,1,0,1,0,1.414,1.414l7-7A1,1,0,0,0,45.707,23.293ZM25,27a3,3,0,1,1,3-3A3,3,0,0,1,25,27Z" fill="#61616b" data-color="color-2"></path> <path d="M18,24a6.948,6.948,0,0,1,8-6.92V4a1,1,0,0,0-1-1H2A1,1,0,0,0,1,4V44a1,1,0,0,0,1,1H25a1,1,0,0,0,1-1V30.92A6.948,6.948,0,0,1,18,24Z" fill="#61616b"></path></g></svg>