<svg xmlns="http://www.w3.org/2000/svg" height="64" width="64" viewBox="0 0 64 64"><title>prototype 2</title><g fill="#61616b" class="nc-icon-wrapper"><path d="M61.707,31.293l-10-10a1,1,0,0,0-1.414,1.414L58.586,31H39.92a7,7,0,1,0,0,2H58.586l-8.293,8.293a1,1,0,1,0,1.414,1.414l10-10A1,1,0,0,0,61.707,31.293ZM33,37a5,5,0,1,1,5-5A5.006,5.006,0,0,1,33,37Z" fill="#61616b" data-color="color-2"></path> <path d="M33,41a9,9,0,1,1,1-17.941V6a1,1,0,0,0-1-1H2A1,1,0,0,0,1,6V58a1,1,0,0,0,1,1H33a1,1,0,0,0,1-1V40.941A9.075,9.075,0,0,1,33,41Z" fill="#61616b"></path></g></svg>