<svg xmlns="http://www.w3.org/2000/svg" height="64" width="64" viewBox="0 0 64 64"><title>refresh 02 2</title><g fill="#61616b" class="nc-icon-wrapper"><path fill="#61616b" d="M6,32C6,17.664,17.664,6,32,6c6.348,0,12.391,2.285,17.136,6.45l-6.843,6.843 c-0.271,0.271-0.363,0.673-0.238,1.035c0.126,0.362,0.447,0.62,0.828,0.665l17,2C59.922,22.998,59.961,23,60,23 c0.264,0,0.519-0.104,0.707-0.293c0.216-0.216,0.322-0.52,0.286-0.824l-2-17c-0.045-0.381-0.303-0.702-0.665-0.828 c-0.362-0.125-0.765-0.034-1.035,0.238l-5.326,5.326C46.462,4.703,39.412,2,32,2C15.458,2,2,15.458,2,32c0,1.104,0.896,2,2,2 S6,33.104,6,32z"></path> <path fill="#61616b" d="M60,30c-1.104,0-2,0.896-2,2c0,14.337-11.664,26-26,26c-6.348,0-12.391-2.285-17.135-6.451l6.842-6.842 c0.271-0.271,0.363-0.673,0.238-1.035c-0.126-0.362-0.447-0.62-0.828-0.665l-17-2c-0.306-0.036-0.608,0.07-0.824,0.286 c-0.216,0.217-0.322,0.52-0.286,0.824l2,17c0.045,0.38,0.303,0.702,0.665,0.827C5.779,59.981,5.89,60,6,60 c0.261,0,0.517-0.103,0.707-0.293l5.326-5.326C17.538,59.297,24.587,62,32,62c16.542,0,30-13.458,30-30C62,30.896,61.104,30,60,30z" data-color="color-2"></path> </g></svg>