<svg xmlns="http://www.w3.org/2000/svg" height="48" width="48" viewBox="0 0 48 48"><title>responsive 3</title><g fill="#61616b" class="nc-icon-wrapper"><path data-color="color-2" fill="#61616b" d="M3,10h17V8H2C1.447,8,1,8.447,1,9v29c0,0.553,0.447,1,1,1h3v-2H3V10z"></path> <path fill="#61616b" d="M19,29H8c-0.553,0-1,0.447-1,1v16c0,0.553,0.447,1,1,1h11c0.553,0,1-0.447,1-1V30C20,29.447,19.553,29,19,29 z M13.5,44c-0.828,0-1.5-0.672-1.5-1.5s0.672-1.5,1.5-1.5s1.5,0.672,1.5,1.5S14.328,44,13.5,44z"></path> <path fill="#61616b" d="M39,1H24c-1.103,0-2,0.897-2,2v18c0,1.103,0.897,2,2,2h15c1.103,0,2-0.897,2-2V3C41,1.897,40.103,1,39,1z M31.5,20c-0.828,0-1.5-0.672-1.5-1.5s0.672-1.5,1.5-1.5s1.5,0.672,1.5,1.5S32.328,20,31.5,20z"></path> <path data-color="color-2" fill="#61616b" d="M46,8h-3v2h2v27H22v7h10c0.552,0,1-0.448,1-1c0-0.552-0.448-1-1-1h-4v-3h18 c0.553,0,1-0.447,1-1V9C47,8.447,46.553,8,46,8z"></path></g></svg>