<svg xmlns="http://www.w3.org/2000/svg" height="32" width="32" viewBox="0 0 32 32"><title>responsive</title><g fill="#61616b" class="nc-icon-wrapper"><path data-color="color-2" fill="#61616b" d="M22,30h-3v-3h-6v3h-3c-0.553,0-1,0.447-1,1s0.447,1,1,1h12c0.553,0,1-0.447,1-1 S22.553,30,22,30z"></path> <path fill="#61616b" d="M31,3h-3V1c0-0.552-0.448-1-1-1H16c-0.552,0-1,0.448-1,1v2H1C0.447,3,0,3.447,0,4v20c0,0.553,0.447,1,1,1h3 v2c0,0.552,0.448,1,1,1h6c0.552,0,1-0.448,1-1v-2h19c0.553,0,1-0.447,1-1V4C32,3.447,31.553,3,31,3z M21.5,12 c0.828,0,1.5,0.672,1.5,1.5S22.328,15,21.5,15S20,14.328,20,13.5S20.672,12,21.5,12z M8,26c-0.552,0-1-0.448-1-1 c0-0.552,0.448-1,1-1s1,0.448,1,1C9,25.552,8.552,26,8,26z M30,23H12v-8c0-0.552-0.448-1-1-1H5c-0.552,0-1,0.448-1,1v8H2V5h13v11 c0,0.552,0.448,1,1,1h11c0.552,0,1-0.448,1-1V5h2V23z"></path></g></svg>