<svg xmlns="http://www.w3.org/2000/svg" height="48" width="48" viewBox="0 0 48 48"><title>row table 3</title><g fill="#61616b" class="nc-icon-wrapper"><path d="M40,3H8A5.006,5.006,0,0,0,3,8V40a5.006,5.006,0,0,0,5,5H40a5.006,5.006,0,0,0,5-5V8A5.006,5.006,0,0,0,40,3ZM14,25v8H5V25ZM5,23V15h9v8Zm11,2H43v8H16Zm0-2V15H43v8ZM5,40V35h9v8H8A3,3,0,0,1,5,40Zm35,3H16V35H43v5A3,3,0,0,1,40,43Z" fill="#61616b"></path><path d="M40,20H19a1,1,0,0,1,0-2H40a1,1,0,0,1,0,2Z" fill="#61616b" data-color="color-2"></path><path d="M11,20H8a1,1,0,0,1,0-2h3a1,1,0,0,1,0,2Z" fill="#61616b" data-color="color-2"></path><path d="M11,30H8a1,1,0,0,1,0-2h3a1,1,0,0,1,0,2Z" fill="#61616b" data-color="color-2"></path><path d="M11,40H8a1,1,0,0,1,0-2h3a1,1,0,0,1,0,2Z" fill="#61616b" data-color="color-2"></path><path d="M30,30H19a1,1,0,0,1,0-2H30a1,1,0,0,1,0,2Z" fill="#61616b" data-color="color-2"></path><path d="M40,40H19a1,1,0,0,1,0-2H40a1,1,0,0,1,0,2Z" fill="#61616b" data-color="color-2"></path></g></svg>