<svg xmlns="http://www.w3.org/2000/svg" height="64" width="64" viewBox="0 0 64 64"><title>row table 2</title><g fill="#61616b" class="nc-icon-wrapper"><path d="M54,4H10a6.006,6.006,0,0,0-6,6V54a6.006,6.006,0,0,0,6,6H54a6.006,6.006,0,0,0,6-6V10A6.006,6.006,0,0,0,54,4ZM18,32V44H6V32ZM6,30V18H18V30Zm14,2H58V44H20Zm0-2V18H58V30ZM6,54V46H18V58H10A4,4,0,0,1,6,54Zm48,4H20V46H58v8A4,4,0,0,1,54,58Z" fill="#61616b"></path><path d="M14,25H10a1,1,0,0,1,0-2h4a1,1,0,0,1,0,2Z" fill="#61616b" data-color="color-2"></path><path d="M54,25H24a1,1,0,0,1,0-2H54a1,1,0,0,1,0,2Z" fill="#61616b" data-color="color-2"></path><path d="M40,39H24a1,1,0,0,1,0-2H40a1,1,0,0,1,0,2Z" fill="#61616b" data-color="color-2"></path><path d="M54,53H24a1,1,0,0,1,0-2H54a1,1,0,0,1,0,2Z" fill="#61616b" data-color="color-2"></path><path d="M14,39H10a1,1,0,0,1,0-2h4a1,1,0,0,1,0,2Z" fill="#61616b" data-color="color-2"></path><path d="M14,53H10a1,1,0,0,1,0-2h4a1,1,0,0,1,0,2Z" fill="#61616b" data-color="color-2"></path></g></svg>