<svg xmlns="http://www.w3.org/2000/svg" height="32" width="32" viewBox="0 0 32 32"><title>ruler pencil 5</title><g fill="#61616b" class="nc-icon-wrapper"><path data-color="color-2" fill="#61616b" d="M18,25c0,0.234,0.082,0.46,0.231,0.64l5,6C23.422,31.868,23.703,32,24,32 s0.578-0.132,0.769-0.36l5-6C29.918,25.46,30,25.234,30,25V7H18V25z"></path> <path data-color="color-2" fill="#61616b" d="M29,0H19c-0.553,0-1,0.448-1,1v4h12V1C30,0.448,29.553,0,29,0z"></path> <path fill="#61616b" d="M13,0H3C2.448,0,2,0.448,2,1v4h3v2H2v3h4v2H2v3h3v2H2v3h4v2H2v3h3v2H2v4c0,0.552,0.448,1,1,1h10 c0.552,0,1-0.448,1-1V1C14,0.448,13.552,0,13,0z M10.5,6C9.672,6,9,5.328,9,4.5S9.672,3,10.5,3S12,3.672,12,4.5S11.328,6,10.5,6z"></path></g></svg>