<svg xmlns="http://www.w3.org/2000/svg" height="64" width="64" viewBox="0 0 64 64"><title>ruler pencil 3</title><g fill="#61616b" class="nc-icon-wrapper"><polygon data-color="color-2" fill="#61616b" points="50,47 59,47 59.01,47 60,47 60,13 50,13 "></polygon> <path data-color="color-2" fill="#61616b" d="M60,11V2c0-0.552-0.448-1-1-1H39c-0.552,0-1,0.448-1,1v9H60z"></path> <rect data-color="color-2" x="38" y="13" fill="#61616b" width="10" height="34"></rect> <path data-color="color-2" fill="#61616b" d="M49.806,62.9L60,49H38l10.194,13.9C48.593,63.445,49.407,63.445,49.806,62.9z"></path> <path fill="#61616b" d="M27,1H5C4.4,1,4,1.4,4,2v9h9c0.6,0,1,0.4,1,1s-0.4,1-1,1H4v6h5c0.6,0,1,0.4,1,1s-0.4,1-1,1H4v6h9 c0.6,0,1,0.4,1,1s-0.4,1-1,1H4v6h5c0.6,0,1,0.4,1,1s-0.4,1-1,1H4v6h9c0.6,0,1,0.4,1,1s-0.4,1-1,1H4v6h5c0.6,0,1,0.4,1,1s-0.4,1-1,1 H4v9c0,0.6,0.4,1,1,1h22c0.6,0,1-0.4,1-1V2C28,1.4,27.6,1,27,1z M21.5,10C20.1,10,19,8.9,19,7.5S20.1,5,21.5,5S24,6.1,24,7.5 S22.9,10,21.5,10z"></path></g></svg>