<svg xmlns="http://www.w3.org/2000/svg" height="48" width="48" viewBox="0 0 48 48"><title>ruler pencil 4</title><g fill="#61616b" class="nc-icon-wrapper"><path fill="#61616b" d="M21,1H5C4.4,1,4,1.4,4,2v5h5c0.6,0,1,0.4,1,1S9.6,9,9,9H4v6h3c0.6,0,1,0.4,1,1s-0.4,1-1,1H4v6h5 c0.6,0,1,0.4,1,1s-0.4,1-1,1H4v6h3c0.6,0,1,0.4,1,1c0,0.6-0.4,1-1,1H4v6h5c0.6,0,1,0.4,1,1s-0.4,1-1,1H4v5c0,0.6,0.4,1,1,1h16 c0.6,0,1-0.4,1-1V2C22,1.4,21.6,1,21,1z M17,8c-1.1,0-2-0.9-2-2s0.9-2,2-2s2,0.9,2,2S18.1,8,17,8z"></path> <path data-color="color-2" fill="#61616b" d="M44,7V2c0-0.552-0.447-1-1-1H31c-0.553,0-1,0.448-1,1v5H44z"></path> <rect data-color="color-2" x="30" y="9" fill="#61616b" width="14" height="27"></rect> <path data-color="color-2" fill="#61616b" d="M30,38l6.181,8.83c0.398,0.569,1.24,0.569,1.638,0L44,38H30z"></path></g></svg>