<svg xmlns="http://www.w3.org/2000/svg" height="64" width="64" viewBox="0 0 64 64"><title>scale up 3</title><g fill="#61616b" class="nc-icon-wrapper"><path fill="#61616b" d="M62,1H2C1.448,1,1,1.448,1,2v60c0,0.552,0.448,1,1,1h60c0.552,0,1-0.448,1-1V2C63,1.448,62.552,1,62,1z M61,61H25V40c0-0.552-0.448-1-1-1H3V3h58V61z"></path> <path data-color="color-2" fill="#61616b" d="M53,10H35c-0.404,0-0.769,0.244-0.924,0.617c-0.155,0.374-0.069,0.804,0.217,1.09 l7.586,7.586l-12,12c-0.391,0.391-0.391,1.024,0,1.414l1.414,1.414c0.391,0.391,1.024,0.391,1.414,0l12-12l7.586,7.586 C52.484,29.898,52.74,30,53,30c0.129,0,0.259-0.025,0.383-0.076C53.756,29.769,54,29.404,54,29V11C54,10.448,53.552,10,53,10z"></path></g></svg>