<svg xmlns="http://www.w3.org/2000/svg" height="64" width="64" viewBox="0 0 64 64"><title>scale down 3</title><g fill="#61616b" class="nc-icon-wrapper"><path fill="#61616b" d="M2,63h60c0.552,0,1-0.448,1-1V2c0-0.552-0.448-1-1-1H2C1.448,1,1,1.448,1,2v60C1,62.552,1.448,63,2,63z M3,3 h36v21c0,0.552,0.448,1,1,1h21v36H3V3z"></path> <path data-color="color-2" fill="#61616b" d="M11,54h18c0.404,0,0.769-0.244,0.924-0.617c0.155-0.374,0.069-0.804-0.217-1.09l-7.586-7.586 l12-12c0.391-0.391,0.391-1.024,0-1.414l-1.414-1.414c-0.391-0.391-1.024-0.391-1.414,0l-12,12l-7.586-7.586 C11.516,34.102,11.26,34,11,34c-0.129,0-0.259,0.025-0.383,0.076C10.244,34.231,10,34.596,10,35v18C10,53.552,10.448,54,11,54z"></path></g></svg>