<svg xmlns="http://www.w3.org/2000/svg" height="48" width="48" viewBox="0 0 48 48"><title>scale up 4</title><g fill="#61616b" class="nc-icon-wrapper"><path fill="#61616b" d="M46,47H2c-0.552,0-1-0.448-1-1V2c0-0.552,0.448-1,1-1h44c0.552,0,1,0.448,1,1v44C47,46.552,46.552,47,46,47z M19,45h26V3H3v26h15c0.552,0,1,0.448,1,1V45z"></path> <path data-color="color-2" fill="#61616b" d="M40,7H26c-0.4,0-0.8,0.2-0.9,0.6C25,8,25,8.4,25.3,8.7l5.586,5.586l-9.3,9.3 c-0.781,0.781-0.781,2.047,0,2.828C21.976,26.805,22.488,27,23,27s1.024-0.195,1.414-0.586l9.3-9.3L39.3,22.7 c0.2,0.2,0.4,0.3,0.7,0.3c0.1,0,0.3,0,0.4-0.1c0.4-0.2,0.6-0.5,0.6-0.9V8C41,7.4,40.6,7,40,7z"></path></g></svg>