<svg xmlns="http://www.w3.org/2000/svg" height="48" width="48" viewBox="0 0 48 48"><title>scale down 4</title><g fill="#61616b" class="nc-icon-wrapper"><path fill="#61616b" d="M2,1h44c0.552,0,1,0.448,1,1v44c0,0.552-0.448,1-1,1H2c-0.552,0-1-0.448-1-1V2C1,1.448,1.448,1,2,1z M29,3H3 v42h42V19H30c-0.552,0-1-0.448-1-1V3z"></path> <path data-color="color-2" fill="#61616b" d="M8,41h14c0.4,0,0.8-0.2,0.9-0.6c0.1-0.4,0.1-0.8-0.2-1.1l-5.586-5.586l9.3-9.3 c0.781-0.781,0.781-2.047,0-2.828C26.024,21.195,25.512,21,25,21s-1.024,0.195-1.414,0.586l-9.3,9.3L8.7,25.3C8.5,25.1,8.3,25,8,25 c-0.1,0-0.3,0-0.4,0.1C7.2,25.3,7,25.6,7,26v14C7,40.6,7.4,41,8,41z"></path></g></svg>