<svg xmlns="http://www.w3.org/2000/svg" height="32" width="32" viewBox="0 0 32 32"><title>scissors dashed 4</title><g fill="#61616b" class="nc-icon-wrapper"><path fill="#61616b" d="M24.5,21c-0.955,0-1.853,0.245-2.636,0.675l-3.018-3.521l7.031-7.031C28.3,8.7,28.763,4.939,27,2L16,14.833 L5,2c-1.763,2.939-1.3,6.7,1.123,9.123l7.031,7.031l-3.018,3.521C9.353,21.245,8.455,21,7.5,21C4.467,21,2,23.468,2,26.5 S4.467,32,7.5,32s5.5-2.468,5.5-5.5c0-0.738-0.148-1.442-0.414-2.086L16,21l3.414,3.414C19.148,25.058,19,25.762,19,26.5 c0,3.032,2.467,5.5,5.5,5.5s5.5-2.468,5.5-5.5S27.533,21,24.5,21z M7.5,30C5.57,30,4,28.43,4,26.5S5.57,23,7.5,23s3.5,1.57,3.5,3.5 S9.43,30,7.5,30z M24.5,30c-1.93,0-3.5-1.57-3.5-3.5s1.57-3.5,3.5-3.5s3.5,1.57,3.5,3.5S26.43,30,24.5,30z"></path> <rect data-color="color-2" x="15" fill="#61616b" width="2" height="4"></rect> <rect data-color="color-2" x="15" y="7" fill="#61616b" width="2" height="4"></rect> <rect data-color="color-2" x="15" y="24" fill="#61616b" width="2" height="4"></rect></g></svg>