<svg xmlns="http://www.w3.org/2000/svg" height="32" width="32" viewBox="0 0 32 32"><title>scissors 5</title><g fill="#61616b" class="nc-icon-wrapper"><path fill="#61616b" d="M24.5,21c-1,0-1.9,0.2-2.6,0.7l-3-3.5l7-7C28.3,8.7,28.8,4.9,27,2L16,14.8L5,2c-1.8,2.9-1.3,6.7,1.1,9.1l7,7 l-3,3.5C9.4,21.2,8.5,21,7.5,21c-3,0-5.5,2.5-5.5,5.5S4.5,32,7.5,32s5.5-2.5,5.5-5.5c0-0.7-0.1-1.4-0.4-2.1L16,21l3.4,3.4 c-0.3,0.6-0.4,1.3-0.4,2.1c0,3,2.5,5.5,5.5,5.5s5.5-2.5,5.5-5.5S27.5,21,24.5,21z M7.5,30C5.6,30,4,28.4,4,26.5S5.6,23,7.5,23 s3.5,1.6,3.5,3.5S9.4,30,7.5,30z M24.5,30c-1.9,0-3.5-1.6-3.5-3.5s1.6-3.5,3.5-3.5s3.5,1.6,3.5,3.5S26.4,30,24.5,30z"></path></g></svg>