<svg xmlns="http://www.w3.org/2000/svg" height="48" width="48" viewBox="0 0 48 48"><title>scissors dashed 3</title><g fill="#61616b" class="nc-icon-wrapper"><path data-color="color-2" fill="#61616b" d="M24,7c-0.552,0-1-0.447-1-1V2c0-0.553,0.448-1,1-1s1,0.447,1,1v4C25,6.553,24.552,7,24,7z"></path> <path data-color="color-2" fill="#61616b" d="M24,17c-0.552,0-1-0.447-1-1v-4c0-0.553,0.448-1,1-1s1,0.447,1,1v4 C25,16.553,24.552,17,24,17z"></path> <path data-color="color-2" fill="#61616b" d="M24,42c-0.552,0-1-0.447-1-1v-4c0-0.553,0.448-1,1-1s1,0.447,1,1v4 C25,41.553,24.552,42,24,42z"></path> <path fill="#61616b" d="M29.933,25.205l9.734-9.734C43.51,11.627,44.245,5.661,41.448,1L25.317,19.82L29.933,25.205z"></path> <path fill="#61616b" d="M27.974,27.164l-4.459-5.241l-8.345,9.735C14.197,31.236,13.126,31,12,31c-4.411,0-8,3.589-8,8s3.589,8,8,8 s8-3.589,8-8c0-1.135-0.241-2.214-0.669-3.193L27.974,27.164z M12,45c-3.309,0-6-2.691-6-6s2.691-6,6-6s6,2.691,6,6S15.309,45,12,45 z"></path> <path fill="#61616b" d="M8.333,15.471l20.336,20.336C28.241,36.786,28,37.865,28,39c0,4.411,3.589,8,8,8s8-3.589,8-8s-3.589-8-8-8 c-1.126,0-2.197,0.236-3.17,0.658L6.552,1C3.755,5.661,4.49,11.627,8.333,15.471z M30,39c0-3.309,2.691-6,6-6s6,2.691,6,6 s-2.691,6-6,6S30,42.309,30,39z"></path></g></svg>