<svg xmlns="http://www.w3.org/2000/svg" height="16" width="16" viewBox="0 0 16 16"><title>scissors 2</title><g fill="#61616b" class="nc-icon-wrapper"><path fill="#61616b" d="M12,10c-0.4,0-0.8,0.1-1.1,0.2L9.5,8.6l3.7-3.7c1.3-1.3,1.5-3.3,0.6-4.9L8,6.8L2.1,0 C1.2,1.6,1.4,3.6,2.7,4.9l3.7,3.7l-1.4,1.6C4.8,10.1,4.4,10,4,10c-1.7,0-3,1.3-3,3s1.3,3,3,3s3-1.3,3-3c0-0.5-0.2-1-0.4-1.5L8,10.1 l1.4,1.4C9.2,12,9,12.5,9,13c0,1.7,1.3,3,3,3s3-1.3,3-3S13.7,10,12,10z M4,14c-0.6,0-1-0.4-1-1s0.4-1,1-1s1,0.4,1,1S4.6,14,4,14z M12,14c-0.6,0-1-0.4-1-1s0.4-1,1-1s1,0.4,1,1S12.6,14,12,14z"></path></g></svg>