<svg xmlns="http://www.w3.org/2000/svg" height="64" width="64" viewBox="0 0 64 64"><title>scissors 3</title><g fill="#61616b" class="nc-icon-wrapper"><path data-color="color-2" fill="#61616b" d="M39.111,32.889l12.643-12.643C56.6,15.4,57.526,7.877,54,2L33.317,26.13L39.111,32.889z"></path> <path data-color="color-2" fill="#61616b" d="M35.698,36.302l-5.673-6.331L20.272,41.35C18.705,40.49,16.909,40,15,40 C8.935,40,4,44.935,4,51s4.935,11,11,11s11-4.935,11-11c0-1.477-0.297-2.885-0.827-4.173L35.698,36.302z M15,58c-3.86,0-7-3.141-7-7 s3.14-7,7-7s7,3.141,7,7S18.86,58,15,58z"></path> <path fill="#61616b" d="M49,40c-1.909,0-3.705,0.49-5.272,1.35L10,2c-3.526,5.877-2.6,13.4,2.246,18.246l26.581,26.581 C38.297,48.115,38,49.523,38,51c0,6.065,4.935,11,11,11s11-4.935,11-11S55.065,40,49,40z M49,58c-3.86,0-7-3.141-7-7s3.14-7,7-7 s7,3.141,7,7S52.86,58,49,58z"></path></g></svg>