<svg xmlns="http://www.w3.org/2000/svg" height="64" width="64" viewBox="0 0 64 64"><title>selection 3</title><g fill="#61616b" class="nc-icon-wrapper"><path fill="#61616b" d="M14,15H2c-0.552,0-1-0.448-1-1V2c0-0.552,0.448-1,1-1h12c0.552,0,1,0.448,1,1v12C15,14.552,14.552,15,14,15z "></path> <path fill="#61616b" d="M38,15H26c-0.552,0-1-0.448-1-1V2c0-0.552,0.448-1,1-1h12c0.552,0,1,0.448,1,1v12C39,14.552,38.552,15,38,15 z"></path> <path fill="#61616b" d="M38,39H26c-0.552,0-1-0.448-1-1V26c0-0.552,0.448-1,1-1h12c0.552,0,1,0.448,1,1v12 C39,38.552,38.552,39,38,39z"></path> <path data-color="color-2" fill="#61616b" d="M60,37h-8c-0.552,0-1-0.448-1-1v-8c0-0.552,0.448-1,1-1h8c0.552,0,1,0.448,1,1v8 C61,36.552,60.552,37,60,37z"></path> <path data-color="color-2" fill="#61616b" d="M60,61h-8c-0.552,0-1-0.448-1-1v-8c0-0.552,0.448-1,1-1h8c0.552,0,1,0.448,1,1v8 C61,60.552,60.552,61,60,61z"></path> <path data-color="color-2" fill="#61616b" d="M36,61h-8c-0.552,0-1-0.448-1-1v-8c0-0.552,0.448-1,1-1h8c0.552,0,1,0.448,1,1v8 C37,60.552,36.552,61,36,61z"></path> <path fill="#61616b" d="M62,15H50c-0.552,0-1-0.448-1-1V2c0-0.552,0.448-1,1-1h12c0.552,0,1,0.448,1,1v12C63,14.552,62.552,15,62,15 z"></path> <path fill="#61616b" d="M14,39H2c-0.552,0-1-0.448-1-1V26c0-0.552,0.448-1,1-1h12c0.552,0,1,0.448,1,1v12C15,38.552,14.552,39,14,39 z"></path> <path fill="#61616b" d="M14,63H2c-0.552,0-1-0.448-1-1V50c0-0.552,0.448-1,1-1h12c0.552,0,1,0.448,1,1v12C15,62.552,14.552,63,14,63 z"></path></g></svg>