<svg xmlns="http://www.w3.org/2000/svg" height="48" width="48" viewBox="0 0 48 48"><title>shape triangle 5</title><g fill="#61616b" class="nc-icon-wrapper"><path fill="#61616b" d="M28,3h-8c-0.553,0-1,0.448-1,1v8c0,0.552,0.447,1,1,1h8c0.553,0,1-0.448,1-1V4C29,3.448,28.553,3,28,3z"></path> <path fill="#61616b" d="M46,33h-8c-0.553,0-1,0.448-1,1v8c0,0.552,0.447,1,1,1h8c0.553,0,1-0.448,1-1v-8C47,33.448,46.553,33,46,33z "></path> <path fill="#61616b" d="M10,33H2c-0.553,0-1,0.448-1,1v8c0,0.552,0.447,1,1,1h8c0.553,0,1-0.448,1-1v-8C11,33.448,10.553,33,10,33z"></path> <rect data-color="color-2" x="13" y="37" fill="#61616b" width="22" height="2"></rect> <polygon data-color="color-2" fill="#61616b" points="11.367,31 20.966,15 18.634,15 9.034,31 "></polygon> <polygon data-color="color-2" fill="#61616b" points="27.034,15 36.633,31 38.966,31 29.366,15 "></polygon></g></svg>