<svg xmlns="http://www.w3.org/2000/svg" height="48" width="48" viewBox="0 0 48 48"><title>shape polygon 5</title><g fill="#61616b" class="nc-icon-wrapper"><path fill="#61616b" d="M18,5h-8C9.448,5,9,5.448,9,6v8c0,0.552,0.448,1,1,1h8c0.552,0,1-0.448,1-1V6C19,5.448,18.552,5,18,5z"></path> <path fill="#61616b" d="M39,14V6c0-0.552-0.448-1-1-1h-8c-0.552,0-1,0.448-1,1v8c0,0.552,0.448,1,1,1h8C38.552,15,39,14.552,39,14z"></path> <path fill="#61616b" d="M10,33H2c-0.552,0-1,0.448-1,1v8c0,0.552,0.448,1,1,1h8c0.552,0,1-0.448,1-1v-8C11,33.448,10.552,33,10,33z"></path> <path fill="#61616b" d="M46,33h-8c-0.552,0-1,0.448-1,1v8c0,0.552,0.448,1,1,1h8c0.552,0,1-0.448,1-1v-8C47,33.448,46.552,33,46,33z "></path> <polygon data-color="color-2" fill="#61616b" points="9.04,31 13.04,17 10.96,17 6.96,31 "></polygon> <rect data-color="color-2" x="21" y="9" fill="#61616b" width="6" height="2"></rect> <polygon data-color="color-2" fill="#61616b" points="34.96,17 38.96,31 41.04,31 37.04,17 "></polygon> <rect data-color="color-2" x="13" y="37" fill="#61616b" width="22" height="2"></rect></g></svg>