<svg xmlns="http://www.w3.org/2000/svg" height="32" width="32" viewBox="0 0 32 32"><title>shapes 5</title><g fill="#61616b" class="nc-icon-wrapper"><path fill="#61616b" d="M31,0H1C0.4,0,0,0.4,0,1v30c0,0.6,0.4,1,1,1h30c0.6,0,1-0.4,1-1V1C32,0.4,31.6,0,31,0z M13,24h-3v3 c0,0.6-0.4,1-1,1s-1-0.4-1-1v-3H5c-0.6,0-1-0.4-1-1s0.4-1,1-1h3v-3c0-0.6,0.4-1,1-1s1,0.4,1,1v3h3c0.6,0,1,0.4,1,1S13.6,24,13,24z M9,14c-2.8,0-5-2.2-5-5s2.2-5,5-5s5,2.2,5,5S11.8,14,9,14z M18,5c0-0.6,0.4-1,1-1h8c0.6,0,1,0.4,1,1v8c0,0.6-0.4,1-1,1h-8 c-0.6,0-1-0.4-1-1V5z M27,27C27,27,27,27,27,27h-8c-0.4,0-0.7-0.2-0.9-0.5c-0.2-0.3-0.2-0.7,0-1l4-6c0.4-0.6,1.3-0.6,1.7,0l3.9,5.9 c0.2,0.2,0.3,0.4,0.3,0.7C28,26.6,27.6,27,27,27z"></path></g></svg>