<svg xmlns="http://www.w3.org/2000/svg" height="64" width="64" viewBox="0 0 64 64"><title>shape square 3</title><g fill="#61616b" class="nc-icon-wrapper"><path fill="#61616b" d="M14,1H2C1.447,1,1,1.448,1,2v12c0,0.552,0.447,1,1,1h12c0.553,0,1-0.448,1-1V2C15,1.448,14.553,1,14,1z"></path> <path fill="#61616b" d="M62,1H50c-0.553,0-1,0.448-1,1v12c0,0.552,0.447,1,1,1h12c0.553,0,1-0.448,1-1V2C63,1.448,62.553,1,62,1z"></path> <path fill="#61616b" d="M14,49H2c-0.553,0-1,0.448-1,1v12c0,0.552,0.447,1,1,1h12c0.553,0,1-0.448,1-1V50C15,49.448,14.553,49,14,49 z"></path> <path fill="#61616b" d="M62,49H50c-0.553,0-1,0.448-1,1v12c0,0.552,0.447,1,1,1h12c0.553,0,1-0.448,1-1V50 C63,49.448,62.553,49,62,49z"></path> <rect data-color="color-2" x="17" y="7" fill="#61616b" width="30" height="2"></rect> <rect data-color="color-2" x="7" y="17" fill="#61616b" width="2" height="30"></rect> <rect data-color="color-2" x="17" y="55" fill="#61616b" width="30" height="2"></rect> <rect data-color="color-2" x="55" y="17" fill="#61616b" width="2" height="30"></rect></g></svg>