<svg xmlns="http://www.w3.org/2000/svg" height="64" width="64" viewBox="0 0 64 64"><title>shape polygon 4</title><g fill="#61616b" class="nc-icon-wrapper"><path fill="#61616b" d="M14,45H2c-0.552,0-1,0.448-1,1v12c0,0.552,0.448,1,1,1h12c0.552,0,1-0.448,1-1V46C15,45.448,14.552,45,14,45 z"></path> <path fill="#61616b" d="M24,5H12c-0.552,0-1,0.448-1,1v12c0,0.552,0.448,1,1,1h12c0.552,0,1-0.448,1-1V6C25,5.448,24.552,5,24,5z"></path> <path fill="#61616b" d="M53,18V6c0-0.552-0.448-1-1-1H40c-0.552,0-1,0.448-1,1v12c0,0.552,0.448,1,1,1h12C52.552,19,53,18.552,53,18 z"></path> <path fill="#61616b" d="M62,45H50c-0.552,0-1,0.448-1,1v12c0,0.552,0.448,1,1,1h12c0.552,0,1-0.448,1-1V46 C63,45.448,62.552,45,62,45z"></path> <rect data-color="color-2" x="27" y="11" fill="#61616b" width="10" height="2"></rect> <polygon data-color="color-2" fill="#61616b" points="14.256,21 7.656,43 9.744,43 16.344,21 "></polygon> <polygon data-color="color-2" fill="#61616b" points="49.744,21 56.344,43 54.256,43 47.656,21 "></polygon> <rect data-color="color-2" x="17" y="51" fill="#61616b" width="30" height="2"></rect></g></svg>