<svg xmlns="http://www.w3.org/2000/svg" height="16" width="16" viewBox="0 0 16 16"><title>shape custom</title><g fill="#61616b" class="nc-icon-wrapper"><path d="M14.946,5.395,11.82,4.9l-.176-2.672a1.15,1.15,0,0,0-.774-.992,1.356,1.356,0,0,0-1.439.286L6.158,4.789l-4.55.527A1.25,1.25,0,0,0,.6,6,1.068,1.068,0,0,0,.668,7.032L2.273,9.574.178,12.791a1.063,1.063,0,0,0,.067,1.27,1.358,1.358,0,0,0,1.534.376l3.832-1.488,2.607,1.686a1.361,1.361,0,0,0,.741.217,1.405,1.405,0,0,0,.5-.091,1.177,1.177,0,0,0,.737-.776L11.281,10.1l4.174-2.624a1.093,1.093,0,0,0,.522-1.158A1.207,1.207,0,0,0,14.946,5.395Z" fill="#61616b"></path></g></svg>