<svg xmlns="http://www.w3.org/2000/svg" height="48" width="48" viewBox="0 0 48 48"><title>shape square 4</title><g fill="#61616b" class="nc-icon-wrapper"><path fill="#61616b" d="M12,3H4C3.447,3,3,3.448,3,4v8c0,0.552,0.447,1,1,1h8c0.553,0,1-0.448,1-1V4C13,3.448,12.553,3,12,3z"></path> <path fill="#61616b" d="M44,3h-8c-0.553,0-1,0.448-1,1v8c0,0.552,0.447,1,1,1h8c0.553,0,1-0.448,1-1V4C45,3.448,44.553,3,44,3z"></path> <path fill="#61616b" d="M12,35H4c-0.553,0-1,0.448-1,1v8c0,0.552,0.447,1,1,1h8c0.553,0,1-0.448,1-1v-8C13,35.448,12.553,35,12,35z"></path> <path fill="#61616b" d="M44,35h-8c-0.553,0-1,0.448-1,1v8c0,0.552,0.447,1,1,1h8c0.553,0,1-0.448,1-1v-8C45,35.448,44.553,35,44,35z "></path> <rect data-color="color-2" x="39" y="15" fill="#61616b" width="2" height="18"></rect> <rect data-color="color-2" x="15" y="39" fill="#61616b" width="18" height="2"></rect> <rect data-color="color-2" x="7" y="15" fill="#61616b" width="2" height="18"></rect> <rect data-color="color-2" x="15" y="7" fill="#61616b" width="18" height="2"></rect></g></svg>