<svg xmlns="http://www.w3.org/2000/svg" height="24" width="24" viewBox="0 0 24 24"><title>shape square</title><g fill="#61616b" class="nc-icon-wrapper"><path d="M22,7a1,1,0,0,0,1-1V2a1,1,0,0,0-1-1H18a1,1,0,0,0-1,1V3H7V2A1,1,0,0,0,6,1H2A1,1,0,0,0,1,2V6A1,1,0,0,0,2,7H3V17H2a1,1,0,0,0-1,1v4a1,1,0,0,0,1,1H6a1,1,0,0,0,1-1V21H17v1a1,1,0,0,0,1,1h4a1,1,0,0,0,1-1V18a1,1,0,0,0-1-1H21V7ZM19,17H18a1,1,0,0,0-1,1v1H7V18a1,1,0,0,0-1-1H5V7H6A1,1,0,0,0,7,6V5H17V6a1,1,0,0,0,1,1h1Z" fill="#61616b"></path></g></svg>