<svg xmlns="http://www.w3.org/2000/svg" height="64" width="64" viewBox="0 0 64 64"><title>shape triangle 4</title><g fill="#61616b" class="nc-icon-wrapper"><path fill="#61616b" d="M62,45H50c-0.553,0-1,0.448-1,1v12c0,0.552,0.447,1,1,1h12c0.553,0,1-0.448,1-1V46 C63,45.448,62.553,45,62,45z"></path> <path fill="#61616b" d="M38,5H26c-0.553,0-1,0.448-1,1v12c0,0.552,0.447,1,1,1h12c0.553,0,1-0.448,1-1V6C39,5.448,38.553,5,38,5z"></path> <path fill="#61616b" d="M14,45H2c-0.553,0-1,0.448-1,1v12c0,0.552,0.447,1,1,1h12c0.553,0,1-0.448,1-1V46C15,45.448,14.553,45,14,45 z"></path> <rect data-color="color-2" x="17" y="51" fill="#61616b" width="30" height="2"></rect> <polygon data-color="color-2" fill="#61616b" points="14.566,43 27.767,21 25.434,21 12.233,43 "></polygon> <polygon data-color="color-2" fill="#61616b" points="51.766,43 38.566,21 36.234,21 49.434,43 "></polygon></g></svg>