<svg xmlns="http://www.w3.org/2000/svg" height="32" width="32" viewBox="0 0 32 32"><title>shape circle 5</title><g fill="#61616b" class="nc-icon-wrapper"><path fill="#61616b" d="M31,12h-2.658C27.059,8.033,23.963,4.94,20,3.659V1c0-0.552-0.447-1-1-1h-6c-0.553,0-1,0.448-1,1v2.658 C8.041,4.939,4.94,8.037,3.657,12H1c-0.553,0-1,0.448-1,1v6c0,0.552,0.447,1,1,1h2.658c1.283,3.962,4.38,7.06,8.342,8.342V31 c0,0.552,0.447,1,1,1h6c0.553,0,1-0.448,1-1v-2.628c3.979-1.282,7.091-4.394,8.372-8.372H31c0.553,0,1-0.448,1-1v-6 C32,12.448,31.553,12,31,12z M20,26.243V25c0-0.552-0.447-1-1-1h-6c-0.553,0-1,0.448-1,1v1.239C9.138,25.123,6.874,22.861,5.759,20 H7c0.553,0,1-0.448,1-1v-6c0-0.552-0.447-1-1-1H5.762C6.879,9.139,9.141,6.874,12,5.759V7c0,0.552,0.447,1,1,1h6 c0.553,0,1-0.448,1-1V5.757c2.863,1.115,5.123,3.379,6.239,6.243H25c-0.553,0-1,0.448-1,1v6c0,0.552,0.447,1,1,1h1.243 C25.128,22.866,22.866,25.128,20,26.243z"></path></g></svg>