<svg xmlns="http://www.w3.org/2000/svg" height="32" width="32" viewBox="0 0 32 32"><title>shape triangle 6</title><g fill="#61616b" class="nc-icon-wrapper"><path fill="#61616b" d="M31,22h-4.234L19.481,9.859C19.786,9.688,20,9.374,20,9V3c0-0.552-0.447-1-1-1h-6c-0.553,0-1,0.448-1,1v6 c0,0.374,0.214,0.688,0.518,0.859L5.234,22H1c-0.553,0-1,0.448-1,1v6c0,0.552,0.447,1,1,1h6c0.553,0,1-0.448,1-1v-2h16v2 c0,0.552,0.447,1,1,1h6c0.553,0,1-0.448,1-1v-6C32,22.448,31.553,22,31,22z M8,25v-2c0-0.374-0.214-0.688-0.518-0.859L14.766,10 h2.468l7.285,12.141C24.214,22.312,24,22.626,24,23v2H8z"></path></g></svg>