<svg xmlns="http://www.w3.org/2000/svg" height="48" width="48" viewBox="0 0 48 48"><title>shape custom 2</title><g fill="#61616b" class="nc-icon-wrapper"><path d="M44.687,17.171,34.516,15.577l-.582-8.815a2.434,2.434,0,0,0-1.677-2.105A3.113,3.113,0,0,0,29,5.286L18.938,15.319,4.943,16.938a2.757,2.757,0,0,0-2.225,1.482,2.176,2.176,0,0,0,.133,2.14L8.01,28.729,1.376,38.917a2.177,2.177,0,0,0,.141,2.632,3.059,3.059,0,0,0,3.464.827l11.971-4.647L25.2,43.067a3.121,3.121,0,0,0,1.686.483,3.209,3.209,0,0,0,1.135-.206,2.538,2.538,0,0,0,1.6-1.661l3.365-12.03,12.849-8.077a2.3,2.3,0,0,0,1.118-2.425A2.632,2.632,0,0,0,44.687,17.171Z" fill="#61616b"></path></g></svg>