<svg xmlns="http://www.w3.org/2000/svg" height="64" width="64" viewBox="0 0 64 64"><title>shape circle 3</title><g fill="#61616b" class="nc-icon-wrapper"><path fill="#61616b" d="M38,1H26c-0.553,0-1,0.448-1,1v12c0,0.552,0.447,1,1,1h12c0.553,0,1-0.448,1-1V2C39,1.448,38.553,1,38,1z"></path> <path fill="#61616b" d="M14,25H2c-0.553,0-1,0.448-1,1v12c0,0.552,0.447,1,1,1h12c0.553,0,1-0.448,1-1V26C15,25.448,14.553,25,14,25 z"></path> <path fill="#61616b" d="M62,25H50c-0.553,0-1,0.448-1,1v12c0,0.552,0.447,1,1,1h12c0.553,0,1-0.448,1-1V26 C63,25.448,62.553,25,62,25z"></path> <path fill="#61616b" d="M38,49H26c-0.553,0-1,0.448-1,1v12c0,0.552,0.447,1,1,1h12c0.553,0,1-0.448,1-1V50 C39,49.448,38.553,49,38,49z"></path> <path data-color="color-2" fill="#61616b" d="M10.832,23c2.326-5.476,6.696-9.84,12.168-12.165V8.68 C16.426,11.213,11.219,16.421,8.682,23H10.832z"></path> <path data-color="color-2" fill="#61616b" d="M41,10.836C46.477,13.16,50.842,17.519,53.167,23h2.152 C52.783,16.413,47.582,11.211,41,8.678V10.836z"></path> <path data-color="color-2" fill="#61616b" d="M23,53.167C17.523,50.842,13.159,46.475,10.835,41H8.68 c2.534,6.579,7.739,11.784,14.32,14.32V53.167z"></path> <path data-color="color-2" fill="#61616b" d="M53.166,41C50.842,46.483,46.483,50.842,41,53.166v2.157 C47.59,52.788,52.788,47.59,55.322,41H53.166z"></path></g></svg>