<svg xmlns="http://www.w3.org/2000/svg" height="32" width="32" viewBox="0 0 32 32"><title>shape custom 4</title><g fill="#61616b" class="nc-icon-wrapper"><path d="M30.153,11.029,23.471,9.982l-.38-5.757h0a2,2,0,0,0-1.349-1.712,2.452,2.452,0,0,0-2.558.5L12.4,9.778,2.97,10.869A2.2,2.2,0,0,0,1.2,12.06a1.8,1.8,0,0,0,.109,1.765l3.408,5.4L.308,26a1.793,1.793,0,0,0,.116,2.168,2.408,2.408,0,0,0,2.723.66l8.011-3.109,5.489,3.552a2.427,2.427,0,0,0,1.316.383,2.521,2.521,0,0,0,.892-.163,2.046,2.046,0,0,0,1.286-1.345L22.4,20.059l8.655-5.442a1.876,1.876,0,0,0,.905-1.985A2.108,2.108,0,0,0,30.153,11.029Z" fill="#61616b"></path></g></svg>