<svg xmlns="http://www.w3.org/2000/svg" height="32" width="32" viewBox="0 0 32 32"><title>shape polygon 6</title><g fill="#61616b" class="nc-icon-wrapper"><path fill="#61616b" d="M31,22h-2.78l-2.4-12H27c0.552,0,1-0.448,1-1V3c0-0.552-0.448-1-1-1h-6c-0.552,0-1,0.448-1,1v2h-8V3 c0-0.552-0.448-1-1-1H5C4.448,2,4,2.448,4,3v6c0,0.552,0.448,1,1,1h1.18l-2.4,12H1c-0.552,0-1,0.448-1,1v6c0,0.552,0.448,1,1,1h6 c0.552,0,1-0.448,1-1v-2h16v2c0,0.552,0.448,1,1,1h6c0.552,0,1-0.448,1-1v-6C32,22.448,31.552,22,31,22z M8,25v-2 c0-0.552-0.448-1-1-1H5.82l2.4-12H11c0.552,0,1-0.448,1-1V7h8v2c0,0.552,0.448,1,1,1h2.78l2.4,12H25c-0.552,0-1,0.448-1,1v2H8z"></path></g></svg>