<svg xmlns="http://www.w3.org/2000/svg" height="32" width="32" viewBox="0 0 32 32"><title>shape square 5</title><g fill="#61616b" class="nc-icon-wrapper"><path fill="#61616b" d="M30,1h-6c-0.553,0-1,0.448-1,1v2H9V2c0-0.552-0.447-1-1-1H2C1.447,1,1,1.448,1,2v6c0,0.552,0.447,1,1,1h2v14 H2c-0.553,0-1,0.448-1,1v6c0,0.552,0.447,1,1,1h6c0.553,0,1-0.448,1-1v-2h14v2c0,0.552,0.447,1,1,1h6c0.553,0,1-0.448,1-1v-6 c0-0.552-0.447-1-1-1h-2V9h2c0.553,0,1-0.448,1-1V2C31,1.448,30.553,1,30,1z M26,23h-2c-0.553,0-1,0.448-1,1v2H9v-2 c0-0.552-0.447-1-1-1H6V9h2c0.553,0,1-0.448,1-1V6h14v2c0,0.552,0.447,1,1,1h2V23z"></path></g></svg>