<svg xmlns="http://www.w3.org/2000/svg" height="48" width="48" viewBox="0 0 48 48"><title>sharpener 4</title><g fill="#61616b" class="nc-icon-wrapper"><path fill="#61616b" d="M42.658,11.364C42.873,11.171,43,10.9,43,10.61L43,3c0-1.105-0.895-2-2-2H7C5.895,1,5,1.895,5,3l0,7.61 c0,0.289,0.127,0.56,0.342,0.754C8.938,14.594,11,19.199,11,24c0,4.802-2.062,9.406-5.657,12.636C5.127,36.829,5,37.1,5,37.39L5,45 c0,1.105,0.895,2,2,2h9c0.552,0,1-0.448,1-1l0-21.707c0-3.833,2.954-7.175,6.785-7.29C27.749,16.884,31,20.062,31,24v22 c0,0.552,0.448,1,1,1h9c1.105,0,2-0.895,2-2l0-7.61c0-0.289-0.127-0.56-0.343-0.754C39.062,33.406,37,28.802,37,24 C37,19.199,39.062,14.594,42.658,11.364z"></path> <circle data-color="color-2" fill="#61616b" cx="25.5" cy="31.5" r="2.5"></circle></g></svg>