<svg xmlns="http://www.w3.org/2000/svg" height="64" width="64" viewBox="0 0 64 64"><title>sharpener 3</title><g fill="#61616b" class="nc-icon-wrapper"><path fill="#61616b" d="M57.59,16.834c0.255-0.192,0.41-0.488,0.41-0.807V3c0-1.105-0.895-2-2-2H8C6.895,1,6,1.895,6,3v13.027 c0,0.319,0.155,0.615,0.41,0.807C11.234,20.47,14,25.997,14,32c0,6.003-2.766,11.53-7.59,15.166C6.155,47.358,6,47.654,6,47.973V61 c0,1.105,0.895,2,2,2h14V36c0-5.523,4.477-10,10-10c5.523,0,10,4.477,10,10v27h14c1.105,0,2-0.895,2-2V47.973 c0-0.319-0.155-0.615-0.41-0.807C52.766,43.53,50,38.003,50,32C50,25.997,52.766,20.47,57.59,16.834z"></path> <circle data-color="color-2" fill="#61616b" cx="35" cy="43" r="3"></circle></g></svg>