<svg xmlns="http://www.w3.org/2000/svg" height="32" width="32" viewBox="0 0 32 32"><title>sharpener 5</title><g fill="#61616b" class="nc-icon-wrapper"><circle data-color="color-2" fill="#61616b" cx="17.5" cy="21.5" r="1.5"></circle> <path fill="#61616b" d="M28.601,8.812C28.853,8.624,29,8.328,29,8.014V2c0-0.552-0.448-1-1-1H4C3.448,1,3,1.448,3,2v6.014 c0,0.314,0.147,0.61,0.399,0.799C5.688,10.535,7,13.155,7,16s-1.312,5.465-3.601,7.188C3.147,23.376,3,23.672,3,23.986V30 c0,0.552,0.448,1,1,1h24c0.552,0,1-0.448,1-1v-6.014c0-0.314-0.147-0.61-0.399-0.799C26.312,21.465,25,18.845,25,16 S26.312,10.535,28.601,8.812z M11,29V17c0-2.761,2.239-5,5-5s5,2.239,5,5v12H11z"></path></g></svg>