<svg xmlns="http://www.w3.org/2000/svg" height="64" width="64" viewBox="0 0 64 64"><title>size medium 2</title><g fill="#61616b" class="nc-icon-wrapper"><path d="M12,1H2A1,1,0,0,0,2,3H12a1,1,0,0,0,0-2Z" fill="#61616b"></path> <path d="M12,21H2a1,1,0,0,0,0,2H12a1,1,0,0,0,0-2Z" fill="#61616b"></path> <path d="M12,41H2a1,1,0,0,0,0,2H12a1,1,0,0,0,0-2Z" fill="#61616b"></path> <path d="M12,61H2a1,1,0,0,0,0,2H12a1,1,0,0,0,0-2Z" fill="#61616b"></path> <path d="M2,13H7a1,1,0,0,0,0-2H2a1,1,0,0,0,0,2Z" fill="#61616b"></path> <path d="M2,33H7a1,1,0,0,0,0-2H2a1,1,0,0,0,0,2Z" fill="#61616b"></path> <path d="M2,53H7a1,1,0,0,0,0-2H2a1,1,0,0,0,0,2Z" fill="#61616b"></path> <rect x="25" y="21" width="38" height="42" rx="1" ry="1" fill="#61616b" data-color="color-2"></rect></g></svg>