<svg xmlns="http://www.w3.org/2000/svg" height="48" width="48" viewBox="0 0 48 48"><title>slice 4</title><g fill="#61616b" class="nc-icon-wrapper"><path fill="#61616b" d="M44.207,4.793c-1.251-1.252-2.962-1.877-4.753-1.718c-1.451,0.128-2.789,0.846-3.819,1.876L24.586,16 l7.707,7.707C32.488,23.902,32.744,24,33,24s0.512-0.098,0.707-0.293l10.342-10.342c1.03-1.03,1.748-2.368,1.876-3.819 C46.084,7.755,45.459,6.044,44.207,4.793z"></path> <path data-color="color-2" fill="#61616b" d="M23.172,17.414L2.293,38.293c-0.3,0.3-0.378,0.757-0.194,1.14C2.267,39.782,2.619,40,3,40 c0.037,0,0.074-0.002,0.111-0.006l18-2c0.465-0.051,0.832-0.418,0.883-0.883l0.961-8.651l5.631-5.631L23.172,17.414z"></path></g></svg>