<svg xmlns="http://www.w3.org/2000/svg" height="32" width="32" viewBox="0 0 32 32"><title>slice 5</title><g fill="#61616b" class="nc-icon-wrapper"><path fill="#61616b" d="M14.682,10.904l-14.29,14.29c-0.306,0.306-0.38,0.773-0.185,1.159c0.172,0.339,0.52,0.548,0.892,0.548 c0.051,0,0.102-0.004,0.152-0.012l13-2c0.371-0.057,0.678-0.317,0.797-0.673l1.925-5.776l2.623-2.623L14.682,10.904z"></path> <path data-color="color-2" fill="#61616b" d="M29.932,2.513c-1.636-1.872-4.634-2.224-6.677-0.182c-1.843,1.843-7.159,7.159-7.159,7.159 l5.707,5.707c0.195,0.195,0.451,0.293,0.707,0.293s0.512-0.098,0.707-0.293c0,0,4.014-4.014,6.343-6.343 C31.213,7.201,31.47,4.273,29.932,2.513z"></path></g></svg>