<svg xmlns="http://www.w3.org/2000/svg" height="64" width="64" viewBox="0 0 64 64"><title>slice 3</title><g fill="#61616b" class="nc-icon-wrapper"><path fill="#61616b" d="M59.979,4.979c-2.955-3.476-8.333-4.04-12.071-0.301C44.382,8.203,34.586,18,34.586,18l10.707,10.707 C45.488,28.902,45.744,29,46,29s0.512-0.098,0.707-0.293l12.624-12.624C62.332,13.082,62.728,8.213,59.979,4.979z"></path> <path data-color="color-2" fill="#61616b" d="M33.172,19.414L2.293,50.293c-0.306,0.306-0.38,0.773-0.185,1.159 C2.28,51.792,2.627,52,3,52c0.051,0,0.102-0.004,0.152-0.012l26-4c0.371-0.057,0.678-0.316,0.797-0.672l3.925-11.776l7.712-7.712 L33.172,19.414z"></path></g></svg>