<svg xmlns="http://www.w3.org/2000/svg" height="64" width="64" viewBox="0 0 64 64"><title>space divider 2</title><g fill="#61616b" class="nc-icon-wrapper"><path d="M61,7c.552,0,1,.448,1,1v9.5c0,1.933-1.567,3.5-3.5,3.5H5.5c-1.933,0-3.5-1.567-3.5-3.5V8c0-.552,.448-1,1-1H61Z" fill="#61616b"></path><path d="M3,57c-.552,0-1-.448-1-1v-9.5c0-1.933,1.567-3.5,3.5-3.5H58.5c1.933,0,3.5,1.567,3.5,3.5v9.5c0,.552-.448,1-1,1H3Z" fill="#61616b"></path><path d="M4.5,34.5c-1.379,0-2.5-1.121-2.5-2.5s1.121-2.5,2.5-2.5,2.5,1.121,2.5,2.5-1.121,2.5-2.5,2.5Z" fill="#61616b" data-color="color-2"></path><path d="M18.25,34.5c-1.379,0-2.5-1.121-2.5-2.5s1.121-2.5,2.5-2.5,2.5,1.121,2.5,2.5-1.121,2.5-2.5,2.5Z" fill="#61616b" data-color="color-2"></path><path d="M32,34.5c-1.379,0-2.5-1.121-2.5-2.5s1.121-2.5,2.5-2.5,2.5,1.121,2.5,2.5-1.121,2.5-2.5,2.5Z" fill="#61616b" data-color="color-2"></path><path d="M45.75,34.5c-1.379,0-2.5-1.121-2.5-2.5s1.121-2.5,2.5-2.5,2.5,1.121,2.5,2.5-1.121,2.5-2.5,2.5Z" fill="#61616b" data-color="color-2"></path><path d="M59.5,34.5c-1.379,0-2.5-1.121-2.5-2.5s1.121-2.5,2.5-2.5,2.5,1.121,2.5,2.5-1.121,2.5-2.5,2.5Z" fill="#61616b" data-color="color-2"></path></g></svg>