<svg xmlns="http://www.w3.org/2000/svg" height="32" width="32" viewBox="0 0 32 32"><title>space divider 4</title><g fill="#61616b" class="nc-icon-wrapper"><path d="M2,18c-1.103,0-2-.897-2-2s.897-2,2-2,2,.897,2,2-.897,2-2,2Zm0-2h0Zm0,0h0Zm0,0h0Zm0,0h0Zm0,0h0Zm0,0h0Zm0,0h0Zm0,0h0Z" fill="#61616b" data-color="color-2"></path><path d="M20.667,18c-1.103,0-2-.897-2-2s.897-2,2-2,2,.897,2,2-.897,2-2,2Zm0-2h0Zm0,0h0Zm0,0h0Zm0,0h0Zm0,0h0Zm0,0h0Zm0,0h0Zm0,0h0Z" fill="#61616b" data-color="color-2"></path><path d="M11.333,18c-1.103,0-2-.897-2-2s.897-2,2-2,2,.897,2,2-.897,2-2,2Zm0-2h0Zm0,0h0Zm0,0h0Zm0,0h0Zm0,0h0Zm0,0h0Zm0,0h0Zm0,0h0Z" fill="#61616b" data-color="color-2"></path><path d="M30,18c-1.103,0-2-.897-2-2s.897-2,2-2,2,.897,2,2-.897,2-2,2Zm0-2h0Zm0,0h0Zm0,0h0Zm0,0h0Zm0,0h0Zm0,0h0Zm0,0h0Zm0,0h0Z" fill="#61616b" data-color="color-2"></path><path d="M1,3c-.552,0-1,.448-1,1v3.5c0,1.381,1.119,2.5,2.5,2.5H29.5c1.381,0,2.5-1.119,2.5-2.5v-3.5c0-.552-.448-1-1-1H1Z" fill="#61616b"></path><path d="M31,29c.552,0,1-.448,1-1v-3.5c0-1.381-1.119-2.5-2.5-2.5H2.5c-1.381,0-2.5,1.119-2.5,2.5v3.5c0,.552,.448,1,1,1H31Z" fill="#61616b"></path></g></svg>