<svg xmlns="http://www.w3.org/2000/svg" height="24" width="24" viewBox="0 0 24 24"><title>space divider 5</title><g fill="#61616b" class="nc-icon-wrapper"><path d="M23,2c.552,0,1,.448,1,1v3c0,1.105-.895,2-2,2H2c-1.105,0-2-.895-2-2V3c0-.552,.448-1,1-1H23Z" fill="#61616b"></path><path d="M1,22c-.552,0-1-.448-1-1v-3c0-1.105,.895-2,2-2H22c1.105,0,2,.895,2,2v3c0,.552-.448,1-1,1H1Z" fill="#61616b"></path><path d="M1.5,13.5c-.827,0-1.5-.673-1.5-1.5s.673-1.5,1.5-1.5,1.5,.673,1.5,1.5-.673,1.5-1.5,1.5Z" fill="#61616b" data-color="color-2"></path><path d="M15.5,13.5c-.827,0-1.5-.673-1.5-1.5s.673-1.5,1.5-1.5,1.5,.673,1.5,1.5-.673,1.5-1.5,1.5Z" fill="#61616b" data-color="color-2"></path><path d="M8.5,13.5c-.827,0-1.5-.673-1.5-1.5s.673-1.5,1.5-1.5,1.5,.673,1.5,1.5-.673,1.5-1.5,1.5Z" fill="#61616b" data-color="color-2"></path><path d="M22.5,13.5c-.827,0-1.5-.673-1.5-1.5s.673-1.5,1.5-1.5,1.5,.673,1.5,1.5-.673,1.5-1.5,1.5Z" fill="#61616b" data-color="color-2"></path></g></svg>