<svg xmlns="http://www.w3.org/2000/svg" height="48" width="48" viewBox="0 0 48 48"><title>space divider 3</title><g fill="#61616b" class="nc-icon-wrapper"><path d="M46,5c.552,0,1,.448,1,1v6c0,1.657-1.343,3-3,3H4c-1.657,0-3-1.343-3-3V6c0-.552,.448-1,1-1H46Z" fill="#61616b"></path><path d="M2,43c-.552,0-1-.448-1-1v-6c0-1.657,1.343-3,3-3H44c1.657,0,3,1.343,3,3v6c0,.552-.448,1-1,1H2Z" fill="#61616b"></path><path d="M4,26c-1.103,0-2-.897-2-2s.897-2,2-2,2,.897,2,2-.897,2-2,2Z" fill="#61616b" data-color="color-2"></path><path d="M44,26c-1.103,0-2-.897-2-2s.897-2,2-2,2,.897,2,2-.897,2-2,2Z" fill="#61616b" data-color="color-2"></path><path d="M34,26c-1.103,0-2-.897-2-2s.897-2,2-2,2,.897,2,2-.897,2-2,2Z" fill="#61616b" data-color="color-2"></path><path d="M24,26c-1.103,0-2-.897-2-2s.897-2,2-2,2,.897,2,2-.897,2-2,2Z" fill="#61616b" data-color="color-2"></path><path d="M14,26c-1.103,0-2-.897-2-2s.897-2,2-2,2,.897,2,2-.897,2-2,2Z" fill="#61616b" data-color="color-2"></path></g></svg>