<svg xmlns="http://www.w3.org/2000/svg" height="32" width="32" viewBox="0 0 32 32"><title>sparks 4</title><g fill="#61616b" class="nc-icon-wrapper"><path d="M30,5a3,3,0,0,1-3-3,1,1,0,0,0-2,0,3,3,0,0,1-3,3,1,1,0,0,0,0,2,3,3,0,0,1,3,3,1,1,0,0,0,2,0,3,3,0,0,1,3-3,1,1,0,0,0,0-2Z" fill="#61616b" data-color="color-2"></path><path d="M10,25a3,3,0,0,1-3-3,1,1,0,0,0-2,0,3,3,0,0,1-3,3,1,1,0,0,0,0,2,3,3,0,0,1,3,3,1,1,0,0,0,2,0,3,3,0,0,1,3-3,1,1,0,0,0,0-2Z" fill="#61616b" data-color="color-2"></path><path d="M23,31a1,1,0,0,1-1-1,6.006,6.006,0,0,0-6-6,1,1,0,0,1,0-2,6.006,6.006,0,0,0,6-6,1,1,0,0,1,2,0,6.006,6.006,0,0,0,6,6,1,1,0,0,1,0,2,6.006,6.006,0,0,0-6,6A1,1,0,0,1,23,31Z" fill="#61616b"></path><path d="M9,17a1,1,0,0,1-1-1,6.006,6.006,0,0,0-6-6A1,1,0,0,1,2,8,6.006,6.006,0,0,0,8,2a1,1,0,0,1,2,0,6.006,6.006,0,0,0,6,6,1,1,0,0,1,0,2,6.006,6.006,0,0,0-6,6A1,1,0,0,1,9,17Z" fill="#61616b"></path></g></svg>