<svg xmlns="http://www.w3.org/2000/svg" height="24" width="24" viewBox="0 0 24 24"><title>sparks 5</title><g fill="#61616b" class="nc-icon-wrapper"><path d="M20,7a.75.75,0,0,1-.75-.75,1.5,1.5,0,0,0-1.5-1.5.75.75,0,0,1,0-1.5,1.5,1.5,0,0,0,1.5-1.5.75.75,0,0,1,1.5,0,1.5,1.5,0,0,0,1.5,1.5.75.75,0,0,1,0,1.5,1.5,1.5,0,0,0-1.5,1.5A.75.75,0,0,1,20,7Z" fill="#61616b" data-color="color-2"></path><path d="M4,23a.75.75,0,0,1-.75-.75,1.5,1.5,0,0,0-1.5-1.5.75.75,0,0,1,0-1.5,1.5,1.5,0,0,0,1.5-1.5.75.75,0,0,1,1.5,0,1.5,1.5,0,0,0,1.5,1.5.75.75,0,0,1,0,1.5,1.5,1.5,0,0,0-1.5,1.5A.75.75,0,0,1,4,23Z" fill="#61616b" data-color="color-2"></path><path d="M17,23a1,1,0,0,1-1-1,4,4,0,0,0-4-4,1,1,0,0,1,0-2,4,4,0,0,0,4-4,1,1,0,0,1,2,0,4,4,0,0,0,4,4,1,1,0,0,1,0,2,4,4,0,0,0-4,4A1,1,0,0,1,17,23Z" fill="#61616b"></path><path d="M7,13a1,1,0,0,1-1-1A4,4,0,0,0,2,8,1,1,0,0,1,2,6,4,4,0,0,0,6,2,1,1,0,0,1,8,2a4,4,0,0,0,4,4,1,1,0,0,1,0,2,4,4,0,0,0-4,4A1,1,0,0,1,7,13Z" fill="#61616b"></path></g></svg>