<svg xmlns="http://www.w3.org/2000/svg" height="64" width="64" viewBox="0 0 64 64"><title>sparks 2</title><g fill="#61616b" class="nc-icon-wrapper"><path d="M18,33a1,1,0,0,1-1-1A13.015,13.015,0,0,0,4,19a1,1,0,0,1,0-2A13.015,13.015,0,0,0,17,4a1,1,0,0,1,2,0A13.015,13.015,0,0,0,32,17a1,1,0,0,1,0,2A13.015,13.015,0,0,0,19,32,1,1,0,0,1,18,33Z" fill="#61616b"></path><path d="M46,61a1,1,0,0,1-1-1A13.015,13.015,0,0,0,32,47a1,1,0,0,1,0-2A13.015,13.015,0,0,0,45,32a1,1,0,0,1,2,0A13.015,13.015,0,0,0,60,45a1,1,0,0,1,0,2A13.015,13.015,0,0,0,47,60,1,1,0,0,1,46,61Z" fill="#61616b"></path><path d="M51,23a1,1,0,0,1-1-1,8.009,8.009,0,0,0-8-8,1,1,0,0,1,0-2,8.009,8.009,0,0,0,8-8,1,1,0,0,1,2,0,8.009,8.009,0,0,0,8,8,1,1,0,0,1,0,2,8.009,8.009,0,0,0-8,8A1,1,0,0,1,51,23Z" fill="#61616b" data-color="color-2"></path><path d="M13,61a1,1,0,0,1-1-1,8.009,8.009,0,0,0-8-8,1,1,0,0,1,0-2,8.009,8.009,0,0,0,8-8,1,1,0,0,1,2,0,8.009,8.009,0,0,0,8,8,1,1,0,0,1,0,2,8.009,8.009,0,0,0-8,8A1,1,0,0,1,13,61Z" fill="#61616b" data-color="color-2"></path></g></svg>