<svg xmlns="http://www.w3.org/2000/svg" height="48" width="48" viewBox="0 0 48 48"><title>sparks 3</title><g fill="#61616b" class="nc-icon-wrapper"><path d="M25,14a1,1,0,0,0-1-1,9.01,9.01,0,0,1-9-9,1,1,0,0,0-2,0,9.01,9.01,0,0,1-9,9,1,1,0,0,0,0,2,9.01,9.01,0,0,1,9,9,1,1,0,0,0,2,0,9.01,9.01,0,0,1,9-9A1,1,0,0,0,25,14Z" fill="#61616b"></path><path d="M44,33a9.01,9.01,0,0,1-9-9,1,1,0,0,0-2,0,9.01,9.01,0,0,1-9,9,1,1,0,0,0,0,2,9.01,9.01,0,0,1,9,9,1,1,0,0,0,2,0,9.01,9.01,0,0,1,9-9,1,1,0,0,0,0-2Z" fill="#61616b"></path><path d="M16,37a5.006,5.006,0,0,1-5-5,1,1,0,0,0-2,0,5.006,5.006,0,0,1-5,5,1,1,0,0,0,0,2,5.006,5.006,0,0,1,5,5,1,1,0,0,0,2,0,5.006,5.006,0,0,1,5-5,1,1,0,0,0,0-2Z" fill="#61616b" data-color="color-2"></path><path d="M32,11a5.006,5.006,0,0,1,5,5,1,1,0,0,0,2,0,5.006,5.006,0,0,1,5-5,1,1,0,0,0,0-2,5.006,5.006,0,0,1-5-5,1,1,0,0,0-2,0,5.006,5.006,0,0,1-5,5,1,1,0,0,0,0,2Z" fill="#61616b" data-color="color-2"></path></g></svg>