<svg xmlns="http://www.w3.org/2000/svg" height="12" width="12" viewBox="0 0 12 12"><title>sparks</title><g fill="#61616b" class="nc-icon-wrapper"><path d="M4,12a1,1,0,0,1-1-1A2,2,0,0,0,1,9,1,1,0,0,1,1,7,2,2,0,0,0,3,5,1,1,0,0,1,5,5,2,2,0,0,0,7,7,1,1,0,0,1,7,9a2,2,0,0,0-2,2A1,1,0,0,1,4,12Z" fill="#61616b"></path><path d="M9.5,5a.625.625,0,0,1-.625-.625,1.252,1.252,0,0,0-1.25-1.25.625.625,0,0,1,0-1.25A1.252,1.252,0,0,0,8.875.625a.625.625,0,0,1,1.25,0,1.252,1.252,0,0,0,1.25,1.25.625.625,0,0,1,0,1.25,1.252,1.252,0,0,0-1.25,1.25A.625.625,0,0,1,9.5,5Z" fill="#61616b" data-color="color-2"></path></g></svg>