<svg xmlns="http://www.w3.org/2000/svg" height="32" width="32" viewBox="0 0 32 32"><title>spray can 5</title><g fill="#61616b" class="nc-icon-wrapper"><path data-color="color-2" fill="#61616b" d="M8,9h6V6c0-0.552-0.448-1-1-1H9C8.448,5,8,5.448,8,6V9z"></path> <path data-color="color-2" fill="#61616b" d="M28,7h-4c-0.552,0-1,0.448-1,1s0.448,1,1,1h4c0.552,0,1-0.448,1-1S28.552,7,28,7z"></path> <path data-color="color-2" fill="#61616b" d="M24.364,0.293l-2.828,2.828c-0.39,0.39-0.39,1.024,0,1.414s1.024,0.39,1.414,0l2.828-2.828 c0.39-0.39,0.39-1.024,0-1.414C25.388-0.098,24.754-0.098,24.364,0.293z"></path> <path data-color="color-2" fill="#61616b" d="M24.364,15.707l-2.828-2.828c-0.39-0.39-0.39-1.024,0-1.414c0.39-0.39,1.024-0.39,1.414,0 l2.828,2.828c0.39,0.39,0.39,1.024,0,1.414C25.388,16.098,24.754,16.098,24.364,15.707z"></path> <path fill="#61616b" d="M13,11H9c-3.314,0-6,2.686-6,6v14c0,0.552,0.448,1,1,1h14c0.552,0,1-0.448,1-1V17C19,13.686,16.314,11,13,11 z"></path></g></svg>