<svg xmlns="http://www.w3.org/2000/svg" height="48" width="48" viewBox="0 0 48 48"><title>spray can 4</title><g fill="#61616b" class="nc-icon-wrapper"><path fill="#61616b" d="M4,22v23c0,1.105,0.895,2,2,2h20c1.105,0,2-0.895,2-2V22c0-4.418-3.582-8-8-8h-8C7.582,14,4,17.582,4,22z"></path> <path data-color="color-2" fill="#61616b" d="M11,12h10V7c0-0.552-0.448-1-1-1h-8c-0.552,0-1,0.448-1,1V12z"></path> <path data-color="color-2" fill="#61616b" d="M43,11h-6c-0.552,0-1,0.448-1,1s0.448,1,1,1h6c0.552,0,1-0.448,1-1S43.552,11,43,11z"></path> <path data-color="color-2" fill="#61616b" d="M37.899,0.686l-4.243,4.243c-0.39,0.39-0.39,1.024,0,1.414c0.39,0.39,1.024,0.39,1.414,0 l4.243-4.243c0.39-0.39,0.39-1.024,0-1.414C38.923,0.296,38.29,0.296,37.899,0.686z"></path> <path data-color="color-2" fill="#61616b" d="M37.899,23.314l-4.243-4.243c-0.39-0.39-0.39-1.024,0-1.414c0.39-0.39,1.024-0.39,1.414,0 l4.243,4.243c0.39,0.39,0.39,1.024,0,1.414C38.923,23.704,38.29,23.704,37.899,23.314z"></path></g></svg>