<svg xmlns="http://www.w3.org/2000/svg" height="16" width="16" viewBox="0 0 16 16"><title>spray can 2</title><g fill="#61616b" class="nc-icon-wrapper"><path fill="#61616b" d="M7,7V4H3v3L1.2,9.7C1.1,9.9,1,10.1,1,10.3V15c0,0.6,0.4,1,1,1h6c0.6,0,1-0.4,1-1v-4.7c0-0.2-0.1-0.4-0.2-0.6 L7,7z"></path> <rect data-color="color-2" x="11.5" y="0.8" transform="matrix(0.7071 0.7071 -0.7071 0.7071 5.4289 -8.1066)" fill="#61616b" width="2" height="3.4"></rect> <rect data-color="color-2" x="13" y="6" fill="#61616b" width="3" height="2"></rect> <rect data-color="color-2" x="11.1" y="10.6" transform="matrix(0.7071 0.7071 -0.7071 0.7071 11.8891 -5.5104)" fill="#61616b" width="3" height="2"></rect></g></svg>