<svg xmlns="http://www.w3.org/2000/svg" height="16" width="16" viewBox="0 0 16 16"><title>stack 3</title><g fill="#61616b" class="nc-icon-wrapper"><path d="M15.757,5.571L8.257,1.071c-.158-.095-.356-.095-.514,0L.243,5.571c-.237,.142-.314,.449-.172,.686,.042,.071,.101,.13,.172,.172l7.5,4.5c.158,.095,.356,.095,.514,0l7.5-4.5c.237-.142,.314-.449,.172-.686-.042-.071-.101-.13-.172-.172Z" fill="#61616b"></path><path data-color="color-2" d="M8,15c-.171,0-.343-.044-.496-.132L.504,10.868c-.479-.274-.646-.885-.372-1.364,.273-.479,.884-.648,1.364-.372l6.504,3.717,6.504-3.717c.479-.276,1.09-.107,1.364,.372s.107,1.09-.372,1.364l-7,4c-.153,.088-.325,.132-.496,.132Z" fill="#61616b"></path></g></svg>