<svg xmlns="http://www.w3.org/2000/svg" height="32" width="32" viewBox="0 0 32 32"><title>stamp 5</title><g fill="#61616b" class="nc-icon-wrapper"><path fill="#61616b" d="M29.342,21.061L19,17.3V8.535l2.555-1.703C21.833,6.646,22,6.334,22,6V3c0-0.553-0.447-1-1-1H11 c-0.553,0-1,0.447-1,1v3c0,0.334,0.167,0.646,0.445,0.832L13,8.535V17.3L2.658,21.061C2.263,21.204,2,21.579,2,22v3 c0,0.553,0.447,1,1,1h26c0.553,0,1-0.447,1-1v-3C30,21.579,29.737,21.204,29.342,21.061z"></path> <path data-color="color-2" fill="#61616b" d="M27,28H5v1c0,0.552,0.448,1,1,1h20c0.552,0,1-0.448,1-1V28z"></path></g></svg>