<svg xmlns="http://www.w3.org/2000/svg" height="64" width="64" viewBox="0 0 64 64"><title>stamp 3</title><g fill="#61616b" class="nc-icon-wrapper"><path fill="#61616b" d="M58.342,45.061L37,37.3V14.535l5.555-3.704C42.833,10.645,43,10.333,43,9.999V4c0-0.552-0.448-1-1-1H22 c-0.552,0-1,0.448-1,1v5.999c0,0.334,0.167,0.646,0.445,0.832L27,14.535V37.3L5.658,45.061C5.263,45.204,5,45.58,5,46v7 c0,1.105,0.895,2,2,2h50c1.105,0,2-0.895,2-2v-7C59,45.58,58.737,45.204,58.342,45.061z"></path> <path data-color="color-2" fill="#61616b" d="M55,57H9v2c0,1.105,0.895,2,2,2h42c1.105,0,2-0.895,2-2V57z"></path></g></svg>