<svg xmlns="http://www.w3.org/2000/svg" height="16" width="16" viewBox="0 0 16 16"><title>style</title><g fill="#61616b" class="nc-icon-wrapper"><path d="M14,7.829V14H2V2H8.172l2-2H1A1,1,0,0,0,0,1V15a1,1,0,0,0,1,1H15a1,1,0,0,0,1-1V5.828Z" fill="#61616b"></path><path d="M15.4.6a2.175,2.175,0,0,0-3,0l-3.7,3.7a4.746,4.746,0,0,1,1.916,1.244,5.269,5.269,0,0,1,1.065,1.775L15.4,3.6A2.175,2.175,0,0,0,15.4.6Z" fill="#61616b" data-color="color-2"></path><path d="M4.937,6.9c-1.2,1.2-1.4,5.7-1.4,5.7s4.4-.4,5.6-1.5a2.987,2.987,0,0,0,0-4.2A2.9,2.9,0,0,0,4.937,6.9Z" fill="#61616b" data-color="color-2"></path></g></svg>