<svg xmlns="http://www.w3.org/2000/svg" height="64" width="64" viewBox="0 0 64 64"><title>style 2</title><g fill="#61616b" class="nc-icon-wrapper"><path d="M16,49a1,1,0,0,1-1-1.054c.071-1.3.787-12.833,4.186-16.233h0a9.263,9.263,0,0,1,13.1,13.1c-3.4,3.4-14.93,4.116-16.233,4.187Z" fill="#61616b" data-color="color-2"></path><path d="M58,17.475V58H6V6H46.524l2.122-2H5A1,1,0,0,0,4,5V59a1,1,0,0,0,1,1H59a1,1,0,0,0,1-1V15.353Z" fill="#61616b"></path><path d="M58.536,5.464a5,5,0,0,0-7.072,0L28.3,27.306a11.176,11.176,0,0,1,8.393,8.4L58.536,12.536A5,5,0,0,0,58.536,5.464Z" fill="#61616b" data-color="color-2"></path></g></svg>