<svg xmlns="http://www.w3.org/2000/svg" height="32" width="32" viewBox="0 0 32 32"><title>style 4</title><g fill="#61616b" class="nc-icon-wrapper"><path d="M8,25a1,1,0,0,1-1-1.054c.054-.98.4-5.954,2.022-7.577h0a4.672,4.672,0,0,1,6.607,6.608C14.008,24.6,9.035,24.945,8.054,25A.487.487,0,0,1,8,25Z" fill="#61616b" data-color="color-2"></path><path d="M29,10.778V29H3V3H21.222l2-2H2A1,1,0,0,0,1,2V30a1,1,0,0,0,1,1H30a1,1,0,0,0,1-1V8.778Z" fill="#61616b"></path><path d="M29.975,2.025a3.5,3.5,0,0,0-4.95,0l-11.16,11.16a6.627,6.627,0,0,1,4.946,4.953L29.975,6.975A3.5,3.5,0,0,0,29.975,2.025Z" fill="#61616b" data-color="color-2"></path></g></svg>