<svg xmlns="http://www.w3.org/2000/svg" height="48" width="48" viewBox="0 0 48 48"><title>tablet mobile 3</title><g fill="#61616b" class="nc-icon-wrapper"><path fill="#61616b" d="M27,31H12c-0.552,0-1-0.447-1-1V6c0-0.553,0.448-1,1-1h26c0.552,0,1,0.447,1,1v9h3 c0.342,0,0.677,0.035,1,0.101V4c0-1.654-1.346-3-3-3H4C2.346,1,1,2.346,1,4v28c0,1.654,1.346,3,3,3h23V31z M6,21 c-1.654,0-3-1.346-3-3s1.346-3,3-3s3,1.346,3,3S7.654,21,6,21z"></path> <path data-color="color-2" fill="#61616b" d="M44,17H32c-1.654,0-3,1.346-3,3v24c0,1.654,1.346,3,3,3h12c1.654,0,3-1.346,3-3V20 C47,18.346,45.654,17,44,17z M38,45c-1.103,0-2-0.897-2-2s0.897-2,2-2s2,0.897,2,2S39.103,45,38,45z M44,38c0,0.553-0.448,1-1,1H33 c-0.552,0-1-0.447-1-1V21c0-0.553,0.448-1,1-1h10c0.552,0,1,0.447,1,1V38z"></path></g></svg>