<svg xmlns="http://www.w3.org/2000/svg" height="64" width="64" viewBox="0 0 64 64"><title>tablet mobile 2</title><g fill="#61616b" class="nc-icon-wrapper"><path fill="#61616b" d="M56,1H4C2.343,1,1,2.343,1,4v40c0,1.657,1.343,3,3,3h31v-6H14c-0.552,0-1-0.448-1-1V8c0-0.552,0.448-1,1-1 h38c0.552,0,1,0.448,1,1v15h6V4C59,2.343,57.657,1,56,1z M7,26c-1.105,0-2-0.895-2-2c0-1.105,0.895-2,2-2s2,0.895,2,2 C9,25.105,8.105,26,7,26z"></path> <path data-color="color-2" fill="#61616b" d="M40,25c-1.657,0-3,1.343-3,3v32c0,1.657,1.343,3,3,3h20c1.657,0,3-1.343,3-3V28 c0-1.657-1.343-3-3-3H40z M50,60c-1.105,0-2-0.895-2-2c0-1.105,0.895-2,2-2s2,0.895,2,2C52,59.105,51.105,60,50,60z M59,30v22 c0,0.552-0.448,1-1,1H42c-0.552,0-1-0.448-1-1V30c0-0.552,0.448-1,1-1h16C58.552,29,59,29.448,59,30z"></path></g></svg>