<svg xmlns="http://www.w3.org/2000/svg" height="32" width="32" viewBox="0 0 32 32"><title>tablet mobile 4</title><g fill="#61616b" class="nc-icon-wrapper"><path fill="#61616b" d="M7,20V5c0-0.553,0.448-1,1-1h16c0.552,0,1,0.447,1,1v5h4V3c0-1.654-1.346-3-3-3H3C1.346,0,0,1.346,0,3v19 c0,1.654,1.346,3,3,3h14v-4H8C7.448,21,7,20.553,7,20z M3.5,14C2.672,14,2,13.328,2,12.5C2,11.672,2.672,11,3.5,11S5,11.672,5,12.5 C5,13.328,4.328,14,3.5,14z"></path> <path data-color="color-2" fill="#61616b" d="M30,12h-9c-1.105,0-2,0.895-2,2v16c0,1.105,0.895,2,2,2h9c1.105,0,2-0.895,2-2V14 C32,12.895,31.105,12,30,12z M25.5,30c-0.828,0-1.5-0.672-1.5-1.5s0.672-1.5,1.5-1.5s1.5,0.672,1.5,1.5S26.328,30,25.5,30z M29,25 h-7c-0.552,0-1-0.448-1-1v-9c0-0.552,0.448-1,1-1h7c0.552,0,1,0.448,1,1v9C30,24.552,29.552,25,29,25z"></path></g></svg>