<svg xmlns="http://www.w3.org/2000/svg" height="32" width="32" viewBox="0 0 32 32"><title>texture 4</title><g fill="#61616b" class="nc-icon-wrapper"><polygon points="31 15.586 15.586 31 18.414 31 31 18.414 31 15.586" fill="#61616b"></polygon> <polygon points="23.586 31 26.414 31 31 26.414 31 23.586 23.586 31" fill="#61616b" data-color="color-2"></polygon> <polygon points="7.586 31 10.414 31 31 10.414 31 7.586 7.586 31" fill="#61616b" data-color="color-2"></polygon> <polygon points="1 24.414 24.414 1 21.586 1 1 21.586 1 24.414" fill="#61616b" data-color="color-2"></polygon> <polygon points="31 1 29.586 1 1 29.586 1 31 2.414 31 31 2.414 31 1" fill="#61616b"></polygon> <polygon points="16.414 1 13.586 1 1 13.586 1 16.414 16.414 1" fill="#61616b"></polygon> <polygon points="8.414 1 5.586 1 1 5.586 1 8.414 8.414 1" fill="#61616b" data-color="color-2"></polygon></g></svg>