<svg xmlns="http://www.w3.org/2000/svg" height="64" width="64" viewBox="0 0 64 64"><title>texture 2</title><g fill="#61616b" class="nc-icon-wrapper"><polygon points="43.172 2 2 43.172 2 48.828 48.828 2 43.172 2" fill="#61616b" data-color="color-2"></polygon> <polygon points="32.828 2 27.172 2 2 27.172 2 32.828 32.828 2" fill="#61616b"></polygon> <polygon points="16.828 2 11.172 2 2 11.172 2 16.828 16.828 2" fill="#61616b" data-color="color-2"></polygon> <polygon points="62 2 59.172 2 2 59.172 2 62 4.828 62 62 4.828 62 2" fill="#61616b"></polygon> <polygon points="62 20.828 62 15.172 15.172 62 20.828 62 62 20.828" fill="#61616b" data-color="color-2"></polygon> <polygon points="47.172 62 52.828 62 62 52.828 62 47.172 47.172 62" fill="#61616b" data-color="color-2"></polygon> <polygon points="62 31.172 31.172 62 36.828 62 62 36.828 62 31.172" fill="#61616b"></polygon></g></svg>