<svg xmlns="http://www.w3.org/2000/svg" height="32" width="32" viewBox="0 0 32 32"><title>three dimensional object 4</title><g fill="#61616b" class="nc-icon-wrapper"><path d="M31.447,26.105,26,23.382V12c0-2.681-3.8-4.741-9-4.976V2a1,1,0,0,0-2,0V7.024C9.8,7.259,6,9.319,6,12V23.382L.553,26.105a1,1,0,0,0,.894,1.79l4.941-2.471C7.557,27.536,11.3,29,16,29s8.443-1.464,9.612-3.576L30.553,27.9a1,1,0,1,0,.894-1.79ZM16,15c-4.883,0-8-1.776-8-3s3.117-3,8-3,8,1.776,8,3S20.883,15,16,15Z" fill="#61616b"></path></g></svg>