<svg xmlns="http://www.w3.org/2000/svg" height="24" width="24" viewBox="0 0 24 24"><title>three dimensional object 5</title><g fill="#61616b" class="nc-icon-wrapper"><path d="M23.447,19.105,20,17.382V8c0-2.405-3.377-3.757-7-3.967V1a1,1,0,0,0-2,0V4.033C7.377,4.243,4,5.6,4,8v9.382L.553,19.105a1,1,0,0,0,.894,1.79l2.992-1.5C5.582,21.111,8.805,22,12,22s6.418-.889,7.561-2.6l2.992,1.5a1,1,0,0,0,.894-1.79ZM12,10C8.278,10,6,8.705,6,8s2.278-2,6-2,6,1.3,6,2S15.722,10,12,10Z" fill="#61616b"></path></g></svg>