<svg xmlns="http://www.w3.org/2000/svg" height="48" width="48" viewBox="0 0 48 48"><title>three dimensional object 3</title><g fill="#61616b" class="nc-icon-wrapper"><path d="M8.031,38.366,2.553,41.105a1,1,0,0,0,.894,1.79l5.082-2.541A5.75,5.75,0,0,1,8.031,38.366Z" fill="#61616b" data-color="color-2"></path><path d="M45.447,41.105l-5.478-2.739a5.75,5.75,0,0,1-.5,1.988L44.553,42.9a1,1,0,1,0,.894-1.79Z" fill="#61616b" data-color="color-2"></path><path d="M24,8c.339,0,.668.016,1,.027V2a1,1,0,0,0-2,0V8.027C23.332,8.016,23.661,8,24,8Z" fill="#61616b" data-color="color-2"></path><path d="M24,10c-7.851,0-14,3.075-14,7V38c0,3.925,6.149,7,14,7s14-3.075,14-7V17C38,13.075,31.851,10,24,10Zm0,2c7.072,0,12,2.635,12,5s-4.928,5-12,5-12-2.635-12-5S16.928,12,24,12Z" fill="#61616b"></path></g></svg>