<svg xmlns="http://www.w3.org/2000/svg" height="64" width="64" viewBox="0 0 64 64"><title>three dimensional object 2</title><g fill="#61616b" class="nc-icon-wrapper"><path d="M11.028,50.368,3.553,54.105a1,1,0,0,0,.894,1.79l6.922-3.461A8.266,8.266,0,0,1,11.028,50.368Z" fill="#61616b" data-color="color-2"></path><path d="M60.447,54.105l-7.475-3.737a8.266,8.266,0,0,1-.341,2.066L59.553,55.9a1,1,0,1,0,.894-1.79Z" fill="#61616b" data-color="color-2"></path><path d="M32,11c.34,0,.666.018,1,.025V3a1,1,0,0,0-2,0v8.025C31.334,11.018,31.66,11,32,11Z" fill="#61616b" data-color="color-2"></path><path d="M32,13c-11.01,0-19,4.206-19,10V50c0,5.794,7.99,10,19,10s19-4.206,19-10V23C51,17.206,43.01,13,32,13Zm0,2c9.532,0,17,3.514,17,8s-7.468,8-17,8-17-3.514-17-8S22.468,15,32,15Z" fill="#61616b"></path></g></svg>