<svg xmlns="http://www.w3.org/2000/svg" height="32" width="32" viewBox="0 0 32 32"><title>time machine 4</title><g fill="#61616b" class="nc-icon-wrapper"><path data-color="color-2" d="M16,6a1,1,0,0,0-1,1v9a1,1,0,0,0,1,1h9a1,1,0,0,0,0-2H17V7A1,1,0,0,0,16,6Z" fill="#61616b"></path><path d="M20.99.8A16.005,16.005,0,0,0,0,16a1,1,0,0,0,1,1H1a1,1,0,0,0,1-1A14.005,14.005,0,0,1,28.5,9.679,14,14,0,0,1,8.073,27.546l2.892-2.892a1,1,0,0,0-.513-1.688l-8.617-1.7A1,1,0,0,0,.658,22.433l1.617,8.7a1,1,0,0,0,1.69.525l2.683-2.683A16,16,0,1,0,20.99.8Z" fill="#61616b"></path></g></svg>