<svg xmlns="http://www.w3.org/2000/svg" height="32" width="32" viewBox="0 0 32 32"><title>todo 5</title><g fill="#61616b" class="nc-icon-wrapper"><path fill="#61616b" d="M29,4h-4v3h2v22H5V7h2V4H3C2.447,4,2,4.448,2,5v26c0,0.552,0.447,1,1,1h26c0.553,0,1-0.448,1-1V5 C30,4.448,29.553,4,29,4z"></path> <path data-color="color-2" fill="#61616b" d="M20,4c0-2.209-1.791-4-4-4s-4,1.791-4,4H9v5h14V4H20z"></path> <path data-color="color-2" fill="#61616b" d="M15,23c-0.256,0-0.512-0.098-0.707-0.293L10.586,19L12,17.586l3,3l6-6L22.414,16l-6.707,6.707 C15.512,22.902,15.256,23,15,23z"></path></g></svg>