<svg xmlns="http://www.w3.org/2000/svg" height="32" width="32" viewBox="0 0 32 32"><title>tool select 4</title><g fill="#61616b" class="nc-icon-wrapper"><path d="M2,4H6V2H1A1,1,0,0,0,0,3V7H2Z" fill="#61616b"></path> <path d="M31,2H26V4h4V7h2V3A1,1,0,0,0,31,2Z" fill="#61616b"></path> <rect x="8" y="2" width="7" height="2" fill="#61616b"></rect> <rect x="17" y="2" width="7" height="2" fill="#61616b"></rect> <rect x="8" y="28" width="7" height="2" fill="#61616b"></rect> <rect x="17" y="28" width="7" height="2" fill="#61616b"></rect> <path d="M2,25H0v4a1,1,0,0,0,1,1H6V28H2Z" fill="#61616b"></path> <path d="M30,28H26v2h5a1,1,0,0,0,1-1V25H30Z" fill="#61616b"></path> <rect y="9" width="2" height="6" fill="#61616b"></rect> <rect y="17" width="2" height="6" fill="#61616b"></rect> <rect x="30" y="9" width="2" height="6" fill="#61616b"></rect> <rect x="30" y="17" width="2" height="6" fill="#61616b"></rect> <rect x="5" y="7" width="22" height="18" fill="#61616b" data-color="color-2"></rect></g></svg>