<svg xmlns="http://www.w3.org/2000/svg" height="48" width="48" viewBox="0 0 48 48"><title>tool select 3</title><g fill="#61616b" class="nc-icon-wrapper"><path d="M3,6A1,1,0,0,1,4,5h6V3H4A3,3,0,0,0,1,6v5H3Z" fill="#61616b"></path> <path d="M44,3H38V5h6a1,1,0,0,1,1,1v5h2V6A3,3,0,0,0,44,3Z" fill="#61616b"></path> <rect x="14" y="3" width="8" height="2" fill="#61616b"></rect> <rect x="26" y="3" width="8" height="2" fill="#61616b"></rect> <path d="M4,45h6V43H4a1,1,0,0,1-1-1V37H1v5A3,3,0,0,0,4,45Z" fill="#61616b"></path> <path d="M45,42a1,1,0,0,1-1,1H38v2h6a3,3,0,0,0,3-3V37H45Z" fill="#61616b"></path> <rect x="14" y="43" width="8" height="2" fill="#61616b"></rect> <rect x="26" y="43" width="8" height="2" fill="#61616b"></rect> <rect x="1" y="15" width="2" height="7" fill="#61616b"></rect> <rect x="1" y="26" width="2" height="7" fill="#61616b"></rect> <rect x="45" y="15" width="2" height="7" fill="#61616b"></rect> <rect x="45" y="26" width="2" height="7" fill="#61616b"></rect> <rect x="9" y="11" width="30" height="26" rx="1" ry="1" fill="#61616b" data-color="color-2"></rect></g></svg>