<svg xmlns="http://www.w3.org/2000/svg" height="32" width="32" viewBox="0 0 32 32"><title>tool hand 2</title><g fill="#61616b" class="nc-icon-wrapper"><path d="M29.5,3A1.5,1.5,0,0,0,28,4.5V14a1,1,0,0,1-1,1h0a1,1,0,0,1-1-1V3.107a2.074,2.074,0,0,0-1.664-2.08A2,2,0,0,0,22,3V14a1,1,0,0,1-1,1h0a1,1,0,0,1-1-1V2.107A2.074,2.074,0,0,0,18.336.027,2,2,0,0,0,16,2V14a1,1,0,0,1-1,1h0a1,1,0,0,1-1-1V3.107a2.074,2.074,0,0,0-1.664-2.08A2,2,0,0,0,10,3V18.586a1,1,0,0,1-1.707.707l-4.01-4.01a2.163,2.163,0,0,0-2.461-.478,2.065,2.065,0,0,0-.884,2.863L6.133,26.9A10,10,0,0,0,14.849,32H21A10,10,0,0,0,31,22V4.5A1.5,1.5,0,0,0,29.5,3Z" fill="#61616b"></path></g></svg>