<svg xmlns="http://www.w3.org/2000/svg" height="64" width="64" viewBox="0 0 64 64"><title>tool select 2</title><g fill="#61616b" class="nc-icon-wrapper"><path d="M3,8A1,1,0,0,1,4,7h7V5H4A3,3,0,0,0,1,8v5H3Z" fill="#61616b"></path> <path d="M60,5H53V7h7a1,1,0,0,1,1,1v5h2V8A3,3,0,0,0,60,5Z" fill="#61616b"></path> <rect x="17" y="5" width="12" height="2" fill="#61616b"></rect> <rect x="35" y="5" width="12" height="2" fill="#61616b"></rect> <rect x="17" y="57" width="12" height="2" fill="#61616b"></rect> <rect x="35" y="57" width="12" height="2" fill="#61616b"></rect> <path d="M3,56V51H1v5a3,3,0,0,0,3,3h7V57H4A1,1,0,0,1,3,56Z" fill="#61616b"></path> <path d="M61,56a1,1,0,0,1-1,1H53v2h7a3,3,0,0,0,3-3V51H61Z" fill="#61616b"></path> <rect x="1" y="19" width="2" height="10" fill="#61616b"></rect> <rect x="1" y="35" width="2" height="10" fill="#61616b"></rect> <rect x="61" y="19" width="2" height="10" fill="#61616b"></rect> <rect x="61" y="35" width="2" height="10" fill="#61616b"></rect> <rect x="11" y="15" width="42" height="34" rx="1" ry="1" fill="#61616b" data-color="color-2"></rect></g></svg>