<svg xmlns="http://www.w3.org/2000/svg" height="16" width="16" viewBox="0 0 16 16"><title>tool select</title><g fill="#61616b" class="nc-icon-wrapper"><path d="M0,1V4H2V2H4V0H1A1,1,0,0,0,0,1Z" fill="#61616b"></path> <path d="M15,0H12V2h2V4h2V1A1,1,0,0,0,15,0Z" fill="#61616b"></path> <rect x="6" width="4" height="2" fill="#61616b" data-color="color-2"></rect> <path d="M2,12H0v3a1,1,0,0,0,1,1H4V14H2Z" fill="#61616b"></path> <path d="M14,14H12v2h3a1,1,0,0,0,1-1V12H14Z" fill="#61616b"></path> <rect x="6" y="14" width="4" height="2" fill="#61616b" data-color="color-2"></rect> <rect y="6" width="2" height="4" fill="#61616b" data-color="color-2"></rect> <rect x="14" y="6" width="2" height="4" fill="#61616b" data-color="color-2"></rect></g></svg>