<svg xmlns="http://www.w3.org/2000/svg" height="24" width="24" viewBox="0 0 24 24"><title>tool select 5</title><g fill="#61616b" class="nc-icon-wrapper"><path d="M2,3H6V1H1A1,1,0,0,0,0,2V7H2Z" fill="#61616b"></path> <path d="M23,1H18V3h4V7h2V2A1,1,0,0,0,23,1Z" fill="#61616b"></path> <rect x="9" y="1" width="6" height="2" fill="#61616b"></rect> <path d="M2,17H0v5a1,1,0,0,0,1,1H6V21H2Z" fill="#61616b"></path> <path d="M22,21H18v2h5a1,1,0,0,0,1-1V17H22Z" fill="#61616b"></path> <rect x="9" y="21" width="6" height="2" fill="#61616b"></rect> <rect y="10" width="2" height="4" fill="#61616b"></rect> <rect x="22" y="10" width="2" height="4" fill="#61616b"></rect> <rect x="5" y="6" width="14" height="12" fill="#61616b" data-color="color-2"></rect></g></svg>