<svg xmlns="http://www.w3.org/2000/svg" height="64" width="64" viewBox="0 0 64 64"><title>tool hand 3</title><g fill="#61616b" class="nc-icon-wrapper"><path d="M57.839,5A3.114,3.114,0,0,0,55,8.17V27.5A1.5,1.5,0,0,1,53.5,29h0A1.5,1.5,0,0,1,52,27.5V7.172a4.116,4.116,0,0,0-3.607-4.153A4,4,0,0,0,44,7V27.5A1.5,1.5,0,0,1,42.5,29h0A1.5,1.5,0,0,1,41,27.5V5.172a4.116,4.116,0,0,0-3.607-4.153A4,4,0,0,0,33,5V27.5A1.5,1.5,0,0,1,31.5,29h0A1.5,1.5,0,0,1,30,27.5V7.172a4.116,4.116,0,0,0-3.607-4.153A4,4,0,0,0,22,7V38.289a3,3,0,0,1-4.269,2.719l-7.9-3.686a4.369,4.369,0,0,0-4.65.518,4.219,4.219,0,0,0-.343,6.141L17.091,56.812A20,20,0,0,0,31.556,63H41A20,20,0,0,0,61,43V8A3,3,0,0,0,57.839,5Z" fill="#61616b"></path></g></svg>