<svg xmlns="http://www.w3.org/2000/svg" height="64" width="64" viewBox="0 0 64 64"><title>transform origin 3</title><g fill="#61616b" class="nc-icon-wrapper"><path data-color="color-2" fill="#61616b" d="M32,24c-4.411,0-8,3.589-8,8s3.589,8,8,8s8-3.589,8-8S36.411,24,32,24z"></path> <path fill="#61616b" d="M63,32c0-2.967-2.167-5.431-5-5.91V12.91c2.833-0.478,5-2.942,5-5.91c0-3.309-2.691-6-6-6 c-2.967,0-5.431,2.167-5.91,5H37.91C37.431,3.167,34.967,1,32,1s-5.431,2.167-5.91,5H12.91C12.431,3.167,9.967,1,7,1 C3.691,1,1,3.691,1,7c0,2.967,2.167,5.431,5,5.91V26.09C3.167,26.569,1,29.033,1,32s2.167,5.431,5,5.91V51.09 C3.167,51.569,1,54.033,1,57c0,3.309,2.691,6,6,6c2.967,0,5.431-2.167,5.91-5H26.09c0.478,2.833,2.942,5,5.91,5s5.431-2.167,5.91-5 H51.09c0.478,2.833,2.942,5,5.91,5c3.309,0,6-2.691,6-6c0-2.967-2.167-5.431-5-5.91V37.91C60.833,37.431,63,34.967,63,32z M51.09,56 H37.91c-0.478-2.833-2.942-5-5.91-5s-5.431,2.167-5.91,5H12.91c-0.423-2.507-2.403-4.486-4.91-4.91V37.91 c2.833-0.478,5-2.942,5-5.91s-2.167-5.431-5-5.91V12.91c2.507-0.423,4.486-2.403,4.91-4.91H26.09c0.478,2.833,2.942,5,5.91,5 s5.431-2.167,5.91-5H51.09c0.423,2.507,2.403,4.486,4.91,4.91V26.09c-2.833,0.478-5,2.942-5,5.91s2.167,5.431,5,5.91V51.09 C53.493,51.514,51.514,53.493,51.09,56z"></path></g></svg>