<svg xmlns="http://www.w3.org/2000/svg" height="16" width="16" viewBox="0 0 16 16"><title>transform origin 2</title><g fill="#61616b" class="nc-icon-wrapper"><path data-color="color-2" fill="#61616b" d="M9,10H7c-0.552,0-1-0.448-1-1V7c0-0.552,0.448-1,1-1h2c0.552,0,1,0.448,1,1v2 C10,9.552,9.552,10,9,10z"></path> <path fill="#61616b" d="M16,3V1c0-0.552-0.448-1-1-1h-2c-0.552,0-1,0.448-1,1h-2c0-0.552-0.448-1-1-1H7C6.448,0,6,0.448,6,1H4 c0-0.552-0.448-1-1-1H1C0.448,0,0,0.448,0,1v2c0,0.552,0.448,1,1,1v2C0.448,6,0,6.448,0,7v2c0,0.552,0.448,1,1,1v2 c-0.552,0-1,0.448-1,1v2c0,0.552,0.448,1,1,1h2c0.552,0,1-0.448,1-1h2c0,0.552,0.448,1,1,1h2c0.552,0,1-0.448,1-1h2 c0,0.552,0.448,1,1,1h2c0.552,0,1-0.448,1-1v-2c0-0.552-0.448-1-1-1v-2c0.552,0,1-0.448,1-1V7c0-0.552-0.448-1-1-1V4 C15.552,4,16,3.552,16,3z M13,6c-0.552,0-1,0.448-1,1v2c0,0.552,0.448,1,1,1v2c-0.552,0-1,0.448-1,1h-2c0-0.552-0.448-1-1-1H7 c-0.552,0-1,0.448-1,1H4c0-0.552-0.448-1-1-1v-2c0.552,0,1-0.448,1-1V7c0-0.552-0.448-1-1-1V4c0.552,0,1-0.448,1-1h2 c0,0.552,0.448,1,1,1h2c0.552,0,1-0.448,1-1h2c0,0.552,0.448,1,1,1V6z"></path></g></svg>