<svg xmlns="http://www.w3.org/2000/svg" height="32" width="32" viewBox="0 0 32 32"><title>transform origin 5</title><g fill="#61616b" class="nc-icon-wrapper"><path fill="#61616b" d="M32,16c0-1.302-0.838-2.402-2-2.816V5.816C31.162,5.402,32,4.302,32,3c0-1.654-1.345-3-3-3 c-1.302,0-2.402,0.839-2.816,2h-7.369C18.402,0.839,17.302,0,16,0s-2.402,0.839-2.816,2H5.816C5.402,0.839,4.302,0,3,0 C1.345,0,0,1.346,0,3c0,1.302,0.838,2.402,2,2.816v7.369C0.838,13.598,0,14.698,0,16s0.838,2.402,2,2.816v7.369 C0.838,26.598,0,27.698,0,29c0,1.654,1.345,3,3,3c1.302,0,2.402-0.839,2.816-2h7.369c0.414,1.161,1.514,2,2.816,2 s2.402-0.839,2.816-2h7.369c0.414,1.161,1.514,2,2.816,2c1.655,0,3-1.346,3-3c0-1.302-0.838-2.402-2-2.816v-7.369 C31.162,18.402,32,17.302,32,16z M13.184,28H5.816C5.514,27.153,4.847,26.486,4,26.184v-7.369C5.162,18.402,6,17.302,6,16 s-0.838-2.402-2-2.816V5.816C4.847,5.514,5.514,4.847,5.816,4h7.369C13.598,5.161,14.698,6,16,6s2.402-0.839,2.816-2h7.369 C26.486,4.847,27.153,5.514,28,5.816v7.369c-1.162,0.414-2,1.514-2,2.816s0.838,2.402,2,2.816v7.369 c-0.847,0.302-1.514,0.969-1.816,1.816h-7.369c-0.414-1.161-1.514-2-2.816-2S13.598,26.839,13.184,28z"></path> <circle data-color="color-2" fill="#61616b" cx="16" cy="16" r="4"></circle></g></svg>