<svg xmlns="http://www.w3.org/2000/svg" height="48" width="48" viewBox="0 0 48 48"><title>transform 4</title><g fill="#61616b" class="nc-icon-wrapper"><path fill="#61616b" d="M45,33H17c-1.105,0-2-0.895-2-2V3c0-1.105,0.895-2,2-2h28c1.105,0,2,0.895,2,2v28C47,32.105,46.105,33,45,33 z"></path> <path data-color="color-2" fill="#61616b" d="M8,47H2c-0.552,0-1-0.448-1-1v-6c0-0.552,0.448-1,1-1h0c0.552,0,1,0.448,1,1v5h5 c0.552,0,1,0.448,1,1l0,0C9,46.552,8.552,47,8,47z"></path> <path data-color="color-2" fill="#61616b" d="M22,47h-6c-0.552,0-1-0.448-1-1l0,0c0-0.552,0.448-1,1-1h5v-5c0-0.552,0.448-1,1-1h0 c0.552,0,1,0.448,1,1v6C23,46.552,22.552,47,22,47z"></path> <path data-color="color-2" fill="#61616b" d="M2,33L2,33c-0.552,0-1-0.448-1-1v-6c0-0.552,0.448-1,1-1h6c0.552,0,1,0.448,1,1v0 c0,0.552-0.448,1-1,1H3v5C3,32.552,2.552,33,2,33z"></path></g></svg>