<svg xmlns="http://www.w3.org/2000/svg" height="32" width="32" viewBox="0 0 32 32"><title>transparent 3</title><g fill="#61616b" class="nc-icon-wrapper"><path d="M3,2H9A0,0,0,0,1,9,2V9A0,0,0,0,1,9,9H2A0,0,0,0,1,2,9V3A1,1,0,0,1,3,2Z" fill="#61616b"></path> <rect x="9" y="9" width="7" height="7" fill="#61616b" data-color="color-2"></rect> <rect x="16" y="2" width="7" height="7" fill="#61616b"></rect> <rect x="2" y="16" width="7" height="7" fill="#61616b"></rect> <rect x="16" y="16" width="7" height="7" fill="#61616b"></rect> <rect x="23" y="9" width="7" height="7" fill="#61616b" data-color="color-2"></rect> <rect x="9" y="23" width="7" height="7" fill="#61616b" data-color="color-2"></rect> <path d="M23,23h7a0,0,0,0,1,0,0v6a1,1,0,0,1-1,1H23a0,0,0,0,1,0,0V23A0,0,0,0,1,23,23Z" fill="#61616b" data-color="color-2"></path></g></svg>