<svg xmlns="http://www.w3.org/2000/svg" height="64" width="64" viewBox="0 0 64 64"><title>transform 3</title><g fill="#61616b" class="nc-icon-wrapper"><path fill="#61616b" d="M61,45H21c-1.105,0-2-0.895-2-2V3c0-1.105,0.895-2,2-2h40c1.105,0,2,0.895,2,2v40C63,44.105,62.105,45,61,45 z"></path> <path data-color="color-2" fill="#61616b" d="M10,63H2c-0.552,0-1-0.448-1-1v-8c0-0.552,0.447-1,1-1s1,0.448,1,1v7h7c0.553,0,1,0.448,1,1 S10.553,63,10,63z"></path> <path data-color="color-2" fill="#61616b" d="M29,62c0,0.552-0.448,1-1,1h-8c-0.553,0-1-0.448-1-1s0.447-1,1-1h7v-8c0-0.552,0.447-1,1-1 s1,0.448,1,1V62z"></path> <path data-color="color-2" fill="#61616b" d="M2,45c-0.553,0-1-0.448-1-1v-8c0-0.552,0.448-1,1-1h8c0.553,0,1,0.448,1,1s-0.447,1-1,1H3v7 C3,44.552,2.553,45,2,45z"></path></g></svg>