<svg xmlns="http://www.w3.org/2000/svg" height="48" width="48" viewBox="0 0 48 48"><title>transform origin 4</title><g fill="#61616b" class="nc-icon-wrapper"><circle data-color="color-2" fill="#61616b" cx="24" cy="24" r="6"></circle> <path fill="#61616b" d="M47,24c0-1.862-1.278-3.413-3-3.859V8.859C45.722,8.412,47,6.862,47,5c0-2.209-1.791-4-4-4 c-1.862,0-3.413,1.278-3.859,3H27.859C27.413,2.278,25.862,1,24,1s-3.413,1.278-3.859,3H8.859C8.413,2.278,6.862,1,5,1 C2.791,1,1,2.791,1,5c0,1.862,1.278,3.412,3,3.859v11.283C2.278,20.587,1,22.138,1,24c0,1.862,1.278,3.412,3,3.859v11.283 C2.278,39.587,1,41.138,1,43c0,2.209,1.791,4,4,4c1.862,0,3.412-1.278,3.859-3h11.283c0.446,1.722,1.997,3,3.859,3 s3.412-1.278,3.859-3h11.283c0.446,1.722,1.997,3,3.859,3c2.209,0,4-1.791,4-4c0-1.862-1.278-3.413-3-3.859V27.859 C45.722,27.412,47,25.862,47,24z M42,27.859v11.283c-1.401,0.363-2.496,1.458-2.859,2.859H27.859c-0.446-1.722-1.997-3-3.859-3 s-3.413,1.278-3.859,3H8.859C8.496,40.599,7.401,39.504,6,39.141V27.859C7.722,27.412,9,25.862,9,24c0-1.862-1.278-3.413-3-3.859 V8.859C7.401,8.496,8.496,7.401,8.859,6h11.283C20.588,7.722,22.138,9,24,9s3.412-1.278,3.859-3h11.283 C39.504,7.401,40.599,8.496,42,8.859v11.283c-1.722,0.446-3,1.997-3,3.859C39,25.862,40.278,27.412,42,27.859z"></path></g></svg>