<svg xmlns="http://www.w3.org/2000/svg" height="16" width="16" viewBox="0 0 16 16"><title>transparent</title><g fill="#61616b" class="nc-icon-wrapper"><path d="M2,1H6A0,0,0,0,1,6,1V6A0,0,0,0,1,6,6H1A0,0,0,0,1,1,6V2A1,1,0,0,1,2,1Z" fill="#61616b"></path> <rect x="6" y="6" width="5" height="5" fill="#61616b" data-color="color-2"></rect> <path d="M11,1h4a1,1,0,0,1,1,1V6a0,0,0,0,1,0,0H11a0,0,0,0,1,0,0V1A0,0,0,0,1,11,1Z" fill="#61616b"></path> <path d="M1,11H6a0,0,0,0,1,0,0v5a0,0,0,0,1,0,0H2a1,1,0,0,1-1-1V11A0,0,0,0,1,1,11Z" fill="#61616b"></path> <path d="M11,11h5a0,0,0,0,1,0,0v4a1,1,0,0,1-1,1H11a0,0,0,0,1,0,0V11A0,0,0,0,1,11,11Z" fill="#61616b"></path></g></svg>