<svg xmlns="http://www.w3.org/2000/svg" height="32" width="32" viewBox="0 0 32 32"><title>transform 5</title><g fill="#61616b" class="nc-icon-wrapper"><path fill="#61616b" d="M31,24H9c-0.553,0-1-0.448-1-1V1c0-0.552,0.447-1,1-1h22c0.553,0,1,0.448,1,1v22C32,23.552,31.553,24,31,24z "></path> <path data-color="color-2" fill="#61616b" d="M5,32H1c-0.553,0-1-0.448-1-1v-4h2v3h3V32z"></path> <path data-color="color-2" fill="#61616b" d="M13,32H9v-2h3v-3h2v4C14,31.552,13.553,32,13,32z"></path> <path data-color="color-2" fill="#61616b" d="M2,23H0v-4c0-0.552,0.447-1,1-1h4v2H2V23z"></path></g></svg>