<svg xmlns="http://www.w3.org/2000/svg" height="64" width="64" viewBox="0 0 64 64"><title>transparent 2</title><g fill="#61616b" class="nc-icon-wrapper"><path d="M4,2H14a0,0,0,0,1,0,0V14a0,0,0,0,1,0,0H2a0,0,0,0,1,0,0V4A2,2,0,0,1,4,2Z" fill="#61616b"></path> <rect x="26" y="2" width="12" height="12" fill="#61616b"></rect> <rect x="14" y="14" width="12" height="12" fill="#61616b" data-color="color-2"></rect> <path d="M50,2H60a2,2,0,0,1,2,2V14a0,0,0,0,1,0,0H50a0,0,0,0,1,0,0V2A0,0,0,0,1,50,2Z" fill="#61616b"></path> <rect x="2" y="26" width="12" height="12" fill="#61616b"></rect> <rect x="26" y="26" width="12" height="12" fill="#61616b"></rect> <rect x="50" y="26" width="12" height="12" fill="#61616b"></rect> <path d="M2,50H14a0,0,0,0,1,0,0V62a0,0,0,0,1,0,0H4a2,2,0,0,1-2-2V50A0,0,0,0,1,2,50Z" fill="#61616b"></path> <rect x="26" y="50" width="12" height="12" fill="#61616b"></rect> <path d="M50,50H62a0,0,0,0,1,0,0V60a2,2,0,0,1-2,2H50a0,0,0,0,1,0,0V50A0,0,0,0,1,50,50Z" fill="#61616b"></path> <rect x="38" y="14" width="12" height="12" fill="#61616b" data-color="color-2"></rect> <rect x="14" y="38" width="12" height="12" fill="#61616b" data-color="color-2"></rect> <rect x="38" y="38" width="12" height="12" fill="#61616b" data-color="color-2"></rect></g></svg>