<svg xmlns="http://www.w3.org/2000/svg" height="64" width="64" viewBox="0 0 64 64"><title>type tool 3</title><g fill="#61616b" class="nc-icon-wrapper"><path d="M61,2h-10c-.552,0-1,.448-1,1V7H14V3c0-.552-.448-1-1-1H3c-.552,0-1,.448-1,1V13c0,.552,.448,1,1,1H13c.552,0,1-.448,1-1v-4H50v4c0,.552,.448,1,1,1h10c.552,0,1-.448,1-1V3c0-.552-.448-1-1-1Z" fill="#61616b"></path><path d="M61,50h-4V18c0-.552-.448-1-1-1s-1,.448-1,1V50h-4c-.552,0-1,.448-1,1v4H14v-4c0-.552-.448-1-1-1h-4V18c0-.552-.448-1-1-1s-1,.448-1,1V50H3c-.552,0-1,.448-1,1v10c0,.552,.448,1,1,1H13c.552,0,1-.448,1-1v-4H50v4c0,.552,.448,1,1,1h10c.552,0,1-.448,1-1v-10c0-.552-.448-1-1-1Z" fill="#61616b"></path><path d="M24,47c-.552,0-1,.448-1,1s.448,1,1,1c3.483,0,6.505-1.993,8-4.896,1.495,2.902,4.517,4.896,8,4.896,.552,0,1-.448,1-1s-.448-1-1-1c-3.86,0-7-3.14-7-7v-3h7c.552,0,1-.448,1-1s-.448-1-1-1h-7v-11c0-3.86,3.14-7,7-7,.552,0,1-.448,1-1s-.448-1-1-1c-3.483,0-6.505,1.993-8,4.896-1.495-2.902-4.517-4.896-8-4.896-.552,0-1,.448-1,1s.448,1,1,1c3.86,0,7,3.14,7,7v11h-7c-.552,0-1,.448-1,1s.448,1,1,1h7v3c0,3.86-3.14,7-7,7Z" fill="#61616b" data-color="color-2"></path></g></svg>