<svg xmlns="http://www.w3.org/2000/svg" height="24" width="24" viewBox="0 0 24 24"><title>type tool</title><g fill="#61616b" class="nc-icon-wrapper"><path d="M23,21c-1.654,0-3-1.346-3-3v-2h2c.552,0,1-.448,1-1s-.448-1-1-1h-2V6c0-1.654,1.346-3,3-3,.552,0,1-.448,1-1s-.448-1-1-1c-1.641,0-3.088,.806-4,2.031-.912-1.225-2.359-2.031-4-2.031-.552,0-1,.448-1,1s.448,1,1,1c1.654,0,3,1.346,3,3V14h-2c-.552,0-1,.448-1,1s.448,1,1,1h2v2c0,1.654-1.346,3-3,3-.552,0-1,.448-1,1s.448,1,1,1c1.641,0,3.088-.806,4-2.031,.912,1.225,2.359,2.031,4,2.031,.552,0,1-.448,1-1s-.448-1-1-1Z" fill="#61616b"></path><path d="M13,17H2V7H14c.552,0,1-.448,1-1s-.448-1-1-1H1c-.552,0-1,.448-1,1v12c0,.552,.448,1,1,1H13c.552,0,1-.448,1-1s-.448-1-1-1Z" fill="#61616b" data-color="color-2"></path></g></svg>