<svg xmlns="http://www.w3.org/2000/svg" height="48" width="48" viewBox="0 0 48 48"><title>type tool 4</title><g fill="#61616b" class="nc-icon-wrapper"><path d="M46,1h-8c-.553,0-1,.448-1,1v3H11V2c0-.552-.447-1-1-1H2c-.553,0-1,.448-1,1V10c0,.552,.447,1,1,1H10c.553,0,1-.448,1-1v-3h26v3c0,.552,.447,1,1,1h8c.553,0,1-.448,1-1V2c0-.552-.447-1-1-1Z" fill="#61616b"></path><path d="M46,37h-3V14c0-.552-.447-1-1-1s-1,.448-1,1v23h-3c-.553,0-1,.448-1,1v3H11v-3c0-.552-.447-1-1-1h-3V14c0-.552-.447-1-1-1s-1,.448-1,1v23H2c-.553,0-1,.448-1,1v8c0,.552,.447,1,1,1H10c.553,0,1-.448,1-1v-3h26v3c0,.552,.447,1,1,1h8c.553,0,1-.448,1-1v-8c0-.552-.447-1-1-1Z" fill="#61616b"></path><path d="M18,35c-.553,0-1,.448-1,1s.447,1,1,1c2.548,0,4.775-1.373,6-3.413,1.225,2.04,3.452,3.413,6,3.413,.553,0,1-.448,1-1s-.447-1-1-1c-2.757,0-5-2.243-5-5v-1h5c.553,0,1-.448,1-1s-.447-1-1-1h-5v-9c0-2.757,2.243-5,5-5,.553,0,1-.448,1-1s-.447-1-1-1c-2.548,0-4.775,1.373-6,3.413-1.225-2.04-3.452-3.413-6-3.413-.553,0-1,.448-1,1s.447,1,1,1c2.757,0,5,2.243,5,5v9h-5c-.553,0-1,.448-1,1s.447,1,1,1h5v1c0,2.757-2.243,5-5,5Z" fill="#61616b" data-color="color-2"></path></g></svg>