<svg xmlns="http://www.w3.org/2000/svg" height="32" width="32" viewBox="0 0 32 32"><title>type tool 5</title><g fill="#61616b" class="nc-icon-wrapper"><path d="M31,28c-2.206,0-4-1.794-4-4v-3h3c.553,0,1-.448,1-1s-.447-1-1-1h-3V8c0-2.206,1.794-4,4-4,.553,0,1-.448,1-1s-.447-1-1-1c-2.086,0-3.924,1.071-5,2.69-1.076-1.62-2.914-2.69-5-2.69-.553,0-1,.448-1,1s.447,1,1,1c2.206,0,4,1.794,4,4v11h-3c-.553,0-1,.448-1,1s.447,1,1,1h3v3c0,2.206-1.794,4-4,4-.553,0-1,.448-1,1s.447,1,1,1c2.086,0,3.924-1.071,5-2.69,1.076,1.62,2.914,2.69,5,2.69,.553,0,1-.448,1-1s-.447-1-1-1Z" fill="#61616b"></path><path d="M21,25c.553,0,1-.448,1-1s-.447-1-1-1H8v-2c0-.552-.447-1-1-1h-2V12h2c.553,0,1-.448,1-1v-2h13c.553,0,1-.448,1-1s-.447-1-1-1H8v-2c0-.552-.447-1-1-1H1c-.553,0-1,.448-1,1v6c0,.552,.447,1,1,1H3v8H1c-.553,0-1,.448-1,1v6c0,.552,.447,1,1,1H7c.553,0,1-.448,1-1v-2h13Z" fill="#61616b" data-color="color-2"></path></g></svg>