<svg xmlns="http://www.w3.org/2000/svg" height="16" width="16" viewBox="0 0 16 16"><title>type tool 2</title><g fill="#61616b" class="nc-icon-wrapper"><path d="M15,14c-1.103,0-2-.897-2-2h1c.552,0,1-.448,1-1s-.448-1-1-1h-1V4c0-1.103,.897-2,2-2,.552,0,1-.448,1-1s-.448-1-1-1c-1.2,0-2.266,.542-3,1.382-.734-.84-1.8-1.382-3-1.382-.552,0-1,.448-1,1s.448,1,1,1c1.103,0,2,.897,2,2v6h-1c-.552,0-1,.448-1,1s.448,1,1,1h1c0,1.103-.897,2-2,2-.552,0-1,.448-1,1s.448,1,1,1c1.2,0,2.266-.542,3-1.382,.734,.84,1.8,1.382,3,1.382,.552,0,1-.448,1-1s-.448-1-1-1Z" fill="#61616b"></path><path data-color="color-2" d="M6,10H2V6h6c.552,0,1-.448,1-1s-.448-1-1-1H1c-.552,0-1,.448-1,1v6c0,.552,.448,1,1,1H6c.552,0,1-.448,1-1s-.448-1-1-1Z" fill="#61616b"></path></g></svg>