<svg xmlns="http://www.w3.org/2000/svg" height="48" width="48" viewBox="0 0 48 48"><title>typography 4</title><g fill="#61616b" class="nc-icon-wrapper"><path d="M41.98,1.804c-.093-.467-.504-.804-.98-.804H7c-.477,0-.887,.336-.98,.804l-2,10c-.059,.294,.017,.599,.207,.83,.19,.232,.474,.366,.773,.366h2c.498,0,.919-.366,.99-.858,.036-.251,.936-6.142,6.01-6.142h6V38.806c0,1.888-1.412,3.488-3.285,3.722l-3.839,.48c-.5,.062-.876,.488-.876,.992v2c0,.552,.448,1,1,1h22c.552,0,1-.448,1-1v-2c0-.504-.375-.93-.876-.992l-3.839-.48c-1.873-.234-3.285-1.834-3.285-3.722V6h6c5.047,0,5.974,5.893,6.01,6.142,.07,.493,.492,.858,.99,.858h2c.3,0,.583-.134,.773-.366,.19-.231,.266-.536,.207-.83l-2-10Z" fill="#61616b"></path></g></svg>