<svg xmlns="http://www.w3.org/2000/svg" height="64" width="64" viewBox="0 0 64 64"><title>typography 3</title><g fill="#61616b" class="nc-icon-wrapper"><path d="M56,2H8c-.477,0-.887,.336-.98,.804l-3,15c-.059,.294,.017,.599,.207,.83,.19,.232,.474,.366,.773,.366h4c.474,0,.882-.332,.979-.795,.019-.092,2.005-9.205,9.021-9.205h8V50.521c0,2.604-1.955,4.744-4.547,4.979l-5.543,.504c-.515,.047-.91,.479-.91,.996v4c0,.552,.448,1,1,1h30c.552,0,1-.448,1-1v-4c0-.517-.395-.949-.91-.996l-5.543-.504c-2.592-.235-4.547-2.376-4.547-4.979V9h8c6.993,0,9.002,9.114,9.021,9.206,.098,.462,.506,.794,.979,.794h4c.3,0,.583-.134,.773-.366,.19-.231,.266-.536,.207-.83l-3-15c-.093-.467-.504-.804-.98-.804Z" fill="#61616b"></path></g></svg>