<svg xmlns="http://www.w3.org/2000/svg" height="24" width="24" viewBox="0 0 24 24"><title>typography</title><g fill="#61616b" class="nc-icon-wrapper"><path d="M20.99,1.402c-.047-.233-.252-.402-.49-.402H3.5c-.238,0-.443,.168-.49,.402l-1,5c-.029,.147,.009,.299,.104,.415,.095,.116,.237,.183,.387,.183h1c.229,0,.429-.156,.485-.378,.009-.037,.945-3.622,3.515-3.622h2.5v15.5c0,2.461-3.358,2.5-3.501,2.5-.275,0-.499,.225-.499,.5v1c0,.276,.224,.5,.5,.5h11c.276,0,.5-.224,.5-.5v-1c0-.275-.224-.499-.499-.5-.143,0-3.501-.039-3.501-2.5V3h2.5c2.57,0,3.506,3.585,3.515,3.622,.056,.222,.256,.378,.485,.378h1c.15,0,.292-.067,.387-.183,.095-.116,.133-.268,.104-.415l-1-5Z" fill="#61616b"></path></g></svg>