<svg xmlns="http://www.w3.org/2000/svg" height="32" width="32" viewBox="0 0 32 32"><title>typography 5</title><g fill="#61616b" class="nc-icon-wrapper"><path d="M27.986,1.835c-.08-.482-.498-.835-.986-.835H5c-.489,0-.906,.354-.986,.835l-1,6c-.089,.537,.267,1.043,.801,1.144,.062,.012,.125,.018,.186,.018,.464,0,.879-.326,.979-.795,.036-.171,.95-4.202,6.021-4.202h2V26c0,.123-.045,3-4,3-.552,0-1,.448-1,1s.448,1,1,1h14c.552,0,1-.448,1-1s-.448-1-1-1c-3.834,0-3.995-2.701-4-3V4h2c5.071,0,5.984,4.03,6.02,4.196,.095,.475,.512,.804,.979,.804,.06,0,.121-.005,.181-.017,.537-.098,.896-.609,.806-1.148l-1-6Z" fill="#61616b"></path></g></svg>