<svg xmlns="http://www.w3.org/2000/svg" height="16" width="16" viewBox="0 0 16 16"><title>typography 2</title><g fill="#61616b" class="nc-icon-wrapper"><path d="M14.895,2.553l-1-2c-.169-.339-.516-.553-.895-.553H3c-.379,0-.725,.214-.895,.553L1.105,2.553c-.247,.494-.047,1.095,.447,1.342,.496,.248,1.095,.046,1.342-.447l.724-1.447h3.382V14h-2c-.552,0-1,.448-1,1s.448,1,1,1h6c.552,0,1-.448,1-1s-.448-1-1-1h-2V2h3.382l.724,1.447c.175,.351,.528,.553,.896,.553,.15,0,.303-.034,.446-.105,.494-.247,.694-.848,.447-1.342Z" fill="#61616b"></path></g></svg>