<svg xmlns="http://www.w3.org/2000/svg" height="64" width="64" viewBox="0 0 64 64"><title>ungroup 3</title><g fill="#61616b" class="nc-icon-wrapper"><path data-color="color-2" fill="#61616b" d="M62,27c0.553,0,1-0.447,1-1v-8c0-0.553-0.447-1-1-1h-8c-0.553,0-1,0.447-1,1v3H42 c-0.553,0-1,0.447-1,1s0.447,1,1,1h11v3c0,0.553,0.447,1,1,1h3v26h-3c-0.553,0-1,0.447-1,1v3H27v-3c0-0.553-0.447-1-1-1h-3V42 c0-0.553-0.447-1-1-1s-1,0.447-1,1v11h-3c-0.553,0-1,0.447-1,1v8c0,0.553,0.447,1,1,1h8c0.553,0,1-0.447,1-1v-3h26v3 c0,0.553,0.447,1,1,1h8c0.553,0,1-0.447,1-1v-8c0-0.553-0.447-1-1-1h-3V27H62z"></path> <path fill="#61616b" d="M46,11c0.553,0,1-0.447,1-1V2c0-0.553-0.447-1-1-1h-8c-0.553,0-1,0.447-1,1v3H11V2c0-0.553-0.447-1-1-1H2 C1.447,1,1,1.447,1,2v8c0,0.553,0.447,1,1,1h3v26H2c-0.553,0-1,0.447-1,1v8c0,0.553,0.447,1,1,1h8c0.553,0,1-0.447,1-1v-3h26v3 c0,0.553,0.447,1,1,1h8c0.553,0,1-0.447,1-1v-8c0-0.553-0.447-1-1-1h-3V11H46z M41,37h-3c-0.553,0-1,0.447-1,1v3H11v-3 c0-0.553-0.447-1-1-1H7V11h3c0.553,0,1-0.447,1-1V7h26v3c0,0.553,0.447,1,1,1h3V37z"></path></g></svg>