<svg xmlns="http://www.w3.org/2000/svg" height="64" width="64" viewBox="0 0 64 64"><title>usb 3</title><g fill="#61616b" class="nc-icon-wrapper"><path data-color="color-2" d="M46,1H18a1,1,0,0,0-1,1V17H47V2A1,1,0,0,0,46,1ZM27,13a1,1,0,0,1-2,0V7a1,1,0,0,1,2,0Zm12,0a1,1,0,0,1-2,0V7a1,1,0,0,1,2,0Z" fill="#61616b"></path><path d="M52,19H12a1,1,0,0,0-1,1V57a6.029,6.029,0,0,0,6,6H47a6.029,6.029,0,0,0,6-6V20A1,1,0,0,0,52,19ZM46,43a1,1,0,0,1-1,1H19a1,1,0,0,1-1-1V27a1,1,0,0,1,1-1H45a1,1,0,0,1,1,1Z" fill="#61616b"></path></g></svg>