<svg xmlns="http://www.w3.org/2000/svg" height="48" width="48" viewBox="0 0 48 48"><title>usb 4</title><g fill="#61616b" class="nc-icon-wrapper"><path d="M39,16H9a1,1,0,0,0-1,1V42a5.006,5.006,0,0,0,5,5H35a5.006,5.006,0,0,0,5-5V17A1,1,0,0,0,39,16ZM34,34a1,1,0,0,1-1,1H15a1,1,0,0,1-1-1V23a1,1,0,0,1,1-1H33a1,1,0,0,1,1,1Z" fill="#61616b"></path><path data-color="color-2" d="M34,1H14a1,1,0,0,0-1,1V14H35V2A1,1,0,0,0,34,1ZM21,10a1,1,0,0,1-2,0V6a1,1,0,0,1,2,0Zm8,0a1,1,0,0,1-2,0V6a1,1,0,0,1,2,0Z" fill="#61616b"></path></g></svg>