<svg xmlns="http://www.w3.org/2000/svg" height="64" width="64" viewBox="0 0 64 64"><title>vector 3</title><g fill="#61616b" class="nc-icon-wrapper"><path fill="#61616b" d="M57,9c-2.967,0-5.432,2.167-5.91,5H39V9c0-0.552-0.448-1-1-1H26c-0.552,0-1,0.448-1,1v5H12.91 C12.432,11.167,9.967,9,7,9c-3.309,0-6,2.691-6,6s2.691,6,6,6c2.967,0,5.431-2.167,5.91-5H25v5c0,0.552,0.448,1,1,1h12 c0.552,0,1-0.448,1-1v-5h12.09c0.478,2.833,2.943,5,5.91,5c3.309,0,6-2.691,6-6S60.309,9,57,9z"></path> <path data-color="color-2" fill="#61616b" d="M9,41v1H4c-0.552,0-1,0.448-1,1v12c0,0.552,0.448,1,1,1h12c0.552,0,1-0.448,1-1V43 c0-0.552-0.448-1-1-1h-5v-1c0-8.164,4.798-15.53,12-18.961v-2.189C14.639,23.418,9,31.74,9,41z"></path> <path data-color="color-2" fill="#61616b" d="M55,41v1h5c0.552,0,1,0.448,1,1v12c0,0.552-0.448,1-1,1H48c-0.552,0-1-0.448-1-1V43 c0-0.552,0.448-1,1-1h5v-1c0-8.164-4.798-15.53-12-18.961v-2.189C49.361,23.418,55,31.74,55,41z"></path></g></svg>