<svg xmlns="http://www.w3.org/2000/svg" height="16" width="16" viewBox="0 0 16 16"><title>wand 2</title><g fill="#61616b" class="nc-icon-wrapper"><path d="M9.707,7.293l-1-1c-.391-.391-1.023-.391-1.414,0l-1.97,1.97,2.414,2.414,1.97-1.97c.391-.391,.391-1.023,0-1.414Z" fill="#61616b"></path><path d="M4.263,9.323L.293,13.293c-.391,.391-.391,1.023,0,1.414l1,1c.195,.195,.451,.293,.707,.293s.512-.098,.707-.293l3.97-3.97-2.414-2.414Z" fill="#61616b"></path><path d="M8,3.25c-.552,0-1-.447-1-1V1c0-.553,.448-1,1-1s1,.447,1,1v1.25c0,.553-.448,1-1,1Z" fill="#61616b" data-color="color-2"></path><path d="M4,5c-.256,0-.512-.098-.707-.293l-1-1c-.391-.391-.391-1.023,0-1.414s1.023-.391,1.414,0l1,1c.391,.391,.391,1.023,0,1.414-.195,.195-.451,.293-.707,.293Z" fill="#61616b" data-color="color-2"></path><path d="M15,9h-1.25c-.552,0-1-.447-1-1s.448-1,1-1h1.25c.552,0,1,.447,1,1s-.448,1-1,1Z" fill="#61616b" data-color="color-2"></path><path d="M13,14c-.256,0-.512-.098-.707-.293l-1-1c-.391-.391-.391-1.023,0-1.414s1.023-.391,1.414,0l1,1c.391,.391,.391,1.023,0,1.414-.195,.195-.451,.293-.707,.293Z" fill="#61616b" data-color="color-2"></path><path d="M12,5c-.256,0-.512-.098-.707-.293-.391-.391-.391-1.023,0-1.414l1-1c.391-.391,1.023-.391,1.414,0s.391,1.023,0,1.414l-1,1c-.195,.195-.451,.293-.707,.293Z" fill="#61616b" data-color="color-2"></path></g></svg>