<svg xmlns="http://www.w3.org/2000/svg" height="64" width="64" viewBox="0 0 64 64"><title>wand 3</title><g fill="#61616b" class="nc-icon-wrapper"><path d="M44.707,25.293l-6-6c-.391-.39-1.024-.39-1.414,0L3.293,53.293c-.39,.391-.39,1.023,0,1.414l6,6c.39,.39,1.023,.39,1.414,0L44.707,26.707c.39-.391,.39-1.023,0-1.414Zm-8.707,7.293l-4.586-4.586,6.586-6.586,4.586,4.586-6.586,6.586Z" fill="#61616b"></path><path d="M38,10c-.553,0-1-.447-1-1V3c0-.553,.447-1,1-1s1,.447,1,1v6c0,.553-.447,1-1,1Z" fill="#61616b" data-color="color-2"></path><path d="M50.021,14.979c-.256,0-.512-.098-.707-.293-.391-.391-.391-1.023,0-1.414l4.243-4.243c.391-.391,1.023-.391,1.414,0s.391,1.023,0,1.414l-4.243,4.243c-.195,.195-.451,.293-.707,.293Z" fill="#61616b" data-color="color-2"></path><path d="M61,27h-6c-.553,0-1-.447-1-1s.447-1,1-1h6c.553,0,1,.447,1,1s-.447,1-1,1Z" fill="#61616b" data-color="color-2"></path><path d="M54.264,43.264c-.256,0-.512-.098-.707-.293l-4.243-4.243c-.391-.391-.391-1.023,0-1.414s1.023-.391,1.414,0l4.243,4.243c.391,.391,.391,1.023,0,1.414-.195,.195-.451,.293-.707,.293Z" fill="#61616b" data-color="color-2"></path><path d="M38,50c-.553,0-1-.447-1-1v-6c0-.553,.447-1,1-1s1,.447,1,1v6c0,.553-.447,1-1,1Z" fill="#61616b" data-color="color-2"></path><path d="M25.979,14.979c-.256,0-.512-.098-.707-.293l-4.243-4.243c-.391-.391-.391-1.023,0-1.414s1.023-.391,1.414,0l4.243,4.243c.391,.391,.391,1.023,0,1.414-.195,.195-.451,.293-.707,.293Z" fill="#61616b" data-color="color-2"></path><path d="M21,27h-6c-.553,0-1-.447-1-1s.447-1,1-1h6c.553,0,1,.447,1,1s-.447,1-1,1Z" fill="#61616b" data-color="color-2"></path></g></svg>