<svg xmlns="http://www.w3.org/2000/svg" height="24" width="24" viewBox="0 0 24 24"><title>wand</title><g fill="#61616b" class="nc-icon-wrapper"><path d="M17.707,9.293l-3-3c-.391-.391-1.023-.391-1.414,0L.293,19.293c-.391,.391-.391,1.023,0,1.414l3,3c.195,.195,.451,.293,.707,.293s.512-.098,.707-.293l13-13c.391-.391,.391-1.023,0-1.414Zm-4.707,3.293l-1.586-1.586,2.586-2.586,1.586,1.586-2.586,2.586Z" fill="#61616b"></path><path d="M15,4c-.552,0-1-.447-1-1V1c0-.553,.448-1,1-1s1,.447,1,1V3c0,.553-.448,1-1,1Z" fill="#61616b" data-color="color-2"></path><path d="M10.757,5.758c-.256,0-.512-.098-.708-.293l-1.414-1.415c-.39-.391-.39-1.024,0-1.414,.391-.391,1.024-.391,1.415,0l1.414,1.415c.39,.391,.39,1.024,0,1.414-.195,.195-.451,.293-.707,.293Z" fill="#61616b" data-color="color-2"></path><path d="M20.657,15.657c-.256,0-.512-.098-.708-.293l-1.414-1.415c-.39-.391-.39-1.024,0-1.414,.391-.391,1.024-.391,1.415,0l1.414,1.415c.39,.391,.39,1.024,0,1.414-.195,.195-.451,.293-.707,.293Z" fill="#61616b" data-color="color-2"></path><path d="M19.243,5.758c-.256,0-.512-.098-.707-.293-.391-.39-.391-1.023,0-1.414l1.414-1.415c.391-.391,1.024-.391,1.415,0,.391,.39,.391,1.023,0,1.414l-1.414,1.415c-.195,.195-.452,.293-.708,.293Z" fill="#61616b" data-color="color-2"></path><path d="M23,10h-2c-.552,0-1-.447-1-1s.448-1,1-1h2c.552,0,1,.447,1,1s-.448,1-1,1Z" fill="#61616b" data-color="color-2"></path></g></svg>