<svg xmlns="http://www.w3.org/2000/svg" height="48" width="48" viewBox="0 0 48 48"><title>wand 4</title><g fill="#61616b" class="nc-icon-wrapper"><path d="M35.707,17.293l-5-5c-.39-.39-1.024-.39-1.414,0L2.293,39.293c-.39,.39-.39,1.024,0,1.414l5,5c.39,.39,1.023,.39,1.414,0l27-27c.39-.39,.39-1.024,0-1.414Zm-6.707,5.293l-3.586-3.586,4.586-4.586,3.586,3.586-4.586,4.586Z" fill="#61616b"></path><path d="M30,8c-.553,0-1-.447-1-1V2c0-.553,.447-1,1-1s1,.447,1,1V7c0,.553-.447,1-1,1Z" fill="#61616b" data-color="color-2"></path><path d="M37.778,11.222c-.256,0-.512-.098-.707-.293-.391-.391-.391-1.023,0-1.414l3.535-3.535c.391-.391,1.023-.391,1.414,0s.391,1.023,0,1.414l-3.535,3.535c-.195,.195-.451,.293-.707,.293Z" fill="#61616b" data-color="color-2"></path><path d="M46,19h-5c-.553,0-1-.447-1-1s.447-1,1-1h5c.553,0,1,.447,1,1s-.447,1-1,1Z" fill="#61616b" data-color="color-2"></path><path d="M41.313,30.313c-.256,0-.512-.098-.707-.293l-3.535-3.535c-.391-.391-.391-1.023,0-1.414s1.023-.391,1.414,0l3.535,3.535c.391,.391,.391,1.023,0,1.414-.195,.195-.451,.293-.707,.293Z" fill="#61616b" data-color="color-2"></path><path d="M22.222,11.222c-.256,0-.512-.098-.707-.293l-3.535-3.535c-.391-.391-.391-1.023,0-1.414s1.023-.391,1.414,0l3.535,3.535c.391,.391,.391,1.023,0,1.414-.195,.195-.451,.293-.707,.293Z" fill="#61616b" data-color="color-2"></path></g></svg>