<svg xmlns="http://www.w3.org/2000/svg" height="32" width="32" viewBox="0 0 32 32"><title>wand 5</title><g fill="#61616b" class="nc-icon-wrapper"><path d="M24.707,11.293l-4-4c-.391-.391-1.023-.391-1.414,0L1.293,25.293c-.391,.391-.391,1.023,0,1.414l4,4c.195,.195,.451,.293,.707,.293s.512-.098,.707-.293L24.707,12.707c.391-.391,.391-1.023,0-1.414Zm-5.707,4.293l-2.586-2.586,3.586-3.586,2.586,2.586-3.586,3.586Z" fill="#61616b"></path><path d="M21,4.5c-.552,0-1-.447-1-1V1c0-.553,.448-1,1-1s1,.447,1,1V3.5c0,.553-.448,1-1,1Z" fill="#61616b" data-color="color-2"></path><path d="M26.303,6.696c-.256,0-.512-.098-.707-.293-.391-.391-.391-1.023,0-1.414l1.768-1.768c.391-.391,1.023-.391,1.414,0s.391,1.023,0,1.414l-1.768,1.768c-.195,.195-.451,.293-.707,.293Z" fill="#61616b" data-color="color-2"></path><path d="M31,12h-2.5c-.552,0-1-.447-1-1s.448-1,1-1h2.5c.552,0,1,.447,1,1s-.448,1-1,1Z" fill="#61616b" data-color="color-2"></path><path d="M28.071,19.071c-.256,0-.512-.098-.707-.293l-1.768-1.768c-.391-.391-.391-1.023,0-1.414s1.023-.391,1.414,0l1.768,1.768c.391,.391,.391,1.023,0,1.414-.195,.195-.451,.293-.707,.293Z" fill="#61616b" data-color="color-2"></path><path d="M15.697,6.696c-.256,0-.512-.098-.707-.293l-1.768-1.768c-.391-.391-.391-1.023,0-1.414s1.023-.391,1.414,0l1.768,1.768c.391,.391,.391,1.023,0,1.414-.195,.195-.451,.293-.707,.293Z" fill="#61616b" data-color="color-2"></path></g></svg>