<svg xmlns="http://www.w3.org/2000/svg" height="48" width="48" viewBox="0 0 48 48"><title>web design 3</title><g fill="#61616b" class="nc-icon-wrapper"><path data-color="color-2" fill="#61616b" d="M28.535,22.465C27.592,21.521,26.336,21,25,21s-2.592,0.521-3.535,1.465 c-1.729,1.729-2.353,7.332-2.46,8.438c-0.029,0.298,0.076,0.593,0.288,0.804C19.481,31.896,19.736,32,20,32 c0.032,0,0.064-0.002,0.097-0.005c1.106-0.107,6.711-0.731,8.438-2.46C29.479,28.592,30,27.336,30,26S29.479,23.408,28.535,22.465z"></path> <path fill="#61616b" d="M45,13v29c0,0.552-0.448,1-1,1H4c-0.552,0-1-0.448-1-1V14c0-0.552,0.448-1,1-1h26.93l10-10H3 C1.895,3,1,3.895,1,5v38c0,1.105,0.895,2,2,2h42c1.105,0,2-0.895,2-2V11.071L45,13z M20,6c1.105,0,2,0.895,2,2c0,1.105-0.895,2-2,2 s-2-0.895-2-2C18,6.895,18.895,6,20,6z M13,6c1.105,0,2,0.895,2,2c0,1.105-0.895,2-2,2s-2-0.895-2-2C11,6.895,11.895,6,13,6z M6,6 c1.105,0,2,0.895,2,2c0,1.105-0.895,2-2,2S4,9.105,4,8C4,6.895,4.895,6,6,6z"></path> <path data-color="color-2" fill="#61616b" d="M47.121,3.879c-1.172-1.172-3.07-1.172-4.242,0L27.348,19.41 c0.967,0.344,1.856,0.894,2.603,1.641c0.747,0.745,1.296,1.634,1.64,2.601L47.121,8.121C48.293,6.95,48.293,5.05,47.121,3.879z"></path> <path data-color="color-2" fill="#61616b" d="M41,35H7c-0.552,0-1,0.448-1,1v3c0,0.552,0.448,1,1,1h34c0.552,0,1-0.448,1-1v-3 C42,35.448,41.552,35,41,35z"></path></g></svg>