<svg xmlns="http://www.w3.org/2000/svg" height="32" width="32" viewBox="0 0 32 32"><title>web design 4</title><g fill="#61616b" class="nc-icon-wrapper"><path data-color="color-2" fill="#61616b" d="M24.343,2H1C0.448,2,0,2.448,0,3v3h20.342L24.343,2z"></path> <path fill="#61616b" d="M22.997,14.661c0.006,1.496-0.578,2.941-1.658,4.021c-1.783,1.783-6.351,2.213-8.23,2.314l-2.226,0.12 l0.12-2.226c0.102-1.88,0.531-6.447,2.314-8.23c1.068-1.068,2.49-1.657,4.005-1.657c0.005,0,0.011,0,0.016,0L18.342,8H0v21 c0,0.552,0.448,1,1,1h30c0.552,0,1-0.448,1-1V8h-2.343L22.997,14.661z"></path> <path data-color="color-2" fill="#61616b" d="M31.414,0.586c-0.781-0.781-2.048-0.781-2.828,0L18.087,11.084 c-1.174-0.247-2.444,0.08-3.356,0.991C13.297,13.51,13,19,13,19s5.49-0.297,6.924-1.731c0.912-0.912,1.238-2.182,0.991-3.356 L31.414,3.414C32.195,2.633,32.195,1.367,31.414,0.586z"></path></g></svg>