<svg xmlns="http://www.w3.org/2000/svg" height="64" width="64" viewBox="0 0 64 64"><title>web design 2</title><g fill="#61616b" class="nc-icon-wrapper"><path fill="#61616b" d="M55.828,18H60c0.552,0,1,0.448,1,1v38c0,0.552-0.448,1-1,1H4c-0.552,0-1-0.448-1-1V19c0-0.552,0.448-1,1-1 h34.171L52.172,4H3C1.895,4,1,4.895,1,6v52c0,1.105,0.895,2,2,2h58c1.105,0,2-0.895,2-2V10.828L55.828,18z M21,9 c1.105,0,2,0.895,2,2c0,1.105-0.895,2-2,2s-2-0.895-2-2C19,9.895,19.895,9,21,9z M14,9c1.105,0,2,0.895,2,2c0,1.105-0.895,2-2,2 s-2-0.895-2-2C12,9.895,12.895,9,14,9z M7,9c1.105,0,2,0.895,2,2c0,1.105-0.895,2-2,2s-2-0.895-2-2C5,9.895,5.895,9,7,9z"></path> <path data-color="color-2" fill="#61616b" d="M61.757,3.243L61.757,3.243c-1.657-1.657-4.343-1.657-6,0L33.708,25.292 c1.427,0.378,2.738,1.119,3.81,2.191c1.072,1.072,1.812,2.383,2.191,3.809L61.757,9.243C63.414,7.586,63.414,4.9,61.757,3.243z"></path> <path data-color="color-2" fill="#61616b" d="M36.104,28.896C34.881,27.674,33.255,27,31.526,27s-3.355,0.674-4.578,1.896 c-2.431,2.43-2.927,11.12-2.947,11.489c-0.009,0.165,0.053,0.327,0.17,0.444c0.11,0.11,0.258,0.171,0.412,0.171 c0.011,0,0.021,0,0.032-0.001c0.369-0.02,9.058-0.516,11.489-2.947C37.326,36.83,38,35.204,38,33.474 C38,31.745,37.326,30.119,36.104,28.896z"></path> <path data-color="color-2" fill="#61616b" d="M56,46H8c-0.552,0-1,0.448-1,1v6c0,0.552,0.448,1,1,1h48c0.552,0,1-0.448,1-1v-6 C57,46.448,56.552,46,56,46z"></path></g></svg>