<svg xmlns="http://www.w3.org/2000/svg" height="32" width="32" viewBox="0 0 32 32"><title>webpage 6</title><g fill="#61616b" class="nc-icon-wrapper"><rect data-color="color-2" x="5" y="13" width="5" height="12" fill="#61616b"></rect><rect data-color="color-2" x="13" y="13" width="14" height="12" fill="#61616b"></rect><path d="M28,2H4C1.791,2,0,3.791,0,6V26c0,2.209,1.791,4,4,4H28c2.209,0,4-1.791,4-4V6c0-2.209-1.791-4-4-4ZM8.75,5c.69,0,1.25,.56,1.25,1.25s-.56,1.25-1.25,1.25-1.25-.56-1.25-1.25,.56-1.25,1.25-1.25Zm-4.5,0c.69,0,1.25,.56,1.25,1.25s-.56,1.25-1.25,1.25-1.25-.56-1.25-1.25,.56-1.25,1.25-1.25ZM30,26c0,1.105-.895,2-2,2H4c-1.105,0-2-.895-2-2V10H30V26Z" fill="#61616b"></path></g></svg>