<svg xmlns="http://www.w3.org/2000/svg" height="48" width="48" viewBox="0 0 48 48"><title>webpage 5</title><g fill="#61616b" class="nc-icon-wrapper"><path d="M42,3H6C3.239,3,1,5.239,1,8V40c0,2.761,2.239,5,5,5H42c2.761,0,5-2.239,5-5V8c0-2.761-2.239-5-5-5ZM14,6c1.105,0,2,.895,2,2s-.895,2-2,2-2-.895-2-2,.895-2,2-2Zm-7,0c1.105,0,2,.895,2,2s-.895,2-2,2-2-.895-2-2,.895-2,2-2ZM45,40c0,1.657-1.343,3-3,3H6c-1.657,0-3-1.343-3-3V13H45v27Z" fill="#61616b"></path><rect data-color="color-2" x="7" y="26" width="8" height="13" rx="1" ry="1" fill="#61616b"></rect><rect data-color="color-2" x="18" y="26" width="23" height="13" rx="1" ry="1" fill="#61616b"></rect><rect data-color="color-2" x="7" y="17" width="34" height="6" rx="1" ry="1" fill="#61616b"></rect></g></svg>