<svg xmlns="http://www.w3.org/2000/svg" height="64" width="64" viewBox="0 0 64 64"><title>width 2</title><g fill="#61616b" class="nc-icon-wrapper"><path d="M51.573,30.181l10,7c.569,.398,.569,1.241,0,1.639l-10,7c-.306,.214-.704,.24-1.035,.067-.331-.172-.538-.514-.538-.887v-5H26c-.552,0-1-.448-1-1v-2c0-.552,.448-1,1-1h24v-5c0-.373,.207-.715,.538-.887,.331-.173,.729-.146,1.035,.067Z" fill="#61616b" data-color="color-2"></path><path d="M2.879,59.707l1.414,1.414c.391,.391,1.024,.391,1.414,0l21.707-21.707c.375-.375,.586-.884,.586-1.414V4c0-.552-.448-1-1-1h-2c-.552,0-1,.448-1,1V37.172L2.879,58.293c-.391,.391-.391,1.024,0,1.414Z" fill="#61616b"></path></g></svg>