<svg xmlns="http://www.w3.org/2000/svg" height="32" width="32" viewBox="0 0 32 32"><title>width 4</title><g fill="#61616b" class="nc-icon-wrapper"><path d="M31.707,19.293l-4-4c-.287-.286-.717-.373-1.09-.217-.374,.154-.617,.52-.617,.924v3H12c-.552,0-1,.448-1,1s.448,1,1,1h14v3c0,.404,.244,.77,.617,.924,.124,.052,.254,.076,.383,.076,.26,0,.516-.102,.707-.293l4-4c.391-.391,.391-1.023,0-1.414Z" fill="#61616b" data-color="color-2"></path><path d="M0,31c0,.256,.098,.512,.293,.707,.391,.391,1.023,.391,1.414,0l11-11c.188-.188,.293-.442,.293-.707V1C13,.447,12.553,0,12,0s-1,.447-1,1V19.586L.293,30.293C.098,30.488,0,30.744,0,31Z" fill="#61616b"></path></g></svg>