<svg xmlns="http://www.w3.org/2000/svg" height="16" width="16" viewBox="0 0 16 16"><title>width</title><g fill="#61616b" class="nc-icon-wrapper"><path d="M6,9h6v-2c0-.202,.122-.385,.309-.462,.187-.078,.402-.035,.545,.108l3,3c.195,.195,.195,.512,0,.707l-3,3c-.143,.143-.358,.186-.545,.108-.187-.077-.309-.26-.309-.462v-2H6c-.552,0-1-.448-1-1h0c0-.552,.448-1,1-1Z" fill="#61616b" data-color="color-2"></path><path d="M0,15C0,15.256,.098,15.512,.293,15.707c.391,.391,1.023,.391,1.414,0l5-5c.188-.188,.293-.442,.293-.707V1C7,.448,6.553,0,6,0s-1,.448-1,1V9.586L.293,14.293C.098,14.488,0,14.744,0,15Z" fill="#61616b"></path></g></svg>