<svg xmlns="http://www.w3.org/2000/svg" height="24" width="24" viewBox="0 0 24 24"><title>width 5</title><g fill="#61616b" class="nc-icon-wrapper"><path d="M8.033,15.032c0-.552,.447-1,1-1h10.399s0-2.536,0-2.536c0-.202,.122-.382,.309-.462,.187-.078,.402-.035,.545,.108l3.536,3.536c.195,.195,.195,.512,0,.707l-3.536,3.536c-.143,.143-.358,.186-.545,.108-.187-.077-.309-.26-.309-.462v-2.536s-10.399,0-10.399,0c-.552,0-1-.447-1-1Z" fill="#61616b" data-color="color-2"></path><path d="M.032,23.032c0,.256,.098,.512,.293,.707,.391,.391,1.023,.391,1.414,0L9.74,15.74c.188-.188,.293-.442,.293-.707V1.032c0-.552-.447-1-1-1s-1,.448-1,1V14.618L.325,22.325c-.195,.195-.293,.451-.293,.707Z" fill="#61616b"></path></g></svg>