<svg xmlns="http://www.w3.org/2000/svg" height="64" width="64" viewBox="0 0 64 64"><title>window responsive 3</title><g fill="#61616b" class="nc-icon-wrapper"><path fill="#61616b" d="M1,18v40c0,1.105,0.895,2,2,2h58c1.105,0,2-0.895,2-2V18H1z M20,40H9.414l4.293,4.293 c0.391,0.391,0.391,1.023,0,1.414C13.512,45.902,13.256,46,13,46s-0.512-0.098-0.707-0.293l-5.999-5.999 c-0.093-0.092-0.166-0.203-0.217-0.326c-0.101-0.244-0.101-0.52,0-0.764c0.051-0.123,0.124-0.233,0.217-0.326l5.999-5.999 c0.391-0.391,1.023-0.391,1.414,0s0.391,1.023,0,1.414L9.414,38H20c0.552,0,1,0.447,1,1S20.552,40,20,40z M37,53 c0,0.553-0.448,1-1,1h-8c-0.552,0-1-0.447-1-1V25c0-0.553,0.448-1,1-1h8c0.552,0,1,0.447,1,1V53z M57.706,39.708l-5.999,5.999 C51.512,45.902,51.256,46,51,46s-0.512-0.098-0.707-0.293c-0.391-0.391-0.391-1.023,0-1.414L54.586,40H44c-0.552,0-1-0.447-1-1 s0.448-1,1-1h10.586l-4.293-4.293c-0.391-0.391-0.391-1.023,0-1.414s1.023-0.391,1.414,0l5.999,5.999 c0.093,0.092,0.166,0.203,0.217,0.326c0.101,0.244,0.101,0.52,0,0.764C57.872,39.505,57.799,39.616,57.706,39.708z"></path> <path data-color="color-2" fill="#61616b" d="M61,4H3C1.895,4,1,4.895,1,6v10h62V6C63,4.895,62.105,4,61,4z M7,12c-1.105,0-2-0.895-2-2 c0-1.105,0.895-2,2-2s2,0.895,2,2C9,11.105,8.105,12,7,12z M14,12c-1.105,0-2-0.895-2-2c0-1.105,0.895-2,2-2s2,0.895,2,2 C16,11.105,15.105,12,14,12z M21,12c-1.105,0-2-0.895-2-2c0-1.105,0.895-2,2-2s2,0.895,2,2C23,11.105,22.105,12,21,12z"></path></g></svg>