<svg xmlns="http://www.w3.org/2000/svg" height="48" width="48" viewBox="0 0 48 48"><title>window responsive 4</title><g fill="#61616b" class="nc-icon-wrapper"><path fill="#61616b" d="M1,14v30c0,1.105,0.895,2,2,2h42c1.105,0,2-0.895,2-2V14H1z M12.707,33.293c0.391,0.391,0.391,1.023,0,1.414 C12.512,34.902,12.256,35,12,35s-0.512-0.098-0.707-0.293l-4-4c-0.391-0.391-0.391-1.023,0-1.414l4-4 c0.391-0.391,1.023-0.391,1.414,0s0.391,1.023,0,1.414L9.414,30L12.707,33.293z M28,41c0,0.553-0.448,1-1,1h-6c-0.552,0-1-0.447-1-1 V19c0-0.553,0.448-1,1-1h6c0.552,0,1,0.447,1,1V41z M40.707,30.707l-4,4C36.512,34.902,36.256,35,36,35s-0.512-0.098-0.707-0.293 c-0.391-0.391-0.391-1.023,0-1.414L38.586,30l-3.293-3.293c-0.391-0.391-0.391-1.023,0-1.414s1.023-0.391,1.414,0l4,4 C41.098,29.684,41.098,30.316,40.707,30.707z"></path> <path data-color="color-2" fill="#61616b" d="M45,2H3C1.895,2,1,2.895,1,4v8h46V4C47,2.895,46.105,2,45,2z M6,9C4.895,9,4,8.105,4,7 s0.895-2,2-2s2,0.895,2,2S7.105,9,6,9z M13,9c-1.105,0-2-0.895-2-2s0.895-2,2-2s2,0.895,2,2S14.105,9,13,9z M20,9 c-1.105,0-2-0.895-2-2s0.895-2,2-2s2,0.895,2,2S21.105,9,20,9z"></path></g></svg>