<svg xmlns="http://www.w3.org/2000/svg" height="64" width="64" viewBox="0 0 64 64"><title>window code 3</title><g fill="#61616b" class="nc-icon-wrapper"><path fill="#61616b" d="M1,18v40c0,1.105,0.895,2,2,2h58c1.105,0,2-0.895,2-2V18H1z M20.707,37.707l-8,8 C12.512,45.902,12.256,46,12,46s-0.512-0.098-0.707-0.293c-0.391-0.391-0.391-1.023,0-1.414L18.586,37l-7.293-7.293 c-0.391-0.391-0.391-1.023,0-1.414s1.023-0.391,1.414,0l8,8C21.098,36.684,21.098,37.316,20.707,37.707z M38,46H26 c-0.552,0-1-0.448-1-1s0.448-1,1-1h12c0.552,0,1,0.448,1,1S38.552,46,38,46z"></path> <path data-color="color-2" fill="#61616b" d="M61,4H3C1.895,4,1,4.895,1,6v10h62V6C63,4.895,62.105,4,61,4z M7,12c-1.105,0-2-0.895-2-2 c0-1.105,0.895-2,2-2s2,0.895,2,2C9,11.105,8.105,12,7,12z M14,12c-1.105,0-2-0.895-2-2c0-1.105,0.895-2,2-2s2,0.895,2,2 C16,11.105,15.105,12,14,12z M21,12c-1.105,0-2-0.895-2-2c0-1.105,0.895-2,2-2s2,0.895,2,2C23,11.105,22.105,12,21,12z"></path></g></svg>