<svg xmlns="http://www.w3.org/2000/svg" height="32" width="32" viewBox="0 0 32 32"><title>window responsive 5</title><g fill="#61616b" class="nc-icon-wrapper"><path data-color="color-2" fill="#61616b" d="M32,6V3c0-0.552-0.447-1-1-1H7v4H32z"></path> <path data-color="color-2" fill="#61616b" d="M5,2H1C0.447,2,0,2.448,0,3v3h5V2z"></path> <path fill="#61616b" d="M0,8v21c0,0.553,0.448,1,1,1h30c0.552,0,1-0.447,1-1V8H0z M10,19H7v3l-5-4l5-4v3h3V19z M19,27h-6V11h6V27z M25,22v-3h-3v-2h3v-3l5,4L25,22z"></path></g></svg>