<svg xmlns="http://www.w3.org/2000/svg" height="48" width="48" viewBox="0 0 48 48"><title>window paragraph 4</title><g fill="#61616b" class="nc-icon-wrapper"><path fill="#61616b" d="M1,14v30c0,1.105,0.895,2,2,2h42c1.105,0,2-0.895,2-2V14H1z M21,36c0,0.553-0.448,1-1,1H8 c-0.552,0-1-0.447-1-1V23c0-0.553,0.448-1,1-1h12c0.552,0,1,0.447,1,1V36z M32,36h-6c-0.552,0-1-0.447-1-1s0.448-1,1-1h6 c0.552,0,1,0.447,1,1S32.552,36,32,36z M40,30H26c-0.552,0-1-0.447-1-1s0.448-1,1-1h14c0.552,0,1,0.447,1,1S40.552,30,40,30z M40,24 H26c-0.552,0-1-0.447-1-1s0.448-1,1-1h14c0.552,0,1,0.447,1,1S40.552,24,40,24z"></path> <path data-color="color-2" fill="#61616b" d="M45,2H3C1.895,2,1,2.895,1,4v8h46V4C47,2.895,46.105,2,45,2z M6,9C4.895,9,4,8.105,4,7 s0.895-2,2-2s2,0.895,2,2S7.105,9,6,9z M13,9c-1.105,0-2-0.895-2-2s0.895-2,2-2s2,0.895,2,2S14.105,9,13,9z M20,9 c-1.105,0-2-0.895-2-2s0.895-2,2-2s2,0.895,2,2S21.105,9,20,9z"></path></g></svg>