<svg xmlns="http://www.w3.org/2000/svg" height="32" width="32" viewBox="0 0 32 32"><title>window paragraph 5</title><g fill="#61616b" class="nc-icon-wrapper"><path fill="#61616b" d="M0,8v21c0,0.553,0.448,1,1,1h30c0.552,0,1-0.447,1-1V8H0z M17,16h11v2H17V16z M17,20h6v2h-6V20z M14,15v8 c0,0.553-0.448,1-1,1H5c-0.552,0-1-0.447-1-1v-8c0-0.553,0.448-1,1-1h8C13.552,14,14,14.447,14,15z"></path> <path data-color="color-2" fill="#61616b" d="M32,6V3c0-0.552-0.447-1-1-1H7v4H32z"></path> <path data-color="color-2" fill="#61616b" d="M5,2H1C0.447,2,0,2.448,0,3v3h5V2z"></path></g></svg>