<svg xmlns="http://www.w3.org/2000/svg" height="48" width="48" viewBox="0 0 48 48"><title>bamboo 3</title><g stroke-linecap="round" fill="#61616b" stroke-linejoin="round" class="nc-icon-wrapper"><path d="M11,14a9,9,0,0,0-9,9A9,9,0,0,0,2,5a9,9,0,0,0,9,9" fill="none" stroke="#61616b" stroke-width="2" data-cap="butt" data-color="color-2"></path><path d="M37,34a9,9,0,0,1,9,9,9,9,0,0,1,0-18,9,9,0,0,1-9,9" fill="none" stroke="#61616b" stroke-width="2" data-cap="butt" data-color="color-2"></path><path d="M37,14a9,9,0,0,1,9-9A9,9,0,0,1,37,14Z" fill="none" stroke="#61616b" stroke-width="2" data-cap="butt" data-color="color-2"></path><line x1="27" y1="24" x2="33" y2="24" fill="none" stroke="#61616b" stroke-width="2" data-cap="butt"></line><line x1="27" y1="14" x2="33" y2="14" fill="none" stroke="#61616b" stroke-width="2" data-cap="butt"></line><line x1="27" y1="34" x2="33" y2="34" fill="none" stroke="#61616b" stroke-width="2" data-cap="butt"></line><line x1="15" y1="24" x2="21" y2="24" fill="none" stroke="#61616b" stroke-width="2" data-cap="butt"></line><line x1="15" y1="14" x2="21" y2="14" fill="none" stroke="#61616b" stroke-width="2" data-cap="butt"></line><line x1="15" y1="34" x2="21" y2="34" fill="none" stroke="#61616b" stroke-width="2" data-cap="butt"></line><rect x="27" y="4" width="6" height="40" fill="none" stroke="#61616b" stroke-width="2"></rect><rect x="15" y="4" width="6" height="40" fill="none" stroke="#61616b" stroke-width="2"></rect></g></svg>