<svg xmlns="http://www.w3.org/2000/svg" height="32" width="32" viewBox="0 0 32 32"><title>bamboo 4</title><g stroke-linecap="round" fill="#61616b" stroke-linejoin="round" class="nc-icon-wrapper"><polygon points="18.999 31 12.999 31 13 16 12.999 1 18.999 1 19 16 18.999 31" fill="none" stroke="#61616b" stroke-width="2"></polygon><path d="M10,10a7,7,0,0,0-7,7A7,7,0,0,0,3,3a7,7,0,0,0,7,7" fill="none" stroke="#61616b" stroke-width="2" data-cap="butt" data-color="color-2"></path><path d="M22,10a7,7,0,0,1,7,7A7,7,0,0,1,29,3a7,7,0,0,1-7,7" fill="none" stroke="#61616b" stroke-width="2" data-cap="butt" data-color="color-2"></path><path d="M22,22a7,7,0,0,1,7,7A7,7,0,0,1,22,22Z" fill="none" stroke="#61616b" stroke-width="2" data-cap="butt" data-color="color-2"></path><line x1="13" y1="10" x2="19" y2="10" fill="none" stroke="#61616b" stroke-width="2" data-cap="butt"></line><line x1="13" y1="22" x2="19" y2="22" fill="none" stroke="#61616b" stroke-width="2" data-cap="butt"></line></g></svg>