<svg xmlns="http://www.w3.org/2000/svg" height="32" width="32" viewBox="0 0 32 32"><title>bat 5</title><g stroke-linecap="round" fill="#61616b" stroke-linejoin="round" class="nc-icon-wrapper"><path data-cap="butt" data-color="color-2" fill="none" stroke="#61616b" stroke-width="2" d="M12,12.5921564 C8.7206173,12.1208334,6.178627,9.3710232,6.0170898,6C3.0214233,7.7272949,1,10.9552612,1,14.6616821 c0,1.7529297,0.4539185,3.3986816,1.2462769,4.8312378C3.036499,18.9699097,3.9814453,18.6616821,5,18.6616821 c2.4984741,0,4.5509644,1.8380127,4.9226074,4.2322998c0.5-0.1495361,1.0288086-0.2322998,1.5773926-0.2322998 c1.8620605,0,3.5049438,0.9277954,4.5,2.34375c0.9950562-1.4159546,2.6379395-2.34375,4.5-2.34375 c0.548584,0,1.0773926,0.0827637,1.5773926,0.2322998C22.4490356,20.4996948,24.5015259,18.6616821,27,18.6616821 c1.0185547,0,1.963501,0.3082275,2.7537231,0.8312378C30.5460815,18.0603638,31,16.4146118,31,14.6616821 C31,10.9552612,28.9785767,7.7272949,25.9829102,6C25.821373,9.3710232,23.2793827,12.1208334,20,12.5921564"></path> <path fill="none" stroke="#61616b" stroke-width="2" d="M17,10h-2l-3-2v5.0000038 C12,15.2091408,13.7908592,17,15.9999962,17h0.0000076C18.2091408,17,20,15.2091408,20,13.0000038V8L17,10z"></path></g></svg>