<svg xmlns="http://www.w3.org/2000/svg" height="16" width="16" viewBox="0 0 16 16"><title>bat 2</title><g fill="#61616b" class="nc-icon-wrapper"><path d="M5.5,5.069a3.41,3.41,0,0,1-2.272-3.2A6.79,6.79,0,0,0,1.493,10.84a4.071,4.071,0,0,1,2.416-.795C5.955,10.045,8,14.136,8,14.136s2.045-4.091,4.091-4.091a4.071,4.071,0,0,1,2.416.8,6.79,6.79,0,0,0-1.735-8.976A3.41,3.41,0,0,1,10.5,5.069" fill="none" stroke="#61616b" stroke-linecap="round" stroke-linejoin="round"></path> <path d="M8,8.5H8A2.5,2.5,0,0,1,5.5,6V2.5l1,1h3l1-1V6A2.5,2.5,0,0,1,8,8.5Z" fill="none" stroke="#61616b" stroke-linecap="round" stroke-linejoin="round" data-color="color-2"></path></g></svg>