<svg xmlns="http://www.w3.org/2000/svg" height="48" width="48" viewBox="0 0 48 48"><title>bat 4</title><g stroke-linecap="round" fill="#61616b" stroke-linejoin="round" class="nc-icon-wrapper"><path data-cap="butt" data-color="color-2" fill="none" stroke="#61616b" stroke-width="2" d="M18,15.7718754 C13.4436903,14.8473005,10.014966,10.8268223,10.0025635,6C5.1514893,9.649292,2,15.4365234,2,21.9746094 c0,3.7963867,1.0771484,7.3327637,2.9140625,10.3564453C6.9012451,30.8721924,9.3458252,30,12,30c6,0,12,12,12,12s6-12,12-12 c2.6541748,0,5.0987549,0.8721924,7.0859375,2.3310547C44.9228516,29.307373,46,25.7709961,46,21.9746094 C46,15.4365234,42.8485107,9.649292,37.9974365,6C37.9850349,10.8268223,34.5563087,14.8473005,30,15.7718754"></path> <path fill="none" stroke="#61616b" stroke-width="2" d="M26,10h-4l-4-4 c0,0,0,8.2233887,0,10c0,3.3137207,2.6862793,6,6,6s6-2.6862793,6-6c0-1.7766113,0-10,0-10L26,10z"></path></g></svg>