<svg xmlns="http://www.w3.org/2000/svg" height="64" width="64" viewBox="0 0 64 64"><title>bat 3</title><g stroke-linecap="round" fill="#61616b" stroke-linejoin="round" class="nc-icon-wrapper"><path data-cap="butt" data-color="color-2" fill="none" stroke="#61616b" stroke-width="2" d="M24,25.1843128 C17.4412346,24.2416668,12.357254,18.7420464,12.0341797,12C6.0428467,15.4545898,2,21.9105225,2,29.3233643 c0,3.5058594,0.9078369,6.7973633,2.4925537,9.6624756C6.072998,37.9398193,7.9628906,37.3233643,10,37.3233643 c4.9969482,0,9.1019287,3.6760254,9.8452148,8.4645996c1-0.2990723,2.0576172-0.4645996,3.1547852-0.4645996 c3.7241211,0,7.0098877,1.8555908,9,4.6875c1.9901123-2.8319092,5.2758789-4.6875,9-4.6875 c1.097168,0,2.1547852,0.1655273,3.1547852,0.4645996C44.8980713,40.9993896,49.0030518,37.3233643,54,37.3233643 c2.0371094,0,3.927002,0.6164551,5.5074463,1.6624756C61.0921631,36.1207275,62,32.8292236,62,29.3233643 C62,21.9105225,57.9571533,15.4545898,51.9658203,12C51.642746,18.7420464,46.5587654,24.2416668,40,25.1843128"></path> <path fill="none" stroke="#61616b" stroke-width="2" d="M34,20h-4l-6-4v10.0000076 C24,30.4182816,27.5817184,34,31.9999924,34h0.0000153C36.4182816,34,40,30.4182816,40,26.0000076V16L34,20z"></path></g></svg>