<svg xmlns="http://www.w3.org/2000/svg" height="64" width="64" viewBox="0 0 64 64"><title>bear 2 3</title><g stroke-linecap="round" fill="#61616b" stroke-linejoin="round" class="nc-icon-wrapper"><circle fill="none" stroke="#61616b" stroke-width="2" cx="32" cy="35" r="27"></circle> <polygon data-color="color-2" fill="none" stroke="#61616b" stroke-width="2" points=" 32,46 36,40 28,40 "></polygon> <line data-color="color-2" fill="none" stroke="#61616b" stroke-width="2" x1="32" y1="46" x2="32" y2="52"></line> <line data-color="color-2" fill="none" stroke="#61616b" stroke-width="2" x1="25" y1="52" x2="39" y2="52"></line> <circle data-color="color-2" fill="none" stroke="#61616b" stroke-width="2" cx="23" cy="30" r="3"></circle> <circle data-color="color-2" fill="none" stroke="#61616b" stroke-width="2" cx="41" cy="30" r="3"></circle> <path data-cap="butt" fill="none" stroke="#61616b" stroke-width="2" d="M23.389,9.411 C21.9,5.101,17.817,2,13,2C6.925,2,2,6.925,2,13c0,4.248,2.412,7.926,5.937,9.759"></path> <path data-cap="butt" fill="none" stroke="#61616b" stroke-width="2" d="M40.611,9.411 C42.1,5.101,46.183,2,51,2c6.075,0,11,4.925,11,11c0,4.248-2.412,7.926-5.937,9.759"></path></g></svg>