<svg xmlns="http://www.w3.org/2000/svg" height="24" width="24" viewBox="0 0 24 24"><title>bear 2</title><g stroke-linecap="round" fill="#61616b" stroke-linejoin="round" class="nc-icon-wrapper"><circle fill="none" stroke="#61616b" stroke-width="2" cx="12" cy="13" r="10"></circle> <path data-cap="butt" fill="none" stroke="#61616b" stroke-width="2" d="M8.722,3.561C8.143,2.065,6.7,1,5,1 C2.791,1,1,2.791,1,5c0,1.511,0.847,2.81,2.083,3.49"></path> <path data-cap="butt" fill="none" stroke="#61616b" stroke-width="2" d="M15.278,3.561 C15.857,2.065,17.3,1,19,1c2.209,0,4,1.791,4,4c0,1.511-0.847,2.81-2.083,3.49"></path> <polygon data-color="color-2" fill="none" stroke="#61616b" stroke-width="2" points=" 12,16 13,14 11,14 "></polygon> <line data-color="color-2" fill="none" stroke="#61616b" stroke-width="2" x1="12" y1="16" x2="12" y2="18"></line> <line data-color="color-2" fill="none" stroke="#61616b" stroke-width="2" x1="10" y1="18" x2="14" y2="18"></line> <circle data-color="color-2" data-stroke="none" fill="#61616b" cx="9" cy="10" r="1" stroke-linejoin="miter" stroke="none"></circle> <circle data-color="color-2" data-stroke="none" fill="#61616b" cx="15" cy="10" r="1" stroke-linejoin="miter" stroke="none"></circle></g></svg>