<svg xmlns="http://www.w3.org/2000/svg" height="32" width="32" viewBox="0 0 32 32"><title>bear 2 5</title><g stroke-linecap="round" fill="#61616b" stroke-linejoin="round" class="nc-icon-wrapper"><path data-cap="butt" fill="none" stroke="#61616b" stroke-width="2" d="M11.928,5.651 C11.519,3.017,9.248,1,6.5,1C3.462,1,1,3.462,1,6.5c0,2.384,1.519,4.409,3.641,5.171"></path> <path data-cap="butt" fill="none" stroke="#61616b" stroke-width="2" d="M20.072,5.651 C20.481,3.017,22.752,1,25.5,1C28.538,1,31,3.462,31,6.5c0,2.384-1.519,4.409-3.641,5.171"></path> <circle fill="none" stroke="#61616b" stroke-width="2" cx="16" cy="18" r="13"></circle> <polygon data-color="color-2" fill="none" stroke="#61616b" stroke-width="2" points=" 16,22 18,19 14,19 "></polygon> <line data-color="color-2" fill="none" stroke="#61616b" stroke-width="2" x1="16" y1="22" x2="16" y2="25"></line> <polygon data-color="color-2" data-stroke="none" fill="#61616b" points="16,22 18,19 14,19 " stroke-linejoin="miter" stroke="none"></polygon> <line data-color="color-2" fill="none" stroke="#61616b" stroke-width="2" x1="13" y1="25" x2="19" y2="25"></line> <circle data-color="color-2" data-stroke="none" fill="#61616b" cx="11.5" cy="14.5" r="1.5" stroke-linejoin="miter" stroke="none"></circle> <circle data-color="color-2" data-stroke="none" fill="#61616b" cx="20.5" cy="14.5" r="1.5" stroke-linejoin="miter" stroke="none"></circle></g></svg>