<svg xmlns="http://www.w3.org/2000/svg" height="48" width="48" viewBox="0 0 48 48"><title>bear 4</title><g stroke-linecap="round" fill="#61616b" stroke-linejoin="round" class="nc-icon-wrapper"><path data-cap="butt" data-color="color-2" fill="none" stroke="#61616b" stroke-width="2" d="M18,32v1 c0,1.65685,1.34314,3,3,3H21c1.65685,0,3-1.34314,3-3v-3.67384"></path> <path data-color="color-2" fill="none" stroke="#61616b" stroke-width="2" d="M20,22h8 c0.82405,0,1.29443,0.94076,0.8,1.6l-4,5.33333c-0.4,0.53333-1.2,0.53333-1.6,0L19.2,23.6C18.70557,22.94076,19.17595,22,20,22z"></path> <path data-cap="butt" data-color="color-2" fill="none" stroke="#61616b" stroke-width="2" d="M30,32v1 c0,1.65685-1.34314,3-3,3H27c-1.65685,0-3-1.34314-3-3"></path> <circle data-color="color-2" fill="none" stroke="#61616b" stroke-width="2" cx="16" cy="16" r="2"></circle> <circle data-color="color-2" fill="none" stroke="#61616b" stroke-width="2" cx="32" cy="16" r="2"></circle> <path data-cap="butt" fill="none" stroke="#61616b" stroke-width="2" d="M7.32482,13.96411 C4.34581,13.61283,2,11.07343,2,8c0-3.31371,2.68629-6,6-6c2.89383,0,5.31054,2.04254,5.87617,4.76865"></path> <path data-cap="butt" fill="none" stroke="#61616b" stroke-width="2" d="M40.67518,13.96411 C43.65419,13.61283,46,11.07343,46,8c0-3.31371-2.68629-6-6-6c-2.89383,0-5.31054,2.04254-5.87617,4.76865"></path> <path fill="none" stroke="#61616b" stroke-width="2" d="M6,20 c0-8.83656,8.05887-16,18-16s18,7.16344,18,16c0,10-8.05888,26-18,26S6,30.08333,6,20z"></path></g></svg>