<svg xmlns="http://www.w3.org/2000/svg" height="48" width="48" viewBox="0 0 48 48"><title>bear 2 4</title><g stroke-linecap="round" fill="#61616b" stroke-linejoin="round" class="nc-icon-wrapper"><circle fill="none" stroke="#61616b" stroke-width="2" cx="24" cy="26" r="20"></circle> <polygon data-color="color-2" fill="none" stroke="#61616b" stroke-width="2" points=" 24,33 27,29 21,29 "></polygon> <polygon data-color="color-2" data-stroke="none" fill="#61616b" points="24,33 27,29 21,29 " stroke-linejoin="miter" stroke="none"></polygon> <line data-color="color-2" fill="none" stroke="#61616b" stroke-width="2" x1="24" y1="33" x2="24" y2="37"></line> <line data-color="color-2" fill="none" stroke="#61616b" stroke-width="2" x1="20" y1="37" x2="28" y2="37"></line> <circle data-color="color-2" data-stroke="none" fill="#61616b" cx="17" cy="22" r="2" stroke-linejoin="miter" stroke="none"></circle> <circle data-color="color-2" data-stroke="none" fill="#61616b" cx="31" cy="22" r="2" stroke-linejoin="miter" stroke="none"></circle> <path data-cap="butt" fill="none" stroke="#61616b" stroke-width="2" d="M13.942,8.71 C13.971,8.471,14,8.247,14,8c0-3.314-2.686-6-6-6S2,4.686,2,8s2.686,6,6,6"></path> <path data-cap="butt" fill="none" stroke="#61616b" stroke-width="2" d="M34.058,8.71 C34.029,8.471,34,8.247,34,8c0-3.314,2.686-6,6-6s6,2.686,6,6s-2.686,6-6,6"></path></g></svg>