<svg xmlns="http://www.w3.org/2000/svg" height="64" width="64" viewBox="0 0 64 64"><title>bear 3</title><g stroke-linecap="round" fill="#61616b" stroke-linejoin="round" class="nc-icon-wrapper"><path data-cap="butt" data-color="color-2" fill="none" stroke="#61616b" stroke-width="2" d="M24,44v2 c0,2.20914,1.79086,4,4,4H28c2.20914,0,4-1.79086,4-4v-5.20156"></path> <path data-cap="butt" data-color="color-2" fill="none" stroke="#61616b" stroke-width="2" d="M40,44v2 c0,2.20914-1.79086,4-4,4H36c-2.20914,0-4-1.79086-4-4"></path> <path data-color="color-2" fill="none" stroke="#61616b" stroke-width="2" d=" M28.16125,32h7.6775c1.67701,0,2.60936,1.93987,1.56174,3.24939l-3.83875,4.79844c-0.80065,1.00081-2.32282,1.00081-3.12347,0 l-3.83875-4.79844C25.55189,33.93987,26.48424,32,28.16125,32z"></path> <circle data-color="color-2" fill="none" stroke="#61616b" stroke-width="2" cx="22" cy="22" r="3"></circle> <circle data-color="color-2" fill="none" stroke="#61616b" stroke-width="2" cx="42" cy="22" r="3"></circle> <path data-cap="butt" fill="none" stroke="#61616b" stroke-width="2" d="M17.79126,8.23853 C16.98694,4.67041,13.81116,2,10,2c-4.41833,0-8,3.58167-8,8c0,4.29932,3.39941,7.77954,7.65308,7.96509"></path> <path data-cap="butt" fill="none" stroke="#61616b" stroke-width="2" d="M46.20874,8.23853 C47.01306,4.67041,50.18884,2,54,2c4.41833,0,8,3.58167,8,8c0,4.29932-3.39941,7.77954-7.65308,7.96509"></path> <path fill="none" stroke="#61616b" stroke-width="2" d="M8,26 C8,13.95015,18.44392,4,32,4s24,9.95015,24,22c0,13.63636-10.44392,36-24,36S8,39.75,8,26z"></path></g></svg>