<svg xmlns="http://www.w3.org/2000/svg" height="48" width="48" viewBox="0 0 48 48"><title>bee 4</title><g stroke-linecap="round" fill="#61616b" stroke-linejoin="round" class="nc-icon-wrapper"><path data-cap="butt" data-color="color-2" fill="none" stroke="#61616b" stroke-width="2" d="M32.94902,31.41601 C31.3074,38.27488,27.91528,46,24,46c-3.92101,0-7.30757-7.71764-8.94646-14.58399"></path> <line data-cap="butt" data-color="color-2" fill="none" stroke="#61616b" stroke-width="2" x1="16.38289" y1="36" x2="31.60267" y2="36"></line> <line data-cap="butt" data-color="color-2" fill="none" stroke="#61616b" stroke-width="2" x1="19.80791" y1="26" x2="28.1921" y2="26"></line> <path fill="none" stroke="#61616b" stroke-width="2" d="M18,8 c0-3.91667,3.79086-6,6-6s6,2.08333,6,6c0,2.20914-3.79086,4-6,4S18,10.20914,18,8z"></path> <path fill="none" stroke="#61616b" stroke-width="2" d="M12.04776,32 C12.04776,32,6,32,2,32c0-10,9.91667-20,22-20c-1.91667,7.08333-4.28963,14.29878-4.28963,14.29878 C18.6952,29.68266,15.58062,32,12.04776,32z"></path> <path fill="none" stroke="#61616b" stroke-width="2" d="M35.95224,32 C35.95224,32,42,32,46,32c0-10-9.91667-20-22-20c1.91667,7.08333,4.28963,14.29878,4.28963,14.29878 C29.3048,29.68266,32.41938,32,35.95224,32z"></path></g></svg>