<svg xmlns="http://www.w3.org/2000/svg" height="32" width="32" viewBox="0 0 32 32"><title>bones 5</title><g stroke-linecap="round" fill="#61616b" stroke-linejoin="round" class="nc-icon-wrapper"><path data-cap="butt" data-color="color-2" fill="none" stroke="#61616b" stroke-width="2" d="M16.0009422,13.0009422 l-5.8796043-5.8796043C10.6642456,6.5784912,11,5.8284302,11,5c0-1.6568604-1.3431396-3-3-3S5,3.3431396,5,5 C3.3431396,5,2,6.3431396,2,8s1.3431396,3,3,3c0.8284302,0,1.5784912-0.3357544,2.1213379-0.8786621l5.8796043,5.8796043"></path> <path data-cap="butt" data-color="color-2" fill="none" stroke="#61616b" stroke-width="2" d="M16.0000687,19.0000687 l5.8785934,5.8785934C21.3357544,25.4215698,21,26.1715698,21,27c0,1.6568604,1.3431396,3,3,3s3-1.3431396,3-3 c1.6568604,0,3-1.3431396,3-3s-1.3431396-3-3-3c-0.8284302,0-1.5784302,0.3357544-2.1213379,0.8786621l-5.8785934-5.8785934"></path> <path fill="none" stroke="#61616b" stroke-width="2" d="M27,5 c0-1.6568604-1.3431396-3-3-3s-3,1.3431396-3,3c0,0.8284302,0.3357544,1.5784912,0.8786621,2.1213379L7.1213379,21.8786621 C6.5784302,21.3357544,5.8284302,21,5,21c-1.6568604,0-3,1.3431396-3,3s1.3431396,3,3,3c0,1.6568604,1.3431396,3,3,3 s3-1.3431396,3-3c0-0.8284302-0.3357544-1.5784302-0.8786621-2.1213379l14.7573242-14.7573242 C25.4215088,10.6642456,26.1715698,11,27,11c1.6568604,0,3-1.3431396,3-3S28.6568604,5,27,5z"></path></g></svg>