<svg xmlns="http://www.w3.org/2000/svg" height="64" width="64" viewBox="0 0 64 64"><title>bones 3</title><g stroke-linecap="round" fill="#61616b" stroke-linejoin="round" class="nc-icon-wrapper"><path data-cap="butt" data-color="color-2" fill="none" stroke="#61616b" stroke-width="2" d="M32.0018845,26.0018845 L20.2426758,14.2426758C21.3284912,13.1569824,22,11.6568604,22,10c0-3.3137207-2.6862793-6-6-6s-6,2.6862793-6,6 c-3.3137207,0-6,2.6862793-6,6s2.6862793,6,6,6c1.6568604,0,3.1569824-0.6715088,4.2426758-1.7573242l11.7592087,11.7592087"></path> <path data-cap="butt" data-color="color-2" fill="none" stroke="#61616b" stroke-width="2" d="M32.0001373,38.0001373 l11.7571869,11.7571869C42.6715088,50.8431396,42,52.3431396,42,54c0,3.3137207,2.6862793,6,6,6s6-2.6862793,6-6 c3.3137207,0,6-2.6862793,6-6s-2.6862793-6-6-6c-1.6568604,0-3.1568604,0.6715088-4.2426758,1.7573242L38.0001373,32.0001373"></path> <path fill="none" stroke="#61616b" stroke-width="2" d="M54,10 c0-3.3137207-2.6862793-6-6-6s-6,2.6862793-6,6c0,1.6568604,0.6715088,3.1569824,1.7573242,4.2426758L14.2426758,43.7573242 C13.1568604,42.6715088,11.6568604,42,10,42c-3.3137207,0-6,2.6862793-6,6s2.6862793,6,6,6c0,3.3137207,2.6862793,6,6,6 s6-2.6862793,6-6c0-1.6568604-0.6715088-3.1568604-1.7573242-4.2426758l29.5146484-29.5146484 C50.8430176,21.3284912,52.3431396,22,54,22c3.3137207,0,6-2.6862793,6-6S57.3137207,10,54,10z"></path></g></svg>