<svg xmlns="http://www.w3.org/2000/svg" height="48" width="48" viewBox="0 0 48 48"><title>bones 4</title><g stroke-linecap="round" fill="#61616b" stroke-linejoin="round" class="nc-icon-wrapper"><path data-cap="butt" data-color="color-2" fill="none" stroke="#61616b" stroke-width="2" d="M24.0018845,18.0018845 l-5.7592087-5.7592087C19.3284912,11.1569824,20,9.6568604,20,8c0-3.3137207-2.6862793-6-6-6S8,4.6862793,8,8 c-3.3137207,0-6,2.6862793-6,6s2.6862793,6,6,6c1.6568604,0,3.1569824-0.6715088,4.2426758-1.7573242l5.7592087,5.7592087"></path> <path data-cap="butt" data-color="color-2" fill="none" stroke="#61616b" stroke-width="2" d="M24.0001373,30.0001373 l5.7571869,5.7571869C28.6715088,36.8431396,28,38.3431396,28,40c0,3.3137207,2.6862793,6,6,6s6-2.6862793,6-6 c3.3137207,0,6-2.6862793,6-6s-2.6862793-6-6-6c-1.6568604,0-3.1568604,0.6715088-4.2426758,1.7573242l-5.7571869-5.7571869"></path> <path fill="none" stroke="#61616b" stroke-width="2" d="M40,8 c0-3.3137207-2.6862793-6-6-6s-6,2.6862793-6,6c0,1.6568604,0.6715088,3.1569824,1.7573242,4.2426758L12.2426758,29.7573242 C11.1568604,28.6715088,9.6568604,28,8,28c-3.3137207,0-6,2.6862793-6,6s2.6862793,6,6,6c0,3.3137207,2.6862793,6,6,6 s6-2.6862793,6-6c0-1.6568604-0.6715088-3.1568604-1.7573242-4.2426758l17.5146484-17.5146484 C36.8430176,19.3284912,38.3431396,20,40,20c3.3137207,0,6-2.6862793,6-6S43.3137207,8,40,8z"></path></g></svg>