<svg xmlns="http://www.w3.org/2000/svg" height="16" width="16" viewBox="0 0 16 16"><title>border collie</title><g fill="#61616b" class="nc-icon-wrapper"><path d="M10.342,13.107c.556,1.264,1.745,2.186,3.169,2.36l.489-1.467,1.5,1c0-6.712-1.839-6.988-1.99-11.406-.012-.342,.314-.596,.644-.505,.502,.139,.938,.433,1.262,.824,.053-.212,.084-.434,.084-.662,0-1.519-1.231-2.75-2.75-2.75v-.006c-.701,0-1.339,.263-1.824,.694-.507,.451-1.199,.598-1.858,.435-.342-.084-.7-.124-1.068-.124-.368,0-.727,.039-1.068,.124-.659,.162-1.351,.016-1.858-.435-.485-.432-1.123-.694-1.824-.694v.006C1.731,.5,.5,1.731,.5,3.25c0,.229,.031,.45,.084,.662,.324-.391,.761-.685,1.262-.824,.33-.091,.656,.163,.644,.505-.152,4.418-1.99,4.695-1.99,11.406l1.5-1,.489,1.467c1.424-.174,2.612-1.096,3.169-2.36" fill="none" stroke="#61616b" stroke-linecap="round" stroke-linejoin="round"></path><circle cx="4.75" cy="5.75" r=".75" fill="#61616b" data-stroke="none" stroke="none"></circle><circle cx="11.25" cy="5.75" r=".75" fill="#61616b" data-stroke="none" stroke="none"></circle><path d="M8,12.972c-.318,.325-.76,.528-1.25,.528-.966,0-1.75-.784-1.75-1.75,0-2.02,2.25-3.75,2.25-7.25,0-.414,.25-1,.75-1s.75,.586,.75,1c0,3.5,2.25,5.23,2.25,7.25,0,.966-.784,1.75-1.75,1.75-.49,0-.932-.203-1.25-.528Z" fill="none" stroke="#61616b" stroke-linecap="round" stroke-linejoin="round" data-color="color-2"></path><path d="M8.75,11.882c0,.211-.336,.618-.75,.618s-.75-.408-.75-.618,.336-.382,.75-.382,.75,.171,.75,.382Z" fill="#61616b" stroke="#61616b" stroke-linecap="round" stroke-linejoin="round"></path></g></svg>