<svg xmlns="http://www.w3.org/2000/svg" height="64" width="64" viewBox="0 0 64 64"><title>border collie 2</title><g stroke-linecap="round" fill="#61616b" stroke-linejoin="round" class="nc-icon-wrapper"><circle cx="20.5" cy="22.5" r="1.5" fill="#61616b" stroke="#61616b" stroke-width="2" data-cap="butt"></circle><circle cx="43.5" cy="22.5" r="1.5" fill="#61616b" stroke="#61616b" stroke-width="2" data-cap="butt"></circle><path d="M39.802,49.641c1.714,4.862,6.031,8.494,11.285,9.214l2.913-4.854,5,3c0-24.542-8-25-8-42,2.95,0,5.594,1.285,7.424,3.318,.366-1.04,.576-2.153,.576-3.318,0-5.523-4.477-10-10-10-2.523,0-4.824,.937-6.581,2.48-1.599,1.405-3.781,2.018-5.788,1.31-1.449-.511-3.007-.79-4.631-.79s-3.182,.279-4.631,.79c-2.007,.708-4.189,.095-5.788-1.31-1.757-1.543-4.058-2.48-6.581-2.48-5.523,0-10,4.477-10,10,0,1.165,.209,2.278,.576,3.318,1.282-1.424,2.963-2.481,4.869-2.986,1.293-.343,2.565,.681,2.501,2.017-.699,14.752-7.946,16.293-7.946,39.651l5-3,2.913,4.854c5.254-.72,9.572-4.351,11.285-9.214" fill="none" stroke="#61616b" stroke-width="2" data-cap="butt"></path><path d="M35,45.333c0,.856-1.459,2.667-3,2.667s-3-1.81-3-2.667,1.459-1.333,3-1.333,3,.477,3,1.333Z" fill="#61616b" stroke="#61616b" stroke-width="2" data-cap="butt"></path><path d="M32,49.463c-1.062,.952-2.461,1.537-4,1.537-3.314,0-6-2.686-6-6,0-10,7.5-10,7.5-28.5,0-1.381,1.119-2.5,2.5-2.5s2.5,1.119,2.5,2.5c0,18.5,7.5,18.5,7.5,28.5,0,3.314-2.686,6-6,6-1.539,0-2.938-.584-4-1.537Z" fill="none" stroke="#61616b" stroke-width="2" data-cap="butt" data-color="color-2"></path></g></svg>