<svg xmlns="http://www.w3.org/2000/svg" height="32" width="32" viewBox="0 0 32 32"><title>border collie 4</title><g stroke-linecap="round" fill="#61616b" stroke-linejoin="round" class="nc-icon-wrapper"><path d="M20.685,26.214c1.113,2.528,3.49,4.372,6.337,4.72l.978-2.934,3,2c0-13.423-3.677-13.976-3.98-22.813-.023-.684,.628-1.193,1.288-1.01,1.003,.278,1.877,.866,2.525,1.648,.105-.425,.167-.867,.167-1.325,0-3.038-2.462-5.5-5.5-5.5h0c-1.401,0-2.678,.514-3.648,1.377-1.014,.903-2.397,1.195-3.715,.87-.684-.169-1.401-.247-2.137-.247s-1.453,.079-2.137,.247c-1.318,.325-2.702,.032-3.715-.87-.97-.863-2.247-1.377-3.648-1.377h0c-3.038,0-5.5,2.462-5.5,5.5,0,.458,.062,.9,.167,1.325,.648-.782,1.522-1.37,2.525-1.648,.66-.183,1.311,.326,1.288,1.01-.303,8.837-3.98,9.39-3.98,22.813l3-2,.978,2.934c2.847-.348,5.225-2.192,6.337-4.72" fill="none" stroke="#61616b" stroke-width="2" data-cap="butt"></path><circle cx="9.5" cy="11.5" r="1.5" fill="#61616b" data-color="color-2" data-stroke="none" stroke="none"></circle><circle cx="22.5" cy="11.5" r="1.5" fill="#61616b" data-color="color-2" data-stroke="none" stroke="none"></circle><path d="M16,25.944c-.635,.65-1.519,1.056-2.5,1.056-1.933,0-3.5-1.567-3.5-3.5,0-4.04,4.5-7.5,4.5-14.5,0-.828,.5-2,1.5-2s1.5,1.172,1.5,2c0,7,4.5,10.46,4.5,14.5,0,1.933-1.567,3.5-3.5,3.5-.981,0-1.865-.406-2.5-1.056Z" fill="none" stroke="#61616b" stroke-width="2" data-cap="butt" data-color="color-2"></path><path d="M17.5,23.763c0,.422-.672,1.237-1.5,1.237s-1.5-.815-1.5-1.237,.672-.763,1.5-.763,1.5,.342,1.5,.763Z" fill="#61616b" stroke="#61616b" stroke-width="2" data-cap="butt"></path></g></svg>