<svg xmlns="http://www.w3.org/2000/svg" height="48" width="48" viewBox="0 0 48 48"><title>border collie 3</title><g stroke-linecap="round" fill="#61616b" stroke-linejoin="round" class="nc-icon-wrapper"><path d="M30.066,37.923c1.63,3.604,4.984,6.261,9.018,6.91l1.916-3.833,4,2c0-18.19-5.447-18.966-5.961-30.244-.045-.986,.877-1.766,1.837-1.535,1.453,.349,2.752,1.095,3.775,2.117,.226-.74,.349-1.524,.349-2.338,0-4.418-3.582-8-8-8-1.704,0-3.283,.526-4.579,1.436-1.495,1.05-3.355,1.534-5.109,1.025-1.05-.305-2.163-.461-3.312-.461-1.149,0-2.262,.156-3.312,.461-1.754,.509-3.614,.025-5.109-1.025-1.296-.91-2.875-1.436-4.579-1.436C6.582,3,3,6.582,3,11c0,.814,.123,1.598,.349,2.338,1.023-1.021,2.322-1.767,3.775-2.117,.96-.231,1.882,.549,1.837,1.535-.514,11.278-5.961,12.054-5.961,30.244l4-2,1.916,3.833c4.033-.649,7.388-3.305,9.018-6.91" fill="none" stroke="#61616b" stroke-width="2" data-cap="butt"></path><circle cx="15" cy="17" r="1" fill="#61616b" stroke="#61616b" stroke-width="2" data-cap="butt"></circle><circle cx="33" cy="17" r="1" fill="#61616b" stroke="#61616b" stroke-width="2" data-cap="butt"></circle><path d="M32,34c0,2.761-2.239,5-5,5-1.131,0-2.162-.39-3-1.023-.838,.633-1.869,1.023-3,1.023-2.761,0-5-2.239-5-5,0-7,6-8,6-22,0-1.105,.895-2,2-2s2,.895,2,2c0,14,6,15,6,22Z" fill="none" stroke="#61616b" stroke-width="2" data-cap="butt" data-color="color-2"></path><path d="M26.5,35c0,.642-1.216,2-2.5,2s-2.5-1.358-2.5-2,1.216-1,2.5-1,2.5,.358,2.5,1Z" fill="#61616b" stroke="#61616b" stroke-width="2" data-cap="butt"></path></g></svg>