<svg xmlns="http://www.w3.org/2000/svg" height="24" width="24" viewBox="0 0 24 24"><title>border collie 5</title><g stroke-linecap="round" fill="#61616b" stroke-linejoin="round" class="nc-icon-wrapper"><path d="M15.297,19.238c.703,2.762,4.703,3.762,4.703,3.762l1-2,2,1c0-10-3-10-3-17,1.096,0,2.088,.442,2.81,1.156,.112-.368,.19-.751,.19-1.156,0-2.209-1.791-4-4-4-.88,.006-1.714,.299-2.368,.788-.796,.596-1.805,.738-2.762,.468-.594-.168-1.223-.246-1.871-.246-.648,0-1.277,.079-1.871,.246-.957,.27-1.966,.127-2.762-.468-.654-.489-1.488-.782-2.368-.788C2.791,1,1,2.791,1,5c0,.405,.078,.788,.19,1.156,.722-.714,1.714-1.156,2.81-1.156,0,7-3,7-3,17l2-1,1,2s4-1,4.703-3.762" fill="none" stroke="#61616b" stroke-width="2" data-cap="butt"></path><circle cx="7.25" cy="8.25" r="1.25" fill="#61616b" data-stroke="none" stroke="none"></circle><circle cx="16.75" cy="8.25" r="1.25" fill="#61616b" data-stroke="none" stroke="none"></circle><path d="M8,17.5c0,1.381,1.119,2.5,2.5,2.5,.565,0,1.081-.195,1.5-.511,.419,.317,.935,.511,1.5,.511,1.381,0,2.5-1.119,2.5-2.5,0-2.741-3-5.5-3-10.5,0-.828-.172-2-1-2s-1,1.172-1,2c0,5-3,7.933-3,10.5Z" fill="none" stroke="#61616b" stroke-width="2" data-cap="butt" data-color="color-2"></path><path d="M13,17.5c0,.276-.448,.81-1,.81s-1-.534-1-.81,.448-.5,1-.5,1,.224,1,.5Z" fill="#61616b" stroke="#61616b" stroke-width="2" data-cap="butt"></path></g></svg>