<svg xmlns="http://www.w3.org/2000/svg" height="32" width="32" viewBox="0 0 32 32"><title>bug 5</title><g stroke-linecap="round" fill="#61616b" stroke-linejoin="round" class="nc-icon-wrapper"><path data-cap="butt" data-color="color-2" d="M11,7.338V6A5,5,0,0,1,21,6V7.338" fill="none" stroke="#61616b" stroke-width="2"></path> <path data-cap="butt" data-color="color-2" d="M1,28a4,4,0,0,1,4-4H6.459" fill="none" stroke="#61616b" stroke-width="2"></path> <path data-cap="butt" data-color="color-2" d="M1,8a4,4,0,0,0,4,4H6.833" fill="none" stroke="#61616b" stroke-width="2"></path> <line data-color="color-2" x1="1" y1="18" x2="6" y2="18" fill="none" stroke="#61616b" stroke-width="2"></line> <path data-cap="butt" data-color="color-2" d="M31,28a4,4,0,0,0-4-4H25.541" fill="none" stroke="#61616b" stroke-width="2"></path> <path data-cap="butt" data-color="color-2" d="M31,8a4,4,0,0,1-4,4H25.167" fill="none" stroke="#61616b" stroke-width="2"></path> <line data-color="color-2" x1="31" y1="18" x2="26" y2="18" fill="none" stroke="#61616b" stroke-width="2"></line> <rect x="6" y="6" width="20" height="25" rx="10" ry="10" fill="none" stroke="#61616b" stroke-width="2"></rect></g></svg>