<svg xmlns="http://www.w3.org/2000/svg" height="64" width="64" viewBox="0 0 64 64"><title>bug 3</title><g stroke-linecap="round" fill="#61616b" stroke-linejoin="round" class="nc-icon-wrapper"><line data-color="color-2" x1="3" y1="37" x2="14" y2="37" fill="none" stroke="#61616b" stroke-width="2"></line> <polyline data-cap="butt" data-color="color-2" points="6 14 8 22 15.02 26.012" fill="none" stroke="#61616b" stroke-width="2"></polyline> <polyline data-cap="butt" data-color="color-2" points="6 60 8 52 15.02 47.988" fill="none" stroke="#61616b" stroke-width="2"></polyline> <line data-color="color-2" x1="61" y1="37" x2="50" y2="37" fill="none" stroke="#61616b" stroke-width="2"></line> <polyline data-cap="butt" data-color="color-2" points="58 14 56 22 48.98 26.012" fill="none" stroke="#61616b" stroke-width="2"></polyline> <polyline data-cap="butt" data-color="color-2" points="58 60 56 52 48.98 47.988" fill="none" stroke="#61616b" stroke-width="2"></polyline> <line data-cap="butt" data-color="color-2" x1="20" y1="2" x2="25.368" y2="8.232" fill="none" stroke="#61616b" stroke-width="2"></line> <line data-cap="butt" data-color="color-2" x1="44" y1="2" x2="38.632" y2="8.232" fill="none" stroke="#61616b" stroke-width="2"></line> <path data-cap="butt" data-color="color-2" d="M42.965,17.724c.017-.248.035-.472.035-.724a11,11,0,0,0-22,0c0,.252.018.476.035.724" fill="none" stroke="#61616b" stroke-width="2"></path> <line data-cap="butt" x1="32" y1="14" x2="32" y2="60" fill="none" stroke="#61616b" stroke-width="2"></line> <rect x="14" y="14" width="36" height="46" rx="18" ry="18" fill="none" stroke="#61616b" stroke-width="2"></rect></g></svg>