<svg xmlns="http://www.w3.org/2000/svg" height="16" width="16" viewBox="0 0 16 16"><title>bug 2</title><g fill="#61616b" class="nc-icon-wrapper"><line x1="0.5" y1="9.5" x2="3.5" y2="9.5" fill="none" stroke="#61616b" stroke-linecap="round" stroke-linejoin="round" data-color="color-2"></line> <path d="M5.708,2a2.5,2.5,0,0,1,4.584,0" fill="none" stroke="#61616b" stroke-linecap="round" stroke-linejoin="round" data-color="color-2"></path> <path d="M3.756,6.5H3.5a3,3,0,0,1-3-3h0" fill="none" stroke="#61616b" stroke-linecap="round" stroke-linejoin="round" data-color="color-2"></path> <path d="M3.756,12.5H3.5a3,3,0,0,0-3,3h0" fill="none" stroke="#61616b" stroke-linecap="round" stroke-linejoin="round" data-color="color-2"></path> <line x1="15.5" y1="9.5" x2="12.5" y2="9.5" fill="none" stroke="#61616b" stroke-linecap="round" stroke-linejoin="round" data-color="color-2"></line> <path d="M12.244,6.5H12.5a3,3,0,0,0,3-3h0" fill="none" stroke="#61616b" stroke-linecap="round" stroke-linejoin="round" data-color="color-2"></path> <path d="M12.244,12.5H12.5a3,3,0,0,1,3,3h0" fill="none" stroke="#61616b" stroke-linecap="round" stroke-linejoin="round" data-color="color-2"></path> <rect x="3.5" y="3.5" width="9" height="12" rx="4.5" ry="4.5" fill="none" stroke="#61616b" stroke-linecap="round" stroke-linejoin="round"></rect></g></svg>