<svg xmlns="http://www.w3.org/2000/svg" height="48" width="48" viewBox="0 0 48 48"><title>bug 4</title><g stroke-linecap="round" fill="#61616b" stroke-linejoin="round" class="nc-icon-wrapper"><line data-color="color-2" x1="2" y1="28" x2="10" y2="28" fill="none" stroke="#61616b" stroke-width="2"></line> <polyline data-cap="butt" data-color="color-2" points="4 10 6 16 10.937 18.953" fill="none" stroke="#61616b" stroke-width="2"></polyline> <polyline data-cap="butt" data-color="color-2" points="4 46 6 40 10.937 37.047" fill="none" stroke="#61616b" stroke-width="2"></polyline> <line data-color="color-2" x1="46" y1="28" x2="38" y2="28" fill="none" stroke="#61616b" stroke-width="2"></line> <polyline data-cap="butt" data-color="color-2" points="44 10 42 16 37.063 18.953" fill="none" stroke="#61616b" stroke-width="2"></polyline> <polyline data-cap="butt" data-color="color-2" points="44 46 42 40 37.063 37.047" fill="none" stroke="#61616b" stroke-width="2"></polyline> <line data-cap="butt" data-color="color-2" x1="16" y1="2" x2="19.322" y2="6.322" fill="none" stroke="#61616b" stroke-width="2"></line> <line data-cap="butt" data-color="color-2" x1="32" y1="2" x2="28.678" y2="6.322" fill="none" stroke="#61616b" stroke-width="2"></line> <path data-cap="butt" data-color="color-2" d="M31.984,12.5c.014-.165.016-.33.016-.5,0-3.866-3.582-7-8-7s-8,3.134-8,7c0,.168,0,.333.016.5" fill="none" stroke="#61616b" stroke-width="2"></path> <rect x="10" y="10" width="28" height="36" rx="14" ry="14" fill="none" stroke="#61616b" stroke-width="2"></rect> <line data-cap="butt" x1="24" y1="10" x2="24" y2="46" fill="none" stroke="#61616b" stroke-width="2"></line></g></svg>