<svg xmlns="http://www.w3.org/2000/svg" height="24" width="24" viewBox="0 0 24 24"><title>bug</title><g stroke-linecap="round" fill="#61616b" stroke-linejoin="round" class="nc-icon-wrapper"><path data-cap="butt" data-color="color-2" d="M5.29,10H4A3,3,0,0,1,1,7V6" fill="none" stroke="#61616b" stroke-width="2"></path> <path data-cap="butt" data-color="color-2" d="M5.29,18H4a3,3,0,0,0-3,3v1" fill="none" stroke="#61616b" stroke-width="2"></path> <path data-cap="butt" data-color="color-2" d="M8,6.255V5a4,4,0,0,1,4-4h0a4,4,0,0,1,4,4V6.255" fill="none" stroke="#61616b" stroke-width="2"></path> <line data-color="color-2" x1="5" y1="14" x2="1" y2="14" fill="none" stroke="#61616b" stroke-width="2"></line> <path data-cap="butt" data-color="color-2" d="M18.71,10H20a3,3,0,0,0,3-3V6" fill="none" stroke="#61616b" stroke-width="2"></path> <path data-cap="butt" data-color="color-2" d="M18.71,18H20a3,3,0,0,1,3,3v1" fill="none" stroke="#61616b" stroke-width="2"></path> <line data-color="color-2" x1="19" y1="14" x2="23" y2="14" fill="none" stroke="#61616b" stroke-width="2"></line> <path d="M19,16A7,7,0,0,1,5,16V12a7,7,0,0,1,14,0Z" fill="none" stroke="#61616b" stroke-width="2"></path></g></svg>