<svg xmlns="http://www.w3.org/2000/svg" height="32" width="32" viewBox="0 0 32 32"><title>butterfly 5</title><g stroke-linecap="round" fill="#61616b" stroke-linejoin="round" class="nc-icon-wrapper"><path data-color="color-2" fill="none" stroke="#61616b" stroke-width="2" d="M14,20 H7.41427C3.87177,20,1,17.12823,1,13.58573V4h0.00001C8.17971,4,14,9.82029,14,16.99999"></path> <path data-color="color-2" fill="none" stroke="#61616b" stroke-width="2" d="M9,20 c-2.76142,0-5,2.23857-5,4.99999v0.00001C4,27.76143,6.23857,30,9,30H9c2.76142,0,5-2.23857,5-4.99999"></path> <path data-color="color-2" fill="none" stroke="#61616b" stroke-width="2" d="M18,20 h6.58573C28.12823,20,31,17.12823,31,13.58573V4h-0.00001C23.82029,4,18,9.82029,18,16.99999"></path> <path data-color="color-2" fill="none" stroke="#61616b" stroke-width="2" d=" M23.00001,20C25.76143,20,28,22.23857,28,24.99999v0.00001C28,27.76143,25.76143,30,23.00001,30h-0.00001 C20.23857,30,18,27.76143,18,25.00001"></path> <path data-cap="butt" fill="none" stroke="#61616b" stroke-width="2" d="M14.4884,7.40857 C14.40463,5.05281,12.93749,2.14583,11,1"></path> <path data-cap="butt" fill="none" stroke="#61616b" stroke-width="2" d="M17.4491,7.40857 C17.53287,5.05281,19,2.14583,20.9375,1"></path> <path data-cap="butt" fill="none" stroke="#61616b" stroke-width="2" d="M18,12.23487V28 c0,1.10457-0.89543,2-2,2h0c-1.10457,0-2-0.89543-2-2V12.2354"></path> <circle fill="none" stroke="#61616b" stroke-width="2" cx="16" cy="10" r="3"></circle></g></svg>