<svg xmlns="http://www.w3.org/2000/svg" height="64" width="64" viewBox="0 0 64 64"><title>butterfly 3</title><g stroke-linecap="round" fill="#61616b" stroke-linejoin="round" class="nc-icon-wrapper"><path data-color="color-2" fill="none" stroke="#61616b" stroke-width="2" d="M28,40 H14.82854C7.74353,40,2,34.25647,2,27.17146V8h0.00003C16.35942,8,28,19.64058,28,33.99997"></path> <path data-color="color-2" fill="none" stroke="#61616b" stroke-width="2" d=" M17.99999,40C12.47715,40,8,44.47715,8,49.99999v0.00002C8,55.52285,12.47715,60,17.99999,60h0.00002 C23.52285,60,28,55.52285,28,50.00001"></path> <path data-color="color-2" fill="none" stroke="#61616b" stroke-width="2" d="M36,40 h13.17146C56.25647,40,62,34.25647,62,27.17146V8h-0.00003C47.64058,8,36,19.64058,36,33.99997"></path> <path data-color="color-2" fill="none" stroke="#61616b" stroke-width="2" d=" M46.00001,40C51.52285,40,56,44.47715,56,49.99999v0.00002C56,55.52285,51.52285,60,46.00001,60h-0.00002 C40.47715,60,36,55.52285,36,50.00001"></path> <path data-cap="butt" fill="none" stroke="#61616b" stroke-width="2" d="M28.9768,14.81715 C28.80926,10.10563,25.87499,4.29167,22,2"></path> <path data-cap="butt" fill="none" stroke="#61616b" stroke-width="2" d="M34.8982,14.81715 C35.06574,10.10563,38,4.29167,41.875,2"></path> <path data-cap="butt" fill="none" stroke="#61616b" stroke-width="2" d="M36,24.46973V56 c0,2.20914-1.79086,4-4,4H32c-2.20914,0-4-1.79086-4-4V24.47079"></path> <circle fill="none" stroke="#61616b" stroke-width="2" cx="32" cy="20" r="6"></circle> <circle fill="none" stroke="#61616b" stroke-width="2" cx="14.5" cy="27.5" r="5.5"></circle> <circle fill="none" stroke="#61616b" stroke-width="2" cx="49.5" cy="27.5" r="5.5"></circle> <circle fill="none" stroke="#61616b" stroke-width="2" cx="18" cy="50" r="3"></circle> <circle fill="none" stroke="#61616b" stroke-width="2" cx="46" cy="50" r="3"></circle></g></svg>