<svg xmlns="http://www.w3.org/2000/svg" height="32" width="32" viewBox="0 0 32 32"><title>cactus 5</title><g stroke-linecap="round" fill="#61616b" stroke-linejoin="round" class="nc-icon-wrapper"><line data-color="color-2" x1="16" y1="4" x2="16" y2="1" fill="none" stroke="#61616b" stroke-width="2"></line><line data-color="color-2" x1="21.657" y1="6.343" x2="23.778" y2="4.222" fill="none" stroke="#61616b" stroke-width="2"></line><line data-color="color-2" x1="24" y1="12" x2="27" y2="12" fill="none" stroke="#61616b" stroke-width="2"></line><line data-color="color-2" x1="8.222" y1="4.222" x2="10.343" y2="6.343" fill="none" stroke="#61616b" stroke-width="2"></line><line data-color="color-2" x1="5" y1="12" x2="8" y2="12" fill="none" stroke="#61616b" stroke-width="2"></line><path data-cap="butt" d="M25,23v5a3,3,0,0,1-3,3H10a3,3,0,0,1-3-3V23" fill="none" stroke="#61616b" stroke-width="2"></path><line x1="28" y1="23" x2="4" y2="23" fill="none" stroke="#61616b" stroke-width="2"></line><path data-color="color-2" d="M8,19V12a8,8,0,0,1,8-8h0a8,8,0,0,1,8,8v7" fill="none" stroke="#61616b" stroke-width="2"></path></g></svg>