<svg xmlns="http://www.w3.org/2000/svg" height="24" width="24" viewBox="0 0 24 24"><title>cactus</title><g stroke-linecap="round" fill="#61616b" stroke-linejoin="round" class="nc-icon-wrapper"><line data-color="color-2" x1="6" y1="10" x2="4" y2="10" fill="none" stroke="#61616b" stroke-width="2"></line><line data-color="color-2" x1="20" y1="10" x2="18" y2="10" fill="none" stroke="#61616b" stroke-width="2"></line><path data-color="color-2" d="M18,14V9a6.018,6.018,0,0,0-6-6h0A6.018,6.018,0,0,0,6,9v5" fill="none" stroke="#61616b" stroke-width="2"></path><line data-color="color-2" x1="12" y1="3" x2="12" y2="1" fill="none" stroke="#61616b" stroke-width="2"></line><line data-color="color-2" x1="6" y1="3" x2="7.8" y2="4.8" fill="none" stroke="#61616b" stroke-width="2"></line><line data-color="color-2" x1="18" y1="3" x2="16.2" y2="4.8" fill="none" stroke="#61616b" stroke-width="2"></line><path data-cap="butt" d="M19,17v4a2,2,0,0,1-2,2H7a2,2,0,0,1-2-2V17" fill="none" stroke="#61616b" stroke-width="2"></path><line x1="21" y1="17" x2="3" y2="17" fill="none" stroke="#61616b" stroke-width="2"></line></g></svg>