<svg xmlns="http://www.w3.org/2000/svg" height="64" width="64" viewBox="0 0 64 64"><title>cactus 3</title><g stroke-linecap="round" fill="#61616b" stroke-linejoin="round" class="nc-icon-wrapper"><line x1="32" y1="7" x2="32" y2="2" fill="none" stroke="#61616b" stroke-width="2" data-color="color-2"></line><line x1="42.607" y1="11.393" x2="46.142" y2="7.858" fill="none" stroke="#61616b" stroke-width="2" data-color="color-2"></line><line x1="47" y1="22" x2="52" y2="22" fill="none" stroke="#61616b" stroke-width="2" data-color="color-2"></line><line x1="17.858" y1="7.858" x2="21.393" y2="11.393" fill="none" stroke="#61616b" stroke-width="2" data-color="color-2"></line><line x1="12" y1="22" x2="17" y2="22" fill="none" stroke="#61616b" stroke-width="2" data-color="color-2"></line><path d="M49,45v12c0,2.761-2.239,5-5,5H20c-2.761,0-5-2.239-5-5v-12" fill="none" stroke="#61616b" stroke-width="2" data-cap="butt"></path><rect x="9" y="39" width="46" height="6" fill="none" stroke="#61616b" stroke-width="2"></rect><path d="M47,34v-12c0-8.284-6.716-15-15-15h0c-8.284,0-15,6.716-15,15v12" fill="none" stroke="#61616b" stroke-width="2" data-color="color-2"></path></g></svg>