<svg xmlns="http://www.w3.org/2000/svg" height="48" width="48" viewBox="0 0 48 48"><title>cactus 4</title><g stroke-linecap="round" fill="#61616b" stroke-linejoin="round" class="nc-icon-wrapper"><line data-color="color-2" x1="12" y1="20" x2="8" y2="20" fill="none" stroke="#61616b" stroke-width="2"></line><line data-color="color-2" x1="40" y1="20" x2="36" y2="20" fill="none" stroke="#61616b" stroke-width="2"></line><line data-color="color-2" x1="24" y1="6" x2="24" y2="2" fill="none" stroke="#61616b" stroke-width="2"></line><line data-color="color-2" x1="12" y1="6" x2="15.5" y2="9.5" fill="none" stroke="#61616b" stroke-width="2"></line><line data-color="color-2" x1="36" y1="6" x2="32.5" y2="9.5" fill="none" stroke="#61616b" stroke-width="2"></line><path data-color="color-2" d="M36,30V18A12.035,12.035,0,0,0,24,6h0A12.035,12.035,0,0,0,12,18V30" fill="none" stroke="#61616b" stroke-width="2"></path><path data-cap="butt" d="M37,35v7a4,4,0,0,1-4,4H15a4,4,0,0,1-4-4V35" fill="none" stroke="#61616b" stroke-width="2"></path><line x1="7" y1="35" x2="41" y2="35" fill="none" stroke="#61616b" stroke-width="2"></line></g></svg>