<svg xmlns="http://www.w3.org/2000/svg" height="16" width="16" viewBox="0 0 16 16"><title>cactus 2</title><g fill="#61616b" class="nc-icon-wrapper"><line x1="1.5" y1="11.5" x2="14.5" y2="11.5" fill="none" stroke="#61616b" stroke-linecap="round" stroke-linejoin="round"></line><path d="M3.5,11.5v2.5c0,.828,.672,1.5,1.5,1.5h6c.828,0,1.5-.672,1.5-1.5v-2.5" fill="none" stroke="#61616b" stroke-linecap="round" stroke-linejoin="round"></path><line x1="8" y1=".5" x2="8" y2="2.5" fill="none" stroke="#61616b" stroke-linecap="round" stroke-linejoin="round" data-color="color-2"></line><line x1="12.596" y1="2.404" x2="11.182" y2="3.818" fill="none" stroke="#61616b" stroke-linecap="round" stroke-linejoin="round" data-color="color-2"></line><line x1="14.5" y1="7" x2="12.5" y2="7" fill="none" stroke="#61616b" stroke-linecap="round" stroke-linejoin="round" data-color="color-2"></line><line x1="4.818" y1="3.818" x2="3.404" y2="2.404" fill="none" stroke="#61616b" stroke-linecap="round" stroke-linejoin="round" data-color="color-2"></line><line x1="3.5" y1="7" x2="1.5" y2="7" fill="none" stroke="#61616b" stroke-linecap="round" stroke-linejoin="round" data-color="color-2"></line><path d="M12.5,9.5v-2.5c0-2.485-2.015-4.5-4.5-4.5h0c-2.485,0-4.5,2.015-4.5,4.5v2.5" fill="none" stroke="#61616b" stroke-linecap="round" stroke-linejoin="round" data-color="color-2"></path></g></svg>