<svg xmlns="http://www.w3.org/2000/svg" height="64" width="64" viewBox="0 0 64 64"><title>cat 3</title><g stroke-linecap="round" fill="#61616b" stroke-linejoin="round" class="nc-icon-wrapper"><path d="M28,40h8c.824,0,1.294,.941,.8,1.6l-4,5.333c-.4,.533-1.2,.533-1.6,0l-4-5.333c-.494-.659-.024-1.6,.8-1.6Z" fill="none" stroke="#61616b" stroke-width="2" data-color="color-2"></path><circle cx="23.5" cy="30.5" r="2.5" fill="#61616b" stroke="#61616b" stroke-width="2" data-color="color-2"></circle><circle cx="40.5" cy="30.5" r="2.5" fill="#61616b" stroke="#61616b" stroke-width="2" data-color="color-2"></circle><path d="M31.853,47.323c-.602,2.678-2.993,4.677-5.853,4.677-1.537,0-2.939-.578-4.001-1.529" fill="none" stroke="#61616b" stroke-width="2" data-color="color-2"></path><path d="M32.147,47.323c.602,2.678,2.993,4.677,5.853,4.677,1.537,0,2.939-.578,4.001-1.529" fill="none" stroke="#61616b" stroke-width="2" data-color="color-2"></path><path d="M56.945,26.646l-4.945-22.646-8.214,6.845c-3.541-1.806-7.538-2.845-11.786-2.845s-8.245,1.039-11.786,2.845L12,4,7.057,26.642s-1.057,4.8-1.057,7.358c0,14.359,11.641,26,26,26s26-11.641,26-26c0-2.556-1.055-7.354-1.055-7.354Z" fill="none" stroke="#61616b" stroke-width="2"></path><line x1="19" y1="41" x2="3" y2="38" fill="none" stroke="#61616b" stroke-width="2"></line><line x1="18" y1="47" x2="6" y2="49" fill="none" stroke="#61616b" stroke-width="2"></line><line x1="45" y1="41" x2="61" y2="38" fill="none" stroke="#61616b" stroke-width="2"></line><line x1="46" y1="47" x2="58" y2="49" fill="none" stroke="#61616b" stroke-width="2"></line></g></svg>