<svg xmlns="http://www.w3.org/2000/svg" height="48" width="48" viewBox="0 0 48 48"><title>cat 4</title><g stroke-linecap="round" fill="#61616b" stroke-linejoin="round" class="nc-icon-wrapper"><circle cx="16" cy="24" r="1" fill="#61616b" stroke="#61616b" stroke-width="2" data-color="color-2"></circle><circle cx="32" cy="24" r="1" fill="#61616b" stroke="#61616b" stroke-width="2" data-color="color-2"></circle><path d="M23.928,35.747c-.359,2.409-2.419,4.253-4.928,4.253-1.122,0-2.157-.369-2.992-.993" fill="none" stroke="#61616b" stroke-width="2" data-cap="butt" data-color="color-2"></path><path d="M24.072,35.747c.359,2.409,2.419,4.253,4.928,4.253,1.122,0,2.157-.369,2.992-.993" fill="none" stroke="#61616b" stroke-width="2" data-cap="butt" data-color="color-2"></path><path d="M21.449,32h5.103c.535,0,.802,.646,.424,1.024l-2.551,2.551c-.234,.234-.614,.234-.849,0l-2.551-2.551c-.378-.378-.11-1.024,.424-1.024Z" fill="none" stroke="#61616b" stroke-width="2" data-color="color-2"></path><path d="M24,46h0c-9.941,0-18-8.059-18-18V4l10,8s3.625-2,8-2,8,2,8,2l10-8V28c0,9.941-8.059,18-18,18Z" fill="none" stroke="#61616b" stroke-width="2"></path><line x1="15" y1="31" x2="3" y2="29" fill="none" stroke="#61616b" stroke-width="2"></line><line x1="14" y1="36" x2="5" y2="38" fill="none" stroke="#61616b" stroke-width="2"></line><line x1="33" y1="31" x2="45" y2="29" fill="none" stroke="#61616b" stroke-width="2"></line><line x1="34" y1="36" x2="43" y2="38" fill="none" stroke="#61616b" stroke-width="2"></line></g></svg>