<svg xmlns="http://www.w3.org/2000/svg" height="16" width="16" viewBox="0 0 16 16"><title>cat 2</title><g fill="#61616b" class="nc-icon-wrapper"><circle cx="5" cy="8" r="1" fill="#61616b" data-color="color-2" data-stroke="none" stroke="none"></circle><circle cx="11" cy="8" r="1" fill="#61616b" data-color="color-2" data-stroke="none" stroke="none"></circle><path d="M14.5,.5l-3,3H4.5L1.5,.5V9c0,3.59,2.91,6.5,6.5,6.5h0c3.59,0,6.5-2.91,6.5-6.5V.5Z" fill="none" stroke="#61616b" stroke-linecap="round" stroke-linejoin="round"></path><path d="M8,12.5c-.128,0-.256-.049-.354-.146l-1.5-1.5c-.143-.143-.186-.358-.108-.545,.077-.187,.26-.309,.462-.309h3c.202,0,.385,.122,.462,.309,.078,.187,.035,.402-.108,.545l-1.5,1.5c-.098,.098-.226,.146-.354,.146Z" fill="#61616b" data-color="color-2" data-stroke="none" stroke="none"></path></g></svg>