<svg xmlns="http://www.w3.org/2000/svg" height="32" width="32" viewBox="0 0 32 32"><title>cat 5</title><g stroke-linecap="round" fill="#61616b" stroke-linejoin="round" class="nc-icon-wrapper"><path d="M28.472,13.323l-2.472-11.323-4.107,3.423c-1.77-.903-3.769-1.423-5.893-1.423s-4.122,.52-5.893,1.423L6,2,3.529,13.321s-.529,2.4-.529,3.679c0,7.18,5.82,13,13,13s13-5.82,13-13c0-1.278-.528-3.677-.528-3.677Z" fill="none" stroke="#61616b" stroke-width="2"></path><path d="M14,20h4c.412,0,.647,.47,.4,.8l-2,2.667c-.2,.267-.6,.267-.8,0l-2-2.667c-.247-.33-.012-.8,.4-.8Z" fill="#61616b" stroke="#61616b" stroke-width="2" data-color="color-2"></path><circle cx="12" cy="15" r="2" fill="#61616b" data-color="color-2" data-stroke="none" stroke="none"></circle><circle cx="20" cy="15" r="2" fill="#61616b" data-color="color-2" data-stroke="none" stroke="none"></circle><path d="M15.927,23.661c-.301,1.339-1.497,2.339-2.927,2.339-.769,0-1.47-.289-2-.764" fill="none" stroke="#61616b" stroke-width="2" data-color="color-2"></path><path d="M16.073,23.661c.301,1.339,1.497,2.339,2.927,2.339,.769,0,1.47-.289,2-.764" fill="none" stroke="#61616b" stroke-width="2" data-color="color-2"></path></g></svg>