<svg xmlns="http://www.w3.org/2000/svg" height="24" width="24" viewBox="0 0 24 24"><title>cat</title><g stroke-linecap="round" fill="#61616b" stroke-linejoin="round" class="nc-icon-wrapper"><path d="M11.964,16.874c-.18,1.204-1.21,2.126-2.464,2.126-.561,0-1.079-.185-1.496-.497" fill="none" stroke="#61616b" stroke-width="2" data-cap="butt" data-color="color-2"></path><path d="M12.036,16.874c.18,1.204,1.21,2.126,2.464,2.126,.561,0,1.079-.185,1.496-.497" fill="none" stroke="#61616b" stroke-width="2" data-cap="butt" data-color="color-2"></path><circle cx="7.5" cy="12.5" r="1.5" fill="#61616b" data-color="color-2" data-stroke="none" stroke="none"></circle><circle cx="16.5" cy="12.5" r="1.5" fill="#61616b" data-color="color-2" data-stroke="none" stroke="none"></circle><path d="M10.724,15h2.551c.267,0,.401,.323,.212,.512l-1.276,1.276c-.117,.117-.307,.117-.424,0l-1.276-1.276c-.189-.189-.055-.512,.212-.512Z" fill="#61616b" data-color="color-2" data-stroke="none" stroke="none"></path><path d="M10.724,15h2.551c.267,0,.401,.323,.212,.512l-1.276,1.276c-.117,.117-.307,.117-.424,0l-1.276-1.276c-.189-.189-.055-.512,.212-.512Z" fill="none" stroke="#61616b" stroke-width="2" data-color="color-2"></path><path d="M12,23h0c-4.971,0-9-4.029-9-9V2l5,4s1.812-1,4-1,4,1,4,1l5-4V14c0,4.971-4.029,9-9,9Z" fill="none" stroke="#61616b" stroke-width="2"></path></g></svg>