<svg xmlns="http://www.w3.org/2000/svg" height="16" width="16" viewBox="0 0 16 16"><title>chicken front</title><g fill="#61616b" class="nc-icon-wrapper"><circle cx="5.25" cy="6.25" r=".75" fill="#61616b" data-color="color-2" data-stroke="none" stroke="none"></circle><circle cx="10.75" cy="6.25" r=".75" fill="#61616b" data-color="color-2" data-stroke="none" stroke="none"></circle><path d="M9.061,7.94c-.565-.567-1.557-.567-2.122,0-.195,.195-.195,.512,0,.707l.707,.707c.098,.098,.226,.146,.354,.146s.256-.049,.354-.146l.707-.707c.195-.195,.195-.511,0-.707Z" fill="#61616b" data-stroke="none" stroke="none"></path><path d="M9.25,13.75c0,.69-.56,1.25-1.25,1.25s-1.25-.56-1.25-1.25c0-1.25,1.25-3.125,1.25-3.125,0,0,1.25,1.875,1.25,3.125Z" fill="none" stroke="#61616b" stroke-linecap="round" stroke-linejoin="round" data-color="color-2"></path><path d="M10.5,15.5l1.5-1.5,2,.5-1.047-8.187h0c-.292-2.123-1.916-3.82-4.002-4.222" fill="none" stroke="#61616b" stroke-linecap="round" stroke-linejoin="round"></path><path d="M7.049,2.092c-2.086,.402-3.71,2.099-4.002,4.222h0S2,14.5,2,14.5l2-.5,1.5,1.5" fill="none" stroke="#61616b" stroke-linecap="round" stroke-linejoin="round"></path><polyline points="11.001 12.262 11.507 11.925 13.742 12.484 13.282 12.369" fill="none" stroke="#61616b" stroke-linecap="round" stroke-linejoin="round"></polyline><polyline points="4.999 12.262 4.493 11.925 2.258 12.484 2.718 12.369" fill="none" stroke="#61616b" stroke-linecap="round" stroke-linejoin="round"></polyline><ellipse cx="8" cy="2.75" rx="1" ry="2.25" fill="none" stroke="#61616b" stroke-linecap="round" stroke-linejoin="round" data-color="color-2"></ellipse></g></svg>