<svg xmlns="http://www.w3.org/2000/svg" height="32" width="32" viewBox="0 0 32 32"><title>chicken front 4</title><g stroke-linecap="round" fill="#61616b" stroke-linejoin="round" class="nc-icon-wrapper"><circle cx="10.5" cy="12.5" r="1.5" fill="#61616b" data-color="color-2" data-stroke="none" stroke="none"></circle><circle cx="21.5" cy="12.5" r="1.5" fill="#61616b" data-color="color-2" data-stroke="none" stroke="none"></circle><path d="M17.414,16.586c-.362-.362-.862-.586-1.414-.586s-1.052,.224-1.414,.586l1.414,1.414,1.414-1.414Z" fill="#61616b" data-stroke="none" stroke="none"></path><path d="M17.414,16.586c-.362-.362-.862-.586-1.414-.586s-1.052,.224-1.414,.586l1.414,1.414,1.414-1.414Z" fill="none" stroke="#61616b" stroke-width="2" data-cap="butt"></path><path d="M18.5,27.5c0,1.381-1.119,2.5-2.5,2.5s-2.5-1.119-2.5-2.5c0-2.5,2.5-6.25,2.5-6.25,0,0,2.5,3.75,2.5,6.25Z" fill="none" stroke="#61616b" stroke-width="2" data-cap="butt" data-color="color-2"></path><path d="M21,30l3-2,4,1-2.094-16.373h0c-.583-4.246-3.832-7.64-8.004-8.444" fill="none" stroke="#61616b" stroke-width="2" data-cap="butt"></path><path d="M14.097,4.183c-4.171,.804-7.421,4.198-8.004,8.444h0s-2.094,16.373-2.094,16.373l4-1,3,2" fill="none" stroke="#61616b" stroke-width="2" data-cap="butt"></path><polyline points="22.002 24.525 23.014 23.85 27.484 24.968 26.563 24.738" fill="none" stroke="#61616b" stroke-width="2"></polyline><polyline points="9.998 24.525 8.986 23.85 4.516 24.968 5.437 24.738" fill="none" stroke="#61616b" stroke-width="2"></polyline><ellipse cx="16" cy="5.5" rx="2" ry="4.5" fill="none" stroke="#61616b" stroke-width="2" data-cap="butt" data-color="color-2"></ellipse></g></svg>