<svg xmlns="http://www.w3.org/2000/svg" height="24" width="24" viewBox="0 0 24 24"><title>chicken front 5</title><g stroke-linecap="round" fill="#61616b" stroke-linejoin="round" class="nc-icon-wrapper"><circle cx="8" cy="9.5" r="1.5" fill="#61616b" data-color="color-2" data-stroke="none" stroke="none"></circle><circle cx="16" cy="9.5" r="1.5" fill="#61616b" data-color="color-2" data-stroke="none" stroke="none"></circle><path d="M16,22l2-1,3,1-1.042-11.82c-.362-3.558-3.057-6.423-6.53-7.049" fill="none" stroke="#61616b" stroke-width="2" data-cap="butt"></path><path d="M10.572,3.131c-3.473,.627-6.168,3.491-6.53,7.049l-1.042,11.82,3-1,2,1" fill="none" stroke="#61616b" stroke-width="2" data-cap="butt"></path><ellipse cx="12" cy="4" rx="1.5" ry="3" fill="none" stroke="#61616b" stroke-width="2" data-cap="butt" data-color="color-2"></ellipse><path d="M13.5,21.5c0,.828-.672,1.5-1.5,1.5s-1.5-.672-1.5-1.5c0-1.5,1.5-4,1.5-4,0,0,1.5,2.5,1.5,4Z" fill="none" stroke="#61616b" stroke-width="2" data-cap="butt" data-color="color-2"></path><path d="M13.061,12.439c-.271-.271-.646-.439-1.061-.439s-.789,.168-1.061,.439l1.061,1.061,1.061-1.061Z" fill="#61616b" data-stroke="none" stroke="none"></path><path d="M13.061,12.439c-.271-.271-.646-.439-1.061-.439s-.789,.168-1.061,.439l1.061,1.061,1.061-1.061Z" fill="none" stroke="#61616b" stroke-width="2" data-cap="butt"></path></g></svg>