<svg xmlns="http://www.w3.org/2000/svg" height="48" width="48" viewBox="0 0 48 48"><title>chicken front 3</title><g stroke-linecap="round" fill="#61616b" stroke-linejoin="round" class="nc-icon-wrapper"><path d="M27.5,41.5c0,1.933-1.567,3.5-3.5,3.5s-3.5-1.567-3.5-3.5c0-3.5,3.5-9.474,3.5-9.474,0,0,3.5,5.974,3.5,9.474Z" fill="none" stroke="#61616b" stroke-width="2" data-cap="butt" data-color="color-2"></path><path d="M33,44l3-2,6,2-3.158-25.063c-.88-6.378-5.758-11.479-12.028-12.671" fill="none" stroke="#61616b" stroke-width="2" data-cap="butt"></path><path d="M21.186,6.266c-6.27,1.193-11.148,6.293-12.028,12.671l-3.158,25.063,6-2,2.999,2" fill="none" stroke="#61616b" stroke-width="2" data-cap="butt"></path><circle cx="16" cy="19" r="2" fill="#61616b" data-color="color-2" data-stroke="none" stroke="none"></circle><circle cx="32" cy="19" r="2" fill="#61616b" data-color="color-2" data-stroke="none" stroke="none"></circle><path d="M26.097,25.11c-.537-.537-1.278-.869-2.097-.869s-1.56,.332-2.097,.869l2.097,2.097,2.097-2.097Z" fill="#61616b" stroke="#61616b" stroke-width="2" data-cap="butt"></path><ellipse cx="24" cy="8.5" rx="3" ry="6.5" fill="none" stroke="#61616b" stroke-width="2" data-cap="butt" data-color="color-2"></ellipse><polyline points="33 37.991 35.261 36.483 41.307 38.499 39.951 38.047" fill="none" stroke="#61616b" stroke-width="2"></polyline><polyline points="15 37.991 12.739 36.483 6.693 38.499 8.049 38.047" fill="none" stroke="#61616b" stroke-width="2"></polyline><circle cx="16" cy="19" r="1" fill="#61616b" stroke="#61616b" stroke-width="2" data-color="color-2"></circle><circle cx="32" cy="19" r="1" fill="#61616b" stroke="#61616b" stroke-width="2" data-color="color-2"></circle></g></svg>