<svg xmlns="http://www.w3.org/2000/svg" height="64" width="64" viewBox="0 0 64 64"><title>chicken front 2</title><g stroke-linecap="round" fill="#61616b" stroke-linejoin="round" class="nc-icon-wrapper"><circle cx="20.5" cy="25.5" r="1.5" fill="#61616b" stroke="#61616b" stroke-width="2" data-color="color-2"></circle><circle cx="43.5" cy="25.5" r="1.5" fill="#61616b" stroke="#61616b" stroke-width="2" data-color="color-2"></circle><path d="M36.243,32.757c-1.086-1.086-2.586-1.757-4.243-1.757s-3.157,.672-4.243,1.757l4.243,4.243,4.243-4.243Z" fill="none" stroke="#61616b" stroke-width="2" data-cap="butt"></path><path d="M37,55c0,2.761-2.239,5-5,5s-5-2.239-5-5c0-5,5-12.5,5-12.5,0,0,5,7.5,5,12.5Z" fill="none" stroke="#61616b" stroke-width="2" data-cap="butt" data-color="color-2"></path><path d="M42,60l6-4,8,2-4.187-32.746c-1.166-8.492-7.665-15.279-16.007-16.887" fill="none" stroke="#61616b" stroke-width="2" data-cap="butt"></path><path d="M28.194,8.366c-8.343,1.608-14.841,8.395-16.007,16.887l-4.187,32.746,8-2,6,4" fill="none" stroke="#61616b" stroke-width="2" data-cap="butt"></path><polyline points="44.003 49.05 46.027 47.7 54.969 49.936 53.127 49.475" fill="none" stroke="#61616b" stroke-width="2"></polyline><polyline points="19.997 49.05 17.973 47.7 9.031 49.936 10.873 49.475" fill="none" stroke="#61616b" stroke-width="2"></polyline><ellipse cx="32" cy="11" rx="4" ry="9" fill="none" stroke="#61616b" stroke-width="2" data-cap="butt" data-color="color-2"></ellipse></g></svg>