<svg xmlns="http://www.w3.org/2000/svg" height="32" width="32" viewBox="0 0 32 32"><title>clover 6</title><g stroke-linecap="round" fill="#61616b" stroke-linejoin="round" class="nc-icon-wrapper"><path d="M16,16c-5.041,5.041-9.143,8-12,8a2.836,2.836,0,0,1-3-3,7.888,7.888,0,0,1,2.143-5A7.888,7.888,0,0,1,1,11,2.836,2.836,0,0,1,4,8C6.857,8,10.959,10.959,16,16Z" fill="none" stroke="#61616b" stroke-width="2"></path><path d="M16,16c5.041-5.041,9.143-8,12-8a2.836,2.836,0,0,1,3,3,7.888,7.888,0,0,1-2.143,5A7.888,7.888,0,0,1,31,21a2.836,2.836,0,0,1-3,3C25.143,24,21.041,21.041,16,16Z" fill="none" stroke="#61616b" stroke-width="2"></path><path data-color="color-2" d="M16,16C10.959,10.959,8,6.857,8,4a2.836,2.836,0,0,1,3-3,7.888,7.888,0,0,1,5,2.143A7.888,7.888,0,0,1,21,1a2.836,2.836,0,0,1,3,3C24,6.857,21.041,10.959,16,16Z" fill="none" stroke="#61616b" stroke-width="2"></path><path data-color="color-2" d="M16,16c5.041,5.041,8,9.143,8,12a2.836,2.836,0,0,1-3,3,7.888,7.888,0,0,1-5-2.143A7.888,7.888,0,0,1,11,31a2.836,2.836,0,0,1-3-3C8,25.143,10.959,21.041,16,16Z" fill="none" stroke="#61616b" stroke-width="2"></path></g></svg>