<svg xmlns="http://www.w3.org/2000/svg" height="48" width="48" viewBox="0 0 48 48"><title>clover 5</title><g stroke-linecap="round" fill="#61616b" stroke-linejoin="round" class="nc-icon-wrapper"><path d="M24,24C16.943,31.057,11,35,7,35a3.663,3.663,0,0,1-4-4,11.043,11.043,0,0,1,3-7,11.043,11.043,0,0,1-3-7,3.663,3.663,0,0,1,4-4C11,13,16.943,16.943,24,24Z" fill="none" stroke="#61616b" stroke-width="2"></path><path d="M24,24c7.057,7.057,13,11,17,11a3.663,3.663,0,0,0,4-4,11.043,11.043,0,0,0-3-7,11.043,11.043,0,0,0,3-7,3.663,3.663,0,0,0-4-4C37,13,31.057,16.943,24,24Z" fill="none" stroke="#61616b" stroke-width="2"></path><path data-color="color-2" d="M24,24C16.943,16.943,13,11,13,7a3.663,3.663,0,0,1,4-4,11.043,11.043,0,0,1,7,3,11.043,11.043,0,0,1,7-3,3.663,3.663,0,0,1,4,4C35,11,31.057,16.943,24,24Z" fill="none" stroke="#61616b" stroke-width="2"></path><path data-color="color-2" d="M24,24c-7.057,7.057-11,13-11,17a3.663,3.663,0,0,0,4,4,11.043,11.043,0,0,0,7-3,11.043,11.043,0,0,0,7,3,3.663,3.663,0,0,0,4-4C35,37,31.057,31.057,24,24Z" fill="none" stroke="#61616b" stroke-width="2"></path></g></svg>