<svg xmlns="http://www.w3.org/2000/svg" height="64" width="64" viewBox="0 0 64 64"><title>clover 4</title><g stroke-linecap="round" fill="#61616b" stroke-linejoin="round" class="nc-icon-wrapper"><path data-color="color-2" d="M59.554,59.8a15.063,15.063,0,0,1-19.744-8L31,31" fill="none" stroke="#61616b" stroke-width="2"></path><path d="M31,31c-4.673-11.036-6.382-19.429-4.579-23.881.9-2.226,2.916-4,6.256-2.649,4.452,1.8,6.438,6.5,6.438,6.5s4.692-1.986,9.144-.183c3.339,1.353,3.55,4.03,2.649,6.256C49.1,21.49,42.036,26.327,31,31Z" fill="none" stroke="#61616b" stroke-width="2"></path><path d="M31,31c-11.036,4.673-18.1,9.51-19.908,13.962-.9,2.226-.69,4.9,2.649,6.256,4.452,1.8,9.144-.183,9.144-.183s1.986,4.691,6.438,6.5c3.34,1.352,5.354-.423,6.256-2.649C37.382,50.429,35.673,42.036,31,31Z" fill="none" stroke="#61616b" stroke-width="2"></path><path d="M31,31c-11.036,4.673-19.429,6.382-23.881,4.579-2.226-.9-4-2.916-2.649-6.256,1.8-4.452,6.5-6.438,6.5-6.438s-1.986-4.692-.183-9.144c1.353-3.339,4.03-3.55,6.256-2.649C21.49,12.9,26.327,19.964,31,31Z" fill="none" stroke="#61616b" stroke-width="2"></path><path d="M31,31c4.673,11.036,9.51,18.1,13.962,19.908,2.226.9,4.9.69,6.256-2.649,1.8-4.452-.183-9.144-.183-9.144s4.691-1.986,6.5-6.438c1.352-3.34-.423-5.354-2.649-6.256C50.429,24.618,42.036,26.327,31,31Z" fill="none" stroke="#61616b" stroke-width="2"></path></g></svg>