<svg xmlns="http://www.w3.org/2000/svg" height="24" width="24" viewBox="0 0 24 24"><title>clover</title><g stroke-linecap="round" fill="#61616b" stroke-linejoin="round" class="nc-icon-wrapper"><path d="M3,18a2,2,0,0,1-2-2H1a7.292,7.292,0,0,1,1.571-4A7.283,7.283,0,0,1,1,8,1.779,1.779,0,0,1,3,6C5.1,6,8.3,8.3,12,12,8.3,15.7,5.1,18,3,18Z" fill="none" stroke="#61616b" stroke-width="2"></path><path d="M21,6a2,2,0,0,1,2,2h0a7.292,7.292,0,0,1-1.571,4A7.283,7.283,0,0,1,23,16a1.779,1.779,0,0,1-2,2c-2.095,0-5.3-2.3-9-6C15.7,8.3,18.905,6,21,6Z" fill="none" stroke="#61616b" stroke-width="2"></path><path data-color="color-2" d="M6,3A2,2,0,0,1,8,1H8a7.292,7.292,0,0,1,4,1.571A7.283,7.283,0,0,1,16,1a1.779,1.779,0,0,1,2,2c0,2.095-2.3,5.3-6,9C8.3,8.3,6,5.1,6,3Z" fill="none" stroke="#61616b" stroke-width="2"></path><path data-color="color-2" d="M18,21a2,2,0,0,1-2,2h0a7.292,7.292,0,0,1-4-1.571A7.283,7.283,0,0,1,8,23a1.779,1.779,0,0,1-2-2c0-2.095,2.3-5.3,6-9C15.7,15.7,18,18.905,18,21Z" fill="none" stroke="#61616b" stroke-width="2"></path></g></svg>