<svg xmlns="http://www.w3.org/2000/svg" height="12" width="12" viewBox="0 0 12 12"><title>clover 2</title><g fill="#61616b" class="nc-icon-wrapper"><path d="M6,6C4.152,7.848,2.648,8.933,1.6,8.933a1.04,1.04,0,0,1-1.1-1.1A2.893,2.893,0,0,1,1.286,6,2.893,2.893,0,0,1,.5,4.167a1.04,1.04,0,0,1,1.1-1.1C2.648,3.067,4.152,4.152,6,6Z" fill="none" stroke="#61616b" stroke-linecap="round" stroke-linejoin="round"></path><path d="M6,6c1.848-1.848,3.352-2.933,4.4-2.933a1.04,1.04,0,0,1,1.1,1.1A2.893,2.893,0,0,1,10.714,6,2.893,2.893,0,0,1,11.5,7.833a1.04,1.04,0,0,1-1.1,1.1C9.352,8.933,7.848,7.848,6,6Z" fill="none" stroke="#61616b" stroke-linecap="round" stroke-linejoin="round"></path><path d="M6,6C4.152,4.152,3.067,2.648,3.067,1.6A1.04,1.04,0,0,1,4.167.5,2.893,2.893,0,0,1,6,1.286,2.893,2.893,0,0,1,7.833.5a1.04,1.04,0,0,1,1.1,1.1C8.933,2.648,7.848,4.152,6,6Z" fill="none" stroke="#61616b" stroke-linecap="round" stroke-linejoin="round" data-color="color-2"></path><path d="M6,6c1.848,1.848,2.933,3.352,2.933,4.4a1.04,1.04,0,0,1-1.1,1.1A2.893,2.893,0,0,1,6,10.714a2.893,2.893,0,0,1-1.833.786,1.04,1.04,0,0,1-1.1-1.1C3.067,9.352,4.152,7.848,6,6Z" fill="none" stroke="#61616b" stroke-linecap="round" stroke-linejoin="round" data-color="color-2"></path></g></svg>