<svg xmlns="http://www.w3.org/2000/svg" height="16" width="16" viewBox="0 0 16 16"><title>clover 3</title><g fill="#61616b" class="nc-icon-wrapper"><path d="M8,8c-2.52,2.52-4.571,4-6,4A1.419,1.419,0,0,1,.5,10.5,3.943,3.943,0,0,1,1.571,8,3.943,3.943,0,0,1,.5,5.5,1.419,1.419,0,0,1,2,4C3.429,4,5.48,5.48,8,8Z" fill="none" stroke="#61616b" stroke-linecap="round" stroke-linejoin="round"></path><path d="M8,8c2.52-2.52,4.571-4,6-4a1.419,1.419,0,0,1,1.5,1.5A3.943,3.943,0,0,1,14.429,8,3.943,3.943,0,0,1,15.5,10.5,1.419,1.419,0,0,1,14,12C12.571,12,10.52,10.52,8,8Z" fill="none" stroke="#61616b" stroke-linecap="round" stroke-linejoin="round"></path><path data-color="color-2" d="M8,8C5.48,5.48,4,3.429,4,2A1.419,1.419,0,0,1,5.5.5,3.943,3.943,0,0,1,8,1.571,3.943,3.943,0,0,1,10.5.5,1.419,1.419,0,0,1,12,2C12,3.429,10.52,5.48,8,8Z" fill="none" stroke="#61616b" stroke-linecap="round" stroke-linejoin="round"></path><path data-color="color-2" d="M8,8c2.52,2.52,4,4.571,4,6a1.419,1.419,0,0,1-1.5,1.5A3.943,3.943,0,0,1,8,14.429,3.943,3.943,0,0,1,5.5,15.5,1.419,1.419,0,0,1,4,14C4,12.571,5.48,10.52,8,8Z" fill="none" stroke="#61616b" stroke-linecap="round" stroke-linejoin="round"></path></g></svg>