<svg xmlns="http://www.w3.org/2000/svg" height="16" width="16" viewBox="0 0 16 16"><title>cow 2</title><g fill="#61616b" class="nc-icon-wrapper"><circle cx="6" cy="6" r="1" fill="#61616b" data-color="color-2" data-stroke="none" stroke="none"></circle> <circle cx="10" cy="6" r="1" fill="#61616b" data-color="color-2" data-stroke="none" stroke="none"></circle> <polyline points="2.5 9.5 3.5 2.5 12.5 2.5 13.5 9.5" fill="none" stroke="#61616b" stroke-linecap="round" stroke-linejoin="round"></polyline> <path d="M2.5,9.5h11a1,1,0,0,1,1,1v2a3,3,0,0,1-3,3h-7a3,3,0,0,1-3-3v-2A1,1,0,0,1,2.5,9.5Z" fill="none" stroke="#61616b" stroke-linecap="round" stroke-linejoin="round"></path> <line x1="3.5" y1="0.5" x2="3.5" y2="2.5" fill="none" stroke="#61616b" stroke-linecap="round" stroke-linejoin="round"></line> <line x1="12.5" y1="0.5" x2="12.5" y2="2.5" fill="none" stroke="#61616b" stroke-linecap="round" stroke-linejoin="round"></line> <path d="M3.079,5.448A3.1,3.1,0,0,1,.5,2.5h3" fill="none" stroke="#61616b" stroke-linecap="round" stroke-linejoin="round"></path> <path d="M12.921,5.448A3.1,3.1,0,0,0,15.5,2.5h-3" fill="none" stroke="#61616b" stroke-linecap="round" stroke-linejoin="round"></path></g></svg>