<svg xmlns="http://www.w3.org/2000/svg" height="32" width="32" viewBox="0 0 32 32"><title>cow 5</title><g stroke-linecap="round" fill="#61616b" stroke-linejoin="round" class="nc-icon-wrapper"><circle cx="11.5" cy="12.5" r="1.5" fill="#61616b" data-color="color-2" data-stroke="none" stroke="none"></circle><circle cx="20.5" cy="12.5" r="1.5" fill="#61616b" data-color="color-2" data-stroke="none" stroke="none"></circle><line x1="9" y1="1" x2="9" y2="5" fill="none" stroke="#61616b" stroke-width="2"></line><line x1="23" y1="1" x2="23" y2="5" fill="none" stroke="#61616b" stroke-width="2"></line><polyline points="25 17 24 5 8 5 7 17" fill="none" stroke="#61616b" stroke-width="2" data-cap="butt"></polyline><circle cx="11" cy="24" r="2" fill="none" stroke="#61616b" stroke-width="2"></circle><circle cx="21" cy="24" r="2" fill="none" stroke="#61616b" stroke-width="2"></circle><path d="M7.5,11h-.5c-3.314,0-6-2.686-6-6h7" fill="none" stroke="#61616b" stroke-width="2" data-cap="butt"></path><path d="M24.5,11h.5c3.314,0,6-2.686,6-6h-7" fill="none" stroke="#61616b" stroke-width="2" data-cap="butt"></path><path d="M25,17H7c-1.105,0-2,.895-2,2v5c0,3.866,3.134,7,7,7h8c3.866,0,7-3.134,7-7v-5c0-1.105-.895-2-2-2Z" fill="none" stroke="#61616b" stroke-width="2" data-color="color-2"></path></g></svg>