<svg xmlns="http://www.w3.org/2000/svg" height="24" width="24" viewBox="0 0 24 24"><title>cow</title><g stroke-linecap="round" fill="#61616b" stroke-linejoin="round" class="nc-icon-wrapper"><line x1="7" y1="1" x2="7" y2="4" fill="none" stroke="#61616b" stroke-width="2"></line><line x1="17" y1="1" x2="17" y2="4" fill="none" stroke="#61616b" stroke-width="2"></line><polyline points="18.975 13.264 18 4 6 4 5.025 13.264" fill="none" stroke="#61616b" stroke-width="2" data-cap="butt"></polyline><path d="M6,4H1c0,2.209,1.791,4,4,4h.579" fill="none" stroke="#61616b" stroke-width="2" data-cap="butt"></path><path d="M18,4h5c0,2.209-1.791,4-4,4h-.579" fill="none" stroke="#61616b" stroke-width="2" data-cap="butt"></path><circle cx="8.5" cy="17.5" r="1.5" fill="#61616b" data-stroke="none" stroke="none"></circle><circle cx="15.5" cy="17.5" r="1.5" fill="#61616b" data-stroke="none" stroke="none"></circle><path d="M18,13H6c-1.105,0-2,.895-2,2v3c0,2.761,2.239,5,5,5h6c2.761,0,5-2.239,5-5v-3c0-1.105-.895-2-2-2Z" fill="none" stroke="#61616b" stroke-width="2" data-color="color-2"></path><circle cx="9.25" cy="9.25" r="1.25" fill="#61616b" data-color="color-2" data-stroke="none" stroke="none"></circle><circle cx="14.75" cy="9.25" r="1.25" fill="#61616b" data-color="color-2" data-stroke="none" stroke="none"></circle></g></svg>