<svg xmlns="http://www.w3.org/2000/svg" height="48" width="48" viewBox="0 0 48 48"><title>crab 4</title><g stroke-linecap="round" fill="#61616b" stroke-linejoin="round" class="nc-icon-wrapper"><path data-cap="butt" data-color="color-2" fill="none" stroke="#61616b" stroke-width="2" d="M36.472,40.104 C40.006,41.2,40,46,40,46"></path> <path data-cap="butt" data-color="color-2" fill="none" stroke="#61616b" stroke-width="2" d="M38,18 c0,3.929-2.062,7.344-4.44,8.318"></path> <path data-cap="butt" data-color="color-2" fill="none" stroke="#61616b" stroke-width="2" d="M11.528,40.104 C7.994,41.2,8,46,8,46"></path> <path data-cap="butt" data-color="color-2" fill="none" stroke="#61616b" stroke-width="2" d="M10,18 c0,3.929,2.062,7.344,4.44,8.318"></path> <path fill="none" stroke="#61616b" stroke-width="2" d="M32.447,4.257 C33.34,6.451,35.486,8,38,8s4.66-1.549,5.553-3.743C45.057,5.712,46,7.742,46,10c0,4.418-3.582,8-8,8s-8-3.582-8-8 C30,7.742,30.943,5.712,32.447,4.257z"></path> <path fill="none" stroke="#61616b" stroke-width="2" d="M4,34c0,0,8.889-10,20-10 s20,10,20,10s-8.981,10-20,10C12.889,44,4,34,4,34z"></path> <path fill="none" stroke="#61616b" stroke-width="2" d="M15.553,4.257 C14.66,6.451,12.514,8,10,8S5.34,6.451,4.447,4.257C2.943,5.712,2,7.742,2,10c0,4.418,3.582,8,8,8s8-3.582,8-8 C18,7.742,17.057,5.712,15.553,4.257z"></path> <circle data-stroke="none" fill="#61616b" cx="18" cy="32" r="2" stroke="none"></circle> <circle data-stroke="none" fill="#61616b" cx="30" cy="32" r="2" stroke="none"></circle></g></svg>