<svg xmlns="http://www.w3.org/2000/svg" height="64" width="64" viewBox="0 0 64 64"><title>crab 3</title><g stroke-linecap="round" fill="#61616b" stroke-linejoin="round" class="nc-icon-wrapper"><path data-cap="butt" data-color="color-2" d="M58.474,23.485C59.5,30.625,55.625,35.792,50.165,37" fill="none" stroke="#61616b" stroke-width="2"></path> <path data-cap="butt" data-color="color-2" d="M13.968,53.086C9,55,9,61,9,61" fill="none" stroke="#61616b" stroke-width="2"></path> <path data-cap="butt" data-color="color-2" d="M50.032,53.086C55,55,55,61,55,61" fill="none" stroke="#61616b" stroke-width="2"></path> <path data-cap="butt" data-color="color-2" d="M5.526,23.485C4.5,30.625,8.375,35.792,13.835,37" fill="none" stroke="#61616b" stroke-width="2"></path> <path d="M4,45S16.848,31,32,31,60,45,60,45,47.025,59,32,59C16.848,59,4,45,4,45Z" fill="none" stroke="#61616b" stroke-width="2"></path> <path d="M25.974,14.211c-3.139,2.446-11.2,4.383-13.377,2.2-2.121-2.121-.242-10.238,2.2-13.376A12,12,0,1,0,25.974,14.211Z" fill="none" stroke="#61616b" stroke-width="2"></path> <path d="M38.026,14.211c3.139,2.446,11.2,4.383,13.377,2.2,2.121-2.121.242-10.238-2.2-13.376A12,12,0,1,1,38.026,14.211Z" fill="none" stroke="#61616b" stroke-width="2"></path> <circle cx="21.5" cy="41.5" r="1.5" fill="none" stroke="#61616b" stroke-width="2"></circle> <circle data-stroke="none" cx="21.5" cy="41.5" r="1.5" fill="#61616b" stroke="none"></circle> <circle cx="42.5" cy="41.5" r="1.5" fill="none" stroke="#61616b" stroke-width="2"></circle> <circle data-stroke="none" cx="42.5" cy="41.5" r="1.5" fill="#61616b" stroke="none"></circle></g></svg>