<svg xmlns="http://www.w3.org/2000/svg" height="16" width="16" viewBox="0 0 16 16"><title>crab 2</title><g fill="#61616b" class="nc-icon-wrapper"><path d="M3.652,12.986A2.477,2.477,0,0,0,1.5,15.5" fill="none" stroke="#61616b" stroke-linecap="round" stroke-linejoin="round" data-color="color-2"></path> <path d="M3.422,5.615a2.768,2.768,0,0,0,1.44,2.673" fill="none" stroke="#61616b" stroke-linecap="round" stroke-linejoin="round" data-color="color-2"></path> <path d="M12.348,12.986A2.477,2.477,0,0,1,14.5,15.5" fill="none" stroke="#61616b" stroke-linecap="round" stroke-linejoin="round" data-color="color-2"></path> <path d="M12.578,5.615a2.768,2.768,0,0,1-1.44,2.673" fill="none" stroke="#61616b" stroke-linecap="round" stroke-linejoin="round" data-color="color-2"></path> <path d="M1.5,11S4.212,7.5,8,7.5,14.5,11,14.5,11,11.756,14.5,8,14.5C4.212,14.5,1.5,11,1.5,11Z" fill="none" stroke="#61616b" stroke-linecap="round" stroke-linejoin="round"></path> <path d="M5.545.5A2.234,2.234,0,0,1,3.478,1.893,2.232,2.232,0,0,1,1.411.5,2.977,2.977,0,1,0,5.545.5Z" fill="none" stroke="#61616b" stroke-linecap="round" stroke-linejoin="round"></path> <path d="M10.455.5a2.234,2.234,0,0,0,2.067,1.393A2.232,2.232,0,0,0,14.589.5a2.977,2.977,0,1,1-4.134,0Z" fill="none" stroke="#61616b" stroke-linecap="round" stroke-linejoin="round"></path></g></svg>