<svg xmlns="http://www.w3.org/2000/svg" height="24" width="24" viewBox="0 0 24 24"><title>crab</title><g stroke-linecap="round" fill="#61616b" stroke-linejoin="round" class="nc-icon-wrapper"><path data-cap="butt" data-color="color-2" fill="none" stroke="#61616b" stroke-width="2" d="M18.2,20.1C20,20.6,20,23,20,23 "></path> <path data-cap="butt" data-color="color-2" fill="none" stroke="#61616b" stroke-width="2" d="M19,9c0,2-1,3.7-2.2,4.2"></path> <path data-cap="butt" data-color="color-2" fill="none" stroke="#61616b" stroke-width="2" d="M5.8,20.1C4,20.6,4,23,4,23"></path> <path data-cap="butt" data-color="color-2" fill="none" stroke="#61616b" stroke-width="2" d="M5,9c0,2,1,3.7,2.2,4.2"></path> <path fill="none" stroke="#61616b" stroke-width="2" d="M16.2,2.1 C16.7,3.2,17.7,4,19,4s2.3-0.8,2.8-1.9C22.5,2.9,23,3.9,23,5c0,2.2-1.8,4-4,4s-4-1.8-4-4C15,3.9,15.5,2.9,16.2,2.1z"></path> <path fill="none" stroke="#61616b" stroke-width="2" d="M2,17c0,0,4.4-5,10-5 s10,5,10,5s-4.5,5-10,5C6.4,22,2,17,2,17z"></path> <path fill="none" stroke="#61616b" stroke-width="2" d="M7.8,2.1C7.3,3.2,6.3,4,5,4 S2.7,3.2,2.2,2.1C1.5,2.9,1,3.9,1,5c0,2.2,1.8,4,4,4s4-1.8,4-4C9,3.9,8.5,2.9,7.8,2.1z"></path></g></svg>