<svg xmlns="http://www.w3.org/2000/svg" height="32" width="32" viewBox="0 0 32 32"><title>crab 5</title><g stroke-linecap="round" fill="#61616b" stroke-linejoin="round" class="nc-icon-wrapper"><path data-cap="butt" data-color="color-2" fill="none" stroke="#61616b" stroke-width="2" d="M29.2,11.3 c1.8,4.5-1.1,7.5-4.1,7.7"></path> <path data-cap="butt" data-color="color-2" fill="none" stroke="#61616b" stroke-width="2" d="M7,27c-2,0.5-2,4-2,4"></path> <path data-cap="butt" data-color="color-2" fill="none" stroke="#61616b" stroke-width="2" d="M25,27c2,0.5,2,4,2,4"></path> <path data-cap="butt" data-color="color-2" fill="none" stroke="#61616b" stroke-width="2" d="M2.8,11.3 C1,15.8,3.9,18.8,6.9,19"></path> <path fill="none" stroke="#61616b" stroke-width="2" d="M19,6.6 c1.6,1.2,5.6,2.2,6.7,1.1c1.1-1.1,0.1-5.1-1.1-6.7c1.7-0.1,3.4,0.5,4.6,1.7c2.3,2.3,2.3,6.1,0,8.5s-6.1,2.3-8.5,0 C19.5,10,18.9,8.3,19,6.6z"></path> <path fill="none" stroke="#61616b" stroke-width="2" d="M2,23c0,0,6.4-7,14-7 s14,7,14,7s-6.5,7-14,7C8.4,30,2,23,2,23z"></path> <path fill="none" stroke="#61616b" stroke-width="2" d="M13,6.6 c-1.6,1.2-5.6,2.2-6.7,1.1C5.2,6.6,6.2,2.6,7.4,1C5.7,0.9,4,1.5,2.8,2.8c-2.3,2.3-2.3,6.1,0,8.5s6.1,2.3,8.5,0 C12.5,10,13.1,8.3,13,6.6z"></path></g></svg>