<svg xmlns="http://www.w3.org/2000/svg" height="64" width="64" viewBox="0 0 64 64"><title>deer 3</title><g stroke-linecap="round" fill="#61616b" stroke-linejoin="round" class="nc-icon-wrapper"><line data-cap="butt" data-color="color-2" fill="none" stroke="#61616b" stroke-width="2" x1="32" y1="52" x2="32" y2="62"></line> <path data-cap="butt" data-color="color-2" fill="none" stroke="#61616b" stroke-width="2" d="M20.7729588,18H6 c-2.2091391,0-4-1.7908611-4-4V2"></path> <line data-cap="butt" data-color="color-2" fill="none" stroke="#61616b" stroke-width="2" x1="12" y1="18" x2="12" y2="8"></line> <path data-cap="butt" data-color="color-2" fill="none" stroke="#61616b" stroke-width="2" d="M43.2270393,18H58 c2.2091408,0,4-1.7908611,4-4V2"></path> <line data-cap="butt" data-color="color-2" fill="none" stroke="#61616b" stroke-width="2" x1="52" y1="18" x2="52" y2="8"></line> <circle data-color="color-2" fill="none" stroke="#61616b" stroke-width="2" cx="32" cy="46" r="6"></circle> <path data-color="color-2" fill="none" stroke="#61616b" stroke-width="2" d="M20,32 c0-2.2091389,1.7908611-4,4-4s4,1.7908611,4,4"></path> <path data-color="color-2" fill="none" stroke="#61616b" stroke-width="2" d="M36,32 c0-2.2091389,1.7908592-4,4-4s4,1.7908611,4,4"></path> <path data-cap="butt" fill="none" stroke="#61616b" stroke-width="2" d="M14.0521164,34h-4.052124 C5.5817184,34,2,30.4182816,2,26.0000076V26h12.6410532"></path> <path data-cap="butt" fill="none" stroke="#61616b" stroke-width="2" d="M49.9478836,34h4.052124 C58.4182816,34,62,30.4182816,62,26.0000076V26H49.3589478"></path> <path fill="none" stroke="#61616b" stroke-width="2" d="M14,32 c0-12.0498486,5.9501514-16,18-16s18,3.9501514,18,16s-5.9501495,30-18,30S14,44.0498505,14,32z"></path></g></svg>