<svg xmlns="http://www.w3.org/2000/svg" height="16" width="16" viewBox="0 0 16 16"><title>deer 2</title><g fill="#61616b" class="nc-icon-wrapper"><path d="M15.5.5v2a2,2,0,0,1-2,2H2.5a2,2,0,0,1-2-2V.5" fill="none" stroke="#61616b" stroke-linecap="round" stroke-linejoin="round" data-color="color-2"></path> <path d="M12.5,9c0,2.5-2.015,6.5-4.5,6.5S3.5,11.5,3.5,9a4.5,4.5,0,0,1,9,0Z" fill="none" stroke="#61616b" stroke-linecap="round" stroke-linejoin="round"></path> <circle cx="8" cy="12" r="1.5" fill="none" stroke="#61616b" stroke-linecap="round" stroke-linejoin="round" data-color="color-2"></circle> <line x1="3.5" y1="2.5" x2="3.5" y2="4.5" fill="none" stroke="#61616b" stroke-linecap="round" stroke-linejoin="round" data-color="color-2"></line> <line x1="12.5" y1="2.5" x2="12.5" y2="4.5" fill="none" stroke="#61616b" stroke-linecap="round" stroke-linejoin="round" data-color="color-2"></line> <path d="M11.745,6.5H15.5a3,3,0,0,1-3,3" fill="none" stroke="#61616b" stroke-linecap="round" stroke-linejoin="round"></path> <path d="M4.255,6.5H.5a3,3,0,0,0,3,3" fill="none" stroke="#61616b" stroke-linecap="round" stroke-linejoin="round"></path></g></svg>