<svg xmlns="http://www.w3.org/2000/svg" height="48" width="48" viewBox="0 0 48 48"><title>dog 4</title><g stroke-linecap="round" fill="#61616b" stroke-linejoin="round" class="nc-icon-wrapper"><circle data-color="color-2" fill="none" stroke="#61616b" stroke-width="2" cx="15" cy="22" r="2"></circle> <circle data-color="color-2" fill="none" stroke="#61616b" stroke-width="2" cx="33" cy="22" r="2"></circle> <path data-cap="butt" fill="none" stroke="#61616b" stroke-width="2" d="M11.99628,42.66003 C9.00933,40.93045,7,37.69987,7,34V22c0-6.62742,5.37258-12,12-12h10c6.62742,0,12,5.37258,12,12v12 c0,3.70123-2.01079,6.9328-4.99955,8.66191"></path> <path data-cap="butt" fill="none" stroke="#61616b" stroke-width="2" d="M28.20959,44.27605 C27.12638,45.34349,25.64093,46,24,46c-1.64071,0-3.12642-0.65676-4.20959-1.72395"></path> <path data-cap="butt" fill="none" stroke="#61616b" stroke-width="2" d="M7,23c-2.76142,0-5-2.23858-5-5V2 h0.00002c5.95229,0,11.10336,3.48553,13.5269,8.51028"></path> <path data-cap="butt" fill="none" stroke="#61616b" stroke-width="2" d="M41,23c2.76143,0,5-2.23858,5-5V2 h-0.00002c-5.95229,0-11.10336,3.48553-13.52689,8.51028"></path> <path data-cap="butt" data-color="color-2" fill="none" stroke="#61616b" stroke-width="2" d="M24,37.05635V38 c0,4.41828-3.58172,7-8,7h-4v-9c0-3.31371,2.68629-6,6-6h1.5"></path> <path data-cap="butt" data-color="color-2" fill="none" stroke="#61616b" stroke-width="2" d="M24,35.33333V38 c0,4.41828,3.58172,7,8,7h4v-9c0-3.31371-2.68629-6-6-6h-1.5"></path> <path data-color="color-2" fill="none" stroke="#61616b" stroke-width="2" d="M20,28h8 c0.82405,0,1.29443,0.94076,0.8,1.6l-4,5.33333c-0.4,0.53333-1.2,0.53333-1.6,0L19.2,29.6C18.70557,28.94076,19.17595,28,20,28z"></path></g></svg>