<svg xmlns="http://www.w3.org/2000/svg" height="32" width="32" viewBox="0 0 32 32"><title>dog 5</title><g stroke-linecap="round" fill="#61616b" stroke-linejoin="round" class="nc-icon-wrapper"><path data-cap="butt" fill="none" stroke="#61616b" stroke-width="2" d="M8.86823,5.63507 C7.33185,2.87177,4.38586,1,1,1v10c0,2.20911,1.79089,4,4,4"></path> <path data-cap="butt" fill="none" stroke="#61616b" stroke-width="2" d="M23.13177,5.63507 C24.66815,2.87177,27.61414,1,31,1v10c0,2.20911-1.79089,4-4,4"></path> <circle data-color="color-2" fill="none" stroke="#61616b" stroke-width="2" cx="11" cy="14" r="2"></circle> <circle data-color="color-2" fill="none" stroke="#61616b" stroke-width="2" cx="21" cy="14" r="2"></circle> <path data-cap="butt" fill="none" stroke="#61616b" stroke-width="2" d="M8.001,27.42103 C6.17635,26.02101,5,23.81817,5,21.34058v-9.63859C5,8.00058,8.00058,5,11.70199,5h8.59602C23.99942,5,27,8.00058,27,11.70199 v9.63859c0,2.47707-1.17586,4.6795-2.99986,6.07957"></path> <path data-cap="butt" fill="none" stroke="#61616b" stroke-width="2" d="M20.00048,28.99985 C19.08828,30.21438,17.63589,31,16,31c-1.6369,0-3.09008-0.78659-4.00217-2.00241"></path> <path data-cap="butt" data-color="color-2" fill="none" stroke="#61616b" stroke-width="2" d="M13.07874,20H12 c-2.20917,0-4,1.79083-4,4v5h4c2.20917,0,4-1.79089,4-4v-1.60083"></path> <path data-cap="butt" data-color="color-2" fill="none" stroke="#61616b" stroke-width="2" d="M18.92126,20H20 c2.20917,0,4,1.79083,4,4v5h-4c-2.20917,0-4-1.79089-4-4v-1.60083"></path> <path data-color="color-2" fill="none" stroke="#61616b" stroke-width="2" d="M14.08062,19 h3.83875c0.83851,0,1.30468,0.96993,0.78087,1.62469l-1.91937,2.39922c-0.40033,0.50041-1.16141,0.50041-1.56174,0l-1.91937-2.39922 C12.77594,19.96993,13.24212,19,14.08062,19z"></path></g></svg>