<svg xmlns="http://www.w3.org/2000/svg" height="32" width="32" viewBox="0 0 32 32"><title>dog leash 4</title><g stroke-linecap="round" fill="#61616b" stroke-linejoin="round" class="nc-icon-wrapper"><line x1="20.087" y1="11.043" x2="26.416" y2="14.14" fill="none" stroke="#61616b" stroke-width="2" data-cap="butt" data-color="color-2"></line><path d="M26,6,24,4l-4.143,7.457A3,3,0,0,1,17.235,13H8a3,3,0,0,0-3,3V30H9V25.554a2,2,0,0,1,.285-1.029L12,20l6.7,2.513A2,2,0,0,1,20,24.386V30h4V23l3-11h1a3,3,0,0,0,3-3V7Z" fill="none" stroke="#61616b" stroke-width="2" data-cap="butt"></path><path d="M17,9A8,8,0,0,1,9,1" fill="none" stroke="#61616b" stroke-width="2" data-color="color-2"></path><path d="M1,9a4,4,0,0,0,4,4H8" fill="none" stroke="#61616b" stroke-width="2"></path></g></svg>