<svg xmlns="http://www.w3.org/2000/svg" height="48" width="48" viewBox="0 0 48 48"><title>dog leash 2</title><g stroke-linecap="round" fill="#61616b" stroke-linejoin="round" class="nc-icon-wrapper"><line x1="30.273" y1="17.636" x2="39" y2="22" fill="none" stroke="#61616b" stroke-width="2" data-cap="butt" data-color="color-2"></line><path d="M38,10,36,7,30.133,17.9A4,4,0,0,1,26.611,20H12a4,4,0,0,0-4,4V45h5l.954-7.588a2,2,0,0,1,.252-.772L18,30l10.812,3.6a2,2,0,0,1,1.41,1.752L31,45h5V34l4-16h2a4,4,0,0,0,4-4V11Z" fill="none" stroke="#61616b" stroke-width="2" data-cap="butt"></path><path d="M25,15A12,12,0,0,1,13,3" fill="none" stroke="#61616b" stroke-width="2" data-color="color-2"></path><path d="M2,14a6,6,0,0,0,6,6h4" fill="none" stroke="#61616b" stroke-width="2"></path></g></svg>