<svg xmlns="http://www.w3.org/2000/svg" height="16" width="16" viewBox="0 0 16 16"><title>dog 2</title><g fill="#61616b" class="nc-icon-wrapper"><line x1="8.5" y1="15.5" x2="8.5" y2="12.5" fill="none" stroke="#61616b" stroke-linecap="round" stroke-linejoin="round" data-color="color-2"></line> <polygon points="6.5 10.5 10.5 10.5 8.5 12.5 6.5 10.5" fill="#61616b" data-color="color-2" data-stroke="none" stroke="none"></polygon> <rect x="2.5" y="3.5" width="12" height="12" rx="4" ry="4" fill="none" stroke="#61616b" stroke-linecap="round" stroke-linejoin="round"></rect> <polygon points="6.5 10.5 10.5 10.5 8.5 12.5 6.5 10.5" fill="none" stroke="#61616b" stroke-linecap="round" stroke-linejoin="round" data-color="color-2"></polygon> <circle cx="6" cy="8" r="1" fill="#61616b" data-color="color-2" data-stroke="none" stroke="none"></circle> <circle cx="11" cy="8" r="1" fill="#61616b" data-color="color-2" data-stroke="none" stroke="none"></circle> <path d="M14.374,6.5H14.5a1,1,0,0,0,1-1V.5h-1a3,3,0,0,0-3,3v.126" fill="none" stroke="#61616b" stroke-linecap="round" stroke-linejoin="round"></path> <path d="M2.626,6.5H2.5a1,1,0,0,1-1-1V.5h1a3,3,0,0,1,3,3v.126" fill="none" stroke="#61616b" stroke-linecap="round" stroke-linejoin="round"></path></g></svg>