<svg xmlns="http://www.w3.org/2000/svg" height="24" width="24" viewBox="0 0 24 24"><title>dog</title><g stroke-linecap="round" fill="#61616b" stroke-linejoin="round" class="nc-icon-wrapper"><circle data-color="color-2" fill="none" stroke="#61616b" stroke-width="2" cx="8" cy="11" r="1"></circle> <circle data-color="color-2" fill="none" stroke="#61616b" stroke-width="2" cx="16" cy="11" r="1"></circle> <path data-cap="butt" fill="none" stroke="#61616b" stroke-width="2" d="M2.9964,10.99766 C1.784,10.08529,1,8.6342,1,7V1h0.00001c2.96098,0,5.54624,1.60863,6.92953,3.99963"></path> <path data-cap="butt" fill="none" stroke="#61616b" stroke-width="2" d="M21.0036,10.99766 C22.216,10.08529,23,8.6342,23,7V1h-0.00001c-2.96098,0-5.54624,1.60863-6.92953,3.99963"></path> <path data-cap="butt" fill="none" stroke="#61616b" stroke-width="2" d="M5.99435,21.87252 C4.27199,21.42652,3,19.8618,3,18v-8c0-2.76142,2.23858-5,5-5h8c2.76142,0,5,2.23858,5,5v8 c0,1.86369-1.27457,3.42969-2.99959,3.87388"></path> <path data-cap="butt" data-color="color-2" fill="none" stroke="#61616b" stroke-width="2" d="M12,18.52818V19 c0,2.20914-1.79086,4-4,4H6v-5c0-1.65685,1.34315-3,3-3h0.76465"></path> <path data-cap="butt" data-color="color-2" fill="none" stroke="#61616b" stroke-width="2" d="M12,18.05586V19 c0,2.20914,1.79086,4,4,4h2v-5c0-1.65685-1.34315-3-3-3h-0.76474"></path> <path data-color="color-2" fill="none" stroke="#61616b" stroke-width="2" d="M10.76619,14 h2.46762c0.77729,0,1.25741,0.84797,0.85749,1.5145l-1.23381,2.05635c-0.3884,0.64734-1.32658,0.64734-1.71499,0L9.9087,15.5145 C9.50878,14.84797,9.9889,14,10.76619,14z"></path></g></svg>