<svg xmlns="http://www.w3.org/2000/svg" height="48" width="48" viewBox="0 0 48 48"><title>duck 3</title><g stroke-linecap="round" fill="#61616b" stroke-linejoin="round" class="nc-icon-wrapper"><path d="M38,17a2,2,0,0,1,2-2h6V14c0-.552-.656-.918-1-1a8.632,8.632,0,0,1-5.73-4.113A7,7,0,0,0,26,12a14.909,14.909,0,0,0,2.327,8C16,20,8,24,8,24L2,21v4c0,9.941,10,18,22,18,10,0,19-4,19-14C43,24,38,21,38,17Z" fill="none" stroke="#61616b" stroke-width="2"></path><circle cx="33.5" cy="11.5" r="1.5" fill="#61616b" data-color="color-2" data-stroke="none" stroke="none"></circle><path d="M29,26a9,9,0,0,1-9,9" fill="none" stroke="#61616b" stroke-width="2" data-color="color-2"></path></g></svg>