<svg xmlns="http://www.w3.org/2000/svg" height="32" width="32" viewBox="0 0 32 32"><title>duck 4</title><g stroke-linecap="round" fill="#61616b" stroke-linejoin="round" class="nc-icon-wrapper"><circle cx="22.5" cy="6.5" r="1" fill="#61616b" data-color="color-2" data-stroke="none" stroke="none"></circle><path d="M20,17a7,7,0,0,1-7,7" fill="none" stroke="#61616b" stroke-width="2" data-color="color-2"></path><path d="M17,7a9.942,9.942,0,0,0,2.014,6C10,13,6,16,6,16L1,14l.008,2.993C1.008,23.988,7,29,16,29c7,0,13-3,13-9,0-4-3.493-6-3.493-8.5A1.5,1.5,0,0,1,27,10h4V9a1,1,0,0,0-.8-.98h0a4.5,4.5,0,0,1-3.484-2.689A5,5,0,0,0,17,7Z" fill="none" stroke="#61616b" stroke-width="2"></path></g></svg>