<svg xmlns="http://www.w3.org/2000/svg" height="24" width="24" viewBox="0 0 24 24"><title>duck 5</title><g stroke-linecap="round" fill="#61616b" stroke-linejoin="round" class="nc-icon-wrapper"><path d="M15,14a4,4,0,0,1-4,4" fill="none" stroke="#61616b" stroke-width="2" data-color="color-2"></path><path d="M14.027,10A4.98,4.98,0,0,1,12,6a4,4,0,0,1,4-4c3,0,3.613,2.168,4.334,2.972A4.481,4.481,0,0,0,22.5,6.5c.164.065.5.224.5.5H20a1,1,0,0,0-1,1c0,2,4,3,4,7,0,6-5,7-11,7S1,17.971,1,13V11l3,1A24.324,24.324,0,0,1,14.027,10Z" fill="none" stroke="#61616b" stroke-width="2"></path></g></svg>