<svg xmlns="http://www.w3.org/2000/svg" height="16" width="16" viewBox="0 0 16 16"><title>duck</title><g fill="#61616b" class="nc-icon-wrapper"><path d="M10.5,8.5A3.5,3.5,0,0,1,7,12" fill="none" stroke="#61616b" stroke-linecap="round" stroke-linejoin="round" data-color="color-2"></path><path d="M8.5,3a6.575,6.575,0,0,0,1,3.5C4.993,6.5,3,7.99,3,7.99L.5,6.5v2c0,3.5,3,5.99,7.5,5.99,3.5,0,6.5-1.5,6.5-4.5,0-2-1.746-3.49-1.746-4.74A.747.747,0,0,1,13.5,4.5h2V4a.5.5,0,0,0-.4-.49h0a2.256,2.256,0,0,1-1.743-1.344A2.5,2.5,0,0,0,8.5,3Z" fill="none" stroke="#61616b" stroke-linecap="round" stroke-linejoin="round"></path></g></svg>