<svg xmlns="http://www.w3.org/2000/svg" height="64" width="64" viewBox="0 0 64 64"><title>duck 2</title><g stroke-linecap="round" fill="#61616b" stroke-linejoin="round" class="nc-icon-wrapper"><path d="M40,35c0,7.732-6.268,14-14,14" fill="none" stroke="#61616b" stroke-width="2" data-color="color-2"></path><path d="M60.4,18.04c-3.31-.7-5.978-3.142-6.968-6.377-1.835-5.209-7.545-7.945-12.754-6.11-4.006,1.411-6.684,5.199-6.678,9.447,0,4.332,1.413,8.545,4.027,12-18.027,0-26.027,6-26.027,6L2,29l.015,5.987c0,13.989,11.985,24.013,29.985,24.013,14,0,26-6,26-18,0-8-6.986-12-6.986-17-.007-1.65,1.326-2.993,2.976-3,.003,0,.007,0,.01,0h8v-1c0-.951-.669-1.77-1.6-1.96Z" fill="none" stroke="#61616b" stroke-width="2"></path><circle cx="45" cy="13" r="1" fill="#61616b" stroke="#61616b" stroke-width="2" data-cap="butt" data-color="color-2"></circle></g></svg>