<svg xmlns="http://www.w3.org/2000/svg" height="64" width="64" viewBox="0 0 64 64"><title>earth science 2</title><g stroke-linecap="round" fill="#61616b" stroke-linejoin="round" class="nc-icon-wrapper"><path id="butt_color" data-name="butt color" d="M15.377,8.234c1.829,1.352,3.234,4.79,3.234,4.79a6.253,6.253,0,0,1,2.074,2.5,6.881,6.881,0,0,1,.027,3.3s1.4,4.112.742,5.266-3.461,1.894-3.461,1.894a5.4,5.4,0,0,1-3.543,2.554A3.32,3.32,0,0,0,11.319,32c0,2.225,2.224,5.849,2.224,5.849S15.85,38.977,16.18,39.8a12.585,12.585,0,0,1,.441,2.743s2.2,3.873.959,6.1c-.394.71-2.224,1.236-2.224,1.236L12.79,53.727" fill="none" stroke="#61616b" stroke-width="2" data-cap="butt"></path><path d="M32,43a11,11,0,0,0,0-22" fill="none" stroke="#61616b" stroke-width="2" data-cap="butt" data-color="color-2"></path><path d="M32,51a19,19,0,0,0,0-38" fill="none" stroke="#61616b" stroke-width="2" data-cap="butt" data-color="color-2"></path><line x1="32" y1="3" x2="32" y2="61" fill="none" stroke="#61616b" stroke-width="2" data-cap="butt"></line><circle cx="32" cy="32" r="29" fill="none" stroke="#61616b" stroke-width="2" data-cap="butt"></circle></g></svg>