<svg xmlns="http://www.w3.org/2000/svg" height="16" width="16" viewBox="0 0 16 16"><title>ecology</title><g fill="#61616b" class="nc-icon-wrapper"><path d="M3.7,1.849a4.573,4.573,0,0,1,1.2,1.377c.3.51.98,1.928.361,2.729C4.567,6.86,2.539,7.166,2.539,8c0,.628.889,1.344,1.364,2.045a2.436,2.436,0,0,1,0,2.728,2.554,2.554,0,0,1-.882.841" fill="none" stroke="#61616b" stroke-linecap="round" stroke-linejoin="round"></path><path d="M13.9,3.382a16.231,16.231,0,0,1-3.865,1.209c-.712.051-.818-.535-1.363-1.364-.409-.622-1.364-1.4-1.364-2.045A2.073,2.073,0,0,1,7.4.523" fill="none" stroke="#61616b" stroke-linecap="round" stroke-linejoin="round"></path><path d="M10.7,6.581a2.162,2.162,0,0,0-.3-.01,2.337,2.337,0,0,0-2.37,1.607" fill="none" stroke="#61616b" stroke-linecap="round" stroke-linejoin="round"></path><path d="M15.5,6.491a4.989,4.989,0,0,1-4,2.009,2.5,2.5,0,0,0,0,5,4,4,0,0,0,4-4Z" fill="none" stroke="#61616b" stroke-linecap="round" stroke-linejoin="round" data-color="color-2"></path><path d="M8.5,15.5a2,2,0,0,0,2-2,2.82,2.82,0,0,1,2-3" fill="none" stroke="#61616b" stroke-linecap="round" stroke-linejoin="round" data-color="color-2"></path><path d="M14.625,4.5A7.5,7.5,0,1,0,6.5,15.338" fill="none" stroke="#61616b" stroke-linecap="round" stroke-linejoin="round"></path></g></svg>