<svg xmlns="http://www.w3.org/2000/svg" height="48" width="48" viewBox="0 0 48 48"><title>elephant 3</title><g stroke-linecap="round" fill="#61616b" stroke-linejoin="round" class="nc-icon-wrapper"><path d="M32.279,26.673A5.969,5.969,0,0,0,42,22c0-6,4-6,4-12a8,8,0,0,0-8-8c-4.914,0-5.81,3.35-10.365,4.564" fill="none" stroke="#61616b" stroke-width="2" data-cap="butt"></path><path d="M20.365,6.564C15.81,5.35,14.914,2,10,2a8,8,0,0,0-8,8c0,6,4,6,4,12a5.969,5.969,0,0,0,9.721,4.673" fill="none" stroke="#61616b" stroke-width="2" data-cap="butt"></path><path d="M39,39A10,10,0,0,1,29,29v-.1" fill="none" stroke="#61616b" stroke-width="2" data-cap="butt" data-color="color-2"></path><path d="M9,39A10,10,0,0,0,19,29v-.1" fill="none" stroke="#61616b" stroke-width="2" data-cap="butt" data-color="color-2"></path><circle cx="19" cy="17" r="1" fill="none" stroke="#61616b" stroke-width="2" data-cap="butt" data-color="color-2"></circle><circle cx="29" cy="17" r="1" fill="none" stroke="#61616b" stroke-width="2" data-cap="butt" data-color="color-2"></circle><path d="M21,26v4.3A19.94,19.94,0,0,0,28.008,45.5a2.181,2.181,0,0,0,2.948-.148h0a2.211,2.211,0,0,0,.162-2.92A19.858,19.858,0,0,1,27,30.3V26" fill="none" stroke="#61616b" stroke-width="2"></path><path d="M27,29.607a12,12,0,1,0-6,0" fill="none" stroke="#61616b" stroke-width="2" data-cap="butt"></path></g></svg>