<svg xmlns="http://www.w3.org/2000/svg" height="32" width="32" viewBox="0 0 32 32"><title>elephant 4</title><g stroke-linecap="round" fill="#61616b" stroke-linejoin="round" class="nc-icon-wrapper"><path d="M13.514,4.4C11.305,3.283,9.9,1,6.5,1A5.5,5.5,0,0,0,1,6.5C1,11,4,11,4,15a3.985,3.985,0,0,0,6.673,2.957" fill="none" stroke="#61616b" stroke-width="2" data-cap="butt"></path><path d="M21.327,17.957A3.985,3.985,0,0,0,28,15c0-4,3-4,3-8.5A5.5,5.5,0,0,0,25.5,1c-3.4,0-4.8,2.283-7.014,3.4" fill="none" stroke="#61616b" stroke-width="2" data-cap="butt"></path><path d="M6,27a7,7,0,0,0,7-7v-.592" fill="none" stroke="#61616b" stroke-width="2" data-cap="butt" data-color="color-2"></path><path d="M26,27a7,7,0,0,1-7-7v-.593" fill="none" stroke="#61616b" stroke-width="2" data-cap="butt" data-color="color-2"></path><circle cx="12.5" cy="11.5" r="1.5" fill="#61616b" data-color="color-2" data-stroke="none" stroke="none"></circle><circle cx="19.5" cy="11.5" r="1.5" fill="#61616b" data-color="color-2" data-stroke="none" stroke="none"></circle><path d="M24,12a8,8,0,1,0-10,7.738V21.26a11.954,11.954,0,0,0,4.55,9.391,1.676,1.676,0,0,0,2.259-2.457A9.939,9.939,0,0,1,18,21.26V19.738A8,8,0,0,0,24,12Z" fill="none" stroke="#61616b" stroke-width="2" data-cap="butt"></path></g></svg>