<svg xmlns="http://www.w3.org/2000/svg" height="64" width="64" viewBox="0 0 64 64"><title>elephant 2</title><g stroke-linecap="round" fill="#61616b" stroke-linejoin="round" class="nc-icon-wrapper"><path d="M9.464,16.536a5,5,0,0,1,0-7.072" fill="none" stroke="#61616b" stroke-width="2"></path><path d="M54.536,9.464a5,5,0,0,1,0,7.072" fill="none" stroke="#61616b" stroke-width="2"></path><path d="M26.409,7.024C21.971,5.325,19.7,2,13,2A11,11,0,0,0,2,13c0,9,6,9,6,17a7.993,7.993,0,0,0,14.4,4.781" fill="none" stroke="#61616b" stroke-width="2" data-cap="butt"></path><path d="M37.591,7.024C42.029,5.325,44.3,2,51,2A11,11,0,0,1,62,13c0,9-6,9-6,17a7.993,7.993,0,0,1-14.4,4.781" fill="none" stroke="#61616b" stroke-width="2" data-cap="butt"></path><path d="M12,52A14,14,0,0,0,26,38V36.816" fill="none" stroke="#61616b" stroke-width="2" data-cap="butt" data-color="color-2"></path><path d="M52,52A14,14,0,0,1,38,38V36.813" fill="none" stroke="#61616b" stroke-width="2" data-cap="butt" data-color="color-2"></path><circle cx="25" cy="21" r="1" fill="none" stroke="#61616b" stroke-width="2" data-cap="butt" data-color="color-2"></circle><circle cx="39" cy="21" r="1" fill="none" stroke="#61616b" stroke-width="2" data-cap="butt" data-color="color-2"></circle><path d="M48,22A16,16,0,1,0,28,37.476v5.045A23.913,23.913,0,0,0,37.1,61.3a3.351,3.351,0,0,0,4.517-4.915A19.884,19.884,0,0,1,36,42.521V37.476A15.992,15.992,0,0,0,48,22Z" fill="none" stroke="#61616b" stroke-width="2" data-cap="butt"></path><line x1="28" y1="37.476" x2="28" y2="33" fill="none" stroke="#61616b" stroke-width="2"></line><line x1="36" y1="37.476" x2="36" y2="33" fill="none" stroke="#61616b" stroke-width="2"></line></g></svg>