<svg xmlns="http://www.w3.org/2000/svg" height="16" width="16" viewBox="0 0 16 16"><title>elephant</title><g fill="#61616b" class="nc-icon-wrapper"><path d="M6.757,2.2C5.652,1.642,4.951.5,3.25.5A2.75,2.75,0,0,0,.5,3.25C.5,5.5,2,5.5,2,7.5A1.992,1.992,0,0,0,5.336,8.978" fill="none" stroke="#61616b" stroke-linecap="round" stroke-linejoin="round"></path><path d="M10.664,8.978A1.992,1.992,0,0,0,14,7.5c0-2,1.5-2,1.5-4.25A2.75,2.75,0,0,0,12.75.5c-1.7,0-2.4,1.142-3.507,1.7" fill="none" stroke="#61616b" stroke-linecap="round" stroke-linejoin="round"></path><circle cx="6.5" cy="5.5" r="0.75" fill="#61616b" data-color="color-2" data-stroke="none" stroke="none"></circle><circle cx="9.5" cy="5.5" r="0.75" fill="#61616b" data-color="color-2" data-stroke="none" stroke="none"></circle><path d="M12,6A4,4,0,1,0,7,9.869v.761a5.977,5.977,0,0,0,2.275,4.7A.838.838,0,0,0,10.4,14.1,4.972,4.972,0,0,1,9,10.63V9.869A4,4,0,0,0,12,6Z" fill="none" stroke="#61616b" stroke-linecap="round" stroke-linejoin="round"></path></g></svg>