<svg xmlns="http://www.w3.org/2000/svg" height="24" width="24" viewBox="0 0 24 24"><title>elephant 5</title><g stroke-linecap="round" fill="#61616b" stroke-linejoin="round" class="nc-icon-wrapper"><path d="M9.593,3.506C7.8,2.655,7.229,1,5,1A4,4,0,0,0,1,5c0,3,2,3,2,6a2.984,2.984,0,0,0,4.861,2.336" fill="none" stroke="#61616b" stroke-width="2" data-cap="butt"></path><path d="M16.139,13.336A2.984,2.984,0,0,0,21,11c0-3,2-3,2-6a4,4,0,0,0-4-4c-2.229,0-2.8,1.655-4.593,2.506" fill="none" stroke="#61616b" stroke-width="2" data-cap="butt"></path><path d="M10,15a5,5,0,0,1-5,5" fill="none" stroke="#61616b" stroke-width="2" data-color="color-2"></path><path d="M14,15a5,5,0,0,0,5,5" fill="none" stroke="#61616b" stroke-width="2" data-color="color-2"></path><circle cx="9" cy="9" r="1" fill="#61616b" data-color="color-2" data-stroke="none" stroke="none"></circle><circle cx="15" cy="9" r="1" fill="#61616b" data-color="color-2" data-stroke="none" stroke="none"></circle><path d="M10,14.651a6,6,0,1,1,4,0v.672a7.963,7.963,0,0,0,1.9,5.168,1.448,1.448,0,0,1-.039,1.974l-.111.111a1.42,1.42,0,0,1-1.795.187A8.974,8.974,0,0,1,10,15.323Z" fill="none" stroke="#61616b" stroke-width="2"></path></g></svg>