<svg xmlns="http://www.w3.org/2000/svg" height="64" width="64" viewBox="0 0 64 64"><title>fire 3</title><g stroke-linecap="round" fill="#61616b" stroke-linejoin="round" class="nc-icon-wrapper"><path d="M60,39a5,5,0,0,0-6.937-4.61L7.148,51.364A4.982,4.982,0,0,0,10.336,60.8L56.615,43.71A4.984,4.984,0,0,0,60,39Z" fill="none" stroke="#61616b" stroke-width="2"></path><path d="M39.193,55.472,53.613,60.8A4.985,4.985,0,0,0,56.8,51.364L46.335,47.505l.882.325" fill="none" stroke="#61616b" stroke-width="2"></path><circle cx="9" cy="56" r="5" fill="none" stroke="#61616b" stroke-width="2"></circle><circle cx="55" cy="56" r="5" fill="none" stroke="#61616b" stroke-width="2"></circle><path data-color="color-2" d="M37.033,3C23,4.059,16,15,16,25a16,16,0,0,0,32,0C48,13,32,15,37.033,3Z" fill="none" stroke="#61616b" stroke-width="2"></path><path data-color="color-2" d="M39,28a7,7,0,0,1-14,0c0-5,5-5,4-11A11.561,11.561,0,0,1,39,28Z" fill="none" stroke="#61616b" stroke-width="2"></path><path d="M13.828,35.478,10.886,34.39a4.99,4.99,0,1,0-3.552,9.32L17.6,47.5,16,46.909" fill="none" stroke="#61616b" stroke-width="2"></path></g></svg>