<svg xmlns="http://www.w3.org/2000/svg" height="32" width="32" viewBox="0 0 32 32"><title>fire 5</title><g stroke-linecap="round" fill="#61616b" stroke-linejoin="round" class="nc-icon-wrapper"><polyline data-cap="butt" data-color="color-2" fill="none" stroke="#61616b" stroke-width="2" points="16,25.6 27.2,29.7 29,24.8 23.5,22.8 "></polyline> <polyline data-cap="butt" data-color="color-2" fill="none" stroke="#61616b" stroke-width="2" points="11.7,18.5 4.8,16 3,20.8 8.4,22.8 "></polyline> <polyline data-cap="butt" data-color="color-2" fill="none" stroke="#61616b" stroke-width="2" points="20.3,18.5 27.2,16 29,20.8 4.8,29.7 3,24.8 16.2,20 "></polyline> <path fill="none" stroke="#61616b" stroke-width="2" d="M23,13c0-3.9-7-11-7-11 S9,9.1,9,13c0,3.9,3.1,7,7,7C19.9,20,23,16.9,23,13z"></path> <path fill="none" stroke="#61616b" stroke-width="2" d="M16,16c-1.7,0-3-1.3-3-3 c0.1-0.8,1.3-2.8,3-4.9c1.7,2.1,2.9,4.1,3,5C19,14.7,17.7,16,16,16z"></path></g></svg>