<svg xmlns="http://www.w3.org/2000/svg" height="48" width="48" viewBox="0 0 48 48"><title>fire 4</title><g stroke-linecap="round" fill="#61616b" stroke-linejoin="round" class="nc-icon-wrapper"><path data-cap="butt" d="M5.483,38.678,39.932,26.123A3.774,3.774,0,0,1,44.777,28.4h0a3.774,3.774,0,0,1-2.26,4.821L8.068,45.771" fill="none" stroke="#61616b" stroke-width="2"></path><circle data-cap="butt" cx="6.769" cy="42.231" r="3.769" fill="none" stroke="#61616b" stroke-width="2"></circle><line data-cap="butt" x1="28" y1="41.422" x2="39.932" y2="45.771" fill="none" stroke="#61616b" stroke-width="2"></line><path data-cap="butt" d="M12,27.556,8.068,26.123A3.774,3.774,0,0,0,3.223,28.4h0a3.774,3.774,0,0,0,2.26,4.821l7.5,2.73" fill="none" stroke="#61616b" stroke-width="2"></path><line data-cap="butt" x1="42.517" y1="38.678" x2="35.023" y2="35.947" fill="none" stroke="#61616b" stroke-width="2"></line><circle data-cap="butt" cx="41.231" cy="42.231" r="3.769" fill="none" stroke="#61616b" stroke-width="2"></circle><path data-color="color-2" d="M24.886,31C17.489,31,12,24.526,12,17.729,12,6.723,21.724,2,27.75,2c-3.835,9.339,4.134,5.809,7.636,14.254C37.832,22.153,32.69,31,24.886,31Z" fill="none" stroke="#61616b" stroke-width="2"></path><path data-color="color-2" d="M23.631,26A5.516,5.516,0,0,0,29,20.47a6.6,6.6,0,0,0-6.562-6.553c1.6,3.891-1.723,2.42-3.182,5.939C18.237,22.314,20.379,26,23.631,26Z" fill="none" stroke="#61616b" stroke-width="2"></path></g></svg>