<svg xmlns="http://www.w3.org/2000/svg" height="48" width="48" viewBox="0 0 48 48"><title>fish 4</title><g stroke-linecap="round" fill="#61616b" stroke-linejoin="round" class="nc-icon-wrapper"><path data-cap="butt" data-color="color-2" fill="none" stroke="#61616b" stroke-width="2" d="M39.682,25.095 c-4.171-0.73-7.766-2.616-10.987-5.838c-3.218-3.218-4.633-7.056-5.365-11.222"></path> <polyline data-cap="butt" fill="none" stroke="#61616b" stroke-width="2" points="14.549,33.404 4.719,34.496 13.457,43.234 14.549,33.404 "></polyline> <path fill="none" stroke="#61616b" stroke-width="2" d="M17.426,13.695 c-1.213-1.956-3.037-3.697-5.061-4.319c2.739-2.739,7.752-2.683,10.966-1.34C30.88,4.015,41,7,41,7s4.12,13.307-3.515,20.943 c-9.05,9.05-22.936,5.461-22.936,5.461S11.745,22.481,17.426,13.695z"></path> <circle data-color="color-2" data-stroke="none" fill="#61616b" cx="32.5" cy="11.5" r="1.5" stroke="none"></circle></g></svg>