<svg xmlns="http://www.w3.org/2000/svg" height="48" width="48" viewBox="0 0 48 48"><title>fishbone 3</title><g stroke-linecap="round" fill="#61616b" stroke-linejoin="round" class="nc-icon-wrapper"><path data-color="color-2" fill="none" stroke="#61616b" stroke-width="2" d=" M20.022,10.03c0.904,4.269,2.998,8.337,6.313,11.653s7.383,5.41,11.653,6.313"></path> <path data-color="color-2" fill="none" stroke="#61616b" stroke-width="2" d=" M15.137,19.765c1.139,2.883,2.865,5.588,5.197,7.919s5.036,4.058,7.919,5.197"></path> <line data-cap="butt" data-color="color-2" fill="none" stroke="#61616b" stroke-width="2" x1="32.338" y1="15.68" x2="15.832" y2="32.186"></line> <polygon data-cap="butt" fill="none" stroke="#61616b" stroke-width="2" points="15.832,32.186 14,43 5,34 "></polygon> <path fill="none" stroke="#61616b" stroke-width="2" d="M42,6 c0,0-8.393-1.962-15.443,0.092c1.085,3.507,3.004,6.812,5.781,9.588c2.77,2.77,6.067,4.686,9.565,5.772C43.916,14.431,42,6,42,6z"></path></g></svg>