<svg xmlns="http://www.w3.org/2000/svg" height="32" width="32" viewBox="0 0 32 32"><title>fish 5</title><g stroke-linecap="round" fill="#61616b" stroke-linejoin="round" class="nc-icon-wrapper"><path data-cap="butt" data-color="color-2" d="M28.274,16.217a14.883,14.883,0,0,1-8.18-4.346A14.842,14.842,0,0,1,16.1,3.515" fill="none" stroke="#61616b" stroke-width="2"></path> <polyline data-cap="butt" points="9.562 22.403 2.243 23.216 8.748 29.722 9.562 22.403" fill="none" stroke="#61616b" stroke-width="2"></polyline> <path d="M11.7,7.729A7.344,7.344,0,0,0,7.935,4.513c2.04-2.039,5.772-2,8.165-1,5.621-2.993,12.978-.628,12.978-.628s3.245,9.765-2.44,15.45C19.9,25.075,9.562,22.4,9.562,22.4S7.474,14.27,11.7,7.729Z" fill="none" stroke="#61616b" stroke-width="2"></path></g></svg>