<svg xmlns="http://www.w3.org/2000/svg" height="64" width="64" viewBox="0 0 64 64"><title>fish 3</title><g stroke-linecap="round" fill="#61616b" stroke-linejoin="round" class="nc-icon-wrapper"><path data-cap="butt" data-color="color-2" fill="none" stroke="#61616b" stroke-width="2" d="M56.549,32.434 c-6.211-1.087-11.564-3.896-16.36-8.692c-4.792-4.792-6.899-10.507-7.989-16.711"></path> <polyline data-cap="butt" data-color="color-2" fill="none" stroke="#61616b" stroke-width="2" points="19.123,44.807 4.486,46.433 17.497,59.444 19.123,44.807 "></polyline> <path fill="none" stroke="#61616b" stroke-width="2" d="M23.407,15.459 c-1.807-2.913-4.523-5.505-7.537-6.432c4.079-4.079,11.544-3.996,16.329-1.996c11.242-5.987,25.956-1.257,25.956-1.257 s6.491,19.531-4.879,30.901c-13.475,13.475-34.153,8.132-34.153,8.132S14.948,28.541,23.407,15.459z"></path> <circle fill="none" stroke="#61616b" stroke-width="2" cx="43.5" cy="11.5" r="1.5"></circle> <circle data-stroke="none" fill="#61616b" cx="43.5" cy="11.5" r="1.5" stroke="none"></circle></g></svg>