<svg xmlns="http://www.w3.org/2000/svg" height="16" width="16" viewBox="0 0 16 16"><title>flower 3</title><g fill="#61616b" class="nc-icon-wrapper"><path d="M15.5,8c0-.877-1.439-1.623-2.88-1.914.814-1.224,1.3-2.769.683-3.389s-2.165-.131-3.389.683C9.623,1.939,8.877.5,8,.5S6.377,1.939,6.086,3.38C4.862,2.566,3.317,2.076,2.7,2.7s-.131,2.165.683,3.389C1.939,6.377.5,7.123.5,8S1.939,9.623,3.38,9.914c-.814,1.224-1.3,2.769-.683,3.389s2.165.131,3.389-.683C6.377,14.061,7.123,15.5,8,15.5s1.623-1.439,1.914-2.88c1.224.814,2.769,1.3,3.389.683s.131-2.165-.683-3.389C14.061,9.623,15.5,8.877,15.5,8Z" fill="none" stroke="#61616b" stroke-linecap="round" stroke-linejoin="round"></path> <circle cx="8" cy="8" r="1.5" fill="none" stroke="#61616b" stroke-linecap="round" stroke-linejoin="round" data-color="color-2"></circle></g></svg>