<svg xmlns="http://www.w3.org/2000/svg" height="48" width="48" viewBox="0 0 48 48"><title>flower 5</title><g stroke-linecap="round" fill="#61616b" stroke-linejoin="round" class="nc-icon-wrapper"><line data-cap="butt" data-color="color-2" fill="none" stroke="#61616b" stroke-width="2" x1="24" y1="32" x2="24" y2="46"></line> <path data-color="color-2" fill="none" stroke="#61616b" stroke-width="2" d="M33,36h-1 c-4.41828,0-8,3.58172-8,8v2h1c4.41828,0,8-3.58172,8-8V36z"></path> <circle data-color="color-2" fill="none" stroke="#61616b" stroke-width="2" cx="24" cy="17" r="3"></circle> <path fill="none" stroke="#61616b" stroke-width="2" d="M39,17 c0-1.72943-2.47406-3.19812-5.93134-3.75635c2.04993-2.83929,2.7608-5.62738,1.53796-6.85028 c-1.2229-1.22284-4.01093-0.51196-6.85028,1.53796C27.19812,4.47412,25.72943,2,24,2s-3.19812,2.47412-3.75635,5.93134 c-2.83936-2.04993-5.62738-2.7608-6.85028-1.53796c-1.22284,1.2229-0.51196,4.01099,1.53796,6.85028 C11.47406,13.80188,9,15.27057,9,17c0,1.72937,2.47412,3.19812,5.93134,3.75635c-2.04987,2.83936-2.7608,5.62738-1.53796,6.85022 c1.2229,1.2229,4.01093,0.51196,6.85028-1.53796C20.80188,29.52582,22.27057,32,24,32s3.19812-2.47418,3.75635-5.9314 c2.83936,2.04993,5.62738,2.76086,6.85028,1.53796c1.22284-1.22284,0.5119-4.01086-1.53796-6.85022 C36.52588,20.19812,39,18.72937,39,17z"></path></g></svg>