<svg xmlns="http://www.w3.org/2000/svg" height="64" width="64" viewBox="0 0 64 64"><title>flower 07 3</title><g stroke-linecap="round" fill="#61616b" stroke-linejoin="round" class="nc-icon-wrapper"><line data-color="color-2" fill="none" stroke="#61616b" stroke-width="2" x1="32" y1="62" x2="31.99998" y2="41"></line> <path data-color="color-2" fill="none" stroke="#61616b" stroke-width="2" d="M44,48 h-0.00001C37.37258,48,32,53.37258,32,59.99999V62h0.00001C38.62742,62,44,56.62742,44,50.00001V48z"></path> <line data-color="color-2" fill="none" stroke="#61616b" stroke-width="2" x1="32" y1="48" x2="28" y2="48"></line> <path data-cap="butt" fill="none" stroke="#61616b" stroke-width="2" d="M40.7982,10.80274 C37.58848,6.33022,32,3,32,3s-5.58848,3.33022-8.7982,7.80274"></path> <path fill="none" stroke="#61616b" stroke-width="2" d="M32,19 c0,0-6.93751-11-19-11v14.00002C13,32.49342,21.50658,41,31.99998,41h0.00004C42.49342,41,51,32.49342,51,22.00002V8 C38.93749,8,32,19,32,19z"></path></g></svg>