<svg xmlns="http://www.w3.org/2000/svg" height="32" width="32" viewBox="0 0 32 32"><title>flower 6</title><g stroke-linecap="round" fill="#61616b" stroke-linejoin="round" class="nc-icon-wrapper"><circle data-color="color-2" fill="none" stroke="#61616b" stroke-width="2" cx="16" cy="16" r="3"></circle> <path fill="none" stroke="#61616b" stroke-width="2" d="M31,16 c0-1.72943-2.47406-3.19812-5.93134-3.75635c2.04993-2.83929,2.7608-5.62738,1.53796-6.85028 c-1.2229-1.22284-4.01093-0.51196-6.85028,1.53796C19.19812,3.47412,17.72943,1,16,1s-3.19812,2.47412-3.75635,5.93134 C9.4043,4.88141,6.61627,4.17053,5.39337,5.39337c-1.22284,1.2229-0.51196,4.01099,1.53796,6.85028 C3.47406,12.80188,1,14.27057,1,16c0,1.72937,2.47412,3.19812,5.93134,3.75635c-2.04987,2.83936-2.7608,5.62738-1.53796,6.85022 c1.2229,1.2229,4.01093,0.51196,6.85028-1.53796C12.80188,28.52582,14.27057,31,16,31s3.19812-2.47418,3.75635-5.9314 c2.83936,2.04993,5.62738,2.76086,6.85028,1.53796c1.22284-1.22284,0.5119-4.01086-1.53796-6.85022 C28.52588,19.19812,31,17.72937,31,16z"></path></g></svg>