<svg xmlns="http://www.w3.org/2000/svg" height="64" width="64" viewBox="0 0 64 64"><title>flower 4</title><g stroke-linecap="round" fill="#61616b" stroke-linejoin="round" class="nc-icon-wrapper"><line data-color="color-2" fill="none" stroke="#61616b" stroke-width="2" x1="32" y1="62" x2="32" y2="42"></line> <path data-color="color-2" fill="none" stroke="#61616b" stroke-width="2" d="M44,48 h-0.00001C37.37258,48,32,53.37258,32,59.99999V62h0.00001C38.62742,62,44,56.62742,44,50.00001V48z"></path> <circle data-color="color-2" fill="none" stroke="#61616b" stroke-width="2" cx="32" cy="22" r="5"></circle> <path fill="none" stroke="#61616b" stroke-width="2" d="M52,22 c0-2.30591-3.29875-4.26416-7.90845-5.00846c2.73323-3.78573,3.68107-7.50317,2.05062-9.13371 c-1.63053-1.63045-5.3479-0.68262-9.13371,2.05062C36.26416,5.29883,34.30591,2,32,2s-4.26416,3.29883-5.00846,7.90845 c-3.78581-2.73324-7.50317-3.68107-9.13371-2.05062c-1.63045,1.63053-0.68262,5.34798,2.05062,9.13371 C15.29875,17.73584,12,19.69409,12,22c0,2.30583,3.29883,4.26416,7.90845,5.00846c-2.73315,3.78581-3.68107,7.50318-2.05062,9.13363 c1.63054,1.63054,5.3479,0.68262,9.13371-2.05062C27.73584,38.70109,29.69409,42,32,42s4.26416-3.29891,5.00846-7.90853 c3.7858,2.73323,7.50317,3.68115,9.13371,2.05062c1.63046-1.63045,0.68254-5.34782-2.05062-9.13363 C48.70117,26.26416,52,24.30583,52,22z"></path></g></svg>