<svg xmlns="http://www.w3.org/2000/svg" height="16" width="16" viewBox="0 0 16 16"><title>flower 2 2</title><g fill="#61616b" class="nc-icon-wrapper"><path d="M15.5,8a2.719,2.719,0,0,0-1.565-2.458,2.714,2.714,0,0,0-3.477-3.477,2.713,2.713,0,0,0-4.916,0A2.714,2.714,0,0,0,2.065,5.542a2.713,2.713,0,0,0,0,4.916,2.714,2.714,0,0,0,3.477,3.477,2.713,2.713,0,0,0,4.916,0,2.714,2.714,0,0,0,3.477-3.477A2.719,2.719,0,0,0,15.5,8Z" fill="none" stroke="#61616b" stroke-linecap="round" stroke-linejoin="round"></path> <circle cx="8" cy="8" r="2.5" fill="none" stroke="#61616b" stroke-linecap="round" stroke-linejoin="round" data-color="color-2"></circle></g></svg>