<svg xmlns="http://www.w3.org/2000/svg" height="64" width="64" viewBox="0 0 64 64"><title>flower rose 2</title><g stroke-linecap="round" fill="#61616b" stroke-linejoin="round" class="nc-icon-wrapper"><path d="M34,36.091a25.882,25.882,0,0,1-3.389,12.845l-.026.045a26.141,26.141,0,0,1-9.261,9.441A25.88,25.88,0,0,1,8,62.091" fill="none" stroke="#61616b" stroke-width="2"></path><path d="M21.324,58.422a10.894,10.894,0,0,0-9.1-15.329,13.6,13.6,0,0,0,4.714,12.9" fill="none" stroke="#61616b" stroke-width="2" data-cap="butt"></path><path d="M30.611,48.936a9.673,9.673,0,0,1,7.913-.394,10.9,10.9,0,0,1,7.1,9.17,13.588,13.588,0,0,1-12.993-4.447" fill="none" stroke="#61616b" stroke-width="2" data-cap="butt"></path><path d="M34,11c-3.866,0-7-.895-7-2s3.134-2,7-2c4.971,0,9,2.015,9,4.5S38.971,16,34,16c-8.284,0-15-3.134-15-7s6.716-7,15-7S49,5.134,49,9V21a15,15,0,0,1-30,0V9" fill="none" stroke="#61616b" stroke-width="2" data-cap="butt" data-color="color-2"></path><path d="M34,36a5,5,0,0,1-5-5c0-9,14-5.5,14-19.5" fill="none" stroke="#61616b" stroke-width="2" data-cap="butt" data-color="color-2"></path></g></svg>