<svg xmlns="http://www.w3.org/2000/svg" height="48" width="48" viewBox="0 0 48 48"><title>flower 07 4</title><g stroke-linecap="round" fill="#61616b" stroke-linejoin="round" class="nc-icon-wrapper"><line data-cap="butt" data-color="color-2" fill="none" stroke="#61616b" stroke-width="2" x1="24" y1="31" x2="24" y2="46"></line> <line data-color="color-2" fill="none" stroke="#61616b" stroke-width="2" x1="24" y1="37" x2="21" y2="37"></line> <line data-color="color-2" fill="none" stroke="#61616b" stroke-width="2" x1="24" y1="42" x2="27" y2="42"></line> <path data-cap="butt" fill="none" stroke="#61616b" stroke-width="2" d="M24,15 c3.15658,4.20833,5.37632,10.99823,6.31316,14.49911"></path> <path data-cap="butt" fill="none" stroke="#61616b" stroke-width="2" d="M30.63019,9.19287 C28.34613,5.76825,24,3,24,3s-4.34613,2.76825-6.63019,6.19287"></path> <path fill="none" stroke="#61616b" stroke-width="2" d="M24,15c0,0-5-7.41669-14-8 c0,4.08331,0,10,0,10c0,7.73199,6.26801,14,14,14s14-6.26801,14-14c0,0,0-5.91669,0-10C29,7.58331,24,15,24,15z"></path></g></svg>