<svg xmlns="http://www.w3.org/2000/svg" height="64" width="64" viewBox="0 0 64 64"><title>flower 2 3</title><g stroke-linecap="round" fill="#61616b" stroke-linejoin="round" class="nc-icon-wrapper"><circle data-color="color-2" fill="none" stroke="#61616b" stroke-width="2" cx="32" cy="22" r="6"></circle> <line data-color="color-2" fill="none" stroke="#61616b" stroke-width="2" x1="32" y1="62" x2="32" y2="42"></line> <path data-color="color-2" fill="none" stroke="#61616b" stroke-width="2" d="M44,48 h-0.00001C37.37258,48,32,53.37258,32,59.99999V62h0.00001C38.62742,62,44,56.62742,44,50.00001V48z"></path> <path fill="none" stroke="#61616b" stroke-width="2" d="M52,22 c0-2.81486-2.0966-5.21712-5.05688-6.19482c1.39819-2.78296,1.18782-5.9585-0.80095-7.94735 c-1.98885-1.98877-5.16439-2.19914-7.94735-0.80103C37.21712,4.09652,34.81486,2,32,2s-5.21712,2.09652-6.19482,5.0568 c-2.78296-1.39811-5.9585-1.18774-7.94735,0.80103c-1.98877,1.98885-2.19914,5.16439-0.80094,7.94735 C14.0966,16.78288,12,19.18514,12,22s2.0966,5.21712,5.05688,6.19482c-1.39819,2.78296-1.18783,5.9585,0.80094,7.94727 c1.98885,1.98885,5.16439,2.19922,7.94735,0.80103C26.78288,39.9034,29.18514,42,32,42s5.21712-2.0966,6.19482-5.05688 c2.78296,1.39819,5.9585,1.18782,7.94735-0.80103c1.98877-1.98877,2.19914-5.16431,0.80095-7.94727 C49.9034,27.21712,52,24.81486,52,22z"></path></g></svg>