<svg xmlns="http://www.w3.org/2000/svg" height="48" width="48" viewBox="0 0 48 48"><title>flower 2 4</title><g stroke-linecap="round" fill="#61616b" stroke-linejoin="round" class="nc-icon-wrapper"><line data-cap="butt" data-color="color-2" fill="none" stroke="#61616b" stroke-width="2" x1="24" y1="32" x2="24" y2="46"></line> <path data-color="color-2" fill="none" stroke="#61616b" stroke-width="2" d="M33,36h-1 c-4.41828,0-8,3.58172-8,8v2h1c4.41828,0,8-3.58172,8-8V36z"></path> <circle data-color="color-2" fill="none" stroke="#61616b" stroke-width="2" cx="24" cy="17" r="4"></circle> <path fill="none" stroke="#61616b" stroke-width="2" d="M39,17 c0-2.11115-1.57245-3.91284-3.79266-4.64612c1.04865-2.08722,0.89087-4.46887-0.60071-5.96051 c-1.49164-1.49158-3.87329-1.64935-5.96051-0.60077C27.91284,3.57239,26.11115,2,24,2s-3.91284,1.57239-4.64612,3.7926 c-2.08722-1.04858-4.46887-0.89081-5.96051,0.60077c-1.49158,1.49164-1.64935,3.87329-0.60071,5.96051 C10.57245,13.08716,9,14.88885,9,17s1.57245,3.91284,3.79266,4.64612c-1.04865,2.08722-0.89087,4.46887,0.60071,5.96045 c1.49164,1.49164,3.87329,1.64941,5.96051,0.60077C20.08716,30.42755,21.88885,32,24,32s3.91284-1.57245,4.64612-3.79266 c2.08722,1.04865,4.46887,0.89087,5.96051-0.60077c1.49158-1.49158,1.64935-3.87323,0.60071-5.96045 C37.42755,20.91284,39,19.11115,39,17z"></path></g></svg>