<svg xmlns="http://www.w3.org/2000/svg" height="64" width="64" viewBox="0 0 64 64"><title>food dog 3</title><g stroke-linecap="round" fill="#61616b" stroke-linejoin="round" class="nc-icon-wrapper"><path data-cap="butt" data-color="color-2" fill="none" stroke="#61616b" stroke-width="2" d="M9,33L2.13885,56.52399 C2.04999,56.68073,2,56.83936,2,57c0,2.76141,13.43146,5,30,5s30-2.23859,30-5c0-0.16064-0.04999-0.31927-0.13885-0.47601L55,33"></path> <path data-cap="butt" fill="none" stroke="#61616b" stroke-width="2" d="M41.21147,36.66626l7.80489-13.63269 c1.81702,1.04053,4.03125,1.3877,6.21155,0.79504c4.36047-1.18518,6.93457-5.68079,5.74939-10.04126 s-5.68079-6.93457-10.04138-5.74951c-1.18518-4.36047-5.68079-6.93457-10.04126-5.74939s-6.93469,5.68079-5.74951,10.04138 c0.59265,2.18018,2.01282,3.91406,3.82996,4.95435L27.70925,36.93049"></path> <path data-cap="butt" fill="none" stroke="#61616b" stroke-width="2" d="M45.18696,29.72233 C51.13298,30.44544,55,31.64241,55,33c0,2.20914-10.29745,4-23,4S9,35.20914,9,33s10.29745-4,23-4 c0.08334,0,0.17376-0.00022,0.25689-0.00007"></path></g></svg>