<svg xmlns="http://www.w3.org/2000/svg" height="48" width="48" viewBox="0 0 48 48"><title>food dog 4</title><g stroke-linecap="round" fill="#61616b" stroke-linejoin="round" class="nc-icon-wrapper"><path data-cap="butt" data-color="color-2" fill="none" stroke="#61616b" stroke-width="2" d="M10,25L2.1571,42.64661 C2.05719,42.76257,2,42.88037,2,43c0,1.65686,9.84973,3,22,3s22-1.34314,22-3c0-0.11963-0.05719-0.23743-0.1571-0.35339L38,25"></path> <path data-cap="butt" fill="none" stroke="#61616b" stroke-width="2" d="M32.57795,23.41927 C35.88101,23.78512,38,24.3567,38,25c0,1.10457-6.26801,2-14,2s-14-0.89543-14-2c0-1.05825,5.75711-1.92454,13.03917-1.99533"></path> <path data-cap="butt" fill="none" stroke="#61616b" stroke-width="2" d="M30.6616,26.75951l5.35552-9.33483 c1.33248,0.76304,2.95621,1.01759,4.55506,0.58302c3.19771-0.86913,5.08538-4.16593,4.21626-7.36364 c-0.86913-3.19771-4.16593-5.08539-7.36364-4.21626c-0.86913-3.19771-4.16593-5.08539-7.36364-4.21626 s-5.08539,4.16593-4.21626,7.36364c0.43456,1.59886,1.47602,2.87034,2.80858,3.63323l-7.8736,13.73839"></path></g></svg>