<svg xmlns="http://www.w3.org/2000/svg" height="48" width="48" viewBox="0 0 48 48"><title>goose 2</title><g stroke-linecap="round" fill="#61616b" stroke-linejoin="round" class="nc-icon-wrapper"><circle cx="14" cy="13" r="1" fill="#61616b" stroke="#61616b" stroke-width="2" data-cap="butt"></circle><circle cx="34" cy="13" r="1" fill="#61616b" stroke="#61616b" stroke-width="2" data-cap="butt"></circle><path d="M31.922,29.843c-.61-1.22-1.008-2.535-1.176-3.889l-.778-6.267c-.162-2.061-1.866-3.688-3.969-3.688-.312,0-.613,.038-.903,.109-.725,.177-1.469,.177-2.194,0-.289-.07-.591-.109-.903-.109-2.102,0-3.807,1.627-3.969,3.688l-.778,6.267c-.168,1.354-.566,2.669-1.176,3.889l-3.078,6.157,4.826,2.296c3.8,2.28,8.548,2.28,12.348,0l4.826-2.296-3.078-6.157Z" fill="none" stroke="#61616b" stroke-width="2" data-cap="butt" data-color="color-2"></path><path d="M13,36c6,1,7-1,11-1.001s5,2.001,11,1.001" fill="none" stroke="#61616b" stroke-width="2" data-cap="butt" data-color="color-2"></path><path d="M38,10c-.625-4.374-3.582-8-8-8-2.086,0-4.166,.441-6,1.191-1.834-.75-3.914-1.191-6-1.191-4.418,0-7.375,3.626-8,8-2,14-6,13.716-6,22,0,7.732,6.268,14,14,14h12c7.732,0,14-6.268,14-14,0-8.284-4-8-6-22Z" fill="none" stroke="#61616b" stroke-width="2" data-cap="butt"></path><circle cx="14" cy="13" r="1" fill="#61616b" stroke="#61616b" stroke-width="2" data-cap="butt"></circle><circle cx="34" cy="13" r="1" fill="#61616b" stroke="#61616b" stroke-width="2" data-cap="butt"></circle><path d="M13,36c6,1,7-1,11-1.001s5,2.001,11,1.001" fill="none" stroke="#61616b" stroke-width="2" data-cap="butt" data-color="color-2"></path><path d="M38,10c-.625-4.374-3.582-8-8-8-2.086,0-4.166,.441-6,1.191-1.834-.75-3.914-1.191-6-1.191-4.418,0-7.375,3.626-8,8-2,14-6,13.716-6,22,0,7.732,6.268,14,14,14h12c7.732,0,14-6.268,14-14,0-8.284-4-8-6-22Z" fill="none" stroke="#61616b" stroke-width="2" data-cap="butt"></path></g></svg>