<svg xmlns="http://www.w3.org/2000/svg" height="32" width="32" viewBox="0 0 32 32"><title>goose 4</title><g stroke-linecap="round" fill="#61616b" stroke-linejoin="round" class="nc-icon-wrapper"><circle cx="9.5" cy="9.5" r="1.5" fill="#61616b" data-color="color-2" data-stroke="none" stroke="none"></circle><circle cx="22.5" cy="9.5" r="1.5" fill="#61616b" data-color="color-2" data-stroke="none" stroke="none"></circle><path d="M19,31c5.523,0,10-4.477,10-10h0c0-5.94-3.429-6.979-3.499-13.788-.033-3.178-2.4-5.973-5.57-6.196-1-.071-1.95,.107-2.799,.475-.72,.312-1.542,.312-2.263,0-.849-.368-1.799-.545-2.799-.475-3.17,.224-5.538,3.019-5.57,6.196-.07,6.809-3.499,7.848-3.499,13.787h0c0,5.524,4.477,10.001,10,10.001h5.999Z" fill="none" stroke="#61616b" stroke-width="2" data-cap="butt"></path><path d="M18.939,13.395l1.152,5.332,2.727,4.091-3.731,2.239c-1.9,1.14-4.274,1.14-6.174,0l-3.731-2.239,2.727-4.091,1.146-5.302h0c.268-1.382,1.485-2.426,2.945-2.426,1.45,0,2.659,1.028,2.939,2.395h0Z" fill="none" stroke="#61616b" stroke-width="2" data-cap="butt" data-color="color-2"></path></g></svg>