<svg xmlns="http://www.w3.org/2000/svg" height="16" width="16" viewBox="0 0 16 16"><title>goose</title><g fill="#61616b" class="nc-icon-wrapper"><circle cx="5.25" cy="4.75" r=".75" fill="#61616b" data-stroke="none" stroke="none"></circle><circle cx="10.75" cy="4.75" r=".75" fill="#61616b" data-stroke="none" stroke="none"></circle><path d="M9.5,15.5c2.761,0,5-2.239,5-5h0c0-2.97-1.715-3.49-1.749-6.894-.016-1.589-1.2-2.986-2.785-3.098-.5-.035-.975,.054-1.4,.237-.36,.156-.771,.156-1.131,0-.425-.184-.9-.273-1.4-.237-1.585,.112-2.769,1.509-2.785,3.098-.035,3.405-1.749,3.924-1.749,6.894h0c0,2.762,2.239,5.001,5,5.001h3Z" fill="none" stroke="#61616b" stroke-linecap="round" stroke-linejoin="round"></path><path d="M9.47,6.698l.576,2.666,1.455,2.636-1.197,.498c-1.474,.613-3.131,.613-4.605,0l-1.197-.498,1.455-2.636,.573-2.651h0c.134-.691,.742-1.213,1.473-1.213,.725,0,1.33,.514,1.47,1.198Z" fill="none" stroke="#61616b" stroke-linecap="round" stroke-linejoin="round" data-color="color-2"></path></g></svg>