<svg xmlns="http://www.w3.org/2000/svg" height="24" width="24" viewBox="0 0 24 24"><title>goose 5</title><g stroke-linecap="round" fill="#61616b" stroke-linejoin="round" class="nc-icon-wrapper"><circle cx="7.75" cy="6.75" r="1.25" fill="#61616b" data-stroke="none" stroke="none"></circle><circle cx="16.25" cy="6.75" r="1.25" fill="#61616b" data-stroke="none" stroke="none"></circle><path d="M19,5c0-2.209-1.791-4-4-4-1.043,0-2.083,.22-3,.596-.917-.375-1.957-.596-3-.596-2.209,0-4,1.791-4,4,0,6-3,6.858-3,11,0,3.866,3.134,7,7,7h6c3.866,0,7-3.134,7-7,0-4.142-3-5-3-11Z" fill="none" stroke="#61616b" stroke-width="2" data-cap="butt"></path><path d="M10.049,9.559c.201-.892,.998-1.559,1.951-1.559s1.75,.667,1.951,1.559l1.049,4.441,2,3-1.913,1.148c-1.9,1.14-4.274,1.14-6.174,0l-1.913-1.148,2-3,1.049-4.441Z" fill="none" stroke="#61616b" stroke-width="2" data-cap="butt" data-color="color-2"></path></g></svg>