<svg xmlns="http://www.w3.org/2000/svg" height="64" width="64" viewBox="0 0 64 64"><title>goose 3</title><g stroke-linecap="round" fill="#61616b" stroke-linejoin="round" class="nc-icon-wrapper"><circle cx="20" cy="18" r="1" fill="#61616b" stroke="#61616b" stroke-width="2" data-cap="butt"></circle><circle cx="44" cy="18" r="1" fill="#61616b" stroke="#61616b" stroke-width="2" data-cap="butt"></circle><path d="M6,42c0,10.493,8.507,19,19,19h14c10.493,0,19-8.507,19-19,0-10.92-5.2-10-7.8-28.455-.812-5.766-4.201-10.545-10.201-10.545-2.712,0-5.615,.581-7.999,1.57-2.384-.989-5.289-1.57-8.001-1.57-6,0-9.387,4.78-10.199,10.545-2.6,18.455-7.8,17.534-7.8,28.455Z" fill="none" stroke="#61616b" stroke-width="2" data-cap="butt"></path><path d="M18,47c5,2,7.373,5,14,5s9-3,14-5l-4.773-9.727-1.36-10.957c-.213-2.716-2.46-4.861-5.231-4.861-.411,0-.809,.051-1.191,.144-.955,.233-1.935,.233-2.891,0-.382-.093-.78-.144-1.191-.144-2.771,0-5.018,2.145-5.231,4.861l-1.36,10.957-4.773,9.727Z" fill="none" stroke="#61616b" stroke-width="2" data-cap="butt" data-color="color-2"></path><path d="M18,47c9,1,8-1,14-1,6,0,5,2,14,1" fill="none" stroke="#61616b" stroke-width="2" data-cap="butt" data-color="color-2"></path></g></svg>