<svg xmlns="http://www.w3.org/2000/svg" height="16" width="16" viewBox="0 0 16 16"><title>grain</title><g fill="#61616b" class="nc-icon-wrapper"><line x1="8" y1="15.5" x2="8" y2="13" fill="none" stroke="#61616b" stroke-linecap="round" stroke-linejoin="round"></line><path d="M3,7.5c2.761,0,5,2.239,5,5v1c-2.761,0-5-2.239-5-5v-1Z" fill="none" stroke="#61616b" stroke-linecap="round" stroke-linejoin="round"></path><path d="M13,7.5c-2.761,0-5,2.239-5,5v1c2.761,0,5-2.239,5-5v-1Z" fill="none" stroke="#61616b" stroke-linecap="round" stroke-linejoin="round"></path><path d="M6.5,3.5c.067-1.163,.61-2.248,1.5-3,.89,.752,1.433,1.837,1.5,3-.067,1.163-.61,2.248-1.5,3-.89-.752-1.433-1.837-1.5-3Z" fill="none" stroke="#61616b" stroke-linecap="round" stroke-linejoin="round" data-color="color-2"></path></g></svg>