<svg xmlns="http://www.w3.org/2000/svg" height="48" width="48" viewBox="0 0 48 48"><title>grain 3</title><g stroke-linecap="round" fill="#61616b" stroke-linejoin="round" class="nc-icon-wrapper"><path d="M14.514,23c-1.571-1.902-2.514-4.341-2.514-7v-1h1c6.075,0,11,4.925,11,11v1" fill="none" stroke="#61616b" stroke-width="2" data-color="color-2"></path><path d="M33.486,23c1.571-1.902,2.514-4.341,2.514-7v-1h-1c-6.075,0-11,4.925-11,11v1" fill="none" stroke="#61616b" stroke-width="2" data-color="color-2"></path><line x1="24" y1="27" x2="24" y2="41" fill="none" stroke="#61616b" stroke-width="2" data-color="color-2"></line><line x1="24" y1="46" x2="24" y2="41" fill="none" stroke="#61616b" stroke-width="2"></line><path d="M10,27h2c6.623,0,12,5.377,12,12v2h-2c-6.623,0-12-5.377-12-12v-2h0Z" fill="none" stroke="#61616b" stroke-width="2"></path><path d="M20.274,12c-.808-3.238,.175-6.771,2.949-9.293l.778-.707,.778,.707c2.774,2.522,3.757,6.055,2.949,9.293" fill="none" stroke="#61616b" stroke-width="2"></path><path d="M36,27h2v2c0,6.623-5.377,12-12,12h-2v-2c0-6.623,5.377-12,12-12Z" transform="translate(62 68) rotate(-180)" fill="none" stroke="#61616b" stroke-width="2"></path></g></svg>