<svg xmlns="http://www.w3.org/2000/svg" height="24" width="24" viewBox="0 0 24 24"><title>grain 5</title><g stroke-linecap="round" fill="#61616b" stroke-linejoin="round" class="nc-icon-wrapper"><line x1="12" y1="23" x2="12" y2="19" fill="none" stroke="#61616b" stroke-width="2"></line> <path d="M5,11H6a6,6,0,0,1,6,6v2a0,0,0,0,1,0,0H11a6,6,0,0,1-6-6V11A0,0,0,0,1,5,11Z" fill="none" stroke="#61616b" stroke-width="2"></path> <path d="M18,11h1a0,0,0,0,1,0,0v2a6,6,0,0,1-6,6H12a0,0,0,0,1,0,0V17a6,6,0,0,1,6-6Z" transform="translate(31 30) rotate(-180)" fill="none" stroke="#61616b" stroke-width="2"></path> <path d="M10,6a5.665,5.665,0,0,1,2-4,5.665,5.665,0,0,1,2,4,5.665,5.665,0,0,1-2,4A5.665,5.665,0,0,1,10,6Z" fill="none" stroke="#61616b" stroke-width="2" data-color="color-2"></path></g></svg>