<svg xmlns="http://www.w3.org/2000/svg" height="32" width="32" viewBox="0 0 32 32"><title>grain 4</title><g stroke-linecap="round" fill="#61616b" stroke-linejoin="round" class="nc-icon-wrapper"><line x1="16" y1="31" x2="16" y2="26" fill="none" stroke="#61616b" stroke-width="2"></line> <path d="M6,14A10,10,0,0,1,16,24v2h0A10,10,0,0,1,6,16Z" fill="none" stroke="#61616b" stroke-width="2"></path> <path d="M26,14A10,10,0,0,0,16,24v2h0A10,10,0,0,0,26,16Z" fill="none" stroke="#61616b" stroke-width="2"></path> <path d="M13,7.5C13,4.2,16,2,16,2s3,2.2,3,5.5S16,13,16,13,13,10.8,13,7.5Z" fill="none" stroke="#61616b" stroke-width="2" data-color="color-2"></path></g></svg>