<svg xmlns="http://www.w3.org/2000/svg" height="64" width="64" viewBox="0 0 64 64"><title>grain 2</title><g stroke-linecap="round" fill="#61616b" stroke-linejoin="round" class="nc-icon-wrapper"><path d="M23,34.127c-4.185-2.421-7-6.945-7-12.127v-2h2c7.732,0,14,6.268,14,14v2" fill="none" stroke="#61616b" stroke-width="2" data-color="color-2"></path><path d="M41,35.127c4.185-2.421,7-6.945,7-12.127v-2s-2,0-2,0c-7.732,0-14,6.268-14,14v21" fill="none" stroke="#61616b" stroke-width="2" data-color="color-2"></path><line x1="32" y1="62" x2="32" y2="56" fill="none" stroke="#61616b" stroke-width="2"></line><path d="M13,38h3c8.831,0,16,7.169,16,16v2h-3c-8.831,0-16-7.169-16-16v-2h0Z" fill="none" stroke="#61616b" stroke-width="2"></path><path d="M48,38h3v2c0,8.831-7.169,16-16,16h-3v-2c0-8.831,7.169-16,16-16Z" transform="translate(83 94) rotate(-180)" fill="none" stroke="#61616b" stroke-width="2"></path><path d="M28.079,17c-2.109-4.676-1.126-10.281,2.949-14.091l.972-.909,.972,.909c4.075,3.81,5.058,9.415,2.949,14.091" fill="none" stroke="#61616b" stroke-width="2"></path></g></svg>