<svg xmlns="http://www.w3.org/2000/svg" height="24" width="24" viewBox="0 0 24 24"><title>horse 2 5</title><g stroke-linecap="round" fill="#61616b" stroke-linejoin="round" class="nc-icon-wrapper"><path d="M18.145,5.792c1.689-.497,2.851-2.045,2.855-3.806-.004-.333-.05-.664-.137-.986-1.822,.065-3.369,1.354-3.763,3.134" fill="none" stroke="#61616b" stroke-width="2" data-cap="butt"></path><path d="M6.9,4.134c-.394-1.78-1.941-3.069-3.763-3.134-.087,.322-.133,.653-.137,.986,.004,1.761,1.166,3.309,2.855,3.806" fill="none" stroke="#61616b" stroke-width="2" data-cap="butt"></path><path d="M14.338,3h-4.676c-2.209,0-4,1.791-3.999,4.001,0,.203,.016,.406,.046,.607l1.291,8.392v3c0,2.209,1.791,4,4,4h2c2.209,0,4-1.791,4-4v-3l1.291-8.392c.336-2.183-1.162-4.226-3.346-4.562-.201-.031-.404-.046-.607-.046Z" fill="none" stroke="#61616b" stroke-width="2"></path><line x1="12" y1="3" x2="12" y2="5" fill="none" stroke="#61616b" stroke-width="2"></line><line x1="7" y1="16" x2="17" y2="16" fill="none" stroke="#61616b" stroke-width="2" data-cap="butt"></line><circle cx="10" cy="19" r="1" fill="#61616b" data-color="color-2" data-stroke="none" stroke="none"></circle><circle cx="9.25" cy="9.25" r="1.25" fill="#61616b" data-color="color-2" data-stroke="none" stroke="none"></circle><circle cx="14.75" cy="9.25" r="1.25" fill="#61616b" data-color="color-2" data-stroke="none" stroke="none"></circle><circle cx="14" cy="19" r="1" fill="#61616b" data-color="color-2" data-stroke="none" stroke="none"></circle></g></svg>