<svg xmlns="http://www.w3.org/2000/svg" height="32" width="32" viewBox="0 0 32 32"><title>horse 2 4</title><g stroke-linecap="round" fill="#61616b" stroke-linejoin="round" class="nc-icon-wrapper"><line x1="16" y1="4" x2="16" y2="7" fill="none" stroke="#61616b" stroke-width="2"></line><circle cx="14" cy="26" r="1" fill="#61616b" data-color="color-2" data-stroke="none" stroke="none"></circle><circle cx="18" cy="26" r="1" fill="#61616b" data-color="color-2" data-stroke="none" stroke="none"></circle><path d="M19.1,4H12.9A5,5,0,0,0,7.97,9.822L10,22v4a5,5,0,0,0,5,5h2a5,5,0,0,0,5-5V22L24.03,9.822A5,5,0,0,0,19.1,4Z" fill="none" stroke="#61616b" stroke-width="2"></path><circle cx="12.5" cy="12.5" r="1.5" fill="#61616b" data-color="color-2" data-stroke="none" stroke="none"></circle><circle cx="19.5" cy="12.5" r="1.5" fill="#61616b" data-color="color-2" data-stroke="none" stroke="none"></circle><path d="M23.938,7.76A5.6,5.6,0,0,0,28,2.388,5.575,5.575,0,0,0,27.807,1a5.62,5.62,0,0,0-5.285,4.359" fill="none" stroke="#61616b" stroke-width="2" data-cap="butt"></path><path d="M8.062,7.76A5.6,5.6,0,0,1,4,2.388,5.575,5.575,0,0,1,4.193,1,5.62,5.62,0,0,1,9.478,5.359" fill="none" stroke="#61616b" stroke-width="2" data-cap="butt"></path><line x1="10" y1="22" x2="22" y2="22" fill="none" stroke="#61616b" stroke-width="2" data-cap="butt"></line></g></svg>