<svg xmlns="http://www.w3.org/2000/svg" height="16" width="16" viewBox="0 0 16 16"><title>horse 2</title><g fill="#61616b" class="nc-icon-wrapper"><circle cx="6" cy="7" r="1" fill="#61616b" data-color="color-2" data-stroke="none" stroke="none"></circle><circle cx="10" cy="7" r="1" fill="#61616b" data-color="color-2" data-stroke="none" stroke="none"></circle><path d="M9.5,15.5h-3a2,2,0,0,1-2-2v-2h7v2A2,2,0,0,1,9.5,15.5Z" fill="none" stroke="#61616b" stroke-linecap="round" stroke-linejoin="round"></path><path d="M4.5,11.5,3.311,6.151A3,3,0,0,1,6.24,2.5H9.76a3,3,0,0,1,2.929,3.651L11.5,11.5" fill="none" stroke="#61616b" stroke-linecap="round" stroke-linejoin="round"></path><path d="M3.832,3.729A2.977,2.977,0,0,1,5.226,2.7,3.486,3.486,0,0,0,2.545.555,3.44,3.44,0,0,0,2.5,1,3.462,3.462,0,0,0,3.832,3.729Z" fill="none" stroke="#61616b" stroke-linecap="round" stroke-linejoin="round"></path><path d="M12.168,3.729A3.462,3.462,0,0,0,13.5,1a3.44,3.44,0,0,0-.045-.445A3.486,3.486,0,0,0,10.774,2.7,2.977,2.977,0,0,1,12.168,3.729Z" fill="none" stroke="#61616b" stroke-linecap="round" stroke-linejoin="round"></path></g></svg>