<svg xmlns="http://www.w3.org/2000/svg" height="64" width="64" viewBox="0 0 64 64"><title>horseshoe 3</title><g stroke-linecap="round" fill="#61616b" stroke-linejoin="round" class="nc-icon-wrapper"><path d="M32,48c-9.374,0-16-7.626-16-17,0-6.737,2-13,5-23L11,4,8,10l4,2c-2,7-5,13-5,24a25,25,0,0,0,50,0c0-11-3-17-5-24l4-2L53,4,43,8c3,10,5,16.263,5,23C48,40.374,41.374,48,32,48Z" fill="none" stroke="#61616b" stroke-width="2"></path><circle cx="32" cy="54" r="1.5" fill="#61616b" data-color="color-2" data-stroke="none" stroke="none"></circle><circle cx="42.5" cy="51.5" r="1.5" fill="#61616b" data-color="color-2" data-stroke="none" stroke="none"></circle><circle cx="21.5" cy="51.5" r="1.5" fill="#61616b" data-color="color-2" data-stroke="none" stroke="none"></circle><circle cx="14.5" cy="44.5" r="1.5" fill="#61616b" data-color="color-2" data-stroke="none" stroke="none"></circle><circle cx="49.5" cy="44.5" r="1.5" fill="#61616b" data-color="color-2" data-stroke="none" stroke="none"></circle></g></svg>