<svg xmlns="http://www.w3.org/2000/svg" height="48" width="48" viewBox="0 0 48 48"><title>horse 2 3</title><g stroke-linecap="round" fill="#61616b" stroke-linejoin="round" class="nc-icon-wrapper"><path d="M33,34l3.32-18.594c.777-4.35-2.12-8.505-6.469-9.281-.464-.083-.934-.124-1.406-.125h-2" fill="none" stroke="#61616b" stroke-width="2" data-cap="butt"></path><path d="M15,34h18v5c0,3.866-3.134,7-7,7h-4c-3.866,0-7-3.134-7-7v-5h0Z" fill="none" stroke="#61616b" stroke-width="2"></path><path d="M21.55,6h-2c-4.418,0-8,3.582-8,8,0,.471,.042,.942,.125,1.406l3.325,18.594" fill="none" stroke="#61616b" stroke-width="2" data-cap="butt"></path><path d="M26.5,6.5c0,2.5-2.5,4.5-2.5,4.5,0,0-2.5-2-2.5-4.5,0-1.381,1.119-2.5,2.5-2.5s2.5,1.119,2.5,2.5Z" fill="none" stroke="#61616b" stroke-width="2"></path><path d="M36.065,11.588c3.531-1.113,5.932-4.386,5.935-8.088-.003-.492-.048-.983-.135-1.468-3.675,.278-6.752,2.892-7.62,6.474" fill="none" stroke="#61616b" stroke-width="2" data-cap="butt"></path><path d="M11.935,11.588c-3.531-1.113-5.932-4.386-5.935-8.088,.003-.492,.048-.983,.135-1.468,3.675,.278,6.752,2.892,7.62,6.474" fill="none" stroke="#61616b" stroke-width="2" data-cap="butt"></path><circle cx="18" cy="18" r="1" fill="#61616b" stroke="#61616b" stroke-width="2" data-color="color-2"></circle><circle cx="20.5" cy="39.5" r=".5" fill="#61616b" stroke="#61616b" stroke-width="2" data-color="color-2"></circle><circle cx="27.5" cy="39.5" r=".5" fill="#61616b" stroke="#61616b" stroke-width="2" data-color="color-2"></circle><circle cx="30" cy="18" r="1" fill="#61616b" stroke="#61616b" stroke-width="2" data-color="color-2"></circle></g></svg>