<svg xmlns="http://www.w3.org/2000/svg" height="48" width="48" viewBox="0 0 48 48"><title>horseshoe 2</title><g stroke-linecap="round" fill="#61616b" stroke-linejoin="round" class="nc-icon-wrapper"><path d="M17,7a129.363,129.363,0,0,0-3.856,16.617A20.179,20.179,0,0,0,13,26.767a11.117,11.117,0,1,0,22.233,0,20.069,20.069,0,0,0-.144-3.15A110.594,110.594,0,0,0,31,7" fill="none" stroke="#61616b" stroke-width="2"></path><path d="M41,3,37,5c4,12,5,17,5,23A18,18,0,0,1,6,28c0-6,1-11,5-23L7,3" fill="none" stroke="#61616b" stroke-width="2"></path><circle cx="24" cy="42" r="1" fill="#61616b" data-color="color-2" data-stroke="none" stroke="none"></circle><circle cx="15" cy="38.792" r="1" fill="#61616b" data-color="color-2" data-stroke="none" stroke="none"></circle><circle cx="10.188" cy="32" r="1" fill="#61616b" data-color="color-2" data-stroke="none" stroke="none"></circle><circle cx="33" cy="38.792" r="1" fill="#61616b" data-color="color-2" data-stroke="none" stroke="none"></circle><circle cx="37.812" cy="32" r="1" fill="#61616b" data-color="color-2" data-stroke="none" stroke="none"></circle></g></svg>