<svg xmlns="http://www.w3.org/2000/svg" height="64" width="64" viewBox="0 0 64 64"><title>horse 2 2</title><g stroke-linecap="round" fill="#61616b" stroke-linejoin="round" class="nc-icon-wrapper"><path d="M20,44h24v8c0,5.523-4.477,10-10,10h-4c-5.523,0-10-4.477-10-10v-8h0Z" fill="none" stroke="#61616b" stroke-width="2"></path><path d="M28.141,8h-2.336c-5.523,0-10,4.477-10,10,0,.551,.046,1.101,.136,1.644l4.059,24.356h24l4.059-24.356c.908-5.448-2.772-10.6-8.22-11.508-.542-.09-1.09-.136-1.639-.136h-2.341" fill="none" stroke="#61616b" stroke-width="2" data-cap="butt"></path><path d="M36,9c0,3-4,7-4,7,0,0-4-4-4-7,0-2.209,1.791-4,4-4s4,1.791,4,4Z" fill="none" stroke="#61616b" stroke-width="2"></path><circle cx="24.5" cy="24.5" r="1.5" fill="#61616b" stroke="#61616b" stroke-width="2" data-cap="butt" data-color="color-2"></circle><circle cx="39.5" cy="24.5" r="1.5" fill="#61616b" stroke="#61616b" stroke-width="2" data-cap="butt" data-color="color-2"></circle><path d="M47.877,15.521c4.799-1.371,8.112-5.753,8.123-10.744-.011-.938-.141-1.871-.386-2.777-5.092,.175-9.429,3.752-10.57,8.718" fill="none" stroke="#61616b" stroke-width="2" data-cap="butt"></path><path d="M16.123,15.521c-4.799-1.371-8.112-5.753-8.123-10.744,.011-.938,.141-1.871,.386-2.777,5.092,.175,9.429,3.752,10.57,8.718" fill="none" stroke="#61616b" stroke-width="2" data-cap="butt"></path><circle cx="27" cy="52" r="1" fill="#61616b" stroke="#61616b" stroke-width="2" data-cap="butt" data-color="color-2"></circle><circle cx="37" cy="52" r="1" fill="#61616b" stroke="#61616b" stroke-width="2" data-cap="butt" data-color="color-2"></circle></g></svg>