<svg xmlns="http://www.w3.org/2000/svg" height="64" width="64" viewBox="0 0 64 64"><title>jellyfish 3</title><g stroke-linecap="round" fill="#61616b" stroke-linejoin="round" class="nc-icon-wrapper"><path data-color="color-2" d="M27,38V57a4.012,4.012,0,0,1-4,4h0a4.012,4.012,0,0,1-4-4h0" fill="none" stroke="#61616b" stroke-width="2"></path><path data-color="color-2" d="M17,38v9a4.012,4.012,0,0,1-4,4h0a4.012,4.012,0,0,1-4-4H9" fill="none" stroke="#61616b" stroke-width="2"></path><path data-color="color-2" d="M47,38v9a4.012,4.012,0,0,0,4,4h0a4.012,4.012,0,0,0,4-4h0" fill="none" stroke="#61616b" stroke-width="2"></path><path data-color="color-2" d="M37,38V57a4.012,4.012,0,0,0,4,4h0a4.012,4.012,0,0,0,4-4h0" fill="none" stroke="#61616b" stroke-width="2"></path><path d="M4,33V31a28,28,0,0,1,56,0v2Z" fill="none" stroke="#61616b" stroke-width="2"></path></g></svg>