<svg xmlns="http://www.w3.org/2000/svg" height="16" width="16" viewBox="0 0 16 16"><title>jellyfish 2</title><g fill="#61616b" class="nc-icon-wrapper"><path d="M3.5,14A1.5,1.5,0,0,0,5,15.5H5A1.5,1.5,0,0,0,6.5,14V8.5" fill="none" stroke="#61616b" stroke-linecap="round" stroke-linejoin="round" data-color="color-2"></path> <path d="M.5,10A1.5,1.5,0,0,0,2,11.5H2A1.5,1.5,0,0,0,3.5,10V8.5" fill="none" stroke="#61616b" stroke-linecap="round" stroke-linejoin="round" data-color="color-2"></path> <path d="M12.5,14A1.5,1.5,0,0,1,11,15.5h0A1.5,1.5,0,0,1,9.5,14V8.5" fill="none" stroke="#61616b" stroke-linecap="round" stroke-linejoin="round" data-color="color-2"></path> <path d="M15.5,10A1.5,1.5,0,0,1,14,11.5h0A1.5,1.5,0,0,1,12.5,10V8.5" fill="none" stroke="#61616b" stroke-linecap="round" stroke-linejoin="round" data-color="color-2"></path> <path d="M14.475,6.5a6.494,6.494,0,0,0-12.95,0Z" fill="none" stroke="#61616b" stroke-linecap="round" stroke-linejoin="round"></path></g></svg>