<svg xmlns="http://www.w3.org/2000/svg" height="48" width="48" viewBox="0 0 48 48"><title>jellyfish 4</title><g stroke-linecap="round" fill="#61616b" stroke-linejoin="round" class="nc-icon-wrapper"><path data-color="color-2" d="M20,29V42a4.012,4.012,0,0,1-4,4h0a4.012,4.012,0,0,1-4-4h0" fill="none" stroke="#61616b" stroke-width="2"></path><path data-color="color-2" d="M12,29v3a4.012,4.012,0,0,1-4,4H8a4.012,4.012,0,0,1-4-4H4" fill="none" stroke="#61616b" stroke-width="2"></path><path data-color="color-2" d="M36,29v3a4.012,4.012,0,0,0,4,4h0a4.012,4.012,0,0,0,4-4h0" fill="none" stroke="#61616b" stroke-width="2"></path><path data-color="color-2" d="M28,29V42a4.012,4.012,0,0,0,4,4h0a4.012,4.012,0,0,0,4-4h0" fill="none" stroke="#61616b" stroke-width="2"></path><path d="M4,24V22a20,20,0,0,1,40,0v2Z" fill="none" stroke="#61616b" stroke-width="2"></path></g></svg>