<svg xmlns="http://www.w3.org/2000/svg" height="32" width="32" viewBox="0 0 32 32"><title>jellyfish 5</title><g stroke-linecap="round" fill="#61616b" stroke-linejoin="round" class="nc-icon-wrapper"><path data-color="color-2" d="M13,21v8a2.006,2.006,0,0,1-2,2h0a2.006,2.006,0,0,1-2-2H9" fill="none" stroke="#61616b" stroke-width="2"></path><path data-color="color-2" d="M8,21v3a2.006,2.006,0,0,1-2,2H6a2.006,2.006,0,0,1-2-2H4" fill="none" stroke="#61616b" stroke-width="2"></path><path data-color="color-2" d="M24,21v3a2.006,2.006,0,0,0,2,2h0a2.006,2.006,0,0,0,2-2h0" fill="none" stroke="#61616b" stroke-width="2"></path><path data-color="color-2" d="M19,21v8a2.006,2.006,0,0,0,2,2h0a2.006,2.006,0,0,0,2-2h0" fill="none" stroke="#61616b" stroke-width="2"></path><path d="M2,17V15a14,14,0,0,1,28,0v2Z" fill="none" stroke="#61616b" stroke-width="2"></path></g></svg>