<svg xmlns="http://www.w3.org/2000/svg" height="24" width="24" viewBox="0 0 24 24"><title>jellyfish</title><g stroke-linecap="round" fill="#61616b" stroke-linejoin="round" class="nc-icon-wrapper"><path data-color="color-2" fill="none" stroke="#61616b" stroke-width="2" d="M10,11v10 c0,1.1-0.9,2-2,2l0,0c-1.1,0-2-0.9-2-2l0,0"></path> <path data-color="color-2" fill="none" stroke="#61616b" stroke-width="2" d="M6,11v5 c0,1.1-0.9,2-2,2l0,0c-1.1,0-2-0.9-2-2l0,0"></path> <path data-color="color-2" fill="none" stroke="#61616b" stroke-width="2" d="M18,11v5 c0,1.1,0.9,2,2,2l0,0c1.1,0,2-0.9,2-2l0,0"></path> <path data-color="color-2" fill="none" stroke="#61616b" stroke-width="2" d="M14,11v10 c0,1.1,0.9,2,2,2l0,0c1.1,0,2-0.9,2-2l0,0"></path> <path fill="none" stroke="#61616b" stroke-width="2" d="M2,11C2,5.5,6.5,1,12,1 c5.5,0,10,4.5,10,10H2z"></path></g></svg>