<svg xmlns="http://www.w3.org/2000/svg" height="24" width="24" viewBox="0 0 24 24"><title>ladybug</title><g stroke-linecap="round" fill="#61616b" stroke-linejoin="round" class="nc-icon-wrapper"><line data-cap="butt" fill="none" stroke="#61616b" stroke-width="2" x1="12" y1="7" x2="12" y2="23"></line> <line data-cap="butt" data-color="color-2" fill="none" stroke="#61616b" stroke-width="2" x1="1" y1="13" x2="4" y2="13"></line> <line data-cap="butt" data-color="color-2" fill="none" stroke="#61616b" stroke-width="2" x1="4" y1="5" x2="6.1" y2="7.1"></line> <line data-cap="butt" data-color="color-2" fill="none" stroke="#61616b" stroke-width="2" x1="20" y1="5" x2="17.9" y2="7.1"></line> <line data-cap="butt" data-color="color-2" fill="none" stroke="#61616b" stroke-width="2" x1="4" y1="22" x2="6.1" y2="19.9"></line> <line data-cap="butt" data-color="color-2" fill="none" stroke="#61616b" stroke-width="2" x1="20" y1="22" x2="17.9" y2="19.9"></line> <line data-cap="butt" data-color="color-2" fill="none" stroke="#61616b" stroke-width="2" x1="20" y1="13" x2="23" y2="13"></line> <line data-cap="butt" data-color="color-2" fill="none" stroke="#61616b" stroke-width="2" x1="9" y1="3" x2="7" y2="1"></line> <line data-cap="butt" data-color="color-2" fill="none" stroke="#61616b" stroke-width="2" x1="15" y1="3" x2="17" y2="1"></line> <path data-cap="butt" fill="none" stroke="#61616b" stroke-width="2" d="M15.9,5.2c2.5,1.6,4.1,4.7,4.1,8.3 c0,5.2-3.6,9.5-8,9.5s-8-4.3-8-9.5c0-3.6,1.7-6.7,4.1-8.3"></path> <path fill="none" stroke="#61616b" stroke-width="2" d="M12,2c-2,0-3.7,1.5-4,3.5 c0,0,2,1.5,4,1.5s4-1.5,4-1.5C15.7,3.5,14,2,12,2z"></path></g></svg>