<svg xmlns="http://www.w3.org/2000/svg" height="48" width="48" viewBox="0 0 48 48"><title>land 3</title><g stroke-linecap="round" fill="#61616b" stroke-linejoin="round" class="nc-icon-wrapper"><line x1="16" y1="40" x2="16" y2="22" fill="none" stroke="#61616b" stroke-width="2" data-color="color-2"></line><path d="M21.046,14.3A9.948,9.948,0,0,0,22,10c0-4.418-2.686-8-6-8s-6,3.582-6,8a9.948,9.948,0,0,0,.954,4.3A11.02,11.02,0,0,0,8,22c0,5.523,3.582,10,8,10s8-4.477,8-10A11.02,11.02,0,0,0,21.046,14.3Z" fill="none" stroke="#61616b" stroke-width="2" data-color="color-2"></path><line x1="32" y1="40" x2="32" y2="22" fill="none" stroke="#61616b" stroke-width="2" data-color="color-2"></line><path d="M27.838,30.5A6.814,6.814,0,0,0,32,32c4.418,0,8-4.477,8-10a11.02,11.02,0,0,0-2.954-7.7A9.948,9.948,0,0,0,38,10c0-4.418-2.686-8-6-8a5.635,5.635,0,0,0-4.733,3.136" fill="none" stroke="#61616b" stroke-width="2" data-color="color-2"></path><path d="M5.815,32.943A37.183,37.183,0,0,0,2,35.535V46H46V35.535a37.183,37.183,0,0,0-3.815-2.592" fill="none" stroke="#61616b" stroke-width="2"></path></g></svg>