<svg xmlns="http://www.w3.org/2000/svg" height="16" width="16" viewBox="0 0 16 16"><title>land</title><g fill="#61616b" class="nc-icon-wrapper"><line x1="5.5" y1="13.5" x2="5.5" y2="7.5" fill="none" stroke="#61616b" stroke-linecap="round" stroke-linejoin="round" data-color="color-2"></line><path d="M7.258,4.168A2.975,2.975,0,0,0,7.5,3,2.292,2.292,0,0,0,5.5.5,2.292,2.292,0,0,0,3.5,3a2.975,2.975,0,0,0,.242,1.168A3.7,3.7,0,0,0,2.5,7a3.279,3.279,0,0,0,3,3.5A3.279,3.279,0,0,0,8.5,7,3.7,3.7,0,0,0,7.258,4.168Z" fill="none" stroke="#61616b" stroke-linecap="round" stroke-linejoin="round" data-color="color-2"></path><line x1="10.5" y1="13.5" x2="10.5" y2="7.5" fill="none" stroke="#61616b" stroke-linecap="round" stroke-linejoin="round" data-color="color-2"></line><path d="M9.049,10.063A2.657,2.657,0,0,0,10.5,10.5a3.279,3.279,0,0,0,3-3.5,3.7,3.7,0,0,0-1.242-2.832A2.975,2.975,0,0,0,12.5,3a2.292,2.292,0,0,0-2-2.5A1.952,1.952,0,0,0,8.8,1.69" fill="none" stroke="#61616b" stroke-linecap="round" stroke-linejoin="round" data-color="color-2"></path><path d="M1.99,10.121A11.958,11.958,0,0,0,.5,11.136V15.5h15V11.136a11.958,11.958,0,0,0-1.49-1.015" fill="none" stroke="#61616b" stroke-linecap="round" stroke-linejoin="round"></path></g></svg>