<svg xmlns="http://www.w3.org/2000/svg" height="64" width="64" viewBox="0 0 64 64"><title>land 2</title><g stroke-linecap="round" fill="#61616b" stroke-linejoin="round" class="nc-icon-wrapper"><line x1="22" y1="54" x2="22" y2="30" fill="none" stroke="#61616b" stroke-width="2" data-color="color-2"></line><path d="M29.032,16.673A11.868,11.868,0,0,0,30,12c0-5.523-3.582-10-8-10s-8,4.477-8,10a11.868,11.868,0,0,0,.968,4.673A14.8,14.8,0,0,0,10,28c0,7.732,5.373,14,12,14s12-6.268,12-14A14.8,14.8,0,0,0,29.032,16.673Z" fill="none" stroke="#61616b" stroke-width="2" data-color="color-2"></path><line x1="42" y1="54" x2="42" y2="32" fill="none" stroke="#61616b" stroke-width="2" data-color="color-2"></line><path d="M36.2,40.251A10.632,10.632,0,0,0,42,42c6.627,0,12-6.268,12-14a14.8,14.8,0,0,0-4.968-11.327A11.868,11.868,0,0,0,50,12c0-5.523-3.582-10-8-10-2.876,0-5.377,1.913-6.787,4.761" fill="none" stroke="#61616b" stroke-width="2" data-color="color-2"></path><path d="M7.96,40.484A48.3,48.3,0,0,0,2,44.542V62H62V44.542a48.3,48.3,0,0,0-5.96-4.058" fill="none" stroke="#61616b" stroke-width="2"></path></g></svg>