<svg xmlns="http://www.w3.org/2000/svg" height="24" width="24" viewBox="0 0 24 24"><title>land 5</title><g stroke-linecap="round" fill="#61616b" stroke-linejoin="round" class="nc-icon-wrapper"><line x1="8" y1="19" x2="8" y2="11" fill="none" stroke="#61616b" stroke-width="2" data-color="color-2"></line><path d="M10.523,7.15A4.971,4.971,0,0,0,11,5c0-2.209-1.343-4-3-4S5,2.791,5,5a4.971,4.971,0,0,0,.477,2.15A5.509,5.509,0,0,0,4,11c0,2.761,1.791,5,4,5s4-2.239,4-5A5.509,5.509,0,0,0,10.523,7.15Z" fill="none" stroke="#61616b" stroke-width="2" data-color="color-2"></path><line x1="16" y1="19" x2="16" y2="11" fill="none" stroke="#61616b" stroke-width="2" data-color="color-2"></line><path d="M13.919,15.252A3.414,3.414,0,0,0,16,16c2.209,0,4-2.239,4-5a5.509,5.509,0,0,0-1.477-3.85A4.971,4.971,0,0,0,19,5c0-2.209-1.343-4-3-4a2.82,2.82,0,0,0-2.367,1.568" fill="none" stroke="#61616b" stroke-width="2" data-color="color-2"></path><path d="M2.907,16.472A18.631,18.631,0,0,0,1,17.767V23H23V17.767a18.631,18.631,0,0,0-1.907-1.295" fill="none" stroke="#61616b" stroke-width="2"></path></g></svg>