<svg xmlns="http://www.w3.org/2000/svg" height="32" width="32" viewBox="0 0 32 32"><title>land 4</title><g stroke-linecap="round" fill="#61616b" stroke-linejoin="round" class="nc-icon-wrapper"><line x1="11" y1="27" x2="11" y2="15" fill="none" stroke="#61616b" stroke-width="2" data-color="color-2"></line><path d="M14.516,8.336A5.929,5.929,0,0,0,15,6c0-2.761-1.791-5-4-5S7,3.239,7,6a5.929,5.929,0,0,0,.484,2.336A7.4,7.4,0,0,0,5,14c0,3.866,2.686,7,6,7s6-3.134,6-7A7.4,7.4,0,0,0,14.516,8.336Z" fill="none" stroke="#61616b" stroke-width="2" data-color="color-2"></path><line x1="21" y1="27" x2="21" y2="15" fill="none" stroke="#61616b" stroke-width="2" data-color="color-2"></line><path d="M18.1,20.126A5.325,5.325,0,0,0,21,21c3.314,0,6-3.134,6-7a7.4,7.4,0,0,0-2.484-5.664A5.929,5.929,0,0,0,25,6c0-2.761-1.791-5-4-5a3.9,3.9,0,0,0-3.393,2.38" fill="none" stroke="#61616b" stroke-width="2" data-color="color-2"></path><path d="M3.98,20.242A24.093,24.093,0,0,0,1,22.271V31H31V22.271a24.093,24.093,0,0,0-2.98-2.029" fill="none" stroke="#61616b" stroke-width="2"></path></g></svg>