<svg xmlns="http://www.w3.org/2000/svg" height="32" width="32" viewBox="0 0 32 32"><title>leaf 38 4</title><g stroke-linecap="round" fill="#61616b" stroke-linejoin="round" class="nc-icon-wrapper"><path data-color="color-2" fill="none" stroke="#61616b" stroke-width="2" d=" M22.784,25.563c0,0-2.397,3.704-6.306,4.388C13.475,30.477,10,26.622,10,26.622s2.342-2.617,5.345-3.143 C18.872,22.862,22.784,25.563,22.784,25.563z"></path> <path data-color="color-2" fill="none" stroke="#61616b" stroke-width="2" d="M2,17.582 c0,0,2.721-2.265,5.879-1.856c2.426,0.314,4.168,4.097,4.168,4.097s-2.419,1.446-4.846,1.131C4.352,20.586,2,17.582,2,17.582z"></path> <path data-color="color-2" fill="none" stroke="#61616b" stroke-width="2" d="M15.344,15 c0,0-2.598-2.825-2.324-6.267c0.211-2.644,4.213-4.732,4.213-4.732s1.695,2.542,1.484,5.186C18.471,12.293,15.344,15,15.344,15z"></path> <path data-color="color-2" fill="none" stroke="#61616b" stroke-width="2" d=" M23.252,13.756c0,0-2.267,3.756-1.176,7.549c0.838,2.914,5.797,4.342,5.797,4.342s1.32-3.234,0.482-6.147 C27.37,16.077,23.252,13.756,23.252,13.756z"></path> <path fill="none" stroke="#61616b" stroke-width="2" d="M30,26C17,26,8,16,8,3"></path></g></svg>