<svg xmlns="http://www.w3.org/2000/svg" height="48" width="48" viewBox="0 0 48 48"><title>leaf 38 3</title><g stroke-linecap="round" fill="#61616b" stroke-linejoin="round" class="nc-icon-wrapper"><path data-color="color-2" fill="none" stroke="#61616b" stroke-width="2" d=" M33.128,39.254c0,0-3.587,5.541-9.435,6.565C19.2,46.607,14,40.84,14,40.84s3.504-3.916,7.997-4.703 C27.275,35.213,33.128,39.254,33.128,39.254z"></path> <path data-color="color-2" fill="none" stroke="#61616b" stroke-width="2" d=" M3.967,26.886c0,0,4.072-3.389,8.796-2.776c3.63,0.47,6.236,6.13,6.236,6.13s-3.62,2.163-7.25,1.693 C7.486,31.381,3.967,26.886,3.967,26.886z"></path> <path data-color="color-2" fill="none" stroke="#61616b" stroke-width="2" d=" M23.507,20.457c0,0-3.887-4.227-3.477-9.376C20.345,7.125,26.334,4,26.334,4s2.536,3.804,2.221,7.76 C28.185,16.406,23.507,20.457,23.507,20.457z"></path> <path data-color="color-2" fill="none" stroke="#61616b" stroke-width="2" d="M33.286,22 c0,0-2.66,6.001-0.329,11.426c1.791,4.168,9.42,5.357,9.42,5.357s1.352-5.048-0.439-9.215C39.835,24.672,33.286,22,33.286,22z"></path> <path fill="none" stroke="#61616b" stroke-width="2" d="M46.001,40.001 c-18.778,0-34-15.222-34-34"></path></g></svg>