<svg xmlns="http://www.w3.org/2000/svg" height="24" width="24" viewBox="0 0 24 24"><title>lobster</title><g stroke-linecap="round" fill="#61616b" stroke-linejoin="round" class="nc-icon-wrapper"><path data-cap="butt" data-color="color-2" fill="none" stroke="#61616b" stroke-width="2" d="M5,9c0,2,1.7,4.2,3.6,4.8"></path> <path data-cap="butt" data-color="color-2" fill="none" stroke="#61616b" stroke-width="2" d="M18.9,9c0,2-1.6,4.2-3.5,4.8"></path> <path data-cap="butt" fill="none" stroke="#61616b" stroke-width="2" d="M13,20l2-4c0.6-1.2,0.6-2.7-0.1-3.8 l-1.4-2.3C13.2,9.3,12.6,9,12,9h0c-0.6,0-1.2,0.3-1.5,0.9l-1.4,2.3C8.4,13.3,8.4,14.7,9,16l2,4"></path> <path fill="none" stroke="#61616b" stroke-width="2" d="M7.8,2.1C7.3,3.2,6.3,4,5,4 S2.7,3.2,2.2,2.1C1.5,2.9,1,3.9,1,5c0,2.2,1.8,4,4,4s4-1.8,4-4C9,3.9,8.5,2.9,7.8,2.1z"></path> <path fill="none" stroke="#61616b" stroke-width="2" d="M21.8,2.1 C21.3,3.2,20.3,4,19,4s-2.3-0.8-2.8-1.9C15.5,2.9,15,3.9,15,5c0,2.2,1.8,4,4,4s4-1.8,4-4C23,3.9,22.5,2.9,21.8,2.1z"></path> <path fill="none" stroke="#61616b" stroke-width="2" d="M13,20h-2c-1.7,0-3,1.3-3,3 v0h8v0C16,21.3,14.7,20,13,20z"></path></g></svg>