<svg xmlns="http://www.w3.org/2000/svg" height="32" width="32" viewBox="0 0 32 32"><title>lobster 4</title><g stroke-linecap="round" fill="#61616b" stroke-linejoin="round" class="nc-icon-wrapper"><path data-cap="butt" data-color="color-2" fill="none" stroke="#61616b" stroke-width="2" d="M6,11c0,2.8,2.2,6.4,5.5,7.1"></path> <path data-cap="butt" data-color="color-2" fill="none" stroke="#61616b" stroke-width="2" d="M26,11c0,2.8-2.2,6.4-5.5,7.1"></path> <path data-cap="butt" fill="none" stroke="#61616b" stroke-width="2" d="M18,27l2.2-6.6 c0.5-1.5,0.4-3.2-0.3-4.6l-2.4-4.9C17.2,10.3,16.6,10,16,10h0c-0.6,0-1.2,0.3-1.4,0.9l-2.4,4.9c-0.7,1.4-0.8,3.1-0.3,4.6L14,27"></path> <path fill="none" stroke="#61616b" stroke-width="2" d="M9.5,2.4C8.9,3.8,7,7,6,7 C4.9,7,3.1,3.8,2.5,2.4C1.6,3.3,1,4.6,1,6c0,2.8,2.2,5,5,5s5-2.2,5-5C11,4.6,10.4,3.3,9.5,2.4z"></path> <path fill="none" stroke="#61616b" stroke-width="2" d="M22.5,2.4 C23.1,3.8,25,7,26,7c1,0,2.9-3.2,3.5-4.6C30.4,3.3,31,4.6,31,6c0,2.8-2.2,5-5,5s-5-2.2-5-5C21,4.6,21.6,3.3,22.5,2.4z"></path> <path fill="none" stroke="#61616b" stroke-width="2" d="M17,27h-2c-2.2,0-4,1.8-4,4 v0h10v0C21,28.8,19.2,27,17,27z"></path></g></svg>