<svg xmlns="http://www.w3.org/2000/svg" height="48" width="48" viewBox="0 0 48 48"><title>lobster 3</title><g stroke-linecap="round" fill="#61616b" stroke-linejoin="round" class="nc-icon-wrapper"><path data-cap="butt" fill="none" stroke="#61616b" stroke-width="2" d="M10,17 c0.438,4.25,4.594,9,8.56,9.875"></path> <path data-cap="butt" fill="none" stroke="#61616b" stroke-width="2" d="M25.759,39l3.043-8.58 c0.789-2.224,0.864-4.64,0.216-6.909l-2.452-8.581C26.24,13.788,25.196,13,24.008,13c-1.188,0-2.233,0.788-2.559,1.93l-2.452,8.581 c-0.648,2.269-0.573,4.685,0.216,6.909L22.256,39"></path> <path data-color="color-2" fill="none" stroke="#61616b" stroke-width="2" d=" M14.859,3.257C14,6,12.2,10,10,10S6,6,5.141,3.257C3.825,4.712,3,6.742,3,9c0,4.418,3.134,8,7,8s7-3.582,7-8 C17,6.742,16.175,4.712,14.859,3.257z"></path> <path data-cap="butt" fill="none" stroke="#61616b" stroke-width="2" d="M38,17 c-0.438,4.25-4.594,9-8.56,9.875"></path> <path data-color="color-2" fill="none" stroke="#61616b" stroke-width="2" d=" M33.141,3.257C34,6,35.8,10,38,10s4-4,4.859-6.743C44.175,4.712,45,6.742,45,9c0,4.418-3.134,8-7,8s-7-3.582-7-8 C31,6.742,31.825,4.712,33.141,3.257z"></path> <path data-color="color-2" fill="none" stroke="#61616b" stroke-width="2" d="M26,39h-4 c-3.314,0-6,2.686-6,6h16C32,41.686,29.314,39,26,39z"></path></g></svg>