<svg xmlns="http://www.w3.org/2000/svg" height="64" width="64" viewBox="0 0 64 64"><title>lobster 2</title><g stroke-linecap="round" fill="#61616b" stroke-linejoin="round" class="nc-icon-wrapper"><path data-cap="butt" data-color="color-2" fill="none" stroke="#61616b" stroke-width="2" d="M13,22c0,0,0.912,6.25,3,9 c1.915,2.522,7.82,5.13,7.82,5.13"></path> <path data-cap="butt" data-color="color-2" fill="none" stroke="#61616b" stroke-width="2" d="M24.764,42.055 c0,0-6.133,0.379-8.05-0.996c-2.441-1.751-6.458-5.521-6.458-5.521"></path> <path data-cap="butt" data-color="color-2" fill="none" stroke="#61616b" stroke-width="2" d="M26.024,47.094 c0,0-5.191,2.113-7.357,2.113s-6.583-1.667-6.583-1.667"></path> <path data-cap="butt" data-color="color-2" fill="none" stroke="#61616b" stroke-width="2" d="M51,22c0,0-0.912,6.25-3,9 c-1.915,2.522-7.82,5.13-7.82,5.13"></path> <path data-cap="butt" data-color="color-2" fill="none" stroke="#61616b" stroke-width="2" d="M39.236,42.055 c0,0,6.133,0.379,8.05-0.996c2.441-1.751,6.458-5.521,6.458-5.521"></path> <path data-cap="butt" data-color="color-2" fill="none" stroke="#61616b" stroke-width="2" d="M37.976,47.094 c0,0,5.191,2.113,7.357,2.113c2.167,0,6.583-1.667,6.583-1.667"></path> <path fill="none" stroke="#61616b" stroke-width="2" d="M35,55h-6c-7,0-8,7-8,7h22 C43,62,42,55,35,55z"></path> <path data-cap="butt" fill="none" stroke="#61616b" stroke-width="2" d="M28,55l-3.479-13.915 c-0.997-3.989-0.953-8.168,0.129-12.136l3.56-13.055C28.677,14.185,30.229,13,32,13h0c1.771,0,3.323,1.185,3.789,2.894l3.56,13.055 c1.082,3.967,1.126,8.146,0.129,12.136L36,55"></path> <path fill="none" stroke="#61616b" stroke-width="2" d="M13,22 c5.523,0,10-4.477,10-10c0-3.272-1.571-6.176-4-8.001C18,9,15.251,14,13,14S8,9,7,3.999C4.571,5.824,3,8.728,3,12 C3,17.523,7.477,22,13,22z"></path> <path fill="none" stroke="#61616b" stroke-width="2" d="M51,22 c-5.523,0-10-4.477-10-10c0-3.272,1.571-6.176,4-8.001C46,9,48.749,14,51,14s5-5,6-10.001c2.429,1.824,4,4.729,4,8.001 C61,17.523,56.523,22,51,22z"></path></g></svg>