<svg xmlns="http://www.w3.org/2000/svg" height="24" width="24" viewBox="0 0 24 24"><title>lotus flower 5</title><g stroke-linecap="round" fill="#61616b" stroke-linejoin="round" class="nc-icon-wrapper"><path d="M12,19A10,10,0,0,0,22,9a9.963,9.963,0,0,0-3.53.653" fill="none" stroke="#61616b" stroke-width="2" data-color="color-2"></path><path d="M12,19A10,10,0,0,1,2,9a9.963,9.963,0,0,1,3.53.653" fill="none" stroke="#61616b" stroke-width="2" data-color="color-2"></path><path d="M12,19a7.456,7.456,0,0,0,10.537-.4,7.488,7.488,0,0,0-1.015-.782" fill="none" stroke="#61616b" stroke-width="2"></path><path d="M12,2a12.022,12.022,0,0,0,0,17A12.022,12.022,0,0,0,12,2Z" fill="none" stroke="#61616b" stroke-width="2" data-cap="butt"></path><path d="M12,19a7.456,7.456,0,0,1-10.537-.4,7.488,7.488,0,0,1,1.015-.782" fill="none" stroke="#61616b" stroke-width="2"></path></g></svg>