<svg xmlns="http://www.w3.org/2000/svg" height="64" width="64" viewBox="0 0 64 64"><title>lotus flower 2</title><g stroke-linecap="round" fill="#61616b" stroke-linejoin="round" class="nc-icon-wrapper"><path d="M32,51A27,27,0,0,1,5,24a26.886,26.886,0,0,1,12.029,2.828" fill="none" stroke="#61616b" stroke-width="2" data-color="color-2"></path><path d="M32,51A27,27,0,0,0,59,24a26.886,26.886,0,0,0-12.029,2.828" fill="none" stroke="#61616b" stroke-width="2" data-color="color-2"></path><path d="M32,51A31.971,31.971,0,0,0,32,4.549,31.971,31.971,0,0,0,32,51" fill="none" stroke="#61616b" stroke-width="2"></path><path d="M8.536,45.707a20.117,20.117,0,0,0-5,3.231A19.973,19.973,0,0,0,32,51" fill="none" stroke="#61616b" stroke-width="2"></path><path d="M55.464,45.707a20.117,20.117,0,0,1,5,3.231A19.973,19.973,0,0,1,32,51" fill="none" stroke="#61616b" stroke-width="2"></path></g></svg>