<svg xmlns="http://www.w3.org/2000/svg" height="24" width="24" viewBox="0 0 24 24"><title>mushroom</title><g stroke-linecap="round" fill="#61616b" stroke-linejoin="round" class="nc-icon-wrapper"><path data-cap="butt" data-color="color-2" fill="none" stroke="#61616b" stroke-width="2" d="M6.89728,13.51361 l-0.94037,4.7019C5.46185,20.69067,7.35504,23,9.87921,23h4.24158c2.52417,0,4.41736-2.30933,3.9223-4.78448l-0.93805-4.69031"></path> <path data-cap="butt" data-color="color-2" fill="none" stroke="#61616b" stroke-width="2" d="M13.37427,1.11389 C13.13641,1.69659,13,2.33179,13,3c0,2.76141,2.23859,5,5,5c1.40503,0,2.67023-0.58356,3.57855-1.51666"></path> <circle data-cap="butt" data-color="color-2" fill="none" stroke="#61616b" stroke-width="2" cx="8.5" cy="8.5" r="2.5"></circle> <path fill="none" stroke="#61616b" stroke-width="2" d="M1,10 c0-2.9375,4.92487-9,11-9s11,6.0625,11,9c0,2.125-4.92487,4-11,4S1,12.0625,1,10z"></path></g></svg>