<svg xmlns="http://www.w3.org/2000/svg" height="64" width="64" viewBox="0 0 64 64"><title>mushroom 3</title><g stroke-linecap="round" fill="#61616b" stroke-linejoin="round" class="nc-icon-wrapper"><path data-cap="butt" data-color="color-2" fill="none" stroke="#61616b" stroke-width="2" d="M18.38649,34.63187 l-1.91479,7.09459C13.71305,51.94772,21.41197,62,31.99896,62H31.999c10.58762,0,18.28664-10.05339,15.52686-20.275 l-1.90313-7.04877"></path> <path data-cap="butt" data-color="color-2" fill="none" stroke="#61616b" stroke-width="2" d="M35.75722,2.27206 c-0.64869,1.58919-1.02995,3.36008-1.02995,5.18248c0,7.53113,6.10524,13.63636,13.63636,13.63636 c3.8319,0,7.47846-1.74838,9.95571-4.29322"></path> <circle data-cap="butt" data-color="color-2" fill="none" stroke="#61616b" stroke-width="2" cx="22" cy="20" r="6"></circle> <path fill="none" stroke="#61616b" stroke-width="2" d="M2,26 C2,17.98864,15.43146,2,32,2s30,15.98864,30,24c0,4.25-13.43146,10-30,10S2,30,2,26z"></path></g></svg>