<svg xmlns="http://www.w3.org/2000/svg" height="32" width="32" viewBox="0 0 32 32"><title>mushroom 5</title><g stroke-linecap="round" fill="#61616b" stroke-linejoin="round" class="nc-icon-wrapper"><path data-cap="butt" data-color="color-2" fill="none" stroke="#61616b" stroke-width="2" d="M9.19325,17.31593 L7.75942,24.4757C7.08434,27.85092,9.66597,31,13.10802,31h5.78397c3.44205,0,6.02367-3.14908,5.34859-6.5243l-1.42921-7.13759"></path> <path data-cap="butt" data-color="color-2" fill="none" stroke="#61616b" stroke-width="2" d="M17.87861,1.13603 c-0.32435,0.79459-0.51497,1.68004-0.51497,2.59124c0,3.76556,3.05262,6.81818,6.81818,6.81818 c1.91595,0,3.73923-0.87419,4.97785-2.14661"></path> <circle data-cap="butt" data-color="color-2" fill="none" stroke="#61616b" stroke-width="2" cx="11" cy="10" r="3"></circle> <path fill="none" stroke="#61616b" stroke-width="2" d="M1,13 C1,8.99432,7.71573,1,16,1s15,7.99432,15,12c0,2.125-6.71573,5-15,5S1,15,1,13z"></path></g></svg>