<svg xmlns="http://www.w3.org/2000/svg" height="48" width="48" viewBox="0 0 48 48"><title>mushroom 4</title><g stroke-linecap="round" fill="#61616b" stroke-linejoin="round" class="nc-icon-wrapper"><path data-cap="butt" data-color="color-2" fill="none" stroke="#61616b" stroke-width="2" d="M13.79456,27.02722 l-1.04893,5.24471C11.32524,39.37394,16.75733,46,23.99999,46h0.00003c7.24265,0,12.67474-6.62606,11.25436-13.72807 l-1.04429-5.22151"></path> <path data-cap="butt" data-color="color-2" fill="none" stroke="#61616b" stroke-width="2" d="M26.74854,2.22778 C26.27283,3.39319,26,4.66357,26,6c0,5.52283,4.47717,10,10,10c2.81006,0,5.34045-1.16711,7.1571-3.03333"></path> <circle data-cap="butt" data-color="color-2" fill="none" stroke="#61616b" stroke-width="2" cx="17" cy="17" r="5"></circle> <path fill="none" stroke="#61616b" stroke-width="2" d="M2,20 c0-5.875,9.84974-18,22-18s22,12.125,22,18c0,4.25-9.84974,8-22,8S2,24.125,2,20z"></path></g></svg>