<svg xmlns="http://www.w3.org/2000/svg" height="64" width="64" viewBox="0 0 64 64"><title>octopus 3</title><g stroke-linecap="round" fill="#61616b" stroke-linejoin="round" class="nc-icon-wrapper"><line data-color="color-2" x1="24" y1="55" x2="24" y2="43" fill="none" stroke="#61616b" stroke-width="2"></line><line data-color="color-2" x1="32" y1="61" x2="32" y2="43" fill="none" stroke="#61616b" stroke-width="2"></line><line data-color="color-2" x1="40" y1="55" x2="40" y2="43" fill="none" stroke="#61616b" stroke-width="2"></line><path data-color="color-2" d="M8,57a4,4,0,0,0,8,0V43" fill="none" stroke="#61616b" stroke-width="2"></path><path data-color="color-2" d="M48,43V57a4,4,0,0,0,8,0" fill="none" stroke="#61616b" stroke-width="2"></path><path d="M32,3h0A25,25,0,0,0,7,28V38H57V28A25,25,0,0,0,32,3Z" fill="none" stroke="#61616b" stroke-width="2"></path><circle data-color="color-2" data-stroke="none" cx="18.5" cy="22.5" r="2.5" fill="#61616b" stroke="none"></circle><circle data-color="color-2" data-stroke="none" cx="45.5" cy="22.5" r="2.5" fill="#61616b" stroke="none"></circle></g></svg>