<svg xmlns="http://www.w3.org/2000/svg" height="16" width="16" viewBox="0 0 16 16"><title>organic 2</title><g fill="#61616b" class="nc-icon-wrapper"><path d="M.5,5.5h0a6,6,0,0,1,6,6v3a0,0,0,0,1,0,0h0a6,6,0,0,1-6-6v-3A0,0,0,0,1,.5,5.5Z" fill="none" stroke="#61616b" stroke-linecap="round" stroke-linejoin="round" data-color="color-2"></path> <path d="M14.5,1.5h0a0,0,0,0,1,0,0v5a8,8,0,0,1-8,8h0a0,0,0,0,1,0,0v-5a8,8,0,0,1,8-8Z" fill="none" stroke="#61616b" stroke-linecap="round" stroke-linejoin="round"></path></g></svg>