<svg xmlns="http://www.w3.org/2000/svg" height="24" width="24" viewBox="0 0 24 24"><title>organic 6</title><g stroke-linecap="round" fill="#61616b" stroke-linejoin="round" class="nc-icon-wrapper"><path d="M18.255,5a21.414,21.414,0,0,1,2.36-1.59S24.049,9.591,22.676,14.4c-.852,2.981-2.667,4.438-4.676,4.589" fill="none" stroke="#61616b" stroke-width="2" data-color="color-2"></path> <path d="M5.745,5a21.414,21.414,0,0,0-2.36-1.59S-.049,9.591,1.324,14.4C2.176,17.379,3.991,18.836,6,18.987" fill="none" stroke="#61616b" stroke-width="2" data-color="color-2"></path> <line x1="12" y1="23" x2="12" y2="13" fill="none" stroke="#61616b" stroke-width="2"></line> <path d="M7,12C7,7,12,2,12,2s5,5,5,10c0,4-2.239,6-5,6S7,16,7,12Z" fill="none" stroke="#61616b" stroke-width="2"></path></g></svg>