<svg xmlns="http://www.w3.org/2000/svg" height="32" width="32" viewBox="0 0 32 32"><title>organic 5</title><g stroke-linecap="round" fill="#61616b" stroke-linejoin="round" class="nc-icon-wrapper"><path d="M9,16C9,9,16,2,16,2s7,7,7,14c0,5-3.134,9-7,9S9,21,9,16Z" fill="none" stroke="#61616b" stroke-width="2"></path> <path d="M25,7.351a30.572,30.572,0,0,1,3.868-2.067s3.846,9.122,1.207,15.605c-1.746,4.292-5.661,6.774-9.075,5.956" fill="none" stroke="#61616b" stroke-width="2" data-color="color-2"></path> <path d="M7,7.351A30.572,30.572,0,0,0,3.132,5.284S-.714,14.406,1.925,20.889C3.671,25.181,7.586,27.663,11,26.845" fill="none" stroke="#61616b" stroke-width="2" data-color="color-2"></path> <line x1="16" y1="31" x2="16" y2="15" fill="none" stroke="#61616b" stroke-width="2"></line></g></svg>