<svg xmlns="http://www.w3.org/2000/svg" height="16" width="16" viewBox="0 0 16 16"><title>organic</title><g fill="#61616b" class="nc-icon-wrapper"><path d="M4.5,8C4.5,4.25,8.023.5,8.023.5S11.545,4.25,11.545,8c0,3-1.577,4.5-3.522,4.5S4.5,11,4.5,8Z" fill="none" stroke="#61616b" stroke-linecap="round" stroke-linejoin="round"></path> <path d="M12,3a15.966,15.966,0,0,1,1.837-1.134s2.018,4.733.728,8.254c-.7,1.907-1.838,2.92-3.069,3.168" fill="none" stroke="#61616b" stroke-linecap="round" stroke-linejoin="round" data-color="color-2"></path> <path d="M4,3A15.966,15.966,0,0,0,2.159,1.866S.141,6.6,1.431,10.12c.7,1.907,1.838,2.92,3.069,3.168" fill="none" stroke="#61616b" stroke-linecap="round" stroke-linejoin="round" data-color="color-2"></path> <line x1="8" y1="15.5" x2="8" y2="8.5" fill="none" stroke="#61616b" stroke-linecap="round" stroke-linejoin="round"></line></g></svg>