<svg xmlns="http://www.w3.org/2000/svg" height="32" width="32" viewBox="0 0 32 32"><title>owl 5</title><g stroke-linecap="round" fill="#61616b" stroke-linejoin="round" class="nc-icon-wrapper"><path data-cap="butt" data-color="color-2" fill="none" stroke="#61616b" stroke-width="2" d="M25.7985229,7 c-0.5123291-1.0023804-1.1868896-1.9447632-2.0203247-2.7781982C21.6303101,2.0739136,18.8151245,0.999939,16,0.999939 s-5.6303101,1.0739746-7.7781982,3.2218628C7.3883667,5.0552368,6.7138062,5.9976196,6.2014771,7"></path> <path data-cap="butt" data-color="color-2" fill="none" stroke="#61616b" stroke-width="2" d="M6.8392944,18.1009521 l6.5289917,11.3380127h0.0147095C13.8936768,30.3651123,14.8676147,31,16,31s2.1063232-0.6348877,2.6170044-1.5610352h0.0147095 l6.5289917-11.3380127"></path> <path data-cap="butt" data-color="color-2" fill="none" stroke="#61616b" stroke-width="2" d="M7.4477324,19.1575432 C5.9754095,20.2509117,5,22.025198,5,24c0,1.3590698,0.4571533,2.6083984,1.2188721,3.6143799 c0.5283427-1.8222027,2.1464453-3.2465782,4.0439463-3.5682583"></path> <path data-cap="butt" data-color="color-2" fill="none" stroke="#61616b" stroke-width="2" d="M24.5522671,19.1575432 C26.0245914,20.2509117,27,22.025198,27,24c0,1.3590698-0.4571533,2.6083984-1.2188721,3.6143799 c-0.5283432-1.8222027-2.1464443-3.2465782-4.0439472-3.5682583"></path> <path data-cap="butt" fill="none" stroke="#61616b" stroke-width="2" d="M14.0336561,17.4388466 C12.9672222,18.4116154,11.5571938,19,10,19c-3.3137083,0-6-2.6862907-6-6c0-0.269805,0.0150256-0.5140018,0.049531-0.7743769"></path> <path data-cap="butt" fill="none" stroke="#61616b" stroke-width="2" d="M17.9652233,17.4471283 C19.0312519,18.4179688,20.44454,19,22,19c3.3137093,0,6-2.6862907,6-6c0-0.269805-0.0150261-0.5140018-0.04953-0.7743769"></path> <path fill="none" stroke="#61616b" stroke-width="2" d="M16,13H6.9999938 C3.6862888,13,1,10.3137112,1,7.0000062V7h9.0000057C13.3137112,7,16,9.6862888,16,12.9999943V13z"></path> <path fill="none" stroke="#61616b" stroke-width="2" d="M16,13h9.0000057 C28.3137112,13,31,10.3137112,31,7.0000062V7h-9.0000057C18.6862888,7,16,9.6862888,16,12.9999943V13"></path> <path fill="none" stroke="#61616b" stroke-width="2" d="M12,13 c0,1.1045694-0.8954306,2-2,2s-2-0.8954306-2-2"></path> <path fill="none" stroke="#61616b" stroke-width="2" d="M24,13 c0,1.1045694-0.8954296,2-2,2s-2-0.8954306-2-2"></path> <path fill="none" stroke="#61616b" stroke-width="2" d="M14,17 c0-1.1045694,0.8954306-4,2-4s2,2.8954306,2,4s-0.8954296,4-2,4S14,18.1045704,14,17z"></path></g></svg>