<svg xmlns="http://www.w3.org/2000/svg" height="48" width="48" viewBox="0 0 48 48"><title>owl 4</title><g stroke-linecap="round" fill="#61616b" stroke-linejoin="round" class="nc-icon-wrapper"><path data-cap="butt" data-color="color-2" fill="none" stroke="#61616b" stroke-width="2" d="M38.9683838,9.9992676 C35.7392578,5.1756592,30.2404785,2,24,2S12.2607422,5.1756592,9.0316162,9.9992676"></path> <path data-cap="butt" data-color="color-2" fill="none" stroke="#61616b" stroke-width="2" d="M8.37146,28.2648926 C12.6933594,36.9727783,21.6257324,46,24,46s11.3066406-9.0272217,15.62854-17.7351074"></path> <path data-cap="butt" data-color="color-2" fill="none" stroke="#61616b" stroke-width="2" d="M7.9990425,28.0000095 C5.5588613,29.8234901,4,32.7194748,4,36c0,2.2618408,0.7791748,4.324707,2.0452881,6 c2.0102177-2.660038,5.2191248-4.2594948,8.8220167-3.9580727"></path> <path data-cap="butt" data-color="color-2" fill="none" stroke="#61616b" stroke-width="2" d="M40.0009575,28.0000095 C42.4411392,29.8234901,44,32.7194748,44,36c0,2.2618408-0.7791748,4.324707-2.0452881,6 c-2.0102196-2.660038-5.2191238-4.2594948-8.8220177-3.9580727"></path> <path data-cap="butt" fill="none" stroke="#61616b" stroke-width="2" d="M20.2335625,27.8230648 C18.523325,29.1899586,16.3596153,30,14,30C8.4771528,30,4,25.5228481,4,20c0-1.4029598,0.276741-2.7100239,0.7983155-3.9217758"></path> <path data-cap="butt" fill="none" stroke="#61616b" stroke-width="2" d="M27.7664375,27.8230648 C29.476675,29.1899586,31.6403847,30,34,30c5.5228462,0,10-4.4771519,10-10c0-1.4029598-0.276741-2.7100239-0.798317-3.9217758"></path> <circle fill="none" stroke="#61616b" stroke-width="2" cx="14" cy="20" r="2"></circle> <circle fill="none" stroke="#61616b" stroke-width="2" cx="34" cy="20" r="2"></circle> <path fill="none" stroke="#61616b" stroke-width="2" d="M24,18H9.9999924 C5.5817184,18,2,14.4182816,2,10.0000076V10h14.0000076C20.4182816,10,24,13.5817184,24,17.9999924V18z"></path> <path fill="none" stroke="#61616b" stroke-width="2" d="M20,26 c0-2.2091389,1.7908611-8,4-8s4,5.7908611,4,8s-1.7908611,8-4,8S20,28.2091389,20,26z"></path> <path fill="none" stroke="#61616b" stroke-width="2" d="M24,18h14.0000076 C42.4182816,18,46,14.4182816,46,10.0000076V10H31.9999924C27.5817184,10,24,13.5817184,24,17.9999924V18z"></path></g></svg>