<svg xmlns="http://www.w3.org/2000/svg" height="16" width="16" viewBox="0 0 16 16"><title>owl 2</title><g fill="#61616b" class="nc-icon-wrapper"><path d="M2.917,10.049a3.4,3.4,0,0,0-1.365,2.808A3.54,3.54,0,0,0,2.283,15a3.736,3.736,0,0,1,3.274-1.372" fill="none" stroke="#61616b" stroke-linecap="round" stroke-linejoin="round" data-color="color-2"></path> <path d="M13.083,10.049a3.4,3.4,0,0,1,1.365,2.808A3.54,3.54,0,0,1,13.717,15a3.736,3.736,0,0,0-3.274-1.372" fill="none" stroke="#61616b" stroke-linecap="round" stroke-linejoin="round" data-color="color-2"></path> <circle cx="5" cy="7" r="1" fill="#61616b" data-stroke="none" stroke="none"></circle> <circle cx="11" cy="7" r="1" fill="#61616b" data-stroke="none" stroke="none"></circle> <path d="M12.462,10.342C11.172,13.214,9.014,15.5,8,15.5s-3.172-2.286-4.462-5.158" fill="none" stroke="#61616b" stroke-linecap="round" stroke-linejoin="round"></path> <path d="M3.1,3.5a5.5,5.5,0,0,1,9.8,0" fill="none" stroke="#61616b" stroke-linecap="round" stroke-linejoin="round"></path> <path d="M1.885,6.028A3,3,0,1,0,7.329,6.5" fill="none" stroke="#61616b" stroke-linecap="round" stroke-linejoin="round"></path> <path d="M8.671,6.5a3,3,0,1,0,5.444-.471" fill="none" stroke="#61616b" stroke-linecap="round" stroke-linejoin="round"></path> <path d="M7.5,6.5v2l-1,1S7,12,8,12,9.5,9.5,9.5,9.5l-1-1v-2Z" fill="#61616b" data-stroke="none" stroke="none"></path> <path d="M.5,3.5h4a3,3,0,0,1,3,3v0a0,0,0,0,1,0,0h-4a3,3,0,0,1-3-3v0A0,0,0,0,1,.5,3.5Z" fill="none" stroke="#61616b" stroke-linecap="round" stroke-linejoin="round" data-color="color-2"></path> <path d="M11.5,3.5h4a0,0,0,0,1,0,0v0a3,3,0,0,1-3,3h-4a0,0,0,0,1,0,0v0A3,3,0,0,1,11.5,3.5Z" transform="translate(24 10) rotate(-180)" fill="none" stroke="#61616b" stroke-linecap="round" stroke-linejoin="round" data-color="color-2"></path></g></svg>