<svg xmlns="http://www.w3.org/2000/svg" height="64" width="64" viewBox="0 0 64 64"><title>palm tree 2</title><g stroke-linecap="round" fill="#61616b" stroke-linejoin="round" class="nc-icon-wrapper"><path d="M52.561,61a27.986,27.986,0,0,0-41.122,0Z" fill="none" stroke="#61616b" stroke-width="2"></path><path d="M37.631,52.573A49.927,49.927,0,0,0,39,41a49.712,49.712,0,0,0-7.811-26.81l-.972.736A49.771,49.771,0,0,1,34,34a49.744,49.744,0,0,1-3.369,18.036" fill="none" stroke="#61616b" stroke-width="2" data-cap="butt"></path><path d="M12,29,31,14C18.958,12.81,12,20,12,29Z" fill="none" stroke="#61616b" stroke-width="2" data-color="color-2"></path><path d="M56,20,31,14S50.652,3.807,56,20Z" fill="none" stroke="#61616b" stroke-width="2" data-color="color-2"></path><path d="M26.009,35l5-21S17,23,26.009,35Z" fill="none" stroke="#61616b" stroke-width="2" data-color="color-2"></path><path d="M31,14,47,32S49,16,31,14Z" fill="none" stroke="#61616b" stroke-width="2" data-color="color-2"></path><path d="M31,14s5.4-6.28,16-9C40,2,31,1,31,14Z" fill="none" stroke="#61616b" stroke-width="2" data-color="color-2"></path><path d="M31,14,14,12S25,2,31,14Z" fill="none" stroke="#61616b" stroke-width="2" data-color="color-2"></path></g></svg>