<svg xmlns="http://www.w3.org/2000/svg" height="48" width="48" viewBox="0 0 48 48"><title>panda 4</title><g stroke-linecap="round" fill="#61616b" stroke-linejoin="round" class="nc-icon-wrapper"><path data-color="color-2" fill="none" stroke="#61616b" stroke-width="2" d=" M15.16203,15.35426c2.46261,0,3.30052,1.90912,3.65646,3.30052s0.32358,2.13563-1.35904,4.53012 c-1.68262,2.39449-3.33287,4.07711-5.20964,4.07711s-3.39759-2.42685-3.36523-4.65955S11.76444,15.35426,15.16203,15.35426z"></path> <path data-color="color-2" fill="none" stroke="#61616b" stroke-width="2" d=" M32.83797,15.35426c-2.46261,0-3.30052,1.90912-3.65645,3.30052s-0.32358,2.13563,1.35904,4.53012 c1.68261,2.39449,3.33287,4.07711,5.20964,4.07711c1.87677,0,3.39759-2.42685,3.36523-4.65955 C39.08307,20.36975,36.23556,15.35426,32.83797,15.35426z"></path> <path data-cap="butt" data-color="color-2" fill="none" stroke="#61616b" stroke-width="2" d="M18,37v1 c0,1.65685,1.34314,3,3,3H21c1.65685,0,3-1.34314,3-3v-3.67384"></path> <path data-color="color-2" fill="none" stroke="#61616b" stroke-width="2" d="M20,27h8 c0.82405,0,1.29443,0.94076,0.8,1.6l-4,5.33333c-0.4,0.53333-1.2,0.53333-1.6,0L19.2,28.6C18.70557,27.94076,19.17595,27,20,27z"></path> <path data-cap="butt" data-color="color-2" fill="none" stroke="#61616b" stroke-width="2" d="M30,37v1 c0,1.65685-1.34314,3-3,3H27c-1.65685,0-3-1.34314-3-3"></path> <path data-cap="butt" fill="none" stroke="#61616b" stroke-width="2" d="M7.28813,13.95965 C4.30913,13.60838,2,11.07343,2,8c0-3.31371,2.68629-6,6-6c2.89383,0,5.44604,2.31107,6.01167,5.03718"></path> <path data-cap="butt" fill="none" stroke="#61616b" stroke-width="2" d="M40.71187,13.95965 C43.69087,13.60838,46,11.07343,46,8c0-3.31371-2.68629-6-6-6c-2.89383,0-5.44604,2.31107-6.01167,5.03718"></path> <path fill="none" stroke="#61616b" stroke-width="2" d="M43.8019,20 C41.3092,13.42175,34.93633,4,24,4S6.6908,13.42175,4.1981,20C-0.06481,31.25-0.20232,46,24,46S48.0648,31.25,43.8019,20z"></path></g></svg>