<svg xmlns="http://www.w3.org/2000/svg" height="64" width="64" viewBox="0 0 64 64"><title>panda 3</title><g stroke-linecap="round" fill="#61616b" stroke-linejoin="round" class="nc-icon-wrapper"><path data-color="color-2" fill="none" stroke="#61616b" stroke-width="2" d=" M21.72167,19.57399c4.18534,0,5.6094,3.24465,6.21433,5.6094c0.60494,2.36475,0.54994,3.62961-2.30975,7.69918 s-5.66439,6.92926-8.85405,6.92926s-5.77438-4.12456-5.71939-7.91915C11.10781,28.09807,15.94729,19.57399,21.72167,19.57399z"></path> <path data-color="color-2" fill="none" stroke="#61616b" stroke-width="2" d=" M42.27833,19.57399c-4.18534,0-5.6094,3.24465-6.21434,5.6094s-0.54994,3.62961,2.30975,7.69918 c2.8597,4.06956,5.66439,6.92926,8.85405,6.92926s5.77438-4.12456,5.71939-7.91915 C52.89219,28.09807,48.05271,19.57399,42.27833,19.57399z"></path> <path data-cap="butt" data-color="color-2" fill="none" stroke="#61616b" stroke-width="2" d="M24,52c0,2.20914,1.79086,4,4,4 H28c2.20914,0,4-1.79086,4-4v-3.20156"></path> <path data-cap="butt" data-color="color-2" fill="none" stroke="#61616b" stroke-width="2" d="M40,52c0,2.20914-1.79086,4-4,4 H36c-2.20914,0-4-1.79086-4-4"></path> <path data-color="color-2" fill="none" stroke="#61616b" stroke-width="2" d=" M28.16125,40h7.6775c1.67701,0,2.60936,1.93987,1.56174,3.24939l-3.83875,4.79844c-0.80065,1.00081-2.32282,1.00081-3.12347,0 l-3.83875-4.79844C25.55189,41.93987,26.48424,40,28.16125,40z"></path> <path data-cap="butt" fill="none" stroke="#61616b" stroke-width="2" d="M17.85371,8.54733 C17.17024,4.82284,13.92212,2,10,2c-4.41833,0-8,3.58167-8,8c0,4.11499,3.10195,7.46297,7.09817,7.9089"></path> <path data-cap="butt" fill="none" stroke="#61616b" stroke-width="2" d="M46.14629,8.54733 C46.82976,4.82284,50.07788,2,54,2c4.41833,0,8,3.58167,8,8c0,4.11499-3.10195,7.46297-7.09817,7.9089"></path> <circle fill="none" stroke="#61616b" stroke-width="2" cx="20" cy="29" r="2"></circle> <circle fill="none" stroke="#61616b" stroke-width="2" cx="44" cy="29" r="2"></circle> <path fill="none" stroke="#61616b" stroke-width="2" d="M59.02846,26.09524 C55.62607,17.01099,46.92746,4,32,4S8.37393,17.01099,4.97154,26.09524C-0.84708,41.63095-1.03478,62,32,62 S64.84708,41.63095,59.02846,26.09524z"></path></g></svg>