<svg xmlns="http://www.w3.org/2000/svg" height="16" width="16" viewBox="0 0 16 16"><title>panda 2</title><g fill="#61616b" class="nc-icon-wrapper"><path d="M6.669,6.617a1.191,1.191,0,0,0-1.163-1.05c-1.081,0-1.987,1.6-2,2.306s.473,1.483,1.07,1.483,1.123-.535,1.658-1.3S6.783,7.06,6.669,6.617Z" fill="#61616b" data-color="color-2" data-stroke="none" stroke="none"></path> <path d="M10.494,5.567a1.191,1.191,0,0,0-1.163,1.05c-.114.443-.1.68.432,1.442s1.06,1.3,1.658,1.3,1.081-.772,1.07-1.483S11.575,5.567,10.494,5.567Z" fill="#61616b" data-color="color-2" data-stroke="none" stroke="none"></path> <path d="M15.5,10c0,4.142-3.358,5.5-7.5,5.5S.5,14.142.5,10,3.858.5,8,.5,15.5,5.858,15.5,10Z" fill="none" stroke="#61616b" stroke-linecap="round" stroke-linejoin="round"></path> <polygon points="6 11.5 10 11.5 8 13.5 6 11.5" fill="#61616b" data-color="color-2" data-stroke="none" stroke="none"></polygon> <polygon points="6 11.5 10 11.5 8 13.5 6 11.5" fill="none" stroke="#61616b" stroke-linecap="round" stroke-linejoin="round" data-color="color-2"></polygon> <path d="M4.972,1.479A2.492,2.492,0,1,0,1.783,5.171" fill="none" stroke="#61616b" stroke-linecap="round" stroke-linejoin="round"></path> <path d="M11.028,1.479a2.492,2.492,0,1,1,3.189,3.692" fill="none" stroke="#61616b" stroke-linecap="round" stroke-linejoin="round"></path></g></svg>