<svg xmlns="http://www.w3.org/2000/svg" height="32" width="32" viewBox="0 0 32 32"><title>panda 5</title><g stroke-linecap="round" fill="#61616b" stroke-linejoin="round" class="nc-icon-wrapper"><path data-color="color-2" fill="none" stroke="#61616b" stroke-width="2" d=" M10.65593,10.78699c1.67905,0,2.25035,1.30167,2.49304,2.25035c0.24268,0.94868,0.22062,1.45611-0.92662,3.08872 s-2.27241,2.77985-3.55203,2.77985s-2.31654-1.65467-2.29448-3.17697S8.33939,10.78699,10.65593,10.78699z"></path> <path data-color="color-2" fill="none" stroke="#61616b" stroke-width="2" d=" M21.34407,10.78699c-1.67905,0-2.25035,1.30167-2.49304,2.25035c-0.24269,0.94868-0.22062,1.45611,0.92662,3.08872 c1.14724,1.63261,2.27241,2.77985,3.55202,2.77985s2.31654-1.65467,2.29448-3.17697S23.66061,10.78699,21.34407,10.78699z"></path> <path data-cap="butt" data-color="color-2" fill="none" stroke="#61616b" stroke-width="2" d="M12,26c0,1.10457,0.89543,2,2,2 h0c1.10457,0,2-0.89543,2-2v-1.60078"></path> <path data-cap="butt" data-color="color-2" fill="none" stroke="#61616b" stroke-width="2" d="M20,26c0,1.10457-0.89543,2-2,2 h0c-1.10457,0-2-0.89543-2-2"></path> <path data-color="color-2" fill="none" stroke="#61616b" stroke-width="2" d=" M14.08062,20h3.83875c0.83851,0,1.30468,0.96993,0.78087,1.62469l-1.91938,2.39922c-0.40033,0.50041-1.16141,0.50041-1.56174,0 l-1.91938-2.39922C12.77595,20.96993,13.24212,20,14.08062,20z"></path> <path data-cap="butt" fill="none" stroke="#61616b" stroke-width="2" d="M8.92686,4.27367 C8.58512,2.41142,6.96106,1,5,1C2.79083,1,1,2.79083,1,5c0,2.0575,1.55097,3.73149,3.54908,3.95445"></path> <path data-cap="butt" fill="none" stroke="#61616b" stroke-width="2" d="M23.07314,4.27367 C23.41488,2.41142,25.03894,1,27,1c2.20917,0,4,1.79083,4,4c0,2.0575-1.55098,3.73149-3.54908,3.95445"></path> <path fill="none" stroke="#61616b" stroke-width="2" d="M29.51423,13.04762 C27.81304,8.5055,23.46373,2,16,2S4.18696,8.5055,2.48577,13.04762C-0.42354,20.81548-0.51739,31,16,31 S32.42354,20.81548,29.51423,13.04762z"></path></g></svg>