<svg xmlns="http://www.w3.org/2000/svg" height="64" width="64" viewBox="0 0 64 64"><title>park 2</title><g stroke-linecap="round" fill="#61616b" stroke-linejoin="round" class="nc-icon-wrapper"><line x1="2" y1="54" x2="38" y2="54" fill="none" stroke="#61616b" stroke-width="2"></line><line x1="6" y1="54" x2="6" y2="62" fill="none" stroke="#61616b" stroke-width="2"></line><line x1="34" y1="54" x2="34" y2="62" fill="none" stroke="#61616b" stroke-width="2"></line><line x1="50" y1="62" x2="50" y2="30" fill="none" stroke="#61616b" stroke-width="2" data-color="color-2"></line><rect x="6" y="38" width="28" height="10" fill="none" stroke="#61616b" stroke-width="2"></rect><path d="M57.032,16.673A11.868,11.868,0,0,0,58,12c0-5.523-3.582-10-8-10s-8,4.477-8,10a11.868,11.868,0,0,0,.968,4.673A14.8,14.8,0,0,0,38,28c0,7.732,5.373,14,12,14s12-6.268,12-14A14.8,14.8,0,0,0,57.032,16.673Z" fill="none" stroke="#61616b" stroke-width="2" data-color="color-2"></path></g></svg>