<svg xmlns="http://www.w3.org/2000/svg" height="64" width="64" viewBox="0 0 64 64"><title>parrot 2</title><g stroke-linecap="round" fill="#61616b" stroke-linejoin="round" class="nc-icon-wrapper"><path data-cap="butt" data-color="color-2" d="M42,18H62A16,16,0,0,0,46,2H42" fill="none" stroke="#61616b" stroke-width="2"></path> <path data-cap="butt" data-color="color-2" d="M56,18A10,10,0,0,1,46,28H42" fill="none" stroke="#61616b" stroke-width="2"></path> <circle data-color="color-2" cx="25" cy="20" r="9" fill="none" stroke="#61616b" stroke-width="2"></circle> <circle data-color="color-2" cx="25" cy="20" r="2" fill="none" stroke="#61616b" stroke-width="2"></circle> <circle data-color="color-2" data-stroke="none" cx="25" cy="20" r="2" fill="#61616b" stroke="none"></circle> <path d="M23,2H42a0,0,0,0,1,0,0V44A18,18,0,0,1,24,62H5a0,0,0,0,1,0,0V20A18,18,0,0,1,23,2Z" fill="none" stroke="#61616b" stroke-width="2"></path></g></svg>