<svg xmlns="http://www.w3.org/2000/svg" height="48" width="48" viewBox="0 0 48 48"><title>parrot 3</title><g stroke-linecap="round" fill="#61616b" stroke-linejoin="round" class="nc-icon-wrapper"><circle data-color="color-2" cx="18" cy="16" r="7" fill="none" stroke="#61616b" stroke-width="2"></circle> <path data-cap="butt" data-color="color-2" d="M31,2h3A12,12,0,0,1,46,14v1H31" fill="none" stroke="#61616b" stroke-width="2"></path> <path data-cap="butt" data-color="color-2" d="M31,24h3a7,7,0,0,0,7-7V15" fill="none" stroke="#61616b" stroke-width="2"></path> <path d="M16,2H31a0,0,0,0,1,0,0V34A12,12,0,0,1,19,46H4a0,0,0,0,1,0,0V14A12,12,0,0,1,16,2Z" fill="none" stroke="#61616b" stroke-width="2"></path> <circle data-color="color-2" data-stroke="none" cx="18" cy="16" r="2" fill="#61616b" stroke="none"></circle></g></svg>