<svg xmlns="http://www.w3.org/2000/svg" height="32" width="32" viewBox="0 0 32 32"><title>parrot 4</title><g stroke-linecap="round" fill="#61616b" stroke-linejoin="round" class="nc-icon-wrapper"><path data-cap="butt" d="M21,9H31a8,8,0,0,0-8-8H21" fill="none" stroke="#61616b" stroke-width="2"></path> <path data-cap="butt" d="M28,9a5,5,0,0,1-5,5H21" fill="none" stroke="#61616b" stroke-width="2"></path> <circle data-color="color-2" cx="12" cy="10" r="5" fill="none" stroke="#61616b" stroke-width="2"></circle> <path d="M12,1h9a0,0,0,0,1,0,0V21A10,10,0,0,1,11,31H2a0,0,0,0,1,0,0V11A10,10,0,0,1,12,1Z" fill="none" stroke="#61616b" stroke-width="2"></path> <circle data-color="color-2" data-stroke="none" cx="12" cy="10" r="2" fill="#61616b" stroke="none"></circle></g></svg>