<svg xmlns="http://www.w3.org/2000/svg" height="48" width="48" viewBox="0 0 48 48"><title>paw 4</title><g stroke-linecap="round" fill="#61616b" stroke-linejoin="round" class="nc-icon-wrapper"><path data-color="color-2" d="M41.808,14.084c2.056-.475,3.921,1.117,4.165,3.556s-1.225,4.8-3.281,5.276S38.771,21.8,38.527,19.36,39.751,14.559,41.808,14.084Z" fill="none" stroke="#61616b" stroke-width="2"></path><path data-color="color-2" d="M6.192,14.084C4.136,13.609,2.271,15.2,2.027,17.64s1.225,4.8,3.281,5.276S9.229,21.8,9.473,19.36,8.249,14.559,6.192,14.084Z" fill="none" stroke="#61616b" stroke-width="2"></path><path d="M24,19c-6,0-14,9-14,18a7,7,0,0,0,7,7c4,0,4-2,7-2s3,2,7,2a7,7,0,0,0,7-7C38,28,30,19,24,19Z" fill="none" stroke="#61616b" stroke-width="2"></path><path data-color="color-2" d="M17.192,4.084C15.136,3.609,13.271,5.2,13.027,7.64s1.225,4.8,3.281,5.276S20.229,11.8,20.473,9.36,19.249,4.559,17.192,4.084Z" fill="none" stroke="#61616b" stroke-width="2"></path><path data-color="color-2" d="M30.808,4.084c2.056-.475,3.921,1.117,4.165,3.556s-1.225,4.8-3.281,5.276S27.771,11.8,27.527,9.36,28.751,4.559,30.808,4.084Z" fill="none" stroke="#61616b" stroke-width="2"></path></g></svg>