<svg xmlns="http://www.w3.org/2000/svg" height="64" width="64" viewBox="0 0 64 64"><title>paw 3</title><g stroke-linecap="round" fill="#61616b" stroke-linejoin="round" class="nc-icon-wrapper"><path d="M32,26c-8,0-18,12-18,23a9,9,0,0,0,9,9c4.971,0,5-3,9-3s4.029,3,9,3a9,9,0,0,0,9-9C50,38,40,26,32,26Z" fill="none" stroke="#61616b" stroke-width="2"></path><path data-color="color-2" d="M8.148,20.121c-3.016-.686-5.751,1.613-6.109,5.136s1.8,6.936,4.813,7.622,5.751-1.613,6.109-5.136S11.164,20.807,8.148,20.121Z" fill="none" stroke="#61616b" stroke-width="2"></path><path data-color="color-2" d="M55.852,20.121c3.016-.686,5.751,1.613,6.109,5.136s-1.8,6.936-4.813,7.622-5.751-1.613-6.109-5.136S52.836,20.807,55.852,20.121Z" fill="none" stroke="#61616b" stroke-width="2"></path><path data-color="color-2" d="M22.639,6.121c-2.971-.686-5.665,1.613-6.017,5.136s1.769,6.936,4.739,7.622,5.665-1.613,6.017-5.136S25.609,6.807,22.639,6.121Z" fill="none" stroke="#61616b" stroke-width="2"></path><path data-color="color-2" d="M41.268,6.121c3.016-.686,5.752,1.613,6.11,5.136s-1.8,6.936-4.813,7.622-5.751-1.613-6.109-5.136S38.252,6.807,41.268,6.121Z" fill="none" stroke="#61616b" stroke-width="2"></path></g></svg>