<svg xmlns="http://www.w3.org/2000/svg" height="16" width="16" viewBox="0 0 16 16"><title>paw 2</title><g fill="#61616b" class="nc-icon-wrapper"><path d="M8,6.5c-2,0-4.5,3-4.5,5.75A2.25,2.25,0,0,0,5.75,14.5c1.243,0,1.25-.75,2.25-.75s1.007.75,2.25.75a2.25,2.25,0,0,0,2.25-2.25C12.5,9.5,10,6.5,8,6.5Z" fill="none" stroke="#61616b" stroke-linecap="round" stroke-linejoin="round"></path><path data-color="color-2" d="M1.9,5.028A1.191,1.191,0,0,0,.509,6.213,1.617,1.617,0,0,0,1.6,7.972,1.191,1.191,0,0,0,2.991,6.787,1.617,1.617,0,0,0,1.9,5.028Z" fill="none" stroke="#61616b" stroke-linecap="round" stroke-linejoin="round"></path><path data-color="color-2" d="M14.1,5.028a1.191,1.191,0,0,1,1.388,1.185A1.617,1.617,0,0,1,14.4,7.972a1.191,1.191,0,0,1-1.388-1.185A1.617,1.617,0,0,1,14.1,5.028Z" fill="none" stroke="#61616b" stroke-linecap="round" stroke-linejoin="round"></path><path data-color="color-2" d="M5.647,1.528A1.191,1.191,0,0,0,4.259,2.713,1.617,1.617,0,0,0,5.353,4.472,1.191,1.191,0,0,0,6.741,3.287,1.617,1.617,0,0,0,5.647,1.528Z" fill="none" stroke="#61616b" stroke-linecap="round" stroke-linejoin="round"></path><path data-color="color-2" d="M10.353,1.528a1.191,1.191,0,0,1,1.388,1.185,1.617,1.617,0,0,1-1.094,1.759A1.191,1.191,0,0,1,9.259,3.287,1.617,1.617,0,0,1,10.353,1.528Z" fill="none" stroke="#61616b" stroke-linecap="round" stroke-linejoin="round"></path></g></svg>