<svg xmlns="http://www.w3.org/2000/svg" height="32" width="32" viewBox="0 0 32 32"><title>paw 5</title><g stroke-linecap="round" fill="#61616b" stroke-linejoin="round" class="nc-icon-wrapper"><path d="M16,13c-4,0-9,6-9,11.5A4.5,4.5,0,0,0,11.5,29c2.485,0,2.5-1.5,4.5-1.5S18.015,29,20.5,29A4.5,4.5,0,0,0,25,24.5C25,19,20,13,16,13Z" fill="none" stroke="#61616b" stroke-width="2"></path><path data-color="color-2" d="M3.8,10.056a2.382,2.382,0,0,0-2.777,2.37,3.236,3.236,0,0,0,2.187,3.518,2.382,2.382,0,0,0,2.777-2.37A3.236,3.236,0,0,0,3.8,10.056Z" fill="none" stroke="#61616b" stroke-width="2"></path><path data-color="color-2" d="M28.205,10.056a2.382,2.382,0,0,1,2.777,2.37A3.236,3.236,0,0,1,28.8,15.944a2.382,2.382,0,0,1-2.777-2.37A3.236,3.236,0,0,1,28.205,10.056Z" fill="none" stroke="#61616b" stroke-width="2"></path><path data-color="color-2" d="M11.3,3.056a2.382,2.382,0,0,0-2.777,2.37,3.236,3.236,0,0,0,2.187,3.518,2.382,2.382,0,0,0,2.777-2.37A3.236,3.236,0,0,0,11.3,3.056Z" fill="none" stroke="#61616b" stroke-width="2"></path><path data-color="color-2" d="M20.705,3.056a2.382,2.382,0,0,1,2.777,2.37A3.236,3.236,0,0,1,21.3,8.944a2.382,2.382,0,0,1-2.777-2.37A3.236,3.236,0,0,1,20.705,3.056Z" fill="none" stroke="#61616b" stroke-width="2"></path></g></svg>