<svg xmlns="http://www.w3.org/2000/svg" height="24" width="24" viewBox="0 0 24 24"><title>paw</title><g stroke-linecap="round" fill="#61616b" stroke-linejoin="round" class="nc-icon-wrapper"><path data-color="color-2" d="M8.456,2.037A1.647,1.647,0,0,0,6.512,3.618,2.156,2.156,0,0,0,8.044,5.963,1.647,1.647,0,0,0,9.988,4.382,2.156,2.156,0,0,0,8.456,2.037Z" fill="none" stroke="#61616b" stroke-width="2"></path><path data-color="color-2" d="M2.194,7.045A1.96,1.96,0,0,1,4.409,8.581a1.826,1.826,0,0,1-1.1,2.374A1.96,1.96,0,0,1,1.091,9.419,1.826,1.826,0,0,1,2.194,7.045Z" fill="none" stroke="#61616b" stroke-width="2"></path><path data-color="color-2" d="M15.544,2.037a1.647,1.647,0,0,1,1.944,1.581,2.156,2.156,0,0,1-1.532,2.345,1.647,1.647,0,0,1-1.944-1.581A2.156,2.156,0,0,1,15.544,2.037Z" fill="none" stroke="#61616b" stroke-width="2"></path><path data-color="color-2" d="M21.806,7.045a1.96,1.96,0,0,0-2.215,1.536,1.826,1.826,0,0,0,1.1,2.374,1.96,1.96,0,0,0,2.215-1.536A1.826,1.826,0,0,0,21.806,7.045Z" fill="none" stroke="#61616b" stroke-width="2"></path><path d="M5,19a3,3,0,0,0,3,3c2,0,2-1,4-1s2,1,4,1a3,3,0,0,0,3-3c0-4-4-9-7-9S5,15,5,19Z" fill="none" stroke="#61616b" stroke-width="2"></path></g></svg>