<svg xmlns="http://www.w3.org/2000/svg" height="48" width="48" viewBox="0 0 48 48"><title>pet food 4</title><g stroke-linecap="round" fill="#61616b" stroke-linejoin="round" class="nc-icon-wrapper"><path data-color="color-2" fill="none" stroke="#61616b" stroke-width="2" d="M10,18.00082L2.1571,35.64743 C2.05719,35.76339,2,35.88119,2,36.00082c0,1.65686,9.84973,3,22,3s22-1.34314,22-3c0-0.11963-0.05719-0.23743-0.1571-0.35339 L38,18.00082"></path> <path data-cap="butt" fill="none" stroke="#61616b" stroke-width="2" d="M35.93938,16.94914 C37.25609,17.25403,38,17.61627,38,18.00082c0,1.10457-6.26801,2-14,2s-14-0.89543-14-2c0-0.41421,0.88448-0.79735,2.39402-1.11655"></path> <path data-cap="butt" fill="none" stroke="#61616b" stroke-width="2" d="M35.93405,19.04703 C35.97046,18.71817,36,18.33775,36,17.99918c0-4.97058-4.02942-9-9-9c-3.19556,0-5.98474,1.67664-7.58167,4.18689 C18.96143,13.07474,18.49109,12.99918,18,12.99918c-3.31372,0-6,2.71866-6,6.03238"></path></g></svg>