<svg xmlns="http://www.w3.org/2000/svg" height="64" width="64" viewBox="0 0 64 64"><title>pet food 3</title><g stroke-linecap="round" fill="#61616b" stroke-linejoin="round" class="nc-icon-wrapper"><path data-cap="butt" data-color="color-2" fill="none" stroke="#61616b" stroke-width="2" d="M9,22L2.13885,45.52399 C2.04999,45.68073,2,45.83936,2,46c0,2.76141,13.43146,5,30,5s30-2.23859,30-5c0-0.16064-0.04999-0.31927-0.13885-0.47601L55,22"></path> <path data-cap="butt" fill="none" stroke="#61616b" stroke-width="2" d="M44.14091,18.59941 C50.67421,19.30498,55,20.56414,55,22c0,2.20914-10.29745,4-23,4S9,24.20914,9,22c0-1.30669,3.59933-2.46627,9.17147-3.19623"></path> <path data-cap="butt" fill="none" stroke="#61616b" stroke-width="2" d="M46.31462,25.13107 C46.31462,19.56685,41.56422,14,36,14c-2.82362,0-5.17071,1.12869-7,3c-1.31306-0.85105-3.31881-1-5-1 c-4.63681,0-7.99913,4.23684-7.99913,8.87366"></path></g></svg>