<svg xmlns="http://www.w3.org/2000/svg" height="64" width="64" viewBox="0 0 64 64"><title>pickaxe 3</title><g stroke-linecap="round" fill="#61616b" stroke-linejoin="round" class="nc-icon-wrapper"><line x1="17" y1="53" x2="11" y2="47" fill="none" stroke="#61616b" stroke-width="2"></line><polyline data-cap="butt" data-color="color-2" points="43.302 14.698 48 10 54 16 49.303 20.697" fill="none" stroke="#61616b" stroke-width="2"></polyline><path d="M41,29,10.242,59.758a4.239,4.239,0,0,1-6,0l0,0a4.239,4.239,0,0,1,0-6L35,23" fill="none" stroke="#61616b" stroke-width="2"></path><path data-color="color-2" d="M61.3,42.233l-3.038,1.013A95.413,95.413,0,0,0,19.807,5.224c.337-.74.642-1.411,1.242-2.733A60.085,60.085,0,0,1,61.3,42.233Z" fill="none" stroke="#61616b" stroke-width="2"></path></g></svg>