<svg xmlns="http://www.w3.org/2000/svg" height="48" width="48" viewBox="0 0 48 48"><title>pig 2 4</title><g stroke-linecap="round" fill="#61616b" stroke-linejoin="round" class="nc-icon-wrapper"><circle cx="20" cy="33" r="1" fill="#61616b" stroke="#61616b" stroke-width="2" data-color="color-2"></circle><circle cx="14" cy="20" r="1" fill="#61616b" stroke="#61616b" stroke-width="2" data-color="color-2"></circle><circle cx="34" cy="20" r="1" fill="#61616b" stroke="#61616b" stroke-width="2" data-color="color-2"></circle><circle cx="28" cy="33" r="1" fill="#61616b" stroke="#61616b" stroke-width="2" data-color="color-2"></circle><path d="M27,40h-6c-3.866,0-7-3.134-7-7h0c0-3.866,3.134-7,7-7h6c3.866,0,7,3.134,7,7h0c0,3.866-3.134,7-7,7Z" fill="none" stroke="#61616b" stroke-width="2" data-color="color-2"></path><path d="M17.435,7.102C15.076,4.434,10.573,2,2,2c0,9.561,.821,13.019,3.884,15.514" fill="none" stroke="#61616b" stroke-width="2" data-cap="butt"></path><path d="M30.565,7.102c2.36-2.668,6.863-5.102,15.435-5.102,0,9.561-.821,13.019-3.884,15.514" fill="none" stroke="#61616b" stroke-width="2" data-cap="butt"></path><circle cx="24" cy="26" r="20" fill="none" stroke="#61616b" stroke-width="2"></circle></g></svg>