<svg xmlns="http://www.w3.org/2000/svg" height="32" width="32" viewBox="0 0 32 32"><title>pig 2 5</title><g stroke-linecap="round" fill="#61616b" stroke-linejoin="round" class="nc-icon-wrapper"><circle cx="13" cy="22" r="1" fill="none" stroke="#61616b" stroke-width="2"></circle><circle cx="19" cy="22" r="1" fill="none" stroke="#61616b" stroke-width="2"></circle><circle cx="9.5" cy="13.5" r="1.5" fill="#61616b" data-color="color-2" data-stroke="none" stroke="none"></circle><circle cx="22.5" cy="13.5" r="1.5" fill="#61616b" data-color="color-2" data-stroke="none" stroke="none"></circle><path d="M18,27h-4c-2.761,0-5-2.239-5-5h0c0-2.761,2.239-5,5-5h4c2.761,0,5,2.239,5,5h0c0,2.761-2.239,5-5,5Z" fill="none" stroke="#61616b" stroke-width="2" data-color="color-2"></path><path d="M10.991,3.939C9.268,2.345,6.259,1,1,1c0,6.088,.489,8.546,2.255,10.23" fill="none" stroke="#61616b" stroke-width="2" data-cap="butt"></path><path d="M21.009,3.939c1.723-1.594,4.731-2.939,9.991-2.939,0,6.088-.489,8.546-2.255,10.23" fill="none" stroke="#61616b" stroke-width="2" data-cap="butt"></path><circle cx="16" cy="17" r="14" fill="none" stroke="#61616b" stroke-width="2"></circle></g></svg>