<svg xmlns="http://www.w3.org/2000/svg" height="64" width="64" viewBox="0 0 64 64"><title>pig 2 3</title><g stroke-linecap="round" fill="#61616b" stroke-linejoin="round" class="nc-icon-wrapper"><circle cx="26" cy="44" r="3" fill="none" stroke="#61616b" stroke-width="2" data-color="color-2"></circle><circle cx="38" cy="44" r="3" fill="none" stroke="#61616b" stroke-width="2" data-color="color-2"></circle><circle cx="20" cy="26" r="2" fill="#61616b" stroke="#61616b" stroke-width="2" data-color="color-2"></circle><circle cx="44" cy="26" r="2" fill="#61616b" stroke="#61616b" stroke-width="2" data-color="color-2"></circle><path d="M36,54h-8c-5.523,0-10-4.477-10-10h0c0-5.523,4.477-10,10-10h8c5.523,0,10,4.477,10,10h0c0,5.523-4.477,10-10,10Z" fill="none" stroke="#61616b" stroke-width="2" data-color="color-2"></path><path d="M21.981,7.878C18.535,4.689,12.519,2,2,2c0,12.176,.978,17.092,4.509,20.46" fill="none" stroke="#61616b" stroke-width="2" data-cap="butt"></path><path d="M42.019,7.878c3.446-3.189,9.463-5.878,19.981-5.878,0,12.176-.978,17.092-4.509,20.46" fill="none" stroke="#61616b" stroke-width="2" data-cap="butt"></path><circle cx="32" cy="34" r="28" fill="none" stroke="#61616b" stroke-width="2"></circle></g></svg>