<svg xmlns="http://www.w3.org/2000/svg" height="16" width="16" viewBox="0 0 16 16"><title>plant soil 2</title><g fill="#61616b" class="nc-icon-wrapper"><path d="M13.5,7.5h0a0,0,0,0,1,0,0v1a5,5,0,0,1-5,5h0a0,0,0,0,1,0,0v-1a5,5,0,0,1,5-5Z" fill="none" stroke="#61616b" stroke-linecap="round" stroke-linejoin="round"></path> <path d="M3.5,2.5h0a5,5,0,0,1,5,5v1a0,0,0,0,1,0,0h0a5,5,0,0,1-5-5v-1A0,0,0,0,1,3.5,2.5Z" transform="translate(12 11) rotate(-180)" fill="none" stroke="#61616b" stroke-linecap="round" stroke-linejoin="round"></path> <line x1="8.5" y1="0.5" x2="8.5" y2="15.5" fill="none" stroke="#61616b" stroke-linecap="round" stroke-linejoin="round" data-color="color-2"></line></g></svg>