<svg xmlns="http://www.w3.org/2000/svg" height="32" width="32" viewBox="0 0 32 32"><title>plant vase 5</title><g stroke-linecap="round" fill="#61616b" stroke-linejoin="round" class="nc-icon-wrapper"><path d="M10,3h1c2.761,0,5,2.239,5,5v2h-1c-2.761,0-5-2.239-5-5V3Z" fill="none" stroke="#61616b" stroke-width="2" data-color="color-2"></path><line x1="16" y1="19" x2="16" y2="1" fill="none" stroke="#61616b" stroke-width="2" data-color="color-2"></line><path d="M22,8h-1c-2.761,0-5,2.239-5,5v2h1c2.761,0,5-2.239,5-5v-2Z" fill="none" stroke="#61616b" stroke-width="2" data-color="color-2"></path><path d="M25,23v5c0,1.657-1.343,3-3,3H10c-1.657,0-3-1.343-3-3v-5" fill="none" stroke="#61616b" stroke-width="2" data-cap="butt"></path><line x1="28" y1="23" x2="4" y2="23" fill="none" stroke="#61616b" stroke-width="2"></line></g></svg>