<svg xmlns="http://www.w3.org/2000/svg" height="48" width="48" viewBox="0 0 48 48"><title>plant soil 4</title><g stroke-linecap="round" fill="#61616b" stroke-linejoin="round" class="nc-icon-wrapper"><path d="M12,5h0c6.627,0,12,5.373,12,12v2h0c-6.627,0-12-5.373-12-12v-2Z" fill="none" stroke="#61616b" stroke-width="2" data-color="color-2"></path><path d="M36,13h0c-6.627,0-12,5.373-12,12v2s0,0,0,0c6.627,0,12-5.373,12-12v-2Z" fill="none" stroke="#61616b" stroke-width="2" data-color="color-2"></path><line x1="24" y1="33" x2="24" y2="2" fill="none" stroke="#61616b" stroke-width="2" data-color="color-2"></line><path d="M2,46H12c0-2.209,1.791-4,4-4,.997,0,1.898,.378,2.599,.982,1.192-2.92,4.052-4.982,7.401-4.982,4.418,0,8,3.582,8,8h12" fill="none" stroke="#61616b" stroke-width="2"></path></g></svg>