<svg xmlns="http://www.w3.org/2000/svg" height="32" width="32" viewBox="0 0 32 32"><title>plant soil 5</title><g stroke-linecap="round" fill="#61616b" stroke-linejoin="round" class="nc-icon-wrapper"><line x1="16" y1="22" x2="16" y2="1" fill="none" stroke="#61616b" stroke-width="2" data-color="color-2"></line><path d="M23,8h0c-3.866,0-7,3.134-7,7v3h0c3.866,0,7-3.134,7-7v-3Z" fill="none" stroke="#61616b" stroke-width="2" data-color="color-2"></path><path d="M9,4h0c3.866,0,7,3.134,7,7v3h0c-3.866,0-7-3.134-7-7v-3Z" fill="none" stroke="#61616b" stroke-width="2" data-color="color-2"></path><path d="M1,30H10c0-1.105,.895-2,2-2,.499,0,.949,.189,1.299,.491,.596-1.46,2.026-2.491,3.701-2.491,2.209,0,4,1.791,4,4h10" fill="none" stroke="#61616b" stroke-width="2"></path></g></svg>