<svg xmlns="http://www.w3.org/2000/svg" height="48" width="48" viewBox="0 0 48 48"><title>plant vase 4</title><g stroke-linecap="round" fill="#61616b" stroke-linejoin="round" class="nc-icon-wrapper"><path d="M12,5h0c6.627,0,12,5.373,12,12v2h0c-6.627,0-12-5.373-12-12v-2Z" fill="none" stroke="#61616b" stroke-width="2" data-color="color-2"></path><path d="M36,12h0c-6.627,0-12,5.373-12,12v2s0,0,0,0c6.627,0,12-5.373,12-12v-2Z" fill="none" stroke="#61616b" stroke-width="2" data-color="color-2"></path><line x1="24" y1="30" x2="24" y2="2" fill="none" stroke="#61616b" stroke-width="2" data-color="color-2"></line><path d="M37,35v7c0,2.209-1.791,4-4,4H15c-2.209,0-4-1.791-4-4v-7" fill="none" stroke="#61616b" stroke-width="2" data-cap="butt"></path><line x1="7" y1="35" x2="41" y2="35" fill="none" stroke="#61616b" stroke-width="2"></line></g></svg>