<svg xmlns="http://www.w3.org/2000/svg" height="64" width="64" viewBox="0 0 64 64"><title>plant soil 3</title><g stroke-linecap="round" fill="#61616b" stroke-linejoin="round" class="nc-icon-wrapper"><path d="M3,60H20c0-2.209,1.791-4,4-4,.997,0,1.898,.378,2.599,.982,1.192-2.92,4.052-4.982,7.401-4.982,4.418,0,8,3.582,8,8h19" fill="none" stroke="#61616b" stroke-width="2"></path><path d="M49,20h-1c-8.837,0-16,7.163-16,16v2s1,0,1,0c8.837,0,16-7.163,16-16v-2Z" fill="none" stroke="#61616b" stroke-width="2" data-color="color-2"></path><path d="M15,8h1c8.837,0,16,7.163,16,16v2s-1,0-1,0c-8.837,0-16-7.163-16-16v-2Z" fill="none" stroke="#61616b" stroke-width="2" data-color="color-2"></path><line x1="32" y1="46" x2="32" y2="3" fill="none" stroke="#61616b" stroke-width="2" data-color="color-2"></line></g></svg>