<svg xmlns="http://www.w3.org/2000/svg" height="64" width="64" viewBox="0 0 64 64"><title>plant vase 3</title><g stroke-linecap="round" fill="#61616b" stroke-linejoin="round" class="nc-icon-wrapper"><line x1="32" y1="34" x2="32" y2="2" fill="none" stroke="#61616b" stroke-width="2" data-color="color-2"></line><path d="M49,45v12c0,2.761-2.239,5-5,5H20c-2.761,0-5-2.239-5-5v-12" fill="none" stroke="#61616b" stroke-width="2" data-cap="butt"></path><rect x="9" y="39" width="46" height="6" fill="none" stroke="#61616b" stroke-width="2"></rect><path d="M18,6h1c7.18,0,13,5.82,13,13v2s-1,0-1,0c-7.18,0-13-5.82-13-13v-2Z" fill="none" stroke="#61616b" stroke-width="2" data-color="color-2"></path><path d="M46,12h-1c-7.18,0-13,5.82-13,13v2s1,0,1,0c7.18,0,13-5.82,13-13v-2Z" fill="none" stroke="#61616b" stroke-width="2" data-color="color-2"></path></g></svg>