<svg xmlns="http://www.w3.org/2000/svg" height="64" width="64" viewBox="0 0 64 64"><title>rabbit 3</title><g stroke-linecap="round" fill="#61616b" stroke-linejoin="round" class="nc-icon-wrapper"><circle cx="23.5" cy="41.5" r="2.5" fill="#61616b" stroke="#61616b" stroke-width="2" data-color="color-2"></circle><path d="M33.035,23.474C31.289,13.936,24.286,1.181,19.873,2.042c-4.505,.878-4.455,16.519-1.793,25.11" fill="none" stroke="#61616b" stroke-width="2" data-cap="butt" data-color="color-2"></path><path d="M56.147,2.571c-4.804-2.701-15.19,6.189-19.414,13.065-1.449,2.359-2.889,5.459-3.988,8.659-2.941-.66-6.113-.706-9.455,.316-8.391,2.566-13.29,10.615-13.29,19.389v4c0,7.531,6.469,14,14,14h3.957c9.382,0,17.788-6.527,19.396-15.77,.713-4.1,.067-7.98-1.497-11.346,2.846-2.536,5.47-5.591,7.241-8.339,4.084-6.338,8.097-21.137,3.05-23.974Z" fill="none" stroke="#61616b" stroke-width="2"></path></g></svg>