<svg xmlns="http://www.w3.org/2000/svg" height="48" width="48" viewBox="0 0 48 48"><title>rabbit 4</title><g stroke-linecap="round" fill="#61616b" stroke-linejoin="round" class="nc-icon-wrapper"><circle cx="18" cy="30" r="2" fill="#61616b" stroke="#61616b" stroke-width="2" data-color="color-2"></circle><path d="M25.288,17.748c-1.281-6.994-6.416-16.348-9.653-15.717-3.303,.644-3.267,12.114-1.315,18.414" fill="none" stroke="#61616b" stroke-width="2" data-cap="butt" data-color="color-2"></path><path d="M42.237,2.419c-3.523-1.981-11.139,4.539-14.237,9.581-1.063,1.73-2.119,4.003-2.925,6.35-2.157-.484-4.483-.518-6.934,.232-6.153,1.882-10.142,7.86-10.142,14.295v3.124c0,5.523,4.477,10,10,10h3.564c6.88,0,13.044-4.786,14.224-11.564,.523-3.007,.049-5.852-1.098-8.321,2.087-1.86,4.011-4.1,5.31-6.115,2.995-4.647,5.937-15.5,2.237-17.581Z" fill="none" stroke="#61616b" stroke-width="2"></path></g></svg>