<svg xmlns="http://www.w3.org/2000/svg" height="16" width="16" viewBox="0 0 16 16"><title>rabbit 2</title><g fill="#61616b" class="nc-icon-wrapper"><path d="M7.763,5.868C7.326,3.484,5.576.3,4.472.51,3.346.73,3.358,4.64,4.024,6.788" fill="none" stroke="#61616b" stroke-linecap="round" stroke-linejoin="round"></path> <path d="M13.541.643c-1.2-.675-3.8,1.547-4.854,3.266a11.354,11.354,0,0,0-1,2.165,4.537,4.537,0,0,0-2.363.079,5.05,5.05,0,0,0-3.458,4.873v1.065A3.409,3.409,0,0,0,5.278,15.5H6.493a4.878,4.878,0,0,0,4.849-3.942,4.741,4.741,0,0,0-.374-2.837,10.679,10.679,0,0,0,1.81-2.085C13.8,5.052,14.8,1.352,13.541.643Z" fill="none" stroke="#61616b" stroke-linecap="round" stroke-linejoin="round"></path> <circle cx="6" cy="10" r="1" fill="#61616b" data-color="color-2" data-stroke="none" stroke="none"></circle></g></svg>