<svg xmlns="http://www.w3.org/2000/svg" height="24" width="24" viewBox="0 0 24 24"><title>rabbit</title><g stroke-linecap="round" fill="#61616b" stroke-linejoin="round" class="nc-icon-wrapper"><circle cx="8.5" cy="14.5" r="1.5" fill="#61616b" data-color="color-2" data-stroke="none" stroke="none"></circle><path d="M12.644,8.874c-.64-3.497-3.208-8.174-4.826-7.858-1.652,.322-1.634,6.057-.658,9.207" fill="none" stroke="#61616b" stroke-width="2" data-cap="butt" data-color="color-2"></path><path d="M21.118,1.21c-1.762-.99-5.57,2.269-7.118,4.79-.531,.865-1.059,2.001-1.462,3.175-1.078-.242-2.242-.259-3.467,.116-3.077,.941-5.071,3.93-5.071,7.147v1.562c0,2.761,2.239,5,5,5h1.782c3.44,0,6.522-2.393,7.112-5.782,.262-1.503,.025-2.926-.549-4.16,1.043-.93,2.006-2.05,2.655-3.057,1.498-2.324,2.969-7.75,1.118-8.79Z" fill="none" stroke="#61616b" stroke-width="2"></path></g></svg>