<svg xmlns="http://www.w3.org/2000/svg" height="32" width="32" viewBox="0 0 32 32"><title>rabbit 5</title><g stroke-linecap="round" fill="#61616b" stroke-linejoin="round" class="nc-icon-wrapper"><circle cx="12" cy="21" r="2" fill="#61616b" data-color="color-2" data-stroke="none" stroke="none"></circle><path d="M16.518,11.737C15.644,6.968,12.143,.591,9.936,1.021c-2.252,.439-2.228,8.26-.897,12.555" fill="none" stroke="#61616b" stroke-width="2" data-cap="butt" data-color="color-2"></path><path d="M28.073,1.286c-2.402-1.35-7.595,3.095-9.707,6.532-.725,1.179-1.445,2.729-1.994,4.329-1.471-.33-3.057-.353-4.727,.158-4.195,1.283-6.645,5.307-6.645,9.695v2c0,3.766,3.234,7,7,7h1.979c4.691,0,8.894-3.263,9.698-7.885,.357-2.05,.034-3.99-.749-5.673,1.423-1.268,2.735-2.795,3.621-4.169,2.042-3.169,4.048-10.568,1.525-11.987Z" fill="none" stroke="#61616b" stroke-width="2"></path></g></svg>