<svg xmlns="http://www.w3.org/2000/svg" height="24" width="24" viewBox="0 0 24 24"><title>rat head</title><g stroke-linecap="round" fill="#61616b" stroke-linejoin="round" class="nc-icon-wrapper"><circle cx="9.25" cy="10.75" r="1.25" fill="#61616b" data-color="color-2" data-stroke="none" stroke="none"></circle><circle cx="14.75" cy="10.75" r="1.25" fill="#61616b" data-color="color-2" data-stroke="none" stroke="none"></circle><path d="M5.239,10.87c-2.424-.522-4.239-2.507-4.239-4.87C1,3.239,3.462,1,6.5,1c1.822,0,3.465,.824,4.466,2.065" fill="none" stroke="#61616b" stroke-width="2" data-cap="butt"></path><path d="M18.761,10.87c2.424-.522,4.239-2.507,4.239-4.87,0-2.761-2.462-5-5.5-5-1.822,0-3.465,.824-4.466,2.065" fill="none" stroke="#61616b" stroke-width="2" data-cap="butt"></path><path d="M5,9c0-3.314,3.134-6,7-6s7,2.686,7,6-4,14-7,14c-3.042,0-7-10.686-7-14Z" fill="none" stroke="#61616b" stroke-width="2"></path><line x1="4" y1="21.172" x2="10" y2="20.15" fill="none" stroke="#61616b" stroke-width="2" data-color="color-2"></line><line x1="3" y1="16.583" x2="9.367" y2="17.538" fill="none" stroke="#61616b" stroke-width="2" data-color="color-2"></line><line x1="20" y1="21.172" x2="14" y2="20.15" fill="none" stroke="#61616b" stroke-width="2" data-color="color-2"></line><line x1="21" y1="16.583" x2="14.633" y2="17.538" fill="none" stroke="#61616b" stroke-width="2" data-color="color-2"></line></g></svg>