<svg xmlns="http://www.w3.org/2000/svg" height="16" width="16" viewBox="0 0 16 16"><title>rat head 2</title><g fill="#61616b" class="nc-icon-wrapper"><path d="M12.5,7c0,3.5-2.015,8.5-4.5,8.5S3.5,10.5,3.5,7a4.5,4.5,0,0,1,9,0Z" fill="none" stroke="#61616b" stroke-linecap="round" stroke-linejoin="round"></path> <circle cx="6" cy="8" r="1" fill="#61616b" data-color="color-2" data-stroke="none" stroke="none"></circle> <circle cx="10" cy="8" r="1" fill="#61616b" data-color="color-2" data-stroke="none" stroke="none"></circle> <path d="M7.194,2.581a3.5,3.5,0,1,0-3.678,4.87" fill="none" stroke="#61616b" stroke-linecap="round" stroke-linejoin="round"></path> <path d="M8.806,2.581a3.5,3.5,0,1,1,3.678,4.87" fill="none" stroke="#61616b" stroke-linecap="round" stroke-linejoin="round"></path> <line x1="6.5" y1="12.5" x2="1.5" y2="11.5" fill="none" stroke="#61616b" stroke-linecap="round" stroke-linejoin="round"></line> <line x1="6.5" y1="14.5" x2="3.5" y2="15.5" fill="none" stroke="#61616b" stroke-linecap="round" stroke-linejoin="round"></line> <line x1="9.5" y1="12.5" x2="14.5" y2="11.5" fill="none" stroke="#61616b" stroke-linecap="round" stroke-linejoin="round"></line> <line x1="9.5" y1="14.5" x2="12.5" y2="15.5" fill="none" stroke="#61616b" stroke-linecap="round" stroke-linejoin="round"></line></g></svg>