<svg xmlns="http://www.w3.org/2000/svg" height="48" width="48" viewBox="0 0 48 48"><title>rat head 4</title><g stroke-linecap="round" fill="#61616b" stroke-linejoin="round" class="nc-icon-wrapper"><path d="M10.477,21.741c-4.847-1.044-8.477-5.015-8.477-9.741C2,6.477,6.925,2,13,2c3.644,0,6.931,1.649,8.932,4.13" fill="none" stroke="#61616b" stroke-width="2" data-cap="butt"></path><path d="M37.523,21.741c4.847-1.044,8.477-5.015,8.477-9.741,0-5.523-4.925-10-11-10-3.644,0-6.931,1.649-8.932,4.13" fill="none" stroke="#61616b" stroke-width="2" data-cap="butt"></path><path d="M10,18c0-6.627,6.268-12,14-12s14,5.373,14,12-8,28-14,28c-6.083,0-14-21.373-14-28Z" fill="none" stroke="#61616b" stroke-width="2"></path><line x1="8" y1="42.345" x2="20" y2="40.301" fill="none" stroke="#61616b" stroke-width="2" data-color="color-2"></line><line x1="6" y1="33.167" x2="18.735" y2="35.075" fill="none" stroke="#61616b" stroke-width="2" data-color="color-2"></line><line x1="40" y1="42.345" x2="28" y2="40.301" fill="none" stroke="#61616b" stroke-width="2" data-color="color-2"></line><line x1="42" y1="33.167" x2="29.265" y2="35.075" fill="none" stroke="#61616b" stroke-width="2" data-color="color-2"></line><circle cx="18" cy="22" r="1" fill="#61616b" stroke="#61616b" stroke-width="2" data-color="color-2"></circle><circle cx="30" cy="22" r="1" fill="#61616b" stroke="#61616b" stroke-width="2" data-color="color-2"></circle></g></svg>