<svg xmlns="http://www.w3.org/2000/svg" height="32" width="32" viewBox="0 0 32 32"><title>rat head 5</title><g stroke-linecap="round" fill="#61616b" stroke-linejoin="round" class="nc-icon-wrapper"><circle cx="11.5" cy="16.5" r="1.5" fill="#61616b" data-color="color-2" data-stroke="none" stroke="none"></circle><circle cx="20.5" cy="16.5" r="1.5" fill="#61616b" data-color="color-2" data-stroke="none" stroke="none"></circle><path d="M6.36,14.711c-3.098-.86-5.36-3.539-5.36-6.711C1,4.134,4.358,1,8.5,1c2.577,0,4.854,1.22,6.205,3.067" fill="none" stroke="#61616b" stroke-width="2" data-cap="butt"></path><path d="M25.64,14.711c3.098-.86,5.36-3.539,5.36-6.711,0-3.866-3.358-7-7.5-7-2.577,0-4.854,1.22-6.205,3.067" fill="none" stroke="#61616b" stroke-width="2" data-cap="butt"></path><path d="M6,12.1c0-4.474,4.477-8.1,10-8.1s10,3.626,10,8.1-5.714,18.9-10,18.9c-4.345,0-10-14.426-10-18.9Z" fill="none" stroke="#61616b" stroke-width="2"></path><line x1="5.091" y1="28.508" x2="13.273" y2="27.114" fill="none" stroke="#61616b" stroke-width="2" data-color="color-2"></line><line x1="3.727" y1="22.25" x2="12.41" y2="23.551" fill="none" stroke="#61616b" stroke-width="2" data-color="color-2"></line><line x1="26.909" y1="28.508" x2="18.727" y2="27.114" fill="none" stroke="#61616b" stroke-width="2" data-color="color-2"></line><line x1="28.273" y1="22.25" x2="19.59" y2="23.551" fill="none" stroke="#61616b" stroke-width="2" data-color="color-2"></line></g></svg>