<svg xmlns="http://www.w3.org/2000/svg" height="64" width="64" viewBox="0 0 64 64"><title>rat 2</title><g stroke-linecap="round" fill="#61616b" stroke-linejoin="round" class="nc-icon-wrapper"><path d="M34.953,22.579c-2.597,2.586-2.605,6.788-.019,9.385,.239,.24,.496,.461,.769,.662-1.696,1.249-2.699,3.228-2.703,5.334l23,.04c2.761,0,5,2.239,5,5s-2.239,5-5,5h-16c-2.761,0-5,2.239-5,5s2.239,5,5,5h5" fill="none" stroke="#61616b" stroke-width="2"></path><path d="M37,10.014v-.014c-6.599-.005-13.089,1.675-18.857,4.881-1.127-2.413-3.268-4.201-5.843-4.881l-3.09,11.684c-2.691,2.73-4.966,5.841-6.753,9.232-.588,1.115-.622,2.44-.092,3.584l1.635,3.5H52.965c2.045-3.049,3.105-6.652,3.035-10.323-.179-9.995-9.011-17.87-19-17.663Z" fill="none" stroke="#61616b" stroke-width="2"></path><circle cx="13" cy="28" r="1" fill="#61616b" stroke="#61616b" stroke-width="2" data-cap="butt" data-color="color-2"></circle></g></svg>