<svg xmlns="http://www.w3.org/2000/svg" height="64" width="64" viewBox="0 0 64 64"><title>rat head 3</title><g stroke-linecap="round" fill="#61616b" stroke-linejoin="round" class="nc-icon-wrapper"><path d="M37.844,58.412c-1.453-1.487-3.477-2.412-5.719-2.412-2.321,0-4.404,.994-5.865,2.572" fill="none" stroke="#61616b" stroke-width="2" data-color="color-2"></path><path d="M12.72,29.422c-6.197-1.721-10.72-7.079-10.72-13.422,0-7.732,6.716-14,15-14,5.153,0,9.709,2.44,12.409,6.134" fill="none" stroke="#61616b" stroke-width="2" data-cap="butt"></path><path d="M51.28,29.422c6.197-1.721,10.72-7.079,10.72-13.422,0-7.732-6.716-14-15-14-5.153,0-9.709,2.44-12.409,6.134" fill="none" stroke="#61616b" stroke-width="2" data-cap="butt"></path><path d="M12,24.2c0-8.947,8.954-16.2,20-16.2s20,7.253,20,16.2-11.429,37.8-20,37.8c-8.69,0-20-28.853-20-37.8Z" fill="none" stroke="#61616b" stroke-width="2"></path><line x1="10.182" y1="55.015" x2="26.545" y2="52.228" fill="none" stroke="#61616b" stroke-width="2" data-color="color-2"></line><line x1="7.455" y1="42.5" x2="24.82" y2="45.103" fill="none" stroke="#61616b" stroke-width="2" data-color="color-2"></line><line x1="53.818" y1="55.015" x2="37.455" y2="52.228" fill="none" stroke="#61616b" stroke-width="2" data-color="color-2"></line><line x1="56.545" y1="42.5" x2="39.18" y2="45.103" fill="none" stroke="#61616b" stroke-width="2" data-color="color-2"></line><circle cx="23.5" cy="31.5" r="1.5" fill="#61616b" stroke="#61616b" stroke-width="2" data-cap="butt" data-color="color-2"></circle><circle cx="40.5" cy="31.5" r="1.5" fill="#61616b" stroke="#61616b" stroke-width="2" data-cap="butt" data-color="color-2"></circle></g></svg>