<svg xmlns="http://www.w3.org/2000/svg" height="64" width="64" viewBox="0 0 64 64"><title>shark 2 3</title><g stroke-linecap="round" fill="#61616b" stroke-linejoin="round" class="nc-icon-wrapper"><path data-color="color-2" d="M2,57.867a16.364,16.364,0,0,0,10-4c6.08,5.394,14.281,5.625,20,0,5.719,5.625,13.92,5.394,20,0a16.364,16.364,0,0,0,10,4" fill="none" stroke="#61616b" stroke-width="2"></path><path d="M49.589,46.311A35.76,35.76,0,0,0,50,41,36,36,0,0,0,14,5c-.106,0-.209.007-.315.008A48.3,48.3,0,0,1,18,25a48.235,48.235,0,0,1-4.544,20.465" fill="none" stroke="#61616b" stroke-width="2"></path></g></svg>