<svg xmlns="http://www.w3.org/2000/svg" height="48" width="48" viewBox="0 0 48 48"><title>shark 2 4</title><g stroke-linecap="round" fill="#61616b" stroke-linejoin="round" class="nc-icon-wrapper"><path data-color="color-2" d="M2.018,43a9.963,9.963,0,0,0,7-2.863c.136.134.276.263.419.389A10.591,10.591,0,0,0,24.018,39.6a10.591,10.591,0,0,0,14.581.926c.143-.126.283-.255.419-.389a9.964,9.964,0,0,0,7,2.863" fill="none" stroke="#61616b" stroke-width="2"></path><path d="M39,32A28,28,0,0,0,11,4h-.018A33.861,33.861,0,0,1,14,18a33.861,33.861,0,0,1-3.018,14" fill="none" stroke="#61616b" stroke-width="2"></path></g></svg>