<svg xmlns="http://www.w3.org/2000/svg" height="32" width="32" viewBox="0 0 32 32"><title>sheep 4</title><g stroke-linecap="round" fill="#61616b" stroke-linejoin="round" class="nc-icon-wrapper"><line x1="16" y1="25.395" x2="16" y2="31" fill="none" stroke="#61616b" stroke-width="2" data-cap="butt" data-color="color-2"></line><path d="M14.081,21h3.839c.839,0,1.305,.97,.781,1.625l-1.919,2.399c-.4,.5-1.161,.5-1.562,0l-1.919-2.399c-.524-.655-.058-1.625,.781-1.625h0Z" fill="none" stroke="#61616b" stroke-width="2" data-color="color-2"></path><circle cx="10.5" cy="16.5" r="1.5" fill="#61616b" data-color="color-2" data-stroke="none" stroke="none"></circle><circle cx="21.5" cy="16.5" r="1.5" fill="#61616b" data-color="color-2" data-stroke="none" stroke="none"></circle><path d="M10.171,6H1c0,2.972,2.163,5.433,5,5.91" fill="none" stroke="#61616b" stroke-width="2" data-cap="butt"></path><path d="M21.874,6h9.126c0,2.972-2.163,5.433-5,5.91" fill="none" stroke="#61616b" stroke-width="2" data-cap="butt"></path><path d="M21.793,6.273c2.444,.759,4.207,3.034,4.207,5.727v9c0,5.523-4.477,10-10,10h0c-5.523,0-10-4.477-10-10V12c0-2.714,1.8-5.007,4.273-5.748" fill="none" stroke="#61616b" stroke-width="2" data-cap="butt"></path><path d="M18,1c-1.312,0-2.467,.641-3.196,1.617-.503-.382-1.124-.617-1.804-.617-1.657,0-3,1.343-3,3s1.343,3,3,3c.68,0,1.301-.235,1.804-.617,.729,.976,1.884,1.617,3.196,1.617,2.209,0,4-1.791,4-4s-1.791-4-4-4Z" fill="none" stroke="#61616b" stroke-width="2"></path></g></svg>