<svg xmlns="http://www.w3.org/2000/svg" height="64" width="64" viewBox="0 0 64 64"><title>sheep 2</title><g stroke-linecap="round" fill="#61616b" stroke-linejoin="round" class="nc-icon-wrapper"><circle cx="21.5" cy="33.5" r="1.5" fill="#61616b" stroke="#61616b" stroke-width="2" data-cap="butt" data-color="color-2"></circle><circle cx="42.5" cy="33.5" r="1.5" fill="#61616b" stroke="#61616b" stroke-width="2" data-cap="butt" data-color="color-2"></circle><line x1="32" y1="50.79" x2="32" y2="62" fill="none" stroke="#61616b" stroke-width="2" data-cap="butt" data-color="color-2"></line><path d="M28.161,42h7.677c1.677,0,2.609,1.94,1.562,3.249l-3.839,4.798c-.801,1.001-2.323,1.001-3.123,0l-3.839-4.798c-1.048-1.31-.115-3.249,1.562-3.249Z" fill="none" stroke="#61616b" stroke-width="2" data-color="color-2"></path><path d="M20.341,12H2c0,5.944,4.327,10.866,10,11.82" fill="none" stroke="#61616b" stroke-width="2" data-cap="butt"></path><path d="M43.748,12h18.252c0,5.944-4.327,10.866-10,11.82" fill="none" stroke="#61616b" stroke-width="2" data-cap="butt"></path><path d="M43.587,12.545c4.887,1.518,8.413,6.068,8.413,11.455v18c0,11.046-8.954,20-20,20h0c-11.046,0-20-8.954-20-20V24c0-5.428,3.6-10.014,8.546-11.496" fill="none" stroke="#61616b" stroke-width="2" data-cap="butt"></path><path d="M36,2c-2.625,0-4.933,1.281-6.392,3.234-1.007-.764-2.247-1.234-3.608-1.234-3.314,0-6,2.686-6,6s2.686,6,6,6c1.361,0,2.602-.47,3.608-1.234,1.459,1.953,3.767,3.234,6.392,3.234,4.418,0,8-3.582,8-8s-3.582-8-8-8Z" fill="none" stroke="#61616b" stroke-width="2"></path></g></svg>