<svg xmlns="http://www.w3.org/2000/svg" height="48" width="48" viewBox="0 0 48 48"><title>sheep 3</title><g stroke-linecap="round" fill="#61616b" stroke-linejoin="round" class="nc-icon-wrapper"><line x1="24" y1="38" x2="24" y2="46" fill="none" stroke="#61616b" stroke-width="2" data-cap="butt" data-color="color-2"></line><path d="M21,31h6c1.236,0,1.942,1.411,1.2,2.4l-3,4c-.6,.8-1.8,.8-2.4,0l-3-4c-.742-.989-.036-2.4,1.2-2.4Z" fill="none" stroke="#61616b" stroke-width="2" data-color="color-2"></path><path d="M14.494,11.058c-1.349-.678-2.882-1.058-4.494-1.058H2c0,4.832,3.443,8.864,8,9.797" fill="none" stroke="#61616b" stroke-width="2" data-cap="butt"></path><path d="M33.506,11.058c1.349-.678,2.882-1.058,4.494-1.058h8c0,4.832-3.443,8.864-8,9.797" fill="none" stroke="#61616b" stroke-width="2" data-cap="butt"></path><path d="M31.552,10.279c3.711,.97,6.448,4.347,6.448,8.362v13.359c0,7.732-6.268,14-14,14h0c-7.732,0-14-6.268-14-14v-13.359c0-4.095,2.85-7.527,6.674-8.418" fill="none" stroke="#61616b" stroke-width="2" data-cap="butt"></path><path d="M26,2c-1.887,0-3.549,.888-4.649,2.25-.424-.153-.874-.25-1.351-.25-2.209,0-4,1.791-4,4s1.791,4,4,4c.476,0,.927-.097,1.351-.25,1.1,1.362,2.763,2.25,4.649,2.25,3.314,0,6-2.686,6-6s-2.686-6-6-6Z" fill="none" stroke="#61616b" stroke-width="2"></path><circle cx="17" cy="25" r="1" fill="#61616b" stroke="#61616b" stroke-width="2" data-color="color-2"></circle><circle cx="31" cy="25" r="1" fill="#61616b" stroke="#61616b" stroke-width="2" data-color="color-2"></circle></g></svg>