<svg xmlns="http://www.w3.org/2000/svg" height="24" width="24" viewBox="0 0 24 24"><title>sheep</title><g stroke-linecap="round" fill="#61616b" stroke-linejoin="round" class="nc-icon-wrapper"><line x1="12" y1="18.667" x2="12" y2="23" fill="none" stroke="#61616b" stroke-width="2" data-cap="butt" data-color="color-2"></line><path d="M10,15h4c.412,0,.647,.47,.4,.8l-2,2.667c-.2,.267-.6,.267-.8,0l-2-2.667c-.247-.33-.012-.8,.4-.8Z" fill="none" stroke="#61616b" stroke-width="2" data-color="color-2"></path><path d="M7.247,5.529c-.674-.339-1.441-.529-2.247-.529H1c0,2.416,1.722,4.432,4,4.898" fill="none" stroke="#61616b" stroke-width="2" data-cap="butt"></path><path d="M16.753,5.529c.674-.339,1.441-.529,2.247-.529h4c0,2.416-1.722,4.432-4,4.898" fill="none" stroke="#61616b" stroke-width="2" data-cap="butt"></path><path d="M15.776,5.139c1.855,.485,3.224,2.174,3.224,4.181v6.68c0,3.866-3.134,7-7,7h0c-3.866,0-7-3.134-7-7v-6.68c0-2.048,1.425-3.764,3.337-4.209" fill="none" stroke="#61616b" stroke-width="2" data-cap="butt"></path><path d="M13,1c-.943,0-1.775,.444-2.325,1.125-.212-.076-.437-.125-.675-.125-1.105,0-2,.895-2,2s.895,2,2,2c.238,0,.463-.049,.675-.125,.55,.681,1.381,1.125,2.325,1.125,1.657,0,3-1.343,3-3s-1.343-3-3-3Z" fill="none" stroke="#61616b" stroke-width="2"></path><circle cx="15.25" cy="11.25" r="1.25" fill="#61616b" data-color="color-2" data-stroke="none" stroke="none"></circle><circle cx="8.75" cy="11.25" r="1.25" fill="#61616b" data-color="color-2" data-stroke="none" stroke="none"></circle></g></svg>