<svg xmlns="http://www.w3.org/2000/svg" height="24" width="24" viewBox="0 0 24 24"><title>shell 5</title><g stroke-linecap="round" fill="#61616b" stroke-linejoin="round" class="nc-icon-wrapper"><path d="M9.662,21h-2.9a2,2,0,0,1-1.985-1.752l-.566-4.529" fill="none" stroke="#61616b" stroke-width="2" data-cap="butt" data-color="color-2"></path> <path d="M14.338,21h2.9a2,2,0,0,0,1.985-1.752l.566-4.529" fill="none" stroke="#61616b" stroke-width="2" data-cap="butt" data-color="color-2"></path> <path d="M23,9.778a3.317,3.317,0,0,0-3.3-3.334,3.316,3.316,0,0,0-3.3-3.333,3.234,3.234,0,0,0-1.617.445,3.267,3.267,0,0,0-5.566,0A3.234,3.234,0,0,0,7.6,3.111,3.316,3.316,0,0,0,4.3,6.444a3.328,3.328,0,0,0-2.45,5.549l7.558,8.714a3.245,3.245,0,0,0,5.184,0l7.558-8.714A3.327,3.327,0,0,0,23,9.778Z" fill="none" stroke="#61616b" stroke-width="2"></path> <line x1="9.217" y1="3.556" x2="10.34" y2="11" fill="none" stroke="#61616b" stroke-width="2" data-cap="butt"></line> <line x1="4.3" y1="6.444" x2="7.545" y2="13" fill="none" stroke="#61616b" stroke-width="2" data-cap="butt"></line> <line x1="14.783" y1="3.556" x2="13.66" y2="11" fill="none" stroke="#61616b" stroke-width="2" data-cap="butt"></line> <line x1="19.7" y1="6.444" x2="16.455" y2="13" fill="none" stroke="#61616b" stroke-width="2" data-cap="butt"></line></g></svg>