<svg xmlns="http://www.w3.org/2000/svg" height="32" width="32" viewBox="0 0 32 32"><title>shell 4</title><g stroke-linecap="round" fill="#61616b" stroke-linejoin="round" class="nc-icon-wrapper"><path d="M12.305,28H8.766a2,2,0,0,1-1.985-1.752l-.7-5.619" fill="none" stroke="#61616b" stroke-width="2" data-cap="butt" data-color="color-2"></path> <path d="M19.7,28h3.539a2,2,0,0,0,1.985-1.752l.7-5.619" fill="none" stroke="#61616b" stroke-width="2" data-cap="butt" data-color="color-2"></path> <path d="M31,12.889a4.586,4.586,0,0,0-4.5-4.667A4.585,4.585,0,0,0,22,3.556a4.332,4.332,0,0,0-2.206.622,4.394,4.394,0,0,0-7.588,0A4.332,4.332,0,0,0,10,3.556,4.585,4.585,0,0,0,5.5,8.222,4.586,4.586,0,0,0,1,12.889a4.73,4.73,0,0,0,1.16,3.1l10.305,12.2a4.356,4.356,0,0,0,7.07,0L29.84,15.99A4.73,4.73,0,0,0,31,12.889Z" fill="none" stroke="#61616b" stroke-width="2"></path> <line x1="12.206" y1="4.178" x2="14.09" y2="17" fill="none" stroke="#61616b" stroke-width="2" data-cap="butt"></line> <line x1="5.5" y1="8.222" x2="10.696" y2="19" fill="none" stroke="#61616b" stroke-width="2" data-cap="butt"></line> <line x1="19.794" y1="4.178" x2="17.91" y2="17" fill="none" stroke="#61616b" stroke-width="2" data-cap="butt"></line> <line x1="26.5" y1="8.222" x2="21.304" y2="19" fill="none" stroke="#61616b" stroke-width="2" data-cap="butt"></line></g></svg>