<svg xmlns="http://www.w3.org/2000/svg" height="16" width="16" viewBox="0 0 16 16"><title>shell</title><g fill="#61616b" class="nc-icon-wrapper"><path d="M6.575,14H4.383a1,1,0,0,1-.992-.876l-.38-3.006" fill="none" stroke="#61616b" stroke-linecap="round" stroke-linejoin="round" data-color="color-2"></path> <path d="M9.425,14h2.192a1,1,0,0,0,.992-.876l.38-3.006" fill="none" stroke="#61616b" stroke-linecap="round" stroke-linejoin="round" data-color="color-2"></path> <path d="M15.5,6.556a2.209,2.209,0,0,0-2.25-2.167A2.209,2.209,0,0,0,11,2.222a2.3,2.3,0,0,0-1.1.289,2.285,2.285,0,0,0-3.794,0A2.3,2.3,0,0,0,5,2.222,2.209,2.209,0,0,0,2.75,4.389,2.209,2.209,0,0,0,.5,6.556,2.1,2.1,0,0,0,1.08,8l5.152,5.664a2.279,2.279,0,0,0,3.536,0L14.92,8A2.1,2.1,0,0,0,15.5,6.556Z" fill="none" stroke="#61616b" stroke-linecap="round" stroke-linejoin="round"></path> <line x1="6.103" y1="2.511" x2="6.971" y2="8" fill="none" stroke="#61616b" stroke-linecap="round" stroke-linejoin="round"></line> <line x1="2.75" y1="4.389" x2="5.144" y2="9" fill="none" stroke="#61616b" stroke-linecap="round" stroke-linejoin="round"></line> <line x1="9.897" y1="2.511" x2="9.029" y2="8" fill="none" stroke="#61616b" stroke-linecap="round" stroke-linejoin="round"></line> <line x1="13.25" y1="4.389" x2="10.856" y2="9" fill="none" stroke="#61616b" stroke-linecap="round" stroke-linejoin="round"></line></g></svg>