<svg xmlns="http://www.w3.org/2000/svg" height="32" width="32" viewBox="0 0 32 32"><title>shrimp 4</title><g stroke-linecap="round" fill="#61616b" stroke-linejoin="round" class="nc-icon-wrapper"><line data-cap="butt" fill="none" stroke="#61616b" stroke-width="2" x1="17" y1="6" x2="17" y2="16"></line> <line data-cap="butt" fill="none" stroke="#61616b" stroke-width="2" x1="12.2" y1="17.6" x2="4.4" y2="9.9"></line> <line data-cap="butt" fill="none" stroke="#61616b" stroke-width="2" x1="10" y1="23" x2="1.8" y2="23"></line> <path data-cap="butt" fill="none" stroke="#61616b" stroke-width="2" d="M13,1h13.9C29.2,1,31,2.8,31,5.1V6"></path> <path fill="none" stroke="#61616b" stroke-width="2" d="M13,6 C6.3,6,1.1,11.8,1,18.5C0.9,25.4,6.8,31,13.7,31l4.3,0c-3-1-8-3.7-8-8c0-5.6,3.9-7,8-7h3c5.5,0,10-4.5,10-10v0C31,6,15,6,13,6z"></path> <polygon fill="none" stroke="#61616b" stroke-width="2" points="18,31 28,31 28,24 "></polygon> <circle data-color="color-2" data-stroke="none" fill="#61616b" cx="22.5" cy="10.5" r="1.5" stroke="none"></circle></g></svg>