<svg xmlns="http://www.w3.org/2000/svg" height="64" width="64" viewBox="0 0 64 64"><title>shrimp 2</title><g stroke-linecap="round" fill="#61616b" stroke-linejoin="round" class="nc-icon-wrapper"><line data-cap="butt" data-color="color-2" fill="none" stroke="#61616b" stroke-width="2" x1="33" y1="14" x2="33" y2="34"></line> <line data-cap="butt" data-color="color-2" fill="none" stroke="#61616b" stroke-width="2" x1="24.647" y1="38.503" x2="8.348" y2="22.255"></line> <line data-cap="butt" data-color="color-2" fill="none" stroke="#61616b" stroke-width="2" x1="23.834" y1="48" x2="5.797" y2="48"></line> <circle data-color="color-2" fill="none" stroke="#61616b" stroke-width="2" cx="42.5" cy="22.5" r="2.5"></circle> <path data-cap="butt" fill="none" stroke="#61616b" stroke-width="2" d="M25,4h27.818 C57.337,4,61,7.663,61,12.182V14"></path> <polygon fill="none" stroke="#61616b" stroke-width="2" points="35,60 55,60 55,46 "></polygon> <path data-cap="butt" fill="none" stroke="#61616b" stroke-width="2" d="M33,54c-5.523,0-10-4.477-10-10 s4.477-10,10-10h8c11.046,0,20-8.954,20-20v0H26C13.297,14,3,24.297,3,37s10.297,23,23,23h11"></path></g></svg>