<svg xmlns="http://www.w3.org/2000/svg" height="48" width="48" viewBox="0 0 48 48"><title>shrimp 3</title><g stroke-linecap="round" fill="#61616b" stroke-linejoin="round" class="nc-icon-wrapper"><line data-cap="butt" data-color="color-2" fill="none" stroke="#61616b" stroke-width="2" x1="16.914" y1="27.914" x2="6.146" y2="17.146"></line> <line data-cap="butt" data-color="color-2" fill="none" stroke="#61616b" stroke-width="2" x1="16.429" y1="34" x2="4.504" y2="34"></line> <line data-cap="butt" data-color="color-2" fill="none" stroke="#61616b" stroke-width="2" x1="22" y1="10" x2="22" y2="24.15"></line> <path data-cap="butt" fill="none" stroke="#61616b" stroke-width="2" d="M16,2h22c3.866,0,7,3.134,7,7v1"></path> <path fill="none" stroke="#61616b" stroke-width="2" d="M3,27L3,27 c0,9.389,7.611,17,17,17h6v-5h-2.5c-4.142,0-7.5-3.358-7.5-7.5v0c0-4.142,3.358-7.5,7.5-7.5H31c3.875,0,14-2.75,14-14H20 C10.611,10,3,17.611,3,27z"></path> <polygon fill="none" stroke="#61616b" stroke-width="2" points="26,44 42,44 42,34 26,39 "></polygon> <circle data-color="color-2" data-stroke="none" fill="#61616b" cx="30.5" cy="15.5" r="1.5" stroke="none"></circle></g></svg>