<svg xmlns="http://www.w3.org/2000/svg" height="24" width="24" viewBox="0 0 24 24"><title>shrimp</title><g stroke-linecap="round" fill="#61616b" stroke-linejoin="round" class="nc-icon-wrapper"><line data-cap="butt" data-color="color-2" fill="none" stroke="#61616b" stroke-width="2" x1="13" y1="5" x2="13" y2="12.2"></line> <line data-cap="butt" data-color="color-2" fill="none" stroke="#61616b" stroke-width="2" x1="10.2" y1="14.1" x2="3.6" y2="7.6"></line> <line data-cap="butt" data-color="color-2" fill="none" stroke="#61616b" stroke-width="2" x1="9" y1="17" x2="1.5" y2="17"></line> <line data-color="color-2" fill="none" stroke="#61616b" stroke-width="2" x1="16" y1="8" x2="17" y2="8"></line> <path data-cap="butt" fill="none" stroke="#61616b" stroke-width="2" d="M9,1h11c1.7,0,3,1.3,3,3v1"></path> <path fill="none" stroke="#61616b" stroke-width="2" d="M10,5c-5,0-9,4-9,9 c0,5,4,9,9,9c1,0,1.8,0,3,0c-2.2-0.7-4-3-4-5.5c0-3,2.5-5.5,5.5-5.5c0.6,0,1.5,0,1.5,0c1.9,0,7-1.4,7-7C20.2,5,11.4,5,10,5z"></path> <polygon fill="none" stroke="#61616b" stroke-width="2" points="13,23 21,23 21,18 "></polygon></g></svg>