<svg xmlns="http://www.w3.org/2000/svg" height="32" width="32" viewBox="0 0 32 32"><title>sloth 4</title><g stroke-linecap="round" fill="#61616b" stroke-linejoin="round" class="nc-icon-wrapper"><path data-color="color-2" d="M10,24a3,3,0,0,0,6,0,3,3,0,0,0,6,0" fill="none" stroke="#61616b" stroke-width="2"></path> <circle data-color="color-2" cx="16" cy="19" r="2" fill="none" stroke="#61616b" stroke-width="2"></circle> <line data-cap="butt" data-color="color-2" x1="16" y1="24.141" x2="16" y2="21" fill="none" stroke="#61616b" stroke-width="2"></line> <path data-color="color-2" d="M8,13.5a2.5,2.5,0,0,1,5,0" fill="none" stroke="#61616b" stroke-width="2"></path> <path data-color="color-2" d="M24,13.5a2.5,2.5,0,0,0-5,0" fill="none" stroke="#61616b" stroke-width="2"></path> <path d="M16,1h0A13,13,0,0,1,29,14V31a0,0,0,0,1,0,0H3a0,0,0,0,1,0,0V14A13,13,0,0,1,16,1Z" fill="none" stroke="#61616b" stroke-width="2"></path></g></svg>