<svg xmlns="http://www.w3.org/2000/svg" height="64" width="64" viewBox="0 0 64 64"><title>sloth 2</title><g stroke-linecap="round" fill="#61616b" stroke-linejoin="round" class="nc-icon-wrapper"><path data-color="color-2" d="M20,46a6,6,0,0,0,12,0,6,6,0,0,0,12,0" fill="none" stroke="#61616b" stroke-width="2"></path> <circle data-color="color-2" cx="32" cy="38" r="4" fill="none" stroke="#61616b" stroke-width="2"></circle> <line data-cap="butt" data-color="color-2" x1="32" y1="46.281" x2="32" y2="42" fill="none" stroke="#61616b" stroke-width="2"></line> <path data-color="color-2" d="M26,28a4,4,0,0,0-8,0" fill="none" stroke="#61616b" stroke-width="2"></path> <path data-color="color-2" d="M46,28a4,4,0,0,0-8,0" fill="none" stroke="#61616b" stroke-width="2"></path> <path d="M32,2h0A24,24,0,0,1,56,26V62a0,0,0,0,1,0,0H8a0,0,0,0,1,0,0V26A24,24,0,0,1,32,2Z" fill="none" stroke="#61616b" stroke-width="2"></path></g></svg>