<svg xmlns="http://www.w3.org/2000/svg" height="64" width="64" viewBox="0 0 64 64"><title>spider 3</title><g stroke-linecap="round" fill="#61616b" stroke-linejoin="round" class="nc-icon-wrapper"><line data-color="color-2" fill="none" stroke="#61616b" stroke-width="2" x1="32" y1="4" x2="32" y2="28"></line> <path data-cap="butt" fill="none" stroke="#61616b" stroke-width="2" d="M26.8840351,50.8636322 C22.8287964,48.9380913,20,44.7877274,20,40c0-6.6274185,5.3725834-12,12-12s12,5.3725815,12,12 c0,4.8022881-2.8088188,8.9457169-6.8840141,10.8636322"></path> <circle fill="none" stroke="#61616b" stroke-width="2" cx="32" cy="54" r="6"></circle> <path data-cap="butt" fill="none" stroke="#61616b" stroke-width="2" d="M9.9997435,26.8321991 C11.2247362,26.296936,12.5776911,26,14,26c4.0696411,0,7.5682793,2.4292297,9.1293716,5.9183044"></path> <path data-cap="butt" fill="none" stroke="#61616b" stroke-width="2" d="M5.605134,42.0004349 C7.6799283,38.4133873,11.5581255,36,16,36c1.557188,0,3.0543842,0.2994232,4.4196072,0.8392143"></path> <path data-cap="butt" fill="none" stroke="#61616b" stroke-width="2" d="M14,56 c0-4.7493019,3.3145981-8.7402191,7.7541122-9.7608376"></path> <path data-cap="butt" fill="none" stroke="#61616b" stroke-width="2" d="M54.0002556,26.8321991 C52.7752647,26.296936,51.4223099,26,50,26c-4.0696411,0-7.5682793,2.4292297-9.1293716,5.9183044"></path> <path data-cap="butt" fill="none" stroke="#61616b" stroke-width="2" d="M58.3948669,42.0004349 C56.3200722,38.4133873,52.4418755,36,48,36c-1.5571861,0-3.0543861,0.2994232-4.4196091,0.8392143"></path> <path data-cap="butt" fill="none" stroke="#61616b" stroke-width="2" d="M50,56 c0-4.7493019-3.3145981-8.7402191-7.7541122-9.7608376"></path></g></svg>