<svg xmlns="http://www.w3.org/2000/svg" height="48" width="48" viewBox="0 0 48 48"><title>spider 4</title><g stroke-linecap="round" fill="#61616b" stroke-linejoin="round" class="nc-icon-wrapper"><line data-color="color-2" fill="none" stroke="#61616b" stroke-width="2" x1="24" y1="6" x2="24" y2="24"></line> <line data-color="color-2" fill="none" stroke="#61616b" stroke-width="2" x1="20" y1="30" x2="21" y2="30"></line> <line data-color="color-2" fill="none" stroke="#61616b" stroke-width="2" x1="27" y1="30" x2="28" y2="30"></line> <path data-cap="butt" fill="none" stroke="#61616b" stroke-width="2" d="M8,20 c4.0754404,0,7.6723738,2.0390835,9.8412647,5.1448078"></path> <path data-cap="butt" fill="none" stroke="#61616b" stroke-width="2" d="M1.99986,29.3595638 C3.8184063,28.4956417,5.8527503,28.0122356,8,28.0122356c1.733963,0,3.4053736,0.3178444,4.9379034,0.8941212"></path> <path data-cap="butt" fill="none" stroke="#61616b" stroke-width="2" d="M6,44.0122337 c0-4.3459435,2.760457-8.0501823,6.6330881-9.429081"></path> <path data-cap="butt" fill="none" stroke="#61616b" stroke-width="2" d="M40,20 c-4.0754395,0-7.6723747,2.0390835-9.8412647,5.1448078"></path> <path data-cap="butt" fill="none" stroke="#61616b" stroke-width="2" d="M46.0001411,29.3595638 C44.1815948,28.4956417,42.1472511,28.0122356,40,28.0122356c-1.733963,0-3.4053726,0.3178444-4.9379044,0.8941212"></path> <path data-cap="butt" fill="none" stroke="#61616b" stroke-width="2" d="M42,44.0122337 c0-4.3459435-2.7604561-8.0501823-6.6330872-9.429081"></path> <ellipse fill="none" stroke="#61616b" stroke-width="2" cx="24" cy="32.0122337" rx="12" ry="8"></ellipse></g></svg>