<svg xmlns="http://www.w3.org/2000/svg" height="16" width="16" viewBox="0 0 16 16"><title>spider 2</title><g fill="#61616b" class="nc-icon-wrapper"><path d="M3.409,6.183A3.994,3.994,0,0,1,6.6,7.9" fill="none" stroke="#61616b" stroke-linecap="round" stroke-linejoin="round"></path> <path d="M1.5,9.161a4.437,4.437,0,0,1,1.909-.429A4.512,4.512,0,0,1,5.2,9.161" fill="none" stroke="#61616b" stroke-linecap="round" stroke-linejoin="round"></path> <path d="M2.773,13.823a3.184,3.184,0,0,1,2.385-3.078" fill="none" stroke="#61616b" stroke-linecap="round" stroke-linejoin="round"></path> <path d="M13.579,6.183A4,4,0,0,0,10.39,7.9" fill="none" stroke="#61616b" stroke-linecap="round" stroke-linejoin="round"></path> <path d="M15.488,9.161a4.434,4.434,0,0,0-1.909-.429,4.512,4.512,0,0,0-1.793.429" fill="none" stroke="#61616b" stroke-linecap="round" stroke-linejoin="round"></path> <path d="M14.215,13.823a3.184,3.184,0,0,0-2.385-3.078" fill="none" stroke="#61616b" stroke-linecap="round" stroke-linejoin="round"></path> <ellipse cx="8.5" cy="10" rx="3.5" ry="2.5" fill="none" stroke="#61616b" stroke-linecap="round" stroke-linejoin="round"></ellipse> <line x1="8.5" y1="0.5" x2="8.5" y2="5.5" fill="none" stroke="#61616b" stroke-linecap="round" stroke-linejoin="round" data-color="color-2"></line></g></svg>