<svg xmlns="http://www.w3.org/2000/svg" height="32" width="32" viewBox="0 0 32 32"><title>spider 5</title><g stroke-linecap="round" fill="#61616b" stroke-linejoin="round" class="nc-icon-wrapper"><line data-color="color-2" fill="none" stroke="#61616b" stroke-width="2" x1="16" y1="2" x2="16" y2="14"></line> <path data-cap="butt" fill="none" stroke="#61616b" stroke-width="2" d="M13.4420176,25.4318161 C11.4143982,24.4690456,10,22.3938637,10,20c0-3.3137093,2.6862917-6,6-6s6,2.6862907,6,6 c0,2.401144-1.4044094,4.4728584-3.4420071,5.4318161"></path> <circle fill="none" stroke="#61616b" stroke-width="2" cx="16" cy="27" r="3"></circle> <path data-cap="butt" fill="none" stroke="#61616b" stroke-width="2" d="M4.9998717,13.4160995 C5.6123681,13.148468,6.2888455,13,7,13c2.0348206,0,3.7841396,1.2146149,4.5646858,2.9591522"></path> <path data-cap="butt" fill="none" stroke="#61616b" stroke-width="2" d="M2.802567,21.0002174 C3.8399642,19.2066936,5.7790627,18,8,18c0.778594,0,1.5271921,0.1497116,2.2098036,0.4196072"></path> <path data-cap="butt" fill="none" stroke="#61616b" stroke-width="2" d="M7,28 c0-2.374651,1.657299-4.3701096,3.8770561-4.8804188"></path> <path data-cap="butt" fill="none" stroke="#61616b" stroke-width="2" d="M27.0001278,13.4160995 C26.3876324,13.148468,25.7111549,13,25,13c-2.0348206,0-3.7841396,1.2146149-4.5646858,2.9591522"></path> <path data-cap="butt" fill="none" stroke="#61616b" stroke-width="2" d="M29.1974335,21.0002174 C28.1600361,19.2066936,26.2209377,18,24,18c-0.7785931,0-1.5271931,0.1497116-2.2098045,0.4196072"></path> <path data-cap="butt" fill="none" stroke="#61616b" stroke-width="2" d="M25,28 c0-2.374651-1.657299-4.3701096-3.8770561-4.8804188"></path></g></svg>