<svg xmlns="http://www.w3.org/2000/svg" height="24" width="24" viewBox="0 0 24 24"><title>spider</title><g stroke-linecap="round" fill="#61616b" stroke-linejoin="round" class="nc-icon-wrapper"><line data-color="color-2" fill="none" stroke="#61616b" stroke-width="2" x1="12" y1="3" x2="12" y2="12"></line> <path data-cap="butt" fill="none" stroke="#61616b" stroke-width="2" d="M4,10 c2.0377202,0,3.8361869,1.0195417,4.9206324,2.5724039"></path> <path data-cap="butt" fill="none" stroke="#61616b" stroke-width="2" d="M0.99993,14.6797819 C1.9092032,14.2478209,2.9263752,14.0061178,4,14.0061178c0.8669815,0,1.7026868,0.1589222,2.4689517,0.4470606"></path> <path data-cap="butt" fill="none" stroke="#61616b" stroke-width="2" d="M3,22.0061169 c0-2.1729717,1.3802285-4.0250912,3.3165441-4.7145405"></path> <path data-cap="butt" fill="none" stroke="#61616b" stroke-width="2" d="M20,10 c-2.0377197,0-3.8361874,1.0195417-4.9206324,2.5724039"></path> <path data-cap="butt" fill="none" stroke="#61616b" stroke-width="2" d="M23.0000706,14.6797819 C22.0907974,14.2478209,21.0736256,14.0061178,20,14.0061178c-0.8669815,0-1.7026863,0.1589222-2.4689522,0.4470606"></path> <path data-cap="butt" fill="none" stroke="#61616b" stroke-width="2" d="M21,22.0061169 c0-2.1729717-1.380228-4.0250912-3.3165436-4.7145405"></path> <ellipse fill="none" stroke="#61616b" stroke-width="2" cx="12" cy="16.0061169" rx="6" ry="4"></ellipse></g></svg>