<svg xmlns="http://www.w3.org/2000/svg" height="48" width="48" viewBox="0 0 48 48"><title>teddy bear 3</title><g stroke-linecap="round" fill="#61616b" stroke-linejoin="round" class="nc-icon-wrapper"><circle cx="20" cy="14" r="1" fill="none" stroke="#61616b" stroke-width="2" data-color="color-2"></circle><circle cx="28" cy="14" r="1" fill="none" stroke="#61616b" stroke-width="2" data-color="color-2"></circle><path d="M14.98,24.1A9.965,9.965,0,0,0,6,34a4,4,0,0,0,4,4h1" fill="none" stroke="#61616b" stroke-width="2" data-cap="butt"></path><path d="M34.373,9.963a3.99,3.99,0,1,0-4.337-4.322" fill="none" stroke="#61616b" stroke-width="2" data-cap="butt"></path><path d="M17.964,5.641a3.99,3.99,0,1,0-4.337,4.322" fill="none" stroke="#61616b" stroke-width="2" data-cap="butt"></path><path d="M35.129,36.475A11.944,11.944,0,0,0,32.936,24.01" fill="none" stroke="#61616b" stroke-width="2" data-cap="butt"></path><path d="M15.064,24.009a11.945,11.945,0,0,0-2.193,12.466" fill="none" stroke="#61616b" stroke-width="2" data-cap="butt"></path><circle cx="24" cy="16" r="12" fill="none" stroke="#61616b" stroke-width="2"></circle><path d="M24,20a2,2,0,0,0,2,2" fill="none" stroke="#61616b" stroke-width="2" data-color="color-2"></path><path d="M22,22a2,2,0,0,0,2-2" fill="none" stroke="#61616b" stroke-width="2" data-color="color-2"></path><circle cx="33" cy="41" r="5" fill="none" stroke="#61616b" stroke-width="2"></circle><circle cx="15" cy="41" r="5" fill="none" stroke="#61616b" stroke-width="2"></circle><path d="M19.525,43.129a11.931,11.931,0,0,0,8.95,0" fill="none" stroke="#61616b" stroke-width="2" data-cap="butt"></path><path d="M33.02,24.1A9.965,9.965,0,0,1,42,34a4,4,0,0,1-4,4H37" fill="none" stroke="#61616b" stroke-width="2" data-cap="butt"></path><polyline points="24 20 23 18 25 18 24 20" fill="none" stroke="#61616b" stroke-width="2" data-cap="butt" data-color="color-2"></polyline></g></svg>