<svg xmlns="http://www.w3.org/2000/svg" height="24" width="24" viewBox="0 0 24 24"><title>teddy bear</title><g stroke-linecap="round" fill="#61616b" stroke-linejoin="round" class="nc-icon-wrapper"><path d="M7.49,12.051A4.983,4.983,0,0,0,3,17a2,2,0,0,0,2,2h.5" fill="none" stroke="#61616b" stroke-width="2" data-cap="butt"></path><path d="M17.18,4.982A1.995,1.995,0,1,0,15.018,2.82" fill="none" stroke="#61616b" stroke-width="2" data-cap="butt"></path><path d="M8.982,2.82A1.995,1.995,0,1,0,6.82,4.982" fill="none" stroke="#61616b" stroke-width="2" data-cap="butt"></path><path d="M17.562,18.245A5.973,5.973,0,0,0,16.463,12" fill="none" stroke="#61616b" stroke-width="2" data-cap="butt"></path><path d="M7.537,12a5.973,5.973,0,0,0-1.1,6.245" fill="none" stroke="#61616b" stroke-width="2" data-cap="butt"></path><circle cx="12" cy="8" r="6" fill="none" stroke="#61616b" stroke-width="2"></circle><circle cx="10" cy="7" r="1" fill="#61616b" data-color="color-2" data-stroke="none" stroke="none"></circle><circle cx="14" cy="7" r="1" fill="#61616b" data-color="color-2" data-stroke="none" stroke="none"></circle><circle cx="16.5" cy="20.5" r="2.5" fill="none" stroke="#61616b" stroke-width="2"></circle><circle cx="7.5" cy="20.5" r="2.5" fill="none" stroke="#61616b" stroke-width="2"></circle><path d="M9.755,21.562a5.972,5.972,0,0,0,4.49,0" fill="none" stroke="#61616b" stroke-width="2" data-cap="butt"></path><path d="M16.51,12.051A4.983,4.983,0,0,1,21,17a2,2,0,0,1-2,2h-.5" fill="none" stroke="#61616b" stroke-width="2" data-cap="butt"></path><path d="M13.462,9.309A.5.5,0,0,0,13,9H11a.5.5,0,0,0-.354.854l1,1a.5.5,0,0,0,.708,0l1-1A.5.5,0,0,0,13.462,9.309Z" fill="#61616b" data-color="color-2" data-stroke="none" stroke="none"></path></g></svg>