<svg xmlns="http://www.w3.org/2000/svg" height="32" width="32" viewBox="0 0 32 32"><title>teddy bear 4</title><g stroke-linecap="round" fill="#61616b" stroke-linejoin="round" class="nc-icon-wrapper"><circle cx="16" cy="11" r="8" fill="none" stroke="#61616b" stroke-width="2"></circle><path d="M12.482,3.823A2.993,2.993,0,1,0,9.1,6.96" fill="none" stroke="#61616b" stroke-width="2" data-cap="butt"></path><circle cx="13" cy="9" r="1.25" fill="#61616b" data-color="color-2" data-stroke="none" stroke="none"></circle><circle cx="19" cy="9" r="1.25" fill="#61616b" data-color="color-2" data-stroke="none" stroke="none"></circle><path d="M22.9,6.96a2.993,2.993,0,1,0-3.379-3.137" fill="none" stroke="#61616b" stroke-width="2" data-cap="butt"></path><circle cx="9.5" cy="27.5" r="3.5" fill="none" stroke="#61616b" stroke-width="2"></circle><circle cx="22.5" cy="27.5" r="3.5" fill="none" stroke="#61616b" stroke-width="2"></circle><path d="M10.191,16.5a7.968,7.968,0,0,0-1.876,7.706" fill="none" stroke="#61616b" stroke-width="2" data-cap="butt"></path><path d="M12.554,29.211a7.92,7.92,0,0,0,6.892,0" fill="none" stroke="#61616b" stroke-width="2" data-cap="butt"></path><path d="M7.158,24.9A2.381,2.381,0,0,1,6.5,25,2.5,2.5,0,0,1,4,22.5a6,6,0,0,1,6-6h.191" fill="none" stroke="#61616b" stroke-width="2" data-cap="butt"></path><path d="M21.809,16.5a7.968,7.968,0,0,1,1.876,7.706" fill="none" stroke="#61616b" stroke-width="2" data-cap="butt"></path><path d="M24.842,24.9a2.381,2.381,0,0,0,.658.1A2.5,2.5,0,0,0,28,22.5a6,6,0,0,0-6-6h-.191" fill="none" stroke="#61616b" stroke-width="2" data-cap="butt"></path><path d="M16,14a1,1,0,0,1-.707-.293l-1-1A1,1,0,0,1,15,11h2a1,1,0,0,1,.707,1.707l-1,1A1,1,0,0,1,16,14Z" fill="#61616b" data-color="color-2" data-stroke="none" stroke="none"></path></g></svg>