<svg xmlns="http://www.w3.org/2000/svg" height="64" width="64" viewBox="0 0 64 64"><title>teddy bear 2</title><g stroke-linecap="round" fill="#61616b" stroke-linejoin="round" class="nc-icon-wrapper"><path d="M32,27l-2.078-2.078a1,1,0,0,1,.354-1.644,5.466,5.466,0,0,1,3.448,0,1,1,0,0,1,.354,1.645Z" fill="#61616b" data-color="color-2" data-stroke="none" stroke="none"></path><circle cx="32" cy="22" r="16" fill="none" stroke="#61616b" stroke-width="2"></circle><path d="M24.963,7.626a5.987,5.987,0,1,0-6.774,6.292" fill="none" stroke="#61616b" stroke-width="2" data-cap="butt"></path><circle cx="26" cy="18" r="1" fill="none" stroke="#61616b" stroke-width="2" data-cap="butt" data-color="color-2"></circle><circle cx="38" cy="18" r="1" fill="none" stroke="#61616b" stroke-width="2" data-cap="butt" data-color="color-2"></circle><path d="M32,27a3,3,0,0,0,3,3" fill="none" stroke="#61616b" stroke-width="2" data-color="color-2"></path><path d="M29,30a3,3,0,0,0,3-3" fill="none" stroke="#61616b" stroke-width="2" data-color="color-2"></path><circle cx="19" cy="55" r="7" fill="none" stroke="#61616b" stroke-width="2"></circle><circle cx="45" cy="55" r="7" fill="none" stroke="#61616b" stroke-width="2"></circle><path d="M20.39,33.01a15.9,15.9,0,0,0-3.76,15.4" fill="none" stroke="#61616b" stroke-width="2" data-cap="butt"></path><path d="M25.108,58.423a15.849,15.849,0,0,0,13.784,0" fill="none" stroke="#61616b" stroke-width="2" data-cap="butt"></path><path d="M14.316,49.8A4.806,4.806,0,0,1,13,50a5,5,0,0,1-5-5A12,12,0,0,1,20,33h.373" fill="none" stroke="#61616b" stroke-width="2" data-cap="butt"></path><path d="M39.037,7.626a5.987,5.987,0,1,1,6.774,6.292" fill="none" stroke="#61616b" stroke-width="2" data-cap="butt"></path><path d="M43.61,33.01a15.9,15.9,0,0,1,3.76,15.4" fill="none" stroke="#61616b" stroke-width="2" data-cap="butt"></path><path d="M49.684,49.8A4.806,4.806,0,0,0,51,50a5,5,0,0,0,5-5A12,12,0,0,0,44,33h-.373" fill="none" stroke="#61616b" stroke-width="2" data-cap="butt"></path><path d="M32,27l-2.078-2.078a1,1,0,0,1,.354-1.644,5.466,5.466,0,0,1,3.448,0,1,1,0,0,1,.354,1.645L32,27" fill="none" stroke="#61616b" stroke-width="2" data-cap="butt" data-color="color-2"></path></g></svg>