<svg xmlns="http://www.w3.org/2000/svg" height="48" width="48" viewBox="0 0 48 48"><title>tree 2 4</title><g stroke-linecap="round" fill="#61616b" stroke-linejoin="round" class="nc-icon-wrapper"><path fill="none" stroke="#61616b" stroke-width="2" d="M36,20h-1.10962 C35.57764,18.81921,36,17.4646,36,16c0-4.41833-3.58167-8-8-8c-0.03418,0-0.06567,0.00964-0.09973,0.01001 C27.41565,4.61719,24.52686,2,21,2c-3.86597,0-7,3.13403-7,7c0,0.67883,0.12708,1.32202,0.30737,1.94275 C11.75818,12.28027,10,14.92139,10,18c0,0.76025,0.13989,1.48108,0.33801,2.17786C6.71826,20.9436,4,24.15222,4,28 c0,4.41821,3.58167,8,8,8h24c4.41833,0,8-3.58179,8-8C44,23.58167,40.41833,20,36,20z"></path> <line data-cap="butt" data-color="color-2" fill="none" stroke="#61616b" stroke-width="2" x1="14" y1="46" x2="34" y2="46"></line> <line data-cap="butt" data-color="color-2" fill="none" stroke="#61616b" stroke-width="2" x1="24" y1="17" x2="24" y2="46"></line> <line data-cap="butt" data-color="color-2" fill="none" stroke="#61616b" stroke-width="2" x1="24" y1="31" x2="29" y2="26"></line> <line data-cap="butt" data-color="color-2" fill="none" stroke="#61616b" stroke-width="2" x1="19" y1="21" x2="24" y2="26"></line></g></svg>