<svg xmlns="http://www.w3.org/2000/svg" height="32" width="32" viewBox="0 0 32 32"><title>tree 2 5</title><g stroke-linecap="round" fill="#61616b" stroke-linejoin="round" class="nc-icon-wrapper"><path fill="none" stroke="#61616b" stroke-width="2" d="M25.35828,13.16022 C25.76044,12.53632,26,11.79742,26,11c0-2.20917-1.79083-4-4-4h-1.10077C20.96484,6.67682,21,6.34253,21,6c0-2.76141-2.23859-5-5-5 s-5,2.23859-5,5c0,0.34253,0.03516,0.67682,0.10077,1H10c-2.20917,0-4,1.79083-4,4c0,0.79742,0.23956,1.53632,0.64172,2.16022 C3.98334,13.77643,2,16.15417,2,19c0,3.31372,2.68628,6,6,6h16c3.31372,0,6-2.68628,6-6 C30,16.15417,28.01666,13.77643,25.35828,13.16022z"></path> <line data-cap="butt" data-color="color-2" fill="none" stroke="#61616b" stroke-width="2" x1="16" y1="11" x2="16" y2="31"></line> <line data-cap="butt" data-color="color-2" fill="none" stroke="#61616b" stroke-width="2" x1="10" y1="31" x2="22" y2="31"></line> <polyline data-cap="butt" data-color="color-2" fill="none" stroke="#61616b" stroke-width="2" points="11,16 16,21 21,16 "></polyline></g></svg>