<svg xmlns="http://www.w3.org/2000/svg" height="16" width="16" viewBox="0 0 16 16"><title>tree 2 2</title><g fill="#61616b" class="nc-icon-wrapper"><path d="M12.642,7.514c.233-.471,.355-.989,.358-1.514-.003-1.753-1.307-3.231-3.046-3.454-.263-1.355-1.576-2.241-2.931-1.977-1.166,.227-2.012,1.243-2.023,2.431,0,.168,.018,.335,.051,.5h-.051c-1.657,0-3,1.343-3,3,.003,.456,.11,.905,.314,1.312-1.213,.651-1.669,2.161-1.018,3.374,.435,.812,1.283,1.317,2.204,1.314H12.5c1.378,0,2.495-1.116,2.496-2.494,0-1.323-1.033-2.417-2.354-2.492Z" fill="none" stroke="#61616b" stroke-linecap="round" stroke-linejoin="round"></path><line x1="8" y1="8.5" x2="8" y2="15.5" fill="none" stroke="#61616b" stroke-linecap="round" stroke-linejoin="round" data-color="color-2"></line><line x1="5.5" y1="15.5" x2="10.5" y2="15.5" fill="none" stroke="#61616b" stroke-linecap="round" stroke-linejoin="round" data-color="color-2"></line></g></svg>