<svg xmlns="http://www.w3.org/2000/svg" height="64" width="64" viewBox="0 0 64 64"><title>turkey head 2</title><g stroke-linecap="round" fill="#61616b" stroke-linejoin="round" class="nc-icon-wrapper"><circle cx="17.5" cy="19.5" r="1.5" fill="#61616b" stroke="#61616b" stroke-width="2" data-color="color-2"></circle><circle cx="46.5" cy="19.5" r="1.5" fill="#61616b" stroke="#61616b" stroke-width="2" data-color="color-2"></circle><path d="M11.885,8.85c1.608-.543,3.324-.85,5.115-.85,6.892,0,12.748,4.365,15,10.475,2.252-6.11,8.108-10.475,15-10.475,1.791,0,3.507,.307,5.115,.85" fill="none" stroke="#61616b" stroke-width="2" data-cap="butt"></path><path d="M13.359,8.421c1.172-.267,2.388-.421,3.641-.421,6.714,0,12.477,4.048,15,9.833,2.523-5.785,8.286-9.833,15-9.833,1.253,0,2.468,.154,3.641,.421" fill="none" stroke="#61616b" stroke-width="2" data-cap="butt"></path><path d="M37,58l17.289-14.282c3.393-2.803,4.554-7.494,2.862-11.556l-1.228-2.947c-.609-1.462-.923-3.031-.923-4.615v-7.1c0-8.56-6.94-15.5-15.5-15.5-2.722,0-5.277,.706-7.5,1.939-2.223-1.232-4.778-1.939-7.5-1.939-8.56,0-15.5,6.94-15.5,15.5v7.1c0,1.584-.314,3.153-.923,4.615l-1.228,2.947c-1.693,4.062-.531,8.753,2.862,11.556l17.289,14.282" fill="none" stroke="#61616b" stroke-width="2" data-cap="butt"></path><path d="M37,57c0,2.761-2.239,5-5,5s-5-2.239-5-5c0-5,5-14,5-14,0,0,5,9,5,14Z" fill="none" stroke="#61616b" stroke-width="2" data-cap="butt" data-color="color-2"></path><path d="M38.243,35.757c1.125-1.125,2.651-1.757,4.243-1.757h2.556c1.786,0,3.468,.435,4.959,1.191-.406-4.038-3.814-7.191-7.959-7.191h-1.04c-1.888,0-3.666-.889-4.799-2.399l-.599-.798c-.821-1.095-2.129-1.803-3.603-1.803s-2.782,.708-3.603,1.803l-.599,.798c-1.133,1.51-2.911,2.399-4.799,2.399h-1.04c-4.145,0-7.553,3.153-7.959,7.191,1.491-.756,3.173-1.191,4.959-1.191h2.556c1.591,0,3.117,.632,4.243,1.757l6.243,6.243,6.241-6.243Z" fill="none" stroke="#61616b" stroke-width="2" data-cap="butt"></path></g></svg>