<svg xmlns="http://www.w3.org/2000/svg" height="16" width="16" viewBox="0 0 16 16"><title>turkey head</title><g fill="#61616b" class="nc-icon-wrapper"><path d="M9.475,13.819l5.025-2.319V7c0-3.59-2.91-6.5-6.5-6.5S1.5,3.41,1.5,7v4.5l5.025,2.319" fill="none" stroke="#61616b" stroke-linecap="round" stroke-linejoin="round"></path><path d="M2.72,3.219c.648-.451,1.431-.719,2.28-.719,1.202,0,2.267,.541,3,1.38,.733-.839,1.798-1.38,3-1.38,.849,0,1.633,.268,2.28,.719" fill="none" stroke="#61616b" stroke-linecap="round" stroke-linejoin="round"></path><path d="M9.5,14c0,.828-.672,1.5-1.5,1.5s-1.5-.672-1.5-1.5c0-1.125,1.5-3.5,1.5-3.5,0,0,1.5,2.375,1.5,3.5Z" fill="none" stroke="#61616b" stroke-linecap="round" stroke-linejoin="round" data-color="color-2"></path><circle cx="4.5" cy="5.5" r="1" fill="#61616b" data-color="color-2" data-stroke="none" stroke="none"></circle><circle cx="11.5" cy="5.5" r="1" fill="#61616b" data-color="color-2" data-stroke="none" stroke="none"></circle><path d="M8,7l1.634,.817c.416,.208,.492,.77,.146,1.081l-1.78,1.602-1.78-1.602c-.346-.311-.27-.873,.146-1.081l1.634-.817Z" fill="none" stroke="#61616b" stroke-linecap="round" stroke-linejoin="round"></path></g></svg>