<svg xmlns="http://www.w3.org/2000/svg" height="48" width="48" viewBox="0 0 48 48"><title>turkey head 3</title><g stroke-linecap="round" fill="#61616b" stroke-linejoin="round" class="nc-icon-wrapper"><path d="M20.172,43.165l-11.93-9.146c-3.043-2.333-4.003-6.497-2.288-9.927l.201-.403c.555-1.111,.845-2.336,.845-3.578v-7.111c0-6.075,4.925-11,11-11,2.215,0,4.274,.661,6,1.787,1.726-1.127,3.785-1.787,6-1.787,6.075,0,11,4.925,11,11v7.111c0,1.242,.289,2.467,.845,3.578l.201,.402c1.715,3.43,.755,7.595-2.289,9.927l-11.931,9.144" fill="none" stroke="#61616b" stroke-width="2" data-cap="butt"></path><path d="M28,42c0,2.209-1.791,4-4,4s-4-1.791-4-4c0-4,4-9,4-9,0,0,4,5,4,9Z" fill="none" stroke="#61616b" stroke-width="2" data-cap="butt" data-color="color-2"></path><path d="M31,23h-1.195c-1.148,0-2.24-.493-3-1.354l-.525-.596c-.55-.643-1.368-1.051-2.28-1.051s-1.73,.408-2.28,1.051l-.525,.596c-.759,.861-1.852,1.354-3,1.354h-1.195c-2.761,0-5,2.239-5,5v.023c.838-.633,1.869-1.023,3-1.023h2.343c1.061,0,2.078,.421,2.828,1.172l3.828,3.828,3.828-3.828c.75-.75,1.768-1.172,2.828-1.172h2.343c1.131,0,2.162,.39,3,1.023v-.023c0-2.761-2.239-5-5-5h.002Z" fill="none" stroke="#61616b" stroke-width="2" data-cap="butt"></path><path d="M7.665,9.263c1.609-.801,3.416-1.263,5.335-1.263,4.924,0,9.15,2.968,11,7.211,1.85-4.242,6.076-7.211,11-7.211,1.919,0,3.726,.462,5.335,1.263" fill="none" stroke="#61616b" stroke-width="2" data-cap="butt"></path><circle cx="14" cy="16" r="1" fill="#61616b" stroke="#61616b" stroke-width="2" data-color="color-2"></circle><circle cx="34" cy="16" r="1" fill="#61616b" stroke="#61616b" stroke-width="2" data-color="color-2"></circle></g></svg>