<svg xmlns="http://www.w3.org/2000/svg" height="24" width="24" viewBox="0 0 24 24"><title>turkey head 5</title><g stroke-linecap="round" fill="#61616b" stroke-linejoin="round" class="nc-icon-wrapper"><path d="M14.45,19.911l6.55-2.911v-7c0-4.971-4.029-9-9-9S3,5.029,3,10v7l6.55,2.911" fill="none" stroke="#61616b" stroke-width="2" data-cap="butt"></path><circle cx="7.5" cy="8.5" r="1.5" fill="#61616b" data-color="color-2" data-stroke="none" stroke="none"></circle><circle cx="16.5" cy="8.5" r="1.5" fill="#61616b" data-color="color-2" data-stroke="none" stroke="none"></circle><path d="M5.165,4.154c.43-.098,.875-.154,1.335-.154,2.462,0,4.575,1.484,5.5,3.605,.925-2.121,3.038-3.605,5.5-3.605,.459,0,.905,.056,1.335,.154" fill="none" stroke="#61616b" stroke-width="2" data-cap="butt"></path><path d="M14.5,20.5c0,1.381-1.119,2.5-2.5,2.5s-2.5-1.119-2.5-2.5c0-2.5,2.5-4.5,2.5-4.5,0,0,2.5,2,2.5,4.5Z" fill="none" stroke="#61616b" stroke-width="2" data-cap="butt" data-color="color-2"></path><path d="M14.98,12.359c-.043-.147-.152-.267-.294-.324l-2.5-1c-.119-.048-.252-.048-.371,0l-2.5,1c-.143,.057-.251,.176-.294,.324-.043,.147-.016,.306,.073,.431l2.5,3.5c.094,.131,.245,.209,.407,.209s.313-.078,.407-.209l2.5-3.5c.089-.125,.116-.284,.073-.431Z" fill="#61616b" data-stroke="none" stroke="none"></path></g></svg>