<svg xmlns="http://www.w3.org/2000/svg" height="32" width="32" viewBox="0 0 32 32"><title>turkey head 4</title><g stroke-linecap="round" fill="#61616b" stroke-linejoin="round" class="nc-icon-wrapper"><path d="M6.766,5.339c.706-.22,1.456-.339,2.234-.339,3.198,0,5.922,2.006,7,4.825,1.078-2.819,3.802-4.825,7-4.825,.778,0,1.528,.119,2.234,.339" fill="none" stroke="#61616b" stroke-width="2" data-cap="butt"></path><path d="M19.413,26.578l8.587-3.578V13c0-6.627-5.373-12-12-12S4,6.373,4,13v10l8.587,3.578" fill="none" stroke="#61616b" stroke-width="2" data-cap="butt"></path><circle cx="8.5" cy="11.5" r="1.5" fill="#61616b" data-color="color-2" data-stroke="none" stroke="none"></circle><circle cx="23.5" cy="11.5" r="1.5" fill="#61616b" data-color="color-2" data-stroke="none" stroke="none"></circle><path d="M19.5,27.5c0,1.933-1.567,3.5-3.5,3.5s-3.5-1.567-3.5-3.5c0-3.5,3.5-6.5,3.5-6.5,0,0,3.5,3,3.5,6.5Z" fill="none" stroke="#61616b" stroke-width="2" data-cap="butt" data-color="color-2"></path><polygon points="16 14 20 17 16 21 12 17 16 14" fill="none" stroke="#61616b" stroke-width="2" data-cap="butt"></polygon></g></svg>