<svg xmlns="http://www.w3.org/2000/svg" height="48" width="48" viewBox="0 0 48 48"><title>turtle 4</title><g stroke-linecap="round" fill="#61616b" stroke-linejoin="round" class="nc-icon-wrapper"><path data-cap="butt" data-color="color-2" fill="none" stroke="#61616b" stroke-width="2" d="M15.87892,14.78013 C14.68244,14.27403,13.3808,14,12,14C6.47717,14,2,18.47711,2,24c0,1.16479,0.20941,2.27814,0.5755,3.31775 C4.40588,25.2854,7.04956,24,10,24c0.09412,0,0.18604,0.00861,0.27954,0.01117"></path> <path data-cap="butt" data-color="color-2" fill="none" stroke="#61616b" stroke-width="2" d="M32.12108,14.78013 C33.31755,14.27403,34.6192,14,36,14c5.52283,0,10,4.47711,10,10c0,1.16479-0.20941,2.27814-0.5755,3.31775 C43.59412,25.2854,40.95044,24,38,24c-0.09412,0-0.18604,0.00861-0.27954,0.01117"></path> <path data-cap="butt" data-color="color-2" fill="none" stroke="#61616b" stroke-width="2" d="M10.8467,32.63819 C7.98818,33.85828,6,36.69556,6,40c0,0.97925,0.20081,1.90588,0.52283,2.77307c3.00842-2.11682,7.97339-2.63281,7.97339-2.63281"></path> <path data-cap="butt" data-color="color-2" fill="none" stroke="#61616b" stroke-width="2" d="M37.15078,32.64696 C40.0093,33.86705,42,36.69556,42,40c0,0.97925-0.20081,1.90588-0.52283,2.77307c-3.00842-2.11682-7.97339-2.63281-7.97339-2.63281"></path> <path data-cap="butt" data-color="color-2" fill="none" stroke="#61616b" stroke-width="2" d="M18,13.44386V7.99999 C18,4.68629,20.68629,2,23.99999,2h0.00001C27.31371,2,30,4.68629,30,7.99999v5.40479"></path> <path fill="none" stroke="#61616b" stroke-width="2" d="M10,27 c0-8.28427,6.26801-15,14-15s14,6.71573,14,15s-6.26801,19-14,19S10,35.28427,10,27z"></path> <path fill="none" stroke="#61616b" stroke-width="2" d="M18,27 c0-8.28427,2.68629-15,6-15s6,6.71573,6,15s-2.68629,19-6,19S18,35.28427,18,27z"></path></g></svg>