<svg xmlns="http://www.w3.org/2000/svg" height="32" width="32" viewBox="0 0 32 32"><title>turtle 5</title><g stroke-linecap="round" fill="#61616b" stroke-linejoin="round" class="nc-icon-wrapper"><path data-cap="butt" data-color="color-2" fill="none" stroke="#61616b" stroke-width="2" d="M6.63987,22.07504 c-1.73521,0.91277-2.9126,2.73723-2.9126,4.83405c0,0.66767,0.13691,1.29947,0.35647,1.89073 c1.6711-1.17584,4.22482-1.63525,5.1149-1.76217"></path> <path data-cap="butt" data-color="color-2" fill="none" stroke="#61616b" stroke-width="2" d="M6.49618,14.98164 C3.42165,14.72235,1,12.14159,1,9.00001V9h10.66584"></path> <path data-cap="butt" data-color="color-2" fill="none" stroke="#61616b" stroke-width="2" d="M25.36013,22.07504 c1.73521,0.91277,2.9126,2.73723,2.9126,4.83405c0,0.66767-0.13691,1.29947-0.35647,1.89073 c-1.6711-1.17584-4.22482-1.63525-5.1149-1.76217"></path> <path data-cap="butt" data-color="color-2" fill="none" stroke="#61616b" stroke-width="2" d="M25.50382,14.98164 C28.57835,14.72235,31,12.14159,31,9.00001V9H20.33416"></path> <path data-cap="butt" data-color="color-2" fill="none" stroke="#61616b" stroke-width="2" d="M12,8.84469V5 c0-2.20914,1.79086-4,4-4H16c2.20914,0,4,1.79086,4,4v3.84469"></path> <path fill="none" stroke="#61616b" stroke-width="2" d="M6,18.14706 C6,12.54299,10.47715,8,16,8s10,4.54299,10,10.14706S21.52285,31,16,31S6,23.75113,6,18.14706z"></path></g></svg>