<svg xmlns="http://www.w3.org/2000/svg" height="48" width="48" viewBox="0 0 48 48"><title>water surface 4</title><g stroke-linecap="round" fill="#61616b" stroke-linejoin="round" class="nc-icon-wrapper"><path d="M2,37a10.127,10.127,0,0,0,7.5-3.4,9.97,9.97,0,0,0,15,0,9.978,9.978,0,0,0,14.5.537A9.962,9.962,0,0,0,46,37" fill="none" stroke="#61616b" stroke-width="2"></path> <path d="M2,25a10.127,10.127,0,0,0,7.5-3.4,9.97,9.97,0,0,0,15,0,9.978,9.978,0,0,0,14.5.537A9.962,9.962,0,0,0,46,25" fill="none" stroke="#61616b" stroke-width="2" data-color="color-2"></path> <path d="M2,13A10.127,10.127,0,0,0,9.5,9.6a9.97,9.97,0,0,0,15,0,9.978,9.978,0,0,0,14.5.537A9.962,9.962,0,0,0,46,13" fill="none" stroke="#61616b" stroke-width="2"></path></g></svg>