<svg xmlns="http://www.w3.org/2000/svg" height="16" width="16" viewBox="0 0 16 16"><title>water surface</title><g fill="#61616b" class="nc-icon-wrapper"><path d="M.5,13.5a4.864,4.864,0,0,0,3.75-1.75,4.893,4.893,0,0,0,7.5,0A4.838,4.838,0,0,0,15.5,13.5" fill="none" stroke="#61616b" stroke-linecap="round" stroke-linejoin="round"></path> <path d="M.5,9A4.864,4.864,0,0,0,4.25,7.25a4.893,4.893,0,0,0,7.5,0A4.838,4.838,0,0,0,15.5,9" fill="none" stroke="#61616b" stroke-linecap="round" stroke-linejoin="round" data-color="color-2"></path> <path d="M.5,4.5A4.864,4.864,0,0,0,4.25,2.75,4.867,4.867,0,0,0,8,4.5a4.838,4.838,0,0,0,3.75-1.75A4.838,4.838,0,0,0,15.5,4.5" fill="none" stroke="#61616b" stroke-linecap="round" stroke-linejoin="round"></path></g></svg>