<svg xmlns="http://www.w3.org/2000/svg" height="64" width="64" viewBox="0 0 64 64"><title>watering plants 2</title><g stroke-linecap="round" fill="#61616b" stroke-linejoin="round" class="nc-icon-wrapper"><path d="M41,42.203c-4.728,1.86-8.621,5.362-11,9.797" fill="none" stroke="#61616b" stroke-width="2" data-cap="butt"></path><path d="M53,16c0,2.761-2.239,5-5,5s-5-2.239-5-5c0-5,5-10,5-10,0,0,5,5,5,10Z" fill="none" stroke="#61616b" stroke-width="2" data-color="color-2"></path><path d="M31,22c1.657,0,3-1.343,3-3,0-2.286-3-5-3-5,0,0-3,2.714-3,5,0,1.657,1.343,3,3,3Z" fill="none" stroke="#61616b" stroke-width="2" data-color="color-2"></path><path d="M16,15.667c2.209,0,4-1.791,4-4,0-3.048-4-6.667-4-6.667,0,0-4,3.619-4,6.667,0,2.209,1.791,4,4,4Z" fill="none" stroke="#61616b" stroke-width="2" data-color="color-2"></path><path d="M30,53v-6c0-8.837,7.163-16,16-16h12c0,12.15-9.85,22-22,22h-1" fill="none" stroke="#61616b" stroke-width="2"></path><path d="M25,41h-1c-8.837,0-16-7.163-16-16h8c7.732,0,14,6.268,14,14v21" fill="none" stroke="#61616b" stroke-width="2"></path></g></svg>