<svg xmlns="http://www.w3.org/2000/svg" height="32" width="32" viewBox="0 0 32 32"><title>water surface 3</title><g stroke-linecap="round" fill="#61616b" stroke-linejoin="round" class="nc-icon-wrapper"><path d="M1,27a9.731,9.731,0,0,0,7.5-3.5,9.786,9.786,0,0,0,15,0A9.676,9.676,0,0,0,31,27" fill="none" stroke="#61616b" stroke-width="2"></path> <path d="M1,18a9.731,9.731,0,0,0,7.5-3.5,9.786,9.786,0,0,0,15,0A9.676,9.676,0,0,0,31,18" fill="none" stroke="#61616b" stroke-width="2" data-color="color-2"></path> <path d="M1,9A9.731,9.731,0,0,0,8.5,5.5,9.737,9.737,0,0,0,16,9a9.676,9.676,0,0,0,7.5-3.5A9.676,9.676,0,0,0,31,9" fill="none" stroke="#61616b" stroke-width="2"></path></g></svg>