<svg xmlns="http://www.w3.org/2000/svg" height="16" width="16" viewBox="0 0 16 16"><title>watering plants</title><g fill="#61616b" class="nc-icon-wrapper"><path d="M9.5,13.41c2.837-.477,5-2.938,5-5.91h-3c-2.209,0-4,1.791-4,4v4" fill="none" stroke="#61616b" stroke-linecap="round" stroke-linejoin="round"></path><path d="M5.5,10.5c-2.209,0-4-1.791-4-4H3.5c2.209,0,4,1.791,4,4v2" fill="none" stroke="#61616b" stroke-linecap="round" stroke-linejoin="round"></path><path d="M6.5,3.5c0,.552-.448,1-1,1s-1-.448-1-1c0-.857,1-2,1-2,0,0,1,1.143,1,2Z" fill="none" stroke="#61616b" stroke-linecap="round" stroke-linejoin="round" data-color="color-2"></path><path d="M11.5,.5s1.5,1.276,1.5,2.5c0,.828-.672,1.5-1.5,1.5s-1.5-.672-1.5-1.5c0-1.224,1.5-2.5,1.5-2.5Z" fill="none" stroke="#61616b" stroke-linecap="round" stroke-linejoin="round" data-color="color-2"></path></g></svg>