<svg xmlns="http://www.w3.org/2000/svg" height="24" width="24" viewBox="0 0 24 24"><title>water surface 5</title><g stroke-linecap="round" fill="#61616b" stroke-linejoin="round" class="nc-icon-wrapper"><path d="M1,20a6.985,6.985,0,0,0,5.5-2.679,6.985,6.985,0,0,0,11,0A6.985,6.985,0,0,0,23,20" fill="none" stroke="#61616b" stroke-width="2"></path> <path d="M1,13a6.985,6.985,0,0,0,5.5-2.679,6.985,6.985,0,0,0,11,0A6.985,6.985,0,0,0,23,13" fill="none" stroke="#61616b" stroke-width="2" data-color="color-2"></path> <path d="M1,6A6.985,6.985,0,0,0,6.5,3.321a6.985,6.985,0,0,0,9.806,1.194A6.954,6.954,0,0,0,17.5,3.321,6.985,6.985,0,0,0,23,6" fill="none" stroke="#61616b" stroke-width="2"></path></g></svg>