<svg xmlns="http://www.w3.org/2000/svg" height="32" width="32" viewBox="0 0 32 32"><title>weed 5</title><g stroke-linecap="round" fill="#61616b" stroke-linejoin="round" class="nc-icon-wrapper"><path fill="none" stroke="#61616b" stroke-width="2" d="M13.2,12.4 C13.2,6.6,16,2,16,2s2.8,4.6,2.8,10.4S16,22.7,16,22.7S13.2,18.1,13.2,12.4z"></path> <path data-color="color-2" fill="none" stroke="#61616b" stroke-width="2" d="M22.3,17.8 c2.7-2.7,6.3-3.3,6.3-3.3s-0.7,3.6-3.3,6.3S19,24.1,19,24.1S19.7,20.5,22.3,17.8z"></path> <path fill="none" stroke="#61616b" stroke-width="2" d="M24.2,26c2.9,0,5.2,2,5.2,2 s-2.3,2-5.2,2S19,28,19,28S21.3,26,24.2,26z"></path> <path data-color="color-2" fill="none" stroke="#61616b" stroke-width="2" d="M9.7,17.7 c-2.7-2.7-6.3-3.3-6.3-3.3s0.7,3.6,3.3,6.3S13,24,13,24S12.3,20.4,9.7,17.7z"></path> <path fill="none" stroke="#61616b" stroke-width="2" d="M7.8,26c-2.9,0-5.2,2-5.2,2 s2.3,2,5.2,2s5.2-2,5.2-2S10.7,26,7.8,26z"></path></g></svg>