<svg xmlns="http://www.w3.org/2000/svg" height="16" width="16" viewBox="0 0 16 16"><title>weed 2</title><g fill="#61616b" class="nc-icon-wrapper"><path d="M6.571,5.857A11.618,11.618,0,0,1,8,.5,11.618,11.618,0,0,1,9.429,5.857,11.618,11.618,0,0,1,8,11.214,11.618,11.618,0,0,1,6.571,5.857Z" fill="none" stroke="#61616b" stroke-linecap="round" stroke-linejoin="round"></path> <path d="M11.869,8.687a6.941,6.941,0,0,1,3.242-1.726A6.947,6.947,0,0,1,13.384,10.2a6.942,6.942,0,0,1-3.241,1.727A6.941,6.941,0,0,1,11.869,8.687Z" fill="none" stroke="#61616b" stroke-linecap="round" stroke-linejoin="round" data-color="color-2"></path> <path d="M12.627,13.357a4.621,4.621,0,0,1,2.713,1.072A4.623,4.623,0,0,1,12.627,15.5a4.627,4.627,0,0,1-2.714-1.071A4.625,4.625,0,0,1,12.627,13.357Z" fill="none" stroke="#61616b" stroke-linecap="round" stroke-linejoin="round"></path> <path d="M4.131,8.687A6.941,6.941,0,0,0,.889,6.961,6.947,6.947,0,0,0,2.616,10.2a6.942,6.942,0,0,0,3.241,1.727A6.941,6.941,0,0,0,4.131,8.687Z" fill="none" stroke="#61616b" stroke-linecap="round" stroke-linejoin="round" data-color="color-2"></path> <path d="M3.373,13.357A4.621,4.621,0,0,0,.66,14.429,4.623,4.623,0,0,0,3.373,15.5a4.627,4.627,0,0,0,2.714-1.071A4.625,4.625,0,0,0,3.373,13.357Z" fill="none" stroke="#61616b" stroke-linecap="round" stroke-linejoin="round"></path></g></svg>