<svg xmlns="http://www.w3.org/2000/svg" height="24" width="24" viewBox="0 0 24 24"><title>weed</title><g stroke-linecap="round" fill="#61616b" stroke-linejoin="round" class="nc-icon-wrapper"><path fill="none" stroke="#61616b" stroke-width="2" d="M10,9.5C10,5.4,12,2,12,2 s2,3.4,2,7.5S12,17,12,17S10,13.6,10,9.5z"></path> <path data-color="color-2" fill="none" stroke="#61616b" stroke-width="2" d="M17.4,13.5 C19.3,11.5,22,11,22,11s-0.5,2.6-2.4,4.5S15,18,15,18S15.5,15.4,17.4,13.5z"></path> <path fill="none" stroke="#61616b" stroke-width="2" d="M18.5,20 c2.1,0,3.8,1.5,3.8,1.5S20.6,23,18.5,23s-3.8-1.5-3.8-1.5S16.4,20,18.5,20z"></path> <path data-color="color-2" fill="none" stroke="#61616b" stroke-width="2" d="M6.6,13.5 C4.7,11.5,2,11,2,11s0.5,2.6,2.4,4.5S9,18,9,18S8.5,15.4,6.6,13.5z"></path> <path fill="none" stroke="#61616b" stroke-width="2" d="M5.5,20 c-2.1,0-3.8,1.5-3.8,1.5S3.4,23,5.5,23s3.8-1.5,3.8-1.5S7.6,20,5.5,20z"></path></g></svg>