<svg xmlns="http://www.w3.org/2000/svg" height="48" width="48" viewBox="0 0 48 48"><title>weed 4</title><g stroke-linecap="round" fill="#61616b" stroke-linejoin="round" class="nc-icon-wrapper"><path fill="none" stroke="#61616b" stroke-width="2" d="M20,19c0-8.3,4-15,4-15 s4,6.7,4,15s-4,15-4,15S20,27.3,20,19z"></path> <path data-color="color-2" fill="none" stroke="#61616b" stroke-width="2" d="M34.8,26.9 c3.8-3.8,9.1-4.8,9.1-4.8s-1,5.2-4.8,9.1S30,36,30,36S31,30.8,34.8,26.9z"></path> <path fill="none" stroke="#61616b" stroke-width="2" d="M37,40c4.2,0,7.6,3,7.6,3 s-3.4,3-7.6,3s-7.6-3-7.6-3S32.8,40,37,40z"></path> <path data-color="color-2" fill="none" stroke="#61616b" stroke-width="2" d="M13.2,26.9 c-3.8-3.8-9.1-4.8-9.1-4.8s1,5.2,4.8,9.1S18,36,18,36S17,30.8,13.2,26.9z"></path> <path fill="none" stroke="#61616b" stroke-width="2" d="M11,40c-4.2,0-7.6,3-7.6,3 s3.4,3,7.6,3s7.6-3,7.6-3S15.2,40,11,40z"></path></g></svg>