<svg xmlns="http://www.w3.org/2000/svg" height="64" width="64" viewBox="0 0 64 64"><title>weed 3</title><g stroke-linecap="round" fill="#61616b" stroke-linejoin="round" class="nc-icon-wrapper"><path fill="none" stroke="#61616b" stroke-width="2" d="M26.5,24.7 C26.5,13.3,32,4,32,4s5.5,9.3,5.5,20.7S32,45.4,32,45.4S26.5,36.2,26.5,24.7z"></path> <path data-color="color-2" fill="none" stroke="#61616b" stroke-width="2" d="M44.7,35.7 C50,30.4,57.2,29,57.2,29s-1.4,7.2-6.7,12.5S38,48.2,38,48.2S39.4,41,44.7,35.7z"></path> <path fill="none" stroke="#61616b" stroke-width="2" d="M48.5,52 c5.8,0,10.5,4,10.5,4s-4.7,4-10.5,4S38,56,38,56S42.7,52,48.5,52z"></path> <path data-color="color-2" fill="none" stroke="#61616b" stroke-width="2" d="M19.3,35.5 C14,30.2,6.8,28.8,6.8,28.8s1.4,7.2,6.7,12.5S26,48,26,48S24.6,40.8,19.3,35.5z"></path> <path fill="none" stroke="#61616b" stroke-width="2" d="M15.5,52C9.7,52,5,56,5,56 s4.7,4,10.5,4S26,56,26,56S21.3,52,15.5,52z"></path></g></svg>