<svg xmlns="http://www.w3.org/2000/svg" height="64" width="64" viewBox="0 0 64 64"><title>windmill 2 2</title><g stroke-linecap="round" fill="#61616b" stroke-linejoin="round" class="nc-icon-wrapper"><line x1="29.892" y1="29.108" x2="27" y2="32" fill="none" stroke="#61616b" stroke-width="2" data-color="color-2"></line><line x1="34.108" y1="29.108" x2="37" y2="32" fill="none" stroke="#61616b" stroke-width="2" data-color="color-2"></line><line x1="34.108" y1="24.892" x2="37" y2="22" fill="none" stroke="#61616b" stroke-width="2" data-color="color-2"></line><line x1="29.892" y1="24.892" x2="27" y2="22" fill="none" stroke="#61616b" stroke-width="2" data-color="color-2"></line><rect x="12.568" y="7.472" width="6.364" height="15.556" transform="translate(-6.17 15.604) rotate(-45)" fill="none" stroke="#61616b" stroke-width="2" data-color="color-2"></rect><rect x="12.472" y="40.068" width="15.556" height="6.364" transform="translate(-24.651 26.987) rotate(-45)" fill="none" stroke="#61616b" stroke-width="2" data-color="color-2"></rect><rect x="45.068" y="30.972" width="6.364" height="15.556" transform="translate(-13.268 45.468) rotate(-45)" fill="none" stroke="#61616b" stroke-width="2" data-color="color-2"></rect><rect x="35.972" y="7.568" width="15.556" height="6.364" transform="translate(5.213 34.085) rotate(-45)" fill="none" stroke="#61616b" stroke-width="2" data-color="color-2"></rect><circle cx="32" cy="27" r="3" fill="none" stroke="#61616b" stroke-width="2" data-color="color-2"></circle><path d="M29,61V55a3,3,0,0,1,6,0v6" fill="none" stroke="#61616b" stroke-width="2"></path><polyline points="22.721 52.35 22 61 42 61 40.461 42.532" fill="none" stroke="#61616b" stroke-width="2"></polyline><line x1="16" y1="11" x2="14" y2="13" fill="none" stroke="#61616b" stroke-width="2" data-color="color-2"></line><line x1="16" y1="43" x2="18" y2="45" fill="none" stroke="#61616b" stroke-width="2" data-color="color-2"></line><line x1="48" y1="43" x2="50" y2="41" fill="none" stroke="#61616b" stroke-width="2" data-color="color-2"></line><line x1="48" y1="11" x2="45.5" y2="8.5" fill="none" stroke="#61616b" stroke-width="2" data-color="color-2"></line></g></svg>