<svg xmlns="http://www.w3.org/2000/svg" height="48" width="48" viewBox="0 0 48 48"><title>windmill 2 3</title><g stroke-linecap="round" fill="#61616b" stroke-linejoin="round" class="nc-icon-wrapper"><circle cx="24" cy="19" r="3" fill="none" stroke="#61616b" stroke-width="2" data-color="color-2"></circle><line x1="21.879" y1="21.121" x2="18" y2="25" fill="none" stroke="#61616b" stroke-width="2" data-cap="butt" data-color="color-2"></line><line x1="30" y1="13" x2="26.121" y2="16.879" fill="none" stroke="#61616b" stroke-width="2" data-cap="butt" data-color="color-2"></line><line x1="18" y1="13" x2="21.879" y2="16.879" fill="none" stroke="#61616b" stroke-width="2" data-cap="butt" data-color="color-2"></line><line x1="26.121" y1="21.121" x2="30" y2="25" fill="none" stroke="#61616b" stroke-width="2" data-cap="butt" data-color="color-2"></line><polyline points="18 35 17 46 31 46 30 35" fill="none" stroke="#61616b" stroke-width="2"></polyline><rect x="8.343" y="26.172" width="11.314" height="5.657" transform="translate(-16.406 18.393) rotate(-45)" fill="none" stroke="#61616b" stroke-width="2" data-color="color-2"></rect><rect x="31.172" y="23.343" width="5.657" height="11.314" transform="translate(-10.548 32.536) rotate(-45)" fill="none" stroke="#61616b" stroke-width="2" data-color="color-2"></rect><rect x="11.172" y="3.343" width="5.657" height="11.314" transform="translate(-2.263 12.536) rotate(-45)" fill="none" stroke="#61616b" stroke-width="2" data-color="color-2"></rect><rect x="28.343" y="6.172" width="11.314" height="5.657" transform="translate(3.594 26.678) rotate(-45)" fill="none" stroke="#61616b" stroke-width="2" data-color="color-2"></rect><line x1="24" y1="41" x2="24" y2="46" fill="none" stroke="#61616b" stroke-width="2"></line></g></svg>