<svg xmlns="http://www.w3.org/2000/svg" height="16" width="16" viewBox="0 0 16 16"><title>wool ball 2</title><g fill="#61616b" class="nc-icon-wrapper"><path fill="none" stroke="#61616b" stroke-linecap="round" stroke-linejoin="round" d="M5.5,15.5h-3 c-1.105,0-2-0.895-2-2v0c0-1.105,0.895-2,2-2" data-color="color-2"></path> <path fill="none" stroke="#61616b" stroke-linecap="round" stroke-linejoin="round" d="M15.223,8.874 c-0.462-0.104-0.94-0.164-1.433-0.164c-2.938,0-5.418,1.95-6.223,4.626"></path> <path fill="none" stroke="#61616b" stroke-linecap="round" stroke-linejoin="round" d="M9.428,0.522 C9.377,0.85,9.342,1.184,9.342,1.526c0,1.875,0.795,3.562,2.065,4.747"></path> <path fill="none" stroke="#61616b" stroke-linecap="round" stroke-linejoin="round" d="M2.518,6.64 c1.818-0.1,3.435-0.945,4.551-2.235"></path> <path fill="none" stroke="#61616b" stroke-linecap="round" stroke-linejoin="round" d="M6.634,0.951 C6.623,1.142,6.605,1.332,6.605,1.526c0,2.258,0.811,4.323,2.157,5.925"></path> <path fill="none" stroke="#61616b" stroke-linecap="round" stroke-linejoin="round" d="M15.435,6.128 c-0.535-0.096-1.083-0.155-1.645-0.155c-4.035,0-7.457,2.592-8.715,6.198"></path> <circle fill="none" stroke="#61616b" stroke-linecap="round" stroke-linejoin="round" cx="9" cy="7" r="6.5"></circle></g></svg>