<svg xmlns="http://www.w3.org/2000/svg" height="24" width="24" viewBox="0 0 24 24"><title>wool ball</title><g stroke-linecap="round" fill="#61616b" stroke-linejoin="round" class="nc-icon-wrapper"><path data-cap="butt" fill="none" stroke="#61616b" stroke-width="2" d="M22.595,13.239 C21.92,13.087,21.221,13,20.5,13c-4.294,0-7.919,2.85-9.095,6.761"></path> <path data-cap="butt" fill="none" stroke="#61616b" stroke-width="2" d="M14.125,1.032 C14.05,1.511,14,1.999,14,2.5c0,2.74,1.161,5.206,3.018,6.937"></path> <path data-cap="butt" fill="none" stroke="#61616b" stroke-width="2" d="M4.027,9.973 c2.657-0.146,5.02-1.381,6.652-3.267"></path> <path data-cap="butt" fill="none" stroke="#61616b" stroke-width="2" d="M10.042,1.659 C10.025,1.938,10,2.216,10,2.5c0,3.3,1.185,6.319,3.152,8.66"></path> <path data-cap="butt" fill="none" stroke="#61616b" stroke-width="2" d="M22.905,9.226 C22.123,9.085,21.322,9,20.5,9c-5.898,0-10.899,3.788-12.737,9.059"></path> <path data-cap="butt" data-color="color-2" fill="none" stroke="#61616b" stroke-width="2" d="M6,23 H3c-1.105,0-2-0.895-2-2v0c0-1.105,0.895-2,2-2h1"></path> <circle fill="none" stroke="#61616b" stroke-width="2" cx="13.5" cy="10.5" r="9.5"></circle></g></svg>