<svg xmlns="http://www.w3.org/2000/svg" height="48" width="48" viewBox="0 0 48 48"><title>wool ball 4</title><g stroke-linecap="round" fill="#61616b" stroke-linejoin="round" class="nc-icon-wrapper"><path data-cap="butt" fill="none" stroke="#61616b" stroke-width="2" d="M45.19,26.479 C43.84,26.175,42.442,26,41,26c-8.588,0-15.837,5.7-18.19,13.521"></path> <path data-cap="butt" fill="none" stroke="#61616b" stroke-width="2" d="M28.25,2.063 C28.101,3.023,28,3.999,28,5c0,5.481,2.322,10.413,6.036,13.875"></path> <path data-cap="butt" fill="none" stroke="#61616b" stroke-width="2" d="M8.053,19.947 c5.313-0.292,10.04-2.762,13.303-6.534"></path> <path data-cap="butt" fill="none" stroke="#61616b" stroke-width="2" d="M20.085,3.317 C20.05,3.877,20,4.432,20,5c0,6.599,2.37,12.637,6.305,17.32"></path> <path data-cap="butt" fill="none" stroke="#61616b" stroke-width="2" d="M45.809,18.452 C44.246,18.171,42.644,18,41,18c-11.796,0-21.798,7.577-25.474,18.119"></path> <path data-color="color-2" fill="none" stroke="#61616b" stroke-width="2" d="M13,46H6 c-2.209,0-4-1.791-4-4v0c0-2.209,1.791-4,4-4h3"></path> <circle fill="none" stroke="#61616b" stroke-width="2" cx="27" cy="21" r="19"></circle></g></svg>