<svg xmlns="http://www.w3.org/2000/svg" height="32" width="32" viewBox="0 0 32 32"><title>wool ball 5</title><g stroke-linecap="round" fill="#61616b" stroke-linejoin="round" class="nc-icon-wrapper"><path data-color="color-2" fill="none" stroke="#61616b" stroke-width="2" d="M9,31H4 c-1.657,0-3-1.343-3-3v0c0-1.657,1.343-3,3-3h1"></path> <path data-cap="butt" fill="none" stroke="#61616b" stroke-width="2" d="M30.446,18.749 c-0.924-0.208-1.88-0.328-2.867-0.328c-5.876,0-10.836,3.9-12.446,9.251"></path> <path data-cap="butt" fill="none" stroke="#61616b" stroke-width="2" d="M18.855,2.043 c-0.102,0.657-0.171,1.324-0.171,2.009c0,3.75,1.589,7.125,4.13,9.493"></path> <path data-cap="butt" fill="none" stroke="#61616b" stroke-width="2" d="M5.036,14.279 c3.636-0.2,6.869-1.89,9.102-4.47"></path> <path data-cap="butt" fill="none" stroke="#61616b" stroke-width="2" d="M13.269,2.901 c-0.024,0.383-0.058,0.763-0.058,1.151c0,4.515,1.622,8.647,4.314,11.85"></path> <path data-cap="butt" fill="none" stroke="#61616b" stroke-width="2" d="M30.87,13.257 c-1.07-0.193-2.166-0.309-3.291-0.309c-8.071,0-14.914,5.184-17.43,12.397"></path> <circle fill="none" stroke="#61616b" stroke-width="2" cx="18" cy="15" r="13"></circle></g></svg>