<svg xmlns="http://www.w3.org/2000/svg" height="64" width="64" viewBox="0 0 64 64"><title>wool ball 3</title><g stroke-linecap="round" fill="#61616b" stroke-linejoin="round" class="nc-icon-wrapper"><path data-color="color-2" fill="none" stroke="#61616b" stroke-width="2" d="M18,61H7 c-2.761,0-5-2.239-5-5v0c0-2.761,2.239-5,5-5h5"></path> <path data-cap="butt" fill="none" stroke="#61616b" stroke-width="2" d="M60.891,37.497 c-1.847-0.416-3.761-0.655-5.733-0.655c-11.751,0-21.672,7.8-24.891,18.503"></path> <path data-cap="butt" fill="none" stroke="#61616b" stroke-width="2" d="M37.718,4.056 c-0.204,1.313-0.35,2.679-0.35,4.049c0,7.5,3.25,14.277,8.332,19.014"></path> <path data-cap="butt" fill="none" stroke="#61616b" stroke-width="2" d="M10.04,28.549 c7.271-0.4,13.78-3.778,18.245-8.94"></path> <path data-cap="butt" fill="none" stroke="#61616b" stroke-width="2" d="M26.557,5.768 c-0.047,0.766-0.136,1.56-0.136,2.337c0,9.03,3.326,17.293,8.71,23.701"></path> <path data-cap="butt" fill="none" stroke="#61616b" stroke-width="2" d="M61.771,26.534 c-2.139-0.385-4.363-0.639-6.613-0.639c-16.141,0-29.828,10.368-34.859,24.794"></path> <circle fill="none" stroke="#61616b" stroke-width="2" cx="36" cy="30" r="26"></circle></g></svg>