<svg xmlns="http://www.w3.org/2000/svg" height="48" width="48" viewBox="0 0 48 48"><title>adaptive bike 3</title><g stroke-linecap="round" fill="#61616b" stroke-linejoin="round" class="nc-icon-wrapper"><path d="M11.044,26.105A7.973,7.973,0,0,0,10,26a8,8,0,1,0,6.876,12.026" fill="none" stroke="#61616b" stroke-width="2" data-color="color-2"></path><path d="M30.6,37.005a8.077,8.077,0,1,0,5.394-10.719" fill="none" stroke="#61616b" stroke-width="2" data-color="color-2"></path><path d="M38,34l-7.2-3.6a1.994,1.994,0,0,0-1.637-.068l-6.113,2.445a3.1,3.1,0,0,1-4.093-1.9l-3.433-10.3a2,2,0,0,1,2.792-2.422l6.94,3.471a2,2,0,0,0,1.527.108L32,20" fill="none" stroke="#61616b" stroke-width="2"></path><circle cx="16" cy="9" r="4" fill="none" stroke="#61616b" stroke-width="2" data-cap="butt"></circle></g></svg>