<svg xmlns="http://www.w3.org/2000/svg" height="24" width="24" viewBox="0 0 24 24"><title>adaptive bike</title><g stroke-linecap="round" fill="#61616b" stroke-linejoin="round" class="nc-icon-wrapper"><path d="M5,13a4,4,0,0,0,0,8,3.958,3.958,0,0,0,3-1.377" fill="none" stroke="#61616b" stroke-width="2" data-color="color-2"></path><path d="M15.541,19A4,4,0,1,0,19,13" fill="none" stroke="#61616b" stroke-width="2" data-color="color-2"></path><path d="M19,17l-3.6-1.8a1,1,0,0,0-.819-.034l-3.6,1.439a1,1,0,0,1-1.32-.612l-1.9-5.7a1,1,0,0,1,1.4-1.21l3.471,1.735a1,1,0,0,0,.763.054L16,10" fill="none" stroke="#61616b" stroke-width="2"></path><circle cx="8" cy="4" r="2" fill="none" stroke="#61616b" stroke-width="2" data-cap="butt"></circle></g></svg>