<svg xmlns="http://www.w3.org/2000/svg" height="24" width="24" viewBox="0 0 24 24"><title>audio description</title><g stroke-linecap="round" fill="#61616b" stroke-linejoin="round" class="nc-icon-wrapper"><path d="M9.637,15,9.25,13.528H6.7L6.3,15H3.97L6.532,7.115H9.363L11.957,15ZM8.81,11.788,8.471,10.5c-.078-.287-.175-.657-.287-1.112S8,8.606,7.961,8.41q-.048.273-.191.9t-.631,2.476Z" fill="#61616b" data-color="color-2" data-stroke="none" stroke="none"></path><path d="M20,10.907a4.056,4.056,0,0,1-1.083,3.03A4.154,4.154,0,0,1,15.875,15H13.334V7.147h2.718a4.1,4.1,0,0,1,2.919.967A3.649,3.649,0,0,1,20,10.907Zm-2.2.075a2.493,2.493,0,0,0-.427-1.6,1.58,1.58,0,0,0-1.3-.521h-.618v4.4h.473a1.71,1.71,0,0,0,1.418-.562A2.716,2.716,0,0,0,17.8,10.982Z" fill="#61616b" data-color="color-2" data-stroke="none" stroke="none"></path><polygon points="23 4 1 4 1 18 15 18 19 21 19 18 23 18 23 4" fill="none" stroke="#61616b" stroke-width="2"></polygon></g></svg>