<svg xmlns="http://www.w3.org/2000/svg" height="64" width="64" viewBox="0 0 64 64"><title>audio description 2</title><g stroke-linecap="round" fill="#61616b" stroke-linejoin="round" class="nc-icon-wrapper"><polygon points="2 11 2 49 42 49 52 57 52 49 62 49 62 11 2 11" fill="none" stroke="#61616b" stroke-width="2"></polygon><polyline points="16 38 21.5 22 23.5 22 29 38" fill="none" stroke="#61616b" stroke-width="2" data-color="color-2"></polyline><line x1="17.375" y1="34" x2="27.625" y2="34" fill="none" stroke="#61616b" stroke-width="2" data-cap="butt" data-color="color-2"></line><path d="M36,22h5.667A5.333,5.333,0,0,1,47,27.333v5.333A5.333,5.333,0,0,1,41.667,38H36a0,0,0,0,1,0,0V22A0,0,0,0,1,36,22Z" fill="none" stroke="#61616b" stroke-width="2" data-color="color-2"></path></g></svg>