<svg xmlns="http://www.w3.org/2000/svg" height="32" width="32" viewBox="0 0 32 32"><title>audio description 4</title><g stroke-linecap="round" fill="#61616b" stroke-linejoin="round" class="nc-icon-wrapper"><path d="M13.365,19l-.725-2.371H9L8.272,19H5.989L9.516,9h2.591l3.541,10Zm-1.231-4.142q-1-3.222-1.131-3.644c-.085-.282-.145-.5-.181-.668q-.226.873-1.292,4.312Z" fill="#61616b" data-color="color-2" data-stroke="none" stroke="none"></path><path d="M25.292,13.907a4.923,4.923,0,0,1-1.405,3.781A5.732,5.732,0,0,1,19.83,19H17V9.006h3.138a5.283,5.283,0,0,1,3.8,1.292A4.749,4.749,0,0,1,25.292,13.907Zm-2.2.055q0-3.221-2.844-3.22H19.119V17.25h.909Q23.091,17.25,23.091,13.962Z" fill="#61616b" data-color="color-2" data-stroke="none" stroke="none"></path><polygon points="1 4 1 24 21 24 26 28 26 24 31 24 31 4 1 4" fill="none" stroke="#61616b" stroke-width="2"></polygon></g></svg>