<svg xmlns="http://www.w3.org/2000/svg" height="64" width="64" viewBox="0 0 64 64"><title>blindness 2</title><g stroke-linecap="round" fill="#61616b" stroke-linejoin="round" class="nc-icon-wrapper"><circle cx="29" cy="9" r="6" fill="none" stroke="#61616b" stroke-width="2"></circle><line x1="52" y1="41" x2="58" y2="59" fill="none" stroke="#61616b" stroke-width="2" data-color="color-2"></line><path d="M21.671,43.95,15.316,56.658a3,3,0,0,0,5.368,2.684l5.768-11.536" fill="none" stroke="#61616b" stroke-width="2"></path><path d="M36,34V28.556l3.581,4.221a3.011,3.011,0,0,0,1.017.777l6.79,3.174a2.414,2.414,0,0,0,1.978.112,2.488,2.488,0,0,0,.451-4.457L44,28.725l-6.737-7.7A2.983,2.983,0,0,0,35,20.01l-11,0a2.962,2.962,0,0,0-1.342.3l-8,4a2.991,2.991,0,0,0-1.23,1.14L9.321,33.3A2.474,2.474,0,0,0,9,34.5a2.5,2.5,0,0,0,4.59,1.366l4.533-6.574L24,26.354V38a3,3,0,0,0,1.126,2.343l9.209,7.367L37.09,58.728a3,3,0,0,0,4.375,1.892,3.112,3.112,0,0,0,1.41-3.49L39.91,45.272a3,3,0,0,0-1.036-1.615L31.8,38" fill="none" stroke="#61616b" stroke-width="2"></path></g></svg>