<svg xmlns="http://www.w3.org/2000/svg" height="16" width="16" viewBox="0 0 16 16"><title>closed captioning</title><g fill="#61616b" class="nc-icon-wrapper"><rect x="0.5" y="2.5" width="15" height="11" fill="none" stroke="#61616b" stroke-linecap="round" stroke-linejoin="round"></rect><path d="M6.724,10.284a3.652,3.652,0,0,1-1.3.216,2.074,2.074,0,0,1-1.64-.647A2.7,2.7,0,0,1,3.214,8a3,3,0,0,1,.278-1.328A1.975,1.975,0,0,1,4.3,5.8,2.425,2.425,0,0,1,5.53,5.5a3.053,3.053,0,0,1,1.377.313" fill="none" stroke="#61616b" stroke-linecap="round" stroke-linejoin="round" data-color="color-2"></path><path d="M12.6,10.284a3.658,3.658,0,0,1-1.3.216,2.074,2.074,0,0,1-1.64-.647A2.707,2.707,0,0,1,9.093,8a3,3,0,0,1,.278-1.328,1.979,1.979,0,0,1,.8-.871,2.43,2.43,0,0,1,1.234-.3,3.06,3.06,0,0,1,1.378.313" fill="none" stroke="#61616b" stroke-linecap="round" stroke-linejoin="round" data-color="color-2"></path></g></svg>