<svg xmlns="http://www.w3.org/2000/svg" height="64" width="64" viewBox="0 0 64 64"><title>closed captioning 2</title><g stroke-linecap="round" fill="#61616b" stroke-linejoin="round" class="nc-icon-wrapper"><rect x="2" y="13" width="60" height="38" fill="none" stroke="#61616b" stroke-width="2"></rect><path d="M28,37h0a3,3,0,0,1-3,3H20a3,3,0,0,1-3-3V27a3,3,0,0,1,3-3h5a3,3,0,0,1,3,3h0" fill="none" stroke="#61616b" stroke-width="2" data-color="color-2"></path><path d="M47,37h0a3,3,0,0,1-3,3H39a3,3,0,0,1-3-3V27a3,3,0,0,1,3-3h5a3,3,0,0,1,3,3h0" fill="none" stroke="#61616b" stroke-width="2" data-color="color-2"></path></g></svg>