<svg xmlns="http://www.w3.org/2000/svg" height="48" width="48" viewBox="0 0 48 48"><title>closed captioning 3</title><g stroke-linecap="round" fill="#61616b" stroke-linejoin="round" class="nc-icon-wrapper"><rect x="2" y="10" width="44" height="28" fill="none" stroke="#61616b" stroke-width="2"></rect><path d="M21,28a2,2,0,0,1-2,2H15a2,2,0,0,1-2-2V20a2,2,0,0,1,2-2h4a2,2,0,0,1,2,2" fill="none" stroke="#61616b" stroke-width="2" data-color="color-2"></path><path d="M35,20a2,2,0,0,0-2-2H29a2,2,0,0,0-2,2v8a2,2,0,0,0,2,2h4a2,2,0,0,0,2-2" fill="none" stroke="#61616b" stroke-width="2" data-color="color-2"></path></g></svg>