<svg xmlns="http://www.w3.org/2000/svg" height="24" width="24" viewBox="0 0 24 24"><title>closed captioning 5</title><g stroke-linecap="round" fill="#61616b" stroke-linejoin="round" class="nc-icon-wrapper"><rect x="1" y="5" width="22" height="14" fill="none" stroke="#61616b" stroke-width="2"></rect><path d="M10.42,14.741A4.375,4.375,0,0,1,8.863,15,2.491,2.491,0,0,1,6.9,14.224,3.253,3.253,0,0,1,6.209,12a3.593,3.593,0,0,1,.333-1.593,2.375,2.375,0,0,1,.964-1.046A2.918,2.918,0,0,1,8.987,9a3.68,3.68,0,0,1,1.653.375" fill="none" stroke="#61616b" stroke-width="2" data-color="color-2"></path><path d="M17.572,14.741A4.383,4.383,0,0,1,16.015,15a2.489,2.489,0,0,1-1.968-.776A3.248,3.248,0,0,1,13.36,12a3.593,3.593,0,0,1,.333-1.593,2.382,2.382,0,0,1,.965-1.046A2.916,2.916,0,0,1,16.139,9a3.673,3.673,0,0,1,1.652.375" fill="none" stroke="#61616b" stroke-width="2" data-color="color-2"></path></g></svg>