<svg xmlns="http://www.w3.org/2000/svg" height="32" width="32" viewBox="0 0 32 32"><title>closed captioning 4</title><g stroke-linecap="round" fill="#61616b" stroke-linejoin="round" class="nc-icon-wrapper"><rect x="1" y="6" width="30" height="20" fill="none" stroke="#61616b" stroke-width="2"></rect><path d="M13.84,20.111a6.556,6.556,0,0,1-2.335.389,3.729,3.729,0,0,1-2.952-1.165A4.869,4.869,0,0,1,7.523,16a5.387,5.387,0,0,1,.5-2.389,3.562,3.562,0,0,1,1.446-1.569,4.377,4.377,0,0,1,2.222-.545,5.519,5.519,0,0,1,2.479.563" fill="none" stroke="#61616b" stroke-width="2" data-color="color-2"></path><path d="M24.148,20.111a6.562,6.562,0,0,1-2.336.389,3.732,3.732,0,0,1-2.952-1.165A4.874,4.874,0,0,1,17.83,16a5.387,5.387,0,0,1,.5-2.389,3.57,3.57,0,0,1,1.447-1.569A4.376,4.376,0,0,1,22,11.5a5.512,5.512,0,0,1,2.479.563" fill="none" stroke="#61616b" stroke-width="2" data-color="color-2"></path></g></svg>