<svg xmlns="http://www.w3.org/2000/svg" height="24" width="24" viewBox="0 0 24 24"><title>escalator 5</title><g stroke-linecap="round" fill="#61616b" stroke-linejoin="round" class="nc-icon-wrapper"><circle cx="8" cy="3" r="2" fill="none" stroke="#61616b" stroke-width="2"></circle><path data-cap="butt" d="M10,13.4V10A2,2,0,0,0,8,8H8a2,2,0,0,0-2,2v7" fill="none" stroke="#61616b" stroke-width="2"></path><polyline data-color="color-2" points="23 22 23 18 19 18" fill="none" stroke="#61616b" stroke-width="2"></polyline><polyline data-color="color-2" points="22 19 23 18 19 22" fill="none" stroke="#61616b" stroke-width="2"></polyline><path data-cap="butt" d="M23,10.839c-.006-.065-.026-.126-.035-.19A2.991,2.991,0,0,0,20,8H16.767a2.045,2.045,0,0,0-.822.185,2.01,2.01,0,0,0-.515.328L6,17H4a2.99,2.99,0,0,0-2.964,2.642c-.01.066-.03.129-.036.2,0,.037.006.073,0,.11,0,.017,0,.033,0,.051,0,.048.012.092.014.14a2.977,2.977,0,0,0,.042.415c.011.061.03.119.045.179a2.946,2.946,0,0,0,.119.384c.024.059.054.114.082.172a3.065,3.065,0,0,0,.184.338c.036.056.078.107.118.161a3.1,3.1,0,0,0,.237.286c.049.051.1.1.155.143a3.032,3.032,0,0,0,.277.229c.063.044.129.08.195.119a2.743,2.743,0,0,0,.3.164c.078.036.16.061.241.09.1.035.2.071.309.1s.191.032.289.045c.076.009.148.03.226.035.055,0,.11,0,.165,0H7.233a2.045,2.045,0,0,0,.822-.185,2.01,2.01,0,0,0,.515-.328L18,14h2a3,3,0,0,0,3-3C23,10.949,23,10.894,23,10.839Z" fill="none" stroke="#61616b" stroke-width="2"></path></g></svg>