<svg xmlns="http://www.w3.org/2000/svg" height="16" width="16" viewBox="0 0 16 16"><title>escalator</title><g fill="#61616b" class="nc-icon-wrapper"><circle cx="6" cy="2" r="1.5" fill="none" stroke="#61616b" stroke-linecap="round" stroke-linejoin="round"></circle><path d="M4.5,10.863V7.014a1.5,1.5,0,1,1,3,0V8.286" fill="none" stroke="#61616b" stroke-linecap="round" stroke-linejoin="round"></path><line x1="15.5" y1="12.5" x2="12.5" y2="15.5" fill="none" stroke="#61616b" stroke-linecap="round" stroke-linejoin="round" data-color="color-2"></line><polyline points="15.5 15.5 15.5 12.5 12.5 12.5" fill="none" stroke="#61616b" stroke-linecap="round" stroke-linejoin="round" data-color="color-2"></polyline><path d="M4.5,15.5h-2a2,2,0,0,1,0-4H3.759l6.422-5.517a2,2,0,0,1,1.3-.483H13.5a2,2,0,0,1,0,4H12.226L5.8,15.017A2,2,0,0,1,4.5,15.5Z" fill="none" stroke="#61616b" stroke-linecap="round" stroke-linejoin="round"></path></g></svg>