<svg xmlns="http://www.w3.org/2000/svg" height="48" width="48" viewBox="0 0 48 48"><title>low vision 5</title><g stroke-linecap="round" fill="#61616b" stroke-linejoin="round" class="nc-icon-wrapper"><circle cx="23.991" cy="16" r="4" fill="#61616b" data-stroke="none" stroke="none"></circle><circle cx="23.993" cy="16" r="4" fill="none" stroke="#61616b" stroke-width="2"></circle><path d="M44.006,23.379c.661-.822,1.2-1.549,1.595-2.116a2.217,2.217,0,0,0,.005-2.53C43.087,15.115,35.059,5,24.006,5,12.853,5,4.882,15.13,2.4,18.74a2.219,2.219,0,0,0,0,2.515C4.428,24.171,10.068,31.356,18,34" fill="none" stroke="#61616b" stroke-width="2"></path><path d="M34.9,17.42A11,11,0,1,0,19,25.8" fill="none" stroke="#61616b" stroke-width="2"></path><circle cx="32" cy="31" r="9" fill="none" stroke="#61616b" stroke-width="2" data-cap="butt" data-color="color-2"></circle><line x1="32" y1="28" x2="32" y2="34" fill="none" stroke="#61616b" stroke-width="2" data-color="color-2"></line><line x1="29" y1="31" x2="35" y2="31" fill="none" stroke="#61616b" stroke-width="2" data-color="color-2"></line><line x1="45" y1="44" x2="38.5" y2="37.5" fill="none" stroke="#61616b" stroke-width="2" data-color="color-2"></line></g></svg>