<svg xmlns="http://www.w3.org/2000/svg" height="64" width="64" viewBox="0 0 64 64"><title>screen reader 2</title><g stroke-linecap="round" fill="#61616b" stroke-linejoin="round" class="nc-icon-wrapper"><path d="M22,56H8a5,5,0,0,1-5-5V13A5,5,0,0,1,8,8H56a5,5,0,0,1,5,5v9" fill="none" stroke="#61616b" stroke-width="2"></path><path d="M24,33H16a4,4,0,0,0-4,4v8a4,4,0,0,0,4,4h8L37,60V22Z" fill="none" stroke="#61616b" stroke-width="2" data-color="color-2"></path><path d="M51,24.263a19.006,19.006,0,0,1,0,33.474" fill="none" stroke="#61616b" stroke-width="2" data-color="color-2"></path><path d="M47.484,30.323a12.005,12.005,0,0,1,0,21.353" fill="none" stroke="#61616b" stroke-width="2" data-color="color-2"></path><path d="M44.436,36.632a5,5,0,0,1,.014,8.728" fill="none" stroke="#61616b" stroke-width="2" data-color="color-2"></path></g></svg>