<svg xmlns="http://www.w3.org/2000/svg" height="48" width="48" viewBox="0 0 48 48"><title>screen reader 3</title><g stroke-linecap="round" fill="#61616b" stroke-linejoin="round" class="nc-icon-wrapper"><path d="M15,42H6a4,4,0,0,1-4-4V10A4,4,0,0,1,6,6H42a4,4,0,0,1,4,4v5" fill="none" stroke="#61616b" stroke-width="2"></path><path d="M18,24H12a3,3,0,0,0-3,3v6a3,3,0,0,0,3,3h6l10,8V16Z" fill="none" stroke="#61616b" stroke-width="2" data-color="color-2"></path><path d="M38,16.73a15.006,15.006,0,0,1,0,26.54" fill="none" stroke="#61616b" stroke-width="2" data-color="color-2"></path><path d="M35,23.07a8,8,0,0,1,0,13.86" fill="none" stroke="#61616b" stroke-width="2" data-color="color-2"></path></g></svg>