<svg xmlns="http://www.w3.org/2000/svg" height="32" width="32" viewBox="0 0 32 32"><title>screen reader 4</title><g stroke-linecap="round" fill="#61616b" stroke-linejoin="round" class="nc-icon-wrapper"><path d="M13,29H4a3,3,0,0,1-3-3V6A3,3,0,0,1,4,3H28a3,3,0,0,1,3,3v4" fill="none" stroke="#61616b" stroke-width="2"></path><polygon points="14 16 8 16 8 24 14 24 20 29 20 11 14 16" fill="none" stroke="#61616b" stroke-width="2" data-color="color-2"></polygon><path d="M26.127,12a9,9,0,0,1,0,16" fill="none" stroke="#61616b" stroke-width="2" data-color="color-2"></path><path d="M24,16.535a4,4,0,0,1,0,6.93" fill="none" stroke="#61616b" stroke-width="2" data-color="color-2"></path></g></svg>