<svg xmlns="http://www.w3.org/2000/svg" height="48" width="48" viewBox="0 0 48 48"><title>sign language 2</title><g stroke-linecap="round" fill="#61616b" stroke-linejoin="round" class="nc-icon-wrapper"><path d="M15,16.857,11.458,7.126a2.5,2.5,0,0,1,4.7-1.71l3.519,9.668" fill="none" stroke="#61616b" stroke-width="2" data-cap="butt" data-color="color-2"></path><path d="M19.676,15.084,16.5,6.356a2.5,2.5,0,1,1,4.7-1.71L25.66,16.907" fill="none" stroke="#61616b" stroke-width="2" data-cap="butt" data-color="color-2"></path><path d="M15,16.857l-2.125-5.838a2.6,2.6,0,0,0-3.006-1.7A2.5,2.5,0,0,0,8.128,12.6l5.189,14.256a.25.25,0,0,1-.373.294L7.321,23.438,5.766,22.412a2.495,2.495,0,0,0-2.847,4.081L15.913,38.226c.048.039.1.073.151.109" fill="none" stroke="#61616b" stroke-width="2" data-cap="butt" data-color="color-2"></path><path d="M28.8,10.96,27.655,7.768a2.6,2.6,0,0,0-3.007-1.7,2.5,2.5,0,0,0-1.741,3.28l2.753,7.563" fill="none" stroke="#61616b" stroke-width="2" data-cap="butt" data-color="color-2"></path><path d="M28.317,22.579,35.094,9.76a2.5,2.5,0,0,1,4.42,2.337L32.737,24.916" fill="none" stroke="#61616b" stroke-width="2"></path><path d="M32.737,24.916l6.31-11.935a2.5,2.5,0,0,1,4.42,2.337l-6.31,11.935" fill="none" stroke="#61616b" stroke-width="2"></path><path d="M37.157,27.253l3.973-7.514a2.5,2.5,0,0,1,3.6-.91,2.6,2.6,0,0,1,.753,3.372L36.67,38.873A11.509,11.509,0,0,1,15,33.928l0-17.506A2.5,2.5,0,0,1,19.94,15.8l.282,1.84,1.023,6.658a.25.25,0,0,0,.468.079L28.8,10.96a2.5,2.5,0,0,1,3.6-.91,2.6,2.6,0,0,1,.753,3.373l-4.841,9.156" fill="none" stroke="#61616b" stroke-width="2"></path></g></svg>