<svg xmlns="http://www.w3.org/2000/svg" height="32" width="32" viewBox="0 0 32 32"><title>tty 4</title><g stroke-linecap="round" fill="#61616b" stroke-linejoin="round" class="nc-icon-wrapper"><rect x="2" y="18" width="4" height="4" fill="none" stroke="#61616b" stroke-width="2" data-color="color-2"></rect><rect x="10" y="18" width="4" height="4" fill="none" stroke="#61616b" stroke-width="2" data-color="color-2"></rect><rect x="6" y="26" width="4" height="4" fill="none" stroke="#61616b" stroke-width="2" data-color="color-2"></rect><rect x="14" y="26" width="4" height="4" fill="none" stroke="#61616b" stroke-width="2" data-color="color-2"></rect><rect x="22" y="26" width="4" height="4" fill="none" stroke="#61616b" stroke-width="2" data-color="color-2"></rect><rect x="18" y="18" width="4" height="4" fill="none" stroke="#61616b" stroke-width="2" data-color="color-2"></rect><rect x="26" y="18" width="4" height="4" fill="none" stroke="#61616b" stroke-width="2" data-color="color-2"></rect><path d="M30.321,6.746a23.98,23.98,0,0,0-28.642,0,1.666,1.666,0,0,0-.448,2.181l2.14,3.64a1.609,1.609,0,0,0,1.966.686l4.957-1.908a1.609,1.609,0,0,0,1.021-1.68l-.336-3.021h0a19.925,19.925,0,0,1,10.042,0h0l-.336,3.021a1.609,1.609,0,0,0,1.021,1.68l4.957,1.908a1.609,1.609,0,0,0,1.966-.686l2.14-3.64A1.666,1.666,0,0,0,30.321,6.746Z" fill="none" stroke="#61616b" stroke-width="2"></path></g></svg>