<svg xmlns="http://www.w3.org/2000/svg" height="48" width="48" viewBox="0 0 48 48"><title>tty 2</title><g stroke-linecap="round" fill="#61616b" stroke-linejoin="round" class="nc-icon-wrapper"><path d="M44.053,10.738a33.576,33.576,0,0,0-40.106,0,2.333,2.333,0,0,0-.627,3.053l3,5.1a2.254,2.254,0,0,0,2.753.961l6.94-2.672a2.252,2.252,0,0,0,1.43-2.352l-.426-3.837a27.682,27.682,0,0,1,13.972,0l-.426,3.837a2.252,2.252,0,0,0,1.43,2.352l6.94,2.672a2.254,2.254,0,0,0,2.753-.961l3-5.1A2.333,2.333,0,0,0,44.053,10.738Z" fill="none" stroke="#61616b" stroke-width="2"></path><rect x="3" y="26" width="6" height="6" fill="none" stroke="#61616b" stroke-width="2" data-color="color-2"></rect><rect x="15" y="26" width="6" height="6" fill="none" stroke="#61616b" stroke-width="2" data-color="color-2"></rect><rect x="9" y="38" width="6" height="6" fill="none" stroke="#61616b" stroke-width="2" data-color="color-2"></rect><rect x="21" y="38" width="6" height="6" fill="none" stroke="#61616b" stroke-width="2" data-color="color-2"></rect><rect x="33" y="38" width="6" height="6" fill="none" stroke="#61616b" stroke-width="2" data-color="color-2"></rect><rect x="27" y="26" width="6" height="6" fill="none" stroke="#61616b" stroke-width="2" data-color="color-2"></rect><rect x="39" y="26" width="6" height="6" fill="none" stroke="#61616b" stroke-width="2" data-color="color-2"></rect></g></svg>