<svg xmlns="http://www.w3.org/2000/svg" height="64" width="64" viewBox="0 0 64 64"><title>tty 3</title><g stroke-linecap="round" fill="#61616b" stroke-linejoin="round" class="nc-icon-wrapper"><rect x="7" y="36" width="8" height="8" fill="none" stroke="#61616b" stroke-width="2" data-color="color-2"></rect><rect x="21" y="36" width="8" height="8" fill="none" stroke="#61616b" stroke-width="2" data-color="color-2"></rect><rect x="35" y="36" width="8" height="8" fill="none" stroke="#61616b" stroke-width="2" data-color="color-2"></rect><rect x="14" y="50" width="8" height="8" fill="none" stroke="#61616b" stroke-width="2" data-color="color-2"></rect><rect x="28" y="50" width="8" height="8" fill="none" stroke="#61616b" stroke-width="2" data-color="color-2"></rect><rect x="42" y="50" width="8" height="8" fill="none" stroke="#61616b" stroke-width="2" data-color="color-2"></rect><rect x="49" y="36" width="8" height="8" fill="none" stroke="#61616b" stroke-width="2" data-color="color-2"></rect><path d="M59.817,15.376a45.952,45.952,0,0,0-55.634,0,3.006,3.006,0,0,0-.77,3.9L7.586,26.45a3.109,3.109,0,0,0,3.805,1.338L20.966,24.1a3.114,3.114,0,0,0,1.976-3.249l-.623-5.6a37.938,37.938,0,0,1,19.362,0l-.623,5.6A3.114,3.114,0,0,0,43.034,24.1l9.575,3.686a3.109,3.109,0,0,0,3.805-1.338l4.173-7.172A3.006,3.006,0,0,0,59.817,15.376Z" fill="none" stroke="#61616b" stroke-width="2"></path></g></svg>