<svg xmlns="http://www.w3.org/2000/svg" height="64" width="64" viewBox="0 0 64 64"><title>walking aid 2</title><g stroke-linecap="round" fill="#61616b" stroke-linejoin="round" class="nc-icon-wrapper"><path d="M20.991,47.8,23.2,49.588l1.839,9.264A2.495,2.495,0,0,0,30,58.5c0-.121-1.03-10.924-1.03-10.924a3,3,0,0,0-1.079-1.906L24,42.515" fill="none" stroke="#61616b" stroke-width="2" data-cap="butt"></path><line x1="54" y1="49" x2="38" y2="49" fill="none" stroke="#61616b" stroke-width="2" data-color="color-2"></line><circle cx="35" cy="9" r="6" fill="none" stroke="#61616b" stroke-width="2"></circle><circle cx="54" cy="59" r="3" fill="none" stroke="#61616b" stroke-width="2" data-color="color-2"></circle><path d="M54,56V43a7.976,7.976,0,0,0-2.826-6.095" fill="none" stroke="#61616b" stroke-width="2" data-color="color-2"></path><path d="M38.616,39.922A7.961,7.961,0,0,0,38,43V61" fill="none" stroke="#61616b" stroke-width="2" data-color="color-2"></path><path d="M45.134,31.091l-8.287-2.707-5.671-8.092a4.948,4.948,0,0,0-.975-1.133,5,5,0,0,0-7.042.64l-10,12a4.979,4.979,0,0,0-.85,4.876l2.576,11.184-2.752,9.852.006,0A2.474,2.474,0,0,0,12,58.5a2.493,2.493,0,0,0,4.861.787h0l3.982-10.339a3,3,0,0,0,.074-1.637l-1.691-7.177,10.1-12.121,3.192,4.677a3,3,0,0,0,1.714,1.21l9.63,2.008a2.491,2.491,0,1,0,1.268-4.818Z" fill="none" stroke="#61616b" stroke-width="2"></path></g></svg>