<svg xmlns="http://www.w3.org/2000/svg" height="24" width="24" viewBox="0 0 24 24"><title>walking aid</title><g stroke-linecap="round" fill="#61616b" stroke-linejoin="round" class="nc-icon-wrapper"><line x1="20" y1="18" x2="14" y2="18" fill="none" stroke="#61616b" stroke-width="2" data-color="color-2"></line><circle cx="12" cy="3" r="2" fill="none" stroke="#61616b" stroke-width="2"></circle><path d="M14.094,15.29A2.861,2.861,0,0,0,14,16v7" fill="none" stroke="#61616b" stroke-width="2" data-color="color-2"></path><circle cx="20" cy="22" r="1" fill="none" stroke="#61616b" stroke-width="2" data-color="color-2"></circle><path d="M20,21V16a2.968,2.968,0,0,0-.416-1.5" fill="none" stroke="#61616b" stroke-width="2" data-color="color-2"></path><path d="M17,13l-3.164-.9a1,1,0,0,1-.539-.38l-2-2.795a2.084,2.084,0,0,0-3.349-.059l-3.4,4.418a2,2,0,0,0-.376,1.611L5,19v4" fill="none" stroke="#61616b" stroke-width="2"></path></g></svg>