<svg xmlns="http://www.w3.org/2000/svg" height="48" width="48" viewBox="0 0 48 48"><title>wheelchair 5</title><g stroke-linecap="round" fill="#61616b" stroke-linejoin="round" class="nc-icon-wrapper"><circle cx="22" cy="6" r="4" fill="none" stroke="#61616b" stroke-width="2"></circle><circle data-cap="butt" data-color="color-2" cx="39" cy="43" r="3" fill="none" stroke="#61616b" stroke-width="2"></circle><path data-color="color-2" d="M14.526,27.1A9.983,9.983,0,1,0,29,36" fill="none" stroke="#61616b" stroke-width="2"></path><path data-cap="butt" d="M39,35V32a2,2,0,0,0-2-2H24.5a4,4,0,0,1-3.965-3.471L19.006,15.044" fill="none" stroke="#61616b" stroke-width="2"></path><circle data-cap="butt" data-color="color-2" cx="19" cy="36" r="2" fill="none" stroke="#61616b" stroke-width="2"></circle><path d="M28.333,25l-.87-6.529A4,4,0,0,0,23.5,15H19.424a2.01,2.01,0,0,0-.812.172L10.6,18.734a2,2,0,0,0-.924.835L6,26" fill="none" stroke="#61616b" stroke-width="2"></path></g></svg>