<svg xmlns="http://www.w3.org/2000/svg" height="24" width="24" viewBox="0 0 24 24"><title>wheelchair</title><g stroke-linecap="round" fill="#61616b" stroke-linejoin="round" class="nc-icon-wrapper"><circle cx="11" cy="3" r="2" fill="none" stroke="#61616b" stroke-width="2"></circle><circle cx="20" cy="22" r="1" fill="#61616b" stroke="#61616b" stroke-width="2" data-cap="butt" data-color="color-2"></circle><path d="M7.763,13.551c-2.462,1.24-3.452,4.242-2.211,6.703,1.24,2.462,4.242,3.452,6.703,2.211,1.686-.85,2.748-2.577,2.745-4.465" fill="none" stroke="#61616b" stroke-width="2" data-color="color-2"></path><path d="M20,18v-2c0-.552-.448-1-1-1h-6.265c-.995,0-1.839-.732-1.98-1.717l-.755-5.283" fill="none" stroke="#61616b" stroke-width="2" data-cap="butt"></path><path d="M14.571,12l-.448-3.141c-.07-.493-.492-.859-.99-.859h-3.033l-.2,.019-4.42,.881c-.303,.06-.562,.257-.7,.533l-1.78,3.567" fill="none" stroke="#61616b" stroke-width="2"></path></g></svg>