<svg xmlns="http://www.w3.org/2000/svg" height="64" width="64" viewBox="0 0 64 64"><title>wheelchair 4</title><g stroke-linecap="round" fill="#61616b" stroke-linejoin="round" class="nc-icon-wrapper"><path d="M37.2,32l-.75-7.5A5,5,0,0,0,31.475,20l-5.086.039a2.007,2.007,0,0,0-.749.151L14.645,24.733a2,2,0,0,0-.984.877L9,34" fill="none" stroke="#61616b" stroke-width="2"></path><circle cx="30" cy="8" r="6" fill="none" stroke="#61616b" stroke-width="2"></circle><circle data-color="color-2" cx="52" cy="58" r="4" fill="none" stroke="#61616b" stroke-width="2"></circle><path data-color="color-2" d="M21.447,34.772A14.073,14.073,0,1,0,39.841,46" fill="none" stroke="#61616b" stroke-width="2"></path><circle data-color="color-2" cx="52" cy="58" r="4" fill="none" stroke="#61616b" stroke-width="2"></circle><circle data-cap="butt" data-color="color-2" cx="26" cy="48" r="4" fill="none" stroke="#61616b" stroke-width="2"></circle><path data-cap="butt" d="M52,48V42a2,2,0,0,0-2-2H32.525a5,5,0,0,1-4.975-4.5L26,20.089" fill="none" stroke="#61616b" stroke-width="2"></path></g></svg>