<svg xmlns="http://www.w3.org/2000/svg" height="48" width="48" viewBox="0 0 48 48"><title>bamboo</title><g class="nc-icon-wrapper"><path d="M12,13A11.013,11.013,0,0,0,1,24a1,1,0,0,0,1,1A11.013,11.013,0,0,0,13,14,1,1,0,0,0,12,13Z" fill="#49c549"></path><rect x="15" y="3" width="7" height="42" rx="1" fill="#38a838"></rect><rect x="15" y="13" width="7" height="2" fill="#78d478"></rect><rect x="15" y="23" width="7" height="2" fill="#78d478"></rect><rect x="15" y="33" width="7" height="2" fill="#78d478"></rect><rect x="26" y="3" width="7" height="42" rx="1" fill="#38a838"></rect><rect x="26" y="13" width="7" height="2" fill="#78d478"></rect><rect x="26" y="23" width="7" height="2" fill="#78d478"></rect><rect x="26" y="33" width="7" height="2" fill="#78d478"></rect><path d="M12,15A11.013,11.013,0,0,1,1,4,1,1,0,0,1,2,3,11.013,11.013,0,0,1,13,14,1,1,0,0,1,12,15Z" fill="#78d478"></path><path d="M36,15A11.013,11.013,0,0,0,47,4a1,1,0,0,0-1-1A11.013,11.013,0,0,0,35,14,1,1,0,0,0,36,15Z" fill="#78d478"></path><path d="M36,35A11.013,11.013,0,0,0,47,24a1,1,0,0,0-1-1A11.013,11.013,0,0,0,35,34,1,1,0,0,0,36,35Z" fill="#78d478"></path><path d="M36,33A11.013,11.013,0,0,1,47,44a1,1,0,0,1-1,1A11.013,11.013,0,0,1,35,34,1,1,0,0,1,36,33Z" fill="#49c549"></path></g></svg>