<svg xmlns="http://www.w3.org/2000/svg" height="48" width="48" viewBox="0 0 48 48"><title>barbershop</title><g class="nc-icon-wrapper"><path d="M32,38H16V10H32Z" fill="#e3e3e3"></path><polygon points="32 13.172 16 29.172 16 34.828 32 18.828 32 13.172" fill="#3b57e8"></polygon><polygon points="23.172 11 16 18.172 16 23.828 28.828 11 23.172 11" fill="#ff7163"></polygon><polygon points="19.172 37 24.828 37 32 29.828 32 24.172 19.172 37" fill="#ff7163"></polygon><path d="M24.99,3.052c0-.018.01-.034.01-.052V2a1,1,0,0,0-2,0V3c0,.018.01.034.01.052a9.935,9.935,0,0,0-8.763,7.726A1,1,0,0,0,15.223,12H32.777a1,1,0,0,0,.976-1.222A9.935,9.935,0,0,0,24.99,3.052Z" fill="#363636"></path><path d="M33.753,37.222A1,1,0,0,0,32.777,36H15.223a1,1,0,0,0-.976,1.222,9.935,9.935,0,0,0,8.763,7.726c0,.018-.01.034-.01.052v1a1,1,0,0,0,2,0V45c0-.018-.01-.034-.01-.052A9.935,9.935,0,0,0,33.753,37.222Z" fill="#363636"></path><path d="M34,12H14a1,1,0,0,1,0-2H34a1,1,0,0,1,0,2Z" fill="#636363"></path><path d="M34,38H14a1,1,0,0,1,0-2H34a1,1,0,0,1,0,2Z" fill="#636363"></path></g></svg>