<svg xmlns="http://www.w3.org/2000/svg" height="48" width="48" viewBox="0 0 48 48"><title>body cream</title><g class="nc-icon-wrapper"><circle cx="29" cy="19" r="18" fill="#827cef"></circle><circle cx="29" cy="19" r="16" fill="#cbc9f7"></circle><path d="M19,18c-8.726,0-18,2.629-18,7.5v14C1,44.371,10.274,47,19,47s18-2.629,18-7.5v-14C37,20.629,27.726,18,19,18Z" fill="#e3e3e3"></path><path d="M19,33c-8.726,0-18-2.629-18-7.5S10.274,18,19,18s18,2.629,18,7.5S27.726,33,19,33Z" fill="#c7c7c7"></path><path d="M29.97,21.5c.011-.168.03-.334.03-.5a7.479,7.479,0,0,0-4.642-6.934,1.006,1.006,0,0,0-1.224.387A5.478,5.478,0,0,1,19.5,17H17a6.008,6.008,0,0,0-5.518,3.646C6.437,21.571,3,23.4,3,25.5,3,28.538,10.163,31,19,31s16-2.462,16-5.5C35,23.924,33.061,22.506,29.97,21.5Z" fill="#fff"></path><ellipse cx="19" cy="25.5" rx="16" ry="5.5" fill="#fff"></ellipse><path d="M29.586,23.458a7.5,7.5,0,0,0-4.228-9.392,1.006,1.006,0,0,0-1.224.387A5.478,5.478,0,0,1,19.5,17H17a6,6,0,0,0-5.989,5.773C6.8,23.659,4,25.219,4,27a1.758,1.758,0,0,0,.07.465C6.374,29.531,12.181,31,19,31s12.626-1.469,14.93-3.535A1.758,1.758,0,0,0,34,27C34,25.616,32.312,24.364,29.586,23.458Z" fill="#fbe5d5"></path><path d="M11.011,22.773q-1.065.225-2,.506c.012.269.034.55.079.864a1,1,0,0,0,1.98-.286A5.885,5.885,0,0,1,11,23c0-.077.009-.151.012-.227Z" fill="#f8d4b9"></path><path d="M43.4,35.921a3.978,3.978,0,0,0-6.4-4.65,3.978,3.978,0,0,0-6.4,4.65,3.978,3.978,0,0,0,2.445,7.523,3.977,3.977,0,0,0,7.91,0A3.978,3.978,0,0,0,43.4,35.921Z" fill="#f888c0"></path><circle cx="37" cy="38" r="3" fill="#fddded"></circle></g></svg>