<svg xmlns="http://www.w3.org/2000/svg" height="48" width="48" viewBox="0 0 48 48"><title>edge razor</title><g class="nc-icon-wrapper"><path d="M31.214,45a2,2,0,0,1-1.835-2.795A93.129,93.129,0,0,0,37,7.939a2,2,0,1,1,4,.122,97.161,97.161,0,0,1-7.948,35.733A2,2,0,0,1,31.214,45Z" fill="#212121"></path><path d="M37,5H3A1,1,0,0,0,2,6V9a4,4,0,0,0,4,4H23.1A4,4,0,0,0,26.9,10.265L27.317,9H37Z" fill="#c8c8c8"></path><path d="M2.573,11.025A3.983,3.983,0,0,0,6,13H23.1a3.992,3.992,0,0,0,3.437-1.975Z" fill="#e3e3e3"></path><path d="M45,6a1,1,0,0,1,1,1h0a1,1,0,0,1-1,1H41.816a3,3,0,1,1,0-2Z" fill="#444"></path><circle cx="39" cy="7" r="1" fill="#c8c8c8"></circle></g></svg>