<svg xmlns="http://www.w3.org/2000/svg" height="48" width="48" viewBox="0 0 48 48"><title>eyeliner</title><g class="nc-icon-wrapper"><path d="M13,23V2a1,1,0,0,1,1-1h0a1,1,0,0,1,1,1V23Z" fill="#212121"></path><path d="M28,45.966A1,1,0,0,0,29,47H39a1,1,0,0,0,1-1.034l-1-29A1,1,0,0,0,38,16H30a1,1,0,0,0-1,.966Z" fill="#212121"></path><path d="M17,30V24a1,1,0,0,0-1-1H12a1,1,0,0,0-1,1v6Z" fill="#444"></path><path d="M19,30H9a1,1,0,0,0-1,1.066l1,15A1,1,0,0,0,10,47h8a1,1,0,0,0,1-.934l1-15A1,1,0,0,0,19,30Z" fill="#f7bf26"></path><polygon points="28.172 41 39.828 41 39.759 39 28.241 39 28.172 41" fill="#363636"></polygon></g></svg>