<svg xmlns="http://www.w3.org/2000/svg" height="48" width="48" viewBox="0 0 48 48"><title>eyelash</title><g class="nc-icon-wrapper"><path d="M46.925,29.36a1.5,1.5,0,0,0-1.895-.955,19.065,19.065,0,0,1-6.442.938,12.959,12.959,0,0,0,6.355-7.255,1,1,0,1,0-1.886-.662A10.973,10.973,0,0,1,34.51,28.6a2.011,2.011,0,0,1-.9-.06,18.512,18.512,0,0,1-2.746-1.052,12.652,12.652,0,0,0,8.13-10.633,1,1,0,1,0-1.99-.2,10.664,10.664,0,0,1-7.983,9.318,1.945,1.945,0,0,1-1.339-.175,21.1,21.1,0,0,0-2.184-.944,11.97,11.97,0,0,0,5.5-10.1,1,1,0,1,0-2,0,9.977,9.977,0,0,1-5.7,9.049,1.948,1.948,0,0,1-1.2.124,21.52,21.52,0,0,0-3.664-.395,12.477,12.477,0,0,0,3.581-8.778,1,1,0,0,0-2,0,10.473,10.473,0,0,1-4.7,8.768,1.993,1.993,0,0,1-.785.292c-.708.113-1.409.257-2.1.44a11.614,11.614,0,0,0,1.581-5.828,11.543,11.543,0,0,0-.144-1.829,1,1,0,1,0-1.974.315,9.715,9.715,0,0,1,.118,1.514,9.623,9.623,0,0,1-2.924,6.892,1.993,1.993,0,0,1-.529.361c-.543.261-1.075.549-1.6.855q.04-.426.041-.86a9.244,9.244,0,0,0-1.113-4.4,1,1,0,1,0-1.724,1.012,5.8,5.8,0,0,1,.747,2.221,7.426,7.426,0,0,1-.059,2.633l0,.025a7.288,7.288,0,0,1-.294,1A22.194,22.194,0,0,0,1.361,31.2a1.5,1.5,0,0,0,2.278,1.953A18.885,18.885,0,0,1,25.515,28.1a.981.981,0,0,0,.406.175,18.9,18.9,0,0,1,1.854.966,21.965,21.965,0,0,0,18.2,2.01A1.5,1.5,0,0,0,46.925,29.36Z" fill="#212121"></path></g></svg>