<svg xmlns="http://www.w3.org/2000/svg" height="48" width="48" viewBox="0 0 48 48"><title>hair straightener</title><g class="nc-icon-wrapper"><path d="M46.3,19.5l-.205-.378a1,1,0,0,0-1.37-.393L24.509,30.123a1,1,0,0,0-.509.871v2.312a4,4,0,0,1-2.037,3.485L11.906,42.458A5.6,5.6,0,0,0,12,41.494a5.5,5.5,0,0,0-5.5-5.5,5.614,5.614,0,0,0-.964.094L11.2,26.031a4,4,0,0,1,3.485-2.037H17a1,1,0,0,0,.871-.509L29.262,3.269a1,1,0,0,0-.394-1.37l-.378-.206a5.268,5.268,0,0,0-3.516-.6A4.971,4.971,0,0,0,21.549,3.6S1.838,38.6,1.829,38.616a5.48,5.48,0,0,0,7.549,7.549C9.4,46.157,44.4,26.446,44.4,26.446a4.973,4.973,0,0,0,2.507-3.425A5.263,5.263,0,0,0,46.3,19.5Z" fill="#645aed"></path><path d="M17,23.994a1,1,0,0,0,.87-.507l3.863-6.855L29.262,3.269a1,1,0,0,0-.394-1.37l-.378-.206c-.163-.088-.337-.154-.507-.227L15.288,23.994Z" fill="#aeaeae"></path><path d="M23.983,30.978a1,1,0,0,1,.507-.87l6.856-3.863,13.363-7.529a1,1,0,0,1,1.37.393l.2.379c.089.163.155.336.228.507L23.983,32.689Z" fill="#aeaeae"></path><circle cx="6.5" cy="41.5" r="2.5" fill="#363636"></circle></g></svg>