<svg xmlns="http://www.w3.org/2000/svg" height="48" width="48" viewBox="0 0 48 48"><title>hairdresser</title><g class="nc-icon-wrapper"><path d="M2.285,37.8l1.257-3.766a5.461,5.461,0,0,1,9.8-1.179L23.052,3.685A1,1,0,0,1,25,4.1l-1.513,15.88a6.523,6.523,0,0,1-5.734,5.982l-5.1,15.311A5.465,5.465,0,1,1,2.285,37.8ZM6.37,42.821a3.469,3.469,0,0,0,4.384-2.188l1.257-3.759v0l0-.007a3.465,3.465,0,0,0-6.575-2.192L4.181,38.437A3.468,3.468,0,0,0,6.37,42.821Z" fill="#aeaeae"></path><polygon points="16.424 23.609 14.893 28.209 15.947 31.372 17.523 26.639 16.424 23.609" fill="#949494"></polygon><path d="M40,3H32a1,1,0,0,0-1,1h0a1,1,0,0,0,1,1h7a1,1,0,0,1,0,2H32a1,1,0,0,0-1,1h0a1,1,0,0,0,1,1h7a1,1,0,0,1,0,2H32a1,1,0,0,0-1,1h0a1,1,0,0,0,1,1h7a1,1,0,0,1,0,2H32a1,1,0,0,0-1,1h0a1,1,0,0,0,1,1h7a1,1,0,0,1,0,2H32a1,1,0,0,0-1,1h0a1,1,0,0,0,1,1h7a1,1,0,0,1,0,2H32a1,1,0,0,0-1,1h0a1,1,0,0,0,1,1h7a1,1,0,0,1,0,2H32a1,1,0,0,0-1,1h0a1,1,0,0,0,1,1h3.469a3,3,0,0,1,2.976,3.372l-1.437,11.5A1,1,0,0,0,38,45h6a1,1,0,0,0,1-1V8A5,5,0,0,0,40,3Z" fill="#363636"></path><path d="M31.717,37.8l-1.258-3.766a5.461,5.461,0,0,0-9.8-1.179L10.949,3.685a1,1,0,0,0-1.944.41l1.513,15.88a6.522,6.522,0,0,0,5.733,5.982l5.1,15.311A5.465,5.465,0,1,0,31.717,37.8Zm-4.085,5.017a3.47,3.47,0,0,1-4.385-2.188l-1.256-3.759v0l0-.007a3.465,3.465,0,0,1,6.574-2.192l1.258,3.765A3.468,3.468,0,0,1,27.632,42.821Z" fill="#aeaeae"></path><circle cx="17" cy="24" r="1" fill="#212121"></circle></g></svg>