<svg xmlns="http://www.w3.org/2000/svg" height="48" width="48" viewBox="0 0 48 48"><title>hair man</title><g class="nc-icon-wrapper"><path d="M41.737,46H6.263A1,1,0,0,1,6.1,44.015L14.5,42.582A2.994,2.994,0,0,0,17,39.624V35a1,1,0,0,1,1-1H30a1,1,0,0,1,1,1v4.624a2.994,2.994,0,0,0,2.5,2.958l8.409,1.433A1,1,0,0,1,41.737,46Z" fill="#f5c09a"></path><path d="M39.429,18.457C39.429,28.4,32.521,38,24,38S8.571,28.4,8.571,18.457,15.479,2,24,2,39.429,8.516,39.429,18.457Z" fill="#f8d4b9"></path><path d="M8.6,20.371A6.5,6.5,0,0,1,15,15H25a6.994,6.994,0,0,0,6.24-3.84,10,10,0,0,0,8.218,7.715c.89-6.786-.275-11.231-2.792-13.987C33.537,1.462,28.508,1,24,1c-4.527,0-9.577.466-12.7,3.919C8.754,7.729,7.564,12.212,8.6,20.371Z" fill="#a2703f"></path></g></svg>