<svg xmlns="http://www.w3.org/2000/svg" height="48" width="48" viewBox="0 0 48 48"><title>hair gel</title><g class="nc-icon-wrapper"><path d="M36,13H11a1,1,0,0,1-1-1V11a7.009,7.009,0,0,1,7-7H27c3.591,0,4.817-.423,5.962-2.058a1,1,0,0,1,1.353-.271A7.781,7.781,0,0,1,38.123,6.7a8.292,8.292,0,0,1-1.308,5.879A1,1,0,0,1,36,13Z" fill="#c5edc5"></path><path d="M40,20H8a1,1,0,0,1-1-1V12a1,1,0,0,1,1-1H40a1,1,0,0,1,1,1v7A1,1,0,0,1,40,20Z" fill="#4d8b9d"></path><path d="M41,46H7a5.006,5.006,0,0,1-5-5V23a5.006,5.006,0,0,1,5-5H41a5.006,5.006,0,0,1,5,5V41A5.006,5.006,0,0,1,41,46Z" fill="#2a4b55"></path><rect x="11" y="25" width="26" height="14" rx="1" fill="#4d8b9d"></rect><path d="M12,18a1,1,0,0,1-1-1V12a1,1,0,0,1,2,0v5A1,1,0,0,1,12,18Z" fill="#3d6c7b"></path><path d="M18,18a1,1,0,0,1-1-1V12a1,1,0,0,1,2,0v5A1,1,0,0,1,18,18Z" fill="#3d6c7b"></path><path d="M24,18a1,1,0,0,1-1-1V12a1,1,0,0,1,2,0v5A1,1,0,0,1,24,18Z" fill="#3d6c7b"></path><path d="M30,18a1,1,0,0,1-1-1V12a1,1,0,0,1,2,0v5A1,1,0,0,1,30,18Z" fill="#3d6c7b"></path><path d="M36,18a1,1,0,0,1-1-1V12a1,1,0,0,1,2,0v5A1,1,0,0,1,36,18Z" fill="#3d6c7b"></path></g></svg>