<svg xmlns="http://www.w3.org/2000/svg" height="48" width="48" viewBox="0 0 48 48"><title>hair woman</title><g class="nc-icon-wrapper"><path d="M44.038,30.505A31.8,31.8,0,0,1,42,19.379C41.906,9.247,33.833,1,24,1h-1.2a13.091,13.091,0,0,0-4.878.926A18.305,18.305,0,0,0,6,19,31.828,31.828,0,0,1,3.962,30.505c-1.406,4.149-2.517,7.427,1.414,14.958a1,1,0,0,0,1.07.52l7.47-1.391c2.367-.441,17.8-.441,20.168,0l7.47,1.391a1.039,1.039,0,0,0,.183.017,1,1,0,0,0,.887-.537C46.555,37.932,45.444,34.654,44.038,30.505Z" fill="#a2703f"></path><path d="M6.446,45.983,41.737,46l-7.646-1.413A5,5,0,0,1,30,39.67V36H18v3.676a5,5,0,0,1-4.084,4.916Z" fill="#f5c09a"></path><path d="M33.478,30.472a6,6,0,0,1-.75-7.571l.673-1.01a6,6,0,0,0-.552-7.364L26.312,7.336A14.5,14.5,0,0,1,12,19.494l2.608,3.978a6,6,0,0,1-.286,6.978l-1.07,1.372C15.931,35.473,19.692,38,24,38c4.327,0,8.1-2.549,10.782-6.225Z" fill="#f8d4b9"></path></g></svg>