<svg xmlns="http://www.w3.org/2000/svg" height="48" width="48" viewBox="0 0 48 48"><title>hair towel</title><g class="nc-icon-wrapper"><path d="M24,47C15.729,47,9,38.477,9,28a15,15,0,0,1,30,0C39,38.477,32.271,47,24,47Z" fill="#fbe5d5"></path><path d="M24,13A15.017,15.017,0,0,0,9,28a24,24,0,0,0,.19,2.874,2.837,2.837,0,0,0,1.759-.028c6.049-2.017,8.784-6.261,10.669-9.753a19.5,19.5,0,0,1,13.815,8.458,3.365,3.365,0,0,0,.55.671,3,3,0,0,0,2.045.8l.131,0a2.917,2.917,0,0,0,.645-.106A23.865,23.865,0,0,0,39,28,15.017,15.017,0,0,0,24,13Z" fill="#f5c09a"></path><path d="M38.227,11.588C37.661,9.2,34.924,1,24,1,13.523,1,5,8.626,5,18A15.739,15.739,0,0,0,9.259,28.671a1,1,0,0,0,1.057.277c5.857-1.952,8.161-6.163,10.142-9.936,11.043.375,16.629,9.411,16.686,9.5a1.266,1.266,0,0,0,.2.242,1,1,0,0,0,.681.268h.043a1,1,0,0,0,.7-.328C41.5,25.683,42,23.151,42,19.253A10.266,10.266,0,0,0,38.227,11.588Z" fill="#e3e3e3"></path><path d="M24,1a20.808,20.808,0,0,0-7.467,1.372A9.947,9.947,0,0,0,14,9a1,1,0,0,0,2,0A8.009,8.009,0,0,1,24,1Z" fill="#c8c8c8"></path><path d="M38.227,11.588a14.825,14.825,0,0,0-1.159-3.132A13.175,13.175,0,0,0,31,7c-7.277,0-10.472,3.789-12.636,7.5A1,1,0,0,0,20.091,15.5C22.063,12.126,24.751,9,31,9a11.1,11.1,0,0,1,7.32,2.675C38.287,11.647,38.259,11.615,38.227,11.588Z" fill="#c8c8c8"></path></g></svg>