<svg xmlns="http://www.w3.org/2000/svg" height="48" width="48" viewBox="0 0 48 48"><title>incense</title><g class="nc-icon-wrapper"><path d="M24,20c-9.211,0-19,2.629-19,7.5v13C5,45.371,14.789,48,24,48s19-2.629,19-7.5v-13C43,22.629,33.211,20,24,20Z" fill="#e3e3e3"></path><path d="M24,30c-9.729,0-17,2.9-17,5.5v5C7,43.1,14.271,46,24,46s17-2.9,17-5.5v-5C41,32.9,33.729,30,24,30Z" fill="#ffd764"></path><path d="M24,30c9.729,0,17,2.9,17,5.5S33.729,41,24,41,7,38.1,7,35.5,14.271,30,24,30Z" fill="#f7bf26"></path><path d="M24,22c9.729,0,17,2.9,17,5.5S33.729,33,24,33,7,30.1,7,27.5,14.271,22,24,22Z" fill="#c8c8c8"></path><ellipse cx="24" cy="31.5" rx="11.276" ry="1.5" fill="#eba40a"></ellipse><path d="M24,12c-5.963,0-12,1.718-12,5v7c0,3.282,6.037,5,12,5s12-1.718,12-5V17C36,13.718,29.963,12,24,12Zm0,8c-6.012,0-10-1.806-10-3s3.988-3,10-3,10,1.806,10,3S30.012,20,24,20Z" fill="#e3e3e3"></path><path d="M24,20c-6.012,0-10-1.806-10-3s3.988-3,10-3,10,1.806,10,3S30.012,20,24,20Z" fill="#aeaeae"></path><path d="M24,18c.428,0,.844-.012,1.251-.029L21.982.812a1,1,0,1,0-1.964.375l3.2,16.8C23.476,17.992,23.733,18,24,18Z" fill="#4141e5"></path><path d="M26.036,11.4,27.982,1.187A1,1,0,1,0,26.018.812l-1,5.247Z" fill="#4141e5"></path><path d="M21.156,17.855,17.91.812a1,1,0,1,0-1.965.375l3.117,16.365C19.708,17.678,20.411,17.779,21.156,17.855Z" fill="#bf8c5a"></path><path d="M19,44a1.024,1.024,0,0,1-.189-.018,1,1,0,0,1-.794-1.17l8-42a1,1,0,1,1,1.964.376l-8,42A1,1,0,0,1,19,44Z" fill="#a2703f"></path><path d="M29,44a1,1,0,0,1-.981-.812l-8-42A1,1,0,0,1,21.982.812l8,42a1,1,0,0,1-.794,1.17A1.024,1.024,0,0,1,29,44Z" fill="#bf8c5a"></path><path d="M24,20c-.563,0-1.1-.02-1.628-.05L18.018,42.812a1,1,0,0,0,.794,1.17A1.024,1.024,0,0,0,19,44a1,1,0,0,0,.981-.812l4.419-23.2C24.266,19.994,24.136,20,24,20Z" fill="#7d5731"></path><path d="M24,20c-.136,0-.266-.006-.4-.007l4.419,23.2A1,1,0,0,0,29,44a1.024,1.024,0,0,0,.189-.018,1,1,0,0,0,.794-1.17L25.628,19.95C25.1,19.98,24.563,20,24,20Z" fill="#a2703f"></path><path d="M21.544,19.892,17.91.812a1,1,0,0,0-1.965.376l3.512,18.434C20.106,19.735,20.8,19.827,21.544,19.892Z" fill="#bf8c5a"></path><path d="M26.456,19.892,30.09.812a1,1,0,0,1,1.965.376L28.543,19.622C27.894,19.735,27.2,19.827,26.456,19.892Z" fill="#bf8c5a"></path><path d="M19.457,19.622l4.488,23.566a1,1,0,0,0,.982.812,1.013,1.013,0,0,0,.188-.018,1,1,0,0,0,.8-1.17l-4.366-22.92C20.8,19.827,20.106,19.735,19.457,19.622Z" fill="#a2703f"></path><path d="M25.018,38.129l3.525-18.507c-.649.113-1.345.205-2.087.27L24,32.784Z" fill="#7d5731"></path></g></svg>