<svg xmlns="http://www.w3.org/2000/svg" height="48" width="48" viewBox="0 0 48 48"><title>jacuzzi</title><g class="nc-icon-wrapper"><path d="M12,13a5,5,0,1,1,5-5A5.006,5.006,0,0,1,12,13Z" fill="#3d6c7b"></path><path d="M44.707,25.291A1,1,0,0,0,44,25H4a1,1,0,0,0-1,1V40a5.006,5.006,0,0,0,5,5H40a5.006,5.006,0,0,0,5-5V26A1,1,0,0,0,44.707,25.291Z" fill="#e3e3e3"></path><path d="M42.418,18a1,1,0,0,1-.869-1.493,3.438,3.438,0,0,0-.327-3.879,5.426,5.426,0,0,1-.511-6.121,1,1,0,1,1,1.74.986,3.438,3.438,0,0,0,.327,3.879,5.426,5.426,0,0,1,.511,6.121A1,1,0,0,1,42.418,18Z" fill="#e3e3e3"></path><path d="M34.418,15a1,1,0,0,1-.869-1.493,3.438,3.438,0,0,0-.327-3.879,5.426,5.426,0,0,1-.511-6.121,1,1,0,0,1,1.74.986,3.438,3.438,0,0,0,.327,3.879,5.426,5.426,0,0,1,.511,6.121A1,1,0,0,1,34.418,15Z" fill="#e3e3e3"></path><path d="M27.418,18a1,1,0,0,1-.869-1.493,3.438,3.438,0,0,0-.327-3.879,5.426,5.426,0,0,1-.511-6.121,1,1,0,0,1,1.74.986,3.438,3.438,0,0,0,.327,3.879,5.426,5.426,0,0,1,.511,6.121A1,1,0,0,1,27.418,18Z" fill="#e3e3e3"></path><rect x="3" y="27" width="42" height="2" fill="#c8c8c8"></rect><path d="M12,23a3,3,0,1,1,3-3A3,3,0,0,1,12,23Z" fill="#e3e3e3"></path><path d="M21,27a2,2,0,0,1-1.439-.61l-6.88-7.12a2,2,0,1,1,2.877-2.78l5.92,6.128,5.733-2.456a2,2,0,0,1,1.576,3.676l-7,3A2,2,0,0,1,21,27Z" fill="#3d6c7b"></path><path d="M12,15a5,5,0,0,0-5,5v5H17V20A5,5,0,0,0,12,15Z" fill="#3d6c7b"></path><polygon points="17 23.739 14.001 20.635 15.446 25 17 25 17 23.739" fill="#2a4b55"></polygon></g></svg>