<svg xmlns="http://www.w3.org/2000/svg" height="48" width="48" viewBox="0 0 48 48"><title>lips</title><g class="nc-icon-wrapper"><path d="M24,36C13.321,36,5.926,29.84,1.293,25.207a1,1,0,0,1,.073-1.48l9.787-8.012A10.764,10.764,0,0,1,18,13a9.96,9.96,0,0,1,6,2.012A9.96,9.96,0,0,1,30,13a10.764,10.764,0,0,1,6.847,2.715l9.787,8.012a1,1,0,0,1,.073,1.48C42.074,29.84,34.679,36,24,36Z" fill="#bb385f"></path><path d="M41.982,26.122a13.918,13.918,0,0,1-5.424-1.229A9.5,9.5,0,0,0,33,24a9.986,9.986,0,0,0-4.128.928,11.617,11.617,0,0,1-9.744,0A9.986,9.986,0,0,0,15,24a9.5,9.5,0,0,0-3.558.893,13.194,13.194,0,0,1-9.716.569,1,1,0,0,1,.548-1.924,11.339,11.339,0,0,0,8.441-.509A11.365,11.365,0,0,1,15,22a11.805,11.805,0,0,1,4.87,1.07,9.645,9.645,0,0,0,8.26,0A11.805,11.805,0,0,1,33,22a11.365,11.365,0,0,1,4.285,1.029,11.335,11.335,0,0,0,8.441.509,1,1,0,1,1,.548,1.924A15.553,15.553,0,0,1,41.982,26.122Z" fill="#6e2138"></path></g></svg>