<svg xmlns="http://www.w3.org/2000/svg" height="48" width="48" viewBox="0 0 48 48"><title>lipstick 2</title><g class="nc-icon-wrapper"><path d="M43,47H27a1,1,0,0,1-1-1V24a5.006,5.006,0,0,1,5-5h8a5.006,5.006,0,0,1,5,5V46A1,1,0,0,1,43,47Z" fill="#212121"></path><path d="M21,27H20V18a1,1,0,0,0-1-1H7a1,1,0,0,0-1,1v9H5a1,1,0,0,0-1,1V38H22V28A1,1,0,0,0,21,27Z" fill="#f7bf26"></path><path d="M18,17H8V11c0-6.543,4.367-8.8,4.553-8.895a1,1,0,0,1,.894,0C13.633,2.2,18,4.457,18,11Z" fill="#bb385f"></path><path d="M21,27H5a1,1,0,0,0-1,1V42a5.006,5.006,0,0,0,5,5h8a5.006,5.006,0,0,0,5-5V28A1,1,0,0,0,21,27Z" fill="#212121"></path><rect x="4" y="38" width="18" height="2" fill="#444"></rect><path d="M10,11c0-5.308,3.309-7.036,3.449-7.106a1,1,0,0,0-.9-1.788C12.365,2.2,8,4.471,8,11v6h2Z" fill="#ce5a7d"></path></g></svg>