<svg xmlns="http://www.w3.org/2000/svg" height="48" width="48" viewBox="0 0 48 48"><title>makeup palette</title><g class="nc-icon-wrapper"><rect x="5" y="8" width="38" height="38" rx="5" fill="#363636"></rect><circle cx="16" cy="31" r="5" fill="#ddc2a7"></circle><circle cx="32" cy="31" r="5" fill="#fff0c2"></circle><circle cx="16" cy="18" r="5" fill="#cdcafc"></circle><circle cx="32" cy="18" r="5" fill="#f8d4b9"></circle><path d="M44.7,8.291,42.649,2.658A1,1,0,0,0,41.71,2H6.289a1,1,0,0,0-.939.658L3.3,8.291A5,5,0,0,0,8,15H40a5,5,0,0,0,4.7-6.709Z" fill="#4c4c4c"></path><rect x="20" y="11" width="8" height="2" rx="1" fill="#e3e3e3"></rect><rect x="11" y="39" width="26" height="2" rx="1" fill="#636363"></rect></g></svg>