<svg xmlns="http://www.w3.org/2000/svg" height="48" width="48" viewBox="0 0 48 48"><title>makeup mirror</title><g class="nc-icon-wrapper"><circle cx="24" cy="20" r="18" fill="#dcf6f9"></circle><path d="M24,40A20,20,0,1,1,44,20,20.023,20.023,0,0,1,24,40ZM24,2A18,18,0,1,0,42,20,18.021,18.021,0,0,0,24,2Z" fill="#949494"></path><path d="M48,20a1,1,0,0,0-2,0A22,22,0,0,1,2,20a1,1,0,0,0-2,0A24.027,24.027,0,0,0,23,43.975V46H14a1,1,0,0,0,0,2H34a1,1,0,0,0,0-2H25V43.975A24.027,24.027,0,0,0,48,20Z" fill="#363636"></path><path d="M38.058,12.356,26.707,23.707a1,1,0,0,1-1.414-1.414l11.66-11.66A15.993,15.993,0,0,0,9.942,27.644L21.293,16.293a1,1,0,0,1,1.414,1.414l-11.66,11.66A15.993,15.993,0,0,0,38.058,12.356Zm-13.765.937,2-2a1,1,0,0,1,1.414,1.414l-2,2a1,1,0,0,1-1.414-1.414Zm-.586,13.414-2,2a1,1,0,0,1-1.414-1.414l2-2a1,1,0,0,1,1.414,1.414Z" fill="#a0e6ee"></path></g></svg>