<svg xmlns="http://www.w3.org/2000/svg" height="48" width="48" viewBox="0 0 48 48"><title>makeup cream</title><g class="nc-icon-wrapper"><circle cx="29" cy="19" r="18" fill="#857cf8"></circle><circle cx="29" cy="19" r="16" fill="#cdcafc"></circle><path d="M19,18c-8.726,0-18,2.629-18,7.5v14C1,44.371,10.274,47,19,47s18-2.629,18-7.5v-14C37,20.629,27.726,18,19,18Z" fill="#e3e3e3"></path><path d="M19,33c-8.726,0-18-2.629-18-7.5S10.274,18,19,18s18,2.629,18,7.5S27.726,33,19,33Z" fill="#c8c8c8"></path><ellipse cx="19" cy="25.5" rx="16" ry="5.5" fill="#fff"></ellipse><ellipse cx="19" cy="27" rx="15.382" ry="4" fill="#fbe5d5"></ellipse><path d="M1,29.471V37.5c0,4,7.513,7.268,16.98,7.488A1,1,0,0,0,19,43.983v-8a1,1,0,0,0-.984-1C11.1,34.836,4.01,33.072,1,29.471Z" fill="#857cf8"></path></g></svg>