<svg xmlns="http://www.w3.org/2000/svg" height="48" width="48" viewBox="0 0 48 48"><title>makeup brush</title><g class="nc-icon-wrapper"><path d="M32,23l-7-7L1.879,41.879a3,3,0,0,0,4.242,4.242" fill="#212121"></path><polygon points="24.078 30.078 31 24 24 17 17.922 23.922 24.078 30.078" fill="#f7bf26"></polygon><path d="M46.986,16.324a16,16,0,0,0-15.31-15.31,1,1,0,0,0-.946.6L24,17l7,7,15.382-6.73A1,1,0,0,0,46.986,16.324Z" fill="#212121"></path><path d="M33.781,18.375a1,1,0,0,0-1.406-.156L28.4,21.4l1.424,1.424,3.8-3.042A1,1,0,0,0,33.781,18.375Z" fill="#4c4c4c"></path><path d="M29.625,14.219a1,1,0,0,0-1.406.156l-3.042,3.8L26.6,19.6l3.18-3.976A1,1,0,0,0,29.625,14.219Z" fill="#4c4c4c"></path></g></svg>