<svg xmlns="http://www.w3.org/2000/svg" height="48" width="48" viewBox="0 0 48 48"><title>makeup foundation</title><g class="nc-icon-wrapper"><path d="M28,9V3h5a1,1,0,0,0,0-2H21a1,1,0,0,0-1,1V9Z" fill="#363636"></path><path d="M17,9H31a1,1,0,0,1,1,1v6a0,0,0,0,1,0,0H16a0,0,0,0,1,0,0V10A1,1,0,0,1,17,9Z" fill="#212121"></path><path d="M36,16H12a1,1,0,0,0-1,1V46a1,1,0,0,0,1,1H36a1,1,0,0,0,1-1V17a1,1,0,0,0-1-1ZM34.16,38.167a4,4,0,0,1-4,3.833H17.837a4,4,0,0,1-4-3.833l-.8-19.125a1,1,0,0,1,1-1.042H33.957a1,1,0,0,1,1,1.042Z" fill="#e3e3e3"></path><path d="M34.161,38.167a4,4,0,0,1-4,3.833H17.838a4,4,0,0,1-4-3.833l-.8-19.125a1,1,0,0,1,1-1.042H33.958a1,1,0,0,1,1,1.042Z" fill="#c8c8c8"></path><path d="M13.292,24l.591,14.167a4,4,0,0,0,4,3.833H30.206a4,4,0,0,0,4-3.833L34.792,24Z" fill="#d0ab86"></path></g></svg>