<svg xmlns="http://www.w3.org/2000/svg" height="48" width="48" viewBox="0 0 48 48"><title>mascara</title><g class="nc-icon-wrapper"><rect x="27" y="13" width="14" height="34" rx="1" transform="translate(68 60) rotate(-180)" fill="#212121"></rect><rect x="7" y="33" width="14" height="14" rx="1" transform="translate(28 80) rotate(-180)" fill="#645aed"></rect><path d="M10,9a1,1,0,0,1,0-2h3V5H10a1,1,0,0,1,0-2h3V2a1,1,0,0,1,2,0V3h3a1,1,0,0,1,0,2H15V7h3a1,1,0,0,1,0,2H15v2h3a1,1,0,0,1,0,2H15v2h3a1,1,0,0,1,0,2H15v2h3a1,1,0,0,1,0,2H10a1,1,0,0,1,0-2h3V17H10a1,1,0,0,1,0-2h3V13H10a1,1,0,0,1,0-2h3V9Z" fill="#212121"></path><path d="M11,30h2V21h2v9h2a1,1,0,0,1,1,1v2H10V31A1,1,0,0,1,11,30Z" fill="#444"></path><rect x="27" y="38" width="14" height="2" transform="translate(68 78) rotate(-180)" fill="#444"></rect></g></svg>