<svg xmlns="http://www.w3.org/2000/svg" height="48" width="48" viewBox="0 0 48 48"><title>massage</title><g class="nc-icon-wrapper"><path d="M25.743,21.1l-4.424-1.769-3.654-5.482-.007-.011h0l0,0-.05-.07v0l0,0A1.994,1.994,0,0,0,16.439,13a1.286,1.286,0,0,0-.155-.028,2.429,2.429,0,0,0-.323-.021H11.835a3,3,0,0,0-2.952,2.464L6.6,27.7a4.5,4.5,0,1,0,8.859,1.588l1.622-9.1,1.254,1.88a2.011,2.011,0,0,0,.921.749l5,2A2,2,0,0,0,25.743,21.1Z" fill="#3d6c7b"></path><path d="M12,30.978V44.311A2.6,2.6,0,0,1,9.758,46.94,2.5,2.5,0,0,1,7,44.453V30.978a2.5,2.5,0,0,1,2.5-2.5h0A2.5,2.5,0,0,1,12,30.978Z" fill="#3d6c7b"></path><path d="M15,10.953a5,5,0,1,1,5-5A5.006,5.006,0,0,1,15,10.953Z" fill="#3d6c7b"></path><path d="M38,30.953a5,5,0,1,1,5-5A5.006,5.006,0,0,1,38,30.953Z" fill="#6ca5b7"></path><path d="M46.937,33.454a2,2,0,0,0-2.63-1.377l-6.915,2.556-8.1-8.092a1.991,1.991,0,0,0-1.41-.588H14a3.987,3.987,0,0,0-3.444,2H1v4H28.641a1,1,0,0,1,.708.293l6.121,6.121a2,2,0,0,0,2.107.462l8.008-2.96A2.079,2.079,0,0,0,46.937,33.454Z" fill="#6ca5b7"></path><polygon points="38.398 46.953 44.055 46.953 29.055 31.953 1 31.953 1 35.953 27.398 35.953 38.398 46.953" fill="#c2eff4"></polygon></g></svg>