<svg xmlns="http://www.w3.org/2000/svg" height="48" width="48" viewBox="0 0 48 48"><title>mortar</title><g class="nc-icon-wrapper"><path d="M31.5-.339h0a4.5,4.5,0,0,1,4.5,4.5v24.5a0,0,0,0,1,0,0H27a0,0,0,0,1,0,0V4.161a4.5,4.5,0,0,1,4.5-4.5Z" transform="translate(11.301 -13.852) rotate(30)" fill="#b3b3b3"></path> <path d="M47,21a1,1,0,0,0-1-1H2a1,1,0,0,0-1,1A22.9,22.9,0,0,0,12.856,41.1l-.832,3.676A1,1,0,0,0,13,46H35a1,1,0,0,0,.976-1.221L35.144,41.1A22.9,22.9,0,0,0,47,21Z" fill="#e6e6e6"></path></g></svg>