<svg xmlns="http://www.w3.org/2000/svg" height="48" width="48" viewBox="0 0 48 48"><title>nail polish 2</title><g class="nc-icon-wrapper"><path d="M36,21H12a1,1,0,0,0-1,1V42a5,5,0,0,0,5,5H32a5,5,0,0,0,5-5V22A1,1,0,0,0,36,21Z" fill="#e3e3e3"></path><path d="M29.315,42H18.685A3,3,0,0,1,15.7,39.331L14.123,25.11A1,1,0,0,1,15.117,24H32.883a1,1,0,0,1,.994,1.11L32.3,39.331A3,3,0,0,1,29.315,42Z" fill="#c8c8c8"></path><path d="M30,21H18V2a1,1,0,0,1,1-1H29a1,1,0,0,1,1,1Z" fill="#212121"></path><path d="M14.667,30,15.7,39.331A3,3,0,0,0,18.685,42h10.63A3,3,0,0,0,32.3,39.331L33.333,30Z" fill="#bb385f"></path></g></svg>