<svg xmlns="http://www.w3.org/2000/svg" height="48" width="48" viewBox="0 0 48 48"><title>nail file</title><g class="nc-icon-wrapper"><path d="M13.293,26.222,2.757,36.757a6,6,0,0,0,8.486,8.486L21.778,34.707Z" fill="#363636"></path><path d="M7,43a2,2,0,1,1,2-2A2,2,0,0,1,7,43Zm0-2v0Z" fill="#fff"></path><path d="M45.243,2.757a6,6,0,0,0-8.486,0L23.515,16,13.293,26.222l8.485,8.485L45.243,11.243A6,6,0,0,0,45.243,2.757Z" fill="#e3e3e3"></path><path d="M42,5H39V1.363a5.932,5.932,0,0,0-2,1.2V10a1,1,0,0,0,2,0V7h3a1,1,0,0,0,0-2Z" fill="#c8c8c8"></path><path d="M35,21.485V14a1,1,0,0,0-2,0v3H30a1,1,0,0,0,0,2h3v4.485Z" fill="#c8c8c8"></path><path d="M27,22a1,1,0,0,0-1-1H23V16.515l-2,2V26a1,1,0,0,0,2,0V23h3A1,1,0,0,0,27,22Z" fill="#c8c8c8"></path><path d="M39,17.485V14a1,1,0,0,0-2,0v5.485Z" fill="#c8c8c8"></path><path d="M31,25.485V22a1,1,0,0,0-2,0v5.485Z" fill="#c8c8c8"></path><path d="M30,15a1,1,0,0,0,1-1V8.515l-2,2V14A1,1,0,0,0,30,15Z" fill="#c8c8c8"></path><path d="M26,19a1,1,0,0,0,1-1V12.515l-2,2V18A1,1,0,0,0,26,19Z" fill="#c8c8c8"></path><path d="M18,27a1,1,0,0,0,1-1V20.515l-2,2V26A1,1,0,0,0,18,27Z" fill="#c8c8c8"></path><path d="M27,29.485V26a1,1,0,0,0-2,0v5.485Z" fill="#c8c8c8"></path><path d="M42,9a1,1,0,0,0-1,1v5.485l2-2V10A1,1,0,0,0,42,9Z" fill="#c8c8c8"></path><path d="M34,11a1,1,0,0,0,1-1V4.515l-2,2V10A1,1,0,0,0,34,11Z" fill="#c8c8c8"></path></g></svg>