<svg xmlns="http://www.w3.org/2000/svg" height="48" width="48" viewBox="0 0 48 48"><title>nail polish</title><g class="nc-icon-wrapper"><path d="M23,20.5A10.5,10.5,0,0,0,12.3,10,10.729,10.729,0,0,0,2,20.848V45a1,1,0,0,0,1,1H22a1,1,0,0,0,1-1Z" fill="#fbe5d5"></path><path d="M15,40H10a1,1,0,0,1,0-2h5a1,1,0,0,1,0,2Zm0-4H10a1,1,0,0,1,0-2h5a1,1,0,0,1,0,2Z" fill="#f8d4b9"></path><path d="M12.5,7A10.455,10.455,0,0,0,5.307,9.857,1,1,0,0,0,5,10.589V22a5,5,0,0,0,5,5h5a5,5,0,0,0,5-5V10.589a1,1,0,0,0-.307-.732A10.455,10.455,0,0,0,12.5,7Z" fill="#ea5da3"></path><path d="M9,7.612a10.406,10.406,0,0,0-2,.961V21a1,1,0,0,0,2,0Z" fill="#fbb7d9"></path><path d="M46,15.5A10.5,10.5,0,0,0,35.3,5,10.729,10.729,0,0,0,25,15.848V45a1,1,0,0,0,1,1H45a1,1,0,0,0,1-1Z" fill="#fbe5d5"></path><path d="M38,35H33a1,1,0,0,1,0-2h5a1,1,0,0,1,0,2Zm0-4H33a1,1,0,0,1,0-2h5a1,1,0,0,1,0,2Z" fill="#f8d4b9"></path><path d="M35.5,2a10.455,10.455,0,0,0-7.193,2.857A1,1,0,0,0,28,5.589V17a5,5,0,0,0,5,5h5a5,5,0,0,0,5-5V5.589a1,1,0,0,0-.307-.732A10.455,10.455,0,0,0,35.5,2Z" fill="#ea5da3"></path><path d="M32,2.612a10.406,10.406,0,0,0-2,.961V16a1,1,0,0,0,2,0Z" fill="#fbb7d9"></path></g></svg>