<svg xmlns="http://www.w3.org/2000/svg" height="48" width="48" viewBox="0 0 48 48"><title>neck duster</title><g class="nc-icon-wrapper"><path d="M30,20H18a1,1,0,0,1-.919-.606l-6-14a1,1,0,0,1,.448-1.276A25.48,25.48,0,0,1,24,1,25.48,25.48,0,0,1,36.471,4.118a1,1,0,0,1,.448,1.276l-6,14A1,1,0,0,1,30,20Z" fill="#212121"></path><path d="M29.651,47h-11.3a.993.993,0,0,1-.629-.223,9.994,9.994,0,0,1-1.954-13.452C16.9,31.6,16.994,29.61,17,27.376V20a1,1,0,0,1,1-1H30a1,1,0,0,1,1,1v7.378c.006,2.232.1,4.223,1.234,5.947A9.994,9.994,0,0,1,30.28,46.777.993.993,0,0,1,29.651,47Z" fill="#bf8c5a"></path><path d="M28,12a1.017,1.017,0,0,1-.243-.03,1,1,0,0,1-.728-1.212L29.1,2.466a1,1,0,1,1,1.939.484L28.97,11.242A1,1,0,0,1,28,12Z" fill="#4c4c4c"></path><path d="M30,29H18a1,1,0,0,1-1-1V20a1,1,0,0,1,1-1H30a1,1,0,0,1,1,1v8A1,1,0,0,1,30,29Z" fill="#4c4c4c"></path></g></svg>