<svg xmlns="http://www.w3.org/2000/svg" height="48" width="48" viewBox="0 0 48 48"><title>perfume</title><g class="nc-icon-wrapper"><rect x="21" y="1" width="10" height="17" rx="1" fill="#4c4c4c"></rect><path d="M43,8H40a1,1,0,0,1,0-2h3a1,1,0,0,1,0,2Z" fill="#ffd764"></path><path d="M38,3a1,1,0,0,1-.316-1.948l3-1a1,1,0,0,1,.632,1.9l-3,1A1,1,0,0,1,38,3Z" fill="#ffd764"></path><path d="M41,14a1,1,0,0,1-.316-.051l-3-1a1,1,0,0,1,.632-1.9l3,1A1,1,0,0,1,41,14Z" fill="#ffd764"></path><path d="M36,47H16a5.006,5.006,0,0,1-5-5V30a15,15,0,0,1,30,0V42A5.006,5.006,0,0,1,36,47Z" fill="#e3e3e3"></path><path d="M16,45H36a3,3,0,0,0,3-3V30.183a15.047,15.047,0,0,0-13.515.952A13.022,13.022,0,0,1,13,31.584V42A3,3,0,0,0,16,45Z" fill="#f7bf26"></path><path d="M21,6.788a24.039,24.039,0,0,0-8.7,4.006,6,6,0,1,0-7.579,9.072,6.084,6.084,0,0,0,1.1.5.984.984,0,0,0,.32.052,1,1,0,0,0,.866-.5l.449-.778A22.009,22.009,0,0,1,21,8.84Z" fill="#363636"></path><path d="M33,5H31V9h2a1,1,0,0,0,1-1V6A1,1,0,0,0,33,5Z" fill="#363636"></path></g></svg>