<svg xmlns="http://www.w3.org/2000/svg" height="48" width="48" viewBox="0 0 48 48"><title>razor</title><g class="nc-icon-wrapper"><path d="M18.963,25.3l4.942-4.943c2.828-2.828,1.414-7.071,1.414-7.071l9.4,9.4s-4.243-1.414-7.071,1.414l-4.943,4.942Z" fill="#aeaeae"></path><path d="M38.509,27.491A.993.993,0,0,1,37.8,27.2l-17-17a1,1,0,0,1,0-1.414l6.647-6.647a1,1,0,0,1,1.414,0l17,17a1,1,0,0,1,0,1.414L39.216,27.2A.993.993,0,0,1,38.509,27.491Z" fill="#e3e3e3"></path><path d="M7.646,46a5.646,5.646,0,0,1-3.992-9.639L16.842,23.174a1,1,0,0,1,1.414,0l6.57,6.57a1,1,0,0,1,0,1.414L11.639,44.346A5.61,5.61,0,0,1,7.646,46Z" fill="#f7bf26"></path><rect x="32.332" y="1.647" width="2" height="26.041" transform="translate(-0.609 27.865) rotate(-45)" fill="#aeaeae"></rect></g></svg>