<svg xmlns="http://www.w3.org/2000/svg" height="48" width="48" viewBox="0 0 48 48"><title>sauna</title><g class="nc-icon-wrapper"><path d="M4,34H44a0,0,0,0,1,0,0V44a1,1,0,0,1-1,1H5a1,1,0,0,1-1-1V34A0,0,0,0,1,4,34Z" fill="#a2703f"></path><path d="M30,34V19.781L33.077,30.55A2,2,0,0,0,35,32a2.027,2.027,0,0,0,.96-.245,2.081,2.081,0,0,0,.932-2.416L33.337,16.9A4,4,0,0,0,29.491,14H18.509a4,4,0,0,0-3.846,2.9L11.077,29.45a2,2,0,0,0,1.576,2.52,2.077,2.077,0,0,0,2.3-1.53L18,19.781V34Z" fill="#3d6c7b"></path><path d="M46,33a1,1,0,0,0-1-1H3a1,1,0,0,0,0,2H45a1,1,0,0,0,1-1Z" fill="#bf8c5a"></path><path d="M24,12a5.5,5.5,0,1,1,5.5-5.5A5.507,5.507,0,0,1,24,12Z" fill="#3d6c7b"></path><path d="M3.96,23a1,1,0,0,1-.729-1.686,2.563,2.563,0,0,0,.032-3.639,4.583,4.583,0,0,1,.049-6.361,1,1,0,1,1,1.457,1.372,2.563,2.563,0,0,0-.032,3.639,4.583,4.583,0,0,1-.049,6.361A1,1,0,0,1,3.96,23Z" fill="#e3e3e3"></path><path d="M8.96,14a1,1,0,0,1-.729-1.686,2.563,2.563,0,0,0,.032-3.639,4.583,4.583,0,0,1,.049-6.361A1,1,0,1,1,9.769,3.686a2.563,2.563,0,0,0-.032,3.639,4.583,4.583,0,0,1-.049,6.361A1,1,0,0,1,8.96,14Z" fill="#e3e3e3"></path><path d="M43.96,23a1,1,0,0,1-.729-1.686,2.563,2.563,0,0,0,.032-3.639,4.583,4.583,0,0,1,.049-6.361,1,1,0,1,1,1.457,1.372,2.563,2.563,0,0,0-.032,3.639,4.583,4.583,0,0,1-.049,6.361A1,1,0,0,1,43.96,23Z" fill="#e3e3e3"></path><path d="M37.96,14a1,1,0,0,1-.729-1.686,2.563,2.563,0,0,0,.032-3.639,4.583,4.583,0,0,1,.049-6.361,1,1,0,1,1,1.457,1.372,2.563,2.563,0,0,0-.032,3.639,4.583,4.583,0,0,1-.049,6.361A1,1,0,0,1,37.96,14Z" fill="#e3e3e3"></path><path d="M20.5,30A2.5,2.5,0,0,0,18,32.5v12a2.5,2.5,0,0,0,5,0v-12A2.5,2.5,0,0,0,20.5,30Z" fill="#6ca5b7"></path><path d="M27.5,30A2.5,2.5,0,0,0,25,32.5v12a2.5,2.5,0,0,0,5,0v-12A2.5,2.5,0,0,0,27.5,30Z" fill="#6ca5b7"></path></g></svg>