<svg xmlns="http://www.w3.org/2000/svg" height="48" width="48" viewBox="0 0 48 48"><title>scented candle</title><g class="nc-icon-wrapper"><path d="M24,18C11.85,18,2,21.806,2,26.5v13C2,44.194,11.85,48,24,48s22-3.806,22-8.5v-13C46,21.806,36.15,18,24,18Z" fill="#e3e3e3" fill-rule="evenodd"></path><ellipse cx="24" cy="26.5" rx="22" ry="8.5" fill="#e3e3e3"></ellipse><ellipse cx="24" cy="26.5" rx="20" ry="6.5" fill="#c8c8c8"></ellipse><ellipse cx="24" cy="26.5" rx="14" ry="3.5" fill="#e3e3e3"></ellipse><path d="M16,14a8,8,0,0,0,16,0c0-4.418-3-10-9.5-13C22,8,16,8,16,14Z" fill="#ee7c2f"></path><path d="M28,16a4,4,0,0,1-8,0c0-3,3-3,4-7A8.4,8.4,0,0,1,28,16Z" fill="#ffd764"></path><path d="M24,27a1,1,0,0,1-1-1V17a1,1,0,0,1,2,0v9A1,1,0,0,1,24,27Z" fill="#444"></path></g></svg>