<svg xmlns="http://www.w3.org/2000/svg" height="48" width="48" viewBox="0 0 48 48"><title>scissors 2</title><g class="nc-icon-wrapper"><path d="M32.188,1.017a1,1,0,0,0-1.136.666L20.079,34.592a5.495,5.495,0,0,0-9.907,1.253L8.854,39.8l0,.011a5.5,5.5,0,0,0,10.43,3.5l5.448-16.35a8,8,0,0,0,7.257-7.505L33,2.057A1,1,0,0,0,32.188,1.017Zm-14.8,41.65a3.5,3.5,0,0,1-6.637-2.236l1.323-3.972a3.5,3.5,0,1,1,6.68,2.1Z" fill="#aeaeae"></path><path d="M39.149,39.815l-1.315-3.95a5.495,5.495,0,0,0-9.913-1.273L16.948,1.683A1,1,0,0,0,15,2.057l1.012,17.4a8,8,0,0,0,7.257,7.506l5.455,16.369a5.5,5.5,0,0,0,10.423-3.52ZM33.912,45a3.5,3.5,0,0,1-3.295-2.315l-1.37-4.116a3.5,3.5,0,1,1,6.683-2.091l1.317,3.953A3.506,3.506,0,0,1,33.912,45Z" fill="#aeaeae"></path><path d="M23.271,26.966c-.21-.018-.416-.049-.621-.084l-.758,2.273,1.054,3.163L24,29.156Z" fill="#949494"></path><circle cx="24" cy="26" r="1" fill="#444"></circle></g></svg>