<svg xmlns="http://www.w3.org/2000/svg" height="48" width="48" viewBox="0 0 48 48"><title>spa rocks</title><g class="nc-icon-wrapper"><path d="M18.146,34C6.769,34,1,31.813,1,27.5S6.769,21,18.146,21C31.83,21,40,23.43,40,27.5S31.83,34,18.146,34Z" fill="#636363"></path><path d="M25,22c-9.585,0-13-2.841-13-5.5,0-2.054,1.58-5.5,12.16-5.5C30.823,11,42,11.714,42,16.5,42,21.046,32.755,22,25,22Z" fill="#7b7b7b"></path><path d="M22.5,12C17.733,12,14,9.584,14,6.5S17.733,1,22.5,1,31,3.416,31,6.5,27.267,12,22.5,12Z" fill="#aeaeae"></path><path d="M23.777,47C8.258,47,5,43.193,5,40c0-7,14.133-7,18.777-7C38.753,33,47,35.438,47,39.863,47,44.4,38.536,47,23.777,47Z" fill="#4c4c4c"></path></g></svg>