<svg xmlns="http://www.w3.org/2000/svg" height="48" width="48" viewBox="0 0 48 48"><title>towel hanger</title><g class="nc-icon-wrapper"><path d="M41,3h5a1,1,0,0,1,0,2H41Z" fill="#363636"></path><rect x="9" y="36" width="32" height="2" fill="#ddc2a7"></rect><rect x="9" y="30" width="32" height="2" fill="#ddc2a7"></rect><path d="M8,3A1,1,0,0,0,7,4V38H9V4A1,1,0,0,0,8,3Z" fill="#c8c8c8"></path><path d="M38,1H8A3,3,0,0,0,5,4V37a1,1,0,0,0,1,1H7V4A1,1,0,0,1,9,4V46a1,1,0,0,0,2,0V45h3v1a1,1,0,0,0,2,0V45h3v1a1,1,0,0,0,2,0V45h3v1a1,1,0,0,0,2,0V45h3v1a1,1,0,0,0,2,0V45h3v1a1,1,0,0,0,2,0V45h3v1a1,1,0,0,0,2,0V4A3,3,0,0,0,38,1Z" fill="#e3e3e3"></path><path d="M9,4A1,1,0,0,0,8,3H2A1,1,0,0,0,2,5H9Z" fill="#363636"></path><rect x="9" y="36" width="32" height="2" fill="#ada8fa"></rect><rect x="9" y="31" width="32" height="2" fill="#ada8fa"></rect><path d="M9,43v3a1,1,0,0,0,2,0V45h3v1a1,1,0,0,0,2,0V45h3v1a1,1,0,0,0,2,0V45h3v1a1,1,0,0,0,2,0V45h3v1a1,1,0,0,0,2,0V45h3v1a1,1,0,0,0,2,0V45h3v1a1,1,0,0,0,2,0V43Z" fill="#c8c8c8"></path></g></svg>