<svg xmlns="http://www.w3.org/2000/svg" height="48" width="48" viewBox="0 0 48 48"><title>travel makeup mirror</title><g class="nc-icon-wrapper"><path d="M24,35A17,17,0,1,1,41,18,17.019,17.019,0,0,1,24,35Z" fill="#ffd764"></path><circle cx="24" cy="18" r="15" fill="#a0e6ee"></circle><path d="M27.707,21.707a1,1,0,0,1-1.414-1.414l8.889-8.89A12.982,12.982,0,0,0,11.891,22.7l8.4-8.4a1,1,0,0,1,1.414,1.414L12.818,24.6A12.982,12.982,0,0,0,36.109,13.305Z" fill="#d1faf0"></path><path d="M24,33c-2.839,0-17,.192-17,4v6c0,3.808,14.161,4,17,4s17-.192,17-4V37C41,33.192,26.839,33,24,33Z" fill="#f7bf26"></path><path d="M38.847,37c-1.118-.768-6.13-2-14.847-2S10.271,36.232,9.153,37c.888.609,4.233,1.511,9.935,1.857a1.013,1.013,0,0,1,.778.442l.837,1.256a1,1,0,0,0,.832.445h4.93a1,1,0,0,0,.832-.445l.837-1.256a1.013,1.013,0,0,1,.778-.442C34.614,38.511,37.959,37.609,38.847,37Z" fill="#eba40a"></path></g></svg>