<svg xmlns="http://www.w3.org/2000/svg" height="48" width="48" viewBox="0 0 48 48"><title>yoga</title><g class="nc-icon-wrapper"><path d="M46,39H2a1,1,0,0,0,0,2H46a1,1,0,0,0,0-2Z" fill="#c64692"></path> <circle cx="24" cy="10" r="5" fill="#5a7a84"></circle> <path d="M13,30a2.5,2.5,0,0,0-.86,4.848l5.616,2.059a2.5,2.5,0,0,0,3.1,3.441L24,39.2l3.14,1.152a2.5,2.5,0,0,0,3.1-3.441l5.616-2.059A2.5,2.5,0,0,0,35,30Z" fill="#5a7a84"></path> <path d="M30,22.828l3.586,3.586a2,2,0,0,0,2.663.148l5-4a2,2,0,1,0-2.5-3.124l-3.6,2.882-4.734-4.734A2,2,0,0,0,29,17H19a2,2,0,0,0-1.414.586L12.852,22.32l-3.6-2.882a2,2,0,1,0-2.5,3.124l5,4a2,2,0,0,0,2.663-.148L18,22.828V30H30Z" fill="#335262"></path></g></svg>