<svg xmlns="http://www.w3.org/2000/svg" height="24" width="24" viewBox="0 0 24 24"><g fill="#61616b" class="nc-icon-wrapper"><path d="M23.707,11.293l-4-4a1,1,0,1,0-1.414,1.414L20.586,11H13V3.414l2.293,2.293a1,1,0,0,0,1.414-1.414l-4-4a1,1,0,0,0-1.414,0l-4,4A1,1,0,1,0,8.707,5.707L11,3.414V11H3.414L5.707,8.707A1,1,0,1,0,4.293,7.293l-4,4a1,1,0,0,0,0,1.414l4,4a1,1,0,1,0,1.414-1.414L3.414,13H11v7.586L8.707,18.293a1,1,0,1,0-1.414,1.414l4,4a1,1,0,0,0,1.414,0l4-4a1,1,0,0,0-1.414-1.414L13,20.586V13h7.586l-2.293,2.293a1,1,0,1,0,1.414,1.414l4-4A1,1,0,0,0,23.707,11.293Z" fill="#61616b"></path></g></svg>