<svg xmlns="http://www.w3.org/2000/svg" height="24" width="24" viewBox="0 0 64 64"><g fill="#61616b" class="nc-icon-wrapper"><path d="M51.707,20.879a1,1,0,0,0-1.414,0l-1.414,1.414a1,1,0,0,0,0,1.414L55.172,30H34V8.828l6.293,6.293a1,1,0,0,0,1.414,0l1.414-1.414a1,1,0,0,0,0-1.414L32.707,1.879a1,1,0,0,0-1.414,0L20.879,12.293a1,1,0,0,0,0,1.414l1.414,1.414a1,1,0,0,0,1.414,0L30,8.828V30H8.828l6.293-6.293a1,1,0,0,0,0-1.414l-1.414-1.414a1,1,0,0,0-1.414,0L1.879,31.293a1,1,0,0,0,0,1.414L12.293,43.121a1,1,0,0,0,1.414,0l1.414-1.414a1,1,0,0,0,0-1.414L8.828,34H30V55.172l-6.293-6.293a1,1,0,0,0-1.414,0l-1.414,1.414a1,1,0,0,0,0,1.414L31.293,62.121a1,1,0,0,0,1.414,0L43.121,51.707a1,1,0,0,0,0-1.414l-1.414-1.414a1,1,0,0,0-1.414,0L34,55.172V34H55.172l-6.293,6.293a1,1,0,0,0,0,1.414l1.414,1.414a1,1,0,0,0,1.414,0L62.121,32.707a1,1,0,0,0,0-1.414Z" fill="#61616b"></path></g></svg>