<svg xmlns="http://www.w3.org/2000/svg" height="24" width="24" viewBox="0 0 32 32"><g fill="#61616b" class="nc-icon-wrapper"><path d="M26.707,10.293a1,1,0,0,0-1.414,1.414L28.586,15H17V3.414l3.293,3.293a1,1,0,0,0,1.414-1.414l-5-5a1,1,0,0,0-1.414,0l-5,5a1,1,0,0,0,1.414,1.414L15,3.414V15H3.414l3.293-3.293a1,1,0,0,0-1.414-1.414l-5,5a1,1,0,0,0,0,1.414l5,5a1,1,0,1,0,1.414-1.414L3.414,17H15V28.586l-3.293-3.293a1,1,0,0,0-1.414,1.414l5,5a1,1,0,0,0,1.414,0l5-5a1,1,0,0,0-1.414-1.414L17,28.586V17H28.586l-3.293,3.293a1,1,0,1,0,1.414,1.414l5-5a1,1,0,0,0,0-1.414Z" fill="#61616b"></path></g></svg>