<svg xmlns="http://www.w3.org/2000/svg" height="24" width="24" viewBox="0 0 64 64"><g fill="#61616b" class="nc-icon-wrapper"><path d="M57,42H48V7a3,3,0,0,0-6,0V42H33a1,1,0,0,0-.8,1.6l12,16a1,1,0,0,0,1.6,0l12-16A1,1,0,0,0,57,42Z" fill="#61616b"></path><path data-color="color-2" d="M21.382,4.667A1,1,0,0,0,20.439,4H15.378a1,1,0,0,0-.943.668L6.32,27.756a1,1,0,0,0,.943,1.332h3.556a1,1,0,0,0,.957-.709l1.6-5.238h9.11l1.594,5.238a1,1,0,0,0,.957.709h3.555a1,1,0,0,0,.943-1.333ZM14.7,18.7q2.669-8.629,3.23-10.818.136.617.453,1.676T21.215,18.7Z" fill="#61616b"></path><path data-color="color-2" d="M26.226,55.713H14.935L26.719,38.779a1.006,1.006,0,0,0,.179-.572V36.1a1,1,0,0,0-1-1H9.953a1,1,0,0,0-1,1v2.375a1,1,0,0,0,1,1H20.609L8.806,56.394a1,1,0,0,0-.18.572v2.122a1,1,0,0,0,1,1h16.6a1,1,0,0,0,1-1V56.713A1,1,0,0,0,26.226,55.713Z" fill="#61616b"></path></g></svg>