<svg xmlns="http://www.w3.org/2000/svg" height="24" width="24" viewBox="0 0 16 16"><g fill="#61616b" class="nc-icon-wrapper"><path d="M5.343.344A.5.5,0,0,0,4.868,0H3.08a.5.5,0,0,0-.475.345l-1.95,6A.5.5,0,0,0,1.13,7h1a.5.5,0,0,0,.483-.37l.253-.937H5.13l.245.934A.5.5,0,0,0,5.859,7h.98a.5.5,0,0,0,.475-.656Zm-2.089,3.8q.434-1.642.56-2.2t.169-.8c.034.175.1.465.2.868s.186.732.255.987l.3,1.149Z" fill="#61616b"></path><path d="M6.214,14.473H3.607l2.94-4.18a.5.5,0,0,0,.091-.287V9.5A.492.492,0,0,0,6.124,9H1.833a.5.5,0,0,0-.5.5v.531a.5.5,0,0,0,.5.5H4.292L1.352,14.7a.505.505,0,0,0-.091.289v.442A.53.53,0,0,0,1.829,16H6.214a.5.5,0,0,0,.5-.5v-.527A.5.5,0,0,0,6.214,14.473Z" fill="#61616b"></path><path data-color="color-2" d="M15.992,11.294A.5.5,0,0,0,15.536,11H13V1a1,1,0,0,0-2,0V11H8.464a.5.5,0,0,0-.374.831l3.535,4a.5.5,0,0,0,.75,0l3.535-4A.5.5,0,0,0,15.992,11.294Z" fill="#61616b"></path></g></svg>