<svg xmlns="http://www.w3.org/2000/svg" height="24" width="24" viewBox="0 0 16 16"><g fill="#61616b" class="nc-icon-wrapper"><path data-color="color-2" d="M11.955,4.707a.5.5,0,0,0-.079-.536l-3.5-4A.515.515,0,0,0,7.649.145L7.624.171l-3.5,4A.5.5,0,0,0,4.5,5H7V8A1,1,0,0,0,8,9H8A1,1,0,0,0,9,8V5h2.5A.5.5,0,0,0,11.955,4.707Z" fill="#61616b"></path><path d="M14,0H12a1,1,0,0,0,0,2h2v8H2V2H4A1,1,0,0,0,4,0H2A2,2,0,0,0,0,2V14a2,2,0,0,0,2,2H14a2,2,0,0,0,2-2V2A2,2,0,0,0,14,0Zm0,14H2V12H14Z" fill="#61616b"></path></g></svg>