<svg xmlns="http://www.w3.org/2000/svg" height="24" width="24" viewBox="0 0 16 16"><g fill="#61616b" class="nc-icon-wrapper"><path data-color="color-2" d="M4.045,4.293a.5.5,0,0,0,.079.536l3.5,4a.514.514,0,0,0,.726.026l.026-.026,3.5-4A.5.5,0,0,0,11.5,4H9V1A1,1,0,0,0,8,0H8A1,1,0,0,0,7,1V4H4.5A.5.5,0,0,0,4.045,4.293Z" fill="#61616b"></path><path d="M14,0H12a1,1,0,0,0,0,2h2v8H2V2H4A1,1,0,0,0,4,0H2A2,2,0,0,0,0,2V14a2,2,0,0,0,2,2H14a2,2,0,0,0,2-2V2A2,2,0,0,0,14,0Zm0,14H2V12H14Z" fill="#61616b"></path></g></svg>