<svg xmlns="http://www.w3.org/2000/svg" height="24" width="24" viewBox="0 0 48 48"><g fill="#61616b" class="nc-icon-wrapper"><path d="M3,12h7v5a1,1,0,0,0,.561.9A.984.984,0,0,0,11,18a1,1,0,0,0,.614-.211l9-7a1,1,0,0,0,0-1.578l-9-7A1,1,0,0,0,10,3V8H3a2,2,0,0,0,0,4Z" fill="#61616b"></path><path data-color="color-2" d="M37.614,16.211A1,1,0,0,0,36,17v5H3a2,2,0,0,0,0,4H36v5a1,1,0,0,0,.561.9A.984.984,0,0,0,37,32a1,1,0,0,0,.614-.211l9-7a1,1,0,0,0,0-1.578Z" fill="#61616b"></path><path d="M25.614,30.211A1,1,0,0,0,24,31v5H3a2,2,0,0,0,0,4H24v5a1,1,0,0,0,.561.9A.984.984,0,0,0,25,46a1,1,0,0,0,.614-.211l9-7a1,1,0,0,0,0-1.578Z" fill="#61616b"></path></g></svg>