<svg xmlns="http://www.w3.org/2000/svg" height="24" width="24" viewBox="0 0 16 16"><g fill="#61616b" class="nc-icon-wrapper"><path data-color="color-2" d="M15.691,9.038a.5.5,0,0,0-.545.108l-2.292,2.293L10.707,9.293a1,1,0,0,0-1.414,1.414l2.146,2.147L9.146,15.146A.5.5,0,0,0,9.5,16h6a.5.5,0,0,0,.5-.5v-6A.5.5,0,0,0,15.691,9.038Z" fill="#61616b"></path><path d="M4.561,3.146,6.854.854A.5.5,0,0,0,6.5,0H.5A.5.5,0,0,0,0,.5v6a.5.5,0,0,0,.309.462A.512.512,0,0,0,.5,7a.5.5,0,0,0,.354-.146L3.146,4.561,5.293,6.707A1,1,0,0,0,6.707,5.293Z" fill="#61616b"></path></g></svg>