<svg xmlns="http://www.w3.org/2000/svg" height="24" width="24" viewBox="0 0 32 32"><g fill="#61616b" class="nc-icon-wrapper"><path d="M2,8H9v4a1,1,0,0,0,.576.9A.989.989,0,0,0,10,13a1,1,0,0,0,.64-.231l6-5a1,1,0,0,0,0-1.538l-6-5A1,1,0,0,0,9,2V6H2A1,1,0,0,0,2,8Z" fill="#61616b"></path><polygon points="9.502 13 9.495 13 9.499 13.001 9.502 13" fill="#61616b"></polygon><polygon points="14.499 31.001 14.502 31 14.495 31 14.499 31.001" fill="#61616b"></polygon><path data-color="color-2" d="M24.64,10.231A1,1,0,0,0,23,11v4H2a1,1,0,0,0,0,2H23v4a1,1,0,0,0,.576.905A.989.989,0,0,0,24,22a1,1,0,0,0,.64-.231l6-5a1,1,0,0,0,0-1.538Z" fill="#61616b"></path><path d="M15.64,19.231A1,1,0,0,0,14,20v4H2a1,1,0,0,0,0,2H14v4a1,1,0,0,0,.576.905A.989.989,0,0,0,15,31a1,1,0,0,0,.64-.231l6-5a1,1,0,0,0,0-1.538Z" fill="#61616b"></path></g></svg>