<svg xmlns="http://www.w3.org/2000/svg" height="24" width="24" viewBox="0 0 64 64"><g fill="#61616b" class="nc-icon-wrapper"><path d="M18.121,15.293l6.586-6.586A1,1,0,0,0,24.2,7.02l-20-4A1,1,0,0,0,3.02,4.2l4,20a1,1,0,0,0,1.687.511l6.586-6.586,8.293,8.293a2,2,0,0,0,2.828-2.828Z" fill="#61616b"></path><path data-color="color-2" d="M56.98,39.8a1,1,0,0,0-1.687-.511l-6.586,6.586-8.293-8.293a2,2,0,0,0-2.828,2.828l8.293,8.293-6.586,6.586A1,1,0,0,0,39.8,56.98l20,4A1,1,0,0,0,60.98,59.8Z" fill="#61616b"></path></g></svg>