<svg xmlns="http://www.w3.org/2000/svg" height="24" width="24" viewBox="0 0 24 24"><g fill="#61616b" class="nc-icon-wrapper"><path data-color="color-2" d="M9.293,13.293,5.5,17.086,2.707,14.293A1,1,0,0,0,1,15v7a1,1,0,0,0,1,1H9a1,1,0,0,0,.707-1.707L6.914,18.5l3.793-3.793a1,1,0,0,0-1.414-1.414Z" fill="#61616b"></path><path d="M22,1H15a1,1,0,0,0-.707,1.707L17.086,5.5,13.293,9.293a1,1,0,1,0,1.414,1.414L18.5,6.914l2.793,2.793A1,1,0,0,0,22,10a.987.987,0,0,0,.383-.076A1,1,0,0,0,23,9V2A1,1,0,0,0,22,1Z" fill="#61616b"></path></g></svg>