<svg xmlns="http://www.w3.org/2000/svg" height="24" width="24" viewBox="0 0 24 24"><g fill="#61616b" class="nc-icon-wrapper"><path data-color="color-2" d="M22.383,14.076a.993.993,0,0,0-1.09.217L18.5,17.086l-3.793-3.793a1,1,0,0,0-1.414,1.414L17.086,18.5l-2.793,2.793A1,1,0,0,0,15,23h7a1,1,0,0,0,1-1V15A1,1,0,0,0,22.383,14.076Z" fill="#61616b"></path><path d="M6.914,5.5,9.707,2.707A1,1,0,0,0,9,1H2A1,1,0,0,0,1,2V9a1,1,0,0,0,.617.924A.987.987,0,0,0,2,10a1,1,0,0,0,.707-.293L5.5,6.914l3.793,3.793a1,1,0,0,0,1.414-1.414Z" fill="#61616b"></path></g></svg>