<svg xmlns="http://www.w3.org/2000/svg" height="24" width="24" viewBox="0 0 64 64"><g fill="#61616b" class="nc-icon-wrapper"><path d="M15.458,23.11a1,1,0,0,0-1.039.077l-14,10a1,1,0,0,0,0,1.626l14,10A.988.988,0,0,0,15,45a1.019,1.019,0,0,0,.458-.11A1,1,0,0,0,16,44V24A1,1,0,0,0,15.458,23.11Z" fill="#61616b"></path><path d="M63.581,33.187l-14-10A1,1,0,0,0,48,24V44a1,1,0,0,0,1,1,.988.988,0,0,0,.581-.187l14-10a1,1,0,0,0,0-1.626Z" fill="#61616b"></path><circle data-color="color-2" cx="32" cy="34" r="10" fill="#61616b"></circle></g></svg>