<svg xmlns="http://www.w3.org/2000/svg" height="24" width="24" viewBox="0 0 32 32"><g fill="#61616b" class="nc-icon-wrapper"><path data-color="color-2" d="M30.383,20.076a.993.993,0,0,0-1.09.217L25.5,24.086l-4.793-4.793a1,1,0,0,0-1.414,1.414L24.086,25.5l-3.793,3.793A1,1,0,0,0,21,31h9a1,1,0,0,0,1-1V21A1,1,0,0,0,30.383,20.076Z" fill="#61616b"></path><path d="M7.914,6.5l3.793-3.793A1,1,0,0,0,11,1H2A1,1,0,0,0,1,2v9a1,1,0,0,0,.617.924A.987.987,0,0,0,2,12a1,1,0,0,0,.707-.293L6.5,7.914l4.793,4.793a1,1,0,0,0,1.414-1.414Z" fill="#61616b"></path></g></svg>