<svg xmlns="http://www.w3.org/2000/svg" height="24" width="24" viewBox="0 0 32 32"><g fill="#61616b" class="nc-icon-wrapper"><path d="M30,1H21a1,1,0,0,0-.707,1.707L24.086,6.5l-4.793,4.793a1,1,0,1,0,1.414,1.414L25.5,7.914l3.793,3.793A1,1,0,0,0,30,12a.987.987,0,0,0,.383-.076A1,1,0,0,0,31,11V2A1,1,0,0,0,30,1Z" fill="#61616b"></path><path data-color="color-2" d="M11.293,19.293,6.5,24.086,2.707,20.293A1,1,0,0,0,1,21v9a1,1,0,0,0,1,1h9a1,1,0,0,0,.707-1.707L7.914,25.5l4.793-4.793a1,1,0,0,0-1.414-1.414Z" fill="#61616b"></path></g></svg>