<svg xmlns="http://www.w3.org/2000/svg" height="24" width="24" viewBox="0 0 64 64"><g fill="#61616b" class="nc-icon-wrapper"><path d="M59.8,3.02l-20,4a1,1,0,0,0-.511,1.687l6.586,6.586-8.293,8.293a2,2,0,1,0,2.828,2.828l8.293-8.293,6.586,6.586A1,1,0,0,0,56.98,24.2l4-20A1,1,0,0,0,59.8,3.02Z" fill="#61616b"></path><path data-color="color-2" d="M23.586,37.586l-8.293,8.293L8.707,39.293A1,1,0,0,0,7.02,39.8l-4,20A1,1,0,0,0,4.2,60.98l20-4a1,1,0,0,0,.511-1.687l-6.586-6.586,8.293-8.293a2,2,0,0,0-2.828-2.828Z" fill="#61616b"></path></g></svg>