<svg xmlns="http://www.w3.org/2000/svg" height="24" width="24" viewBox="0 0 64 64"><g fill="#61616b" class="nc-icon-wrapper"><path d="M4,16H18v7a1,1,0,0,0,1.541.841l14-9a1,1,0,0,0,0-1.682l-14-9A1,1,0,0,0,18,5v7H4a2,2,0,0,0,0,4Z" fill="#61616b"></path><path data-color="color-2" d="M61.541,31.159l-14-9A1,1,0,0,0,46,23v7H4a2,2,0,1,0,0,4H46v7a1,1,0,0,0,1.541.841l14-9a1,1,0,0,0,0-1.682Z" fill="#61616b"></path><path d="M43.541,49.159l-14-9A1,1,0,0,0,28,41v7H4a2,2,0,0,0,0,4H28v7a1,1,0,0,0,1.541.841l14-9a1,1,0,0,0,0-1.682Z" fill="#61616b"></path></g></svg>