<svg xmlns="http://www.w3.org/2000/svg" height="24" width="24" viewBox="0 0 24 24"><g fill="#61616b" class="nc-icon-wrapper"><path data-color="color-2" d="M18.787,8.091A.5.5,0,0,0,18,8.5V11H1a1,1,0,0,0,0,2H18v2.5a.5.5,0,0,0,.5.5.494.494,0,0,0,.287-.091l5-3.5a.5.5,0,0,0,0-.818Z" fill="#61616b"></path><path d="M17,19a.5.5,0,0,0-.213-.409l-5-3.5A.5.5,0,0,0,11,15.5V18H1a1,1,0,0,0,0,2H11v2.5a.5.5,0,0,0,.5.5.494.494,0,0,0,.287-.091l5-3.5A.5.5,0,0,0,17,19Z" fill="#61616b"></path><path d="M1,6H5V8.5a.5.5,0,0,0,.5.5.494.494,0,0,0,.287-.091l5-3.5a.5.5,0,0,0,0-.818l-5-3.5A.5.5,0,0,0,5,1.5V4H1A1,1,0,0,0,1,6Z" fill="#61616b"></path></g></svg>