<svg xmlns="http://www.w3.org/2000/svg" height="24" width="24" viewBox="0 0 16 16"><g fill="#61616b" class="nc-icon-wrapper"><path data-color="color-2" d="M6.707,9.293a1,1,0,0,0-1.414,0L3.146,11.439.854,9.146a.506.506,0,0,0-.545-.108A.5.5,0,0,0,0,9.5v6a.5.5,0,0,0,.5.5h6a.5.5,0,0,0,.354-.854L4.561,12.854l2.146-2.147A1,1,0,0,0,6.707,9.293Z" fill="#61616b"></path><path d="M15.5,0h-6a.5.5,0,0,0-.354.854l2.293,2.292L9.293,5.293a1,1,0,1,0,1.414,1.414l2.147-2.146,2.292,2.293A.5.5,0,0,0,15.5,7a.512.512,0,0,0,.191-.038A.5.5,0,0,0,16,6.5V.5A.5.5,0,0,0,15.5,0Z" fill="#61616b"></path></g></svg>