<svg xmlns="http://www.w3.org/2000/svg" height="24" width="24" viewBox="0 0 48 48"><g fill="#61616b" class="nc-icon-wrapper"><path fill="#61616b" d="M37,32c-0.15,0-0.3-0.033-0.439-0.102C36.218,31.73,36,31.382,36,31V17c0-0.382,0.218-0.73,0.561-0.898 c0.343-0.169,0.752-0.126,1.053,0.109l9,7C46.857,23.4,47,23.691,47,24s-0.143,0.6-0.386,0.789l-9,7C37.435,31.929,37.218,32,37,32z "></path> <path fill="#61616b" d="M11,32c0.15,0,0.3-0.033,0.439-0.102C11.782,31.73,12,31.382,12,31V17c0-0.382-0.218-0.73-0.561-0.898 c-0.343-0.169-0.752-0.126-1.053,0.109l-9,7C1.143,23.4,1,23.691,1,24s0.143,0.6,0.386,0.789l9,7C10.565,31.929,10.782,32,11,32z"></path> <path data-color="color-2" fill="#61616b" d="M24,32c-4.411,0-8-3.589-8-8s3.589-8,8-8s8,3.589,8,8S28.411,32,24,32z"></path></g></svg>