<svg xmlns="http://www.w3.org/2000/svg" height="24" width="24" viewBox="0 0 32 32"><g fill="#61616b" class="nc-icon-wrapper"><path d="M30,1H2A1,1,0,0,0,2,3H30a1,1,0,0,0,0-2Z" fill="#61616b"></path><path d="M30,11H21a1,1,0,0,0,0,2h9a1,1,0,0,0,0-2Z" fill="#61616b"></path><path d="M12,12a1,1,0,0,0-1-1H2a1,1,0,0,0,0,2h9A1,1,0,0,0,12,12Z" fill="#61616b"></path><path data-color="color-2" d="M23,20H17V7a1,1,0,0,0-2,0V20H9a1,1,0,0,0-.789,1.614l7,9a1,1,0,0,0,1.578,0l7-9A1,1,0,0,0,23,20Z" fill="#61616b"></path></g></svg>