<svg xmlns="http://www.w3.org/2000/svg" height="24" width="24" viewBox="0 0 12 12"><g fill="#61616b" class="nc-icon-wrapper"><rect y="4" width="3" height="2" rx="0.5" fill="#61616b"></rect><rect x="9" y="4" width="3" height="2" rx="0.5" fill="#61616b"></rect><rect width="12" height="2" rx="0.5" fill="#61616b"></rect><path data-color="color-2" d="M6.5,4h-1a.5.5,0,0,0-.5.5V8H3.5a.5.5,0,0,0-.384.82l2.5,3a.5.5,0,0,0,.768,0l2.5-3A.5.5,0,0,0,8.5,8H7V4.5A.5.5,0,0,0,6.5,4Z" fill="#61616b"></path></g></svg>