<svg xmlns="http://www.w3.org/2000/svg" height="24" width="24" viewBox="0 0 64 64"><g fill="#61616b" class="nc-icon-wrapper"><path data-color="color-2" d="M44,43H35V14a3,3,0,0,0-6,0V43H20a1,1,0,0,0-.8,1.6l12,16a1.036,1.036,0,0,0,1.6,0l12-16A1,1,0,0,0,44,43Z" fill="#61616b"></path><path d="M4,5H60a1,1,0,0,0,0-2H4A1,1,0,0,0,4,5Z" fill="#61616b"></path><path d="M60,23H42a1,1,0,0,0,0,2H60a1,1,0,0,0,0-2Z" fill="#61616b"></path><path d="M23,24a1,1,0,0,0-1-1H4a1,1,0,0,0,0,2H22A1,1,0,0,0,23,24Z" fill="#61616b"></path></g></svg>