<svg xmlns="http://www.w3.org/2000/svg" height="24" width="24" viewBox="0 0 32 32"><g fill="#61616b" class="nc-icon-wrapper"><path d="M27,1H5A4,4,0,0,0,1,5V27a4,4,0,0,0,4,4H27a4,4,0,0,0,4-4V5A4,4,0,0,0,27,1ZM11.962,26.691A.5.5,0,0,1,11.5,27h-6a.5.5,0,0,1-.5-.5v-6a.5.5,0,0,1,.854-.354l6,6A.5.5,0,0,1,11.962,26.691ZM11.854,5.854l-6,6A.5.5,0,0,1,5.5,12a.5.5,0,0,1-.5-.5v-6A.5.5,0,0,1,5.5,5h6a.5.5,0,0,1,.354.854ZM27,26.5a.5.5,0,0,1-.5.5h-6a.5.5,0,0,1-.354-.854l6-6A.5.5,0,0,1,27,20.5Zm0-15a.5.5,0,0,1-.854.354l-6-6A.5.5,0,0,1,20.5,5h6a.5.5,0,0,1,.5.5Z" fill="#61616b"></path></g></svg>