<svg xmlns="http://www.w3.org/2000/svg" height="24" width="24" viewBox="0 0 48 48"><g fill="#61616b" class="nc-icon-wrapper"><path d="M40,3H8A5.006,5.006,0,0,0,3,8V40a5.006,5.006,0,0,0,5,5H40a5.006,5.006,0,0,0,5-5V8A5.006,5.006,0,0,0,40,3ZM20,37a1,1,0,0,1,0,2H10a1,1,0,0,1-1-1V28a1,1,0,0,1,2,0v7.586l8.293-8.293a1,1,0,0,1,1.414,1.414L12.414,37Zm.707-17.707a1,1,0,1,1-1.414,1.414L11,12.414V20a1,1,0,0,1-2,0V10a1,1,0,0,1,1-1H20a1,1,0,0,1,0,2H12.414ZM39,38a1,1,0,0,1-1,1H28a1,1,0,0,1,0-2h7.586l-8.293-8.293a1,1,0,0,1,1.414-1.414L37,35.586V28a1,1,0,0,1,2,0Zm0-18a1,1,0,0,1-2,0V12.414l-8.293,8.293a1,1,0,0,1-1.414-1.414L35.586,11H28a1,1,0,0,1,0-2H38a1,1,0,0,1,1,1Z" fill="#61616b"></path></g></svg>