<svg xmlns="http://www.w3.org/2000/svg" height="24" width="24" viewBox="0 0 64 64"><g fill="#61616b" class="nc-icon-wrapper"><path d="M54,4H10a6.006,6.006,0,0,0-6,6V54a6.006,6.006,0,0,0,6,6H54a6.006,6.006,0,0,0,6-6V10A6.006,6.006,0,0,0,54,4ZM26.924,52.383A1,1,0,0,1,26,53H12a1,1,0,0,1-1-1V38a1,1,0,0,1,1.707-.707l14,14A1,1,0,0,1,26.924,52.383Zm-.217-39.676-14,14A1,1,0,0,1,12,27a.987.987,0,0,1-.383-.076A1,1,0,0,1,11,26V12a1,1,0,0,1,1-1H26a1,1,0,0,1,.707,1.707ZM53,52a1,1,0,0,1-1,1H38a1,1,0,0,1-.707-1.707l14-14A1,1,0,0,1,53,38Zm0-26a1,1,0,0,1-.617.924A.987.987,0,0,1,52,27a1,1,0,0,1-.707-.293l-14-14A1,1,0,0,1,38,11H52a1,1,0,0,1,1,1Z" fill="#61616b"></path></g></svg>