<svg xmlns="http://www.w3.org/2000/svg" height="24" width="24" viewBox="0 0 48 48"><g fill="#61616b" class="nc-icon-wrapper"><path d="M40,3H8A5.006,5.006,0,0,0,3,8V40a5.006,5.006,0,0,0,5,5H40a5.006,5.006,0,0,0,5-5V8A5.006,5.006,0,0,0,40,3ZM19.924,38.383A1,1,0,0,1,19,39H10a1,1,0,0,1-1-1V29a1,1,0,0,1,1.707-.707l9,9A1,1,0,0,1,19.924,38.383Zm-.217-27.676-9,9A1,1,0,0,1,10,20a.987.987,0,0,1-.383-.076A1,1,0,0,1,9,19V10a1,1,0,0,1,1-1h9a1,1,0,0,1,.707,1.707ZM39,38a1,1,0,0,1-1,1H29a1,1,0,0,1-.707-1.707l9-9A1,1,0,0,1,39,29Zm0-19a1,1,0,0,1-.617.924A.987.987,0,0,1,38,20a1,1,0,0,1-.707-.293l-9-9A1,1,0,0,1,29,9h9a1,1,0,0,1,1,1Z" fill="#61616b"></path></g></svg>