<svg xmlns="http://www.w3.org/2000/svg" height="24" width="24" viewBox="0 0 32 32"><g fill="#61616b" class="nc-icon-wrapper"><path d="M27,1H5A4,4,0,0,0,1,5V27a4,4,0,0,0,4,4H27a4,4,0,0,0,4-4V5A4,4,0,0,0,27,1ZM12,28H5a1,1,0,0,1-1-1V20a1,1,0,0,1,2,0v4.586l5.293-5.293a1,1,0,0,1,1.414,1.414L7.414,26H12a1,1,0,0,1,0,2Zm.732-15.293a1,1,0,0,1-1.414.025l-.025-.025L6,7.414V12a1,1,0,0,1-2,0V5A1,1,0,0,1,5,4h7a1,1,0,0,1,0,2H7.414l5.293,5.293A1,1,0,0,1,12.732,12.707ZM28,27a1,1,0,0,1-1,1H20a1,1,0,0,1,0-2h4.586l-5.293-5.293a1,1,0,0,1,1.414-1.414L26,24.586V20a1,1,0,0,1,2,0Zm0-15a1,1,0,0,1-2,0V7.414l-5.293,5.293a1,1,0,0,1-1.414-1.414L24.586,6H20a1,1,0,0,1,0-2h7a1,1,0,0,1,1,1Z" fill="#61616b"></path></g></svg>