<svg xmlns="http://www.w3.org/2000/svg" height="24" width="24" viewBox="0 0 64 64"><g fill="#61616b" class="nc-icon-wrapper"><path d="M54,4H10a6.006,6.006,0,0,0-6,6V54a6.006,6.006,0,0,0,6,6H54a6.006,6.006,0,0,0,6-6V10A6.006,6.006,0,0,0,54,4ZM26.707,38.707,14.414,51H24a1,1,0,0,1,0,2H12a1,1,0,0,1-1-1V40a1,1,0,0,1,2,0v9.586L25.293,37.293a1,1,0,0,1,1.414,1.414Zm0-12a1,1,0,0,1-1.414,0L13,14.414V24a1,1,0,0,1-2,0V12a1,1,0,0,1,1-1H24a1,1,0,0,1,0,2H14.414L26.707,25.293A1,1,0,0,1,26.707,26.707ZM53,52a1,1,0,0,1-1,1H40a1,1,0,0,1,0-2h9.586L37.293,38.707a1,1,0,0,1,1.414-1.414L51,49.586V40a1,1,0,0,1,2,0Zm0-28a1,1,0,0,1-2,0V14.414L38.707,26.707a1,1,0,0,1-1.414-1.414L49.586,13H40a1,1,0,0,1,0-2H52a1,1,0,0,1,1,1Z" fill="#61616b"></path></g></svg>