<svg xmlns="http://www.w3.org/2000/svg" height="24" width="24" viewBox="0 0 64 64"><g fill="#61616b" class="nc-icon-wrapper"><circle data-color="color-2" cx="32" cy="32" r="9" fill="#61616b"></circle><path d="M43,22a.918.918,0,0,0,.117-.007l17-2a1,1,0,0,0,.59-1.7l-6.086-6.086,5.793-5.793a2,2,0,0,0-2.828-2.828L51.793,9.378,45.708,3.293a1,1,0,0,0-1.7.59l-2,17A1,1,0,0,0,43,22Z" fill="#61616b"></path><path d="M54.622,51.793l6.085-6.085a1,1,0,0,0-.59-1.7l-17-2a1,1,0,0,0-1.11,1.11l2,17a1,1,0,0,0,.665.827,1,1,0,0,0,1.036-.237l6.085-6.086,5.793,5.793a2,2,0,1,0,2.829-2.828Z" fill="#61616b"></path><path d="M20.883,42.008l-17,2a1,1,0,0,0-.59,1.7l6.086,6.086L3.586,57.587a2,2,0,1,0,2.828,2.828l5.793-5.793,6.085,6.085a1,1,0,0,0,1.7-.59l2-17a1,1,0,0,0-.286-.824A.992.992,0,0,0,20.883,42.008Z" fill="#61616b"></path><path d="M19.328,3.056a1,1,0,0,0-1.036.237L12.207,9.379,6.414,3.586A2,2,0,0,0,3.585,6.414l5.793,5.793L3.293,18.292a1,1,0,0,0,.59,1.7l17,2A.918.918,0,0,0,21,22a1,1,0,0,0,.993-1.117l-2-17A1,1,0,0,0,19.328,3.056Z" fill="#61616b"></path></g></svg>