<svg xmlns="http://www.w3.org/2000/svg" height="24" width="24" viewBox="0 0 48 48"><g fill="#61616b" class="nc-icon-wrapper"><path d="M6.879,9.706,3.293,13.292a1,1,0,0,0,.543,1.693l12,2a.99.99,0,0,0,.871-.279,1,1,0,0,0,.28-.871l-2-12a1,1,0,0,0-1.694-.543L9.707,6.878,5.414,2.585A2,2,0,0,0,2.586,5.413Z" fill="#61616b"></path><path d="M42.587,2.586,38.294,6.879,34.708,3.293a1,1,0,0,0-1.693.543l-2,12a.99.99,0,0,0,.279.871,1,1,0,0,0,.871.28l12-2a1,1,0,0,0,.543-1.694L41.122,9.707l4.293-4.293a2,2,0,1,0-2.828-2.828Z" fill="#61616b"></path><path d="M41.121,38.294l3.586-3.586a1,1,0,0,0-.543-1.693l-12-2a.99.99,0,0,0-.871.279,1,1,0,0,0-.28.871l2,12a1,1,0,0,0,1.694.543l3.586-3.586,4.293,4.293a2,2,0,1,0,2.828-2.828Z" fill="#61616b"></path><path d="M15.835,31.013l-12,2a1,1,0,0,0-.543,1.694l3.586,3.586L2.585,42.586a2,2,0,0,0,2.828,2.828l4.293-4.293,3.586,3.586a1,1,0,0,0,1.693-.543l2-12a.99.99,0,0,0-.279-.871A1,1,0,0,0,15.835,31.013Z" fill="#61616b"></path><circle data-color="color-2" cx="24" cy="24" r="7" fill="#61616b"></circle></g></svg>