<svg xmlns="http://www.w3.org/2000/svg" height="24" width="24" viewBox="0 0 16 16"><g fill="#61616b" class="nc-icon-wrapper"><circle data-color="color-2" cx="8" cy="8" r="2" fill="#61616b"></circle><path d="M1.939,3.354.146,5.146A.5.5,0,0,0,.5,6h5A.5.5,0,0,0,6,5.5V.5A.5.5,0,0,0,5.146.146L3.354,1.939,1.707.293A1,1,0,0,0,.293,1.707Z" fill="#61616b"></path><path d="M10.5,6h5a.5.5,0,0,0,.354-.854L14.061,3.354l1.646-1.647A1,1,0,0,0,14.293.293L12.646,1.939,10.854.146A.5.5,0,0,0,10,.5v5A.5.5,0,0,0,10.5,6Z" fill="#61616b"></path><path d="M14.061,12.646l1.793-1.792A.5.5,0,0,0,15.5,10h-5a.5.5,0,0,0-.5.5v5a.5.5,0,0,0,.309.462A.493.493,0,0,0,10.5,16a.5.5,0,0,0,.354-.146l1.792-1.793,1.647,1.646a1,1,0,0,0,1.414-1.414Z" fill="#61616b"></path><path d="M5.5,10H.5a.5.5,0,0,0-.354.854l1.793,1.792L.293,14.293a1,1,0,1,0,1.414,1.414l1.647-1.646,1.792,1.793A.5.5,0,0,0,5.5,16a.493.493,0,0,0,.191-.038A.5.5,0,0,0,6,15.5v-5A.5.5,0,0,0,5.5,10Z" fill="#61616b"></path></g></svg>