<svg xmlns="http://www.w3.org/2000/svg" height="24" width="24" viewBox="0 0 32 32"><g fill="#61616b" class="nc-icon-wrapper"><path data-color="color-2" d="M16,11a5,5,0,1,0,5,5A5.015,5.015,0,0,0,16,11Z" fill="#61616b"></path><path d="M22,11h9a1,1,0,0,0,.707-1.707L27.914,5.5l3.793-3.793A1,1,0,1,0,30.293.293L26.5,4.086,22.707.293A1,1,0,0,0,22,0a.987.987,0,0,0-.383.076A1,1,0,0,0,21,1v9A1,1,0,0,0,22,11Z" fill="#61616b"></path><path d="M21,22v9a1,1,0,0,0,1.707.707L26.5,27.914l3.793,3.793a1,1,0,1,0,1.414-1.414L27.914,26.5l3.793-3.793A1,1,0,0,0,32,22a.987.987,0,0,0-.076-.383A1,1,0,0,0,31,21H22A1,1,0,0,0,21,22Z" fill="#61616b"></path><path d="M10,21H1a1,1,0,0,0-.707,1.707L4.086,26.5.293,30.293a1,1,0,1,0,1.414,1.414L5.5,27.914l3.793,3.793A1,1,0,0,0,10,32a.987.987,0,0,0,.383-.076A1,1,0,0,0,11,31V22A1,1,0,0,0,10,21Z" fill="#61616b"></path><path d="M11,10V1A1,1,0,0,0,9.293.293L5.5,4.086,1.707.293A1,1,0,1,0,.293,1.707L4.086,5.5.293,9.293A1,1,0,0,0,0,10a.987.987,0,0,0,.076.383A1,1,0,0,0,1,11h9A1,1,0,0,0,11,10Z" fill="#61616b"></path></g></svg>