<svg xmlns="http://www.w3.org/2000/svg" height="24" width="24" viewBox="0 0 24 24"><g fill="#61616b" class="nc-icon-wrapper"><path data-color="color-2" d="M12,16a4,4,0,1,0-4-4A4.013,4.013,0,0,0,12,16Z" fill="#61616b"></path><path d="M7.691,1.038A.489.489,0,0,0,7.5,1a.5.5,0,0,0-.354.146L4.854,3.439,2.707,1.293A1,1,0,0,0,1.293,2.707L3.439,4.854,1.146,7.146A.5.5,0,0,0,1.5,8h6A.5.5,0,0,0,8,7.5v-6A.5.5,0,0,0,7.691,1.038Z" fill="#61616b"></path><path d="M22.962,7.691A.489.489,0,0,0,23,7.5a.5.5,0,0,0-.146-.354L20.561,4.854l2.146-2.147a1,1,0,0,0-1.414-1.414L19.146,3.439,16.854,1.146A.5.5,0,0,0,16,1.5v6a.5.5,0,0,0,.5.5h6A.5.5,0,0,0,22.962,7.691Z" fill="#61616b"></path><path d="M16.309,22.962A.489.489,0,0,0,16.5,23a.5.5,0,0,0,.354-.146l2.292-2.293,2.147,2.146a1,1,0,0,0,1.414-1.414l-2.146-2.147,2.293-2.292A.5.5,0,0,0,22.5,16h-6a.5.5,0,0,0-.5.5v6A.5.5,0,0,0,16.309,22.962Z" fill="#61616b"></path><path d="M1.038,16.309A.489.489,0,0,0,1,16.5a.5.5,0,0,0,.146.354l2.293,2.292L1.293,21.293a1,1,0,0,0,1.414,1.414l2.147-2.146,2.292,2.293A.5.5,0,0,0,8,22.5v-6a.5.5,0,0,0-.5-.5h-6A.5.5,0,0,0,1.038,16.309Z" fill="#61616b"></path></g></svg>