<svg xmlns="http://www.w3.org/2000/svg" height="24" width="24" viewBox="0 0 48 48"><g fill="#61616b" class="nc-icon-wrapper"><path d="M44.581,13.187l-14-10A1,1,0,0,0,29,4V9H6a1,1,0,0,0-1,1v8a1,1,0,0,0,1,1H29v5a1,1,0,0,0,1,1,.988.988,0,0,0,.581-.187l14-10a1,1,0,0,0,0-1.626Z" fill="#61616b"></path><path data-color="color-2" d="M42,29H19V24a1,1,0,0,0-1.581-.813l-14,10a1,1,0,0,0,0,1.626l14,10A.988.988,0,0,0,18,45a1.019,1.019,0,0,0,.458-.11A1,1,0,0,0,19,44V39H42a1,1,0,0,0,1-1V30A1,1,0,0,0,42,29Z" fill="#61616b"></path></g></svg>