<svg xmlns="http://www.w3.org/2000/svg" height="24" width="24" viewBox="0 0 64 64"><g fill="#61616b" class="nc-icon-wrapper"><path d="M57,17H48V10a1,1,0,0,0-1.6-.8l-12,9a1,1,0,0,0,0,1.6l12,9a1,1,0,0,0,.6.2,1,1,0,0,0,1-1V21h9a2.968,2.968,0,0,1,3,3V48a2.968,2.968,0,0,1-3,3H7a2.968,2.968,0,0,1-3-3V24a2.968,2.968,0,0,1,3-3h9v7a1,1,0,0,0,1.6.8l12-9a1,1,0,0,0,0-1.6l-12-9A1,1,0,0,0,16,10v7H7a6.926,6.926,0,0,0-7,7V48a6.926,6.926,0,0,0,7,7H57a6.926,6.926,0,0,0,7-7V24A6.926,6.926,0,0,0,57,17Z" fill="#61616b"></path></g></svg>