<svg xmlns="http://www.w3.org/2000/svg" height="24" width="24" viewBox="0 0 48 48"><g fill="#61616b" class="nc-icon-wrapper"><path d="M42,13H36V8a1,1,0,0,0-1.614-.789l-9,7a1,1,0,0,0,0,1.578l9,7A1,1,0,0,0,36,22V17h6a2,2,0,0,1,2,2V35a2,2,0,0,1-2,2H6a2,2,0,0,1-2-2V19a2,2,0,0,1,2-2h6v5a1,1,0,0,0,.561.9A.984.984,0,0,0,13,23a1,1,0,0,0,.614-.211l9-7a1,1,0,0,0,0-1.578l-9-7A1,1,0,0,0,12,8v5H6a6.006,6.006,0,0,0-6,6V35a6.006,6.006,0,0,0,6,6H42a6.006,6.006,0,0,0,6-6V19A6.006,6.006,0,0,0,42,13Z" fill="#61616b"></path></g></svg>