<svg xmlns="http://www.w3.org/2000/svg" height="24" width="24" viewBox="0 0 48 48"><g fill="#61616b" class="nc-icon-wrapper"><path d="M48,21.993a18.743,18.743,0,0,0-6.319-13.1A19.031,19.031,0,0,0,28,4.1a18.76,18.76,0,0,0-17.312,14.05A11.894,11.894,0,0,0,0,30,12.013,12.013,0,0,0,12,42H30l.106,0a18.741,18.741,0,0,0,13.1-6.319A18.96,18.96,0,0,0,48,21.993ZM35.774,28.224a10.038,10.038,0,0,1-11.993,7.551,9.348,9.348,0,0,1-4.622-2.444l-2.022,2.023a.5.5,0,0,1-.354.146.514.514,0,0,1-.159-.026.5.5,0,0,1-.336-.4l-.849-6.1a.5.5,0,0,1,.135-.416.519.519,0,0,1,.409-.152l6.331.618a.5.5,0,0,1,.3.851l-2.046,2.046a7.392,7.392,0,0,0,3.623,1.9,8.06,8.06,0,0,0,9.629-6.043,1,1,0,1,1,1.949.448Zm.652-4.778a.5.5,0,0,1-.361.154l-.048,0-6.331-.618a.5.5,0,0,1-.3-.851l2.046-2.046a7.392,7.392,0,0,0-3.623-1.9,8.065,8.065,0,0,0-9.629,6.043A1,1,0,0,1,17.2,25a1.012,1.012,0,0,1-.224-.025,1,1,0,0,1-.751-1.2,10.065,10.065,0,0,1,11.993-7.551,9.348,9.348,0,0,1,4.622,2.444l2.022-2.023a.506.506,0,0,1,.513-.12.5.5,0,0,1,.336.405l.849,6.1A.5.5,0,0,1,36.426,23.446Z" fill="#61616b"></path></g></svg>