<svg xmlns="http://www.w3.org/2000/svg" height="24" width="24" viewBox="0 0 32 32"><g fill="#61616b" class="nc-icon-wrapper"><path d="M19,3A13,13,0,0,0,6.315,13.181,8,8,0,0,0,8,29H19A13,13,0,0,0,19,3Zm3.5,17.4a6,6,0,0,1-9.374,2.181l-1.272,1.273A.5.5,0,0,1,11,23.5v-4a.5.5,0,0,1,.5-.5h4a.5.5,0,0,1,.354.854l-1.3,1.3A3.953,3.953,0,0,0,17,22a4,4,0,0,0,3.668-2.4,1,1,0,0,1,1.832.8Zm.5-3.9a.5.5,0,0,1-.5.5h-4a.5.5,0,0,1-.354-.854l1.3-1.3A3.955,3.955,0,0,0,17,14a4,4,0,0,0-3.668,2.4,1,1,0,0,1-.917.6.976.976,0,0,1-.4-.084A1,1,0,0,1,11.5,15.6,6,6,0,0,1,17,12a5.939,5.939,0,0,1,3.874,1.419l1.272-1.273A.5.5,0,0,1,23,12.5Z" fill="#61616b"></path></g></svg>