<svg xmlns="http://www.w3.org/2000/svg" height="24" width="24" viewBox="0 0 48 48"><g fill="#61616b" class="nc-icon-wrapper"><path d="M47.973,21.993a18.744,18.744,0,0,0-6.32-13.1A19.021,19.021,0,0,0,27.973,4.1,18.761,18.761,0,0,0,10.66,18.152,11.895,11.895,0,0,0-.025,30a12.013,12.013,0,0,0,12,12h18l.106,0a18.743,18.743,0,0,0,13.1-6.319A18.964,18.964,0,0,0,47.973,21.993ZM31.682,30.707l-7,7a1,1,0,0,1-1.414,0l-7-7a1,1,0,0,1,1.414-1.414l5.293,5.293V21a1,1,0,0,1,2,0V34.586l5.293-5.293a1,1,0,1,1,1.414,1.414Z" fill="#61616b"></path></g></svg>