<svg xmlns="http://www.w3.org/2000/svg" height="24" width="24" viewBox="0 0 48 48"><g fill="#61616b" class="nc-icon-wrapper"><path d="M48,21.993a18.743,18.743,0,0,0-6.319-13.1A19.03,19.03,0,0,0,28,4.1a18.76,18.76,0,0,0-17.312,14.05A11.894,11.894,0,0,0,0,30,12.013,12.013,0,0,0,12,42H30l.106,0a18.741,18.741,0,0,0,13.1-6.319A18.96,18.96,0,0,0,48,21.993ZM31.707,28.707a1,1,0,0,1-1.414,0L25,23.414V37a1,1,0,0,1-2,0V23.414l-5.293,5.293a1,1,0,0,1-1.414-1.414l7-7a1,1,0,0,1,1.414,0l7,7A1,1,0,0,1,31.707,28.707Z" fill="#61616b"></path></g></svg>