<svg xmlns="http://www.w3.org/2000/svg" height="24" width="24" viewBox="0 0 64 64"><g fill="#61616b" class="nc-icon-wrapper"><path data-color="color-2" d="M42.9,48.559A1,1,0,0,0,42,48H34V43H30v5H22a1,1,0,0,0-.792,1.609l10,13a1,1,0,0,0,1.584,0l10-13A1,1,0,0,0,42.9,48.559Z" fill="#61616b"></path><path d="M62.957,29.907a12.134,12.134,0,0,0-10.195-10.8,20.99,20.99,0,0,0-22.9-18A21.119,21.119,0,0,0,12.089,15.325,13.88,13.88,0,0,0,.961,29a14.039,14.039,0,0,0,13,14H30V27a2,2,0,0,1,4,0V43H51.961c.033,0,.066,0,.1,0A12.182,12.182,0,0,0,62.957,29.907Z" fill="#61616b"></path></g></svg>