<svg xmlns="http://www.w3.org/2000/svg" height="24" width="24" viewBox="0 0 16 16"><g fill="#61616b" class="nc-icon-wrapper"><path data-color="color-2" d="M9.12,7.675l3-3.5A.5.5,0,0,1,13,4.5V7h2a1,1,0,0,1,0,2H13v2.5a.5.5,0,0,1-.327.469A.494.494,0,0,1,12.5,12a.5.5,0,0,1-.38-.175l-3-3.5A.5.5,0,0,1,9.12,7.675Z" fill="#61616b"></path><path d="M6.88,7.675l-3-3.5A.5.5,0,0,0,3,4.5V7H1A1,1,0,0,0,1,9H3v2.5a.5.5,0,0,0,.327.469A.494.494,0,0,0,3.5,12a.5.5,0,0,0,.38-.175l3-3.5A.5.5,0,0,0,6.88,7.675Z" fill="#61616b"></path></g></svg>