<svg xmlns="http://www.w3.org/2000/svg" height="24" width="24" viewBox="0 0 64 64"><g fill="#61616b" class="nc-icon-wrapper"><path fill="#61616b" d="M61,6H3C1.895,6,1,6.895,1,8v38c0,1.105,0.895,2,2,2h58c1.105,0,2-0.895,2-2V8C63,6.895,62.105,6,61,6z M39.707,24.707C39.512,24.902,39.256,25,39,25s-0.512-0.098-0.707-0.293L33,19.414V37c0,0.553-0.448,1-1,1s-1-0.447-1-1V19.414 l-5.293,5.293c-0.391,0.391-1.023,0.391-1.414,0s-0.391-1.023,0-1.414l6.999-6.999c0.092-0.093,0.203-0.166,0.326-0.217 c0.244-0.101,0.52-0.101,0.764,0c0.123,0.051,0.233,0.124,0.326,0.217l6.999,6.999C40.098,23.684,40.098,24.316,39.707,24.707z"></path> <path data-color="color-2" fill="#61616b" d="M46,56h-7v-6H25v6h-7c-0.552,0-1,0.447-1,1s0.448,1,1,1h28c0.552,0,1-0.447,1-1 S46.552,56,46,56z"></path></g></svg>