<svg xmlns="http://www.w3.org/2000/svg" height="24" width="24" viewBox="0 0 48 48"><g fill="#61616b" class="nc-icon-wrapper"><path fill="#61616b" d="M45,3H3C1.895,3,1,3.895,1,5v30c0,1.105,0.895,2,2,2h42c1.105,0,2-0.895,2-2V5C47,3.895,46.105,3,45,3z M30.707,18.707C30.512,18.902,30.256,19,30,19s-0.512-0.098-0.707-0.293L25,14.414V28c0,0.553-0.448,1-1,1s-1-0.447-1-1V14.414 l-4.293,4.293c-0.391,0.391-1.023,0.391-1.414,0s-0.391-1.023,0-1.414l5.999-5.999c0.092-0.093,0.203-0.166,0.326-0.217 c0.244-0.101,0.52-0.101,0.764,0c0.123,0.051,0.233,0.124,0.326,0.217l5.999,5.999C31.098,17.684,31.098,18.316,30.707,18.707z"></path> <path data-color="color-2" fill="#61616b" d="M34,43h-5v-4H19v4h-5c-0.552,0-1,0.447-1,1s0.448,1,1,1h20c0.552,0,1-0.447,1-1 S34.552,43,34,43z"></path></g></svg>