<svg xmlns="http://www.w3.org/2000/svg" height="24" width="24" viewBox="0 0 48 48"><g fill="#61616b" class="nc-icon-wrapper"><path d="M20,22H13V15a1,1,0,0,0-1.633-.774l-11,9a1,1,0,0,0,0,1.548l11,9A.993.993,0,0,0,12,34a.977.977,0,0,0,.428-.1A1,1,0,0,0,13,33V26h7a2,2,0,0,0,0-4Z" fill="#61616b"></path><path data-color="color-2" d="M36.633,14.226A1,1,0,0,0,35,15v7H28a2,2,0,0,0,0,4h7v7a1,1,0,0,0,.572.9A.977.977,0,0,0,36,34a.993.993,0,0,0,.633-.227l11-9a1,1,0,0,0,0-1.548Z" fill="#61616b"></path></g></svg>