<svg xmlns="http://www.w3.org/2000/svg" height="24" width="24" viewBox="0 0 64 64"><g fill="#61616b" class="nc-icon-wrapper"><path data-color="color-2" d="M63.6,31.2l-12-9A1,1,0,0,0,50,23v7H42a2,2,0,0,0,0,4h8v7a1,1,0,0,0,1.6.8l12-9a1,1,0,0,0,0-1.6Z" fill="#61616b"></path><path data-color="color-2" d="M13,32a14.99,14.99,0,0,1,.149-2H2a2,2,0,0,0,0,4H13.149A14.99,14.99,0,0,1,13,32Z" fill="#61616b"></path><path d="M28,17A15.012,15.012,0,0,0,13.149,30H28a2,2,0,0,1,0,4H13.149A14.993,14.993,0,1,0,28,17Z" fill="#61616b"></path></g></svg>