<svg xmlns="http://www.w3.org/2000/svg" height="24" width="24" viewBox="0 0 24 24"><g fill="#61616b" class="nc-icon-wrapper"><path data-color="color-2" d="M12,13H1a1,1,0,0,1,0-2H12a1,1,0,0,1,0,2Z" fill="#61616b"></path><path data-color="color-2" d="M23,13H16a1,1,0,0,1,0-2h7a1,1,0,0,1,0,2Z" fill="#61616b"></path><path d="M16,17H13V7h3a1,1,0,0,0,.781-1.625l-4-5a1.036,1.036,0,0,0-1.562,0l-4,5A1,1,0,0,0,8,7h3V17H8a1,1,0,0,0-.781,1.625l4,5a1,1,0,0,0,1.562,0l4-5A1,1,0,0,0,16,17Z" fill="#61616b"></path></g></svg>