<svg xmlns="http://www.w3.org/2000/svg" height="24" width="24" viewBox="0 0 64 64"><g fill="#61616b" class="nc-icon-wrapper"><path data-color="color-2" d="M32,33H3a1,1,0,0,1,0-2H32a1,1,0,0,1,0,2Z" fill="#61616b"></path><path data-color="color-2" d="M61,33H40a1,1,0,0,1,0-2H61a1,1,0,0,1,0,2Z" fill="#61616b"></path><path d="M44,19a1,1,0,0,0,.781-1.625l-12-15a1.036,1.036,0,0,0-1.562,0l-12,15A1,1,0,0,0,20,19h9V45H20a1,1,0,0,0-.781,1.625l12,15a1,1,0,0,0,1.562,0l12-15A1,1,0,0,0,44,45H35V19Z" fill="#61616b"></path></g></svg>