<svg xmlns="http://www.w3.org/2000/svg" height="24" width="24" viewBox="0 0 16 16"><g fill="#61616b" class="nc-icon-wrapper"><path data-color="color-2" d="M14.5,1h-5a.5.5,0,0,0-.354.854l1.793,1.792L9.414,5.172l1.414,1.414,1.526-1.525,1.792,1.793A.5.5,0,0,0,14.5,7a.493.493,0,0,0,.191-.038A.5.5,0,0,0,15,6.5v-5A.5.5,0,0,0,14.5,1Z" fill="#61616b"></path><path d="M14.691,9.038a.5.5,0,0,0-.545.108l-1.792,1.793L2.707,1.293A1,1,0,0,0,1.293,2.707l9.646,9.647L9.146,14.146A.5.5,0,0,0,9.5,15h5a.5.5,0,0,0,.5-.5v-5A.5.5,0,0,0,14.691,9.038Z" fill="#61616b"></path><path data-color="color-2" d="M1.293,13.293a1,1,0,1,0,1.414,1.414l3.879-3.879L5.172,9.414Z" fill="#61616b"></path></g></svg>