<svg xmlns="http://www.w3.org/2000/svg" height="24" width="24" viewBox="0 0 24 24"><g fill="#61616b" class="nc-icon-wrapper"><path data-color="color-2" d="M12,13a1,1,0,0,1-1-1V1a1,1,0,0,1,2,0V12A1,1,0,0,1,12,13Z" fill="#61616b"></path><path data-color="color-2" d="M12,24a1,1,0,0,1-1-1V16a1,1,0,0,1,2,0v7A1,1,0,0,1,12,24Z" fill="#61616b"></path><path d="M23.625,11.219l-5-4A1,1,0,0,0,17,8v3H7V8a1,1,0,0,0-1.625-.781l-5,4a1,1,0,0,0,0,1.562l5,4A1,1,0,0,0,7,16V13H17v3a1,1,0,0,0,1.625.781l5-4a1,1,0,0,0,0-1.562Z" fill="#61616b"></path></g></svg>