<svg xmlns="http://www.w3.org/2000/svg" height="24" width="24" viewBox="0 0 64 64"><g fill="#61616b" class="nc-icon-wrapper"><path data-color="color-2" d="M37,29a1.99,1.99,0,0,0,1.414-.586L50.207,16.621l6.085,6.086a1,1,0,0,0,1.7-.591l2-17a1,1,0,0,0-1.11-1.11l-17,2a1,1,0,0,0-.59,1.7l6.086,6.086L35.586,25.586A2,2,0,0,0,37,29Z" fill="#61616b"></path><path data-color="color-2" d="M25.586,35.586l-21,21a2,2,0,1,0,2.828,2.828l21-21a2,2,0,0,0-2.828-2.828Z" fill="#61616b"></path><path d="M57.328,41.055a1,1,0,0,0-1.036.238l-6.085,6.086L7.414,4.586A2,2,0,0,0,4.586,7.414L47.379,50.207l-6.086,6.085a1,1,0,0,0,.59,1.7l17,2A1.148,1.148,0,0,0,59,60a1,1,0,0,0,.993-1.117l-2-17A1,1,0,0,0,57.328,41.055Z" fill="#61616b"></path></g></svg>