<svg xmlns="http://www.w3.org/2000/svg" height="24" width="24" viewBox="0 0 32 32"><g fill="#61616b" class="nc-icon-wrapper"><path data-color="color-2" d="M30,1H22a1,1,0,0,0-.707,1.707L24.586,6l-7.172,7.172,1.414,1.414L26,7.414l3.293,3.293A1,1,0,0,0,31,10V2A1,1,0,0,0,30,1Z" fill="#61616b"></path><path d="M30.383,21.076a1,1,0,0,0-1.09.217L26,24.586,2.707,1.293A1,1,0,0,0,1.293,2.707L24.586,26l-3.293,3.293A1,1,0,0,0,22,31h8a1,1,0,0,0,1-1V22A1,1,0,0,0,30.383,21.076Z" fill="#61616b"></path><path data-color="color-2" d="M1.293,29.293a1,1,0,1,0,1.414,1.414L14.586,18.828l-1.414-1.414Z" fill="#61616b"></path></g></svg>