<svg xmlns="http://www.w3.org/2000/svg" height="24" width="24" viewBox="0 0 48 48"><g fill="#61616b" class="nc-icon-wrapper"><path data-color="color-2" d="M47.614,23.21l-9-7A1,1,0,0,0,37,17v5H30a2,2,0,0,0,0,4h7v5a1,1,0,0,0,1.614.79l9-7a1,1,0,0,0,0-1.58Z" fill="#61616b"></path><path d="M20,13A11.012,11.012,0,0,0,9.191,22H19a2,2,0,0,1,0,4H9.191A11,11,0,1,0,20,13Z" fill="#61616b"></path><path data-color="color-2" d="M9,24a10.989,10.989,0,0,1,.191-2H2a2,2,0,0,0,0,4H9.191A10.989,10.989,0,0,1,9,24Z" fill="#61616b"></path></g></svg>