<svg xmlns="http://www.w3.org/2000/svg" height="24" width="24" viewBox="0 0 64 64"><g fill="#61616b" class="nc-icon-wrapper"><path data-color="color-2" d="M32,33a1,1,0,0,1-1-1V3a1,1,0,0,1,2,0V32A1,1,0,0,1,32,33Z" fill="#61616b"></path><path data-color="color-2" d="M32,62a1,1,0,0,1-1-1V40a1,1,0,0,1,2,0V61A1,1,0,0,1,32,62Z" fill="#61616b"></path><path d="M46.625,19.219A1,1,0,0,0,45,20v9H19V20a1,1,0,0,0-1.625-.781l-15,12a1,1,0,0,0,0,1.562l15,12A1,1,0,0,0,19,44V35H45v9a1,1,0,0,0,1.625.781l15-12a1,1,0,0,0,0-1.562Z" fill="#61616b"></path></g></svg>