<svg xmlns="http://www.w3.org/2000/svg" height="24" width="24" viewBox="0 0 48 48"><g fill="#61616b" class="nc-icon-wrapper"><path d="M42.988,30.848a1,1,0,0,0-1.7-.555l-4.086,4.086L6.414,3.586A2,2,0,0,0,3.586,6.414L34.379,37.207l-4.086,4.086a1,1,0,0,0,.555,1.7l13,2A.973.973,0,0,0,44,45a1,1,0,0,0,.988-1.152Z" fill="#61616b"></path><path data-color="color-2" d="M28.949,21.879l8.258-8.258,4.086,4.086A1,1,0,0,0,42,18a.982.982,0,0,0,.311-.05,1,1,0,0,0,.677-.8l2-13a1,1,0,0,0-1.14-1.14l-13,2a1,1,0,0,0-.555,1.7l4.086,4.086-8.258,8.258Z" fill="#61616b"></path><path data-color="color-2" d="M3.586,41.586a2,2,0,1,0,2.828,2.828L21.879,28.949l-2.828-2.828Z" fill="#61616b"></path></g></svg>