<svg xmlns="http://www.w3.org/2000/svg" height="24" width="24" viewBox="0 0 12 12"><g fill="#61616b" class="nc-icon-wrapper"><path d="M6.724,1.053A.5.5,0,0,0,6.2,1.1L.2,5.6a.5.5,0,0,0,0,.8l6,4.5a.5.5,0,0,0,.3.1.508.508,0,0,0,.224-.053A.5.5,0,0,0,7,10.5v-9A.5.5,0,0,0,6.724,1.053Z" fill="#61616b"></path> <path d="M11.724,1.053A.5.5,0,0,0,11.2,1.1L8,3.5v5l3.2,2.4a.5.5,0,0,0,.3.1.508.508,0,0,0,.224-.053A.5.5,0,0,0,12,10.5v-9A.5.5,0,0,0,11.724,1.053Z" fill="#61616b" data-color="color-2"></path></g></svg>