<svg xmlns="http://www.w3.org/2000/svg" height="24" width="24" viewBox="0 0 64 64"><g fill="#61616b" class="nc-icon-wrapper"><path d="M45.5,1A15.517,15.517,0,0,0,30.413,13H23a1,1,0,0,0-.774,1.633l9,11a1,1,0,0,0,1.548,0l9-11A1,1,0,0,0,41,13H34.524A11.512,11.512,0,0,1,57,16.5v2A11.377,11.377,0,0,1,45.5,30h-27A15.517,15.517,0,0,0,3,45.5v2A15.493,15.493,0,0,0,33.587,51H41a1,1,0,0,0,.774-1.633l-9-11a1.035,1.035,0,0,0-1.548,0l-9,11A1,1,0,0,0,23,51h6.476A11.357,11.357,0,0,1,18.5,59,11.377,11.377,0,0,1,7,47.5v-2A11.377,11.377,0,0,1,18.5,34h27A15.517,15.517,0,0,0,61,18.5v-2A15.517,15.517,0,0,0,45.5,1Z" fill="#61616b"></path></g></svg>