<svg xmlns="http://www.w3.org/2000/svg" height="24" width="24" viewBox="0 0 24 24"><g fill="#61616b" class="nc-icon-wrapper"><path d="M17.5,0a6.6,6.6,0,0,0-6.31,5H8.5a.5.5,0,0,0-.376.829l3.5,4a.5.5,0,0,0,.752,0l3.5-4A.5.5,0,0,0,15.5,5H13.286A4.483,4.483,0,0,1,22,6.5,4.561,4.561,0,0,1,17.5,11H6.5a6.5,6.5,0,0,0,0,13,6.6,6.6,0,0,0,6.31-5H15.5a.5.5,0,0,0,.376-.829l-3.5-4a.514.514,0,0,0-.752,0l-3.5,4A.5.5,0,0,0,8.5,19h2.214A4.557,4.557,0,0,1,6.5,22a4.5,4.5,0,0,1,0-9h11A6.588,6.588,0,0,0,24,6.5,6.588,6.588,0,0,0,17.5,0Z" fill="#61616b"></path></g></svg>