<svg xmlns="http://www.w3.org/2000/svg" height="24" width="24" viewBox="0 0 32 32"><g fill="#61616b" class="nc-icon-wrapper"><path d="M23,1a7.893,7.893,0,0,0-7.748,6H11.5a.5.5,0,0,0-.4.8l4.5,6a.5.5,0,0,0,.8,0l4.5-6a.5.5,0,0,0-.4-.8H17.336A6,6,0,0,1,29,9a5.937,5.937,0,0,1-6,6H9A8,8,0,0,0,9,31a7.893,7.893,0,0,0,7.748-6H20.5a.5.5,0,0,0,.4-.8l-4.5-6a.518.518,0,0,0-.8,0l-4.5,6a.5.5,0,0,0,.4.8h3.164A5.923,5.923,0,0,1,9,29,6,6,0,0,1,9,17H23a7.915,7.915,0,0,0,8-8A7.915,7.915,0,0,0,23,1Z" fill="#61616b"></path></g></svg>