<svg xmlns="http://www.w3.org/2000/svg" height="24" width="24" viewBox="0 0 32 32"><g fill="#61616b" class="nc-icon-wrapper"><path d="M13.707,18.293c-.391-.391-1.023-.391-1.414,0L4,26.586l-2.293-2.293c-.287-.287-.717-.374-1.09-.217-.374,.154-.617,.52-.617,.924v6c0,.553,.448,1,1,1H7c.404,0,.769-.243,.924-.617s.069-.804-.217-1.09l-2.293-2.293,8.293-8.293c.391-.391,.391-1.023,0-1.414Z" fill="#61616b" data-color="color-2"></path><path d="M31,20H13c-.552,0-1-.447-1-1V1c0-.553,.448-1,1-1s1,.447,1,1V18H31c.552,0,1,.447,1,1s-.448,1-1,1Z" fill="#61616b"></path></g></svg>