<svg xmlns="http://www.w3.org/2000/svg" height="24" width="24" viewBox="0 0 16 16"><g fill="#61616b" class="nc-icon-wrapper"><path d="M7.707,8.293c-.391-.391-1.023-.391-1.414,0L2.146,12.439l-1.293-1.293c-.143-.143-.357-.185-.545-.108-.187,.077-.309,.26-.309,.462v4c0,.276,.224,.5,.5,.5H4.5c.202,0,.385-.122,.462-.309,.078-.187,.035-.402-.108-.545l-1.293-1.293,4.146-4.146c.391-.391,.391-1.023,0-1.414Z" fill="#61616b" data-color="color-2"></path><path d="M15,10H7c-.552,0-1-.447-1-1V1c0-.553,.448-1,1-1s1,.447,1,1v7h7c.552,0,1,.447,1,1s-.448,1-1,1Z" fill="#61616b"></path></g></svg>