<svg xmlns="http://www.w3.org/2000/svg" height="24" width="24" viewBox="0 0 24 24"><g fill="#61616b" class="nc-icon-wrapper"><path d="M10.707,13.293c-.391-.391-1.023-.391-1.414,0l-6.646,6.646-1.793-1.793c-.143-.143-.356-.184-.545-.108-.187,.077-.309,.26-.309,.462v5c0,.276,.224,.5,.5,.5H5.5c.202,0,.385-.122,.462-.309,.078-.187,.035-.402-.108-.545l-1.793-1.793,6.646-6.646c.391-.391,.391-1.023,0-1.414Z" fill="#61616b" data-color="color-2"></path><path d="M23,15H10c-.552,0-1-.447-1-1V1c0-.553,.448-1,1-1s1,.447,1,1V13h12c.552,0,1,.447,1,1s-.448,1-1,1Z" fill="#61616b"></path></g></svg>