<svg xmlns="http://www.w3.org/2000/svg" height="24" width="24" viewBox="0 0 64 64"><g fill="#61616b" class="nc-icon-wrapper"><path d="M28.121,37.293l-1.414-1.414c-.391-.391-1.024-.391-1.414,0l-15,15-3.586-3.586c-.266-.265-.655-.358-1.013-.245-.356,.114-.619,.418-.681,.788l-2,12c-.053,.318,.051,.643,.279,.871,.189,.189,.444,.293,.707,.293,.055,0,.109-.005,.164-.014l12-2c.37-.062,.674-.324,.788-.681,.114-.357,.02-.748-.245-1.013l-3.586-3.586,15-15c.391-.391,.391-1.024,0-1.414Z" fill="#61616b" data-color="color-2"></path><path d="M60,40H26c-1.105,0-2-.895-2-2V4c0-.552,.448-1,1-1h2c.552,0,1,.448,1,1V36H60c.552,0,1,.448,1,1v2c0,.552-.448,1-1,1Z" fill="#61616b"></path></g></svg>