<svg xmlns="http://www.w3.org/2000/svg" height="24" width="24" viewBox="0 0 48 48"><g fill="#61616b" class="nc-icon-wrapper"><path d="M20.414,27.586c-.781-.781-2.047-.781-2.828,0l-10.293,10.293-2.586-2.586c-.261-.261-.642-.358-.997-.25-.353,.106-.618,.399-.69,.761l-2,10c-.065,.328,.037,.667,.273,.903,.189,.189,.444,.293,.707,.293,.065,0,.131-.007,.196-.02l10-2c.361-.072,.654-.338,.761-.69,.106-.354,.011-.736-.25-.997l-2.586-2.586,10.293-10.293c.781-.781,.781-2.047,0-2.828Z" fill="#61616b" data-color="color-2"></path><path d="M45,31H19c-1.105,0-2-.895-2-2V3c0-.552,.448-1,1-1h2c.552,0,1,.448,1,1V27h24c.552,0,1,.448,1,1v2c0,.552-.448,1-1,1Z" fill="#61616b"></path></g></svg>