<svg xmlns="http://www.w3.org/2000/svg" height="24" width="24" viewBox="0 0 64 64"><g fill="#61616b" class="nc-icon-wrapper"><path data-color="color-2" d="M61.414,24,60,22.586a1,1,0,0,0-1.414,0L26,55.172V41a1,1,0,0,0-1-1H23a1,1,0,0,0-1,1V61a1,1,0,0,0,1,1H43a1,1,0,0,0,1-1V59a1,1,0,0,0-1-1H28.828L61.414,25.414A1,1,0,0,0,61.414,24Z" fill="#61616b"></path><path d="M38,23a1,1,0,0,0,1,1h2a1,1,0,0,0,1-1V3a1,1,0,0,0-1-1H21a1,1,0,0,0-1,1V5a1,1,0,0,0,1,1H35.172L2.586,38.586a1,1,0,0,0,0,1.414L4,41.414a1,1,0,0,0,1.414,0L38,8.828Z" fill="#61616b"></path></g></svg>