<svg xmlns="http://www.w3.org/2000/svg" height="24" width="24" viewBox="0 0 48 48"><g fill="#61616b" class="nc-icon-wrapper"><path d="M44.836,2.014l-12,2a1,1,0,0,0-.543,1.693l3.586,3.586-4.293,4.293a2,2,0,1,0,2.828,2.828l4.293-4.293,3.586,3.586a1,1,0,0,0,1.693-.542l2-12a1,1,0,0,0-1.15-1.151Z" fill="#61616b"></path><path d="M43.986,32.835a1,1,0,0,0-1.693-.542l-3.586,3.586-4.293-4.293a2,2,0,0,0-2.828,2.828l4.293,4.293-3.586,3.586a1,1,0,0,0,.543,1.693l12,2A.908.908,0,0,0,45,46a1,1,0,0,0,.986-1.165Z" fill="#61616b"></path><path d="M13.586,31.586,9.293,35.879,5.707,32.293a1,1,0,0,0-1.693.542l-2,12A1,1,0,0,0,3,46a.908.908,0,0,0,.164-.014l12-2a1,1,0,0,0,.543-1.693l-3.586-3.586,4.293-4.293a2,2,0,0,0-2.828-2.828Z" fill="#61616b"></path><path d="M4.014,15.165a1,1,0,0,0,1.693.542l3.586-3.586,4.293,4.293a2,2,0,0,0,2.828-2.828L12.121,9.293l3.586-3.586a1,1,0,0,0-.543-1.693l-12-2a1,1,0,0,0-1.15,1.151Z" fill="#61616b"></path><circle data-color="color-2" cx="24" cy="24" r="7" fill="#61616b"></circle></g></svg>