<svg xmlns="http://www.w3.org/2000/svg" height="24" width="24" viewBox="0 0 64 64"><g fill="#61616b" class="nc-icon-wrapper"><circle data-color="color-2" cx="32" cy="32" r="9" fill="#61616b"></circle><path d="M41.586,22.414a2,2,0,0,0,2.828,0l5.793-5.793,6.085,6.086a1,1,0,0,0,1.7-.591l2-17a1,1,0,0,0-.286-.824,1.012,1.012,0,0,0-.824-.286l-17,2a1,1,0,0,0-.59,1.7l6.086,6.086-5.793,5.793A2,2,0,0,0,41.586,22.414Z" fill="#61616b"></path><path d="M57.328,41.055a1,1,0,0,0-1.035.238l-6.086,6.086-5.793-5.793a2,2,0,0,0-2.828,2.828l5.793,5.793-6.085,6.085a1,1,0,0,0,.59,1.7l17,2A1.148,1.148,0,0,0,59,60a1,1,0,0,0,.993-1.117l-2-17A1,1,0,0,0,57.328,41.055Z" fill="#61616b"></path><path d="M22.414,41.586a2,2,0,0,0-2.828,0l-5.793,5.793L7.708,41.293a1,1,0,0,0-1.7.591l-2,17A1,1,0,0,0,5,60a.918.918,0,0,0,.117-.007l17-2a1,1,0,0,0,.59-1.7l-6.086-6.086,5.793-5.793A2,2,0,0,0,22.414,41.586Z" fill="#61616b"></path><path d="M6.672,22.945a1,1,0,0,0,1.035-.238l6.086-6.086,5.793,5.793a2,2,0,0,0,2.828-2.828l-5.793-5.793,6.085-6.085a1,1,0,0,0-.59-1.7l-17-2a1,1,0,0,0-1.11,1.11l2,17A1,1,0,0,0,6.672,22.945Z" fill="#61616b"></path></g></svg>