<svg xmlns="http://www.w3.org/2000/svg" height="24" width="24" viewBox="0 0 32 32"><g fill="#61616b" class="nc-icon-wrapper"><circle data-color="color-2" cx="16" cy="16" r="5" fill="#61616b"></circle><path d="M31,0H22a1,1,0,0,0-.707,1.707L25.086,5.5,21.293,9.293a1,1,0,1,0,1.414,1.414L26.5,6.914l3.793,3.793A1,1,0,0,0,31,11a.987.987,0,0,0,.383-.076A1,1,0,0,0,32,10V1A1,1,0,0,0,31,0Z" fill="#61616b"></path><path d="M31.383,21.076a1,1,0,0,0-1.09.217L26.5,25.086l-3.793-3.793a1,1,0,0,0-1.414,1.414L25.086,26.5l-3.793,3.793A1,1,0,0,0,22,32h9a1,1,0,0,0,1-1V22A1,1,0,0,0,31.383,21.076Z" fill="#61616b"></path><path d="M10.707,21.293a1,1,0,0,0-1.414,0L5.5,25.086,1.707,21.293A1,1,0,0,0,0,22v9a1,1,0,0,0,1,1h9a1,1,0,0,0,.707-1.707L6.914,26.5l3.793-3.793A1,1,0,0,0,10.707,21.293Z" fill="#61616b"></path><path d="M.617,10.924A.987.987,0,0,0,1,11a1,1,0,0,0,.707-.293L5.5,6.914l3.793,3.793a1,1,0,0,0,1.414-1.414L6.914,5.5l3.793-3.793A1,1,0,0,0,10,0H1A1,1,0,0,0,0,1v9A1,1,0,0,0,.617,10.924Z" fill="#61616b"></path></g></svg>