<svg xmlns="http://www.w3.org/2000/svg" height="24" width="24" viewBox="0 0 16 16"><g fill="#61616b" class="nc-icon-wrapper"><circle data-color="color-2" cx="8" cy="8" r="2" fill="#61616b"></circle><path d="M.309,5.962A.512.512,0,0,0,.5,6a.5.5,0,0,0,.354-.146L2.646,4.061,4.293,5.707A1,1,0,0,0,5.707,4.293L4.061,2.646,5.854.854A.5.5,0,0,0,5.5,0H.5A.5.5,0,0,0,0,.5v5A.5.5,0,0,0,.309,5.962Z" fill="#61616b"></path><path d="M15.5,0h-5a.5.5,0,0,0-.354.854l1.793,1.792L10.293,4.293a1,1,0,1,0,1.414,1.414l1.647-1.646,1.792,1.793A.5.5,0,0,0,15.5,6a.512.512,0,0,0,.191-.038A.5.5,0,0,0,16,5.5V.5A.5.5,0,0,0,15.5,0Z" fill="#61616b"></path><path d="M15.691,10.038a.505.505,0,0,0-.545.108l-1.792,1.793-1.647-1.646a1,1,0,0,0-1.414,1.414l1.646,1.647-1.793,1.792A.5.5,0,0,0,10.5,16h5a.5.5,0,0,0,.5-.5v-5A.5.5,0,0,0,15.691,10.038Z" fill="#61616b"></path><path d="M5.707,10.293a1,1,0,0,0-1.414,0L2.646,11.939.854,10.146a.507.507,0,0,0-.545-.108A.5.5,0,0,0,0,10.5v5a.5.5,0,0,0,.5.5h5a.5.5,0,0,0,.354-.854L4.061,13.354l1.646-1.647A1,1,0,0,0,5.707,10.293Z" fill="#61616b"></path></g></svg>