<svg xmlns="http://www.w3.org/2000/svg" height="24" width="24" viewBox="0 0 24 24"><g fill="#61616b" class="nc-icon-wrapper"><path data-color="color-2" d="M12,8a4,4,0,1,0,4,4A4,4,0,0,0,12,8Z" fill="#61616b"></path><path d="M22.5,1h-6a.5.5,0,0,0-.354.854l2.293,2.292L16.293,6.293a1,1,0,1,0,1.414,1.414l2.147-2.146,2.292,2.293A.5.5,0,0,0,22.5,8a.489.489,0,0,0,.191-.038A.5.5,0,0,0,23,7.5v-6A.5.5,0,0,0,22.5,1Z" fill="#61616b"></path><path d="M22.691,16.038a.5.5,0,0,0-.545.108l-2.292,2.293-2.147-2.146a1,1,0,0,0-1.414,1.414l2.146,2.147-2.293,2.292A.5.5,0,0,0,16.5,23h6a.5.5,0,0,0,.5-.5v-6A.5.5,0,0,0,22.691,16.038Z" fill="#61616b"></path><path d="M7.707,16.293a1,1,0,0,0-1.414,0L4.146,18.439,1.854,16.146A.5.5,0,0,0,1,16.5v6a.5.5,0,0,0,.5.5h6a.5.5,0,0,0,.354-.854L5.561,19.854l2.146-2.147A1,1,0,0,0,7.707,16.293Z" fill="#61616b"></path><path d="M1.309,7.962A.489.489,0,0,0,1.5,8a.5.5,0,0,0,.354-.146L4.146,5.561,6.293,7.707A1,1,0,0,0,7.707,6.293L5.561,4.146,7.854,1.854A.5.5,0,0,0,7.5,1h-6a.5.5,0,0,0-.5.5v6A.5.5,0,0,0,1.309,7.962Z" fill="#61616b"></path></g></svg>