<svg xmlns="http://www.w3.org/2000/svg" height="24" width="24" viewBox="0 0 48 48"><g fill="#61616b" class="nc-icon-wrapper"><path d="M42,3.293,40.586,1.878a1,1,0,0,0-1.415,0L17.757,23.293a1,1,0,0,0,0,1.414L39.171,46.122a1,1,0,0,0,1.415,0L42,44.707a1,1,0,0,0,0-1.414L22.707,24,42,4.707A1,1,0,0,0,42,3.293Z" fill="#61616b"></path><path data-color="color-2" d="M10.707,24,30,4.707a1,1,0,0,0,0-1.414L28.586,1.878a1,1,0,0,0-1.415,0L5.757,23.293a1,1,0,0,0,0,1.414L27.171,46.122a1,1,0,0,0,1.415,0L30,44.707a1,1,0,0,0,0-1.414Z" fill="#61616b"></path></g></svg>