<svg xmlns="http://www.w3.org/2000/svg" height="24" width="24" viewBox="0 0 64 64"><g fill="#61616b" class="nc-icon-wrapper"><path d="M55.121,4.293,53.707,2.879a1,1,0,0,0-1.414,0L23.879,31.293a1,1,0,0,0,0,1.414L52.293,61.121a1,1,0,0,0,1.414,0l1.414-1.414a1,1,0,0,0,0-1.414L28.828,32,55.121,5.707A1,1,0,0,0,55.121,4.293Z" fill="#61616b"></path><path data-color="color-2" d="M12.828,32,39.121,5.707a1,1,0,0,0,0-1.414L37.707,2.879a1,1,0,0,0-1.414,0L7.879,31.293a1,1,0,0,0,0,1.414L36.293,61.121a1,1,0,0,0,1.414,0l1.414-1.414a1,1,0,0,0,0-1.414Z" fill="#61616b"></path></g></svg>