<svg xmlns="http://www.w3.org/2000/svg" height="24" width="24" viewBox="0 0 16 16"><g fill="#61616b" class="nc-icon-wrapper"><path data-color="color-2" fill="#61616b" d="M14,16c-0.282,0-0.562-0.118-0.76-0.35l-6-7c-0.321-0.374-0.321-0.927,0-1.301l6-7 c0.36-0.42,0.992-0.468,1.41-0.108c0.419,0.359,0.468,0.99,0.108,1.409L9.317,8l5.442,6.35c0.359,0.419,0.311,1.05-0.108,1.409 C14.462,15.921,14.231,16,14,16z"></path> <path fill="#61616b" d="M8,16c-0.282,0-0.562-0.118-0.76-0.35l-6-7c-0.321-0.374-0.321-0.927,0-1.301l6-7 C7.6-0.07,8.232-0.118,8.651,0.241C9.07,0.601,9.119,1.231,8.759,1.65L3.317,8l5.442,6.35c0.359,0.419,0.311,1.05-0.108,1.409 C8.462,15.921,8.231,16,8,16z"></path></g></svg>