<svg xmlns="http://www.w3.org/2000/svg" height="24" width="24" viewBox="0 0 64 64"><g fill="#61616b" class="nc-icon-wrapper"><path d="M40.121,31.293,11.707,2.879a1,1,0,0,0-1.414,0L8.879,4.293a1,1,0,0,0,0,1.414L35.172,32,8.879,58.293a1,1,0,0,0,0,1.414l1.414,1.414a1,1,0,0,0,1.414,0L40.121,32.707A1,1,0,0,0,40.121,31.293Z" fill="#61616b"></path><path data-color="color-2" d="M27.707,2.879a1,1,0,0,0-1.414,0L24.879,4.293a1,1,0,0,0,0,1.414L51.172,32,24.879,58.293a1,1,0,0,0,0,1.414l1.414,1.414a1,1,0,0,0,1.414,0L56.121,32.707a1,1,0,0,0,0-1.414Z" fill="#61616b"></path></g></svg>