<svg xmlns="http://www.w3.org/2000/svg" height="24" width="24" viewBox="0 0 16 16"><g fill="#61616b" class="nc-icon-wrapper"><path data-color="color-2" fill="#61616b" d="M2,16c-0.23,0-0.462-0.079-0.65-0.241c-0.419-0.359-0.468-0.99-0.108-1.409L6.683,8 L1.241,1.65C0.881,1.231,0.93,0.601,1.349,0.241c0.419-0.36,1.05-0.312,1.41,0.108l6,7c0.321,0.374,0.321,0.927,0,1.301l-6,7 C2.562,15.882,2.281,16,2,16z"></path> <path fill="#61616b" d="M8,16c-0.23,0-0.462-0.079-0.65-0.241c-0.419-0.359-0.468-0.99-0.108-1.409L12.683,8L7.241,1.65 C6.881,1.231,6.93,0.601,7.349,0.241C7.768-0.119,8.4-0.071,8.759,0.35l6,7c0.321,0.374,0.321,0.927,0,1.301l-6,7 C8.562,15.882,8.281,16,8,16z"></path></g></svg>