<svg xmlns="http://www.w3.org/2000/svg" height="24" width="24" viewBox="0 0 12 12"><g fill="#61616b" class="nc-icon-wrapper"><path d="M2,12H5V10H2V7H0v3A2,2,0,0,0,2,12Z" fill="#61616b"></path><path d="M12,2a2,2,0,0,0-2-2H7V2h3V5h2Z" fill="#61616b"></path><path d="M12,7H10v3H7v2h3a2,2,0,0,0,2-2Z" fill="#61616b"></path><path d="M2,2H5V0H2A2,2,0,0,0,0,2V5H2Z" fill="#61616b"></path><path data-color="color-2" d="M6.5,3h-1a.5.5,0,0,0-.5.5V6H3.25a.25.25,0,0,0-.184.419l2.75,3a.249.249,0,0,0,.352.016l.016-.016,2.75-3A.25.25,0,0,0,8.75,6H7V3.5A.5.5,0,0,0,6.5,3Z" fill="#61616b"></path></g></svg>