<svg xmlns="http://www.w3.org/2000/svg" height="24" width="24" viewBox="0 0 32 32"><g fill="#61616b" class="nc-icon-wrapper"><path data-color="color-2" d="M16,2a1,1,0,0,0-1,1V15H9a1,1,0,0,0-.79,1.614l7,9a1,1,0,0,0,1.58,0l7-9A1,1,0,0,0,23,15H17V3A1,1,0,0,0,16,2Z" fill="#61616b"></path><path d="M26,10H22a1,1,0,0,0,0,2h4a2,2,0,0,1,2,2V26a2,2,0,0,1-2,2H6a2,2,0,0,1-2-2V14a2,2,0,0,1,2-2h4a1,1,0,0,0,0-2H6a4,4,0,0,0-4,4V26a4,4,0,0,0,4,4H26a4,4,0,0,0,4-4V14A4,4,0,0,0,26,10Z" fill="#61616b"></path></g></svg>