<svg xmlns="http://www.w3.org/2000/svg" height="24" width="24" viewBox="0 0 64 64"><g fill="#61616b" class="nc-icon-wrapper"><path d="M59,46a1,1,0,0,0-1,1v7a3.957,3.957,0,0,1-4,4H47a1,1,0,0,0,0,2h7a5.937,5.937,0,0,0,6-6V47A1,1,0,0,0,59,46Z" fill="#61616b"></path><path d="M17,58H10a3.957,3.957,0,0,1-4-4V47a1,1,0,0,0-2,0v7a5.937,5.937,0,0,0,6,6h7a1,1,0,0,0,0-2Z" fill="#61616b"></path><path d="M17,4H10a5.937,5.937,0,0,0-6,6v7a1,1,0,0,0,2,0V10a3.957,3.957,0,0,1,4-4h7a1,1,0,0,0,0-2Z" fill="#61616b"></path><path d="M54,4H47a1,1,0,0,0,0,2h7a3.957,3.957,0,0,1,4,4v7a1,1,0,0,0,2,0V10A5.937,5.937,0,0,0,54,4Z" fill="#61616b"></path><path d="M39,58H25a1,1,0,0,0,0,2H39a1,1,0,0,0,0-2Z" fill="#61616b"></path><path d="M25,6H39a1,1,0,0,0,0-2H25a1,1,0,0,0,0,2Z" fill="#61616b"></path><path d="M5,40a1,1,0,0,0,1-1V25a1,1,0,0,0-2,0V39A1,1,0,0,0,5,40Z" fill="#61616b"></path><path d="M59,24a1,1,0,0,0-1,1V39a1,1,0,0,0,2,0V25A1,1,0,0,0,59,24Z" fill="#61616b"></path><path data-color="color-2" d="M44,32H35V18a3,3,0,0,0-6,0V32H20a1,1,0,0,0-.781,1.625l12,15a1,1,0,0,0,1.562,0l12-15A1,1,0,0,0,44,32Z" fill="#61616b"></path></g></svg>