<svg xmlns="http://www.w3.org/2000/svg" height="24" width="24" viewBox="0 0 64 64"><g fill="#61616b" class="nc-icon-wrapper"><path d="M20.069,15.153l-1.5-1.317a.989.989,0,0,0-.724-.245,1.006,1.006,0,0,0-.687.339L1.918,31.341a1,1,0,0,0,0,1.318L17.153,50.07a1.006,1.006,0,0,0,.687.339c.022,0,.044,0,.066,0a1,1,0,0,0,.658-.247l1.5-1.317a1,1,0,0,0,.1-1.411L6.658,32,20.164,16.564A1,1,0,0,0,20.069,15.153Z" fill="#61616b"></path><path data-color="color-2" d="M46.847,13.93a1.006,1.006,0,0,0-.687-.339.974.974,0,0,0-.724.245l-1.505,1.317a1,1,0,0,0-.095,1.411L57.342,32,43.836,47.436a1,1,0,0,0,.095,1.411l1.505,1.317a1,1,0,0,0,.658.247l.066,0a1.006,1.006,0,0,0,.687-.339L62.082,32.659a1,1,0,0,0,0-1.318Z" fill="#61616b"></path></g></svg>