<svg xmlns="http://www.w3.org/2000/svg" height="24" width="24" viewBox="0 0 48 48"><g fill="#61616b" class="nc-icon-wrapper"><path d="M24.707,1.878a1,1,0,0,0-1.414,0L11.878,13.293a1,1,0,0,0,0,1.414l1.415,1.415a1,1,0,0,0,1.414,0L24,6.829l9.293,9.293a1,1,0,0,0,1.414,0l1.415-1.415a1,1,0,0,0,0-1.414Z" fill="#61616b"></path><path data-color="color-2" d="M34.707,31.878a1,1,0,0,0-1.414,0L24,41.171l-9.293-9.293a1,1,0,0,0-1.414,0l-1.415,1.415a1,1,0,0,0,0,1.414L23.293,46.122a1,1,0,0,0,1.414,0L36.122,34.707a1,1,0,0,0,0-1.414Z" fill="#61616b"></path></g></svg>