<svg xmlns="http://www.w3.org/2000/svg" height="24" width="24" viewBox="0 0 48 48"><g fill="#61616b" class="nc-icon-wrapper"><path d="M15.048,11.1,13.512,9.823a1,1,0,0,0-1.408.128L.93,23.36a1,1,0,0,0,0,1.28L12.1,38.049a1,1,0,0,0,1.408.128L15.048,36.9a1,1,0,0,0,.128-1.408L5.6,24l9.572-11.488A1,1,0,0,0,15.048,11.1Z" fill="#61616b"></path><path data-color="color-2" d="M47.07,23.36,35.9,9.951a1,1,0,0,0-1.408-.128L32.952,11.1a1,1,0,0,0-.128,1.408L42.4,24,32.824,35.488a1,1,0,0,0,.128,1.408l1.536,1.281a1,1,0,0,0,1.408-.128L47.07,24.64A1,1,0,0,0,47.07,23.36Z" fill="#61616b"></path></g></svg>