<svg xmlns="http://www.w3.org/2000/svg" height="24" width="24" viewBox="0 0 64 64"><g fill="#61616b" class="nc-icon-wrapper"><path data-color="color-2" d="M44.707,44.465a1,1,0,0,0-1.414,0L32,55.758,20.707,44.465a1,1,0,0,0-1.414,0l-1.414,1.414a1,1,0,0,0,0,1.414L31.293,60.707a1,1,0,0,0,1.414,0L46.121,47.293a1,1,0,0,0,0-1.414Z" fill="#61616b"></path><path d="M32.707,3.293a1,1,0,0,0-1.414,0L17.879,16.707a1,1,0,0,0,0,1.414l1.414,1.414a1,1,0,0,0,1.414,0L32,8.242,43.293,19.535a1,1,0,0,0,1.414,0l1.414-1.414a1,1,0,0,0,0-1.414Z" fill="#61616b"></path></g></svg>