<svg xmlns="http://www.w3.org/2000/svg" height="24" width="24" viewBox="0 0 64 64"><g fill="#61616b" class="nc-icon-wrapper"><path d="M49,2H15A5.937,5.937,0,0,0,9,8V34a1,1,0,0,0,2,0V8a3.957,3.957,0,0,1,4-4H49a3.957,3.957,0,0,1,4,4V56a3.957,3.957,0,0,1-4,4H26a1,1,0,0,0,0,2H49a5.937,5.937,0,0,0,6-6V8A5.937,5.937,0,0,0,49,2Z" fill="#61616b"></path><path data-color="color-2" d="M37.293,44.707A1,1,0,0,0,38,45a.975.975,0,0,0,.336-.059,1,1,0,0,0,.659-.841l2-20a1,1,0,0,0-1.095-1.1l-20,2a1,1,0,0,0-.607,1.7l6.879,6.879L2.879,56.879a3,3,0,1,0,4.242,4.242L30.414,37.828Z" fill="#61616b"></path></g></svg>