<svg xmlns="http://www.w3.org/2000/svg" height="24" width="24" viewBox="0 0 12 12"><g fill="#61616b" class="nc-icon-wrapper"><path d="M6,10a1,1,0,0,0,0,2h4a2,2,0,0,0,2-2V2a2,2,0,0,0-2-2H3A2,2,0,0,0,1,2V5A1,1,0,0,0,3,5V2h7v8Z" fill="#61616b"></path><path data-color="color-2" d="M1,12a1,1,0,0,0,.707-.293L6.854,6.561,8.146,7.854A.5.5,0,0,0,8.5,8a.512.512,0,0,0,.191-.038A.5.5,0,0,0,9,7.5v-4A.5.5,0,0,0,8.5,3h-4a.5.5,0,0,0-.354.854L5.439,5.146.293,10.293A1,1,0,0,0,1,12Z" fill="#61616b"></path></g></svg>