<svg xmlns="http://www.w3.org/2000/svg" height="24" width="24" viewBox="0 0 32 32"><g fill="#61616b" class="nc-icon-wrapper"><path data-color="color-2" d="M20.293,21.707A1,1,0,0,0,22,21V12a1,1,0,0,0-1-1H12a1,1,0,0,0-.707,1.707L15.086,16.5,2.293,29.293a1,1,0,1,0,1.389,1.439l.025-.025L16.5,17.914Z" fill="#61616b"></path><path d="M25,0H9A4,4,0,0,0,5,4V17a1,1,0,0,0,2,0V4A2,2,0,0,1,9,2H25a2,2,0,0,1,2,2V28a2,2,0,0,1-2,2H14a1,1,0,0,0,0,2H25a4,4,0,0,0,4-4V4A4,4,0,0,0,25,0Z" fill="#61616b"></path></g></svg>