<svg xmlns="http://www.w3.org/2000/svg" height="24" width="24" viewBox="0 0 48 48"><g fill="#61616b" class="nc-icon-wrapper"><path d="M38,1H14A5.006,5.006,0,0,0,9,6V26a1,1,0,0,0,2,0V6a3,3,0,0,1,3-3H38a3,3,0,0,1,3,3V42a3,3,0,0,1-3,3H20a1,1,0,0,0,0,2H38a5.006,5.006,0,0,0,5-5V6A5.006,5.006,0,0,0,38,1Z" fill="#61616b"></path><path data-color="color-2" d="M29.293,32.707A1,1,0,0,0,30,33a1,1,0,0,0,.99-.858l2-14a1,1,0,0,0-.283-.849.988.988,0,0,0-.849-.283l-14,2a1,1,0,0,0-.565,1.7l4.586,4.586L3.586,43.586a2,2,0,1,0,2.828,2.828L24.707,28.121Z" fill="#61616b"></path></g></svg>