<svg xmlns="http://www.w3.org/2000/svg" height="24" width="24" viewBox="0 0 24 24"><g fill="#61616b" class="nc-icon-wrapper"><path d="M22,21V3a3,3,0,0,0-3-3H7A3,3,0,0,0,4,3V13a1,1,0,0,0,2,0V3A1,1,0,0,1,7,2H19a1,1,0,0,1,1,1V21a1,1,0,0,1-1,1H10a1,1,0,0,0,0,2h9A3,3,0,0,0,22,21Z" fill="#61616b"></path><path data-color="color-2" d="M2,24a1,1,0,0,0,.707-.293L13,13.414l2.293,2.293A1,1,0,0,0,16,16a.987.987,0,0,0,.383-.076A1,1,0,0,0,17,15V9a1,1,0,0,0-1-1H10a1,1,0,0,0-.707,1.707L11.586,12,1.293,22.293A1,1,0,0,0,2,24Z" fill="#61616b"></path></g></svg>