<svg xmlns="http://www.w3.org/2000/svg" height="24" width="24" viewBox="0 0 64 64"><g fill="#61616b" class="nc-icon-wrapper"><path d="M24,4H5A1,1,0,0,0,4,5V24a1,1,0,0,0,1.707.707l19-19A1,1,0,0,0,24,4Z" fill="#61616b"></path><path data-color="color-2" d="M59,4H40a1,1,0,0,0-.707,1.707l19,19A1,1,0,0,0,60,24V5A1,1,0,0,0,59,4Z" fill="#61616b"></path><path d="M59.383,39.077a1,1,0,0,0-1.09.217l-19,19A1,1,0,0,0,40,60H59a1,1,0,0,0,1-1V40A1,1,0,0,0,59.383,39.077Z" fill="#61616b"></path><path data-color="color-2" d="M5.707,39.294A1,1,0,0,0,4,40V59a1,1,0,0,0,1,1H24a1,1,0,0,0,.707-1.707Z" fill="#61616b"></path></g></svg>