<svg xmlns="http://www.w3.org/2000/svg" height="24" width="24" viewBox="0 0 48 48"><g fill="#61616b" class="nc-icon-wrapper"><path d="M17,3H8A5,5,0,0,0,3,8v9a1,1,0,0,0,1,1H6a1,1,0,0,0,1-1V8A1,1,0,0,1,8,7h9a1,1,0,0,0,1-1V4A1,1,0,0,0,17,3Z" fill="#61616b"></path><path data-color="color-2" d="M40,3H31a1,1,0,0,0-1,1V6a1,1,0,0,0,1,1h9a1,1,0,0,1,1,1v9a1,1,0,0,0,1,1h2a1,1,0,0,0,1-1V8A5,5,0,0,0,40,3Z" fill="#61616b"></path><path d="M44,30H42a1,1,0,0,0-1,1v9a1,1,0,0,1-1,1H31a1,1,0,0,0-1,1v2a1,1,0,0,0,1,1h9a5,5,0,0,0,5-5V31A1,1,0,0,0,44,30Z" fill="#61616b"></path><path data-color="color-2" d="M17,41H8a1,1,0,0,1-1-1V31a1,1,0,0,0-1-1H4a1,1,0,0,0-1,1v9a5,5,0,0,0,5,5h9a1,1,0,0,0,1-1V42A1,1,0,0,0,17,41Z" fill="#61616b"></path></g></svg>