<svg xmlns="http://www.w3.org/2000/svg" height="24" width="24" viewBox="0 0 32 32"><g fill="#61616b" class="nc-icon-wrapper"><path d="M11,1H2A1,1,0,0,0,1,2v9a1,1,0,0,0,1.707.707l9-9A1,1,0,0,0,11,1Z" fill="#61616b"></path><path data-color="color-2" d="M30,1H21a1,1,0,0,0-.707,1.707l9,9A1,1,0,0,0,31,11V2A1,1,0,0,0,30,1Z" fill="#61616b"></path><path d="M30.383,20.076a1,1,0,0,0-1.09.217l-9,9A1,1,0,0,0,21,31h9a1,1,0,0,0,1-1V21A1,1,0,0,0,30.383,20.076Z" fill="#61616b"></path><path data-color="color-2" d="M2.707,20.293A1,1,0,0,0,1,21v9a1,1,0,0,0,1,1h9a1,1,0,0,0,.707-1.707Z" fill="#61616b"></path></g></svg>