<svg xmlns="http://www.w3.org/2000/svg" height="24" width="24" viewBox="0 0 48 48"><g fill="#61616b" class="nc-icon-wrapper"><path fill="#61616b" d="M16,35c-0.229,0-0.457-0.079-0.64-0.231l-12-10C3.132,24.578,3,24.297,3,24s0.132-0.578,0.36-0.769l12-10 c0.298-0.248,0.712-0.302,1.064-0.137C16.775,13.259,17,13.612,17,14v20c0,0.388-0.225,0.741-0.576,0.905 C16.289,34.969,16.144,35,16,35z"></path> <path data-color="color-2" fill="#61616b" d="M32,35c-0.144,0-0.289-0.031-0.424-0.095C31.225,34.741,31,34.388,31,34V14 c0-0.388,0.225-0.741,0.576-0.905c0.35-0.165,0.766-0.111,1.064,0.137l12,10C44.868,23.422,45,23.703,45,24s-0.132,0.578-0.36,0.769 l-12,10C32.457,34.921,32.229,35,32,35z"></path></g></svg>