<svg xmlns="http://www.w3.org/2000/svg" height="24" width="24" viewBox="0 0 32 32"><g fill="#61616b" class="nc-icon-wrapper"><path d="M2,12a1,1,0,0,0,1-1V5A2,2,0,0,1,5,3h6a1,1,0,0,0,0-2H5A4,4,0,0,0,1,5v6A1,1,0,0,0,2,12Z" fill="#61616b"></path><path data-color="color-2" d="M21,3h6a2,2,0,0,1,2,2v6a1,1,0,0,0,2,0V5a4,4,0,0,0-4-4H21a1,1,0,0,0,0,2Z" fill="#61616b"></path><path d="M21,31h6a4,4,0,0,0,4-4V21a1,1,0,0,0-2,0v6a2,2,0,0,1-2,2H21a1,1,0,0,0,0,2Z" fill="#61616b"></path><path data-color="color-2" d="M5,31h6a1,1,0,0,0,0-2H5a2,2,0,0,1-2-2V21a1,1,0,0,0-2,0v6A4,4,0,0,0,5,31Z" fill="#61616b"></path></g></svg>