<svg xmlns="http://www.w3.org/2000/svg" height="24" width="24" viewBox="0 0 12 12"><g fill="#61616b" class="nc-icon-wrapper"><path d="M.309,4.962A.493.493,0,0,0,.5,5a.5.5,0,0,0,.354-.146l4-4A.5.5,0,0,0,4.5,0H.5A.5.5,0,0,0,0,.5v4A.5.5,0,0,0,.309,4.962Z" fill="#61616b"></path><path data-color="color-2" d="M11.5,0h-4a.5.5,0,0,0-.354.854l4,4A.5.5,0,0,0,11.5,5a.493.493,0,0,0,.191-.038A.5.5,0,0,0,12,4.5V.5A.5.5,0,0,0,11.5,0Z" fill="#61616b"></path><path d="M11.691,7.038a.5.5,0,0,0-.545.108l-4,4A.5.5,0,0,0,7.5,12h4a.5.5,0,0,0,.5-.5v-4A.5.5,0,0,0,11.691,7.038Z" fill="#61616b"></path><path data-color="color-2" d="M.5,12h4a.5.5,0,0,0,.354-.854l-4-4A.5.5,0,0,0,0,7.5v4A.5.5,0,0,0,.5,12Z" fill="#61616b"></path></g></svg>