<svg xmlns="http://www.w3.org/2000/svg" height="24" width="24" viewBox="0 0 16 16"><g fill="#61616b" class="nc-icon-wrapper"><path d="M6.5,1h-5a.5.5,0,0,0-.5.5v5a.5.5,0,0,0,.309.462A.489.489,0,0,0,1.5,7a.5.5,0,0,0,.354-.146l5-5A.5.5,0,0,0,6.5,1Z" fill="#61616b"></path><path data-color="color-2" d="M14.5,1h-5a.5.5,0,0,0-.354.854l5,5A.5.5,0,0,0,14.5,7a.489.489,0,0,0,.191-.038A.5.5,0,0,0,15,6.5v-5A.5.5,0,0,0,14.5,1Z" fill="#61616b"></path><path data-color="color-2" d="M1.854,9.146A.5.5,0,0,0,1,9.5v5a.5.5,0,0,0,.5.5h5a.5.5,0,0,0,.354-.854Z" fill="#61616b"></path><path d="M14.691,9.038a.5.5,0,0,0-.545.108l-5,5A.5.5,0,0,0,9.5,15h5a.5.5,0,0,0,.5-.5v-5A.5.5,0,0,0,14.691,9.038Z" fill="#61616b"></path></g></svg>