<svg xmlns="http://www.w3.org/2000/svg" height="24" width="24" viewBox="0 0 24 24"><g fill="#61616b" class="nc-icon-wrapper"><path d="M22.383,14.076a1,1,0,0,0-1.09.217l-7,7A1,1,0,0,0,15,23h7a1,1,0,0,0,1-1V15A1,1,0,0,0,22.383,14.076Z" fill="#61616b"></path><path data-color="color-2" d="M2.707,14.293A1,1,0,0,0,1,15v7a1,1,0,0,0,1,1H9a1,1,0,0,0,.707-1.707Z" fill="#61616b"></path><path d="M9,1H2A1,1,0,0,0,1,2V9a1,1,0,0,0,1.707.707l7-7A1,1,0,0,0,9,1Z" fill="#61616b"></path><path data-color="color-2" d="M22,1H15a1,1,0,0,0-.707,1.707l7,7A1,1,0,0,0,23,9V2A1,1,0,0,0,22,1Z" fill="#61616b"></path></g></svg>