<svg xmlns="http://www.w3.org/2000/svg" height="24" width="24" viewBox="0 0 64 64"><g fill="#61616b" class="nc-icon-wrapper"><path d="M23,4H11a7,7,0,0,0-7,7V23a1,1,0,0,0,1,1H7a1,1,0,0,0,1-1V11a3,3,0,0,1,3-3H23a1,1,0,0,0,1-1V5A1,1,0,0,0,23,4Z" fill="#61616b"></path><path data-color="color-2" d="M53,4H41a1,1,0,0,0-1,1V7a1,1,0,0,0,1,1H53a3,3,0,0,1,3,3V23a1,1,0,0,0,1,1h2a1,1,0,0,0,1-1V11A7,7,0,0,0,53,4Z" fill="#61616b"></path><path d="M59,40H57a1,1,0,0,0-1,1V53a3,3,0,0,1-3,3H41a1,1,0,0,0-1,1v2a1,1,0,0,0,1,1H53a7,7,0,0,0,7-7V41A1,1,0,0,0,59,40Z" fill="#61616b"></path><path data-color="color-2" d="M23,56H11a3,3,0,0,1-3-3V41a1,1,0,0,0-1-1H5a1,1,0,0,0-1,1V53a7,7,0,0,0,7,7H23a1,1,0,0,0,1-1V57A1,1,0,0,0,23,56Z" fill="#61616b"></path></g></svg>