<svg xmlns="http://www.w3.org/2000/svg" height="24" width="24" viewBox="0 0 48 48"><g fill="#61616b" class="nc-icon-wrapper"><path d="M44,43H8a3,3,0,0,1-3-3V4A1,1,0,0,0,3,4V40a5.006,5.006,0,0,0,5,5H44a1,1,0,0,0,0-2Z" fill="#61616b"></path><path data-color="color-2" d="M20.586,27.414a2,2,0,0,0,2.828,0L36.207,14.621l5.086,5.086A1,1,0,0,0,42,20a1.019,1.019,0,0,0,.321-.053,1,1,0,0,0,.67-.815l2-15a1,1,0,0,0-1.123-1.123l-15,2a1,1,0,0,0-.575,1.7l5.086,5.086L20.586,24.586A2,2,0,0,0,20.586,27.414Z" fill="#61616b"></path></g></svg>