<svg xmlns="http://www.w3.org/2000/svg" height="24" width="24" viewBox="0 0 16 16"><g fill="#61616b" class="nc-icon-wrapper"><path d="M2,16H14a2,2,0,0,0,2-2V2a2,2,0,0,0-2-2H12a1,1,0,0,0-1,1h0a1,1,0,0,0,1,1h2v9H2V2H4A1,1,0,0,0,5,1H5A1,1,0,0,0,4,0H2A2,2,0,0,0,0,2V14A2,2,0,0,0,2,16Z" fill="#61616b"></path><path data-color="color-2" d="M11.955,4.7a.5.5,0,0,0-.079-.536l-3.5-4A.514.514,0,0,0,7.649.138L7.624.164l-3.5,4a.5.5,0,0,0,.376.829H7v3a1,1,0,0,0,1,1H8a1,1,0,0,0,1-1v-3h2.5A.5.5,0,0,0,11.955,4.7Z" fill="#61616b"></path></g></svg>