<svg xmlns="http://www.w3.org/2000/svg" height="24" width="24" viewBox="0 0 32 32"><g fill="#61616b" class="nc-icon-wrapper"><path d="M27,1H20V3h7a2.006,2.006,0,0,1,2,2V19H22a1,1,0,0,0-1,1v3H11V20a1,1,0,0,0-1-1H3V5A2.006,2.006,0,0,1,5,3h7V1H5A4.012,4.012,0,0,0,1,5V27a4.012,4.012,0,0,0,4,4H27a4.012,4.012,0,0,0,4-4V5A4.012,4.012,0,0,0,27,1Z" fill="#61616b"></path><path data-color="color-2" d="M10.094,9.576a1,1,0,0,0,.138,1.064l5,6a1,1,0,0,0,1.536,0l5-6A1,1,0,0,0,21,9H17V2a1,1,0,0,0-2,0V9H11A1,1,0,0,0,10.094,9.576Z" fill="#61616b"></path></g></svg>