<svg xmlns="http://www.w3.org/2000/svg" height="24" width="24" viewBox="0 0 24 24"><g fill="#61616b" class="nc-icon-wrapper"><path d="M23.948,14.684l-3-9a1,1,0,1,0-1.9.632L21.613,14H2.387L4.948,6.316a1,1,0,1,0-1.9-.632l-3,9A1,1,0,0,0,0,15v6a3,3,0,0,0,3,3H21a3,3,0,0,0,3-3V15A1,1,0,0,0,23.948,14.684ZM20,19.5a.5.5,0,0,1-.5.5h-5a.5.5,0,0,1-.5-.5v-1a.5.5,0,0,1,.5-.5h5a.5.5,0,0,1,.5.5Z" fill="#61616b"></path><path data-color="color-2" d="M8,7h3v4a1,1,0,0,0,2,0V7h3a1,1,0,0,0,.781-1.625l-4-5a1.034,1.034,0,0,0-1.562,0l-4,5A1,1,0,0,0,8,7Z" fill="#61616b"></path></g></svg>