<svg xmlns="http://www.w3.org/2000/svg" height="24" width="24" viewBox="0 0 48 48"><g fill="#61616b" class="nc-icon-wrapper"><path data-color="color-2" d="M16.211,14.614l7,9a1.035,1.035,0,0,0,1.578,0l7-9A1,1,0,0,0,31,13H26V4a2,2,0,0,0-4,0v9H17a1,1,0,0,0-.789,1.614Z" fill="#61616b"></path><path d="M40,3H33a1,1,0,0,0,0,2h7a3,3,0,0,1,3,3V27H32a1,1,0,0,0-1,1v5H17V28a1,1,0,0,0-1-1H5V8A3,3,0,0,1,8,5h7a1,1,0,0,0,0-2H8A5.006,5.006,0,0,0,3,8V40a5.006,5.006,0,0,0,5,5H40a5.006,5.006,0,0,0,5-5V8A5.006,5.006,0,0,0,40,3Z" fill="#61616b"></path></g></svg>