<svg xmlns="http://www.w3.org/2000/svg" height="24" width="24" viewBox="0 0 12 12"><g fill="#61616b" class="nc-icon-wrapper"><path data-color="color-2" d="M5,3H3.5a.5.5,0,0,0-.384.82l2.5,3a.5.5,0,0,0,.7.064.553.553,0,0,0,.064-.064l2.5-3A.5.5,0,0,0,8.5,3H7V.5A.5.5,0,0,0,6.5,0h-1A.5.5,0,0,0,5,.5Z" fill="#61616b"></path><path d="M10,0H9.5a.5.5,0,0,0,0,1H10a1,1,0,0,1,1,1V8H1V2A1,1,0,0,1,2,1h.5a.5.5,0,0,0,0-1H2A2,2,0,0,0,0,2v8a2,2,0,0,0,2,2h8a2,2,0,0,0,2-2V2A2,2,0,0,0,10,0Z" fill="#61616b"></path></g></svg>