<svg xmlns="http://www.w3.org/2000/svg" height="24" width="24" viewBox="0 0 64 64"><g fill="#61616b" class="nc-icon-wrapper"><path data-color="color-2" d="M21.231,19.64l10,12a1.036,1.036,0,0,0,1.538,0l10-12A1,1,0,0,0,42,18H34V4a2,2,0,0,0-4,0V18H22a1,1,0,0,0-.769,1.64Z" fill="#61616b"></path><path d="M61.932,37.618l-9-23A1,1,0,0,0,52,13.982H47a1,1,0,0,0,0,2h4.317l8.218,21H4.465l8.218-21H17a1,1,0,0,0,0-2H12a1,1,0,0,0-.932.636l-9,23L2,37.982v19a2,2,0,0,0,2,2H60a2,2,0,0,0,2-2v-19ZM52,48.982H39a1,1,0,0,1,0-2H52a1,1,0,0,1,0,2Z" fill="#61616b"></path></g></svg>