<svg xmlns="http://www.w3.org/2000/svg" height="24" width="24" viewBox="0 0 48 48"><g fill="#61616b" class="nc-icon-wrapper"><path data-color="color-2" d="M31.9,12.561A1,1,0,0,0,31,12H26V3a2,2,0,0,0-4,0v9H17a1,1,0,0,0-.789,1.614l7,9a1,1,0,0,0,1.578,0l7-9A1,1,0,0,0,31.9,12.561Z" fill="#61616b"></path><path d="M46.937,27.649l-6-16A1,1,0,0,0,40,11H36a1,1,0,0,0,0,2h3.307l5.25,14H3.443l5.25-14H12a1,1,0,0,0,0-2H8a1,1,0,0,0-.937.649l-6,16L1,28V43a2,2,0,0,0,2,2H45a2,2,0,0,0,2-2V28ZM38,37H30a1,1,0,0,1,0-2h8a1,1,0,0,1,0,2Z" fill="#61616b"></path></g></svg>