<svg xmlns="http://www.w3.org/2000/svg" height="24" width="24" viewBox="0 0 48 48"><g fill="#61616b" class="nc-icon-wrapper"><path fill="#61616b" d="M41,1H7C5.895,1,5,1.895,5,3v42c0,1.105,0.895,2,2,2h34c1.105,0,2-0.895,2-2V3C43,1.895,42.105,1,41,1z M32.707,22.707C32.512,22.902,32.256,23,32,23s-0.512-0.098-0.707-0.293L25,16.414V34c0,0.552-0.448,1-1,1s-1-0.448-1-1V16.414 l-6.293,6.293c-0.391,0.391-1.023,0.391-1.414,0s-0.391-1.023,0-1.414l8-8c0.092-0.092,0.203-0.165,0.325-0.216 c0.245-0.101,0.52-0.101,0.764,0c0.122,0.051,0.233,0.124,0.325,0.216l8,8C33.098,21.684,33.098,22.316,32.707,22.707z"></path></g></svg>