<svg xmlns="http://www.w3.org/2000/svg" height="24" width="24" viewBox="0 0 32 32"><g fill="#61616b" class="nc-icon-wrapper"><path data-color="color-2" d="M11,8h4v7a1,1,0,0,0,2,0V8h4a1,1,0,0,0,.769-1.64l-5-6A1.036,1.036,0,0,0,15.306.285q-.039.036-.075.075l-5,6A1,1,0,0,0,11,8Z" fill="#61616b"></path><path d="M31.874,19.514l-4.143-7.457A4,4,0,0,0,24.235,10H22a1,1,0,0,0,0,2h2.235a2,2,0,0,1,1.748,1.029L29.3,19H2.7l3.317-5.972A2,2,0,0,1,7.765,12H10a1,1,0,0,0,0-2H7.765a4,4,0,0,0-3.5,2.057L.126,19.514A1,1,0,0,0,0,20v7a4,4,0,0,0,4,4H28a4,4,0,0,0,4-4V20A1,1,0,0,0,31.874,19.514ZM26,26H21a1,1,0,0,1,0-2h5a1,1,0,0,1,0,2Z" fill="#61616b"></path></g></svg>