<svg xmlns="http://www.w3.org/2000/svg" height="24" width="24" viewBox="0 0 24 24"><g fill="#61616b" class="nc-icon-wrapper"><path data-color="color-2" d="M8.5,5H11v6a1,1,0,0,0,2,0V5h2.5a.5.5,0,0,0,.376-.829l-3.5-4a.516.516,0,0,0-.752,0l-3.5,4A.5.5,0,0,0,8.5,5Z" fill="#61616b"></path><path d="M21.407,7.053A3,3,0,0,0,18.56,5h0a1,1,0,0,0,0,2h0a1,1,0,0,1,.949.685L21.613,14H16a1,1,0,0,0-1,1v2H9V15a1,1,0,0,0-1-1H2.387L4.492,7.685A1,1,0,0,1,5.442,7a1,1,0,0,0,0-2A2.994,2.994,0,0,0,2.6,7.052L.052,14.684A1,1,0,0,0,0,15v6a3,3,0,0,0,3,3H21a3,3,0,0,0,3-3V15a1.03,1.03,0,0,0-.051-.316Z" fill="#61616b"></path></g></svg>