<svg xmlns="http://www.w3.org/2000/svg" height="24" width="24" viewBox="0 0 48 48"><g fill="#61616b" class="nc-icon-wrapper"><path data-color="color-2" d="M31.789,10.386l-7-9a1.035,1.035,0,0,0-1.578,0l-7,9A1,1,0,0,0,17,12h5v9a2,2,0,0,0,4,0V12h5a1,1,0,0,0,.789-1.614Z" fill="#61616b"></path><path d="M46.937,27.649l-6-16A1,1,0,0,0,40,11H36a1,1,0,0,0,0,2h3.307l5.25,14H32a1,1,0,0,0-1,1v5H17V28a1,1,0,0,0-1-1H3.443l5.25-14H12a1,1,0,0,0,0-2H8a1,1,0,0,0-.937.649l-6,16L1,28V43a2,2,0,0,0,2,2H45a2,2,0,0,0,2-2V28Z" fill="#61616b"></path></g></svg>