<svg xmlns="http://www.w3.org/2000/svg" height="24" width="24" viewBox="0 0 48 48"><g fill="#61616b" class="nc-icon-wrapper"><path fill="#61616b" d="M41,1H7C5.895,1,5,1.895,5,3v42c0,1.105,0.895,2,2,2h34c1.105,0,2-0.895,2-2V3C43,1.895,42.105,1,41,1z M32.707,26.707l-8,8c-0.092,0.092-0.203,0.165-0.325,0.216C24.26,34.973,24.13,35,24,35s-0.26-0.027-0.382-0.077 c-0.122-0.051-0.233-0.124-0.325-0.216l-8-8c-0.391-0.391-0.391-1.023,0-1.414s1.023-0.391,1.414,0L23,31.586V14 c0-0.552,0.448-1,1-1s1,0.448,1,1v17.586l6.293-6.293c0.391-0.391,1.023-0.391,1.414,0S33.098,26.316,32.707,26.707z"></path></g></svg>