<svg xmlns="http://www.w3.org/2000/svg" height="24" width="24" viewBox="0 0 32 32"><g fill="#61616b" class="nc-icon-wrapper"><path d="M27,1H19.072l1.666,2H27a2.006,2.006,0,0,1,2,2V19H22a1,1,0,0,0-1,1v3H11V20a1,1,0,0,0-1-1H3V5A2.006,2.006,0,0,1,5,3h6.261l1.667-2H5A4.012,4.012,0,0,0,1,5V27a4.012,4.012,0,0,0,4,4H27a4.012,4.012,0,0,0,4-4V5A4.012,4.012,0,0,0,27,1Z" fill="#61616b"></path><path data-color="color-2" d="M10.1,8.424A1,1,0,0,0,11,9h4v7a1,1,0,0,0,2,0V9h4a1,1,0,0,0,.769-1.64l-5-6a1.036,1.036,0,0,0-1.538,0l-5,6A1,1,0,0,0,10.1,8.424Z" fill="#61616b"></path></g></svg>