<svg xmlns="http://www.w3.org/2000/svg" height="24" width="24" viewBox="0 0 24 24"><g fill="#61616b" class="nc-icon-wrapper"><path data-color="color-2" d="M8.5,6H11v5a1,1,0,0,0,2,0V6h2.5a.5.5,0,0,0,.376-.829l-3.5-4a.516.516,0,0,0-.752,0l-3.5,4A.5.5,0,0,0,8.5,6Z" fill="#61616b"></path><path d="M20,1H18a1,1,0,0,0,0,2h2a1,1,0,0,1,1,1v9H16a1,1,0,0,0-1,1v2H9V14a1,1,0,0,0-1-1H3V4A1,1,0,0,1,4,3H6A1,1,0,0,0,6,1H4A3,3,0,0,0,1,4V20a3,3,0,0,0,3,3H20a3,3,0,0,0,3-3V4A3,3,0,0,0,20,1Z" fill="#61616b"></path></g></svg>