<svg xmlns="http://www.w3.org/2000/svg" height="24" width="24" viewBox="0 0 32 32"><g fill="#61616b" class="nc-icon-wrapper"><path data-color="color-2" d="M15.232,15.64a1,1,0,0,0,1.408.128,1.032,1.032,0,0,0,.128-.128l5-6A1,1,0,0,0,21,8H17V1a1,1,0,0,0-2,0V8H11a1,1,0,0,0-.768,1.64Z" fill="#61616b"></path><path d="M31.874,19.514l-4.143-7.456A4,4,0,0,0,24.235,10H24a1,1,0,0,0,0,2h.235a2,2,0,0,1,1.748,1.029L29.3,19H21a1,1,0,0,0-1,1v3H12V20a1,1,0,0,0-1-1H2.7l3.317-5.972A2,2,0,0,1,7.765,12H8a1,1,0,0,0,0-2H7.765a4,4,0,0,0-3.5,2.057L.126,19.514A1,1,0,0,0,0,20v7a4,4,0,0,0,4,4H28a4,4,0,0,0,4-4V20A1,1,0,0,0,31.874,19.514Z" fill="#61616b"></path></g></svg>