<svg xmlns="http://www.w3.org/2000/svg" height="24" width="24" viewBox="0 0 64 64"><g fill="#61616b" class="nc-icon-wrapper"><path data-color="color-2" d="M42.769,16.36l-10-12a1.036,1.036,0,0,0-1.538,0l-10,12A1,1,0,0,0,22,18h8V32a2,2,0,0,0,4,0V18h8a1,1,0,0,0,.769-1.64Z" fill="#61616b"></path><path d="M54,4H42a1,1,0,0,0,0,2H54a4,4,0,0,1,4,4V38H42a1,1,0,0,0-1,1v7H23V39a1,1,0,0,0-1-1H6V10a4,4,0,0,1,4-4H22a1,1,0,0,0,0-2H10a6.006,6.006,0,0,0-6,6V54a6.006,6.006,0,0,0,6,6H54a6.006,6.006,0,0,0,6-6V10A6.006,6.006,0,0,0,54,4Z" fill="#61616b"></path></g></svg>