<svg xmlns="http://www.w3.org/2000/svg" height="24" width="24" viewBox="0 0 32 32"><g fill="#61616b" class="nc-icon-wrapper"><path d="M30,0H2A1,1,0,0,0,2,2H30a1,1,0,0,0,0-2Z" fill="#61616b"></path><path d="M30,30H2a1,1,0,0,0,0,2H30a1,1,0,0,0,0-2Z" fill="#61616b"></path><path data-color="color-2" d="M11,20a1,1,0,0,0-.9.576A.989.989,0,0,0,10,21a1,1,0,0,0,.231.64l5,6a1,1,0,0,0,1.538,0l5-6A1,1,0,0,0,21,20H17V12h4a1,1,0,0,0,.769-1.64l-5-6a1,1,0,0,0-1.538,0l-5,6A1,1,0,0,0,10,11a.989.989,0,0,0,.1.424A1,1,0,0,0,11,12h4v8Z" fill="#61616b"></path></g></svg>