<svg xmlns="http://www.w3.org/2000/svg" height="24" width="24" viewBox="0 0 48 48"><g fill="#61616b" class="nc-icon-wrapper"><path data-color="color-2" d="M15.375,32.781A1,1,0,0,0,17,32V26H31v6a1,1,0,0,0,1.625.781l10-8a1,1,0,0,0,0-1.562l-10-8A1,1,0,0,0,31,16v6H17V16a1,1,0,0,0-1.625-.781l-10,8a1,1,0,0,0,0,1.562Z" fill="#61616b"></path><path d="M46,3a1,1,0,0,0-1,1V44a1,1,0,0,0,2,0V4A1,1,0,0,0,46,3Z" fill="#61616b"></path><path d="M3,4A1,1,0,0,0,1,4V44a1,1,0,0,0,2,0Z" fill="#61616b"></path></g></svg>