<svg xmlns="http://www.w3.org/2000/svg" height="24" width="24" viewBox="0 0 32 32"><g fill="#61616b" class="nc-icon-wrapper"><path d="M31,1a1,1,0,0,0-1,1V30a1,1,0,0,0,2,0V2A1,1,0,0,0,31,1Z" fill="#61616b"></path><path d="M1,1A1,1,0,0,0,0,2V30a1,1,0,0,0,2,0V2A1,1,0,0,0,1,1Z" fill="#61616b"></path><path data-color="color-2" d="M21.64,10.231A1,1,0,0,0,21,10a.989.989,0,0,0-.424.1A1,1,0,0,0,20,11v4H12V11a1,1,0,0,0-.576-.9A.989.989,0,0,0,11,10a1,1,0,0,0-.64.231l-6,5a1,1,0,0,0,0,1.538l6,5A1,1,0,0,0,12,21V17h8v4a1,1,0,0,0,1.64.769l6-5a1,1,0,0,0,0-1.538Z" fill="#61616b"></path></g></svg>