<svg xmlns="http://www.w3.org/2000/svg" height="24" width="24" viewBox="0 0 24 24"><g fill="#61616b" class="nc-icon-wrapper"><path d="M1,2A1,1,0,0,0,0,3V21a1,1,0,0,0,2,0V3A1,1,0,0,0,1,2Z" fill="#61616b"></path><path d="M23,2a1,1,0,0,0-1,1V21a1,1,0,0,0,2,0V3A1,1,0,0,0,23,2Z" fill="#61616b"></path><path data-color="color-2" d="M15.854,7.146A.5.5,0,0,0,15,7.5V11H9V7.5a.5.5,0,0,0-.309-.462.505.505,0,0,0-.545.108l-4.5,4.5a.5.5,0,0,0,0,.708l4.5,4.5A.5.5,0,0,0,9,16.5V13h6v3.5a.5.5,0,0,0,.309.462.5.5,0,0,0,.545-.108l4.5-4.5a.5.5,0,0,0,0-.708Z" fill="#61616b"></path></g></svg>