<svg xmlns="http://www.w3.org/2000/svg" height="24" width="24" viewBox="0 0 64 64"><g fill="#61616b" class="nc-icon-wrapper"><path d="M5,58V6A1,1,0,0,0,3,6V58a1,1,0,0,0,2,0Z" fill="#61616b"></path><path d="M60,5a1,1,0,0,0-1,1V58a1,1,0,0,0,2,0V6A1,1,0,0,0,60,5Z" fill="#61616b"></path><path data-color="color-2" d="M22.359,42.768A1,1,0,0,0,24,42V34H40v8a1,1,0,0,0,1.641.768l12-10a1,1,0,0,0,0-1.536l-12-10A1,1,0,0,0,40,22v8H24V22a1,1,0,0,0-1.641-.768l-12,10a1,1,0,0,0,0,1.536Z" fill="#61616b"></path></g></svg>