<svg xmlns="http://www.w3.org/2000/svg" height="24" width="24" viewBox="0 0 64 64"><g fill="#61616b" class="nc-icon-wrapper"><path d="M30,54v8a2,2,0,0,0,4,0V15h7a1,1,0,0,0,.8-1.6l-9-12a1.036,1.036,0,0,0-1.6,0l-9,12A1,1,0,0,0,23,15h7V50H25a8.009,8.009,0,0,1-8-8V41h7a1,1,0,0,0,.8-1.6l-9-12a1.036,1.036,0,0,0-1.6,0l-9,12A1,1,0,0,0,6,41h7v1A12.013,12.013,0,0,0,25,54Z" fill="#61616b"></path><path data-color="color-2" d="M49.8,19.4a1.036,1.036,0,0,0-1.6,0l-9,12A1,1,0,0,0,40,33h7v1a8.009,8.009,0,0,1-8,8,2,2,0,0,0,0,4A12.013,12.013,0,0,0,51,34V33h7a1,1,0,0,0,.8-1.6Z" fill="#61616b"></path></g></svg>