<svg xmlns="http://www.w3.org/2000/svg" height="24" width="24" viewBox="0 0 32 32"><g fill="#61616b" class="nc-icon-wrapper"><path d="M8.75,24.119A1.99,1.99,0,0,1,8,22.558V20h4a1,1,0,0,0,.768-1.64l-5-6a1.033,1.033,0,0,0-1.536,0l-5,6A1,1,0,0,0,2,20H6v2.558a3.979,3.979,0,0,0,1.5,3.123l3.874,3.1a1,1,0,0,0,1.25-1.562Z" fill="#61616b"></path><path data-color="color-2" d="M21,8a1,1,0,0,0,.768-1.64l-5-6a1.033,1.033,0,0,0-1.536,0l-5,6A1,1,0,0,0,11,8h4V31a1,1,0,0,0,2,0V8Z" fill="#61616b"></path><path d="M25.768,8.36a1.033,1.033,0,0,0-1.536,0l-5,6A1,1,0,0,0,20,16h4v2.757a2.011,2.011,0,0,1-.586,1.415l-4.121,4.121a1,1,0,1,0,1.414,1.414l4.121-4.121A3.976,3.976,0,0,0,26,18.757V16h4a1,1,0,0,0,.768-1.64Z" fill="#61616b"></path></g></svg>