<svg xmlns="http://www.w3.org/2000/svg" height="24" width="24" viewBox="0 0 24 24"><g fill="#61616b" class="nc-icon-wrapper"><path d="M19.376,6.171a.516.516,0,0,0-.752,0l-3.5,4A.5.5,0,0,0,15.5,11H18v1a3,3,0,0,1-3,3H13V5h2.5a.5.5,0,0,0,.376-.829l-3.5-4a.516.516,0,0,0-.752,0l-3.5,4A.5.5,0,0,0,8.5,5H11V19H9a3,3,0,0,1-3-3V14H8.5a.5.5,0,0,0,.376-.829l-3.5-4a.516.516,0,0,0-.752,0l-3.5,4A.5.5,0,0,0,1.5,14H4v2a5.006,5.006,0,0,0,5,5h2v2a1,1,0,0,0,2,0V17h2a5.006,5.006,0,0,0,5-5V11h2.5a.5.5,0,0,0,.376-.829Z" fill="#61616b"></path></g></svg>