<svg xmlns="http://www.w3.org/2000/svg" height="24" width="24" viewBox="0 0 24 24"><g fill="#61616b" class="nc-icon-wrapper"><path data-color="color-2" d="M15.5,5a.5.5,0,0,0,.376-.829l-3.5-4a.516.516,0,0,0-.752,0l-3.5,4A.5.5,0,0,0,8.5,5H11V23a1,1,0,0,0,2,0V5Z" fill="#61616b"></path><path d="M19.376,6.171a.516.516,0,0,0-.752,0l-3.5,4A.5.5,0,0,0,15.5,11H18v3.681a1,1,0,0,1-.606.919l-2.788,1.2a1,1,0,1,0,.788,1.838l2.787-1.2A2.994,2.994,0,0,0,20,14.681V11h2.5a.5.5,0,0,0,.376-.829Z" fill="#61616b"></path><path d="M9.394,18.8,6.605,17.6A1,1,0,0,1,6,16.681V14H8.5a.5.5,0,0,0,.376-.829l-3.5-4a.516.516,0,0,0-.752,0l-3.5,4A.5.5,0,0,0,1.5,14H4v2.681a3,3,0,0,0,1.818,2.757l2.788,1.2A1,1,0,0,0,9.394,18.8Z" fill="#61616b"></path></g></svg>