<svg xmlns="http://www.w3.org/2000/svg" height="24" width="24" viewBox="0 0 32 32"><g fill="#61616b" class="nc-icon-wrapper"><path data-color="color-2" d="M21,8a1,1,0,0,0,.768-1.64l-5-6a1.033,1.033,0,0,0-1.536,0l-5,6A1,1,0,0,0,11,8h4V31a1,1,0,0,0,2,0V8Z" fill="#61616b"></path><path d="M30.768,14.36l-5-6a1.033,1.033,0,0,0-1.536,0l-5,6A1,1,0,0,0,20,16h4v2a3,3,0,0,1-3,3H20a1,1,0,0,0,0,2h1a5.006,5.006,0,0,0,5-5V16h4a1,1,0,0,0,.768-1.64Z" fill="#61616b"></path><path d="M12,25H11a3,3,0,0,1-3-3V20h4a1,1,0,0,0,.768-1.64l-5-6a1.033,1.033,0,0,0-1.536,0l-5,6A1,1,0,0,0,2,20H6v2a5.006,5.006,0,0,0,5,5h1a1,1,0,0,0,0-2Z" fill="#61616b"></path></g></svg>