<svg xmlns="http://www.w3.org/2000/svg" height="24" width="24" viewBox="0 0 48 48"><g fill="#61616b" class="nc-icon-wrapper"><path d="M4,29H9v6a2,2,0,0,0,1.052,1.761L22,43.194V46a2,2,0,0,0,4,0V11h5a1,1,0,0,0,.79-1.614l-7-9a1.037,1.037,0,0,0-1.58,0l-7,9A1,1,0,0,0,17,11h5V38.652l-9-4.847V29h5a1,1,0,0,0,.79-1.614l-7-9a1.037,1.037,0,0,0-1.58,0l-7,9A1,1,0,0,0,4,29Z" fill="#61616b"></path><path data-color="color-2" d="M29.1,23.439A1,1,0,0,0,30,24h5v4.8L29.053,32a2,2,0,1,0,1.894,3.523l7-3.762A2,2,0,0,0,39,30V24h5a1,1,0,0,0,.79-1.614l-7-9a1.037,1.037,0,0,0-1.58,0l-7,9A1,1,0,0,0,29.1,23.439Z" fill="#61616b"></path></g></svg>