<svg xmlns="http://www.w3.org/2000/svg" height="24" width="24" viewBox="0 0 64 64"><g fill="#61616b" class="nc-icon-wrapper"><path data-color="color-2" d="M39.1,31.447A1,1,0,0,0,40,32h7v5.859L37.981,43.2a2,2,0,1,0,2.038,3.443l10-5.917A2,2,0,0,0,51,39V32h7a1,1,0,0,0,.8-1.6l-9-12a1.036,1.036,0,0,0-1.6,0l-9,12A1,1,0,0,0,39.1,31.447Z" fill="#61616b"></path><path d="M6,39h7v7a2,2,0,0,0,.986,1.724L30,57.144V62a2,2,0,0,0,4,0V15h7a1,1,0,0,0,.8-1.6l-9-12a1.036,1.036,0,0,0-1.6,0l-9,12A1,1,0,0,0,23,15h7V52.5L17,44.856V39h7a1,1,0,0,0,.8-1.6l-9-12a1.036,1.036,0,0,0-1.6,0l-9,12A1,1,0,0,0,6,39Z" fill="#61616b"></path></g></svg>