<svg xmlns="http://www.w3.org/2000/svg" height="24" width="24" viewBox="0 0 24 24"><g fill="#61616b" class="nc-icon-wrapper"><path data-color="color-2" d="M18.625,7.219A1,1,0,0,0,17,8v3H11a1,1,0,0,0,0,2h6v3a1,1,0,0,0,1.625.781l5-4a1,1,0,0,0,0-1.562Z" fill="#61616b"></path><path d="M23,2H1A1,1,0,0,0,1,4H23a1,1,0,0,0,0-2Z" fill="#61616b"></path><path d="M23,20H1a1,1,0,0,0,0,2H23a1,1,0,0,0,0-2Z" fill="#61616b"></path><path d="M1,16H7a1,1,0,0,0,0-2H1a1,1,0,0,0,0,2Z" fill="#61616b"></path><path d="M1,10H7A1,1,0,0,0,7,8H1a1,1,0,0,0,0,2Z" fill="#61616b"></path></g></svg>