<svg xmlns="http://www.w3.org/2000/svg" height="24" width="24" viewBox="0 0 32 32"><g fill="#61616b" class="nc-icon-wrapper"><path d="M31,3H1A1,1,0,0,0,1,5H31a1,1,0,0,0,0-2Z" fill="#61616b"></path><path d="M31,11H21a1,1,0,0,0,0,2H31a1,1,0,0,0,0-2Z" fill="#61616b"></path><path d="M31,19H21a1,1,0,0,0,0,2H31a1,1,0,0,0,0-2Z" fill="#61616b"></path><path d="M31,27H1a1,1,0,0,0,0,2H31a1,1,0,0,0,0-2Z" fill="#61616b"></path><path data-color="color-2" d="M9.447,9.105A1,1,0,0,0,8.4,9.2l-8,6a1,1,0,0,0,0,1.6l8,6A1,1,0,0,0,10,22V17h6a1,1,0,0,0,0-2H10V10A1,1,0,0,0,9.447,9.105Z" fill="#61616b"></path></g></svg>