<svg xmlns="http://www.w3.org/2000/svg" height="24" width="24" viewBox="0 0 12 12"><g fill="#61616b" class="nc-icon-wrapper"><rect y="5" width="3" height="2" rx="0.5" fill="#61616b"></rect><rect y="9" width="6" height="2" rx="0.5" fill="#61616b"></rect><rect y="1" width="6" height="2" rx="0.5" fill="#61616b"></rect><path data-color="color-2" d="M8.82,3.116A.5.5,0,0,0,8,3.5V5H5.5a.5.5,0,0,0-.5.5v1a.5.5,0,0,0,.5.5H8V8.5a.5.5,0,0,0,.288.453A.507.507,0,0,0,8.5,9a.494.494,0,0,0,.32-.116l3-2.5a.5.5,0,0,0,0-.768Z" fill="#61616b"></path></g></svg>