<svg xmlns="http://www.w3.org/2000/svg" height="24" width="24" viewBox="0 0 16 16"><g fill="#61616b" class="nc-icon-wrapper"><path data-color="color-2" d="M4.171,11.876A.5.5,0,0,0,4.5,12a.5.5,0,0,0,.5-.5V9H7A1,1,0,0,0,7,7H5V4.5a.5.5,0,0,0-.293-.455.5.5,0,0,0-.536.079l-4,3.5a.5.5,0,0,0,0,.752Z" fill="#61616b"></path><path d="M15,13H1a1,1,0,0,0,0,2H15a1,1,0,0,0,0-2Z" fill="#61616b"></path><path d="M15,9H11a1,1,0,0,0,0,2h4a1,1,0,0,0,0-2Z" fill="#61616b"></path><path d="M15,5H11a1,1,0,0,0,0,2h4a1,1,0,0,0,0-2Z" fill="#61616b"></path><path d="M1,3H15a1,1,0,0,0,0-2H1A1,1,0,0,0,1,3Z" fill="#61616b"></path></g></svg>