<svg xmlns="http://www.w3.org/2000/svg" height="24" width="24" viewBox="0 0 24 24"><g fill="#61616b" class="nc-icon-wrapper"><path data-color="color-2" d="M6.433,7.1a1,1,0,0,0-1.058.12l-5,4a1,1,0,0,0,0,1.562l5,4A1,1,0,0,0,7,16V13h6a1,1,0,0,0,0-2H7V8A1,1,0,0,0,6.433,7.1Z" fill="#61616b"></path><path d="M23,2H1A1,1,0,0,0,1,4H23a1,1,0,0,0,0-2Z" fill="#61616b"></path><path d="M23,20H1a1,1,0,0,0,0,2H23a1,1,0,0,0,0-2Z" fill="#61616b"></path><path d="M23,14H17a1,1,0,0,0,0,2h6a1,1,0,0,0,0-2Z" fill="#61616b"></path><path d="M23,8H17a1,1,0,0,0,0,2h6a1,1,0,0,0,0-2Z" fill="#61616b"></path></g></svg>