<svg xmlns="http://www.w3.org/2000/svg" height="24" width="24" viewBox="0 0 64 64"><g fill="#61616b" class="nc-icon-wrapper"><path d="M60,7H4A1,1,0,0,0,4,9H60a1,1,0,0,0,0-2Z" fill="#61616b"></path><path d="M60,55H4a1,1,0,0,0,0,2H60a1,1,0,0,0,0-2Z" fill="#61616b"></path><path d="M4,33H22a1,1,0,0,0,0-2H4a1,1,0,0,0,0,2Z" fill="#61616b"></path><path d="M4,45H22a1,1,0,0,0,0-2H4a1,1,0,0,0,0,2Z" fill="#61616b"></path><path d="M4,21H22a1,1,0,0,0,0-2H4a1,1,0,0,0,0,2Z" fill="#61616b"></path><path data-color="color-2" d="M46.618,20.214A1,1,0,0,0,45,21v8H32a3,3,0,0,0,0,6H45v8a1,1,0,0,0,1.618.786l14-11a1,1,0,0,0,0-1.572Z" fill="#61616b"></path></g></svg>