<svg xmlns="http://www.w3.org/2000/svg" height="24" width="24" viewBox="0 0 12 12"><g fill="#61616b" class="nc-icon-wrapper"><rect x="9" y="5" width="3" height="2" rx="0.5" fill="#61616b"></rect><rect x="6" y="1" width="6" height="2" rx="0.5" fill="#61616b"></rect><rect x="6" y="9" width="6" height="2" rx="0.5" fill="#61616b"></rect><path data-color="color-2" d="M3.18,8.884A.494.494,0,0,0,3.5,9a.507.507,0,0,0,.212-.047A.5.5,0,0,0,4,8.5V7H6.5A.5.5,0,0,0,7,6.5v-1A.5.5,0,0,0,6.5,5H4V3.5a.5.5,0,0,0-.82-.384l-3,2.5a.5.5,0,0,0,0,.768Z" fill="#61616b"></path></g></svg>