<svg xmlns="http://www.w3.org/2000/svg" height="24" width="24" viewBox="0 0 64 64"><g fill="#61616b" class="nc-icon-wrapper"><path d="M60,7H4A1,1,0,0,0,4,9H60a1,1,0,0,0,0-2Z" fill="#61616b"></path><path d="M60,55H4a1,1,0,0,0,0,2H60a1,1,0,0,0,0-2Z" fill="#61616b"></path><path d="M60,31H42a1,1,0,0,0,0,2H60a1,1,0,0,0,0-2Z" fill="#61616b"></path><path d="M60,43H42a1,1,0,0,0,0,2H60a1,1,0,0,0,0-2Z" fill="#61616b"></path><path d="M60,19H42a1,1,0,0,0,0,2H60a1,1,0,0,0,0-2Z" fill="#61616b"></path><path data-color="color-2" d="M18.437,20.1a1,1,0,0,0-1.055.113l-14,11a1,1,0,0,0,0,1.572l14,11A1,1,0,0,0,18,44a1,1,0,0,0,1-1V35H32a3,3,0,0,0,0-6H19V21A1,1,0,0,0,18.437,20.1Z" fill="#61616b"></path></g></svg>