<svg xmlns="http://www.w3.org/2000/svg" height="24" width="24" viewBox="0 0 48 48"><g fill="#61616b" class="nc-icon-wrapper"><path d="M45,5H3A1,1,0,0,0,3,7H45a1,1,0,0,0,0-2Z" fill="#61616b"></path><path d="M45,41H3a1,1,0,0,0,0,2H45a1,1,0,0,0,0-2Z" fill="#61616b"></path><path d="M45,23H34a1,1,0,0,0,0,2H45a1,1,0,0,0,0-2Z" fill="#61616b"></path><path d="M45,14H34a1,1,0,0,0,0,2H45a1,1,0,0,0,0-2Z" fill="#61616b"></path><path d="M45,32H34a1,1,0,0,0,0,2H45a1,1,0,0,0,0-2Z" fill="#61616b"></path><path data-color="color-2" d="M14.454,15.109a1,1,0,0,0-1.042.082l-11,8a1,1,0,0,0,0,1.618l11,8A1,1,0,0,0,15,32V26H26a2,2,0,0,0,0-4H15V16A1,1,0,0,0,14.454,15.109Z" fill="#61616b"></path></g></svg>