<svg xmlns="http://www.w3.org/2000/svg" height="24" width="24" viewBox="0 0 32 32"><g fill="#61616b" class="nc-icon-wrapper"><path d="M31,3H1A1,1,0,0,0,1,5H31a1,1,0,0,0,0-2Z" fill="#61616b"></path><path d="M1,13H11a1,1,0,0,0,0-2H1a1,1,0,0,0,0,2Z" fill="#61616b"></path><path d="M1,21H11a1,1,0,0,0,0-2H1a1,1,0,0,0,0,2Z" fill="#61616b"></path><path d="M31,27H1a1,1,0,0,0,0,2H31a1,1,0,0,0,0-2Z" fill="#61616b"></path><path data-color="color-2" d="M23.6,9.2A1,1,0,0,0,22,10v5H16a1,1,0,0,0,0,2h6v5a1,1,0,0,0,1.6.8l8-6a1,1,0,0,0,0-1.6Z" fill="#61616b"></path></g></svg>