<svg xmlns="http://www.w3.org/2000/svg" height="24" width="24" viewBox="0 0 32 32"><g fill="#61616b" class="nc-icon-wrapper"><path d="M30,29H2a1,1,0,0,0,0,2H30a1,1,0,0,0,0-2Z" fill="#61616b"></path><path d="M2,21h9a1,1,0,0,0,0-2H2a1,1,0,0,0,0,2Z" fill="#61616b"></path><path d="M30,19H21a1,1,0,0,0,0,2h9a1,1,0,0,0,0-2Z" fill="#61616b"></path><path data-color="color-2" d="M9,12h6V25a1,1,0,0,0,2,0V12h6a1,1,0,0,0,.79-1.614l-7-9a1.037,1.037,0,0,0-1.58,0l-7,9A1,1,0,0,0,9,12Z" fill="#61616b"></path></g></svg>