<svg xmlns="http://www.w3.org/2000/svg" height="24" width="24" viewBox="0 0 12 12"><g fill="#61616b" class="nc-icon-wrapper"><rect x="9" y="6" width="3" height="2" rx="0.5" fill="#61616b"></rect><rect y="6" width="3" height="2" rx="0.5" fill="#61616b"></rect><rect y="10" width="12" height="2" rx="0.5" fill="#61616b"></rect><path data-color="color-2" d="M5.5,8h1A.5.5,0,0,0,7,7.5V4H8.5a.5.5,0,0,0,.384-.82l-2.5-3a.517.517,0,0,0-.768,0l-2.5,3A.5.5,0,0,0,3.5,4H5V7.5A.5.5,0,0,0,5.5,8Z" fill="#61616b"></path></g></svg>