<svg xmlns="http://www.w3.org/2000/svg" height="24" width="24" viewBox="0 0 48 48"><g fill="#61616b" class="nc-icon-wrapper"><path d="M45,43H3a1,1,0,0,0,0,2H45a1,1,0,0,0,0-2Z" fill="#61616b"></path><path d="M3,30H17a1,1,0,0,0,0-2H3a1,1,0,0,0,0,2Z" fill="#61616b"></path><path d="M30,29a1,1,0,0,0,1,1H45a1,1,0,0,0,0-2H31A1,1,0,0,0,30,29Z" fill="#61616b"></path><path data-color="color-2" d="M14,18h8V37a2,2,0,0,0,4,0V18h8a1,1,0,0,0,.793-1.609l-10-13a1.035,1.035,0,0,0-1.586,0l-10,13A1,1,0,0,0,14,18Z" fill="#61616b"></path></g></svg>