<svg xmlns="http://www.w3.org/2000/svg" height="24" width="24" viewBox="0 0 64 64"><g fill="#61616b" class="nc-icon-wrapper"><path data-color="color-2" d="M20,21h9V50a3,3,0,0,0,6,0V21h9a1,1,0,0,0,.8-1.6l-12-16a1.036,1.036,0,0,0-1.6,0l-12,16A1,1,0,0,0,20,21Z" fill="#61616b"></path><path d="M60,59H4a1,1,0,0,0,0,2H60a1,1,0,0,0,0-2Z" fill="#61616b"></path><path d="M4,41H22a1,1,0,0,0,0-2H4a1,1,0,0,0,0,2Z" fill="#61616b"></path><path d="M41,40a1,1,0,0,0,1,1H60a1,1,0,0,0,0-2H42A1,1,0,0,0,41,40Z" fill="#61616b"></path></g></svg>