<svg xmlns="http://www.w3.org/2000/svg" height="24" width="24" viewBox="0 0 24 24"><g fill="#61616b" class="nc-icon-wrapper"><path d="M22.383,14.076a1,1,0,0,0-1.09.217L18.5,17.086l-2.793-2.793a1,1,0,0,0-1.414,1.414L17.086,18.5l-2.793,2.793A1,1,0,0,0,15,23h7a1,1,0,0,0,1-1V15A1,1,0,0,0,22.383,14.076Z" fill="#61616b"></path><path d="M6.914,5.5,9.707,2.707A1,1,0,0,0,9,1H2A1,1,0,0,0,1,2V9a1,1,0,0,0,.617.924A.987.987,0,0,0,2,10a1,1,0,0,0,.707-.293L5.5,6.914,8.293,9.707A1,1,0,0,0,9.707,8.293Z" fill="#61616b"></path><path data-color="color-2" d="M9.707,14.293a1,1,0,0,0-1.414,0L5.5,17.086,2.707,14.293A1,1,0,0,0,1,15v7a1,1,0,0,0,1,1H9a1,1,0,0,0,.707-1.707L6.914,18.5l2.793-2.793A1,1,0,0,0,9.707,14.293Z" fill="#61616b"></path><path data-color="color-2" d="M22,1H15a1,1,0,0,0-.707,1.707L17.086,5.5,14.293,8.293a1,1,0,1,0,1.414,1.414L18.5,6.914l2.793,2.793A1,1,0,0,0,22,10a.987.987,0,0,0,.383-.076A1,1,0,0,0,23,9V2A1,1,0,0,0,22,1Z" fill="#61616b"></path></g></svg>