<svg xmlns="http://www.w3.org/2000/svg" height="24" width="24" viewBox="0 0 16 16"><g fill="#61616b" class="nc-icon-wrapper"><path data-color="color-2" d="M15,0H10a1,1,0,0,0,0,2h2.586L9.293,5.293a1,1,0,1,0,1.414,1.414L14,3.414V6a1,1,0,0,0,2,0V1A1,1,0,0,0,15,0Z" fill="#61616b"></path><path data-color="color-2" d="M6.707,9.293a1,1,0,0,0-1.414,0L2,12.586V10a1,1,0,0,0-2,0v5a1,1,0,0,0,1,1c.028.028.04.022.046,0H6a1,1,0,0,0,0-2H3.414l3.293-3.293A1,1,0,0,0,6.707,9.293Z" fill="#61616b"></path><path d="M7,1A1,1,0,0,0,6,0H1A1,1,0,0,0,0,1V6A1,1,0,0,0,2,6V3.414L5.293,6.707A1,1,0,0,0,6.707,5.293L3.414,2H6A1,1,0,0,0,7,1Z" fill="#61616b"></path><path d="M15,9a1,1,0,0,0-1,1v2.586L10.707,9.293a1,1,0,0,0-1.414,1.414L12.586,14H10a1,1,0,0,0,0,2h4.954c.006.022.018.028.046,0a1,1,0,0,0,1-1V10A1,1,0,0,0,15,9Z" fill="#61616b"></path></g></svg>