<svg xmlns="http://www.w3.org/2000/svg" height="24" width="24" viewBox="0 0 24 24"><g fill="#61616b" class="nc-icon-wrapper"><path data-color="color-2" d="M8.293,14.293,3,19.586V16a1,1,0,0,0-2,0v6a1,1,0,0,0,1,1H8a1,1,0,0,0,0-2H4.414l5.293-5.293a1,1,0,0,0-1.414-1.414Z" fill="#61616b"></path><path d="M4.414,3H8A1,1,0,0,0,8,1H2A1,1,0,0,0,1,2V8A1,1,0,0,0,3,8V4.414L8.293,9.707A1,1,0,0,0,9.707,8.293Z" fill="#61616b"></path><path data-color="color-2" d="M22,1H16a1,1,0,0,0,0,2h3.586L14.293,8.293a1,1,0,1,0,1.414,1.414L21,4.414V8a1,1,0,0,0,2,0V2A1,1,0,0,0,22,1Z" fill="#61616b"></path><path d="M22,15a1,1,0,0,0-1,1v3.586l-5.293-5.293a1,1,0,0,0-1.414,1.414L19.586,21H16a1,1,0,0,0,0,2h6a1,1,0,0,0,1-1V16A1,1,0,0,0,22,15Z" fill="#61616b"></path></g></svg>