<svg xmlns="http://www.w3.org/2000/svg" height="24" width="24" viewBox="0 0 48 48"><g fill="#61616b" class="nc-icon-wrapper"><path d="M14.121,11.293l4.586-4.586A1,1,0,0,0,18.2,5.02l-15-3A1,1,0,0,0,2.02,3.2l3,15a1,1,0,0,0,1.687.511l4.586-4.586,5.293,5.293a2,2,0,0,0,2.828-2.828Z" fill="#61616b"></path><path data-color="color-2" d="M44.8,2.02l-15,3a1,1,0,0,0-.511,1.687l4.586,4.586-5.293,5.293a2,2,0,1,0,2.828,2.828l5.293-5.293,4.586,4.586A1,1,0,0,0,42.98,18.2l3-15A1,1,0,0,0,44.8,2.02Z" fill="#61616b"></path><path d="M42.98,29.8a1,1,0,0,0-1.687-.511l-4.586,4.586-5.293-5.293a2,2,0,0,0-2.828,2.828l5.293,5.293-4.586,4.586A1,1,0,0,0,29.8,42.98l15,3A1,1,0,0,0,45.98,44.8Z" fill="#61616b"></path><path data-color="color-2" d="M16.586,28.586l-5.293,5.293L6.707,29.293A1,1,0,0,0,5.02,29.8l-3,15A1,1,0,0,0,3.2,45.98l15-3a1,1,0,0,0,.511-1.687l-4.586-4.586,5.293-5.293a2,2,0,0,0-2.828-2.828Z" fill="#61616b"></path></g></svg>