<svg xmlns="http://www.w3.org/2000/svg" height="24" width="24" viewBox="0 0 32 32"><g fill="#61616b" class="nc-icon-wrapper"><path data-color="color-2" d="M30,1H20a1,1,0,0,0,0,2h7.586l-7.293,7.293a1,1,0,1,0,1.414,1.414L29,4.414V12a1,1,0,0,0,2,0V2A1,1,0,0,0,30,1Z" fill="#61616b"></path><path data-color="color-2" d="M12,29H4.414l7.293-7.293a1,1,0,0,0-1.414-1.414L3,27.586V20a1,1,0,0,0-2,0V30a1,1,0,0,0,1,1H12a1,1,0,0,0,0-2Z" fill="#61616b"></path><path d="M12,1H2A1,1,0,0,0,1,2V12a1,1,0,0,0,2,0V4.414l7.293,7.293a1,1,0,0,0,1.414-1.414L4.414,3H12a1,1,0,0,0,0-2Z" fill="#61616b"></path><path d="M30,19a1,1,0,0,0-1,1v7.586l-7.293-7.293a1,1,0,0,0-1.414,1.414L27.586,29H20a1,1,0,0,0,0,2H30a1,1,0,0,0,1-1V20A1,1,0,0,0,30,19Z" fill="#61616b"></path></g></svg>