<svg xmlns="http://www.w3.org/2000/svg" height="24" width="24" viewBox="0 0 64 64"><g fill="#61616b" class="nc-icon-wrapper"><path d="M10.828,8H24a1,1,0,0,0,1-1V5a1,1,0,0,0-1-1H5A1,1,0,0,0,4,5V24a1,1,0,0,0,1,1H7a1,1,0,0,0,1-1V10.828L22.586,25.414a1,1,0,0,0,1.414,0L25.414,24a1,1,0,0,0,0-1.414Z" fill="#61616b"></path><path data-color="color-2" d="M59,4H40a1,1,0,0,0-1,1V7a1,1,0,0,0,1,1H53.172L38.586,22.586a1,1,0,0,0,0,1.414L40,25.414a1,1,0,0,0,1.414,0L56,10.828V24a1,1,0,0,0,1,1h2a1,1,0,0,0,1-1V5A1,1,0,0,0,59,4Z" fill="#61616b"></path><path d="M59,39H57a1,1,0,0,0-1,1V53.172L41.414,38.586a1,1,0,0,0-1.414,0L38.586,40a1,1,0,0,0,0,1.414L53.172,56H40a1,1,0,0,0-1,1v2a1,1,0,0,0,1,1H59a1,1,0,0,0,1-1V40A1,1,0,0,0,59,39Z" fill="#61616b"></path><path data-color="color-2" d="M24,38.586a1,1,0,0,0-1.414,0L8,53.172V40a1,1,0,0,0-1-1H5a1,1,0,0,0-1,1V59a1,1,0,0,0,1,1H24a1,1,0,0,0,1-1V57a1,1,0,0,0-1-1H10.828L25.414,41.414a1,1,0,0,0,0-1.414Z" fill="#61616b"></path></g></svg>