<svg xmlns="http://www.w3.org/2000/svg" height="24" width="24" viewBox="0 0 16 16"><g fill="#61616b" class="nc-icon-wrapper"><path d="M7,10V4h2c.202,0,.385-.122,.462-.309,.078-.187,.035-.402-.108-.545L6.354,.146c-.195-.195-.512-.195-.707,0L2.646,3.146c-.143,.143-.186,.358-.108,.545,.077,.187,.26,.309,.462,.309h2v6c0,.552,.448,1,1,1h0c.552,0,1-.448,1-1Z" fill="#61616b" data-color="color-2"></path><path d="M1,16c-.256,0-.512-.098-.707-.293-.391-.391-.391-1.023,0-1.414l5-5c.188-.188,.442-.293,.707-.293H15c.552,0,1,.447,1,1s-.448,1-1,1H6.414L1.707,15.707c-.195,.195-.451,.293-.707,.293Z" fill="#61616b"></path></g></svg>