<svg xmlns="http://www.w3.org/2000/svg" height="24" width="24" viewBox="0 0 24 24"><g fill="#61616b" class="nc-icon-wrapper"><path data-color="color-2" d="M7.787,2.091A.5.5,0,0,0,7,2.5V5.069A8,8,0,0,0,8,21h3a1,1,0,0,0,0-2H8A6,6,0,0,1,7,7.09V9.5a.5.5,0,0,0,.5.5.494.494,0,0,0,.287-.091l5-3.5a.5.5,0,0,0,0-.818Z" fill="#61616b"></path><path d="M23,19H15a1,1,0,0,0,0,2h8a1,1,0,0,0,0-2Z" fill="#61616b"></path><path d="M23,12H15a1,1,0,0,0,0,2h8a1,1,0,0,0,0-2Z" fill="#61616b"></path><path d="M15,7h8a1,1,0,0,0,0-2H15a1,1,0,0,0,0,2Z" fill="#61616b"></path></g></svg>