<svg xmlns="http://www.w3.org/2000/svg" height="24" width="24" viewBox="0 0 48 48"><g fill="#61616b" class="nc-icon-wrapper"><path d="M46,39H30a1,1,0,0,0,0,2H46a1,1,0,0,0,0-2Z" fill="#61616b"></path><path d="M46,25H30a1,1,0,0,0,0,2H46a1,1,0,0,0,0-2Z" fill="#61616b"></path><path d="M46,11H30a1,1,0,0,0,0,2H46a1,1,0,0,0,0-2Z" fill="#61616b"></path><path data-color="color-2" d="M26.573,11.181l-10-7A1,1,0,0,0,15,5v5.139A15.993,15.993,0,0,0,17,42h4a2,2,0,0,0,0-4H17a11.993,11.993,0,0,1-2-23.819V19a1,1,0,0,0,1.573.819l10-7a1,1,0,0,0,0-1.638Z" fill="#61616b"></path></g></svg>