<svg xmlns="http://www.w3.org/2000/svg" height="24" width="24" viewBox="0 0 24 24"><g fill="#61616b" class="nc-icon-wrapper"><path data-color="color-2" d="M12,0a1,1,0,0,0-1,1V23a1,1,0,0,0,2,0V1A1,1,0,0,0,12,0Z" fill="#61616b"></path><path d="M8,11H5V8a.5.5,0,0,0-.854-.354l-4,4a.5.5,0,0,0,0,.708l4,4A.5.5,0,0,0,4.5,16.5a.493.493,0,0,0,.191-.038A.5.5,0,0,0,5,16V13H8a1,1,0,0,0,0-2Z" fill="#61616b"></path><path d="M23.854,11.646l-4-4A.5.5,0,0,0,19,8v3H16a1,1,0,0,0,0,2h3v3a.5.5,0,0,0,.309.462.493.493,0,0,0,.191.038.5.5,0,0,0,.354-.146l4-4A.5.5,0,0,0,23.854,11.646Z" fill="#61616b"></path></g></svg>