<svg xmlns="http://www.w3.org/2000/svg" height="24" width="24" viewBox="0 0 48 48"><g fill="#61616b" class="nc-icon-wrapper"><path d="M38.659,16.247A1,1,0,0,0,37,17v5H30a2,2,0,0,0,0,4h7v5a1,1,0,0,0,.587.91A.983.983,0,0,0,38,32a1,1,0,0,0,.659-.247l8-7a1,1,0,0,0,0-1.506Z" fill="#61616b"></path><path d="M18,22H11V17a1,1,0,0,0-1.659-.753l-8,7a1,1,0,0,0,0,1.506l8,7A1,1,0,0,0,10,32a.983.983,0,0,0,.413-.09A1,1,0,0,0,11,31V26h7a2,2,0,0,0,0-4Z" fill="#61616b"></path><path data-color="color-2" d="M24,1a1,1,0,0,0-1,1V46a1,1,0,0,0,2,0V2A1,1,0,0,0,24,1Z" fill="#61616b"></path></g></svg>