<svg xmlns="http://www.w3.org/2000/svg" height="24" width="24" viewBox="0 0 32 32"><g fill="#61616b" class="nc-icon-wrapper"><path data-color="color-2" d="M16,1a1,1,0,0,0-1,1V30a1,1,0,0,0,2,0V2A1,1,0,0,0,16,1Z" fill="#61616b"></path><path d="M31.64,15.231l-6-5A1,1,0,0,0,24,11v4H20a1,1,0,0,0,0,2h4v4a1,1,0,0,0,.576.9A.989.989,0,0,0,25,22a1,1,0,0,0,.64-.231l6-5a1,1,0,0,0,0-1.538Z" fill="#61616b"></path><path d="M12,15H8V11a1,1,0,0,0-1.64-.769l-6,5a1,1,0,0,0,0,1.538l6,5A1,1,0,0,0,7,22a.989.989,0,0,0,.424-.1A1,1,0,0,0,8,21V17h4a1,1,0,0,0,0-2Z" fill="#61616b"></path></g></svg>