<svg xmlns="http://www.w3.org/2000/svg" height="24" width="24" viewBox="0 0 64 64"><g fill="#61616b" class="nc-icon-wrapper"><path d="M49.64,21.231A1,1,0,0,0,48,22v8H40a2,2,0,0,0,0,4h8v8a1,1,0,0,0,.576.905A.989.989,0,0,0,49,43a1,1,0,0,0,.64-.231l12-10a1,1,0,0,0,0-1.538Z" fill="#61616b"></path><path d="M24,30H16V22a1,1,0,0,0-1.64-.769l-12,10a1,1,0,0,0,0,1.538l12,10A1,1,0,0,0,15,43a.989.989,0,0,0,.424-.095A1,1,0,0,0,16,42V34h8a2,2,0,0,0,0-4Z" fill="#61616b"></path><path data-color="color-2" d="M32,2a1,1,0,0,0-1,1V61a1,1,0,0,0,2,0V3A1,1,0,0,0,32,2Z" fill="#61616b"></path></g></svg>