<svg xmlns="http://www.w3.org/2000/svg" height="24" width="24" viewBox="0 0 32 32"><g fill="#61616b" class="nc-icon-wrapper"><path d="M30,11H8a1,1,0,0,0-1,1V30a1,1,0,0,0,1,1H30a1,1,0,0,0,1-1V12A1,1,0,0,0,30,11ZM29,29H9V13H29Z" fill="#61616b"></path><circle cx="14" cy="18" r="2" fill="#61616b"></circle><path data-color="color-2" d="M19,7a1,1,0,0,0,.581-1.813l-7-5A1,1,0,0,0,11,1V5H8a7.009,7.009,0,0,0-7,7v5a1,1,0,0,0,2,0V12A5.006,5.006,0,0,1,8,7Z" fill="#61616b"></path><path d="M13,27H26a1,1,0,0,0,.868-1.5l-4-7a1,1,0,0,0-1.482-.293l-9,7A1,1,0,0,0,13,27Z" fill="#61616b"></path></g></svg>