<svg xmlns="http://www.w3.org/2000/svg" height="24" width="24" viewBox="0 0 24 24"><g fill="#61616b" class="nc-icon-wrapper"><path d="M11.964,14.314a.5.5,0,0,0-.341-.3.493.493,0,0,0-.443.1l-6,5A.5.5,0,0,0,5.5,20h8a.5.5,0,0,0,.464-.686Z" fill="#61616b"></path><circle cx="6" cy="15" r="1" fill="#61616b"></circle><path d="M16,10H3a2,2,0,0,0-2,2V22a2,2,0,0,0,2,2H16a2,2,0,0,0,2-2V12A2,2,0,0,0,16,10ZM3,22V12H16l0,10Z" fill="#61616b"></path><path data-color="color-2" d="M18,3H15V.5a.5.5,0,0,0-.27-.443.493.493,0,0,0-.517.034l-5,3.5a.5.5,0,0,0,0,.818l5,3.5A.5.5,0,0,0,15,7.5V5h3a4,4,0,0,1,4,4v2a1,1,0,0,0,2,0V9A6.006,6.006,0,0,0,18,3Z" fill="#61616b"></path></g></svg>