<svg xmlns="http://www.w3.org/2000/svg" height="24" width="24" viewBox="0 0 24 24"><g fill="#61616b" class="nc-icon-wrapper"><path d="M16.964,14.314a.5.5,0,0,0-.341-.3.493.493,0,0,0-.443.1l-6,5A.5.5,0,0,0,10.5,20h8a.5.5,0,0,0,.464-.686Z" fill="#61616b"></path><circle cx="11" cy="15" r="1" fill="#61616b"></circle><path d="M21,10H8a2,2,0,0,0-2,2V22a2,2,0,0,0,2,2H21a2,2,0,0,0,2-2V12A2,2,0,0,0,21,10ZM8,22V12H21l0,10Z" fill="#61616b"></path><path data-color="color-2" d="M9,5V7.5a.5.5,0,0,0,.27.443.5.5,0,0,0,.517-.034l5-3.5a.5.5,0,0,0,0-.818l-5-3.5A.493.493,0,0,0,9.27.057.5.5,0,0,0,9,.5V3H6A6.006,6.006,0,0,0,0,9v2a1,1,0,0,0,2,0V9A4,4,0,0,1,6,5Z" fill="#61616b"></path></g></svg>