<svg xmlns="http://www.w3.org/2000/svg" height="24" width="24" viewBox="0 0 32 32"><g fill="#61616b" class="nc-icon-wrapper"><path d="M2,31H24a1,1,0,0,0,1-1V12a1,1,0,0,0-1-1H2a1,1,0,0,0-1,1V30A1,1,0,0,0,2,31ZM3,13H23V29H3Z" fill="#61616b"></path><circle cx="8" cy="18" r="2" fill="#61616b"></circle><path data-color="color-2" d="M24,5H21V1A1,1,0,0,0,19.419.187l-7,5A1,1,0,0,0,13,7H24a5.006,5.006,0,0,1,5,5v5a1,1,0,0,0,2,0V12A7.009,7.009,0,0,0,24,5Z" fill="#61616b"></path><path d="M16.868,18.5a1,1,0,0,0-1.482-.293l-9,7A1,1,0,0,0,7,27H20a1,1,0,0,0,.868-1.5Z" fill="#61616b"></path></g></svg>