<svg xmlns="http://www.w3.org/2000/svg" height="24" width="24" viewBox="0 0 48 48"><g fill="#61616b" class="nc-icon-wrapper"><path fill="#61616b" d="M46,19H13c-0.552,0-1,0.448-1,1v26c0,0.552,0.448,1,1,1h33c0.552,0,1-0.448,1-1V20 C47,19.448,46.552,19,46,19z M45,45H14V21h31V45z"></path> <circle fill="#61616b" cx="21" cy="28" r="3"></circle> <path data-color="color-2" fill="#61616b" d="M15,9v5c0,0.379,0.214,0.725,0.553,0.895C15.694,14.965,15.848,15,16,15 c0.212,0,0.423-0.068,0.6-0.2l8-6C24.852,8.611,25,8.315,25,8s-0.148-0.611-0.4-0.8l-8-6c-0.304-0.228-0.709-0.264-1.047-0.095 C15.214,1.275,15,1.621,15,2v5h-3C5.935,7,1,11.935,1,18v6c0,0.552,0.448,1,1,1s1-0.448,1-1v-6c0-4.962,4.038-9,9-9H15z"></path> <path fill="#61616b" d="M17,43h25c0.347,0,0.668-0.18,0.851-0.474c0.182-0.295,0.199-0.663,0.044-0.973l-6-12 c-0.126-0.252-0.354-0.44-0.626-0.516c-0.273-0.076-0.563-0.033-0.803,0.118l-19,12c-0.376,0.238-0.55,0.696-0.426,1.124 C16.163,42.706,16.555,43,17,43z"></path></g></svg>