<svg xmlns="http://www.w3.org/2000/svg" height="24" width="24" viewBox="0 0 48 48"><g fill="#61616b" class="nc-icon-wrapper"><path fill="#61616b" d="M35,19H2c-0.553,0-1,0.448-1,1v26c0,0.552,0.447,1,1,1h33c0.553,0,1-0.448,1-1V20C36,19.448,35.553,19,35,19 z M34,45H3V21h31V45z"></path> <circle fill="#61616b" cx="10" cy="28" r="3"></circle> <path data-color="color-2" fill="#61616b" d="M36,7h-3V2c0-0.379-0.214-0.725-0.553-0.895C32.109,0.937,31.703,0.973,31.4,1.2l-8,6 C23.148,7.389,23,7.685,23,8s0.148,0.611,0.4,0.8l8,6c0.176,0.132,0.388,0.2,0.6,0.2c0.152,0,0.306-0.035,0.447-0.105 C32.786,14.725,33,14.379,33,14V9h3c4.963,0,9,4.038,9,9v6c0,0.552,0.447,1,1,1s1-0.448,1-1v-6C47,11.935,42.065,7,36,7z"></path> <path fill="#61616b" d="M6,43h25c0.347,0,0.668-0.18,0.851-0.474c0.183-0.295,0.199-0.663,0.044-0.973l-6-12 c-0.126-0.252-0.354-0.44-0.626-0.516c-0.271-0.075-0.564-0.033-0.803,0.118l-19,12c-0.376,0.238-0.55,0.696-0.427,1.124 C5.163,42.706,5.555,43,6,43z"></path></g></svg>