<svg xmlns="http://www.w3.org/2000/svg" height="24" width="24" viewBox="0 0 64 64"><g fill="#61616b" class="nc-icon-wrapper"><path d="M57,25H21a4,4,0,0,0-4,4V57a4,4,0,0,0,4,4H57a4,4,0,0,0,4-4V29A4,4,0,0,0,57,25ZM28,33a4,4,0,1,1-4,4A4,4,0,0,1,28,33ZM55,56H23a1.234,1.234,0,0,1-.8-.4.9.9,0,0,1,.2-1.4l23-16a.1.1,0,0,1,.1-.1,1.012,1.012,0,0,1,1.4.4l9,16a.9.9,0,0,1,.1.5A.945.945,0,0,1,55,56Z" fill="#61616b"></path><path data-color="color-2" d="M24,17a1.05,1.05,0,0,0,.5.9.749.749,0,0,0,.5.1,1.421,1.421,0,0,0,.6-.2l10-7a.9.9,0,0,0,.2-1.4l-.2-.2-10-7a1.058,1.058,0,0,0-1.4.2A1.421,1.421,0,0,0,24,3V9H16A12.974,12.974,0,0,0,3,22v8a.945.945,0,0,0,1,1,.945.945,0,0,0,1-1V22A10.968,10.968,0,0,1,16,11h8v6Z" fill="#61616b"></path></g></svg>