<svg xmlns="http://www.w3.org/2000/svg" height="24" width="24" viewBox="0 0 32 32"><g fill="#61616b" class="nc-icon-wrapper"><path d="M25.643,11c-2.361,0-6.278,2.557-10.425,5.264C11.817,18.484,7.962,21,6.357,21A4.145,4.145,0,0,1,2,17a4.145,4.145,0,0,1,4.357-4,5.68,5.68,0,0,1,2,.452L6.873,16.18a.5.5,0,0,0,.439.739.491.491,0,0,0,.136-.019l5.576-1.574a.5.5,0,0,0,.344-.626L11.687,9.116a.5.5,0,0,0-.428-.352.5.5,0,0,0-.49.257L9.322,11.68A7.83,7.83,0,0,0,6.357,11,6.12,6.12,0,0,0,0,17a6.12,6.12,0,0,0,6.357,6c2.2,0,5.793-2.346,9.954-5.062C19.857,15.624,23.877,13,25.643,13A4.145,4.145,0,0,1,30,17a4.145,4.145,0,0,1-4.357,4c-1.221,0-2.9-.66-5.122-2.017a1,1,0,1,0-1.042,1.707C22.063,22.267,24.022,23,25.643,23A6.12,6.12,0,0,0,32,17,6.12,6.12,0,0,0,25.643,11Z" fill="#61616b"></path></g></svg>