<svg xmlns="http://www.w3.org/2000/svg" height="24" width="24" viewBox="0 0 48 48"><g fill="#61616b" class="nc-icon-wrapper"><path d="M38,14c-3.345,0-7.924,3.147-15.067,8.331C18.224,25.748,12.363,30,10,30a6,6,0,0,1,0-12,6.178,6.178,0,0,1,2.221.639l-2,3.683A1,1,0,0,0,11.3,23.78l9.244-1.862a1,1,0,0,0,.728-1.36L17.725,11.92a1,1,0,0,0-.871-.619.973.973,0,0,0-.933.521l-1.788,3.3A10.377,10.377,0,0,0,10,14a10,10,0,0,0,0,20c3.662,0,9.046-3.907,15.282-8.432C29.929,22.2,35.711,18,38,18a6,6,0,0,1,0,12c-1.05,0-3.662-.955-7.565-3.646a2,2,0,1,0-2.27,3.292C31.044,31.633,35.089,34,38,34a10,10,0,0,0,0-20Z" fill="#61616b"></path></g></svg>