<svg xmlns="http://www.w3.org/2000/svg" height="24" width="24" viewBox="0 0 64 64"><g fill="#61616b" class="nc-icon-wrapper"><path d="M51.3,21c-5.441,0-13.24,5.761-21.5,11.86C23.367,37.613,16.074,43,12.7,43A8.657,8.657,0,0,1,4,34.2,8.971,8.971,0,0,1,12.7,25a10.08,10.08,0,0,1,3.956,1.067l-2.746,3.4a1,1,0,0,0,.741,1.628l11.2.4h.036a1,1,0,0,0,.969-1.245L24.109,19.39a1,1,0,0,0-1.747-.384L19.24,22.87A15.031,15.031,0,0,0,12.7,21,12.972,12.972,0,0,0,0,34.2,12.615,12.615,0,0,0,12.7,47c4.691,0,11.543-5.062,19.478-10.922C39.208,30.886,47.176,25,51.3,25A8.971,8.971,0,0,1,60,34.2,8.657,8.657,0,0,1,51.3,43c-3.862,0-9.351-3.958-12.63-6.322a2,2,0,1,0-2.34,3.244C41.3,43.5,46.544,47,51.3,47A12.615,12.615,0,0,0,64,34.2,12.972,12.972,0,0,0,51.3,21Z" fill="#61616b"></path></g></svg>