<svg xmlns="http://www.w3.org/2000/svg" height="24" width="24" viewBox="0 0 24 24"><g fill="#61616b" class="nc-icon-wrapper"><path d="M19,7c-1.825,0-4.5,1.942-7.588,4.191C9.079,12.888,6.175,15,5,15A3,3,0,0,1,5,9a3.046,3.046,0,0,1,1.089.281L5.062,11.16a.5.5,0,0,0,.438.74.49.49,0,0,0,.141-.02l4.1-1.2a.5.5,0,0,0,.339-.62l-1.2-4.1a.5.5,0,0,0-.919-.1L7.047,7.53A5.423,5.423,0,0,0,5,7,5,5,0,0,0,5,17c1.825,0,4.5-1.942,7.588-4.191C14.921,11.112,17.825,9,19,9a3,3,0,0,1,0,6c-.455,0-1.474-.317-3.745-1.832a1,1,0,1,0-1.109,1.664C16.425,16.352,17.876,17,19,17A5,5,0,0,0,19,7Z" fill="#61616b"></path></g></svg>