<svg xmlns="http://www.w3.org/2000/svg" height="24" width="24" viewBox="0 0 48 48"><g fill="#61616b" class="nc-icon-wrapper"><path d="M38,1H10A5.006,5.006,0,0,0,5,6v8a1,1,0,0,0,2,0V6a3,3,0,0,1,3-3H38a3,3,0,0,1,3,3V42a3,3,0,0,1-3,3H10a3,3,0,0,1-3-3V34a1,1,0,0,0-2,0v8a5.006,5.006,0,0,0,5,5H38a5.006,5.006,0,0,0,5-5V6A5.006,5.006,0,0,0,38,1Z" fill="#61616b"></path><path data-color="color-2" d="M20.546,32.891a1,1,0,0,0,1.042-.082l11-8a1,1,0,0,0,0-1.618l-11-8A1,1,0,0,0,20,16v6H7a2,2,0,0,0,0,4H20v6A1,1,0,0,0,20.546,32.891Z" fill="#61616b"></path></g></svg>