<svg xmlns="http://www.w3.org/2000/svg" height="24" width="24" viewBox="0 0 64 64"><g fill="#61616b" class="nc-icon-wrapper"><path d="M54,4H10a5.937,5.937,0,0,0-6,6V20a1,1,0,0,0,2,0V10a3.957,3.957,0,0,1,4-4H54a3.957,3.957,0,0,1,4,4V54a3.957,3.957,0,0,1-4,4H10a3.957,3.957,0,0,1-4-4V44a1,1,0,0,0-2,0V54a5.937,5.937,0,0,0,6,6H54a5.937,5.937,0,0,0,6-6V10A5.937,5.937,0,0,0,54,4Z" fill="#61616b"></path><path data-color="color-2" d="M22.54,44.888a1,1,0,0,0,1.037-.071l17-12a1,1,0,0,0,0-1.634l-17-12A1,1,0,0,0,22,20v9H7a3,3,0,1,0,0,6H22v9A1,1,0,0,0,22.54,44.888Z" fill="#61616b"></path></g></svg>