<svg xmlns="http://www.w3.org/2000/svg" height="24" width="24" viewBox="0 0 32 32"><g fill="#61616b" class="nc-icon-wrapper"><path data-color="color-2" d="M11.553,22.9A1.014,1.014,0,0,0,12,23a1,1,0,0,0,.6-.2l8-6a1,1,0,0,0,0-1.6l-8-6A1,1,0,0,0,11,10v5H2a1,1,0,0,0,0,2h9v5A1,1,0,0,0,11.553,22.9Z" fill="#61616b"></path><path d="M27,1H5A4,4,0,0,0,1,5V9A1,1,0,0,0,3,9V5A2,2,0,0,1,5,3H27a2,2,0,0,1,2,2V27a2,2,0,0,1-2,2H5a2,2,0,0,1-2-2V23a1,1,0,0,0-2,0v4a4,4,0,0,0,4,4H27a4,4,0,0,0,4-4V5A4,4,0,0,0,27,1Z" fill="#61616b"></path></g></svg>