<svg xmlns="http://www.w3.org/2000/svg" height="24" width="24" viewBox="0 0 24 24"><g fill="#61616b" class="nc-icon-wrapper"><path data-color="color-2" d="M2.8,15.908a1,1,0,0,0-1.84.784A12.085,12.085,0,0,0,2.1,18.765a1,1,0,0,0,1.652-1.129A10.028,10.028,0,0,1,2.8,15.908Z" fill="#61616b"></path><path data-color="color-2" d="M8.785,21.466a10.131,10.131,0,0,1-1.407-.6c-.111-.055-.22-.115-.326-.178A1,1,0,0,0,6.028,22.4c.15.089.3.172.442.242a12.059,12.059,0,0,0,1.667.713,1,1,0,0,0,.648-1.892Z" fill="#61616b"></path><path data-color="color-2" d="M15.217,21.463a10.1,10.1,0,0,1-1.873.442,1,1,0,0,0,.134,1.991,1.047,1.047,0,0,0,.136-.009,12.1,12.1,0,0,0,2.247-.53,1,1,0,0,0-.644-1.894Z" fill="#61616b"></path><path data-color="color-2" d="M20.254,17.642a10.028,10.028,0,0,1-1.307,1.55,1,1,0,1,0,1.39,1.438,12.009,12.009,0,0,0,1.569-1.86,1,1,0,0,0-1.652-1.128Z" fill="#61616b"></path><path d="M18.51,1.917a12,12,0,0,0-13.384.248L3.553.191A.5.5,0,0,0,3.162,0a.46.46,0,0,0-.091.009A.5.5,0,0,0,2.686.35L.644,6.727a.512.512,0,0,0-.022.194.5.5,0,0,0,.541.456l6.672-.568A.49.49,0,0,0,8.1,6.7.5.5,0,0,0,8.184,6L6.376,3.732a10,10,0,0,1,15.533,9.6,1,1,0,0,0,.858,1.124,1.017,1.017,0,0,0,.134.009,1,1,0,0,0,.99-.867A12.048,12.048,0,0,0,18.51,1.917Z" fill="#61616b"></path></g></svg>