<svg xmlns="http://www.w3.org/2000/svg" height="24" width="24" viewBox="0 0 48 48"><g fill="#61616b" class="nc-icon-wrapper"><path data-color="color-2" d="M24,26a1.99,1.99,0,0,0,1.414-.586L36.207,14.621l5.086,5.086A1,1,0,0,0,42,20a1.019,1.019,0,0,0,.321-.053,1,1,0,0,0,.67-.815l2-15A1,1,0,0,0,43.868,3.01l-15,2a1,1,0,0,0-.575,1.7l5.086,5.086L22.586,22.586A2,2,0,0,0,24,26Z" fill="#61616b"></path><path d="M44,27a1,1,0,0,0-1,1V40a3,3,0,0,1-3,3H8a3,3,0,0,1-3-3V8A3,3,0,0,1,8,5H20a1,1,0,0,0,0-2H8A5.006,5.006,0,0,0,3,8V40a5.006,5.006,0,0,0,5,5H40a5.006,5.006,0,0,0,5-5V28A1,1,0,0,0,44,27Z" fill="#61616b"></path></g></svg>