<svg xmlns="http://www.w3.org/2000/svg" height="24" width="24" viewBox="0 0 64 64"><g fill="#61616b" class="nc-icon-wrapper"><path data-color="color-2" d="M45.172,14.586,29.879,29.879a3,3,0,1,0,4.242,4.242L49.414,18.828l6.879,6.879A1,1,0,0,0,57,26a.975.975,0,0,0,.336-.059A1,1,0,0,0,58,25.1l2-20a1,1,0,0,0-.288-.807,1.015,1.015,0,0,0-.807-.288l-20,2a1,1,0,0,0-.607,1.7Z" fill="#61616b"></path><path d="M59,34a1,1,0,0,0-1,1V54a3.957,3.957,0,0,1-4,4H10a3.957,3.957,0,0,1-4-4V10a3.957,3.957,0,0,1,4-4H29a1,1,0,0,0,0-2H10a5.937,5.937,0,0,0-6,6V54a5.937,5.937,0,0,0,6,6H54a5.937,5.937,0,0,0,6-6V35A1,1,0,0,0,59,34Z" fill="#61616b"></path></g></svg>