<svg xmlns="http://www.w3.org/2000/svg" height="24" width="24" viewBox="0 0 24 24"><g fill="#61616b" class="nc-icon-wrapper"><path data-color="color-2" d="M22,1H14a1,1,0,0,0-.707,1.707L16.586,6l-6.293,6.293a1,1,0,1,0,1.414,1.414L18,7.414l3.293,3.293A1,1,0,0,0,22,11a.987.987,0,0,0,.383-.076A1,1,0,0,0,23,10V2A1,1,0,0,0,22,1Z" fill="#61616b"></path><path d="M22,14a1,1,0,0,0-1,1v5a1,1,0,0,1-1,1H4a1,1,0,0,1-1-1V4A1,1,0,0,1,4,3H9A1,1,0,0,0,9,1H4A3,3,0,0,0,1,4V20a3,3,0,0,0,3,3H20a3,3,0,0,0,3-3V15A1,1,0,0,0,22,14Z" fill="#61616b"></path></g></svg>