<svg xmlns="http://www.w3.org/2000/svg" height="24" width="24" viewBox="0 0 16 16"><g fill="#61616b" class="nc-icon-wrapper"><path data-color="color-2" d="M15.5,0h-5a.5.5,0,0,0-.354.854l1.793,1.792L7.293,7.293A1,1,0,1,0,8.707,8.707l4.647-4.646,1.792,1.793A.5.5,0,0,0,15.5,6a.512.512,0,0,0,.191-.038A.5.5,0,0,0,16,5.5V.5A.5.5,0,0,0,15.5,0Z" fill="#61616b"></path><path d="M15,8a1,1,0,0,0-1,1v5H2V2H7A1,1,0,0,0,7,0H2A2,2,0,0,0,0,2V14a2,2,0,0,0,2,2H14a2,2,0,0,0,2-2V9A1,1,0,0,0,15,8Z" fill="#61616b"></path></g></svg>