<svg xmlns="http://www.w3.org/2000/svg" height="24" width="24" viewBox="0 0 32 32"><g fill="#61616b" class="nc-icon-wrapper"><path data-color="color-2" d="M30.736,1.336c-.012-.013-.016-.03-.029-.043s-.049-.028-.071-.047A.9.9,0,0,0,30,1H20a1,1,0,0,0-.708,1.707L23.586,7l-8.293,8.293a1,1,0,1,0,1.389,1.439l.025-.025L25,8.414l4.293,4.293A1,1,0,0,0,31,12V2a1.027,1.027,0,0,0-.077-.383A1.036,1.036,0,0,0,30.736,1.336Z" fill="#61616b"></path><path d="M30,19a1,1,0,0,0-1,1v7a2,2,0,0,1-2,2H5a2,2,0,0,1-2-2V5A2,2,0,0,1,5,3h7a1,1,0,0,0,0-2H5A4,4,0,0,0,1,5V27a4,4,0,0,0,4,4H27a4,4,0,0,0,4-4V20A1,1,0,0,0,30,19Z" fill="#61616b"></path></g></svg>