<svg xmlns="http://www.w3.org/2000/svg" height="24" width="24" viewBox="0 0 16 16"><g fill="#61616b" class="nc-icon-wrapper"><path data-color="color-2" d="M15.5,0h-5a.5.5,0,0,0-.354.854l1.793,1.792L6.293,8.293A1,1,0,1,0,7.707,9.707l5.647-5.646,1.792,1.793A.5.5,0,0,0,15.5,6a.512.512,0,0,0,.191-.038A.5.5,0,0,0,16,5.5V.5A.5.5,0,0,0,15.5,0Z" fill="#61616b"></path><path d="M13,9a1,1,0,0,0-1,1v4H2V4H6A1,1,0,0,0,6,2H2A2,2,0,0,0,0,4V14a2,2,0,0,0,2,2H12a2,2,0,0,0,2-2V10A1,1,0,0,0,13,9Z" fill="#61616b"></path></g></svg>