<svg xmlns="http://www.w3.org/2000/svg" height="24" width="24" viewBox="0 0 16 16"><g fill="#61616b" class="nc-icon-wrapper"><path data-color="color-2" d="M15.829,7.624l-4-3.5A.5.5,0,0,0,11,4.5V7H9A1,1,0,0,0,9,9h2v2.5a.5.5,0,0,0,.829.376l4-3.5a.5.5,0,0,0,0-.752Z" fill="#61616b"></path><path d="M3.414,2H8V3a1,1,0,0,0,2,0V1A1,1,0,0,0,9,0H1A.38.38,0,0,0,.947.007C.912.009.878.015.843.02h0A.991.991,0,0,0,.617.076,1,1,0,0,0,0,1v9a1,1,0,0,0,.293.707l5,5A1,1,0,0,0,6,16a.987.987,0,0,0,.383-.076A1,1,0,0,0,7,15V6a1,1,0,0,0-.293-.707Z" fill="#61616b"></path></g></svg>