<svg xmlns="http://www.w3.org/2000/svg" height="24" width="24" viewBox="0 0 64 64"><g fill="#61616b" class="nc-icon-wrapper"><path d="M40,34a1,1,0,0,0-1,1V47H26V17a1,1,0,0,0-.463-.844L6.434,4H39V19a1,1,0,0,0,2,0V3a1,1,0,0,0-1-1H3A1,1,0,0,0,2,3V48a1,1,0,0,0,.521.878l22,12A1,1,0,0,0,26,60V49H40a1,1,0,0,0,1-1V35A1,1,0,0,0,40,34Z" fill="#61616b"></path><path data-color="color-2" d="M62.569,26.178l-13-9A1,1,0,0,0,48,18v6H33a3,3,0,0,0,0,6H48v6a1,1,0,0,0,1.569.822l13-9a1,1,0,0,0,0-1.644Z" fill="#61616b"></path></g></svg>