<svg xmlns="http://www.w3.org/2000/svg" height="24" width="24" viewBox="0 0 64 64"><g fill="#61616b" class="nc-icon-wrapper"><path d="M50,47a1,1,0,0,0-1,1v8a3.957,3.957,0,0,1-4,4H15a3.957,3.957,0,0,1-4-4V8a3.957,3.957,0,0,1,4-4H45a3.957,3.957,0,0,1,4,4v8a1,1,0,0,0,2,0V8a5.937,5.937,0,0,0-6-6H15A5.937,5.937,0,0,0,9,8V56a5.937,5.937,0,0,0,6,6H45a5.937,5.937,0,0,0,6-6V48A1,1,0,0,0,50,47Z" fill="#61616b"></path><path data-color="color-2" d="M56.577,31.183l-17-12A1,1,0,0,0,38,20v9H22a3,3,0,0,0,0,6H38v9a1,1,0,0,0,1.577.817l17-12a1,1,0,0,0,0-1.634Z" fill="#61616b"></path></g></svg>