<svg xmlns="http://www.w3.org/2000/svg" height="24" width="24" viewBox="0 0 32 32"><g fill="#61616b" class="nc-icon-wrapper"><path data-color="color-2" d="M28.6,15.2l-8-6A1,1,0,0,0,19,10v5H10a1,1,0,0,0,0,2h9v5a1,1,0,0,0,1.6.8l8-6a1,1,0,0,0,0-1.6Z" fill="#61616b"></path><path d="M24,25a1,1,0,0,0-1,1v2a2,2,0,0,1-2,2H7a2,2,0,0,1-2-2V4A2,2,0,0,1,7,2H21a2,2,0,0,1,2,2V6a1,1,0,0,0,2,0V4a4,4,0,0,0-4-4H7A4,4,0,0,0,3,4V28a4,4,0,0,0,4,4H21a4,4,0,0,0,4-4V26A1,1,0,0,0,24,25Z" fill="#61616b"></path></g></svg>