<svg xmlns="http://www.w3.org/2000/svg" height="24" width="24" viewBox="0 0 24 24"><g fill="#61616b" class="nc-icon-wrapper"><path data-color="color-2" d="M15.625,7.219A1,1,0,0,0,14,8v3H8a1,1,0,0,0,0,2h6v3a1,1,0,0,0,1.625.781l5-4a1,1,0,0,0,0-1.562Z" fill="#61616b"></path><path d="M18,19a1,1,0,0,0-1,1v1a1,1,0,0,1-1,1H6a1,1,0,0,1-1-1V3A1,1,0,0,1,6,2H16a1,1,0,0,1,1,1V4a1,1,0,0,0,2,0V3a3,3,0,0,0-3-3H6A3,3,0,0,0,3,3V21a3,3,0,0,0,3,3H16a3,3,0,0,0,3-3V20A1,1,0,0,0,18,19Z" fill="#61616b"></path></g></svg>