<svg xmlns="http://www.w3.org/2000/svg" height="24" width="24" viewBox="0 0 64 64"><g fill="#61616b" class="nc-icon-wrapper"><path d="M60.555,14.168l-15-10A1,1,0,0,0,44,5v8H15A12.013,12.013,0,0,0,3,25V36a2,2,0,0,0,4,0V25a8.009,8.009,0,0,1,8-8H44v8a1,1,0,0,0,1.555.832l15-10a1,1,0,0,0,0-1.664Z" fill="#61616b"></path><path data-color="color-2" d="M59,26a2,2,0,0,0-2,2V39a8.009,8.009,0,0,1-8,8H20V39a1,1,0,0,0-1.555-.832l-15,10a1,1,0,0,0,0,1.664l15,10A1,1,0,0,0,20,59V51H49A12.013,12.013,0,0,0,61,39V28A2,2,0,0,0,59,26Z" fill="#61616b"></path></g></svg>