<svg xmlns="http://www.w3.org/2000/svg" height="24" width="24" viewBox="0 0 16 16"><g fill="#61616b" class="nc-icon-wrapper"><path d="M1,8A1,1,0,0,0,2,7V5h9V7.5a.5.5,0,0,0,.829.376l4-3.5a.5.5,0,0,0,0-.752l-4-3.5A.5.5,0,0,0,11,.5V3H2A2,2,0,0,0,0,5V7A1,1,0,0,0,1,8Z" fill="#61616b"></path><path data-color="color-2" d="M15,8a1,1,0,0,0-1,1v2H5V8.5a.5.5,0,0,0-.293-.455.493.493,0,0,0-.536.079l-4,3.5a.5.5,0,0,0,0,.752l4,3.5A.5.5,0,0,0,4.5,16a.5.5,0,0,0,.5-.5V13h9a2,2,0,0,0,2-2V9A1,1,0,0,0,15,8Z" fill="#61616b"></path></g></svg>