<svg xmlns="http://www.w3.org/2000/svg" height="24" width="24" viewBox="0 0 32 32"><g fill="#61616b" class="nc-icon-wrapper"><path data-color="color-2" d="M29,14a1,1,0,0,0-1,1v2a7.008,7.008,0,0,1-7,7H10V20a1,1,0,0,0-1.582-.813l-7,5a1,1,0,0,0,0,1.626l7,5A.988.988,0,0,0,9,31a1,1,0,0,0,1-1V26H21a9.01,9.01,0,0,0,9-9V15A1,1,0,0,0,29,14Z" fill="#61616b"></path><path d="M30.581,6.187l-7-5A1,1,0,0,0,22,2V6H11a9.01,9.01,0,0,0-9,9v2a1,1,0,0,0,2,0V15a7.008,7.008,0,0,1,7-7H22v4a1,1,0,0,0,1,1,.991.991,0,0,0,.582-.187l7-5a1,1,0,0,0,0-1.626Z" fill="#61616b"></path></g></svg>