<svg xmlns="http://www.w3.org/2000/svg" height="24" width="24" viewBox="0 0 24 24"><g fill="#61616b" class="nc-icon-wrapper"><path data-color="color-2" d="M22,11a1,1,0,0,0-1,1,5.006,5.006,0,0,1-5,5H7V14a1,1,0,0,0-1.625-.781l-5,4a1,1,0,0,0,0,1.562l5,4A1,1,0,0,0,7,22V19h9a7.008,7.008,0,0,0,7-7A1,1,0,0,0,22,11Z" fill="#61616b"></path><path d="M18.625,1.219A1,1,0,0,0,17,2V5H8a7.008,7.008,0,0,0-7,7,1,1,0,0,0,2,0A5.006,5.006,0,0,1,8,7h9v3a1,1,0,0,0,1.625.781l5-4a1,1,0,0,0,0-1.562Z" fill="#61616b"></path></g></svg>