<svg xmlns="http://www.w3.org/2000/svg" height="24" width="24" viewBox="0 0 48 48"><g fill="#61616b" class="nc-icon-wrapper"><path data-color="color-2" d="M44,20a2,2,0,0,0-2,2v2A10.011,10.011,0,0,1,32,34H15V28a1,1,0,0,0-1.588-.809l-11,8a1,1,0,0,0,0,1.618l11,8A1,1,0,0,0,15,44V38H32A14.015,14.015,0,0,0,46,24V22A2,2,0,0,0,44,20Z" fill="#61616b"></path><path d="M45.588,11.191l-11-8A1,1,0,0,0,33,4v6H16A14.015,14.015,0,0,0,2,24v2a2,2,0,0,0,4,0V24A10.011,10.011,0,0,1,16,14H33v6a1,1,0,0,0,1.588.809l11-8a1,1,0,0,0,0-1.618Z" fill="#61616b"></path></g></svg>