<svg xmlns="http://www.w3.org/2000/svg" height="24" width="24" viewBox="0 0 64 64"><g fill="#61616b" class="nc-icon-wrapper"><path d="M60.555,14.168l-15-10A1,1,0,0,0,44,5v8H10a7.008,7.008,0,0,0-7,7V37a2,2,0,0,0,4,0V20a3,3,0,0,1,3-3H44v8a1,1,0,0,0,1.555.832l15-10a1,1,0,0,0,0-1.664Z" fill="#61616b"></path><path data-color="color-2" d="M59,25a2,2,0,0,0-2,2V44a3,3,0,0,1-3,3H20V39a1,1,0,0,0-1.555-.832l-15,10a1,1,0,0,0,0,1.664l15,10A1,1,0,0,0,20,59V51H54a7.008,7.008,0,0,0,7-7V27A2,2,0,0,0,59,25Z" fill="#61616b"></path></g></svg>