<svg xmlns="http://www.w3.org/2000/svg" height="24" width="24" viewBox="0 0 16 16"><g fill="#61616b" class="nc-icon-wrapper"><path data-color="color-2" d="M5.829,7.124A.5.5,0,0,0,5,7.5V10A3,3,0,0,1,5,4H8A1,1,0,0,0,8,2H5A5,5,0,0,0,5,12v2.5a.5.5,0,0,0,.829.376l4-3.5a.5.5,0,0,0,0-.752Z" fill="#61616b"></path><path d="M12,4h3a1,1,0,0,0,0-2H12a1,1,0,0,0,0,2Z" fill="#61616b"></path><path d="M15,6H12a1,1,0,0,0,0,2h3a1,1,0,0,0,0-2Z" fill="#61616b"></path><path d="M15,10H12a1,1,0,0,0,0,2h3a1,1,0,0,0,0-2Z" fill="#61616b"></path></g></svg>