<svg xmlns="http://www.w3.org/2000/svg" height="24" width="24" viewBox="0 0 64 64"><g fill="#61616b" class="nc-icon-wrapper"><path d="M62,9H39a1,1,0,0,0,0,2H62a1,1,0,0,0,0-2Z" fill="#61616b"></path><path d="M62,29H39a1,1,0,0,0,0,2H62a1,1,0,0,0,0-2Z" fill="#61616b"></path><path d="M62,49H39a1,1,0,0,0,0,2H62a1,1,0,0,0,0-2Z" fill="#61616b"></path><path data-color="color-2" d="M34.569,49.178l-13-9A1,1,0,0,0,20,41v6.729A17.99,17.99,0,0,1,23,12h8a2,2,0,0,0,0-4H23a22,22,0,0,0-3,43.79V59a1,1,0,0,0,1.569.822l13-9a1,1,0,0,0,0-1.644Z" fill="#61616b"></path></g></svg>