<svg xmlns="http://www.w3.org/2000/svg" height="24" width="24" viewBox="0 0 32 32"><g fill="#61616b" class="nc-icon-wrapper"><path d="M31,3H19a1,1,0,0,0,0,2H31a1,1,0,0,0,0-2Z" fill="#61616b"></path><path d="M31,13H19a1,1,0,0,0,0,2H31a1,1,0,0,0,0-2Z" fill="#61616b"></path><path d="M31,23H19a1,1,0,0,0,0,2H31a1,1,0,0,0,0-2Z" fill="#61616b"></path><path data-color="color-2" d="M10.707,18.293A1,1,0,0,0,9,19v3.768A9,9,0,0,1,11,5h3a1,1,0,0,0,0-2H11A11,11,0,0,0,9,24.809V29a1,1,0,0,0,.617.924A.987.987,0,0,0,10,30a1,1,0,0,0,.707-.293l5-5a1,1,0,0,0,0-1.414Z" fill="#61616b"></path></g></svg>