<svg xmlns="http://www.w3.org/2000/svg" height="24" width="24" viewBox="0 0 24 24"><g fill="#61616b" class="nc-icon-wrapper"><path data-color="color-2" d="M7.787,14.091a.494.494,0,0,0-.518-.034A.5.5,0,0,0,7,14.5v2.41A6,6,0,0,1,8,5h3a1,1,0,0,0,0-2H8A8,8,0,0,0,7,18.931V21.5a.5.5,0,0,0,.5.5.494.494,0,0,0,.287-.091l5-3.5a.5.5,0,0,0,0-.818Z" fill="#61616b"></path><path d="M23,3H15a1,1,0,0,0,0,2h8a1,1,0,0,0,0-2Z" fill="#61616b"></path><path d="M23,10H15a1,1,0,0,0,0,2h8a1,1,0,0,0,0-2Z" fill="#61616b"></path><path d="M23,17H15a1,1,0,0,0,0,2h8a1,1,0,0,0,0-2Z" fill="#61616b"></path></g></svg>