<svg xmlns="http://www.w3.org/2000/svg" height="24" width="24" viewBox="0 0 64 64"><g fill="#61616b" class="nc-icon-wrapper"><circle data-color="color-2" cx="32" cy="32" r="11" fill="#61616b"></circle><path d="M5,22a1,1,0,0,0,1-1V10a3.957,3.957,0,0,1,4-4H21a1,1,0,0,0,0-2H10a5.937,5.937,0,0,0-6,6V21A1,1,0,0,0,5,22Z" fill="#61616b"></path><path d="M54,4H43a1,1,0,0,0,0,2H54a3.957,3.957,0,0,1,4,4V21a1,1,0,0,0,2,0V10A5.937,5.937,0,0,0,54,4Z" fill="#61616b"></path><path d="M59,42a1,1,0,0,0-1,1V54a3.957,3.957,0,0,1-4,4H43a1,1,0,0,0,0,2H54a5.937,5.937,0,0,0,6-6V43A1,1,0,0,0,59,42Z" fill="#61616b"></path><path d="M21,58H10a3.957,3.957,0,0,1-4-4V43a1,1,0,0,0-2,0V54a5.937,5.937,0,0,0,6,6H21a1,1,0,0,0,0-2Z" fill="#61616b"></path></g></svg>