<svg xmlns="http://www.w3.org/2000/svg" height="24" width="24" viewBox="0 0 24 24"><g fill="#61616b" class="nc-icon-wrapper"><path data-color="color-2" d="M16,17H8a1,1,0,0,1-1-1V8A1,1,0,0,1,8,7h8a1,1,0,0,1,1,1v8A1,1,0,0,1,16,17Z" fill="#61616b"></path><path d="M2,9A1,1,0,0,1,1,8V4A3,3,0,0,1,4,1H8A1,1,0,0,1,8,3H4A1,1,0,0,0,3,4V8A1,1,0,0,1,2,9Z" fill="#61616b"></path><path d="M22,9a1,1,0,0,1-1-1V4a1,1,0,0,0-1-1H16a1,1,0,0,1,0-2h4a3,3,0,0,1,3,3V8A1,1,0,0,1,22,9Z" fill="#61616b"></path><path d="M20,23H16a1,1,0,0,1,0-2h4a1,1,0,0,0,1-1V16a1,1,0,0,1,2,0v4A3,3,0,0,1,20,23Z" fill="#61616b"></path><path d="M8,23H4a3,3,0,0,1-3-3V16a1,1,0,0,1,2,0v4a1,1,0,0,0,1,1H8a1,1,0,0,1,0,2Z" fill="#61616b"></path></g></svg>