<svg xmlns="http://www.w3.org/2000/svg" height="24" width="24" viewBox="0 0 32 32"><g fill="#61616b" class="nc-icon-wrapper"><circle data-color="color-2" cx="16" cy="16" r="7" fill="#61616b"></circle><path d="M2,12a1,1,0,0,0,1-1V5A2,2,0,0,1,5,3h6a1,1,0,0,0,0-2H5A4,4,0,0,0,1,5v6A1,1,0,0,0,2,12Z" fill="#61616b"></path><path d="M27,1H21a1,1,0,0,0,0,2h6a2,2,0,0,1,2,2v6a1,1,0,0,0,2,0V5A4,4,0,0,0,27,1Z" fill="#61616b"></path><path d="M30,20a1,1,0,0,0-1,1v6a2,2,0,0,1-2,2H21a1,1,0,0,0,0,2h6a4,4,0,0,0,4-4V21A1,1,0,0,0,30,20Z" fill="#61616b"></path><path d="M5,31h6a1,1,0,0,0,0-2H5a2,2,0,0,1-2-2V21a1,1,0,0,0-2,0v6A4,4,0,0,0,5,31Z" fill="#61616b"></path></g></svg>