<svg xmlns="http://www.w3.org/2000/svg" height="24" width="24" viewBox="0 0 64 64"><g fill="#61616b" class="nc-icon-wrapper"><path d="M5,22a1,1,0,0,0,1-1V10a4,4,0,0,1,4-4H21a1,1,0,0,0,0-2H10a6.006,6.006,0,0,0-6,6V21A1,1,0,0,0,5,22Z" fill="#61616b"></path><path d="M54,4H43a1,1,0,0,0,0,2H54a4,4,0,0,1,4,4V21a1,1,0,0,0,2,0V10A6.006,6.006,0,0,0,54,4Z" fill="#61616b"></path><path d="M59,42a1,1,0,0,0-1,1V54a4,4,0,0,1-4,4H43a1,1,0,0,0,0,2H54a6.006,6.006,0,0,0,6-6V43A1,1,0,0,0,59,42Z" fill="#61616b"></path><path d="M21,58H10a4,4,0,0,1-4-4V43a1,1,0,0,0-2,0V54a6.006,6.006,0,0,0,6,6H21a1,1,0,0,0,0-2Z" fill="#61616b"></path><rect data-color="color-2" x="20" y="20" width="24" height="24" rx="2" fill="#61616b"></rect></g></svg>