<svg xmlns="http://www.w3.org/2000/svg" height="24" width="24" viewBox="0 0 32 32"><g fill="#61616b" class="nc-icon-wrapper"><rect data-color="color-2" x="10" y="10" width="12" height="12" rx="1" fill="#61616b"></rect><path d="M11,1H5A4,4,0,0,0,1,5v6a1,1,0,0,0,2,0V5A2,2,0,0,1,5,3h6a1,1,0,0,0,0-2Z" fill="#61616b"></path><path d="M27,1H21a1,1,0,0,0,0,2h6a2,2,0,0,1,2,2v6a1,1,0,0,0,2,0V5A4,4,0,0,0,27,1Z" fill="#61616b"></path><path d="M30,20a1,1,0,0,0-1,1v6a2,2,0,0,1-2,2H21a1,1,0,0,0,0,2h6a4,4,0,0,0,4-4V21A1,1,0,0,0,30,20Z" fill="#61616b"></path><path d="M11,29H5a2,2,0,0,1-2-2V21a1,1,0,0,0-2,0v6a4,4,0,0,0,4,4h6a1,1,0,0,0,0-2Z" fill="#61616b"></path></g></svg>