<svg xmlns="http://www.w3.org/2000/svg" height="24" width="24" viewBox="0 0 64 64"><g fill="#61616b" class="nc-icon-wrapper"><path d="M62.956,33.907a12.134,12.134,0,0,0-10.194-10.8,20.988,20.988,0,0,0-22.9-18A21.119,21.119,0,0,0,12.089,19.325,13.88,13.88,0,0,0,.961,33a14.039,14.039,0,0,0,13,14H30V36H22a1,1,0,0,1-.793-1.609l10-13a1.035,1.035,0,0,1,1.586,0l10,13A1,1,0,0,1,42,36H34V47H51.961c.032,0,.065,0,.1,0A12.181,12.181,0,0,0,62.956,33.907Z" fill="#61616b"></path><path data-color="color-2" d="M30,47V59a2,2,0,0,0,4,0V47Z" fill="#61616b"></path></g></svg>