<svg xmlns="http://www.w3.org/2000/svg" height="24" width="24" viewBox="0 0 32 32"><g fill="#61616b" class="nc-icon-wrapper"><path d="M31.854,9.146l-5-5A.5.5,0,0,0,26,4.5V8H21.982A9.946,9.946,0,0,0,10.018,8H2a1,1,0,0,0,0,2H8.014a9.944,9.944,0,0,0,0,12H.5a.5.5,0,0,0-.354.854l5,5A.5.5,0,0,0,5.5,28a.493.493,0,0,0,.191-.038A.5.5,0,0,0,6,27.5V24h4.018a9.946,9.946,0,0,0,11.964,0H30a1,1,0,0,0,0-2H23.986a9.944,9.944,0,0,0,0-12H31.5a.5.5,0,0,0,.354-.854ZM17,19.5a.5.5,0,0,1-.5.5h-1a.5.5,0,0,1-.5-.5v-7a.5.5,0,0,1,.5-.5h1a.5.5,0,0,1,.5.5Z" fill="#61616b"></path></g></svg>