<svg xmlns="http://www.w3.org/2000/svg" height="24" width="24" viewBox="0 0 48 48"><g fill="#61616b" class="nc-icon-wrapper"><path d="M47,34H35.148a14.908,14.908,0,0,0,0-20H41v3a1,1,0,0,0,1.625.782L47.607,13.8A1,1,0,0,0,48,13.021v0a1.006,1.006,0,0,0-.375-.8l-5-4A1,1,0,0,0,41,9v3H32.962a14.886,14.886,0,0,0-17.924,0H1a1,1,0,0,0,0,2H12.851a14.908,14.908,0,0,0,0,20H7V31a1,1,0,0,0-1.625-.781l-5,4a1.006,1.006,0,0,0-.375.8v0a1,1,0,0,0,.167.533.906.906,0,0,0,.1.125.993.993,0,0,0,.127.116l4.982,3.987A1,1,0,0,0,7,39V36h8.039a14.883,14.883,0,0,0,17.922,0H47a1,1,0,0,0,0-2ZM30.707,24.707l-6,6a1,1,0,0,1-1.414,0l-6-6a1,1,0,0,1,0-1.414l6-6a1,1,0,0,1,1.414,0l6,6A1,1,0,0,1,30.707,24.707Z" fill="#61616b"></path></g></svg>