<svg xmlns="http://www.w3.org/2000/svg" height="24" width="24" viewBox="0 0 24 24"><g fill="#61616b" class="nc-icon-wrapper"><path d="M7.5,6H11V8a1,1,0,0,0,2,0V6h3.5a.5.5,0,0,0,.372-.834l-4.5-5a.516.516,0,0,0-.744,0l-4.5,5A.5.5,0,0,0,7.5,6Z" fill="#61616b"></path><path data-color="color-2" d="M18.835,7.128A.5.5,0,0,0,18,7.5V11H16a1,1,0,0,0,0,2h2v3.5a.5.5,0,0,0,.835.372l5-4.5a.5.5,0,0,0,0-.744Z" fill="#61616b"></path><path d="M16.5,18H13V16a1,1,0,0,0-2,0v2H7.5a.5.5,0,0,0-.372.834l4.5,5a.5.5,0,0,0,.744,0l4.5-5A.5.5,0,0,0,16.5,18Z" fill="#61616b"></path><path data-color="color-2" d="M8,13a1,1,0,0,0,0-2H6V7.5a.5.5,0,0,0-.835-.372l-5,4.5a.5.5,0,0,0,0,.744l5,4.5A.5.5,0,0,0,5.5,17a.5.5,0,0,0,.5-.5V13Z" fill="#61616b"></path></g></svg>