<svg xmlns="http://www.w3.org/2000/svg" height="24" width="24" viewBox="0 0 64 64"><g fill="#61616b" class="nc-icon-wrapper"><path d="M32.8,2.4a1.036,1.036,0,0,0-1.6,0l-9,12A1,1,0,0,0,23,16H41a1,1,0,0,0,.8-1.6Z" fill="#61616b"></path><path d="M49.6,22.2A1,1,0,0,0,48,23V41a1,1,0,0,0,1.6.8l12-9a1,1,0,0,0,0-1.6Z" fill="#61616b"></path><path d="M41,48H23a1,1,0,0,0-.8,1.6l9,12a1,1,0,0,0,1.6,0l9-12A1,1,0,0,0,41,48Z" fill="#61616b"></path><path d="M15.447,22.105A1,1,0,0,0,14.4,22.2l-12,9a1,1,0,0,0,0,1.6l12,9a1,1,0,0,0,.6.2,1,1,0,0,0,1-1V23A1,1,0,0,0,15.447,22.105Z" fill="#61616b"></path><circle data-color="color-2" cx="32" cy="32" r="8" fill="#61616b"></circle></g></svg>