<svg xmlns="http://www.w3.org/2000/svg" height="24" width="24" viewBox="0 0 16 16"><g fill="#61616b" class="nc-icon-wrapper"><path d="M5.5,4H7V5.5a.5.5,0,0,0,.5.5h1A.5.5,0,0,0,9,5.5V4h1.5a.5.5,0,0,0,.384-.82l-2.5-3a.517.517,0,0,0-.768,0l-2.5,3A.5.5,0,0,0,5.5,4Z" fill="#61616b"></path><path data-color="color-2" d="M12.82,5.116A.5.5,0,0,0,12,5.5V7H10.5a.5.5,0,0,0-.5.5v1a.5.5,0,0,0,.5.5H12v1.5a.5.5,0,0,0,.288.453A.507.507,0,0,0,12.5,11a.5.5,0,0,0,.32-.116l3-2.5a.5.5,0,0,0,0-.768Z" fill="#61616b"></path><path d="M10.5,12H9V10.5a.5.5,0,0,0-.5-.5h-1a.5.5,0,0,0-.5.5V12H5.5a.5.5,0,0,0-.384.82l2.5,3a.5.5,0,0,0,.768,0l2.5-3A.5.5,0,0,0,10.5,12Z" fill="#61616b"></path><path data-color="color-2" d="M5.5,9A.5.5,0,0,0,6,8.5v-1A.5.5,0,0,0,5.5,7H4V5.5a.5.5,0,0,0-.82-.384l-3,2.5a.5.5,0,0,0,0,.768l3,2.5A.5.5,0,0,0,3.5,11a.507.507,0,0,0,.212-.047A.5.5,0,0,0,4,10.5V9Z" fill="#61616b"></path></g></svg>