<svg xmlns="http://www.w3.org/2000/svg" height="24" width="24" viewBox="0 0 24 24"><g fill="#61616b" class="nc-icon-wrapper"><rect data-color="color-2" y="14" width="10" height="10" rx="1" fill="#61616b"></rect><path d="M2,2H4V0H1A1,1,0,0,0,0,1V4H2Z" fill="#61616b"></path><path d="M8,8H6v2H9a1,1,0,0,0,1-1V6H8Z" fill="#61616b"></path><path d="M9,0H6V2H8V4h2V1A1,1,0,0,0,9,0Z" fill="#61616b"></path><path d="M1,10H4V8H2V6H0V9A1,1,0,0,0,1,10Z" fill="#61616b"></path><path d="M23,16H19V1a1,1,0,0,0-2,0V16H13a1,1,0,0,0-.768,1.641l5,6a1,1,0,0,0,1.536,0l5-6A1,1,0,0,0,23,16Z" fill="#61616b"></path></g></svg>