<svg xmlns="http://www.w3.org/2000/svg" height="24" width="24" viewBox="0 0 32 32"><g fill="#61616b" class="nc-icon-wrapper"><circle data-color="color-2" cx="16" cy="16" r="4" fill="#61616b"></circle><path d="M15.232,31.641a1,1,0,0,0,1.536,0l5-6A1,1,0,0,0,21,24H11a1,1,0,0,0-.768,1.641Z" fill="#61616b"></path><path d="M25.64,10.231A1,1,0,0,0,24,11V21a1,1,0,0,0,.576.905A.989.989,0,0,0,25,22a1,1,0,0,0,.64-.231l6-5a1,1,0,0,0,0-1.538Z" fill="#61616b"></path><path d="M11,8H21a1,1,0,0,0,.768-1.641l-5-6a1.035,1.035,0,0,0-1.536,0l-5,6A1,1,0,0,0,11,8Z" fill="#61616b"></path><path d="M7,22a.989.989,0,0,0,.424-.095A1,1,0,0,0,8,21V11a1,1,0,0,0-1.64-.769l-6,5a1,1,0,0,0,0,1.538l6,5A1,1,0,0,0,7,22Z" fill="#61616b"></path></g></svg>