<svg xmlns="http://www.w3.org/2000/svg" height="24" width="24" viewBox="0 0 32 32"><g fill="#61616b" class="nc-icon-wrapper"><path d="M23.2,30.6a1,1,0,0,0,1.6,0l6-8A1,1,0,0,0,30,21H25V2a1,1,0,0,0-2,0V21H18a1,1,0,0,0-.8,1.6Z" fill="#61616b"></path><path d="M2,13H6V11H3V8H1v4A1,1,0,0,0,2,13Z" fill="#61616b"></path><path d="M13,12V8H11v3H8v2h4A1,1,0,0,0,13,12Z" fill="#61616b"></path><path d="M11,6h2V2a1,1,0,0,0-1-1H8V3h3Z" fill="#61616b"></path><path d="M3,3H6V1H2A1,1,0,0,0,1,2V6H3Z" fill="#61616b"></path><rect data-color="color-2" x="1" y="19" width="12" height="12" rx="1" fill="#61616b"></rect></g></svg>