<svg xmlns="http://www.w3.org/2000/svg" height="24" width="24" viewBox="0 0 32 32"><g fill="#61616b" class="nc-icon-wrapper"><path d="M11,8h4v4a1,1,0,0,0,2,0V8h4a1,1,0,0,0,.769-1.64l-5-6a1.036,1.036,0,0,0-1.538,0l-5,6A1,1,0,0,0,11,8Z" fill="#61616b"></path><path data-color="color-2" d="M25.641,10.232A1,1,0,0,0,24,11v4H20a1,1,0,0,0,0,2h4v4a1,1,0,0,0,1.641.768l6-5a1,1,0,0,0,0-1.536Z" fill="#61616b"></path><path d="M21,24H17V20a1,1,0,0,0-2,0v4H11a1,1,0,0,0-.769,1.64l5,6a1,1,0,0,0,1.538,0l5-6A1,1,0,0,0,21,24Z" fill="#61616b"></path><path data-color="color-2" d="M13,16a1,1,0,0,0-1-1H8V11a1,1,0,0,0-1.641-.768l-6,5a1,1,0,0,0,0,1.536l6,5A1,1,0,0,0,8,21V17h4A1,1,0,0,0,13,16Z" fill="#61616b"></path></g></svg>