<svg xmlns="http://www.w3.org/2000/svg" height="24" width="24" viewBox="0 0 24 24"><g fill="#61616b" class="nc-icon-wrapper"><circle data-color="color-2" cx="12" cy="12" r="3" fill="#61616b"></circle><path d="M12.372.165a.52.52,0,0,0-.744,0l-4.5,5A.5.5,0,0,0,7.5,6h9a.5.5,0,0,0,.372-.835Z" fill="#61616b"></path><path d="M18.834,7.128a.508.508,0,0,0-.538-.085A.5.5,0,0,0,18,7.5v9a.5.5,0,0,0,.3.457.522.522,0,0,0,.2.043.5.5,0,0,0,.334-.128l5-4.5a.5.5,0,0,0,0-.744Z" fill="#61616b"></path><path d="M16.5,18h-9a.5.5,0,0,0-.372.835l4.5,5a.5.5,0,0,0,.744,0l4.5-5A.5.5,0,0,0,16.5,18Z" fill="#61616b"></path><path d="M5.7,7.043a.509.509,0,0,0-.538.085l-5,4.5a.5.5,0,0,0,0,.744l5,4.5A.5.5,0,0,0,5.5,17a.522.522,0,0,0,.2-.043A.5.5,0,0,0,6,16.5v-9A.5.5,0,0,0,5.7,7.043Z" fill="#61616b"></path></g></svg>