<svg xmlns="http://www.w3.org/2000/svg" height="24" width="24" viewBox="0 0 48 48"><g fill="#61616b" class="nc-icon-wrapper"><path d="M24.8,1.4a1.036,1.036,0,0,0-1.6,0l-6,8A1,1,0,0,0,18,11H30a1,1,0,0,0,.8-1.6Z" fill="#61616b"></path><path d="M38.6,17.2A1,1,0,0,0,37,18V30a1,1,0,0,0,1.6.8l8-6a1,1,0,0,0,0-1.6Z" fill="#61616b"></path><path d="M30,37H18a1,1,0,0,0-.8,1.6l6,8a1,1,0,0,0,1.6,0l6-8A1,1,0,0,0,30,37Z" fill="#61616b"></path><path d="M10.447,17.105A1,1,0,0,0,9.4,17.2l-8,6a1,1,0,0,0,0,1.6l8,6a1,1,0,0,0,.6.2,1,1,0,0,0,1-1V18A1,1,0,0,0,10.447,17.105Z" fill="#61616b"></path><circle data-color="color-2" cx="24" cy="24" r="6" fill="#61616b"></circle></g></svg>