<svg xmlns="http://www.w3.org/2000/svg" height="24" width="24" viewBox="0 0 48 48"><g fill="#61616b" class="nc-icon-wrapper"><path d="M17,12h5v6a2,2,0,0,0,4,0V12h5a1,1,0,0,0,.79-1.614l-7-9a1.037,1.037,0,0,0-1.58,0l-7,9A1,1,0,0,0,17,12Z" fill="#61616b"></path><path data-color="color-2" d="M37.614,16.21A1,1,0,0,0,36,17v5H30a2,2,0,0,0,0,4h6v5a1,1,0,0,0,1.614.79l9-7a1,1,0,0,0,0-1.58Z" fill="#61616b"></path><path d="M31,36H26V30a2,2,0,0,0-4,0v6H17a1,1,0,0,0-.79,1.614l7,9a1,1,0,0,0,1.58,0l7-9A1,1,0,0,0,31,36Z" fill="#61616b"></path><path data-color="color-2" d="M18,26a2,2,0,0,0,0-4H12V17a1,1,0,0,0-1.614-.79l-9,7a1,1,0,0,0,0,1.58l9,7A1,1,0,0,0,12,31V26Z" fill="#61616b"></path></g></svg>