<svg xmlns="http://www.w3.org/2000/svg" height="24" width="24" viewBox="0 0 16 16"><g fill="#61616b" class="nc-icon-wrapper"><path d="M12.82,5.116A.5.5,0,0,0,12,5.5V7H9V4h1.5a.5.5,0,0,0,.384-.82l-2.5-3a.517.517,0,0,0-.768,0l-2.5,3A.5.5,0,0,0,5.5,4H7V7H4V5.5a.5.5,0,0,0-.82-.384l-3,2.5a.5.5,0,0,0,0,.768l3,2.5A.5.5,0,0,0,3.5,11a.507.507,0,0,0,.212-.047A.5.5,0,0,0,4,10.5V9H7v3H5.5a.5.5,0,0,0-.384.82l2.5,3a.5.5,0,0,0,.768,0l2.5-3A.5.5,0,0,0,10.5,12H9V9h3v1.5a.5.5,0,0,0,.288.453A.507.507,0,0,0,12.5,11a.5.5,0,0,0,.32-.116l3-2.5a.5.5,0,0,0,0-.768Z" fill="#61616b"></path></g></svg>