<svg xmlns="http://www.w3.org/2000/svg" height="24" width="24" viewBox="0 0 64 64"><g fill="#61616b" class="nc-icon-wrapper"><path d="M23,16h7v7a2,2,0,0,0,4,0V16h7a1,1,0,0,0,.8-1.6l-9-12a1.036,1.036,0,0,0-1.6,0l-9,12A1,1,0,0,0,23,16Z" fill="#61616b"></path><path data-color="color-2" d="M49.6,22.2A1,1,0,0,0,48,23v7H41a2,2,0,0,0,0,4h7v7a1,1,0,0,0,1.6.8l12-9a1,1,0,0,0,0-1.6Z" fill="#61616b"></path><path d="M41,48H34V41a2,2,0,0,0-4,0v7H23a1,1,0,0,0-.8,1.6l9,12a1,1,0,0,0,1.6,0l9-12A1,1,0,0,0,41,48Z" fill="#61616b"></path><path data-color="color-2" d="M23,34a2,2,0,0,0,0-4H16V23a1,1,0,0,0-1.6-.8l-12,9a1,1,0,0,0,0,1.6l12,9A1,1,0,0,0,16,41V34Z" fill="#61616b"></path></g></svg>