<svg xmlns="http://www.w3.org/2000/svg" height="24" width="24" viewBox="0 0 12 12"><g fill="#61616b" class="nc-icon-wrapper"><path data-color="color-2" d="M5.5,12h1a.5.5,0,0,0,.5-.5V9H8.5a.5.5,0,0,0,.384-.82l-2.5-3a.517.517,0,0,0-.73-.038c-.013.012-.026.025-.038.038l-2.5,3A.5.5,0,0,0,3.5,9H5v2.5A.5.5,0,0,0,5.5,12Z" fill="#61616b"></path><path d="M2,11h.5a.5.5,0,0,0,0-1H2A1,1,0,0,1,1,9V4H11V9a1,1,0,0,1-1,1H9.5a.5.5,0,0,0,0,1H10a2,2,0,0,0,2-2V2a2,2,0,0,0-2-2H2A2,2,0,0,0,0,2V9A2,2,0,0,0,2,11Z" fill="#61616b"></path></g></svg>