<svg xmlns="http://www.w3.org/2000/svg" height="24" width="24" viewBox="0 0 64 64"><g fill="#61616b" class="nc-icon-wrapper"><path d="M47.707,2.879a1,1,0,0,0-1.414,0L44.879,4.293a1,1,0,0,0,0,1.414L55.172,16H4a1,1,0,0,0-1,1v2a1,1,0,0,0,1,1H55.172L44.879,30.293a1,1,0,0,0,0,1.414l1.414,1.414a1,1,0,0,0,1.414,0L62.121,18.707a1,1,0,0,0,0-1.414Z" fill="#61616b"></path><path data-color="color-2" d="M60,44H8.828L19.121,33.707a1,1,0,0,0,0-1.414l-1.414-1.414a1,1,0,0,0-1.414,0L1.879,45.293a1,1,0,0,0,0,1.414L16.293,61.121a1,1,0,0,0,1.414,0l1.414-1.414a1,1,0,0,0,0-1.414L8.828,48H60a1,1,0,0,0,1-1V45A1,1,0,0,0,60,44Z" fill="#61616b"></path></g></svg>