<svg xmlns="http://www.w3.org/2000/svg" height="24" width="24" viewBox="0 0 48 48"><g fill="#61616b" class="nc-icon-wrapper"><path data-color="color-2" d="M44,32H8.829l6.293-6.293a1,1,0,0,0,0-1.414l-1.415-1.415a1,1,0,0,0-1.414,0L1.878,33.293a1,1,0,0,0,0,1.414L12.293,45.122a1,1,0,0,0,1.414,0l1.415-1.415a1,1,0,0,0,0-1.414L8.829,36H44a1,1,0,0,0,1-1V33A1,1,0,0,0,44,32Z" fill="#61616b"></path><path d="M35.707,2.878a1,1,0,0,0-1.414,0L32.878,4.293a1,1,0,0,0,0,1.414L39.171,12H4a1,1,0,0,0-1,1v2a1,1,0,0,0,1,1H39.171l-6.293,6.293a1,1,0,0,0,0,1.414l1.415,1.415a1,1,0,0,0,1.414,0L46.122,14.707a1,1,0,0,0,0-1.414Z" fill="#61616b"></path></g></svg>