<svg xmlns="http://www.w3.org/2000/svg" height="24" width="24" viewBox="0 0 24 24"><g fill="#61616b" class="nc-icon-wrapper"><path d="M8.707,5.707,11,3.414V8a1,1,0,0,0,2,0V3.414l2.293,2.293a1,1,0,0,0,1.414-1.414l-4-4a1,1,0,0,0-1.414,0l-4,4A1,1,0,1,0,8.707,5.707Z" fill="#61616b"></path><path data-color="color-2" d="M19.707,7.293a1,1,0,1,0-1.414,1.414L20.586,11H16a1,1,0,0,0,0,2h4.586l-2.293,2.293a1,1,0,1,0,1.414,1.414l4-4a1,1,0,0,0,0-1.414Z" fill="#61616b"></path><path d="M15.293,18.293,13,20.586V16a1,1,0,0,0-2,0v4.586L8.707,18.293a1,1,0,1,0-1.414,1.414l4,4a1,1,0,0,0,1.414,0l4-4a1,1,0,0,0-1.414-1.414Z" fill="#61616b"></path><path data-color="color-2" d="M3.414,13H8a1,1,0,0,0,0-2H3.414L5.707,8.707A1,1,0,1,0,4.293,7.293l-4,4a1,1,0,0,0,0,1.414l4,4a1,1,0,1,0,1.414-1.414Z" fill="#61616b"></path></g></svg>