<svg xmlns="http://www.w3.org/2000/svg" height="24" width="24" viewBox="0 0 32 32"><g fill="#61616b" class="nc-icon-wrapper"><path d="M11.707,6.707,15,3.414V11a1,1,0,0,0,2,0V3.414l3.293,3.293a1,1,0,0,0,1.414-1.414l-5-5a1,1,0,0,0-1.414,0l-5,5a1,1,0,0,0,1.414,1.414Z" fill="#61616b"></path><path data-color="color-2" d="M26.707,10.293a1,1,0,0,0-1.414,1.414L28.586,15H21a1,1,0,0,0,0,2h7.586l-3.293,3.293a1,1,0,1,0,1.414,1.414l5-5a1,1,0,0,0,0-1.414Z" fill="#61616b"></path><path d="M20.293,25.293,17,28.586V21a1,1,0,0,0-2,0v7.586l-3.293-3.293a1,1,0,0,0-1.414,1.414l5,5a1,1,0,0,0,1.414,0l5-5a1,1,0,0,0-1.414-1.414Z" fill="#61616b"></path><path data-color="color-2" d="M3.414,17H11a1,1,0,0,0,0-2H3.414l3.293-3.293a1,1,0,0,0-1.414-1.414l-5,5a1,1,0,0,0,0,1.414l5,5a1,1,0,1,0,1.414-1.414Z" fill="#61616b"></path></g></svg>