<svg xmlns="http://www.w3.org/2000/svg" height="24" width="24" viewBox="0 0 16 16"><g fill="#61616b" class="nc-icon-wrapper"><path fill="#61616b" d="M7.999,4C7.673,4,7.367,4.159,7.18,4.427l-7,10c-0.214,0.305-0.238,0.704-0.068,1.035 C0.285,15.793,0.626,16,0.999,16h14.001c0.373,0,0.715-0.207,0.887-0.538c0.17-0.331,0.146-0.73-0.068-1.035l-7-10 C8.633,4.159,8.327,4,8.001,4C8,4,8,4,7.999,4C8,4,8,4,7.999,4z"></path> <path data-color="color-2" fill="#61616b" d="M16,1c0,0.552-0.447,1-1,1H1C0.447,2,0,1.552,0,1c0-0.552,0.447-1,1-1l14,0 C15.553,0,16,0.448,16,1z"></path></g></svg>