<svg xmlns="http://www.w3.org/2000/svg" height="24" width="24" viewBox="0 0 32 32"><g fill="#61616b" class="nc-icon-wrapper"><path data-color="color-2" fill="#61616b" d="M30,27H2c-0.553,0-1,0.448-1,1s0.447,1,1,1h28c0.553,0,1-0.448,1-1S30.553,27,30,27z"></path> <path fill="#61616b" d="M16.805,23.593l14-19c0.226-0.304,0.258-0.708,0.088-1.044C30.723,3.212,30.377,3,30,3H2 C1.623,3,1.277,3.212,1.107,3.549C0.939,3.88,0.968,4.287,1.195,4.593l14,19C15.384,23.849,15.683,24,16,24 C16.317,24,16.616,23.849,16.805,23.593z"></path></g></svg>