<svg xmlns="http://www.w3.org/2000/svg" height="24" width="24" viewBox="0 0 32 32"><g fill="#61616b" class="nc-icon-wrapper"><path data-color="color-2" fill="#61616b" d="M27,2v28c0,0.553,0.448,1,1,1s1-0.447,1-1V2c0-0.553-0.448-1-1-1S27,1.447,27,2z"></path> <path fill="#61616b" d="M23.593,15.195l-19-14C4.29,0.97,3.886,0.938,3.549,1.108C3.212,1.278,3,1.623,3,2v28 c0,0.377,0.212,0.723,0.549,0.893c0.332,0.168,0.738,0.139,1.044-0.088l19-14C23.849,16.616,24,16.318,24,16 S23.849,15.384,23.593,15.195z"></path></g></svg>