<svg xmlns="http://www.w3.org/2000/svg" height="24" width="24" viewBox="0 0 16 16"><g fill="#61616b" class="nc-icon-wrapper"><path fill="#61616b" d="M4,8.001C4,8.327,4.159,8.633,4.427,8.82l10,7c0.305,0.214,0.704,0.238,1.035,0.068 C15.793,15.715,16,15.374,16,15.001V0.999c0-0.373-0.207-0.715-0.538-0.887c-0.331-0.17-0.73-0.146-1.035,0.068l-10,7 C4.159,7.367,4,7.673,4,7.999C4,8,4,8,4,8.001C4,8,4,8,4,8.001z"></path> <path data-color="color-2" fill="#61616b" d="M1,0c0.552,0,1,0.447,1,1v14c0,0.553-0.448,1-1,1s-1-0.447-1-1L0,1C0,0.447,0.448,0,1,0z"></path></g></svg>