<svg xmlns="http://www.w3.org/2000/svg" height="24" width="24" viewBox="0 0 16 16"><g fill="#61616b" class="nc-icon-wrapper"><path fill="#61616b" d="M8.001,12c0.326,0,0.632-0.159,0.819-0.427l7-10c0.214-0.305,0.238-0.704,0.068-1.035 C15.715,0.207,15.374,0,15.001,0L0.999,0C0.626,0,0.285,0.207,0.112,0.538c-0.17,0.331-0.146,0.73,0.068,1.035l7,10 C7.367,11.841,7.673,12,7.999,12C8,12,8,12,8.001,12C8,12,8,12,8.001,12z"></path> <path data-color="color-2" fill="#61616b" d="M0,15c0-0.552,0.447-1,1-1h14c0.553,0,1,0.448,1,1s-0.447,1-1,1H1C0.447,16,0,15.552,0,15z"></path></g></svg>