<svg xmlns="http://www.w3.org/2000/svg" height="24" width="24" viewBox="0 0 32 32"><g fill="#61616b" class="nc-icon-wrapper"><path data-color="color-2" fill="#61616b" d="M30,5H2C1.447,5,1,4.552,1,4s0.447-1,1-1h28c0.553,0,1,0.448,1,1S30.553,5,30,5z"></path> <path fill="#61616b" d="M16.805,8.407l14,19c0.226,0.304,0.258,0.708,0.088,1.044C30.722,28.788,30.377,29,30,29H2 c-0.377,0-0.723-0.212-0.893-0.549c-0.168-0.332-0.139-0.738,0.088-1.044l14-19C15.384,8.151,15.682,8,16,8 S16.616,8.151,16.805,8.407z"></path></g></svg>