<svg xmlns="http://www.w3.org/2000/svg" height="24" width="24" viewBox="0 0 32 32"><g fill="#61616b" class="nc-icon-wrapper"><path data-color="color-2" fill="#61616b" d="M5,2v28c0,0.553-0.448,1-1,1s-1-0.447-1-1V2c0-0.553,0.448-1,1-1S5,1.447,5,2z"></path> <path fill="#61616b" d="M8.407,15.195l19-14c0.304-0.226,0.708-0.258,1.044-0.088C28.788,1.278,29,1.623,29,2v28 c0,0.377-0.212,0.723-0.549,0.893c-0.332,0.168-0.738,0.139-1.044-0.088l-19-14C8.151,16.616,8,16.318,8,16 S8.151,15.384,8.407,15.195z"></path></g></svg>