<svg xmlns="http://www.w3.org/2000/svg" height="24" width="24" viewBox="0 0 16 16"><g fill="#61616b" class="nc-icon-wrapper"><path data-color="color-2" d="M15.5,11H13A5.022,5.022,0,0,1,9.547,9.6l-1.2,1.606A7.065,7.065,0,0,0,12,12.919v1.586a.5.5,0,0,0,.853.349l3-3A.5.5,0,0,0,15.5,11Z" fill="#61616b"></path><path data-color="color-2" d="M1,5A5.022,5.022,0,0,1,4.453,6.4L5.658,4.79A7.028,7.028,0,0,0,1,3,1,1,0,0,0,1,5Z" fill="#61616b"></path><path d="M13,5h2.5a.5.5,0,0,0,.354-.854l-3-3A.5.5,0,0,0,12,1.5V3.081A7.032,7.032,0,0,0,7.4,5.8L5,9a5.025,5.025,0,0,1-4,2,1,1,0,0,0,0,2,7.034,7.034,0,0,0,5.6-2.8L9,7A5.025,5.025,0,0,1,13,5Z" fill="#61616b"></path></g></svg>