<svg xmlns="http://www.w3.org/2000/svg" height="24" width="24" viewBox="0 0 24 24"><g fill="#61616b" class="nc-icon-wrapper"><path d="M18,10.5a.5.5,0,0,0,.5.5.494.494,0,0,0,.287-.091l5-3.5a.5.5,0,0,0,0-.818l-5-3.5A.5.5,0,0,0,18,3.5V6.053c-3.83.372-6.308,2.841-8.707,5.24C6.872,13.714,4.586,16,1,16a1,1,0,0,0,0,2c4.414,0,7.105-2.69,9.707-5.293C12.893,10.521,14.978,8.463,18,8.08Z" fill="#61616b"></path><path data-color="color-2" d="M18.787,13.091A.494.494,0,0,0,18.5,13a.5.5,0,0,0-.5.5v2.433a9.554,9.554,0,0,1-5.115-2.571c-.25.247-.5.5-.764.759-.218.218-.44.439-.664.66A11.358,11.358,0,0,0,18,17.944V20.5a.5.5,0,0,0,.787.409l5-3.5a.5.5,0,0,0,0-.818Z" fill="#61616b"></path><path data-color="color-2" d="M1,8a9.049,9.049,0,0,1,6.115,2.638c.25-.247.5-.5.764-.759.218-.218.44-.439.664-.66A11,11,0,0,0,1,6,1,1,0,0,0,1,8Z" fill="#61616b"></path></g></svg>