<svg xmlns="http://www.w3.org/2000/svg" height="24" width="24" viewBox="0 0 64 64"><g fill="#61616b" class="nc-icon-wrapper"><path data-color="color-2" d="M3,20c7.584,0,13.353,4.459,19.023,9.9q.716-.711,1.442-1.437.687-.689,1.39-1.386C18.721,21.188,12.055,16,3,16a2,2,0,0,0,0,4Z" fill="#61616b"></path><path data-color="color-2" d="M50.6,36.2A1,1,0,0,0,49,37v6.884c-6.618-.7-11.862-4.834-17.024-9.785q-.718.712-1.441,1.436-.689.69-1.39,1.387c5.673,5.449,11.8,10.3,19.855,10.992V55a1,1,0,0,0,1.6.8l12-9a1,1,0,0,0,0-1.6Z" fill="#61616b"></path><path d="M62.6,17.2l-12-9A1,1,0,0,0,49,9v7.086c-9.759.845-16.693,7.779-23.414,14.5C18.687,37.484,12.171,44,3,44a2,2,0,0,0,0,4c10.829,0,18.243-7.415,25.414-14.586C34.8,27.029,40.861,20.982,49,20.116V27a1,1,0,0,0,1.6.8l12-9a1,1,0,0,0,0-1.6Z" fill="#61616b"></path></g></svg>