<svg xmlns="http://www.w3.org/2000/svg" height="24" width="24" viewBox="0 0 48 48"><g fill="#61616b" class="nc-icon-wrapper"><path data-color="color-2" d="M47,32H41.6c-6.449,0-10.986-2.975-15.3-6.672-.6.532-1.2,1.077-1.807,1.632q-.585.531-1.183,1.071C27.19,31.4,31.416,34.444,37,35.551V41a1,1,0,0,0,1.665.748l9-8A1,1,0,0,0,47,32Z" fill="#61616b"></path><path data-color="color-2" d="M2,16c6.449,0,10.986,2.975,15.3,6.672.6-.532,1.2-1.077,1.807-1.632q.585-.531,1.183-1.071C15.409,15.729,9.992,12,2,12a2,2,0,0,0,0,4Z" fill="#61616b"></path><path d="M42,16h5a1,1,0,0,0,.665-1.748l-9-8A1,1,0,0,0,37,7v5.452c-6.973,1.383-11.829,5.781-16.545,10.068C15.092,27.4,10.027,32,2,32a2,2,0,0,0,0,4c9.573,0,15.456-5.348,21.146-10.52C28.508,20.605,33.573,16,41.6,16Z" fill="#61616b"></path></g></svg>