<svg xmlns="http://www.w3.org/2000/svg" height="24" width="24" viewBox="0 0 32 32"><g fill="#61616b" class="nc-icon-wrapper"><path data-color="color-2" d="M10.1,14.6l.7-.7.7-.7C8.6,10.4,5.3,8,1,8H0v2H1C4.6,10,7.4,12,10.1,14.6Z" fill="#61616b"></path><path d="M24,14a1,1,0,0,0,1.64.768l6-5a1,1,0,0,0,0-1.536l-6-5A1,1,0,0,0,24,4V8.043c-4.865.423-8.327,3.884-11.7,7.257C8.8,18.7,5.6,22,1,22H0v2H1c5.4,0,9.1-3.7,12.7-7.3,3.24-3.148,6.225-6.2,10.3-6.641Z" fill="#61616b"></path><path data-color="color-2" d="M25.64,17.232A1,1,0,0,0,24,18v3.931c-3.125-.333-5.657-2.178-8.1-4.531l-.7.7-.7.7c2.741,2.558,5.663,4.753,9.5,5.117V28a1,1,0,0,0,1.64.768l6-5a1,1,0,0,0,0-1.536Z" fill="#61616b"></path></g></svg>