<svg xmlns="http://www.w3.org/2000/svg" height="24" width="24" viewBox="0 0 64 64"><g fill="#61616b" class="nc-icon-wrapper"><path data-color="color-2" d="M44,37a6,6,0,1,0-6,6A6.006,6.006,0,0,0,44,37ZM34,37a4,4,0,1,1,4,4A4,4,0,0,1,34,37Z" fill="#61616b"></path><path data-color="color-2" d="M56,49a6,6,0,1,0,6,6A6.006,6.006,0,0,0,56,49Zm0,10a4,4,0,1,1,4-4A4,4,0,0,1,56,59Z" fill="#61616b"></path><path data-color="color-2" d="M57.61,32.208a1,1,0,0,0-1.4.182l-20,26a1,1,0,1,0,1.584,1.22l20-26A1,1,0,0,0,57.61,32.208Z" fill="#61616b"></path><path d="M38.9,24.433a1,1,0,0,0-.12-1.058l-16-20a1.036,1.036,0,0,0-1.562,0l-16,20A1,1,0,0,0,6,25H16V60a1,1,0,0,0,1,1H27a1,1,0,0,0,1-1V25H38A1,1,0,0,0,38.9,24.433Z" fill="#61616b"></path></g></svg>