<svg xmlns="http://www.w3.org/2000/svg" height="24" width="24" viewBox="0 0 24 24"><g fill="#61616b" class="nc-icon-wrapper"><path data-color="color-2" d="M14,6a3,3,0,1,0-3-3A3,3,0,0,0,14,6Zm0-4a1,1,0,1,1-1,1A1,1,0,0,1,14,2Z" fill="#61616b"></path><path data-color="color-2" d="M21,7a3,3,0,1,0,3,3A3,3,0,0,0,21,7Zm0,4a1,1,0,1,1,1-1A1,1,0,0,1,21,11Z" fill="#61616b"></path><path data-color="color-2" d="M12,11a1,1,0,0,0,1.707.707l9-9a1,1,0,0,0-1.414-1.414l-9,9A1,1,0,0,0,12,11Z" fill="#61616b"></path><path d="M13,15H9V1A1,1,0,0,0,8,0H6A1,1,0,0,0,5,1V15H1a1,1,0,0,0-.759,1.651l6,7a1,1,0,0,0,1.518,0l6-7A1,1,0,0,0,13,15Z" fill="#61616b"></path></g></svg>