<svg xmlns="http://www.w3.org/2000/svg" height="24" width="24" viewBox="0 0 32 32"><g fill="#61616b" class="nc-icon-wrapper"><path data-color="color-2" d="M18.5,8A3.543,3.543,0,0,0,22,4.5a3.5,3.5,0,0,0-7,0A3.543,3.543,0,0,0,18.5,8Zm0-5A1.538,1.538,0,0,1,20,4.5a1.5,1.5,0,0,1-3,0A1.538,1.538,0,0,1,18.5,3Z" fill="#61616b"></path><path data-color="color-2" d="M27.5,10A3.5,3.5,0,1,0,31,13.5,3.543,3.543,0,0,0,27.5,10Zm0,5A1.5,1.5,0,1,1,29,13.5,1.538,1.538,0,0,1,27.5,15Z" fill="#61616b"></path><path data-color="color-2" d="M29.7,2.3a.967.967,0,0,0-1.4,0l-12,12a.908.908,0,0,0-.3.7.945.945,0,0,0,1,1,.908.908,0,0,0,.7-.3l12-12A.967.967,0,0,0,29.7,2.3Z" fill="#61616b"></path><path d="M16,21H12V1a1,1,0,0,0-1-1H7A1,1,0,0,0,6,1V21H2a1,1,0,0,0-.79,1.614l7,9a1,1,0,0,0,1.58,0l7-9A1,1,0,0,0,16,21Z" fill="#61616b"></path></g></svg>