<svg xmlns="http://www.w3.org/2000/svg" height="24" width="24" viewBox="0 0 32 32"><g fill="#61616b" class="nc-icon-wrapper"><path data-color="color-2" d="M18.5,22A3.5,3.5,0,1,0,15,18.5,3.543,3.543,0,0,0,18.5,22Zm0-5A1.5,1.5,0,1,1,17,18.5,1.538,1.538,0,0,1,18.5,17Z" fill="#61616b"></path><path data-color="color-2" d="M27.5,24A3.5,3.5,0,1,0,31,27.5,3.543,3.543,0,0,0,27.5,24Zm0,5A1.5,1.5,0,1,1,29,27.5,1.538,1.538,0,0,1,27.5,29Z" fill="#61616b"></path><path data-color="color-2" d="M29.7,16.3a.967.967,0,0,0-1.4,0l-12,12a.908.908,0,0,0-.3.7.945.945,0,0,0,1,1,.908.908,0,0,0,.7-.3l12-12A.967.967,0,0,0,29.7,16.3Z" fill="#61616b"></path><path d="M16,11a1,1,0,0,0,.79-1.614l-7-9a1.037,1.037,0,0,0-1.58,0l-7,9A1,1,0,0,0,2,11H6V31a1,1,0,0,0,1,1h4a1,1,0,0,0,1-1V11Z" fill="#61616b"></path></g></svg>