<svg xmlns="http://www.w3.org/2000/svg" height="24" width="24" viewBox="0 0 16 16"><g fill="#61616b" class="nc-icon-wrapper"><path d="M6.673,5.711a.5.5,0,0,0,.269-.837l-1.6-1.68a5.489,5.489,0,0,1,7.9,3.114,1,1,0,0,0,1.9-.616A7.489,7.489,0,0,0,3.924,1.713L2.436.154a.5.5,0,0,0-.849.235L.263,6.194a.5.5,0,0,0,.487.612A.478.478,0,0,0,.842,6.8Z" fill="#61616b"></path><path data-color="color-2" d="M15.61,9.348a.493.493,0,0,0-.452-.145L9.327,10.289a.5.5,0,0,0-.269.837l1.6,1.68a5.489,5.489,0,0,1-7.9-3.114,1,1,0,0,0-1.9.616,7.489,7.489,0,0,0,11.214,3.979l1.488,1.559a.5.5,0,0,0,.495.136.5.5,0,0,0,.354-.371l1.324-5.805A.5.5,0,0,0,15.61,9.348Z" fill="#61616b"></path></g></svg>