<svg xmlns="http://www.w3.org/2000/svg" height="24" width="24" viewBox="0 0 64 64"><g fill="#61616b" class="nc-icon-wrapper"><path data-color="color-2" d="M26.384,41.724a21.015,21.015,0,0,1-4.121-1.3V43.78a14.649,14.649,0,0,0,3.7,1.044,28.3,28.3,0,0,0,4.669.376V50h2.776V45.008a11.3,11.3,0,0,0,6.133-2.4,6.587,6.587,0,0,0,1.4-8.045,7.126,7.126,0,0,0-2.474-2.346,24.517,24.517,0,0,0-5.057-2.1V20.778a21.88,21.88,0,0,1,6.52,1.507l1.119-2.819a21.872,21.872,0,0,0-7.639-1.593V14H30.634v3.911a10.634,10.634,0,0,0-5.778,2.2,5.738,5.738,0,0,0-2.184,4.627,6.61,6.61,0,0,0,1.776,4.777q1.774,1.849,6.186,3.249V42.23A20.126,20.126,0,0,1,26.384,41.724Zm7.024-8.073a10.259,10.259,0,0,1,3.712,1.9,3.388,3.388,0,0,1,.956,2.5q0,3.311-4.668,3.963ZM30.632,29.2a9.282,9.282,0,0,1-3.357-1.872,3.586,3.586,0,0,1-.968-2.625,3.226,3.226,0,0,1,1.1-2.491,6.17,6.17,0,0,1,3.228-1.345Z" fill="#61616b"></path><path d="M32,2A29.923,29.923,0,0,0,13.07,8.738L8.251,4.267a1,1,0,0,0-1.666.564l-2.57,15A1,1,0,0,0,5,21a.974.974,0,0,0,.226-.026l15-3.467a1,1,0,0,0,.455-1.707l-4.65-4.314A26,26,0,1,1,6,32a2,2,0,0,0-4,0A30,30,0,1,0,32,2Z" fill="#61616b"></path></g></svg>