<svg xmlns="http://www.w3.org/2000/svg" height="24" width="24" viewBox="0 0 12 12"><g fill="#61616b" class="nc-icon-wrapper"><path d="M11.854.036a.25.25,0,0,0-.272.053L10.061,1.594A5.937,5.937,0,0,0,6,0,6,6,0,0,0,.5,3.6a1,1,0,0,0,.516,1.316.978.978,0,0,0,.4.084,1,1,0,0,0,.917-.6A4,4,0,0,1,6,2,3.954,3.954,0,0,1,8.636,3L6.941,4.681a.251.251,0,0,0-.06.259.248.248,0,0,0,.209.166l4.64.514.028,0a.248.248,0,0,0,.25-.25V.267A.251.251,0,0,0,11.854.036Z" fill="#61616b"></path><path data-color="color-2" d="M.146,11.964a.229.229,0,0,0,.1.019.251.251,0,0,0,.176-.072l1.521-1.5A5.937,5.937,0,0,0,6,12a6,6,0,0,0,5.5-3.6,1,1,0,0,0-1.833-.8A4,4,0,0,1,6,10,3.954,3.954,0,0,1,3.364,9l1.7-1.677a.251.251,0,0,0,.06-.259.248.248,0,0,0-.209-.166L.27,6.38a.27.27,0,0,0-.195.061.252.252,0,0,0-.083.187v5.105A.251.251,0,0,0,.146,11.964Z" fill="#61616b"></path></g></svg>