<svg xmlns="http://www.w3.org/2000/svg" height="24" width="24" viewBox="0 0 16 16"><g fill="#61616b" class="nc-icon-wrapper"><path d="M14.034.446A.985.985,0,0,0,13,1.411l-.056,1.647A6.991,6.991,0,0,0,1.4,5.667a1,1,0,0,0,1.887.666,4.994,4.994,0,0,1,8.754-1.269L9.122,4.3a1,1,0,1,0-.506,1.935l4.957,1.294A1,1,0,0,0,14.825,6.6L15,1.479A1,1,0,0,0,14.034.446Z" fill="#61616b"></path><path data-color="color-2" d="M13.991,9.057a1,1,0,0,0-1.276.61,4.994,4.994,0,0,1-8.754,1.269l2.917.761a1,1,0,1,0,.506-1.935L2.427,8.468A1,1,0,0,0,1.175,9.4L1,14.521a1,1,0,0,0,.965,1.033H2a1,1,0,0,0,1-.966l.056-1.647A6.991,6.991,0,0,0,14.6,10.333,1,1,0,0,0,13.991,9.057Z" fill="#61616b"></path></g></svg>