<svg xmlns="http://www.w3.org/2000/svg" height="24" width="24" viewBox="0 0 32 32"><g fill="#61616b" class="nc-icon-wrapper"><circle data-color="color-2" cx="4" cy="25" r="4" fill="#61616b"></circle><path d="M23.235,1.715A15.97,15.97,0,0,0,6.639,3.02L3.966.347A1,1,0,0,0,2.275.871L.658,9.567a1,1,0,0,0,.984,1.183.971.971,0,0,0,.193-.019l8.617-1.7a1,1,0,0,0,.514-1.688L8.072,4.453a14,14,0,1,1,12.3,24.85A13.9,13.9,0,0,1,9.68,28.489a1,1,0,0,0-.9,1.785A16.006,16.006,0,0,0,23.235,1.715Z" fill="#61616b"></path></g></svg>