<svg xmlns="http://www.w3.org/2000/svg" height="24" width="24" viewBox="0 0 64 64"><g fill="#61616b" class="nc-icon-wrapper"><circle data-color="color-2" cx="32" cy="32" r="8" fill="#61616b"></circle><path d="M6,32A26,26,0,0,1,47.969,11.486L43.32,15.8a1,1,0,0,0,.455,1.707l15,3.467A.96.96,0,0,0,59,21a1,1,0,0,0,.986-1.169l-2.571-15a1,1,0,0,0-1.666-.564L50.931,8.738A29.99,29.99,0,0,0,2,32a2,2,0,0,0,4,0Z" fill="#61616b"></path><path d="M60,30a2,2,0,0,0-2,2A26,26,0,0,1,16.031,52.514L20.68,48.2a1,1,0,0,0-.455-1.707l-15-3.467a1,1,0,0,0-1.211,1.143l2.571,15a1,1,0,0,0,.665.778A.987.987,0,0,0,7.571,60a1,1,0,0,0,.68-.267l4.818-4.471A29.99,29.99,0,0,0,62,32,2,2,0,0,0,60,30Z" fill="#61616b"></path></g></svg>