<svg xmlns="http://www.w3.org/2000/svg" height="24" width="24" viewBox="0 0 64 64"><g fill="#61616b" class="nc-icon-wrapper"><circle data-color="color-2" cx="9" cy="49" r="8" fill="#61616b"></circle><path d="M32,2A29.921,29.921,0,0,0,13.07,8.738L8.251,4.267a1,1,0,0,0-1.666.564l-2.57,15A1,1,0,0,0,5,21a1.094,1.094,0,0,0,.226-.025l15-3.467a1,1,0,0,0,.455-1.708l-4.65-4.314A26,26,0,1,1,32,58a25.73,25.73,0,0,1-11.719-2.784,2,2,0,0,0-1.806,3.568A29.682,29.682,0,0,0,32,62,30,30,0,0,0,32,2Z" fill="#61616b"></path></g></svg>