<svg xmlns="http://www.w3.org/2000/svg" height="24" width="24" viewBox="0 0 24 24"><g fill="#61616b" class="nc-icon-wrapper"><circle data-color="color-2" cx="4" cy="18" r="3" fill="#61616b"></circle><path d="M12,0A11.876,11.876,0,0,0,5.113,2.169L3.537.192A.5.5,0,0,0,3.146,0a.46.46,0,0,0-.091.009A.5.5,0,0,0,2.67.351L.628,6.728a.492.492,0,0,0-.022.194.5.5,0,0,0,.541.456L7.819,6.81A.49.49,0,0,0,8.087,6.7.5.5,0,0,0,8.168,6l-1.8-2.262A9.9,9.9,0,0,1,12,2,10,10,0,1,1,7.829,21.092a1,1,0,0,0-.836,1.816A12,12,0,1,0,12,0Z" fill="#61616b"></path></g></svg>