<svg xmlns="http://www.w3.org/2000/svg" height="24" width="24" viewBox="0 0 64 64"><g fill="#61616b" class="nc-icon-wrapper"><path data-color="color-2" d="M7.879,33.121a3,3,0,0,1,.1-4.338L27,11.426V9.1a1,1,0,0,0-1.674-.739l-24,21.9a1,1,0,0,0-.033,1.446l24,24A1,1,0,0,0,27,55V52.242Z" fill="#61616b"></path><path d="M36,22.018V9.1a1,1,0,0,0-1.674-.739l-24,21.9a1,1,0,0,0-.033,1.446l24,24A1,1,0,0,0,36,55V42.015c16.558.5,25.074,13.394,25.159,13.527A1,1,0,0,0,63,55V51C63,39.368,53.4,22.637,36,22.018Z" fill="#61616b"></path></g></svg>