<svg xmlns="http://www.w3.org/2000/svg" height="24" width="24" viewBox="0 0 32 32"><g fill="#61616b" class="nc-icon-wrapper"><path data-color="color-2" d="M4,15a2.978,2.978,0,0,1,.879-2.121L13,4.758V4a1,1,0,0,0-1.707-.707l-11,11a1,1,0,0,0,0,1.414l11,11A1,1,0,0,0,13,26v-.757L4.879,17.121A2.978,2.978,0,0,1,4,15Z" fill="#61616b"></path><path d="M19,10.013V4a1,1,0,0,0-1.707-.707l-11,11a1,1,0,0,0,0,1.414l11,11A1,1,0,0,0,19,26V20.02c5.92.237,9.539,2.627,11.049,7.288A1,1,0,0,0,31,28a.921.921,0,0,0,.156-.013A1,1,0,0,0,32,27C32,13.325,27.251,10.229,19,10.013Z" fill="#61616b"></path></g></svg>