<svg xmlns="http://www.w3.org/2000/svg" height="24" width="24" viewBox="0 0 16 16"><g fill="#61616b" class="nc-icon-wrapper"><path d="M3,11H2V5H7V6.5a.5.5,0,0,0,.288.453A.507.507,0,0,0,7.5,7a.494.494,0,0,0,.32-.116l3-2.5a.5.5,0,0,0,0-.768l-3-2.5A.5.5,0,0,0,7,1.5V3H2A2,2,0,0,0,0,5v6a2,2,0,0,0,2,2H3a1,1,0,0,0,0-2Z" fill="#61616b"></path><path data-color="color-2" d="M14,3H13a1,1,0,0,0,0,2h1v6H9V9.5a.5.5,0,0,0-.82-.384l-3,2.5a.5.5,0,0,0,0,.768l3,2.5A.494.494,0,0,0,8.5,15a.507.507,0,0,0,.212-.047A.5.5,0,0,0,9,14.5V13h5a2,2,0,0,0,2-2V5A2,2,0,0,0,14,3Z" fill="#61616b"></path></g></svg>