<svg xmlns="http://www.w3.org/2000/svg" height="24" width="24" viewBox="0 0 64 64"><g fill="#61616b" class="nc-icon-wrapper"><path d="M14,48H9a2.968,2.968,0,0,1-3-3V19a2.968,2.968,0,0,1,3-3H29v7a1,1,0,0,0,1.569.822l13-9a1,1,0,0,0,0-1.644l-13-9A1,1,0,0,0,29,5v7H9a6.926,6.926,0,0,0-7,7V45a6.926,6.926,0,0,0,7,7h5a2,2,0,0,0,0-4Z" fill="#61616b"></path><path data-color="color-2" d="M55,12H50a2,2,0,0,0,0,4h5a2.968,2.968,0,0,1,3,3V45a2.968,2.968,0,0,1-3,3H35V41a1,1,0,0,0-1.569-.822l-13,9a1,1,0,0,0,0,1.644l13,9A1,1,0,0,0,35,59V52H55a6.926,6.926,0,0,0,7-7V19A6.926,6.926,0,0,0,55,12Z" fill="#61616b"></path></g></svg>