<svg xmlns="http://www.w3.org/2000/svg" height="24" width="24" viewBox="0 0 48 48"><g fill="#61616b" class="nc-icon-wrapper"><path data-color="color-2" d="M7.951,26.181a3,3,0,0,1,0-4.363l12.06-11.389V7a1,1,0,0,0-1.687-.727l-18,17a1,1,0,0,0,0,1.454l18,17A1,1,0,0,0,20.011,41V37.571Z" fill="#61616b"></path><path d="M41.053,22.068a17.417,17.417,0,0,0-12.042-5.047V7a1,1,0,0,0-1.687-.727l-18,17a1,1,0,0,0,0,1.454l18,17A1,1,0,0,0,29.011,41V31.035c9.51.657,17.117,10.431,17.2,10.533a1,1,0,0,0,1.793-.6C48,40.479,47.967,29.009,41.053,22.068Z" fill="#61616b"></path></g></svg>