<svg xmlns="http://www.w3.org/2000/svg" height="24" width="24" viewBox="0 0 24 24"><g fill="#61616b" class="nc-icon-wrapper"><path data-color="color-2" d="M3.685,12.72A2.5,2.5,0,0,1,3,10.935a2.525,2.525,0,0,1,.788-1.756L10,3.312V2.5a.5.5,0,0,0-.843-.363l-9,8.5A.5.5,0,0,0,0,10.986a.505.505,0,0,0,.137.358l9,9.5A.5.5,0,0,0,9.5,21a.519.519,0,0,0,.185-.035A.5.5,0,0,0,10,20.5V19.385Z" fill="#61616b"></path><path d="M15,8.013V2.5a.5.5,0,0,0-.843-.363l-9,8.5A.5.5,0,0,0,5,10.986a.505.505,0,0,0,.137.358l9,9.5A.5.5,0,0,0,14.5,21a.519.519,0,0,0,.185-.035A.5.5,0,0,0,15,20.5V15.015c5.284.322,8.025,5.654,8.053,5.709A.5.5,0,0,0,24,20.5C24,14.636,21.179,8.335,15,8.013Z" fill="#61616b"></path></g></svg>