<svg xmlns="http://www.w3.org/2000/svg" height="24" width="24" viewBox="0 0 16 16"><g fill="#61616b" class="nc-icon-wrapper"><path data-color="color-2" d="M3.439,9.061a1.5,1.5,0,0,1,0-2.122L6,4.379V3a.5.5,0,0,0-.854-.354l-5,5a.5.5,0,0,0,0,.708l5,5A.5.5,0,0,0,6,13V11.621Z" fill="#61616b"></path><path d="M10,5.52V3a.5.5,0,0,0-.854-.354l-5,5a.5.5,0,0,0,0,.708l5,5A.5.5,0,0,0,10,13V10.509c3.109.115,4.147,1.321,5.08,2.762A.5.5,0,0,0,16,13C16,8.121,12.979,5.757,10,5.52Z" fill="#61616b"></path></g></svg>