<svg xmlns="http://www.w3.org/2000/svg" height="24" width="24" viewBox="0 0 48 48"><g fill="#61616b" class="nc-icon-wrapper"><path data-color="color-2" d="M15.219,31.625l8,10a1,1,0,0,0,1.562,0l8-10A1,1,0,0,0,32,30H16a1,1,0,0,0-.781,1.625Z" fill="#61616b"></path><path data-color="color-2" d="M16,18H32a1,1,0,0,0,.781-1.625l-8-10a1.036,1.036,0,0,0-1.562,0l-8,10A1,1,0,0,0,16,18Z" fill="#61616b"></path><path d="M44,1H4A1,1,0,0,0,4,3H44a1,1,0,0,0,0-2Z" fill="#61616b"></path><path d="M44,45H4a1,1,0,0,0,0,2H44a1,1,0,0,0,0-2Z" fill="#61616b"></path></g></svg>