<svg xmlns="http://www.w3.org/2000/svg" height="24" width="24" viewBox="0 0 64 64"><g fill="#61616b" class="nc-icon-wrapper"><path data-color="color-2" d="M21,24H43a1,1,0,0,0,.786-1.618l-11-14a1.035,1.035,0,0,0-1.572,0l-11,14A1,1,0,0,0,21,24Z" fill="#61616b"></path><path d="M56,2H8A1,1,0,0,0,8,4H56a1,1,0,0,0,0-2Z" fill="#61616b"></path><path data-color="color-2" d="M20.214,41.618l11,14a1,1,0,0,0,1.572,0l11-14A1,1,0,0,0,43,40H21a1,1,0,0,0-.786,1.618Z" fill="#61616b"></path><path d="M56,60H8a1,1,0,0,0,0,2H56a1,1,0,0,0,0-2Z" fill="#61616b"></path></g></svg>