<svg xmlns="http://www.w3.org/2000/svg" height="24" width="24" viewBox="0 0 32 32"><g fill="#61616b" class="nc-icon-wrapper"><path d="M1,2A1,1,0,0,0,0,3V29a1,1,0,0,0,2,0V3A1,1,0,0,0,1,2Z" fill="#61616b"></path><path d="M31,2a1,1,0,0,0-1,1V29a1,1,0,0,0,2,0V3A1,1,0,0,0,31,2Z" fill="#61616b"></path><path data-color="color-2" d="M12.418,9.091a1,1,0,0,0-1.068.15l-7,6a1,1,0,0,0,0,1.518l7,6A1,1,0,0,0,13,22V10A1,1,0,0,0,12.418,9.091Z" fill="#61616b"></path><path data-color="color-2" d="M20.65,9.241A1,1,0,0,0,19,10V22a1,1,0,0,0,1.65.759l7-6a1,1,0,0,0,0-1.518Z" fill="#61616b"></path></g></svg>