<svg xmlns="http://www.w3.org/2000/svg" height="24" width="24" viewBox="0 0 12 12"><g fill="#61616b" class="nc-icon-wrapper"><path d="M11.5,0H.5a.5.5,0,0,0,0,1h11a.5.5,0,0,0,0-1Z" fill="#61616b"></path><path d="M11.5,11H.5a.5.5,0,0,0,0,1h11a.5.5,0,0,0,0-1Z" fill="#61616b"></path><path data-color="color-2" d="M3.25,5h5.5a.25.25,0,0,0,.185-.419l-2.75-3a.26.26,0,0,0-.37,0l-2.75,3A.25.25,0,0,0,3.25,5Z" fill="#61616b"></path><path data-color="color-2" d="M3.065,7.419l2.75,3a.252.252,0,0,0,.37,0l2.75-3A.25.25,0,0,0,8.75,7H3.25a.25.25,0,0,0-.185.419Z" fill="#61616b"></path></g></svg>