<svg xmlns="http://www.w3.org/2000/svg" height="24" width="24" viewBox="0 0 32 32"><g fill="#61616b" class="nc-icon-wrapper"><path d="M29,30H3a1,1,0,0,0,0,2H29a1,1,0,0,0,0-2Z" fill="#61616b"></path><path d="M29,0H3A1,1,0,0,0,3,2H29a1,1,0,0,0,0-2Z" fill="#61616b"></path><path data-color="color-2" d="M9.241,20.651l6,7a1,1,0,0,0,1.518,0l6-7A1,1,0,0,0,22,19H10a1,1,0,0,0-.759,1.651Z" fill="#61616b"></path><path data-color="color-2" d="M10,13H22a1,1,0,0,0,.759-1.651l-6-7a1.033,1.033,0,0,0-1.518,0l-6,7A1,1,0,0,0,10,13Z" fill="#61616b"></path></g></svg>