<svg xmlns="http://www.w3.org/2000/svg" height="24" width="24" viewBox="0 0 16 16"><g fill="#61616b" class="nc-icon-wrapper"><path data-color="color-2" d="M9.879,4.175a.494.494,0,0,0-.552-.144A.5.5,0,0,0,9,4.5v7a.5.5,0,0,0,.327.469.5.5,0,0,0,.552-.144l3-3.5a.5.5,0,0,0,0-.65Z" fill="#61616b"></path><path data-color="color-2" d="M6.673,4.031a.492.492,0,0,0-.552.144l-3,3.5a.5.5,0,0,0,0,.65l3,3.5A.5.5,0,0,0,7,11.5v-7A.5.5,0,0,0,6.673,4.031Z" fill="#61616b"></path><path d="M1,1A1,1,0,0,0,0,2V14a1,1,0,0,0,2,0V2A1,1,0,0,0,1,1Z" fill="#61616b"></path><path d="M15,1a1,1,0,0,0-1,1V14a1,1,0,0,0,2,0V2A1,1,0,0,0,15,1Z" fill="#61616b"></path></g></svg>