<svg xmlns="http://www.w3.org/2000/svg" height="24" width="24" viewBox="0 0 12 12"><g fill="#61616b" class="nc-icon-wrapper"><path d="M11.5,0a.5.5,0,0,0-.5.5v11a.5.5,0,0,0,1,0V.5A.5.5,0,0,0,11.5,0Z" fill="#61616b"></path><path d="M.5,12a.5.5,0,0,0,.5-.5V.5a.5.5,0,0,0-1,0v11A.5.5,0,0,0,.5,12Z" fill="#61616b"></path><path data-color="color-2" d="M7.149,8.979A.258.258,0,0,0,7.25,9a.245.245,0,0,0,.169-.066l3-2.75a.249.249,0,0,0,0-.368l-3-2.75A.25.25,0,0,0,7,3.25v5.5A.251.251,0,0,0,7.149,8.979Z" fill="#61616b"></path><path data-color="color-2" d="M4.581,8.934A.245.245,0,0,0,4.75,9a.258.258,0,0,0,.1-.021A.251.251,0,0,0,5,8.75V3.25a.25.25,0,0,0-.419-.184l-3,2.75a.249.249,0,0,0,0,.368Z" fill="#61616b"></path></g></svg>