<svg xmlns="http://www.w3.org/2000/svg" height="24" width="24" viewBox="0 0 24 24"><g fill="#61616b" class="nc-icon-wrapper"><path d="M21,22H3a1,1,0,0,0,0,2H21a1,1,0,0,0,0-2Z" fill="#61616b"></path><path d="M21,0H3A1,1,0,0,0,3,2H21a1,1,0,0,0,0-2Z" fill="#61616b"></path><path data-color="color-2" d="M7.146,15.854l4.5,4.5a.5.5,0,0,0,.708,0l4.5-4.5A.5.5,0,0,0,16.5,15h-9a.5.5,0,0,0-.354.854Z" fill="#61616b"></path><path data-color="color-2" d="M7.5,9h9a.5.5,0,0,0,.354-.854l-4.5-4.5a.5.5,0,0,0-.708,0l-4.5,4.5A.5.5,0,0,0,7.5,9Z" fill="#61616b"></path></g></svg>