<svg xmlns="http://www.w3.org/2000/svg" height="24" width="24" viewBox="0 0 16 16"><g fill="#61616b" class="nc-icon-wrapper"><path data-color="color-2" d="M4.5,7h7a.5.5,0,0,0,.325-.88l-3.5-3a.5.5,0,0,0-.65,0l-3.5,3A.5.5,0,0,0,4.5,7Z" fill="#61616b"></path><path data-color="color-2" d="M4.175,9.88l3.5,3a.5.5,0,0,0,.65,0l3.5-3A.5.5,0,0,0,11.5,9h-7a.5.5,0,0,0-.325.88Z" fill="#61616b"></path><path d="M14,14H2a1,1,0,0,0,0,2H14a1,1,0,0,0,0-2Z" fill="#61616b"></path><path d="M14,0H2A1,1,0,0,0,2,2H14a1,1,0,0,0,0-2Z" fill="#61616b"></path></g></svg>