<svg xmlns="http://www.w3.org/2000/svg" height="24" width="24" viewBox="0 0 64 64"><g fill="#61616b" class="nc-icon-wrapper"><path data-color="color-2" d="M23.438,20.1a1.006,1.006,0,0,0-1.056.113l-14,11a1,1,0,0,0,0,1.572l14,11A1,1,0,0,0,24,43V21A1,1,0,0,0,23.438,20.1Z" fill="#61616b"></path><path d="M3,7A1,1,0,0,0,2,8V56a1,1,0,0,0,2,0V8A1,1,0,0,0,3,7Z" fill="#61616b"></path><path data-color="color-2" d="M41.618,20.214A1,1,0,0,0,40,21V43a1,1,0,0,0,1.618.786l14-11a1,1,0,0,0,0-1.572Z" fill="#61616b"></path><path d="M61,7a1,1,0,0,0-1,1V56a1,1,0,0,0,2,0V8A1,1,0,0,0,61,7Z" fill="#61616b"></path></g></svg>