<svg xmlns="http://www.w3.org/2000/svg" height="24" width="24" viewBox="0 0 48 48"><g fill="#61616b" class="nc-icon-wrapper"><path d="M24,1A22.805,22.805,0,0,0,10.669,5.258L7.4,2.485a1,1,0,0,0-1.639.638L4.368,14.19a1,1,0,0,0,1.261,1.088L16.5,12.25a1,1,0,0,0,.379-1.726L13.847,7.955A18.99,18.99,0,1,1,5,24a2,2,0,0,0-4,0A23,23,0,1,0,24,1Z" fill="#61616b"></path><path data-color="color-2" d="M33.561,31.439l-7.6-8.255L25.5,12.5a1.5,1.5,0,0,0-3,0L22,24a1.99,1.99,0,0,0,.586,1.414l8.853,8.147a1.5,1.5,0,0,0,2.122-2.122Z" fill="#61616b"></path></g></svg>