<svg xmlns="http://www.w3.org/2000/svg" height="24" width="24" viewBox="0 0 64 64"><g fill="#61616b" class="nc-icon-wrapper"><path d="M32,2A29.923,29.923,0,0,0,13.07,8.738L8.251,4.267a1,1,0,0,0-1.666.564l-2.57,15A1,1,0,0,0,5,21a.974.974,0,0,0,.226-.026l15-3.467a1,1,0,0,0,.455-1.707l-4.65-4.314A26,26,0,1,1,6,32a2,2,0,0,0-4,0A30,30,0,1,0,32,2Z" fill="#61616b"></path><path data-color="color-2" d="M32,11a2,2,0,0,0-2,2V28.555A3.988,3.988,0,0,0,32,36a3.926,3.926,0,0,0,1.023-.149l8.563,8.563a2,2,0,0,0,2.828-2.828l-8.563-8.563A3.926,3.926,0,0,0,36,32a3.982,3.982,0,0,0-2-3.445V13A2,2,0,0,0,32,11Z" fill="#61616b"></path><path data-color="color-2" d="M20.707,44.707l7-7a1,1,0,0,0-1.414-1.414l-7,7a1,1,0,1,0,1.414,1.414Z" fill="#61616b"></path></g></svg>