<svg xmlns="http://www.w3.org/2000/svg" height="24" width="24" viewBox="0 0 32 32"><g fill="#61616b" class="nc-icon-wrapper"><path data-color="color-2" d="M16,8a1,1,0,0,0-1,1v7a1,1,0,0,0,.293.707l5,5a1,1,0,0,0,1.414-1.414L17,15.586V9A1,1,0,0,0,16,8Z" fill="#61616b"></path><path d="M8.775,30.274A16.006,16.006,0,1,0,6.639,3.02L3.966.347a.992.992,0,0,0-1-.248,1,1,0,0,0-.688.772L.658,9.567a1,1,0,0,0,.984,1.183.971.971,0,0,0,.193-.019l8.617-1.7a1,1,0,0,0,.514-1.688L8.072,4.453A14,14,0,1,1,2,16a1,1,0,0,0-2,0A15.93,15.93,0,0,0,8.775,30.274Z" fill="#61616b"></path></g></svg>