<svg xmlns="http://www.w3.org/2000/svg" height="24" width="24" viewBox="0 0 64 64"><g fill="#61616b" class="nc-icon-wrapper"><path data-color="color-2" d="M4.669,26.944A1.023,1.023,0,0,0,5,27a1,1,0,0,0,.707-.293l6.586-6.586,8.293,8.293a2,2,0,0,0,2.828-2.828l-8.293-8.293,6.586-6.586a1,1,0,0,0-.6-1.7l-18-2a1,1,0,0,0-1.1,1.1l2,18A1,1,0,0,0,4.669,26.944Z" fill="#61616b"></path><path d="M13,55a2,2,0,0,0,2,2H49a2,2,0,0,0,2-2V53H13Z" fill="#61616b"></path><path d="M60,7H25a1,1,0,0,0,0,2H59a1,1,0,0,1,1,1V44a1,1,0,0,1-1,1H5a1,1,0,0,1-1-1V30a1,1,0,0,0-2,0V49a2,2,0,0,0,2,2H60a2,2,0,0,0,2-2V9A2,2,0,0,0,60,7Z" fill="#61616b"></path></g></svg>