<svg xmlns="http://www.w3.org/2000/svg" height="24" width="24" viewBox="0 0 48 48"><g fill="#61616b" class="nc-icon-wrapper"><path d="M12.242,40H37v2a2,2,0,0,1-2,2H13a2,2,0,0,1-2-2v-.758Z" fill="#61616b"></path><path d="M20.242,32H44a1,1,0,0,0,1-1V7.242l1.885-1.885A1.989,1.989,0,0,1,47,6V36a2,2,0,0,1-2,2H14.242Z" fill="#61616b"></path><path data-color="color-2" d="M18.414,18.586l-7.293-7.293,4.586-4.586a1,1,0,0,0-.63-1.7l-13-1A1,1,0,0,0,1,5.077l1,13a1,1,0,0,0,.65.862A1.016,1.016,0,0,0,3,19a1,1,0,0,0,.707-.293l4.586-4.586,7.293,7.293a2,2,0,0,0,2.828-2.828Z" fill="#61616b"></path><path d="M43,4H19a1,1,0,0,0,0,2H40.586l-26,26H4a1,1,0,0,1-1-1V22a1,1,0,0,0-2,0V36a2,2,0,0,0,2,2H8.586L4.293,42.293a1,1,0,0,0,1.414,1.414l38-38A1,1,0,0,0,43,4Z" fill="#61616b"></path></g></svg>