<svg xmlns="http://www.w3.org/2000/svg" height="24" width="24" viewBox="0 0 16 16"><g fill="#61616b" class="nc-icon-wrapper"><path d="M12,14H6.242l-2,2H12a1,1,0,0,0,0-2Z" fill="#61616b"></path><path d="M14,10H10.242l-2,2H15a1.065,1.065,0,0,0,.113,0A.945.945,0,0,0,16,11V4.242l-2,2Z" fill="#61616b"></path><path d="M16,1a1,1,0,0,0-1-1H8.828l-2,2h5.758l-8,8H2V6.828l-2,2V11a1.065,1.065,0,0,0,0,.113A.945.945,0,0,0,1,12H2.586L.293,14.293a1,1,0,0,0,1.414,1.414l14-14A1,1,0,0,0,16,1Z" fill="#61616b"></path><path data-color="color-2" d="M.309,5.962A.493.493,0,0,0,.5,6a.5.5,0,0,0,.354-.146L2.646,4.061,4.293,5.707A1,1,0,0,0,5.707,4.293L4.061,2.646,5.854.854A.5.5,0,0,0,5.5,0H.5A.5.5,0,0,0,0,.5v5A.5.5,0,0,0,.309,5.962Z" fill="#61616b"></path></g></svg>