<svg xmlns="http://www.w3.org/2000/svg" height="24" width="24" viewBox="0 0 24 24"><g fill="#61616b" class="nc-icon-wrapper"><path d="M22,6.242V16H12.242l-3,3H23a1,1,0,0,0,1-1V4.242Z" fill="#61616b"></path><path d="M22.707,2.707A1,1,0,0,0,22,1H10.829l-2,2H19.586l-13,13H2V9.829l-2,2V18a1,1,0,0,0,1,1H3.586L2.293,20.293a1,1,0,0,0,1.414,1.414Z" fill="#61616b"></path><path d="M17,21H7a1,1,0,0,0,0,2H17a1,1,0,0,0,0-2Z" fill="#61616b"></path><path data-color="color-2" d="M.309,8.962A.493.493,0,0,0,.5,9a.5.5,0,0,0,.354-.146L3.646,6.061,7.293,9.707A1,1,0,0,0,8.707,8.293L5.061,4.646,7.854,1.854A.5.5,0,0,0,7.5,1H.5a.5.5,0,0,0-.5.5v7A.5.5,0,0,0,.309,8.962Z" fill="#61616b"></path></g></svg>