<svg xmlns="http://www.w3.org/2000/svg" height="24" width="24" viewBox="0 0 32 32"><g fill="#61616b" class="nc-icon-wrapper"><path d="M14.2,22H30V6.2l2-2V25a.945.945,0,0,1-1,1H10.2Z" fill="#61616b"></path><path d="M24,30H8a1,1,0,0,1,0-2H24a1,1,0,0,1,0,2Z" fill="#61616b"></path><path d="M29,2H10.924a2.453,2.453,0,0,1-.458,2H26.6L8.6,22H2V12.488A2.481,2.481,0,0,1,.5,13a2.532,2.532,0,0,1-.5-.051V25a.945.945,0,0,0,1,1H4.6L2.3,28.3a.967.967,0,0,0,0,1.4.967.967,0,0,0,1.4,0l26-26A.908.908,0,0,0,30,3,.945.945,0,0,0,29,2Z" fill="#61616b"></path><path data-color="color-2" d="M9.707,10.293,5.561,6.146,8.854,2.854A.5.5,0,0,0,8.5,2H.5a.5.5,0,0,0-.5.5v8a.5.5,0,0,0,.309.462A.493.493,0,0,0,.5,11a.5.5,0,0,0,.354-.146L4.146,7.561l4.147,4.146a1,1,0,0,0,1.414-1.414Z" fill="#61616b"></path></g></svg>