<svg xmlns="http://www.w3.org/2000/svg" height="24" width="24" viewBox="0 0 48 48"><g fill="#61616b" class="nc-icon-wrapper"><path d="M37,40H11v2a2,2,0,0,0,2,2H35a2,2,0,0,0,2-2Z" fill="#61616b"></path><path data-color="color-2" d="M18.414,18.586l-7.293-7.293,4.586-4.586a1,1,0,0,0-.63-1.7l-13-1A1,1,0,0,0,1,5.077l1,13a1,1,0,0,0,.65.862A1.016,1.016,0,0,0,3,19a1,1,0,0,0,.707-.293l4.586-4.586,7.293,7.293a2,2,0,0,0,2.828-2.828Z" fill="#61616b"></path><path d="M45,4H19a1,1,0,0,0,0,2H45V31a1,1,0,0,1-1,1H4a1,1,0,0,1-1-1V22a1,1,0,0,0-2,0V36a2,2,0,0,0,2,2H45a2,2,0,0,0,2-2V6A2,2,0,0,0,45,4Z" fill="#61616b"></path></g></svg>