<svg xmlns="http://www.w3.org/2000/svg" height="24" width="24" viewBox="0 0 64 64"><g fill="#61616b" class="nc-icon-wrapper"><path d="M62.555,15.168l-15-10A1,1,0,0,0,46,6v8H34A11.013,11.013,0,0,0,23,25v5H3a2,2,0,0,0,0,4H25a2,2,0,0,0,2-2V25a7.008,7.008,0,0,1,7-7H46v8a1,1,0,0,0,1.555.832l15-10a1,1,0,0,0,0-1.664Z" fill="#61616b"></path><path data-color="color-2" d="M62.555,47.168l-15-10A1,1,0,0,0,46,38v8H34a7.008,7.008,0,0,1-7-7,2,2,0,0,0-4,0A11.013,11.013,0,0,0,34,50H46v8a1,1,0,0,0,1.555.832l15-10a1,1,0,0,0,0-1.664Z" fill="#61616b"></path></g></svg>