<svg xmlns="http://www.w3.org/2000/svg" height="24" width="24" viewBox="0 0 64 64"><g fill="#61616b" class="nc-icon-wrapper"><path d="M62.555,15.168l-15-10A1,1,0,0,0,46,6v8H32a2,2,0,0,0-1.552.739L18.048,30H2a2,2,0,0,0,0,4H19a2,2,0,0,0,1.552-.739L32.952,18H46v8a1,1,0,0,0,1.555.832l15-10a1,1,0,0,0,0-1.664Z" fill="#61616b"></path><path data-color="color-2" d="M62.555,47.168l-15-10A1,1,0,0,0,46,38v8H32.969l-7.4-9.373a2,2,0,0,0-3.14,2.479l8,10.133A2,2,0,0,0,32,50H46v8a1,1,0,0,0,1.555.832l15-10a1,1,0,0,0,0-1.664Z" fill="#61616b"></path></g></svg>