<svg xmlns="http://www.w3.org/2000/svg" height="24" width="24" viewBox="0 0 48 48"><g fill="#61616b" class="nc-icon-wrapper"><path data-color="color-2" d="M46.588,11.191l-11-8A1,1,0,0,0,34,4v6H31A14.015,14.015,0,0,0,17,24v4a2,2,0,0,0,4,0V24A10.011,10.011,0,0,1,31,14h3v6a1,1,0,0,0,1.588.809l11-8a1,1,0,0,0,0-1.618Z" fill="#61616b"></path><path d="M35,27a1,1,0,0,0-1,1V40a3,3,0,0,1-3,3H7a3,3,0,0,1-3-3V16a3,3,0,0,1,3-3h9a1,1,0,0,0,0-2H7a5.006,5.006,0,0,0-5,5V40a5.006,5.006,0,0,0,5,5H31a5.006,5.006,0,0,0,5-5V28A1,1,0,0,0,35,27Z" fill="#61616b"></path></g></svg>