<svg xmlns="http://www.w3.org/2000/svg" height="24" width="24" viewBox="0 0 24 24"><g fill="#61616b" class="nc-icon-wrapper"><path d="M18,14a1,1,0,0,0-1,1v5a1,1,0,0,1-1,1H4a1,1,0,0,1-1-1V10A1,1,0,0,1,4,9H6A1,1,0,0,0,6,7H4a3,3,0,0,0-3,3V20a3,3,0,0,0,3,3H16a3,3,0,0,0,3-3V15A1,1,0,0,0,18,14Z" fill="#61616b"></path><path data-color="color-2" d="M17.625,1.219A1,1,0,0,0,16,2V5a7.009,7.009,0,0,0-7,7v3a1,1,0,0,0,2,0V12a5.006,5.006,0,0,1,5-5v3a1,1,0,0,0,1.625.781l5-4a1,1,0,0,0,0-1.562Z" fill="#61616b"></path></g></svg>