<svg xmlns="http://www.w3.org/2000/svg" height="24" width="24" viewBox="0 0 12 12"><g fill="#61616b" class="nc-icon-wrapper"><path data-color="color-2" d="M3.58,6.933A.25.25,0,0,0,4,6.75V5c2.275.043,3.8.674,4.537,1.878A.248.248,0,0,0,8.75,7a.257.257,0,0,0,.067-.009A.25.25,0,0,0,9,6.75C9,2.607,5.449,2.056,4,2V.25A.25.25,0,0,0,3.58.067L.08,3.317a.249.249,0,0,0,0,.366Z" fill="#61616b"></path><path d="M10,0H8A1,1,0,0,0,8,2h2v8H2V8A1,1,0,0,0,0,8v2a2,2,0,0,0,2,2h8a2,2,0,0,0,2-2V2A2,2,0,0,0,10,0Z" fill="#61616b"></path></g></svg>