<svg xmlns="http://www.w3.org/2000/svg" height="24" width="24" viewBox="0 0 24 24"><g fill="#61616b" class="nc-icon-wrapper"><path d="M20,5H19a1,1,0,0,0,0,2h1a1,1,0,0,1,1,1V20a1,1,0,0,1-1,1H5a1,1,0,0,1-1-1V16a1,1,0,0,0-2,0v4a3,3,0,0,0,3,3H20a3,3,0,0,0,3-3V8A3,3,0,0,0,20,5Z" fill="#61616b"></path><path data-color="color-2" d="M8.707,15.955A.5.5,0,0,0,9,15.5V12.005c4.9.1,6.464,1.642,8.1,3.8a.5.5,0,0,0,.4.2.509.509,0,0,0,.159-.026A.5.5,0,0,0,18,15.5C18,6.542,13.3,5.1,9,5.006V1.5a.5.5,0,0,0-.829-.376l-8,7a.5.5,0,0,0,0,.752l8,7A.493.493,0,0,0,8.707,15.955Z" fill="#61616b"></path></g></svg>