<svg xmlns="http://www.w3.org/2000/svg" height="24" width="24" viewBox="0 0 64 64"><g fill="#61616b" class="nc-icon-wrapper"><path d="M54,15H48a1,1,0,0,0,0,2h6a3.957,3.957,0,0,1,4,4V54a3.957,3.957,0,0,1-4,4H17a3.957,3.957,0,0,1-4-4V43a1,1,0,0,0-2,0V54a5.937,5.937,0,0,0,6,6H54a5.937,5.937,0,0,0,6-6V21A5.937,5.937,0,0,0,54,15Z" fill="#61616b"></path><path data-color="color-2" d="M23.407,41.914A1,1,0,0,0,24,41V32c12.483.085,17.633,3.606,22.2,9.606A1,1,0,0,0,47,42a.979.979,0,0,0,.319-.053A1,1,0,0,0,48,41c0-10.046-2.329-17.02-7.119-21.319C37.059,16.251,31.827,14.5,24,14.049V5a1,1,0,0,0-1.669-.743l-20,18a1,1,0,0,0,0,1.486l20,18A1,1,0,0,0,23.407,41.914Z" fill="#61616b"></path></g></svg>