<svg xmlns="http://www.w3.org/2000/svg" height="24" width="24" viewBox="0 0 32 32"><g fill="#61616b" class="nc-icon-wrapper"><path d="M5,19a1,1,0,0,0-1,1v6a4,4,0,0,0,4,4H27a4,4,0,0,0,4-4V9a4,4,0,0,0-4-4H23a1,1,0,0,0,0,2h4a2,2,0,0,1,2,2V26a2,2,0,0,1-2,2H8a2,2,0,0,1-2-2V20A1,1,0,0,0,5,19Z" fill="#61616b"></path><path data-color="color-2" d="M11.331,20.743A1,1,0,0,0,13,20V15.015c5.807.177,7.694,1.967,10.178,5.554A1,1,0,0,0,24,21a.985.985,0,0,0,.3-.046A1,1,0,0,0,25,20c0-8.407-3.928-12.662-12-12.98V2a1,1,0,0,0-1.669-.743l-10,9a1,1,0,0,0,0,1.486Z" fill="#61616b"></path></g></svg>