<svg xmlns="http://www.w3.org/2000/svg" height="24" width="24" viewBox="0 0 48 48"><g fill="#61616b" class="nc-icon-wrapper"><path d="M41,12H39a1,1,0,0,0,0,2h2a3,3,0,0,1,3,3V41a3,3,0,0,1-3,3H11a3,3,0,0,1-3-3V31a1,1,0,0,0-2,0V41a5.006,5.006,0,0,0,5,5H41a5.006,5.006,0,0,0,5-5V17A5.006,5.006,0,0,0,41,12Z" fill="#61616b"></path><path data-color="color-2" d="M19.413,32.911A1,1,0,0,0,20,32V25c9.647.1,12.712,3.1,16.21,7.613A1,1,0,0,0,37,33a1.01,1.01,0,0,0,.324-.054A1,1,0,0,0,38,32c0-17.916-9.406-20.8-18-20.989V4a1,1,0,0,0-1.658-.752l-16,14a1,1,0,0,0,0,1.5l16,14A1,1,0,0,0,19.413,32.911Z" fill="#61616b"></path></g></svg>