<svg xmlns="http://www.w3.org/2000/svg" height="24" width="24" viewBox="0 0 64 64"><g fill="#61616b" class="nc-icon-wrapper"><path d="M50,32a1,1,0,0,0-1,1V54a3.957,3.957,0,0,1-4,4H10a3.957,3.957,0,0,1-4-4V19a3.957,3.957,0,0,1,4-4H23a1,1,0,0,0,0-2H10a5.937,5.937,0,0,0-6,6V54a5.937,5.937,0,0,0,6,6H45a5.937,5.937,0,0,0,6-6V33A1,1,0,0,0,50,32Z" fill="#61616b"></path><path data-color="color-2" d="M48.609,4.208A1,1,0,0,0,47,5v8H43A18.021,18.021,0,0,0,25,31v5a2,2,0,0,0,4,0V31A14.015,14.015,0,0,1,43,17h4v8a1,1,0,0,0,1,1,.989.989,0,0,0,.609-.208l13-10a1,1,0,0,0,0-1.584Z" fill="#61616b"></path></g></svg>