<svg xmlns="http://www.w3.org/2000/svg" height="24" width="24" viewBox="0 0 32 32"><g fill="#61616b" class="nc-icon-wrapper"><path data-color="color-2" d="M11,20a1,1,0,0,0,2,0V18a9.01,9.01,0,0,1,9-9v5a1,1,0,0,0,1.65.759l7-6a1,1,0,0,0,.108-1.41.918.918,0,0,0-.108-.108l-7-6A1,1,0,0,0,22,2V7A11.013,11.013,0,0,0,11,18Z" fill="#61616b"></path><path d="M5,31H22a4,4,0,0,0,4-4V19a1,1,0,0,0-2,0v8a2,2,0,0,1-2,2H5a2,2,0,0,1-2-2V10A2,2,0,0,1,5,8h5a1,1,0,0,0,0-2H5a4,4,0,0,0-4,4V27A4,4,0,0,0,5,31Z" fill="#61616b"></path></g></svg>