<svg xmlns="http://www.w3.org/2000/svg" height="24" width="24" viewBox="0 0 24 24"><g fill="#61616b" class="nc-icon-wrapper"><path data-color="color-2" d="M23.787,16.591l-5-3.5A.494.494,0,0,0,18.5,13a.5.5,0,0,0-.5.5V16H16.8a3.174,3.174,0,0,1-2.293-1.007L13.178,13.5l-1.338,1.5,1.214,1.361A5.205,5.205,0,0,0,16.8,18H18v2.5a.5.5,0,0,0,.787.409l5-3.5a.5.5,0,0,0,0-.818Z" fill="#61616b"></path><path data-color="color-2" d="M4.2,6H1A1,1,0,0,0,1,8H4.2A3.351,3.351,0,0,1,6.493,9.007L7.822,10.5,9.16,9,7.946,7.634A5.341,5.341,0,0,0,4.2,6Z" fill="#61616b"></path><path d="M23.787,6.591l-5-3.5A.5.5,0,0,0,18,3.5V6H16.8a5.205,5.205,0,0,0-3.746,1.634L6.493,14.993A3.351,3.351,0,0,1,4.2,16H1a1,1,0,0,0,0,2H4.2a5.341,5.341,0,0,0,3.746-1.634l6.561-7.359A3.174,3.174,0,0,1,16.8,8H18v2.5a.5.5,0,0,0,.5.5.494.494,0,0,0,.287-.091l5-3.5a.5.5,0,0,0,0-.818Z" fill="#61616b"></path></g></svg>