<svg xmlns="http://www.w3.org/2000/svg" height="24" width="24" viewBox="0 0 32 32"><g fill="#61616b" class="nc-icon-wrapper"><path d="M25.64,2.232A1,1,0,0,0,24,3V7H19a1,1,0,0,0-.8.4L6.5,23H1a1,1,0,0,0,0,2H7a1,1,0,0,0,.8-.4L19.5,9H24v4a1,1,0,0,0,1.64.768l6-5a1,1,0,0,0,0-1.536Z" fill="#61616b"></path><path data-color="color-2" d="M25.64,18.232A1,1,0,0,0,24,19v4H19.5l-4-5.333-1.25,1.666L18.2,24.6a1,1,0,0,0,.8.4h5v4a1,1,0,0,0,1.64.768l6-5a1,1,0,0,0,0-1.536Z" fill="#61616b"></path><path data-color="color-2" d="M1,9H6.5l4,5.333,1.25-1.666L7.8,7.4A1,1,0,0,0,7,7H1A1,1,0,0,0,1,9Z" fill="#61616b"></path></g></svg>