<svg xmlns="http://www.w3.org/2000/svg" height="24" width="24" viewBox="0 0 24 24"><g fill="#61616b" class="nc-icon-wrapper"><path data-color="color-2" d="M18.787,13.091A.494.494,0,0,0,18.5,13a.5.5,0,0,0-.5.5V16H15.889a1,1,0,0,1-.745-.331L13.19,13.5l-1.345,1.5,1.811,2.015A3.009,3.009,0,0,0,15.888,18H18v2.5a.5.5,0,0,0,.787.409l5-3.5a.5.5,0,0,0,0-.818Z" fill="#61616b"></path><path data-color="color-2" d="M1,8H5.111a1,1,0,0,1,.745.331L7.81,10.5l1.345-1.5L7.344,6.993A3.009,3.009,0,0,0,5.112,6H1A1,1,0,0,0,1,8Z" fill="#61616b"></path><path d="M15.889,8H18v2.5a.5.5,0,0,0,.5.5.494.494,0,0,0,.287-.091l5-3.5a.5.5,0,0,0,0-.818l-5-3.5A.5.5,0,0,0,18,3.5V6H15.888a3.009,3.009,0,0,0-2.232.993l-7.8,8.676A1,1,0,0,1,5.111,16H1a1,1,0,0,0,0,2H5.112a3.009,3.009,0,0,0,2.232-.993l7.8-8.676A1,1,0,0,1,15.889,8Z" fill="#61616b"></path></g></svg>