<svg xmlns="http://www.w3.org/2000/svg" height="24" width="24" viewBox="0 0 16 16"><g fill="#61616b" class="nc-icon-wrapper"><path data-color="color-2" d="M12.82,9.116A.5.5,0,0,0,12,9.5V11H10.454l-1.3-1.481L7.829,11.037l1.419,1.622A1,1,0,0,0,10,13h2v1.5a.5.5,0,0,0,.288.453A.507.507,0,0,0,12.5,15a.5.5,0,0,0,.32-.116l3-2.5a.5.5,0,0,0,0-.768Z" fill="#61616b"></path><path d="M12.82,1.116A.5.5,0,0,0,12,1.5V3H10a1,1,0,0,0-.752.341L2.546,11H1a1,1,0,0,0,0,2H3a1,1,0,0,0,.752-.341L10.454,5H12V6.5a.5.5,0,0,0,.288.453A.507.507,0,0,0,12.5,7a.5.5,0,0,0,.32-.116l3-2.5a.5.5,0,0,0,0-.768Z" fill="#61616b"></path><path data-color="color-2" d="M1,5H2.546l1.3,1.481L5.171,4.963,3.752,3.341A1,1,0,0,0,3,3H1A1,1,0,0,0,1,5Z" fill="#61616b"></path></g></svg>