<svg xmlns="http://www.w3.org/2000/svg" height="24" width="24" viewBox="0 0 64 64"><g fill="#61616b" class="nc-icon-wrapper"><path data-color="color-2" d="M3,19H15.93l6.864,10.3,2.4-3.606-6.533-9.8A2,2,0,0,0,17,15H3a2,2,0,0,0,0,4Z" fill="#61616b"></path><path data-color="color-2" d="M62.541,46.159l-14-9A1,1,0,0,0,47,38v7H38.07L31.206,34.7,28.8,38.31l6.533,9.8A2,2,0,0,0,37,49H47v7a1,1,0,0,0,1.541.841l14-9a1,1,0,0,0,0-1.682Z" fill="#61616b"></path><path d="M62.541,16.159l-14-9A1,1,0,0,0,47,8v7H37a2,2,0,0,0-1.664.891L15.93,45H3a2,2,0,0,0,0,4H17a2,2,0,0,0,1.664-.891L38.07,19H47v7a1,1,0,0,0,1.541.841l14-9a1,1,0,0,0,0-1.682Z" fill="#61616b"></path></g></svg>