<svg xmlns="http://www.w3.org/2000/svg" height="24" width="24" viewBox="0 0 48 48"><g fill="#61616b" class="nc-icon-wrapper"><path data-color="color-2" d="M38.614,27.21A1,1,0,0,0,37,28v5H29.948l-6.072-7.421-2.584,3.159,6.16,7.529A2,2,0,0,0,29,37h8v5a1,1,0,0,0,1.614.79l9-7a1,1,0,0,0,0-1.58Z" fill="#61616b"></path><path data-color="color-2" d="M2,15h8.052l6.072,7.421,2.584-3.159-6.16-7.529A2,2,0,0,0,11,11H2a2,2,0,0,0,0,4Z" fill="#61616b"></path><path d="M37,15v5a1,1,0,0,0,1.614.79l9-7a1,1,0,0,0,0-1.58l-9-7A1,1,0,0,0,37,6v5H29a2,2,0,0,0-1.548.733L10.052,33H2a2,2,0,0,0,0,4h9a2,2,0,0,0,1.548-.733L29.948,15Z" fill="#61616b"></path></g></svg>