<svg xmlns="http://www.w3.org/2000/svg" height="24" width="24" viewBox="0 0 32 32"><g fill="#61616b" class="nc-icon-wrapper"><path d="M25.64,2.232A1,1,0,0,0,24,3V7a8.951,8.951,0,0,0-7.2,3.6L9,21a4.794,4.794,0,0,1-4,2H1a1,1,0,0,0,0,2H5a6.87,6.87,0,0,0,5.6-2.8l7.8-10.4A6.87,6.87,0,0,1,24,9v4a1,1,0,0,0,1.64.768l6-5a1,1,0,0,0,0-1.536Z" fill="#61616b"></path><path data-color="color-2" d="M25.64,18.232A1,1,0,0,0,24,19v4H23a4.794,4.794,0,0,1-4-2l-2.5-3.3-1.2,1.7,2.2,2.9A6.729,6.729,0,0,0,23,25h1v4a1,1,0,0,0,1.64.768l6-5a1,1,0,0,0,0-1.536Z" fill="#61616b"></path><path data-color="color-2" d="M1,9H5a4.794,4.794,0,0,1,4,2l2.5,3.3,1.2-1.7L10.6,9.7A7.062,7.062,0,0,0,5,7H1A1,1,0,0,0,1,9Z" fill="#61616b"></path></g></svg>