<svg xmlns="http://www.w3.org/2000/svg" height="24" width="24" viewBox="0 0 16 16"><g fill="#61616b" class="nc-icon-wrapper"><path data-color="color-2" d="M12.82,9.116A.5.5,0,0,0,12,9.5V11h-.185A3,3,0,0,1,9.557,9.975l-.4-.457L7.829,11.037l.223.255A5,5,0,0,0,11.815,13H12v1.5a.5.5,0,0,0,.288.453A.507.507,0,0,0,12.5,15a.5.5,0,0,0,.32-.116l3-2.5a.5.5,0,0,0,0-.768Z" fill="#61616b"></path><path d="M12.82,1.116A.5.5,0,0,0,12,1.5V3h-.185A5,5,0,0,0,8.052,4.708L3.443,9.975A3,3,0,0,1,1.185,11H1a1,1,0,0,0,0,2h.185a5,5,0,0,0,3.763-1.708L9.557,6.025A3,3,0,0,1,11.815,5H12V6.5a.5.5,0,0,0,.288.453A.507.507,0,0,0,12.5,7a.5.5,0,0,0,.32-.116l3-2.5a.5.5,0,0,0,0-.768Z" fill="#61616b"></path><path data-color="color-2" d="M1,5h.185A3,3,0,0,1,3.443,6.025l.4.457L5.171,4.963l-.223-.255A5,5,0,0,0,1.185,3H1A1,1,0,0,0,1,5Z" fill="#61616b"></path></g></svg>