<svg xmlns="http://www.w3.org/2000/svg" height="24" width="24" viewBox="0 0 64 64"><g fill="#61616b" class="nc-icon-wrapper"><path data-color="color-2" d="M3,19h7.6a10.108,10.108,0,0,1,8.338,4.411l3.936,5.89,2.405-3.6L22.264,21.19A14.153,14.153,0,0,0,10.6,15H3a2,2,0,0,0,0,4Z" fill="#61616b"></path><path data-color="color-2" d="M62.541,46.159l-14-9A1,1,0,0,0,47,38v7H43.5a10.16,10.16,0,0,1-8.337-4.511l-3.87-5.79-2.4,3.6,2.948,4.411A14.2,14.2,0,0,0,43.5,49H47v7a1,1,0,0,0,1.541.841l14-9a1,1,0,0,0,0-1.682Z" fill="#61616b"></path><path d="M62.541,16.159l-14-9A1,1,0,0,0,47,8v7H43.5a14.2,14.2,0,0,0-11.663,6.289l-12.9,19.3A10.105,10.105,0,0,1,10.6,45H3a2,2,0,0,0,0,4h7.6a14.153,14.153,0,0,0,11.663-6.188l12.9-19.3A10.16,10.16,0,0,1,43.5,19H47v7a1,1,0,0,0,1.541.841l14-9a1,1,0,0,0,0-1.682Z" fill="#61616b"></path></g></svg>