<svg xmlns="http://www.w3.org/2000/svg" height="24" width="24" viewBox="0 0 48 48"><g fill="#61616b" class="nc-icon-wrapper"><path data-color="color-2" d="M38.614,27.21A1,1,0,0,0,37,28v5H32.791a5.978,5.978,0,0,1-4.644-2.2l-4.271-5.22-2.584,3.158,3.76,4.6A9.96,9.96,0,0,0,32.791,37H37v5a1,1,0,0,0,1.614.79l9-7a1,1,0,0,0,0-1.58Z" fill="#61616b"></path><path data-color="color-2" d="M2,15H7.209a5.978,5.978,0,0,1,4.644,2.2l4.271,5.22,2.584-3.158-3.76-4.6A9.96,9.96,0,0,0,7.209,11H2a2,2,0,0,0,0,4Z" fill="#61616b"></path><path d="M32.791,15H37v5a1,1,0,0,0,1.614.79l9-7a1,1,0,0,0,0-1.58l-9-7A1,1,0,0,0,37,6v5H32.791a9.962,9.962,0,0,0-7.739,3.667L11.853,30.8A5.981,5.981,0,0,1,7.209,33H2a2,2,0,0,0,0,4H7.209a9.962,9.962,0,0,0,7.739-3.667L28.147,17.2A5.981,5.981,0,0,1,32.791,15Z" fill="#61616b"></path></g></svg>