<svg xmlns="http://www.w3.org/2000/svg" height="24" width="24" viewBox="0 0 64 64"><g fill="#61616b" class="nc-icon-wrapper"><path d="M52,42a1,1,0,0,0-1,1V54a3.957,3.957,0,0,1-4,4H10a3.957,3.957,0,0,1-4-4V21a3.957,3.957,0,0,1,4-4h6a1,1,0,0,0,0-2H10a5.937,5.937,0,0,0-6,6V54a5.937,5.937,0,0,0,6,6H47a5.937,5.937,0,0,0,6-6V43A1,1,0,0,0,52,42Z" fill="#61616b"></path><path data-color="color-2" d="M61.669,22.257l-20-18A1,1,0,0,0,40,5v9.048C27.41,14.752,16,18.78,16,41a1,1,0,0,0,.681.947A.979.979,0,0,0,17,42a1,1,0,0,0,.8-.394c4.571-6,9.72-9.521,22.2-9.606v9a1,1,0,0,0,1.669.743l20-18a1,1,0,0,0,0-1.486Z" fill="#61616b"></path></g></svg>