<svg xmlns="http://www.w3.org/2000/svg" height="24" width="24" viewBox="0 0 24 24"><g fill="#61616b" class="nc-icon-wrapper"><path d="M21,15a1,1,0,0,0-1,1v4a1,1,0,0,1-1,1H4a1,1,0,0,1-1-1V8A1,1,0,0,1,4,7H5A1,1,0,0,0,5,5H4A3,3,0,0,0,1,8V20a3,3,0,0,0,3,3H19a3,3,0,0,0,3-3V16A1,1,0,0,0,21,15Z" fill="#61616b"></path><path data-color="color-2" d="M15.829,1.124A.5.5,0,0,0,15,1.5V5.006C10.7,5.1,6,6.542,6,15.5a.5.5,0,0,0,.34.474A.525.525,0,0,0,6.5,16a.5.5,0,0,0,.4-.2c1.638-2.156,3.2-3.7,8.1-3.8V15.5a.5.5,0,0,0,.829.376l8-7a.5.5,0,0,0,0-.752Z" fill="#61616b"></path></g></svg>