<svg xmlns="http://www.w3.org/2000/svg" height="24" width="24" viewBox="0 0 48 48"><g fill="#61616b" class="nc-icon-wrapper"><path d="M41,30a1,1,0,0,0-1,1V41a3,3,0,0,1-3,3H7a3,3,0,0,1-3-3V17a3,3,0,0,1,3-3H9a1,1,0,0,0,0-2H7a5.006,5.006,0,0,0-5,5V41a5.006,5.006,0,0,0,5,5H37a5.006,5.006,0,0,0,5-5V31A1,1,0,0,0,41,30Z" fill="#61616b"></path><path data-color="color-2" d="M45.658,17.248l-16-14A1,1,0,0,0,28,4v7.011C19.406,11.2,10,14.084,10,32a1,1,0,0,0,.676.946A1.01,1.01,0,0,0,11,33a1,1,0,0,0,.79-.387C15.288,28.1,18.351,25.1,28,25v7a1,1,0,0,0,1.658.752l16-14a1,1,0,0,0,0-1.5Z" fill="#61616b"></path></g></svg>