<svg xmlns="http://www.w3.org/2000/svg" height="24" width="24" viewBox="0 0 32 32"><g fill="#61616b" class="nc-icon-wrapper"><path d="M5,30H24a4,4,0,0,0,4-4V20a1,1,0,0,0-2,0v6a2,2,0,0,1-2,2H5a2,2,0,0,1-2-2V9A2,2,0,0,1,5,7H9A1,1,0,0,0,9,5H5A4,4,0,0,0,1,9V26A4,4,0,0,0,5,30Z" fill="#61616b"></path><path data-color="color-2" d="M20.669,1.257A1,1,0,0,0,19,2V7.02C10.928,7.338,7,11.593,7,20a1,1,0,0,0,.7.954A.985.985,0,0,0,8,21a1,1,0,0,0,.822-.431c2.484-3.587,4.372-5.377,10.178-5.554V20a1,1,0,0,0,1.669.743l10-9a1,1,0,0,0,0-1.486Z" fill="#61616b"></path></g></svg>