<svg xmlns="http://www.w3.org/2000/svg" height="24" width="24" viewBox="0 0 12 12"><g fill="#61616b" class="nc-icon-wrapper"><path data-color="color-2" d="M8.42.067A.25.25,0,0,0,8,.25V2c-1.449.052-5,.6-5,4.746a.25.25,0,0,0,.183.241A.257.257,0,0,0,3.25,7a.248.248,0,0,0,.213-.12C4.2,5.676,5.725,5.045,8,5V6.75a.25.25,0,0,0,.15.229.245.245,0,0,0,.27-.046l3.5-3.25a.249.249,0,0,0,0-.366Z" fill="#61616b"></path><path d="M11,7a1,1,0,0,0-1,1v2H2V2H4A1,1,0,0,0,4,0H2A2,2,0,0,0,0,2v8a2,2,0,0,0,2,2h8a2,2,0,0,0,2-2V8A1,1,0,0,0,11,7Z" fill="#61616b"></path></g></svg>