<svg xmlns="http://www.w3.org/2000/svg" height="24" width="24" viewBox="0 0 48 48"><g fill="#61616b" class="nc-icon-wrapper"><path d="M13.621,10.793l4.086-4.086a1,1,0,0,0-.555-1.7l-13-2a1,1,0,0,0-1.14,1.14l2,13a1,1,0,0,0,.677.8A1.011,1.011,0,0,0,6,18a1,1,0,0,0,.707-.293l4.086-4.086L22,24.828V44a2,2,0,0,0,4,0V24a2,2,0,0,0-.586-1.414Z" fill="#61616b"></path><path data-color="color-2" d="M43.848,3.012l-13,2a1,1,0,0,0-.555,1.7l4.086,4.086-6.793,6.793a2,2,0,1,0,2.828,2.828l6.793-6.793,4.086,4.086A1,1,0,0,0,42,18a1.011,1.011,0,0,0,.311-.05,1,1,0,0,0,.677-.8l2-13a1,1,0,0,0-1.14-1.14Z" fill="#61616b"></path></g></svg>