<svg xmlns="http://www.w3.org/2000/svg" height="24" width="24" viewBox="0 0 64 64"><g fill="#61616b" class="nc-icon-wrapper"><path d="M16.621,13.793l6.086-6.086a1,1,0,0,0-.591-1.7l-17-2a1,1,0,0,0-1.11,1.11l2,17a1,1,0,0,0,1.7.59l6.086-6.085L30,32.828V58a2,2,0,0,0,4,0V32a2,2,0,0,0-.586-1.414Z" fill="#61616b"></path><path data-color="color-2" d="M58.883,4.008l-17,2a1,1,0,0,0-.59,1.7l6.086,6.085L35.586,25.586a2,2,0,1,0,2.828,2.828L50.207,16.621l6.085,6.086a1,1,0,0,0,1.7-.59l2-17a1,1,0,0,0-.286-.824A.993.993,0,0,0,58.883,4.008Z" fill="#61616b"></path></g></svg>