<svg xmlns="http://www.w3.org/2000/svg" height="24" width="24" viewBox="0 0 32 32"><g fill="#61616b" class="nc-icon-wrapper"><path d="M31.581,21.186l-7-5A1,1,0,0,0,23,17v4H1a1,1,0,0,0,0,2H23v4a1,1,0,0,0,1.581.814l7-5a1,1,0,0,0,0-1.628Z" fill="#61616b"></path><path data-color="color-2" d="M17.542,15.889a1,1,0,0,0,1.039-.075l7-5a1,1,0,0,0,0-1.628l-7-5A1,1,0,0,0,17,5V9H12.663a3.976,3.976,0,0,0-3.392,1.88L5.152,17.47a1,1,0,0,0,1.7,1.06l4.12-6.59a1.987,1.987,0,0,1,1.7-.94H17v4A1,1,0,0,0,17.542,15.889Z" fill="#61616b"></path></g></svg>