<svg xmlns="http://www.w3.org/2000/svg" height="24" width="24" viewBox="0 0 12 12"><g fill="#61616b" class="nc-icon-wrapper"><path d="M3.5,6a.507.507,0,0,0,.212-.047A.5.5,0,0,0,4,5.5V4h6.5a.5.5,0,0,0,.5-.5v-1a.5.5,0,0,0-.5-.5H4V.5A.5.5,0,0,0,3.18.116l-3,2.5a.5.5,0,0,0,0,.768l3,2.5A.5.5,0,0,0,3.5,6Z" fill="#61616b"></path><path data-color="color-2" d="M8.82,6.116A.5.5,0,0,0,8,6.5V8H1.5a.5.5,0,0,0-.5.5v1a.5.5,0,0,0,.5.5H8v1.5a.5.5,0,0,0,.288.453A.507.507,0,0,0,8.5,12a.5.5,0,0,0,.32-.116l3-2.5a.5.5,0,0,0,0-.768Z" fill="#61616b"></path></g></svg>