<svg xmlns="http://www.w3.org/2000/svg" height="24" width="24" viewBox="0 0 64 64"><g fill="#61616b" class="nc-icon-wrapper"><path d="M56,7H42a1,1,0,0,0,0,2H56a4,4,0,0,1,4,4V51a4,4,0,0,1-4,4H8a4,4,0,0,1-4-4V13A4,4,0,0,1,8,9H22a1,1,0,0,0,0-2H8a6.006,6.006,0,0,0-6,6V51a6.006,6.006,0,0,0,6,6H56a6.006,6.006,0,0,0,6-6V13A6.006,6.006,0,0,0,56,7Z" fill="#61616b"></path><path data-color="color-2" d="M21,25a1,1,0,0,0-.807,1.591l11,15a1,1,0,0,0,1.614,0l11-15A1,1,0,0,0,43,25H35V10a3,3,0,0,0-6,0V25Z" fill="#61616b"></path></g></svg>