<svg xmlns="http://www.w3.org/2000/svg" height="24" width="24" viewBox="0 0 48 48"><g fill="#61616b" class="nc-icon-wrapper"><path d="M42,5H34a1,1,0,0,0,0,2h8a3,3,0,0,1,3,3V38a3,3,0,0,1-3,3H6a3,3,0,0,1-3-3V10A3,3,0,0,1,6,7h8a1,1,0,0,0,0-2H6a5.006,5.006,0,0,0-5,5V38a5.006,5.006,0,0,0,5,5H42a5.006,5.006,0,0,0,5-5V10A5.006,5.006,0,0,0,42,5Z" fill="#61616b"></path><path data-color="color-2" d="M23.191,32.588a1,1,0,0,0,1.618,0l8-11A1,1,0,0,0,32,20H26V7a2,2,0,0,0-4,0V20H16a1,1,0,0,0-.809,1.588Z" fill="#61616b"></path></g></svg>