<svg xmlns="http://www.w3.org/2000/svg" height="24" width="24" viewBox="0 0 32 32"><g fill="#61616b" class="nc-icon-wrapper"><path data-color="color-2" d="M9.105,13.553A1,1,0,0,0,9.2,14.6l6,8a1,1,0,0,0,1.6,0l6-8A1,1,0,0,0,22,13H17V4a1,1,0,0,0-2,0v9H10A1,1,0,0,0,9.105,13.553Z" fill="#61616b"></path><path d="M28,3H22a1,1,0,0,0,0,2h6a2,2,0,0,1,2,2V25a2,2,0,0,1-2,2H4a2,2,0,0,1-2-2V7A2,2,0,0,1,4,5h6a1,1,0,0,0,0-2H4A4,4,0,0,0,0,7V25a4,4,0,0,0,4,4H28a4,4,0,0,0,4-4V7A4,4,0,0,0,28,3Z" fill="#61616b"></path></g></svg>