<svg xmlns="http://www.w3.org/2000/svg" height="24" width="24" viewBox="0 0 32 32"><g fill="#61616b" class="nc-icon-wrapper"><path d="M31.64,13.232l-6-5A1,1,0,0,0,24,9v4a8.983,8.983,0,0,0-7,3.356V8h4a1,1,0,0,0,.768-1.64l-5-6a1.033,1.033,0,0,0-1.536,0l-5,6A1,1,0,0,0,11,8h4v8.356A8.983,8.983,0,0,0,8,13V9a1,1,0,0,0-1.64-.768l-6,5a1,1,0,0,0,0,1.536l6,5A1,1,0,0,0,8,19V15a7.008,7.008,0,0,1,7,7v9a1,1,0,0,0,2,0V22a7.008,7.008,0,0,1,7-7v4a1,1,0,0,0,1.64.768l6-5a1,1,0,0,0,0-1.536Z" fill="#61616b"></path></g></svg>