<svg xmlns="http://www.w3.org/2000/svg" height="24" width="24" viewBox="0 0 64 64"><g fill="#61616b" class="nc-icon-wrapper"><path data-color="color-2" d="M25.845,35.292A13.933,13.933,0,0,0,20,34H16V27a1,1,0,0,0-1.6-.8l-12,9a1,1,0,0,0,0,1.6l12,9A1,1,0,0,0,16,45V38h4a9.89,9.89,0,0,1,4.155.918,2,2,0,1,0,1.69-3.626Z" fill="#61616b"></path><path d="M49.6,26.2A1,1,0,0,0,48,27v7H44a13.952,13.952,0,0,0-10,4.221V16h7a1,1,0,0,0,.8-1.6l-9-12a1.036,1.036,0,0,0-1.6,0l-9,12A1,1,0,0,0,23,16h7V61a2,2,0,0,0,4,0V48A10.011,10.011,0,0,1,44,38h4v7a1,1,0,0,0,1.6.8l12-9a1,1,0,0,0,0-1.6Z" fill="#61616b"></path></g></svg>