<svg xmlns="http://www.w3.org/2000/svg" height="24" width="24" viewBox="0 0 24 24"><g fill="#61616b" class="nc-icon-wrapper"><path d="M19.829,10.124A.5.5,0,0,0,19,10.5V13H17a5.988,5.988,0,0,0-4,1.5V7h3a1,1,0,0,0,.781-1.625l-4-5a1.036,1.036,0,0,0-1.562,0l-4,5A1,1,0,0,0,8,7h3v7.5A5.988,5.988,0,0,0,7,13H5V10.5a.5.5,0,0,0-.829-.376l-4,3.5a.5.5,0,0,0,0,.752l4,3.5A.5.5,0,0,0,4.5,18a.5.5,0,0,0,.5-.5V15H7a3.957,3.957,0,0,1,4,4v4a1,1,0,0,0,2,0V19a3.957,3.957,0,0,1,4-4h2v2.5a.5.5,0,0,0,.829.376l4-3.5a.5.5,0,0,0,0-.752Z" fill="#61616b"></path></g></svg>