<svg xmlns="http://www.w3.org/2000/svg" height="24" width="24" viewBox="0 0 48 48"><g fill="#61616b" class="nc-icon-wrapper"><path d="M37.614,20.21A1,1,0,0,0,36,21v5a13.952,13.952,0,0,0-10,4.221V13h6a1,1,0,0,0,.781-1.625l-8-10a1.036,1.036,0,0,0-1.562,0l-8,10A1,1,0,0,0,16,13h6V30.22A13.953,13.953,0,0,0,12,26V21a1,1,0,0,0-1.614-.79l-9,7a1,1,0,0,0,0,1.58l9,7A1,1,0,0,0,12,35V30a10.012,10.012,0,0,1,10,9.992V45a2,2,0,0,0,4,0V40A10.011,10.011,0,0,1,36,30v5a1,1,0,0,0,1.614.79l9-7a1,1,0,0,0,0-1.58Z" fill="#61616b"></path></g></svg>