<svg xmlns="http://www.w3.org/2000/svg" height="24" width="24" viewBox="0 0 64 64"><g fill="#61616b" class="nc-icon-wrapper"><path d="M22,12V6a1,1,0,0,0-1-1H12V1A1,1,0,0,0,10.375.219l-10,8a1,1,0,0,0,0,1.562l10,8A1,1,0,0,0,12,17V13h9A1,1,0,0,0,22,12Z" fill="#61616b"></path><path d="M63.625,54.219l-10-8A1,1,0,0,0,52,47v4H43a1,1,0,0,0-1,1v6a1,1,0,0,0,1,1h9v4a1,1,0,0,0,1.625.781l10-8a1,1,0,0,0,0-1.562Z" fill="#61616b"></path><path d="M51,32A19,19,0,1,0,32,51,19.021,19.021,0,0,0,51,32ZM32,49A17,17,0,1,1,49,32,17.019,17.019,0,0,1,32,49Z" fill="#61616b" data-color="color-2"></path><path d="M32,17A15,15,0,1,0,47,32,15,15,0,0,0,32,17Zm5.707,10.707-10,10a1,1,0,0,1-1.414-1.414l10-10a1,1,0,0,1,1.414,1.414Z" fill="#61616b" data-color="color-2"></path></g></svg>