<svg xmlns="http://www.w3.org/2000/svg" height="24" width="24" viewBox="0 0 64 64"><g fill="#61616b" class="nc-icon-wrapper"><path d="M59.316,26.051a1,1,0,0,0-1.023.242l-6.481,6.481L36.2,15.958A3.138,3.138,0,0,0,33.968,15a3,3,0,0,0-2.21,1.007L17.871,31.629,6.121,19.879a3,3,0,0,0-4.242,4.242l14,14A2.962,2.962,0,0,0,18.088,39a3,3,0,0,0,2.154-1.006L34.049,22.461,47.567,37.019l-7.274,7.274a1,1,0,0,0,.565,1.7l21,3A.978.978,0,0,0,62,49a1,1,0,0,0,.99-1.142l-3-21A1,1,0,0,0,59.316,26.051Z" fill="#61616b"></path></g></svg>