<svg xmlns="http://www.w3.org/2000/svg" height="24" width="24" viewBox="0 0 64 64"><g fill="#61616b" class="nc-icon-wrapper"><path d="M61.858,15.01l-21,3a1,1,0,0,0-.565,1.7l7.274,7.274L34.049,41.539,20.242,26.007A3,3,0,0,0,18.088,25a3.03,3.03,0,0,0-2.209.878l-14,14a3,3,0,0,0,4.242,4.242l11.75-11.75L31.758,47.993A3,3,0,0,0,33.968,49H34a3,3,0,0,0,2.2-.958L51.812,31.226l6.481,6.481A1,1,0,0,0,59,38a1.014,1.014,0,0,0,.316-.051,1,1,0,0,0,.674-.807l3-21a1,1,0,0,0-.283-.849A.987.987,0,0,0,61.858,15.01Z" fill="#61616b"></path></g></svg>