<svg xmlns="http://www.w3.org/2000/svg" height="24" width="24" viewBox="0 0 16 16"><g fill="#61616b" class="nc-icon-wrapper"><path fill="#61616b" d="M8.001,16c0.326,0,0.632-0.159,0.819-0.427l7-10c0.214-0.305,0.238-0.704,0.068-1.035 C15.715,4.207,15.374,4,15.001,4H0.999C0.626,4,0.285,4.207,0.112,4.538c-0.17,0.331-0.146,0.73,0.068,1.035l7,10 C7.367,15.841,7.673,16,7.999,16C8,16,8,16,8.001,16C8,16,8,16,8.001,16z"></path> <path data-color="color-2" fill="#61616b" d="M0,1c0-0.552,0.447-1,1-1l14,0c0.553,0,1,0.448,1,1s-0.447,1-1,1H1C0.447,2,0,1.552,0,1z"></path></g></svg>