<svg xmlns="http://www.w3.org/2000/svg" height="24" width="24" viewBox="0 0 16 16"><g fill="#61616b" class="nc-icon-wrapper"><path fill="#61616b" d="M16,7.999c0-0.326-0.159-0.632-0.427-0.819l-10-7C5.269-0.034,4.869-0.058,4.538,0.112 C4.207,0.285,4,0.626,4,0.999v14.001c0,0.373,0.207,0.715,0.538,0.887c0.331,0.17,0.73,0.146,1.035-0.068l10-7 C15.841,8.633,16,8.327,16,8.001C16,8,16,8,16,7.999C16,8,16,8,16,7.999z"></path> <path data-color="color-2" fill="#61616b" d="M1,16c-0.552,0-1-0.447-1-1V1c0-0.553,0.448-1,1-1s1,0.447,1,1v14C2,15.553,1.552,16,1,16z"></path></g></svg>