<svg xmlns="http://www.w3.org/2000/svg" height="24" width="24" viewBox="0 0 32 32"><g fill="#61616b" class="nc-icon-wrapper"><path data-color="color-2" fill="#61616b" d="M2,29h28c0.553,0,1-0.448,1-1s-0.447-1-1-1H2c-0.553,0-1,0.448-1,1S1.447,29,2,29z"></path> <path fill="#61616b" d="M15.195,3.407l-14,19c-0.226,0.304-0.258,0.708-0.088,1.044C1.278,23.788,1.623,24,2,24h28 c0.377,0,0.723-0.212,0.893-0.549c0.168-0.332,0.139-0.738-0.088-1.044l-14-19C16.616,3.151,16.318,3,16,3 S15.384,3.151,15.195,3.407z"></path></g></svg>