<svg xmlns="http://www.w3.org/2000/svg" height="24" width="24" viewBox="0 0 16 16"><g fill="#61616b" class="nc-icon-wrapper"><path fill="#61616b" d="M0,8.001C0,8.327,0.159,8.633,0.427,8.82l10,7c0.305,0.214,0.704,0.238,1.035,0.068 C11.793,15.715,12,15.374,12,15.001V0.999c0-0.373-0.207-0.715-0.538-0.887c-0.331-0.17-0.73-0.146-1.035,0.068l-10,7 C0.159,7.367,0,7.673,0,7.999C0,8,0,8,0,8.001C0,8,0,8,0,8.001z"></path> <path data-color="color-2" fill="#61616b" d="M15,0c0.552,0,1,0.447,1,1v14c0,0.553-0.448,1-1,1s-1-0.447-1-1V1C14,0.447,14.448,0,15,0z"></path></g></svg>