<svg xmlns="http://www.w3.org/2000/svg" height="24" width="24" viewBox="0 0 32 32"><g fill="#61616b" class="nc-icon-wrapper"><path data-color="color-2" fill="#61616b" d="M30,3H2C1.447,3,1,3.448,1,4s0.447,1,1,1h28c0.553,0,1-0.448,1-1S30.553,3,30,3z"></path> <path fill="#61616b" d="M16.805,28.593l14-19c0.226-0.304,0.258-0.708,0.088-1.044C30.722,8.212,30.377,8,30,8H2 C1.623,8,1.277,8.212,1.107,8.549C0.939,8.88,0.968,9.287,1.195,9.593l14,19C15.384,28.849,15.682,29,16,29 S16.616,28.849,16.805,28.593z"></path></g></svg>