<svg xmlns="http://www.w3.org/2000/svg" height="24" width="24" viewBox="0 0 32 32"><g fill="#61616b" class="nc-icon-wrapper"><path data-color="color-2" fill="#61616b" d="M29,2v28c0,0.553-0.448,1-1,1s-1-0.447-1-1V2c0-0.553,0.448-1,1-1S29,1.447,29,2z"></path> <path fill="#61616b" d="M3.407,15.195l19-14c0.304-0.226,0.708-0.258,1.044-0.088C23.788,1.277,24,1.623,24,2v28 c0,0.377-0.212,0.723-0.549,0.893c-0.332,0.168-0.738,0.139-1.044-0.088l-19-14C3.151,16.616,3,16.317,3,16 S3.151,15.384,3.407,15.195z"></path></g></svg>