<svg xmlns="http://www.w3.org/2000/svg" height="24" width="24" viewBox="0 0 32 32"><g fill="#61616b" class="nc-icon-wrapper"><path data-color="color-2" fill="#61616b" d="M3,2v28c0,0.553,0.448,1,1,1s1-0.447,1-1V2c0-0.553-0.448-1-1-1S3,1.447,3,2z"></path> <path fill="#61616b" d="M28.593,15.195l-19-14C9.29,0.97,8.886,0.938,8.549,1.107C8.212,1.277,8,1.623,8,2v28 c0,0.377,0.212,0.723,0.549,0.893c0.332,0.168,0.738,0.139,1.044-0.088l19-14C28.849,16.616,29,16.317,29,16 S28.849,15.384,28.593,15.195z"></path></g></svg>