<svg xmlns="http://www.w3.org/2000/svg" height="24" width="24" viewBox="0 0 16 16"><g fill="#61616b" class="nc-icon-wrapper"><path fill="#61616b" d="M7.999,0C7.673,0,7.367,0.159,7.18,0.427l-7,10c-0.214,0.305-0.238,0.704-0.068,1.035 C0.285,11.793,0.626,12,0.999,12h14.001c0.373,0,0.715-0.207,0.887-0.538c0.17-0.331,0.146-0.73-0.068-1.035l-7-10 C8.633,0.159,8.327,0,8.001,0C8,0,8,0,7.999,0C8,0,8,0,7.999,0z"></path> <path data-color="color-2" fill="#61616b" d="M16,15c0,0.552-0.447,1-1,1H1c-0.553,0-1-0.448-1-1c0-0.552,0.447-1,1-1h14 C15.553,14,16,14.448,16,15z"></path></g></svg>