<svg xmlns="http://www.w3.org/2000/svg" height="24" width="24" viewBox="0 0 64 64"><g fill="#61616b" class="nc-icon-wrapper"><path data-color="color-2" d="M28.182,16.669A13.754,13.754,0,0,0,20,14H16V7a1,1,0,0,0-1.6-.8l-12,9a1,1,0,0,0,0,1.6l12,9A1,1,0,0,0,16,25V18h4a9.78,9.78,0,0,1,5.818,1.9,2,2,0,0,0,2.364-3.227Z" fill="#61616b"></path><path d="M49.6,6.2A1,1,0,0,0,48,7v7H44A14.015,14.015,0,0,0,30,28V58a2,2,0,0,0,4,0V28A10.011,10.011,0,0,1,44,18h4v7a1,1,0,0,0,1.6.8l12-9a1,1,0,0,0,0-1.6Z" fill="#61616b"></path></g></svg>