<svg xmlns="http://www.w3.org/2000/svg" height="24" width="24" viewBox="0 0 64 64"><g fill="#61616b" class="nc-icon-wrapper"><path data-color="color-2" d="M26,37a2,2,0,0,0-2,2v1a8.009,8.009,0,0,1-8,8H2a2,2,0,0,0,0,4H16A12.013,12.013,0,0,0,28,40V39A2,2,0,0,0,26,37Z" fill="#61616b"></path><path d="M63.566,31.176l-16-11A1,1,0,0,0,46,21v9H28V24A12.013,12.013,0,0,0,16,12H2a2,2,0,0,0,0,4H16a8.009,8.009,0,0,1,8,8v8a2,2,0,0,0,2,2H46v9a1,1,0,0,0,1.566.824l16-11a1,1,0,0,0,0-1.648Z" fill="#61616b"></path></g></svg>