<svg xmlns="http://www.w3.org/2000/svg" height="24" width="24" viewBox="0 0 64 64"><g fill="#61616b" class="nc-icon-wrapper"><path data-color="color-2" d="M21,18h8V42a3,3,0,0,0,6,0V18h8a1,1,0,0,0,.786-1.618l-11-14a1.035,1.035,0,0,0-1.572,0l-11,14A1,1,0,0,0,21,18Z" fill="#61616b"></path><path d="M50,25H40a1,1,0,0,0,0,2H50a3.957,3.957,0,0,1,4,4V56a3.957,3.957,0,0,1-4,4H14a3.957,3.957,0,0,1-4-4V31a3.957,3.957,0,0,1,4-4H24a1,1,0,0,0,0-2H14a5.937,5.937,0,0,0-6,6V56a5.937,5.937,0,0,0,6,6H50a5.937,5.937,0,0,0,6-6V31A5.937,5.937,0,0,0,50,25Z" fill="#61616b"></path></g></svg>