<svg xmlns="http://www.w3.org/2000/svg" height="24" width="24" viewBox="0 0 16 16"><g fill="#61616b" class="nc-icon-wrapper"><path data-color="color-2" d="M5,4H7v7.5a.5.5,0,0,0,.5.5h1a.5.5,0,0,0,.5-.5V4h2a.5.5,0,0,0,.354-.854l-3-3a.5.5,0,0,0-.707,0h0l-3,3A.5.5,0,0,0,5,4Z" fill="#61616b"></path><path d="M14.992,6.876A1,1,0,0,0,14,6H11V8h2.117l.75,6H2.133l.75-6H5V6H2a1,1,0,0,0-.992.876l-1,8a1,1,0,0,0,.868,1.116A1.032,1.032,0,0,0,1,16H15a1,1,0,0,0,1-1,1.019,1.019,0,0,0-.008-.124Z" fill="#61616b"></path></g></svg>