<svg xmlns="http://www.w3.org/2000/svg" height="24" width="24" viewBox="0 0 16 16"><g fill="#61616b" class="nc-icon-wrapper"><path d="M2,2H6V0H2A2,2,0,0,0,0,2V6H2Z" fill="#61616b"></path><path d="M14,0H10V2h4V6h2V2A2,2,0,0,0,14,0Z" fill="#61616b"></path><path d="M14,14H10v2h4a2,2,0,0,0,2-2V10H14Z" fill="#61616b"></path><path d="M2,10H0v4a2,2,0,0,0,2,2H6V14H2Z" fill="#61616b"></path><path data-color="color-2" d="M11.5,8a.5.5,0,0,0,.376-.829l-3.5-4a.516.516,0,0,0-.752,0l-3.5,4A.5.5,0,0,0,4.5,8H7v4a1,1,0,0,0,2,0V8Z" fill="#61616b"></path></g></svg>