<svg xmlns="http://www.w3.org/2000/svg" height="24" width="24" viewBox="0 0 64 64"><g fill="#61616b" class="nc-icon-wrapper"><path d="M22,16h8v8a2,2,0,0,0,4,0V16h8a1,1,0,0,0,.769-1.641l-10-12a1.037,1.037,0,0,0-1.538,0l-10,12A1,1,0,0,0,22,16Z" fill="#61616b"></path><path d="M42,48H34V40a2,2,0,0,0-4,0v8H22a1,1,0,0,0-.769,1.641l10,12a1,1,0,0,0,1.538,0l10-12A1,1,0,0,0,42,48Z" fill="#61616b"></path><path data-color="color-2" d="M61,31H3a1,1,0,0,0,0,2H61a1,1,0,0,0,0-2Z" fill="#61616b"></path></g></svg>