<svg xmlns="http://www.w3.org/2000/svg" height="24" width="24" viewBox="0 0 32 32"><g fill="#61616b" class="nc-icon-wrapper"><path data-color="color-2" d="M30,15H2a1,1,0,0,0,0,2H30a1,1,0,0,0,0-2Z" fill="#61616b"></path><path d="M21,24H17V20a1,1,0,0,0-2,0v4H11a1,1,0,0,0-.9.576A.989.989,0,0,0,10,25a1,1,0,0,0,.231.64l5,6a1,1,0,0,0,1.538,0l5-6A1,1,0,0,0,21,24Z" fill="#61616b"></path><path d="M16,13a1,1,0,0,0,1-1V8h4a1,1,0,0,0,.769-1.64l-5-6a1,1,0,0,0-1.538,0l-5,6A1,1,0,0,0,10,7a.989.989,0,0,0,.1.424A1,1,0,0,0,11,8h4v4A1,1,0,0,0,16,13Z" fill="#61616b"></path></g></svg>