<svg xmlns="http://www.w3.org/2000/svg" height="24" width="24" viewBox="0 0 48 48"><g fill="#61616b" class="nc-icon-wrapper"><path d="M38.6,22.2l8,6c.533,.4,.533,1.2,0,1.6l-8,6c-.303,.228-.708,.264-1.047,.095-.339-.17-.553-.516-.553-.895v-4H18c-.552,0-1-.448-1-1v-2c0-.552,.448-1,1-1h19v-4c0-.379,.214-.725,.553-.895,.339-.169,.744-.133,1.047,.095Z" fill="#61616b" data-color="color-2"></path><path d="M1.879,44.707l1.414,1.414c.391,.391,1.024,.391,1.414,0l15.707-15.707c.375-.375,.586-.884,.586-1.415V3c0-.552-.448-1-1-1h-2c-.552,0-1,.448-1,1V28.172L1.879,43.293c-.391,.391-.391,1.024,0,1.414Z" fill="#61616b"></path></g></svg>