<svg xmlns="http://www.w3.org/2000/svg" height="24" width="24" viewBox="0 0 64 64"><g fill="#61616b" class="nc-icon-wrapper"><path data-color="color-2" d="M35,46a1.992,1.992,0,0,0,1.414-.586l9.293-9.293,5.586,5.586a1,1,0,0,0,1.7-.583l2-16a1,1,0,0,0-1.116-1.116l-16,2a1,1,0,0,0-.583,1.7l5.586,5.586-9.293,9.293A2,2,0,0,0,35,46Z" fill="#61616b"></path><path d="M56,6H8a6.006,6.006,0,0,0-6,6V52a6.006,6.006,0,0,0,6,6H56a6.006,6.006,0,0,0,6-6V12A6.006,6.006,0,0,0,56,6ZM14.5,11A1.5,1.5,0,1,1,13,12.5,1.5,1.5,0,0,1,14.5,11Zm-6,0A1.5,1.5,0,1,1,7,12.5,1.5,1.5,0,0,1,8.5,11ZM60,52a4,4,0,0,1-4,4H8a4,4,0,0,1-4-4V19H60Z" fill="#61616b"></path></g></svg>