<svg xmlns="http://www.w3.org/2000/svg" height="24" width="24" viewBox="0 0 48 48"><g fill="#61616b" class="nc-icon-wrapper"><path d="M42,3H6A5.006,5.006,0,0,0,1,8V40a5.006,5.006,0,0,0,5,5H42a5.006,5.006,0,0,0,5-5V8A5.006,5.006,0,0,0,42,3Zm3,37a3,3,0,0,1-3,3H6a3,3,0,0,1-3-3V13H45Z" fill="#61616b"></path><path data-color="color-2" d="M8,39a.908.908,0,0,0,.164-.014l12-2a1,1,0,0,0,.543-1.693l-3.586-3.586,7.293-7.293a2,2,0,0,0-2.828-2.828l-7.293,7.293-3.586-3.586a1,1,0,0,0-1.693.542l-2,12A1,1,0,0,0,8,39Z" fill="#61616b"></path></g></svg>