<svg xmlns="http://www.w3.org/2000/svg" height="24" width="24" viewBox="0 0 16 16"><g fill="#61616b" class="nc-icon-wrapper"><path data-color="color-2" d="M12,8a4,4,0,1,0-4,4A4.012,4.012,0,0,0,12,8ZM8,10a2,2,0,1,1,2-2A2.006,2.006,0,0,1,8,10Z" fill="#61616b"></path><path d="M2,2H6V0H2A2,2,0,0,0,0,2V6H2Z" fill="#61616b"></path><path d="M14,0H10V2h4V6h2V2A2,2,0,0,0,14,0Z" fill="#61616b"></path><path d="M14,14H10v2h4a2,2,0,0,0,2-2V10H14Z" fill="#61616b"></path><path d="M2,10H0v4a2,2,0,0,0,2,2H6V14H2Z" fill="#61616b"></path></g></svg>