<svg xmlns="http://www.w3.org/2000/svg" height="24" width="24" viewBox="0 0 24 24"><title>bamboo 5</title><g stroke-linecap="round" fill="#61616b" stroke-linejoin="round" class="nc-icon-wrapper"><rect x="10" y="1" width="4" height="22" fill="none" stroke="#61616b" stroke-width="2"></rect><line x1="10" y1="8" x2="14" y2="8" fill="none" stroke="#61616b" stroke-width="2" data-cap="butt"></line><line x1="10" y1="16" x2="14" y2="16" fill="none" stroke="#61616b" stroke-width="2" data-cap="butt"></line><path d="M7,8a6,6,0,0,0-6,6A6,6,0,0,0,1,2,6,6,0,0,0,7,8" fill="none" stroke="#61616b" stroke-width="2" data-cap="butt" data-color="color-2"></path><path d="M17,8a6,6,0,0,1,6,6A6,6,0,0,1,23,2a6,6,0,0,1-6,6" fill="none" stroke="#61616b" stroke-width="2" data-cap="butt" data-color="color-2"></path></g></svg>