<svg xmlns="http://www.w3.org/2000/svg" height="16" width="16" viewBox="0 0 16 16"><title>bamboo</title><g fill="#61616b" class="nc-icon-wrapper"><polygon points="9.5 15.5 6.5 15.5 6.5 8 6.5 0.5 9.5 0.5 9.5 8 9.5 15.5" fill="none" stroke="#61616b" stroke-linecap="round" stroke-linejoin="round"></polygon><line x1="6.5" y1="4.5" x2="9.5" y2="4.5" fill="none" stroke="#61616b" stroke-linecap="round" stroke-linejoin="round"></line><line x1="6.5" y1="11.5" x2="9.5" y2="11.5" fill="none" stroke="#61616b" stroke-linecap="round" stroke-linejoin="round"></line><path d="M11.5,11.5a4,4,0,0,0,4,4A4,4,0,0,0,11.5,11.5Z" fill="none" stroke="#61616b" stroke-linecap="round" stroke-linejoin="round" data-color="color-2"></path><path d="M11.5,4.5a4,4,0,0,0,4,4A4,4,0,0,0,11.5,4.5Z" fill="none" stroke="#61616b" stroke-linecap="round" stroke-linejoin="round" data-color="color-2"></path><path d="M11.5,4.5a4,4,0,0,1,4-4A4,4,0,0,1,11.5,4.5Z" fill="none" stroke="#61616b" stroke-linecap="round" stroke-linejoin="round" data-color="color-2"></path><path d="M4.5,4.5a4,4,0,0,1-4,4A4,4,0,0,1,4.5,4.5Z" fill="none" stroke="#61616b" stroke-linecap="round" stroke-linejoin="round" data-color="color-2"></path><path d="M4.5,4.5a4,4,0,0,0-4-4A4,4,0,0,0,4.5,4.5Z" fill="none" stroke="#61616b" stroke-linecap="round" stroke-linejoin="round" data-color="color-2"></path></g></svg>