<svg xmlns="http://www.w3.org/2000/svg" height="64" width="64" viewBox="0 0 64 64"><title>barbershop 2</title><g stroke-linecap="round" fill="#61616b" stroke-linejoin="round" class="nc-icon-wrapper"><line x1="22" y1="25.5" x2="33.5" y2="14" fill="none" stroke="#61616b" stroke-width="2" data-cap="butt" data-color="color-2"></line><line x1="22" y1="36.5" x2="42" y2="16.5" fill="none" stroke="#61616b" stroke-width="2" data-cap="butt" data-color="color-2"></line><line x1="22" y1="47.5" x2="42" y2="27.5" fill="none" stroke="#61616b" stroke-width="2" data-cap="butt" data-color="color-2"></line><line x1="30.5" y1="50" x2="42" y2="38.5" fill="none" stroke="#61616b" stroke-width="2" data-cap="butt" data-color="color-2"></line><line x1="32" y1="2" x2="32" y2="5" fill="none" stroke="#61616b" stroke-width="2"></line><line x1="19" y1="14" x2="45" y2="14" fill="none" stroke="#61616b" stroke-width="2"></line><path d="M21.181,14a11,11,0,0,1,21.638,0" fill="none" stroke="#61616b" stroke-width="2" data-cap="butt"></path><line x1="32" y1="62" x2="32" y2="59" fill="none" stroke="#61616b" stroke-width="2"></line><line x1="19" y1="50" x2="45" y2="50" fill="none" stroke="#61616b" stroke-width="2"></line><path d="M21.181,50a11,11,0,0,0,21.638,0" fill="none" stroke="#61616b" stroke-width="2" data-cap="butt"></path><line x1="22" y1="14" x2="22" y2="50" fill="none" stroke="#61616b" stroke-width="2" data-cap="butt"></line><line x1="42" y1="14" x2="42" y2="50" fill="none" stroke="#61616b" stroke-width="2" data-cap="butt"></line></g></svg>