<svg xmlns="http://www.w3.org/2000/svg" height="48" width="48" viewBox="0 0 48 48"><title>barbershop 3</title><g stroke-linecap="round" fill="#61616b" stroke-linejoin="round" class="nc-icon-wrapper"><line x1="16" y1="19.5" x2="24.5" y2="11" fill="none" stroke="#61616b" stroke-width="2" data-cap="butt" data-color="color-2"></line><line x1="16" y1="27.5" x2="32" y2="11.5" fill="none" stroke="#61616b" stroke-width="2" data-cap="butt" data-color="color-2"></line><line x1="16" y1="35.5" x2="32" y2="19.5" fill="none" stroke="#61616b" stroke-width="2" data-cap="butt" data-color="color-2"></line><line x1="23.5" y1="37" x2="32" y2="28.5" fill="none" stroke="#61616b" stroke-width="2" data-cap="butt" data-color="color-2"></line><path d="M15.223,11a9,9,0,0,1,17.554,0" fill="none" stroke="#61616b" stroke-width="2" data-cap="butt"></path><line x1="24" y1="2" x2="24" y2="3" fill="none" stroke="#61616b" stroke-width="2"></line><line x1="14" y1="11" x2="34" y2="11" fill="none" stroke="#61616b" stroke-width="2"></line><path d="M15.223,37a9,9,0,0,0,17.554,0" fill="none" stroke="#61616b" stroke-width="2" data-cap="butt"></path><line x1="24" y1="46" x2="24" y2="45" fill="none" stroke="#61616b" stroke-width="2"></line><line x1="14" y1="37" x2="34" y2="37" fill="none" stroke="#61616b" stroke-width="2"></line><line x1="16" y1="11" x2="16" y2="37" fill="none" stroke="#61616b" stroke-width="2" data-cap="butt"></line><line x1="32" y1="11" x2="32" y2="37" fill="none" stroke="#61616b" stroke-width="2" data-cap="butt"></line></g></svg>