<svg xmlns="http://www.w3.org/2000/svg" height="24" width="24" viewBox="0 0 24 24"><title>beard 5</title><g stroke-linecap="round" fill="#61616b" stroke-linejoin="round" class="nc-icon-wrapper"><path d="M22.5,1a14.74,14.74,0,0,1-5.093,10.025l-.479-1.6A2,2,0,0,0,15.012,8H8.988A2,2,0,0,0,7.072,9.425l-.479,1.6A14.74,14.74,0,0,1,1.5,1H1v9.793a7.006,7.006,0,0,0,1.265,4.015L8,23h8l5.915-8.451A6,6,0,0,0,23,11.109V1Z" fill="none" stroke="#61616b" stroke-width="2"></path><path d="M10,12.755a8.286,8.286,0,0,0,4,0" fill="none" stroke="#61616b" stroke-width="2" data-color="color-2"></path></g></svg>