<svg xmlns="http://www.w3.org/2000/svg" height="16" width="16" viewBox="0 0 16 16"><title>beard</title><g fill="#61616b" class="nc-icon-wrapper"><path d="M15.5,1a7.488,7.488,0,0,1-3.618,6.408l-.614-1.327A1,1,0,0,0,10.36,5.5H5.64a1,1,0,0,0-.908.581L4.118,7.408A7.488,7.488,0,0,1,.5,1V8.052a4,4,0,0,0,.927,2.561L5.5,15.5h5l4.073-4.887A4,4,0,0,0,15.5,8.052V1Z" fill="none" stroke="#61616b" stroke-linecap="round" stroke-linejoin="round"></path><path d="M6.5,8.339a7.068,7.068,0,0,0,3,0" fill="none" stroke="#61616b" stroke-linecap="round" stroke-linejoin="round" data-color="color-2"></path></g></svg>