<svg xmlns="http://www.w3.org/2000/svg" height="64" width="64" viewBox="0 0 64 64"><title>beard 2</title><g stroke-linecap="round" fill="#61616b" stroke-linejoin="round" class="nc-icon-wrapper"><path d="M25,31.639a18.682,18.682,0,0,0,14,0" fill="none" stroke="#61616b" stroke-width="2" data-color="color-2"></path><path d="M52,40l2.7,2.252.682-.833A16,16,0,0,0,59,31.288V5H58c-1.58,10.947-6.175,20.206-12.527,25.681l-2.215-5.538A5,5,0,0,0,38.615,22H25.385a5,5,0,0,0-4.642,3.142L18.527,30.68C12.174,25.205,7.579,15.947,6,5H5V31.288A16,16,0,0,0,8.617,41.42l.681.832L12,40l.39,3.123a12.008,12.008,0,0,0,2.62,6.111L23,59H41l7.99-9.766a12.012,12.012,0,0,0,2.62-6.111Z" fill="none" stroke="#61616b" stroke-width="2"></path></g></svg>