<svg xmlns="http://www.w3.org/2000/svg" height="48" width="48" viewBox="0 0 48 48"><title>beard 3</title><g stroke-linecap="round" fill="#61616b" stroke-linejoin="round" class="nc-icon-wrapper"><path d="M28,25.429a14.3,14.3,0,0,1-8,0" fill="none" stroke="#61616b" stroke-width="2" data-color="color-2"></path><path d="M44,3c-.857,8.383-4.446,15.565-9.438,19.833L32.973,18.6A4,4,0,0,0,29.228,16H18.772A4,4,0,0,0,15.027,18.6l-1.59,4.237C8.445,18.564,4.857,11.383,4,3H3V23.7a12,12,0,0,0,2.737,7.628l2.221,2.7L10,33l.662,4.3L17,45H31l6.338-7.7L38,33l2.042,1.021,2.221-2.7A12,12,0,0,0,45,23.7V3Z" fill="none" stroke="#61616b" stroke-width="2"></path></g></svg>