<svg xmlns="http://www.w3.org/2000/svg" height="32" width="32" viewBox="0 0 32 32"><title>beard 4</title><g stroke-linecap="round" fill="#61616b" stroke-linejoin="round" class="nc-icon-wrapper"><path d="M30.5,1c-1,5.992-3.595,11.02-7.066,14.019l-.812-2.843A3,3,0,0,0,19.737,10H12.263a3,3,0,0,0-2.885,2.176l-.812,2.843C5.1,12.02,2.5,6.992,1.5,1H1V16.1a8,8,0,0,0,1.854,5.121L11,31H21l8.146-9.775A8,8,0,0,0,31,16.1V1Z" fill="none" stroke="#61616b" stroke-width="2"></path><path d="M20,17.155A10.3,10.3,0,0,1,16,18a10.3,10.3,0,0,1-4-.845" fill="none" stroke="#61616b" stroke-width="2" data-color="color-2"></path></g></svg>