<svg xmlns="http://www.w3.org/2000/svg" height="32" width="32" viewBox="0 0 32 32"><title>body cream 4</title><g stroke-linecap="round" fill="#61616b" stroke-linejoin="round" class="nc-icon-wrapper"><path d="M17.707,30.639A29.935,29.935,0,0,1,13,31C6.37,31,1,28.985,1,26.5v-10L1,18" fill="none" stroke="#61616b" stroke-width="2" data-cap="butt"></path><path d="M29.482,24.206A2.49,2.49,0,0,0,25.5,21.313a2.49,2.49,0,0,0-3.982,2.893,2.49,2.49,0,0,0,1.521,4.681,2.49,2.49,0,0,0,4.922,0,2.49,2.49,0,0,0,1.521-4.681Z" fill="none" stroke="#61616b" stroke-width="2" data-cap="butt" data-color="color-2"></path><circle cx="25.5" cy="25.5" r="1.5" fill="#61616b" data-color="color-2" data-stroke="none" stroke="none"></circle><path d="M30.2,17.275A12,12,0,0,0,9.006,6.349c-.175.262-.332.536-.485.812" fill="none" stroke="#61616b" stroke-width="2"></path><path d="M20.219,15A4.4,4.4,0,0,0,21,12.5,4.5,4.5,0,0,0,16.5,8a3,3,0,0,1-3,3H10a3,3,0,0,0-3,3,2.909,2.909,0,0,0,.183,1" fill="none" stroke="#61616b" stroke-width="2"></path><path d="M25,16.5c0-1.34-1.57-2.539-4.047-3.363A4.311,4.311,0,0,0,21,12.5,4.5,4.5,0,0,0,16.5,8a3,3,0,0,1-3,3H10a3,3,0,0,0-2.61,1.52v0C3.589,13.278,1,14.775,1,16.5,1,18.985,6.37,21,13,21a30.047,30.047,0,0,0,4.709-.36" fill="none" stroke="#61616b" stroke-width="2"></path></g></svg>