<svg xmlns="http://www.w3.org/2000/svg" height="16" width="16" viewBox="0 0 16 16"><title>body cream</title><g fill="#61616b" class="nc-icon-wrapper"><path d="M9.5,2.5A3.985,3.985,0,0,0,6.377,4" fill="none" stroke="#61616b" stroke-linecap="round" stroke-linejoin="round"></path><path d="M14.8,11.753a1.49,1.49,0,0,1-.878,2.7,1.491,1.491,0,0,1-2.844,0,1.49,1.49,0,0,1-.878-2.7,1.49,1.49,0,0,1,2.3-1.672,1.49,1.49,0,0,1,2.3,1.672Z" fill="none" stroke="#61616b" stroke-linecap="round" stroke-linejoin="round" data-color="color-2"></path><path d="M12.414,7.889C11.949,6.82,9.482,6,6.5,6,3.185,6,.5,7.01.5,8.253s2.686,2.25,6,2.25a15.637,15.637,0,0,0,1.742-.1" fill="none" stroke="#61616b" stroke-linecap="round" stroke-linejoin="round"></path><path d="M.5,8.253v5c0,1.243,2.686,2.25,6,2.25a15.2,15.2,0,0,0,2.033-.135" fill="none" stroke="#61616b" stroke-linecap="round" stroke-linejoin="round"></path><path d="M15.214,8.317A6,6,0,0,0,3.961,4.193" fill="none" stroke="#61616b" stroke-linecap="round" stroke-linejoin="round"></path><circle cx="12.5" cy="12.5" r="1" fill="#61616b" data-color="color-2" data-stroke="none" stroke="none"></circle></g></svg>