<svg xmlns="http://www.w3.org/2000/svg" height="64" width="64" viewBox="0 0 64 64"><title>body cream 2</title><g stroke-linecap="round" fill="#61616b" stroke-linejoin="round" class="nc-icon-wrapper"><circle cx="50" cy="50" r="3" fill="none" stroke="#61616b" stroke-width="2" data-cap="butt" data-color="color-2"></circle><path d="M37.005,59.982A56.268,56.268,0,0,1,26,61.017c-12.7,0-23-3.806-23-8.5V33" fill="none" stroke="#61616b" stroke-width="2"></path><path d="M57.572,47.729c-.115-.038-.232-.048-.349-.076.078-.091.167-.168.238-.267A4.5,4.5,0,0,0,50.18,42.1c-.072.1-.118.207-.18.309-.063-.1-.108-.21-.18-.309a4.5,4.5,0,0,0-7.281,5.29c.071.1.16.176.238.267-.117.028-.234.038-.349.076a4.5,4.5,0,1,0,2.781,8.559c.116-.037.216-.1.327-.144-.01.12-.036.234-.036.356a4.5,4.5,0,0,0,9,0c0-.122-.026-.236-.036-.356.111.046.211.107.327.144a4.5,4.5,0,1,0,2.781-8.559Z" fill="none" stroke="#61616b" stroke-width="2" data-cap="butt" data-color="color-2"></path><path d="M48.374,34.484A3.627,3.627,0,0,0,49,32.517c0-2.591-3.14-4.909-8.085-6.468a7.987,7.987,0,0,1-2.636,4.895" fill="none" stroke="#61616b" stroke-width="2"></path><path d="M16.023,30.944a4.9,4.9,0,0,1,.084-6.1C8.356,26.209,3,29.131,3,32.517c0,4.694,10.3,8.5,23,8.5a56.529,56.529,0,0,0,10.8-1" fill="none" stroke="#61616b" stroke-width="2"></path><path d="M53.965,31.81a16.741,16.741,0,0,0,.725-8.993,16.975,16.975,0,0,0-31.036-5.873" fill="none" stroke="#61616b" stroke-width="2"></path><path d="M38.279,30.944A7.989,7.989,0,0,0,33.912,17,7,7,0,0,1,27,22.944H20a4.977,4.977,0,0,0-3.977,8" fill="none" stroke="#61616b" stroke-width="2"></path><path d="M58.907,35.563a22.987,22.987,0,1,0-42.246-18.1" fill="none" stroke="#61616b" stroke-width="2"></path></g></svg>