<svg xmlns="http://www.w3.org/2000/svg" height="24" width="24" viewBox="0 0 24 24"><title>body cream 5</title><g stroke-linecap="round" fill="#61616b" stroke-linejoin="round" class="nc-icon-wrapper"><path d="M22,14.078A8.989,8.989,0,0,0,6.363,5.231" fill="none" stroke="#61616b" stroke-width="2"></path><path d="M1,13v6.467c0,1.933,4.029,3.5,9,3.5" fill="none" stroke="#61616b" stroke-width="2"></path><path d="M19,11.467c0-1.933-4.029-3.5-9-3.5s-9,1.567-9,3.5,4.03,3.5,9,3.5" fill="none" stroke="#61616b" stroke-width="2"></path><path d="M19.656,17.685a1.771,1.771,0,0,0-.415-.076,1.722,1.722,0,0,0,.291-.305A1.75,1.75,0,1,0,16.7,15.247a1.673,1.673,0,0,0-.2.371,1.673,1.673,0,0,0-.2-.371A1.75,1.75,0,1,0,13.468,17.3a1.722,1.722,0,0,0,.291.305,1.78,1.78,0,0,0-.415.076,1.75,1.75,0,1,0,1.462,3.147,1.75,1.75,0,1,0,3.388,0,1.748,1.748,0,1,0,1.462-3.147Z" fill="none" stroke="#61616b" stroke-width="2" data-cap="butt" data-color="color-2"></path></g></svg>