<svg xmlns="http://www.w3.org/2000/svg" height="48" width="48" viewBox="0 0 48 48"><title>body cream 3</title><g stroke-linecap="round" fill="#61616b" stroke-linejoin="round" class="nc-icon-wrapper"><circle cx="37" cy="38" r="2" fill="#61616b" data-color="color-2" data-stroke="none" stroke="none"></circle><path d="M42.618,36.175A3.482,3.482,0,0,0,37,32.093a3.482,3.482,0,0,0-5.618,4.082,3.482,3.482,0,0,0,2.146,6.6,3.482,3.482,0,0,0,6.944,0,3.482,3.482,0,0,0,2.146-6.6Z" fill="none" stroke="#61616b" stroke-width="2" data-cap="butt" data-color="color-2"></path><path d="M25.477,45.519A41.8,41.8,0,0,1,19,46.01c-9.389,0-17-2.91-17-6.5V26" fill="none" stroke="#61616b" stroke-width="2"></path><path d="M28.463,24A5.987,5.987,0,0,0,24.4,14.02,5,5,0,0,1,19.5,18H15a4,4,0,0,0-4,4,3.955,3.955,0,0,0,.555,2" fill="none" stroke="#61616b" stroke-width="2"></path><path d="M36,25.51c0-1.994-2.354-3.776-6.051-4.968A5.97,5.97,0,0,1,28.463,24" fill="none" stroke="#61616b" stroke-width="2"></path><path d="M11.555,24a3.912,3.912,0,0,1,.238-4.37C6.013,20.668,2,22.907,2,25.51c0,3.59,7.611,6.5,17,6.5a41.9,41.9,0,0,0,6.322-.469" fill="none" stroke="#61616b" stroke-width="2"></path><path d="M44.419,26.152A16.989,16.989,0,1,0,13.472,12.129" fill="none" stroke="#61616b" stroke-width="2"></path></g></svg>