<svg xmlns="http://www.w3.org/2000/svg" height="64" width="64" viewBox="0 0 64 64"><title>comb 2</title><g stroke-linecap="round" fill="#61616b" stroke-linejoin="round" class="nc-icon-wrapper"><line x1="18.995" y1="60.994" x2="7" y2="49" fill="none" stroke="#61616b" stroke-width="2" data-color="color-2"></line><line x1="24.245" y1="55.743" x2="12.251" y2="43.749" fill="none" stroke="#61616b" stroke-width="2" data-color="color-2"></line><line x1="29.496" y1="50.493" x2="17.502" y2="38.499" fill="none" stroke="#61616b" stroke-width="2" data-color="color-2"></line><line x1="34.746" y1="45.242" x2="22.752" y2="33.248" fill="none" stroke="#61616b" stroke-width="2" data-color="color-2"></line><line x1="39.997" y1="39.992" x2="28.003" y2="27.997" fill="none" stroke="#61616b" stroke-width="2" data-color="color-2"></line><line x1="45.248" y1="34.741" x2="33.253" y2="22.747" fill="none" stroke="#61616b" stroke-width="2" data-color="color-2"></line><line x1="50.498" y1="29.49" x2="38.504" y2="17.496" fill="none" stroke="#61616b" stroke-width="2" data-color="color-2"></line><line x1="55.749" y1="24.24" x2="43.755" y2="12.246" fill="none" stroke="#61616b" stroke-width="2" data-color="color-2"></line><line x1="60.999" y1="18.989" x2="49" y2="7" fill="none" stroke="#61616b" stroke-width="2" data-color="color-2"></line><path d="M49,7,7,49,4.464,46.469a5,5,0,0,1,0-7.071L39.4,4.464a5,5,0,0,1,7.071,0Z" fill="none" stroke="#61616b" stroke-width="2"></path></g></svg>