<svg xmlns="http://www.w3.org/2000/svg" height="48" width="48" viewBox="0 0 48 48"><title>comb 3</title><g stroke-linecap="round" fill="#61616b" stroke-linejoin="round" class="nc-icon-wrapper"><line x1="13.858" y1="44.994" x2="4.884" y2="36.02" fill="none" stroke="#61616b" stroke-width="2" data-color="color-2"></line><line x1="17.751" y1="41.101" x2="8.777" y2="32.128" fill="none" stroke="#61616b" stroke-width="2" data-color="color-2"></line><line x1="21.643" y1="37.209" x2="12.67" y2="28.235" fill="none" stroke="#61616b" stroke-width="2" data-color="color-2"></line><line x1="25.536" y1="33.316" x2="16.562" y2="24.342" fill="none" stroke="#61616b" stroke-width="2" data-color="color-2"></line><line x1="29.429" y1="29.423" x2="20.455" y2="20.45" fill="none" stroke="#61616b" stroke-width="2" data-color="color-2"></line><line x1="33.321" y1="25.531" x2="24.348" y2="16.557" fill="none" stroke="#61616b" stroke-width="2" data-color="color-2"></line><line x1="37.214" y1="21.638" x2="28.24" y2="12.664" fill="none" stroke="#61616b" stroke-width="2" data-color="color-2"></line><line x1="41.107" y1="17.745" x2="32.133" y2="8.771" fill="none" stroke="#61616b" stroke-width="2" data-color="color-2"></line><line x1="44.999" y1="13.853" x2="36.026" y2="4.879" fill="none" stroke="#61616b" stroke-width="2" data-color="color-2"></line><path d="M36.023,4.881l-1.71-1.709a4,4,0,0,0-5.657,0L3.172,28.656a4,4,0,0,0,0,5.657l1.721,1.7Z" fill="none" stroke="#61616b" stroke-width="2"></path></g></svg>