<svg xmlns="http://www.w3.org/2000/svg" height="64" width="64" viewBox="0 0 64 64"><title>edge razor 2</title><g stroke-linecap="round" fill="#61616b" stroke-linejoin="round" class="nc-icon-wrapper"><path data-color="color-2" d="M47,8H4v5a4,4,0,0,0,4,4H33l2-4h8" fill="none" stroke="#61616b" stroke-width="2"></path><path d="M40.319,58a3,3,0,0,1-2.675-4.352A95.982,95.982,0,0,0,48,10a3,3,0,0,1,6,0A101.919,101.919,0,0,1,43,56.352,3,3,0,0,1,40.319,58Z" fill="none" stroke="#61616b" stroke-width="2"></path><path d="M60,5.952a21.046,21.046,0,0,1-5.311,1.712c-.514.093-1.036.167-1.562.221h0A20.993,20.993,0,0,0,60,5.952" fill="none" stroke="#61616b" stroke-width="2"></path></g></svg>