<svg xmlns="http://www.w3.org/2000/svg" height="48" width="48" viewBox="0 0 48 48"><title>eyelash 3</title><g stroke-linecap="round" fill="#61616b" stroke-linejoin="round" class="nc-icon-wrapper"><path d="M45,29.841a19.938,19.938,0,0,1-16.559-1.828A19.989,19.989,0,0,0,3,32.132" fill="none" stroke="#61616b" stroke-width="2"></path><path d="M6.961,27.652a7.959,7.959,0,0,1-.349,1.191h0A7.98,7.98,0,0,0,7.132,26a7.959,7.959,0,0,0-.966-3.813" fill="none" stroke="#61616b" stroke-width="2"></path><path d="M17,25.141q-.258.054-.521.1h0A11.4,11.4,0,0,0,26,14" fill="none" stroke="#61616b" stroke-width="2"></path><path d="M24.132,26l-.247,0h0l.247,0A12,12,0,0,0,36.073,15.189" fill="none" stroke="#61616b" stroke-width="2"></path><path d="M32.146,29.014a13.063,13.063,0,0,1-2.208-.186h0A13.039,13.039,0,0,0,44.43,20.31" fill="none" stroke="#61616b" stroke-width="2"></path><path d="M10.547,26.577c-.2.128-.4.25-.61.364h0a10.163,10.163,0,0,0,5.277-8.915,10.266,10.266,0,0,0-.125-1.6" fill="none" stroke="#61616b" stroke-width="2"></path></g></svg>