<svg xmlns="http://www.w3.org/2000/svg" height="32" width="32" viewBox="0 0 32 32"><title>eyelash 4</title><g stroke-linecap="round" fill="#61616b" stroke-linejoin="round" class="nc-icon-wrapper"><path d="M30,19.894a13.291,13.291,0,0,1-11.039-1.219A13.327,13.327,0,0,0,2,21.421" fill="none" stroke="#61616b" stroke-width="2"></path><path d="M4.641,18.435a5.415,5.415,0,0,1-.233.794h0a5.322,5.322,0,0,0,.346-1.9,5.317,5.317,0,0,0-.643-2.542" fill="none" stroke="#61616b" stroke-width="2"></path><path d="M11.331,16.76c-.115.025-.23.047-.347.066h0a7.6,7.6,0,0,0,6.349-7.493" fill="none" stroke="#61616b" stroke-width="2"></path><path d="M16.088,17.333h0a8,8,0,0,0,7.961-7.207" fill="none" stroke="#61616b" stroke-width="2"></path><path d="M21.431,19.343a8.807,8.807,0,0,1-1.472-.124h0a8.807,8.807,0,0,0,1.472.124,8.68,8.68,0,0,0,8.189-5.8" fill="none" stroke="#61616b" stroke-width="2"></path><path d="M7.031,17.718c-.132.086-.268.166-.406.243h0a6.782,6.782,0,0,0,3.434-7.009" fill="none" stroke="#61616b" stroke-width="2"></path></g></svg>