<svg xmlns="http://www.w3.org/2000/svg" height="24" width="24" viewBox="0 0 24 24"><title>eyelash</title><g stroke-linecap="round" fill="#61616b" stroke-linejoin="round" class="nc-icon-wrapper"><path d="M22.5,14.921a9.969,9.969,0,0,1-8.28-.915A9.995,9.995,0,0,0,1.5,16.066" fill="none" stroke="#61616b" stroke-width="2"></path><path d="M3.48,13.826a3.967,3.967,0,0,1-.174.6h0A3.993,3.993,0,0,0,3.566,13a3.984,3.984,0,0,0-.483-1.907" fill="none" stroke="#61616b" stroke-width="2"></path><path d="M8.5,12.57c-.086.019-.173.035-.26.05h0A5.7,5.7,0,0,0,13,7" fill="none" stroke="#61616b" stroke-width="2"></path><path d="M12.066,13h0a6,6,0,0,0,5.971-5.406" fill="none" stroke="#61616b" stroke-width="2"></path><path d="M16.073,14.507a6.588,6.588,0,0,1-1.1-.093h0a6.588,6.588,0,0,0,1.1.093,6.511,6.511,0,0,0,6.142-4.352" fill="none" stroke="#61616b" stroke-width="2"></path><path d="M5.273,13.289c-.1.064-.2.124-.3.181h0A5.08,5.08,0,0,0,7.607,9.013a5.128,5.128,0,0,0-.062-.8" fill="none" stroke="#61616b" stroke-width="2"></path></g></svg>