<svg xmlns="http://www.w3.org/2000/svg" height="64" width="64" viewBox="0 0 64 64"><title>eyelash 2</title><g stroke-linecap="round" fill="#61616b" stroke-linejoin="round" class="nc-icon-wrapper"><path d="M61,39.6a27.534,27.534,0,0,1-22.867-2.525A27.6,27.6,0,0,0,3,42.761" fill="none" stroke="#61616b" stroke-width="2"></path><path d="M7.4,37.95q-.13.471-.3.925h0a10.717,10.717,0,0,0,.69-3.8A10.678,10.678,0,0,0,6.5,29.965" fill="none" stroke="#61616b" stroke-width="2"></path><path d="M43.34,38.445a18.735,18.735,0,0,1-3.163-.267h0A18.734,18.734,0,0,0,61,25.931" fill="none" stroke="#61616b" stroke-width="2"></path><path d="M26.619,33.087c-.218.046-.438.088-.659.124h0A14.4,14.4,0,0,0,38,19" fill="none" stroke="#61616b" stroke-width="2"></path><path d="M18.268,33.487q-.525.271-1.075.5h0a13.888,13.888,0,0,0,8.522-11.46,14.273,14.273,0,0,0,.038-2.385" fill="none" stroke="#61616b" stroke-width="2"></path><path d="M11.551,35.69q-.374.413-.776.8h0A15,15,0,0,0,15.429,25.61a15.225,15.225,0,0,0-.185-2.364" fill="none" stroke="#61616b" stroke-width="2"></path><path d="M34.414,35.069c-.114,0-.229,0-.343,0h0c.114,0,.229,0,.343,0A16.659,16.659,0,0,0,50.862,21" fill="none" stroke="#61616b" stroke-width="2"></path></g></svg>