<svg xmlns="http://www.w3.org/2000/svg" height="64" width="64" viewBox="0 0 64 64"><title>eyeshadow 3</title><g stroke-linecap="round" fill="#61616b" stroke-linejoin="round" class="nc-icon-wrapper"><path d="M16.237,36A23.948,23.948,0,0,0,55,39.838" fill="none" stroke="#61616b" stroke-width="2"></path><path d="M32.637,59.71A17.956,17.956,0,0,0,38.9,47.926Q37.957,48,37,48a24,24,0,0,1-5.577-.653,18.041,18.041,0,0,1-9.6,9.264" fill="none" stroke="#61616b" stroke-width="2"></path><path d="M54.749,52.959A17.7,17.7,0,0,0,55,50a17.893,17.893,0,0,0-1.973-8.166,24.065,24.065,0,0,1-6.485,4.183A18.025,18.025,0,0,1,47,50a17.794,17.794,0,0,1-1.383,6.855" fill="none" stroke="#61616b" stroke-width="2"></path><path d="M3,39.67a14.9,14.9,0,0,0,15.9.062A24.177,24.177,0,0,0,23.3,43.691l.012-.018A14,14,0,0,1,11,51a13.833,13.833,0,0,1-4-.6" fill="none" stroke="#61616b" stroke-width="2"></path><path d="M21,24l6,13A13,13,0,0,0,40,24L27,18,12,3,6,9Z" fill="none" stroke="#61616b" stroke-width="2" data-color="color-2"></path><line x1="21" y1="24" x2="23" y2="22" fill="none" stroke="#61616b" stroke-width="2" data-color="color-2"></line><path d="M26.392,7.321,45.4,14A17.682,17.682,0,0,0,60,12.689" fill="none" stroke="#61616b" stroke-width="2"></path></g></svg>