<svg xmlns="http://www.w3.org/2000/svg" height="24" width="24" viewBox="0 0 24 24"><title>eyeshadow 4</title><g stroke-linecap="round" fill="#61616b" stroke-linejoin="round" class="nc-icon-wrapper"><path d="M2,4,5.6,2.8a8,8,0,0,1,4.829-.073l5.468,1.64a8,8,0,0,0,4.239.1L22,4" fill="none" stroke="#61616b" stroke-width="2" data-color="color-2"></path><path d="M6.625,14.154A6.983,6.983,0,0,1,1,17" fill="none" stroke="#61616b" stroke-width="2" data-cap="butt"></path><path d="M2.619,10A11.973,11.973,0,0,0,22,11.919" fill="none" stroke="#61616b" stroke-width="2"></path><path d="M2.619,10a12.071,12.071,0,0,0,4,4.159A6.981,6.981,0,0,1,1,17" fill="none" stroke="#61616b" stroke-width="2"></path><path d="M10.818,21.855a8.978,8.978,0,0,0,3.13-5.892c-.313.024-.629.037-.948.037a11.967,11.967,0,0,1-2.788-.327,9.026,9.026,0,0,1-4.8,4.633" fill="none" stroke="#61616b" stroke-width="2"></path><path d="M21.875,18.479a8.912,8.912,0,0,0-.861-5.562,12.072,12.072,0,0,1-3.243,2.092A9.008,9.008,0,0,1,18,17a8.908,8.908,0,0,1-.691,3.428" fill="none" stroke="#61616b" stroke-width="2"></path></g></svg>