<svg xmlns="http://www.w3.org/2000/svg" height="32" width="32" viewBox="0 0 32 32"><title>eyeshadow 2</title><g stroke-linecap="round" fill="#61616b" stroke-linejoin="round" class="nc-icon-wrapper"><path d="M2,4.263,5.889,2.775a11.691,11.691,0,0,1,8.238-.05l6.907,2.55a11.689,11.689,0,0,0,6.073.549L30,5.316" fill="none" stroke="#61616b" stroke-width="2" data-color="color-2"></path><path d="M8.768,19.069A9.642,9.642,0,0,1,1,23" fill="none" stroke="#61616b" stroke-width="2"></path><path d="M1,23a9.643,9.643,0,0,0,7.777-3.942,16.684,16.684,0,0,1-5.542-5.725" fill="none" stroke="#61616b" stroke-width="2"></path><path d="M3.235,13.333A16.535,16.535,0,0,0,30,15.983" fill="none" stroke="#61616b" stroke-width="2"></path><path d="M3.235,13.333A16.535,16.535,0,0,0,30,15.983" fill="none" stroke="#61616b" stroke-width="2"></path><path d="M14.465,29.7a12.4,12.4,0,0,0,4.324-8.157c-.435.034-.868.072-1.311.072a16.52,16.52,0,0,1-3.839-.478A12.456,12.456,0,0,1,7,27.565" fill="none" stroke="#61616b" stroke-width="2"></path><path d="M29.827,25.043a12.3,12.3,0,0,0-1.194-7.691,16.649,16.649,0,0,1-4.478,2.876A12.418,12.418,0,0,1,24.476,23a12.293,12.293,0,0,1-.955,4.734" fill="none" stroke="#61616b" stroke-width="2"></path></g></svg>