<svg xmlns="http://www.w3.org/2000/svg" height="48" width="48" viewBox="0 0 48 48"><title>eyeshadow</title><g stroke-linecap="round" fill="#61616b" stroke-linejoin="round" class="nc-icon-wrapper"><path d="M3,6.394,8.834,4.162a17.534,17.534,0,0,1,12.357-.074l10.36,3.824a17.527,17.527,0,0,0,9.109.824L45,7.974" fill="none" stroke="#61616b" stroke-width="2" data-color="color-2"></path><path d="M13.25,28.307A13.964,13.964,0,0,1,2,34" fill="none" stroke="#61616b" stroke-width="2" data-cap="butt"></path><path d="M5.237,20A23.948,23.948,0,0,0,44,23.838" fill="none" stroke="#61616b" stroke-width="2"></path><path d="M5.237,20a24.192,24.192,0,0,0,8.005,8.319A13.966,13.966,0,0,1,2,34" fill="none" stroke="#61616b" stroke-width="2"></path><path d="M21.637,43.71A17.956,17.956,0,0,0,27.9,31.926Q26.957,32,26,32a24,24,0,0,1-5.577-.653,18.041,18.041,0,0,1-9.6,9.264" fill="none" stroke="#61616b" stroke-width="2"></path><path d="M43.749,36.959A17.7,17.7,0,0,0,44,34a17.893,17.893,0,0,0-1.973-8.166,24.065,24.065,0,0,1-6.485,4.183A18.025,18.025,0,0,1,36,34a17.794,17.794,0,0,1-1.383,6.855" fill="none" stroke="#61616b" stroke-width="2"></path></g></svg>