<svg xmlns="http://www.w3.org/2000/svg" height="24" width="24" viewBox="0 0 24 24"><title>hair towel 5</title><g stroke-linecap="round" fill="#61616b" stroke-linejoin="round" class="nc-icon-wrapper"><path d="M5,14c0,5,3.134,9,7,9s7-4,7-9" fill="none" stroke="#61616b" stroke-width="2"></path><path d="M18.66,6.059C18.476,5.151,17.344,1,12,1,7.029,1,3,4.582,3,9a7.421,7.421,0,0,0,2,5c2.875-.959,3.913-3.065,4.93-5,1.105-2.1,2.185-4,5.57-4a4.869,4.869,0,0,1,5,4.627,5.563,5.563,0,0,1-1.486,4.386L19,14A11.005,11.005,0,0,0,9.93,9" fill="none" stroke="#61616b" stroke-width="2" data-cap="butt" data-color="color-2"></path></g></svg>