<svg xmlns="http://www.w3.org/2000/svg" height="64" width="64" viewBox="0 0 64 64"><title>hair man 2</title><g stroke-linecap="round" fill="#61616b" stroke-linejoin="round" class="nc-icon-wrapper"><path data-cap="butt" d="M52,24c0,14-8.954,26-20,26S12,38,12,24" fill="none" stroke="#61616b" stroke-width="2"></path><path data-color="color-2" d="M52,23.83C51.95,4.992,43.963,3,32,3,20,3,12,5,12,24c0,.675.027,1.343.068,2.008A8,8,0,0,1,20,19H33a8,8,0,0,0,8-8A12.991,12.991,0,0,0,52,23.83Z" fill="none" stroke="#61616b" stroke-width="2"></path><path data-cap="butt" d="M56,61,44.894,58.918A6,6,0,0,1,40,53.02V49" fill="none" stroke="#61616b" stroke-width="2"></path><path data-cap="butt" d="M24,49v4.02a6,6,0,0,1-4.894,5.9L8,61" fill="none" stroke="#61616b" stroke-width="2"></path></g></svg>