<svg xmlns="http://www.w3.org/2000/svg" height="16" width="16" viewBox="0 0 16 16"><title>hair gel 4</title><g fill="#61616b" class="nc-icon-wrapper"><rect x="3.5" y="9.5" width="9" height="4" fill="none" stroke="#61616b" stroke-linecap="round" stroke-linejoin="round" data-color="color-2"></rect><path d="M12.834,3.5A2.373,2.373,0,0,0,11.5.5s0,1-2,1h-4a2,2,0,0,0-2,2" fill="none" stroke="#61616b" stroke-linecap="round" stroke-linejoin="round" data-color="color-2"></path><path d="M14,15.5H2A1.5,1.5,0,0,1,.5,14V9A1.5,1.5,0,0,1,2,7.5H14A1.5,1.5,0,0,1,15.5,9v5A1.5,1.5,0,0,1,14,15.5Z" fill="none" stroke="#61616b" stroke-linecap="round" stroke-linejoin="round"></path><polyline points="2.5 7.5 2.5 5.5 13.5 5.5 13.5 7.5" fill="none" stroke="#61616b" stroke-linecap="round" stroke-linejoin="round"></polyline></g></svg>