<svg xmlns="http://www.w3.org/2000/svg" height="48" width="48" viewBox="0 0 48 48"><title>hair towel 3</title><g stroke-linecap="round" fill="#61616b" stroke-linejoin="round" class="nc-icon-wrapper"><path d="M10,28c0,10,6.268,18,14,18s14-8,14-18" fill="none" stroke="#61616b" stroke-width="2"></path><path d="M37.32,12.118C36.952,10.3,34.687,2,24,2,14.059,2,6,9.163,6,18a14.84,14.84,0,0,0,4,10c12-4,8-18,21-18a9.74,9.74,0,0,1,10,9.253c0,3.8-.487,6.03-2.971,8.773L38,28S32,18,19.749,18" fill="none" stroke="#61616b" stroke-width="2" data-cap="butt" data-color="color-2"></path><path d="M15,11a9,9,0,0,1,9-9" fill="none" stroke="#61616b" stroke-width="2" data-color="color-2"></path></g></svg>