<svg xmlns="http://www.w3.org/2000/svg" height="32" width="32" viewBox="0 0 32 32"><title>hairdresser</title><g stroke-linecap="round" fill="#61616b" stroke-linejoin="round" class="nc-icon-wrapper"><line x1="22" y1="5" x2="27" y2="5" fill="none" stroke="#61616b" stroke-width="2" data-color="color-2"></line><line x1="22" y1="9" x2="27" y2="9" fill="none" stroke="#61616b" stroke-width="2" data-color="color-2"></line><line x1="22" y1="13" x2="27" y2="13" fill="none" stroke="#61616b" stroke-width="2" data-color="color-2"></line><path d="M22,17h1.541a3,3,0,0,1,2.969,3.425L25,31h6V3.727A2.727,2.727,0,0,0,28.273,1H22" fill="none" stroke="#61616b" stroke-width="2" data-color="color-2"></path><path d="M8.267,25.047,8,26,15,1a3,3,0,0,1,3,3,5.218,5.218,0,0,1-.128.865L15.44,13.536a4.577,4.577,0,0,1-8.88,0L4.128,4.865A5.218,5.218,0,0,1,4,4,3,3,0,0,1,7,1l7,25-.227-.953" fill="none" stroke="#61616b" stroke-width="2" data-cap="butt"></path><path d="M4.5,22A3.5,3.5,0,0,0,1,25.5v2a3.5,3.5,0,0,0,7,0v-2A3.5,3.5,0,0,0,4.5,22Z" fill="none" stroke="#61616b" stroke-width="2" data-cap="butt"></path><path d="M17.5,22A3.5,3.5,0,0,0,14,25.5v2a3.5,3.5,0,0,0,7,0v-2A3.5,3.5,0,0,0,17.5,22Z" fill="none" stroke="#61616b" stroke-width="2" data-cap="butt"></path></g></svg>