<svg xmlns="http://www.w3.org/2000/svg" height="64" width="64" viewBox="0 0 64 64"><title>hair straightener 3</title><g stroke-linecap="round" fill="#61616b" stroke-linejoin="round" class="nc-icon-wrapper"><path d="M13.472,45.131,25.377,24h3.362L39.384,4.9,37.067,3.64a5.273,5.273,0,0,0-7.15,2.117L3.946,51.852l.372-.66" fill="none" stroke="#61616b" stroke-width="2"></path><path d="M18.869,50.528,40,38.623V35.261L59.1,24.616l1.258,2.317a5.273,5.273,0,0,1-2.117,7.15L12.148,60.054l.66-.372" fill="none" stroke="#61616b" stroke-width="2"></path><path d="M35,29l4.487-8.333a12,12,0,0,1,7.655-5.953l3.416-.853a8,8,0,0,0,5.115-3.99L59,3.645" fill="none" stroke="#61616b" stroke-width="2" data-color="color-2"></path><path d="M61,10.51l-1.127,2.108A12,12,0,0,1,52.2,18.6l-3.416.854a8,8,0,0,0-5.1,3.968" fill="none" stroke="#61616b" stroke-width="2" data-color="color-2"></path><circle cx="8.932" cy="55.068" r="5.932" fill="none" stroke="#61616b" stroke-width="2" data-cap="butt" data-color="color-2"></circle></g></svg>