<svg xmlns="http://www.w3.org/2000/svg" height="16" width="16" viewBox="0 0 16 16"><title>hair woman</title><g fill="#61616b" class="nc-icon-wrapper"><path d="M2,15.249A7.127,7.127,0,0,1,1.173,13C.868,11.042,2,9.9,2,6.5a6,6,0,0,1,12,0c0,3.4,1.132,4.543.827,6.5A7.127,7.127,0,0,1,14,15.249" fill="none" stroke="#61616b" stroke-linecap="round" stroke-linejoin="round" data-color="color-2"></path><path d="M12,14.87l-.754-.141a1.5,1.5,0,0,1-1.223-1.474v-1.07" fill="none" stroke="#61616b" stroke-linecap="round" stroke-linejoin="round"></path><path d="M6.015,12.185v1.07a1.5,1.5,0,0,1-1.224,1.474L4,14.878" fill="none" stroke="#61616b" stroke-linecap="round" stroke-linejoin="round"></path><path d="M11.5,10.5A4.5,4.5,0,0,1,8,12.5a4.5,4.5,0,0,1-3.5-2.006" fill="none" stroke="#61616b" stroke-linecap="round" stroke-linejoin="round"></path><path d="M12.5,11.5l-1.341-1.34a2,2,0,0,1-.25-2.524l.251-.375a2,2,0,0,0-.146-2.411L9.077,2.59A5.251,5.251,0,0,1,4,6.5l.849,1.415A2,2,0,0,1,4.8,10.053L3.5,12" fill="none" stroke="#61616b" stroke-linecap="round" stroke-linejoin="round" data-color="color-2"></path></g></svg>