<svg xmlns="http://www.w3.org/2000/svg" height="48" width="48" viewBox="0 0 48 48"><title>hairdresser 5</title><g stroke-linecap="round" fill="#61616b" stroke-linejoin="round" class="nc-icon-wrapper"><line x1="32" y1="9" x2="39" y2="9" fill="none" stroke="#61616b" stroke-width="2" data-color="color-2"></line><line x1="32" y1="14" x2="39" y2="14" fill="none" stroke="#61616b" stroke-width="2" data-color="color-2"></line><line x1="32" y1="19" x2="39" y2="19" fill="none" stroke="#61616b" stroke-width="2" data-color="color-2"></line><line x1="32" y1="24" x2="39" y2="24" fill="none" stroke="#61616b" stroke-width="2" data-color="color-2"></line><path d="M32,29h2.126a4,4,0,0,1,3.923,4.78L36.016,44H44V8a4,4,0,0,0-4-4H32" fill="none" stroke="#61616b" stroke-width="2" data-color="color-2"></path><path d="M3.231,38.12l1.258-3.764a4.465,4.465,0,1,1,8.47,2.83L11.7,40.95a4.465,4.465,0,1,1-8.47-2.83Z" fill="none" stroke="#61616b" stroke-width="2"></path><path d="M30.769,38.12l-1.258-3.764a4.465,4.465,0,0,0-8.47,2.83L22.3,40.95a4.465,4.465,0,0,0,8.47-2.83Z" fill="none" stroke="#61616b" stroke-width="2"></path><path d="M21.041,37.186,10,4A3,3,0,0,0,7.236,8.168l4.285,12.877a5.773,5.773,0,0,0,10.958,0L26.764,8.168A3,3,0,0,0,24,4L12.959,37.186" fill="none" stroke="#61616b" stroke-width="2" data-cap="butt"></path></g></svg>