<svg xmlns="http://www.w3.org/2000/svg" height="16" width="16" viewBox="0 0 16 16"><title>hair man</title><g fill="#61616b" class="nc-icon-wrapper"><path d="M13,6c0,3.314-2.239,6.5-5,6.5S3,9.314,3,6" fill="none" stroke="#61616b" stroke-linecap="round" stroke-linejoin="round"></path><path d="M6,12.5v-.582l0,1.339a1.5,1.5,0,0,1-1.223,1.472L2,15.25" fill="none" stroke="#61616b" stroke-linecap="round" stroke-linejoin="round"></path><path d="M10,12.5v-.582l0,1.339a1.5,1.5,0,0,0,1.223,1.472L14,15.25" fill="none" stroke="#61616b" stroke-linecap="round" stroke-linejoin="round"></path><path data-color="color-2" d="M8,.5C5.239.5,2.5,1,3,6c0,.118.009.236.015.354A1.994,1.994,0,0,1,5,4.5H8.5a2,2,0,0,0,2-2V3A3,3,0,0,0,13,5.955C13.481,1,10.753.5,8,.5Z" fill="none" stroke="#61616b" stroke-linecap="round" stroke-linejoin="round"></path></g></svg>