<svg xmlns="http://www.w3.org/2000/svg" height="16" width="16" viewBox="0 0 16 16"><title>hair towel</title><g fill="#61616b" class="nc-icon-wrapper"><path d="M3.219,9.316C3.234,12.521,5.368,15.5,8,15.5c2.6,0,4.707-2.9,4.776-6.059" fill="none" stroke="#61616b" stroke-linecap="round" stroke-linejoin="round"></path><path d="M12.692,4.132S12.5.5,8,.5A5.766,5.766,0,0,0,2,6,5.2,5.2,0,0,0,3.333,9.457C8,8,6,3.5,10.75,3.5A3.25,3.25,0,0,1,14,6.75a4.1,4.1,0,0,1-1.216,2.707A6.487,6.487,0,0,0,7,5.955" fill="none" stroke="#61616b" stroke-linecap="round" stroke-linejoin="round" data-color="color-2"></path><polygon points="6.999 5.955 6.999 5.955 6.999 5.955 6.999 5.955" fill="none" stroke="#61616b" stroke-linecap="round" stroke-linejoin="round" data-color="color-2"></polygon></g></svg>