<svg xmlns="http://www.w3.org/2000/svg" height="32" width="32" viewBox="0 0 32 32"><title>hair towel 4</title><g stroke-linecap="round" fill="#61616b" stroke-linejoin="round" class="nc-icon-wrapper"><path d="M6.438,18.632C6.467,25.041,10.736,31,16,31c5.2,0,9.414-5.8,9.552-12.118" fill="none" stroke="#61616b" stroke-width="2"></path><path d="M25.385,8.265S25,1,16,1C9.373,1,4,5.925,4,12a10.4,10.4,0,0,0,2.667,6.915C16,16,12,7,21.5,7A6.5,6.5,0,0,1,28,13.5a8.2,8.2,0,0,1-2.432,5.415A12.973,12.973,0,0,0,14,11.909" fill="none" stroke="#61616b" stroke-width="2" data-cap="butt" data-color="color-2"></path></g></svg>