<svg xmlns="http://www.w3.org/2000/svg" height="64" width="64" viewBox="0 0 64 64"><title>hair woman 2</title><g stroke-linecap="round" fill="#61616b" stroke-linejoin="round" class="nc-icon-wrapper"><path d="M56,61c7-19-1-16-1-35A23,23,0,0,0,9,26C9,45,1,42,8,61" fill="none" stroke="#61616b" stroke-width="2" data-color="color-2"></path><path d="M24,49v4.02a6,6,0,0,1-4.894,5.9L14,59.875" fill="none" stroke="#61616b" stroke-width="2"></path><path d="M40,49v4.02a6,6,0,0,0,4.894,5.9L50,59.875" fill="none" stroke="#61616b" stroke-width="2"></path><path d="M18.272,42.674C21.854,47.082,26.683,50,32,50c5.527,0,10.53-3.148,14.15-7.85" fill="none" stroke="#61616b" stroke-width="2" data-cap="butt"></path><path d="M13,49l6.085-7.3a8,8,0,0,0,.408-9.71L16,27A19,19,0,0,0,34.9,9.96l8.773,9.36a8,8,0,0,1,.83,9.892l-.886,1.336a8,8,0,0,0,1.01,10.078L50,46" fill="none" stroke="#61616b" stroke-width="2" data-color="color-2"></path></g></svg>