<svg xmlns="http://www.w3.org/2000/svg" height="64" width="64" viewBox="0 0 64 64"><title>hairdresser 3</title><g stroke-linecap="round" fill="#61616b" stroke-linejoin="round" class="nc-icon-wrapper"><line x1="43" y1="29" x2="53" y2="29" fill="none" stroke="#61616b" stroke-width="2" data-color="color-2"></line><line x1="43" y1="23" x2="53" y2="23" fill="none" stroke="#61616b" stroke-width="2" data-color="color-2"></line><line x1="43" y1="17" x2="53" y2="17" fill="none" stroke="#61616b" stroke-width="2" data-color="color-2"></line><line x1="43" y1="11" x2="53" y2="11" fill="none" stroke="#61616b" stroke-width="2" data-color="color-2"></line><path d="M43,35h4.278a4,4,0,0,1,3.945,4.658L48,59H59V9a4,4,0,0,0-4-4H43" fill="none" stroke="#61616b" stroke-width="2" data-color="color-2"></path><path d="M13.005,42.146A5.9,5.9,0,0,0,7.777,46.5L6.2,51.575a5.9,5.9,0,1,0,11.4,3.048l1.574-5.072a5.838,5.838,0,0,0,.185-1.989A5.9,5.9,0,0,0,13.005,42.146Z" fill="none" stroke="#61616b" stroke-width="2"></path><path d="M34.995,42.146A5.9,5.9,0,0,1,40.223,46.5L41.8,51.575a5.9,5.9,0,1,1-11.4,3.048l-1.574-5.072a5.838,5.838,0,0,1-.185-1.989A5.9,5.9,0,0,1,34.995,42.146Z" fill="none" stroke="#61616b" stroke-width="2"></path><path d="M23.118,31.147,15,5a4,4,0,0,0-4,4,7.246,7.246,0,0,0,.257,1.413l5.717,18.418a7.358,7.358,0,0,0,4.095,4.537" fill="none" stroke="#61616b" stroke-width="2" data-cap="butt"></path><line x1="28.823" y1="49.522" x2="24.889" y2="36.851" fill="none" stroke="#61616b" stroke-width="2" data-cap="butt"></line><line x1="23.111" y1="36.851" x2="19.177" y2="49.522" fill="none" stroke="#61616b" stroke-width="2" data-cap="butt"></line><path d="M26.931,33.368a7.358,7.358,0,0,0,4.095-4.537l5.717-18.418A7.246,7.246,0,0,0,37,9a4,4,0,0,0-4-4L24.882,31.147" fill="none" stroke="#61616b" stroke-width="2" data-cap="butt"></path><circle cx="24" cy="34" r="3" fill="none" stroke="#61616b" stroke-width="2"></circle></g></svg>