<svg xmlns="http://www.w3.org/2000/svg" height="64" width="64" viewBox="0 0 64 64"><title>hair towel 2</title><g stroke-linecap="round" fill="#61616b" stroke-linejoin="round" class="nc-icon-wrapper"><path d="M12.875,37.264C12.934,50.082,21.471,62,32,62c10.251,0,18.6-11.3,19.089-23.726" fill="none" stroke="#61616b" stroke-width="2" data-cap="butt"></path><path d="M31.515,9.515A12,12,0,0,1,52,18c0,.382-.018.761-.053,1.134h0" fill="none" stroke="#61616b" stroke-width="2" data-cap="butt" data-color="color-2"></path><path d="M41.151,6.055A20.26,20.26,0,0,0,29,2C17.4,2,8,11.85,8,24a20.813,20.813,0,0,0,5.334,13.83C31,33,27,16,44,16A12.258,12.258,0,0,1,56,28.5a12.661,12.661,0,0,1-4.8,10A25.006,25.006,0,0,0,29.642,24.026" fill="none" stroke="#61616b" stroke-width="2" data-cap="butt" data-color="color-2"></path></g></svg>