<svg xmlns="http://www.w3.org/2000/svg" height="16" width="16" viewBox="0 0 16 16"><title>incense</title><g fill="#61616b" class="nc-icon-wrapper"><path d="M2.5,9.5v4c0,1.105,2.462,2,5.5,2s5.5-.895,5.5-2v-4" fill="none" stroke="#61616b" stroke-linecap="round" stroke-linejoin="round"></path><path d="M3.6,8.306C2.91,8.64,2.5,9.052,2.5,9.5c0,1.105,2.462,2,5.5,2s5.5-.895,5.5-2c0-.448-.41-.86-1.1-1.194" fill="none" stroke="#61616b" stroke-linecap="round" stroke-linejoin="round"></path><path d="M3.5,6V8c0,.828,2.015,1.5,4.5,1.5s4.5-.672,4.5-1.5V6" fill="none" stroke="#61616b" stroke-linecap="round" stroke-linejoin="round"></path><line x1="6" y1="0.5" x2="7" y2="5.5" fill="none" stroke="#61616b" stroke-linecap="round" stroke-linejoin="round" data-color="color-2"></line><path d="M4.847,4.931C4.017,5.2,3.5,5.581,3.5,6c0,.828,2.015,1.5,4.5,1.5s4.5-.672,4.5-1.5c0-.419-.517-.8-1.347-1.069" fill="none" stroke="#61616b" stroke-linecap="round" stroke-linejoin="round"></path><line x1="10" y1="0.5" x2="9" y2="5.5" fill="none" stroke="#61616b" stroke-linecap="round" stroke-linejoin="round" data-color="color-2"></line></g></svg>