<svg xmlns="http://www.w3.org/2000/svg" height="64" width="64" viewBox="0 0 64 64"><title>incense 3</title><g stroke-linecap="round" fill="#61616b" stroke-linejoin="round" class="nc-icon-wrapper"><path d="M9,38V53c0,4.418,10.3,8,23,8s23-3.582,23-8V38" fill="none" stroke="#61616b" stroke-width="2" data-cap="butt"></path><path d="M16,24v9c0,2.761,7.163,5,16,5s16-2.239,16-5V24" fill="none" stroke="#61616b" stroke-width="2" data-cap="butt"></path><path d="M16,32.256C11.686,33.71,9,35.745,9,38c0,4.418,10.3,8,23,8s23-3.582,23-8c0-2.255-2.686-4.29-7-5.744" fill="none" stroke="#61616b" stroke-width="2" data-cap="butt"></path><line x1="22" y1="4" x2="25" y2="23" fill="none" stroke="#61616b" stroke-width="2" data-color="color-2"></line><line x1="42" y1="4" x2="39" y2="23" fill="none" stroke="#61616b" stroke-width="2" data-color="color-2"></line><line x1="28" y1="4" x2="31" y2="23" fill="none" stroke="#61616b" stroke-width="2" data-color="color-2"></line><line x1="34.531" y1="13.305" x2="36" y2="4" fill="none" stroke="#61616b" stroke-width="2" data-color="color-2"></line><path d="M20,20.7c-2.482.881-4,2.034-4,3.3,0,2.761,7.163,5,16,5s16-2.239,16-5c0-1.266-1.518-2.419-4-3.3" fill="none" stroke="#61616b" stroke-width="2"></path></g></svg>