<svg xmlns="http://www.w3.org/2000/svg" height="48" width="48" viewBox="0 0 48 48"><title>incense 2</title><g stroke-linecap="round" fill="#61616b" stroke-linejoin="round" class="nc-icon-wrapper"><path d="M7,28V40c0,3.314,7.611,6,17,6s17-2.686,17-6V28" fill="none" stroke="#61616b" stroke-width="2" data-cap="butt"></path><line x1="24" y1="2" x2="24" y2="17.2" fill="none" stroke="#61616b" stroke-width="2" data-color="color-2"></line><path d="M13,17.5v7c0,1.933,4.925,3.5,11,3.5s11-1.567,11-3.5v-7" fill="none" stroke="#61616b" stroke-width="2" data-cap="butt"></path><path d="M13,23.43c-3.667,1.1-6,2.738-6,4.57,0,3.314,7.611,6,17,6s17-2.686,17-6c0-1.832-2.333-3.469-6-4.57" fill="none" stroke="#61616b" stroke-width="2" data-cap="butt"></path><line x1="17" y1="3" x2="19" y2="16" fill="none" stroke="#61616b" stroke-width="2" data-color="color-2"></line><line x1="31" y1="3" x2="29" y2="16" fill="none" stroke="#61616b" stroke-width="2" data-color="color-2"></line><path d="M14.883,15.541C13.694,16.1,13,16.774,13,17.5c0,1.933,4.925,3.5,11,3.5s11-1.567,11-3.5c0-.726-.694-1.4-1.883-1.959" fill="none" stroke="#61616b" stroke-width="2"></path></g></svg>