<svg xmlns="http://www.w3.org/2000/svg" height="32" width="32" viewBox="0 0 32 32"><title>incense 4</title><g stroke-linecap="round" fill="#61616b" stroke-linejoin="round" class="nc-icon-wrapper"><path d="M8,16.019H8c-2.455.732-4,1.8-4,2.981,0,2.209,5.373,4,12,4s12-1.791,12-4c0-1.183-1.55-2.243-4-2.975" fill="none" stroke="#61616b" stroke-width="2" data-cap="butt"></path><path d="M4,19v8c0,2.209,5.373,4,12,4s12-1.791,12-4V19" fill="none" stroke="#61616b" stroke-width="2" data-cap="butt"></path><path d="M8,11.5v5c0,1.381,3.582,2.5,8,2.5s8-1.119,8-2.5v-5" fill="none" stroke="#61616b" stroke-width="2" data-cap="butt"></path><line x1="11" y1="2" x2="12.238" y2="10.286" fill="none" stroke="#61616b" stroke-width="2" data-color="color-2"></line><line x1="21" y1="2" x2="19.762" y2="10.286" fill="none" stroke="#61616b" stroke-width="2" data-color="color-2"></line><path d="M9.313,10.129C8.485,10.523,8,10.994,8,11.5c0,1.381,3.582,2.5,8,2.5s8-1.119,8-2.5c0-.45-.385-.871-1.051-1.235" fill="none" stroke="#61616b" stroke-width="2"></path><line x1="16" y1="1" x2="16" y2="10" fill="none" stroke="#61616b" stroke-width="2" data-color="color-2"></line></g></svg>