<svg xmlns="http://www.w3.org/2000/svg" height="24" width="24" viewBox="0 0 24 24"><title>incense 5</title><g stroke-linecap="round" fill="#61616b" stroke-linejoin="round" class="nc-icon-wrapper"><path d="M3,15v5c0,1.657,4.029,3,9,3s9-1.343,9-3V15" fill="none" stroke="#61616b" stroke-width="2" data-cap="butt"></path><path d="M6,12.768c-1.837.55-3,1.345-3,2.232,0,1.657,4.029,3,9,3s9-1.343,9-3c0-.887-1.163-1.682-3-2.232" fill="none" stroke="#61616b" stroke-width="2" data-cap="butt"></path><path d="M6,9v4c0,1.105,2.686,2,6,2s6-.895,6-2V9" fill="none" stroke="#61616b" stroke-width="2" data-cap="butt"></path><line x1="9" y1="2" x2="10" y2="8" fill="none" stroke="#61616b" stroke-width="2" data-color="color-2"></line><path d="M6.946,7.925C6.35,8.236,6,8.6,6,9c0,1.105,2.686,2,6,2s6-.895,6-2c0-.4-.35-.764-.946-1.075" fill="none" stroke="#61616b" stroke-width="2"></path><line x1="15" y1="2" x2="14" y2="8" fill="none" stroke="#61616b" stroke-width="2" data-color="color-2"></line></g></svg>