<svg xmlns="http://www.w3.org/2000/svg" height="24" width="24" viewBox="0 0 24 24"><title>jacuzzi 5</title><g stroke-linecap="round" fill="#61616b" stroke-linejoin="round" class="nc-icon-wrapper"><path d="M1,14H23a0,0,0,0,1,0,0v7a2,2,0,0,1-2,2H3a2,2,0,0,1-2-2V14A0,0,0,0,1,1,14Z" fill="none" stroke="#61616b" stroke-width="2"></path><circle cx="5.5" cy="3.5" r="2.5" fill="none" stroke="#61616b" stroke-width="2"></circle><path d="M11.535,14,7.267,9.733h0A2.5,2.5,0,0,0,3,11.5V14" fill="none" stroke="#61616b" stroke-width="2" data-cap="butt"></path><line x1="1" y1="18" x2="23" y2="18" fill="none" stroke="#61616b" stroke-width="2" data-cap="butt"></line><path d="M14.709,8A2.217,2.217,0,0,0,14.5,5.5,2.217,2.217,0,0,1,14.291,3" fill="none" stroke="#61616b" stroke-width="2" data-color="color-2"></path><path d="M19.709,9A2.217,2.217,0,0,0,19.5,6.5,2.217,2.217,0,0,1,19.291,4" fill="none" stroke="#61616b" stroke-width="2" data-color="color-2"></path></g></svg>