<svg xmlns="http://www.w3.org/2000/svg" height="64" width="64" viewBox="0 0 64 64"><title>jacuzzi 2</title><g stroke-linecap="round" fill="#61616b" stroke-linejoin="round" class="nc-icon-wrapper"><path d="M54,60H10a5,5,0,0,1-5-5V37H59V55A5,5,0,0,1,54,60Z" fill="none" stroke="#61616b" stroke-width="2"></path><circle cx="15.8" cy="12" r="6" fill="none" stroke="#61616b" stroke-width="2" data-cap="butt"></circle><line x1="5" y1="44" x2="59" y2="44" fill="none" stroke="#61616b" stroke-width="2" data-cap="butt"></line><path d="M37.128,24a5.877,5.877,0,0,0-.628-7,5.877,5.877,0,0,1-.628-7" fill="none" stroke="#61616b" stroke-width="2" data-color="color-2"></path><path d="M56.128,24a5.877,5.877,0,0,0-.628-7,5.877,5.877,0,0,1-.628-7" fill="none" stroke="#61616b" stroke-width="2" data-color="color-2"></path><path d="M46.128,20a5.877,5.877,0,0,0-.628-7,5.877,5.877,0,0,1-.628-7" fill="none" stroke="#61616b" stroke-width="2" data-color="color-2"></path><path d="M27.484,32l-6.242-6.242h0A6,6,0,0,0,11,30v1" fill="none" stroke="#61616b" stroke-width="2"></path><line x1="14" y1="45" x2="14" y2="52" fill="none" stroke="#61616b" stroke-width="2"></line><line x1="23" y1="45" x2="23" y2="52" fill="none" stroke="#61616b" stroke-width="2"></line><line x1="32" y1="45" x2="32" y2="52" fill="none" stroke="#61616b" stroke-width="2"></line><line x1="41" y1="45" x2="41" y2="52" fill="none" stroke="#61616b" stroke-width="2"></line><line x1="50" y1="45" x2="50" y2="52" fill="none" stroke="#61616b" stroke-width="2"></line></g></svg>