<svg xmlns="http://www.w3.org/2000/svg" height="48" width="48" viewBox="0 0 48 48"><title>jacuzzi 3</title><g stroke-linecap="round" fill="#61616b" stroke-linejoin="round" class="nc-icon-wrapper"><path d="M40,44H8a4,4,0,0,1-4-4V25H44V40A4,4,0,0,1,40,44Z" fill="none" stroke="#61616b" stroke-width="2"></path><circle cx="12" cy="8" r="4" fill="none" stroke="#61616b" stroke-width="2"></circle><line x1="4" y1="31" x2="44" y2="31.089" fill="none" stroke="#61616b" stroke-width="2" data-cap="butt"></line><path d="M21.644,25l-6.821-6.821,0,0A4,4,0,0,0,8,21v4" fill="none" stroke="#61616b" stroke-width="2" data-cap="butt"></path><path d="M42.419,18A4.435,4.435,0,0,0,42,13a4.435,4.435,0,0,1-.419-5" fill="none" stroke="#61616b" stroke-width="2" data-color="color-2"></path><path d="M34.419,15A4.435,4.435,0,0,0,34,10a4.435,4.435,0,0,1-.419-5" fill="none" stroke="#61616b" stroke-width="2" data-color="color-2"></path><path d="M27.419,18A4.435,4.435,0,0,0,27,13a4.435,4.435,0,0,1-.419-5" fill="none" stroke="#61616b" stroke-width="2" data-color="color-2"></path></g></svg>