<svg xmlns="http://www.w3.org/2000/svg" height="16" width="16" viewBox="0 0 16 16"><title>jacuzzi</title><g fill="#61616b" class="nc-icon-wrapper"><path d="M.5,8.5h15a0,0,0,0,1,0,0v5a2,2,0,0,1-2,2H2.5a2,2,0,0,1-2-2v-5A0,0,0,0,1,.5,8.5Z" fill="none" stroke="#61616b" stroke-linecap="round" stroke-linejoin="round"></path><circle cx="3" cy="2" r="1.5" fill="none" stroke="#61616b" stroke-linecap="round" stroke-linejoin="round"></circle><line x1="0.5" y1="12.091" x2="15.5" y2="12.091" fill="none" stroke="#61616b" stroke-linecap="round" stroke-linejoin="round"></line><path d="M6.617,8.5,4.059,5.941l0,0A1.5,1.5,0,0,0,1.5,7V8.5" fill="none" stroke="#61616b" stroke-linecap="round" stroke-linejoin="round"></path><path d="M12.709,6.5A2.217,2.217,0,0,0,12.5,4a2.217,2.217,0,0,1-.209-2.5" fill="none" stroke="#61616b" stroke-linecap="round" stroke-linejoin="round" data-color="color-2"></path><path d="M9.209,5.5A2.217,2.217,0,0,0,9,3,2.217,2.217,0,0,1,8.791.5" fill="none" stroke="#61616b" stroke-linecap="round" stroke-linejoin="round" data-color="color-2"></path></g></svg>