<svg xmlns="http://www.w3.org/2000/svg" height="32" width="32" viewBox="0 0 32 32"><title>jacuzzi 4</title><g stroke-linecap="round" fill="#61616b" stroke-linejoin="round" class="nc-icon-wrapper"><path d="M1,17H31a0,0,0,0,1,0,0V28a3,3,0,0,1-3,3H4a3,3,0,0,1-3-3V17a0,0,0,0,1,0,0Z" fill="none" stroke="#61616b" stroke-width="2"></path><circle cx="7" cy="4" r="3" fill="none" stroke="#61616b" stroke-width="2"></circle><line x1="1" y1="24.182" x2="31" y2="24.182" fill="none" stroke="#61616b" stroke-width="2" data-cap="butt"></line><path d="M15.2,16.961,9.117,10.883l0,0A3,3,0,0,0,4,13v4" fill="none" stroke="#61616b" stroke-width="2" data-cap="butt"></path><path d="M19.419,11A2.992,2.992,0,0,0,19,7a2.992,2.992,0,0,1-.419-4" fill="none" stroke="#61616b" stroke-width="2" data-color="color-2"></path><path d="M25.419,13A2.992,2.992,0,0,0,25,9a2.992,2.992,0,0,1-.419-4" fill="none" stroke="#61616b" stroke-width="2" data-color="color-2"></path></g></svg>