<svg xmlns="http://www.w3.org/2000/svg" height="48" width="48" viewBox="0 0 48 48"><title>lipstick 5</title><g stroke-linecap="round" fill="#61616b" stroke-linejoin="round" class="nc-icon-wrapper"><path d="M13,42V26H35V42a4,4,0,0,1-4,4H17A4,4,0,0,1,13,42Z" fill="none" stroke="#61616b" stroke-width="2"></path><polyline data-color="color-2" points="29 4.203 29 3.578 29 20" fill="none" stroke="#61616b" stroke-width="2"></polyline><polyline data-color="color-2" points="19 20 19 8.184 19 8.522" fill="none" stroke="#61616b" stroke-width="2"></polyline><path data-color="color-2" d="M25.528,8.237C22.9,9.956,20.084,10.3,19.24,9.014c-.538-.824-.143-2.116.9-3.39a10.324,10.324,0,0,1,2.334-2.059C25.1,1.846,27.916,1.5,28.76,2.788S28.156,6.517,25.528,8.237Z" fill="none" stroke="#61616b" stroke-width="2"></path><line data-cap="butt" x1="13" y1="32" x2="35" y2="32" fill="none" stroke="#61616b" stroke-width="2"></line></g></svg>