<svg xmlns="http://www.w3.org/2000/svg" height="16" width="16" viewBox="0 0 16 16"><title>lipstick 3</title><g fill="#61616b" class="nc-icon-wrapper"><path data-color="color-2" d="M8.764,3.614C7.449,4.473,6.042,4.647,5.62,4c-.269-.411-.071-1.058.449-1.695A5.174,5.174,0,0,1,7.236,1.278C8.551.419,9.958.245,10.38.889S10.078,2.754,8.764,3.614Z" fill="none" stroke="#61616b" stroke-linecap="round" stroke-linejoin="round"></path><path d="M3.5,10.5h9a0,0,0,0,1,0,0V14A1.5,1.5,0,0,1,11,15.5H5A1.5,1.5,0,0,1,3.5,14V10.5A0,0,0,0,1,3.5,10.5Z" fill="none" stroke="#61616b" stroke-linecap="round" stroke-linejoin="round"></path><line data-color="color-2" x1="10.5" y1="1.359" x2="10.5" y2="8.5" fill="none" stroke="#61616b" stroke-linecap="round" stroke-linejoin="round"></line><line data-color="color-2" x1="5.5" y1="8.5" x2="5.5" y2="3.563" fill="none" stroke="#61616b" stroke-linecap="round" stroke-linejoin="round"></line></g></svg>