<svg xmlns="http://www.w3.org/2000/svg" height="24" width="24" viewBox="0 0 24 24"><title>lipstick 2 6</title><g stroke-linecap="round" fill="#61616b" stroke-linejoin="round" class="nc-icon-wrapper"><path d="M10,12H3v9a2,2,0,0,0,2,2H8a2,2,0,0,0,2-2Z" fill="none" stroke="#61616b" stroke-width="2" data-cap="butt"></path><line x1="10" y1="16" x2="3" y2="16" fill="none" stroke="#61616b" stroke-width="2" data-cap="butt"></line><path d="M16,11h3a2,2,0,0,1,2,2V23a0,0,0,0,1,0,0H14a0,0,0,0,1,0,0V13A2,2,0,0,1,16,11Z" fill="none" stroke="#61616b" stroke-width="2" data-cap="butt"></path><path d="M4,8V6A5.539,5.539,0,0,1,6.5,1.5,5.539,5.539,0,0,1,9,6V8" fill="none" stroke="#61616b" stroke-width="2" data-color="color-2"></path></g></svg>