<svg xmlns="http://www.w3.org/2000/svg" height="32" width="32" viewBox="0 0 32 32"><title>lipstick 2 5</title><g stroke-linecap="round" fill="#61616b" stroke-linejoin="round" class="nc-icon-wrapper"><path d="M14,19H3v9a3,3,0,0,0,3,3h5a3,3,0,0,0,3-3Z" fill="none" stroke="#61616b" stroke-width="2" data-cap="butt"></path><path d="M26,15H21a3,3,0,0,0-3,3V31H29V18A3,3,0,0,0,26,15Z" fill="none" stroke="#61616b" stroke-width="2" data-cap="butt"></path><line x1="14" y1="25" x2="3" y2="24.999" fill="none" stroke="#61616b" stroke-width="2" data-cap="butt"></line><path d="M6,9V6A5.539,5.539,0,0,1,8.5,1.5,5.539,5.539,0,0,1,11,6V9" fill="none" stroke="#61616b" stroke-width="2" data-color="color-2"></path><rect x="5" y="13" width="7" height="6" fill="none" stroke="#61616b" stroke-width="2" data-cap="butt"></rect></g></svg>