<svg xmlns="http://www.w3.org/2000/svg" height="64" width="64" viewBox="0 0 64 64"><title>lipstick 2 3</title><g stroke-linecap="round" fill="#61616b" stroke-linejoin="round" class="nc-icon-wrapper"><path d="M8,36H28a0,0,0,0,1,0,0V55a5,5,0,0,1-5,5H13a5,5,0,0,1-5-5V36A0,0,0,0,1,8,36Z" fill="none" stroke="#61616b" stroke-width="2" data-cap="butt"></path><path d="M41,26H51a5,5,0,0,1,5,5V60a0,0,0,0,1,0,0H36a0,0,0,0,1,0,0V31A5,5,0,0,1,41,26Z" fill="none" stroke="#61616b" stroke-width="2" data-cap="butt"></path><polyline points="26 36 26 26 10 26 10 36" fill="none" stroke="#61616b" stroke-width="2"></polyline><line x1="28" y1="51" x2="8" y2="51" fill="none" stroke="#61616b" stroke-width="2"></line><path d="M13,21V15c0-8,5-10.907,5-10.907S23,7.047,23,15v6" fill="none" stroke="#61616b" stroke-width="2" data-color="color-2"></path></g></svg>