<svg xmlns="http://www.w3.org/2000/svg" height="24" width="24" viewBox="0 0 24 24"><title>lips 5</title><g stroke-linecap="round" fill="#61616b" stroke-linejoin="round" class="nc-icon-wrapper"><path d="M2,13c3,0,4-1,6-1s2,1,4,1,2-1,4-1,3,1,6,1" fill="none" stroke="#61616b" stroke-width="2" data-cap="butt" data-color="color-2"></path><path d="M22,13c-2,2-5,5-10,5S4,15,2,13L6.172,9.172A3.984,3.984,0,0,1,9,8a6.472,6.472,0,0,1,3,1,6.094,6.094,0,0,1,3-1,3.984,3.984,0,0,1,2.828,1.172Z" fill="none" stroke="#61616b" stroke-width="2"></path></g></svg>