<svg xmlns="http://www.w3.org/2000/svg" height="12" width="12" viewBox="0 0 12 12"><title>lipstick 2 2</title><g fill="#61616b" class="nc-icon-wrapper"><path d="M1.5,4.493v-2a2.3,2.3,0,0,1,1-2,2.3,2.3,0,0,1,1,2v2" fill="none" stroke="#61616b" stroke-linecap="round" stroke-linejoin="round" data-color="color-2"></path><path d="M8.5,5.5h2a1,1,0,0,1,1,1v5a0,0,0,0,1,0,0h-4a0,0,0,0,1,0,0v-5A1,1,0,0,1,8.5,5.5Z" fill="none" stroke="#61616b" stroke-linecap="round" stroke-linejoin="round"></path><path d="M.5,6.5h4a0,0,0,0,1,0,0v4a1,1,0,0,1-1,1h-2a1,1,0,0,1-1-1v-4A0,0,0,0,1,.5,6.5Z" fill="none" stroke="#61616b" stroke-linecap="round" stroke-linejoin="round"></path><line x1="0.5" y1="8.5" x2="4.5" y2="8.5" fill="none" stroke="#61616b" stroke-linecap="round" stroke-linejoin="round"></line></g></svg>