<svg xmlns="http://www.w3.org/2000/svg" height="32" width="32" viewBox="0 0 32 32"><title>lipstick 6</title><g stroke-linecap="round" fill="#61616b" stroke-linejoin="round" class="nc-icon-wrapper"><path d="M8,28V19H24v9a3,3,0,0,1-3,3H11A3,3,0,0,1,8,28Z" fill="none" stroke="#61616b" stroke-width="2"></path><polyline data-color="color-2" points="20 5 20 2.376 20 15" fill="none" stroke="#61616b" stroke-width="2"></polyline><polyline data-color="color-2" points="12 15 12 6 12 8" fill="none" stroke="#61616b" stroke-width="2"></polyline><line data-cap="butt" x1="8" y1="23" x2="24" y2="23" fill="none" stroke="#61616b" stroke-width="2"></line><path data-color="color-2" d="M17.222,5.982c-2.1,1.375-4.355,1.654-5.03.622-.431-.659-.114-1.693.718-2.712a8.259,8.259,0,0,1,1.868-1.647c2.1-1.375,4.355-1.654,5.03-.622S19.325,4.607,17.222,5.982Z" fill="none" stroke="#61616b" stroke-width="2"></path></g></svg>