<svg xmlns="http://www.w3.org/2000/svg" height="16" width="16" viewBox="0 0 16 16"><title>lips</title><g fill="#61616b" class="nc-icon-wrapper"><path d="M1,8c2.5,0,2.75-.5,4-.5s1.5,1,3,1,1.75-1,3-1,2.5.5,4.5.5" fill="none" stroke="#61616b" stroke-linecap="round" stroke-linejoin="round" data-color="color-2"></path><path d="M8,5.268A2.987,2.987,0,0,1,10,4.5a3.382,3.382,0,0,1,2.071.829L15.5,8c-1.4,1.4-4,4.5-7.5,4.5S1.9,9.4.5,8L3.929,5.329A3.382,3.382,0,0,1,6,4.5,2.987,2.987,0,0,1,8,5.268Z" fill="none" stroke="#61616b" stroke-linecap="round" stroke-linejoin="round"></path></g></svg>