<svg xmlns="http://www.w3.org/2000/svg" height="16" width="16" viewBox="0 0 16 16"><title>lipstick 2</title><g fill="#61616b" class="nc-icon-wrapper"><line x1="7.5" y1="11.5" x2="1.5" y2="11.5" fill="none" stroke="#61616b" stroke-linecap="round" stroke-linejoin="round"></line><path d="M7.5,8.5h-6v6a1,1,0,0,0,1,1h4a1,1,0,0,0,1-1Z" fill="none" stroke="#61616b" stroke-linecap="round" stroke-linejoin="round"></path><path d="M2.5,6.5v-2a4.6,4.6,0,0,1,2-4,4.6,4.6,0,0,1,2,4v2" fill="none" stroke="#61616b" stroke-linecap="round" stroke-linejoin="round" data-color="color-2"></path><path d="M10.5,7.5h4a1,1,0,0,1,1,1v7a0,0,0,0,1,0,0h-6a0,0,0,0,1,0,0v-7A1,1,0,0,1,10.5,7.5Z" fill="none" stroke="#61616b" stroke-linecap="round" stroke-linejoin="round"></path></g></svg>