<svg xmlns="http://www.w3.org/2000/svg" height="64" width="64" viewBox="0 0 64 64"><title>lipstick 4</title><g stroke-linecap="round" fill="#61616b" stroke-linejoin="round" class="nc-icon-wrapper"><path data-color="color-2" d="M34.139,10.718c-3.68,2.407-7.621,2.895-8.8,1.089-.755-1.153-.2-2.963,1.256-4.747a14.438,14.438,0,0,1,3.268-2.881c3.68-2.407,7.621-2.894,8.8-1.088S37.819,8.312,34.139,10.718Z" fill="none" stroke="#61616b" stroke-width="2"></path><path d="M15.923,56.986,16,37H48l.077,19.986A5,5,0,0,1,43.091,62H20.923a5,5,0,0,1-5-5Z" fill="none" stroke="#61616b" stroke-width="2"></path><polyline data-color="color-2" points="39 5.484 39 4.219 39 32" fill="none" stroke="#61616b" stroke-width="2"></polyline><polyline data-color="color-2" points="25 32 25 10.844 25 13.078" fill="none" stroke="#61616b" stroke-width="2"></polyline><line data-cap="butt" x1="16" y1="43" x2="48" y2="43" fill="none" stroke="#61616b" stroke-width="2"></line></g></svg>