<svg xmlns="http://www.w3.org/2000/svg" height="48" width="48" viewBox="0 0 48 48"><title>lipstick 2 4</title><g stroke-linecap="round" fill="#61616b" stroke-linejoin="round" class="nc-icon-wrapper"><polyline points="19 28 19 20 7 20 7 28" fill="none" stroke="#61616b" stroke-width="2"></polyline><path d="M21,28H5V42a4,4,0,0,0,4,4h8a4,4,0,0,0,4-4Z" fill="none" stroke="#61616b" stroke-width="2" data-cap="butt"></path><line x1="21" y1="39" x2="5" y2="39" fill="none" stroke="#61616b" stroke-width="2" data-cap="butt"></line><path d="M31,20h8a4,4,0,0,1,4,4V46a0,0,0,0,1,0,0H27a0,0,0,0,1,0,0V24A4,4,0,0,1,31,20Z" fill="none" stroke="#61616b" stroke-width="2"></path><path d="M9,15V11c0-6,4-8,4-8s4,2,4,8v4" fill="none" stroke="#61616b" stroke-width="2" data-color="color-2"></path></g></svg>