<svg xmlns="http://www.w3.org/2000/svg" height="48" width="48" viewBox="0 0 48 48"><title>lotus flower 3</title><g stroke-linecap="round" fill="#61616b" stroke-linejoin="round" class="nc-icon-wrapper"><path d="M23.983,38H24A20,20,0,0,1,4,18a19.926,19.926,0,0,1,8.05,1.7" fill="none" stroke="#61616b" stroke-width="2" data-color="color-2"></path><path d="M5.7,34.993a14.651,14.651,0,0,0-2.654,1.986A14.459,14.459,0,0,0,23.983,38H24" fill="none" stroke="#61616b" stroke-width="2"></path><path d="M24,38h-.017a20,20,0,0,0,20-20,19.926,19.926,0,0,0-8.05,1.7" fill="none" stroke="#61616b" stroke-width="2" data-color="color-2"></path><path d="M24,38A23.9,23.9,0,0,0,24,4.2,23.9,23.9,0,0,0,24,38" fill="none" stroke="#61616b" stroke-width="2" data-cap="butt"></path><path d="M42.287,34.993a14.651,14.651,0,0,1,2.654,1.986A14.459,14.459,0,0,1,24,38h-.017" fill="none" stroke="#61616b" stroke-width="2"></path></g></svg>