<svg xmlns="http://www.w3.org/2000/svg" height="16" width="16" viewBox="0 0 16 16"><title>lotus flower 6</title><g fill="#61616b" class="nc-icon-wrapper"><polygon points="8 12.5 8 12.5 8 12.5 8 12.5" fill="none" stroke="#61616b" stroke-linecap="round" stroke-linejoin="round"></polygon><path d="M3.173,10.561A4.749,4.749,0,0,0,.655,11.944v.041A4.748,4.748,0,0,0,8,12.5" fill="none" stroke="#61616b" stroke-linecap="round" stroke-linejoin="round"></path><polygon points="7.999 12.5 7.999 12.5 7.999 12.5 7.999 12.5" fill="none" stroke="#61616b" stroke-linecap="round" stroke-linejoin="round"></polygon><path d="M12.826,10.561a4.749,4.749,0,0,1,2.518,1.383v.041A4.747,4.747,0,0,1,8,12.5" fill="none" stroke="#61616b" stroke-linecap="round" stroke-linejoin="round"></path><path d="M8,12.5a7,7,0,0,0,7-7,6.958,6.958,0,0,0-2.536.481" fill="none" stroke="#61616b" stroke-linecap="round" stroke-linejoin="round" data-color="color-2"></path><path d="M8,12.5a7,7,0,0,1-7-7,6.958,6.958,0,0,1,2.536.481" fill="none" stroke="#61616b" stroke-linecap="round" stroke-linejoin="round" data-color="color-2"></path><ellipse cx="8" cy="6.7" rx="2.5" ry="5.799" fill="none" stroke="#61616b" stroke-linecap="round" stroke-linejoin="round"></ellipse></g></svg>