<svg xmlns="http://www.w3.org/2000/svg" height="32" width="32" viewBox="0 0 32 32"><title>lotus flower 4</title><g stroke-linecap="round" fill="#61616b" stroke-linejoin="round" class="nc-icon-wrapper"><path d="M16,25A14,14,0,0,0,30,11a13.94,13.94,0,0,0-5.072.962" fill="none" stroke="#61616b" stroke-width="2" data-color="color-2"></path><path d="M16,25A14,14,0,0,1,2,11a13.94,13.94,0,0,1,5.072.962" fill="none" stroke="#61616b" stroke-width="2" data-color="color-2"></path><path d="M2.521,22.9A9.539,9.539,0,0,0,1.31,23.971,9.5,9.5,0,0,0,16,25" fill="none" stroke="#61616b" stroke-width="2"></path><ellipse cx="16" cy="13.4" rx="5" ry="11.599" fill="none" stroke="#61616b" stroke-width="2"></ellipse><path d="M29.479,22.9a9.539,9.539,0,0,1,1.211,1.069A9.5,9.5,0,0,1,16,25" fill="none" stroke="#61616b" stroke-width="2"></path></g></svg>