<svg xmlns="http://www.w3.org/2000/svg" height="24" width="24" viewBox="0 0 24 24"><title>makeup palette 5</title><g stroke-linecap="round" fill="#61616b" stroke-linejoin="round" class="nc-icon-wrapper"><path d="M21,12v9a2,2,0,0,1-2,2H5a2,2,0,0,1-2-2V12" fill="none" stroke="#61616b" stroke-width="2"></path><path d="M1.077,5.451,2.349,1h19.3l1.272,4.451A2,2,0,0,1,21,8H3A2,2,0,0,1,1.077,5.451Z" fill="none" stroke="#61616b" stroke-width="2" data-cap="butt"></path><circle cx="8" cy="18" r="2" fill="none" stroke="#61616b" stroke-width="2" data-cap="butt"></circle><circle cx="16" cy="18" r="2" fill="none" stroke="#61616b" stroke-width="2" data-cap="butt" data-color="color-2"></circle><path d="M10,11a2,2,0,0,1-4,0" fill="none" stroke="#61616b" stroke-width="2" data-cap="butt" data-color="color-2"></path><path d="M18,11a2,2,0,0,1-4,0" fill="none" stroke="#61616b" stroke-width="2" data-cap="butt"></path></g></svg>