<svg xmlns="http://www.w3.org/2000/svg" height="64" width="64" viewBox="0 0 64 64"><title>makeup cream 2</title><g stroke-linecap="round" fill="#61616b" stroke-linejoin="round" class="nc-icon-wrapper"><path d="M3,32.5v20C3,57.194,13.3,61,26,61s23-3.806,23-8.5v-20" fill="none" stroke="#61616b" stroke-width="2" data-cap="butt"></path><ellipse cx="26" cy="32.5" rx="23" ry="8.5" fill="none" stroke="#61616b" stroke-width="2"></ellipse><path d="M3,46.5C3,51.194,13.3,55,26,55V47C13.3,47,3,43.194,3,38.5" fill="none" stroke="#61616b" stroke-width="2"></path><path d="M22.482,19.079A16.989,16.989,0,0,1,54.69,22.8a16.736,16.736,0,0,1-.725,8.993" fill="none" stroke="#61616b" stroke-width="2" data-color="color-2"></path><path d="M54,42.512A23,23,0,1,0,15.873,19.729" fill="none" stroke="#61616b" stroke-width="2" data-color="color-2"></path></g></svg>