<svg xmlns="http://www.w3.org/2000/svg" height="16" width="16" viewBox="0 0 16 16"><title>makeup palette</title><g fill="#61616b" class="nc-icon-wrapper"><path d="M13.5,7.5V13A1.5,1.5,0,0,1,12,14.5H4A1.5,1.5,0,0,1,2.5,13V7.5" fill="none" stroke="#61616b" stroke-linecap="round" stroke-linejoin="round"></path><circle cx="5.5" cy="11.5" r="1.5" fill="#61616b" data-stroke="none" stroke="none"></circle><circle cx="10.5" cy="11.5" r="1.5" fill="#61616b" data-color="color-2" data-stroke="none" stroke="none"></circle><path d="M4.092,7A1.483,1.483,0,0,0,4,7.5a1.5,1.5,0,0,0,3,0A1.483,1.483,0,0,0,6.908,7Z" fill="#61616b" data-color="color-2" data-stroke="none" stroke="none"></path><path d="M9.092,7A1.483,1.483,0,0,0,9,7.5a1.5,1.5,0,0,0,3,0,1.483,1.483,0,0,0-.092-.5Z" fill="#61616b" data-stroke="none" stroke="none"></path><path d="M15.246,4.053,13.97,1.5H2.03L.753,4.053A1,1,0,0,0,1.648,5.5H5l.5-1h5l.5,1h3.352A1,1,0,0,0,15.246,4.053Z" fill="none" stroke="#61616b" stroke-linecap="round" stroke-linejoin="round"></path></g></svg>