<svg xmlns="http://www.w3.org/2000/svg" height="64" width="64" viewBox="0 0 64 64"><title>makeup blush 2</title><g stroke-linecap="round" fill="#61616b" stroke-linejoin="round" class="nc-icon-wrapper"><path d="M41,39A16,16,0,0,1,25,23l16-6,6,6Z" fill="none" stroke="#61616b" stroke-width="2" data-color="color-2"></path><polyline points="36.999 32 34.246 37.508 34.609 36.781" fill="none" stroke="#61616b" stroke-width="2" data-color="color-2"></polyline><path d="M58.758,11.242,47,23l-6-6L52.758,5.243a4.242,4.242,0,0,1,6,0h0A4.243,4.243,0,0,1,58.758,11.242Z" fill="none" stroke="#61616b" stroke-width="2" data-color="color-2"></path><path d="M37.708,11.806A21.062,21.062,0,1,0,52.194,26.291" fill="none" stroke="#61616b" stroke-width="2"></path><path d="M43.94,5.574A29,29,0,1,0,58.426,20.059" fill="none" stroke="#61616b" stroke-width="2"></path></g></svg>