<svg xmlns="http://www.w3.org/2000/svg" height="64" width="64" viewBox="0 0 64 64"><title>makeup palette 2</title><g stroke-linecap="round" fill="#61616b" stroke-linejoin="round" class="nc-icon-wrapper"><path d="M56,25V55a5,5,0,0,1-5,5H13a5,5,0,0,1-5-5V25" fill="none" stroke="#61616b" stroke-width="2"></path><path d="M4.26,12.419,7.067,4h49.87l2.806,8.419A5,5,0,0,1,55,19H40l-2-3H26l-2,3H9A5,5,0,0,1,4.26,12.419Z" fill="none" stroke="#61616b" stroke-width="2" data-cap="butt"></path><circle cx="18" cy="39" r="4" fill="none" stroke="#61616b" stroke-width="2" data-cap="butt"></circle><circle cx="32" cy="39" r="4" fill="none" stroke="#61616b" stroke-width="2" data-color="color-2"></circle><circle cx="46" cy="39" r="4" fill="none" stroke="#61616b" stroke-width="2" data-cap="butt"></circle><path d="M22,25a4,4,0,0,1-8,0" fill="none" stroke="#61616b" stroke-width="2" data-color="color-2"></path><path d="M36,25a4,4,0,0,1-8,0" fill="none" stroke="#61616b" stroke-width="2"></path><line x1="17" y1="51" x2="47" y2="51" fill="none" stroke="#61616b" stroke-width="2"></line><path d="M42,25a4,4,0,0,0,8,0" fill="none" stroke="#61616b" stroke-width="2" data-color="color-2"></path></g></svg>