<svg xmlns="http://www.w3.org/2000/svg" height="48" width="48" viewBox="0 0 48 48"><title>makeup palette 3</title><g stroke-linecap="round" fill="#61616b" stroke-linejoin="round" class="nc-icon-wrapper"><path d="M13,19a4,4,0,0,0,8,0" fill="none" stroke="#61616b" stroke-width="2" data-color="color-2"></path><path d="M27,19a4,4,0,0,0,8,0" fill="none" stroke="#61616b" stroke-width="2"></path><path d="M42,19V41a4,4,0,0,1-4,4H10a4,4,0,0,1-4-4V19" fill="none" stroke="#61616b" stroke-width="2"></path><path d="M4.241,8.633,6.289,3H41.71l2.049,5.633A4,4,0,0,1,40,14H8A4,4,0,0,1,4.241,8.633Z" fill="none" stroke="#61616b" stroke-width="2" data-cap="butt"></path><circle cx="17" cy="33" r="4" fill="none" stroke="#61616b" stroke-width="2" data-cap="butt"></circle><circle cx="31" cy="33" r="4" fill="none" stroke="#61616b" stroke-width="2" data-color="color-2"></circle></g></svg>