<svg xmlns="http://www.w3.org/2000/svg" height="32" width="32" viewBox="0 0 32 32"><title>makeup palette 4</title><g stroke-linecap="round" fill="#61616b" stroke-linejoin="round" class="nc-icon-wrapper"><path d="M29,14V28a3,3,0,0,1-3,3H6a3,3,0,0,1-3-3V14" fill="none" stroke="#61616b" stroke-width="2"></path><path d="M1.154,6.051,2.837,1H29.162l1.684,5.05A3,3,0,0,1,28,10H4A3,3,0,0,1,1.154,6.051Z" fill="none" stroke="#61616b" stroke-width="2" data-cap="butt"></path><circle cx="11" cy="24" r="3" fill="none" stroke="#61616b" stroke-width="2" data-cap="butt"></circle><circle cx="21" cy="24" r="3" fill="none" stroke="#61616b" stroke-width="2" data-cap="butt" data-color="color-2"></circle><path d="M8,14a3,3,0,0,0,6,0" fill="none" stroke="#61616b" stroke-width="2" data-color="color-2"></path><path d="M18,14a3,3,0,0,0,6,0" fill="none" stroke="#61616b" stroke-width="2"></path></g></svg>