<svg xmlns="http://www.w3.org/2000/svg" height="64" width="64" viewBox="0 0 64 64"><title>massage 2</title><g stroke-linecap="round" fill="#61616b" stroke-linejoin="round" class="nc-icon-wrapper"><circle cx="19.5" cy="8.5" r="5.5" fill="none" stroke="#61616b" stroke-width="2" data-color="color-2"></circle><circle cx="50.5" cy="40.5" r="5.5" fill="none" stroke="#61616b" stroke-width="2"></circle><line x1="19" y1="43" x2="19" y2="60" fill="none" stroke="#61616b" stroke-width="2"></line><path d="M5,38,9.7,22.546A5,5,0,0,1,14.482,19H18.35a4,4,0,0,1,3.655,2.375l3.3,7.423,6.93,3.465a3.081,3.081,0,0,1,1.616,3.677,3,3,0,0,1-4.193,1.743l-8-4a2.994,2.994,0,0,1-1.4-1.465l-2.872-6.462" fill="none" stroke="#61616b" stroke-width="2" data-color="color-2"></path><path d="M3,43H32.171c4.326,0,5.6.527,6.536,1.464l9.184,9.183,9.157-2.5a3.113,3.113,0,0,1,3.8,1.906A3,3,0,0,1,58.789,56.9l-11,3A3.039,3.039,0,0,1,47,60a3,3,0,0,1-2.121-.879L38.758,53H24" fill="none" stroke="#61616b" stroke-width="2"></path><polyline points="18.542 29.638 18.774 28.877 16 38" fill="none" stroke="#61616b" stroke-width="2" data-color="color-2"></polyline></g></svg>