<svg xmlns="http://www.w3.org/2000/svg" height="48" width="48" viewBox="0 0 48 48"><title>mustache 3</title><g stroke-linecap="round" fill="#61616b" stroke-linejoin="round" class="nc-icon-wrapper"><path d="M35.5,31.229C33.224,30.017,31.656,27,28.375,27A5.852,5.852,0,0,0,24,29a5.852,5.852,0,0,0-4.375-2c-3.281,0-4.849,3.017-7.126,4.229C9.757,32.687,5.807,33.34,3,30.667,3,37.97,8.909,39,12.545,39A13.579,13.579,0,0,0,24,34a13.579,13.579,0,0,0,11.455,5C39.091,39,45,37.97,45,30.667,42.193,33.34,38.243,32.687,35.5,31.229Z" fill="none" stroke="#61616b" stroke-width="2"></path><circle cx="14" cy="16" r="7" fill="none" stroke="#61616b" stroke-width="2" data-color="color-2"></circle><circle cx="34" cy="16" r="7" fill="none" stroke="#61616b" stroke-width="2" data-color="color-2"></circle><path d="M21,16a5,5,0,0,1,6,0" fill="none" stroke="#61616b" stroke-width="2" data-cap="butt" data-color="color-2"></path><line x1="45" y1="16" x2="41" y2="16" fill="none" stroke="#61616b" stroke-width="2" data-color="color-2"></line><line x1="7" y1="16" x2="3" y2="16" fill="none" stroke="#61616b" stroke-width="2" data-color="color-2"></line></g></svg>