<svg xmlns="http://www.w3.org/2000/svg" height="64" width="64" viewBox="0 0 64 64"><title>mustache 2</title><g stroke-linecap="round" fill="#61616b" stroke-linejoin="round" class="nc-icon-wrapper"><path d="M47.882,41.99C44.738,40.275,42.573,36,38.042,36c-2.417,0-3.969.853-6.042,2.833C29.927,36.853,28.375,36,25.958,36c-4.531,0-6.7,4.275-9.84,5.99-3.787,2.067-9.241,2.992-13.118-.8C3,51.541,11.161,53,16.182,53,19.289,53,26.476,53,32,45.917,37.524,53,44.711,53,47.818,53,52.839,53,61,51.541,61,41.194,57.123,44.982,51.669,44.057,47.882,41.99Z" fill="none" stroke="#61616b" stroke-width="2"></path><circle cx="19" cy="21" r="10" fill="none" stroke="#61616b" stroke-width="2" data-color="color-2"></circle><circle cx="45" cy="21" r="10" fill="none" stroke="#61616b" stroke-width="2" data-color="color-2"></circle><path d="M29,21a3.25,3.25,0,0,1,6,0" fill="none" stroke="#61616b" stroke-width="2" data-cap="butt" data-color="color-2"></path><line x1="9" y1="21" x2="3" y2="21" fill="none" stroke="#61616b" stroke-width="2" data-color="color-2"></line><line x1="61" y1="21" x2="55" y2="21" fill="none" stroke="#61616b" stroke-width="2" data-color="color-2"></line></g></svg>