<svg xmlns="http://www.w3.org/2000/svg" height="32" width="32" viewBox="0 0 32 32"><title>nail file 4</title><g stroke-linecap="round" fill="#61616b" stroke-linejoin="round" class="nc-icon-wrapper"><line x1="7.814" y1="18.394" x2="13.6" y2="24.18" fill="none" stroke="#61616b" stroke-width="2" data-cap="butt"></line><polyline points="18 16 21.657 16 21 16" fill="none" stroke="#61616b" stroke-width="2" data-color="color-2"></polyline><polyline points="23 11 26.657 11 26 11" fill="none" stroke="#61616b" stroke-width="2" data-color="color-2"></polyline><polyline points="19 11 19 7.343 19 8" fill="none" stroke="#61616b" stroke-width="2" data-color="color-2"></polyline><polyline points="24 6 24 2.343 24 3" fill="none" stroke="#61616b" stroke-width="2" data-color="color-2"></polyline><polyline points="14 16 14 12.343 14 13" fill="none" stroke="#61616b" stroke-width="2" data-color="color-2"></polyline><circle cx="5" cy="27" r="1.25" fill="#61616b" data-color="color-2" data-stroke="none" stroke="none"></circle><path d="M29.828,2.172a4,4,0,0,0-5.656,0l-22,22a4,4,0,0,0,5.656,5.656l22-22A4,4,0,0,0,29.828,2.172Z" fill="none" stroke="#61616b" stroke-width="2" data-cap="butt"></path></g></svg>