<svg xmlns="http://www.w3.org/2000/svg" height="64" width="64" viewBox="0 0 64 64"><title>nail file 2</title><g stroke-linecap="round" fill="#61616b" stroke-linejoin="round" class="nc-icon-wrapper"><line x1="16.468" y1="37.632" x2="26.368" y2="47.532" fill="none" stroke="#61616b" stroke-width="2" data-cap="butt"></line><polyline points="33.003 34.009 39.891 34.009 39 34.009" fill="none" stroke="#61616b" stroke-width="2" data-color="color-2"></polyline><polyline points="43 24.01 49.899 24 49 24" fill="none" stroke="#61616b" stroke-width="2" data-color="color-2"></polyline><polyline points="53 14 59.746 14 59 14" fill="none" stroke="#61616b" stroke-width="2" data-color="color-2"></polyline><polyline points="37.002 24.01 37.002 17.098 37 18.01" fill="none" stroke="#61616b" stroke-width="2" data-color="color-2"></polyline><polyline points="47.001 14.011 47.001 7.099 47.001 8" fill="none" stroke="#61616b" stroke-width="2" data-color="color-2"></polyline><polyline points="27.003 34.009 27.003 27.097 27.003 28.009" fill="none" stroke="#61616b" stroke-width="2" data-color="color-2"></polyline><circle cx="10.005" cy="54.007" r="1" fill="#61616b" stroke="none" data-color="color-2" data-stroke="none"></circle><circle cx="10.005" cy="54.007" r="1" fill="none" stroke="#61616b" stroke-width="2" data-cap="butt" data-color="color-2"></circle><path d="M58.95,14.95a7,7,0,0,0-9.9-9.9l-44,44a7,7,0,0,0,9.9,9.9Z" fill="none" stroke="#61616b" stroke-width="2"></path></g></svg>