<svg xmlns="http://www.w3.org/2000/svg" height="64" width="64" viewBox="0 0 64 64"><title>nail polish 4</title><g stroke-linecap="round" fill="#61616b" stroke-linejoin="round" class="nc-icon-wrapper"><line x1="29.092" y1="54.707" x2="25.556" y2="51.172" fill="none" stroke="#61616b" stroke-width="2"></line><line x1="25.556" y1="58.243" x2="22.021" y2="54.707" fill="none" stroke="#61616b" stroke-width="2"></line><line x1="16.364" y1="34.908" x2="12.828" y2="31.373" fill="none" stroke="#61616b" stroke-width="2"></line><line x1="12.828" y1="38.444" x2="9.293" y2="34.908" fill="none" stroke="#61616b" stroke-width="2"></line><path d="M4,55.757,28.783,30.975a8.477,8.477,0,0,0,2.456-6.7" fill="none" stroke="#61616b" stroke-width="2" data-cap="butt"></path><path d="M23.461,16.5a8.476,8.476,0,0,0-6.7,2.457L4,31.716" fill="none" stroke="#61616b" stroke-width="2" data-cap="butt"></path><path d="M36.189,36.3a8.476,8.476,0,0,0-6.7,2.457L8.243,60" fill="none" stroke="#61616b" stroke-width="2" data-cap="butt"></path><path d="M32.284,60l9.226-9.226a8.475,8.475,0,0,0,2.457-6.7" fill="none" stroke="#61616b" stroke-width="2" data-cap="butt"></path><path d="M44.3,35.969a8.455,8.455,0,0,1,2.456,5.321L39.7,48.343a4,4,0,0,1-5.656,0L31.92,46.222a4,4,0,0,1,0-5.657l7.053-7.053A8.461,8.461,0,0,1,44.3,35.969Z" fill="none" stroke="#61616b" stroke-width="2" data-color="color-2"></path><path d="M31.567,16.17a8.455,8.455,0,0,1,2.456,5.321l-7.052,7.053a4,4,0,0,1-5.657,0l-2.122-2.121a4,4,0,0,1,0-5.657l7.053-7.053A8.459,8.459,0,0,1,31.567,16.17Z" fill="none" stroke="#61616b" stroke-width="2" data-color="color-2"></path><line x1="56" y1="16.243" x2="51.757" y2="12" fill="none" stroke="#61616b" stroke-width="2"></line><path d="M59.757,4l-8,8-9.8,5.839a6,6,0,1,0,7.291,9.4,10.96,10.96,0,0,0,.922-1.191L56,16.243l5-5" fill="none" stroke="#61616b" stroke-width="2"></path><path d="M60,54a5,5,0,0,1-5-5" fill="none" stroke="#61616b" stroke-width="2"></path><path d="M55,49a5,5,0,0,1-5,5" fill="none" stroke="#61616b" stroke-width="2"></path><path d="M60,54a5,5,0,0,0-5,5" fill="none" stroke="#61616b" stroke-width="2"></path><path d="M55,59a5,5,0,0,0-5-5" fill="none" stroke="#61616b" stroke-width="2"></path><path d="M14,9A5,5,0,0,1,9,4" fill="none" stroke="#61616b" stroke-width="2"></path><path d="M9,4A5,5,0,0,1,4,9" fill="none" stroke="#61616b" stroke-width="2"></path><path d="M14,9a5,5,0,0,0-5,5" fill="none" stroke="#61616b" stroke-width="2"></path><path d="M9,14A5,5,0,0,0,4,9" fill="none" stroke="#61616b" stroke-width="2"></path></g></svg>