<svg xmlns="http://www.w3.org/2000/svg" height="48" width="48" viewBox="0 0 48 48"><title>nail polish 5</title><g stroke-linecap="round" fill="#61616b" stroke-linejoin="round" class="nc-icon-wrapper"><path d="M21,45V20.438a8.478,8.478,0,0,0-3-6.475" fill="none" stroke="#61616b" stroke-width="2" data-cap="butt"></path><path d="M7,13.963a8.478,8.478,0,0,0-3,6.475V45" fill="none" stroke="#61616b" stroke-width="2" data-cap="butt"></path><path d="M44,45V15.438a8.478,8.478,0,0,0-3-6.475" fill="none" stroke="#61616b" stroke-width="2" data-cap="butt"></path><path d="M30,8.963a8.478,8.478,0,0,0-3,6.475V45" fill="none" stroke="#61616b" stroke-width="2" data-cap="butt"></path><path d="M12.5,8A8.461,8.461,0,0,0,7,10.026V20a4,4,0,0,0,4,4h3a4,4,0,0,0,4-4V10.026A8.461,8.461,0,0,0,12.5,8Z" fill="none" stroke="#61616b" stroke-width="2" data-color="color-2"></path><path d="M35.5,3A8.461,8.461,0,0,0,30,5.026V15a4,4,0,0,0,4,4h3a4,4,0,0,0,4-4V5.026A8.461,8.461,0,0,0,35.5,3Z" fill="none" stroke="#61616b" stroke-width="2" data-color="color-2"></path><line x1="10" y1="32" x2="15" y2="32" fill="none" stroke="#61616b" stroke-width="2"></line><line x1="10" y1="37" x2="15" y2="37" fill="none" stroke="#61616b" stroke-width="2"></line><line x1="33" y1="27" x2="38" y2="27" fill="none" stroke="#61616b" stroke-width="2"></line><line x1="33" y1="32" x2="38" y2="32" fill="none" stroke="#61616b" stroke-width="2"></line></g></svg>