<svg xmlns="http://www.w3.org/2000/svg" height="48" width="48" viewBox="0 0 48 48"><title>nail file 3</title><g stroke-linecap="round" fill="#61616b" stroke-linejoin="round" class="nc-icon-wrapper"><polyline points="37 13 43.469 13 42 13" fill="none" stroke="#61616b" stroke-width="2" data-color="color-2"></polyline><polyline points="29 21 35.469 21 34 21" fill="none" stroke="#61616b" stroke-width="2" data-color="color-2"></polyline><polyline points="31 15 31 8.515 31 10" fill="none" stroke="#61616b" stroke-width="2" data-color="color-2"></polyline><polyline points="39 7 39 2.084 39 3" fill="none" stroke="#61616b" stroke-width="2" data-color="color-2"></polyline><polyline points="23 23 23 16.515 23 18" fill="none" stroke="#61616b" stroke-width="2" data-color="color-2"></polyline><path d="M12.243,44.243a6,6,0,0,1-8.486-8.486L23.515,16,35.757,3.757a6,6,0,0,1,8.486,8.486Z" fill="none" stroke="#61616b" stroke-width="2" data-cap="butt"></path><line x1="14" y1="25.515" x2="22.485" y2="34" fill="none" stroke="#61616b" stroke-width="2" data-cap="butt"></line><circle cx="8" cy="40" r="1" fill="#61616b" stroke="none" data-color="color-2" data-stroke="none"></circle><circle cx="8" cy="40" r="1" fill="none" stroke="#61616b" stroke-width="2" data-color="color-2"></circle></g></svg>