<svg xmlns="http://www.w3.org/2000/svg" height="48" width="48" viewBox="0 0 48 48"><title>neck duster 3</title><g stroke-linecap="round" fill="#61616b" stroke-linejoin="round" class="nc-icon-wrapper"><path d="M18,19,12,5A24.623,24.623,0,0,1,24,2,24.623,24.623,0,0,1,36,5L30,19" fill="none" stroke="#61616b" stroke-width="2" data-cap="butt" data-color="color-2"></path><line x1="30.073" y1="2.708" x2="28" y2="11" fill="none" stroke="#61616b" stroke-width="2" data-cap="butt" data-color="color-2"></line><path d="M31.4,33.874c-1.276-1.943-1.393-4.077-1.4-6.5V19H18v8.378c-.006,2.419-.123,4.553-1.4,6.5A9,9,0,0,0,18.349,46h11.3A9,9,0,0,0,31.4,33.874Z" fill="none" stroke="#61616b" stroke-width="2" data-cap="butt"></path><line x1="18" y1="28" x2="30" y2="28" fill="none" stroke="#61616b" stroke-width="2" data-cap="butt"></line></g></svg>