<svg xmlns="http://www.w3.org/2000/svg" height="64" width="64" viewBox="0 0 64 64"><title>neck duster 2</title><g stroke-linecap="round" fill="#61616b" stroke-linejoin="round" class="nc-icon-wrapper"><path d="M25,25,16.182,6.955A32.452,32.452,0,0,1,32,3,32.452,32.452,0,0,1,47.818,6.955L39,25" fill="none" stroke="#61616b" stroke-width="2" data-cap="butt" data-color="color-2"></path><line x1="40.005" y1="3.933" x2="37.273" y2="14.864" fill="none" stroke="#61616b" stroke-width="2" data-cap="butt" data-color="color-2"></line><path d="M41.043,45.016A14.049,14.049,0,0,1,39,37V25H25V37a14.049,14.049,0,0,1-2.043,8.016A13.3,13.3,0,0,0,21,52a11.643,11.643,0,0,0,4,9H39a11.643,11.643,0,0,0,4-9A13.3,13.3,0,0,0,41.043,45.016Z" fill="none" stroke="#61616b" stroke-width="2" data-cap="butt"></path><line x1="25" y1="37" x2="39" y2="37" fill="none" stroke="#61616b" stroke-width="2" data-cap="butt"></line></g></svg>