<svg xmlns="http://www.w3.org/2000/svg" height="64" width="64" viewBox="0 0 64 64"><title>perfume 3</title><g stroke-linecap="round" fill="#61616b" stroke-linejoin="round" class="nc-icon-wrapper"><path d="M18,45.343A21.018,21.018,0,0,0,37,44a21.018,21.018,0,0,1,19-1.343" fill="none" stroke="#61616b" stroke-width="2" data-cap="butt" data-color="color-2"></path><path d="M14.853,21.755A7,7,0,1,0,5.787,32.062a7.02,7.02,0,0,0,1.879.746L11.019,27A29.939,29.939,0,0,1,32,12.42" fill="none" stroke="#61616b" stroke-width="2" data-cap="butt"></path><polyline points="42 22.63 41.999 4 31.999 4 32 22.63" fill="none" stroke="#61616b" stroke-width="2" data-cap="butt"></polyline><line x1="60" y1="11.999" x2="56" y2="12" fill="none" stroke="#61616b" stroke-width="2" data-color="color-2"></line><line x1="57" y1="4" x2="53.999" y2="6" fill="none" stroke="#61616b" stroke-width="2" data-color="color-2"></line><line x1="54" y1="18" x2="57" y2="19.999" fill="none" stroke="#61616b" stroke-width="2" data-color="color-2"></line><line x1="42" y1="12" x2="47" y2="12" fill="none" stroke="#61616b" stroke-width="2"></line><path d="M37,22h0A19,19,0,0,1,56,41V55a5,5,0,0,1-5,5H23a5,5,0,0,1-5-5V41A19,19,0,0,1,37,22Z" fill="none" stroke="#61616b" stroke-width="2"></path></g></svg>