<svg xmlns="http://www.w3.org/2000/svg" height="48" width="48" viewBox="0 0 48 48"><title>perfume 2</title><g stroke-linecap="round" fill="#61616b" stroke-linejoin="round" class="nc-icon-wrapper"><path d="M39.988,31.77A13.983,13.983,0,0,0,26,32a13.983,13.983,0,0,1-13.988.23" fill="none" stroke="#61616b" stroke-width="2" data-cap="butt" data-color="color-2"></path><polyline points="30 18.587 30 4 22 4 22 18.587" fill="none" stroke="#61616b" stroke-width="2" data-cap="butt"></polyline><line x1="43" y1="9" x2="40" y2="9" fill="none" stroke="#61616b" stroke-width="2" data-color="color-2"></line><line x1="41" y1="3" x2="38" y2="4" fill="none" stroke="#61616b" stroke-width="2" data-color="color-2"></line><line x1="38" y1="14" x2="41" y2="15" fill="none" stroke="#61616b" stroke-width="2" data-color="color-2"></line><line x1="30" y1="9" x2="33" y2="9" fill="none" stroke="#61616b" stroke-width="2"></line><path d="M40,32a14,14,0,0,0-28,0v9a4,4,0,0,0,4,4H36a4,4,0,0,0,4-4Z" fill="none" stroke="#61616b" stroke-width="2" data-cap="butt"></path><path d="M12.07,14.217A5,5,0,1,0,5.215,21a5.063,5.063,0,0,0,.917.413l.449-.779A22.939,22.939,0,0,1,22,9.584" fill="none" stroke="#61616b" stroke-width="2" data-cap="butt"></path></g></svg>