<svg xmlns="http://www.w3.org/2000/svg" height="48" width="48" viewBox="0 0 48 48"><title>razor 3</title><g stroke-linecap="round" fill="#61616b" stroke-linejoin="round" class="nc-icon-wrapper"><path d="M7.951,23.754h9.293a0,0,0,0,1,0,0V42.4A4.646,4.646,0,0,1,12.6,47.051h0A4.646,4.646,0,0,1,7.951,42.4V23.754a0,0,0,0,1,0,0Z" transform="translate(28.723 1.461) rotate(45)" fill="none" stroke="#61616b" stroke-width="2" data-cap="butt"></path><path d="M18.963,25.3l4.942-4.943c2.828-2.828,1.414-7.071,1.414-7.071" fill="none" stroke="#61616b" stroke-width="2" data-cap="butt"></path><path d="M34.719,22.681s-4.243-1.414-7.071,1.414l-4.943,4.942" fill="none" stroke="#61616b" stroke-width="2" data-cap="butt"></path><rect x="21.312" y="9.967" width="24.042" height="9.401" transform="translate(20.134 -19.273) rotate(45)" fill="none" stroke="#61616b" stroke-width="2" data-color="color-2"></rect><line x1="24.832" y1="6.168" x2="41.832" y2="23.168" fill="none" stroke="#61616b" stroke-width="2" data-cap="butt" data-color="color-2"></line></g></svg>