<svg xmlns="http://www.w3.org/2000/svg" height="24" width="24" viewBox="0 0 24 24"><title>sauna</title><g stroke-linecap="round" fill="#61616b" stroke-linejoin="round" class="nc-icon-wrapper"><line x1="1" y1="18" x2="23" y2="18" fill="none" stroke="#61616b" stroke-width="2"></line><circle cx="12" cy="3" r="2" fill="none" stroke="#61616b" stroke-width="2"></circle><path d="M6,18,7.678,9.608A2,2,0,0,1,9.64,8h4.72a2,2,0,0,1,1.962,1.608L18,18" fill="none" stroke="#61616b" stroke-width="2" data-cap="butt"></path><line x1="10" y1="16" x2="10" y2="23" fill="none" stroke="#61616b" stroke-width="2"></line><line x1="14" y1="16" x2="14" y2="23" fill="none" stroke="#61616b" stroke-width="2"></line><path d="M3.209,7A2.217,2.217,0,0,0,3,4.5,2.217,2.217,0,0,1,2.791,2" fill="none" stroke="#61616b" stroke-width="2" data-color="color-2"></path><path d="M21.709,7A2.217,2.217,0,0,0,21.5,4.5,2.217,2.217,0,0,1,21.291,2" fill="none" stroke="#61616b" stroke-width="2" data-color="color-2"></path></g></svg>