<svg xmlns="http://www.w3.org/2000/svg" height="48" width="48" viewBox="0 0 48 48"><title>sauna 3</title><g stroke-linecap="round" fill="#61616b" stroke-linejoin="round" class="nc-icon-wrapper"><line x1="4" y1="34" x2="44" y2="34" fill="none" stroke="#61616b" stroke-width="2"></line><circle cx="24" cy="7.5" r="4.5" fill="none" stroke="#61616b" stroke-width="2"></circle><path d="M13,34l2.417-13.695A4,4,0,0,1,19.356,17h9.288a4,4,0,0,1,3.939,3.305L35,34" fill="none" stroke="#61616b" stroke-width="2" data-cap="butt"></path><line x1="20" y1="30" x2="20" y2="45" fill="none" stroke="#61616b" stroke-width="2"></line><line x1="28" y1="30" x2="28" y2="45" fill="none" stroke="#61616b" stroke-width="2"></line><path d="M3.96,22A3.574,3.574,0,0,0,4,17H4a3.574,3.574,0,0,1,.04-5" fill="none" stroke="#61616b" stroke-width="2" data-color="color-2"></path><path d="M8.96,13A3.574,3.574,0,0,0,9,8H9a3.574,3.574,0,0,1,.04-5" fill="none" stroke="#61616b" stroke-width="2" data-color="color-2"></path><path d="M43.96,22A3.574,3.574,0,0,0,44,17h0a3.574,3.574,0,0,1,.04-5" fill="none" stroke="#61616b" stroke-width="2" data-color="color-2"></path><path d="M37.96,13A3.574,3.574,0,0,0,38,8h0a3.574,3.574,0,0,1,.04-5" fill="none" stroke="#61616b" stroke-width="2" data-color="color-2"></path></g></svg>