<svg xmlns="http://www.w3.org/2000/svg" height="64" width="64" viewBox="0 0 64 64"><title>sauna 2</title><g stroke-linecap="round" fill="#61616b" stroke-linejoin="round" class="nc-icon-wrapper"><line x1="4" y1="45" x2="23.132" y2="45" fill="none" stroke="#61616b" stroke-width="2" data-cap="butt"></line><circle cx="32" cy="10" r="6" fill="none" stroke="#61616b" stroke-width="2"></circle><path d="M5.44,32a6.669,6.669,0,0,0,.06-8.5h0A6.669,6.669,0,0,1,5.56,15" fill="none" stroke="#61616b" stroke-width="2" data-color="color-2"></path><path d="M13.44,22a6.669,6.669,0,0,0,.06-8.5h0A6.669,6.669,0,0,1,13.56,5" fill="none" stroke="#61616b" stroke-width="2" data-color="color-2"></path><path d="M50.44,22a6.669,6.669,0,0,0,.06-8.5h0A6.669,6.669,0,0,1,50.56,5" fill="none" stroke="#61616b" stroke-width="2" data-color="color-2"></path><path d="M58.44,32a6.669,6.669,0,0,0,.06-8.5h0a6.669,6.669,0,0,1,.06-8.5" fill="none" stroke="#61616b" stroke-width="2" data-color="color-2"></path><path d="M26,40.013a3,3,0,0,0-3,3c0,.067.007.2.007.2l1,14.389A2.5,2.5,0,0,0,29,57.5V43.013A3,3,0,0,0,26,40.013Z" fill="none" stroke="#61616b" stroke-width="2"></path><path d="M26,40.013a3,3,0,0,0-3,3c0,.067.007.2.007.2l1,14.389A2.5,2.5,0,0,0,29,57.5V43.013A3,3,0,0,0,26,40.013Z" fill="none" stroke="#61616b" stroke-width="2"></path><path d="M38,40a3,3,0,0,1,3,3c0,.067-.007.2-.007.2l-1,14.388a2.5,2.5,0,0,1-4.99-.1V43A3,3,0,0,1,38,40Z" fill="none" stroke="#61616b" stroke-width="2"></path><path d="M16,45l4.154-18.435a6,6,0,0,1,5.854-4.681h11.96a6,6,0,0,1,5.859,4.71l4.01,18.22" fill="none" stroke="#61616b" stroke-width="2" data-cap="butt"></path><line x1="29" y1="45" x2="35" y2="45" fill="none" stroke="#61616b" stroke-width="2" data-cap="butt"></line><line x1="40.867" y1="45" x2="60" y2="45" fill="none" stroke="#61616b" stroke-width="2" data-cap="butt"></line></g></svg>