<svg xmlns="http://www.w3.org/2000/svg" height="32" width="32" viewBox="0 0 32 32"><title>sauna 4</title><g stroke-linecap="round" fill="#61616b" stroke-linejoin="round" class="nc-icon-wrapper"><line x1="2" y1="23" x2="30" y2="23" fill="none" stroke="#61616b" stroke-width="2"></line><circle cx="16" cy="4" r="3" fill="none" stroke="#61616b" stroke-width="2"></circle><path d="M8,23,9.609,12.544A3,3,0,0,1,12.574,10h6.852a3,3,0,0,1,2.965,2.544L24,23" fill="none" stroke="#61616b" stroke-width="2" data-cap="butt"></path><line x1="13" y1="21" x2="13" y2="31" fill="none" stroke="#61616b" stroke-width="2"></line><line x1="19" y1="21" x2="19" y2="31" fill="none" stroke="#61616b" stroke-width="2"></line><path d="M3.419,12A4.435,4.435,0,0,0,3,7a4.435,4.435,0,0,1-.419-5" fill="none" stroke="#61616b" stroke-width="2" data-color="color-2"></path><path d="M29.419,12A4.435,4.435,0,0,0,29,7a4.435,4.435,0,0,1-.419-5" fill="none" stroke="#61616b" stroke-width="2" data-color="color-2"></path></g></svg>