<svg xmlns="http://www.w3.org/2000/svg" height="32" width="32" viewBox="0 0 32 32"><title>scented candle 5</title><g stroke-linecap="round" fill="#61616b" stroke-linejoin="round" class="nc-icon-wrapper"><path d="M2,18v8c0,2.761,6.268,5,14,5s14-2.239,14-5V18" fill="none" stroke="#61616b" stroke-width="2"></path><path d="M8.924,13.691C4.786,14.56,2,16.162,2,18c0,2.761,6.268,5,14,5s14-2.239,14-5c0-1.838-2.786-3.44-6.924-4.309" fill="none" stroke="#61616b" stroke-width="2"></path><path d="M19,14a5,5,0,0,0,2-4c0-1.4-.25-5.206-5.555-8.312A7.568,7.568,0,0,1,14,5c-.861,1.125-3,2.239-3,5a5,5,0,0,0,2,4" fill="none" stroke="#61616b" stroke-width="2" data-color="color-2"></path><line x1="16" y1="11" x2="16" y2="18" fill="none" stroke="#61616b" stroke-width="2"></line></g></svg>