<svg xmlns="http://www.w3.org/2000/svg" height="48" width="48" viewBox="0 0 48 48"><title>scented candle 3</title><g stroke-linecap="round" fill="#61616b" stroke-linejoin="round" class="nc-icon-wrapper"><path d="M3,26.5v12C3,42.642,12.4,46,24,46s21-3.358,21-7.5v-12" fill="none" stroke="#61616b" stroke-width="2" data-cap="butt"></path><line x1="24" y1="16" x2="24" y2="26" fill="none" stroke="#61616b" stroke-width="2"></line><path d="M13.151,20.087C7.075,21.4,3,23.778,3,26.5,3,30.642,12.4,34,24,34s21-3.358,21-7.5c0-2.722-4.075-5.1-10.151-6.413" fill="none" stroke="#61616b" stroke-width="2"></path><path d="M29,19.879A6.99,6.99,0,0,0,31,15c0-1.958-.35-7.289-7.777-11.638A10.6,10.6,0,0,1,21.2,8C19.994,9.575,17,11.134,17,15a6.986,6.986,0,0,0,2,4.878" fill="none" stroke="#61616b" stroke-width="2" data-color="color-2"></path></g></svg>