<svg xmlns="http://www.w3.org/2000/svg" height="64" width="64" viewBox="0 0 64 64"><title>scented candle 2</title><g stroke-linecap="round" fill="#61616b" stroke-linejoin="round" class="nc-icon-wrapper"><path d="M4,35V50c0,5.523,12.536,10,28,10s28-4.477,28-10V35" fill="none" stroke="#61616b" stroke-width="2" data-cap="butt"></path><line x1="32" y1="21" x2="32" y2="35" fill="none" stroke="#61616b" stroke-width="2"></line><path d="M18.831,26.18C10.011,27.863,4,31.179,4,35c0,5.523,12.536,10,28,10s28-4.477,28-10c0-3.821-6.011-7.137-14.831-8.82" fill="none" stroke="#61616b" stroke-width="2"></path><path d="M37,26.482A8.989,8.989,0,0,0,41,19c0-4.971-3-10-10-15-2,8-8,8-8,15a8.989,8.989,0,0,0,4,7.482" fill="none" stroke="#61616b" stroke-width="2" data-color="color-2"></path></g></svg>