<svg xmlns="http://www.w3.org/2000/svg" height="16" width="16" viewBox="0 0 16 16"><title>scented candle</title><g fill="#61616b" class="nc-icon-wrapper"><path d="M1.5,8v5c0,1.381,2.91,2.5,6.5,2.5s6.5-1.119,6.5-2.5V8" fill="none" stroke="#61616b" stroke-linecap="round" stroke-linejoin="round"></path><path d="M3.665,6.141C2.339,6.6,1.5,7.261,1.5,8c0,1.381,2.91,2.5,6.5,2.5S14.5,9.381,14.5,8c0-.739-.839-1.4-2.165-1.859" fill="none" stroke="#61616b" stroke-linecap="round" stroke-linejoin="round"></path><path d="M10,6.486A2.477,2.477,0,0,0,10.5,5,5.5,5.5,0,0,0,7.5.5c0,2-2,3-2,4.5A2.477,2.477,0,0,0,6,6.486" fill="none" stroke="#61616b" stroke-linecap="round" stroke-linejoin="round" data-color="color-2"></path><line x1="8" y1="5.214" x2="8" y2="8.464" fill="none" stroke="#61616b" stroke-linecap="round" stroke-linejoin="round"></line></g></svg>