<svg xmlns="http://www.w3.org/2000/svg" height="24" width="24" viewBox="0 0 24 24"><title>scented candle 4</title><g stroke-linecap="round" fill="#61616b" stroke-linejoin="round" class="nc-icon-wrapper"><path d="M1,13v6c0,2.209,4.925,4,11,4s11-1.791,11-4V13" fill="none" stroke="#61616b" stroke-width="2" data-cap="butt"></path><path d="M11.556,2.35A6.053,6.053,0,0,1,10.4,5C9.711,5.9,8,6.791,8,9a4,4,0,0,0,2.035,3.482,2.168,2.168,0,0,1,.886-1.6A2.8,2.8,0,0,0,12,9.54a4,4,0,0,1,1.965,2.942A4,4,0,0,0,16,9C16,7.881,15.8,4.835,11.556,2.35Z" fill="none" stroke="#61616b" stroke-width="2" data-color="color-2"></path><path d="M5.062,9.906C2.591,10.639,1,11.75,1,13c0,2.209,4.925,4,11,4s11-1.791,11-4c0-1.25-1.591-2.361-4.062-3.094" fill="none" stroke="#61616b" stroke-width="2"></path></g></svg>