<svg xmlns="http://www.w3.org/2000/svg" height="32" width="32" viewBox="0 0 32 32"><title>scissors 2 4</title><g stroke-linecap="round" fill="#61616b" stroke-linejoin="round" class="nc-icon-wrapper"><path d="M13.267,25.047,13,26,20,1a3,3,0,0,1,3,3,5.218,5.218,0,0,1-.128.865L20.44,13.536a4.577,4.577,0,0,1-8.88,0L9.128,4.865A5.218,5.218,0,0,1,9,4a3,3,0,0,1,3-3l7,25-.227-.953" fill="none" stroke="#61616b" stroke-width="2" data-cap="butt"></path><path d="M9.5,22A3.5,3.5,0,0,0,6,25.5v2a3.5,3.5,0,0,0,7,0v-2A3.5,3.5,0,0,0,9.5,22Z" fill="none" stroke="#61616b" stroke-width="2" data-color="color-2"></path><path d="M22.5,22A3.5,3.5,0,0,0,19,25.5v2a3.5,3.5,0,0,0,7,0v-2A3.5,3.5,0,0,0,22.5,22Z" fill="none" stroke="#61616b" stroke-width="2" data-color="color-2"></path></g></svg>