<svg xmlns="http://www.w3.org/2000/svg" height="16" width="16" viewBox="0 0 16 16"><title>scissors 2</title><g fill="#61616b" class="nc-icon-wrapper"><path d="M9,6.627,11.842.5,12.3.71a2,2,0,0,1,.972,2.656L11.164,7.9A1.993,1.993,0,0,1,10,8.952" fill="none" stroke="#61616b" stroke-linecap="round" stroke-linejoin="round"></path><line x1="6.491" y1="12.035" x2="8" y2="8.783" fill="none" stroke="#61616b" stroke-linecap="round" stroke-linejoin="round"></line><path d="M9.509,12.035,4.158.5,3.7.71a2,2,0,0,0-.972,2.656L4.836,7.9a2,2,0,0,0,2.655.973l.454-.211" fill="none" stroke="#61616b" stroke-linecap="round" stroke-linejoin="round"></path><rect x="2.5" y="10.5" width="4" height="5" rx="2" fill="none" stroke="#61616b" stroke-linecap="round" stroke-linejoin="round" data-color="color-2"></rect><rect x="9.5" y="10.5" width="4" height="5" rx="2" transform="translate(23 26) rotate(180)" fill="none" stroke="#61616b" stroke-linecap="round" stroke-linejoin="round" data-color="color-2"></rect></g></svg>