<svg xmlns="http://www.w3.org/2000/svg" height="48" width="48" viewBox="0 0 48 48"><title>scissors 2 3</title><g stroke-linecap="round" fill="#61616b" stroke-linejoin="round" class="nc-icon-wrapper"><path d="M24,26a5.772,5.772,0,0,0,5.511-4.055L34.858,5.914A3,3,0,0,0,32,2L19.7,38.874" fill="none" stroke="#61616b" stroke-width="2" data-cap="butt"></path><path d="M24,26a5.772,5.772,0,0,1-5.511-4.055L13.142,5.914A3,3,0,0,1,16,2L28.3,38.874" fill="none" stroke="#61616b" stroke-width="2" data-cap="butt"></path><path d="M38.2,40.121A4.5,4.5,0,0,1,29.668,43L28.3,38.874a4.5,4.5,0,1,1,8.584-2.712Z" fill="none" stroke="#61616b" stroke-width="2" data-color="color-2"></path><path d="M9.8,40.121A4.5,4.5,0,0,0,18.332,43L19.7,38.874a4.5,4.5,0,1,0-8.584-2.712Z" fill="none" stroke="#61616b" stroke-width="2" data-color="color-2"></path></g></svg>