<svg xmlns="http://www.w3.org/2000/svg" height="64" width="64" viewBox="0 0 64 64"><title>scissors 2 2</title><g stroke-linecap="round" fill="#61616b" stroke-linejoin="round" class="nc-icon-wrapper"><path d="M29.061,34.394a2.994,2.994,0,0,1,2-2.229L21.333,3a4,4,0,0,0-3.787,5.289l7.223,21.645A7.7,7.7,0,0,0,29.061,34.394Z" fill="none" stroke="#61616b" stroke-width="2" data-cap="butt"></path><path d="M37.675,52,32.95,37.832a2.77,2.77,0,0,1-1.9,0L26.325,52" fill="none" stroke="#61616b" stroke-width="2" data-cap="butt"></path><path d="M42.667,3,32.94,32.165a2.994,2.994,0,0,1,2,2.229,7.7,7.7,0,0,0,4.292-4.46L46.454,8.289A4,4,0,0,0,42.667,3Z" fill="none" stroke="#61616b" stroke-width="2" data-cap="butt"></path><circle cx="32" cy="35" r="3" fill="none" stroke="#61616b" stroke-width="2" data-cap="butt"></circle><path d="M45,61a6,6,0,0,1-5.68-4.062l-2.05-6.154a6,6,0,0,1,11.41-3.722l2.05,6.154A6,6,0,0,1,45,61" fill="none" stroke="#61616b" stroke-width="2" data-color="color-2"></path><path d="M19,61a6,6,0,0,0,5.68-4.062l2.05-6.154a6,6,0,0,0-11.41-3.722l-2.05,6.154A6,6,0,0,0,19,61" fill="none" stroke="#61616b" stroke-width="2" data-color="color-2"></path></g></svg>