<svg xmlns="http://www.w3.org/2000/svg" height="32" width="32" viewBox="0 0 32 32"><title>slippers 4</title><g stroke-linecap="round" fill="#61616b" stroke-linejoin="round" class="nc-icon-wrapper"><path d="M12.993,7.631A12.936,12.936,0,0,0,1.151,9.655" fill="none" stroke="#61616b" stroke-width="2" data-cap="butt"></path><path d="M3,15.481a8.5,8.5,0,0,1,9.35-1.793" fill="none" stroke="#61616b" stroke-width="2" data-cap="butt"></path><path d="M19.007,11.631a12.936,12.936,0,0,1,11.842,2.024" fill="none" stroke="#61616b" stroke-width="2" data-cap="butt" data-color="color-2"></path><path d="M29,19.481a8.5,8.5,0,0,0-9.35-1.793" fill="none" stroke="#61616b" stroke-width="2" data-cap="butt" data-color="color-2"></path><path d="M13,23a4,4,0,0,1-7.788,1.287c-.978-2.561-.762-4.149-1.879-7.795C2.312,13.157,1,11.144,1,7.859c0-3.4,3.443-6.532,7.066-6.836C10.944.782,13,2.392,13,7.176c0,3.254-.668,3.421-.668,7.6C12.331,18.8,13.037,19.9,13,23Z" fill="none" stroke="#61616b" stroke-width="2"></path><path d="M19,27a4,4,0,0,0,7.788,1.287c.978-2.561.762-4.149,1.879-7.795C29.688,17.157,31,15.144,31,11.859c0-3.4-3.443-6.532-7.066-6.836C21.056,4.782,19,6.392,19,11.176c0,3.254.668,3.421.668,7.6C19.669,22.8,18.963,23.9,19,27Z" fill="none" stroke="#61616b" stroke-width="2" data-color="color-2"></path></g></svg>