<svg xmlns="http://www.w3.org/2000/svg" height="64" width="64" viewBox="0 0 64 64"><title>slippers 2</title><g stroke-linecap="round" fill="#61616b" stroke-linejoin="round" class="nc-icon-wrapper"><circle data-stroke="none" data-color="color-2" cx="19" cy="46" r="2" fill="#61616b" stroke="none"></circle><path data-cap="butt" d="M18,12C14.84,26.166,5.96,23.874,8.591,36.545" fill="none" stroke="#61616b" stroke-width="2"></path><path data-cap="butt" d="M25,30c0-9.063-7.087-7.7-7-18" fill="none" stroke="#61616b" stroke-width="2"></path><path d="M27,46a8,8,0,0,1-15.527,2.717c-1.966-5.024-1.534-8.177-3.78-15.33C5.639,26.847,3,22.9,3,16.455,3,9.791,9.925,3.642,17.214,3.046,23,2.572,27.136,5.73,27.136,15.114,27.136,21.5,25,21.8,25,30,25,37.884,27.074,39.914,27,46Z" fill="none" stroke="#61616b" stroke-width="2"></path><circle data-stroke="none" data-color="color-2" cx="45" cy="53" r="2" fill="#61616b" stroke="none"></circle><path data-cap="butt" data-color="color-2" d="M46,19c2,13,12.04,11.874,9.409,24.545" fill="none" stroke="#61616b" stroke-width="2"></path><path data-cap="butt" data-color="color-2" d="M39,37c0-8.934,7.087-7.7,7-18" fill="none" stroke="#61616b" stroke-width="2"></path><path d="M37,53a8,8,0,0,0,15.527,2.717c1.966-5.024,1.534-8.177,3.78-15.33C58.361,33.847,61,29.9,61,23.455c0-6.664-6.925-12.813-14.214-13.409C41,9.572,36.864,12.73,36.864,22.114,36.864,28.5,39,28.8,39,37,39,44.884,36.926,46.914,37,53Z" fill="none" stroke="#61616b" stroke-width="2"></path></g></svg>