<svg xmlns="http://www.w3.org/2000/svg" height="24" width="24" viewBox="0 0 24 24"><title>soap</title><g stroke-linecap="round" fill="#61616b" stroke-linejoin="round" class="nc-icon-wrapper"><ellipse cx="12" cy="14" rx="6" ry="3" fill="none" stroke="#61616b" stroke-width="2"></ellipse><path d="M13,6.44c1.935-.03,4.082-.15,6.4-.417a3.24,3.24,0,0,1,3.566,3.653,35.259,35.259,0,0,0,.007,8.7,3.226,3.226,0,0,1-3.559,3.6,64.793,64.793,0,0,0-14.818,0,3.24,3.24,0,0,1-3.566-3.653A35.262,35.262,0,0,0,1.3,14a35.306,35.306,0,0,0-.273-4.378,3.226,3.226,0,0,1,3.559-3.6q.24.029.483.054" fill="none" stroke="#61616b" stroke-width="2" data-cap="butt"></path><circle cx="7.5" cy="5.5" r="2.5" fill="none" stroke="#61616b" stroke-width="2" data-color="color-2"></circle><circle cx="11" cy="1" r="1" fill="#61616b" data-color="color-2" data-stroke="none" stroke="none"></circle><circle cx="15.5" cy="2.5" r="1.5" fill="#61616b" data-color="color-2" data-stroke="none" stroke="none"></circle></g></svg>