<svg xmlns="http://www.w3.org/2000/svg" height="48" width="48" viewBox="0 0 48 48"><title>soap 3</title><g stroke-linecap="round" fill="#61616b" stroke-linejoin="round" class="nc-icon-wrapper"><path d="M38.647,17.188a6.5,6.5,0,1,0-8.955-8.595A4.455,4.455,0,0,0,27.5,8a4.5,4.5,0,0,0-3.739,7.005" fill="none" stroke="#61616b" stroke-width="2" data-cap="butt" data-color="color-2"></path><path d="M38.769,24,19.944,33.064a4,4,0,0,1-3.794-.174L9,28.6" fill="none" stroke="#61616b" stroke-width="2"></path><path d="M9.993,21.633,5.265,23.91A4,4,0,0,0,3,27.514v5.221a4,4,0,0,0,1.942,3.43L16.15,42.89a4,4,0,0,0,3.794.174L42.735,32.09A4,4,0,0,0,45,28.486V23.265a4,4,0,0,0-1.942-3.43L31.85,13.11a4,4,0,0,0-3.794-.174L16.935,18.29" fill="none" stroke="#61616b" stroke-width="2" data-cap="butt"></path><circle cx="13" cy="19" r="4" fill="none" stroke="#61616b" stroke-width="2" data-color="color-2"></circle><circle cx="17" cy="5" r="2" fill="#61616b" data-color="color-2" data-stroke="none" stroke="none"></circle></g></svg>