<svg xmlns="http://www.w3.org/2000/svg" height="32" width="32" viewBox="0 0 32 32"><title>soap 4</title><g stroke-linecap="round" fill="#61616b" stroke-linejoin="round" class="nc-icon-wrapper"><path d="M17,10.585c3.229-.027,6.76-.191,10.545-.566a3.127,3.127,0,0,1,3.429,3.488,53,53,0,0,0,0,13,3.113,3.113,0,0,1-3.392,3.478c-3.543-.352-7.419-.574-11.584-.574-3.495,0-7.366.157-11.545.571a3.127,3.127,0,0,1-3.429-3.488A53.012,53.012,0,0,0,1.425,20a53.037,53.037,0,0,0-.4-6.506,3.113,3.113,0,0,1,3.392-3.478q1.4.138,2.866.249" fill="none" stroke="#61616b" stroke-width="2" data-cap="butt"></path><ellipse cx="16" cy="20" rx="9" ry="5" fill="none" stroke="#61616b" stroke-width="2"></ellipse><circle cx="10" cy="9" r="3" fill="none" stroke="#61616b" stroke-width="2" data-color="color-2"></circle><circle cx="21" cy="5" r="2" fill="none" stroke="#61616b" stroke-width="2" data-color="color-2"></circle><circle cx="13.5" cy="1.5" r="1.5" fill="#61616b" data-color="color-2" data-stroke="none" stroke="none"></circle></g></svg>