<svg xmlns="http://www.w3.org/2000/svg" height="64" width="64" viewBox="0 0 64 64"><title>soap 2</title><g stroke-linecap="round" fill="#61616b" stroke-linejoin="round" class="nc-icon-wrapper"><path d="M50.348,21.536a8.5,8.5,0,1,0-14.317-9.1A5,5,0,0,0,29.923,19.9" fill="none" stroke="#61616b" stroke-width="2" data-cap="butt" data-color="color-2"></path><path d="M13.807,27.722l-5.992,2.91A5,5,0,0,0,5,35.13v7.114a5,5,0,0,0,2.33,4.228l14.318,9.042a5,5,0,0,0,4.854.271L56.185,41.368A5,5,0,0,0,59,36.87V29.756a5,5,0,0,0-2.33-4.228L42.352,16.486a5,5,0,0,0-4.854-.271L22.732,23.388" fill="none" stroke="#61616b" stroke-width="2" data-cap="butt"></path><path d="M11,35.789l10.648,6.725a5,5,0,0,0,4.854.271L53,29.914" fill="none" stroke="#61616b" stroke-width="2"></path><circle cx="18" cy="25" r="5" fill="none" stroke="#61616b" stroke-width="2" data-color="color-2"></circle><circle cx="21.5" cy="8.5" r="2.5" fill="none" stroke="#61616b" stroke-width="2" data-color="color-2"></circle></g></svg>