<svg xmlns="http://www.w3.org/2000/svg" height="24" width="24" viewBox="0 0 24 24"><title>spa rocks 5</title><g stroke-linecap="round" fill="#61616b" stroke-linejoin="round" class="nc-icon-wrapper"><path d="M23,20c0,1.657-4,3-11,3s-9-1.343-9-3,2-3,9-3S23,18.343,23,20Z" fill="none" stroke="#61616b" stroke-width="2"></path><path d="M1,14c0,1.657,1.7,3,8,3s10-1.343,10-3-3.7-3-10-3S1,12.343,1,14Z" fill="none" stroke="#61616b" stroke-width="2" data-color="color-2"></path><path d="M21,8.5c0,1.381-3,2.5-8,2.5C9,11,7,9.881,7,8.5S9,6,13,6C18,6,21,7.119,21,8.5Z" fill="none" stroke="#61616b" stroke-width="2"></path><ellipse cx="11.5" cy="3.5" rx="3.5" ry="2.5" fill="none" stroke="#61616b" stroke-width="2" data-color="color-2"></ellipse></g></svg>