<svg xmlns="http://www.w3.org/2000/svg" height="64" width="64" viewBox="0 0 64 64"><title>spa rocks 2</title><g stroke-linecap="round" fill="#61616b" stroke-linejoin="round" class="nc-icon-wrapper"><path d="M61,52.818C61,57.236,51.725,61,31.556,61,13.3,61,8,56.909,8,53c0-4.273,5.3-8,23.556-8C51.725,45,61,48.4,61,52.818Z" fill="none" stroke="#61616b" stroke-width="2"></path><path d="M3,37.5C3,41.25,7.915,45,24,45c18,0,28-3.75,28-7.5S42,30,24,30C8,30,3,33.75,3,37.5Z" fill="none" stroke="#61616b" stroke-width="2" data-color="color-2"></path><path d="M54,23c0,4.846-10,7-22,7-10,0-15-3.134-15-7s4-7,15-7C44,16,54,18.154,54,23Z" fill="none" stroke="#61616b" stroke-width="2"></path><ellipse cx="30" cy="9.5" rx="10" ry="6.5" fill="none" stroke="#61616b" stroke-width="2" data-color="color-2"></ellipse></g></svg>