<svg xmlns="http://www.w3.org/2000/svg" height="32" width="32" viewBox="0 0 32 32"><title>spa rocks 4</title><g stroke-linecap="round" fill="#61616b" stroke-linejoin="round" class="nc-icon-wrapper"><path d="M31,27c0,2.209-5,4-15,4C7,31,4,29.209,4,27s3-4,12-4C26,23,31,24.791,31,27Z" fill="none" stroke="#61616b" stroke-width="2"></path><path d="M1,19c0,2.209,3,4,10.909,4C21,23,26,21.209,26,19s-5-4-14.091-4C4,15,1,16.791,1,19Z" fill="none" stroke="#61616b" stroke-width="2" data-color="color-2"></path><path d="M28.273,11.5c0,1.933-4.13,3.5-11.013,3.5C11.753,15,9,13.433,9,11.5S11.753,8,17.26,8C24.143,8,28.273,9.567,28.273,11.5Z" fill="none" stroke="#61616b" stroke-width="2"></path><ellipse cx="15" cy="4.5" rx="5" ry="3.5" fill="none" stroke="#61616b" stroke-width="2" data-color="color-2"></ellipse></g></svg>