<svg xmlns="http://www.w3.org/2000/svg" height="48" width="48" viewBox="0 0 48 48"><title>towel hanger 3</title><g stroke-linecap="round" fill="#61616b" stroke-linejoin="round" class="nc-icon-wrapper"><line x1="2" y1="7" x2="8" y2="7" fill="none" stroke="#61616b" stroke-width="2"></line><line x1="42" y1="7" x2="45.999" y2="7" fill="none" stroke="#61616b" stroke-width="2"></line><path d="M9,2H39a3,3,0,0,1,3,3V43H12V36" fill="none" stroke="#61616b" stroke-width="2" data-cap="butt"></path><line x1="12" y1="43" x2="12" y2="46" fill="none" stroke="#61616b" stroke-width="2"></line><line x1="18" y1="43" x2="18" y2="46" fill="none" stroke="#61616b" stroke-width="2"></line><line x1="24" y1="43" x2="24" y2="46" fill="none" stroke="#61616b" stroke-width="2"></line><line x1="30" y1="43" x2="30" y2="46" fill="none" stroke="#61616b" stroke-width="2"></line><line x1="36" y1="43" x2="36" y2="46" fill="none" stroke="#61616b" stroke-width="2"></line><line x1="42" y1="43" x2="42" y2="46" fill="none" stroke="#61616b" stroke-width="2"></line><line x1="18" y1="36" x2="36" y2="36" fill="none" stroke="#61616b" stroke-width="2" data-color="color-2"></line><line x1="18" y1="30" x2="36" y2="30" fill="none" stroke="#61616b" stroke-width="2" data-color="color-2"></line><path d="M9,2H9a3,3,0,0,1,3,3V36a0,0,0,0,1,0,0H6a0,0,0,0,1,0,0V5A3,3,0,0,1,9,2Z" fill="none" stroke="#61616b" stroke-width="2"></path></g></svg>