<svg xmlns="http://www.w3.org/2000/svg" height="64" width="64" viewBox="0 0 64 64"><title>towel hanger 2</title><g stroke-linecap="round" fill="#61616b" stroke-linejoin="round" class="nc-icon-wrapper"><line x1="3" y1="9" x2="9" y2="9" fill="none" stroke="#61616b" stroke-width="2"></line><line x1="56" y1="9" x2="61" y2="9" fill="none" stroke="#61616b" stroke-width="2"></line><line x1="26" y1="57" x2="26" y2="60" fill="none" stroke="#61616b" stroke-width="2"></line><line x1="32" y1="57" x2="32" y2="60" fill="none" stroke="#61616b" stroke-width="2"></line><line x1="20" y1="57" x2="20" y2="60" fill="none" stroke="#61616b" stroke-width="2"></line><line x1="14" y1="57" x2="14" y2="60" fill="none" stroke="#61616b" stroke-width="2"></line><line x1="38" y1="57" x2="38" y2="60" fill="none" stroke="#61616b" stroke-width="2"></line><line x1="44" y1="57" x2="44" y2="60" fill="none" stroke="#61616b" stroke-width="2"></line><line x1="50" y1="57" x2="50" y2="60" fill="none" stroke="#61616b" stroke-width="2"></line><line x1="56" y1="57" x2="56" y2="60" fill="none" stroke="#61616b" stroke-width="2"></line><line x1="20" y1="48" x2="50" y2="48" fill="none" stroke="#61616b" stroke-width="2" data-color="color-2"></line><line x1="20" y1="40" x2="50" y2="40" fill="none" stroke="#61616b" stroke-width="2" data-color="color-2"></line><path d="M14,50H7V7.7a3.633,3.633,0,0,1,3.312-3.693A3.5,3.5,0,0,1,14,7.5V57H56V8a4,4,0,0,0-4-4H12" fill="none" stroke="#61616b" stroke-width="2"></path></g></svg>