<svg xmlns="http://www.w3.org/2000/svg" height="64" width="64" viewBox="0 0 64 64"><title>algorithm 3</title><g stroke-linecap="round" fill="#61616b" stroke-linejoin="round" class="nc-icon-wrapper"><rect x="50" y="53" width="8" height="8" fill="none" stroke="#61616b" stroke-width="2"></rect><rect x="28" y="3" width="8" height="8" fill="none" stroke="#61616b" stroke-width="2"></rect><rect x="6" y="53" width="8" height="8" fill="none" stroke="#61616b" stroke-width="2"></rect><circle cx="10" cy="7" r="4" fill="none" stroke="#61616b" stroke-width="2"></circle><polyline points="10 11 10 18 15 23" fill="none" stroke="#61616b" stroke-width="2"></polyline><circle cx="54" cy="7" r="4" fill="none" stroke="#61616b" stroke-width="2"></circle><polyline points="54 11 54 18 49 23" fill="none" stroke="#61616b" stroke-width="2"></polyline><line x1="32" y1="11" x2="32" y2="16" fill="none" stroke="#61616b" stroke-width="2"></line><circle cx="32" cy="57" r="4" fill="none" stroke="#61616b" stroke-width="2"></circle><polyline points="10 53 10 46 15 41" fill="none" stroke="#61616b" stroke-width="2"></polyline><polyline points="54 53 54 46 49 41" fill="none" stroke="#61616b" stroke-width="2"></polyline><line x1="32" y1="53" x2="32" y2="48" fill="none" stroke="#61616b" stroke-width="2"></line><circle cx="32" cy="32" r="7" fill="none" stroke="#61616b" stroke-width="2" data-color="color-2"></circle><line x1="32" y1="25" x2="32" y2="22" fill="none" stroke="#61616b" stroke-width="2" data-color="color-2"></line><line x1="36.95" y1="27.05" x2="39.071" y2="24.929" fill="none" stroke="#61616b" stroke-width="2" data-color="color-2"></line><line x1="39" y1="32" x2="42" y2="32" fill="none" stroke="#61616b" stroke-width="2" data-color="color-2"></line><line x1="36.95" y1="36.95" x2="39.071" y2="39.071" fill="none" stroke="#61616b" stroke-width="2" data-color="color-2"></line><line x1="32" y1="39" x2="32" y2="42" fill="none" stroke="#61616b" stroke-width="2" data-color="color-2"></line><line x1="27.05" y1="36.95" x2="24.929" y2="39.071" fill="none" stroke="#61616b" stroke-width="2" data-color="color-2"></line><line x1="25" y1="32" x2="22" y2="32" fill="none" stroke="#61616b" stroke-width="2" data-color="color-2"></line><line x1="27.05" y1="27.05" x2="24.929" y2="24.929" fill="none" stroke="#61616b" stroke-width="2" data-color="color-2"></line></g></svg>