<svg xmlns="http://www.w3.org/2000/svg" height="64" width="64" viewBox="0 0 64 64"><title>amazon card 2</title><g stroke-linecap="round" fill="#61616b" stroke-linejoin="round" class="nc-icon-wrapper"><path data-color="color-2" data-stroke="none" fill-rule="evenodd" clip-rule="evenodd" fill="#61616b" d="M36.815,35.824 c-2.324,1.715-5.693,2.627-8.595,2.627c-4.066,0-7.728-1.503-10.499-4.005c-0.217-0.196-0.023-0.465,0.238-0.313 c2.99,1.74,6.687,2.787,10.505,2.787c2.576,0,5.407-0.535,8.013-1.64C36.871,35.115,37.2,35.54,36.815,35.824z" stroke-linejoin="miter" stroke="none"></path> <path data-color="color-2" data-stroke="none" fill-rule="evenodd" clip-rule="evenodd" fill="#61616b" d="M37.783,34.72 c-0.297-0.381-1.965-0.18-2.714-0.091c-0.227,0.027-0.262-0.171-0.057-0.315c1.33-0.934,3.51-0.665,3.763-0.352 c0.255,0.316-0.067,2.501-1.314,3.544c-0.192,0.16-0.374,0.075-0.289-0.137C37.452,36.669,38.08,35.101,37.783,34.72z" stroke-linejoin="miter" stroke="none"></path> <path data-color="color-2" data-stroke="none" fill-rule="evenodd" clip-rule="evenodd" fill="#61616b" d="M35.121,27.714v-0.908 c0.001-0.138,0.105-0.23,0.23-0.23l4.069,0c0.13,0,0.235,0.095,0.235,0.229l0,0.779c-0.001,0.131-0.111,0.301-0.306,0.572 l-2.108,3.01c0.783-0.018,1.61,0.099,2.321,0.498c0.16,0.09,0.203,0.224,0.216,0.354v0.969c0,0.134-0.146,0.288-0.3,0.208 c-1.253-0.656-2.915-0.728-4.3,0.008c-0.142,0.075-0.29-0.077-0.29-0.21V32.07c0-0.147,0.003-0.399,0.151-0.624l2.442-3.504 l-2.126,0C35.226,27.942,35.122,27.85,35.121,27.714z" stroke-linejoin="miter" stroke="none"></path> <path data-color="color-2" data-stroke="none" fill-rule="evenodd" clip-rule="evenodd" fill="#61616b" d="M20.277,33.385h-1.238 c-0.118-0.008-0.212-0.096-0.221-0.209l0.001-6.354c0-0.127,0.107-0.229,0.239-0.229l1.153,0c0.121,0.006,0.217,0.097,0.225,0.213 v0.83h0.023c0.3-0.802,0.867-1.177,1.629-1.177c0.774,0,1.26,0.374,1.606,1.177c0.3-0.802,0.982-1.177,1.71-1.177 c0.52,0,1.086,0.214,1.433,0.695c0.393,0.535,0.312,1.31,0.312,1.992l-0.001,4.01c0,0.127-0.107,0.229-0.239,0.229h-1.237 c-0.124-0.008-0.222-0.106-0.222-0.228l0-3.368c0-0.267,0.023-0.936-0.035-1.19c-0.092-0.428-0.37-0.548-0.728-0.548 c-0.3,0-0.613,0.201-0.74,0.521c-0.127,0.321-0.115,0.856-0.115,1.217v3.368c0,0.127-0.107,0.229-0.239,0.229h-1.237 c-0.124-0.008-0.222-0.106-0.222-0.228l-0.001-3.368c0-0.709,0.116-1.752-0.763-1.752c-0.89,0-0.855,1.016-0.855,1.752l-0.001,3.368 C20.516,33.283,20.409,33.385,20.277,33.385z" stroke-linejoin="miter" stroke="none"></path> <path data-color="color-2" data-stroke="none" fill-rule="evenodd" clip-rule="evenodd" fill="#61616b" d="M43.159,26.459 c1.838,0,2.831,1.578,2.831,3.583c0,1.939-1.098,3.477-2.831,3.477c-1.803,0-2.785-1.578-2.785-3.543 C40.373,27.996,41.367,26.459,43.159,26.459z M43.17,27.756c-0.913,0-0.971,1.243-0.971,2.019c0,0.776-0.012,2.434,0.959,2.434 c0.959,0,1.005-1.337,1.005-2.153c0-0.535-0.023-1.177-0.185-1.685C43.84,27.93,43.563,27.756,43.17,27.756z" stroke-linejoin="miter" stroke="none"></path> <path data-color="color-2" data-stroke="none" fill-rule="evenodd" clip-rule="evenodd" fill="#61616b" d="M48.373,33.385h-1.233 c-0.124-0.008-0.222-0.106-0.222-0.228L46.915,26.8c0.01-0.116,0.113-0.207,0.238-0.207l1.148,0c0.108,0.006,0.197,0.079,0.22,0.178 v0.972h0.023c0.347-0.869,0.832-1.284,1.687-1.284c0.555,0,1.098,0.201,1.445,0.749C52,27.716,52,28.571,52,29.186v3.998 c-0.014,0.113-0.115,0.2-0.237,0.2h-1.241c-0.115-0.007-0.207-0.092-0.221-0.2v-3.45c0-0.695,0.081-1.711-0.774-1.711 c-0.301,0-0.578,0.201-0.716,0.508c-0.173,0.388-0.197,0.776-0.197,1.203v3.421C48.612,33.283,48.505,33.385,48.373,33.385z" stroke-linejoin="miter" stroke="none"></path> <path data-color="color-2" data-stroke="none" fill-rule="evenodd" clip-rule="evenodd" fill="#61616b" d="M31.877,30.35 c0,0.482,0.012,0.884-0.232,1.313c-0.197,0.348-0.51,0.563-0.857,0.563c-0.475,0-0.753-0.362-0.753-0.898 c0-1.054,0.946-1.246,1.841-1.246V30.35z M33.125,33.369c-0.082,0.073-0.2,0.078-0.293,0.029c-0.411-0.342-0.485-0.5-0.71-0.825 c-0.68,0.692-1.161,0.9-2.041,0.9c-1.042,0-1.853-0.643-1.853-1.93c0-1.005,0.544-1.688,1.32-2.023 c0.672-0.295,1.61-0.348,2.328-0.429V28.93c0-0.295,0.023-0.643-0.151-0.898c-0.151-0.228-0.44-0.322-0.695-0.322 c-0.472,0-0.892,0.242-0.995,0.743c-0.021,0.112-0.103,0.222-0.215,0.228l-1.2-0.13c-0.101-0.023-0.214-0.104-0.185-0.259 c0.276-1.456,1.59-1.896,2.769-1.896c0.602,0,1.39,0.161,1.865,0.616c0.602,0.563,0.544,1.313,0.544,2.131v1.929 c0,0.58,0.241,0.835,0.467,1.147c0.079,0.113,0.097,0.247-0.004,0.329c-0.253,0.212-0.702,0.602-0.949,0.822L33.125,33.369z" stroke-linejoin="miter" stroke="none"></path> <path data-color="color-2" data-stroke="none" fill-rule="evenodd" clip-rule="evenodd" fill="#61616b" d="M15.648,30.35 c0,0.482,0.012,0.884-0.232,1.313c-0.197,0.348-0.509,0.563-0.857,0.563c-0.475,0-0.753-0.362-0.753-0.898 c0-1.054,0.946-1.246,1.841-1.246V30.35z M16.896,33.369c-0.082,0.073-0.2,0.078-0.293,0.029c-0.411-0.342-0.485-0.5-0.71-0.825 c-0.68,0.692-1.161,0.9-2.041,0.9c-1.042,0-1.853-0.643-1.853-1.93c0-1.005,0.544-1.688,1.32-2.023 c0.672-0.295,1.61-0.348,2.328-0.429V28.93c0-0.295,0.023-0.643-0.15-0.898c-0.151-0.228-0.44-0.322-0.695-0.322 c-0.472,0-0.892,0.242-0.995,0.743c-0.022,0.112-0.103,0.222-0.215,0.228l-1.2-0.13c-0.101-0.023-0.214-0.104-0.185-0.259 c0.276-1.456,1.59-1.896,2.768-1.896c0.602,0,1.39,0.161,1.865,0.616c0.602,0.563,0.544,1.313,0.544,2.131v1.929 c0,0.58,0.241,0.835,0.467,1.147c0.079,0.113,0.097,0.247-0.004,0.329c-0.253,0.212-0.702,0.602-0.949,0.822L16.896,33.369z" stroke-linejoin="miter" stroke="none"></path> <path fill="none" stroke="#61616b" stroke-width="2" d="M2,50V14c0-2.2,1.8-4,4-4 h52c2.2,0,4,1.8,4,4v36c0,2.2-1.8,4-4,4H6C3.8,54,2,52.2,2,50z"></path></g></svg>