<svg xmlns="http://www.w3.org/2000/svg" height="64" width="64" viewBox="0 0 64 64"><title>amex 2</title><g stroke-linecap="round" fill="#61616b" stroke-linejoin="round" class="nc-icon-wrapper"><path data-color="color-2" data-stroke="none" fill="#61616b" d="M15.839,32.514h2.795l-1.398-3.429L15.839,32.514z M54.8,26h-7.163l-1.747,1.886 L44.317,26h-15.2l-1.398,3.086L26.322,26h-6.115v1.371L19.508,26h-5.241L9.2,38h6.115l0.699-1.886h1.747L18.46,38h6.814v-1.371 L25.798,38h3.494l0.524-1.543V38h13.977l1.747-1.886L47.113,38h7.163l-4.543-6L54.8,26z M33.66,36.286h-1.922V29.6l-2.97,6.686 h-1.747l-2.97-6.686v6.686h-4.018L19.333,34.4H15.14l-0.699,1.886H12.17l3.669-8.571h2.97l3.32,8.057v-8.057h3.32l2.621,5.829 l2.446-5.829h3.32v8.571H33.66z M50.956,36.286h-2.621l-2.271-2.914l-2.621,2.914h-7.862v-8.571h8.037l2.446,2.743l2.621-2.743 h2.446L47.287,32L50.956,36.286z M37.503,29.429v1.543h4.368v1.714h-4.368V34.4h4.892l2.271-2.571l-2.097-2.4H37.503z" stroke-linejoin="miter" stroke="none"></path> <path fill="none" stroke="#61616b" stroke-width="2" d="M2,50V14c0-2.2,1.8-4,4-4 h52c2.2,0,4,1.8,4,4v36c0,2.2-1.8,4-4,4H6C3.8,54,2,52.2,2,50z"></path></g></svg>