<svg xmlns="http://www.w3.org/2000/svg" height="48" width="48" viewBox="0 0 48 48"><title>android card</title><g stroke-linecap="round" fill="#61616b" stroke-linejoin="round" class="nc-icon-wrapper"><path fill="none" stroke="#61616b" stroke-width="2" d="M43,40H5 c-1.657,0-3-1.343-3-3V11c0-1.657,1.343-3,3-3h27h11c1.657,0,3,1.343,3,3v26C46,38.657,44.657,40,43,40z"></path> <path data-color="color-2" data-stroke="none" fill-rule="evenodd" clip-rule="evenodd" fill="#61616b" d="M17,27L17,27c-0.552,0-1-0.448-1-1v-4 c0-0.552,0.448-1,1-1h0c0.552,0,1,0.448,1,1v4C18,26.552,17.552,27,17,27z" stroke-linejoin="miter" stroke="none"></path> <path data-color="color-2" data-stroke="none" fill-rule="evenodd" clip-rule="evenodd" fill="#61616b" d="M31,27L31,27c-0.552,0-1-0.448-1-1v-4 c0-0.552,0.448-1,1-1h0c0.552,0,1,0.448,1,1v4C32,26.552,31.552,27,31,27z" stroke-linejoin="miter" stroke="none"></path> <path data-color="color-2" data-stroke="none" fill-rule="evenodd" clip-rule="evenodd" fill="#61616b" d="M19,21v8c0,0.552,0.448,1,1,1h1v2 c0,0.552,0.448,1,1,1s1-0.448,1-1v-2h2v2c0,0.552,0.448,1,1,1s1-0.448,1-1v-2h1c0.552,0,1-0.448,1-1v-8H19z" stroke-linejoin="miter" stroke="none"></path> <path data-color="color-2" data-stroke="none" fill="#61616b" d="M19,20h10c0-1.555-0.724-2.926-1.837-3.843l1.253-1.88 c0.153-0.229,0.091-0.54-0.139-0.693c-0.231-0.153-0.542-0.092-0.693,0.139l-1.253,1.879C25.632,15.23,24.847,15,24,15 s-1.632,0.23-2.331,0.602l-1.253-1.879c-0.153-0.23-0.464-0.292-0.693-0.139c-0.23,0.153-0.292,0.464-0.139,0.693l1.253,1.88 C19.724,17.074,19,18.445,19,20z" stroke-linejoin="miter" stroke="none"></path></g></svg>