<svg xmlns="http://www.w3.org/2000/svg" height="64" width="64" viewBox="0 0 64 64"><title>android card 2</title><g stroke-linecap="round" fill="#61616b" stroke-linejoin="round" class="nc-icon-wrapper"><path fill="none" stroke="#61616b" stroke-width="2" d="M2,50V14c0-2.2,1.8-4,4-4 h52c2.2,0,4,1.8,4,4v36c0,2.2-1.8,4-4,4H6C3.8,54,2,52.2,2,50z"></path> <path data-color="color-2" data-stroke="none" fill-rule="evenodd" clip-rule="evenodd" fill="#61616b" d="M23.5,36L23.5,36 c-0.828,0-1.5-0.672-1.5-1.5v-5c0-0.828,0.672-1.5,1.5-1.5h0c0.828,0,1.5,0.672,1.5,1.5v5C25,35.328,24.328,36,23.5,36z" stroke-linejoin="miter" stroke="none"></path> <path data-color="color-2" data-stroke="none" fill-rule="evenodd" clip-rule="evenodd" fill="#61616b" d="M40.5,36L40.5,36 c-0.828,0-1.5-0.672-1.5-1.5v-5c0-0.828,0.672-1.5,1.5-1.5l0,0c0.828,0,1.5,0.672,1.5,1.5v5C42,35.328,41.328,36,40.5,36z" stroke-linejoin="miter" stroke="none"></path> <path data-color="color-2" data-stroke="none" fill-rule="evenodd" clip-rule="evenodd" fill="#61616b" d="M26,28v11c0,0.552,0.448,1,1,1h1v2.5 c0,0.828,0.672,1.5,1.5,1.5s1.5-0.672,1.5-1.5V40h2v2.5c0,0.828,0.672,1.5,1.5,1.5s1.5-0.672,1.5-1.5V40h1c0.552,0,1-0.448,1-1V28 H26z" stroke-linejoin="miter" stroke="none"></path> <path data-color="color-2" data-stroke="none" fill="#61616b" d="M26,27h12c0-1.675-0.687-3.187-1.794-4.276l1.594-2.125 c0.332-0.441,0.242-1.068-0.2-1.399c-0.443-0.331-1.069-0.241-1.4,0.2l-1.636,2.181C33.786,21.212,32.919,21,32,21 c-0.919,0-1.786,0.213-2.564,0.582L27.8,19.4c-0.331-0.441-0.957-0.531-1.4-0.2c-0.442,0.331-0.531,0.958-0.2,1.399l1.594,2.125 C26.688,23.812,26,25.325,26,27z" stroke-linejoin="miter" stroke="none"></path></g></svg>