<svg xmlns="http://www.w3.org/2000/svg" height="32" width="32" viewBox="0 0 32 32"><title>app services 4</title><g stroke-linecap="round" fill="#61616b" stroke-linejoin="round" class="nc-icon-wrapper"><path d="M2,16H6v1.5A2.5,2.5,0,0,0,8.5,20h0A2.5,2.5,0,0,0,11,17.5V16H21V14.5A2.5,2.5,0,0,1,23.5,12h0A2.5,2.5,0,0,1,26,14.5V16h4" fill="none" stroke="#61616b" stroke-width="2" data-color="color-2"></path><path d="M16,30V26h1.5A2.5,2.5,0,0,0,20,23.5h0A2.5,2.5,0,0,0,17.5,21H16V11H14.5A2.5,2.5,0,0,1,12,8.5h0A2.5,2.5,0,0,1,14.5,6H16V2" fill="none" stroke="#61616b" stroke-width="2" data-color="color-2"></path><rect x="2" y="2" width="28" height="28" fill="none" stroke="#61616b" stroke-width="2"></rect></g></svg>