<svg xmlns="http://www.w3.org/2000/svg" height="64" width="64" viewBox="0 0 64 64"><title>apple card 2</title><g stroke-linecap="round" fill="#61616b" stroke-linejoin="round" class="nc-icon-wrapper"><path data-color="color-2" data-stroke="none" fill-rule="evenodd" clip-rule="evenodd" fill="#61616b" d="M39.736,36.206 c-0.423,0.937-0.625,1.355-1.17,2.183c-0.759,1.156-1.83,2.596-3.157,2.608c-1.179,0.011-1.482-0.767-3.082-0.758 c-1.6,0.009-1.934,0.772-3.113,0.761c-1.327-0.012-2.341-1.312-3.101-2.469c-2.124-3.233-2.346-7.027-1.036-9.044 c0.931-1.434,2.4-2.272,3.781-2.272c1.406,0,2.29,0.771,3.453,0.771c1.128,0,1.815-0.772,3.441-0.772 c1.229,0,2.531,0.669,3.459,1.825C36.171,30.705,36.665,35.045,39.736,36.206L39.736,36.206z" stroke-linejoin="miter" stroke="none"></path> <path data-color="color-2" data-stroke="none" fill-rule="evenodd" clip-rule="evenodd" fill="#61616b" d="M34.519,25.922 c0.591-0.758,1.039-1.828,0.876-2.922c-0.965,0.066-2.093,0.68-2.752,1.48c-0.598,0.726-1.092,1.803-0.9,2.85 C32.796,27.363,33.886,26.734,34.519,25.922L34.519,25.922z" stroke-linejoin="miter" stroke="none"></path> <path fill="none" stroke="#61616b" stroke-width="2" d="M2,50V14c0-2.2,1.8-4,4-4 h52c2.2,0,4,1.8,4,4v36c0,2.2-1.8,4-4,4H6C3.8,54,2,52.2,2,50z"></path></g></svg>