<svg xmlns="http://www.w3.org/2000/svg" height="48" width="48" viewBox="0 0 48 48"><title>bitcoin card</title><g stroke-linecap="round" fill="#61616b" stroke-linejoin="round" class="nc-icon-wrapper"><path fill="none" stroke="#61616b" stroke-width="2" d="M43,40H5 c-1.657,0-3-1.343-3-3V11c0-1.657,1.343-3,3-3h27h11c1.657,0,3,1.343,3,3v26C46,38.657,44.657,40,43,40z"></path> <path data-color="color-2" data-stroke="none" fill="#61616b" d="M23.938,20.184l-0.656,2.629c0.743,0.185,3.035,0.941,3.406-0.546 C27.075,20.715,24.681,20.369,23.938,20.184z" stroke-linejoin="miter" stroke="none"></path> <path data-color="color-2" data-stroke="none" fill="#61616b" d="M22.951,24.14l-0.723,2.899c0.893,0.222,3.646,1.106,4.053-0.53 C26.706,24.804,23.844,24.363,22.951,24.14z" stroke-linejoin="miter" stroke="none"></path> <path data-color="color-2" data-stroke="none" fill="#61616b" d="M26.902,12.358c-6.428-1.603-12.94,2.31-14.542,8.74 c-1.604,6.429,2.309,12.941,8.737,14.544c6.43,1.603,12.942-2.309,14.545-8.739C37.244,20.474,33.331,13.961,26.902,12.358z M29.29,22.29L29.29,22.29c-0.173,1.169-0.821,1.735-1.681,1.933c1.181,0.615,1.783,1.558,1.21,3.193 c-0.711,2.031-2.399,2.202-4.644,1.777l-0.545,2.184l-1.317-0.328l0.538-2.155c-0.341-0.085-0.69-0.175-1.049-0.272l-0.54,2.165 l-1.315-0.328l0.545-2.188c-0.308-0.079-0.62-0.162-0.939-0.242l-1.714-0.427l0.654-1.507c0,0,0.97,0.258,0.957,0.239 c0.373,0.092,0.538-0.151,0.603-0.313l1.478-5.926c0.016-0.28-0.08-0.633-0.614-0.766c0.021-0.014-0.956-0.238-0.956-0.238 l0.35-1.406l1.816,0.453l-0.001,0.007c0.273,0.068,0.554,0.132,0.841,0.198l0.54-2.162l1.316,0.328l-0.529,2.12 c0.353,0.081,0.709,0.162,1.055,0.248l0.525-2.106l1.317,0.328l-0.539,2.163C28.313,19.835,29.528,20.693,29.29,22.29z" stroke-linejoin="miter" stroke="none"></path></g></svg>