<svg xmlns="http://www.w3.org/2000/svg" height="48" width="48" viewBox="0 0 48 48"><title>bitcoin 4</title><g stroke-linecap="round" fill="#61616b" stroke-linejoin="round" class="nc-icon-wrapper"><path data-color="color-2" data-stroke="none" d="M34.579,20.581c.478-3.194-1.954-4.911-5.279-6.057L30.379,10.2l-2.634-.656L26.7,13.754c-.692-.172-1.4-.335-2.11-.5l1.058-4.241-2.632-.656-1.08,4.325-5.31-1.316-.7,2.813s1.954.448,1.913.476A1.4,1.4,0,0,1,19.06,16.19L16.105,28.042a.96.96,0,0,1-1.207.626c.026.038-1.914-.478-1.914-.478l-1.308,3.015,5.305,1.339-1.09,4.376,2.63.656,1.08-4.33c.718.2,1.416.375,2.1.545L20.624,38.1l2.633.656,1.09-4.367c4.491.85,7.868.507,9.289-3.555,1.146-3.27-.057-5.157-2.42-6.387A4.2,4.2,0,0,0,34.579,20.581Zm-6.017,8.437c-.814,3.271-6.32,1.5-8.1,1.059l1.446-5.8C23.688,24.725,29.412,25.608,28.562,29.018Zm.814-8.485c-.742,2.975-5.325,1.464-6.812,1.093l1.311-5.258C25.362,16.739,30.15,17.43,29.376,20.533Z" fill="#61616b" stroke="none"></path><circle cx="24" cy="24" r="22" fill="none" stroke="#61616b" stroke-width="2"></circle></g></svg>