<svg xmlns="http://www.w3.org/2000/svg" height="16" width="16" viewBox="0 0 16 16"><title>bitcoin 2</title><g fill="#61616b" class="nc-icon-wrapper"><path data-color="color-2" data-stroke="none" d="M11.526,6.86c.16-1.064-.651-1.637-1.759-2.019L10.126,3.4l-.878-.218-.35,1.4c-.23-.058-.467-.112-.7-.166l.353-1.413L7.67,2.787,7.31,4.229,5.54,3.79l-.233.938s.651.149.637.158a.467.467,0,0,1,.409.511l-.985,3.95a.319.319,0,0,1-.4.209c.009.013-.638-.159-.638-.159l-.436,1,1.768.446L5.3,12.307l.877.218.36-1.443c.239.065.472.125.7.182L6.875,12.7l.877.219.364-1.456c1.5.283,2.622.169,3.1-1.185a1.54,1.54,0,0,0-.806-2.129A1.4,1.4,0,0,0,11.526,6.86Zm-2,2.813c-.272,1.09-2.107.5-2.7.353L7.3,8.093C7.9,8.242,9.8,8.536,9.521,9.673Zm.271-2.829c-.247.992-1.775.488-2.271.365l.437-1.753C8.454,5.58,10.05,5.81,9.792,6.844Z" fill="#61616b" stroke="none"></path><circle cx="8" cy="8" r="7.5" fill="none" stroke="#61616b" stroke-linecap="square"></circle></g></svg>