<svg xmlns="http://www.w3.org/2000/svg" height="64" width="64" viewBox="0 0 64 64"><title>bitcoin card 2</title><g stroke-linecap="round" fill="#61616b" stroke-linejoin="round" class="nc-icon-wrapper"><path data-color="color-2" data-stroke="none" fill="#61616b" d="M31.938,28.184l-0.656,2.629c0.743,0.185,3.035,0.941,3.406-0.546 C35.075,28.715,32.681,28.369,31.938,28.184z" stroke-linejoin="miter" stroke="none"></path> <path data-color="color-2" data-stroke="none" fill="#61616b" d="M30.951,32.14l-0.723,2.899c0.893,0.222,3.646,1.106,4.053-0.53 C34.706,32.804,31.844,32.363,30.951,32.14z" stroke-linejoin="miter" stroke="none"></path> <path data-color="color-2" data-stroke="none" fill="#61616b" d="M35.385,18.417c-7.5-1.87-15.097,2.695-16.966,10.197 c-1.871,7.5,2.694,15.098,10.193,16.968c7.502,1.871,15.099-2.694,16.969-10.195C47.451,27.886,42.887,20.287,35.385,18.417z M38.171,30.005L38.171,30.005c-0.202,1.364-0.958,2.024-1.962,2.256c1.378,0.718,2.08,1.818,1.412,3.726 c-0.829,2.369-2.799,2.569-5.419,2.074l-0.636,2.548l-1.536-0.383l0.627-2.514c-0.398-0.099-0.805-0.204-1.224-0.318l-0.63,2.526 l-1.534-0.383l0.636-2.553c-0.359-0.092-0.723-0.189-1.095-0.283l-1.999-0.498l0.763-1.758c0,0,1.132,0.301,1.117,0.279 c0.435,0.108,0.628-0.176,0.704-0.365l1.724-6.914c0.019-0.326-0.094-0.738-0.716-0.893c0.024-0.016-1.116-0.277-1.116-0.277 l0.409-1.641l2.119,0.529l-0.002,0.008c0.319,0.079,0.647,0.154,0.981,0.231l0.63-2.523l1.535,0.383l-0.617,2.473 c0.412,0.094,0.827,0.189,1.231,0.29l0.613-2.457l1.536,0.383l-0.629,2.524C37.031,27.141,38.45,28.142,38.171,30.005z" stroke-linejoin="miter" stroke="none"></path> <path fill="none" stroke="#61616b" stroke-width="2" d="M2,50V14c0-2.2,1.8-4,4-4 h52c2.2,0,4,1.8,4,4v36c0,2.2-1.8,4-4,4H6C3.8,54,2,52.2,2,50z"></path></g></svg>