<svg xmlns="http://www.w3.org/2000/svg" height="32" width="32" viewBox="0 0 32 32"><title>bitcoin 5</title><g stroke-linecap="round" fill="#61616b" stroke-linejoin="round" class="nc-icon-wrapper"><path data-color="color-2" data-stroke="none" d="M23.213,13.669c.326-2.178-1.332-3.349-3.6-4.13l.735-2.949-1.8-.448-.716,2.872c-.472-.117-.956-.228-1.438-.338l.721-2.891-1.8-.448L14.59,8.286l-3.621-.9-.478,1.918s1.332.3,1.3.324a.956.956,0,0,1,.837,1.044l-2.015,8.081a.655.655,0,0,1-.823.427c.018.026-1.3-.326-1.3-.326L7.6,20.912l3.617.913-.743,2.984,1.794.447L13,22.3q.735.2,1.431.372L13.7,25.614l1.8.447.743-2.978c3.062.58,5.364.346,6.333-2.423.781-2.23-.039-3.516-1.65-4.355A2.863,2.863,0,0,0,23.213,13.669Zm-4.1,5.753c-.555,2.229-4.309,1.024-5.526.722l.986-3.953C15.787,16.5,19.69,17.1,19.11,19.422Zm.556-5.786c-.507,2.029-3.631,1-4.645.746l.894-3.586C16.929,11.049,20.193,11.521,19.666,13.636Z" fill="#61616b" stroke="none"></path><circle cx="16" cy="16" r="15" fill="none" stroke="#61616b" stroke-width="2"></circle></g></svg>