<svg xmlns="http://www.w3.org/2000/svg" height="24" width="24" viewBox="0 0 24 24"><title>bitcoin</title><g stroke-linecap="round" fill="#61616b" stroke-linejoin="round" class="nc-icon-wrapper"><path data-color="color-2" data-stroke="none" d="M17.29,10.29c.238-1.6-.977-2.455-2.64-3.028L15.189,5.1l-1.316-.328-.526,2.106c-.346-.086-.7-.168-1.055-.248l.529-2.12L11.505,4.18l-.539,2.163L8.31,5.685,7.96,7.092s.977.223.956.237A.7.7,0,0,1,9.53,8.1L8.052,14.021a.479.479,0,0,1-.6.313c.013.019-.957-.239-.957-.239L5.838,15.6l2.652.67L7.945,18.46l1.316.328L9.8,16.623c.36.1.708.188,1.05.273l-.538,2.154,1.317.328.545-2.184c2.245.425,3.933.254,4.644-1.777a2.309,2.309,0,0,0-1.21-3.193A2.1,2.1,0,0,0,17.29,10.29Zm-3.009,4.219c-.407,1.635-3.16.751-4.053.53l.723-2.9C11.844,12.363,14.706,12.8,14.281,14.509Zm.407-4.242c-.371,1.487-2.663.731-3.406.546l.656-2.629C12.681,8.369,15.075,8.715,14.688,10.267Z" fill="#61616b" stroke="none"></path><circle cx="12" cy="12" r="11" fill="none" stroke="#61616b" stroke-width="2"></circle></g></svg>