<svg xmlns="http://www.w3.org/2000/svg" height="64" width="64" viewBox="0 0 64 64"><title>bitcoin 3</title><g stroke-linecap="round" fill="#61616b" stroke-linejoin="round" class="nc-icon-wrapper"><path data-color="color-2" data-stroke="none" d="M46.426,27.337c.652-4.355-2.664-6.7-7.2-8.258l1.471-5.9-3.591-.895-1.432,5.744c-.944-.235-1.914-.457-2.877-.677l1.442-5.782-3.589-.9-1.472,5.9-7.242-1.794-.955,3.835s2.664.611,2.608.649a1.91,1.91,0,0,1,1.673,2.089L21.234,37.512a1.307,1.307,0,0,1-1.646.853c.036.053-2.61-.651-2.61-.651L15.2,41.825l7.233,1.825-1.486,5.968,3.587.894L26,44.609c.98.266,1.931.511,2.862.742L27.4,51.228l3.591.894,1.486-5.955c6.124,1.158,10.729.691,12.667-4.848,1.562-4.459-.077-7.032-3.3-8.709C44.187,32.069,45.954,30.525,46.426,27.337ZM38.221,38.843c-1.11,4.46-8.619,2.049-11.053,1.444l1.972-7.905C31.574,32.989,39.381,34.192,38.221,38.843Zm1.111-11.57c-1.013,4.056-7.263,2-9.29,1.49l1.788-7.17C33.857,22.1,40.386,23.041,39.332,27.273Z" fill="#61616b" stroke="none"></path><circle cx="32" cy="32" r="29" fill="none" stroke="#61616b" stroke-width="2"></circle></g></svg>