<svg xmlns="http://www.w3.org/2000/svg" height="64" width="64" viewBox="0 0 64 64"><title>books 3</title><g stroke-linecap="round" fill="#61616b" stroke-linejoin="round" class="nc-icon-wrapper"><line data-color="color-2" fill="none" stroke="#61616b" stroke-width="2" x1="10" y1="16" x2="10" y2="28"></line> <line data-cap="butt" data-color="color-2" fill="none" stroke="#61616b" stroke-width="2" x1="2" y1="44" x2="18" y2="44"></line> <line data-color="color-2" fill="none" stroke="#61616b" stroke-width="2" x1="26" y1="16" x2="26" y2="28"></line> <line data-cap="butt" data-color="color-2" fill="none" stroke="#61616b" stroke-width="2" x1="18" y1="44" x2="34" y2="44"></line> <line data-color="color-2" fill="none" stroke="#61616b" stroke-width="2" x1="43.997" y1="15.304" x2="46.345" y2="27.073"></line> <line data-cap="butt" data-color="color-2" fill="none" stroke="#61616b" stroke-width="2" x1="41.63" y1="44.329" x2="57.321" y2="41.198"></line> <polygon fill="none" stroke="#61616b" stroke-width="2" points="2,5 2,48.75 2,61 18,61 18,48.75 18,5 "></polygon> <polygon fill="none" stroke="#61616b" stroke-width="2" points="18,5 18,48.75 18,61 34,61 34,48.75 34,5 "></polygon> <polygon fill="none" stroke="#61616b" stroke-width="2" points="34,6.082 42.559,48.987 44.956,61 60.647,57.87 58.25,45.856 49.691,2.952 "></polygon></g></svg>