<svg xmlns="http://www.w3.org/2000/svg" height="64" width="64" viewBox="0 0 64 64"><title>briefcase 25 3</title><g stroke-linecap="round" fill="#61616b" stroke-linejoin="round" class="nc-icon-wrapper"><polyline data-color="color-2" fill="none" stroke="#61616b" stroke-width="2" points=" 22,12 22,4 42,4 42,12 "></polyline> <path fill="none" stroke="#61616b" stroke-width="2" d="M12,44H2V16 c0-2.209,1.791-4,4-4h52c2.209,0,4,1.791,4,4v28H52"></path> <path fill="none" stroke="#61616b" stroke-width="2" d="M58,49v7 c0,2.209-1.791,4-4,4H10c-2.209,0-4-1.791-4-4v-7"></path> <line fill="none" stroke="#61616b" stroke-width="2" x1="17" y1="12" x2="17" y2="39"></line> <line fill="none" stroke="#61616b" stroke-width="2" x1="17" y1="49" x2="17" y2="60"></line> <line fill="none" stroke="#61616b" stroke-width="2" x1="47" y1="12" x2="47" y2="39"></line> <line fill="none" stroke="#61616b" stroke-width="2" x1="47" y1="49" x2="47" y2="60"></line> <line fill="none" stroke="#61616b" stroke-width="2" x1="22" y1="44" x2="42" y2="44"></line> <rect data-color="color-2" x="12" y="39" fill="none" stroke="#61616b" stroke-width="2" width="10" height="10"></rect> <rect data-color="color-2" x="42" y="39" fill="none" stroke="#61616b" stroke-width="2" width="10" height="10"></rect></g></svg>