<svg xmlns="http://www.w3.org/2000/svg" height="16" width="16" viewBox="0 0 16 16"><title>briefcase 24 3</title><g fill="#61616b" class="nc-icon-wrapper"><polyline points="5.5 3.5 5.5 0.5 10.5 0.5 10.5 3.5" fill="none" stroke="#61616b" stroke-linecap="round" stroke-linejoin="round" data-color="color-2"></polyline> <path d="M1.5,3.5h13a1,1,0,0,1,1,1v5a0,0,0,0,1,0,0H.5a0,0,0,0,1,0,0v-5a1,1,0,0,1,1-1Z" fill="none" stroke="#61616b" stroke-linecap="round" stroke-linejoin="round"></path> <path d="M14.5,11.5v2a1,1,0,0,1-1,1H2.5a1,1,0,0,1-1-1v-2" fill="none" stroke="#61616b" stroke-linecap="round" stroke-linejoin="round"></path></g></svg>