<svg xmlns="http://www.w3.org/2000/svg" height="48" width="48" viewBox="0 0 48 48"><title>briefcase 25 4</title><g stroke-linecap="round" fill="#61616b" stroke-linejoin="round" class="nc-icon-wrapper"><polyline data-color="color-2" fill="none" stroke="#61616b" stroke-width="2" points=" 17,9 17,3 31,3 31,9 "></polyline> <line fill="none" stroke="#61616b" stroke-width="2" x1="31" y1="31" x2="17" y2="31"></line> <path fill="none" stroke="#61616b" stroke-width="2" d="M9,31H2V11 c0-1.105,0.895-2,2-2h40c1.105,0,2,0.895,2,2v20h-7"></path> <path fill="none" stroke="#61616b" stroke-width="2" d="M44,36v7 c0,1.105-0.895,2-2,2H6c-1.105,0-2-0.895-2-2v-7"></path> <line fill="none" stroke="#61616b" stroke-width="2" x1="13" y1="9" x2="13" y2="27"></line> <line fill="none" stroke="#61616b" stroke-width="2" x1="13" y1="35" x2="13" y2="45"></line> <line fill="none" stroke="#61616b" stroke-width="2" x1="35" y1="9" x2="35" y2="27"></line> <line fill="none" stroke="#61616b" stroke-width="2" x1="35" y1="35" x2="35" y2="45"></line> <rect data-color="color-2" x="9" y="27" fill="none" stroke="#61616b" stroke-width="2" width="8" height="8"></rect> <rect data-color="color-2" x="31" y="27" fill="none" stroke="#61616b" stroke-width="2" width="8" height="8"></rect></g></svg>