<svg xmlns="http://www.w3.org/2000/svg" height="48" width="48" viewBox="0 0 48 48"><title>business contact 85 3</title><g stroke-linecap="round" fill="#61616b" stroke-linejoin="round" class="nc-icon-wrapper"><line data-color="color-2" fill="none" stroke="#61616b" stroke-width="2" x1="28" y1="38" x2="34" y2="38"></line> <path data-cap="butt" fill="none" stroke="#61616b" stroke-width="2" d="M13.001,13.856 c0.958,0.222,1.947,0.355,2.97,0.355c3.92,0,7.459-1.615,10-4.211c2.324,2.373,5.505,3.92,9.029,4.169"></path> <path fill="none" stroke="#61616b" stroke-width="2" d="M13,14c0-6,4.373-12,11-12 s11,6,11,12c0,9-6,14-11,14S13,23,13,14z"></path> <path data-cap="butt" fill="none" stroke="#61616b" stroke-width="2" d="M19.48,26.712L5.942,34.835 C4.737,35.558,4,36.86,4,38.265V46h40v-7.735c0-1.405-0.737-2.707-1.942-3.43L28.52,26.712"></path> </g></svg>