<svg xmlns="http://www.w3.org/2000/svg" height="32" width="32" viewBox="0 0 32 32"><title>business contact 85 4</title><g stroke-linecap="round" fill="#61616b" stroke-linejoin="round" class="nc-icon-wrapper"><path data-cap="butt" fill="none" stroke="#61616b" stroke-width="2" d="M12.819,19.083l-8.734,4.78 C2.8,24.564,2,25.911,2,27.375V31h28v-3.625c0-1.464-0.8-2.811-2.085-3.512l-8.734-4.78"></path> <path fill="none" stroke="#61616b" stroke-width="2" d="M8,9c0-4.418,3.582-8,8-8 s8,3.582,8,8c0,6-3.582,11-8,11S8,15,8,9z"></path> <path data-cap="butt" fill="none" stroke="#61616b" stroke-width="2" d="M8.038,8.212 C9.207,8.712,10.558,9,12,9c2.621,0,4.941-0.95,6.4-2.411C19.677,8.05,21.706,9,24,9"></path> <line data-color="color-2" fill="none" stroke="#61616b" stroke-width="2" x1="20" y1="26" x2="24" y2="26"></line> </g></svg>