<svg xmlns="http://www.w3.org/2000/svg" height="64" width="64" viewBox="0 0 64 64"><title>businessman 03 3</title><g stroke-linecap="round" fill="#61616b" stroke-linejoin="round" class="nc-icon-wrapper"><polyline data-cap="butt" data-color="color-2" fill="none" stroke="#61616b" stroke-width="2" points="44,62 36,30 41.841,22.151 "></polyline> <polyline data-cap="butt" data-color="color-2" fill="none" stroke="#61616b" stroke-width="2" points="22.159,22.151 28,30 20,62 "></polyline> <line data-cap="butt" data-color="color-2" fill="none" stroke="#61616b" stroke-width="2" x1="28" y1="30" x2="36" y2="30"></line> <path fill="none" stroke="#61616b" stroke-width="2" d="M48,10h10 c2.209,0,4,1.791,4,4v44c0,2.209-1.791,4-4,4H6c-2.209,0-4-1.791-4-4V14c0-2.209,1.791-4,4-4h10"></path> <polyline data-cap="butt" fill="none" stroke="#61616b" stroke-width="2" points="48,2 32,16 48,26 48,2 16,2 16,26 32,16 16,2 "></polyline></g></svg>