<svg xmlns="http://www.w3.org/2000/svg" height="32" width="32" viewBox="0 0 32 32"><title>business contact 88</title><g stroke-linecap="round" fill="#61616b" stroke-linejoin="round" class="nc-icon-wrapper"><line data-color="color-2" fill="none" stroke="#61616b" stroke-width="2" x1="16" y1="31" x2="16" y2="24"></line> <path data-cap="butt" fill="none" stroke="#61616b" stroke-width="2" d="M12.819,19.083l-8.367,5.042 C3.551,24.668,3,25.643,3,26.695V31h26v-4.305c0-1.052-0.551-2.027-1.452-2.57l-8.367-5.042"></path> <path fill="none" stroke="#61616b" stroke-width="2" d="M8,9c0-4.418,3.582-8,8-8 s8,3.582,8,8c0,6-3.582,11-8,11S8,15,8,9z"></path> <path data-cap="butt" fill="none" stroke="#61616b" stroke-width="2" d="M8.038,8.212 C9.207,8.712,10.558,9,12,9c2.621,0,4.941-0.95,6.4-2.411C19.677,8.05,21.706,9,24,9"></path> <path data-cap="butt" fill="none" stroke="#61616b" stroke-width="2" d="M8,9c0,0,0,7-4,10 c1,2,4,2.987,4,2.987"></path> <path data-cap="butt" fill="none" stroke="#61616b" stroke-width="2" d="M24,9c0,0,0,7,4,10 c-1,2-4,2.987-4,2.987"></path></g></svg>