<svg xmlns="http://www.w3.org/2000/svg" height="48" width="48" viewBox="0 0 48 48"><title>calculator 4</title><g stroke-linecap="round" fill="#61616b" stroke-linejoin="round" class="nc-icon-wrapper"><path fill="none" stroke="#61616b" stroke-width="2" d="M40,46H8 c-1.657,0-3-1.343-3-3V5c0-1.657,1.343-3,3-3h32c1.657,0,3,1.343,3,3v38C43,44.657,41.657,46,40,46z"></path> <rect data-color="color-2" x="11" y="8" fill="none" stroke="#61616b" stroke-width="2" width="26" height="8"></rect> <polyline data-color="color-2" fill="none" stroke="#61616b" stroke-width="2" points=" 37,28 37,40 31,40 31,28 37,28 "></polyline> <line fill="none" stroke="#61616b" stroke-width="2" x1="11" y1="22" x2="15" y2="22"></line> <line fill="none" stroke="#61616b" stroke-width="2" x1="21" y1="22" x2="25" y2="22"></line> <line fill="none" stroke="#61616b" stroke-width="2" x1="32" y1="22" x2="36" y2="22"></line> <line fill="none" stroke="#61616b" stroke-width="2" x1="11" y1="40" x2="15" y2="40"></line> <line fill="none" stroke="#61616b" stroke-width="2" x1="21" y1="40" x2="25" y2="40"></line> <line fill="none" stroke="#61616b" stroke-width="2" x1="11" y1="34" x2="15" y2="34"></line> <line fill="none" stroke="#61616b" stroke-width="2" x1="21" y1="34" x2="25" y2="34"></line> <line fill="none" stroke="#61616b" stroke-width="2" x1="11" y1="28" x2="15" y2="28"></line> <line fill="none" stroke="#61616b" stroke-width="2" x1="21" y1="28" x2="25" y2="28"></line></g></svg>