<svg xmlns="http://www.w3.org/2000/svg" height="64" width="64" viewBox="0 0 64 64"><title>calculator 3</title><g stroke-linecap="round" fill="#61616b" stroke-linejoin="round" class="nc-icon-wrapper"><path fill="none" stroke="#61616b" stroke-width="2" d="M54,62H10 c-2.209,0-4-1.791-4-4V6c0-2.209,1.791-4,4-4h44c2.209,0,4,1.791,4,4v52C58,60.209,56.209,62,54,62z"></path> <rect data-color="color-2" x="14" y="10" fill="none" stroke="#61616b" stroke-width="2" width="36" height="8"></rect> <rect data-color="color-2" x="14" y="24" fill="none" stroke="#61616b" stroke-width="2" width="8" height="6"></rect> <rect data-color="color-2" x="28" y="24" fill="none" stroke="#61616b" stroke-width="2" width="8" height="6"></rect> <rect data-color="color-2" x="42" y="24" fill="none" stroke="#61616b" stroke-width="2" width="8" height="6"></rect> <rect data-color="color-2" x="14" y="36" fill="none" stroke="#61616b" stroke-width="2" width="8" height="6"></rect> <rect data-color="color-2" x="28" y="36" fill="none" stroke="#61616b" stroke-width="2" width="8" height="6"></rect> <rect data-color="color-2" x="14" y="48" fill="none" stroke="#61616b" stroke-width="2" width="8" height="6"></rect> <rect data-color="color-2" x="28" y="48" fill="none" stroke="#61616b" stroke-width="2" width="8" height="6"></rect> <rect data-color="color-2" x="42" y="36" fill="none" stroke="#61616b" stroke-width="2" width="8" height="18"></rect></g></svg>