<svg xmlns="http://www.w3.org/2000/svg" height="64" width="64" viewBox="0 0 64 64"><title>card switch 2</title><g stroke-linecap="round" fill="#61616b" stroke-linejoin="round" class="nc-icon-wrapper"><path data-color="color-2" data-stroke="none" fill="#61616b" d="M36.958,29.049c2.891,4.439,1.635,10.381-2.803,13.271 c-4.439,2.891-10.381,1.636-13.271-2.803l2.756-1.852c1.877,2.882,5.735,3.697,8.618,1.82c2.882-1.877,3.697-5.735,1.82-8.618 L36.958,29.049z" stroke-linejoin="miter" stroke="none"></path> <path data-color="color-2" data-stroke="none" fill="#61616b" d="M43.371,24.975c-2.896-4.435-8.84-5.682-13.275-2.786 c-4.435,2.896-5.682,8.84-2.786,13.275l2.806-1.775c-1.881-2.88-1.071-6.739,1.809-8.62c2.88-1.881,6.739-1.071,8.62,1.809 L43.371,24.975z" stroke-linejoin="miter" stroke="none"></path> <path fill="none" stroke="#61616b" stroke-width="2" d="M2,50V14c0-2.2,1.8-4,4-4 h52c2.2,0,4,1.8,4,4v36c0,2.2-1.8,4-4,4H6C3.8,54,2,52.2,2,50z"></path></g></svg>