<svg xmlns="http://www.w3.org/2000/svg" height="48" width="48" viewBox="0 0 48 48"><title>card switch</title><g stroke-linecap="round" fill="#61616b" stroke-linejoin="round" class="nc-icon-wrapper"><path fill="none" stroke="#61616b" stroke-width="2" d="M43,40H5 c-1.657,0-3-1.343-3-3V11c0-1.657,1.343-3,3-3h27h11c1.657,0,3,1.343,3,3v26C46,38.657,44.657,40,43,40z"></path> <path data-color="color-2" data-stroke="none" fill="#61616b" d="M28.127,21.6c2.393,3.675,1.354,8.595-2.321,10.988 c-3.675,2.393-8.595,1.354-10.988-2.321l2.282-1.533c1.554,2.386,4.749,3.061,7.135,1.507c2.386-1.554,3.061-4.749,1.507-7.135 L28.127,21.6z" stroke-linejoin="miter" stroke="none"></path> <path data-color="color-2" data-stroke="none" fill="#61616b" d="M33.437,18.227c-2.398-3.672-7.319-4.705-10.991-2.307 c-3.672,2.398-4.705,7.319-2.307,10.991l2.323-1.47c-1.557-2.384-0.887-5.58,1.498-7.137c2.384-1.557,5.58-0.887,7.137,1.498 L33.437,18.227z" stroke-linejoin="miter" stroke="none"></path></g></svg>