<svg xmlns="http://www.w3.org/2000/svg" height="32" width="32" viewBox="0 0 32 32"><title>card favorite 5</title><g stroke-linecap="round" fill="#61616b" stroke-linejoin="round" class="nc-icon-wrapper"><line fill="none" stroke="#61616b" stroke-width="2" x1="5" y1="20" x2="12" y2="20"></line> <line fill="none" stroke="#61616b" stroke-width="2" x1="1" y1="9" x2="31" y2="9"></line> <line fill="none" stroke="#61616b" stroke-width="2" x1="1" y1="14" x2="31" y2="14"></line> <path fill="none" stroke="#61616b" stroke-width="2" d="M15,25H3 c-1.105,0-2-0.895-2-2V5c0-1.105,0.895-2,2-2h26c1.105,0,2,0.895,2,2v9"></path> <path data-color="color-2" fill="none" stroke="#61616b" stroke-width="2" d=" M30.041,18.992c-1.46-1.511-3.895-1.264-5.041,0.523c-1.147-1.789-3.583-2.032-5.041-0.523c-1.278,1.323-1.278,3.467,0,4.79 L24.999,29l5.042-5.218C31.32,22.459,31.32,20.315,30.041,18.992z"></path></g></svg>