<svg xmlns="http://www.w3.org/2000/svg" height="32" width="32" viewBox="0 0 32 32"><title>card update 4</title><g stroke-linecap="round" fill="#61616b" stroke-linejoin="round" class="nc-icon-wrapper"><line fill="none" stroke="#61616b" stroke-width="2" x1="5" y1="19" x2="12" y2="19"></line> <line fill="none" stroke="#61616b" stroke-width="2" x1="1" y1="8" x2="31" y2="8"></line> <line fill="none" stroke="#61616b" stroke-width="2" x1="1" y1="13" x2="31" y2="13"></line> <path fill="none" stroke="#61616b" stroke-width="2" d="M15,24H3 c-1.105,0-2-0.895-2-2V4c0-1.105,0.895-2,2-2h26c1.105,0,2,0.895,2,2v9"></path> <path data-cap="butt" data-color="color-2" fill="none" stroke="#61616b" stroke-width="2" d="M27.988,20.012 C27.075,18.797,25.636,18,24,18c-2.761,0-5,2.239-5,5"></path> <polygon data-color="color-2" data-stroke="none" fill="#61616b" points="30,16 30,22 24,22 " stroke-linejoin="miter" stroke="none"></polygon> <path data-cap="butt" data-color="color-2" fill="none" stroke="#61616b" stroke-width="2" d="M20.012,26.988 C20.925,28.203,22.364,29,24,29c2.761,0,5-2.239,5-5"></path> <polyline data-color="color-2" data-stroke="none" fill="#61616b" points="18,25 24,25 18,31 " stroke-linejoin="miter" stroke="none"></polyline></g></svg>