<svg xmlns="http://www.w3.org/2000/svg" height="48" width="48" viewBox="0 0 48 48"><title>card favorite 4</title><g stroke-linecap="round" fill="#61616b" stroke-linejoin="round" class="nc-icon-wrapper"><path data-color="color-2" fill="none" stroke="#61616b" stroke-width="2" d=" M44.402,28.623C41.97,26.151,37.91,26.555,36,29.48c-1.912-2.927-5.972-3.325-8.402-0.856c-2.13,2.164-2.13,5.674,0,7.838L35.999,45 l8.403-8.538C46.533,34.297,46.533,30.788,44.402,28.623z"></path> <line fill="none" stroke="#61616b" stroke-width="2" x1="2" y1="10" x2="46" y2="10"></line> <path fill="none" stroke="#61616b" stroke-width="2" d="M2,20h44V6c0-2.2-1.8-4-4-4 H32H6C3.8,2,2,3.8,2,6v26c0,2.2,1.8,4,4,4h12"></path> <line fill="none" stroke="#61616b" stroke-width="2" x1="9" y1="28" x2="18" y2="28"></line></g></svg>