<svg xmlns="http://www.w3.org/2000/svg" height="48" width="48" viewBox="0 0 48 48"><title>card update 3</title><g stroke-linecap="round" fill="#61616b" stroke-linejoin="round" class="nc-icon-wrapper"><path data-cap="butt" data-color="color-2" fill="none" stroke="#61616b" stroke-width="2" d="M26.223,34 c0.91-4.008,4.494-7,8.777-7c3.534,0,6.527,2.037,8,5"></path> <line fill="none" stroke="#61616b" stroke-width="2" x1="2" y1="10" x2="46" y2="10"></line> <path fill="none" stroke="#61616b" stroke-width="2" d="M2,20h44V6c0-2.2-1.8-4-4-4 H32H6C3.8,2,2,3.8,2,6v26c0,2.2,1.8,4,4,4h12"></path> <line fill="none" stroke="#61616b" stroke-width="2" x1="9" y1="28" x2="18" y2="28"></line> <polyline data-color="color-2" fill="none" stroke="#61616b" stroke-width="2" points=" 43,26 43,32 37,32 "></polyline> <path data-cap="butt" data-color="color-2" fill="none" stroke="#61616b" stroke-width="2" d="M43.777,38 c-0.91,4.008-4.494,7-8.777,7c-3.534,0-6.527-2.037-8-5"></path> <polyline data-color="color-2" fill="none" stroke="#61616b" stroke-width="2" points=" 27,46 27,40 33,40 "></polyline></g></svg>