<svg xmlns="http://www.w3.org/2000/svg" height="24" width="24" viewBox="0 0 24 24"><title>card favorite</title><g stroke-linecap="round" fill="#61616b" stroke-linejoin="round" class="nc-icon-wrapper"><line fill="none" stroke="#61616b" stroke-width="2" x1="1" y1="5" x2="23" y2="5"></line> <line fill="none" stroke="#61616b" stroke-width="2" x1="1" y1="10" x2="23" y2="10"></line> <path fill="none" stroke="#61616b" stroke-width="2" d="M23,10V3c0-1.1-0.9-2-2-2 h-5H3C1.9,1,1,1.9,1,3v13c0,1.1,0.9,2,2,2h6"></path> <path data-color="color-2" fill="none" stroke="#61616b" stroke-width="2" d=" M22.201,13.812c-1.216-1.236-3.246-1.034-4.201,0.428c-0.956-1.464-2.986-1.663-4.201-0.428c-1.065,1.082-1.065,2.837,0,3.919L18,22 l4.202-4.269C23.266,16.649,23.266,14.894,22.201,13.812z"></path></g></svg>