<svg xmlns="http://www.w3.org/2000/svg" height="16" width="16" viewBox="0 0 16 16"><title>card favorite 2</title><g fill="#61616b" class="nc-icon-wrapper"><line fill="none" stroke="#61616b" stroke-linecap="round" stroke-linejoin="round" x1="0.5" y1="4.5" x2="15.5" y2="4.5" data-cap="butt"></line> <path fill="none" stroke="#61616b" stroke-linecap="round" stroke-linejoin="round" d="M5.5,12.5h-4 c-0.552,0-1-0.448-1-1v-10c0-0.552,0.448-1,1-1h13c0.552,0,1,0.448,1,1v5" data-cap="butt"></path> <path fill="none" stroke="#61616b" stroke-linecap="round" stroke-linejoin="round" d="M14.861,9.118 c-0.973-0.963-2.597-0.77-3.361,0.37c-0.765-1.141-2.389-1.332-3.361-0.37c-0.852,0.843-0.852,2.211,0,3.055L11.5,15.5l3.361-3.328 C15.713,11.329,15.713,9.961,14.861,9.118z" data-cap="butt" data-color="color-2"></path></g></svg>