<svg xmlns="http://www.w3.org/2000/svg" height="64" width="64" viewBox="0 0 64 64"><title>card favorite 3</title><g stroke-linecap="round" fill="#61616b" stroke-linejoin="round" class="nc-icon-wrapper"><path data-color="color-2" fill="none" stroke="#61616b" stroke-width="2" d=" M57.083,38.984C54.164,35.962,49.292,36.456,47,40.03c-2.294-3.578-7.167-4.065-10.083-1.047c-2.556,2.645-2.556,6.935,0,9.58 L46.999,59l10.084-10.436C59.639,45.918,59.639,41.629,57.083,38.984z"></path> <line fill="none" stroke="#61616b" stroke-width="2" x1="2" y1="17" x2="62" y2="17"></line> <line fill="none" stroke="#61616b" stroke-width="2" x1="2" y1="27" x2="62" y2="27"></line> <path fill="none" stroke="#61616b" stroke-width="2" d="M28,49H6 c-2.209,0-4-1.791-4-4V9c0-2.209,1.791-4,4-4h52c2.209,0,4,1.791,4,4v24"></path> <line fill="none" stroke="#61616b" stroke-width="2" x1="10" y1="39" x2="24" y2="39"></line></g></svg>