<svg xmlns="http://www.w3.org/2000/svg" height="64" width="64" viewBox="0 0 64 64"><title>card update 2</title><g stroke-linecap="round" fill="#61616b" stroke-linejoin="round" class="nc-icon-wrapper"><path data-cap="butt" data-color="color-2" fill="none" stroke="#61616b" stroke-width="2" d="M37.2,46 c0.927-4.564,4.962-8,9.8-8c4.099,0,7.456,2.47,9,6"></path> <path data-cap="butt" data-color="color-2" fill="none" stroke="#61616b" stroke-width="2" d="M56.8,50 c-0.927,4.564-4.962,8-9.8,8c-4.099,0-7.456-2.47-9-6"></path> <line fill="none" stroke="#61616b" stroke-width="2" x1="2" y1="17" x2="62" y2="17"></line> <line fill="none" stroke="#61616b" stroke-width="2" x1="2" y1="27" x2="62" y2="27"></line> <path fill="none" stroke="#61616b" stroke-width="2" d="M28,49H6 c-2.209,0-4-1.791-4-4V9c0-2.209,1.791-4,4-4h52c2.209,0,4,1.791,4,4v24"></path> <line fill="none" stroke="#61616b" stroke-width="2" x1="10" y1="39" x2="24" y2="39"></line> <polyline data-color="color-2" fill="none" stroke="#61616b" stroke-width="2" points=" 56,37 56,44 49,44 "></polyline> <polyline data-color="color-2" fill="none" stroke="#61616b" stroke-width="2" points=" 38,59 38,52 45,52 "></polyline></g></svg>