<svg xmlns="http://www.w3.org/2000/svg" height="64" width="64" viewBox="0 0 64 64"><title>citi 2</title><g stroke-linecap="round" fill="#61616b" stroke-linejoin="round" class="nc-icon-wrapper"><polygon data-color="color-2" data-stroke="none" fill-rule="evenodd" clip-rule="evenodd" fill="#61616b" points="31.431,28.739 29.147,28.739 29.147,39.905 31.431,39.905 31.431,28.739 " stroke-linejoin="miter" stroke="none"></polygon> <path data-color="color-2" data-stroke="none" fill-rule="evenodd" clip-rule="evenodd" fill="#61616b" d="M33.524,28.757v2.094h1.922v6.299 c0,0.869,0.239,1.567,0.698,2.094c0.459,0.545,1.071,0.814,1.843,0.833c0.765,0.018,1.445-0.153,2.02-0.508l0.037-0.018v-0.037 l0.545-2.124l-0.135,0.086c-0.612,0.373-1.175,0.557-1.69,0.557c-0.71,0-1.071-0.422-1.071-1.255v-5.926h2.332v-2.094h-2.332v-3.489 l-2.247,1.206v2.283H33.524L33.524,28.757z" stroke-linejoin="miter" stroke="none"></path> <polygon data-color="color-2" data-stroke="none" fill-rule="evenodd" clip-rule="evenodd" fill="#61616b" points="44.574,28.739 42.272,28.739 42.272,39.905 44.574,39.905 44.574,28.739 " stroke-linejoin="miter" stroke="none"></polygon> <path data-color="color-2" data-stroke="none" fill-rule="evenodd" clip-rule="evenodd" fill="#61616b" d="M27.837,30.496l-0.049-0.037 c-1.053-1.279-2.369-1.904-3.948-1.904c-1.653,0-3.012,0.508-4.101,1.512C18.582,31.126,18,32.553,18,34.34 c0,1.787,0.582,3.202,1.739,4.273c1.071,1.004,2.449,1.5,4.101,1.5c1.579,0,2.908-0.631,3.948-1.892l0.049-0.037l-1.292-1.561 l-0.049,0.049c-0.839,0.833-1.738,1.261-2.706,1.261c-1.01,0-1.843-0.343-2.504-1.022c-0.667-0.667-0.986-1.53-0.986-2.571 c0-1.041,0.318-1.91,0.986-2.589c0.661-0.661,1.494-1.004,2.504-1.004c0.967,0,1.867,0.429,2.706,1.261l0.049,0.049L27.837,30.496 L27.837,30.496z" stroke-linejoin="miter" stroke="none"></path> <path data-color="color-2" data-stroke="none" fill-rule="evenodd" clip-rule="evenodd" fill="#61616b" d="M30.274,26.902 c0.9-0.918,1.904-1.616,3.049-2.112c1.102-0.477,2.277-0.71,3.489-0.71c1.206,0,2.381,0.233,3.508,0.71 c1.12,0.496,2.124,1.194,3.024,2.112l0.037,0.031H46l-0.098-0.153c-1.041-1.463-2.387-2.62-4.003-3.465 c-1.616-0.839-3.3-1.249-5.087-1.249c-1.769,0-3.477,0.41-5.093,1.249c-1.616,0.845-2.963,2.002-3.997,3.465l-0.104,0.153h2.638 L30.274,26.902L30.274,26.902z" stroke-linejoin="miter" stroke="none"></path> <polygon data-color="color-2" data-stroke="none" fill-rule="evenodd" clip-rule="evenodd" fill="#61616b" points="31.431,28.739 29.147,28.739 29.147,39.905 31.431,39.905 31.431,28.739 " stroke-linejoin="miter" stroke="none"></polygon> <path data-color="color-2" data-stroke="none" fill-rule="evenodd" clip-rule="evenodd" fill="#61616b" d="M33.524,28.757v2.094h1.922v6.299 c0,0.869,0.239,1.567,0.698,2.094c0.459,0.545,1.071,0.814,1.843,0.833c0.765,0.018,1.445-0.153,2.02-0.508l0.037-0.018v-0.037 l0.545-2.124l-0.135,0.086c-0.612,0.373-1.175,0.557-1.69,0.557c-0.71,0-1.071-0.422-1.071-1.255v-5.926h2.332v-2.094h-2.332v-3.489 l-2.247,1.206v2.283H33.524L33.524,28.757z" stroke-linejoin="miter" stroke="none"></path> <polygon data-color="color-2" data-stroke="none" fill-rule="evenodd" clip-rule="evenodd" fill="#61616b" points="44.574,28.739 42.272,28.739 42.272,39.905 44.574,39.905 44.574,28.739 " stroke-linejoin="miter" stroke="none"></polygon> <path data-color="color-2" data-stroke="none" fill-rule="evenodd" clip-rule="evenodd" fill="#61616b" d="M27.837,30.496l-0.049-0.037 c-1.053-1.279-2.369-1.904-3.948-1.904c-1.653,0-3.012,0.508-4.101,1.512C18.582,31.126,18,32.553,18,34.34 c0,1.787,0.582,3.202,1.739,4.273c1.071,1.004,2.449,1.5,4.101,1.5c1.579,0,2.908-0.631,3.948-1.892l0.049-0.037l-1.292-1.561 l-0.049,0.049c-0.839,0.833-1.738,1.261-2.706,1.261c-1.01,0-1.843-0.343-2.504-1.022c-0.667-0.667-0.986-1.53-0.986-2.571 c0-1.041,0.318-1.91,0.986-2.589c0.661-0.661,1.494-1.004,2.504-1.004c0.967,0,1.867,0.429,2.706,1.261l0.049,0.049L27.837,30.496 L27.837,30.496z" stroke-linejoin="miter" stroke="none"></path> <path data-color="color-2" data-stroke="none" fill-rule="evenodd" clip-rule="evenodd" fill="#61616b" d="M30.274,26.902 c0.9-0.918,1.904-1.616,3.049-2.112c1.102-0.477,2.277-0.71,3.489-0.71c1.206,0,2.381,0.233,3.508,0.71 c1.12,0.496,2.124,1.194,3.024,2.112l0.037,0.031H46l-0.098-0.153c-1.041-1.463-2.387-2.62-4.003-3.465 c-1.616-0.839-3.3-1.249-5.087-1.249c-1.769,0-3.477,0.41-5.093,1.249c-1.616,0.845-2.963,2.002-3.997,3.465l-0.104,0.153h2.638 L30.274,26.902L30.274,26.902z" stroke-linejoin="miter" stroke="none"></path> <path fill="none" stroke="#61616b" stroke-width="2" d="M2,50V14c0-2.2,1.8-4,4-4 h52c2.2,0,4,1.8,4,4v36c0,2.2-1.8,4-4,4H6C3.8,54,2,52.2,2,50z"></path></g></svg>