<svg xmlns="http://www.w3.org/2000/svg" height="32" width="32" viewBox="0 0 32 32"><title>cloud mining 4</title><g stroke-linecap="round" fill="#61616b" stroke-linejoin="round" class="nc-icon-wrapper"><circle cx="3.5" cy="28.5" r="2.5" fill="none" stroke="#61616b" stroke-width="2" data-color="color-2"></circle><circle cx="16" cy="28.5" r="2.5" fill="none" stroke="#61616b" stroke-width="2" data-color="color-2"></circle><circle cx="28.5" cy="28.5" r="2.5" fill="none" stroke="#61616b" stroke-width="2" data-color="color-2"></circle><line x1="16" y1="26" x2="16" y2="19" fill="none" stroke="#61616b" stroke-width="2" data-cap="butt" data-color="color-2"></line><polyline points="26.733 26.733 24 24 24 19" fill="none" stroke="#61616b" stroke-width="2" data-cap="butt" data-color="color-2"></polyline><polyline points="5.268 26.732 8 24 8 19" fill="none" stroke="#61616b" stroke-width="2" data-cap="butt" data-color="color-2"></polyline><path d="M25,7c-.173,0-.344.012-.514.026a8.988,8.988,0,0,0-16.972,0C7.344,7.012,7.173,7,7,7A6,6,0,0,0,7,19H25A6,6,0,0,0,25,7Z" fill="none" stroke="#61616b" stroke-width="2"></path></g></svg>