<svg xmlns="http://www.w3.org/2000/svg" height="48" width="48" viewBox="0 0 48 48"><title>cloud mining 3</title><g stroke-linecap="round" fill="#61616b" stroke-linejoin="round" class="nc-icon-wrapper"><circle cx="5" cy="43" r="3" fill="none" stroke="#61616b" stroke-width="2" data-cap="butt" data-color="color-2"></circle><circle cx="24" cy="43" r="3" fill="none" stroke="#61616b" stroke-width="2" data-cap="butt" data-color="color-2"></circle><circle cx="43" cy="43" r="3" fill="none" stroke="#61616b" stroke-width="2" data-cap="butt" data-color="color-2"></circle><line x1="24" y1="40" x2="24" y2="33" fill="none" stroke="#61616b" stroke-width="2" data-color="color-2"></line><polyline points="40.879 40.879 37 37 37 33" fill="none" stroke="#61616b" stroke-width="2" data-color="color-2"></polyline><polyline points="7.121 40.879 11 37 11 33" fill="none" stroke="#61616b" stroke-width="2" data-color="color-2"></polyline><path d="M37,10a8.034,8.034,0,0,0-.975.067A13,13,0,0,0,26.018,2.172c-.07-.012-.139-.021-.209-.032-.228-.031-.456-.063-.688-.083C24.752,2.022,24.379,2,24,2s-.752.022-1.121.057c-.232.02-.46.052-.688.083-.07.011-.139.02-.209.032a13,13,0,0,0-10.007,7.9A8.034,8.034,0,0,0,11,10a9,9,0,0,0,0,18H37a9,9,0,0,0,0-18Z" fill="none" stroke="#61616b" stroke-width="2" data-cap="butt"></path><path d="M30.612,13.863c.3-2-1.221-3.069-3.3-3.785l.675-2.7-1.646-.41L25.684,9.6c-.432-.108-.877-.209-1.318-.31l.661-2.65-1.645-.41-.675,2.7-3.319-.823L18.95,9.865s1.221.279,1.2.3a.874.874,0,0,1,.767.957l-1.847,7.407a.6.6,0,0,1-.754.391c.016.024-1.2-.3-1.2-.3L16.3,20.5l3.315.837-.681,2.735,1.644.41.674-2.706c.45.122.885.234,1.312.34l-.672,2.694,1.646.41.681-2.73c2.807.531,4.917.317,5.806-2.222A2.887,2.887,0,0,0,28.51,16.28,2.626,2.626,0,0,0,30.612,13.863Zm-3.761,5.273c-.508,2.044-3.95.939-5.066.662l.9-3.623C23.805,16.453,27.383,17.005,26.851,19.136Zm.509-5.3c-.464,1.86-3.328.915-4.257.683l.819-3.286C24.851,11.462,27.844,11.894,27.36,13.833Z" fill="#61616b" data-stroke="none" stroke="none"></path></g></svg>