<svg xmlns="http://www.w3.org/2000/svg" height="16" width="16" viewBox="0 0 16 16"><title>cloud mining</title><g fill="#61616b" class="nc-icon-wrapper"><circle cx="1.75" cy="14.25" r="1.25" fill="none" stroke="#61616b" stroke-linecap="round" stroke-linejoin="round" data-color="color-2"></circle><circle cx="8" cy="14.25" r="1.25" fill="none" stroke="#61616b" stroke-linecap="round" stroke-linejoin="round" data-color="color-2"></circle><circle cx="14.25" cy="14.25" r="1.25" fill="none" stroke="#61616b" stroke-linecap="round" stroke-linejoin="round" data-color="color-2"></circle><line x1="8" y1="13" x2="8" y2="9.5" fill="none" stroke="#61616b" stroke-linecap="round" stroke-linejoin="round" data-color="color-2"></line><polyline points="13.367 13.367 12 12 12 9.5" fill="none" stroke="#61616b" stroke-linecap="round" stroke-linejoin="round" data-color="color-2"></polyline><polyline points="2.634 13.366 4 12 4 9.5" fill="none" stroke="#61616b" stroke-linecap="round" stroke-linejoin="round" data-color="color-2"></polyline><path d="M12.5,3.5c-.087,0-.172.006-.257.013a4.494,4.494,0,0,0-8.486,0C3.672,3.506,3.587,3.5,3.5,3.5a3,3,0,0,0,0,6h9a3,3,0,0,0,0-6Z" fill="none" stroke="#61616b" stroke-linecap="round" stroke-linejoin="round"></path></g></svg>