<svg xmlns="http://www.w3.org/2000/svg" height="24" width="24" viewBox="0 0 24 24"><title>cloud mining 5</title><g stroke-linecap="round" fill="#61616b" stroke-linejoin="round" class="nc-icon-wrapper"><circle cx="3" cy="21" r="2" fill="none" stroke="#61616b" stroke-width="2" data-color="color-2"></circle><circle cx="12" cy="21" r="2" fill="none" stroke="#61616b" stroke-width="2" data-color="color-2"></circle><circle cx="21" cy="21" r="2" fill="none" stroke="#61616b" stroke-width="2" data-color="color-2"></circle><line x1="12" y1="19" x2="12" y2="14" fill="none" stroke="#61616b" stroke-width="2" data-cap="butt" data-color="color-2"></line><polyline points="19.586 19.586 17 17 17 14" fill="none" stroke="#61616b" stroke-width="2" data-cap="butt" data-color="color-2"></polyline><polyline points="4.414 19.586 7 17 7 14" fill="none" stroke="#61616b" stroke-width="2" data-cap="butt" data-color="color-2"></polyline><path d="M18.5,5a4.448,4.448,0,0,0-.822.083,5.99,5.99,0,0,0-11.356,0A4.448,4.448,0,0,0,5.5,5a4.5,4.5,0,0,0,0,9h13a4.5,4.5,0,0,0,0-9Z" fill="none" stroke="#61616b" stroke-width="2"></path></g></svg>