<svg xmlns="http://www.w3.org/2000/svg" height="64" width="64" viewBox="0 0 64 64"><title>cloud mining 2</title><g stroke-linecap="round" fill="#61616b" stroke-linejoin="round" class="nc-icon-wrapper"><circle cx="8" cy="57" r="4" fill="none" stroke="#61616b" stroke-width="2" data-cap="butt" data-color="color-2"></circle><circle cx="32" cy="57" r="4" fill="none" stroke="#61616b" stroke-width="2" data-cap="butt" data-color="color-2"></circle><circle cx="56" cy="57" r="4" fill="none" stroke="#61616b" stroke-width="2" data-cap="butt" data-color="color-2"></circle><line x1="32" y1="53" x2="32" y2="42" fill="none" stroke="#61616b" stroke-width="2" data-color="color-2"></line><polyline points="53.172 54.172 48 49 48 42" fill="none" stroke="#61616b" stroke-width="2" data-color="color-2"></polyline><polyline points="10.828 54.172 16 49 16 42" fill="none" stroke="#61616b" stroke-width="2" data-color="color-2"></polyline><path d="M40.656,18.2c.391-2.613-1.6-4.018-4.32-4.955l.883-3.54L35.064,9.17l-.859,3.447c-.566-.141-1.148-.274-1.726-.406l.865-3.47L31.191,8.2l-.884,3.539-4.345-1.076-.573,2.3s1.6.366,1.565.389a1.146,1.146,0,0,1,1,1.253l-2.418,9.7a.783.783,0,0,1-.987.512c.021.032-1.566-.391-1.566-.391L21.917,26.9l4.34,1.095-.892,3.581,2.152.536.884-3.542c.587.16,1.158.307,1.717.446l-.88,3.526,2.154.536.892-3.573c3.674.7,6.437.415,7.6-2.908.937-2.676-.046-4.22-1.98-5.226A3.438,3.438,0,0,0,40.656,18.2Zm-4.924,6.9c-.665,2.676-5.171,1.229-6.631.866l1.183-4.743C31.745,21.594,36.428,22.315,35.732,25.106Zm.667-6.942c-.608,2.434-4.357,1.2-5.574.894l1.073-4.3C33.114,15.059,37.032,15.625,36.4,18.164Z" fill="#61616b" data-stroke="none" stroke="none"></path><path d="M49,15c-.25,0-.495.021-.74.037a17,17,0,0,0-32.52,0C15.5,15.021,15.25,15,15,15a11,11,0,0,0,0,22H49a11,11,0,0,0,0-22Z" fill="none" stroke="#61616b" stroke-width="2" data-cap="butt"></path></g></svg>