<svg xmlns="http://www.w3.org/2000/svg" height="64" width="64" viewBox="0 0 64 64"><title>coins 3</title><g stroke-linecap="round" fill="#61616b" stroke-linejoin="round" class="nc-icon-wrapper"><path data-cap="butt" fill="none" stroke="#61616b" stroke-width="2" d="M2,10v8c0,3.314,5.373,6,12,6 s12-2.686,12-6v-8"></path> <path data-cap="butt" fill="none" stroke="#61616b" stroke-width="2" d="M2,18v8c0,3.314,5.373,6,12,6 s12-2.686,12-6v-8"></path> <path data-cap="butt" fill="none" stroke="#61616b" stroke-width="2" d="M2,26v8c0,3.314,5.373,6,12,6"></path> <path data-cap="butt" fill="none" stroke="#61616b" stroke-width="2" d="M2,34v8c0,3.314,5.373,6,12,6"></path> <ellipse fill="none" stroke="#61616b" stroke-width="2" cx="14" cy="10" rx="12" ry="6"></ellipse> <path data-cap="butt" fill="none" stroke="#61616b" stroke-width="2" d="M38,18v8c0,3.314,5.373,6,12,6 s12-2.686,12-6v-8"></path> <path data-cap="butt" fill="none" stroke="#61616b" stroke-width="2" d="M50,40c6.627,0,12-2.686,12-6v-8"></path> <path data-cap="butt" fill="none" stroke="#61616b" stroke-width="2" d="M50,48c6.627,0,12-2.686,12-6v-8"></path> <ellipse fill="none" stroke="#61616b" stroke-width="2" cx="50" cy="18" rx="12" ry="6"></ellipse> <path data-cap="butt" data-color="color-2" fill="none" stroke="#61616b" stroke-width="2" d="M20,38v8c0,3.314,5.373,6,12,6 s12-2.686,12-6v-8"></path> <path data-cap="butt" data-color="color-2" fill="none" stroke="#61616b" stroke-width="2" d="M20,46v8c0,3.314,5.373,6,12,6 s12-2.686,12-6v-8"></path> <ellipse data-color="color-2" fill="none" stroke="#61616b" stroke-width="2" cx="32" cy="38" rx="12" ry="6"></ellipse></g></svg>