<svg xmlns="http://www.w3.org/2000/svg" height="24" width="24" viewBox="0 0 24 24"><title>coins</title><g stroke-linecap="round" fill="#61616b" stroke-linejoin="round" class="nc-icon-wrapper"><path data-cap="butt" data-color="color-2" fill="none" stroke="#61616b" stroke-width="2" d="M1,4v4c0,1.657,2.686,3,6,3 s6-1.343,6-3V4"></path> <path data-cap="butt" data-color="color-2" fill="none" stroke="#61616b" stroke-width="2" d="M1,8v4c0,1.657,2.686,3,6,3 c1.537,0,2.938-0.29,4-0.765"></path> <path data-cap="butt" data-color="color-2" fill="none" stroke="#61616b" stroke-width="2" d="M1,12v4c0,1.657,2.686,3,6,3 c1.537,0,2.939-0.289,4-0.764"></path> <ellipse data-color="color-2" fill="none" stroke="#61616b" stroke-width="2" cx="7" cy="4" rx="6" ry="3"></ellipse> <path data-cap="butt" fill="none" stroke="#61616b" stroke-width="2" d="M11,12v4c0,1.657,2.686,3,6,3s6-1.343,6-3 v-4"></path> <path data-cap="butt" fill="none" stroke="#61616b" stroke-width="2" d="M11,16v4c0,1.657,2.686,3,6,3 s6-1.343,6-3v-4"></path> <ellipse fill="none" stroke="#61616b" stroke-width="2" cx="17" cy="12" rx="6" ry="3"></ellipse></g></svg>