<svg xmlns="http://www.w3.org/2000/svg" height="48" width="48" viewBox="0 0 48 48"><title>coins 4</title><g stroke-linecap="round" fill="#61616b" stroke-linejoin="round" class="nc-icon-wrapper"><ellipse fill="none" stroke="#61616b" stroke-width="2" cx="15" cy="7" rx="11" ry="5"></ellipse> <path data-cap="butt" fill="none" stroke="#61616b" stroke-width="2" d="M26,7v7c0,2.761-4.925,5-11,5 S4,16.761,4,14V7"></path> <path data-cap="butt" fill="none" stroke="#61616b" stroke-width="2" d="M22,24.857 C20.098,25.571,17.659,26,15,26c-6.075,0-11-2.239-11-5v-7"></path> <path data-cap="butt" fill="none" stroke="#61616b" stroke-width="2" d="M21.999,31.857 C20.098,32.571,17.659,33,15,33c-6.075,0-11-2.239-11-5v-7"></path> <path data-cap="butt" fill="none" stroke="#61616b" stroke-width="2" d="M22,38.857 C20.098,39.571,17.659,40,15,40c-6.075,0-11-2.239-11-5v-7"></path> <ellipse data-color="color-2" fill="none" stroke="#61616b" stroke-width="2" cx="33" cy="20" rx="11" ry="5"></ellipse> <path data-cap="butt" data-color="color-2" fill="none" stroke="#61616b" stroke-width="2" d="M44,20v7c0,2.761-4.925,5-11,5 s-11-2.239-11-5v-7"></path> <path data-cap="butt" data-color="color-2" fill="none" stroke="#61616b" stroke-width="2" d="M44,27v7c0,2.761-4.925,5-11,5 s-11-2.239-11-5v-7"></path> <path data-cap="butt" data-color="color-2" fill="none" stroke="#61616b" stroke-width="2" d="M44,34v7c0,2.761-4.925,5-11,5 s-11-2.239-11-5v-7"></path></g></svg>