<svg xmlns="http://www.w3.org/2000/svg" height="24" width="24" viewBox="0 0 24 24"><title>contact 87</title><g stroke-linecap="round" fill="#61616b" stroke-linejoin="round" class="nc-icon-wrapper"><line data-color="color-2" fill="none" stroke="#61616b" stroke-width="2" x1="14" y1="19" x2="17" y2="19"></line> <path data-cap="butt" fill="none" stroke="#61616b" stroke-width="2" d="M8.796,13.907l-5.825,3.51 C2.369,17.779,2,18.43,2,19.132V23h20v-3.868c0-0.703-0.369-1.354-0.971-1.715l-5.825-3.51"></path> <path data-cap="butt" fill="none" stroke="#61616b" stroke-width="2" d="M17.999,7.106 c-1.96,0-3.743-0.808-5.014-2.106c-1.271,1.298-3.04,2.106-5,2.106c-0.69,0-1.352-0.124-1.982-0.31"></path> <path fill="none" stroke="#61616b" stroke-width="2" d="M6,7c0-3.314,2.686-6,6-6 s6,2.686,6,6c0,5-2.686,8-6,8S6,12,6,7z"></path> <path data-cap="butt" fill="none" stroke="#61616b" stroke-width="2" d="M6,7c0,0,0,4-4,7 c0.844,2.057,2.751,2.345,2.751,2.345"></path> <path data-cap="butt" fill="none" stroke="#61616b" stroke-width="2" d="M17.938,7c0,0,0,4,4,7 c-0.844,2.057-2.751,2.345-2.751,2.345"></path></g></svg>