<svg xmlns="http://www.w3.org/2000/svg" height="48" width="48" viewBox="0 0 48 48"><title>contactless card 3</title><g stroke-linecap="round" fill="#61616b" stroke-linejoin="round" class="nc-icon-wrapper"><line x1="10" y1="33" x2="24" y2="33" fill="none" stroke="#61616b" stroke-width="2"></line><line x1="32" y1="33" x2="38" y2="33" fill="none" stroke="#61616b" stroke-width="2"></line><path d="M43,41H5a2.946,2.946,0,0,1-3-3V12A2.946,2.946,0,0,1,5,9H43a2.946,2.946,0,0,1,3,3V38A2.946,2.946,0,0,1,43,41Z" fill="none" stroke="#61616b" stroke-width="2"></path><path d="M31.189,23.392a3.933,3.933,0,0,0,0-4.784" fill="none" stroke="#61616b" stroke-width="2" data-color="color-2"></path><path d="M35.991,26.993a9.943,9.943,0,0,0,0-11.986" fill="none" stroke="#61616b" stroke-width="2" data-color="color-2"></path><circle cx="26" cy="21" r="2" fill="#61616b" data-color="color-2" data-stroke="none" stroke="none"></circle><rect x="10" y="17" width="7" height="6" fill="none" stroke="#61616b" stroke-width="2"></rect></g></svg>