<svg xmlns="http://www.w3.org/2000/svg" height="48" width="48" viewBox="0 0 48 48"><title>credit locked 3</title><g stroke-linecap="round" fill="#61616b" stroke-linejoin="round" class="nc-icon-wrapper"><line fill="none" stroke="#61616b" stroke-width="2" x1="2" y1="10" x2="46" y2="10"></line> <line fill="none" stroke="#61616b" stroke-width="2" x1="2" y1="18" x2="46" y2="18"></line> <path fill="none" stroke="#61616b" stroke-width="2" d="M20,34H5 c-1.657,0-3-1.343-3-3V5c0-1.657,1.343-3,3-3h27h11c1.657,0,3,1.343,3,3v22"></path> <line fill="none" stroke="#61616b" stroke-width="2" x1="10" y1="26" x2="20" y2="26"></line> <rect data-color="color-2" x="26" y="32" fill="none" stroke="#61616b" stroke-width="2" width="16" height="14"></rect> <path data-color="color-2" fill="none" stroke="#61616b" stroke-width="2" d="M30,32v-4 c0-2.2,1.8-4,4-4l0,0c2.2,0,4,1.8,4,4v4"></path> <line data-color="color-2" fill="none" stroke="#61616b" stroke-width="2" x1="34" y1="38" x2="34" y2="40"></line></g></svg>