<svg xmlns="http://www.w3.org/2000/svg" height="64" width="64" viewBox="0 0 64 64"><title>credit locked 2</title><g stroke-linecap="round" fill="#61616b" stroke-linejoin="round" class="nc-icon-wrapper"><line fill="none" stroke="#61616b" stroke-width="2" x1="2" y1="15" x2="62" y2="15"></line> <line fill="none" stroke="#61616b" stroke-width="2" x1="2" y1="25" x2="62" y2="25"></line> <path fill="none" stroke="#61616b" stroke-width="2" d="M28,47H6 c-2.209,0-4-1.791-4-4V7c0-2.209,1.791-4,4-4h52c2.209,0,4,1.791,4,4v36"></path> <line fill="none" stroke="#61616b" stroke-width="2" x1="10" y1="37" x2="24" y2="37"></line> <rect data-color="color-2" x="35" y="43" fill="none" stroke="#61616b" stroke-width="2" width="20" height="18"></rect> <line data-color="color-2" fill="none" stroke="#61616b" stroke-width="2" x1="45" y1="50" x2="45" y2="53"></line> <path data-color="color-2" fill="none" stroke="#61616b" stroke-width="2" d="M39,43v-5 c0-3.4,2.6-6,6-6l0,0c3.4,0,6,2.6,6,6v5"></path></g></svg>