<svg xmlns="http://www.w3.org/2000/svg" height="48" width="48" viewBox="0 0 48 48"><title>credit card in 4</title><g stroke-linecap="round" fill="#61616b" stroke-linejoin="round" class="nc-icon-wrapper"><line data-color="color-2" fill="none" stroke="#61616b" stroke-width="2" x1="16" y1="46" x2="16" y2="8"></line> <line data-color="color-2" fill="none" stroke="#61616b" stroke-width="2" x1="24" y1="46" x2="24" y2="8"></line> <path fill="none" stroke="#61616b" stroke-width="2" d="M40,8v35c0,1.7-1.3,3-3,3 H11c-1.7,0-3-1.3-3-3V8l0,0L40,8z"></path> <line data-color="color-2" fill="none" stroke="#61616b" stroke-width="2" x1="32" y1="38" x2="32" y2="28"></line> <path fill="none" stroke="#61616b" stroke-width="2" d="M8,14c-3.3,0-6-2.7-6-6v0 c0-3.3,2.7-6,6-6h32c3.3,0,6,2.7,6,6v0c0,3.3-2.7,6-6,6"></path></g></svg>