<svg xmlns="http://www.w3.org/2000/svg" height="64" width="64" viewBox="0 0 64 64"><title>credit card in 3</title><g stroke-linecap="round" fill="#61616b" stroke-linejoin="round" class="nc-icon-wrapper"><line data-color="color-2" fill="none" stroke="#61616b" stroke-width="2" x1="20" y1="60" x2="20" y2="10"></line> <line data-color="color-2" fill="none" stroke="#61616b" stroke-width="2" x1="30" y1="60" x2="30" y2="10"></line> <line data-color="color-2" fill="none" stroke="#61616b" stroke-width="2" x1="44" y1="52" x2="44" y2="40"></line> <line data-color="color-2" fill="none" stroke="#61616b" stroke-width="2" x1="44" y1="20" x2="44" y2="25"></line> <path fill="none" stroke="#61616b" stroke-width="2" d="M54,10v46 c0,2.209-1.791,4-4,4H14c-2.209,0-4-1.791-4-4V10H54z"></path> <path fill="none" stroke="#61616b" stroke-width="2" d="M10,16H8 c-3.314,0-6-2.686-6-6v0c0-3.314,2.686-6,6-6h48c3.314,0,6,2.686,6,6v0c0,3.314-2.686,6-6,6h-2"></path></g></svg>