<svg xmlns="http://www.w3.org/2000/svg" height="32" width="32" viewBox="0 0 32 32"><title>credit locked 4</title><g stroke-linecap="round" fill="#61616b" stroke-linejoin="round" class="nc-icon-wrapper"><line fill="none" stroke="#61616b" stroke-width="2" x1="1" y1="7" x2="31" y2="7"></line> <line fill="none" stroke="#61616b" stroke-width="2" x1="1" y1="12" x2="31" y2="12"></line> <path fill="none" stroke="#61616b" stroke-width="2" d="M13,23H3 c-1.105,0-2-0.895-2-2V3c0-1.105,0.895-2,2-2h26c1.105,0,2,0.895,2,2v18"></path> <line fill="none" stroke="#61616b" stroke-width="2" x1="5" y1="18" x2="12" y2="18"></line> <rect data-color="color-2" x="17" y="22" fill="none" stroke="#61616b" stroke-width="2" width="10" height="9"></rect> <line data-color="color-2" fill="none" stroke="#61616b" stroke-width="2" x1="22" y1="26" x2="22" y2="27"></line> <path data-color="color-2" fill="none" stroke="#61616b" stroke-width="2" d="M19,22v-3 c0-1.7,1.3-3,3-3l0,0c1.7,0,3,1.3,3,3v3"></path></g></svg>