<svg xmlns="http://www.w3.org/2000/svg" height="48" width="48" viewBox="0 0 48 48"><title>crypto wallet 2</title><g stroke-linecap="round" fill="#61616b" stroke-linejoin="round" class="nc-icon-wrapper"><circle cx="34" cy="30" r="4" fill="none" stroke="#61616b" stroke-width="2"></circle><path d="M32,14H46V46H8a6,6,0,0,1-6-6V29" fill="none" stroke="#61616b" stroke-width="2"></path><path d="M19.77,12.135c.261-1.742-1.065-2.679-2.879-3.3l.588-2.359-1.436-.358-.573,2.3c-.378-.094-.765-.183-1.151-.271L14.9,5.828,13.46,5.47l-.588,2.359-2.9-.718L9.593,8.645s1.066.245,1.043.26a.763.763,0,0,1,.669.835L9.693,16.2a.522.522,0,0,1-.658.341c.014.021-1.044-.261-1.044-.261L7.278,17.93l2.893.73-.594,2.387,1.435.358.588-2.361c.392.106.773.2,1.145.3l-.587,2.35,1.437.358.594-2.382c2.45.463,4.292.276,5.067-1.939a2.52,2.52,0,0,0-1.32-3.484A2.29,2.29,0,0,0,19.77,12.135Zm-3.282,4.6c-.444,1.784-3.447.82-4.421.578l.789-3.162C13.83,14.4,16.952,14.877,16.488,16.737Zm.445-4.628c-.405,1.623-2.9.8-3.716.6l.715-2.868C14.743,10.039,17.354,10.417,16.933,12.109Z" fill="#61616b" data-color="color-2" data-stroke="none" stroke="none"></path><circle cx="14" cy="14" r="12" fill="none" stroke="#61616b" stroke-width="2" data-color="color-2"></circle></g></svg>