<svg xmlns="http://www.w3.org/2000/svg" height="64" width="64" viewBox="0 0 64 64"><title>crypto wallet 3</title><g stroke-linecap="round" fill="#61616b" stroke-linejoin="round" class="nc-icon-wrapper"><path d="M31.867,18.933h0A14.934,14.934,0,1,1,16.933,4,14.934,14.934,0,0,1,31.867,18.934Z" fill="none" stroke="#61616b" stroke-width="2" data-color="color-2"></path><path d="M24.213,16.669c.326-2.178-1.332-3.349-3.6-4.13l.735-2.949-1.8-.448-.716,2.872c-.472-.117-.956-.228-1.438-.338l.721-2.891-1.8-.448-.735,2.949-3.621-.9-.478,1.918s1.332.3,1.3.324a.956.956,0,0,1,.837,1.044l-2.015,8.081a.655.655,0,0,1-.823.427c.018.026-1.3-.326-1.3-.326L8.6,23.912l3.617.913-.743,2.984,1.794.447L14,25.3q.735.2,1.431.372L14.7,28.614l1.8.447.743-2.978c3.062.58,5.364.346,6.333-2.423.781-2.23-.039-3.516-1.65-4.355A2.863,2.863,0,0,0,24.213,16.669Zm-4.1,5.753c-.555,2.229-4.309,1.024-5.526.722l.986-3.953C16.787,19.5,20.69,20.1,20.11,22.422Zm.556-5.786c-.507,2.029-3.631,1-4.645.746l.894-3.586C17.929,14.049,21.193,14.521,20.666,16.636Z" fill="#61616b" data-color="color-2" data-stroke="none" stroke="none"></path><circle cx="48" cy="38" r="2" fill="#61616b" data-stroke="none" stroke="none"></circle><path d="M2,35V52a8,8,0,0,0,8,8H58V44" fill="none" stroke="#61616b" stroke-width="2"></path><path d="M58,32V16H38" fill="none" stroke="#61616b" stroke-width="2"></path><path d="M62,44H48a6,6,0,0,1-6-6h0a6,6,0,0,1,6-6H62Z" fill="none" stroke="#61616b" stroke-width="2"></path></g></svg>