<svg xmlns="http://www.w3.org/2000/svg" height="24" width="24" viewBox="0 0 24 24"><title>currency exchange 2</title><g stroke-linecap="round" fill="#61616b" stroke-linejoin="round" class="nc-icon-wrapper"><path data-color="color-2" data-stroke="none" d="M15.6,13.873a2.273,2.273,0,0,1-.825,1.833,4.1,4.1,0,0,1-2.31.829v1.47h-.982V16.563a7.95,7.95,0,0,1-3.07-.617V14.053a8.328,8.328,0,0,0,1.5.545,8.019,8.019,0,0,0,1.568.28V12.654L11,12.468a5.357,5.357,0,0,1-2.012-1.216A2.332,2.332,0,0,1,8.4,9.627a2.123,2.123,0,0,1,.814-1.71,4.143,4.143,0,0,1,2.27-.812v-1.1h.982V7.074a8.126,8.126,0,0,1,2.97.66l-.674,1.678a7.768,7.768,0,0,0-2.3-.559v2.116a11.073,11.073,0,0,1,1.991.932,2.733,2.733,0,0,1,.867.868A2.146,2.146,0,0,1,15.6,13.873ZM10.558,9.627a.678.678,0,0,0,.219.52,2.569,2.569,0,0,0,.707.42V8.881Q10.559,9.017,10.558,9.627Zm2.884,4.354a.646.646,0,0,0-.244-.509,3.173,3.173,0,0,0-.732-.431v1.786Q13.441,14.662,13.442,13.981Z" fill="#61616b" stroke="none"></path><polyline points="5.346 7.929 6.932 2.237 1.135 2.966" fill="none" stroke="#61616b" stroke-width="2"></polyline><path data-cap="butt" d="M11.789,23A11,11,0,0,1,6.932,2.237" fill="none" stroke="#61616b" stroke-width="2"></path><polyline points="18.654 16.071 17.068 21.763 22.865 21.034" fill="none" stroke="#61616b" stroke-width="2"></polyline><path data-cap="butt" d="M12.211,1a11,11,0,0,1,4.857,20.763" fill="none" stroke="#61616b" stroke-width="2"></path></g></svg>