<svg xmlns="http://www.w3.org/2000/svg" height="64" width="64" viewBox="0 0 64 64"><title>currency exchange 2 2</title><g stroke-linecap="round" fill="#61616b" stroke-linejoin="round" class="nc-icon-wrapper"><line data-color="color-2" x1="32" y1="16" x2="32" y2="48" fill="none" stroke="#61616b" stroke-width="2"></line><path data-color="color-2" d="M38.933,20.267A20.318,20.318,0,0,0,32,19.2c-3.68,0-8.533,1.6-8.533,5.867,0,8,17.066,4.3,17.066,12.8,0,4.229-4.192,5.866-8.533,5.866a20.6,20.6,0,0,1-8.533-1.6" fill="none" stroke="#61616b" stroke-width="2"></path><path data-cap="butt" d="M58.98,21.345A29,29,0,0,0,3,32" fill="none" stroke="#61616b" stroke-width="2"></path><path data-cap="butt" d="M5.02,42.655A29,29,0,0,0,61,32" fill="none" stroke="#61616b" stroke-width="2"></path><polyline points="5.895 56.996 5 42.649 19.045 47.532" fill="none" stroke="#61616b" stroke-width="2"></polyline><polyline points="58.105 7.004 59 21.351 44.955 16.468" fill="none" stroke="#61616b" stroke-width="2"></polyline></g></svg>