<svg xmlns="http://www.w3.org/2000/svg" height="48" width="48" viewBox="0 0 48 48"><title>currency exchange 2 3</title><g stroke-linecap="round" fill="#61616b" stroke-linejoin="round" class="nc-icon-wrapper"><line data-color="color-2" x1="24" y1="11" x2="24" y2="37" fill="none" stroke="#61616b" stroke-width="2"></line><path data-color="color-2" d="M30,15a21.8,21.8,0,0,0-6-1c-4.069,0-6.45,1.933-6.45,4.5C17.55,25,30.5,21,30.5,28c0,3.487-3.2,5-6.5,5a21.378,21.378,0,0,1-7.5-1.5" fill="none" stroke="#61616b" stroke-width="2"></path><polyline points="42.068 2.236 43.526 13.83 32.142 10.658" fill="none" stroke="#61616b" stroke-width="2"></polyline><path data-cap="butt" d="M43.526,13.83A22,22,0,0,0,2,23.976" fill="none" stroke="#61616b" stroke-width="2"></path><polyline points="5.932 45.716 4.474 34.122 15.858 37.294" fill="none" stroke="#61616b" stroke-width="2"></polyline><path data-cap="butt" d="M4.474,34.122A22,22,0,0,0,46.005,23.976" fill="none" stroke="#61616b" stroke-width="2"></path></g></svg>