<svg xmlns="http://www.w3.org/2000/svg" height="24" width="24" viewBox="0 0 24 24"><title>debt</title><g stroke-linecap="round" fill="#61616b" stroke-linejoin="round" class="nc-icon-wrapper"><circle cx="18" cy="3" r="2" fill="none" stroke="#61616b" stroke-width="2"></circle><path d="M7,22l3.6-2.7a1,1,0,0,0,.4-.8V18" fill="none" stroke="#61616b" stroke-width="2"></path><path d="M13.908,7.16,10.971,12.3a2,2,0,0,0,.708,2.707l2.835,1.7a1,1,0,0,1,.486.857V23" fill="none" stroke="#61616b" stroke-width="2" data-cap="butt"></path><circle cx="4.5" cy="3.5" r="2.5" fill="none" stroke="#61616b" stroke-width="2" data-color="color-2"></circle><path d="M15.328,13.7l1.629-2.864a2,2,0,0,0-.844-2.778L14.741,7.37a2,2,0,0,0-1.527-.108L5,10" fill="none" stroke="#61616b" stroke-width="2"></path></g></svg>