<svg xmlns="http://www.w3.org/2000/svg" height="32" width="32" viewBox="0 0 32 32"><title>debt 4</title><g stroke-linecap="round" fill="#61616b" stroke-linejoin="round" class="nc-icon-wrapper"><circle cx="24" cy="5" r="3" fill="none" stroke="#61616b" stroke-width="2"></circle><path d="M9,30l5.28-4.4A2,2,0,0,0,15,24.063V23" fill="none" stroke="#61616b" stroke-width="2"></path><path d="M18.266,9.547,14.352,16.4a2.67,2.67,0,0,0,.945,3.614l3.732,2.24A2,2,0,0,1,20,23.966V31" fill="none" stroke="#61616b" stroke-width="2" data-cap="butt"></path><circle cx="7" cy="5" r="4" fill="none" stroke="#61616b" stroke-width="2" data-color="color-2"></circle><path d="M20.437,18.264l2.172-3.819a2.666,2.666,0,0,0-1.125-3.7L19.39,9.7A2,2,0,0,0,17.9,9.576L7,13" fill="none" stroke="#61616b" stroke-width="2"></path></g></svg>