<svg xmlns="http://www.w3.org/2000/svg" height="48" width="48" viewBox="0 0 48 48"><title>debt 3</title><g stroke-linecap="round" fill="#61616b" stroke-linejoin="round" class="nc-icon-wrapper"><circle cx="35.5" cy="6.5" r="4.5" fill="none" stroke="#61616b" stroke-width="2"></circle><path d="M14,44l7.2-5.4A2,2,0,0,0,22,37V35" fill="none" stroke="#61616b" stroke-width="2"></path><path d="M27.817,14.321,21.943,24.6a4,4,0,0,0,1.415,5.415l5.671,3.4A2,2,0,0,1,30,35.132V46" fill="none" stroke="#61616b" stroke-width="2" data-cap="butt"></path><circle cx="10" cy="8" r="6" fill="none" stroke="#61616b" stroke-width="2" data-color="color-2"></circle><path d="M30.656,27.4l3.258-5.728a4,4,0,0,0-1.688-5.555l-2.744-1.372a4,4,0,0,0-3.054-.217L10,20" fill="none" stroke="#61616b" stroke-width="2"></path></g></svg>