<svg xmlns="http://www.w3.org/2000/svg" height="64" width="64" viewBox="0 0 64 64"><title>dice 4</title><g stroke-linecap="round" fill="#61616b" stroke-linejoin="round" class="nc-icon-wrapper"><polyline data-cap="butt" points="4 14 32 24 60 14" fill="none" stroke="#61616b" stroke-width="2"></polyline><line data-cap="butt" x1="32" y1="24" x2="32" y2="60" fill="none" stroke="#61616b" stroke-width="2"></line><polygon points="60 50 32 60 4 50 4 14 32 4 60 14 60 50" fill="none" stroke="#61616b" stroke-width="2"></polygon><ellipse data-color="color-2" data-stroke="none" cx="12" cy="27" rx="2" ry="3" fill="#61616b" stroke="none"></ellipse><ellipse data-color="color-2" data-stroke="none" cx="18" cy="37" rx="2" ry="3" fill="#61616b" stroke="none"></ellipse><ellipse data-color="color-2" data-stroke="none" cx="24" cy="47" rx="2" ry="3" fill="#61616b" stroke="none"></ellipse><ellipse data-color="color-2" data-stroke="none" cx="46" cy="37" rx="2" ry="3" fill="#61616b" stroke="none"></ellipse><ellipse data-color="color-2" data-stroke="none" cx="25" cy="14" rx="3" ry="1.5" fill="#61616b" stroke="none"></ellipse><ellipse data-color="color-2" data-stroke="none" cx="39" cy="14" rx="3" ry="1.5" fill="#61616b" stroke="none"></ellipse><ellipse data-color="color-2" cx="12" cy="27" rx="2" ry="3" fill="none" stroke="#61616b" stroke-width="2"></ellipse><ellipse data-color="color-2" cx="18" cy="37" rx="2" ry="3" fill="none" stroke="#61616b" stroke-width="2"></ellipse><ellipse data-color="color-2" cx="24" cy="47" rx="2" ry="3" fill="none" stroke="#61616b" stroke-width="2"></ellipse><ellipse data-color="color-2" cx="46" cy="37" rx="2" ry="3" fill="none" stroke="#61616b" stroke-width="2"></ellipse><ellipse data-color="color-2" cx="25" cy="14" rx="3" ry="1.5" fill="none" stroke="#61616b" stroke-width="2"></ellipse><ellipse data-color="color-2" cx="39" cy="14" rx="3" ry="1.5" fill="none" stroke="#61616b" stroke-width="2"></ellipse></g></svg>