<svg xmlns="http://www.w3.org/2000/svg" height="64" width="64" viewBox="0 0 64 64"><title>diners club 2</title><g stroke-linecap="round" fill="#61616b" stroke-linejoin="round" class="nc-icon-wrapper"><path fill="none" stroke="#61616b" stroke-width="2" d="M2,50V14c0-2.2,1.8-4,4-4 h52c2.2,0,4,1.8,4,4v36c0,2.2-1.8,4-4,4H6C3.8,54,2,52.2,2,50z"></path> <path data-color="color-2" data-stroke="none" fill="#61616b" d="M26,27.422v9.156c1.764-0.772,3-2.529,3-4.578S27.764,28.194,26,27.422z" stroke-linejoin="miter" stroke="none"></path> <path data-color="color-2" data-stroke="none" fill="#61616b" d="M19,32c0,2.049,1.236,3.806,3,4.578v-9.156C20.236,28.194,19,29.951,19,32z" stroke-linejoin="miter" stroke="none"></path> <path data-color="color-2" data-stroke="none" fill="#61616b" d="M40,22H24c-5.523,0-10,4.477-10,10c0,5.523,4.477,10,10,10h16c5.523,0,10-4.477,10-10 C50,26.477,45.523,22,40,22z M24,40c-4.418,0-8-3.582-8-8s3.582-8,8-8s8,3.582,8,8S28.418,40,24,40z" stroke-linejoin="miter" stroke="none"></path></g></svg>