<svg xmlns="http://www.w3.org/2000/svg" height="48" width="48" viewBox="0 0 48 48"><title>diners club</title><g stroke-linecap="round" fill="#61616b" stroke-linejoin="round" class="nc-icon-wrapper"><path fill="none" stroke="#61616b" stroke-width="2" d="M43,40H5 c-1.657,0-3-1.343-3-3V11c0-1.657,1.343-3,3-3h27h11c1.657,0,3,1.343,3,3v26C46,38.657,44.657,40,43,40z"></path> <path data-color="color-2" data-stroke="none" fill="#61616b" d="M21,20.142v7.716c1.721-0.447,3-2,3-3.858S22.721,20.589,21,20.142z" stroke-linejoin="miter" stroke="none"></path> <path data-color="color-2" data-stroke="none" fill="#61616b" d="M28,16h-8c-4.418,0-8,3.582-8,8s3.582,8,8,8h8c4.418,0,8-3.582,8-8 S32.418,16,28,16z M20,30c-3.309,0-6-2.691-6-6s2.691-6,6-6s6,2.691,6,6S23.309,30,20,30z" stroke-linejoin="miter" stroke="none"></path> <path data-color="color-2" data-stroke="none" fill="#61616b" d="M19,20.142c-1.721,0.447-3,2-3,3.858s1.279,3.411,3,3.858V20.142z" stroke-linejoin="miter" stroke="none"></path></g></svg>