<svg xmlns="http://www.w3.org/2000/svg" height="64" width="64" viewBox="0 0 64 64"><title>discover 2</title><g stroke-linecap="round" fill="#61616b" stroke-linejoin="round" class="nc-icon-wrapper"><path data-color="color-2" data-stroke="none" fill="#61616b" d="M33.368,28.029c-2.246,0-4.071,1.755-4.071,3.922c0,2.305,1.744,4.025,4.071,4.025 c2.27,0,4.06-1.745,4.06-3.981C37.429,29.774,35.652,28.029,33.368,28.029z" stroke-linejoin="miter" stroke="none"></path> <path data-color="color-2" data-stroke="none" fill="#61616b" d="M10.261,28.173H8.072v7.635h2.175c1.157,0,1.993-0.276,2.725-0.883 c0.87-0.72,1.386-1.806,1.386-2.932C14.358,29.738,12.674,28.173,10.261,28.173z M12.002,33.906 c-0.474,0.423-1.076,0.608-2.04,0.608h-0.4v-5.048h0.4c0.964,0,1.543,0.173,2.04,0.617c0.512,0.459,0.82,1.167,0.82,1.899 C12.822,32.717,12.514,33.45,12.002,33.906z" stroke-linejoin="miter" stroke="none"></path> <rect data-color="color-2" data-stroke="none" x="15.045" y="28.173" fill="#61616b" width="1.484" height="7.635" stroke-linejoin="miter" stroke="none"></rect> <path data-color="color-2" data-stroke="none" fill="#61616b" d="M20.172,31.099c-0.896-0.328-1.157-0.547-1.157-0.96 c0-0.48,0.468-0.844,1.111-0.844c0.446,0,0.813,0.179,1.205,0.615l0.774-1.016c-0.64-0.563-1.406-0.849-2.241-0.849 c-1.351,0-2.381,0.94-2.381,2.183c0,1.055,0.479,1.591,1.876,2.099c0.584,0.203,0.881,0.342,1.031,0.436 c0.298,0.193,0.446,0.468,0.446,0.787c0,0.621-0.492,1.078-1.157,1.078c-0.708,0-1.281-0.355-1.624-1.02l-0.96,0.93 c0.686,1.005,1.509,1.455,2.642,1.455c1.546,0,2.635-1.035,2.635-2.509C22.371,32.268,21.866,31.718,20.172,31.099z" stroke-linejoin="miter" stroke="none"></path> <path data-color="color-2" data-stroke="none" fill="#61616b" d="M22.839,31.992c0,2.245,1.762,3.985,4.031,3.985c0.64,0,1.188-0.126,1.863-0.445 v-1.755c-0.597,0.6-1.121,0.836-1.798,0.836c-1.499,0-2.561-1.085-2.561-2.632c0-1.463,1.096-2.621,2.496-2.621 c0.706,0,1.246,0.25,1.863,0.859v-1.753C28.081,28.137,27.546,28,26.901,28C24.645,28,22.839,29.774,22.839,31.992z" stroke-linejoin="miter" stroke="none"></path> <polygon data-color="color-2" data-stroke="none" fill="#61616b" points="40.797,33.298 38.761,28.173 37.137,28.173 40.374,36 41.172,36 44.471,28.173 42.861,28.173 " stroke-linejoin="miter" stroke="none"></polygon> <polygon data-color="color-2" data-stroke="none" fill="#61616b" points="45.147,35.807 49.369,35.807 49.369,34.514 46.637,34.514 46.637,32.453 49.266,32.453 49.266,31.159 46.637,31.159 46.637,29.465 49.369,29.465 49.369,28.173 45.147,28.173 " stroke-linejoin="miter" stroke="none"></polygon> <path data-color="color-2" data-stroke="none" fill="#61616b" d="M55.264,30.425c0-1.43-0.981-2.253-2.7-2.253h-2.211v7.635h1.493v-3.07h0.194 l2.057,3.07h1.832l-2.402-3.218C54.648,32.36,55.264,31.593,55.264,30.425z M52.277,31.683h-0.432v-2.309h0.457 c0.93,0,1.429,0.39,1.429,1.134C53.73,31.272,53.232,31.683,52.277,31.683z" stroke-linejoin="miter" stroke="none"></path> <path fill="none" stroke="#61616b" stroke-width="2" d="M2,50V14c0-2.2,1.8-4,4-4 h52c2.2,0,4,1.8,4,4v36c0,2.2-1.8,4-4,4H6C3.8,54,2,52.2,2,50z"></path></g></svg>