<svg xmlns="http://www.w3.org/2000/svg" height="48" width="48" viewBox="0 0 48 48"><title>factory 4</title><g stroke-linecap="round" fill="#61616b" stroke-linejoin="round" class="nc-icon-wrapper"><polygon fill="none" stroke="#61616b" stroke-width="2" points="32,26 32,16 16,26 10,16 2,16 2,46 46,46 46,16 "></polygon> <rect data-color="color-2" x="34" y="34" fill="none" stroke="#61616b" stroke-width="2" width="6" height="6"></rect> <rect data-color="color-2" x="22" y="34" fill="none" stroke="#61616b" stroke-width="2" width="6" height="6"></rect> <path data-color="color-2" fill="none" stroke="#61616b" stroke-width="2" d="M28,10 c0-3.3-2.7-6-6-6c-2,0-3.8,1-4.9,2.5C15.8,3.8,13.1,2,10,2c-4.4,0-8,3.6-8,8L28,10C28,10,28,10,28,10z"></path></g></svg>