<svg xmlns="http://www.w3.org/2000/svg" height="64" width="64" viewBox="0 0 64 64"><title>hand card 2</title><g stroke-linecap="round" fill="#61616b" stroke-linejoin="round" class="nc-icon-wrapper"><line data-cap="butt" data-color="color-2" fill="none" stroke="#61616b" stroke-width="2" x1="2" y1="19" x2="25.07" y2="19"></line> <line data-cap="butt" data-color="color-2" fill="none" stroke="#61616b" stroke-width="2" x1="2" y1="27" x2="38.851" y2="27"></line> <line data-color="color-2" fill="none" stroke="#61616b" stroke-width="2" x1="10" y1="34" x2="20" y2="34"></line> <polyline data-cap="butt" fill="none" stroke="#61616b" stroke-width="2" points="42,31.494 42,41 2,41 2,9 42,9 42,15 "></polyline> <path data-cap="butt" fill="none" stroke="#61616b" stroke-width="2" d="M50,35c-6,0-12-6-12-12h-6 c-4.418,0-8-3.582-8-8v0h18c11.046,0,20,8.954,20,20v0c0,11.046-8.954,20-20,20H20c-3.314,0-6-2.686-6-6v-2h18"></path> <path data-cap="butt" fill="none" stroke="#61616b" stroke-width="2" d="M14,47L14,47c-3.314,0-6-2.686-6-6v0"></path></g></svg>