<svg xmlns="http://www.w3.org/2000/svg" height="24" width="24" viewBox="0 0 24 24"><title>hand card</title><g stroke-linecap="round" fill="#61616b" stroke-linejoin="round" class="nc-icon-wrapper"><line data-cap="butt" data-color="color-2" fill="none" stroke="#61616b" stroke-width="2" x1="1" y1="8" x2="9.764" y2="8"></line> <polyline data-cap="butt" fill="none" stroke="#61616b" stroke-width="2" points="16,12.459 16,16 1,16 1,7 1,3 16,3 16,6 "></polyline> <line data-color="color-2" fill="none" stroke="#61616b" stroke-width="2" x1="4" y1="12" x2="7" y2="12"></line> <path data-cap="butt" fill="none" stroke="#61616b" stroke-width="2" d="M18,13c-2.2,0-4-1.8-4-4h-2 c-1.657,0-3-1.343-3-3v0l6.944,0c3.79,0,7.018,2.992,7.055,6.781C23.037,16.773,20.024,20,16,20c-2.701,0-6.77-0.456-9.128-0.752 c-1.146-0.144-2.1-0.932-2.465-2.027L4,16"></path></g></svg>