<svg xmlns="http://www.w3.org/2000/svg" height="48" width="48" viewBox="0 0 48 48"><title>hand card 3</title><g stroke-linecap="round" fill="#61616b" stroke-linejoin="round" class="nc-icon-wrapper"><line data-cap="butt" data-color="color-2" fill="none" stroke="#61616b" stroke-width="2" x1="2" y1="18" x2="24" y2="18"></line> <line data-cap="butt" data-color="color-2" fill="none" stroke="#61616b" stroke-width="2" x1="2" y1="13" x2="18.1" y2="13"></line> <polyline data-cap="butt" fill="none" stroke="#61616b" stroke-width="2" points="32,24.9 32,32 2,32 2,14 2,6 32,6 32,12 "></polyline> <line data-color="color-2" fill="none" stroke="#61616b" stroke-width="2" x1="8" y1="25" x2="14" y2="25"></line> <path data-cap="butt" fill="none" stroke="#61616b" stroke-width="2" d="M36,26c-4.4,0-8-3.6-8-8h-4 c-3.3,0-6-2.7-6-6v0l13.9,0c7.6,0,14,6,14.1,13.6C46.1,33.5,40,40,32,40c-5.4,0-13.5-0.9-18.3-1.5c-2.3-0.3-4.2-1.9-4.9-4.1L8,32"></path></g></svg>