<svg xmlns="http://www.w3.org/2000/svg" height="32" width="32" viewBox="0 0 32 32"><title>info point 4</title><g stroke-linecap="round" fill="#61616b" stroke-linejoin="round" class="nc-icon-wrapper"><path d="M16,7h0a3,3,0,0,1-3-3h0a3,3,0,0,1,3-3h0a3,3,0,0,1,3,3h0A3,3,0,0,1,16,7Z" fill="none" stroke="#61616b" stroke-width="2"></path><path d="M11,17V13a3,3,0,0,1,3-3h4a3,3,0,0,1,3,3v4" fill="none" stroke="#61616b" stroke-width="2"></path><rect x="6" y="17" width="20" height="4" fill="none" stroke="#61616b" stroke-width="2" data-color="color-2"></rect><polyline points="23 21 23 31 9 31 9 21" fill="none" stroke="#61616b" stroke-width="2" data-color="color-2"></polyline></g></svg>