<svg xmlns="http://www.w3.org/2000/svg" height="16" width="16" viewBox="0 0 16 16"><title>info point</title><g fill="#61616b" class="nc-icon-wrapper"><path d="M8,3.5H8A1.5,1.5,0,0,1,6.5,2h0A1.5,1.5,0,0,1,8,.5H8A1.5,1.5,0,0,1,9.5,2h0A1.5,1.5,0,0,1,8,3.5Z" fill="none" stroke="#61616b" stroke-linecap="round" stroke-linejoin="round"></path><path d="M5.5,8.5v-2a1,1,0,0,1,1-1h3a1,1,0,0,1,1,1v2" fill="none" stroke="#61616b" stroke-linecap="round" stroke-linejoin="round"></path><line x1="12.5" y1="10.5" x2="3.5" y2="10.5" fill="none" stroke="#61616b" stroke-linecap="round" stroke-linejoin="round" data-color="color-2"></line><rect x="4.5" y="10.5" width="7" height="5" fill="none" stroke="#61616b" stroke-linecap="round" stroke-linejoin="round" data-color="color-2"></rect></g></svg>