<svg xmlns="http://www.w3.org/2000/svg" height="24" width="24" viewBox="0 0 24 24"><title>info point 5</title><g stroke-linecap="round" fill="#61616b" stroke-linejoin="round" class="nc-icon-wrapper"><path d="M12,6h0A2.5,2.5,0,0,1,9.5,3.5h0A2.5,2.5,0,0,1,12,1h0a2.5,2.5,0,0,1,2.5,2.5h0A2.5,2.5,0,0,1,12,6Z" fill="none" stroke="#61616b" stroke-width="2"></path><path d="M8,15V11a2,2,0,0,1,2-2h4a2,2,0,0,1,2,2v4" fill="none" stroke="#61616b" stroke-width="2"></path><line x1="5" y1="15" x2="19" y2="15" fill="none" stroke="#61616b" stroke-width="2" data-color="color-2"></line><polyline points="17 15 17 23 7 23 7 15" fill="none" stroke="#61616b" stroke-width="2" data-color="color-2"></polyline></g></svg>