<svg xmlns="http://www.w3.org/2000/svg" height="48" width="48" viewBox="0 0 48 48"><title>info point 3</title><g stroke-linecap="round" fill="#61616b" stroke-linejoin="round" class="nc-icon-wrapper"><path d="M24,11h0a4.5,4.5,0,0,1-4.5-4.5h0A4.5,4.5,0,0,1,24,2h0a4.5,4.5,0,0,1,4.5,4.5h0A4.5,4.5,0,0,1,24,11Z" fill="none" stroke="#61616b" stroke-width="2"></path><path d="M16,26V19a4,4,0,0,1,4-4h1l3,4,3-4h1a4,4,0,0,1,4,4v7" fill="none" stroke="#61616b" stroke-width="2"></path><rect x="11" y="26" width="26" height="6" fill="none" stroke="#61616b" stroke-width="2" data-color="color-2"></rect><polyline points="33 32 33 46 15 46 15 32" fill="none" stroke="#61616b" stroke-width="2" data-color="color-2"></polyline></g></svg>