<svg xmlns="http://www.w3.org/2000/svg" height="64" width="64" viewBox="0 0 64 64"><title>info point 2</title><g stroke-linecap="round" fill="#61616b" stroke-linejoin="round" class="nc-icon-wrapper"><path d="M32,14h0a6,6,0,0,1-6-6h0a6,6,0,0,1,6-6h0a6,6,0,0,1,6,6h0A6,6,0,0,1,32,14Z" fill="none" stroke="#61616b" stroke-width="2"></path><path d="M21,33V24a5,5,0,0,1,5-5h1l5,5,5-5h1a5,5,0,0,1,5,5v9" fill="none" stroke="#61616b" stroke-width="2"></path><rect x="15" y="33" width="34" height="8" fill="none" stroke="#61616b" stroke-width="2" data-color="color-2"></rect><polyline points="44 41 44 62 20 62 20 41" fill="none" stroke="#61616b" stroke-width="2" data-color="color-2"></polyline></g></svg>