<svg xmlns="http://www.w3.org/2000/svg" height="64" width="64" viewBox="0 0 64 64"><title>jcb 2</title><g stroke-linecap="round" fill="#61616b" stroke-linejoin="round" class="nc-icon-wrapper"><path data-color="color-2" data-stroke="none" fill="#61616b" d="M41.918,32.527c0.893,0,1.555,0,2.447,0c0.698,0,1.099,0.375,1.213,0.877 c0.019,0.084,0.029,0.173,0.029,0.266c0,0.093-0.01,0.183-0.029,0.267c-0.115,0.509-0.538,0.876-1.171,0.876 c-0.883,0-1.625,0-2.489,0L41.918,32.527L41.918,32.527z M45.286,29.94c0.017,0.077,0.026,0.158,0.026,0.244 c0,0.085-0.009,0.167-0.026,0.243c-0.13,0.591-0.602,0.811-1.213,0.811c-0.72,0-1.364,0-2.155,0v-2.11c1.098,0,1.082,0,2.196,0 C44.804,29.128,45.181,29.462,45.286,29.94L45.286,29.94z M50.2,19v22.1c0,2.154-1.746,3.9-3.9,3.9h-6.5v-8.834 c0.029,0,6.712,0,6.74,0c1.465-0.012,2.737-0.757,2.737-2.165c0-0.093-0.006-0.183-0.019-0.271c-0.147-1.058-1.146-1.718-2.464-1.82 l0-0.05c1.315-0.204,1.973-1.043,1.973-1.989c0-0.693-0.323-1.256-0.93-1.616c-0.729-0.431-1.552-0.42-2.3-0.42 c-1.125,0-4.614,0-5.736,0l0-4.934c0-2.154,1.746-3.9,3.9-3.9H50.2z" stroke-linejoin="miter" stroke="none"></path> <path data-color="color-2" data-stroke="none" fill="#61616b" d="M13.8,34.036V22.9c0-2.154,1.746-3.9,3.9-3.9h6.5v22.1 c0,2.154-1.741,3.9-3.895,3.9c-1.634,0-3.794,0-6.505,0v-9.132c1.582,0.436,5.403,0.921,7.647,0.067 c1.413-0.534,2.15-1.543,2.15-3.073v-5.028H19.87v5.028c0,1.016-0.559,1.798-1.555,2.055C17.031,35.248,15.147,34.687,13.8,34.036z" stroke-linejoin="miter" stroke="none"></path> <path data-color="color-2" data-stroke="none" fill="#61616b" d="M26.8,29.007V22.9c0-2.154,1.746-3.9,3.9-3.9h6.5v22.1 c0,2.154-1.744,3.9-3.898,3.9c-1.607,0-3.75,0-6.502,0V34.995c1.036,0.889,2.497,1.226,3.847,1.353 c1.74,0.153,3.624,0.018,5.636-0.479v-1.833c-1.177,0.585-2.64,1.112-4.3,0.945c-1.823-0.212-2.731-1.352-2.731-2.98 c0-1.712,1.007-2.808,2.773-2.986c1.416-0.141,2.928,0.282,4.259,0.951v-1.834c-1.864-0.46-3.483-0.583-5.01-0.521 C29.718,27.687,27.978,27.995,26.8,29.007z" stroke-linejoin="miter" stroke="none"></path> <path fill="none" stroke="#61616b" stroke-width="2" d="M2,50V14c0-2.2,1.8-4,4-4 h52c2.2,0,4,1.8,4,4v36c0,2.2-1.8,4-4,4H6C3.8,54,2,52.2,2,50z"></path></g></svg>