<svg xmlns="http://www.w3.org/2000/svg" height="64" width="64" viewBox="0 0 64 64"><title>joint account 2</title><g stroke-linecap="round" fill="#61616b" stroke-linejoin="round" class="nc-icon-wrapper"><circle cx="50" cy="8" r="6" fill="none" stroke="#61616b" stroke-width="2"></circle><circle cx="14" cy="8" r="6" fill="none" stroke="#61616b" stroke-width="2"></circle><path d="M48,36H62V26.034a4,4,0,0,0-1.966-3.45A19.6,19.6,0,0,0,50,20a19.432,19.432,0,0,0-10.052,2.576A4,4,0,0,0,38,26.014V29" fill="none" stroke="#61616b" stroke-width="2"></path><path d="M16,36H2V26.034a4,4,0,0,1,1.966-3.45A19.6,19.6,0,0,1,14,20a19.432,19.432,0,0,1,10.052,2.576A4,4,0,0,1,26,26.014V29" fill="none" stroke="#61616b" stroke-width="2"></path><circle cx="32" cy="48" r="14" fill="none" stroke="#61616b" stroke-width="2" data-color="color-2"></circle><rect x="28.464" y="44.464" width="7.071" height="7.071" stroke-width="2" fill="none" stroke="#61616b" transform="translate(-24.569 36.686) rotate(-45)" data-color="color-2"></rect></g></svg>