<svg xmlns="http://www.w3.org/2000/svg" height="48" width="48" viewBox="0 0 48 48"><title>joint account 3</title><g stroke-linecap="round" fill="#61616b" stroke-linejoin="round" class="nc-icon-wrapper"><circle cx="11" cy="7" r="5" fill="none" stroke="#61616b" stroke-width="2"></circle><circle cx="37" cy="7" r="5" fill="none" stroke="#61616b" stroke-width="2"></circle><path d="M38,29h8V22.672a3.95,3.95,0,0,0-1.476-3.108,12.322,12.322,0,0,0-15.048,0A3.88,3.88,0,0,0,28.16,21.6" fill="none" stroke="#61616b" stroke-width="2"></path><path d="M19.84,21.6a3.88,3.88,0,0,0-1.316-2.035A11.951,11.951,0,0,0,11,17a11.951,11.951,0,0,0-7.524,2.564A3.95,3.95,0,0,0,2,22.672V29h8" fill="none" stroke="#61616b" stroke-width="2"></path><circle cx="24" cy="36" r="10" fill="none" stroke="#61616b" stroke-width="2" data-color="color-2"></circle><rect x="21.172" y="33.172" width="5.657" height="5.657" stroke-width="2" fill="none" stroke="#61616b" transform="translate(-18.426 27.515) rotate(-45)" data-color="color-2"></rect></g></svg>