<svg xmlns="http://www.w3.org/2000/svg" height="64" width="64" viewBox="0 0 64 64"><title>miner 2</title><g stroke-linecap="round" fill="#61616b" stroke-linejoin="round" class="nc-icon-wrapper"><line x1="13" y1="61" x2="13" y2="45.95" fill="none" stroke="#61616b" stroke-width="2" data-cap="butt"></line><line x1="51" y1="61" x2="51" y2="45.95" fill="none" stroke="#61616b" stroke-width="2" data-cap="butt"></line><path d="M19,43.25V48a6,6,0,0,0,6,6H39a6,6,0,0,0,6-6V43.25" fill="none" stroke="#61616b" stroke-width="2" data-cap="butt"></path><path d="M40,41l15.283,6.877A8,8,0,0,1,60,55.172V61H4V55.172a8,8,0,0,1,4.717-7.295L24,41" fill="none" stroke="#61616b" stroke-width="2" data-cap="butt"></path><path d="M46,20c0,12-7.393,18-14,18S18,32,18,20" fill="none" stroke="#61616b" stroke-width="2"></path><line x1="13" y1="20" x2="51" y2="20" fill="none" stroke="#61616b" stroke-width="2" data-color="color-2"></line><path d="M16,20a16,16,0,0,1,32,0" fill="none" stroke="#61616b" stroke-width="2" data-color="color-2"></path><line x1="32" y1="6" x2="32" y2="2" fill="none" stroke="#61616b" stroke-width="2" data-color="color-2"></line><circle cx="32" cy="17" r="3" fill="none" stroke="#61616b" stroke-width="2" data-color="color-2"></circle><path d="M24,34.917V41a12.167,12.167,0,0,0,16,0V34.917" fill="none" stroke="#61616b" stroke-width="2" data-cap="butt"></path></g></svg>