<svg xmlns="http://www.w3.org/2000/svg" height="48" width="48" viewBox="0 0 48 48"><title>miner 3</title><g stroke-linecap="round" fill="#61616b" stroke-linejoin="round" class="nc-icon-wrapper"><line x1="24" y1="46" x2="24" y2="41" fill="none" stroke="#61616b" stroke-width="2"></line><path d="M35,15c0,9-6,14-11,14S13,24,13,15" fill="none" stroke="#61616b" stroke-width="2"></path><line x1="10" y1="15" x2="38" y2="15" fill="none" stroke="#61616b" stroke-width="2" data-color="color-2"></line><path d="M12,15V14a12,12,0,0,1,24,0v1" fill="none" stroke="#61616b" stroke-width="2" data-color="color-2"></path><polyline points="24 5 24 2 24 3" fill="none" stroke="#61616b" stroke-width="2" data-color="color-2"></polyline><circle cx="24" cy="13" r="2" fill="none" stroke="#61616b" stroke-width="2" data-color="color-2"></circle><path d="M42.405,37.427,30,32a10,10,0,0,1-12,0L5.6,37.427A6,6,0,0,0,2,42.924V46H46V42.924A6,6,0,0,0,42.405,37.427Z" fill="none" stroke="#61616b" stroke-width="2"></path><line x1="18" y1="32" x2="18" y2="26.689" fill="none" stroke="#61616b" stroke-width="2" data-cap="butt"></line><line x1="30" y1="32" x2="30" y2="26.689" fill="none" stroke="#61616b" stroke-width="2" data-cap="butt"></line></g></svg>