<svg xmlns="http://www.w3.org/2000/svg" height="32" width="32" viewBox="0 0 32 32"><title>miner 4</title><g stroke-linecap="round" fill="#61616b" stroke-linejoin="round" class="nc-icon-wrapper"><line x1="16" y1="27" x2="16" y2="31.015" fill="none" stroke="#61616b" stroke-width="2"></line><path d="M11.936,19.558,3.218,23.9A4,4,0,0,0,1,27.477V31H31V27.477A4,4,0,0,0,28.782,23.9l-8.718-4.338" fill="none" stroke="#61616b" stroke-width="2" data-cap="butt"></path><path d="M24,11c0,6.429-4.429,10-8,10S8,17.429,8,11" fill="none" stroke="#61616b" stroke-width="2" data-cap="butt"></path><line x1="6" y1="11" x2="26" y2="11" fill="none" stroke="#61616b" stroke-width="2" data-color="color-2"></line><path d="M7,11V10a9,9,0,0,1,18,0v1" fill="none" stroke="#61616b" stroke-width="2" data-color="color-2"></path><polyline points="16 3 16 1 16 2" fill="none" stroke="#61616b" stroke-width="2" data-color="color-2"></polyline></g></svg>