<svg xmlns="http://www.w3.org/2000/svg" height="48" width="48" viewBox="0 0 48 48"><title>mobile banking 3</title><g stroke-linecap="round" fill="#61616b" stroke-linejoin="round" class="nc-icon-wrapper"><line x1="39" y1="39" x2="9" y2="39" fill="none" stroke="#61616b" stroke-width="2"></line><path d="M35,46H13a4,4,0,0,1-4-4V6a4,4,0,0,1,4-4H35a4,4,0,0,1,4,4V42A4,4,0,0,1,35,46Z" fill="none" stroke="#61616b" stroke-width="2"></path><line x1="24" y1="9" x2="24" y2="34" fill="none" stroke="#61616b" stroke-width="2" data-color="color-2"></line><path d="M30,13.41c-2.912-1.6-12.085-2.8-12.085,2.719,0,6.6,11.648,4.271,11.648,10.095s-7.571,5.387-12.813,3.493" fill="none" stroke="#61616b" stroke-width="2" data-color="color-2"></path></g></svg>