<svg xmlns="http://www.w3.org/2000/svg" height="64" width="64" viewBox="0 0 64 64"><title>mobile banking 2</title><g stroke-linecap="round" fill="#61616b" stroke-linejoin="round" class="nc-icon-wrapper"><line x1="11" y1="11" x2="53" y2="11" fill="none" stroke="#61616b" stroke-width="2"></line><line x1="11" y1="51" x2="53" y2="51" fill="none" stroke="#61616b" stroke-width="2"></line><path d="M48,62H16a5,5,0,0,1-5-5V7a5,5,0,0,1,5-5H48a5,5,0,0,1,5,5V57A5,5,0,0,1,48,62Z" fill="none" stroke="#61616b" stroke-width="2"></path><line x1="32" y1="17" x2="32" y2="45" fill="none" stroke="#61616b" stroke-width="2" data-color="color-2"></line><path d="M38.75,21.438C35.508,19.655,25.3,18.326,25.3,24.464c0,7.348,12.967,4.755,12.967,11.238S29.835,41.7,24,39.591" fill="none" stroke="#61616b" stroke-width="2" data-color="color-2"></path></g></svg>