<svg xmlns="http://www.w3.org/2000/svg" height="48" width="48" viewBox="0 0 48 48"><title>money coins 3</title><g stroke-linecap="round" fill="#61616b" stroke-linejoin="round" class="nc-icon-wrapper"><polyline fill="none" stroke="#61616b" stroke-width="2" points="22,30 2,30 2,2 42,2 42,15 "></polyline> <ellipse data-color="color-2" fill="none" stroke="#61616b" stroke-width="2" cx="37" cy="24" rx="9" ry="4"></ellipse> <path data-cap="butt" data-color="color-2" fill="none" stroke="#61616b" stroke-width="2" d="M28,24v6c0,2.209,4.029,4,9,4 s9-1.791,9-4v-6"></path> <path data-cap="butt" data-color="color-2" fill="none" stroke="#61616b" stroke-width="2" d="M28,30v6c0,2.209,4.029,4,9,4 s9-1.791,9-4v-6"></path> <path data-cap="butt" data-color="color-2" fill="none" stroke="#61616b" stroke-width="2" d="M28,36v6c0,2.209,4.029,4,9,4 s9-1.791,9-4v-6"></path> <circle fill="none" stroke="#61616b" stroke-width="2" cx="22" cy="16" r="4"></circle></g></svg>