<svg xmlns="http://www.w3.org/2000/svg" height="64" width="64" viewBox="0 0 64 64"><title>money coins 2</title><g stroke-linecap="round" fill="#61616b" stroke-linejoin="round" class="nc-icon-wrapper"><polyline fill="none" stroke="#61616b" stroke-width="2" points="32,46 2,46 2,2 62,2 62,30 "></polyline> <circle fill="none" stroke="#61616b" stroke-width="2" cx="32" cy="24" r="6"></circle> <path fill="none" stroke="#61616b" stroke-width="2" d="M54,28V18 c-4.519,0-8-3.481-8-8H18c0,4.519-3.481,8-8,8v12c4.519,0,8,3.481,8,8h14"></path> <path data-cap="butt" data-color="color-2" fill="none" stroke="#61616b" stroke-width="2" d="M38,40v8c0,3.314,5.373,6,12,6 s12-2.686,12-6v-8"></path> <path data-cap="butt" data-color="color-2" fill="none" stroke="#61616b" stroke-width="2" d="M38,48v8c0,3.314,5.373,6,12,6 s12-2.686,12-6v-8"></path> <ellipse data-color="color-2" fill="none" stroke="#61616b" stroke-width="2" cx="50" cy="40" rx="12" ry="6"></ellipse></g></svg>