<svg xmlns="http://www.w3.org/2000/svg" height="48" width="48" viewBox="0 0 48 48"><title>money bag 4</title><g stroke-linecap="round" fill="#61616b" stroke-linejoin="round" class="nc-icon-wrapper"><polyline data-cap="butt" points="19.2 4.4 14 7 19 14" fill="none" stroke="#61616b" stroke-width="2"></polyline><polyline data-cap="butt" points="28.8 4.4 34 7 29 14" fill="none" stroke="#61616b" stroke-width="2"></polyline><polyline points="21 8 18 2 30 2 27 8" fill="none" stroke="#61616b" stroke-width="2"></polyline><path d="M29,14H19S7,27,7,35c0,6,4.25,11,17,11s17-5,17-11C41,27,29,14,29,14Z" fill="none" stroke="#61616b" stroke-width="2"></path><line data-color="color-2" x1="24" y1="21" x2="24" y2="39" fill="none" stroke="#61616b" stroke-width="2"></line><path data-color="color-2" d="M28.96,23.974c-2.273-1.181-9.574-2.072-9.574,1.992,0,4.865,9.091,3.148,9.091,7.441s-5.909,3.971-10,2.576" fill="none" stroke="#61616b" stroke-width="2"></path></g></svg>