<svg xmlns="http://www.w3.org/2000/svg" height="64" width="64" viewBox="0 0 64 64"><title>money time 2</title><g stroke-linecap="round" fill="#61616b" stroke-linejoin="round" class="nc-icon-wrapper"><path data-cap="butt" data-color="color-2" fill="none" stroke="#61616b" stroke-width="2" d="M38,40v8c0,3.314,5.373,6,12,6 s12-2.686,12-6v-8"></path> <path data-cap="butt" data-color="color-2" fill="none" stroke="#61616b" stroke-width="2" d="M38,48v8c0,3.314,5.373,6,12,6 s12-2.686,12-6v-8"></path> <ellipse data-color="color-2" fill="none" stroke="#61616b" stroke-width="2" cx="50" cy="40" rx="12" ry="6"></ellipse> <polyline fill="none" stroke="#61616b" stroke-width="2" points="28,14 28,28 13,28 "></polyline> <path fill="none" stroke="#61616b" stroke-width="2" d="M32.001,53.694 C30.696,53.896,29.36,54,28,54C13.641,54,2,42.359,2,28S13.641,2,28,2s26,11.641,26,26"></path></g></svg>