<svg xmlns="http://www.w3.org/2000/svg" height="64" width="64" viewBox="0 0 64 64"><title>money bag 3</title><g stroke-linecap="round" fill="#61616b" stroke-linejoin="round" class="nc-icon-wrapper"><line data-color="color-2" x1="32" y1="27" x2="32" y2="53" fill="none" stroke="#61616b" stroke-width="2"></line><path data-color="color-2" d="M38,31.41c-2.912-1.6-12.085-2.8-12.085,2.719,0,6.6,11.648,4.271,11.648,10.095s-7.571,5.387-12.813,3.493" fill="none" stroke="#61616b" stroke-width="2"></path><path d="M39.059,18H24.941S8,35.875,8,46.875C8,55.125,14,62,32,62s24-6.875,24-15.125C56,35.875,39.059,18,39.059,18Z" fill="none" stroke="#61616b" stroke-width="2"></path><polyline data-cap="butt" points="39 18 44 8 38 6" fill="none" stroke="#61616b" stroke-width="2"></polyline><polyline data-cap="butt" points="26 6 20 8 25 18" fill="none" stroke="#61616b" stroke-width="2"></polyline><polyline points="28 10 24 2 40 2 36 10" fill="none" stroke="#61616b" stroke-width="2"></polyline></g></svg>