<svg xmlns="http://www.w3.org/2000/svg" height="48" width="48" viewBox="0 0 48 48"><title>money time 3</title><g stroke-linecap="round" fill="#61616b" stroke-linejoin="round" class="nc-icon-wrapper"><path fill="none" stroke="#61616b" stroke-width="2" d="M22,42 C10.954,42,2,33.046,2,22S10.954,2,22,2c8.202,0,15.25,4.937,18.336,12.001"></path> <polyline fill="none" stroke="#61616b" stroke-width="2" points="22,12 22,22 12,22 "></polyline> <ellipse data-color="color-2" fill="none" stroke="#61616b" stroke-width="2" cx="37" cy="24" rx="9" ry="4"></ellipse> <path data-cap="butt" data-color="color-2" fill="none" stroke="#61616b" stroke-width="2" d="M28,24v6c0,2.209,4.029,4,9,4 s9-1.791,9-4v-6"></path> <path data-cap="butt" data-color="color-2" fill="none" stroke="#61616b" stroke-width="2" d="M28,30v6c0,2.209,4.029,4,9,4 s9-1.791,9-4v-6"></path> <path data-cap="butt" data-color="color-2" fill="none" stroke="#61616b" stroke-width="2" d="M28,36v6c0,2.209,4.029,4,9,4 s9-1.791,9-4v-6"></path></g></svg>