<svg xmlns="http://www.w3.org/2000/svg" height="32" width="32" viewBox="0 0 32 32"><title>money coins 4</title><g stroke-linecap="round" fill="#61616b" stroke-linejoin="round" class="nc-icon-wrapper"><polyline fill="none" stroke="#61616b" stroke-width="2" points="15,23 1,23 1,1 31,1 31,15 "></polyline> <circle fill="none" stroke="#61616b" stroke-width="2" cx="16" cy="12" r="3"></circle> <path fill="none" stroke="#61616b" stroke-width="2" d="M27,13V9 c-2.259,0-4-1.741-4-4H9c0,2.259-1.741,4-4,4v6c2.259,0,4,1.741,4,4h6"></path> <path data-cap="butt" data-color="color-2" fill="none" stroke="#61616b" stroke-width="2" d="M19,20v4c0,1.657,2.686,3,6,3 s6-1.343,6-3v-4"></path> <path data-cap="butt" data-color="color-2" fill="none" stroke="#61616b" stroke-width="2" d="M19,24v4c0,1.657,2.686,3,6,3 s6-1.343,6-3v-4"></path> <ellipse data-color="color-2" fill="none" stroke="#61616b" stroke-width="2" cx="25" cy="20" rx="6" ry="3"></ellipse></g></svg>