<svg xmlns="http://www.w3.org/2000/svg" height="64" width="64" viewBox="0 0 64 64"><title>mortgage 2</title><g stroke-linecap="round" fill="#61616b" stroke-linejoin="round" class="nc-icon-wrapper"><path d="M49,41l6.331-3.8a4.415,4.415,0,0,1,5.983,1.4h0A4.413,4.413,0,0,1,60.3,44.475L49,53.229a6,6,0,0,1-2.218,1.076L26.527,59.368a6,6,0,0,1-4.714-.783L7,49H2V33l9.958-1.66a6,6,0,0,1,3.859.651L25,37l14.911.785A4.315,4.315,0,0,1,44,42.094h0a4.316,4.316,0,0,1-3.886,4.3L24,48" fill="none" stroke="#61616b" stroke-width="2"></path><polygon points="44 3 31 13 31 29 40 29 40 20 48 20 48 29 57 29 57 13 44 3" fill="none" stroke="#61616b" stroke-width="2" data-color="color-2"></polygon></g></svg>