<svg xmlns="http://www.w3.org/2000/svg" height="48" width="48" viewBox="0 0 48 48"><title>mortgage 3</title><g stroke-linecap="round" fill="#61616b" stroke-linejoin="round" class="nc-icon-wrapper"><path d="M37,30l4.365-2.5a3.054,3.054,0,0,1,4.157,1.119l.036.062a3.135,3.135,0,0,1-.7,4l-8.117,6.7a3.966,3.966,0,0,1-1.675.817l-15.4,3.422a4,4,0,0,1-3.086-.577L7.008,36.672A4,4,0,0,0,4.789,36H2V24l7.1-.789a7.99,7.99,0,0,1,3.692.461l5.465,2.049a7.936,7.936,0,0,0,1.528.406l10.224,1.659A3.223,3.223,0,0,1,33,31h0a3.223,3.223,0,0,1-2.992,3.214L19,35" fill="none" stroke="#61616b" stroke-width="2"></path><polygon points="34 3 25 10 25 21 43 21 43 10 34 3" fill="none" stroke="#61616b" stroke-width="2" data-color="color-2"></polygon><rect x="32" y="15" width="4" height="5.975" fill="#61616b" data-color="color-2" data-stroke="none" stroke="none"></rect></g></svg>