<svg xmlns="http://www.w3.org/2000/svg" height="24" width="24" viewBox="0 0 24 24"><title>negative judgement</title><g stroke-linecap="round" fill="#61616b" stroke-linejoin="round" class="nc-icon-wrapper"><path d="M12,6h0A2.5,2.5,0,0,1,9.5,3.5h0A2.5,2.5,0,0,1,12,1h0a2.5,2.5,0,0,1,2.5,2.5h0A2.5,2.5,0,0,1,12,6Z" fill="none" stroke="#61616b" stroke-width="2"></path><path d="M8,14V11a2,2,0,0,1,2-2h4a2,2,0,0,1,2,2v3" fill="none" stroke="#61616b" stroke-width="2"></path><line x1="2" y1="14" x2="22" y2="14" fill="none" stroke="#61616b" stroke-width="2"></line><line x1="4" y1="23" x2="4" y2="14" fill="none" stroke="#61616b" stroke-width="2"></line><line x1="20" y1="23" x2="20" y2="14" fill="none" stroke="#61616b" stroke-width="2"></line><line x1="14" y1="18" x2="10" y2="22" fill="none" stroke="#61616b" stroke-width="2" data-color="color-2"></line><line x1="10" y1="18" x2="14" y2="22" fill="none" stroke="#61616b" stroke-width="2" data-color="color-2"></line></g></svg>