<svg xmlns="http://www.w3.org/2000/svg" height="16" width="16" viewBox="0 0 16 16"><title>net 2</title><g fill="#61616b" class="nc-icon-wrapper"><path d="M4.578,14.2c.326-.543-2.771-5.7-3.423-5.7.652,0,3.749-5.161,3.423-5.7.326.543,6.518.543,6.844,0-.326.543,2.771,5.7,3.423,5.7-.652,0-3.749,5.161-3.423,5.7C11.1,13.661,4.9,13.661,4.578,14.2Z" fill="none" stroke="#61616b" stroke-linecap="round" stroke-linejoin="round"></path> <path d="M6.359,11.239A6.609,6.609,0,0,0,4.576,8.5,6.609,6.609,0,0,0,6.359,5.761a6.976,6.976,0,0,0,3.282,0A6.609,6.609,0,0,0,11.424,8.5a6.609,6.609,0,0,0-1.783,2.739A6.976,6.976,0,0,0,6.359,11.239Z" fill="none" stroke="#61616b" stroke-linecap="round" stroke-linejoin="round"></path> <line x1="11.401" y1="8.5" x2="15.5" y2="8.5" fill="none" stroke="#61616b" stroke-linecap="round" stroke-linejoin="round"></line> <line x1="0.5" y1="8.5" x2="4.599" y2="8.5" fill="none" stroke="#61616b" stroke-linecap="round" stroke-linejoin="round"></line> <line x1="9.641" y1="11.239" x2="11.88" y2="14.919" fill="none" stroke="#61616b" stroke-linecap="round" stroke-linejoin="round"></line> <line x1="4.12" y1="2.081" x2="6.359" y2="5.761" fill="none" stroke="#61616b" stroke-linecap="round" stroke-linejoin="round"></line> <line x1="6.359" y1="11.239" x2="4.12" y2="14.919" fill="none" stroke="#61616b" stroke-linecap="round" stroke-linejoin="round"></line> <line x1="11.88" y1="2.081" x2="9.638" y2="5.766" fill="none" stroke="#61616b" stroke-linecap="round" stroke-linejoin="round"></line></g></svg>