<svg xmlns="http://www.w3.org/2000/svg" height="48" width="48" viewBox="0 0 48 48"><title>net 4</title><g stroke-linecap="round" fill="#61616b" stroke-linejoin="round" class="nc-icon-wrapper"><path fill="none" stroke="#61616b" stroke-width="2" d="M13.961,40.732 C14.917,39.138,5.834,24,3.922,24C5.834,24,14.917,8.862,13.961,7.268c0.956,1.594,19.122,1.594,20.078,0 C33.083,8.862,42.166,24,44.078,24c-1.912,0-10.995,15.138-10.039,16.732C33.083,39.138,14.917,39.138,13.961,40.732z"></path> <path fill="none" stroke="#61616b" stroke-width="2" d="M18.229,33.635 C18.779,32.717,13.104,24,11.957,24c1.147,0,6.822-8.717,6.273-9.635c0.55,0.918,10.992,0.918,11.542,0 C29.221,15.283,34.896,24,36.043,24c-1.147,0-6.822,8.717-6.273,9.635C29.221,32.717,18.779,32.717,18.229,33.635z"></path> <line data-color="color-2" fill="none" stroke="#61616b" stroke-width="2" x1="2" y1="24" x2="46" y2="24"></line> <line data-color="color-2" fill="none" stroke="#61616b" stroke-width="2" x1="12.619" y1="5.172" x2="35.381" y2="42.828"></line> <line data-color="color-2" fill="none" stroke="#61616b" stroke-width="2" x1="35.381" y1="5.172" x2="12.619" y2="42.828"></line></g></svg>