<svg xmlns="http://www.w3.org/2000/svg" height="32" width="32" viewBox="0 0 32 32"><title>net 5</title><g stroke-linecap="round" fill="#61616b" stroke-linejoin="round" class="nc-icon-wrapper"><path fill="none" stroke="#61616b" stroke-width="2" d="M9.837,26.272 C10.424,25.293,4.848,16,3.674,16c1.174,0,6.75-9.293,6.163-10.272c0.587,0.978,11.739,0.978,12.326,0 C21.576,6.707,27.152,16,28.326,16c-1.174,0-6.75,9.293-6.163,10.272C21.576,25.293,10.424,25.293,9.837,26.272z"></path> <path fill="none" stroke="#61616b" stroke-width="2" d="M12.719,21.478 C13.031,20.957,9.804,16,9.152,16c0.652,0,3.879-4.957,3.567-5.478c0.313,0.522,6.25,0.522,6.562,0 C18.969,11.043,22.196,16,22.848,16c-0.652,0-3.879,4.957-3.567,5.478C18.969,20.957,13.031,20.957,12.719,21.478z"></path> <line data-cap="butt" fill="none" stroke="#61616b" stroke-width="2" x1="22.776" y1="16" x2="31" y2="16"></line> <line data-cap="butt" fill="none" stroke="#61616b" stroke-width="2" x1="1" y1="16" x2="9.224" y2="16"></line> <line data-cap="butt" fill="none" stroke="#61616b" stroke-width="2" x1="19.262" y1="21.397" x2="23.759" y2="28.837"></line> <line data-cap="butt" fill="none" stroke="#61616b" stroke-width="2" x1="8.241" y1="3.163" x2="12.738" y2="10.603"></line> <line data-cap="butt" fill="none" stroke="#61616b" stroke-width="2" x1="12.738" y1="21.397" x2="8.241" y2="28.837"></line> <line data-cap="butt" fill="none" stroke="#61616b" stroke-width="2" x1="23.759" y1="3.163" x2="19.262" y2="10.603"></line> <circle data-color="color-2" fill="none" stroke="#61616b" stroke-width="2" cx="16" cy="16" r="1"></circle> <circle data-color="color-2" data-stroke="none" fill="#61616b" cx="16" cy="16" r="1" stroke-linejoin="miter" stroke="none"></circle></g></svg>