<svg xmlns="http://www.w3.org/2000/svg" height="24" width="24" viewBox="0 0 24 24"><title>nodes 5</title><g stroke-linecap="round" fill="#61616b" stroke-linejoin="round" class="nc-icon-wrapper"><line x1="12" y1="5" x2="12" y2="10" fill="none" stroke="#61616b" stroke-width="2" data-cap="butt" data-color="color-2"></line><line x1="12" y1="14" x2="12" y2="19" fill="none" stroke="#61616b" stroke-width="2" data-cap="butt" data-color="color-2"></line><line x1="5.742" y1="6.52" x2="10.257" y2="3.98" fill="none" stroke="#61616b" stroke-width="2" data-cap="butt" data-color="color-2"></line><line x1="18.258" y1="6.52" x2="13.743" y2="3.98" fill="none" stroke="#61616b" stroke-width="2" data-cap="butt" data-color="color-2"></line><line x1="5.742" y1="17.48" x2="10.257" y2="20.02" fill="none" stroke="#61616b" stroke-width="2" data-cap="butt" data-color="color-2"></line><line x1="18.258" y1="17.48" x2="13.743" y2="20.02" fill="none" stroke="#61616b" stroke-width="2" data-cap="butt" data-color="color-2"></line><line x1="4" y1="9.5" x2="4" y2="14.5" fill="none" stroke="#61616b" stroke-width="2" data-cap="butt" data-color="color-2"></line><line x1="20" y1="9.5" x2="20" y2="14.5" fill="none" stroke="#61616b" stroke-width="2" data-cap="butt" data-color="color-2"></line><line x1="10.258" y1="11.02" x2="5.741" y2="8.479" fill="none" stroke="#61616b" stroke-width="2" data-cap="butt" data-color="color-2"></line><line x1="13.743" y1="11.019" x2="18.257" y2="8.48" fill="none" stroke="#61616b" stroke-width="2" data-cap="butt" data-color="color-2"></line><line x1="10.258" y1="12.98" x2="5.741" y2="15.521" fill="none" stroke="#61616b" stroke-width="2" data-cap="butt" data-color="color-2"></line><line x1="13.743" y1="12.981" x2="18.257" y2="15.52" fill="none" stroke="#61616b" stroke-width="2" data-cap="butt" data-color="color-2"></line><circle cx="4" cy="16.5" r="2" fill="none" stroke="#61616b" stroke-width="2" data-cap="butt"></circle><circle cx="4" cy="7.5" r="2" fill="none" stroke="#61616b" stroke-width="2" data-cap="butt"></circle><circle cx="20" cy="16.5" r="2" fill="none" stroke="#61616b" stroke-width="2" data-cap="butt"></circle><circle cx="20" cy="7.5" r="2" fill="none" stroke="#61616b" stroke-width="2" data-cap="butt"></circle><circle cx="12" cy="12" r="2" fill="none" stroke="#61616b" stroke-width="2" data-cap="butt"></circle><circle cx="12" cy="3" r="2" fill="none" stroke="#61616b" stroke-width="2" data-cap="butt"></circle><circle cx="12" cy="21" r="2" fill="none" stroke="#61616b" stroke-width="2" data-cap="butt"></circle></g></svg>