<svg xmlns="http://www.w3.org/2000/svg" height="48" width="48" viewBox="0 0 48 48"><title>nodes 3</title><g stroke-linecap="round" fill="#61616b" stroke-linejoin="round" class="nc-icon-wrapper"><circle cx="8" cy="15" r="4" fill="none" stroke="#61616b" stroke-width="2" data-cap="butt"></circle><circle cx="40.001" cy="15" r="4" fill="none" stroke="#61616b" stroke-width="2" data-cap="butt"></circle><circle cx="24.001" cy="42" r="4" fill="none" stroke="#61616b" stroke-width="2" data-cap="butt"></circle><line x1="24.001" y1="28" x2="24.001" y2="38" fill="none" stroke="#61616b" stroke-width="2" data-cap="butt"></line><line x1="32.163" y1="37.409" x2="27.486" y2="40.04" fill="none" stroke="#61616b" stroke-width="2"></line><line x1="8" y1="19" x2="8" y2="24" fill="none" stroke="#61616b" stroke-width="2"></line><line x1="20.517" y1="22.041" x2="11.483" y2="16.959" fill="none" stroke="#61616b" stroke-width="2" data-cap="butt"></line><line x1="27.487" y1="22.039" x2="36.515" y2="16.961" fill="none" stroke="#61616b" stroke-width="2" data-cap="butt"></line><line x1="36.517" y1="13.04" x2="31.839" y2="10.409" fill="none" stroke="#61616b" stroke-width="2"></line><circle cx="8" cy="33" r="4" fill="none" stroke="#61616b" stroke-width="2" data-cap="butt" data-color="color-2"></circle><circle cx="40.001" cy="33" r="4" fill="none" stroke="#61616b" stroke-width="2" data-cap="butt" data-color="color-2"></circle><circle cx="24.001" cy="24" r="4" fill="none" stroke="#61616b" stroke-width="2" data-cap="butt" data-color="color-2"></circle><line x1="24.001" y1="10" x2="24.001" y2="20" fill="none" stroke="#61616b" stroke-width="2" data-cap="butt" data-color="color-2"></line><circle cx="24.001" cy="6" r="4" fill="none" stroke="#61616b" stroke-width="2" data-cap="butt" data-color="color-2"></circle><line x1="15.838" y1="10.591" x2="20.515" y2="7.96" fill="none" stroke="#61616b" stroke-width="2" data-color="color-2"></line><line x1="16.163" y1="37.591" x2="11.484" y2="34.96" fill="none" stroke="#61616b" stroke-width="2" data-color="color-2"></line><line x1="40.001" y1="24" x2="40.001" y2="29" fill="none" stroke="#61616b" stroke-width="2" data-color="color-2"></line><line x1="20.517" y1="25.959" x2="11.483" y2="31.041" fill="none" stroke="#61616b" stroke-width="2" data-cap="butt" data-color="color-2"></line><line x1="27.487" y1="25.961" x2="36.515" y2="31.039" fill="none" stroke="#61616b" stroke-width="2" data-cap="butt" data-color="color-2"></line></g></svg>