<svg xmlns="http://www.w3.org/2000/svg" height="32" width="32" viewBox="0 0 32 32"><title>nodes 4</title><g stroke-linecap="round" fill="#61616b" stroke-linejoin="round" class="nc-icon-wrapper"><line x1="16" y1="6" x2="16" y2="13.5" fill="none" stroke="#61616b" stroke-width="2" data-cap="butt" data-color="color-2"></line><line x1="16" y1="18.5" x2="16" y2="25.545" fill="none" stroke="#61616b" stroke-width="2" data-cap="butt" data-color="color-2"></line><line x1="13.807" y1="4.696" x2="7.189" y2="8.306" fill="none" stroke="#61616b" stroke-width="2" data-cap="butt" data-color="color-2"></line><line x1="18.193" y1="4.696" x2="24.811" y2="8.306" fill="none" stroke="#61616b" stroke-width="2" data-cap="butt" data-color="color-2"></line><line x1="13.807" y1="27.304" x2="7.189" y2="23.694" fill="none" stroke="#61616b" stroke-width="2" data-cap="butt" data-color="color-2"></line><line x1="18.193" y1="27.304" x2="24.811" y2="23.694" fill="none" stroke="#61616b" stroke-width="2" data-cap="butt" data-color="color-2"></line><line x1="27" y1="12" x2="27" y2="20" fill="none" stroke="#61616b" stroke-width="2" data-cap="butt" data-color="color-2"></line><line x1="5" y1="12" x2="5" y2="20" fill="none" stroke="#61616b" stroke-width="2" data-cap="butt" data-color="color-2"></line><line x1="13.849" y1="14.729" x2="7.151" y2="10.771" fill="none" stroke="#61616b" stroke-width="2" data-cap="butt" data-color="color-2"></line><line x1="13.849" y1="17.271" x2="7.151" y2="21.229" fill="none" stroke="#61616b" stroke-width="2" data-cap="butt" data-color="color-2"></line><line x1="18.151" y1="14.729" x2="24.849" y2="10.771" fill="none" stroke="#61616b" stroke-width="2" data-cap="butt" data-color="color-2"></line><line x1="18.153" y1="17.272" x2="24.849" y2="21.229" fill="none" stroke="#61616b" stroke-width="2" data-cap="butt" data-color="color-2"></line><circle cx="16" cy="16" r="2.5" fill="none" stroke="#61616b" stroke-width="2" data-cap="butt"></circle><circle cx="16" cy="3.5" r="2.5" fill="none" stroke="#61616b" stroke-width="2" data-cap="butt"></circle><circle cx="5" cy="9.5" r="2.5" fill="none" stroke="#61616b" stroke-width="2" data-cap="butt"></circle><circle cx="27" cy="9.5" r="2.5" fill="none" stroke="#61616b" stroke-width="2" data-cap="butt"></circle><circle cx="5" cy="22.5" r="2.5" fill="none" stroke="#61616b" stroke-width="2" data-cap="butt"></circle><circle cx="27" cy="22.5" r="2.5" fill="none" stroke="#61616b" stroke-width="2" data-cap="butt"></circle><circle cx="16" cy="28.5" r="2.5" fill="none" stroke="#61616b" stroke-width="2" data-cap="butt"></circle></g></svg>