<svg xmlns="http://www.w3.org/2000/svg" height="16" width="16" viewBox="0 0 16 16"><title>office pass 3</title><g fill="#61616b" class="nc-icon-wrapper"><line x1="9.5" y1="8.5" x2="12.5" y2="8.5" fill="none" stroke="#61616b" stroke-linecap="round" stroke-linejoin="round" data-color="color-2"></line><line x1="9.5" y1="11.5" x2="12.5" y2="11.5" fill="none" stroke="#61616b" stroke-linecap="round" stroke-linejoin="round" data-color="color-2"></line><path d="M4.5,3.5H2c-.828,0-1.5,.672-1.5,1.5V13c0,.828,.672,1.5,1.5,1.5H14c.828,0,1.5-.672,1.5-1.5V5c0-.828-.672-1.5-1.5-1.5h-2.5" fill="none" stroke="#61616b" stroke-linecap="round" stroke-linejoin="round"></path><rect x="3.5" y="8.5" width="3" height="3" fill="none" stroke="#61616b" stroke-linecap="round" stroke-linejoin="round" data-color="color-2"></rect><path d="M8,.5h0c.828,0,1.5,.672,1.5,1.5v3.5h-3V2c0-.828,.672-1.5,1.5-1.5Z" fill="none" stroke="#61616b" stroke-linecap="round" stroke-linejoin="round"></path></g></svg>