<svg xmlns="http://www.w3.org/2000/svg" height="32" width="32" viewBox="0 0 32 32"><title>office pass 6</title><g stroke-linecap="round" fill="#61616b" stroke-linejoin="round" class="nc-icon-wrapper"><rect x="6" y="17" width="8" height="8" fill="none" stroke="#61616b" stroke-width="2" data-color="color-2"></rect><path d="M23,8h5c1.657,0,3,1.343,3,3V28c0,1.657-1.343,3-3,3H4c-1.657,0-3-1.343-3-3V11c0-1.657,1.343-3,3-3h5" fill="none" stroke="#61616b" stroke-width="2"></path><path d="M19,11h-6V4c0-1.657,1.343-3,3-3h0c1.657,0,3,1.343,3,3v7Z" fill="none" stroke="#61616b" stroke-width="2"></path><line x1="19" y1="18" x2="26" y2="18" fill="none" stroke="#61616b" stroke-width="2" data-color="color-2"></line><line x1="19" y1="24" x2="26" y2="24" fill="none" stroke="#61616b" stroke-width="2" data-color="color-2"></line></g></svg>