<svg xmlns="http://www.w3.org/2000/svg" height="12" width="12" viewBox="0 0 12 12"><title>office pass 2</title><g fill="#61616b" class="nc-icon-wrapper"><path d="M9.5,3.5h1c.552,0,1,.448,1,1v6c0,.552-.448,1-1,1H1.5c-.552,0-1-.448-1-1V4.5c0-.552,.448-1,1-1h1" fill="none" stroke="#61616b" stroke-linecap="round" stroke-linejoin="round"></path><path d="M6,.5h0c.828,0,1.5,.672,1.5,1.5v3.5h-3V2c0-.828,.672-1.5,1.5-1.5Z" fill="none" stroke="#61616b" stroke-linecap="round" stroke-linejoin="round"></path><line x1="6.5" y1="7.5" x2="9.5" y2="7.5" fill="none" stroke="#61616b" stroke-linecap="round" stroke-linejoin="round" data-color="color-2"></line><line x1="6.5" y1="9.5" x2="9.5" y2="9.5" fill="none" stroke="#61616b" stroke-linecap="round" stroke-linejoin="round" data-color="color-2"></line><rect x="2.5" y="7.5" width="2" height="2" fill="none" stroke="#61616b" stroke-linecap="round" stroke-linejoin="round" data-color="color-2"></rect></g></svg>