<svg xmlns="http://www.w3.org/2000/svg" height="24" width="24" viewBox="0 0 24 24"><title>office pass</title><g stroke-linecap="round" fill="#61616b" stroke-linejoin="round" class="nc-icon-wrapper"><rect x="5" y="12" width="6" height="6" fill="none" stroke="#61616b" stroke-width="2" data-color="color-2"></rect><path d="M17,6h4c1.105,0,2,.895,2,2v13c0,1.105-.895,2-2,2H3c-1.105,0-2-.895-2-2V8c0-1.105,.895-2,2-2H7" fill="none" stroke="#61616b" stroke-width="2"></path><path d="M14,8h-4V3c0-1.1,.9-2,2-2h0c1.1,0,2,.9,2,2v5Z" fill="none" stroke="#61616b" stroke-width="2"></path><line x1="15" y1="13" x2="19" y2="13" fill="none" stroke="#61616b" stroke-width="2" data-color="color-2"></line><line x1="15" y1="17" x2="19" y2="17" fill="none" stroke="#61616b" stroke-width="2" data-color="color-2"></line></g></svg>