<svg xmlns="http://www.w3.org/2000/svg" height="24" width="24" viewBox="0 0 24 24"><title>office chair</title><g stroke-linecap="round" fill="#61616b" stroke-linejoin="round" class="nc-icon-wrapper"><line x1="12" y1="19" x2="12" y2="23" fill="none" stroke="#61616b" stroke-width="2"></line><line x1="7" y1="23" x2="17" y2="23" fill="none" stroke="#61616b" stroke-width="2"></line><polyline points="2 15 2 9 3 9" fill="none" stroke="#61616b" stroke-width="2"></polyline><polyline points="22 15 22 9 21 9" fill="none" stroke="#61616b" stroke-width="2"></polyline><path d="M2,15H22v2a2,2,0,0,1-2,2H4a2,2,0,0,1-2-2Z" fill="none" stroke="#61616b" stroke-width="2"></path><path data-color="color-2" d="M6,12V3A2,2,0,0,1,8,1h8a2,2,0,0,1,2,2v9" fill="none" stroke="#61616b" stroke-width="2"></path></g></svg>