<svg xmlns="http://www.w3.org/2000/svg" height="64" width="64" viewBox="0 0 64 64"><title>online banking 2</title><g stroke-linecap="round" fill="#61616b" stroke-linejoin="round" class="nc-icon-wrapper"><path d="M7,41V13a5,5,0,0,1,5-5H52a5,5,0,0,1,5,5V41" fill="none" stroke="#61616b" stroke-width="2"></path><path d="M40,47v4H24V47H2v1a8,8,0,0,0,8,8H54a8,8,0,0,0,8-8V47Z" fill="none" stroke="#61616b" stroke-width="2"></path><line x1="32" y1="15" x2="32" y2="41" fill="none" stroke="#61616b" stroke-width="2" data-color="color-2"></line><path d="M38,19.41c-2.912-1.6-12.085-2.8-12.085,2.719,0,6.6,11.648,4.271,11.648,10.095s-7.571,5.387-12.813,3.493" fill="none" stroke="#61616b" stroke-width="2" data-color="color-2"></path></g></svg>