<svg xmlns="http://www.w3.org/2000/svg" height="48" width="48" viewBox="0 0 48 48"><title>online banking 3</title><g stroke-linecap="round" fill="#61616b" stroke-linejoin="round" class="nc-icon-wrapper"><path d="M6,29V10a4,4,0,0,1,4-4H38a4,4,0,0,1,4,4V29" fill="none" stroke="#61616b" stroke-width="2"></path><path d="M31,34v3H17V34H2v1a7,7,0,0,0,7,7H39a7,7,0,0,0,7-7V34Z" fill="none" stroke="#61616b" stroke-width="2"></path><line data-color="color-2" x1="24" y1="11" x2="24" y2="29" fill="none" stroke="#61616b" stroke-width="2"></line><path data-color="color-2" d="M28.96,13.974c-2.273-1.181-9.574-2.072-9.574,1.992,0,4.865,9.091,3.148,9.091,7.441s-5.909,3.971-10,2.576" fill="none" stroke="#61616b" stroke-width="2"></path></g></svg>