<svg xmlns="http://www.w3.org/2000/svg" height="32" width="32" viewBox="0 0 32 32"><title>online banking 4</title><g stroke-linecap="round" fill="#61616b" stroke-linejoin="round" class="nc-icon-wrapper"><path d="M20.064,16.207a2.631,2.631,0,0,1-.954,2.12,4.74,4.74,0,0,1-2.673.959v1.7H15.3V19.319a9.2,9.2,0,0,1-3.553-.714V16.414a9.6,9.6,0,0,0,1.739.631,9.345,9.345,0,0,0,1.814.324V14.8l-.556-.215a6.221,6.221,0,0,1-2.329-1.407,2.709,2.709,0,0,1-.685-1.881,2.453,2.453,0,0,1,.943-1.98A4.783,4.783,0,0,1,15.3,8.371V7.1h1.137V8.337a9.438,9.438,0,0,1,3.437.764l-.781,1.942a8.986,8.986,0,0,0-2.656-.647v2.449a12.768,12.768,0,0,1,2.3,1.079,3.146,3.146,0,0,1,1.005,1A2.493,2.493,0,0,1,20.064,16.207Zm-5.835-4.915a.791.791,0,0,0,.253.6,3.02,3.02,0,0,0,.818.485V10.429Q14.229,10.587,14.229,11.292Zm3.337,5.039a.746.746,0,0,0-.282-.589,3.67,3.67,0,0,0-.847-.5v2.067Q17.565,17.119,17.566,16.331Z" fill="#61616b" data-color="color-2" data-stroke="none" stroke="none"></path><path d="M26,28H6a5,5,0,0,1-5-5H31A5,5,0,0,1,26,28Z" fill="none" stroke="#61616b" stroke-width="2"></path><path d="M4,19V7A3,3,0,0,1,7,4H25a3,3,0,0,1,3,3V19" fill="none" stroke="#61616b" stroke-width="2"></path></g></svg>