<svg xmlns="http://www.w3.org/2000/svg" height="48" width="48" viewBox="0 0 48 48"><title>payee 3</title><g stroke-linecap="round" fill="#61616b" stroke-linejoin="round" class="nc-icon-wrapper"><path d="M22,26h0c-5.523,0-10-6.477-10-12V12A10,10,0,0,1,22,2h0A10,10,0,0,1,32,12v2C32,19.523,27.523,26,22,26Z" fill="none" stroke="#61616b" stroke-width="2"></path><path d="M29.822,31.57A53.943,53.943,0,0,0,22,31,52.942,52.942,0,0,0,7.007,33.144,7,7,0,0,0,2,39.856V44H27" fill="none" stroke="#61616b" stroke-width="2"></path><polyline points="37 33 31 39 37 45" fill="none" stroke="#61616b" stroke-width="2" data-color="color-2"></polyline><line x1="31" y1="39" x2="45" y2="39" fill="none" stroke="#61616b" stroke-width="2" data-cap="butt" data-color="color-2"></line></g></svg>