<svg xmlns="http://www.w3.org/2000/svg" height="24" width="24" viewBox="0 0 24 24"><title>payment</title><g stroke-linecap="round" fill="#61616b" stroke-linejoin="round" class="nc-icon-wrapper"><polyline fill="none" stroke="#61616b" stroke-width="2" points="8,15 1,15 1,5 23,5 23,16 "></polyline> <path fill="none" stroke="#61616b" stroke-width="2" d="M5,15v0.5 c0,4.142,3.358,7.5,7.5,7.5h0c4.142,0,7.5-3.358,7.5-7.5V8h0c-2.209,0-4,1.791-4,4v2c-2.209,0-4,1.791-4,4"></path> <circle data-color="color-2" fill="none" stroke="#61616b" stroke-width="2" cx="12" cy="10" r="1"></circle> <circle data-color="color-2" data-stroke="none" fill="#61616b" cx="12" cy="10" r="1" stroke-linejoin="miter" stroke="none"></circle> <path fill="none" stroke="#61616b" stroke-width="2" d="M19,5V4 c0-1.657-1.343-3-3-3H8C6.343,1,5,2.343,5,4v1"></path></g></svg>