<svg xmlns="http://www.w3.org/2000/svg" height="32" width="32" viewBox="0 0 32 32"><title>payment 4</title><g stroke-linecap="round" fill="#61616b" stroke-linejoin="round" class="nc-icon-wrapper"><path fill="none" stroke="#61616b" stroke-width="2" d="M8,4V3c0-1.105,0.895-2,2-2 h0c1.105,0,2,0.895,2,2v1"></path> <path fill="none" stroke="#61616b" stroke-width="2" d="M12,4V3 c0-1.105,0.895-2,2-2h0c1.105,0,2,0.895,2,2v1"></path> <path fill="none" stroke="#61616b" stroke-width="2" d="M16,4V3 c0-1.105,0.895-2,2-2h0c1.105,0,2,0.895,2,2v1"></path> <path fill="none" stroke="#61616b" stroke-width="2" d="M20,4V3 c0-1.105,0.895-2,2-2h0c1.105,0,2,0.895,2,2v1"></path> <polyline data-cap="butt" fill="none" stroke="#61616b" stroke-width="2" points="18.244,21 1,21 1,7 31,7 31,21 27,21 "></polyline> <circle data-color="color-2" fill="none" stroke="#61616b" stroke-width="2" cx="16" cy="14" r="3"></circle> <path fill="none" stroke="#61616b" stroke-width="2" d="M8,21v0.5 c0,5.247,4.253,9.5,9.5,9.5h0c5.247,0,9.5-4.253,9.5-9.5V21v-9c-2.259,0-4,1.741-4,4v3c-3.083,0-6,2.167-6,5"></path> ,/g></g></svg>