<svg xmlns="http://www.w3.org/2000/svg" height="48" width="48" viewBox="0 0 48 48"><title>payment 3</title><g stroke-linecap="round" fill="#61616b" stroke-linejoin="round" class="nc-icon-wrapper"><path data-cap="butt" fill="none" stroke="#61616b" stroke-width="2" d="M10,11V7c0-1.657,1.343-3,3-3h0 c1.657,0,3,1.343,3,3v4"></path> <path data-cap="butt" fill="none" stroke="#61616b" stroke-width="2" d="M16,11V6c0-1.657,1.343-3,3-3h0 c1.657,0,3,1.343,3,3v5"></path> <path data-cap="butt" fill="none" stroke="#61616b" stroke-width="2" d="M28,11V6c0-1.657,1.343-3,3-3h0 c1.657,0,3,1.343,3,3v5"></path> <path data-cap="butt" fill="none" stroke="#61616b" stroke-width="2" d="M22,11V5c0-1.657,1.343-3,3-3h0 c1.657,0,3,1.343,3,3v6"></path> <polyline data-cap="butt" fill="none" stroke="#61616b" stroke-width="2" points="27.081,31 3,31 3,11 45,11 45,31 40,31 "></polyline> <circle data-color="color-2" fill="none" stroke="#61616b" stroke-width="2" cx="23" cy="21" r="4"></circle> <line data-color="color-2" fill="none" stroke="#61616b" stroke-width="2" x1="13" y1="17" x2="9" y2="17"></line> <path data-cap="butt" fill="none" stroke="#61616b" stroke-width="2" d="M10,31c0,8.284,6.716,15,15,15 s15-6.716,15-15V18c-3.464,0-6,2.536-6,6v4c-4.728,0-9,3.656-9,8"></path></g></svg>