<svg xmlns="http://www.w3.org/2000/svg" height="64" width="64" viewBox="0 0 64 64"><title>personal trainer 2</title><g stroke-linecap="round" fill="#61616b" stroke-linejoin="round" class="nc-icon-wrapper"><path d="M43,60V32.816l5.717,5.457-4.906,7.415a3.5,3.5,0,0,0,5.378,4.481l7-9.928a3.5,3.5,0,0,0-.272-4.773l-11-10.5A3.5,3.5,0,0,0,42.5,24h-21a3.5,3.5,0,0,0-2.417.968l-11,10.5a3.5,3.5,0,0,0-.272,4.773l7,9.928a3.5,3.5,0,0,0,5.378-4.481l-4.906-7.415L21,32.816V60" fill="none" stroke="#61616b" stroke-width="2"></path> <circle cx="32" cy="11" r="8" fill="none" stroke="#61616b" stroke-width="2"></circle> <line x1="33" y1="33" x2="38" y2="33" fill="none" stroke="#61616b" stroke-width="2" data-color="color-2"></line></g></svg>