<svg xmlns="http://www.w3.org/2000/svg" height="64" width="64" viewBox="0 0 64 64"><title>pig 2</title><g stroke-linecap="round" fill="#61616b" stroke-linejoin="round" class="nc-icon-wrapper"><circle fill="none" stroke="#61616b" stroke-width="2" cx="19" cy="35" r="3"></circle> <circle data-color="color-2" fill="none" stroke="#61616b" stroke-width="2" cx="37" cy="8" r="6"></circle> <line fill="none" stroke="#61616b" stroke-width="2" x1="31" y1="28" x2="43" y2="28"></line> <path fill="none" stroke="#61616b" stroke-width="2" d="M45,22H25 c-0.003,0-0.005,0-0.008,0C20.208,13.788,12,16,12,16l3.073,9.219C12.106,27.36,9.85,30.422,8.75,34H2v14h8.597 c2.323,3.71,6.032,6.457,10.403,7.516V62h10v-6h10v6h10v-7.11c6.424-2.427,11-8.616,11-15.89v0C62,29.611,54.389,22,45,22z"></path></g></svg>