<svg xmlns="http://www.w3.org/2000/svg" height="48" width="48" viewBox="0 0 48 48"><title>pig 3</title><g stroke-linecap="round" fill="#61616b" stroke-linejoin="round" class="nc-icon-wrapper"><line fill="none" stroke="#61616b" stroke-width="2" x1="24" y1="22" x2="32" y2="22"></line> <circle data-color="color-2" fill="none" stroke="#61616b" stroke-width="2" cx="28" cy="6" r="4"></circle> <circle fill="none" stroke="#61616b" stroke-width="2" cx="15" cy="25" r="1"></circle> <path fill="none" stroke="#61616b" stroke-width="2" d="M46,28.5 C46,21.596,40.404,16,33.5,16h-14c-0.164,0-0.5,0-0.5,0c-2.507-5.872-8-4-8-4l1.717,6.01c-2.197,1.423-3.911,3.518-4.87,5.99H2v10 h6.288c1.534,3.12,4.323,5.51,7.712,6.5V46h7v-5h7v5h7v-5.506C42.198,38.979,46,34.187,46,28.5z"></path></g></svg>