<svg xmlns="http://www.w3.org/2000/svg" height="48" width="48" viewBox="0 0 48 48"><title>positive judgement 3</title><g stroke-linecap="round" fill="#61616b" stroke-linejoin="round" class="nc-icon-wrapper"><polyline points="18 39 22 43 30 35" fill="none" stroke="#61616b" stroke-width="2" data-color="color-2"></polyline><path d="M24,11h0a4.5,4.5,0,0,1-4.5-4.5h0A4.5,4.5,0,0,1,24,2h0a4.5,4.5,0,0,1,4.5,4.5h0A4.5,4.5,0,0,1,24,11Z" fill="none" stroke="#61616b" stroke-width="2"></path><line x1="5" y1="28" x2="43" y2="28" fill="none" stroke="#61616b" stroke-width="2"></line><line x1="9" y1="46" x2="9" y2="28" fill="none" stroke="#61616b" stroke-width="2"></line><line x1="39" y1="46" x2="39" y2="28" fill="none" stroke="#61616b" stroke-width="2"></line><path d="M15,28V20a4,4,0,0,1,4-4h2l3,4,3-4h2a4,4,0,0,1,4,4v8" fill="none" stroke="#61616b" stroke-width="2"></path></g></svg>