<svg xmlns="http://www.w3.org/2000/svg" height="32" width="32" viewBox="0 0 32 32"><title>positive judgement 4</title><g stroke-linecap="round" fill="#61616b" stroke-linejoin="round" class="nc-icon-wrapper"><polyline points="12 26 15 29 21 23" fill="none" stroke="#61616b" stroke-width="2" data-color="color-2"></polyline><path d="M10,19V13a3,3,0,0,1,3-3h6a3,3,0,0,1,3,3v6" fill="none" stroke="#61616b" stroke-width="2"></path><path d="M16,7h0a3,3,0,0,1-3-3h0a3,3,0,0,1,3-3h0a3,3,0,0,1,3,3h0A3,3,0,0,1,16,7Z" fill="none" stroke="#61616b" stroke-width="2"></path><line x1="4" y1="19" x2="28" y2="19" fill="none" stroke="#61616b" stroke-width="2"></line><line x1="6" y1="31" x2="6" y2="19" fill="none" stroke="#61616b" stroke-width="2"></line><line x1="26" y1="19" x2="26" y2="31" fill="none" stroke="#61616b" stroke-width="2"></line></g></svg>