<svg xmlns="http://www.w3.org/2000/svg" height="48" width="48" viewBox="0 0 48 48"><title>progress 4</title><g stroke-linecap="round" fill="#61616b" stroke-linejoin="round" class="nc-icon-wrapper"><path data-cap="butt" fill="none" stroke="#61616b" stroke-width="2" d="M44,24c0,11-9,20-20,20S4,35,4,24 S13,4,24,4c7.8,0,14.5,4.5,17.8,10.9"></path> <polyline fill="none" stroke="#61616b" stroke-width="2" points="43.169,6.506 42,15.2 33.075,14 "></polyline> <path data-color="color-2" data-stroke="none" fill="#61616b" d="M22.989,30.517h-8.71v-1.564l3.313-3.331c0.979-1.002,1.627-1.712,1.946-2.132 c1.3-1.702,1.037-3.124,0.396-3.739c-0.35-0.334-0.831-0.501-1.446-0.501c-1.199,0-2.078,0.513-3.023,1.257l-1.116-1.362 c0.715-0.604,1.409-1.031,2.083-1.283c1.552-0.58,3.72-0.575,5.027,0.559c0.721,0.623,1.081,1.463,1.081,2.518 c0,1.263-0.496,2.267-1.27,3.266c-0.71,0.909-1.617,1.73-4.382,4.407v0.088h6.1V30.517z" stroke-linejoin="miter" stroke="none"></path> <path data-color="color-2" data-stroke="none" fill="#61616b" d="M33.721,27.713h-1.731v2.804h-2.013v-2.804h-5.871v-1.591l5.871-8.49h2.013V26h1.731 V27.713z M29.977,26c0-3.334-0.02-4.696,0.088-6.047h-0.07c-0.424,1-0.94,1.649-3.964,6.047H29.977z" stroke-linejoin="miter" stroke="none"></path></g></svg>