<svg xmlns="http://www.w3.org/2000/svg" height="64" width="64" viewBox="0 0 64 64"><title>progress 3</title><g stroke-linecap="round" fill="#61616b" stroke-linejoin="round" class="nc-icon-wrapper"><path data-cap="butt" fill="none" stroke="#61616b" stroke-width="2" d="M60,32c0,15.464-12.536,28-28,28 S4,47.464,4,32S16.536,4,32,4c11.285,0,21.129,6.972,25.561,16.59"></path> <polyline fill="none" stroke="#61616b" stroke-width="2" points="59.34,7.316 57.561,20.59 44.304,18.814 "></polyline> <path data-color="color-2" data-stroke="none" fill="#61616b" d="M30.54,41.414H17.959v-2.26l4.786-4.812c2.693-2.758,4.139-4.262,4.139-6.5 c0-0.838-0.252-1.498-0.755-1.98c-1.01-0.967-3.398-1.312-6.456,1.092l-1.612-1.968c1.854-1.566,3.681-2.399,6.119-2.399 c3.229,0,5.713,1.738,5.713,4.989c0,0.838-0.15,1.634-0.451,2.387c-0.3,0.753-0.762,1.529-1.383,2.33 c-0.969,1.243-2.033,2.206-6.329,6.366v0.127h8.811V41.414z" stroke-linejoin="miter" stroke="none"></path> <path data-color="color-2" data-stroke="none" fill="#61616b" d="M46.041,37.364H43.54v4.05h-2.907v-4.05h-8.48v-2.298l8.48-12.264h2.907v12.086h2.501 V37.364z M40.633,34.888c0-4.889-0.029-6.798,0.127-8.734h-0.102c-0.602,1.418-1.28,2.268-5.726,8.734H40.633z" stroke-linejoin="miter" stroke="none"></path></g></svg>