<svg xmlns="http://www.w3.org/2000/svg" height="32" width="32" viewBox="0 0 32 32"><title>progress 5</title><g stroke-linecap="round" fill="#61616b" stroke-linejoin="round" class="nc-icon-wrapper"><polyline fill="none" stroke="#61616b" stroke-width="2" points="29,2 28.293,9.278 21,8 "></polyline> <path data-cap="butt" fill="none" stroke="#61616b" stroke-width="2" d="M30.008,15.998 c0,7.732-6.268,14-14,14s-14-6.268-14-14s6.268-14,14-14c5.297,0,9.907,2.942,12.285,7.28"></path> <path data-color="color-2" data-stroke="none" fill="#61616b" d="M15.398,21H8.412v-1.401l2.509-2.536c0.842-0.862,2.099-1.979,2.099-3.179 c0-0.401-0.11-0.699-0.332-0.896c-0.221-0.196-0.516-0.294-0.885-0.294c-0.553,0-1.226,0.162-2.27,1.025l-1.148-1.36 C9.385,11.509,10.306,11,12,11c1.847,0,3.118,0.995,3.118,2.638c0,0.46-0.081,0.892-0.243,1.296 c-0.549,1.372-3.831,4.357-3.831,4.357h4.354V21z" stroke-linejoin="miter" stroke="none"></path> <path data-color="color-2" data-stroke="none" fill="#61616b" d="M23.615,18.998h-1.203V21h-2.064v-2.002H16v-1.47L20.464,11h1.948v6.357h1.203V18.998z M20.348,17.357v-1.695c0-0.28,0.049-1.913,0.089-2.167c0,0-0.187,0.374-2.495,3.862H20.348z" stroke-linejoin="miter" stroke="none"></path></g></svg>