<svg xmlns="http://www.w3.org/2000/svg" height="48" width="48" viewBox="0 0 48 48"><title>puzzle 09 4</title><g stroke-linecap="round" fill="#61616b" stroke-linejoin="round" class="nc-icon-wrapper"><path fill="none" stroke="#61616b" stroke-width="2" d="M40,18 c-0.7,0-1.4,0.1-2,0.4V6h-8c0,3.3-2.7,6-6,6s-6-2.7-6-6h-8v12.4C9.4,18.1,8.7,18,8,18c-3.3,0-6,2.7-6,6s2.7,6,6,6 c0.7,0,1.4-0.1,2-0.4V42h8c0-3.3,2.7-6,6-6s6,2.7,6,6h8V29.6c0.6,0.2,1.3,0.4,2,0.4c3.3,0,6-2.7,6-6S43.3,18,40,18z" transform="translate(0, 0)"></path></g></svg>