<svg xmlns="http://www.w3.org/2000/svg" height="48" width="48" viewBox="0 0 48 48"><title>puzzle 10 4</title><g stroke-linecap="round" fill="#61616b" stroke-linejoin="round" class="nc-icon-wrapper"><path fill="none" stroke="#61616b" stroke-width="2" d="M40,22 c-0.705,0-1.372,0.144-2,0.367V10H25.633C25.856,9.372,26,8.705,26,8c0-3.314-2.686-6-6-6s-6,2.686-6,6c0,0.705,0.144,1.372,0.367,2 H2v12c3.314,0,6,2.686,6,6s-2.686,6-6,6v12h12c0-3.314,2.686-6,6-6s6,2.686,6,6h12V33.633C38.628,33.856,39.295,34,40,34 c3.314,0,6-2.686,6-6S43.314,22,40,22z" transform="translate(0, 0)"></path></g></svg>