<svg xmlns="http://www.w3.org/2000/svg" height="24" width="24" viewBox="0 0 24 24"><title>puzzle 09</title><g stroke-linecap="round" fill="#61616b" stroke-linejoin="round" class="nc-icon-wrapper"><path fill="none" stroke="#61616b" stroke-width="2" d="M20,9c-0.4,0-0.7,0.1-1,0.2 V3h-4c0,1.7-1.3,3-3,3S9,4.7,9,3H5v6.2C4.7,9.1,4.4,9,4,9c-1.7,0-3,1.3-3,3s1.3,3,3,3c0.4,0,0.7-0.1,1-0.2V21h4c0-1.7,1.3-3,3-3 s3,1.3,3,3h4v-6.2c0.3,0.1,0.6,0.2,1,0.2c1.7,0,3-1.3,3-3S21.7,9,20,9z" transform="translate(0, 0)"></path></g></svg>