<svg xmlns="http://www.w3.org/2000/svg" height="16" width="16" viewBox="0 0 16 16"><title>puzzle 10 2</title><g fill="#61616b" class="nc-icon-wrapper"><path fill="none" stroke="#61616b" stroke-linecap="round" stroke-linejoin="round" d="M13,6.5 c-0.171,0-0.338,0.018-0.5,0.05V3.5H9.45C9.482,3.338,9.5,3.171,9.5,3c0-1.381-1.119-2.5-2.5-2.5S4.5,1.619,4.5,3 c0,0.171,0.018,0.338,0.05,0.5H1.5v3.05c1.141,0.232,2,1.24,2,2.45s-0.859,2.218-2,2.45v3.05h3.05c0.232-1.141,1.24-2,2.45-2 s2.218,0.859,2.45,2h3.05v-3.05c0.162,0.033,0.329,0.05,0.5,0.05c1.381,0,2.5-1.119,2.5-2.5S14.381,6.5,13,6.5z"></path></g></svg>