<svg xmlns="http://www.w3.org/2000/svg" height="64" width="64" viewBox="0 0 64 64"><title>sign 3</title><g stroke-linecap="round" fill="#61616b" stroke-linejoin="round" class="nc-icon-wrapper"><line data-color="color-2" fill="none" stroke="#61616b" stroke-width="2" x1="2" y1="62" x2="62" y2="62"></line> <path fill="none" stroke="#61616b" stroke-width="2" d="M5,55 c0,0,3.239-13.239,6-16L45.929,4.071c2.761-2.761,7.239-2.761,10,0l0,0c2.761,2.761,2.761,7.239,0,10L21,49C18.239,51.761,5,55,5,55 z"></path> <polyline data-color="color-2" fill="none" stroke="#61616b" stroke-width="2" points=" 49,38 61,26 57,22 "></polyline> <path data-cap="butt" fill="none" stroke="#61616b" stroke-width="2" d="M10.792,39.227 C13.208,38.963,15.92,39.92,18,42l0,0c2.081,2.081,3.028,4.8,2.764,7.216"></path></g></svg>