<svg xmlns="http://www.w3.org/2000/svg" height="48" width="48" viewBox="0 0 48 48"><title>solo</title><g stroke-linecap="round" fill="#61616b" stroke-linejoin="round" class="nc-icon-wrapper"><path fill="none" stroke="#61616b" stroke-width="2" d="M43,40H5 c-1.657,0-3-1.343-3-3V11c0-1.657,1.343-3,3-3h27h11c1.657,0,3,1.343,3,3v26C46,38.657,44.657,40,43,40z"></path> <path data-color="color-2" data-stroke="none" fill="#61616b" d="M26.88,22.426c1.647,2.529,0.932,5.915-1.597,7.563 c-2.529,1.647-5.915,0.932-7.563-1.597l1.57-1.055c1.07,1.643,3.268,2.107,4.911,1.037c1.643-1.07,2.107-3.268,1.037-4.911 L26.88,22.426z" stroke-linejoin="miter" stroke="none"></path> <path data-color="color-2" data-stroke="none" fill="#61616b" d="M30.535,20.105c-1.651-2.527-5.037-3.238-7.565-1.588 c-2.527,1.651-3.238,5.037-1.588,7.565l1.599-1.012c-1.072-1.641-0.61-3.84,1.031-4.912c1.641-1.072,3.84-0.61,4.912,1.031 L30.535,20.105z" stroke-linejoin="miter" stroke="none"></path> <path data-color="color-2" data-stroke="none" fill="#61616b" d="M24,36c-6.617,0-12-5.383-12-12s5.383-12,12-12s12,5.383,12,12S30.617,36,24,36z M24,14c-5.514,0-10,4.486-10,10s4.486,10,10,10s10-4.486,10-10S29.514,14,24,14z" stroke-linejoin="miter" stroke="none"></path></g></svg>