<svg xmlns="http://www.w3.org/2000/svg" height="64" width="64" viewBox="0 0 64 64"><title>solo 2</title><g stroke-linecap="round" fill="#61616b" stroke-linejoin="round" class="nc-icon-wrapper"><path data-color="color-2" data-stroke="none" fill="#61616b" d="M35.36,30.164c1.922,2.951,1.087,6.901-1.864,8.823 c-2.951,1.922-6.901,1.087-8.823-1.864l1.832-1.231c1.248,1.916,3.813,2.458,5.729,1.21c1.916-1.248,2.458-3.813,1.21-5.729 L35.36,30.164z" stroke-linejoin="miter" stroke="none"></path> <path data-color="color-2" data-stroke="none" fill="#61616b" d="M39.624,27.455c-1.926-2.949-5.877-3.778-8.826-1.852 c-2.949,1.926-3.778,5.877-1.852,8.826l1.865-1.18c-1.25-1.915-0.712-4.481,1.203-5.731c1.915-1.25,4.48-0.712,5.731,1.203 L39.624,27.455z" stroke-linejoin="miter" stroke="none"></path> <path fill="none" stroke="#61616b" stroke-width="2" d="M2,50V14c0-2.2,1.8-4,4-4 h52c2.2,0,4,1.8,4,4v36c0,2.2-1.8,4-4,4H6C3.8,54,2,52.2,2,50z"></path> <path data-color="color-2" data-stroke="none" fill="#61616b" d="M32,46c-7.72,0-14-6.28-14-14s6.28-14,14-14s14,6.28,14,14S39.72,46,32,46z M32,20 c-6.617,0-12,5.383-12,12s5.383,12,12,12s12-5.383,12-12S38.617,20,32,20z" stroke-linejoin="miter" stroke="none"></path></g></svg>