<svg xmlns="http://www.w3.org/2000/svg" height="48" width="48" viewBox="0 0 48 48"><title>stripe</title><g stroke-linecap="round" fill="#61616b" stroke-linejoin="round" class="nc-icon-wrapper"><path d="M43 40H5a3 3 0 01-3-3V11a3 3 0 013-3h38a3 3 0 013 3v26a3 3 0 01-3 3z" fill="none" stroke="#61616b" stroke-width="2"></path><path data-color="color-2" data-stroke="none" d="M40.875 24.234c0-2.4-1.162-4.293-3.384-4.293s-3.582 1.893-3.582 4.275c0 2.822 1.594 4.246 3.882 4.246a5.227 5.227 0 002.6-.609v-1.875a4.97 4.97 0 01-2.3.516c-.91 0-1.716-.319-1.819-1.425h4.584c0-.122.019-.61.019-.835zm-4.631-.89c0-1.06.647-1.5 1.237-1.5.572 0 1.182.44 1.182 1.5zM30.291 19.941a2.649 2.649 0 00-1.838.731l-.122-.581h-2.062v10.931l2.344-.5.009-2.653a2.636 2.636 0 001.659.59c1.678 0 3.207-1.349 3.207-4.321-.01-2.716-1.557-4.197-3.197-4.197zm-.563 6.459a1.4 1.4 0 01-1.106-.441l-.009-3.478a1.393 1.393 0 011.115-.459c.853 0 1.444.956 1.444 2.184 0 1.256-.581 2.194-1.444 2.194zM23.044 19.387l2.353-.506v-1.903l-2.353.497v1.912z" fill="#61616b" fill-rule="evenodd" stroke="none"></path><path data-color="color-2" data-stroke="none" fill="#61616b" d="M23.044 20.1h2.353v8.203h-2.353z" stroke="none"></path><path data-color="color-2" data-stroke="none" d="M20.522 20.794l-.15-.694h-2.025v8.2h2.344v-5.556a1.653 1.653 0 011.781-.488V20.1a1.59 1.59 0 00-1.95.694zM15.834 18.066l-2.287.487-.01 7.509a2.356 2.356 0 002.429 2.41 3.614 3.614 0 001.64-.31v-1.9c-.3.122-1.781.553-1.781-.834V22.1h1.781v-2h-1.781zM9.5 22.481c0-.365.3-.506.8-.506a5.237 5.237 0 012.325.6v-2.2a6.17 6.17 0 00-2.325-.431c-1.9 0-3.169.993-3.169 2.653 0 2.587 3.562 2.175 3.562 3.29 0 .432-.375.572-.9.572a5.827 5.827 0 01-2.56-.75v2.232a6.5 6.5 0 002.56.534c1.949 0 3.29-.966 3.29-2.644-.014-2.797-3.583-2.3-3.583-3.35z" fill="#61616b" fill-rule="evenodd" stroke="none"></path></g></svg>