<svg xmlns="http://www.w3.org/2000/svg" height="48" width="48" viewBox="0 0 48 48"><title>wallet 90 3</title><g stroke-linecap="round" fill="#61616b" stroke-linejoin="round" class="nc-icon-wrapper"><polyline fill="none" stroke="#61616b" stroke-width="2" points="10,14 10,2 38,2 38,14 "></polyline> <path fill="none" stroke="#61616b" stroke-width="2" d="M42,25.999V14H6 c-2.209,0-4-1.791-4-4v30c0,3.314,2.686,6,6,6h34V34"></path> <path fill="none" stroke="#61616b" stroke-width="2" d="M10,6H6 c-2.209,0-4,1.791-4,4v0c0,2.209,1.791,4,4,4"></path> <path data-color="color-2" fill="none" stroke="#61616b" stroke-width="2" d="M46,34h-9 c-2.209,0-4-1.791-4-4l0,0c0-2.209,1.791-4,4-4h9V34z"></path></g></svg>