<svg xmlns="http://www.w3.org/2000/svg" height="32" width="32" viewBox="0 0 32 32"><title>wallet 44 5</title><g stroke-linecap="round" fill="#61616b" stroke-linejoin="round" class="nc-icon-wrapper"><line fill="none" stroke="#61616b" stroke-width="2" x1="28" y1="12" x2="25" y2="12"></line> <line fill="none" stroke="#61616b" stroke-width="2" x1="21" y1="12" x2="19" y2="12"></line> <line fill="none" stroke="#61616b" stroke-width="2" x1="15" y1="12" x2="13" y2="12"></line> <line fill="none" stroke="#61616b" stroke-width="2" x1="9" y1="12" x2="7" y2="12"></line> <line fill="none" stroke="#61616b" stroke-width="2" x1="3" y1="12" x2="1" y2="12"></line> <line fill="none" stroke="#61616b" stroke-width="2" x1="28" y1="26" x2="25" y2="26"></line> <line fill="none" stroke="#61616b" stroke-width="2" x1="21" y1="26" x2="19" y2="26"></line> <line fill="none" stroke="#61616b" stroke-width="2" x1="15" y1="26" x2="13" y2="26"></line> <line fill="none" stroke="#61616b" stroke-width="2" x1="9" y1="26" x2="7" y2="26"></line> <line fill="none" stroke="#61616b" stroke-width="2" x1="3" y1="26" x2="1" y2="26"></line> <path fill="none" stroke="#61616b" stroke-width="2" d="M28,16V8h-6H9H4 C2.343,8,1,6.657,1,5v21c0,2.209,1.791,4,4,4h23v-8"></path> <path data-color="color-2" fill="none" stroke="#61616b" stroke-width="2" d="M31,22h-7 c-1.657,0-3-1.343-3-3v0c0-1.657,1.343-3,3-3h7V22z"></path> <path fill="none" stroke="#61616b" stroke-width="2" d="M22,4V2H4 C2.343,2,1,3.343,1,5v0c0,1.657,1.343,3,3,3"></path></g></svg>