<svg xmlns="http://www.w3.org/2000/svg" height="64" width="64" viewBox="0 0 64 64"><title>wallet 44 3</title><g stroke-linecap="round" fill="#61616b" stroke-linejoin="round" class="nc-icon-wrapper"><line data-color="color-2" fill="none" stroke="#61616b" stroke-width="2" x1="38" y1="22" x2="34" y2="22"></line> <line data-color="color-2" fill="none" stroke="#61616b" stroke-width="2" x1="26" y1="22" x2="22" y2="22"></line> <line data-color="color-2" fill="none" stroke="#61616b" stroke-width="2" x1="14" y1="22" x2="10" y2="22"></line> <line data-color="color-2" fill="none" stroke="#61616b" stroke-width="2" x1="38" y1="52" x2="34" y2="52"></line> <line data-color="color-2" fill="none" stroke="#61616b" stroke-width="2" x1="50" y1="22" x2="46" y2="22"></line> <line data-color="color-2" fill="none" stroke="#61616b" stroke-width="2" x1="50" y1="52" x2="46" y2="52"></line> <line data-color="color-2" fill="none" stroke="#61616b" stroke-width="2" x1="26" y1="52" x2="22" y2="52"></line> <line data-color="color-2" fill="none" stroke="#61616b" stroke-width="2" x1="14" y1="52" x2="10" y2="52"></line> <circle data-stroke="none" fill="#61616b" cx="48" cy="37" r="2" stroke-linejoin="miter" stroke="none"></circle> <path fill="none" stroke="#61616b" stroke-width="2" d="M7,15c-2.761,0-5-2.239-5-5 v0c0-2.761,2.239-5,5-5h40v4"></path> <path fill="none" stroke="#61616b" stroke-width="2" d="M58,31V15H7 c-2.761,0-5-2.239-5-5v41c0,4.418,3.582,8,8,8h48V43"></path> <path data-color="color-2" fill="none" stroke="#61616b" stroke-width="2" d="M62,43H48 c-3.314,0-6-2.686-6-6v0c0-3.314,2.686-6,6-6h14V43z"></path></g></svg>