<svg xmlns="http://www.w3.org/2000/svg" height="48" width="48" viewBox="0 0 48 48"><title>wallet 44 4</title><g stroke-linecap="round" fill="#61616b" stroke-linejoin="round" class="nc-icon-wrapper"><line fill="none" stroke="#61616b" stroke-width="2" x1="2" y1="18" x2="7" y2="18"></line> <line fill="none" stroke="#61616b" stroke-width="2" x1="15" y1="18" x2="18" y2="18"></line> <line fill="none" stroke="#61616b" stroke-width="2" x1="26" y1="18" x2="29" y2="18"></line> <line fill="none" stroke="#61616b" stroke-width="2" x1="37" y1="18" x2="42" y2="18"></line> <line fill="none" stroke="#61616b" stroke-width="2" x1="2" y1="38" x2="7" y2="38"></line> <line fill="none" stroke="#61616b" stroke-width="2" x1="15" y1="38" x2="18" y2="38"></line> <line fill="none" stroke="#61616b" stroke-width="2" x1="26" y1="38" x2="29" y2="38"></line> <line fill="none" stroke="#61616b" stroke-width="2" x1="37" y1="38" x2="42" y2="38"></line> <path fill="none" stroke="#61616b" stroke-width="2" d="M42,23.999V12H6 c-2.209,0-4-1.791-4-4v30c0,3.314,2.686,6,6,6h34V32"></path> <path fill="none" stroke="#61616b" stroke-width="2" d="M34,7V4H6 C3.791,4,2,5.791,2,8v0c0,2.209,1.791,4,4,4"></path> <path data-color="color-2" fill="none" stroke="#61616b" stroke-width="2" d="M46,32h-9 c-2.209,0-4-1.791-4-4l0,0c0-2.209,1.791-4,4-4h9V32z"></path></g></svg>