<svg xmlns="http://www.w3.org/2000/svg" height="64" width="64" viewBox="0 0 64 64"><title>wallet 90 2</title><g stroke-linecap="round" fill="#61616b" stroke-linejoin="round" class="nc-icon-wrapper"><circle data-stroke="none" fill="#61616b" cx="48" cy="40" r="2" stroke-linejoin="miter" stroke="none"></circle> <path fill="none" stroke="#61616b" stroke-width="2" d="M7,18c-2.761,0-5-2.239-5-5 v0c0-2.761,2.239-5,5-5h4"></path> <path fill="none" stroke="#61616b" stroke-width="2" d="M58,34V18H7 c-2.761,0-5-2.239-5-5v41c0,4.418,3.582,8,8,8h48V46"></path> <path data-color="color-2" fill="none" stroke="#61616b" stroke-width="2" d="M62,46H48 c-3.314,0-6-2.686-6-6v0c0-3.314,2.686-6,6-6h14V46z"></path> <polyline data-color="color-2" fill="none" stroke="#61616b" stroke-width="2" points=" 11,13 11,2 51,2 51,13 11,13 "></polyline></g></svg>