<svg xmlns="http://www.w3.org/2000/svg" height="24" width="24" viewBox="0 0 24 24"><title>wallet 44</title><g stroke-linecap="round" fill="#61616b" stroke-linejoin="round" class="nc-icon-wrapper"><line data-color="color-2" fill="none" stroke="#61616b" stroke-width="2" x1="1" y1="9" x2="4" y2="9"></line> <line data-color="color-2" fill="none" stroke="#61616b" stroke-width="2" x1="20" y1="9" x2="23" y2="9"></line> <line data-color="color-2" fill="none" stroke="#61616b" stroke-width="2" x1="1" y1="19" x2="4" y2="19"></line> <line data-color="color-2" fill="none" stroke="#61616b" stroke-width="2" x1="8" y1="9" x2="10" y2="9"></line> <line data-color="color-2" fill="none" stroke="#61616b" stroke-width="2" x1="14" y1="9" x2="16" y2="9"></line> <line data-color="color-2" fill="none" stroke="#61616b" stroke-width="2" x1="8" y1="19" x2="10" y2="19"></line> <line data-color="color-2" fill="none" stroke="#61616b" stroke-width="2" x1="14" y1="19" x2="16" y2="19"></line> <line data-color="color-2" fill="none" stroke="#61616b" stroke-width="2" x1="20" y1="19" x2="23" y2="19"></line> <path fill="none" stroke="#61616b" stroke-width="2" d="M23,5H3 C1.895,5,1,4.105,1,3v17c0,1.657,1.343,3,3,3h19V5z"></path> <path fill="none" stroke="#61616b" stroke-width="2" d="M19,2V1H3 C1.895,1,1,1.895,1,3v0c0,1.105,0.895,2,2,2"></path></g></svg>