<svg xmlns="http://www.w3.org/2000/svg" height="32" width="32" viewBox="0 0 32 32"><title>wallet 90 4</title><g stroke-linecap="round" fill="#61616b" stroke-linejoin="round" class="nc-icon-wrapper"><polyline fill="none" stroke="#61616b" stroke-width="2" points="7,9 7,1 24,1 24,9 "></polyline> <path fill="none" stroke="#61616b" stroke-width="2" d="M28,17V9h-6H9H4 C2.343,9,1,7.657,1,6v21c0,2.209,1.791,4,4,4h23v-8"></path> <path data-color="color-2" fill="none" stroke="#61616b" stroke-width="2" d="M31,23h-7 c-1.657,0-3-1.343-3-3v0c0-1.657,1.343-3,3-3h7V23z"></path> <path fill="none" stroke="#61616b" stroke-width="2" d="M7,3H4C2.343,3,1,4.343,1,6 v0c0,1.657,1.343,3,3,3"></path></g></svg>