<svg xmlns="http://www.w3.org/2000/svg" height="48" width="48" viewBox="0 0 48 48"><title>arrows opposite directions</title><g class="nc-icon-wrapper"><path d="M37,32a.984.984,0,0,1-.439-.1A1,1,0,0,1,36,31V17a1,1,0,0,1,1.614-.789l9,7a1,1,0,0,1,0,1.578l-9,7A1,1,0,0,1,37,32Z" fill="#363636"></path><path d="M11,32a.984.984,0,0,0,.439-.1A1,1,0,0,0,12,31V17a1,1,0,0,0-1.614-.789l-9,7a1,1,0,0,0,0,1.578l9,7A1,1,0,0,0,11,32Z" fill="#363636"></path><path d="M24,32a8,8,0,1,1,8-8A8.009,8.009,0,0,1,24,32Z" fill="#fa9856"></path></g></svg>