<svg xmlns="http://www.w3.org/2000/svg" height="48" width="48" viewBox="0 0 48 48"><title>arrows same direction</title><g class="nc-icon-wrapper"><path d="M3,12h7v5a1,1,0,0,0,.561.9A.983.983,0,0,0,11,18a1,1,0,0,0,.614-.211l9-7a1,1,0,0,0,0-1.578l-9-7A1,1,0,0,0,10,3V8H3a2,2,0,0,0,0,4Z" fill="#8d9ef2"></path><path d="M37.614,16.211A1,1,0,0,0,36,17v5H3a2,2,0,0,0,0,4H36v5a1,1,0,0,0,.561.9A.983.983,0,0,0,37,32a1,1,0,0,0,.614-.211l9-7a1,1,0,0,0,0-1.578Z" fill="#645aed"></path><path d="M25.614,30.211A1,1,0,0,0,24,31v5H3a2,2,0,0,0,0,4H24v5a1,1,0,0,0,.561.9A.983.983,0,0,0,25,46a1,1,0,0,0,.614-.211l9-7a1,1,0,0,0,0-1.578Z" fill="#6d82ee"></path></g></svg>