<svg xmlns="http://www.w3.org/2000/svg" height="48" width="48" viewBox="0 0 48 48"><title>arrows maximize 2</title><g class="nc-icon-wrapper"><path d="M44,3H30a1,1,0,0,0-1,1V6a1,1,0,0,0,1,1h8.172L27.879,17.293a1,1,0,0,0,0,1.414l1.414,1.414a1,1,0,0,0,1.414,0L41,9.828V18a1,1,0,0,0,1,1h2a1,1,0,0,0,1-1V4A1,1,0,0,0,44,3Z" fill="#6d82ee"></path><path d="M18.707,27.879a1,1,0,0,0-1.414,0L7,38.172V30a1,1,0,0,0-1-1H4a1,1,0,0,0-1,1V44a1,1,0,0,0,1,1H18a1,1,0,0,0,1-1V42a1,1,0,0,0-1-1H9.828L20.121,30.707a1,1,0,0,0,0-1.414Z" fill="#2842c3"></path></g></svg>