<svg xmlns="http://www.w3.org/2000/svg" height="48" width="48" viewBox="0 0 48 48"><title>arrows fullscreen 2</title><g class="nc-icon-wrapper"><path d="M44.8,2.02l-15,3a1,1,0,0,0-.511,1.687l4.586,4.586-5.293,5.293a2,2,0,0,0,2.779,2.877l.049-.049L36.7,14.121l4.586,4.586A1,1,0,0,0,42.98,18.2l3-15A1,1,0,0,0,44.8,2.02Z" fill="#6ca5b7"></path><path d="M16.586,28.586l-5.293,5.293L6.707,29.293A1,1,0,0,0,5.02,29.8l-3,15A1,1,0,0,0,3.2,45.98l15-3a1,1,0,0,0,.511-1.687l-4.586-4.586,5.293-5.293a2,2,0,0,0-2.828-2.828Z" fill="#3d6c7b"></path></g></svg>