<svg xmlns="http://www.w3.org/2000/svg" height="48" width="48" viewBox="0 0 48 48"><title>arrows maximize</title><g class="nc-icon-wrapper"><path d="M9.828,7H18a1,1,0,0,0,1-1V4a1,1,0,0,0-1-1H4A1,1,0,0,0,3,4V18a1,1,0,0,0,1,1H6a1,1,0,0,0,1-1V9.828L17.293,20.121a1,1,0,0,0,1.414,0l1.414-1.414a1,1,0,0,0,0-1.414Z" fill="#6d82ee"></path><path d="M44,29H42a1,1,0,0,0-1,1v8.172L30.707,27.879a1,1,0,0,0-1.414,0l-1.414,1.414a1,1,0,0,0,0,1.414L38.172,41H30a1,1,0,0,0-1,1v2a1,1,0,0,0,1,1H44a1,1,0,0,0,1-1V30A1,1,0,0,0,44,29Z" fill="#2842c3"></path></g></svg>