<svg xmlns="http://www.w3.org/2000/svg" height="48" width="48" style="" viewBox="0 0 48 48"><title>backward</title><g class="nc-icon-wrapper"><path d="M45 5H3C2.448 5 2 4.552 2 4C2 3.448 2.448 3 3 3H45C45.552 3 46 3.448 46 4C46 4.552 45.552 5 45 5Z" fill="url(#nc-ui-7-0_linear_219_46)"></path><path d="M3 18H17C17.552 18 18 18.448 18 19C18 19.552 17.552 20 17 20H3C2.448 20 2 19.552 2 19C2 18.448 2.448 18 3 18Z" fill="url(#nc-ui-7-1_linear_219_46)"></path><path d="M30 19C30 18.448 30.448 18 31 18H45C45.552 18 46 18.448 46 19C46 19.552 45.552 20 45 20H31C30.448 20 30 19.552 30 19Z" fill="url(#nc-ui-7-2_linear_219_46)"></path><path d="M14 30H22V11C22 9.895 22.895 9 24 9C25.105 9 26 9.895 26 11V30H34C34.552 30 35 30.448 35 31C35 31.22 34.927 31.434 34.793 31.609L24.793 44.609C24.426 45.047 23.773 45.104 23.335 44.737C23.289 44.698 23.246 44.655 23.207 44.609L13.207 31.609C12.871 31.171 12.953 30.543 13.391 30.207C13.566 30.073 13.78 30 14 30Z" fill="url(#nc-ui-7-3_linear_219_46)"></path><defs><linearGradient id="nc-ui-7-0_linear_219_46" x1="2" y1="4.00001" x2="45" y2="4.00001" gradientUnits="userSpaceOnUse"><stop stop-color="#FEE7F5"></stop><stop offset="1" stop-color="#FBB0DD"></stop></linearGradient><linearGradient id="nc-ui-7-1_linear_219_46" x1="2" y1="19" x2="45" y2="19" gradientUnits="userSpaceOnUse"><stop stop-color="#FEE7F5"></stop><stop offset="1" stop-color="#FBB0DD"></stop></linearGradient><linearGradient id="nc-ui-7-2_linear_219_46" x1="3" y1="19" x2="45.6364" y2="19" gradientUnits="userSpaceOnUse"><stop stop-color="#FEE7F5"></stop><stop offset="1" stop-color="#FBB0DD"></stop></linearGradient><linearGradient id="nc-ui-7-3_linear_219_46" x1="24.0001" y1="9" x2="24.0001" y2="44.9789" gradientUnits="userSpaceOnUse"><stop stop-color="#F77CC6"></stop><stop offset="1" stop-color="#E642A3"></stop></linearGradient></defs></g></svg>