<svg xmlns="http://www.w3.org/2000/svg" height="48" width="48" viewBox="0 0 48 48"><title>btn enlarge</title><g class="nc-icon-wrapper"><path d="M3,8V40a5.006,5.006,0,0,0,5,5H40a5.006,5.006,0,0,0,5-5V8a5.006,5.006,0,0,0-5-5H8A5.006,5.006,0,0,0,3,8Z" fill="#ea5da3"></path><path d="M20,37a1,1,0,0,1,0,2H10a1,1,0,0,1-1-1V28a1,1,0,0,1,2,0v7.586l8.293-8.293a1,1,0,0,1,1.414,1.414L12.414,37Z" fill="#fddded"></path><path d="M20.707,19.293a1,1,0,1,1-1.389,1.439l-.025-.025L11,12.414V20a1,1,0,0,1-2,0V10a1,1,0,0,1,1-1H20a1,1,0,0,1,0,2H12.414Z" fill="#fddded"></path><path d="M39,38a1,1,0,0,1-1,1H28a1,1,0,0,1,0-2h7.586l-8.293-8.293a1,1,0,0,1,1.414-1.414L37,35.586V28a1,1,0,0,1,2,0Z" fill="#fddded"></path><path d="M39,20a1,1,0,0,1-2,0V12.414l-8.293,8.293a1,1,0,0,1-1.414-1.414L35.586,11H28a1,1,0,0,1,0-2H38a1,1,0,0,1,1,1Z" fill="#fddded"></path></g></svg>