<svg xmlns="http://www.w3.org/2000/svg" height="48" width="48" viewBox="0 0 48 48"><title>btn expand</title><g class="nc-icon-wrapper"><path d="M40,3H8A5.006,5.006,0,0,0,3,8V40a5.006,5.006,0,0,0,5,5H40a5.006,5.006,0,0,0,5-5V8A5.006,5.006,0,0,0,40,3Z" fill="#ea5da3"></path><path d="M19.924,38.383A1,1,0,0,1,19,39H10a1,1,0,0,1-1-1V29a1,1,0,0,1,1.707-.707l9,9A1,1,0,0,1,19.924,38.383Z" fill="#fddded"></path><path d="M19.707,10.707l-9,9A1,1,0,0,1,9,19V10a1,1,0,0,1,1-1h9a1,1,0,0,1,.707,1.707Z" fill="#fddded"></path><path d="M39,38a1,1,0,0,1-1,1H29a1,1,0,0,1-.707-1.707l9-9A1,1,0,0,1,39,29Z" fill="#fddded"></path><path d="M39,19a1,1,0,0,1-.617.924,1,1,0,0,1-1.09-.217l-9-9A1,1,0,0,1,29,9h9a1,1,0,0,1,1,1Z" fill="#fddded"></path></g></svg>