<svg xmlns="http://www.w3.org/2000/svg" height="48" width="48" viewBox="0 0 48 48"><title>change direction</title><g class="nc-icon-wrapper"><path d="M44.581,13.187l-14-10A1,1,0,0,0,29,4V9H6a1,1,0,0,0-1,1v8a1,1,0,0,0,1,1H29v5a1,1,0,0,0,1,1,.984.984,0,0,0,.581-.187l14-10a1,1,0,0,0,.231-1.4A1.013,1.013,0,0,0,44.581,13.187Z" fill="#c7c6a8"></path><path d="M42,29H19V24a1,1,0,0,0-1.581-.813l-14,10a1,1,0,0,0-.231,1.4,1.013,1.013,0,0,0,.231.231l14,10A.984.984,0,0,0,18,45a1.014,1.014,0,0,0,.458-.11A1,1,0,0,0,19,44V39H42a1,1,0,0,0,1-1V30A1,1,0,0,0,42,29Z" fill="#5d5c3c"></path></g></svg>