<svg xmlns="http://www.w3.org/2000/svg" height="48" width="48" viewBox="0 0 48 48"><title>compare</title><g class="nc-icon-wrapper"><path d="M10.633,14.227A1,1,0,0,0,9,15v7H2a2,2,0,0,0,0,4H9v7a1,1,0,0,0,.571.9A.982.982,0,0,0,10,34a1,1,0,0,0,.633-.226l11-9a1,1,0,0,0,.141-1.407.94.94,0,0,0-.141-.141Z" fill="#363636"></path><path d="M46,22H39V15a1,1,0,0,0-1.633-.773l-11,9a1,1,0,0,0-.141,1.407.94.94,0,0,0,.141.141l11,9A1,1,0,0,0,38,34a.982.982,0,0,0,.429-.1A1,1,0,0,0,39,33V26h7a2,2,0,0,0,0-4Z" fill="#d37ff0"></path></g></svg>