<svg xmlns="http://www.w3.org/2000/svg" height="48" width="48" viewBox="0 0 48 48"><title>computer upload</title><g class="nc-icon-wrapper"><rect x="19" y="34" width="10" height="10" fill="#212121"></rect><path d="M34,43H14a1,1,0,0,0,0,2H34a1,1,0,0,0,0-2Z" fill="#4c4c4c"></path><path d="M45,3H3A2,2,0,0,0,1,5V35a2,2,0,0,0,2,2H45a2,2,0,0,0,2-2V5A2,2,0,0,0,45,3Z" fill="#4c4c4c"></path><rect x="4" y="6" width="40" height="28" fill="#cbeafb"></rect><path d="M30.707,18.706a1,1,0,0,1-1.414,0L25,14.413V28a1,1,0,0,1-2,0V14.413l-4.293,4.293a1,1,0,1,1-1.414-1.414l6-6a.99.99,0,0,1,.326-.217,1,1,0,0,1,1.09.217l6,6A1,1,0,0,1,30.707,18.706Z" fill="#3aace9"></path></g></svg>