<svg xmlns="http://www.w3.org/2000/svg" height="48" width="48" viewBox="0 0 48 48"><title>contrast</title><g class="nc-icon-wrapper"><path d="M20,22H13V15a1,1,0,0,0-1.633-.774l-11,9a1,1,0,0,0-.141,1.407.94.94,0,0,0,.141.141l11,9a.986.986,0,0,0,1.061.126A1,1,0,0,0,13,33V26h7a2,2,0,0,0,0-4Z" fill="#363636"></path><path d="M36.633,14.226A1,1,0,0,0,35,15v7H28a2,2,0,0,0,0,4h7v7a1,1,0,0,0,.572.9A.978.978,0,0,0,36,34a.994.994,0,0,0,.633-.227l11-9a1,1,0,0,0,.141-1.407.94.94,0,0,0-.141-.141Z" fill="#d37ff0"></path></g></svg>