<svg xmlns="http://www.w3.org/2000/svg" height="48" width="48" viewBox="0 0 48 48"><title>corner bottom right</title><g class="nc-icon-wrapper"><path d="M46,44.9l-1-14a.9.9,0,0,0-1.1-.9.713.713,0,0,0-.6.3l-5.1,5.1-8.8-8.8a1.98,1.98,0,0,0-2.8,2.8h0l8.8,8.8-5.1,5.1a.908.908,0,0,0-.3.7.367.367,0,0,0,.1.3.875.875,0,0,0,.9.6l14,1a1.135,1.135,0,0,0,.8-.3A1.165,1.165,0,0,0,46,44.9Z" fill="#363636"></path><path d="M3,2H22a.945.945,0,0,1,1,1V22a.945.945,0,0,1-1,1H3a.945.945,0,0,1-1-1V3A.945.945,0,0,1,3,2Z" fill="#78d478"></path></g></svg>