<svg xmlns="http://www.w3.org/2000/svg" height="48" width="48" viewBox="0 0 48 48"><title>crossing directions</title><g class="nc-icon-wrapper"><path d="M42.988,30.848a1,1,0,0,0-1.7-.555L37.2,34.379,6.414,3.586A2,2,0,0,0,3.586,6.414L34.379,37.207l-4.086,4.086a1,1,0,0,0,.555,1.7l13,2A.962.962,0,0,0,44,45a1,1,0,0,0,1-1,.964.964,0,0,0-.012-.152Z" fill="#4d8b9d"></path><path d="M44.988,2.152A.964.964,0,0,0,45,2a1,1,0,0,0-1-1,.962.962,0,0,0-.152.007l-13,2a1,1,0,0,0-.555,1.7l4.086,4.086L3.586,39.586a2,2,0,0,0,2.828,2.828L37.2,11.621l4.086,4.086a1,1,0,0,0,1.7-.555Z" fill="#2a4b55"></path></g></svg>