<svg xmlns="http://www.w3.org/2000/svg" height="48" width="48" style="" viewBox="0 0 48 48"><title>data upload</title><g class="nc-icon-wrapper"><path d="M15 17H22V32C22 33.105 22.895 34 24 34C25.105 34 26 33.105 26 32V17H33C33.552 17 34 16.552 34 16C34 15.784 33.9299 15.573 33.7999 15.4L24.7999 3.39997C24.4359 2.95797 23.7839 2.89497 23.3419 3.25797C23.2899 3.30097 23.243 3.34797 23.2 3.39997L14.2 15.4C13.869 15.842 13.958 16.469 14.4 16.8C14.573 16.93 14.784 17 15 17Z" fill="url(#nc-ui-3-0_linear_119_78)"></path> <path d="M44 31C43.448 31 43 31.448 43 32V40C43 41.657 41.657 43 40 43H8C6.343 43 5 41.657 5 40V32C5 31.448 4.552 31 4 31C3.448 31 3 31.448 3 32V40C3.003 42.76 5.24 44.997 8 45H40C42.76 44.997 44.997 42.76 45 40V32C45 31.448 44.552 31 44 31Z" fill="url(#nc-ui-3-1_linear_119_78)"></path> <defs> <linearGradient id="nc-ui-3-0_linear_119_78" x1="24" y1="3.02222" x2="24" y2="34" gradientUnits="userSpaceOnUse"> <stop stop-color="#929170"></stop> <stop offset="1" stop-color="#6C6C56"></stop> </linearGradient> <linearGradient id="nc-ui-3-1_linear_119_78" x1="24" y1="31" x2="24" y2="45" gradientUnits="userSpaceOnUse"> <stop stop-color="#D4D3C9"></stop> <stop offset="1" stop-color="#B0B09C"></stop> </linearGradient> </defs></g></svg>