<svg xmlns="http://www.w3.org/2000/svg" height="48" width="48" style="" viewBox="0 0 48 48"><title>data download</title><g class="nc-icon-wrapper"><path d="M43.5 32C43.5 31.7241 43.7241 31.5 44 31.5C44.2759 31.5 44.5 31.7241 44.5 32V39.9995C44.4973 42.4837 42.4837 44.4973 39.9995 44.5H8.00054C5.51635 44.4973 3.50284 42.4839 3.5 39.9997V32C3.5 31.7241 3.72414 31.5 4 31.5C4.27586 31.5 4.5 31.7241 4.5 32V40C4.5 41.9331 6.06686 43.5 8 43.5H40C41.9331 43.5 43.5 41.9331 43.5 40V32Z" fill="#D4D3C9" stroke="url(#nc-ui-3-0_linear_119_185)"></path> <path d="M23.2 33.6C23.531 34.042 24.158 34.131 24.6 33.8C24.676 33.743 24.743 33.676 24.8 33.6L33.8 21.6C34.131 21.158 34.042 20.531 33.6 20.2C33.427 20.07 33.216 20 33 20H26V5C26 3.895 25.105 3 24 3C22.895 3 22 3.895 22 5V20H15C14.448 20 14 20.448 14 21C14 21.216 14.07 21.427 14.2 21.6L23.2 33.6Z" fill="url(#nc-ui-3-1_linear_119_185)"></path> <defs> <linearGradient id="nc-ui-3-0_linear_119_185" x1="24" y1="31" x2="24" y2="45" gradientUnits="userSpaceOnUse"> <stop stop-color="#D4D3C9"></stop> <stop offset="1" stop-color="#B0B09C"></stop> </linearGradient> <linearGradient id="nc-ui-3-1_linear_119_185" x1="24" y1="3" x2="24" y2="33.9999" gradientUnits="userSpaceOnUse"> <stop stop-color="#929170"></stop> <stop offset="1" stop-color="#6C6C56"></stop> </linearGradient> </defs></g></svg>