<svg xmlns="http://www.w3.org/2000/svg" height="48" width="48" viewBox="0 0 48 48"><title>delete x</title><g class="nc-icon-wrapper"><path d="M42,8H14a1,1,0,0,0-.781.375l-12,15a1,1,0,0,0,0,1.25l12,15A1,1,0,0,0,14,40H42a5.006,5.006,0,0,0,5-5V13A5.006,5.006,0,0,0,42,8Z" fill="#aeaeae"></path><path d="M34.707,29.293a1,1,0,0,1-1.389,1.439l-.025-.025L28,25.414l-5.293,5.293a1,1,0,0,1-1.414-1.414L26.586,24l-5.293-5.293a1,1,0,0,1,1.414-1.414L28,22.586l5.293-5.293a1,1,0,0,1,1.414,1.414L29.414,24Z" fill="#fff"></path></g></svg>