<svg xmlns="http://www.w3.org/2000/svg" height="48" width="48" viewBox="0 0 48 48"><title>direction</title><g class="nc-icon-wrapper"><path d="M44.707,18.707l-1.414-1.414a1,1,0,0,0-1.414,0L19,40.172V30a1,1,0,0,0-1-1H16a1,1,0,0,0-1,1V46a1,1,0,0,0,1,1H32a1,1,0,0,0,1-1V44a1,1,0,0,0-1-1H21.828L44.707,20.121A1,1,0,0,0,44.707,18.707Z" fill="#a2703f"></path><path d="M29,18a1,1,0,0,0,1,1h2a1,1,0,0,0,1-1V2a1,1,0,0,0-1-1H16a1,1,0,0,0-1,1V4a1,1,0,0,0,1,1H26.172L3.293,27.879a1,1,0,0,0,0,1.414l1.414,1.414a1,1,0,0,0,1.414,0L29,7.828Z" fill="#d0ab86"></path></g></svg>