<svg xmlns="http://www.w3.org/2000/svg" height="48" width="48" viewBox="0 0 48 48"><title>double arrow left</title><g class="nc-icon-wrapper"><path d="M42,3.293,40.586,1.878a1,1,0,0,0-1.414,0h0L17.757,23.293a1,1,0,0,0,0,1.414L39.171,46.122a1,1,0,0,0,1.414,0h0L42,44.707a1,1,0,0,0,0-1.414L22.707,24,42,4.707A1,1,0,0,0,42,3.293Z" fill="#f888c0"></path><path d="M10.707,24,30,4.707a1,1,0,0,0,0-1.414L28.586,1.878a1,1,0,0,0-1.414,0h0L5.757,23.293a1,1,0,0,0,0,1.414L27.171,46.122a1,1,0,0,0,1.414,0h0L30,44.707a1,1,0,0,0,0-1.414Z" fill="#f888c0"></path></g></svg>