<svg xmlns="http://www.w3.org/2000/svg" height="48" width="48" viewBox="0 0 48 48"><title>download data</title><g class="nc-icon-wrapper"><path d="M29,43H19a1,1,0,0,0,0,2H29a1,1,0,0,0,0-2Z" fill="#b1b086"></path><path d="M19,5H29a1,1,0,0,0,0-2H19a1,1,0,0,0,0,2Z" fill="#b1b086"></path><path d="M44,18a1,1,0,0,0-1,1V29a1,1,0,0,0,2,0V19A1,1,0,0,0,44,18Z" fill="#b1b086"></path><path d="M4,30a1,1,0,0,0,1-1V19a1,1,0,0,0-2,0V29A1,1,0,0,0,4,30Z" fill="#b1b086"></path><path d="M44,35a1,1,0,0,0-1,1v4a3,3,0,0,1-3,3H36a1,1,0,0,0,0,2h4a5.006,5.006,0,0,0,5-5V36A1,1,0,0,0,44,35Z" fill="#b1b086"></path><path d="M12,43H8a3,3,0,0,1-3-3V36a1,1,0,0,0-2,0v4a5.006,5.006,0,0,0,5,5h4a1,1,0,0,0,0-2Z" fill="#b1b086"></path><path d="M12,3H8A5.006,5.006,0,0,0,3,8v4a1,1,0,0,0,2,0V8A3,3,0,0,1,8,5h4a1,1,0,0,0,0-2Z" fill="#b1b086"></path><path d="M40,3H36a1,1,0,0,0,0,2h4a3,3,0,0,1,3,3v4a1,1,0,0,0,2,0V8A5.006,5.006,0,0,0,40,3Z" fill="#b1b086"></path><path d="M32,24H26V14a2,2,0,0,0-4,0V24H16a1,1,0,0,0-.781,1.625l8,10a1,1,0,0,0,1.562,0l8-10A1,1,0,0,0,32,24Z" fill="#807e52"></path></g></svg>