<svg xmlns="http://www.w3.org/2000/svg" height="48" width="48" style="" viewBox="0 0 48 48"><title>download</title><g class="nc-icon-wrapper"><path d="M37 18H11C8.23858 18 6 20.2386 6 23V41C6 43.7614 8.23858 46 11 46H37C39.7614 46 42 43.7614 42 41V23C42 20.2386 39.7614 18 37 18Z" fill="url(#nc-ui-6-0_linear_215_9)"></path> <path d="M15 25C14.448 25 14 25.448 14 26C14 26.216 14.07 26.427 14.2 26.6L23.2 38.6C23.531 39.042 24.158 39.131 24.6 38.8C24.676 38.743 24.743 38.676 24.8 38.6L33.8 26.6C34.131 26.158 34.042 25.531 33.6 25.2C33.427 25.07 33.216 25 33 25H26V4C26 2.895 25.105 2 24 2C22.895 2 22 2.895 22 4V25H15Z" fill="url(#nc-ui-6-1_linear_215_9)"></path> <defs> <linearGradient id="nc-ui-6-0_linear_215_9" x1="24" y1="18" x2="24" y2="46" gradientUnits="userSpaceOnUse"> <stop stop-color="#DEF2FD"></stop> <stop offset="1" stop-color="#9ED9FA"></stop> </linearGradient> <linearGradient id="nc-ui-6-1_linear_215_9" x1="24" y1="2" x2="24" y2="39" gradientUnits="userSpaceOnUse"> <stop stop-color="#60BEF6"></stop> <stop offset="1" stop-color="#29A0EA"></stop> </linearGradient> </defs></g></svg>