<svg xmlns="http://www.w3.org/2000/svg" height="48" width="48" style="" viewBox="0 0 48 48"><title>enlarge</title><g class="nc-icon-wrapper"><path d="M24.707 1.87795C24.317 1.48795 23.683 1.48795 23.293 1.87795L11.878 13.2929C11.488 13.6839 11.488 14.3169 11.878 14.7069L13.293 16.1219C13.684 16.5119 14.317 16.5119 14.707 16.1219L24 6.82895L33.293 16.1219C33.683 16.5119 34.317 16.5119 34.707 16.1219L36.122 14.7069C36.512 14.3159 36.512 13.6829 36.122 13.2929L24.707 1.87795Z" fill="url(#nc-ui-3-0_linear_119_128)"></path> <path d="M34.707 31.8779C34.317 31.4879 33.683 31.4879 33.293 31.8779L24 41.1709L14.707 31.8779C14.316 31.4879 13.683 31.4879 13.293 31.8779L11.878 33.2929C11.488 33.6829 11.488 34.3169 11.878 34.7069L23.293 46.122C23.683 46.512 24.317 46.512 24.707 46.122L36.122 34.7069C36.512 34.3169 36.512 33.6829 36.122 33.2929L34.707 31.8779Z" fill="url(#nc-ui-3-1_linear_119_128)"></path> <defs> <linearGradient id="nc-ui-3-0_linear_119_128" x1="24" y1="1.58545" x2="24" y2="16.4144" gradientUnits="userSpaceOnUse"> <stop stop-color="#D0D8FB"></stop> <stop offset="1" stop-color="#8192F3"></stop> </linearGradient> <linearGradient id="nc-ui-3-1_linear_119_128" x1="24" y1="31.5854" x2="24" y2="46.4145" gradientUnits="userSpaceOnUse"> <stop stop-color="#344EEA"></stop> <stop offset="1" stop-color="#2138BB"></stop> </linearGradient> </defs></g></svg>