<svg xmlns="http://www.w3.org/2000/svg" height="48" width="48" viewBox="0 0 48 48"><title>enlarge h</title><g class="nc-icon-wrapper"><path d="M15.048,11.1,13.512,9.823a1,1,0,0,0-1.408.128L.93,23.36a1,1,0,0,0,0,1.28L12.1,38.049a1,1,0,0,0,1.408.128l1.54-1.277a1,1,0,0,0,.128-1.408L5.6,24l9.572-11.488a1,1,0,0,0-.121-1.409Z" fill="#857cf8"></path><path d="M47.07,23.36,35.9,9.951a1,1,0,0,0-1.408-.128L32.952,11.1a1,1,0,0,0-.128,1.408L42.4,24,32.824,35.488a1,1,0,0,0,.128,1.408l1.536,1.281a1,1,0,0,0,1.408-.128L47.07,24.64A1,1,0,0,0,47.07,23.36Z" fill="#857cf8"></path></g></svg>