<svg xmlns="http://www.w3.org/2000/svg" height="48" width="48" viewBox="0 0 48 48"><title>expand window</title><g class="nc-icon-wrapper"><path d="M44,3H31a1,1,0,0,0-.707,1.707l13,13A1,1,0,0,0,45,17V4A1,1,0,0,0,44,3Z" fill="#bf8c5a"></path><path d="M4.707,30.292A1,1,0,0,0,3,31V44a1,1,0,0,0,1,1H17a1,1,0,0,0,.707-1.707Z" fill="#bf8c5a"></path><path d="M17,3H4A1,1,0,0,0,3,4V17a1,1,0,0,0,1.707.707l13-13A1,1,0,0,0,17,3Z" fill="#bf8c5a"></path><path d="M44.383,30.075a1,1,0,0,0-1.09.217l-13,13A1,1,0,0,0,31,45H44a1,1,0,0,0,1-1V31A1,1,0,0,0,44.383,30.075Z" fill="#bf8c5a"></path></g></svg>