<svg xmlns="http://www.w3.org/2000/svg" height="48" width="48" viewBox="0 0 48 48"><title>file upload 3</title><g class="nc-icon-wrapper"><polygon points="8 14 40 14 46 30 2 30 8 14" fill="#363636"></polygon><path d="M46.937,29.649l-6-16A1,1,0,0,0,40,13H8a1,1,0,0,0-.937.649l-6,16L1,30V45a2,2,0,0,0,2,2H45a2,2,0,0,0,2-2V30ZM3.443,29l5.25-14H39.307l5.25,14Z" fill="#aeaeae"></path><circle cx="24" cy="38" r="4" fill="#e3e3e3"></circle><path d="M31.789,9.386l-7-9A1.035,1.035,0,0,0,23.33.267a.956.956,0,0,0-.119.119l-7,9A1,1,0,0,0,17,11h5v9a2,2,0,0,0,4,0V11h5a1,1,0,0,0,.789-1.614Z" fill="#3aace9"></path></g></svg>