<svg xmlns="http://www.w3.org/2000/svg" height="48" width="48" viewBox="0 0 48 48"><title>file download</title><g class="nc-icon-wrapper"><path d="M44,8a4,4,0,0,0-4-4H8A4,4,0,0,0,4,8V28H16v6H32V28H44Z" fill="#2a4b55"></path><path d="M40,3H8A5.006,5.006,0,0,0,3,8V40a5.006,5.006,0,0,0,5,5H40a5.006,5.006,0,0,0,5-5V8A5.006,5.006,0,0,0,40,3Zm3,24H32a1,1,0,0,0-1,1v5H17V28a1,1,0,0,0-1-1H5V8A3,3,0,0,1,8,5H40a3,3,0,0,1,3,3Z" fill="#4d8b9d"></path><path d="M16.211,19.614l7,9a1.035,1.035,0,0,0,1.459.119.956.956,0,0,0,.119-.119l7-9A1,1,0,0,0,31,18H26V9a2,2,0,0,0-4,0v9H17a1,1,0,0,0-.789,1.614Z" fill="#cbeafb"></path></g></svg>