<svg xmlns="http://www.w3.org/2000/svg" height="48" width="48" viewBox="0 0 48 48"><title>file archive</title><g class="nc-icon-wrapper"><polygon points="8 13.979 40 13.979 46 29.979 32 29.979 32 35.979 16 35.979 16 29.979 2 29.979 8 13.979" fill="#7d5731"></polygon><path d="M46.937,29.628l-6-16A1,1,0,0,0,40,12.979H8a1,1,0,0,0-.937.649l-6,16L1,29.979v15a2,2,0,0,0,2,2H45a2,2,0,0,0,2-2v-15ZM32,28.979a1,1,0,0,0-1,1v5H17v-5a1,1,0,0,0-1-1H3.443l5.25-14H39.307l5.25,14Z" fill="#bf8c5a"></path><path d="M16.211,12.614l7,9a1.035,1.035,0,0,0,1.459.119.956.956,0,0,0,.119-.119l7-9A1,1,0,0,0,31,11H26V2a2,2,0,0,0-4,0v9H17a1,1,0,0,0-.789,1.614Z" fill="#ee7c2f"></path></g></svg>