<svg xmlns="http://www.w3.org/2000/svg" height="48" width="48" viewBox="0 0 48 48"><title>fit vertical</title><g class="nc-icon-wrapper"><path d="M32,17a1,1,0,0,0,.781-1.625l-8-10a1.037,1.037,0,0,0-1.462-.1,1.049,1.049,0,0,0-.1.1l-8,10A1,1,0,0,0,16,17h6V31H16a1,1,0,0,0-.781,1.625l8,10a1,1,0,0,0,1.562,0l8-10A1,1,0,0,0,32,31H26V17Z" fill="#78d478"></path><path d="M4,3H44a1,1,0,0,0,0-2H4A1,1,0,0,0,4,3Z" fill="#aeaeae"></path><path d="M4,47H44a1,1,0,0,0,0-2H4a1,1,0,0,0,0,2Z" fill="#aeaeae"></path></g></svg>