<svg xmlns="http://www.w3.org/2000/svg" height="48" width="48" viewBox="0 0 48 48"><title>fork</title><g class="nc-icon-wrapper"><path d="M4,29H9v6a2,2,0,0,0,1.052,1.761L22,43.194V46a2,2,0,0,0,4,0V11h5a1,1,0,0,0,.79-1.614l-7-9A1.037,1.037,0,0,0,23.328.268a1.012,1.012,0,0,0-.118.118l-7,9A1,1,0,0,0,17,11h5V38.652l-9-4.847V29h5a1,1,0,0,0,.79-1.614l-7-9a1.037,1.037,0,0,0-1.462-.118,1.012,1.012,0,0,0-.118.118l-7,9A1,1,0,0,0,4,29Z" fill="#857cf8"></path><path d="M29.1,23.439A1,1,0,0,0,30,24h5v4.8L29.053,32a2,2,0,0,0,1.863,3.54l.031-.017,7-3.762A2,2,0,0,0,39,30V24h5a1,1,0,0,0,.79-1.614l-7-9a1.037,1.037,0,0,0-1.462-.118,1.012,1.012,0,0,0-.118.118l-7,9A1,1,0,0,0,29.1,23.439Z" fill="#645aed"></path></g></svg>