<svg xmlns="http://www.w3.org/2000/svg" height="48" width="48" viewBox="0 0 48 48"><title>fork 2</title><g class="nc-icon-wrapper"><path d="M37.79,12.386a1.037,1.037,0,0,0-1.462-.118,1.012,1.012,0,0,0-.118.118l-7,9A1,1,0,0,0,30,23h5v1a6.011,6.011,0,0,1-5.25,5.953A2,2,0,0,0,30,33.938a1.938,1.938,0,0,0,.252-.016A10.02,10.02,0,0,0,39,24V23h5a1,1,0,0,0,.79-1.614Z" fill="#645aed"></path><path d="M22,40v6a2,2,0,0,0,4,0V11h5a1,1,0,0,0,.79-1.614l-7-9A1.037,1.037,0,0,0,23.328.268a1.012,1.012,0,0,0-.118.118l-7,9A1,1,0,0,0,17,11h5V36H19a6.006,6.006,0,0,1-6-6V29h5a1,1,0,0,0,.79-1.614l-7-9a1.037,1.037,0,0,0-1.462-.118,1.012,1.012,0,0,0-.118.118l-7,9A1,1,0,0,0,4,29H9v1A10.011,10.011,0,0,0,19,40Z" fill="#857cf8"></path></g></svg>