<svg xmlns="http://www.w3.org/2000/svg" height="48" width="48" viewBox="0 0 48 48"><title>format right</title><g class="nc-icon-wrapper"><path d="M45,5H3A1,1,0,0,0,3,7H45a1,1,0,0,0,0-2Z" fill="#fbb7d9"></path><path d="M45,41H3a1,1,0,0,0,0,2H45a1,1,0,0,0,0-2Z" fill="#fbb7d9"></path><path d="M3,25H14a1,1,0,0,0,0-2H3a1,1,0,0,0,0,2Z" fill="#fbb7d9"></path><path d="M3,16H14a1,1,0,0,0,0-2H3a1,1,0,0,0,0,2Z" fill="#fbb7d9"></path><path d="M3,34H14a1,1,0,0,0,0-2H3a1,1,0,0,0,0,2Z" fill="#fbb7d9"></path><path d="M45.588,23.191l-11-8A1,1,0,0,0,33,16v6H22a2,2,0,0,0,0,4H33v6a1,1,0,0,0,1.588.809l11-8a1,1,0,0,0,.221-1.4A.986.986,0,0,0,45.588,23.191Z" fill="#ea5da3"></path></g></svg>