<svg xmlns="http://www.w3.org/2000/svg" height="48" width="48" style="" viewBox="0 0 48 48"><title>forward</title><g class="nc-icon-wrapper"><path d="M45 43H3C2.448 43 2 43.448 2 44C2 44.552 2.448 45 3 45H45C45.552 45 46 44.552 46 44C46 43.448 45.552 43 45 43Z" fill="url(#nc-ui-5-0_linear_207_115)"></path><path d="M3 30H17C17.552 30 18 29.552 18 29C18 28.448 17.552 28 17 28H3C2.448 28 2 28.448 2 29C2 29.552 2.448 30 3 30Z" fill="url(#nc-ui-5-1_linear_207_115)"></path><path d="M30 29C30 29.552 30.448 30 31 30H45C45.552 30 46 29.552 46 29C46 28.448 45.552 28 45 28H31C30.448 28 30 28.448 30 29Z" fill="url(#nc-ui-5-2_linear_207_115)"></path><path d="M14 18.0001H22V37.0001C22 38.1051 22.895 39.0001 24 39.0001C25.105 39.0001 26 38.1051 26 37.0001V18.0001H34C34.552 18.0001 35 17.5521 35 17.0001C35 16.7801 34.927 16.5661 34.793 16.3911L24.793 3.39109C24.426 2.95309 23.773 2.89609 23.335 3.26309C23.289 3.30209 23.246 3.34509 23.207 3.39109L13.207 16.3911C12.871 16.8291 12.953 17.4571 13.391 17.7931C13.566 17.9271 13.78 18.0001 14 18.0001Z" fill="url(#nc-ui-5-3_linear_207_115)"></path><defs><linearGradient id="nc-ui-5-0_linear_207_115" x1="2" y1="44" x2="46" y2="44" gradientUnits="userSpaceOnUse"><stop stop-color="#FEE7F5"></stop><stop offset="1" stop-color="#FBB0DD"></stop></linearGradient><linearGradient id="nc-ui-5-1_linear_207_115" x1="2" y1="29" x2="45.5" y2="29" gradientUnits="userSpaceOnUse"><stop stop-color="#FEE7F5"></stop><stop offset="1" stop-color="#FBB0DD"></stop></linearGradient><linearGradient id="nc-ui-5-2_linear_207_115" x1="2.5" y1="29" x2="46" y2="29" gradientUnits="userSpaceOnUse"><stop offset="0.181159" stop-color="#FEE7F5"></stop><stop offset="1" stop-color="#FBB0DD"></stop></linearGradient><linearGradient id="nc-ui-5-3_linear_207_115" x1="24.0001" y1="3.02124" x2="24.0001" y2="39.0001" gradientUnits="userSpaceOnUse"><stop stop-color="#F77CC6"></stop><stop offset="1" stop-color="#E642A3"></stop></linearGradient></defs></g></svg>