<svg xmlns="http://www.w3.org/2000/svg" height="48" width="48" viewBox="0 0 48 48"><title>height 2</title><g class="nc-icon-wrapper"><path d="M3.293,46.121l-1.414-1.414c-.391-.391-.391-1.024,0-1.414l15.707-15.707c.375-.375,.884-.586,1.415-.586h25.999c.552,0,1,.448,1,1v2c0,.552-.448,1-1,1H19.828l-15.121,15.121c-.391,.391-1.024,.391-1.414,0Z" fill="#ada8fa"></path><path d="M25.8,9.4L19.8,1.4c-.4-.533-1.2-.533-1.6,0l-6,8c-.228,.303-.264,.708-.095,1.047,.17,.339,.516,.553,.895,.553h4V29c0,1.105,.895,2,2,2h0c1.105,0,2-.895,2-2V11h4c.379,0,.725-.214,.895-.553,.169-.339,.133-.744-.095-1.047Z" fill="#645aed"></path></g></svg>