<svg xmlns="http://www.w3.org/2000/svg" height="48" width="48" viewBox="0 0 48 48"><title>img rotate right</title><g class="nc-icon-wrapper"><rect x="13" y="20" width="33" height="26" fill="#fff"></rect><path d="M46,19H13a1,1,0,0,0-1,1V46a1,1,0,0,0,1,1H46a1,1,0,0,0,1-1V20A1,1,0,0,0,46,19ZM45,45H14V21H45Z" fill="#c8c8c8"></path><circle cx="21" cy="28" r="3" fill="#f7bf26"></circle><path d="M15,9v5a1,1,0,0,0,1.6.8l8-6a1,1,0,0,0,0-1.6l-8-6A1,1,0,0,0,15,2V7H12A11.013,11.013,0,0,0,1,18v6a1,1,0,0,0,2,0V18a9.011,9.011,0,0,1,9-9Z" fill="#f888c0"></path><path d="M17,43H42a1,1,0,0,0,.9-1.447l-6-12a1,1,0,0,0-1.429-.4l-19,12A1,1,0,0,0,17,43Z" fill="#78d478"></path></g></svg>