<svg xmlns="http://www.w3.org/2000/svg" height="48" width="48" viewBox="0 0 48 48"><title>img rotate left</title><g class="nc-icon-wrapper"><rect x="2" y="20" width="33" height="26" fill="#fff"></rect><path d="M35,19H2a1,1,0,0,0-1,1V46a1,1,0,0,0,1,1H35a1,1,0,0,0,1-1V20A1,1,0,0,0,35,19ZM34,45H3V21H34Z" fill="#c8c8c8"></path><circle cx="10" cy="28" r="3" fill="#f7bf26"></circle><path d="M6,43H31a1,1,0,0,0,.895-1.447l-6-12a1,1,0,0,0-1.429-.4l-19,12A1,1,0,0,0,6,43Z" fill="#78d478"></path><path d="M36,7H33V2a1,1,0,0,0-1.6-.8l-8,6a1,1,0,0,0,0,1.6l8,6A1,1,0,0,0,33,14V9h3a9.01,9.01,0,0,1,9,9v6a1,1,0,0,0,2,0V18A11.013,11.013,0,0,0,36,7Z" fill="#f888c0"></path></g></svg>