<svg xmlns="http://www.w3.org/2000/svg" height="48" width="48" style="" viewBox="0 0 48 48"><title>increase</title><g class="nc-icon-wrapper"><path d="M24.769 3.36004C24.386 2.93504 23.73 2.90204 23.306 3.28504C23.28 3.30904 23.255 3.33404 23.231 3.36004L13.231 15.36C12.878 15.784 12.935 16.415 13.359 16.768C13.539 16.918 13.766 17 14 17H34C34.552 17 35 16.553 35.001 16.001C35.001 15.767 34.919 15.54 34.769 15.36L24.769 3.36004Z" fill="url(#nc-ui-3-0_linear_119_112)"></path> <path d="M34 31H14C13.448 31 13 31.447 12.999 31.999C12.999 32.233 13.081 32.46 13.231 32.64L23.231 44.64C23.584 45.065 24.215 45.123 24.639 44.77C24.686 44.731 24.73 44.687 24.769 44.64L34.769 32.64C35.122 32.216 35.065 31.585 34.641 31.232C34.461 31.082 34.234 31 34 31Z" fill="url(#nc-ui-3-1_linear_119_112)"></path> <defs> <linearGradient id="nc-ui-3-0_linear_119_112" x1="24.0003" y1="3.01819" x2="24.0003" y2="17" gradientUnits="userSpaceOnUse"> <stop stop-color="#D0D8FB"></stop> <stop offset="1" stop-color="#8192F3"></stop> </linearGradient> <linearGradient id="nc-ui-3-1_linear_119_112" x1="23.9998" y1="31" x2="23.9998" y2="45.001" gradientUnits="userSpaceOnUse"> <stop stop-color="#344EEA"></stop> <stop offset="1" stop-color="#2138BB"></stop> </linearGradient> </defs></g></svg>