<svg xmlns="http://www.w3.org/2000/svg" height="48" width="48" viewBox="0 0 48 48"><title>launch app</title><g class="nc-icon-wrapper"><path d="M24,26a1.989,1.989,0,0,0,1.414-.586L36.207,14.621l5.086,5.086a1,1,0,0,0,1.7-.575l2-15A1,1,0,0,0,44.13,3.01a.958.958,0,0,0-.262,0l-15,2a1,1,0,0,0-.575,1.7L33.379,11.8,22.586,22.586A2,2,0,0,0,24,26Z" fill="#645aed"></path><path d="M44,27a1,1,0,0,0-1,1V40a3,3,0,0,1-3,3H8a3,3,0,0,1-3-3V8A3,3,0,0,1,8,5H20a1,1,0,0,0,0-2H8A5.006,5.006,0,0,0,3,8V40a5.006,5.006,0,0,0,5,5H40a5.006,5.006,0,0,0,5-5V28A1,1,0,0,0,44,27Z" fill="#cdcafc"></path></g></svg>