<svg xmlns="http://www.w3.org/2000/svg" height="48" width="48" viewBox="0 0 48 48"><title>launch</title><g class="nc-icon-wrapper"><path d="M44.868,2.009l-15,2a1,1,0,0,0-.575,1.7L34.379,10.8,21.586,23.586a2,2,0,1,0,2.779,2.877c.017-.016.033-.032.049-.049L37.207,13.621l5.086,5.086a1,1,0,0,0,1.7-.575l2-15a1,1,0,0,0-.86-1.123A.965.965,0,0,0,44.868,2.009Z" fill="#645aed"></path><path d="M39,28a1,1,0,0,0-1,1V41a3,3,0,0,1-3,3H7a3,3,0,0,1-3-3V13a3,3,0,0,1,3-3H19a1,1,0,0,0,0-2H7a5.006,5.006,0,0,0-5,5V41a5.006,5.006,0,0,0,5,5H35a5.006,5.006,0,0,0,5-5V29A1,1,0,0,0,39,28Z" fill="#cdcafc"></path></g></svg>