<svg xmlns="http://www.w3.org/2000/svg" height="48" width="48" style="" viewBox="0 0 48 48"><title>leave</title><g class="nc-icon-wrapper"><path d="M27 38H2C1.447 38 1 37.552 1 37V3C1 2.448 1.447 2 2 2H27C27.553 2 28 2.448 28 3V37C28 37.552 27.553 38 27 38Z" fill="url(#nc-ui-4-0_linear_143_61)"></path> <path d="M16 47C15.812 47 15.623 46.947 15.459 46.841L1.459 37.841C1.173 37.657 1 37.34 1 37V3.00004C1 2.63404 1.2 2.29704 1.521 2.12204C1.842 1.94604 2.234 1.96004 2.542 2.15904L16.542 11.159C16.828 11.343 17.001 11.66 17.001 12V46C17.001 46.366 16.801 46.703 16.48 46.878C16.33 46.96 16.165 47 16 47Z" fill="url(#nc-ui-4-1_linear_143_61)"></path> <path d="M46.614 20.2111L37.614 13.2111C37.178 12.8721 36.55 12.9501 36.211 13.3861C36.075 13.5611 36 13.7771 36 14.0001V19.0001H23C21.895 19.0001 21 19.8951 21 21.0001C21 22.1051 21.895 23.0001 23 23.0001H36V28.0001C36 28.3831 36.217 28.7321 36.561 28.9001C36.904 29.0681 37.313 29.0251 37.614 28.7911L46.614 21.7911C47.05 21.4521 47.128 20.8231 46.789 20.3881C46.738 20.3231 46.68 20.2641 46.614 20.2131V20.2111Z" fill="url(#nc-ui-4-2_linear_143_61)"></path> <defs> <linearGradient id="nc-ui-4-0_linear_143_61" x1="14.5" y1="2" x2="14.5" y2="38" gradientUnits="userSpaceOnUse"> <stop stop-color="#976545"></stop> <stop offset="1" stop-color="#674832"></stop> </linearGradient> <linearGradient id="nc-ui-4-1_linear_143_61" x1="9.0005" y1="1.99927" x2="9.0005" y2="47" gradientUnits="userSpaceOnUse"> <stop stop-color="#B88163"></stop> <stop offset="1" stop-color="#976545"></stop> </linearGradient> <linearGradient id="nc-ui-4-2_linear_143_61" x1="33.9999" y1="13.0002" x2="33.9999" y2="29.0017" gradientUnits="userSpaceOnUse"> <stop stop-color="#B88163"></stop> <stop offset="1" stop-color="#976545"></stop> </linearGradient> </defs></g></svg>