<svg xmlns="http://www.w3.org/2000/svg" height="48" width="48" style="" viewBox="0 0 48 48"><title>log out</title><g class="nc-icon-wrapper"><path d="M38 1H18C17.448 1 17 1.448 17 2C17 2.552 17.448 3 18 3H38C39.657 3 41 4.343 41 6V42C41 43.657 39.657 45 38 45H18C17.448 45 17 45.448 17 46C17 46.552 17.448 47 18 47H38C40.76 46.997 42.997 44.76 43 42V6C42.997 3.24 40.76 1.003 38 1Z" fill="url(#nc-ui-4-0_linear_143_245)"></path> <path d="M17.454 32.891C17.789 32.72 18 32.376 18 32V26H35C36.105 26 37 25.105 37 24C37 22.895 36.105 22 35 22H18V16C18 15.448 17.552 15 17 15C16.789 15 16.583 15.067 16.412 15.191L5.41199 23.191C4.96499 23.516 4.86599 24.141 5.19099 24.588C5.25299 24.673 5.32699 24.748 5.41199 24.809L16.412 32.809C16.716 33.03 17.119 33.062 17.454 32.891Z" fill="url(#nc-ui-4-1_linear_143_245)"></path> <defs> <linearGradient id="nc-ui-4-0_linear_143_245" x1="30" y1="1" x2="30" y2="47" gradientUnits="userSpaceOnUse"> <stop stop-color="#DEF2FD"></stop> <stop offset="1" stop-color="#9ED9FA"></stop> </linearGradient> <linearGradient id="nc-ui-4-1_linear_143_245" x1="20.9998" y1="15" x2="20.9998" y2="33.0001" gradientUnits="userSpaceOnUse"> <stop stop-color="#60BEF6"></stop> <stop offset="1" stop-color="#29A0EA"></stop> </linearGradient> </defs></g></svg>