<svg xmlns="http://www.w3.org/2000/svg" height="48" width="48" viewBox="0 0 48 48"><title>logout</title><g class="nc-icon-wrapper"><path d="M36,38a1,1,0,0,0-1,1v3a3,3,0,0,1-3,3H12a3,3,0,0,1-3-3V6a3,3,0,0,1,3-3H32a3,3,0,0,1,3,3V9a1,1,0,0,0,2,0V6a5.006,5.006,0,0,0-5-5H12A5.006,5.006,0,0,0,7,6V42a5.006,5.006,0,0,0,5,5H32a5.006,5.006,0,0,0,5-5V39A1,1,0,0,0,36,38Z" fill="#a0d9f8"></path><path d="M40.588,23.191l-11-8A1,1,0,0,0,28,16v6H18a2,2,0,0,0,0,4H28v6a1,1,0,0,0,1.588.809l11-8a1,1,0,0,0,.221-1.4A.986.986,0,0,0,40.588,23.191Z" fill="#2842c3"></path></g></svg>