<svg xmlns="http://www.w3.org/2000/svg" height="48" width="48" viewBox="0 0 48 48"><title>maximize area</title><g class="nc-icon-wrapper"><circle cx="24" cy="24" r="9" fill="#ff7163"></circle><path d="M4,17a1,1,0,0,0,1-1V8A3,3,0,0,1,8,5h8a1,1,0,0,0,0-2H8A5.006,5.006,0,0,0,3,8v8A1,1,0,0,0,4,17Z" fill="#6ca5b7"></path><path d="M40,3H32a1,1,0,0,0,0,2h8a3,3,0,0,1,3,3v8a1,1,0,0,0,2,0V8A5.006,5.006,0,0,0,40,3Z" fill="#6ca5b7"></path><path d="M44,31a1,1,0,0,0-1,1v8a3,3,0,0,1-3,3H32a1,1,0,0,0,0,2h8a5.006,5.006,0,0,0,5-5V32A1,1,0,0,0,44,31Z" fill="#6ca5b7"></path><path d="M16,43H8a3,3,0,0,1-3-3V32a1,1,0,0,0-2,0v8a5.006,5.006,0,0,0,5,5h8a1,1,0,0,0,0-2Z" fill="#6ca5b7"></path></g></svg>