<svg xmlns="http://www.w3.org/2000/svg" height="48" width="48" viewBox="0 0 48 48"><title>money transfer</title><g class="nc-icon-wrapper"><path d="M47,34H7V31a1,1,0,0,0-1.625-.781l-5,4a1.006,1.006,0,0,0-.375.8H0a1,1,0,0,0,.167.533.856.856,0,0,0,.1.125,1,1,0,0,0,.127.116L5.376,39.78A1,1,0,0,0,7,39V36H47a1,1,0,0,0,0-2Z" fill="#363636"></path><path d="M47.977,12.788a1.006,1.006,0,0,0-.352-.569l-5-4A1,1,0,0,0,41,9v3H1a1,1,0,0,0,0,2H41v3a1,1,0,0,0,1.625.782L47.607,13.8A1,1,0,0,0,48,13.021h0A1.012,1.012,0,0,0,47.977,12.788Z" fill="#363636"></path><circle cx="24" cy="24" r="15" fill="#eba40a"></circle><circle cx="24" cy="24" r="13" fill="#ffd764"></circle><path d="M24,31a1,1,0,0,1-.707-.293l-6-6a1,1,0,0,1,0-1.414l6-6a1,1,0,0,1,1.414,0l6,6a1,1,0,0,1,0,1.414l-6,6A1,1,0,0,1,24,31Z" fill="#eba40a"></path></g></svg>