<svg xmlns="http://www.w3.org/2000/svg" height="48" width="48" viewBox="0 0 48 48"><title>move</title><g class="nc-icon-wrapper"><path d="M37.614,16.21A1,1,0,0,0,36,17v5H26V12h5a1,1,0,0,0,.789-1.614l-7-9a1.035,1.035,0,0,0-1.459-.119.956.956,0,0,0-.119.119l-7,9A1,1,0,0,0,17,12h5V22H12V17a1,1,0,0,0-1.614-.79l-9,7a1,1,0,0,0-.177,1.4.989.989,0,0,0,.177.177l9,7A1,1,0,0,0,12,31V26H22V36H17a1,1,0,0,0-.789,1.614l7,9a1,1,0,0,0,1.578,0l7-9A1,1,0,0,0,31,36H26V26H36v5a1,1,0,0,0,1.614.79l9-7a1,1,0,0,0,.177-1.4.989.989,0,0,0-.177-.177Z" fill="#4d8b9d"></path></g></svg>