<svg xmlns="http://www.w3.org/2000/svg" height="48" width="48" viewBox="0 0 48 48"><title>move down 2</title><g class="nc-icon-wrapper"><rect x="3" y="28" width="18" height="18" rx="1" fill="#6ca5b7"></rect><path d="M4,9A1,1,0,0,0,5,8V4H9A1,1,0,0,0,9,2H4A1,1,0,0,0,3,3V8A1,1,0,0,0,4,9Z" fill="#aeaeae"></path><path d="M20,13a1,1,0,0,0-1,1v4H15a1,1,0,0,0,0,2h5a1,1,0,0,0,1-1V14A1,1,0,0,0,20,13Z" fill="#aeaeae"></path><path d="M20,2H15a1,1,0,0,0,0,2h4V8a1,1,0,0,0,2,0V3A1,1,0,0,0,20,2Z" fill="#aeaeae"></path><path d="M4,20H9a1,1,0,0,0,0-2H5V14a1,1,0,0,0-2,0v5A1,1,0,0,0,4,20Z" fill="#aeaeae"></path><path d="M44,33H38V4a2,2,0,0,0-4,0V33H28a1,1,0,0,0-.809,1.588l8,11a1,1,0,0,0,1.4.221.986.986,0,0,0,.221-.221l8-11A1,1,0,0,0,44,33Z" fill="#2a4b55"></path></g></svg>