<svg xmlns="http://www.w3.org/2000/svg" height="48" width="48" viewBox="0 0 48 48"><title>move 2</title><g class="nc-icon-wrapper"><path d="M17,12h5v6a2,2,0,0,0,4,0V12h5a1,1,0,0,0,.79-1.614l-7-9a1.037,1.037,0,0,0-1.462-.118,1.012,1.012,0,0,0-.118.118l-7,9A1,1,0,0,0,17,12Z" fill="#4d8b9d"></path><path d="M37.614,16.21A1,1,0,0,0,36,17v5H30a2,2,0,0,0,0,4h6v5a1,1,0,0,0,1.614.79l9-7a1,1,0,0,0,.177-1.4.989.989,0,0,0-.177-.177Z" fill="#4d8b9d"></path><path d="M31,36H26V30a2,2,0,0,0-4,0v6H17a1,1,0,0,0-.79,1.614l7,9a1,1,0,0,0,1.4.177.989.989,0,0,0,.177-.177l7-9A1,1,0,0,0,31,36Z" fill="#4d8b9d"></path><path d="M18,26a2,2,0,0,0,0-4H12V17a1,1,0,0,0-1.614-.79l-9,7a1,1,0,0,0-.177,1.4.989.989,0,0,0,.177.177l9,7A1,1,0,0,0,12,31V26Z" fill="#4d8b9d"></path></g></svg>