<svg xmlns="http://www.w3.org/2000/svg" height="48" width="48" viewBox="0 0 48 48"><title>move down right</title><g class="nc-icon-wrapper"><path d="M8,45H40a5.006,5.006,0,0,0,5-5V8a5.006,5.006,0,0,0-5-5H8A5.006,5.006,0,0,0,3,8V40A5.006,5.006,0,0,0,8,45Z" fill="#ee7c2f"></path><path d="M25.293,25.293a1,1,0,0,1,1.414,0L37,35.586V27a1,1,0,0,1,2,0V38a1,1,0,0,1-1,1H27a1,1,0,0,1,0-2h8.586L25.293,26.707A1,1,0,0,1,25.293,25.293Z" fill="#fcc8a6"></path><rect x="9" y="9" width="13" height="13" rx="1" fill="#fff"></rect></g></svg>