<svg xmlns="http://www.w3.org/2000/svg" height="48" width="48" viewBox="0 0 48 48"><title>move up left</title><g class="nc-icon-wrapper"><path d="M40,3H8A5.006,5.006,0,0,0,3,8V40a5.006,5.006,0,0,0,5,5H40a5.006,5.006,0,0,0,5-5V8A5.006,5.006,0,0,0,40,3Z" fill="#ee7c2f"></path><path d="M22.707,22.707a1,1,0,0,1-1.414,0L11,12.414V21a1,1,0,0,1-2,0V10a1,1,0,0,1,1-1H21a1,1,0,0,1,0,2H12.414L22.707,21.293A1,1,0,0,1,22.707,22.707Z" fill="#fcc8a6"></path><rect x="26" y="26" width="13" height="13" rx="1" fill="#fff"></rect></g></svg>