<svg xmlns="http://www.w3.org/2000/svg" height="48" width="48" viewBox="0 0 48 48"><title>orientation</title><g class="nc-icon-wrapper"><path d="M16.293,12.121a1,1,0,0,0,1.414,0L22,7.828V18a1,1,0,0,0,1,1h2a1,1,0,0,0,1-1V7.828l4.293,4.293a1,1,0,0,0,1.414,0l1.414-1.414a1,1,0,0,0,0-1.414L24.707.879a1,1,0,0,0-1.414,0L14.879,9.293a1,1,0,0,0,0,1.414Z" fill="#9d9b66"></path><path d="M38.707,14.879a1,1,0,0,0-1.414,0l-1.414,1.414a1,1,0,0,0,0,1.414L40.172,22H30a1,1,0,0,0-1,1v2a1,1,0,0,0,1,1H40.172l-4.293,4.293a1,1,0,0,0,0,1.414l1.414,1.414a1,1,0,0,0,1.414,0l8.414-8.414a1,1,0,0,0,0-1.414Z" fill="#5d5c3c"></path><path d="M31.707,35.879a1,1,0,0,0-1.414,0L26,40.172V30a1,1,0,0,0-1-1H23a1,1,0,0,0-1,1V40.172l-4.293-4.293a1,1,0,0,0-1.414,0l-1.414,1.414a1,1,0,0,0,0,1.414l8.414,8.414a1,1,0,0,0,1.414,0l8.414-8.414a1,1,0,0,0,0-1.414Z" fill="#9d9b66"></path><path d="M7.828,26H18a1,1,0,0,0,1-1V23a1,1,0,0,0-1-1H7.828l4.293-4.293a1,1,0,0,0,0-1.414l-1.414-1.414a1,1,0,0,0-1.414,0L.879,23.293a1,1,0,0,0,0,1.414l8.414,8.414a1,1,0,0,0,1.414,0l1.414-1.414a1,1,0,0,0,0-1.414Z" fill="#5d5c3c"></path></g></svg>