<svg xmlns="http://www.w3.org/2000/svg" height="48" width="48" viewBox="0 0 48 48"><title>random</title><g class="nc-icon-wrapper"><path d="M47.658,33.247l-8-7A1,1,0,0,0,38,27v5c-7.171,0-11.745-4.573-16.586-9.414C16.21,17.382,10.829,12,2,12H1a1,1,0,0,0-1,1v2a1,1,0,0,0,1,1H2c7.171,0,11.745,4.573,16.586,9.414C23.79,30.618,29.171,36,38,36v5a1,1,0,0,0,.587.91A.983.983,0,0,0,39,42a1,1,0,0,0,.658-.247l8-7a1,1,0,0,0,0-1.506Z" fill="#aeaeae"></path><path d="M47.658,13.247l-8-7A1,1,0,0,0,38,7v5c-8.829,0-14.21,5.382-19.414,10.586C13.745,27.427,9.171,32,2,32H1a1,1,0,0,0-1,1v2a1,1,0,0,0,1,1H2c8.829,0,14.21-5.382,19.414-10.586C26.255,20.573,30.829,16,38,16v5a1,1,0,0,0,.587.91A.983.983,0,0,0,39,22a1,1,0,0,0,.658-.247l8-7a1,1,0,0,0,0-1.506Z" fill="#363636"></path></g></svg>