<svg xmlns="http://www.w3.org/2000/svg" height="48" width="48" viewBox="0 0 48 48"><title>reply all</title><g class="nc-icon-wrapper"><path d="M20.011,7a1,1,0,0,0-1.687-.727l-18,17a1,1,0,0,0-.04,1.414l.04.04,18,17A1,1,0,0,0,20.011,41Z" fill="#4a40ce"></path><path d="M41.053,22.068a17.417,17.417,0,0,0-12.042-5.047V7a1,1,0,0,0-1.687-.727l-18,17a1,1,0,0,0-.04,1.414l.04.04,18,17A1,1,0,0,0,29.011,41V31.035c9.51.657,17.117,10.431,17.2,10.533a1,1,0,0,0,1.793-.6C48,40.479,47.967,29.009,41.053,22.068Z" fill="#857cf8"></path></g></svg>