<svg xmlns="http://www.w3.org/2000/svg" height="48" width="48" style="" viewBox="0 0 48 48"><title>screen sharing off 2</title><g class="nc-icon-wrapper"><path d="M46 5H2V33H46V5Z" fill="url(#nc-ui-1-0_linear_43_111)"></path> <path d="M30 37H18V42H30V37Z" fill="#17181C"></path> <path d="M36 41H12C11.4477 41 11 41.4477 11 42V43C11 43.5523 11.4477 44 12 44H36C36.5523 44 37 43.5523 37 43V42C37 41.4477 36.5523 41 36 41Z" fill="url(#nc-ui-1-1_linear_43_111)"></path> <path d="M45 38H3C1.895 38 1 37.105 1 36V6C1 4.895 1.895 4 3 4H45C46.105 4 47 4.895 47 6V36C47 37.105 46.105 38 45 38ZM3 7V31C3 31.552 3.448 32 4 32H44C44.552 32 45 31.552 45 31V7C45 6.448 44.552 6 44 6H4C3.448 6 3 6.448 3 7Z" fill="url(#nc-ui-1-2_linear_43_111)"></path> <path d="M20.414 20.586L15.621 15.793L19.707 11.707C20.096 11.315 20.093 10.681 19.7 10.293C19.534 10.129 19.316 10.027 19.083 10.007L7.083 9.00701C6.533 8.95901 6.048 9.36701 6.001 9.91701C5.996 9.97201 5.996 10.028 6.001 10.083L7.001 22.083C7.049 22.633 7.533 23.041 8.084 22.993C8.317 22.973 8.535 22.872 8.701 22.707L12.787 18.621L17.58 23.414C18.375 24.181 19.641 24.159 20.408 23.365C21.157 22.59 21.157 21.361 20.408 20.586H20.415H20.414Z" fill="url(#nc-ui-1-3_linear_43_111)"></path> <path opacity="0.15" d="M14.242 38L46.885 5.357C46.616 4.57 45.878 4 45 4H44L10 38H14.242Z" fill="black"></path> <path d="M4.01201 44.988C4.27701 44.988 4.53201 44.883 4.71901 44.695L46.719 2.69499C47.103 2.29799 47.092 1.66499 46.694 1.28099C46.306 0.906988 45.692 0.906988 45.305 1.28099L3.30501 43.281C2.91501 43.672 2.91501 44.305 3.30501 44.695C3.49201 44.882 3.74701 44.988 4.01201 44.988Z" fill="url(#nc-ui-1-4_linear_43_111)"></path> <defs> <linearGradient id="nc-ui-1-0_linear_43_111" x1="24" y1="5" x2="24" y2="33" gradientUnits="userSpaceOnUse"> <stop stop-color="#A2A3B4"></stop> <stop offset="1" stop-color="#83849B"></stop> </linearGradient> <linearGradient id="nc-ui-1-1_linear_43_111" x1="24" y1="41" x2="24" y2="44" gradientUnits="userSpaceOnUse"> <stop stop-color="#5B5E71"></stop> <stop offset="1" stop-color="#393A46"></stop> </linearGradient> <linearGradient id="nc-ui-1-2_linear_43_111" x1="24" y1="4" x2="24" y2="38" gradientUnits="userSpaceOnUse"> <stop stop-color="#5B5E71"></stop> <stop offset="1" stop-color="#393A46"></stop> </linearGradient> <linearGradient id="nc-ui-1-3_linear_43_111" x1="13.4835" y1="9.00317" x2="13.4835" y2="23.9752" gradientUnits="userSpaceOnUse"> <stop stop-color="#E0E0E6"></stop> <stop offset="1" stop-color="#C2C3CD"></stop> </linearGradient> <linearGradient id="nc-ui-1-4_linear_43_111" x1="25.0062" y1="1.00049" x2="25.0062" y2="44.988" gradientUnits="userSpaceOnUse"> <stop stop-color="#FF666D"></stop> <stop offset="1" stop-color="#E0211F"></stop> </linearGradient> </defs></g></svg>