<svg xmlns="http://www.w3.org/2000/svg" height="48" width="48" viewBox="0 0 48 48"><title>separate directions</title><g class="nc-icon-wrapper"><path d="M37.561,20.9a1,1,0,0,0,1.053-.108l9-7a1,1,0,0,0,.177-1.4.989.989,0,0,0-.177-.177l-9-7A1,1,0,0,0,37,6v5H26A10.011,10.011,0,0,0,16,21v1H2a2,2,0,0,0,0,4H16v1A10.011,10.011,0,0,0,26,37H37v5a1,1,0,0,0,1.614.79l9-7a1,1,0,0,0,.177-1.4.989.989,0,0,0-.177-.177l-9-7A1,1,0,0,0,37,28v5H26a6.006,6.006,0,0,1-6-6V21a6.006,6.006,0,0,1,6-6H37v5A1,1,0,0,0,37.561,20.9Z" fill="#ff7163"></path></g></svg>