<svg xmlns="http://www.w3.org/2000/svg" height="48" width="48" style="" viewBox="0 0 48 48"><title>share</title><g class="nc-icon-wrapper"><path d="M46.588 11.191L35.588 3.19099C35.141 2.86599 34.516 2.96499 34.191 3.41199C34.067 3.58299 34 3.78899 34 3.99999V9.99999H31C23.271 10.008 17.008 16.271 17 24V28C17 29.105 17.895 30 19 30C20.105 30 21 29.105 21 28V24C21.006 18.48 25.48 14.006 31 14H34V20C34 20.552 34.448 21 35 21C35.211 21 35.417 20.933 35.588 20.809L46.588 12.809C47.035 12.484 47.134 11.859 46.809 11.412C46.747 11.327 46.673 11.252 46.588 11.191Z" fill="url(#nc-ui-3-0_linear_119_230)"></path> <path d="M35 27C34.448 27 34 27.448 34 28V40C34 41.657 32.657 43 31 43H7C5.343 43 4 41.657 4 40V16C4 14.343 5.343 13 7 13H16C16.552 13 17 12.552 17 12C17 11.448 16.552 11 16 11H7C4.24 11.003 2.003 13.24 2 16V40C2.003 42.76 4.24 44.997 7 45H31C33.76 44.997 35.997 42.76 36 40V28C36 27.448 35.552 27 35 27Z" fill="url(#nc-ui-3-1_linear_119_230)"></path> <defs> <linearGradient id="nc-ui-3-0_linear_119_230" x1="32.0002" y1="2.99963" x2="32.0002" y2="30" gradientUnits="userSpaceOnUse"> <stop stop-color="#60BEF6"></stop> <stop offset="1" stop-color="#29A0EA"></stop> </linearGradient> <linearGradient id="nc-ui-3-1_linear_119_230" x1="19" y1="11" x2="19" y2="45" gradientUnits="userSpaceOnUse"> <stop stop-color="#DEF2FD"></stop> <stop offset="1" stop-color="#9ED9FA"></stop> </linearGradient> </defs></g></svg>