<svg xmlns="http://www.w3.org/2000/svg" height="48" width="48" style="" viewBox="0 0 48 48"><title>sharing</title><g class="nc-icon-wrapper"><rect x="6" y="12" width="40" height="34" rx="5" fill="url(#nc-ui-3-0_linear_119_32)"></rect> <path d="M19.413 32.911C19.771 32.749 20 32.393 20 32V25C29.647 25.1 32.712 28.1 36.21 32.613C36.399 32.857 36.691 33 37 33C37.11 33 37.22 32.982 37.324 32.946C37.728 32.808 38 32.427 38 32C38 14.084 28.594 11.2 20 11.011V3.99998C20 3.44798 19.551 2.99998 18.999 3.00098C18.757 3.00098 18.524 3.08898 18.342 3.24798L2.34201 17.248C1.92801 17.613 1.88801 18.245 2.25301 18.659C2.28101 18.69 2.31001 18.72 2.34201 18.748L18.342 32.748C18.636 33.008 19.055 33.071 19.413 32.911Z" fill="url(#nc-ui-3-1_linear_119_32)"></path> <defs> <linearGradient id="nc-ui-3-0_linear_119_32" x1="26" y1="12" x2="26" y2="46" gradientUnits="userSpaceOnUse"> <stop stop-color="#E9D9D2"></stop> <stop offset="1" stop-color="#CEA897"></stop> </linearGradient> <linearGradient id="nc-ui-3-1_linear_119_32" x1="20.0017" y1="3.00098" x2="20.0017" y2="33" gradientUnits="userSpaceOnUse"> <stop stop-color="#B88163"></stop> <stop offset="1" stop-color="#976545"></stop> </linearGradient> </defs></g></svg>