<svg xmlns="http://www.w3.org/2000/svg" height="48" width="48" viewBox="0 0 48 48"><title>shuffle</title><g class="nc-icon-wrapper"><path d="M28.147,30.8l-13.2-16.133A9.965,9.965,0,0,0,7.209,11H2a2,2,0,0,0,0,4H7.209a5.981,5.981,0,0,1,4.644,2.2l13.2,16.133A9.965,9.965,0,0,0,32.791,37H37v5a1,1,0,0,0,1.614.79l9-7a.989.989,0,0,0,.177-.177,1,1,0,0,0-.177-1.4l-9-7A1,1,0,0,0,37,28v5H32.791A5.981,5.981,0,0,1,28.147,30.8Z" fill="#aeaeae"></path><path d="M32.791,15H37v5a1,1,0,0,0,1.614.79l9-7a1,1,0,0,0,.177-1.4.989.989,0,0,0-.177-.177l-9-7A1,1,0,0,0,37,6v5H32.791a9.965,9.965,0,0,0-7.739,3.667L11.853,30.8A5.981,5.981,0,0,1,7.209,33H2a2,2,0,0,0,0,4H7.209a9.965,9.965,0,0,0,7.739-3.667L28.147,17.2A5.981,5.981,0,0,1,32.791,15Z" fill="#363636"></path></g></svg>