<svg xmlns="http://www.w3.org/2000/svg" height="48" width="48" viewBox="0 0 48 48"><title>shuffle 2</title><g class="nc-icon-wrapper"><path d="M29.948,33l-17.4-21.267A2,2,0,0,0,11,11H2a2,2,0,0,0,0,4h8.052l17.4,21.267A2,2,0,0,0,29,37h8v5a1,1,0,0,0,1.614.79l9-7a.989.989,0,0,0,.177-.177,1,1,0,0,0-.177-1.4l-9-7A1,1,0,0,0,37,28v5Z" fill="#aeaeae"></path><path d="M37,15v5a1,1,0,0,0,1.614.79l9-7a1,1,0,0,0,.177-1.4.989.989,0,0,0-.177-.177l-9-7A1,1,0,0,0,37,6v5H29a2,2,0,0,0-1.548.733L10.052,33H2a2,2,0,0,0,0,4h9a2,2,0,0,0,1.548-.733L29.948,15Z" fill="#363636"></path></g></svg>