<svg xmlns="http://www.w3.org/2000/svg" height="48" width="48" style="" viewBox="0 0 48 48"><title>slide right</title><g class="nc-icon-wrapper"><path d="M27 39H3C2.448 39 2 39.448 2 40C2 40.552 2.448 41 3 41H27C27.552 41 28 40.552 28 40C28 39.448 27.552 39 27 39Z" fill="url(#nc-ui-3-0_linear_119_85)"></path> <path d="M3 9H27C27.552 9 28 8.552 28 8C28 7.448 27.552 7 27 7H3C2.448 7 2 7.448 2 8C2 8.552 2.448 9 3 9Z" fill="url(#nc-ui-3-1_linear_119_85)"></path> <path d="M33.6 14.2C33.158 13.869 32.531 13.958 32.2 14.4C32.07 14.573 32 14.784 32 15V22H4C2.895 22 2 22.895 2 24C2 25.105 2.895 26 4 26H32V33C32 33.552 32.448 34 33 34C33.216 34 33.427 33.9299 33.6 33.7999L45.6 24.7999C46.042 24.4689 46.131 23.842 45.8 23.4C45.743 23.324 45.676 23.257 45.6 23.2L33.6 14.2Z" fill="url(#nc-ui-3-2_linear_119_85)"></path> <defs> <linearGradient id="nc-ui-3-0_linear_119_85" x1="2" y1="40" x2="28" y2="40" gradientUnits="userSpaceOnUse"> <stop stop-color="#FDDACE"></stop> <stop offset="1" stop-color="#FBAE93"></stop> </linearGradient> <linearGradient id="nc-ui-3-1_linear_119_85" x1="2" y1="8" x2="28" y2="8" gradientUnits="userSpaceOnUse"> <stop stop-color="#FDDACE"></stop> <stop offset="1" stop-color="#FBAE93"></stop> </linearGradient> <linearGradient id="nc-ui-3-2_linear_119_85" x1="24" y1="14" x2="24" y2="34" gradientUnits="userSpaceOnUse"> <stop stop-color="#F98E5E"></stop> <stop offset="1" stop-color="#EA6524"></stop> </linearGradient> </defs></g></svg>