<svg xmlns="http://www.w3.org/2000/svg" height="48" width="48" style="" viewBox="0 0 48 48"><title>slide left</title><g class="nc-icon-wrapper"><path d="M44 22H16V15C16 14.448 15.552 14 15 14C14.784 14 14.573 14.07 14.4 14.2L2.40001 23.2C1.95801 23.531 1.86901 24.158 2.20001 24.6C2.25701 24.676 2.32401 24.743 2.40001 24.8L14.4 33.8C14.842 34.131 15.469 34.042 15.8 33.6C15.93 33.427 16 33.216 16 33V26H44C45.105 26 46 25.105 46 24C46 22.895 45.105 22 44 22Z" fill="url(#nc-ui-3-0_linear_119_89)"></path> <path d="M45 39H21C20.448 39 20 39.448 20 40C20 40.552 20.448 41 21 41H45C45.552 41 46 40.552 46 40C46 39.448 45.552 39 45 39Z" fill="url(#nc-ui-3-1_linear_119_89)"></path> <path d="M45 7H21C20.448 7 20 7.448 20 8C20 8.552 20.448 9 21 9H45C45.552 9 46 8.552 46 8C46 7.448 45.552 7 45 7Z" fill="url(#nc-ui-3-2_linear_119_89)"></path> <defs> <linearGradient id="nc-ui-3-0_linear_119_89" x1="24" y1="14" x2="24" y2="33.9999" gradientUnits="userSpaceOnUse"> <stop stop-color="#F98E5E"></stop> <stop offset="1" stop-color="#EA6524"></stop> </linearGradient> <linearGradient id="nc-ui-3-1_linear_119_89" x1="20" y1="40" x2="46" y2="40" gradientUnits="userSpaceOnUse"> <stop stop-color="#FDDACE"></stop> <stop offset="1" stop-color="#FBAE93"></stop> </linearGradient> <linearGradient id="nc-ui-3-2_linear_119_89" x1="20" y1="8" x2="46" y2="8" gradientUnits="userSpaceOnUse"> <stop stop-color="#FDDACE"></stop> <stop offset="1" stop-color="#FBAE93"></stop> </linearGradient> </defs></g></svg>