<svg xmlns="http://www.w3.org/2000/svg" height="48" width="48" style="" viewBox="0 0 48 48"><title>social sharing</title><g class="nc-icon-wrapper"><rect x="2" y="12" width="40" height="34" rx="5" fill="url(#nc-ui-3-0_linear_119_51)"></rect> <path d="M45.658 17.248L29.658 3.24798C29.242 2.88498 28.61 2.92698 28.247 3.34298C28.088 3.52498 28 3.75798 28 3.99998V11.011C19.406 11.2 10 14.084 10 32C10 32.427 10.272 32.808 10.676 32.946C10.78 32.982 10.89 33 11 33C11.309 33 11.601 32.857 11.79 32.613C15.288 28.1 18.351 25.1 28 25V32C28 32.552 28.449 33 29.001 32.999C29.243 32.999 29.476 32.911 29.658 32.752L45.658 18.752C46.072 18.387 46.112 17.755 45.747 17.341C45.719 17.31 45.69 17.28 45.658 17.252V17.248Z" fill="url(#nc-ui-3-1_linear_119_51)"></path> <defs> <linearGradient id="nc-ui-3-0_linear_119_51" x1="22" y1="12" x2="22" y2="46" gradientUnits="userSpaceOnUse"> <stop stop-color="#E9D9D2"></stop> <stop offset="1" stop-color="#CEA897"></stop> </linearGradient> <linearGradient id="nc-ui-3-1_linear_119_51" x1="27.9983" y1="3.0011" x2="27.9983" y2="33" gradientUnits="userSpaceOnUse"> <stop stop-color="#B88163"></stop> <stop offset="1" stop-color="#976545"></stop> </linearGradient> </defs></g></svg>