<svg xmlns="http://www.w3.org/2000/svg" height="48" width="48" viewBox="0 0 48 48"><title>split branch</title><g class="nc-icon-wrapper"><path d="M13.621,10.793l4.086-4.086a1,1,0,0,0-.555-1.7l-13-2a1,1,0,0,0-1.14.837,1.026,1.026,0,0,0,0,.3l2,13a1,1,0,0,0,1.7.56l4.086-4.086L22,24.828V44a2,2,0,0,0,4,0V24a2,2,0,0,0-.586-1.414Z" fill="#3d6c7b"></path><path d="M43.848,3.012l-13,2a1,1,0,0,0-.555,1.7L34.379,10.8l-6.793,6.793a2,2,0,1,0,2.779,2.877l.049-.049,6.793-6.793,4.086,4.086a1,1,0,0,0,1.7-.562l2-13a1,1,0,0,0-.837-1.14,1.026,1.026,0,0,0-.3,0Z" fill="#6cc4f5"></path></g></svg>