<svg xmlns="http://www.w3.org/2000/svg" height="48" width="48" viewBox="0 0 48 48"><title>three way direction</title><g class="nc-icon-wrapper"><path d="M37.614,20.21A1,1,0,0,0,36,21v5a13.955,13.955,0,0,0-10,4.221V13h6a1,1,0,0,0,.781-1.625l-8-10a1.037,1.037,0,0,0-1.462-.1,1.049,1.049,0,0,0-.1.1l-8,10A1,1,0,0,0,16,13h6V30.22A13.95,13.95,0,0,0,12,26V21a1,1,0,0,0-1.614-.79l-9,7a1,1,0,0,0-.177,1.4.989.989,0,0,0,.177.177l9,7A1,1,0,0,0,12,35V30a10.012,10.012,0,0,1,10,9.992V45a2,2,0,0,0,4,0V40A10.011,10.011,0,0,1,36,30v5a1,1,0,0,0,1.614.79l9-7a1,1,0,0,0,.177-1.4.989.989,0,0,0-.177-.177Z" fill="#857cf8"></path></g></svg>