<svg xmlns="http://www.w3.org/2000/svg" height="48" width="48" viewBox="0 0 48 48"><title>traffic</title><g class="nc-icon-wrapper"><circle cx="24" cy="24" r="23" fill="#cbeafb"></circle><path d="M14,3.283V27H10a1,1,0,0,0-.759,1.651l6,7a1,1,0,0,0,1.518,0l6-7A1,1,0,0,0,22,27H18V1.8A22.814,22.814,0,0,0,14,3.283Z" fill="#2a4b55"></path><path d="M32.759,12.349a1.033,1.033,0,0,0-1.518,0l-6,7A1,1,0,0,0,26,21h4V46.2a22.814,22.814,0,0,0,4-1.487V21h4a1,1,0,0,0,.759-1.651Z" fill="#2a4b55"></path></g></svg>