<svg xmlns="http://www.w3.org/2000/svg" height="48" width="48" viewBox="0 0 48 48"><title>transaction</title><g class="nc-icon-wrapper"><circle cx="24" cy="24" r="13" fill="#eba40a"></circle><path d="M16,4H9V1A1,1,0,0,0,7.35.241l-7,6a1,1,0,0,0,0,1.518l7,6A1,1,0,0,0,9,13V10h7a1,1,0,0,0,1-1V5A1,1,0,0,0,16,4Z" fill="#3b57e8"></path><path d="M47.65,40.241l-7-6A1,1,0,0,0,39,35v3H32a1,1,0,0,0-1,1v4a1,1,0,0,0,1,1h7v3a1,1,0,0,0,1.65.759l7-6a1,1,0,0,0,0-1.518Z" fill="#3b57e8"></path><circle cx="24" cy="24" r="10" fill="#f7bf26"></circle></g></svg>