<svg xmlns="http://www.w3.org/2000/svg" height="48" width="48" style="" viewBox="0 0 48 48"><title>upload</title><g class="nc-icon-wrapper"><rect x="5" y="19" width="38" height="27" rx="5" fill="url(#nc-ui-3-0_linear_119_54)"></rect> <path d="M15 15H22V31C22 32.105 22.895 33 24 33C25.105 33 26 32.105 26 31V15H33C33.552 15 34 14.552 34 14C34 13.769 33.92 13.546 33.774 13.367L24.774 2.367C24.395 1.94 23.74 1.901 23.313 2.28C23.282 2.307 23.253 2.336 23.226 2.367L14.226 13.367C13.876 13.795 13.94 14.425 14.367 14.774C14.546 14.92 14.769 15 15 15Z" fill="url(#nc-ui-3-1_linear_119_54)"></path> <defs> <linearGradient id="nc-ui-3-0_linear_119_54" x1="24" y1="19" x2="24" y2="46" gradientUnits="userSpaceOnUse"> <stop stop-color="#E0E0E6"></stop> <stop offset="1" stop-color="#C2C3CD"></stop> </linearGradient> <linearGradient id="nc-ui-3-1_linear_119_54" x1="24" y1="2.01941" x2="24" y2="33" gradientUnits="userSpaceOnUse"> <stop stop-color="#5B5E71"></stop> <stop offset="1" stop-color="#393A46"></stop> </linearGradient> </defs></g></svg>