<svg xmlns="http://www.w3.org/2000/svg" height="48" width="48" viewBox="0 0 48 48"><title>vertical divider</title><g class="nc-icon-wrapper"><path d="M17,11h5v7a2,2,0,0,0,4,0V11h5a1,1,0,0,0,.753-1.658l-7-8a1.03,1.03,0,0,0-1.456-.05l-.05.05-7,8A1,1,0,0,0,17,11Z" fill="#3d6c7b"></path><path d="M31,37H26V30a2,2,0,0,0-4,0v7H17a1,1,0,0,0-.753,1.658l7,8a1,1,0,0,0,1.411.095.947.947,0,0,0,.095-.095l7-8A1,1,0,0,0,31,37Z" fill="#3d6c7b"></path><path d="M46,23H2a1,1,0,0,0,0,2H46a1,1,0,0,0,0-2Z" fill="#ff7163"></path></g></svg>