<svg xmlns="http://www.w3.org/2000/svg" height="48" width="48" viewBox="0 0 48 48"><title>window minimize</title><g class="nc-icon-wrapper"><path d="M42,3H6A5.006,5.006,0,0,0,1,8V40a5.006,5.006,0,0,0,5,5H42a5.006,5.006,0,0,0,5-5V8A5.006,5.006,0,0,0,42,3Z" fill="#e3e3e3"></path><path d="M47,13V8a5.006,5.006,0,0,0-5-5H6A5.006,5.006,0,0,0,1,8v5Z" fill="#3b57e8"></path><path d="M8,39a.9.9,0,0,0,.164-.014l12-2a1,1,0,0,0,.543-1.693l-3.586-3.586,7.293-7.293a2,2,0,0,0-2.828-2.828l-7.293,7.293-3.586-3.586a1,1,0,0,0-1.693.542l-2,12a1,1,0,0,0,.821,1.151A1.021,1.021,0,0,0,8,39Z" fill="#363636"></path><path d="M11,9H6A1,1,0,0,1,6,7h5a1,1,0,0,1,0,2Z" fill="#8d9ef2"></path></g></svg>