<svg xmlns="http://www.w3.org/2000/svg" height="64" width="64" viewBox="0 0 64 64"><title>bamboo 2</title><g fill="#61616b" class="nc-icon-wrapper"><path d="M4,31A14,14,0,0,0,4,3,1,1,0,0,0,3,4.076,14.119,14.119,0,0,0,15.917,17,14.119,14.119,0,0,0,3,29.924,1,1,0,0,0,4,31Z" fill="#61616b" data-color="color-2"></path><path d="M60,61a14,14,0,0,1,0-28,1,1,0,0,1,1,1.076A14.119,14.119,0,0,1,48.083,47,14.119,14.119,0,0,1,61,59.924,1,1,0,0,1,60,61Z" fill="#61616b" data-color="color-2"></path><path d="M19.669,45.21c-.026.262-.025.527-.039.79h9.74c-.014-.264-.013-.529-.039-.791L29,41.9V37.1l.331-3.31c.026-.262.025-.527.039-.79H19.63c.014.264.013.529.039.791L20,37.1v4.8Z" fill="#61616b"></path><path d="M29.331,18.79c.026-.262.025-.527.039-.79H19.63c.014.264.013.529.039.791L20,22.1v4.8l-.331,3.31c-.026.262-.025.527-.039.79h9.74c-.014-.264-.013-.529-.039-.791L29,26.9V22.1Z" fill="#61616b"></path><path d="M29,56.938V52.1l.331-3.31c.026-.262.025-.527.039-.79H19.63c.014.264.013.529.039.791L20,52.1v4.838l-.492,3.938A1,1,0,0,0,20.5,62h8a1,1,0,0,0,.992-1.124Z" fill="#61616b"></path><path d="M29,7.062V11.9l.331,3.31c.026.262.025.527.039.79H19.63c.014-.264.013-.529.039-.791L20,11.9V7.062l-.492-3.938A1,1,0,0,1,20.5,2h8a1,1,0,0,1,.992,1.124Z" fill="#61616b"></path><path d="M34.669,45.21c-.026.262-.025.527-.039.79h9.74c-.014-.264-.013-.529-.039-.791L44,41.9V37.1l.331-3.31c.026-.262.025-.527.039-.79H34.63c.014.264.013.529.039.791L35,37.1v4.8Z" fill="#61616b"></path><path d="M44.331,18.79c.026-.262.025-.527.039-.79H34.63c.014.264.013.529.039.791L35,22.1v4.8l-.331,3.31c-.026.262-.025.527-.039.79h9.74c-.014-.264-.013-.529-.039-.791L44,26.9V22.1Z" fill="#61616b"></path><path d="M44,56.938V52.1l.331-3.31c.026-.262.025-.527.039-.79H34.63c.014.264.013.529.039.791L35,52.1v4.838l-.492,3.938A1,1,0,0,0,35.5,62h8a1,1,0,0,0,.992-1.124Z" fill="#61616b"></path><path d="M44,7.062V11.9l.331,3.31c.026.262.025.527.039.79H34.63c.014-.264.013-.529.039-.791L35,11.9V7.062l-.492-3.938A1,1,0,0,1,35.5,2h8a1,1,0,0,1,.992,1.124Z" fill="#61616b"></path><path d="M47,18a1,1,0,0,1-1-1A14.015,14.015,0,0,1,60,3a1,1,0,0,1,1,1A14.015,14.015,0,0,1,47,18Z" fill="#61616b" data-color="color-2"></path></g></svg>