<svg xmlns="http://www.w3.org/2000/svg" height="32" width="32" viewBox="0 0 32 32"><title>bamboo 4</title><g fill="#61616b" class="nc-icon-wrapper"><polygon points="19 22 19 16 19 10 13 10 13 16 13 22 19 22" fill="#61616b"></polygon><path d="M19,8V1a1,1,0,0,0-1-1H14a1,1,0,0,0-1,1V8Z" fill="#61616b"></path><path d="M13,24v7a1,1,0,0,0,1,1h4a1,1,0,0,0,1-1V24Z" fill="#61616b"></path><path d="M24.432,9A9.009,9.009,0,0,0,30.5.5.5.5,0,0,0,30,0a9,9,0,0,0,0,18,.5.5,0,0,0,.5-.5A9.009,9.009,0,0,0,24.432,9Z" fill="#61616b" data-color="color-2"></path><path d="M7.568,9A9.009,9.009,0,0,1,1.5.5.5.5,0,0,1,2,0,9,9,0,0,1,2,18a.5.5,0,0,1-.5-.5A9.009,9.009,0,0,1,7.568,9Z" fill="#61616b" data-color="color-2"></path><path d="M30,32a9.01,9.01,0,0,1-9-9,.5.5,0,0,1,.5-.5,9.01,9.01,0,0,1,9,9A.5.5,0,0,1,30,32Z" fill="#61616b" data-color="color-2"></path></g></svg>