<svg xmlns="http://www.w3.org/2000/svg" height="48" width="48" viewBox="0 0 48 48"><title>barbershop 3</title><g fill="#61616b" class="nc-icon-wrapper"><polygon points="29 21.828 29 16.172 19 26.172 19 31.828 29 21.828" fill="#61616b" data-color="color-2"></polygon><path d="M34,36H14a1,1,0,0,0,0,2h.459a9.926,9.926,0,0,0,8.551,6.948c0,.018-.01.034-.01.052v1a1,1,0,0,0,2,0V45c0-.018-.01-.034-.01-.052A9.926,9.926,0,0,0,33.541,38H34a1,1,0,0,0,0-2Z" fill="#61616b"></path><path d="M14,12H34a1,1,0,0,0,0-2h-.459A9.926,9.926,0,0,0,24.99,3.052c0-.018.01-.034.01-.052V2a1,1,0,0,0-2,0V3c0,.018.01.034.01.052A9.926,9.926,0,0,0,14.459,10H14a1,1,0,0,0,0,2Z" fill="#61616b"></path><polygon points="33 14 31 14 31 14.172 31 19.828 31 25.172 31 30.828 31 34 33 34 33 14" fill="#61616b"></polygon><polygon points="15 34 17 34 17 33.828 17 28.172 17 22.828 17 17.172 17 14 15 14 15 34" fill="#61616b"></polygon><polygon points="21.172 14 19 16.172 19 21.828 26.828 14 21.172 14" fill="#61616b" data-color="color-2"></polygon><polygon points="29 31.828 26.828 34 21.172 34 29 26.172 29 31.828" fill="#61616b" data-color="color-2"></polygon></g></svg>