<svg xmlns="http://www.w3.org/2000/svg" height="32" width="32" viewBox="0 0 32 32"><title>barbershop 4</title><g fill="#61616b" class="nc-icon-wrapper"><path d="M24,23H23V9h1a1,1,0,0,0,0-2h-.258A8.045,8.045,0,0,0,17,1.071V1a1,1,0,0,0-2,0v.071A8.045,8.045,0,0,0,8.258,7H8A1,1,0,0,0,8,9H9V23H8a1,1,0,0,0,0,2h.258A8.045,8.045,0,0,0,15,30.929V31a1,1,0,0,0,2,0v-.071A8.045,8.045,0,0,0,23.742,25H24a1,1,0,0,0,0-2Zm-6.586,0L21,19.414V23ZM21,9.586l-10,10V15.414L17.414,9H21ZM14.586,9,11,12.586V9ZM11,22.414l10-10v4.172L14.586,23H11Z" fill="#61616b"></path></g></svg>