<svg xmlns="http://www.w3.org/2000/svg" height="64" width="64" viewBox="0 0 64 64"><title>barbershop 2</title><g fill="#61616b" class="nc-icon-wrapper"><path d="M45,13H43.613A11.985,11.985,0,0,0,33,4.044V2a1,1,0,0,0-2,0V4.044A11.985,11.985,0,0,0,20.387,13H19a1,1,0,0,0,0,2H45a1,1,0,0,0,0-2Z" fill="#61616b"></path><path d="M45,49H19a1,1,0,0,0,0,2h1.387A11.985,11.985,0,0,0,31,59.956V62a1,1,0,0,0,2,0V59.956A11.985,11.985,0,0,0,43.613,51H45a1,1,0,0,0,0-2Z" fill="#61616b"></path><rect x="21" y="17" width="2" height="30" fill="#61616b"></rect><rect x="41" y="17" width="2" height="30" fill="#61616b"></rect><polygon points="25 25.328 33.328 17 27.672 17 25 19.672 25 25.328" fill="#61616b" data-color="color-2"></polygon><polygon points="39 16.672 25 30.672 25 36.328 39 22.328 39 16.672" fill="#61616b" data-color="color-2"></polygon><polygon points="25 47.328 39 33.328 39 27.672 25 41.672 25 47.328" fill="#61616b" data-color="color-2"></polygon><polygon points="39 38.672 30.672 47 36.328 47 39 44.328 39 38.672" fill="#61616b" data-color="color-2"></polygon></g></svg>