<svg xmlns="http://www.w3.org/2000/svg" height="24" width="24" viewBox="0 0 24 24"><title>barbershop 5</title><g fill="#61616b" class="nc-icon-wrapper"><path d="M18,17H17V7h1a1,1,0,0,0,0-2h-.358A6.017,6.017,0,0,0,13,1.088V1a1,1,0,0,0-2,0v.088A6.017,6.017,0,0,0,6.358,5H6A1,1,0,0,0,6,7H7V17H6a1,1,0,0,0,0,2h.358A6.017,6.017,0,0,0,11,22.912V23a1,1,0,0,0,2,0v-.088A6.017,6.017,0,0,0,17.642,19H18a1,1,0,0,0,0-2ZM9,13.414l6-6v3.172l-6,6Zm6,0V17H11.414ZM12.586,7,9,10.586V7Z" fill="#61616b"></path></g></svg>