<svg xmlns="http://www.w3.org/2000/svg" height="64" width="64" viewBox="0 0 64 64"><title>beard 2</title><g fill="#61616b" class="nc-icon-wrapper"><path d="M59,4H58a1,1,0,0,0-.991.866c-1.439,9.963-5.472,18.651-11.144,24.105L44.688,26.03A8,8,0,0,0,37.26,21H26.738a8,8,0,0,0-7.427,5.028L18.134,28.97c-5.671-5.454-9.7-14.142-11.143-24.1A1,1,0,0,0,6,4H5A1,1,0,0,0,4,5V31.3A16.971,16.971,0,0,0,7.843,42.054l.681.832a1,1,0,0,0,1.414.135l1.3-1.082.164,1.308a13,13,0,0,0,2.837,6.62l7.991,9.766A1,1,0,0,0,23,60H41a1,1,0,0,0,.774-.367l7.985-9.76A13.034,13.034,0,0,0,52.6,43.247l.164-1.308,1.3,1.082a1,1,0,0,0,1.414-.136l.673-.821A17.008,17.008,0,0,0,60,31.287V5A1,1,0,0,0,59,4ZM39.367,32.569a19.679,19.679,0,0,1-14.734,0,1,1,0,1,1,.734-1.859,17.784,17.784,0,0,0,13.266,0,1,1,0,1,1,.734,1.859Z" fill="#61616b"></path></g></svg>