<svg xmlns="http://www.w3.org/2000/svg" height="32" width="32" viewBox="0 0 32 32"><title>beard 4</title><g fill="#61616b" class="nc-icon-wrapper"><path d="M31,0h-.5a1,1,0,0,0-.986.835,24.041,24.041,0,0,1-5.576,12.309L23.583,11.9A4.016,4.016,0,0,0,19.737,9H12.263a4.016,4.016,0,0,0-3.846,2.9l-.355,1.243A24.041,24.041,0,0,1,2.486.835,1,1,0,0,0,1.5,0H1A1,1,0,0,0,0,1V16.1a9.018,9.018,0,0,0,2.086,5.761l8.145,9.776A1,1,0,0,0,11,32H21a1,1,0,0,0,.768-.359l8.146-9.776A9.018,9.018,0,0,0,32,16.1V1A1,1,0,0,0,31,0ZM20.386,18.078A11.35,11.35,0,0,1,16,19a11.35,11.35,0,0,1-4.386-.922,1,1,0,0,1,.772-1.846,8.919,8.919,0,0,0,7.228,0,1,1,0,0,1,.772,1.846Z" fill="#61616b"></path></g></svg>