<svg xmlns="http://www.w3.org/2000/svg" height="48" width="48" viewBox="0 0 48 48"><title>beard 3</title><g fill="#61616b" class="nc-icon-wrapper"><path d="M45,2H44a1.007,1.007,0,0,0-1,.913C42.25,10.264,39.35,16.8,34.979,21.1l-.825-2.2A6,6,0,0,0,28.535,15H19.464a6,6,0,0,0-5.618,3.894l-.825,2.2C8.65,16.8,5.75,10.263,5,2.913A1.007,1.007,0,0,0,4,2H3A1,1,0,0,0,2,3V23.693a13,13,0,0,0,2.965,8.266l2.267,2.753a1,1,0,0,0,1.305.211L10,34l-.367,3.144a1,1,0,0,0,.221.751l6.375,7.741A1,1,0,0,0,17,46H31a1,1,0,0,0,.771-.364L38.146,37.9a1,1,0,0,0,.221-.751L38,34l1.463.923a1,1,0,0,0,1.3-.211l2.271-2.759A13,13,0,0,0,46,23.7V3A1,1,0,0,0,45,2ZM30.43,25.538a14.871,14.871,0,0,1-12.86,0,1,1,0,0,1,.86-1.807,12.914,12.914,0,0,0,11.14,0,1,1,0,0,1,.86,1.807Z" fill="#61616b"></path></g></svg>