<svg xmlns="http://www.w3.org/2000/svg" height="24" width="24" viewBox="0 0 24 24"><title>beard 5</title><g fill="#61616b" class="nc-icon-wrapper"><path d="M23,0h-.5a1,1,0,0,0-.994.893,14.536,14.536,0,0,1-3.6,8.317l-.021-.071A2.982,2.982,0,0,0,15.012,7H8.988A2.982,2.982,0,0,0,6.114,9.139l-.021.071A14.536,14.536,0,0,1,2.494.893,1,1,0,0,0,1.5,0H1A1,1,0,0,0,0,1v9.793a7.965,7.965,0,0,0,1.446,4.588l5.735,8.192A1,1,0,0,0,8,24h8a1,1,0,0,0,.819-.427l5.916-8.45A6.976,6.976,0,0,0,24,11.108V1A1,1,0,0,0,23,0ZM14.233,13.728a9.3,9.3,0,0,1-4.466,0,1,1,0,1,1,.466-1.946,7.311,7.311,0,0,0,3.534,0,1,1,0,1,1,.466,1.946Z" fill="#61616b"></path></g></svg>