<svg xmlns="http://www.w3.org/2000/svg" height="16" width="16" viewBox="0 0 16 16"><title>beard</title><g fill="#61616b" class="nc-icon-wrapper"><path d="M15,0a1,1,0,0,0-1,1,5.985,5.985,0,0,1-2.674,5l-.365-1.27A1,1,0,0,0,10,4H6a1,1,0,0,0-.961.725L4.674,6A5.985,5.985,0,0,1,2,1,1,1,0,0,0,0,1V7.232A5.432,5.432,0,0,0,.986,10.36l3.649,5.213a1,1,0,0,0,.82.427h5.09a1,1,0,0,0,.82-.427L15.129,10.2A4.789,4.789,0,0,0,16,7.433V1A1,1,0,0,0,15,0ZM9.7,9.318a8.059,8.059,0,0,1-3.406,0A1,1,0,0,1,6.7,7.359a5.974,5.974,0,0,0,2.594,0A1,1,0,0,1,9.7,9.318Z" fill="#61616b"></path></g></svg>