<svg xmlns="http://www.w3.org/2000/svg" height="32" width="32" viewBox="0 0 32 32"><title>body cream 4</title><g fill="#61616b" class="nc-icon-wrapper"><path d="M29.336,23.429a2.99,2.99,0,0,1-1.847,5.684,2.991,2.991,0,0,1-5.978,0,2.99,2.99,0,0,1-1.847-5.684A2.99,2.99,0,0,1,24.5,19.916a2.99,2.99,0,0,1,4.836,3.513ZM24.5,27.5A2.5,2.5,0,1,0,22,25,2.5,2.5,0,0,0,24.5,27.5Z" fill="#61616b" data-color="color-2"></path><path d="M15.94,27.781a4.924,4.924,0,0,1,1.289-5.143,4.844,4.844,0,0,1-.03-1.529,5.544,5.544,0,0,1,.434-1.47A28.6,28.6,0,0,1,13,20C6.287,20,2,17.928,2,16.5H2c0-.8,1.423-1.9,4.148-2.656A4.954,4.954,0,0,0,6,15a1,1,0,0,0,2,0,3,3,0,0,1,3-3h3.5a5.451,5.451,0,0,0,4.071-1.816A3.5,3.5,0,0,1,20,13a3.375,3.375,0,0,1-.391,1.544,1,1,0,1,0,1.779.912,5.721,5.721,0,0,0,.375-.942C23.39,15.236,24,16.009,24,16.5v.627a5.122,5.122,0,0,1,.5.229A4.968,4.968,0,0,1,26,16.85V16.5c0-1.625-1.44-3.054-4.041-4.061a5.5,5.5,0,0,0-3.252-4.473,1,1,0,0,0-1.25.385A3.477,3.477,0,0,1,14.5,10H11a4.979,4.979,0,0,0-3.552,1.489l-.332.067C2.594,12.47,0,14.271,0,16.5v10C0,30.072,6.7,32,13,32a28.864,28.864,0,0,0,6.975-.824h0A4.917,4.917,0,0,1,15.94,27.781Z" fill="#61616b"></path><path d="M28.387,4A12.993,12.993,0,0,0,6.453,9.652c.018,0,.033-.009.051-.012A6.929,6.929,0,0,1,9.068,8.3a10.992,10.992,0,0,1,20.291,8.393c-.074.208-.178.4-.264.608a5.07,5.07,0,0,1,.7.422,4.991,4.991,0,0,1,.924.88A12.983,12.983,0,0,0,28.387,4Z" fill="#61616b"></path></g></svg>