<svg xmlns="http://www.w3.org/2000/svg" height="24" width="24" viewBox="0 0 24 24"><title>body cream 5</title><g fill="#61616b" class="nc-icon-wrapper"><path d="M22.471,18.025a2,2,0,0,0-.282-.061,1.886,1.886,0,0,0,.192-.216A2,2,0,0,0,19.145,15.4a2.027,2.027,0,0,0-.145.25,2.027,2.027,0,0,0-.145-.25,2,2,0,0,0-3.236,2.351,1.886,1.886,0,0,0,.192.216,2,2,0,1,0,1.218,3.749A1.938,1.938,0,0,0,17,22a2,2,0,0,0,4,0,1.938,1.938,0,0,0-.029-.287,2,2,0,1,0,1.5-3.688ZM19,20.5A1.5,1.5,0,1,1,20.5,19,1.5,1.5,0,0,1,19,20.5Z" fill="#61616b" data-color="color-2"></path><path d="M18.9,3.666A7.99,7.99,0,0,1,22,10v2.768a3.986,3.986,0,0,1,1.115.569c.08.058.15.125.224.189A9.985,9.985,0,0,0,5.085,5.494a22.2,22.2,0,0,1,2.6-.394A7.99,7.99,0,0,1,18.9,3.666Z" fill="#61616b"></path><path d="M20,12.662V11.5C20,8.546,14.969,7,10,7S0,8.546,0,11.5v8C0,22.454,5.031,24,10,24a22.258,22.258,0,0,0,4.473-.44,4,4,0,0,1-1.89-5.45,4.042,4.042,0,0,1,.693-.971,4,4,0,0,1,1.481-3.694A18.852,18.852,0,0,1,10,14c-5.176,0-8-1.651-8-2.5S4.824,9,10,9s8,1.651,8,2.5a.532.532,0,0,1-.02.073H18v1.089Z" fill="#61616b"></path></g></svg>