<svg xmlns="http://www.w3.org/2000/svg" height="48" width="48" viewBox="0 0 48 48"><title>body cream 2</title><g fill="#61616b" class="nc-icon-wrapper"><path d="M43.4,35.921a3.978,3.978,0,0,0-6.4-4.65,3.978,3.978,0,0,0-6.4,4.65,3.978,3.978,0,0,0,2.445,7.523,3.977,3.977,0,0,0,7.91,0A3.978,3.978,0,0,0,43.4,35.921ZM37,41a3,3,0,1,1,3-3A3,3,0,0,1,37,41Z" fill="#61616b" data-color="color-2"></path><path d="M31.641,3.22a15.988,15.988,0,0,1,10.35,25.109,5.956,5.956,0,0,1,1.475.772c.094.068.173.149.262.221A17.987,17.987,0,1,0,11.167,16.68q1.017-.184,2.07-.318A15.991,15.991,0,0,1,31.641,3.22Z" fill="#61616b"></path><path d="M30.868,19.789a7.7,7.7,0,0,0-4.484-5.705,1,1,0,0,0-1.248.384,5.677,5.677,0,0,1-4.824,2.688h-3.35A6.913,6.913,0,0,0,13,18.4l-.645.1C5.352,19.609,1,22.29,1,25.5v14C1,44.371,10.275,47,19,47a37.921,37.921,0,0,0,11.61-1.7A5.966,5.966,0,0,1,28.2,35.139a5.969,5.969,0,0,1,2.092-5.829A34.472,34.472,0,0,1,19,31C9.572,31,3,28.1,3,25.5c0-1.559,2.687-3.557,7.831-4.675A6.917,6.917,0,0,0,10,24.118a1,1,0,0,0,2,0,4.968,4.968,0,0,1,4.962-4.962h3.35a7.642,7.642,0,0,0,5.978-2.868A5.7,5.7,0,0,1,29,21.137a5.636,5.636,0,0,1-.622,2.534,1,1,0,1,0,1.789.894,7.786,7.786,0,0,0,.784-2.608C33.468,22.976,35,24.293,35,25.5c0,.863-.739,1.758-2.052,2.57a5.953,5.953,0,0,1,1.087-.109A6.013,6.013,0,0,1,37,28.744h0V25.5C37,23.208,34.818,21.187,30.868,19.789Z" fill="#61616b"></path></g></svg>