<svg xmlns="http://www.w3.org/2000/svg" height="64" width="64" viewBox="0 0 64 64"><title>body cream 3</title><g fill="#61616b" class="nc-icon-wrapper"><path d="M59.535,45.9A6,6,0,0,0,50,38.974,6,6,0,0,0,40.465,45.9a6,6,0,0,0,3.642,11.209,6,6,0,0,0,11.786,0A6,6,0,0,0,59.535,45.9ZM50,54a5,5,0,1,1,5-5A5,5,0,0,1,50,54Z" fill="#61616b" data-color="color-2"></path><path d="M34.783,53.944A9,9,0,0,1,37,44.777a9,9,0,0,1,1.207-6.115A52.679,52.679,0,0,1,26,40C13.035,40,4,36.048,4,32.5a2.194,2.194,0,0,1,.058-.5c.552-2.447,5.09-4.8,11.5-6.053A8.952,8.952,0,0,0,14,31a1,1,0,0,0,2,0,7.009,7.009,0,0,1,7-7h5a9.927,9.927,0,0,0,8.438-4.648A7.953,7.953,0,0,1,40,26c0,.028-.006.055-.006.083s-.007.044-.005.066a7.941,7.941,0,0,1-1.338,4.294,1,1,0,0,0,1.662,1.114A9.923,9.923,0,0,0,41.9,27.423c3.49,1.286,5.654,2.936,6.028,4.577a2.229,2.229,0,0,1,.077.5,3,3,0,0,1-.873,1.933,8.955,8.955,0,0,1,2.873.9V32.5a4.372,4.372,0,0,0-.031-.5c-.313-2.661-3.128-5-8.016-6.678a9.938,9.938,0,0,0-5.435-8.236,1,1,0,0,0-1.35.448A7.953,7.953,0,0,1,28,22H23a8.951,8.951,0,0,0-5,1.524C8.666,24.779,2.53,28.064,2.047,32A4.383,4.383,0,0,0,2,32.5v20C2,57.916,12.317,62,26,62a51.469,51.469,0,0,0,15.328-2.087A8.957,8.957,0,0,1,34.783,53.944Z" fill="#61616b"></path><path d="M36.064,14.978a3.009,3.009,0,0,1,1.363.327,11.857,11.857,0,0,1,6.36,8.557C50.538,26.483,52,29.972,52,32.5v2.09a9.065,9.065,0,0,1,2.125-.252,8.958,8.958,0,0,1,1.932.235A19.986,19.986,0,1,0,18.685,20.887,10.938,10.938,0,0,1,23,20h5a5.965,5.965,0,0,0,5.375-3.353,3,3,0,0,1,2.689-1.669Z" fill="#61616b"></path><path d="M43.353,4.666A21.991,21.991,0,0,1,59.342,31.341a21.717,21.717,0,0,1-1.382,3.874,9.062,9.062,0,0,1,1.444.84c.094.068.173.15.264.221A23.981,23.981,0,1,0,14.547,21.021q1.04-.2,2.131-.365A21.992,21.992,0,0,1,43.353,4.666Z" fill="#61616b"></path></g></svg>