<svg xmlns="http://www.w3.org/2000/svg" height="16" width="16" viewBox="0 0 16 16"><title>body cream</title><g fill="#61616b" class="nc-icon-wrapper"><path d="M6.36,14C3.654,13.97,2.153,13.229,2,13V11.241a12.355,12.355,0,0,0,4.147.751,3.969,3.969,0,0,1,.683-1.672c0-.112.031-.219.042-.33-.125,0-.241.012-.372.012C3.93,10,2.419,9.356,2.055,9,2.419,8.648,3.93,8,6.5,8c.4,0,.758.019,1.1.046A3.782,3.782,0,0,1,10.1,6.455,13.747,13.747,0,0,0,6.5,6C3.371,6,0,6.94,0,9v4c0,2.062,3.37,3,6.5,3,.462,0,.929-.023,1.39-.065A3.946,3.946,0,0,1,6.36,14Z" fill="#61616b"></path><path d="M11.975,2.744A4.492,4.492,0,0,1,13.992,6.42c.02.021.034.048.054.07a3.937,3.937,0,0,1,1.48.656,3.744,3.744,0,0,1,.392.362A6.493,6.493,0,0,0,3.4,4.279,15.758,15.758,0,0,1,5.753,4.02,4.491,4.491,0,0,1,11.975,2.744Z" fill="#61616b"></path><path d="M15.067,11A1.987,1.987,0,0,0,12,8.775,1.987,1.987,0,0,0,8.933,11,1.987,1.987,0,0,0,10.1,14.609a1.988,1.988,0,0,0,3.792,0A1.987,1.987,0,0,0,15.067,11ZM12,13.5A1.5,1.5,0,1,1,13.5,12,1.5,1.5,0,0,1,12,13.5Z" fill="#61616b" data-color="color-2"></path></g></svg>