<svg xmlns="http://www.w3.org/2000/svg" height="16" width="16" viewBox="0 0 16 16"><title>comb</title><g fill="#61616b" class="nc-icon-wrapper"><path d="M15.5,4.086,12.207.793a2,2,0,0,0-2.828,0L.793,9.379a2,2,0,0,0,0,2.828L4.086,15.5A1,1,0,0,0,5.5,14.086L3.207,11.793l1.086-1.086L6.586,13A1,1,0,0,0,8,11.586L5.707,9.293,6.793,8.207,9.086,10.5A1,1,0,0,0,10.5,9.086L8.207,6.793,9.293,5.707,11.586,8A1,1,0,0,0,13,6.586L10.707,4.293l1.086-1.086L14.086,5.5A1,1,0,0,0,15.5,4.086Z" fill="#61616b"></path></g></svg>