<svg xmlns="http://www.w3.org/2000/svg" height="32" width="32" viewBox="0 0 32 32"><title>comb 4</title><g fill="#61616b" class="nc-icon-wrapper"><path d="M31.707,8.293,24.586,1.172a4.1,4.1,0,0,0-5.657,0L1.172,18.929a4,4,0,0,0,0,5.657l7.121,7.121a1,1,0,0,0,1.414-1.414L4.293,24.879,6.022,23.15l5.414,5.414A1,1,0,1,0,12.85,27.15L7.436,21.736l1.729-1.729,5.414,5.414a1,1,0,0,0,1.414-1.414l-5.414-5.414,1.728-1.729,5.415,5.414a1,1,0,0,0,1.414-1.414L13.721,15.45l1.729-1.729,5.414,5.415a1,1,0,0,0,1.414-1.414l-5.414-5.415,1.729-1.729,5.414,5.415a1,1,0,0,0,1.414-1.414L20.007,9.164l1.729-1.729L27.15,12.85a1,1,0,1,0,1.414-1.414L23.15,6.021l1.678-1.678c.018-.018.024-.042.04-.061l5.425,5.425a1,1,0,0,0,1.414-1.414Z" fill="#61616b"></path></g></svg>