<svg xmlns="http://www.w3.org/2000/svg" height="24" width="24" viewBox="0 0 24 24"><title>comb 5</title><g fill="#61616b" class="nc-icon-wrapper"><path d="M23.708,6.051,19.3,1.637A2.983,2.983,0,0,0,17.181.755h0a2.984,2.984,0,0,0-2.121.879L.88,15.811a3,3,0,0,0,0,4.242l4.413,4.411A1,1,0,0,0,6.707,23.05l-4-4,1.42-1.42,4,4a1,1,0,1,0,1.415-1.414l-4-4L6.959,14.8l4,4a1,1,0,0,0,1.415-1.414l-4-4,1.42-1.419,4,4a1,1,0,1,0,1.414-1.414l-4-4,1.419-1.419,4,4a1,1,0,0,0,1.415-1.414l-4-4L15.459,6.3l4,4a1,1,0,0,0,1.415-1.414l-4-4L18.3,3.46l4,4a1,1,0,1,0,1.416-1.412Zm-6.529-3.3.01,0h-.021l.01,0Z" fill="#61616b"></path></g></svg>