<svg xmlns="http://www.w3.org/2000/svg" height="48" width="48" viewBox="0 0 48 48"><title>comb 2</title><g fill="#61616b" class="nc-icon-wrapper"><path d="M2.674,38.084l35.41-35.41L36.932,1.522a5,5,0,0,0-7.071,0L1.522,29.861a5,5,0,0,0,0,7.071Z" fill="#61616b" data-color="color-2"></path><path d="M47.707,12.293,39.5,4.088,4.088,39.5l8.2,8.209a1,1,0,0,0,1.414-1.414L6.916,39.5,8.9,37.514l6.792,6.793a1,1,0,0,0,1.414-1.414L10.315,36.1,12.3,34.114l6.792,6.793a1,1,0,1,0,1.414-1.414L13.715,32.7,15.7,30.715l6.793,6.792a1,1,0,0,0,1.414-1.414L17.114,29.3,19.1,27.315l6.793,6.792a1,1,0,1,0,1.414-1.414L20.514,25.9,22.5,23.915l6.793,6.792a1,1,0,0,0,1.414-1.414L23.915,22.5,25.9,20.514l6.792,6.793a1,1,0,1,0,1.414-1.414L27.315,19.1,29.3,17.114l6.792,6.793a1,1,0,0,0,1.414-1.414L30.715,15.7,32.7,13.715l6.793,6.792a1,1,0,1,0,1.414-1.414L34.114,12.3,36.1,10.315l6.793,6.792a1,1,0,0,0,1.414-1.414L37.514,8.9,39.5,6.916l6.794,6.791a1,1,0,0,0,1.414-1.414Z" fill="#61616b"></path></g></svg>