<svg xmlns="http://www.w3.org/2000/svg" height="64" width="64" viewBox="0 0 64 64"><title>comb 3</title><g fill="#61616b" class="nc-icon-wrapper"><path d="M25.594,38.734,24.18,40.148l7.983,7.984a1,1,0,0,0,1.414-1.414Z" fill="#61616b"></path><path d="M29.261,35.067l-1.414,1.414,7.983,7.984a1,1,0,0,0,1.414-1.414Z" fill="#61616b"></path><path d="M21.927,42.4l-1.414,1.414L28.5,51.8a1,1,0,0,0,1.414-1.414Z" fill="#61616b"></path><path d="M32.928,31.4l-1.414,1.414L39.5,40.8a1,1,0,1,0,1.414-1.414Z" fill="#61616b"></path><path d="M14.593,49.735l-1.414,1.414,7.983,7.984a1,1,0,0,0,1.414-1.414Z" fill="#61616b"></path><path d="M18.26,46.068l-1.414,1.414,7.983,7.984a1,1,0,1,0,1.414-1.414Z" fill="#61616b"></path><path d="M51.264,13.065,49.85,14.479l7.982,7.983a1,1,0,0,0,1.414-1.414Z" fill="#61616b"></path><path d="M47.6,16.732l-1.414,1.414,7.982,7.983a1,1,0,0,0,1.414-1.414Z" fill="#61616b"></path><path d="M40.262,24.066,38.848,25.48l7.983,7.983a1,1,0,0,0,1.414-1.414Z" fill="#61616b"></path><path d="M43.93,20.4l-1.414,1.414L50.5,29.8a1,1,0,0,0,1.414-1.414Z" fill="#61616b"></path><path d="M36.6,27.733l-1.414,1.414,7.983,7.983a1,1,0,0,0,1.414-1.414Z" fill="#61616b"></path><path d="M62.913,17.381,51.1,5.569,5.684,50.988,17.5,62.8a1,1,0,1,0,1.414-1.414l-9.4-9.4L52.1,9.4l9.4,9.4a1,1,0,1,0,1.414-1.414Z" fill="#61616b"></path><path d="M4.27,49.574,49.688,4.156,48.173,2.64a6,6,0,0,0-8.485,0L2.754,39.574a6.006,6.006,0,0,0,0,8.484Z" fill="#61616b" data-color="color-2"></path></g></svg>