<svg xmlns="http://www.w3.org/2000/svg" height="48" width="48" viewBox="0 0 48 48"><title>edge razor 3</title><g fill="#61616b" class="nc-icon-wrapper"><path d="M45,5.024H41.824a3,3,0,1,0-.015,2H45a1,1,0,0,0,0-2ZM39,7a1,1,0,1,1,1-1A1,1,0,0,1,39,7Z" fill="#61616b"></path><path data-color="color-2" d="M34,6a4.949,4.949,0,0,1,.438-2.025H3a1,1,0,0,0-1,1v3a4,4,0,0,0,4,4H23.1A4,4,0,0,0,26.9,9.24l.422-1.265H34.41A4.967,4.967,0,0,1,34,6Z" fill="#61616b"></path><path d="M39,11a4.933,4.933,0,0,1-2.234-.551,92.984,92.984,0,0,1-7.41,30.757,2,2,0,1,0,3.672,1.586,96.953,96.953,0,0,0,7.729-32.119A4.915,4.915,0,0,1,39,11Z" fill="#61616b"></path></g></svg>