<svg xmlns="http://www.w3.org/2000/svg" height="64" width="64" viewBox="0 0 64 64"><title>edge razor 2</title><g fill="#61616b" class="nc-icon-wrapper"><path data-color="color-2" d="M45,10a5.955,5.955,0,0,1,.81-3L4,7.024a1,1,0,0,0-1,1V12a5.006,5.006,0,0,0,5,5H30.969a3.981,3.981,0,0,0,3.714-2.515L35.677,12H45.35A5.976,5.976,0,0,1,45,10Z" fill="#61616b"></path><path d="M51,16a5.96,5.96,0,0,1-3.136-.894,95.758,95.758,0,0,1-10.22,38.566A3,3,0,1,0,43,56.376a101.686,101.686,0,0,0,10.863-41.1A5.961,5.961,0,0,1,51,16Z" fill="#61616b"></path><path d="M60.829,5.573A1,1,0,0,0,59.5,5.1a19.764,19.764,0,0,1-6.062,1.752A3.959,3.959,0,0,0,51,6a4,4,0,1,0,4,4,3.955,3.955,0,0,0-.242-1.324A21.8,21.8,0,0,0,60.352,6.9,1,1,0,0,0,60.829,5.573ZM51,11.5A1.5,1.5,0,1,1,52.5,10,1.5,1.5,0,0,1,51,11.5Z" fill="#61616b"></path></g></svg>