<svg xmlns="http://www.w3.org/2000/svg" height="32" width="32" viewBox="0 0 32 32"><title>edge razor 4</title><g fill="#61616b" class="nc-icon-wrapper"><path d="M31,3.024H29.8a2.985,2.985,0,0,0-5.6,0H1a1,1,0,0,0-1,1v2a3,3,0,0,0,3,3H16.477a3,3,0,0,0,2.911-2.272l.432-1.728h4.35a2.981,2.981,0,0,0,5.66,0H31a1,1,0,0,0,0-2ZM27,5.069a1,1,0,1,1,1-1A1,1,0,0,1,27,5.069Z" fill="#61616b" data-color="color-2"></path><path d="M27,9.069a4.946,4.946,0,0,1-1.158-.138,64.177,64.177,0,0,1-5.1,20.7,1,1,0,0,0,1.836.793A66.17,66.17,0,0,0,27.842,8.984,4.975,4.975,0,0,1,27,9.069Z" fill="#61616b"></path></g></svg>