<svg xmlns="http://www.w3.org/2000/svg" height="24" width="24" viewBox="0 0 24 24"><title>edge razor 5</title><g fill="#61616b" class="nc-icon-wrapper"><path d="M21.5,7.524a4.454,4.454,0,0,1-1.266-.2,46.7,46.7,0,0,1-3.652,14.307,1,1,0,0,0,.522,1.314.986.986,0,0,0,.4.082,1,1,0,0,0,.918-.6,48.673,48.673,0,0,0,3.811-14.97A4.491,4.491,0,0,1,21.5,7.524Z" fill="#61616b"></path><path d="M22.243.632A2.5,2.5,0,0,0,19.225,2H1A1,1,0,0,0,0,3V5A3,3,0,0,0,3,8h9.438a3,3,0,0,0,2.911-2.273L15.781,4H19.2a2.5,2.5,0,0,0,4.708-1.667A2.466,2.466,0,0,0,22.243.632Z" fill="#61616b" data-color="color-2"></path></g></svg>