<svg xmlns="http://www.w3.org/2000/svg" height="16" width="16" viewBox="0 0 16 16"><title>edge razor</title><g fill="#61616b" class="nc-icon-wrapper"><path d="M14,0a1.994,1.994,0,0,0-1.723,1H1A1,1,0,0,0,0,2V3A3,3,0,0,0,3,6H9a1,1,0,0,0,.949-.684L10.721,3h1.556A2,2,0,1,0,14,0ZM8.279,4H3A1,1,0,0,1,2,3H8.613Z" fill="#61616b" data-color="color-2"></path><path d="M14,6a3.94,3.94,0,0,1-1.154-.19,25.65,25.65,0,0,1-2.555,8.745,1,1,0,1,0,1.791.89,27.652,27.652,0,0,0,2.763-9.539A3.993,3.993,0,0,1,14,6Z" fill="#61616b"></path></g></svg>