<svg xmlns="http://www.w3.org/2000/svg" height="32" width="32" viewBox="0 0 32 32"><title>eyeliner 4</title><g fill="#61616b" class="nc-icon-wrapper"><path d="M8,13V1a1,1,0,0,1,2,0V13Z" fill="#61616b" data-color="color-2"></path><path d="M13.741,20.329A1,1,0,0,0,13,20H12V16a1,1,0,0,0-1-1H7a1,1,0,0,0-1,1v4H5a1,1,0,0,0-1,1.1l1,10A1,1,0,0,0,6,32h6A1,1,0,0,0,13,31.1l1-10A1,1,0,0,0,13.741,20.329Z" fill="#61616b"></path><path d="M27.751,26,27,10.95A1,1,0,0,0,26,10H20a1,1,0,0,0-1,.95L18.249,26Z" fill="#61616b"></path><path d="M18.149,28,18,30.95A1,1,0,0,0,19,32h8a1,1,0,0,0,1-1.05L27.851,28Z" fill="#61616b"></path></g></svg>