<svg xmlns="http://www.w3.org/2000/svg" height="64" width="64" viewBox="0 0 64 64"><title>eyelash 2</title><g fill="#61616b" class="nc-icon-wrapper"><path d="M62.925,39.812a1.5,1.5,0,0,0-1.895-.955,26.681,26.681,0,0,1-10.156,1.282,15.82,15.82,0,0,0,10.069-9.808,1,1,0,0,0-1.886-.662A13.827,13.827,0,0,1,46.025,38.9h0a8.9,8.9,0,0,1-3.3-.629,26.079,26.079,0,0,1-2.416-1.116,15.6,15.6,0,0,0,12.68-13,1,1,0,1,0-1.976-.31,13.607,13.607,0,0,1-12.251,11.5,6.511,6.511,0,0,1-2.767-.491c-.587-.267-1.18-.506-1.777-.732A14.138,14.138,0,0,0,43,21a1,1,0,0,0-2,0,12.181,12.181,0,0,1-9.547,11.914,3.226,3.226,0,0,1-1.352-.006c-.68-.139-1.724-.346-2.365-.433a15.017,15.017,0,0,0,5.22-9.964A15.622,15.622,0,0,0,33,19.934,1.018,1.018,0,0,0,31.934,19,1,1,0,0,0,31,20.066a13.585,13.585,0,0,1-.036,2.246,13.021,13.021,0,0,1-4.224,8.381,6.115,6.115,0,0,1-3.909,1.525q-1.27.039-2.534.189a15.6,15.6,0,0,0,2.883-9.086,16.019,16.019,0,0,0-.194-2.476,1,1,0,0,0-1.976.31,13.9,13.9,0,0,1,.17,2.166,13.587,13.587,0,0,1-2.568,7.99,5.1,5.1,0,0,1-2.739,1.968q-1.366.378-2.694.889a18.013,18.013,0,0,0,1.643-7.49,18.2,18.2,0,0,0-.221-2.834,1,1,0,0,0-1.975.312,16.277,16.277,0,0,1,.2,2.522,15.945,15.945,0,0,1-1.714,7.187,6.024,6.024,0,0,1-2.348,2.444q-.773.455-1.52.96a12.559,12.559,0,0,0,.142-1.8,12.5,12.5,0,0,0-1.505-5.945,1,1,0,1,0-1.758.956,10.477,10.477,0,0,1,1.263,4.989,10.41,10.41,0,0,1-.674,3.7c0,.013,0,.026-.006.038a29.971,29.971,0,0,0-3.343,3.316,1.5,1.5,0,0,0,2.278,1.954A26.5,26.5,0,0,1,37.467,39a29.585,29.585,0,0,0,24.5,2.707A1.5,1.5,0,0,0,62.925,39.812Z" fill="#61616b"></path></g></svg>