<svg xmlns="http://www.w3.org/2000/svg" height="16" width="16" viewBox="0 0 16 16"><title>eyeliner</title><g fill="#61616b" class="nc-icon-wrapper"><path d="M4,0H4A1,1,0,0,1,5,1V9A0,0,0,0,1,5,9H3A0,0,0,0,1,3,9V1A1,1,0,0,1,4,0Z" fill="#61616b" data-color="color-2"></path><path d="M6.871,10.164A.5.5,0,0,0,6.5,10h-5a.5.5,0,0,0-.5.55l.5,5A.5.5,0,0,0,2,16H6a.5.5,0,0,0,.5-.45l.5-5A.506.506,0,0,0,6.871,10.164ZM4.643,14H3.357l-.2-2H4.843Z" fill="#61616b"></path><path d="M14.5,5.475A.5.5,0,0,0,14,5H10a.5.5,0,0,0-.5.475l-.5,10A.5.5,0,0,0,9.5,16h5a.5.5,0,0,0,.5-.525ZM12.573,7l.25,5H11.177l.25-5Z" fill="#61616b"></path></g></svg>