<svg xmlns="http://www.w3.org/2000/svg" height="32" width="32" viewBox="0 0 32 32"><title>eyelash 4</title><g fill="#61616b" class="nc-icon-wrapper"><path d="M31.95,20a1,1,0,0,0-1.263-.637,13.333,13.333,0,0,1-5.063.626,10.3,10.3,0,0,0,5.912-6.152,1,1,0,1,0-1.887-.662,8.254,8.254,0,0,1-9.06,5.451c-.3-.151-.609-.3-.9-.477-.1-.059-.2-.106-.3-.163a9.518,9.518,0,0,0,6.234-8.042,1,1,0,0,0-1.99-.2,7.54,7.54,0,0,1-7.535,6.82h-.038c-.405-.118-.814-.215-1.224-.3A9.1,9.1,0,0,0,18.429,9a1,1,0,0,0-2,0A7.108,7.108,0,0,1,10.8,15.978l-.013,0-.044.009-.147.028q-.543.043-1.079.127a8.238,8.238,0,0,0,1.205-4.268,8.371,8.371,0,0,0-.1-1.3,1,1,0,1,0-1.976.311,6.344,6.344,0,0,1,.077.986,6.26,6.26,0,0,1-3.173,5.441c-.205.093-.4.2-.6.3,0-.016,0-.032,0-.048a6.734,6.734,0,0,0-.811-3.2,1,1,0,1,0-1.757.955,4.729,4.729,0,0,1,.568,2.246,4.682,4.682,0,0,1-.1.95l0,.025A4.615,4.615,0,0,1,2.716,19,15.334,15.334,0,0,0,.241,21.3a1,1,0,0,0,1.518,1.3,13.261,13.261,0,0,1,4.588-3.448c.029-.013.058-.019.086-.034s.03-.018.045-.027a13.266,13.266,0,0,1,4.142-1.067h.005a1.022,1.022,0,0,0,.163-.013L10.863,18a13.243,13.243,0,0,1,7.794,1.865c.333.2.678.368,1.022.54a.974.974,0,0,0,.172.091,15.279,15.279,0,0,0,11.462.769A1,1,0,0,0,31.95,20Z" fill="#61616b"></path></g></svg>