<svg xmlns="http://www.w3.org/2000/svg" height="64" width="64" viewBox="0 0 64 64"><title>eyeliner 2</title><g fill="#61616b" class="nc-icon-wrapper"><path d="M18,29V4a1,1,0,0,1,1-1h0a1,1,0,0,1,1,1V29Z" fill="#61616b" data-color="color-2"></path><path d="M23,38V32a1,1,0,0,0-1-1H16a1,1,0,0,0-1,1v6Z" fill="#61616b"></path><path d="M26,40H12a1,1,0,0,0-1,1.053l1,19A1,1,0,0,0,13,61H25a1,1,0,0,0,1-.947l1-19A1,1,0,0,0,26,40Z" fill="#61616b"></path><path d="M50.515,51,49,22.946A1,1,0,0,0,48,22H38a1,1,0,0,0-1,.946L35.485,51Z" fill="#61616b"></path><path d="M35.376,53,35,59.946A1,1,0,0,0,36,61H50a1,1,0,0,0,1-1.054L50.624,53Z" fill="#61616b"></path></g></svg>