<svg xmlns="http://www.w3.org/2000/svg" height="48" width="48" viewBox="0 0 48 48"><title>eyelash 3</title><g fill="#61616b" class="nc-icon-wrapper"><path d="M46.925,29.6a1.5,1.5,0,0,0-1.895-.956,19.041,19.041,0,0,1-6.442.939,12.962,12.962,0,0,0,6.355-7.255,1,1,0,0,0-1.886-.662,10.973,10.973,0,0,1-8.547,7.174,2.011,2.011,0,0,1-.9-.06,18.512,18.512,0,0,1-2.746-1.052A12.654,12.654,0,0,0,38.995,17.1a1,1,0,1,0-1.99-.2,10.664,10.664,0,0,1-7.983,9.319,1.95,1.95,0,0,1-1.339-.175A21.325,21.325,0,0,0,25.5,25.1,11.968,11.968,0,0,0,31,15a1,1,0,0,0-2,0,9.975,9.975,0,0,1-5.7,9.048,1.934,1.934,0,0,1-1.2.124,21.62,21.62,0,0,0-3.664-.394A12.477,12.477,0,0,0,22.017,15a1,1,0,1,0-2,0,10.474,10.474,0,0,1-4.7,8.768,2.008,2.008,0,0,1-.785.292,21.278,21.278,0,0,0-2.1.44,11.617,11.617,0,0,0,1.581-5.828,11.534,11.534,0,0,0-.144-1.829,1,1,0,1,0-1.974.314,9.719,9.719,0,0,1,.118,1.515,9.624,9.624,0,0,1-2.924,6.892,1.989,1.989,0,0,1-.529.36c-.543.262-1.075.549-1.6.856Q7,26.353,7,25.92a9.248,9.248,0,0,0-1.113-4.4,1,1,0,1,0-1.724,1.013,5.791,5.791,0,0,1,.747,2.22,7.431,7.431,0,0,1-.059,2.634l0,.025a7.288,7.288,0,0,1-.294,1A22.186,22.186,0,0,0,1.361,31.44a1.5,1.5,0,0,0,2.278,1.954,18.885,18.885,0,0,1,21.876-5.048.967.967,0,0,0,.406.174,19.343,19.343,0,0,1,1.854.966A21.965,21.965,0,0,0,45.97,31.5,1.5,1.5,0,0,0,46.925,29.6Z" fill="#61616b"></path></g></svg>