<svg xmlns="http://www.w3.org/2000/svg" height="24" width="24" viewBox="0 0 24 24"><title>eyeliner 5</title><g fill="#61616b" class="nc-icon-wrapper"><path d="M10.745,13.333A1,1,0,0,0,10,13H9V11a1,1,0,0,0-1-1H6a1,1,0,0,0-1,1v2H4a1,1,0,0,0-.994,1.11l1,9A1,1,0,0,0,5,24H9a1,1,0,0,0,.994-.89l1-9A1,1,0,0,0,10.745,13.333ZM8.1,22H5.9l-.778-7H8.882Z" fill="#61616b"></path><path d="M8,8V1A1,1,0,0,0,6,1V8Z" fill="#61616b" data-color="color-2"></path><path d="M20,9.923A1,1,0,0,0,19,9H15a1,1,0,0,0-1,.923l-1,13A1,1,0,0,0,14,24h6a1,1,0,0,0,1-1.077ZM18.074,11l.693,9H15.233l.693-9Z" fill="#61616b"></path></g></svg>