<svg xmlns="http://www.w3.org/2000/svg" height="48" width="48" viewBox="0 0 48 48"><title>eyeliner 3</title><g fill="#61616b" class="nc-icon-wrapper"><path d="M13,21V2a1,1,0,0,1,1-1h0a1,1,0,0,1,1,1V21Z" fill="#61616b" data-color="color-2"></path><path d="M17,28V24a1,1,0,0,0-1-1H12a1,1,0,0,0-1,1v4Z" fill="#61616b"></path><path d="M19,30H9a1,1,0,0,0-1,1.066l1,15A1,1,0,0,0,10,47h8a1,1,0,0,0,1-.934l1-15A1,1,0,0,0,19,30Z" fill="#61616b"></path><path d="M39.759,39,39,16.966A1,1,0,0,0,38,16H30a1,1,0,0,0-1,.966L28.241,39Z" fill="#61616b"></path><path d="M28.172,41,28,45.966A1,1,0,0,0,29,47H39a1,1,0,0,0,1-1.034L39.828,41Z" fill="#61616b"></path></g></svg>