<svg xmlns="http://www.w3.org/2000/svg" height="24" width="24" viewBox="0 0 24 24"><title>eyelash</title><g fill="#61616b" class="nc-icon-wrapper"><path d="M23.9,14.984a1,1,0,0,0-1.263-.635,9.544,9.544,0,0,1-2.534.456A7.793,7.793,0,0,0,23.6,10.637a1,1,0,1,0-1.887-.662,5.824,5.824,0,0,1-5.491,3.889,5.954,5.954,0,0,1-.836-.07c-.109-.055-.217-.111-.324-.171a7.241,7.241,0,0,0,4.212-5.9,1,1,0,0,0-1.99-.2,5.262,5.262,0,0,1-5.247,4.76c-.116-.033-.234-.058-.351-.088A6.945,6.945,0,0,0,14,7a1,1,0,0,0-2,0,4.942,4.942,0,0,1-4.109,4.889c-.07.007-.14.018-.211.025a6.251,6.251,0,0,0,.592-3.8A1,1,0,0,0,6.3,8.429a4.232,4.232,0,0,1,.053.679,4.325,4.325,0,0,1-1.971,3.629l-.018.012-.052.033c-.038.024-.076.045-.114.067s-.068.035-.1.051a5.184,5.184,0,0,0-.6-2.088,1,1,0,1,0-1.758.953,3.2,3.2,0,0,1,.385,1.521,3.194,3.194,0,0,1-.091.757c-.01.042-.021.082-.033.123a11.575,11.575,0,0,0-1.8,1.68,1,1,0,1,0,1.518,1.3,9.477,9.477,0,0,1,3.353-2.5l0,0,.019-.011a9.449,9.449,0,0,1,3.083-.773v0l.033-.006A9.455,9.455,0,0,1,13.764,15.2a11.459,11.459,0,0,0,9.5,1.05A1,1,0,0,0,23.9,14.984Z" fill="#61616b"></path></g></svg>