<svg xmlns="http://www.w3.org/2000/svg" height="32" width="32" viewBox="0 0 32 32"><title>eyeshadow</title><g fill="#61616b" class="nc-icon-wrapper"><path d="M30.916,4.6a1,1,0,0,0-.759-.586l-17.674-2.8a14.97,14.97,0,0,0-7.841.733L1.649,3.063a1,1,0,1,0,.7,1.874L5.345,3.814a12.759,12.759,0,0,1,6.7-.652c3.34.587,14.1,5.188,14.1,5.188a2.963,2.963,0,0,0,1.075.2,3.021,3.021,0,0,0,2.508-1.333l1.109-1.663A1,1,0,0,0,30.916,4.6Z" fill="#61616b" data-color="color-2"></path><path d="M29.827,17.587c.314-.307.631-.61.923-.942a1,1,0,1,0-1.5-1.323c-.241.274-.5.522-.761.777A17.415,17.415,0,0,0,9.532,14.353a4.071,4.071,0,0,1-5.41-1.483L4.1,12.832a1,1,0,0,0-1.731,1,17.594,17.594,0,0,0,3.554,4.34l.006.011c.007.007.017.01.024.017.431.38.882.734,1.347,1.069A8.565,8.565,0,0,1,1,22a1,1,0,0,0,0,2,10.7,10.7,0,0,0,7.993-3.643,17.579,17.579,0,0,0,3.208,1.4,11.425,11.425,0,0,1-5.582,4.88,1,1,0,0,0,.762,1.849,13.394,13.394,0,0,0,6.8-6.207,17.343,17.343,0,0,0,3.277.332c.006,0,.012,0,.019,0h.13a11.38,11.38,0,0,1-3.791,6.324,1,1,0,1,0,1.3,1.524,13.346,13.346,0,0,0,4.543-7.982,17.483,17.483,0,0,0,3.725-.875A10.937,10.937,0,0,1,22.6,27.35a1,1,0,0,0,.539,1.306.986.986,0,0,0,.384.077,1,1,0,0,0,.924-.616,12.708,12.708,0,0,0,.823-7.307,17.555,17.555,0,0,0,2.984-1.848,11.234,11.234,0,0,1,.589,5.914,1,1,0,0,0,.819,1.153,1.078,1.078,0,0,0,.168.014,1,1,0,0,0,.985-.833,13.1,13.1,0,0,0-.986-7.623Z" fill="#61616b"></path></g></svg>