<svg xmlns="http://www.w3.org/2000/svg" height="48" width="48" viewBox="0 0 48 48"><title>eyeshadow 2</title><g fill="#61616b" class="nc-icon-wrapper"><path d="M40.711,12a8.084,8.084,0,0,1-2.052-.362C24.958,7.994,15.526,3.97,8.91,6.116L2.359,7.729a1,1,0,0,1-.718-1.868L8.179,3.347a19.211,19.211,0,0,1,10.084-.986c6.965,1.164,27.894,4.447,27.894,4.447a1,1,0,0,1,.55,1.694l-1.743,1.743A6.018,6.018,0,0,1,40.711,12Z" fill="#61616b" data-color="color-2"></path><path d="M45.241,29.059c.521-.5,1.028-1.014,1.509-1.56a1,1,0,0,0-1.5-1.322c-.238.27-.484.531-.733.788a24.91,24.91,0,0,0-30.639-3.078,4.04,4.04,0,0,1-5.684-1.231c-.031-.052-.061-.105-.091-.157a1,1,0,0,0-1.731,1,25,25,0,0,0,3.573,4.737c.019.023.026.052.047.074s.048.03.069.049c.505.521,1.025,1.025,1.571,1.5a9.969,9.969,0,0,1-10.085-.483A1,1,0,1,0,.453,31.05a11.967,11.967,0,0,0,12.872.142,25.114,25.114,0,0,0,4.293,2.514A12.846,12.846,0,0,1,8,38a1,1,0,0,0,0,2,14.833,14.833,0,0,0,11.554-5.5,24.873,24.873,0,0,0,4.8,1.217,17.005,17.005,0,0,1-7.733,6.355,1,1,0,0,0,.762,1.85,18.975,18.975,0,0,0,9.188-7.973c.476.027.952.048,1.431.048a24.786,24.786,0,0,0,3.762-.292,16.951,16.951,0,0,1-5.409,8.53,1,1,0,1,0,1.294,1.524,18.923,18.923,0,0,0,6.288-10.491,25.059,25.059,0,0,0,4.258-1.461,16.536,16.536,0,0,1,.19,2.335,16.791,16.791,0,0,1-1.306,6.471,1,1,0,0,0,.539,1.307A.983.983,0,0,0,38,44a1,1,0,0,0,.923-.616,18.5,18.5,0,0,0,1.159-10.527,25.119,25.119,0,0,0,3.587-2.413,16.739,16.739,0,0,1,1.094,9.348,1,1,0,0,0,.819,1.153,1.068,1.068,0,0,0,.168.014,1,1,0,0,0,.985-.833,18.739,18.739,0,0,0-1.494-11.067Z" fill="#61616b"></path></g></svg>