<svg xmlns="http://www.w3.org/2000/svg" height="64" width="64" viewBox="0 0 64 64"><title>eyeshadow 3</title><g fill="#61616b" class="nc-icon-wrapper"><path d="M26.768,12.526l-2.6-2.6a19.279,19.279,0,0,1,8.991-.608c6.966,1.163,27.895,4.446,27.895,4.446a1,1,0,0,1,.55,1.694L59.86,17.2a6.018,6.018,0,0,1-4.253,1.755,8.04,8.04,0,0,1-2.052-.362C41.777,15.46,33.16,12.059,26.768,12.526Z" fill="#61616b"></path><path d="M5.293,7.293l6-6a1,1,0,0,1,1.414,0L27,15.586,19.586,23,5.293,8.707A1,1,0,0,1,5.293,7.293Z" fill="#61616b" data-color="color-2"></path><path d="M17.873,39.761A18.169,18.169,0,0,1,15,40,17.885,17.885,0,0,1,2.294,34.748a1,1,0,0,1,1.412-1.416A15.9,15.9,0,0,0,15,38a16.369,16.369,0,0,0,1.714-.1c-.2-.357-.413-.709-.6-1.076a1,1,0,0,1,1.778-.918l.013.025a2.408,2.408,0,0,0,3.5.82c.669-.45,1.361-.86,2.064-1.249l.81,1.756A3.015,3.015,0,0,0,27,39a15.983,15.983,0,0,0,13.087-6.825,28.115,28.115,0,0,1,17.878,9.293,1.532,1.532,0,0,0,2.283.011l.012-.013a1,1,0,1,1,1.48,1.344c-.4.445-.826.871-1.257,1.287A17.825,17.825,0,0,1,62,51.284c0,.494-.026,1.009-.081,1.572a1,1,0,0,1-.994.905c-.032,0-.065,0-.1-.005a1,1,0,0,1-.9-1.091c.048-.5.071-.951.071-1.381a15.883,15.883,0,0,0-1.1-5.775,28.119,28.119,0,0,1-4.262,2.925A17.985,17.985,0,0,1,55,52a17.781,17.781,0,0,1-1.71,7.619,1,1,0,1,1-1.811-.851A15.794,15.794,0,0,0,53,52a16.031,16.031,0,0,0-.232-2.61,28.08,28.08,0,0,1-6.1,2.019A18.029,18.029,0,0,1,39.319,62.74,1,1,0,1,1,38.171,61.1a16.044,16.044,0,0,0,6.375-9.336A27.7,27.7,0,0,1,41,52a28.091,28.091,0,0,1-2.808-.156,17.972,17.972,0,0,1-12.909,9.843.942.942,0,0,1-.182.017,1,1,0,0,1-.181-1.983,15.966,15.966,0,0,0,11.169-8.167,27.872,27.872,0,0,1-6.379-1.919A17.959,17.959,0,0,1,16,56a1,1,0,0,1,0-2,15.945,15.945,0,0,0,11.841-5.278A27.874,27.874,0,0,1,23.5,45.861a17.974,17.974,0,0,1-17.019-.006,1,1,0,1,1,.949-1.761,15.971,15.971,0,0,0,14.436.353A28.015,28.015,0,0,1,17.873,39.761Z" fill="#61616b"></path><path d="M28.721,16.693l11.7,5.4A1,1,0,0,1,41,23,14.015,14.015,0,0,1,27,37a1,1,0,0,1-.908-.581l-5.4-11.7Z" fill="#61616b" data-color="color-2"></path></g></svg>