<svg xmlns="http://www.w3.org/2000/svg" height="24" width="24" viewBox="0 0 24 24"><title>eyeshadow 4</title><g fill="#61616b" class="nc-icon-wrapper"><path d="M18.193,5.315a9.035,9.035,0,0,1-2.587-.379L10.138,3.3a6.973,6.973,0,0,0-4.225.064l-3.6,1.2a1,1,0,1,1-.632-1.9l3.6-1.2a8.966,8.966,0,0,1,5.431-.083l5.47,1.641a6.978,6.978,0,0,0,3.708.086l1.867-.466a1,1,0,1,1,.486,1.939l-1.868.467A8.949,8.949,0,0,1,18.193,5.315Z" fill="#61616b" data-color="color-2"></path><path d="M22.2,13.14c.184-.186.375-.363.548-.56a1,1,0,1,0-1.5-1.322c-.113.128-.238.241-.356.363A15.324,15.324,0,0,0,12,9a18.783,18.783,0,0,0-5.783,1.091c-.22.068-.439.134-.657.2a1.794,1.794,0,0,1-2.069-.78L3.484,9.5a1,1,0,0,0-1.731,1A13.042,13.042,0,0,0,5.131,14.33l0,0a6,6,0,0,1-1.854,1.214l-.061.026a5.859,5.859,0,0,1-1,.3c-.056.011-.112.02-.169.03A5.977,5.977,0,0,1,1,16a1,1,0,0,0,0,2,8.122,8.122,0,0,0,.913-.055c.041,0,.082-.013.123-.019.271-.035.537-.083.8-.144l.062-.017a7.576,7.576,0,0,0,.842-.256l.011,0a7.864,7.864,0,0,0,1.627-.822l.031-.02a8.111,8.111,0,0,0,.664-.5c.031-.025.064-.049.095-.075.178-.153.349-.317.515-.487.054-.054.111-.1.163-.16l.011-.01a13.051,13.051,0,0,0,1.888.838,8,8,0,0,1-3.714,3.107,1,1,0,1,0,.763,1.849A9.988,9.988,0,0,0,10.762,16.8a12.745,12.745,0,0,0,1.978.194,7.99,7.99,0,0,1-2.569,4.1,1,1,0,0,0,1.3,1.523,9.948,9.948,0,0,0,3.354-5.762,12.965,12.965,0,0,0,2.143-.484l.012.008a7.862,7.862,0,0,1-.59,3.665,1,1,0,0,0,1.847.768A9.877,9.877,0,0,0,19,17a9.772,9.772,0,0,0-.121-1.434,13.068,13.068,0,0,0,1.715-1.036A7.873,7.873,0,0,1,21,17a7.967,7.967,0,0,1-.111,1.312,1,1,0,0,0,.819,1.154,1.053,1.053,0,0,0,.167.013,1,1,0,0,0,.985-.833A9.738,9.738,0,0,0,22.2,13.14Z" fill="#61616b"></path></g></svg>