<svg xmlns="http://www.w3.org/2000/svg" height="24" width="24" viewBox="0 0 24 24"><title>face powder 5</title><g fill="#61616b" class="nc-icon-wrapper"><ellipse cx="12" cy="3.549" rx="9" ry="3.549" fill="#61616b"></ellipse><path d="M11.037,21.926a7,7,0,1,1,5.93-11.852,7.667,7.667,0,0,1,2.607.083A9,9,0,1,0,12,24c.232,0,.46-.018.688-.035A8.059,8.059,0,0,1,11.037,21.926Z" fill="#61616b"></path><circle cx="18" cy="18" r="6" fill="#61616b" data-color="color-2"></circle><path d="M10,18a8,8,0,0,1,4.621-7.241,4.989,4.989,0,1,0-4.45,8.885A8.029,8.029,0,0,1,10,18Z" fill="#61616b" data-color="color-2"></path></g></svg>