<svg xmlns="http://www.w3.org/2000/svg" height="48" width="48" viewBox="0 0 48 48"><title>face powder 3</title><g fill="#61616b" class="nc-icon-wrapper"><path d="M20,33a14.994,14.994,0,0,1,7.418-12.921A11,11,0,1,0,21,40c.245,0,.485-.021.726-.037A14.9,14.9,0,0,1,20,33Z" fill="#61616b" data-color="color-2"></path><circle cx="35" cy="33" r="13" fill="#61616b" data-color="color-2"></circle><path d="M22.912,41.844A12.993,12.993,0,1,1,21,16a12.937,12.937,0,0,1,8.406,3.093,14.9,14.9,0,0,1,4.579-1.042A17,17,0,1,0,26.252,45.16,15.074,15.074,0,0,1,22.912,41.844Z" fill="#61616b"></path><path d="M21,2C11.611,2,4,4.686,4,8s7.611,6,17,6,17-2.686,17-6S30.389,2,21,2ZM17.783,6.118a28.041,28.041,0,0,0-7.839,1.55A1,1,0,1,1,9.235,5.8a30.083,30.083,0,0,1,8.4-1.673,1,1,0,1,1,.146,1.994Z" fill="#61616b"></path></g></svg>