<svg xmlns="http://www.w3.org/2000/svg" height="64" width="64" viewBox="0 0 64 64"><title>face powder 2</title><g fill="#61616b" class="nc-icon-wrapper"><path d="M30,1C15.061,1,7,5.637,7,10s8.061,9,23,9,23-4.637,23-9S44.939,1,30,1ZM23.86,6.311A30.22,30.22,0,0,0,14.737,8.5a1,1,0,0,1-.818-1.825,32.958,32.958,0,0,1,9.73-2.355,1,1,0,1,1,.211,1.989Z" fill="#61616b"></path><path d="M26,46A20.019,20.019,0,0,1,39.463,27.119a15.986,15.986,0,1,0-10.8,28.8A19.858,19.858,0,0,1,26,46Z" fill="#61616b" data-color="color-2"></path><path d="M30.036,58,30,58A18,18,0,1,1,41.809,26.45a19.26,19.26,0,0,1,6.539-.3A23.009,23.009,0,1,0,34.724,62.5,20.136,20.136,0,0,1,30.036,58Z" fill="#61616b"></path><circle cx="46" cy="46" r="17" fill="#61616b" data-color="color-2"></circle></g></svg>