<svg xmlns="http://www.w3.org/2000/svg" height="32" width="32" viewBox="0 0 32 32"><title>face powder 4</title><g fill="#61616b" class="nc-icon-wrapper"><ellipse cx="15" cy="4.5" rx="12" ry="4.5" fill="#61616b"></ellipse><path d="M14.5,29.975a9.993,9.993,0,1,1,6.69-17.813A11.012,11.012,0,0,1,23,12c.325,0,.645.021.963.049A11.992,11.992,0,1,0,15,32a12.152,12.152,0,0,0,1.547-.111A11.089,11.089,0,0,1,14.5,29.975Z" fill="#61616b"></path><path d="M12,23a11.014,11.014,0,0,1,6.664-10.106A7.995,7.995,0,1,0,13.1,27.764,10.926,10.926,0,0,1,12,23Z" fill="#61616b" data-color="color-2"></path><circle cx="23" cy="23" r="9" fill="#61616b" data-color="color-2"></circle></g></svg>