<svg xmlns="http://www.w3.org/2000/svg" height="16" width="16" viewBox="0 0 16 16"><title>face powder</title><g fill="#61616b" class="nc-icon-wrapper"><circle cx="12.5" cy="12.5" r="3.5" fill="#61616b" data-color="color-2"></circle><path d="M7.164,13.808a3.993,3.993,0,1,1,2.253-5.86,5.494,5.494,0,0,1,1.858-.806A6,6,0,1,0,6,16a5.945,5.945,0,0,0,2-.35A5.454,5.454,0,0,1,7.164,13.808Z" fill="#61616b"></path><path d="M7,12.5A5.483,5.483,0,0,1,8.634,8.593a3.012,3.012,0,1,0-1.618,4.218C7.01,12.708,7,12.605,7,12.5Z" fill="#61616b" data-color="color-2"></path><ellipse cx="6" cy="2.5" rx="6" ry="2.5" fill="#61616b"></ellipse></g></svg>