<svg xmlns="http://www.w3.org/2000/svg" height="32" width="32" viewBox="0 0 32 32"><title>hairdresser 4</title><g fill="#61616b" class="nc-icon-wrapper"><path d="M13.361,17.471a5.606,5.606,0,0,0,3.049-3.693.958.958,0,0,0,.022-.119l1.56-12.536A1,1,0,0,0,16.046.7l-4,12.628Z" fill="#61616b"></path><path d="M21.34,26.1l-.608-1.921a4.484,4.484,0,0,0-7.8-1.449L5.954.7a1,1,0,0,0-1.946.425l1.56,12.536a.958.958,0,0,0,.022.119,5.612,5.612,0,0,0,3.653,3.939l.708,2.236-.878,2.775a4.489,4.489,0,0,0-7.805,1.449L.66,26.1a4.537,4.537,0,0,0,2.917,5.687A4.5,4.5,0,0,0,9.232,28.85L11,23.267l1.765,5.577A4.5,4.5,0,1,0,21.34,26.1Zm-13.4.22L7.328,28.24a2.506,2.506,0,0,1-1.245,1.482,2.449,2.449,0,0,1-1.894.159A2.536,2.536,0,0,1,2.566,26.7l.609-1.921A2.5,2.5,0,0,1,4.419,23.3a2.46,2.46,0,0,1,1.9-.158A2.532,2.532,0,0,1,7.936,26.318Zm9.876,3.563a2.452,2.452,0,0,1-1.9-.159,2.506,2.506,0,0,1-1.245-1.482l-.61-1.926a2.534,2.534,0,0,1,1.625-3.174,2.458,2.458,0,0,1,1.894.158,2.5,2.5,0,0,1,1.245,1.482l.608,1.921A2.536,2.536,0,0,1,17.812,29.881Z" fill="#61616b"></path><path d="M28.273,0H22a1,1,0,0,0,0,2h5a1,1,0,0,1,0,2H22a1,1,0,0,0,0,2h5a1,1,0,0,1,0,2H22a1,1,0,0,0,0,2h5a1,1,0,0,1,0,2H22a1,1,0,0,0,0,2h5a1,1,0,0,1,0,2H22a1,1,0,0,0,0,2h2.541a2,2,0,0,1,1.98,2.282L25.01,30.858A1,1,0,0,0,26,32h5a1,1,0,0,0,1-1V3.728A3.732,3.732,0,0,0,28.273,0Z" fill="#61616b" data-color="color-2"></path></g></svg>