<svg xmlns="http://www.w3.org/2000/svg" height="16" width="16" viewBox="0 0 16 16"><title>hair clipper</title><g fill="#61616b" class="nc-icon-wrapper"><path d="M12,0a1,1,0,0,0-1,1V2H9V1A1,1,0,0,0,7,1V2H5V1A1,1,0,0,0,3,1V4H13V1A1,1,0,0,0,12,0Z" fill="#61616b" data-color="color-2"></path><path d="M8,12.5A1.5,1.5,0,1,1,9.5,11,1.5,1.5,0,0,1,8,12.5Z" fill="#61616b" data-color="color-2"></path><path d="M8,16a5.006,5.006,0,0,1-5-5V5H13v6A5.006,5.006,0,0,1,8,16ZM5,7v4a3,3,0,0,0,6,0V7Z" fill="#61616b"></path></g></svg>