<svg xmlns="http://www.w3.org/2000/svg" height="48" width="48" viewBox="0 0 48 48"><title>hair gel 3</title><g fill="#61616b" class="nc-icon-wrapper"><path d="M41,19V15a1,1,0,0,0-1-1H8a1,1,0,0,0-1,1v4a5.006,5.006,0,0,0-5,5V41a5.006,5.006,0,0,0,5,5H41a5.006,5.006,0,0,0,5-5V24A5.006,5.006,0,0,0,41,19ZM36,38a1,1,0,0,1-1,1H13a1,1,0,0,1-1-1V27a1,1,0,0,1,1-1H35a1,1,0,0,1,1,1Z" fill="#61616b"></path><path d="M11,12H36.552a1,1,0,0,0,.908-.582c.832-1.809,2.189-6.379-3.145-9.747a1,1,0,0,0-1.353.271C31.817,3.577,30.591,4,27,4H17a7.009,7.009,0,0,0-7,7A1,1,0,0,0,11,12Z" fill="#61616b" data-color="color-2"></path></g></svg>