<svg xmlns="http://www.w3.org/2000/svg" height="48" width="48" viewBox="0 0 48 48"><title>hair towel 3</title><g fill="#61616b" class="nc-icon-wrapper"><path d="M31,9c-6.253,0-8.939,3.126-10.912,6.5A1,1,0,0,1,18.361,14.5C20.524,10.789,23.719,7,31,7a13.175,13.175,0,0,1,6.068,1.456C35.431,5.192,31.818,1,24,1a8.009,8.009,0,0,0-8,8,1,1,0,0,1-2,0,9.947,9.947,0,0,1,2.533-6.628C9.759,4.973,5,11,5,18A15.739,15.739,0,0,0,9.259,28.671a.994.994,0,0,0,1.057.277c5.857-1.952,8.161-6.163,10.142-9.936,11.043.375,16.629,9.411,16.686,9.5a1.266,1.266,0,0,0,.2.242,1,1,0,0,0,.681.268h.043a1,1,0,0,0,.7-.328C41.5,25.683,42,23.151,42,19.253,42,14.3,37.58,9,31,9Z" fill="#61616b" data-color="color-2"></path><path d="M38.159,31.023l-.131,0a3,3,0,0,1-2.045-.8,3.365,3.365,0,0,1-.55-.671,19.5,19.5,0,0,0-13.815-8.458c-1.885,3.492-4.62,7.736-10.669,9.753a2.825,2.825,0,0,1-1.758.029C10.29,39.989,16.5,47,24,47s13.691-6.99,14.8-16.083A2.917,2.917,0,0,1,38.159,31.023Z" fill="#61616b"></path></g></svg>