<svg xmlns="http://www.w3.org/2000/svg" height="32" width="32" viewBox="0 0 32 32"><title>hair straightener 5</title><g fill="#61616b" class="nc-icon-wrapper"><path d="M31.548,12.9a1,1,0,0,0-1.368-.395L16.511,20.183a1,1,0,0,0-.511.872v2.5l-8,4.5c0-.017,0-.032,0-.049a3.929,3.929,0,0,0-4.071-3.955L8.447,16h2.5a1,1,0,0,0,.872-.511L19.493,1.82A1,1,0,0,0,19.1.452a3.727,3.727,0,0,0-5.047,1.485L7,14.5l-.018.032S.478,26.136.465,26.165a3.97,3.97,0,0,0,5.37,5.37c.029-.013,11.638-6.515,11.638-6.515L17.505,25l12.558-7.053A3.727,3.727,0,0,0,31.548,12.9ZM4,29.5A1.5,1.5,0,1,1,5.5,28,1.5,1.5,0,0,1,4,29.5Z" fill="#61616b"></path></g></svg>