<svg xmlns="http://www.w3.org/2000/svg" height="48" width="48" viewBox="0 0 48 48"><title>hair straightener 2</title><g fill="#61616b" class="nc-icon-wrapper"><path d="M46.3,19.51l-.205-.378a1,1,0,0,0-1.37-.394L24.509,30.129A1,1,0,0,0,24,31v2.312A4,4,0,0,1,21.963,36.8L11.906,42.464A5.614,5.614,0,0,0,12,41.5,5.5,5.5,0,0,0,6.5,36a5.614,5.614,0,0,0-.964.094L11.2,26.037A4,4,0,0,1,14.688,24H17a1,1,0,0,0,.871-.509L29.262,3.274a1,1,0,0,0-.394-1.37l-.378-.2a5.262,5.262,0,0,0-3.516-.6A4.969,4.969,0,0,0,21.549,3.6S1.838,38.6,1.829,38.622a5.48,5.48,0,0,0,7.549,7.549C9.4,46.162,44.4,26.451,44.4,26.451a4.969,4.969,0,0,0,2.507-3.425A5.262,5.262,0,0,0,46.3,19.51ZM4.736,43.259a2.5,2.5,0,1,1,3.528,0A2.553,2.553,0,0,1,4.736,43.259Z" fill="#61616b"></path></g></svg>