<svg xmlns="http://www.w3.org/2000/svg" height="16" width="16" viewBox="0 0 16 16"><title>hairdresser 5</title><g fill="#61616b" class="nc-icon-wrapper"><path d="M10.292,6.094l2.581-4.606A1,1,0,0,0,11.127.512L9.146,4.048Z" fill="#61616b" data-color="color-2"></path><path d="M8.573,9.164,7.427,7.117,5.743,10.123A2.97,2.97,0,0,0,.9,10.6l-.5.866a3.005,3.005,0,0,0,1.1,4.1h0a3,3,0,0,0,4.1-1.1ZM2.5,13.831a1,1,0,0,1-.366-1.366l.5-.865a1,1,0,0,1,1.832.24.989.989,0,0,1-.1.759l-.5.866A1,1,0,0,1,2.5,13.831Z" fill="#61616b"></path><path d="M15.6,11.465l-.5-.867a2.972,2.972,0,0,0-4.841-.475L4.873.512a1,1,0,0,0-1.746.976L10.4,14.465a3,3,0,0,0,4.1,1.1h0A3.005,3.005,0,0,0,15.6,11.465Zm-2.1,2.366a1,1,0,0,1-1.366-.366l-.5-.866a1,1,0,0,1,1.733-1l.5.866A1,1,0,0,1,13.5,13.831Z" fill="#61616b"></path></g></svg>