<svg xmlns="http://www.w3.org/2000/svg" height="64" width="64" viewBox="0 0 64 64"><title>hair clipper 2</title><g fill="#61616b" class="nc-icon-wrapper"><path d="M46,1a1,1,0,0,0-1,1V5H42V2a1,1,0,0,0-2,0V5H37V2a1,1,0,0,0-2,0V5H32V2a1,1,0,0,0-2,0V5H27V2a1,1,0,0,0-2,0V5H22V2a1,1,0,0,0-2,0V5H17V2a1,1,0,0,0-2,0V7H47V2A1,1,0,0,0,46,1Z" fill="#61616b" data-color="color-2"></path><path d="M31,47a2,2,0,1,1,2-2A2,2,0,0,1,31,47Z" fill="#61616b" data-color="color-2"></path><path d="M31,41a3.959,3.959,0,0,1,2,.556V35a2,2,0,0,0-4,0v6.556A3.959,3.959,0,0,1,31,41Z" fill="#61616b"></path><path d="M15,9l.005,13a1.849,1.849,0,0,0,.01.2l3,30.12a13.225,13.225,0,0,0,25.974-.091l3-30.127a1.875,1.875,0,0,0,.01-.2V9ZM35,45a4,4,0,0,1-8,0V35a4,4,0,0,1,8,0Zm7.643-27.216A4,4,0,0,1,38.721,21H23.976a4,4,0,0,1-3.831-2.851L18,11H44Z" fill="#61616b"></path><path d="M56.606,37.394a13,13,0,0,1,0-18.385A1,1,0,0,0,55.192,17.6a15,15,0,0,0,0,21.213A12.99,12.99,0,0,1,41.923,60.329a15.437,15.437,0,0,1-1.693,1.51A15,15,0,0,0,56.606,37.394Z" fill="#61616b" data-color="color-2"></path></g></svg>