<svg xmlns="http://www.w3.org/2000/svg" height="64" width="64" viewBox="0 0 64 64"><title>hair man 2</title><g fill="#61616b" class="nc-icon-wrapper"><path d="M56.185,60.018,45.079,57.936A5.005,5.005,0,0,1,41,53.021V48.3C48.027,43.874,53,34.525,53,24c0-.049-.007-.1-.007-.144,0-.01.006-.019.006-.029C52.946,3.643,43.458,2,32,2,20.521,2,11.017,3.654,11,23.953c0,.016,0,.032,0,.047,0,10.525,4.973,19.874,12,24.3v4.724a5.005,5.005,0,0,1-4.079,4.915L7.815,60.018a1,1,0,1,0,.37,1.964L19.29,59.9A7,7,0,0,0,25,53.021v-3.63a16.031,16.031,0,0,0,14,0v3.63A7,7,0,0,0,44.71,59.9l11.1,2.082a1,1,0,1,0,.37-1.964ZM32,49c-9.771,0-18.1-10.307-18.927-22.937A7,7,0,0,1,20,20H33a9,9,0,0,0,7.753-4.433,13.891,13.891,0,0,0,10.233,9.088C50.712,37.918,42.132,49,32,49Z" fill="#61616b"></path></g></svg>