<svg xmlns="http://www.w3.org/2000/svg" height="16" width="16" viewBox="0 0 16 16"><title>hair woman</title><g fill="#61616b" class="nc-icon-wrapper"><path d="M15.5,9.983A8.95,8.95,0,0,1,15,7.171,7.193,7.193,0,0,0,8.425.013,7.007,7.007,0,0,0,1,7,8.92,8.92,0,0,1,.5,9.983c-.5,1.636-.717,2.82.6,5.452a1.007,1.007,0,0,0,1.042.555l2.141-.306A2,2,0,0,0,6,13.7V12.4A5.946,5.946,0,0,1,4.149,10.57l.118-.156A2.207,2.207,0,0,0,4.475,8.1L3.614,6.381A5.884,5.884,0,0,0,9.3,2l2.133,2.48a2.2,2.2,0,0,1,.256,2.51l-.32.576a2.207,2.207,0,0,0,.3,2.561l.3.33A5.962,5.962,0,0,1,10,12.429V13.7a2,2,0,0,0,1.717,1.98l2.141.306A.978.978,0,0,0,14,16a1,1,0,0,0,.895-.553C16.215,12.807,16,11.621,15.5,9.983Z" fill="#61616b"></path></g></svg>