<svg xmlns="http://www.w3.org/2000/svg" height="64" width="64" viewBox="0 0 64 64"><title>hairdresser 2</title><g fill="#61616b" class="nc-icon-wrapper"><path d="M41.752,51.278l-1.564-5.033a6.917,6.917,0,0,0-6.114-5.1h0a6.924,6.924,0,0,0-6.72,3.8l-2.524-7.583a2.985,2.985,0,0,0-1.784-5.356l-9.1-27.32A1,1,0,0,0,12,5.093l2.025,21.643a9.045,9.045,0,0,0,6.023,7.752,2.952,2.952,0,0,0,2.879,3.505l5.5,16.89a6.921,6.921,0,0,0,6.115,5.1c.185.014.37.021.553.021a6.891,6.891,0,0,0,6.653-8.722ZM23,36a1,1,0,1,1,1-1A1,1,0,0,1,23,36Zm11.7,21.984a4.928,4.928,0,0,1-4.353-3.658l-1.564-5.033a4.9,4.9,0,0,1,4.733-6.166c.13,0,.262,0,.394.016A4.927,4.927,0,0,1,38.268,46.8l1.563,5.034a4.842,4.842,0,0,1,.153,1.649A4.9,4.9,0,0,1,34.705,57.984Z" fill="#61616b"></path><path data-color="color-2" d="M54,4H42a1,1,0,0,0-1,1h0a1,1,0,0,0,1,1h9a1,1,0,0,1,0,2H42a1,1,0,0,0-1,1h0a1,1,0,0,0,1,1h9a1,1,0,0,1,0,2H42a1,1,0,0,0-1,1h0a1,1,0,0,0,1,1h9a1,1,0,0,1,0,2H42a1,1,0,0,0-1,1h0a1,1,0,0,0,1,1h9a1,1,0,0,1,0,2H42a1,1,0,0,0-1,1h0a1,1,0,0,0,1,1h9a1,1,0,0,1,0,2H42a1,1,0,0,0-1,1h0a1,1,0,0,0,1,1h9a1,1,0,0,1,0,2H42a1,1,0,0,0-1,1h0a1,1,0,0,0,1,1h9a1,1,0,0,1,0,2H42a1,1,0,0,0-1,1h0a1,1,0,0,0,1,1h9a1,1,0,0,1,0,2H42a1,1,0,0,0-1,1h0a1,1,0,0,0,1,1h6.278a3,3,0,0,1,2.962,3.475L48.017,58.817A1,1,0,0,0,49,60h9a1,1,0,0,0,1-1V9A5,5,0,0,0,54,4Z" fill="#61616b"></path><path d="M21.946,41.367,21.4,39.728a4.972,4.972,0,0,1-.879-.414l-1.874,5.628a6.918,6.918,0,0,0-6.72-3.794h0a6.9,6.9,0,0,0-6.1,5.059L4.237,51.315A6.893,6.893,0,0,0,10.9,60c.184,0,.369-.007.554-.021a6.91,6.91,0,0,0,6.1-5.059Zm-6.308,13a4.9,4.9,0,0,1-9.622-.878,4.819,4.819,0,0,1,.142-1.613l1.585-5.109a4.9,4.9,0,0,1,9.622.879,4.818,4.818,0,0,1-.13,1.541l-.007.023a.486.486,0,0,0-.007.055Z" fill="#61616b"></path><path d="M33.206,4.021a1,1,0,0,0-1.155.664l-8,24.018.518,1.557A5.037,5.037,0,0,1,27.787,33.6a9.006,9.006,0,0,0,4.183-6.854L34,5.093A1,1,0,0,0,33.206,4.021Z" fill="#61616b"></path></g></svg>