<svg xmlns="http://www.w3.org/2000/svg" height="24" width="24" viewBox="0 0 24 24"><title>hair gel</title><g fill="#61616b" class="nc-icon-wrapper"><path d="M21,11V9a1,1,0,0,0-1-1H4A1,1,0,0,0,3,9v2a3,3,0,0,0-3,3v7a3,3,0,0,0,3,3H21a3,3,0,0,0,3-3V14A3,3,0,0,0,21,11Zm-3,9a1,1,0,0,1-1,1H7a1,1,0,0,1-1-1V15a1,1,0,0,1,1-1H17a1,1,0,0,1,1,1Z" fill="#61616b"></path><path d="M19.041,4.024A6.46,6.46,0,0,0,16.572.18a1,1,0,0,0-1.464.367A2.723,2.723,0,0,1,13,2H9A4,4,0,0,0,5,6H18.994A5.218,5.218,0,0,0,19.041,4.024Z" fill="#61616b" data-color="color-2"></path></g></svg>