<svg xmlns="http://www.w3.org/2000/svg" height="64" width="64" viewBox="0 0 64 64"><title>hair straightener 3</title><g fill="#61616b" class="nc-icon-wrapper"><path d="M35.965,19.771a1,1,0,0,1-.88-1.474A17.032,17.032,0,0,1,45.931,9.864l3.413-.854a3.011,3.011,0,0,0,1.92-1.5l2.664-4.985a1,1,0,1,1,1.763.944L53.027,8.456a5.009,5.009,0,0,1-3.2,2.493l-3.413.855a15.025,15.025,0,0,0-9.569,7.44A1,1,0,0,1,35.965,19.771Z" fill="#61616b" data-color="color-2"></path><path d="M35,30a1,1,0,0,1-.88-1.474l4.487-8.334A13.024,13.024,0,0,1,46.9,13.745l3.414-.854A7.013,7.013,0,0,0,54.791,9.4l3.672-6.87a1,1,0,0,1,1.764.944l-3.672,6.87A9.016,9.016,0,0,1,50.8,14.83l-3.414.855a11.023,11.023,0,0,0-7.018,5.456l-4.487,8.333A1,1,0,0,1,35,30Z" fill="#61616b" data-color="color-2"></path><path d="M43.008,23.563a1,1,0,0,1-.879-1.474,9.018,9.018,0,0,1,5.742-4.464l3.413-.854a11.013,11.013,0,0,0,7.034-5.487l1.8-3.367a1,1,0,0,1,1.764.943l-1.8,3.368a13.027,13.027,0,0,1-8.312,6.483l-3.414.854a7.016,7.016,0,0,0-4.467,3.473A1,1,0,0,1,43.008,23.563Z" fill="#61616b" data-color="color-2"></path><path d="M61.239,26.458l-.074-.138a1,1,0,0,0-1.366-.4L32.514,41.127A1,1,0,0,0,32,42v3.426L15.837,54.532a6.909,6.909,0,0,0-6.368-6.369L18.574,32H22a1,1,0,0,0,.873-.514L38.078,4.2a1,1,0,0,0-.4-1.366l-.135-.073a6.275,6.275,0,0,0-8.5,2.5L3.075,51.36l-.005.015a6.926,6.926,0,0,0,9.549,9.558c.006,0,.014,0,.021-.008L58.721,34.962a6.274,6.274,0,0,0,2.518-8.5ZM9,58a3,3,0,1,1,3-3A3,3,0,0,1,9,58Z" fill="#61616b"></path></g></svg>