<svg xmlns="http://www.w3.org/2000/svg" height="32" width="32" viewBox="0 0 32 32"><title>hair gel 4</title><g fill="#61616b" class="nc-icon-wrapper"><path d="M28,13.142V10a1,1,0,0,0-1-1H5a1,1,0,0,0-1,1v3.142A4,4,0,0,0,1,17V28a4,4,0,0,0,4,4H27a4,4,0,0,0,4-4V17A4,4,0,0,0,28,13.142ZM24,26a1,1,0,0,1-1,1H9a1,1,0,0,1-1-1V19a1,1,0,0,1,1-1H23a1,1,0,0,1,1,1Z" fill="#61616b"></path><path d="M26.367,4.98A6.355,6.355,0,0,0,23.625.219a1,1,0,0,0-1.4.151A5.281,5.281,0,0,1,18,2H11A5.006,5.006,0,0,0,6,7H26.015A5.4,5.4,0,0,0,26.367,4.98Z" fill="#61616b" data-color="color-2"></path></g></svg>