<svg xmlns="http://www.w3.org/2000/svg" height="24" width="24" viewBox="0 0 24 24"><title>hairdresser</title><g fill="#61616b" class="nc-icon-wrapper"><path d="M21,0H16a1,1,0,0,0-1,1h0a1,1,0,0,0,1,1h4a1,1,0,0,1,1,1h0a1,1,0,0,1-1,1H16a1,1,0,0,0-1,1h0a1,1,0,0,0,1,1h4a1,1,0,0,1,1,1h0a1,1,0,0,1-1,1H16a1,1,0,0,0-1,1h0a1,1,0,0,0,1,1h4a1,1,0,0,1,1,1h0a1,1,0,0,1-1,1H16a1,1,0,0,0-1,1h0a1,1,0,0,0,1,1h1.79a1,1,0,0,1,1,1.1l-.78,7.8A1,1,0,0,0,19,24h4a1,1,0,0,0,1-1V3A3,3,0,0,0,21,0Z" fill="#61616b" data-color="color-2"></path><path d="M12.5,15a3.464,3.464,0,0,0-2.212.811L4.942.667a1,1,0,0,0-1.936.443l.846,7.611A3.987,3.987,0,0,0,5.61,11.608l1.284.854L5.712,15.811A3.464,3.464,0,0,0,3.5,15,3.5,3.5,0,0,0,0,18.5v2a3.5,3.5,0,0,0,7,0v-2c0-.088-.019-.17-.026-.256L8,15.338l1.026,2.906C9.019,18.33,9,18.412,9,18.5v2a3.5,3.5,0,0,0,7,0v-2A3.5,3.5,0,0,0,12.5,15ZM5,20.5a1.5,1.5,0,0,1-3,0v-2a1.5,1.5,0,0,1,3,0Zm9,0a1.5,1.5,0,0,1-3,0v-2a1.5,1.5,0,0,1,3,0Z" fill="#61616b"></path><path d="M12.148,8.721l.846-7.611A1,1,0,0,0,11.058.667l-2,5.658L10.8,11.263A3.967,3.967,0,0,0,12.148,8.721Z" fill="#61616b"></path></g></svg>