<svg xmlns="http://www.w3.org/2000/svg" height="16" width="16" viewBox="0 0 16 16"><title>hair man</title><g fill="#61616b" class="nc-icon-wrapper"><path d="M13.191,1.761C11.764.183,9.545,0,8,0,6.426,0,4.169.188,2.746,1.814,1.614,3.108,1.224,5,1.549,7.606c0,.026,0,.046.007.073C1.584,11.71,4.167,16,8,16s6.416-4.29,6.444-8.321c.016-.121.007-.231.015-.348.005-.028.022-.051.025-.079C14.731,4.793,14.309,3,13.191,1.761ZM8,14c-2.319,0-4.1-2.8-4.4-5.584a2.865,2.865,0,0,1,2.84-2.527H8a4.049,4.049,0,0,0,1.83-.438,4.824,4.824,0,0,0,2.6,2.424C12.328,10.82,10.47,14,8,14Z" fill="#61616b"></path></g></svg>