<svg xmlns="http://www.w3.org/2000/svg" height="16" width="16" viewBox="0 0 16 16"><title>hair gel 5</title><g fill="#61616b" class="nc-icon-wrapper"><path d="M14,6H2A2,2,0,0,0,0,8v6a2,2,0,0,0,2,2H14a2,2,0,0,0,2-2V8A2,2,0,0,0,14,6Zm-2,6.5a.5.5,0,0,1-.5.5h-7a.5.5,0,0,1-.5-.5v-3A.5.5,0,0,1,4.5,9h7a.5.5,0,0,1,.5.5Z" fill="#61616b"></path><path d="M11.688.036a.51.51,0,0,0-.467.035.476.476,0,0,0-.22.4C10.977.654,10.631,1,9.5,1h-4A2.5,2.5,0,0,0,3,3.5a.5.5,0,0,0,.5.5h9.334a.5.5,0,0,0,.488-.392A2.842,2.842,0,0,0,11.688.036Z" fill="#61616b" data-color="color-2"></path></g></svg>