<svg xmlns="http://www.w3.org/2000/svg" height="64" width="64" viewBox="0 0 64 64"><title>hair towel 2</title><g fill="#61616b" class="nc-icon-wrapper"><path d="M51.2,41.5a2.927,2.927,0,0,1-.725-.09,2.965,2.965,0,0,1-2-1.652,22,22,0,0,0-17.327-12.6c-.045.068-.091.134-.137.2-3.3,4.826-7.359,10.762-16.884,13.367a3.049,3.049,0,0,1-.789.1,3,3,0,0,1-1.27-.286C13.42,53.012,22.017,63,32,63c9.546,0,18.1-9.594,19.8-21.565A2.982,2.982,0,0,1,51.2,41.5Z" fill="#61616b"></path><path d="M44,15c-7.148,0-10.7,3.022-12.988,5.656A1,1,0,0,1,29.5,19.344C32.073,16.39,36.044,13,44,13a14.586,14.586,0,0,1,8.833,3A13.016,13.016,0,0,0,41.522,5.1l-.014-.009a12.994,12.994,0,0,0-10.7,3.72,1,1,0,0,1-1.414-1.414,14.874,14.874,0,0,1,8.8-4.275A21.045,21.045,0,0,0,29,1C16.869,1,7,11.317,7,24a21.941,21.941,0,0,0,5.584,14.492,1.007,1.007,0,0,0,1.014.3c8.815-2.41,12.485-7.776,15.722-12.511.284-.414.564-.824.845-1.227A23.918,23.918,0,0,1,50.289,38.924a1,1,0,0,0,.673.552.979.979,0,0,0,.234.028,1,1,0,0,0,.616-.212A13.578,13.578,0,0,0,57,28.5,13.272,13.272,0,0,0,44,15Z" fill="#61616b" data-color="color-2"></path></g></svg>