<svg xmlns="http://www.w3.org/2000/svg" height="16" width="16" viewBox="0 0 16 16"><title>hair towel</title><g fill="#61616b" class="nc-icon-wrapper"><path d="M12.582,9.729a6.084,6.084,0,0,0-1.089-1.3c0,.025.007.049.007.074C11.5,11.636,9.995,14,8,14c-1.707,0-3.047-1.737-3.4-4.2a8.53,8.53,0,0,1-1.959.473C3.2,13.768,5.382,16,8,16c2.433,0,4.494-1.928,5.219-5.007Z" fill="#61616b"></path><path d="M10.5,3A3.969,3.969,0,0,0,7.672,4.172,1,1,0,1,1,6.257,2.758a5.972,5.972,0,0,1,5.378-1.647A6.5,6.5,0,0,0,1.5,6.5,3.83,3.83,0,0,0,2.525,9.278,7.876,7.876,0,0,0,8,6a6.585,6.585,0,0,1,5.475,3.278C15.359,7.194,14.747,3,10.5,3Z" fill="#61616b" data-color="color-2"></path></g></svg>