<svg xmlns="http://www.w3.org/2000/svg" height="48" width="48" viewBox="0 0 48 48"><title>hair clipper 3</title><g fill="#61616b" class="nc-icon-wrapper"><path d="M24,35a2,2,0,1,1,2-2A2,2,0,0,1,24,35Z" fill="#61616b" data-color="color-2"></path><path d="M36,1a1,1,0,0,0-1,1V4H33V2a1,1,0,0,0-2,0V4H29V2a1,1,0,0,0-2,0V4H25V2a1,1,0,0,0-2,0V4H21V2a1,1,0,0,0-2,0V4H17V2a1,1,0,0,0-2,0V4H13V2a1,1,0,0,0-2,0V6H37V2A1,1,0,0,0,36,1Z" fill="#61616b" data-color="color-2"></path><path d="M11,8v9l.011.148,3.178,21.782a10,10,0,0,0,19.629-.047l3.171-21.735L37,17V8ZM28,33a4,4,0,0,1-8,0V26a4,4,0,0,1,8,0Zm4.8-19.735A4,4,0,0,1,29,16H19a4,4,0,0,1-3.795-2.735L14.117,10H33.883Z" fill="#61616b"></path><path d="M24,29a3.959,3.959,0,0,1,2,.556V26a2,2,0,0,0-4,0v3.556A3.959,3.959,0,0,1,24,29Z" fill="#61616b"></path></g></svg>