<svg xmlns="http://www.w3.org/2000/svg" height="16" width="16" viewBox="0 0 16 16"><title>hair straightener</title><g fill="#61616b" class="nc-icon-wrapper"><path d="M15.725,6.3l-.3-.56a1,1,0,0,0-1.371-.394L8.508,8.477A1,1,0,0,0,8,9.348v1.6L4.866,12.73a2.492,2.492,0,0,0-1.6-1.6L5.05,8h1.6a1,1,0,0,0,.871-.508l3.13-5.542A1,1,0,0,0,10.26.579L9.7.275a2.274,2.274,0,0,0-3.073.9S.291,12.353.281,12.372A2.469,2.469,0,0,0,0,13.5,2.5,2.5,0,0,0,2.5,16a2.465,2.465,0,0,0,1.1-.266c.029-.013,11.213-6.352,11.213-6.352A2.275,2.275,0,0,0,15.725,6.3ZM1.5,13.5a1,1,0,1,1,1,1A1,1,0,0,1,1.5,13.5Z" fill="#61616b"></path></g></svg>