<svg xmlns="http://www.w3.org/2000/svg" height="24" width="24" viewBox="0 0 24 24"><title>hair straightener 4</title><g fill="#61616b" class="nc-icon-wrapper"><path d="M23.668,9.662A1,1,0,0,0,22.273,9.2l-8.757,4.85a1,1,0,0,0-.516.875v1.682l-7.049,3.9a2.975,2.975,0,0,0-.829-1.63h0a2.929,2.929,0,0,0-1.643-.806L7.394,11H9.076a1,1,0,0,0,.875-.516L14.8,1.728A1,1,0,0,0,14.372.35a3,3,0,0,0-4.037,1.212S.381,19.564.37,19.587a2.977,2.977,0,0,0,4.012,4.061c.034-.014,18.05-9.979,18.05-9.979A3,3,0,0,0,23.668,9.662ZM3.707,21.707a1.021,1.021,0,0,1-1.414,0,1,1,0,1,1,1.414-1.414h0A1,1,0,0,1,3.707,21.707Z" fill="#61616b"></path></g></svg>