<svg xmlns="http://www.w3.org/2000/svg" height="24" width="24" viewBox="0 0 24 24"><title>hair towel 5</title><g fill="#61616b" class="nc-icon-wrapper"><path d="M19.014,17.013a2.984,2.984,0,0,1-1.365-.342C16.822,19.771,14.605,22,12,22s-4.815-2.223-5.645-5.315c-.137.052-.263.113-.406.161a2.952,2.952,0,0,1-1.6.08C5.355,21.016,8.4,24,12,24s6.637-2.974,7.645-7.055A3.018,3.018,0,0,1,19.014,17.013Z" fill="#61616b"></path><path d="M15.5,4A6.218,6.218,0,0,0,9.609,7.5,1,1,0,0,1,7.881,6.5,8.212,8.212,0,0,1,15.5,2a8.208,8.208,0,0,1,2.353.345A7.488,7.488,0,0,0,12,0C6.486,0,2,4.037,2,9a8.362,8.362,0,0,0,2.259,5.671,1,1,0,0,0,1.057.277c2.962-.987,4.241-3.108,5.208-4.929a9.977,9.977,0,0,1,7.615,4.49,1.124,1.124,0,0,0,.208.248,1,1,0,0,0,1.408-.072A6.559,6.559,0,0,0,21.5,9.627,5.9,5.9,0,0,0,15.5,4Z" fill="#61616b" data-color="color-2"></path></g></svg>