<svg xmlns="http://www.w3.org/2000/svg" height="32" width="32" viewBox="0 0 32 32"><title>hair clipper 4</title><g fill="#61616b" class="nc-icon-wrapper"><path d="M24,0a1,1,0,0,0-1,1V3H21V1a1,1,0,0,0-2,0V3H17V1a1,1,0,0,0-2,0V3H13V1a1,1,0,0,0-2,0V3H9V1A1,1,0,0,0,7,1V5H25V1A1,1,0,0,0,24,0Z" fill="#61616b" data-color="color-2"></path><path d="M7,7V22.689a9.205,9.205,0,0,0,8.383,9.29A9.009,9.009,0,0,0,25,23V7Zm8.955,18a2,2,0,1,1,2-2A2,2,0,0,1,15.955,25ZM23,13H9V9H23Z" fill="#61616b"></path></g></svg>