<svg xmlns="http://www.w3.org/2000/svg" height="48" width="48" viewBox="0 0 48 48"><title>hairdresser 3</title><g fill="#61616b" class="nc-icon-wrapper"><path d="M40,3H32a1,1,0,0,0-1,1h0a1,1,0,0,0,1,1h7a1,1,0,0,1,0,2H32a1,1,0,0,0-1,1h0a1,1,0,0,0,1,1h7a1,1,0,0,1,0,2H32a1,1,0,0,0-1,1h0a1,1,0,0,0,1,1h7a1,1,0,0,1,0,2H32a1,1,0,0,0-1,1h0a1,1,0,0,0,1,1h7a1,1,0,0,1,0,2H32a1,1,0,0,0-1,1h0a1,1,0,0,0,1,1h7a1,1,0,0,1,0,2H32a1,1,0,0,0-1,1h0a1,1,0,0,0,1,1h7a1,1,0,0,1,0,2H32a1,1,0,0,0-1,1h0a1,1,0,0,0,1,1h3.469a3,3,0,0,1,2.976,3.372l-1.437,11.5A1,1,0,0,0,38,45h6a1,1,0,0,0,1-1V8A5,5,0,0,0,40,3Z" fill="#61616b" data-color="color-2"></path><path d="M15.946,31.376l-1.054-3.169-1.547,4.652a5.462,5.462,0,0,0-9.8,1.18L2.283,37.8h0a5.465,5.465,0,0,0,10.366,3.464Zm-5.193,9.257a3.465,3.465,0,1,1-6.573-2.2l1.258-3.764a3.465,3.465,0,0,1,6.573,2.193v.007Z" fill="#61616b"></path><path d="M20.19,25.126A6.437,6.437,0,0,0,23.48,20L25,4.1a1,1,0,0,0-1.944-.41l-5,15.019Z" fill="#61616b"></path><path d="M31.717,37.8l-1.258-3.766a5.461,5.461,0,0,0-9.8-1.179L10.949,3.685a1,1,0,0,0-1.944.41l1.513,15.88a6.522,6.522,0,0,0,5.733,5.982l5.1,15.311A5.465,5.465,0,1,0,31.717,37.8Zm-4.085,5.017a3.47,3.47,0,0,1-4.385-2.188l-1.256-3.759v0l0-.007a3.465,3.465,0,0,1,6.574-2.192l1.258,3.765A3.468,3.468,0,0,1,27.632,42.821Z" fill="#61616b"></path></g></svg>