<svg xmlns="http://www.w3.org/2000/svg" height="64" width="64" viewBox="0 0 64 64"><title>hair woman 3</title><g fill="#61616b" class="nc-icon-wrapper"><path d="M58.367,40.9A42.288,42.288,0,0,1,56,26,24,24,0,0,0,8,26,42.288,42.288,0,0,1,5.633,40.9c-1.654,5.13-2.85,8.836,1.429,20.449a1,1,0,0,0,1.123.636L19.29,59.9A7,7,0,0,0,25,53.021v-3.61a16.213,16.213,0,0,0,14,0v3.61A7,7,0,0,0,44.71,59.9l11.1,2.082A.985.985,0,0,0,56,62a1,1,0,0,0,.937-.654C61.217,49.733,60.021,46.027,58.367,40.9Zm-39.32.847.038-.045a8,8,0,0,0,.408-9.71L16,27A19,19,0,0,0,34.9,9.96l8.773,9.36a8,8,0,0,1,.83,9.892l-.886,1.336a8,8,0,0,0,1.01,10.078l.648.648C42.156,45.975,37.369,49,32,49,26.812,49,22.167,46.176,19.047,41.744Z" fill="#61616b"></path></g></svg>