<svg xmlns="http://www.w3.org/2000/svg" height="32" width="32" viewBox="0 0 32 32"><title>hair towel 4</title><g fill="#61616b" class="nc-icon-wrapper"><path d="M29,13.5A7.509,7.509,0,0,0,21.5,6c-5.59,0-7.17,3.074-8.565,5.787a1,1,0,1,1-1.778-.914C12.647,7.973,14.689,4,21.5,4a9.439,9.439,0,0,1,3.808.8C24.09,2.545,21.505,0,16,0a6.006,6.006,0,0,0-6,6A1,1,0,0,1,8,6,7.937,7.937,0,0,1,9.214,1.784,11.831,11.831,0,0,0,3,12a11.472,11.472,0,0,0,2.917,7.577,1,1,0,0,0,.75.338.985.985,0,0,0,.3-.046c4.7-1.468,6.358-4.467,7.636-6.946a11.868,11.868,0,0,1,10.058,6.409,1,1,0,0,0,1.64.266A9.153,9.153,0,0,0,29,13.5Z" fill="#61616b" data-color="color-2"></path><path d="M25.573,21.916h0a3.034,3.034,0,0,1-.5-.042,2.99,2.99,0,0,1-2.231-1.709,9.825,9.825,0,0,0-7.1-5.12,13.505,13.505,0,0,1-8.176,6.733,2.954,2.954,0,0,1-.9.137,3,3,0,0,1-.9-.155C6.934,27.553,11.151,32,16,32c4.774,0,9-4.418,10.2-10.154A2.954,2.954,0,0,1,25.573,21.916Z" fill="#61616b"></path></g></svg>