<svg xmlns="http://www.w3.org/2000/svg" height="16" width="16" viewBox="0 0 16 16"><title>incense 2</title><g fill="#61616b" class="nc-icon-wrapper"><path d="M6,9a1,1,0,0,1-.989-.858l-1-7A1,1,0,0,1,5.99.858l1,7A1,1,0,0,1,6,9Z" fill="#61616b" data-color="color-2"></path><path d="M10,9A1,1,0,0,1,9.01,7.858l1-7a1,1,0,0,1,1.98.284l-1,7A1,1,0,0,1,10,9Z" fill="#61616b" data-color="color-2"></path><path d="M13.337,5.852l-.295,2.066C13.646,8.23,14,8.6,14,9c0,1.105-2.686,2-6,2s-6-.895-6-2c0-.4.354-.77.958-1.082l-.3-2.066C1.086,6.48,0,7.49,0,9v3c0,2.949,4.132,4,8,4s8-1.051,8-4V9C16,7.49,14.914,6.48,13.337,5.852Z" fill="#61616b"></path></g></svg>