<svg xmlns="http://www.w3.org/2000/svg" height="24" width="24" viewBox="0 0 24 24"><title>incense 4</title><g fill="#61616b" class="nc-icon-wrapper"><path d="M15.062,7.638l.928-6.5A1,1,0,0,0,14.01.858l-1,7c0,.037.008.071.006.108A10.154,10.154,0,0,0,15.062,7.638Z" fill="#61616b" data-color="color-2"></path><path d="M20.971,12.4C20.679,15.249,17.3,17,12,17s-8.679-1.751-8.971-4.6A2.827,2.827,0,0,0,2,14.5V20c0,2.748,5.184,4,10,4s10-1.252,10-4V14.5A2.827,2.827,0,0,0,20.971,12.4Z" fill="#61616b"></path><path d="M10.984,7.966c0-.037.011-.071.006-.108l-1-7a1,1,0,0,0-1.98.284l.928,6.5A10.154,10.154,0,0,0,10.984,7.966Z" fill="#61616b" data-color="color-2"></path><path d="M17.19,6.883l-.22,1.542a2.957,2.957,0,0,1-.18.651A9.893,9.893,0,0,1,12,10a9.893,9.893,0,0,1-4.79-.924,2.957,2.957,0,0,1-.18-.651L6.81,6.884C5.713,7.372,5,8.069,5,9v3c0,2.072,3.516,3,7,3s7-.928,7-3V9C19,8.069,18.287,7.371,17.19,6.883Z" fill="#61616b"></path></g></svg>