<svg xmlns="http://www.w3.org/2000/svg" height="32" width="32" viewBox="0 0 32 32"><title>incense</title><g fill="#61616b" class="nc-icon-wrapper"><path d="M27,16.479V16.5a3.845,3.845,0,0,1-.569,2.033A1.432,1.432,0,0,1,27,19.5c0,1.427-4.285,3.5-11,3.5S5,20.927,5,19.5a1.432,1.432,0,0,1,.569-.967A3.845,3.845,0,0,1,5,16.5v-.021A3.74,3.74,0,0,0,3,19.5V27c0,3.282,6.54,5,13,5s13-1.718,13-5V19.5A3.74,3.74,0,0,0,27,16.479Z" fill="#61616b"></path><path d="M20.227,10.593l1.262-8.446a1,1,0,1,0-1.978-.294L18.16,10.894A17.848,17.848,0,0,0,20.227,10.593Z" fill="#61616b" data-color="color-2"></path><path d="M16,11c.353,0,.673-.017,1-.03V1a1,1,0,0,0-2,0v9.97C15.327,10.983,15.647,11,16,11Z" fill="#61616b" data-color="color-2"></path><path d="M13.841,10.894,12.489,1.853a1,1,0,1,0-1.978.294l1.262,8.446A17.835,17.835,0,0,0,13.841,10.894Z" fill="#61616b" data-color="color-2"></path><path d="M22.494,8.959l-.306,2.048a2.271,2.271,0,0,1,.785.493C22.608,11.976,20.247,13,16,13s-6.608-1.024-6.973-1.5a2.271,2.271,0,0,1,.785-.493L9.506,8.959C8.049,9.5,7,10.312,7,11.5v5c0,2.763,5.657,3.5,9,3.5s9-.737,9-3.5v-5C25,10.312,23.951,9.5,22.494,8.959Z" fill="#61616b"></path></g></svg>