<svg xmlns="http://www.w3.org/2000/svg" height="64" width="64" viewBox="0 0 64 64"><title>incense 3</title><g fill="#61616b" class="nc-icon-wrapper"><path d="M49,28.41v2.171c3.79,1.41,6,3.209,6,4.919,0,3.215-7.773,6.747-19.314,7.385l2.9,14.925a1,1,0,0,1-.791,1.171A.966.966,0,0,1,37.6,59a1,1,0,0,1-.981-.81L34.5,47.263,32.377,58.19A1,1,0,0,1,31.4,59a.966.966,0,0,1-.191-.019,1,1,0,0,1-.791-1.171L33.3,42.977c-.432.008-.856.023-1.3.023-.566,0-1.114-.017-1.666-.03L27.377,58.19A1,1,0,0,1,26.4,59a.966.966,0,0,1-.191-.019,1,1,0,0,1-.791-1.171l2.9-14.921C16.77,42.252,9,38.715,9,35.5c0-1.71,2.21-3.509,6-4.919V28.41c-5.255,1.85-8,4.515-8,7.09v17c0,4.6,8.762,9.5,25,9.5s25-4.9,25-9.5v-17C57,32.925,54.255,30.26,49,28.41Z" fill="#61616b"></path><path d="M39.541,21.316,43.257,2.19a1,1,0,0,0-1.963-.38L37.435,21.67C38.221,21.567,38.919,21.446,39.541,21.316Z" fill="#61616b" data-color="color-2"></path><path d="M34.421,21.936,38.257,2.19a1,1,0,0,0-1.963-.38L32.372,21.994Q33.455,21.987,34.421,21.936Z" fill="#61616b" data-color="color-2"></path><path d="M31.628,21.994,27.706,1.81a1,1,0,0,0-1.963.38l3.836,19.746Q30.547,21.986,31.628,21.994Z" fill="#61616b" data-color="color-2"></path><path d="M26.565,21.67,22.706,1.81a1,1,0,0,0-1.963.38l3.716,19.126C25.081,21.446,25.779,21.567,26.565,21.67Z" fill="#61616b" data-color="color-2"></path><path d="M42.366,17.262l-.386,1.985c2,.619,3.02,1.324,3.02,1.753,0,.9-4.423,3-13,3s-13-2.1-13-3c0-.429,1.024-1.134,3.02-1.753l-.386-1.985C18.876,18.083,17,19.315,17,21V33c0,3.436,7.775,5,15,5s15-1.564,15-5V21C47,19.315,45.124,18.083,42.366,17.262Z" fill="#61616b"></path></g></svg>