<svg xmlns="http://www.w3.org/2000/svg" height="48" width="48" viewBox="0 0 48 48"><title>incense 5</title><g fill="#61616b" class="nc-icon-wrapper"><path d="M24,18c.428,0,.844-.011,1.251-.029L21.982.812a1,1,0,0,0-1.964.376l3.2,16.8C23.476,17.992,23.733,18,24,18Z" fill="#61616b" data-color="color-2"></path><path d="M26.036,11.405,27.982,1.188A1,1,0,1,0,26.018.812l-1,5.247Z" fill="#61616b" data-color="color-2"></path><path d="M21.156,17.855,17.91.812a1,1,0,0,0-1.965.376l3.117,16.365C19.708,17.678,20.411,17.779,21.156,17.855Z" fill="#61616b" data-color="color-2"></path><path d="M28.937,17.553,32.055,1.188A1,1,0,0,0,30.09.812L26.844,17.855C27.589,17.779,28.292,17.678,28.937,17.553Z" fill="#61616b" data-color="color-2"></path><path d="M31.816,13.128l-.379,1.992C33.068,15.709,34,16.425,34,17c0,1.194-3.988,3-10,3s-10-1.806-10-3c0-.575.933-1.291,2.563-1.88l-.379-1.992C13.7,13.966,12,15.261,12,17v7c0,3.282,6.037,5,12,5s12-1.718,12-5V17C36,15.261,34.3,13.966,31.816,13.128Z" fill="#61616b"></path><path d="M38,22.337V24a4.579,4.579,0,0,1-.048.516C39.882,25.43,41,26.487,41,27.5c0,2.218-5.312,4.653-12.921,5.318l2.094,10.994a1,1,0,0,1-.795,1.17,1.024,1.024,0,0,1-.189.018,1,1,0,0,1-.981-.812l-2.14-11.237-.064,0-2.14,11.235a1,1,0,0,1-.981.812,1.024,1.024,0,0,1-.189-.018,1,1,0,0,1-.795-1.17L23.959,33c-.69,0-1.364-.019-2.027-.048l-2.14,11.237a1,1,0,0,1-.981.812,1.024,1.024,0,0,1-.189-.018,1,1,0,0,1-.795-1.17l2.094-10.994C12.312,32.153,7,29.718,7,27.5c0-1.013,1.119-2.07,3.047-2.986A4.764,4.764,0,0,1,10,24V22.333C6.988,23.582,5,25.312,5,27.5v13C5,45.371,14.789,48,24,48s19-2.629,19-7.5v-13C43,25.311,41.013,23.583,38,22.337Z" fill="#61616b"></path></g></svg>