<svg xmlns="http://www.w3.org/2000/svg" height="16" width="16" viewBox="0 0 16 16"><title>jacuzzi</title><g fill="#61616b" class="nc-icon-wrapper"><path d="M9.708,7A1,1,0,0,1,8.84,5.507a1.224,1.224,0,0,0-.118-1.379,3.209,3.209,0,0,1-.3-3.621,1,1,0,1,1,1.739.986,1.224,1.224,0,0,0,.118,1.379,3.209,3.209,0,0,1,.3,3.621A1,1,0,0,1,9.708,7Z" fill="#61616b" data-color="color-2"></path><path d="M13.708,8a1,1,0,0,1-.868-1.493,1.224,1.224,0,0,0-.118-1.379,3.209,3.209,0,0,1-.3-3.621,1,1,0,1,1,1.739.986,1.224,1.224,0,0,0,.118,1.379,3.209,3.209,0,0,1,.3,3.621A1,1,0,0,1,13.708,8Z" fill="#61616b" data-color="color-2"></path><path d="M1,9.849H15a1,1,0,0,1,1,1V14a2,2,0,0,1-2,2H2a2,2,0,0,1-2-2V10.849A1,1,0,0,1,1,9.849Z" fill="#61616b"></path><circle cx="3" cy="2" r="2" fill="#61616b"></circle><path d="M6.818,8c-.141-.141-2.426-2.429-2.462-2.462l-.021-.021v0A1.979,1.979,0,0,0,3,5,2,2,0,0,0,1,7V8Z" fill="#61616b"></path></g></svg>