<svg xmlns="http://www.w3.org/2000/svg" height="32" width="32" viewBox="0 0 32 32"><title>jacuzzi 4</title><g fill="#61616b" class="nc-icon-wrapper"><path d="M19.418,12a1,1,0,0,1-.815-1.578A2.006,2.006,0,0,0,18.3,7.711a4,4,0,0,1-.531-5.289A1,1,0,0,1,19.4,3.578,2.006,2.006,0,0,0,19.7,6.289a4,4,0,0,1,.531,5.289A1,1,0,0,1,19.418,12Z" fill="#61616b" data-color="color-2"></path><path d="M25.418,14a1,1,0,0,1-.815-1.578A2.006,2.006,0,0,0,24.3,9.711a4,4,0,0,1-.531-5.289A1,1,0,0,1,25.4,5.578,2.006,2.006,0,0,0,25.7,8.289a4,4,0,0,1,.531,5.289A1,1,0,0,1,25.418,14Z" fill="#61616b" data-color="color-2"></path><path d="M7,8a4,4,0,1,1,4-4A4,4,0,0,1,7,8Z" fill="#61616b"></path><path d="M14.648,15,9.9,10.25c-.022-.026-.045-.053-.07-.078A4,4,0,0,0,3,13v2Z" fill="#61616b"></path><path d="M32,19V18a1,1,0,0,0-1-1H1a1,1,0,0,0-1,1v1Z" fill="#61616b"></path><path d="M0,21v7a4,4,0,0,0,4,4H28a4,4,0,0,0,4-4V21Z" fill="#61616b"></path></g></svg>