<svg xmlns="http://www.w3.org/2000/svg" height="48" width="48" viewBox="0 0 48 48"><title>jacuzzi 3</title><g fill="#61616b" class="nc-icon-wrapper"><path d="M12,13a5,5,0,1,1,5-5A5.006,5.006,0,0,1,12,13Z" fill="#61616b"></path><path d="M45,29.088V26a1,1,0,0,0-1-1H4a1,1,0,0,0-1,1v3Z" fill="#61616b"></path><path d="M3,31v9a5.006,5.006,0,0,0,5,5H40a5.006,5.006,0,0,0,5-5V31.088Z" fill="#61616b"></path><path d="M42.418,19a1,1,0,0,1-.869-1.493,3.438,3.438,0,0,0-.327-3.879,5.426,5.426,0,0,1-.511-6.121,1,1,0,1,1,1.74.986,3.438,3.438,0,0,0,.327,3.879,5.426,5.426,0,0,1,.511,6.121A1,1,0,0,1,42.418,19Z" fill="#61616b" data-color="color-2"></path><path d="M34.418,16a1,1,0,0,1-.869-1.493,3.438,3.438,0,0,0-.327-3.879,5.426,5.426,0,0,1-.511-6.121,1,1,0,1,1,1.74.986,3.438,3.438,0,0,0,.327,3.879,5.426,5.426,0,0,1,.511,6.121A1,1,0,0,1,34.418,16Z" fill="#61616b" data-color="color-2"></path><path d="M27.418,19a1,1,0,0,1-.869-1.493,3.438,3.438,0,0,0-.327-3.879,5.426,5.426,0,0,1-.511-6.121,1,1,0,0,1,1.74.986,3.438,3.438,0,0,0,.327,3.879,5.426,5.426,0,0,1,.511,6.121A1,1,0,0,1,27.418,19Z" fill="#61616b" data-color="color-2"></path><path d="M22.06,23l-6.439-6.438a1.113,1.113,0,0,0-.085-.1A5,5,0,0,0,7,20v3Z" fill="#61616b"></path></g></svg>