<svg xmlns="http://www.w3.org/2000/svg" height="64" width="64" viewBox="0 0 64 64"><title>jacuzzi 2</title><g fill="#61616b" class="nc-icon-wrapper"><path d="M15.8,19a7,7,0,1,1,7-7A7.008,7.008,0,0,1,15.8,19Z" fill="#61616b"></path><path d="M4,45V55a6.006,6.006,0,0,0,6,6H54a6.006,6.006,0,0,0,6-6V45Z" fill="#61616b"></path><path d="M59,35H40.332a4.458,4.458,0,0,1-2.039,1.311l-10,3a4.5,4.5,0,0,1-4.87-1.582L21.34,35H5a1,1,0,0,0-1,1v7H60V36A1,1,0,0,0,59,35Z" fill="#61616b"></path><path d="M39.4,31.281a2.5,2.5,0,0,0-3.114-1.676l-8.343,2.5s-6.356-8.316-6.374-8.338A6.991,6.991,0,0,0,9,28v5H20.749l-.364-2.547,4.628,6.064a2.5,2.5,0,0,0,2.706.878l10-3A2.5,2.5,0,0,0,39.4,31.281Z" fill="#61616b"></path><path d="M37.128,25a1,1,0,0,1-.854-1.52,4.89,4.89,0,0,0-.53-5.826,6.86,6.86,0,0,1-.727-8.174,1,1,0,0,1,1.709,1.04,4.89,4.89,0,0,0,.53,5.826,6.86,6.86,0,0,1,.727,8.174A1,1,0,0,1,37.128,25Z" fill="#61616b" data-color="color-2"></path><path d="M56.128,25a1,1,0,0,1-.854-1.52,4.89,4.89,0,0,0-.53-5.826,6.86,6.86,0,0,1-.727-8.174,1,1,0,0,1,1.709,1.04,4.89,4.89,0,0,0,.53,5.826,6.86,6.86,0,0,1,.727,8.174A1,1,0,0,1,56.128,25Z" fill="#61616b" data-color="color-2"></path><path d="M46.128,21a1,1,0,0,1-.854-1.52,4.89,4.89,0,0,0-.53-5.826,6.86,6.86,0,0,1-.727-8.174,1,1,0,0,1,1.709,1.04,4.89,4.89,0,0,0,.53,5.826,6.86,6.86,0,0,1,.727,8.174A1,1,0,0,1,46.128,21Z" fill="#61616b" data-color="color-2"></path></g></svg>