<svg xmlns="http://www.w3.org/2000/svg" height="24" width="24" viewBox="0 0 24 24"><title>jacuzzi 5</title><g fill="#61616b" class="nc-icon-wrapper"><path d="M5.5,7A3.5,3.5,0,1,1,9,3.5,3.5,3.5,0,0,1,5.5,7Z" fill="#61616b"></path><path d="M23,14H1a1,1,0,0,0-1,1v6a3,3,0,0,0,3,3H21a3,3,0,0,0,3-3V15A1,1,0,0,0,23,14Z" fill="#61616b"></path><path d="M19.708,11a1,1,0,0,1-.868-1.493,1.224,1.224,0,0,0-.118-1.379,3.209,3.209,0,0,1-.3-3.621,1,1,0,1,1,1.739.986,1.224,1.224,0,0,0,.118,1.379,3.209,3.209,0,0,1,.3,3.621A1,1,0,0,1,19.708,11Z" fill="#61616b" data-color="color-2"></path><path d="M14.708,10a1,1,0,0,1-.868-1.493,1.224,1.224,0,0,0-.118-1.379,3.209,3.209,0,0,1-.3-3.621,1,1,0,1,1,1.739.986,1.224,1.224,0,0,0,.118,1.379,3.209,3.209,0,0,1,.3,3.621A1,1,0,0,1,14.708,10Z" fill="#61616b" data-color="color-2"></path><path d="M10.949,12,7.975,9.025A3.5,3.5,0,0,0,2,11.5V12Z" fill="#61616b"></path></g></svg>