<svg xmlns="http://www.w3.org/2000/svg" height="64" width="64" viewBox="0 0 64 64"><title>lip gloss 2</title><g fill="#61616b" class="nc-icon-wrapper"><path d="M36,50V19a1,1,0,0,1,1-1H51a1,1,0,0,1,1,1V50Z" fill="#61616b"></path><path d="M52,52v8a1,1,0,0,1-1,1H37a1,1,0,0,1-1-1V52Z" fill="#61616b"></path><path d="M13,45h2V42a1,1,0,0,1,1-1h8a1,1,0,0,1,1,1v3h2a1,1,0,0,1,1,1V60a1,1,0,0,1-1,1H13a1,1,0,0,1-1-1V46A1,1,0,0,1,13,45Z" fill="#61616b"></path><path d="M15,12c0-4,2.239-9,5-9h0c2.761,0,5,5,5,9a5,5,0,0,1-4,4.9V39H19V16.9A5,5,0,0,1,15,12Z" fill="#61616b" data-color="color-2"></path></g></svg>