<svg xmlns="http://www.w3.org/2000/svg" height="16" width="16" viewBox="0 0 16 16"><title>lip gloss 4</title><g fill="#61616b" class="nc-icon-wrapper"><path d="M10,16h4a1,1,0,0,0,1-1V6a1,1,0,0,0-1-1H10A1,1,0,0,0,9,6v9A1,1,0,0,0,10,16Zm3-2H11V7h2Z" fill="#61616b"></path><path d="M2,10H6a1,1,0,0,1,1,1v4a1,1,0,0,1-1,1H2a1,1,0,0,1-1-1V11A1,1,0,0,1,2,10Zm1,4H5V12H3Z" fill="#61616b"></path><path d="M2,3A3.592,3.592,0,0,1,3.606.082a.988.988,0,0,1,.788,0A3.592,3.592,0,0,1,6,3,1.994,1.994,0,0,1,5,4.723V9H3V4.723A1.994,1.994,0,0,1,2,3Z" fill="#61616b" data-color="color-2"></path></g></svg>