<svg xmlns="http://www.w3.org/2000/svg" height="24" width="24" viewBox="0 0 24 24"><title>lip gloss</title><g fill="#61616b" class="nc-icon-wrapper"><path d="M14,7h6a1,1,0,0,1,1,1V23a1,1,0,0,1-1,1H14a1,1,0,0,1-1-1V8A1,1,0,0,1,14,7Zm5,13V9H15V20Z" fill="#61616b"></path><path d="M11,16v7a1,1,0,0,1-1,1H4a1,1,0,0,1-1-1V16a1,1,0,0,1,1-1h6A1,1,0,0,1,11,16ZM5,22H9V17H5Z" fill="#61616b"></path><path d="M4,4C4,2.407,5.2,0,7,0s3,2.407,3,4A3,3,0,0,1,8,6.816V13H6V6.816A3,3,0,0,1,4,4Z" fill="#61616b" data-color="color-2"></path></g></svg>