<svg xmlns="http://www.w3.org/2000/svg" height="48" width="48" viewBox="0 0 48 48"><title>lip gloss 3</title><g fill="#61616b" class="nc-icon-wrapper"><path d="M27,38V16a1,1,0,0,1,1-1H40a1,1,0,0,1,1,1V38Z" fill="#61616b"></path><path d="M41,40v6a1,1,0,0,1-1,1H28a1,1,0,0,1-1-1V40Z" fill="#61616b"></path><path d="M17,29a1,1,0,0,1,1,1v2h2a1,1,0,0,1,1,1V46a1,1,0,0,1-1,1H8a1,1,0,0,1-1-1V33a1,1,0,0,1,1-1h2V30a1,1,0,0,1,1-1Z" fill="#61616b"></path><path d="M9.5,8.5C9.5,5.954,11.088,1,14,1s4.5,4.954,4.5,7.5A4.5,4.5,0,0,1,15,12.879V27H13V12.879A4.5,4.5,0,0,1,9.5,8.5Z" fill="#61616b" data-color="color-2"></path></g></svg>