<svg xmlns="http://www.w3.org/2000/svg" height="32" width="32" viewBox="0 0 32 32"><title>lip gloss 5</title><g fill="#61616b" class="nc-icon-wrapper"><path d="M18,28v3a1,1,0,0,0,1,1h8a1,1,0,0,0,1-1V28Z" fill="#61616b"></path><path d="M28,26V11a1,1,0,0,0-1-1H19a1,1,0,0,0-1,1V26Z" fill="#61616b"></path><path d="M5,32h8a1,1,0,0,0,1-1V21a1,1,0,0,0-1-1H5a1,1,0,0,0-1,1V31A1,1,0,0,0,5,32Z" fill="#61616b"></path><path d="M5.375,5.375C5.375,3.235,6.821,0,9,0s3.625,3.235,3.625,5.375A3.617,3.617,0,0,1,10,8.842V18H8V8.842A3.617,3.617,0,0,1,5.375,5.375Z" fill="#61616b" data-color="color-2"></path></g></svg>