<svg xmlns="http://www.w3.org/2000/svg" height="32" width="32" viewBox="0 0 32 32"><title>lips 4</title><g fill="#61616b" class="nc-icon-wrapper"><path d="M5.947,14.4A11.761,11.761,0,0,1,9,14a10.123,10.123,0,0,1,3.851.813A8.063,8.063,0,0,0,16,15.5a8.063,8.063,0,0,0,3.149-.687A10.128,10.128,0,0,1,23,14a15.836,15.836,0,0,1,3.486.426,23.788,23.788,0,0,0,4.845.565L24.756,9.87A7.591,7.591,0,0,0,20,8a6.954,6.954,0,0,0-3.078.717,2.069,2.069,0,0,1-1.844,0A6.954,6.954,0,0,0,12,8,7.591,7.591,0,0,0,7.244,9.87L.667,14.992A21.108,21.108,0,0,0,5.947,14.4Z" fill="#61616b" data-color="color-2"></path><path d="M26.084,16.385A14.052,14.052,0,0,0,23,16a8.062,8.062,0,0,0-3.148.687A10.129,10.129,0,0,1,16,17.5a10.123,10.123,0,0,1-3.851-.813A8.063,8.063,0,0,0,9,16a9.79,9.79,0,0,0-2.594.346,23.306,23.306,0,0,1-5.816.646C5.289,21.575,10.609,24,16,24s10.712-2.425,15.411-7.008A25.687,25.687,0,0,1,26.084,16.385Z" fill="#61616b"></path></g></svg>