<svg xmlns="http://www.w3.org/2000/svg" height="64" width="64" viewBox="0 0 64 64"><title>lips 2</title><g fill="#61616b" class="nc-icon-wrapper"><path d="M1.179,31.017a20.329,20.329,0,0,0,13.339-1.558A13.7,13.7,0,0,1,19.95,28a12.713,12.713,0,0,1,5.877,1.494,13.412,13.412,0,0,0,12.346,0A12.713,12.713,0,0,1,44.05,28a13.7,13.7,0,0,1,5.432,1.459,20.34,20.34,0,0,0,13.339,1.558l.044-.008a1,1,0,0,0-.243-.291L48.108,19.175A12.838,12.838,0,0,0,40,16a11.863,11.863,0,0,0-5.906,1.553,4.193,4.193,0,0,1-4.188,0A11.863,11.863,0,0,0,24,16a12.834,12.834,0,0,0-8.107,3.174L1.378,30.718a1,1,0,0,0-.243.291Z" fill="#61616b" data-color="color-2"></path><path d="M58.109,33.474A22.1,22.1,0,0,1,48.7,31.3,12.039,12.039,0,0,0,44.05,30a10.74,10.74,0,0,0-5.039,1.311,15.4,15.4,0,0,1-14.022,0A10.74,10.74,0,0,0,19.95,30,12.039,12.039,0,0,0,15.3,31.3,21.98,21.98,0,0,1,2.229,33.208C7.6,38.792,17.885,47,32,47s24.4-8.207,29.77-13.791A26.761,26.761,0,0,1,58.109,33.474Z" fill="#61616b"></path></g></svg>