<svg xmlns="http://www.w3.org/2000/svg" height="24" width="24" viewBox="0 0 24 24"><title>lipstick 2 6</title><g fill="#61616b" class="nc-icon-wrapper"><path d="M10,9H3V6A8.067,8.067,0,0,1,5.875.219a1,1,0,0,1,1.25,0A8.067,8.067,0,0,1,10,6Z" fill="#61616b" data-color="color-2"></path><path d="M21,24H14a1,1,0,0,1-1-1V13a3,3,0,0,1,3-3h3a3,3,0,0,1,3,3V23A1,1,0,0,1,21,24Z" fill="#61616b"></path><path d="M11,15V12a1,1,0,0,0-1-1H3a1,1,0,0,0-1,1v3Z" fill="#61616b"></path><path d="M2,17v4a3,3,0,0,0,3,3H8a3,3,0,0,0,3-3V17Z" fill="#61616b"></path></g></svg>