<svg xmlns="http://www.w3.org/2000/svg" height="16" width="16" viewBox="0 0 16 16"><title>lips</title><g fill="#61616b" class="nc-icon-wrapper"><path d="M15.651,7.742,12.185,4.768a3.494,3.494,0,0,0-3.7-.416,1.08,1.08,0,0,1-.962,0,3.494,3.494,0,0,0-3.7.416L.349,7.742A1,1,0,0,0,.293,9.208C1.921,10.836,4.491,13,8,13s6.079-2.164,7.707-3.792a1,1,0,0,0-.056-1.466Zm-4.917.314C9.472,8.286,9,9,8,9s-1.472-.713-2.734-.943a6.564,6.564,0,0,0-2.744.324L5.081,6.313a1.5,1.5,0,0,1,1.562-.166A3.141,3.141,0,0,0,8,6.5a3.145,3.145,0,0,0,1.358-.353,1.5,1.5,0,0,1,1.562.166L13.478,8.38A6.56,6.56,0,0,0,10.734,8.056Z" fill="#61616b"></path></g></svg>