<svg xmlns="http://www.w3.org/2000/svg" height="32" width="32" viewBox="0 0 32 32"><title>lipstick 6</title><g fill="#61616b" class="nc-icon-wrapper"><path d="M7,24v4a4,4,0,0,0,4,4H21a4,4,0,0,0,4-4V24Z" fill="#61616b"></path><path d="M25,22V19a1,1,0,0,0-1-1H8a1,1,0,0,0-1,1v3Z" fill="#61616b"></path><path data-color="color-2" d="M21,16V2.377h-.007a2.219,2.219,0,0,0-.348-1.3A2.877,2.877,0,0,0,17.706.039,8.5,8.5,0,0,0,14.23,1.408a9.292,9.292,0,0,0-2.094,1.851A4.29,4.29,0,0,0,11.013,6H11V16ZM13.685,4.524a7.268,7.268,0,0,1,1.64-1.442,6.584,6.584,0,0,1,2.626-1.059A3.1,3.1,0,0,1,18.315,2c.39,0,.606.094.656.17.206.315-.448,1.766-2.3,2.976A6.587,6.587,0,0,1,14.049,6.2c-.623.078-.956-.049-1.02-.147C12.937,5.915,13.034,5.32,13.685,4.524Z" fill="#61616b"></path></g></svg>