<svg xmlns="http://www.w3.org/2000/svg" height="64" width="64" viewBox="0 0 64 64"><title>lipstick 2 3</title><g fill="#61616b" class="nc-icon-wrapper"><path d="M56,61H36a1,1,0,0,1-1-1V31a6.006,6.006,0,0,1,6-6H51a6.006,6.006,0,0,1,6,6V60A1,1,0,0,1,56,61Z" fill="#61616b"></path><path d="M24,23H12V15c0-8.478,5.272-11.642,5.5-11.771a.994.994,0,0,1,1.012,0C18.732,3.364,24,6.573,24,15Z" fill="#61616b" data-color="color-2"></path><path d="M29,50V36a1,1,0,0,0-1-1H27V26a1,1,0,0,0-1-1H10a1,1,0,0,0-1,1v9H8a1,1,0,0,0-1,1V50Z" fill="#61616b"></path><path d="M7,52v3a6.006,6.006,0,0,0,6,6H23a6.006,6.006,0,0,0,6-6V52Z" fill="#61616b"></path></g></svg>