<svg xmlns="http://www.w3.org/2000/svg" height="16" width="16" viewBox="0 0 16 16"><title>lipstick 2</title><g fill="#61616b" class="nc-icon-wrapper"><path d="M6.5,8H.5a.5.5,0,0,0-.5.5v6A1.5,1.5,0,0,0,1.5,16h4A1.5,1.5,0,0,0,7,14.5v-6A.5.5,0,0,0,6.5,8ZM5,14H2V10H5Z" fill="#61616b"></path><path d="M3.748.065a.5.5,0,0,0-.5,0A5.076,5.076,0,0,0,1,4.5V6H6V4.5A5.076,5.076,0,0,0,3.748.065Z" fill="#61616b" data-color="color-2"></path><path d="M14.5,7h-4A1.5,1.5,0,0,0,9,8.5v7a.5.5,0,0,0,.5.5h6a.5.5,0,0,0,.5-.5v-7A1.5,1.5,0,0,0,14.5,7ZM14,14H11V9h3Z" fill="#61616b"></path></g></svg>