<svg xmlns="http://www.w3.org/2000/svg" height="48" width="48" viewBox="0 0 48 48"><title>lipstick 5</title><g fill="#61616b" class="nc-icon-wrapper"><path d="M36,31V26a1,1,0,0,0-1-1H13a1,1,0,0,0-1,1v5Z" fill="#61616b"></path><path d="M12,33v9a5.006,5.006,0,0,0,5,5H31a5.006,5.006,0,0,0,5-5V33Z" fill="#61616b"></path><path data-color="color-2" d="M30,23V3.578c0-.009,0-.017,0-.026a2.515,2.515,0,0,0-.4-1.312c-1.184-1.807-4.481-1.6-7.671.489a11.321,11.321,0,0,0-2.563,2.262A5.248,5.248,0,0,0,18.01,8.133c0,.018-.01.033-.01.052V23ZM20.912,6.256A9.363,9.363,0,0,1,23.02,4.4,7.678,7.678,0,0,1,26.914,3a1.2,1.2,0,0,1,1.009.333c.177.27.045.861-.337,1.505A8.458,8.458,0,0,1,24.98,7.4h0a8.431,8.431,0,0,1-3.387,1.362c-.739.093-1.338-.024-1.515-.294C19.862,8.139,20.08,7.274,20.912,6.256Z" fill="#61616b"></path></g></svg>