<svg xmlns="http://www.w3.org/2000/svg" height="32" width="32" viewBox="0 0 32 32"><title>lipstick 2 5</title><g fill="#61616b" class="nc-icon-wrapper"><path d="M12,10H5V6A8.067,8.067,0,0,1,7.875.219a1,1,0,0,1,1.25,0A8.067,8.067,0,0,1,12,6Z" fill="#61616b" data-color="color-2"></path><path d="M30,32H19a1,1,0,0,1-1-1V16a4,4,0,0,1,4-4h5a4,4,0,0,1,4,4V31A1,1,0,0,1,30,32Z" fill="#61616b"></path><path d="M11,26H2v2a4,4,0,0,0,4,4h5a4,4,0,0,0,4-4V26Z" fill="#61616b"></path><path d="M14,18H13V13a1,1,0,0,0-1-1H5a1,1,0,0,0-1,1v5H3a1,1,0,0,0-1,1v5H15V19A1,1,0,0,0,14,18Z" fill="#61616b"></path></g></svg>