<svg xmlns="http://www.w3.org/2000/svg" height="48" width="48" viewBox="0 0 48 48"><title>lipstick 2 4</title><g fill="#61616b" class="nc-icon-wrapper"><path d="M4,40v2a5.006,5.006,0,0,0,5,5h8a5.006,5.006,0,0,0,5-5V40Z" fill="#61616b"></path><path d="M21,27H20V20a1,1,0,0,0-1-1H7a1,1,0,0,0-1,1v7H5a1,1,0,0,0-1,1V38H22V28A1,1,0,0,0,21,27Z" fill="#61616b"></path><path d="M43,47H27a1,1,0,0,1-1-1V24a5.006,5.006,0,0,1,5-5h8a5.006,5.006,0,0,1,5,5V46A1,1,0,0,1,43,47Z" fill="#61616b"></path><path d="M18,17H8V11c0-6.543,4.367-8.8,4.553-8.895a1,1,0,0,1,.894,0C13.633,2.2,18,4.457,18,11Z" fill="#61616b" data-color="color-2"></path></g></svg>