<svg xmlns="http://www.w3.org/2000/svg" height="24" width="24" viewBox="0 0 24 24"><title>lips 5</title><g fill="#61616b" class="nc-icon-wrapper"><path d="M4.041,10.878A7.539,7.539,0,0,1,6.6,10.4a8.712,8.712,0,0,1,3.026.605A6.747,6.747,0,0,0,12,11.5a6.722,6.722,0,0,0,2.376-.5,8.72,8.72,0,0,1,3.024-.6,7.533,7.533,0,0,1,2.558.478,10.79,10.79,0,0,0,3.417.61L19.119,7.582A5.364,5.364,0,0,0,15.3,6a7.282,7.282,0,0,0-3.309.94A7.494,7.494,0,0,0,8.7,6,5.328,5.328,0,0,0,4.913,7.553L.624,11.488A10.778,10.778,0,0,0,4.041,10.878Z" fill="#61616b" data-color="color-2"></path><path d="M19.337,12.779A5.565,5.565,0,0,0,17.4,12.4a6.738,6.738,0,0,0-2.374.5A8.7,8.7,0,0,1,12,13.5a8.7,8.7,0,0,1-3.024-.6A6.754,6.754,0,0,0,6.6,12.4a5.575,5.575,0,0,0-1.938.379,12.79,12.79,0,0,1-4.087.709C2.882,15.786,6.319,19,12,19s9.118-3.214,11.425-5.512A12.8,12.8,0,0,1,19.337,12.779Z" fill="#61616b"></path></g></svg>