<svg xmlns="http://www.w3.org/2000/svg" height="48" width="48" viewBox="0 0 48 48"><title>lips 3</title><g fill="#61616b" class="nc-icon-wrapper"><path d="M10.469,22.883A15.284,15.284,0,0,1,15,22a11.805,11.805,0,0,1,4.87,1.07,9.645,9.645,0,0,0,8.26,0A11.805,11.805,0,0,1,33,22a15.284,15.284,0,0,1,4.531.883,16.493,16.493,0,0,0,8.924.7l-9.608-7.866A10.764,10.764,0,0,0,30,13a9.945,9.945,0,0,0-4.638,1.148,2.946,2.946,0,0,1-2.724,0A9.945,9.945,0,0,0,18,13a10.764,10.764,0,0,0-6.847,2.715L1.544,23.581A16.484,16.484,0,0,0,10.469,22.883Z" fill="#61616b" data-color="color-2"></path><path d="M36.952,24.8A13.579,13.579,0,0,0,33,24a9.986,9.986,0,0,0-4.128.928,11.617,11.617,0,0,1-9.744,0A9.986,9.986,0,0,0,15,24a13.579,13.579,0,0,0-3.952.8,18.719,18.719,0,0,1-9.313.844C6.39,30.215,13.648,36,24,36s17.61-5.785,22.266-10.36A18.745,18.745,0,0,1,36.952,24.8Z" fill="#61616b"></path></g></svg>