<svg xmlns="http://www.w3.org/2000/svg" height="32" width="32" viewBox="0 0 32 32"><title>lotus flower 4</title><g fill="#61616b" class="nc-icon-wrapper"><path d="M16,26a1,1,0,0,1-.688-.274,16.953,16.953,0,0,1,0-24.649,1,1,0,0,1,1.376,0,16.953,16.953,0,0,1,0,24.649A1,1,0,0,1,16,26Z" fill="#61616b"></path><path d="M11.943,27.493A16.98,16.98,0,0,1,2.7,21.586,10.543,10.543,0,0,0,.743,23.147a1,1,0,0,0-.432.824V24a1,1,0,0,0,.31.725,10.461,10.461,0,0,0,7.72,4.25c.248.016.494.025.741.025a10.381,10.381,0,0,0,4.572-1.086Z" fill="#61616b"></path><path d="M8,13.4a19.426,19.426,0,0,1,.118-2.082A14.9,14.9,0,0,0,2,10a1,1,0,0,0-1,1A15.016,15.016,0,0,0,12.421,25.551,18.774,18.774,0,0,1,8,13.4Z" fill="#61616b" data-color="color-2"></path><path d="M20.057,27.493A16.98,16.98,0,0,0,29.3,21.586a10.543,10.543,0,0,1,1.961,1.561,1,1,0,0,1,.432.824V24a1,1,0,0,1-.31.725,10.461,10.461,0,0,1-7.72,4.25c-.248.016-.494.025-.741.025a10.381,10.381,0,0,1-4.572-1.086Z" fill="#61616b"></path><path d="M24,13.4a19.426,19.426,0,0,0-.118-2.082A14.9,14.9,0,0,1,30,10a1,1,0,0,1,1,1A15.016,15.016,0,0,1,19.579,25.551,18.774,18.774,0,0,0,24,13.4Z" fill="#61616b" data-color="color-2"></path></g></svg>