<svg xmlns="http://www.w3.org/2000/svg" height="12" width="12" viewBox="0 0 12 12"><title>lotus flower</title><g fill="#61616b" class="nc-icon-wrapper"><path d="M11.5,4.5a5.537,5.537,0,0,0-1.876.329.5.5,0,0,0,.337.942,4.547,4.547,0,0,1,1.016-.24,5.363,5.363,0,0,1-3.788,4.792A7.661,7.661,0,0,0,8.5,6,7.59,7.59,0,0,0,6.357.65a.516.516,0,0,0-.714,0A7.59,7.59,0,0,0,3.5,6a7.661,7.661,0,0,0,1.311,4.323A5.363,5.363,0,0,1,1.023,5.531a4.547,4.547,0,0,1,1.016.24.5.5,0,0,0,.337-.942A5.537,5.537,0,0,0,.5,4.5.5.5,0,0,0,0,5a6.272,6.272,0,0,0,6,6.5A6.272,6.272,0,0,0,12,5,.5.5,0,0,0,11.5,4.5Z" fill="#61616b"></path></g></svg>