<svg xmlns="http://www.w3.org/2000/svg" height="48" width="48" viewBox="0 0 48 48"><title>makeup foundation 3</title><g fill="#61616b" class="nc-icon-wrapper"><path d="M29,37H19a1,1,0,0,1-1-1V24a1,1,0,0,1,1-1H29a1,1,0,0,1,1,1V36a1,1,0,0,1-1,1Z" fill="#61616b" data-color="color-2"></path><path d="M28,7V3h6a1,1,0,0,0,0-2H21a1,1,0,0,0-1,1V7Z" fill="#61616b" data-color="color-2"></path><path d="M36,16H32V10a1,1,0,0,0-1-1H17a1,1,0,0,0-1,1v6H12a1,1,0,0,0-1,1V46a1,1,0,0,0,1,1H36a1,1,0,0,0,1-1V17A1,1,0,0,0,36,16ZM34.16,38.167a4,4,0,0,1-4,3.833H17.837a4,4,0,0,1-4-3.833l-.8-19.125a1,1,0,0,1,1-1.042H33.957a1,1,0,0,1,1,1.042Z" fill="#61616b"></path></g></svg>