<svg xmlns="http://www.w3.org/2000/svg" height="64" width="64" viewBox="0 0 64 64"><title>makeup mirror 2</title><g fill="#61616b" class="nc-icon-wrapper"><path d="M62,27.025a1,1,0,0,0-2,0,28,28,0,0,1-56,0,1,1,0,0,0-2,0A30.031,30.031,0,0,0,31,57v4H19a1,1,0,1,0,0,2H45a1,1,0,0,0,0-2H33V57A30.03,30.03,0,0,0,62,27.025Z" fill="#61616b"></path><path d="M32,53.025a26,26,0,1,0-26-26A26.029,26.029,0,0,0,32,53.025Zm0-50a24,24,0,1,1-24,24A24.028,24.028,0,0,1,32,3.025Z" fill="#61616b"></path><path d="M50.427,15.012l-14.72,14.72a1,1,0,0,1-1.414-1.414L49.242,13.369A22,22,0,0,0,11.82,35.791L31.293,16.318a1,1,0,1,1,1.414,1.414L12.755,37.685A22,22,0,1,0,50.427,15.012Zm-18.72,18.72-4,4a1,1,0,0,1-1.414-1.414l4-4a1,1,0,0,1,1.414,1.414Z" fill="#61616b" data-color="color-2"></path></g></svg>