<svg xmlns="http://www.w3.org/2000/svg" height="48" width="48" viewBox="0 0 48 48"><title>makeup blush 3</title><g fill="#61616b" class="nc-icon-wrapper"><path d="M41.641,14.6a20.014,20.014,0,1,1-8.192-8.215l2.189-2.217a23.008,23.008,0,1,0,8.211,8.221Z" fill="#61616b"></path><path d="M37.621,18.622,33.846,29.949A3,3,0,0,1,31,32,15.017,15.017,0,0,1,16,17a3,3,0,0,1,2.053-2.846l11.325-3.776,2.527-2.523a18.063,18.063,0,1,0,8.241,8.239Z" fill="#61616b"></path><path d="M45.968,2.207A3.791,3.791,0,0,0,43.229,1a3.851,3.851,0,0,0-2.762,1.131l-8.593,8.582,5.412,5.414,8.6-8.607A3.8,3.8,0,0,0,45.968,2.207Z" fill="#61616b" data-color="color-2"></path><path d="M34.428,16.1,31.8,19.6a1,1,0,0,1-1.6-1.2L33,14.668l-2.542-2.541L18.684,16.052A1,1,0,0,0,18,17,13.015,13.015,0,0,0,31,30a1,1,0,0,0,.948-.684l3.925-11.774Z" fill="#61616b" data-color="color-2"></path></g></svg>