<svg xmlns="http://www.w3.org/2000/svg" height="24" width="24" viewBox="0 0 24 24"><title>makeup mirror 5</title><g fill="#61616b" class="nc-icon-wrapper"><path d="M22,10a10,10,0,1,0-11,9.949V22H7a1,1,0,0,0,0,2H17a1,1,0,0,0,0-2H13V19.949A10.013,10.013,0,0,0,22,10ZM4,10a8,8,0,1,1,8,8A8.009,8.009,0,0,1,4,10Z" fill="#61616b"></path><path d="M18,10a5.98,5.98,0,0,0-.174-1.412l-4.119,4.119a1,1,0,0,1-1.414-1.414L16.96,6.625A6,6,0,0,0,6,10c0,.188.011.374.028.558L9.293,7.293a1,1,0,1,1,1.414,1.414L6.669,12.745A6,6,0,0,0,18,10Z" fill="#61616b" data-color="color-2"></path></g></svg>