<svg xmlns="http://www.w3.org/2000/svg" height="32" width="32" viewBox="0 0 32 32"><title>makeup blush 4</title><g fill="#61616b" class="nc-icon-wrapper"><path d="M30.205,8.668l-1.5,1.487a14.046,14.046,0,1,1-6.86-6.86l1.487-1.5a16.042,16.042,0,1,0,6.873,6.873Z" fill="#61616b"></path><path d="M12.677,10.746,20,8l4,4-2.746,7.323a.979.979,0,0,1-.977.648,9,9,0,0,1-8.248-8.248A.979.979,0,0,1,12.677,10.746Z" fill="#61616b" data-color="color-2"></path><path d="M25.719,13.112l-2.593,6.912a2.992,2.992,0,0,1-2.777,1.951l-.23-.009A10.943,10.943,0,0,1,10.035,11.881a2.986,2.986,0,0,1,1.941-3.008l6.912-2.592L20.335,4.82a12.031,12.031,0,1,0,6.845,6.845Z" fill="#61616b"></path><path d="M31.143,4.914A2.869,2.869,0,0,0,31.159.839h0a2.87,2.87,0,0,0-4.074.018L21.407,6.579l4.007,4.007" fill="#61616b" data-color="color-2"></path></g></svg>