<svg xmlns="http://www.w3.org/2000/svg" height="64" width="64" viewBox="0 0 64 64"><title>makeup brush 2</title><g fill="#61616b" class="nc-icon-wrapper"><polygon points="32.387 39.974 41.236 32.65 31.35 22.764 24.026 31.613 32.387 39.974" fill="#61616b"></polygon><path d="M22.7,33.113,3.172,55.172a4,4,0,0,0,5.656,5.656L30.887,41.3Z" fill="#61616b"></path><path d="M39,2a1,1,0,0,0-.958.713l-5.519,18.4,2.35,2.349,4.314-6.039a1,1,0,1,1,1.626,1.162l-4.507,6.311,2.8,2.8,6.311-4.507a1,1,0,0,1,1.162,1.626l-6.039,4.314,2.349,2.35,18.4-5.518A1,1,0,0,0,62,25,23.025,23.025,0,0,0,39,2Z" fill="#61616b" data-color="color-2"></path></g></svg>