<svg xmlns="http://www.w3.org/2000/svg" height="64" width="64" viewBox="0 0 64 64"><title>makeup cream 2</title><g fill="#61616b" class="nc-icon-wrapper"><path d="M26,44C14.9,44,5.85,41.228,2,37.085V40.52c4.382,3.683,13.106,6.307,23.011,6.472a1,1,0,0,1,.989,1v10a1.007,1.007,0,0,1-1.018,1.006C14.056,58.8,4.939,55.52,2,51.082V52.5C2,57.916,12.317,62,26,62s24-4.084,24-9.5V37.085C46.15,41.229,37.1,44,26,44Z" fill="#61616b"></path><path d="M26,23C12.317,23,2,27.084,2,32.5,2,37.738,12.767,42,26,42s24-4.262,24-9.5C50,27.084,39.683,23,26,23ZM46.564,35C43.539,32.32,35.931,30,26,30S8.461,32.32,5.436,35A3.543,3.543,0,0,1,4,32.5C4,28.952,13.035,25,26,25s22,3.952,22,7.5A3.543,3.543,0,0,1,46.564,35Z" fill="#61616b"></path><path d="M38,2A23.987,23.987,0,0,0,14.547,21.021q1.04-.2,2.131-.365A21.991,21.991,0,1,1,53,42.089v2.634A23.992,23.992,0,0,0,38,2Z" fill="#61616b" data-color="color-2"></path><path d="M26,20c15.9,0,27,5.141,27,12.5v6.691A19.978,19.978,0,1,0,18.84,20.375,66.043,66.043,0,0,1,26,20Z" fill="#61616b" data-color="color-2"></path></g></svg>