<svg xmlns="http://www.w3.org/2000/svg" height="32" width="32" viewBox="0 0 32 32"><title>makeup palette 4</title><g fill="#61616b" class="nc-icon-wrapper"><path d="M28,10H4A4,4,0,0,1,.256,4.6h0L1.736.649A1,1,0,0,1,2.672,0H29.327a1,1,0,0,1,.937.648l1.48,3.946A4,4,0,0,1,28,10ZM1.193,4.946h0Z" fill="#61616b" data-color="color-2"></path><path d="M25.859,12a4,4,0,1,1-7.718,0H13.859a4,4,0,1,1-7.718,0H2V28a4,4,0,0,0,4,4H26a4,4,0,0,0,4-4V12ZM10,28a4,4,0,1,1,4-4A4,4,0,0,1,10,28Zm12,0a4,4,0,1,1,4-4A4,4,0,0,1,22,28Z" fill="#61616b"></path></g></svg>