<svg xmlns="http://www.w3.org/2000/svg" height="24" width="24" viewBox="0 0 24 24"><title>makeup</title><g fill="#61616b" class="nc-icon-wrapper"><path d="M23,19H18.33A9.991,9.991,0,0,0,10,.841V3.082A8,8,0,1,1,14,18a7.888,7.888,0,0,1-3-.6V24H22a2,2,0,0,0,2-2V20A1,1,0,0,0,23,19Z" fill="#61616b"></path><rect y="15" width="9" height="9" rx="1" fill="#61616b"></rect><path d="M7,7H2V1A1,1,0,0,1,3.165.014l3,.5A1,1,0,0,1,7,1.5Z" fill="#61616b" data-color="color-2"></path><path d="M2,9H7a1,1,0,0,1,1,1v3a0,0,0,0,1,0,0H1a0,0,0,0,1,0,0V10A1,1,0,0,1,2,9Z" fill="#61616b"></path></g></svg>