<svg xmlns="http://www.w3.org/2000/svg" height="24" width="24" viewBox="0 0 24 24"><title>makeup cream 5</title><g fill="#61616b" class="nc-icon-wrapper"><path d="M7.687,5.1A7.991,7.991,0,0,1,22,10v5.974A9.988,9.988,0,1,0,5.085,5.494,22.187,22.187,0,0,1,7.687,5.1Z" fill="#61616b" data-color="color-2"></path><path d="M10,7C5.031,7,0,8.546,0,11.5v2.282c1.606,1.756,5,3.019,9.023,3.2a1.006,1.006,0,0,1,.977,1v2a1,1,0,0,1-1.026,1c-4-.185-7.374-1.445-8.974-3.194V19.5C0,22.454,5.031,24,10,24s10-1.546,10-4.5v-8C20,8.546,14.969,7,10,7Zm0,7c-5.176,0-8-1.651-8-2.5S4.824,9,10,9s8,1.651,8,2.5S15.176,14,10,14Z" fill="#61616b"></path></g></svg>