<svg xmlns="http://www.w3.org/2000/svg" height="24" width="24" viewBox="0 0 24 24"><title>makeup palette 5</title><g fill="#61616b" class="nc-icon-wrapper"><path d="M18.45,10a2.577,2.577,0,0,1,.05.5,2.5,2.5,0,0,1-5,0,2.577,2.577,0,0,1,.05-.5h-3.1a2.577,2.577,0,0,1,.05.5,2.5,2.5,0,0,1-5,0,2.577,2.577,0,0,1,.05-.5H2V21a3,3,0,0,0,3,3H19a3,3,0,0,0,3-3V10ZM8,20a2.5,2.5,0,1,1,2.5-2.5A2.5,2.5,0,0,1,8,20Zm8,0a2.5,2.5,0,1,1,2.5-2.5A2.5,2.5,0,0,1,16,20Z" fill="#61616b"></path><path d="M20.892,8a3.11,3.11,0,0,0,2.3-.945,2.983,2.983,0,0,0,.658-3L22.724.684A1,1,0,0,0,21.775,0H2.225a1,1,0,0,0-.949.684L.188,3.948a3.109,3.109,0,0,0,.17,2.477A2.983,2.983,0,0,0,3,8Z" fill="#61616b" data-color="color-2"></path></g></svg>