<svg xmlns="http://www.w3.org/2000/svg" height="64" width="64" viewBox="0 0 64 64"><title>makeup foundation 2</title><g fill="#61616b" class="nc-icon-wrapper"><path d="M48,63H16a1,1,0,0,1-1-1V22a1,1,0,0,1,1-1H48a1,1,0,0,1,1,1V62A1,1,0,0,1,48,63ZM23.7,55H40.3a5,5,0,0,0,4.99-4.687l1.648-26.25a1,1,0,0,0-1-1.063H18.064a1,1,0,0,0-1,1.062l1.641,26.25A5,5,0,0,0,23.7,55Z" fill="#61616b"></path><path d="M39,48H25a1,1,0,0,1-1-1V29a1,1,0,0,1,1-1H39a1,1,0,0,1,1,1V47A1,1,0,0,1,39,48Z" fill="#61616b" data-color="color-2"></path><path d="M48,1H27a1,1,0,0,0-1,1V9H38V3H48a1,1,0,0,0,0-2Z" fill="#61616b" data-color="color-2"></path><path d="M42,19V12a1,1,0,0,0-1-1H23a1,1,0,0,0-1,1v7Z" fill="#61616b"></path></g></svg>