<svg xmlns="http://www.w3.org/2000/svg" height="16" width="16" viewBox="0 0 16 16"><title>makeup 5</title><g fill="#61616b" class="nc-icon-wrapper"><path d="M5,6V2a1,1,0,0,0-.553-.895l-2-1A1,1,0,0,0,1,1V6A1,1,0,0,0,0,7v8a1,1,0,0,0,1,1H5a1,1,0,0,0,1-1V7A1,1,0,0,0,5,6ZM4,14H2V8H4Z" fill="#61616b" data-color="color-2"></path><path d="M15,12H13.889A6.987,6.987,0,0,0,6.567.445,3,3,0,0,1,7,2v.424A4.95,4.95,0,0,1,9,2,5,5,0,0,1,9,12H8v4h6a2,2,0,0,0,2-2V13A1,1,0,0,0,15,12Z" fill="#61616b"></path></g></svg>