<svg xmlns="http://www.w3.org/2000/svg" height="48" width="48" viewBox="0 0 48 48"><title>makeup cream 3</title><g fill="#61616b" class="nc-icon-wrapper"><path d="M19,18c-8.726,0-18,2.629-18,7.5v2.956c2.451,3.6,9.187,6.319,17.016,6.531a1,1,0,0,1,.984,1v6a1,1,0,0,1-1.021,1.005c-7.3-.182-13.5-2.323-16.979-5.5V39.5C1,44.371,10.274,47,19,47s18-2.629,18-7.5v-14C37,20.629,27.726,18,19,18Zm0,13C9.571,31,3,28.1,3,25.5S9.571,20,19,20s16,2.9,16,5.5S28.429,31,19,31Z" fill="#61616b"></path><path d="M19,16c9.633,0,20,2.973,20,9.5v3.279A13.994,13.994,0,1,0,15.294,16.148C16.526,16.049,17.769,16,19,16Z" fill="#61616b" data-color="color-2"></path><path d="M29,1A17.991,17.991,0,0,0,11.166,16.68q1.018-.184,2.07-.318A15.991,15.991,0,1,1,39,31.479v2.486A18,18,0,0,0,29,1Z" fill="#61616b" data-color="color-2"></path></g></svg>