<svg xmlns="http://www.w3.org/2000/svg" height="48" width="48" viewBox="0 0 48 48"><title>makeup brush 3</title><g fill="#61616b" class="nc-icon-wrapper"><path d="M22.336,18.75,1.879,41.879a3,3,0,0,0,4.242,4.242L29.25,25.664Z" fill="#61616b"></path><path d="M31,1a1,1,0,0,0-.916.6L23.366,16.952,24.917,18.5l3.3-4.128a1,1,0,0,1,1.562,1.25l-3.441,4.3,1.734,1.734,4.3-3.441a1,1,0,1,1,1.25,1.562l-4.128,3.3,1.549,1.549L46.4,17.916A1,1,0,0,0,47,17,16.019,16.019,0,0,0,31,1Z" fill="#61616b" data-color="color-2"></path></g></svg>