<svg xmlns="http://www.w3.org/2000/svg" height="16" width="16" viewBox="0 0 16 16"><title>makeup palette</title><g fill="#61616b" class="nc-icon-wrapper"><path d="M15.832,3.445l-2-3A1,1,0,0,0,13,0H3a1,1,0,0,0-.832.445l-2,3A1,1,0,0,0,1,5H15a1,1,0,0,0,.832-1.555Z" fill="#61616b" data-color="color-2"></path><path d="M11.908,7A1.483,1.483,0,0,1,12,7.5a1.5,1.5,0,0,1-3,0A1.483,1.483,0,0,1,9.092,7H6.908A1.483,1.483,0,0,1,7,7.5a1.5,1.5,0,0,1-3,0A1.483,1.483,0,0,1,4.092,7H2v7a2,2,0,0,0,2,2h8a2,2,0,0,0,2-2V7ZM5.5,14A1.5,1.5,0,1,1,7,12.5,1.5,1.5,0,0,1,5.5,14Zm5,0A1.5,1.5,0,1,1,12,12.5,1.5,1.5,0,0,1,10.5,14Z" fill="#61616b"></path></g></svg>