<svg xmlns="http://www.w3.org/2000/svg" height="24" width="24" viewBox="0 0 24 24"><title>makeup foundation 5</title><g fill="#61616b" class="nc-icon-wrapper"><path d="M14,4V2h3a1,1,0,0,0,0-2H11a1,1,0,0,0-1,1V4Z" fill="#61616b" data-color="color-2"></path><path d="M18,8H16V7a1,1,0,0,0-1-1H9A1,1,0,0,0,8,7V8H6A1,1,0,0,0,5,9V23a1,1,0,0,0,1,1H18a1,1,0,0,0,1-1V9A1,1,0,0,0,18,8ZM15,21H9a2,2,0,0,1-2-2V10H17v9A2,2,0,0,1,15,21Z" fill="#61616b"></path><rect x="9" y="13" width="6" height="5" fill="#61616b" data-color="color-2"></rect></g></svg>