<svg xmlns="http://www.w3.org/2000/svg" height="64" width="64" viewBox="0 0 64 64"><title>makeup palette 2</title><g fill="#61616b" class="nc-icon-wrapper"><path d="M55,20H40a1,1,0,0,1-.832-.445l-1.406-2.11A1,1,0,0,0,36.93,17H27.07a1,1,0,0,0-.832.445l-1.406,2.11A1,1,0,0,1,24,20H9.23a6.242,6.242,0,0,1-4.918-2.26,5.943,5.943,0,0,1-1-5.637L6.118,3.684A1,1,0,0,1,7.067,3h49.87a1,1,0,0,1,.949.683l2.735,8.208a6.245,6.245,0,0,1-.59,5.379A5.945,5.945,0,0,1,55,20ZM4.261,12.419h0Z" fill="#61616b" data-color="color-2"></path><path d="M56,22H49.977a5,5,0,1,1-7.954,0H35.977a5,5,0,1,1-7.954,0H21.977a5,5,0,1,1-7.954,0H8a1,1,0,0,0-1,1V55a6.006,6.006,0,0,0,6,6H51a6.006,6.006,0,0,0,6-6V23A1,1,0,0,0,56,22ZM32,34a5,5,0,1,1-5,5A5.006,5.006,0,0,1,32,34ZM18,34a5,5,0,1,1-5,5A5.006,5.006,0,0,1,18,34ZM51,53a1,1,0,0,1-1,1,1.018,1.018,0,0,1-.274-.038L42.859,52H22.141l-6.867,1.962A1.018,1.018,0,0,1,15,54a1,1,0,0,1-1-1V49a1,1,0,0,1,1.274-.962L22.141,50H42.859l6.867-1.962A1,1,0,0,1,51,49Zm-5-9a5,5,0,1,1,5-5A5.006,5.006,0,0,1,46,44Z" fill="#61616b"></path></g></svg>