<svg xmlns="http://www.w3.org/2000/svg" height="24" width="24" viewBox="0 0 24 24"><title>makeup blush 5</title><g fill="#61616b" class="nc-icon-wrapper"><path d="M21.348,8.48A10.039,10.039,0,1,1,15.52,2.652l1.528-1.528a12.032,12.032,0,1,0,5.828,5.829Z" fill="#61616b"></path><path d="M16,17A9.01,9.01,0,0,1,7,8V5.765A7.993,7.993,0,1,0,18.235,17Z" fill="#61616b"></path><path d="M14.689,6.1,9.731,7.756A1.015,1.015,0,0,0,9.05,8.841a7,7,0,0,0,6.109,6.109,1.015,1.015,0,0,0,1.085-.681L17.9,9.311Z" fill="#61616b" data-color="color-2"></path><path d="M23.378.621a2.121,2.121,0,0,0-3,0L16.207,4.793l3,3,4.172-4.172A2.121,2.121,0,0,0,23.378.621Z" fill="#61616b" data-color="color-2"></path></g></svg>