<svg xmlns="http://www.w3.org/2000/svg" height="32" width="32" viewBox="0 0 32 32"><title>makeup foundation 4</title><g fill="#61616b" class="nc-icon-wrapper"><path d="M19,4V2h4a1,1,0,0,0,0-2H14a1,1,0,0,0-1,1V4Z" fill="#61616b" data-color="color-2"></path><path d="M24,10H21V7a1,1,0,0,0-1-1H12a1,1,0,0,0-1,1v3H8a1,1,0,0,0-1,1V31a1,1,0,0,0,1,1H24a1,1,0,0,0,1-1V11A1,1,0,0,0,24,10ZM23,25a3,3,0,0,1-3,3H12a3,3,0,0,1-3-3V13a1,1,0,0,1,1-1H22a1,1,0,0,1,1,1Z" fill="#61616b"></path><rect x="11" y="15" width="10" height="9" rx="0.998" fill="#61616b" data-color="color-2"></rect></g></svg>