<svg xmlns="http://www.w3.org/2000/svg" height="48" width="48" viewBox="0 0 48 48"><title>makeup palette 3</title><g fill="#61616b" class="nc-icon-wrapper"><path d="M40,17H36.9a5,5,0,1,1-9.8,0H20.9a5,5,0,1,1-9.8,0H8a6.974,6.974,0,0,1-3-.688V41a5.006,5.006,0,0,0,5,5H38a5.006,5.006,0,0,0,5-5V16.312A6.988,6.988,0,0,1,40,17ZM16,26a5,5,0,1,1-5,5A5,5,0,0,1,16,26ZM36,41H12a1,1,0,0,1,0-2H36a1,1,0,0,1,0,2Zm-4-5a5,5,0,1,1,5-5A5.006,5.006,0,0,1,32,36Z" fill="#61616b"></path><path d="M44.7,8.291,42.649,2.658A1,1,0,0,0,41.71,2H6.289a1,1,0,0,0-.939.658L3.3,8.291A5,5,0,0,0,8,15H40a5,5,0,0,0,4.7-6.709ZM27,13H21a1,1,0,0,1,0-2h6a1,1,0,0,1,0,2Z" fill="#61616b" data-color="color-2"></path></g></svg>