<svg xmlns="http://www.w3.org/2000/svg" height="16" width="16" viewBox="0 0 16 16"><title>makeup cream</title><g fill="#61616b" class="nc-icon-wrapper"><path d="M6.5,6C3.37,6,0,6.938,0,9v4c0,2.062,3.37,3,6.5,3s6.5-.938,6.5-3V9C13,6.938,9.63,6,6.5,6Zm0,2c2.571,0,4.082.646,4.446,1-.364.354-1.875,1-4.446,1S2.418,9.354,2.054,9C2.418,8.646,3.929,8,6.5,8Zm0,6c-2.8,0-4.345-.768-4.5-1V11.239A12.347,12.347,0,0,0,6.5,12a12.326,12.326,0,0,0,4.51-.765l.007,1.677C10.845,13.232,9.3,14,6.5,14Z" fill="#61616b"></path><path d="M5.752,4.018a4.491,4.491,0,0,1,8.239,2.4A3.8,3.8,0,0,1,15,9v.948A6.493,6.493,0,1,0,3.4,4.277,15.813,15.813,0,0,1,5.752,4.018Z" fill="#61616b" data-color="color-2"></path></g></svg>