<svg xmlns="http://www.w3.org/2000/svg" height="16" width="16" viewBox="0 0 16 16"><title>makeup blush</title><g fill="#61616b" class="nc-icon-wrapper"><path d="M14.622,5.62l-.645,1.935C13.988,7.7,14,7.85,14,8A6,6,0,1,1,8,2c.151,0,.3.012.448.023l1.931-.644.745-.745a8,8,0,1,0,4.242,4.242Z" fill="#61616b"></path><path d="M15.707.293a1,1,0,0,0-1.414,0L11.459,3.126,5.684,5.052A1,1,0,0,0,5,6a5.006,5.006,0,0,0,5,5,1,1,0,0,0,.949-.684L12.874,4.54l2.833-2.833A1,1,0,0,0,15.707.293Z" fill="#61616b" data-color="color-2"></path></g></svg>