<svg xmlns="http://www.w3.org/2000/svg" height="32" width="32" viewBox="0 0 32 32"><title>makeup mirror 4</title><g fill="#61616b" class="nc-icon-wrapper"><path d="M30,14A14,14,0,1,0,15,27.949V30H9a1,1,0,0,0,0,2H23a1,1,0,0,0,0-2H17V27.949A14.007,14.007,0,0,0,30,14ZM4,14A12,12,0,1,1,16,26,12.013,12.013,0,0,1,4,14Z" fill="#61616b"></path><path d="M25.239,10.175l-9.532,9.532a1,1,0,0,1-1.414-1.414l9.95-9.95A10,10,0,0,0,6.761,17.825l9.532-9.532a1,1,0,0,1,1.414,1.414l-9.95,9.95a10,10,0,0,0,17.482-9.482Z" fill="#61616b" data-color="color-2"></path></g></svg>