<svg xmlns="http://www.w3.org/2000/svg" height="32" width="32" viewBox="0 0 32 32"><title>makeup cream 4</title><g fill="#61616b" class="nc-icon-wrapper"><path d="M19,0A12.993,12.993,0,0,0,6.445,9.677c.717-.157,1.457-.284,2.21-.385A10.993,10.993,0,1,1,28,19.313v3.054A12.99,12.99,0,0,0,19,0Z" fill="#61616b" data-color="color-2"></path><path d="M13,11C6.7,11,0,12.928,0,16.5v2.332c2.044,2.35,6.773,3.97,12.02,4.151a1,1,0,0,1,.98,1v4a1,1,0,0,1-1.024,1C6.787,28.792,2.41,27.166,0,24.784V26.5C0,30.072,6.7,32,13,32s13-1.928,13-5.5v-10C26,12.928,19.3,11,13,11Zm0,9C6.285,20,2,17.927,2,16.5S6.285,13,13,13s11,2.073,11,3.5S19.715,20,13,20Z" fill="#61616b"></path><path d="M13,9c6.5,0,13.435,1.91,14.757,6.049A8.991,8.991,0,0,0,10.912,9.072C11.608,9.029,12.306,9,13,9Z" fill="#61616b" data-color="color-2"></path></g></svg>