<svg xmlns="http://www.w3.org/2000/svg" height="64" width="64" viewBox="0 0 64 64"><title>makeup blush 2</title><g fill="#61616b" class="nc-icon-wrapper"><path d="M59.464,4.535a5.241,5.241,0,0,0-7.413,0L41.861,14.725l7.414,7.414,10.19-10.19a5.242,5.242,0,0,0,0-7.414Z" fill="#61616b"></path><path d="M46.428,22.12l-4.615,6.461a1,1,0,1,1-1.626-1.162L45,20.687l-1.682-1.682-6.732,4.808a1,1,0,1,1-1.162-1.626l6.461-4.615-1.433-1.433-15.8,5.924A1,1,0,0,0,24,23a17,17,0,0,0,9.714,15.336.881.881,0,0,0,.085.066.719.719,0,0,0,.1.024A16.871,16.871,0,0,0,41,40a1,1,0,0,0,.937-.648l5.924-15.8Z" fill="#61616b"></path><path d="M59.464,4.535a5.241,5.241,0,0,0-7.413,0L41.861,14.725l7.414,7.414,10.19-10.19a5.242,5.242,0,0,0,0-7.414Z" fill="#61616b" data-color="color-2"></path><path d="M50.442,25.214l-5.7,15.191A4.019,4.019,0,0,1,41,43a19.774,19.774,0,0,1-8.1-1.735,3.247,3.247,0,0,1-.438-.179l-.373-.187-.052-.046A20.11,20.11,0,0,1,21,23a4.018,4.018,0,0,1,2.593-3.744l15.192-5.7L42.1,10.24A24.026,24.026,0,1,0,53.76,21.9Z" fill="#61616b"></path><path d="M55.258,20.4A26.026,26.026,0,1,1,43.6,8.742l2.95-2.95A30.067,30.067,0,1,0,58.208,17.449Z" fill="#61616b"></path><path d="M46.428,22.12l-4.615,6.461a1,1,0,1,1-1.626-1.162L45,20.687l-1.682-1.682-6.732,4.808a1,1,0,1,1-1.162-1.626l6.461-4.615-1.433-1.433-15.8,5.924A1,1,0,0,0,24,23a17,17,0,0,0,9.714,15.336.881.881,0,0,0,.085.066.719.719,0,0,0,.1.024A16.871,16.871,0,0,0,41,40a1,1,0,0,0,.937-.648l5.924-15.8Z" fill="#61616b" data-color="color-2"></path></g></svg>