<svg xmlns="http://www.w3.org/2000/svg" height="24" width="24" viewBox="0 0 24 24"><title>mascara 5</title><g fill="#61616b" class="nc-icon-wrapper"><path d="M6,13V10H5A1,1,0,0,1,5,8H6V7H4A1,1,0,0,1,4,5H6V4H5A1,1,0,0,1,5,2H6V1A1,1,0,0,1,8,1V2H9A1,1,0,0,1,9,4H8V5h2a1,1,0,0,1,0,2H8V8H9a1,1,0,0,1,0,2H8v3Z" fill="#61616b" data-color="color-2"></path><path d="M13,8V23a1,1,0,0,0,1,1h6a1,1,0,0,0,1-1V8a1,1,0,0,0-1-1H14A1,1,0,0,0,13,8Zm2,12V9h4V20Z" fill="#61616b"></path><path d="M10,15H4a1,1,0,0,0-1,1v7a1,1,0,0,0,1,1h6a1,1,0,0,0,1-1V16A1,1,0,0,0,10,15ZM5,17H9v5H5Z" fill="#61616b"></path></g></svg>