<svg xmlns="http://www.w3.org/2000/svg" height="48" width="48" viewBox="0 0 48 48"><title>mascara 3</title><g fill="#61616b" class="nc-icon-wrapper"><path d="M17,29a1,1,0,0,1,1,1v2h2a1,1,0,0,1,1,1V46a1,1,0,0,1-1,1H8a1,1,0,0,1-1-1V33a1,1,0,0,1,1-1h2V30a1,1,0,0,1,1-1Z" fill="#61616b"></path><path d="M27,38V16a1,1,0,0,1,1-1H40a1,1,0,0,1,1,1V38Z" fill="#61616b"></path><path d="M41,40v6a1,1,0,0,1-1,1H28a1,1,0,0,1-1-1V40Z" fill="#61616b"></path><path d="M13,17H11a1,1,0,0,1,0-2h2V13H10a1,1,0,0,1,0-2h3V9H10a1,1,0,0,1,0-2h3V5H11a1,1,0,0,1,0-2h2V2a1,1,0,0,1,2,0V3h2a1,1,0,0,1,0,2H15V7h3a1,1,0,0,1,0,2H15v2h3a1,1,0,0,1,0,2H15v2h2a1,1,0,0,1,0,2H15V27H13Z" fill="#61616b" data-color="color-2"></path></g></svg>