<svg xmlns="http://www.w3.org/2000/svg" height="32" width="32" viewBox="0 0 32 32"><title>mascara 4</title><g fill="#61616b" class="nc-icon-wrapper"><path d="M4,31V21a1,1,0,0,1,1-1h8a1,1,0,0,1,1,1V31a1,1,0,0,1-1,1H5A1,1,0,0,1,4,31Z" fill="#61616b"></path><path d="M12,6H10V4h1a1,1,0,0,0,0-2H10V1A1,1,0,0,0,8,1V2H7A1,1,0,0,0,7,4H8V6H6A1,1,0,0,0,6,8H8v2H7a1,1,0,0,0,0,2H8v6h2V12h1a1,1,0,0,0,0-2H10V8h2a1,1,0,0,0,0-2Z" fill="#61616b" data-color="color-2"></path><path d="M18,28v3a1,1,0,0,0,1,1h8a1,1,0,0,0,1-1V28Z" fill="#61616b"></path><path d="M28,26V11a1,1,0,0,0-1-1H19a1,1,0,0,0-1,1V26Z" fill="#61616b"></path></g></svg>