<svg xmlns="http://www.w3.org/2000/svg" height="64" width="64" viewBox="0 0 64 64"><title>mascara 2</title><g fill="#61616b" class="nc-icon-wrapper"><path d="M24,17a1,1,0,0,1,0,2H20v2h3a1,1,0,0,1,0,2H20v2h2a1,1,0,0,1,0,2H20V39H18V27H16a1,1,0,0,1,0-2h2V23H15a1,1,0,0,1,0-2h3V19H14a1,1,0,0,1,0-2h4V15H14a1,1,0,0,1,0-2h4V11H15a1,1,0,0,1,0-2h3V7H16a1,1,0,0,1,0-2h2V4a1,1,0,0,1,2,0V5h2a1,1,0,0,1,0,2H20V9h3a1,1,0,0,1,0,2H20v2h4a1,1,0,0,1,0,2H20v2Z" fill="#61616b" data-color="color-2"></path><path d="M36,50V19a1,1,0,0,1,1-1H51a1,1,0,0,1,1,1V50Z" fill="#61616b"></path><path d="M52,52v8a1,1,0,0,1-1,1H37a1,1,0,0,1-1-1V52Z" fill="#61616b"></path><path d="M12,45h2V42a1,1,0,0,1,1-1h8a1,1,0,0,1,1,1v3h2a1,1,0,0,1,1,1V60a1,1,0,0,1-1,1H12a1,1,0,0,1-1-1V46A1,1,0,0,1,12,45Z" fill="#61616b"></path></g></svg>