<svg xmlns="http://www.w3.org/2000/svg" height="16" width="16" viewBox="0 0 16 16"><title>mascara</title><g fill="#61616b" class="nc-icon-wrapper"><path d="M9,15V6a1,1,0,0,1,1-1h4a1,1,0,0,1,1,1v9a1,1,0,0,1-1,1H10A1,1,0,0,1,9,15Zm4-8H11v7h2Z" fill="#61616b"></path><path d="M1,11v4a1,1,0,0,0,1,1H6a1,1,0,0,0,1-1V11a1,1,0,0,0-1-1H2A1,1,0,0,0,1,11Zm2,1H5v2H3Z" fill="#61616b"></path><path d="M6,5H5V4H6A1,1,0,0,0,6,2H5V1A1,1,0,0,0,3,1V2H2A1,1,0,0,0,2,4H3V5H2A1,1,0,0,0,2,7H3V9H5V7H6A1,1,0,0,0,6,5Z" fill="#61616b" data-color="color-2"></path></g></svg>