<svg xmlns="http://www.w3.org/2000/svg" height="64" width="64" viewBox="0 0 64 64"><title>massage 2</title><g fill="#61616b" class="nc-icon-wrapper"><circle cx="50.5" cy="34.5" r="6.5" fill="#61616b" data-color="color-2"></circle><circle cx="20.5" cy="8.5" r="6.5" fill="#61616b"></circle><path d="M10,49V59a3,3,0,0,0,6,0V49Z" fill="#61616b"></path><path d="M61.85,43.646a2.5,2.5,0,0,0-3.2-1.5l-9.5,3.456-9.874-9.874A2.5,2.5,0,0,0,37.5,35h-19a4.974,4.974,0,0,0-3.977,2H2v6H39.465l7.267,7.268a2.5,2.5,0,0,0,2.622.582l11-4A2.5,2.5,0,0,0,61.85,43.646Z" fill="#61616b" data-color="color-2"></path><path d="M53.93,60.293l-15-15A1,1,0,0,0,38.223,45H2v2H37.809L52.516,61.707a1,1,0,0,0,1.414-1.414Z" fill="#61616b"></path><line x1="10.101" y1="32.07" x2="9.461" y2="35.59" fill="#61616b"></line><path d="M13.623,35A6.907,6.907,0,0,1,18.5,33h3.251l1.078-5.931,1.635,2.452a2.606,2.606,0,0,0,1.2.975L32.183,33.1a2.609,2.609,0,0,0,1.938-4.844l-5.768-2.305-4.764-7.148-.009-.014h0l0,0L23.51,18.7l0,0,0,0a2.6,2.6,0,0,0-1.514-.981c-.066-.015-.134-.028-.2-.037a3.282,3.282,0,0,0-.422-.026H15.988a3.912,3.912,0,0,0-3.849,3.212L9.568,35Z" fill="#61616b"></path></g></svg>