<svg xmlns="http://www.w3.org/2000/svg" height="24" width="24" viewBox="0 0 24 24"><title>massage 5</title><g fill="#61616b" class="nc-icon-wrapper"><path d="M5,6A3,3,0,1,1,8,3,3,3,0,0,1,5,6Z" fill="#61616b"></path><path d="M19,17a3,3,0,1,1,3-3A3,3,0,0,1,19,17Z" fill="#61616b" data-color="color-2"></path><path d="M12,12.586,6.715,7.3a.992.992,0,0,0-.525-.282.434.434,0,0,0-.052-.009A.855.855,0,0,0,5.981,7H3.847A2,2,0,0,0,1.874,8.671L1.153,13H6.18l.487-2.919L10.586,14Z" fill="#61616b"></path><path d="M23.213,19.728l-.485-1.941-4.421,1.106-3.6-3.6A1,1,0,0,0,14,15H0v2H13.586l3.707,3.707a1,1,0,0,0,.95.263Z" fill="#61616b" data-color="color-2"></path><path d="M0,19H12.343a1,1,0,0,1,.707.293l3,3a1,1,0,1,1-1.414,1.414L11.929,21H0Z" fill="#61616b"></path></g></svg>