<svg xmlns="http://www.w3.org/2000/svg" height="32" width="32" viewBox="0 0 32 32"><title>massage 4</title><g fill="#61616b" class="nc-icon-wrapper"><path d="M9.5,7A3.5,3.5,0,1,1,13,3.5,3.5,3.5,0,0,1,9.5,7Z" fill="#61616b"></path><path d="M25.5,20A3.5,3.5,0,1,1,29,16.5,3.5,3.5,0,0,1,25.5,20Z" fill="#61616b" data-color="color-2"></path><polygon points="5 26 5 32 7.5 32 8 26 5 26" fill="#61616b"></polygon><path d="M30.447,21.658l-4.56,1.815-5.766-5.766h0a2.492,2.492,0,0,0-1.765-.731h-9A2.493,2.493,0,0,0,7.346,18H0v2H19.586l5.707,5.707a1,1,0,0,0,1.154.188l4.895-2.448Z" fill="#61616b" data-color="color-2"></path><path d="M11.715,8.3a.992.992,0,0,0-.525-.282.434.434,0,0,0-.052-.009A.94.94,0,0,0,10.981,8h-3.1A2,2,0,0,0,5.9,9.711L4.985,16H6.533a4.456,4.456,0,0,1,2.821-1.022h1.791l.437-3.385L17,16.414,18.414,15Z" fill="#61616b"></path><path d="M0,21.911H18.343a1,1,0,0,1,.707.293l8.089,8.089a1,1,0,1,1-1.414,1.414l-7.8-7.8H0Z" fill="#61616b"></path></g></svg>