<svg xmlns="http://www.w3.org/2000/svg" height="48" width="48" viewBox="0 0 48 48"><title>massage 3</title><g fill="#61616b" class="nc-icon-wrapper"><path d="M1,34H27.812a1,1,0,0,1,.708.293L39.613,45.387A1,1,0,1,1,38.2,46.8L27.4,36H1Z" fill="#61616b"></path><path d="M15,11a5,5,0,1,1,5-5A5.006,5.006,0,0,1,15,11Z" fill="#61616b"></path><path d="M38,31a5,5,0,1,1,5-5A5.006,5.006,0,0,1,38,31Z" fill="#61616b" data-color="color-2"></path><path d="M12,38v6.5a2.5,2.5,0,0,1-5,0V38Z" fill="#61616b"></path><path d="M1,32H29.055l6.415,6.415a2,2,0,0,0,2.107.462l8.116-3a2,2,0,1,0-1.386-3.752L37.392,34.68l-8.1-8.092A1.991,1.991,0,0,0,27.884,26H14a3.987,3.987,0,0,0-3.444,2H1Z" fill="#61616b" data-color="color-2"></path><path d="M25.743,21.143l-4.424-1.769-3.654-5.482-.007-.011h0l0,0-.05-.07v0l0,0a1.994,1.994,0,0,0-1.162-.752,1.286,1.286,0,0,0-.155-.028A2.429,2.429,0,0,0,15.961,13H11.835a3,3,0,0,0-2.952,2.464L7.032,25.643A1.949,1.949,0,0,0,7.007,26H9.552A6,6,0,0,1,14,24h2.4l.686-3.771,1.254,1.88a2,2,0,0,0,.921.748l5,2a2,2,0,0,0,1.486-3.714Z" fill="#61616b"></path></g></svg>