<svg xmlns="http://www.w3.org/2000/svg" height="16" width="16" viewBox="0 0 16 16"><title>massage</title><g fill="#61616b" class="nc-icon-wrapper"><path d="M12,16a1,1,0,0,1-.707-.293L8.586,13H0V11H9a1,1,0,0,1,.707.293l2.534,2.533L15.057,12.7l.743,1.857-3.428,1.372A1.007,1.007,0,0,1,12,16Z" fill="#61616b" data-color="color-2"></path><circle cx="13" cy="10" r="2" fill="#61616b" data-color="color-2"></circle><circle cx="4" cy="2" r="2" fill="#61616b"></circle><path d="M4.707,5.293A1,1,0,0,0,4,5H3a1,1,0,0,0-.97.758L.969,10H3.031l.711-2.844L7,10.414,8.414,9Z" fill="#61616b"></path></g></svg>