<svg xmlns="http://www.w3.org/2000/svg" height="48" width="48" viewBox="0 0 48 48"><title>mustache 3</title><g fill="#61616b" class="nc-icon-wrapper"><path d="M45.394,29.748a1,1,0,0,0-1.083.194c-2.4,2.29-5.884,1.709-8.34.4a10.909,10.909,0,0,1-2.026-1.58C32.517,27.469,30.9,26,28.375,26A6.387,6.387,0,0,0,24,27.666,6.387,6.387,0,0,0,19.625,26c-2.522,0-4.142,1.469-5.57,2.766a10.909,10.909,0,0,1-2.026,1.58c-2.457,1.3-5.935,1.886-8.34-.4A1,1,0,0,0,2,30.667C2,36.686,5.745,40,12.546,40A14.631,14.631,0,0,0,24,35.529,14.631,14.631,0,0,0,35.454,40C42.255,40,46,36.686,46,30.667A1,1,0,0,0,45.394,29.748Z" fill="#61616b"></path><path d="M45,15H41.931a8,8,0,0,0-15.771-.591A6.141,6.141,0,0,0,24,14a5.937,5.937,0,0,0-2.16.407A8,8,0,0,0,6.069,15H3a1,1,0,0,0,0,2H6.069a7.992,7.992,0,0,0,15.9-.446A4,4,0,0,1,24,16a4.14,4.14,0,0,1,2.029.577,7.992,7.992,0,0,0,15.9.423H45a1,1,0,0,0,0-2ZM9.115,19.471l8.356-8.356a6.007,6.007,0,0,1,1.414,1.414l-8.356,8.356A6.007,6.007,0,0,1,9.115,19.471Zm20,0,8.356-8.356a6.007,6.007,0,0,1,1.414,1.414l-8.356,8.356A6.007,6.007,0,0,1,29.115,19.471Z" fill="#61616b" data-color="color-2"></path></g></svg>