<svg xmlns="http://www.w3.org/2000/svg" height="32" width="32" viewBox="0 0 32 32"><title>mustache 4</title><g fill="#61616b" class="nc-icon-wrapper"><path d="M22.818,23A9.476,9.476,0,0,1,16,20.162,9.476,9.476,0,0,1,9.182,23C3.435,23,0,18.763,0,14.667a1,1,0,0,1,1.512-.859c1.246.744,2.584-.262,4.641-2C7.781,10.426,9.464,9,11.4,9A6.46,6.46,0,0,1,16,11.155,6.46,6.46,0,0,1,20.6,9c1.934,0,3.617,1.426,5.245,2.805,2.057,1.741,3.4,2.746,4.641,2A1,1,0,0,1,32,14.667C32,18.763,28.565,23,22.818,23Z" fill="#61616b"></path></g></svg>