<svg xmlns="http://www.w3.org/2000/svg" height="64" width="64" viewBox="0 0 64 64"><title>mustache 2</title><g fill="#61616b" class="nc-icon-wrapper"><path d="M61.388,40.272a1,1,0,0,0-1.087.207c-3.46,3.381-8.437,2.544-11.94.633a15.243,15.243,0,0,1-2.872-2.294C43.565,37.029,41.386,35,38.042,35A8.4,8.4,0,0,0,32,37.474,8.4,8.4,0,0,0,25.958,35c-3.344,0-5.523,2.029-7.447,3.818a15.27,15.27,0,0,1-2.871,2.294c-3.5,1.911-8.48,2.748-11.941-.633a1,1,0,0,0-1.7.715C2,49.452,7.036,54,16.182,54,19.265,54,26.3,54,32,47.486,37.7,54,44.735,54,47.818,54,56.964,54,62,49.452,62,41.194A1,1,0,0,0,61.388,40.272Z" fill="#61616b"></path><path d="M3,22H8.051a10.992,10.992,0,0,0,21.935-.72,2.224,2.224,0,0,1,4.028,0A10.992,10.992,0,0,0,55.949,22H61a1,1,0,0,0,0-2H55.949a10.994,10.994,0,0,0-21.691-1.345,4.22,4.22,0,0,0-4.516,0A10.994,10.994,0,0,0,8.051,20H3a1,1,0,0,0,0,2Zm49.328-6.207L39.793,28.328a9.086,9.086,0,0,1-2.121-2.121L50.207,13.672A9.086,9.086,0,0,1,52.328,15.793Zm-26,0L13.793,28.328a9.086,9.086,0,0,1-2.121-2.121L24.207,13.672A9.086,9.086,0,0,1,26.328,15.793Z" fill="#61616b" data-color="color-2"></path></g></svg>