<svg xmlns="http://www.w3.org/2000/svg" height="24" width="24" viewBox="0 0 24 24"><title>mustache 5</title><g fill="#61616b" class="nc-icon-wrapper"><path d="M17,17a7.528,7.528,0,0,1-5-1.82A7.528,7.528,0,0,1,7,17c-4.382,0-7-2.994-7-5.889a1,1,0,0,1,1.477-.879c.8.432,1.73-.207,3.166-1.312C5.868,7.976,7.136,7,8.625,7A5.166,5.166,0,0,1,12,8.358,5.166,5.166,0,0,1,15.375,7c1.489,0,2.757.976,3.982,1.92,1.436,1.105,2.367,1.746,3.166,1.312A1,1,0,0,1,24,11.111C24,14.006,21.382,17,17,17Z" fill="#61616b"></path></g></svg>