<svg xmlns="http://www.w3.org/2000/svg" height="16" width="16" viewBox="0 0 16 16"><title>mustache 6</title><g fill="#61616b" class="nc-icon-wrapper"><path d="M15.747,6.9a.5.5,0,0,0-.5,0c-.624.374-1.293-.132-2.321-1A4.453,4.453,0,0,0,10.3,4.5,3.231,3.231,0,0,0,8,5.577,3.231,3.231,0,0,0,5.7,4.5,4.453,4.453,0,0,0,3.077,5.9c-1.028.87-1.7,1.374-2.321,1A.5.5,0,0,0,0,7.333,4.341,4.341,0,0,0,4.591,11.5,4.738,4.738,0,0,0,8,10.081,4.74,4.74,0,0,0,11.409,11.5,4.341,4.341,0,0,0,16,7.333.5.5,0,0,0,15.747,6.9Z" fill="#61616b"></path></g></svg>