<svg xmlns="http://www.w3.org/2000/svg" height="16" width="16" viewBox="0 0 16 16"><title>nail polish</title><g fill="#61616b" class="nc-icon-wrapper"><path d="M9,15H7a1,1,0,0,1,0-2H9a1,1,0,0,1,0,2Z" fill="#61616b"></path><path d="M13,16a1,1,0,0,1-1-1V8A4,4,0,0,0,4,8v7a1,1,0,0,1-2,0V8A6,6,0,0,1,14,8v7A1,1,0,0,1,13,16Z" fill="#61616b"></path><path d="M9,10H7A2,2,0,0,1,5,8V1.422A1,1,0,0,1,5.6.506a5.971,5.971,0,0,1,4.8,0,1,1,0,0,1,.6.916V8A2,2,0,0,1,9,10Z" fill="#61616b" data-color="color-2"></path></g></svg>