<svg xmlns="http://www.w3.org/2000/svg" height="24" width="24" viewBox="0 0 24 24"><title>nail polish 6</title><g fill="#61616b" class="nc-icon-wrapper"><path d="M14,15H10a3,3,0,0,1-3-3V2.079a1,1,0,0,1,.5-.865,9.1,9.1,0,0,1,9,0,1,1,0,0,1,.5.865V12A3,3,0,0,1,14,15Z" fill="#61616b" data-color="color-2"></path><path d="M7,4.779A8,8,0,0,0,4,11V23a1,1,0,0,0,1,1H5a1,1,0,0,0,1-1V11A5.967,5.967,0,0,1,7,7.686Z" fill="#61616b"></path><path d="M17,4.779V7.686A5.967,5.967,0,0,1,18,11V23a1,1,0,0,0,1,1h0a1,1,0,0,0,1-1V11A8,8,0,0,0,17,4.779Z" fill="#61616b"></path><path d="M14,22H10a1,1,0,0,1,0-2h4a1,1,0,0,1,0,2Z" fill="#61616b"></path></g></svg>