<svg xmlns="http://www.w3.org/2000/svg" height="48" width="48" viewBox="0 0 48 48"><title>nail file 3</title><g fill="#61616b" class="nc-icon-wrapper"><path d="M13.293,26.174,2.757,36.709A6,6,0,0,0,11.243,45.2L21.778,34.659ZM7,42.952a2,2,0,1,1,2-2A2,2,0,0,1,7,42.952Z" fill="#61616b" data-color="color-2"></path><path d="M40,1.048a5.951,5.951,0,0,0-3,1.463V19.437l3-3Z" fill="#61616b"></path><polygon points="27 29.437 30 26.437 30 9.467 27 12.467 27 29.437" fill="#61616b"></polygon><polygon points="35 4.467 32 7.467 32 24.437 35 21.437 35 4.467" fill="#61616b"></polygon><path d="M45.243,2.709A5.958,5.958,0,0,0,42,1.048V14.437L45.243,11.2A6,6,0,0,0,45.243,2.709Z" fill="#61616b"></path><polygon points="25 14.467 23.515 15.952 22 17.467 22 32.053 23.192 33.245 25 31.437 25 14.467" fill="#61616b"></polygon><polygon points="20 19.467 14.707 24.76 20 30.053 20 19.467" fill="#61616b"></polygon></g></svg>