<svg xmlns="http://www.w3.org/2000/svg" height="64" width="64" viewBox="0 0 64 64"><title>nail polish 3</title><g fill="#61616b" class="nc-icon-wrapper"><path d="M41.819,50.464a6.967,6.967,0,0,1-5.585,2.023,7.351,7.351,0,0,1-4.5-2.206l-1.75-1.749a7.357,7.357,0,0,1-2.209-4.5,6.974,6.974,0,0,1,2.02-5.59l4.037-4.037a10.466,10.466,0,0,0-5.761,2.932L6.121,59.293A1,1,0,0,0,6.828,61H20.9l-2.586-2.586A1,1,0,1,1,19.728,57l3.535,3.535a.984.984,0,0,1,.246.465H33.7a1,1,0,0,0,.707-.293l8.52-8.519a10.461,10.461,0,0,0,2.928-5.758ZM26.8,58.414a1,1,0,0,1-1.414,0L21.85,54.879a1,1,0,1,1,1.414-1.414L26.8,57A1,1,0,0,1,26.8,58.414Z" fill="#61616b"></path><path d="M29.092,30.665a6.975,6.975,0,0,1-5.591,2.02A7.365,7.365,0,0,1,19,30.476L17.258,28.73a7.349,7.349,0,0,1-2.207-4.5,6.971,6.971,0,0,1,2.02-5.585l4.034-4.034a10.476,10.476,0,0,0-5.757,2.929L2.293,30.6A1,1,0,0,0,2,31.3v26.87a1,1,0,0,0,1.707.707L30.2,32.389a10.47,10.47,0,0,0,2.929-5.757ZM10.535,42.15a1,1,0,0,1-1.414,0L5.586,38.615A1,1,0,0,1,7,37.2l3.535,3.535A1,1,0,0,1,10.535,42.15Zm3.536-3.535a1,1,0,0,1-1.414,0L9.121,35.08a1,1,0,1,1,1.414-1.414L14.071,37.2A1,1,0,0,1,14.071,38.615Z" fill="#61616b"></path><path d="M45,35.262a9.5,9.5,0,0,0-5.947-2.747.981.981,0,0,0-.788.29l-7.054,7.053a5.006,5.006,0,0,0,0,7.071l2.122,2.121a5,5,0,0,0,7.07,0L47.458,42a1,1,0,0,0,.29-.787A9.5,9.5,0,0,0,45,35.262Z" fill="#61616b" data-color="color-2"></path><path d="M24.143,30.713a4.984,4.984,0,0,1-3.537-1.462L18.485,27.13a5.006,5.006,0,0,1,0-7.071l7.053-7.053a.985.985,0,0,1,.788-.29,9.485,9.485,0,0,1,8.7,8.694,1,1,0,0,1-.291.788l-7.052,7.053A4.983,4.983,0,0,1,24.143,30.713Z" fill="#61616b" data-color="color-2"></path><path d="M50.142,11.8l-8.7,5.181A7,7,0,1,0,49.948,27.95a11.061,11.061,0,0,0,1.076-1.388l5.179-8.7Z" fill="#61616b" data-color="color-2"></path><path d="M61.383,1.834a1,1,0,0,0-1.09.217l-8.535,8.535,5.656,5.657,4.293-4.294A1,1,0,0,0,62,11.242V2.758A1,1,0,0,0,61.383,1.834Z" fill="#61616b"></path><path d="M60,53a4,4,0,0,1-4-4,1,1,0,0,0-2,0,4,4,0,0,1-4,4,1,1,0,0,0,0,2,4,4,0,0,1,4,4,1,1,0,0,0,2,0,4,4,0,0,1,4-4,1,1,0,0,0,0-2Z" fill="#61616b"></path><path d="M14,8a4,4,0,0,1-4-4A1,1,0,0,0,8,4,4,4,0,0,1,4,8a1,1,0,0,0,0,2,4,4,0,0,1,4,4,1,1,0,0,0,2,0,4,4,0,0,1,4-4,1,1,0,0,0,0-2Z" fill="#61616b"></path></g></svg>