<svg xmlns="http://www.w3.org/2000/svg" height="64" width="64" viewBox="0 0 64 64"><title>nail file 2</title><g fill="#61616b" class="nc-icon-wrapper"><polygon points="32 43.314 36 39.314 36 16.685 32 20.685 32 43.314" fill="#61616b"></polygon><polygon points="42 10.685 38 14.685 38 37.314 42 33.314 42 10.685" fill="#61616b"></polygon><polygon points="48 4.685 44 8.685 44 31.314 48 27.314 48 4.685" fill="#61616b"></polygon><path d="M50,25.314l4-4V2a8.006,8.006,0,0,0-4,1.077Z" fill="#61616b"></path><path d="M59.657,4.343A7.932,7.932,0,0,0,56,2.265V19.314l3.657-3.657A8.012,8.012,0,0,0,59.657,4.343Z" fill="#61616b"></path><polygon points="24 28.685 16.467 36.218 24 43.75 24 28.685" fill="#61616b"></polygon><polygon points="30 22.685 26 26.685 26 45.75 27.782 47.532 30 45.314 30 22.685" fill="#61616b"></polygon><path d="M15.053,37.632,4.343,48.343A8,8,0,0,0,15.657,59.657L26.368,48.946ZM10.005,57A2.994,2.994,0,1,1,13,54.007,2.993,2.993,0,0,1,10.005,57Z" fill="#61616b" data-color="color-2"></path></g></svg>