<svg xmlns="http://www.w3.org/2000/svg" height="48" width="48" viewBox="0 0 48 48"><title>nail polish 4</title><g fill="#61616b" class="nc-icon-wrapper"><path d="M21,14.353V21a6,6,0,0,1-6,6H10a6,6,0,0,1-6-6V14.353A10.436,10.436,0,0,0,2,20.5V45a1,1,0,0,0,1,1H22a1,1,0,0,0,1-1V20.5A10.436,10.436,0,0,0,21,14.353ZM15,40H10a1,1,0,0,1,0-2h5a1,1,0,0,1,0,2Zm0-4H10a1,1,0,0,1,0-2h5a1,1,0,0,1,0,2Z" fill="#61616b"></path><path d="M44,9.353V16a6,6,0,0,1-6,6H33a6,6,0,0,1-6-6V9.353A10.436,10.436,0,0,0,25,15.5V45a1,1,0,0,0,1,1H45a1,1,0,0,0,1-1V15.5A10.436,10.436,0,0,0,44,9.353ZM38,35H33a1,1,0,0,1,0-2h5a1,1,0,0,1,0,2Zm0-4H33a1,1,0,0,1,0-2h5a1,1,0,0,1,0,2Z" fill="#61616b"></path><path d="M18.667,9.281A9.468,9.468,0,0,0,10,7.337V20a1,1,0,0,1-2,0V8.148A9.438,9.438,0,0,0,6.333,9.281.977.977,0,0,0,6,10.025V21a4,4,0,0,0,4,4h5a4,4,0,0,0,4-4V10.019A.963.963,0,0,0,18.667,9.281Z" fill="#61616b" data-color="color-2"></path><path d="M41.667,4.281A9.468,9.468,0,0,0,33,2.337V15a1,1,0,0,1-2,0V3.148a9.438,9.438,0,0,0-1.667,1.133A.977.977,0,0,0,29,5.025V16a4,4,0,0,0,4,4h5a4,4,0,0,0,4-4V5.019A.963.963,0,0,0,41.667,4.281Z" fill="#61616b" data-color="color-2"></path></g></svg>