<svg xmlns="http://www.w3.org/2000/svg" height="32" width="32" viewBox="0 0 32 32"><title>nail polish 5</title><g fill="#61616b" class="nc-icon-wrapper"><path d="M21.581,1.7A10.11,10.11,0,0,0,14,.251V11a1,1,0,0,1-2,0V.861a9.46,9.46,0,0,0-1.585.845A.984.984,0,0,0,10,2.524V13a4,4,0,0,0,4,4h4a4,4,0,0,0,4-4V2.518A.981.981,0,0,0,21.581,1.7Z" fill="#61616b" data-color="color-2"></path><path d="M24,7.018V13a6,6,0,0,1-6,6H14a6,6,0,0,1-6-6V7.018A9.947,9.947,0,0,0,6,13V31a1,1,0,0,0,1,1H25a1,1,0,0,0,1-1V13A9.947,9.947,0,0,0,24,7.018ZM19,29H13a1,1,0,0,1,0-2h6a1,1,0,0,1,0,2Z" fill="#61616b"></path></g></svg>