<svg xmlns="http://www.w3.org/2000/svg" height="48" width="48" viewBox="0 0 48 48"><title>neck duster 3</title><g fill="#61616b" class="nc-icon-wrapper"><path d="M16.994,28H31.006c0-.206,0-.412-.006-.622V21H17v6.376C17,27.587,17,27.793,16.994,28Z" fill="#61616b" data-color="color-2"></path><path d="M31.123,30H16.877a7.473,7.473,0,0,1-1.111,3.325A9.994,9.994,0,0,0,17.72,46.777a.993.993,0,0,0,.629.223h11.3a.993.993,0,0,0,.629-.223,9.994,9.994,0,0,0,1.954-13.452A7.461,7.461,0,0,1,31.123,30Z" fill="#61616b"></path><path d="M36.471,4.118a26.671,26.671,0,0,0-4.56-1.932L29.9,10.242a1,1,0,0,1-.968.758,1.017,1.017,0,0,1-.243-.03,1,1,0,0,1-.728-1.212l2.026-8.1A26.694,26.694,0,0,0,24,1,25.48,25.48,0,0,0,11.529,4.118a1,1,0,0,0-.448,1.276L16.912,19H31.088L36.919,5.394A1,1,0,0,0,36.471,4.118Z" fill="#61616b"></path></g></svg>