<svg xmlns="http://www.w3.org/2000/svg" height="16" width="16" viewBox="0 0 16 16"><title>neck duster</title><g fill="#61616b" class="nc-icon-wrapper"><path d="M12.983,1.424a9.432,9.432,0,0,0-9.965,0,1,1,0,0,0-.392,1.243l2.3,5.37L3.535,12.007A3,3,0,0,0,6.366,16H9.634a3,3,0,0,0,2.831-3.993L11.072,8.036l2.3-5.37A1,1,0,0,0,12.983,1.424ZM9.341,7H6.659L4.823,2.714A7.4,7.4,0,0,1,8,2a7.592,7.592,0,0,1,.8.049L8.281,3.787a.75.75,0,1,0,1.438.426l.55-1.858a7.457,7.457,0,0,1,.909.358Z" fill="#61616b"></path></g></svg>