<svg xmlns="http://www.w3.org/2000/svg" height="24" width="24" viewBox="0 0 24 24"><title>neck duster 5</title><g fill="#61616b" class="nc-icon-wrapper"><path d="M19.528,2.151a14.249,14.249,0,0,0-15.056,0,1,1,0,0,0-.367,1.3l3.815,7.63L5.806,17.419A5,5,0,0,0,10.55,24h2.9a5,5,0,0,0,4.744-6.581L16.08,11.077,19.9,3.447A1,1,0,0,0,19.528,2.151ZM14.382,10H9.618l-3.3-6.6A12.229,12.229,0,0,1,12,2a12.609,12.609,0,0,1,1.524.1L12.06,6.127a1,1,0,0,0,1.88.684L15.5,2.516a12.09,12.09,0,0,1,2.182.881Z" fill="#61616b"></path></g></svg>