<svg xmlns="http://www.w3.org/2000/svg" height="32" width="32" viewBox="0 0 32 32"><title>neck duster 4</title><g fill="#61616b" class="nc-icon-wrapper"><path d="M25.423,2.094A21.768,21.768,0,0,0,20.262.446.845.845,0,0,0,20.135.39a.92.92,0,0,0-.189,0A22.611,22.611,0,0,0,6.577,2.094a1,1,0,0,0-.511,1.265l4.872,12.666L8.245,24.1A6,6,0,0,0,13.937,32h4.126a6,6,0,0,0,5.692-7.9l-2.693-8.078L25.934,3.359A1,1,0,0,0,25.423,2.094ZM19.313,15H12.687L8.276,3.531A20.526,20.526,0,0,1,18.7,2.224L17.024,9.783a1,1,0,0,0,.759,1.194A1.084,1.084,0,0,0,18,11a1,1,0,0,0,.975-.783l1.7-7.635a19.778,19.778,0,0,1,3.051.949Z" fill="#61616b"></path></g></svg>