<svg xmlns="http://www.w3.org/2000/svg" height="64" width="64" viewBox="0 0 64 64"><title>neck duster 2</title><g fill="#61616b" class="nc-icon-wrapper"><path d="M40.091,39H23.909A12,12,0,0,1,22.1,44.5,14.227,14.227,0,0,0,20,52a12.722,12.722,0,0,0,4.343,9.754A1,1,0,0,0,25,62H39a1,1,0,0,0,.657-.246A12.722,12.722,0,0,0,44,52,14.227,14.227,0,0,0,41.9,44.5,12,12,0,0,1,40.091,39Z" fill="#61616b"></path><polygon points="40 27 24 27 24 36.998 24 37 40 37 40 27" fill="#61616b" data-color="color-2"></polygon><path d="M48.289,6.071A34.173,34.173,0,0,0,41.46,3.279l-2.49,9.963A1,1,0,0,1,38,14a1.017,1.017,0,0,1-.243-.03,1,1,0,0,1-.728-1.212l2.492-9.967A35.067,35.067,0,0,0,32,2,33.314,33.314,0,0,0,15.711,6.071a1,1,0,0,0-.428,1.323L23.887,25H40.113l8.6-17.606A1,1,0,0,0,48.289,6.071Z" fill="#61616b"></path></g></svg>