<svg xmlns="http://www.w3.org/2000/svg" height="64" width="64" viewBox="0 0 64 64"><title>perfume 2</title><g fill="#61616b" class="nc-icon-wrapper"><path d="M56,12a1,1,0,0,1,0-2h4a1,1,0,0,1,0,2Z" fill="#61616b" data-color="color-2"></path><path d="M54,6a1,1,0,0,1-.556-1.832l3-2a1,1,0,0,1,1.11,1.664l-3,2A1,1,0,0,1,54,6Z" fill="#61616b" data-color="color-2"></path><path d="M57,20a1,1,0,0,1-.554-.168l-3-2a1,1,0,0,1,1.11-1.664l3,2A1,1,0,0,1,57,20Z" fill="#61616b" data-color="color-2"></path><path d="M48,9a1,1,0,0,0-1-1H43V4a1,1,0,0,0-1-1H32a1,1,0,0,0-1,1v6.609a30.918,30.918,0,0,0-16.122,8.666A8,8,0,1,0,7.435,32.78a.96.96,0,0,0,.231.028,1,1,0,0,0,.866-.5L11.886,26.5A28.91,28.91,0,0,1,31,12.637V19.8a22.928,22.928,0,0,1,12,0V14h4a1,1,0,0,0,1-1Z" fill="#61616b"></path><path d="M37.515,39.853A21.832,21.832,0,0,1,21,42.359V55a2,2,0,0,0,2,2H51a2,2,0,0,0,2-2V41a15.973,15.973,0,0,0-.367-3.382A19.959,19.959,0,0,0,37.515,39.853Z" fill="#61616b" data-color="color-2"></path><path d="M51,61H23a6.006,6.006,0,0,1-6-6V41a20,20,0,0,1,40,0V55A6.006,6.006,0,0,1,51,61ZM37,23A18.021,18.021,0,0,0,19,41V55a4,4,0,0,0,4,4H51a4,4,0,0,0,4-4V41A18.021,18.021,0,0,0,37,23Z" fill="#61616b"></path></g></svg>