<svg xmlns="http://www.w3.org/2000/svg" height="32" width="32" viewBox="0 0 32 32"><title>perfume 4</title><g fill="#61616b" class="nc-icon-wrapper"><path d="M15,5.64V8.633a12.9,12.9,0,0,1,8,.006V6h3a1,1,0,0,0,1-1V3a1,1,0,0,0-1-1H23V1a1,1,0,0,0-1-1H16a1,1,0,0,0-1,1V3.557A17.055,17.055,0,0,0,8.361,6.936,5,5,0,0,0,3.707,5.809,5,5,0,0,0,2.5,14.969l.866.5h0l.046.025h0l0,0h.015a1.006,1.006,0,0,0,.432.1A.976.976,0,0,0,4,15.594H4a1,1,0,0,0,.731-.491l1.5-2.6A14.992,14.992,0,0,1,15,5.64Z" fill="#61616b" data-color="color-2"></path><path d="M18.991,10a11,11,0,1,0,11,11A11.013,11.013,0,0,0,18.991,10Zm0,2a9.01,9.01,0,0,1,8.941,8H10.05A9.011,9.011,0,0,1,18.991,12Z" fill="#61616b"></path></g></svg>