<svg xmlns="http://www.w3.org/2000/svg" height="48" width="48" viewBox="0 0 48 48"><title>perfume 3</title><g fill="#61616b" class="nc-icon-wrapper"><path d="M26.515,30.857A15.034,15.034,0,0,1,15,32.49V42a1,1,0,0,0,1,1H36a1,1,0,0,0,1-1V29.612A13.013,13.013,0,0,0,26.515,30.857Z" fill="#61616b" data-color="color-2"></path><path d="M43,8H40a1,1,0,0,1,0-2h3a1,1,0,0,1,0,2Z" fill="#61616b" data-color="color-2"></path><path d="M38,3a1,1,0,0,1-.316-1.948l3-1a1,1,0,1,1,.632,1.9l-3,1A1,1,0,0,1,38,3Z" fill="#61616b" data-color="color-2"></path><path d="M41,14a1,1,0,0,1-.316-.052l-3-1a1,1,0,0,1,.632-1.9l3,1A1,1,0,0,1,41,14Z" fill="#61616b" data-color="color-2"></path><path d="M36,47H16a5.006,5.006,0,0,1-5-5V30a15,15,0,0,1,30,0V42A5.006,5.006,0,0,1,36,47ZM26,17A13.015,13.015,0,0,0,13,30V42a3,3,0,0,0,3,3H36a3,3,0,0,0,3-3V30A13.015,13.015,0,0,0,26,17Z" fill="#61616b"></path><path d="M21,8.84v4.913a16.977,16.977,0,0,1,10,0V9h2a1,1,0,0,0,1-1V6a1,1,0,0,0-1-1H31V2a1,1,0,0,0-1-1H22a1,1,0,0,0-1,1V6.787a24.041,24.041,0,0,0-8.7,4.007,6,6,0,1,0-7.579,9.072,6.15,6.15,0,0,0,1.1.494.985.985,0,0,0,.32.053,1,1,0,0,0,.866-.5l.449-.778A22.009,22.009,0,0,1,21,8.84Z" fill="#61616b"></path></g></svg>