<svg xmlns="http://www.w3.org/2000/svg" height="48" width="48" viewBox="0 0 48 48"><title>razor 3</title><g fill="#61616b" class="nc-icon-wrapper"><path d="M45.863,19.137l-17-17a1,1,0,0,0-1.414,0L20.8,8.784a1,1,0,0,0,0,1.414l3.632,3.633c.212.841.77,3.808-1.236,5.815L20.25,22.594l5.156,5.156L28.354,24.8c2.007-2,4.974-1.447,5.815-1.236L37.8,27.2a1,1,0,0,0,1.414,0l6.647-6.647A1,1,0,0,0,45.863,19.137Zm-7.354,5.94-3.033-3.033c-.019-.022-.029-.049-.05-.07l-9.4-9.4a.583.583,0,0,0-.07-.049L22.923,9.491l1.909-1.909L40.418,23.168Zm3.323-3.323L26.246,6.168l1.91-1.91L43.742,19.844Z" fill="#61616b" data-color="color-2"></path><path d="M7.646,46a5.646,5.646,0,0,1-3.992-9.639L16.715,23.3a1,1,0,0,1,1.414,0l6.57,6.57a1,1,0,0,1,0,1.414L11.639,44.346A5.61,5.61,0,0,1,7.646,46Z" fill="#61616b"></path></g></svg>