<svg xmlns="http://www.w3.org/2000/svg" height="64" width="64" viewBox="0 0 64 64"><title>razor 2</title><g fill="#61616b" class="nc-icon-wrapper"><path d="M61.916,25.084l-23-23a1,1,0,0,0-1.414,0l-8.709,8.709a1,1,0,0,0,0,1.414l5.075,5.075c.262.979,1.194,5.27-1.7,8.161l-3.586,3.586,6.386,6.386,3.586-3.586c2.891-2.891,7.184-1.958,8.162-1.7l5.074,5.074a1,1,0,0,0,1.414,0L61.916,26.5A1,1,0,0,0,61.916,25.084Zm-9.416,8-4.55-4.55L35.464,16.05l-4.55-4.55L33,9.414,54.586,31Zm3.5-3.5L34.414,8l3.8-3.795L59.8,25.791Z" fill="#61616b" data-color="color-2"></path><path d="M34.364,37.636l-8-8a1,1,0,0,0-1.414,0l-20,20a6.657,6.657,0,1,0,9.414,9.414l20-20A1,1,0,0,0,34.364,37.636Z" fill="#61616b"></path></g></svg>