<svg xmlns="http://www.w3.org/2000/svg" height="16" width="16" viewBox="0 0 16 16"><title>razor</title><g fill="#61616b" class="nc-icon-wrapper"><path d="M15.707,6.355,9.644.293a1,1,0,0,0-1.414,0L6.053,2.47a1,1,0,0,0,0,1.414L8.2,6.027c-.074.091-.158.182-.252.277L6.582,7.665,6.319,7.4a.5.5,0,0,0-.707,0L.619,12.4a2.111,2.111,0,0,0,2.986,2.986L8.6,10.389a.5.5,0,0,0,0-.707l-.264-.264L9.7,8.056c.1-.094.186-.178.277-.252l2.143,2.143a1,1,0,0,0,1.414,0L15.707,7.77A1,1,0,0,0,15.707,6.355ZM12.823,7.826,8.174,3.177l.763-.763,4.649,4.648Z" fill="#61616b"></path></g></svg>