<svg xmlns="http://www.w3.org/2000/svg" height="32" width="32" viewBox="0 0 32 32"><title>razor 4</title><g fill="#61616b" class="nc-icon-wrapper"><path d="M31.193,12.321,19.679.807a1.029,1.029,0,0,0-1.414,0L14.6,4.476a1,1,0,0,0,0,1.414l3.427,3.426A4.342,4.342,0,0,1,16.57,12.1l-2.984,2.984-.5-.5a1,1,0,0,0-1.414,0L2.189,24.068a4.061,4.061,0,0,0,5.743,5.743l9.482-9.483a1,1,0,0,0,0-1.414l-.5-.5L19.9,15.43a4.342,4.342,0,0,1,2.786-1.453L26.11,17.4a1,1,0,0,0,1.414,0l3.669-3.668a1,1,0,0,0,0-1.414Zm-4.376,2.961-10.1-10.1,2.255-2.255,10.1,10.1Z" fill="#61616b"></path></g></svg>