<svg xmlns="http://www.w3.org/2000/svg" height="48" width="48" viewBox="0 0 48 48"><title>sauna 3</title><g fill="#61616b" class="nc-icon-wrapper"><path d="M24,12a5.5,5.5,0,1,1,5.5-5.5A5.507,5.507,0,0,1,24,12Z" fill="#61616b"></path><path d="M3.96,23a1,1,0,0,1-.729-1.686,2.563,2.563,0,0,0,.032-3.639,4.583,4.583,0,0,1,.049-6.361,1,1,0,1,1,1.457,1.372,2.563,2.563,0,0,0-.032,3.639,4.583,4.583,0,0,1-.049,6.361A1,1,0,0,1,3.96,23Z" fill="#61616b" data-color="color-2"></path><path d="M8.96,14a1,1,0,0,1-.729-1.686,2.563,2.563,0,0,0,.032-3.639,4.583,4.583,0,0,1,.049-6.361A1,1,0,1,1,9.769,3.686a2.563,2.563,0,0,0-.032,3.639,4.583,4.583,0,0,1-.049,6.361A1,1,0,0,1,8.96,14Z" fill="#61616b" data-color="color-2"></path><path d="M43.96,23a1,1,0,0,1-.729-1.686,2.563,2.563,0,0,0,.032-3.639,4.583,4.583,0,0,1,.049-6.361,1,1,0,1,1,1.457,1.372,2.563,2.563,0,0,0-.032,3.639,4.583,4.583,0,0,1-.049,6.361A1,1,0,0,1,43.96,23Z" fill="#61616b" data-color="color-2"></path><path d="M37.96,14a1,1,0,0,1-.729-1.686,2.563,2.563,0,0,0,.032-3.639,4.583,4.583,0,0,1,.049-6.361,1,1,0,1,1,1.457,1.372,2.563,2.563,0,0,0-.032,3.639,4.583,4.583,0,0,1-.049,6.361A1,1,0,0,1,37.96,14Z" fill="#61616b" data-color="color-2"></path><path d="M20.5,31A2.5,2.5,0,0,0,18,33.5v11a2.5,2.5,0,0,0,5,0v-11A2.5,2.5,0,0,0,20.5,31Z" fill="#61616b"></path><path d="M27.5,31A2.5,2.5,0,0,0,25,33.5v11a2.5,2.5,0,0,0,5,0v-11A2.5,2.5,0,0,0,27.5,31Z" fill="#61616b"></path><path d="M16,34H3a1,1,0,0,0,0,2H16Z" fill="#61616b" data-color="color-2"></path><path d="M45,34H32v2H45a1,1,0,0,0,0-2Z" fill="#61616b" data-color="color-2"></path><path d="M36.891,29.34,33.337,16.9A4,4,0,0,0,29.491,14H18.509a4,4,0,0,0-3.846,2.9L11.077,29.45a2,2,0,0,0,1.576,2.52,2.077,2.077,0,0,0,2.3-1.53L18,19.781v9.981a4.458,4.458,0,0,1,6,.944,4.458,4.458,0,0,1,6-.944V19.781L33.077,30.55A2,2,0,0,0,35,32a2.027,2.027,0,0,0,.96-.245A2.081,2.081,0,0,0,36.891,29.34Z" fill="#61616b"></path></g></svg>