<svg xmlns="http://www.w3.org/2000/svg" height="64" width="64" viewBox="0 0 64 64"><title>sauna 2</title><g fill="#61616b" class="nc-icon-wrapper"><path d="M49.839,39.6,44.215,21.8A4,4,0,0,0,40.4,19H23.6a4,4,0,0,0-3.814,2.8L14.156,39.62A2.59,2.59,0,0,0,15.5,42.793a2.5,2.5,0,0,0,3.383-1.54L23,28.218V38.54a5.981,5.981,0,0,1,9,1.15,5.981,5.981,0,0,1,9-1.15V28.218l4.116,13.035a2.495,2.495,0,0,0,3.166,1.621A2.6,2.6,0,0,0,49.839,39.6Z" fill="#61616b"></path><path d="M32,17a7,7,0,1,1,7-7A7.008,7.008,0,0,1,32,17Z" fill="#61616b"></path><path d="M4.964,36a1,1,0,0,1-.728-1.686,2.564,2.564,0,0,0,.031-3.639,4.584,4.584,0,0,1,.049-6.361,1,1,0,1,1,1.457,1.372,2.563,2.563,0,0,0-.032,3.639,4.584,4.584,0,0,1-.048,6.361A1,1,0,0,1,4.964,36Z" fill="#61616b" data-color="color-2"></path><path d="M4.964,16a1,1,0,0,1-.728-1.685,2.565,2.565,0,0,0,.031-3.64,4.583,4.583,0,0,1,.049-6.36A1,1,0,0,1,5.773,5.686a2.563,2.563,0,0,0-.032,3.639,4.584,4.584,0,0,1-.048,6.361A1,1,0,0,1,4.964,16Z" fill="#61616b" data-color="color-2"></path><path d="M11.964,26a1,1,0,0,1-.728-1.686,2.564,2.564,0,0,0,.031-3.639,4.584,4.584,0,0,1,.049-6.361,1,1,0,1,1,1.457,1.372,2.563,2.563,0,0,0-.032,3.639,4.584,4.584,0,0,1-.048,6.361A1,1,0,0,1,11.964,26Z" fill="#61616b" data-color="color-2"></path><path d="M52.964,36a1,1,0,0,1-.728-1.686,2.564,2.564,0,0,0,.031-3.639,4.584,4.584,0,0,1,.049-6.361,1,1,0,1,1,1.457,1.372,2.563,2.563,0,0,0-.032,3.639,4.584,4.584,0,0,1-.048,6.361A1,1,0,0,1,52.964,36Z" fill="#61616b" data-color="color-2"></path><path d="M52.964,16a1,1,0,0,1-.728-1.685,2.565,2.565,0,0,0,.031-3.64,4.583,4.583,0,0,1,.049-6.36,1,1,0,0,1,1.457,1.371,2.563,2.563,0,0,0-.032,3.639,4.584,4.584,0,0,1-.048,6.361A1,1,0,0,1,52.964,16Z" fill="#61616b" data-color="color-2"></path><path d="M59.964,26a1,1,0,0,1-.728-1.686,2.564,2.564,0,0,0,.031-3.639,4.584,4.584,0,0,1,.049-6.361,1,1,0,1,1,1.457,1.372,2.563,2.563,0,0,0-.032,3.639,4.584,4.584,0,0,1-.048,6.361A1,1,0,0,1,59.964,26Z" fill="#61616b" data-color="color-2"></path><path d="M36.5,60.986a3.5,3.5,0,0,1-3.5-3.5V43a4,4,0,0,1,8,0c0,.088-.01.257-.01.257l-1,14.4A3.48,3.48,0,0,1,36.5,60.986Z" fill="#61616b"></path><path d="M60,45H42.874l-.139,2H60a1,1,0,0,0,0-2Z" fill="#61616b"></path><path d="M27.5,60.986a3.5,3.5,0,0,0,3.5-3.5V43a4,4,0,0,0-8,0c0,.088.01.257.01.257l1,14.4A3.48,3.48,0,0,0,27.5,60.986Z" fill="#61616b"></path><path d="M21.126,45H4a1,1,0,0,0,0,2H21.266Z" fill="#61616b"></path></g></svg>