<svg xmlns="http://www.w3.org/2000/svg" height="24" width="24" viewBox="0 0 24 24"><title>sauna</title><g fill="#61616b" class="nc-icon-wrapper"><path d="M12,6a3,3,0,1,1,3-3A3,3,0,0,1,12,6Z" fill="#61616b"></path><path d="M3.208,8A1,1,0,0,1,2.34,6.507a1.224,1.224,0,0,0-.118-1.379,3.209,3.209,0,0,1-.3-3.621,1,1,0,1,1,1.739.986,1.224,1.224,0,0,0,.118,1.379,3.209,3.209,0,0,1,.3,3.621A1,1,0,0,1,3.208,8Z" fill="#61616b" data-color="color-2"></path><path d="M21.708,8a1,1,0,0,1-.868-1.493,1.224,1.224,0,0,0-.118-1.379,3.209,3.209,0,0,1-.3-3.621,1,1,0,1,1,1.739.986,1.224,1.224,0,0,0,.118,1.379,3.209,3.209,0,0,1,.3,3.621A1,1,0,0,1,21.708,8Z" fill="#61616b" data-color="color-2"></path><path d="M1,20H7V18H1a1,1,0,0,0-1,1H0A1,1,0,0,0,1,20Z" fill="#61616b" data-color="color-2"></path><path d="M23,18H17v2h6a1,1,0,0,0,1-1h0A1,1,0,0,0,23,18Z" fill="#61616b" data-color="color-2"></path><path d="M10,16h0a1,1,0,0,1,1,1v7a0,0,0,0,1,0,0H9a0,0,0,0,1,0,0V17A1,1,0,0,1,10,16Z" fill="#61616b"></path><path d="M17.18,8.3A2,2,0,0,0,15.307,7H8.693A2,2,0,0,0,6.82,8.3l-3,8,1.873.7L8,10.848V14.78a2.954,2.954,0,0,1,4,0,2.954,2.954,0,0,1,4,0V10.848L18.307,17l1.873-.7Z" fill="#61616b"></path><path d="M14,16h0a1,1,0,0,1,1,1v7a0,0,0,0,1,0,0H13a0,0,0,0,1,0,0V17A1,1,0,0,1,14,16Z" fill="#61616b"></path></g></svg>