<svg xmlns="http://www.w3.org/2000/svg" height="32" width="32" viewBox="0 0 32 32"><title>sauna 4</title><g fill="#61616b" class="nc-icon-wrapper"><path d="M16,8a4,4,0,1,1,4-4A4,4,0,0,1,16,8Z" fill="#61616b"></path><path d="M3.418,13a1,1,0,0,1-.869-1.493,3.438,3.438,0,0,0-.327-3.878,5.43,5.43,0,0,1-.511-6.122,1,1,0,0,1,1.74.986,3.44,3.44,0,0,0,.327,3.879,5.426,5.426,0,0,1,.511,6.121A1,1,0,0,1,3.418,13Z" fill="#61616b" data-color="color-2"></path><path d="M29.418,13a1,1,0,0,1-.869-1.493,3.438,3.438,0,0,0-.327-3.878,5.43,5.43,0,0,1-.511-6.122,1,1,0,0,1,1.74.986,3.44,3.44,0,0,0,.327,3.879,5.426,5.426,0,0,1,.511,6.121A1,1,0,0,1,29.418,13Z" fill="#61616b" data-color="color-2"></path><path d="M12.5,32,12,22.5a1.5,1.5,0,0,1,3,0V32Z" fill="#61616b"></path><path d="M17,32V22.5a1.5,1.5,0,0,1,3,0L19.5,32" fill="#61616b"></path><path d="M10,24H2a1,1,0,0,0-1,1H1a1,1,0,0,0,1,1h8Z" fill="#61616b" data-color="color-2"></path><path d="M22,24v2h8a1,1,0,0,0,1-1h0a1,1,0,0,0-1-1Z" fill="#61616b" data-color="color-2"></path><path d="M22.266,11.017A3,3,0,0,0,19.432,9H12.568a3,3,0,0,0-2.834,2.017L5.894,22.088,8.22,23,11,15.9v4.176A3.449,3.449,0,0,1,13.5,19,3.485,3.485,0,0,1,16,20.058,3.485,3.485,0,0,1,18.5,19,3.449,3.449,0,0,1,21,20.071V15.9L23.78,23l2.326-.912Z" fill="#61616b"></path></g></svg>