<svg xmlns="http://www.w3.org/2000/svg" height="24" width="24" viewBox="0 0 24 24"><title>scented candle 5</title><g fill="#61616b" class="nc-icon-wrapper"><path d="M18.941,9.86a7.061,7.061,0,0,1-.519,1.937C20.68,12.428,22,13.314,22,14c0,1.194-3.988,3-10,3S2,15.194,2,14c0-.686,1.32-1.572,3.578-2.2A7.132,7.132,0,0,1,5.059,9.86C2.11,10.675,0,12.063,0,14v5c0,3.282,6.037,5,12,5s12-1.718,12-5V14C24,12.063,21.89,10.675,18.941,9.86Z" fill="#61616b"></path><path d="M11.014.614a5.78,5.78,0,0,1-1.459,3.71C8.218,5.659,7,6.964,7,9a5.109,5.109,0,0,0,2.873,4.614c0-.08-.016-.158-.016-.239,0-2.188,1.429-1.459,2.143-3.785a4.385,4.385,0,0,1,2.143,3.785c0,.081-.012.159-.016.239A5.109,5.109,0,0,0,17,9C17,6.687,15.988,3,11.014.614Z" fill="#61616b" data-color="color-2"></path></g></svg>