<svg xmlns="http://www.w3.org/2000/svg" height="64" width="64" viewBox="0 0 64 64"><title>scented candle 2</title><g fill="#61616b" class="nc-icon-wrapper"><path d="M43.572,25.882A13.18,13.18,0,0,1,42.4,27.776C51.439,29.125,59,32.134,59,36c0,5.3-14.229,9-27,9S5,41.3,5,36c0-3.866,7.561-6.875,16.6-8.224a13.18,13.18,0,0,1-1.176-1.894C10.084,27.546,3,31.4,3,36V51c0,6.168,12.738,11,29,11s29-4.832,29-11V36C61,31.4,53.916,27.546,43.572,25.882Z" fill="#61616b"></path><path d="M29.8,1.728C29,12,21,12.025,21,20a11,11,0,0,0,8,10.575S25,24,32,19c7,5,3,11.575,3,11.575A11,11,0,0,0,43,20C43,13.925,39,8,29.8,1.728Z" fill="#61616b" fill-rule="evenodd" data-color="color-2"></path><path d="M32,37a1,1,0,0,1-1-1V23a1,1,0,0,1,2,0V36A1,1,0,0,1,32,37Z" fill="#61616b"></path></g></svg>