<svg xmlns="http://www.w3.org/2000/svg" height="16" width="16" viewBox="0 0 16 16"><title>scented candle</title><g fill="#61616b" class="nc-icon-wrapper"><path d="M7.667.2A4.543,4.543,0,0,1,6.8,2.188c-.517.675-1.8,1.343-1.8,3A3,3,0,0,0,6.526,7.8a1.628,1.628,0,0,1,.665-1.2A2.1,2.1,0,0,0,8,5.593,3,3,0,0,1,9.474,7.8,3,3,0,0,0,11,5.188C11,4.349,10.85,2.064,7.667.2Z" fill="#61616b" data-color="color-2"></path><path d="M12.7,5.708l-.721-.214a3.986,3.986,0,0,1-.65,1.893l.8.239c1.447.429,1.843.915,1.87,1-.1.429-2.1,1.555-6,1.555S2.106,9.058,2,8.649v0c.03-.11.429-.593,1.869-1.02l.8-.239a3.986,3.986,0,0,1-.65-1.893L3.3,5.708C.429,6.561,0,7.909,0,8.637v3.817C0,14.891,4.147,16,8,16s8-1.109,8-3.546V8.637C16,7.909,15.571,6.561,12.7,5.708Z" fill="#61616b"></path></g></svg>