<svg xmlns="http://www.w3.org/2000/svg" height="48" width="48" viewBox="0 0 48 48"><title>scented candle 4</title><g fill="#61616b" class="nc-icon-wrapper"><path d="M24,27a1,1,0,0,1-1-1V17a1,1,0,0,1,2,0v9A1,1,0,0,1,24,27Z" fill="#61616b"></path><path d="M22.5,1C22,8,16,8,16,14a8,8,0,0,0,4.847,7.353C19,16,24,13,24,13s5,3,3.153,8.353A8,8,0,0,0,32,14C32,9.582,29,4,22.5,1Z" fill="#61616b" fill-rule="evenodd" data-color="color-2"></path><path d="M32.827,18.688a10.065,10.065,0,0,1-1.256,1.826C39.15,21.58,44,24.14,44,26.5c0,3.074-8.214,6.5-20,6.5S4,29.574,4,26.5c0-2.36,4.85-4.92,12.429-5.986a10.065,10.065,0,0,1-1.256-1.826C7.89,19.862,2,22.521,2,26.5v13C2,45.021,13.335,48,24,48s22-2.979,22-8.5v-13C46,22.521,40.11,19.862,32.827,18.688Z" fill="#61616b"></path></g></svg>