<svg xmlns="http://www.w3.org/2000/svg" height="32" width="32" viewBox="0 0 32 32"><title>scented candle 3</title><g fill="#61616b" class="nc-icon-wrapper"><path d="M23.486,12.759a8.073,8.073,0,0,1-.972,1.836l.357.075C27.082,15.554,29,17.016,29,18c0,1.631-5.064,4-13,4S3,19.631,3,18c0-.984,1.918-2.446,6.129-3.33l.357-.075a8.073,8.073,0,0,1-.972-1.836C3.738,13.8,1,15.7,1,18v8c0,3.9,7.729,6,15,6s15-2.1,15-6V18C31,15.7,28.262,13.8,23.486,12.759Z" fill="#61616b"></path><path d="M14.714.143A5.5,5.5,0,0,1,13.067,4.5C11.462,6.073,10,7.607,10,10a5.983,5.983,0,0,0,3,5.173S12,12,16,9c4,3,3,6.173,3,6.173A5.983,5.983,0,0,0,22,10C22,7.282,20.683,2.942,14.714.143Z" fill="#61616b" fill-rule="evenodd" data-color="color-2"></path><path d="M16,19a1,1,0,0,1-1-1V14a1,1,0,0,1,2,0v4A1,1,0,0,1,16,19Z" fill="#61616b"></path></g></svg>