<svg xmlns="http://www.w3.org/2000/svg" height="48" width="48" viewBox="0 0 48 48"><title>scissors 2 3</title><g fill="#61616b" class="nc-icon-wrapper"><path d="M23.405,30.94a4.942,4.942,0,0,1-1.9-.63l-1.428,4.282a5.495,5.495,0,0,0-9.907,1.253L8.854,39.8l0,.011a5.5,5.5,0,0,0,10.43,3.5ZM17.39,42.667a3.5,3.5,0,0,1-6.637-2.236l1.323-3.972a3.5,3.5,0,1,1,6.68,2.1Z" fill="#61616b" data-color="color-2"></path><path d="M32.188,1.017a1,1,0,0,0-1.136.666L24.591,21.059a4.972,4.972,0,0,1,4.338,4.232,7.967,7.967,0,0,0,3.057-5.83L33,2.057A1,1,0,0,0,32.188,1.017Z" fill="#61616b" data-color="color-2"></path><path d="M39.149,39.815l-1.315-3.95a5.495,5.495,0,0,0-9.913-1.273L25.84,28.351a2.984,2.984,0,0,0-1.782-5.345L16.948,1.683A1,1,0,0,0,15,2.057l1.012,17.4a7.991,7.991,0,0,0,5.029,6.969,2.992,2.992,0,0,0,2.9,2.565l4.779,14.341a5.5,5.5,0,0,0,10.423-3.52ZM24,27a1,1,0,1,1,1-1A1,1,0,0,1,24,27Zm9.912,18a3.5,3.5,0,0,1-3.295-2.315l-1.37-4.116a3.5,3.5,0,1,1,6.683-2.091l1.317,3.953A3.506,3.506,0,0,1,33.912,45Z" fill="#61616b"></path></g></svg>