<svg xmlns="http://www.w3.org/2000/svg" height="64" width="64" viewBox="0 0 64 64"><title>scissors 2 2</title><g fill="#61616b" class="nc-icon-wrapper"><path d="M29.508,39.309,27.291,45.95a6.994,6.994,0,0,0-12.919.795L12.314,52.92a7,7,0,0,0,13.314,4.335L31.406,39.94A4.943,4.943,0,0,1,29.508,39.309ZM25.782,50.468l-2.049,6.147a5,5,0,0,1-9.515-3.083l2.049-6.147a5,5,0,0,1,9.515,3.083Z" fill="#61616b" data-color="color-2"></path><path d="M42.861,2.02a1,1,0,0,0-1.143.664L32.593,30.06a4.97,4.97,0,0,1,4.375,4.618,9.932,9.932,0,0,0,5.021-8.22L43.663,3.071A1,1,0,0,0,42.861,2.02Z" fill="#61616b" data-color="color-2"></path><path d="M51.679,52.9l-2.053-6.161a6.994,6.994,0,0,0-12.917-.788l-2.87-8.6a2.984,2.984,0,0,0-1.783-5.346L22.282,2.684a1,1,0,0,0-1.945.387l1.674,23.387a9.953,9.953,0,0,0,7.046,9.1,3,3,0,0,0,2.889,2.434l6.428,19.267A7,7,0,0,0,51.679,52.9ZM32,36a1,1,0,1,1,1-1A1,1,0,0,1,32,36ZM45,60a5,5,0,0,1-4.731-3.378l-2.044-6.134a5,5,0,0,1,9.506-3.11l2.044,6.134A5,5,0,0,1,45,60Z" fill="#61616b"></path></g></svg>