<svg xmlns="http://www.w3.org/2000/svg" height="24" width="24" viewBox="0 0 24 24"><title>scissors 2 5</title><g fill="#61616b" class="nc-icon-wrapper"><path d="M17,16a3.961,3.961,0,0,0-1.664.374L7.905.574a1,1,0,0,0-1.889.605l1.8,9.907a2.983,2.983,0,0,0,1.844,2.253l.362.144-1.36,2.891A3.961,3.961,0,0,0,7,16a4.024,4.024,0,1,0,3.255,1.691l1.579-3.358L12,13.988l.166.345,1.579,3.358A3.993,3.993,0,1,0,17,16ZM7,22a2,2,0,1,1,2-2A2,2,0,0,1,7,22Zm10,0a2,2,0,1,1,2-2A2,2,0,0,1,17,22Z" fill="#61616b"></path><path d="M16.182,11.086l1.8-9.907A1,1,0,0,0,16.1.574l-2.99,6.358,2.533,5.386A2.978,2.978,0,0,0,16.182,11.086Z" fill="#61616b" data-color="color-2"></path></g></svg>