<svg xmlns="http://www.w3.org/2000/svg" height="32" width="32" viewBox="0 0 32 32"><title>scissors 2 4</title><g fill="#61616b" class="nc-icon-wrapper"><path d="M18.361,17.471a5.606,5.606,0,0,0,3.049-3.693.958.958,0,0,0,.022-.119l1.56-12.536A1,1,0,0,0,21.046.7l-4,12.628Z" fill="#61616b" data-color="color-2"></path><path d="M26.34,26.1l-.608-1.921a4.484,4.484,0,0,0-7.8-1.449L10.954.7a1,1,0,0,0-1.946.425l1.56,12.536a.958.958,0,0,0,.022.119,5.612,5.612,0,0,0,3.653,3.939l.708,2.236-.878,2.775a4.489,4.489,0,0,0-7.805,1.449L5.66,26.1a4.537,4.537,0,0,0,2.917,5.687,4.5,4.5,0,0,0,5.655-2.935L16,23.267l1.765,5.577A4.5,4.5,0,1,0,26.34,26.1Zm-13.4.22-.608,1.922a2.506,2.506,0,0,1-1.245,1.482,2.449,2.449,0,0,1-1.894.159A2.536,2.536,0,0,1,7.566,26.7l.609-1.921A2.5,2.5,0,0,1,9.419,23.3a2.46,2.46,0,0,1,1.895-.158A2.532,2.532,0,0,1,12.936,26.318Zm9.876,3.563a2.452,2.452,0,0,1-1.895-.159,2.506,2.506,0,0,1-1.245-1.482l-.61-1.926a2.534,2.534,0,0,1,1.625-3.174,2.458,2.458,0,0,1,1.894.158,2.5,2.5,0,0,1,1.245,1.482l.608,1.921A2.536,2.536,0,0,1,22.812,29.881Z" fill="#61616b"></path></g></svg>