<svg xmlns="http://www.w3.org/2000/svg" height="16" width="16" viewBox="0 0 16 16"><title>scissors 2</title><g fill="#61616b" class="nc-icon-wrapper"><path d="M14.952,12.456A3.035,3.035,0,0,0,12.74,10.1a2.9,2.9,0,0,0-2.2.3L3.919.227a.5.5,0,0,0-.9.4L4.9,7.7a1,1,0,0,0,.792.727l.936.165L5.456,10.393a2.9,2.9,0,0,0-2.2-.3,3.035,3.035,0,0,0-2.212,2.359A3,3,0,0,0,4.39,15.975a3.013,3.013,0,0,0,2.123-1.407,2.79,2.79,0,0,0,.3-2.59L8,10.152l1.191,1.826a2.79,2.79,0,0,0,.3,2.59,2.975,2.975,0,0,0,5.465-2.112ZM4,14a1,1,0,1,1,1-1A1,1,0,0,1,4,14Zm8,0a1,1,0,1,1,1-1A1,1,0,0,1,12,14Z" fill="#61616b"></path><path d="M11.1,7.7,12.983.629a.5.5,0,0,0-.9-.4L8.9,5.115l1.957,3A.988.988,0,0,0,11.1,7.7Z" fill="#61616b" data-color="color-2"></path></g></svg>