<svg xmlns="http://www.w3.org/2000/svg" height="16" width="16" viewBox="0 0 16 16"><title>slippers</title><g fill="#61616b" class="nc-icon-wrapper"><path d="M7.166,8.989A11.41,11.41,0,0,1,7.012,7.1,8.628,8.628,0,0,1,7.159,5.35a8.318,8.318,0,0,0,.148-1.618A3.962,3.962,0,0,0,6.264.694,2.782,2.782,0,0,0,4.042.015,4.353,4.353,0,0,0,0,4.034,7.71,7.71,0,0,0,.666,6.983c.135.356.278.733.41,1.163a13.426,13.426,0,0,1,.4,1.743,8.689,8.689,0,0,0,.437,1.732,2.77,2.77,0,0,0,5.392-.884A10.235,10.235,0,0,0,7.166,8.989ZM4.209,2.007C4.267,2,4.319,2,4.367,2a.721.721,0,0,1,.544.166c.138.127.362.48.39,1.378A6.272,6.272,0,0,0,2,4.035H2A2.438,2.438,0,0,1,4.209,2.007Zm1.1,8.724a.77.77,0,0,1-.769.769.785.785,0,0,1-.742-.556,7.068,7.068,0,0,1-.349-1.4,15.316,15.316,0,0,0-.46-1.98c-.032-.1-.065-.194-.1-.292a3.313,3.313,0,0,1,2.128-.414c0,.083-.006.15-.006.241a13.373,13.373,0,0,0,.175,2.187,8.311,8.311,0,0,1,.121,1.437Z" fill="#61616b"></path><path d="M8.692,13.236a2.77,2.77,0,0,0,5.392.885,8.706,8.706,0,0,0,.437-1.732,13.426,13.426,0,0,1,.4-1.743c.132-.43.275-.807.41-1.164A7.7,7.7,0,0,0,16,6.534a4.352,4.352,0,0,0-4.042-4.019,2.786,2.786,0,0,0-2.222.678A3.965,3.965,0,0,0,8.693,6.231,8.33,8.33,0,0,0,8.841,7.85,8.62,8.62,0,0,1,8.988,9.6a11.4,11.4,0,0,1-.154,1.893A10.244,10.244,0,0,0,8.692,13.236ZM14,6.534h0a6.282,6.282,0,0,0-3.3-.49c.028-.9.252-1.251.39-1.378a.721.721,0,0,1,.544-.166c.048,0,.1,0,.158.007A2.437,2.437,0,0,1,14,6.534Zm-3.308,6.685a8.332,8.332,0,0,1,.121-1.438A13.348,13.348,0,0,0,10.988,9.6c0-.091,0-.158-.006-.241a3.319,3.319,0,0,1,2.128.413c-.033.1-.066.189-.1.293a15.279,15.279,0,0,0-.46,1.98,7.059,7.059,0,0,1-.349,1.4.784.784,0,0,1-.742.557.771.771,0,0,1-.769-.77Z" fill="#61616b" data-color="color-2"></path></g></svg>