<svg xmlns="http://www.w3.org/2000/svg" height="32" width="32" viewBox="0 0 32 32"><title>slippers 4</title><g fill="#61616b" class="nc-icon-wrapper"><path d="M13.692,19.246a27.086,27.086,0,0,1-.36-4.467,20.931,20.931,0,0,1,.35-4.16A17.792,17.792,0,0,0,14,7.176c0-2.751-.656-4.749-1.95-5.94A5.113,5.113,0,0,0,7.982.027C3.73.384,0,4.043,0,7.859A16.45,16.45,0,0,0,1.424,14.08c.32.843.65,1.714.953,2.7a31.588,31.588,0,0,1,.946,4.092,18.929,18.929,0,0,0,.942,3.733A5,5,0,0,0,14,23.006,21.465,21.465,0,0,0,13.692,19.246ZM8.149,2.02c.162-.013.317-.02.467-.02a2.93,2.93,0,0,1,2.079.709,5.245,5.245,0,0,1,1.277,3.62A13.771,13.771,0,0,0,2,7.9c0-.013,0-.025,0-.039C2,5.073,4.931,2.29,8.149,2.02ZM12,23a3,3,0,0,1-5.854.931,17.226,17.226,0,0,1-.854-3.4,33.084,33.084,0,0,0-1-4.329c-.045-.146-.092-.271-.138-.413a7.463,7.463,0,0,1,7.185-1.408c0,.134,0,.26,0,.4a29.124,29.124,0,0,0,.382,4.759A19.617,19.617,0,0,1,12,22.988Z" fill="#61616b"></path><path d="M24.018,4.027a5.1,5.1,0,0,0-4.067,1.209C18.657,6.427,18,8.425,18,11.176a17.792,17.792,0,0,0,.317,3.443,20.931,20.931,0,0,1,.35,4.16,27.086,27.086,0,0,1-.36,4.467A21.465,21.465,0,0,0,18,27.006a5,5,0,0,0,9.723,1.638,19.072,19.072,0,0,0,.954-3.768,31.588,31.588,0,0,1,.946-4.092c.3-.99.633-1.861.953-2.7A16.45,16.45,0,0,0,32,11.859C32,8.043,28.27,4.384,24.018,4.027ZM23.384,6c.15,0,.3.007.467.02C27.069,6.29,30,9.073,30,11.859c0,.014,0,.026,0,.039a13.771,13.771,0,0,0-9.969-1.569,5.245,5.245,0,0,1,1.277-3.62A2.93,2.93,0,0,1,23.384,6Zm4.327,14.2a33.084,33.084,0,0,0-1,4.329,17.339,17.339,0,0,1-.866,3.438A3,3,0,0,1,20,27v-.012a19.617,19.617,0,0,1,.286-3.45,29.124,29.124,0,0,0,.382-4.759c0-.142,0-.268,0-.4a7.463,7.463,0,0,1,7.185,1.408C27.8,19.927,27.756,20.052,27.711,20.2Z" fill="#61616b" data-color="color-2"></path></g></svg>