<svg xmlns="http://www.w3.org/2000/svg" height="64" width="64" viewBox="0 0 64 64"><title>slippers 2</title><g fill="#61616b" class="nc-icon-wrapper"><path d="M26,30a25.776,25.776,0,0,1,1.131-8.207,21.293,21.293,0,0,0,1.006-6.679c0-5.062-1.186-8.722-3.525-10.878a9.442,9.442,0,0,0-7.479-2.187C9.071,2.708,2,9.439,2,16.455c0,4.659,1.3,8,2.8,11.873.647,1.667,1.316,3.39,1.935,5.36a61,61,0,0,1,1.932,8.157,35.287,35.287,0,0,0,1.862,7.212A9,9,0,0,0,28,46.007a27.97,27.97,0,0,0-.918-7.207A35.172,35.172,0,0,1,26,30ZM6.668,27.6C5.236,23.921,4,20.739,4,16.455,4,10.527,10.337,4.611,17.3,4.043Q17.81,4,18.294,4a7.062,7.062,0,0,1,4.963,1.706c1.911,1.761,2.88,4.926,2.88,9.407a19.354,19.354,0,0,1-.93,6.133,26.791,26.791,0,0,0-1.132,6.36c-.632-1.147-1.335-2.208-2.03-3.254-2.1-3.167-4.089-6.159-4.045-11.344a1,1,0,0,0-1.976-.227A31.518,31.518,0,0,1,10.9,24.49a18.558,18.558,0,0,0-3.037,6.273C7.463,29.661,7.062,28.618,6.668,27.6ZM26,46a7,7,0,0,1-13.595,2.353,33.77,33.77,0,0,1-1.766-6.864c-.171-.942-.354-1.942-.585-3.035v-.016a25.177,25.177,0,0,1-.508-3.558c-.228-3.881,1.052-5.53,2.8-7.786A26.1,26.1,0,0,0,16.6,19.855a18.686,18.686,0,0,0,3.822,6.682c1.806,2.3,3.512,4.466,3.879,8.349,0,.008,0,.014.006.021.222,1.676.53,3.058.82,4.335A25.947,25.947,0,0,1,26,45.988Z" fill="#61616b"></path><path d="M9.222,23.4a29.439,29.439,0,0,0,4.85-11.049A3.018,3.018,0,0,1,17,10a3.053,3.053,0,0,1,.357.021,2.99,2.99,0,0,1,2.646,3,15.036,15.036,0,0,0,2.918,9.015c.123-.475.247-.921.365-1.338a17.461,17.461,0,0,0,.854-5.587c0-3.844-.773-6.589-2.234-7.935A5.014,5.014,0,0,0,18.3,6c-.275,0-.558.013-.842.035C11.569,6.518,6,11.581,6,16.455a23.365,23.365,0,0,0,1.958,8.936C8.362,24.717,8.787,24.059,9.222,23.4Z" fill="#61616b" data-color="color-2"></path><path d="M22.316,35.085l0-.015c-.31-3.294-1.7-5.06-3.459-7.3a33.721,33.721,0,0,1-2.309-3.191,34.659,34.659,0,0,1-2.616,3.735c-1.658,2.138-2.572,3.314-2.388,6.446a23.4,23.4,0,0,0,.47,3.268v.006c.236,1.118.423,2.14.6,3.106A31.538,31.538,0,0,0,14.3,47.7,5,5,0,0,0,24,45.958a24.078,24.078,0,0,0-.82-6.278C22.874,38.331,22.549,36.869,22.316,35.085ZM19.091,47.909a1.955,1.955,0,1,1,1.954-1.955A1.956,1.956,0,0,1,19.091,47.909Z" fill="#61616b" data-color="color-2"></path><path d="M39,38a25.776,25.776,0,0,0-1.131-8.207,21.293,21.293,0,0,1-1.006-6.679c0-5.062,1.186-8.722,3.525-10.878a9.442,9.442,0,0,1,7.479-2.187C55.929,10.708,63,17.439,63,24.455c0,4.659-1.3,8-2.8,11.873-.647,1.667-1.316,3.39-1.935,5.36a61,61,0,0,0-1.932,8.157,35.287,35.287,0,0,1-1.862,7.212A9,9,0,0,1,37,54.007a27.97,27.97,0,0,1,.918-7.207A35.172,35.172,0,0,0,39,38Zm19.332-2.4C59.764,31.921,61,28.739,61,24.455c0-5.928-6.337-11.844-13.3-12.412q-.514-.042-1-.042a7.062,7.062,0,0,0-4.963,1.706c-1.911,1.761-2.88,4.926-2.88,9.407a19.354,19.354,0,0,0,.93,6.133,26.791,26.791,0,0,1,1.132,6.36c.632-1.147,1.335-2.208,2.03-3.254,2.1-3.167,4.089-6.159,4.045-11.344a1,1,0,0,1,1.976-.227A31.518,31.518,0,0,0,54.1,32.49a18.558,18.558,0,0,1,3.037,6.273C57.537,37.661,57.938,36.618,58.332,35.6ZM39,54a7,7,0,0,0,13.6,2.353,33.77,33.77,0,0,0,1.766-6.864c.171-.942.354-1.942.585-3.035v-.016a25.177,25.177,0,0,0,.508-3.558c.228-3.881-1.052-5.53-2.8-7.786A26.1,26.1,0,0,1,48.4,27.855a18.686,18.686,0,0,1-3.822,6.682c-1.806,2.3-3.512,4.466-3.879,8.349,0,.008-.005.014-.006.021-.222,1.676-.53,3.058-.82,4.335A25.947,25.947,0,0,0,39,53.988Z" fill="#61616b"></path><path d="M55.778,31.4a29.439,29.439,0,0,1-4.85-11.049A3.018,3.018,0,0,0,48,18a3.053,3.053,0,0,0-.357.021,2.99,2.99,0,0,0-2.646,3,15.036,15.036,0,0,1-2.918,9.015c-.123-.475-.247-.921-.365-1.338a17.461,17.461,0,0,1-.854-5.587c0-3.844.773-6.589,2.234-7.935A5.014,5.014,0,0,1,46.7,14c.275,0,.558.013.842.035C53.431,14.518,59,19.581,59,24.455a23.365,23.365,0,0,1-1.958,8.936C56.638,32.717,56.213,32.059,55.778,31.4Z" fill="#61616b" data-color="color-2"></path><path d="M42.684,43.085l0-.015c.31-3.294,1.7-5.06,3.459-7.3a33.721,33.721,0,0,0,2.309-3.191,34.659,34.659,0,0,0,2.616,3.735c1.658,2.138,2.572,3.314,2.388,6.446a23.4,23.4,0,0,1-.47,3.268v.006c-.236,1.118-.423,2.14-.6,3.106A31.538,31.538,0,0,1,50.705,55.7,5,5,0,0,1,41,53.958a24.078,24.078,0,0,1,.82-6.278C42.126,46.331,42.451,44.869,42.684,43.085Zm3.225,12.824a1.955,1.955,0,1,0-1.954-1.955A1.956,1.956,0,0,0,45.909,55.909Z" fill="#61616b" data-color="color-2"></path></g></svg>