<svg xmlns="http://www.w3.org/2000/svg" height="48" width="48" viewBox="0 0 48 48"><title>slippers 3</title><g fill="#61616b" class="nc-icon-wrapper"><path d="M16.01,23.236a8.858,8.858,0,0,0-7.337,1.529A51.711,51.711,0,0,1,9.913,30.2a23.548,23.548,0,0,0,1.235,4.749A3,3,0,0,0,17,33.976a25.388,25.388,0,0,0-.409-4.723A41.715,41.715,0,0,1,16.01,23.236Z" fill="#61616b" data-color="color-2"></path><path d="M14.025,7.021a20.9,20.9,0,0,1,2.455.162,3.717,3.717,0,0,0-.9-1.541A3.076,3.076,0,0,0,13.4,4.966c-.179,0-.366.009-.559.024A9.564,9.564,0,0,0,6.4,8.457,21.083,21.083,0,0,1,14.025,7.021Z" fill="#61616b" data-color="color-2"></path><path d="M20,22.123a30.271,30.271,0,0,1,.532-6.161A24.634,24.634,0,0,0,21,11c0-3.85-.912-6.642-2.71-8.3A7.313,7.313,0,0,0,12.519,1C6.382,1.505,1,6.644,1,12c0,3.522.977,6.035,2.107,8.946.482,1.239.98,2.52,1.439,3.982a46.2,46.2,0,0,1,1.435,6,26.708,26.708,0,0,0,1.4,5.368A7,7,0,0,0,21,34.012a29.353,29.353,0,0,0-.456-5.371A37.568,37.568,0,0,1,20,22.123ZM12.682,3c.248-.02.489-.031.722-.031a5.021,5.021,0,0,1,3.531,1.206c1.176,1.084,1.851,2.937,2.02,5.507A19.046,19.046,0,0,0,3.019,12.528C3.013,12.352,3,12.181,3,12,3,7.7,7.614,3.411,12.682,3ZM14,39a5.018,5.018,0,0,1-4.739-3.4A25.239,25.239,0,0,1,7.948,30.56a48.023,48.023,0,0,0-1.494-6.232c-.024-.077-.049-.148-.074-.225A10.828,10.828,0,0,1,18,21.78c0,.117,0,.222,0,.343a39.815,39.815,0,0,0,.568,6.823A27.4,27.4,0,0,1,19,34,5.006,5.006,0,0,1,14,39Z" fill="#61616b"></path><path d="M31.992,29.269A8.858,8.858,0,0,1,39.329,30.8a51.711,51.711,0,0,0-1.24,5.431,23.482,23.482,0,0,1-1.235,4.749A3,3,0,0,1,31,40.009a25.388,25.388,0,0,1,.409-4.723A41.715,41.715,0,0,0,31.992,29.269Z" fill="#61616b" data-color="color-2"></path><path d="M33.977,13.054a20.91,20.91,0,0,0-2.455.162,3.717,3.717,0,0,1,.9-1.541A3.076,3.076,0,0,1,34.6,11c.18,0,.366.009.559.024A9.564,9.564,0,0,1,41.6,14.49,21.083,21.083,0,0,0,33.977,13.054Z" fill="#61616b" data-color="color-2"></path><path d="M28,28.156A30.2,30.2,0,0,0,27.471,22,24.634,24.634,0,0,1,27,17.033c0-3.85.912-6.642,2.71-8.3a7.317,7.317,0,0,1,5.772-1.7c6.136.5,11.518,5.641,11.518,11,0,3.522-.976,6.035-2.107,8.946-.482,1.239-.98,2.52-1.439,3.982a46.366,46.366,0,0,0-1.435,6,26.691,26.691,0,0,1-1.4,5.368A7,7,0,0,1,27,40.045a29.353,29.353,0,0,1,.456-5.371A37.568,37.568,0,0,0,28,28.156ZM35.321,9.03C35.072,9.01,34.831,9,34.6,9a5.017,5.017,0,0,0-3.53,1.206c-1.177,1.084-1.852,2.937-2.021,5.507a19.045,19.045,0,0,1,15.936,2.849c.006-.176.019-.347.019-.528C45,13.735,40.388,9.444,35.321,9.03ZM34,45.033a5.018,5.018,0,0,0,4.739-3.4,25.171,25.171,0,0,0,1.313-5.041,48.023,48.023,0,0,1,1.494-6.232c.024-.077.05-.148.074-.225A10.828,10.828,0,0,0,30,27.813c0,.117,0,.222,0,.343a39.815,39.815,0,0,1-.568,6.823A27.4,27.4,0,0,0,29,40.033,5.006,5.006,0,0,0,34,45.033Z" fill="#61616b"></path></g></svg>