<svg xmlns="http://www.w3.org/2000/svg" height="32" width="32" viewBox="0 0 32 32"><title>soap 4</title><g fill="#61616b" class="nc-icon-wrapper"><ellipse cx="16" cy="20" rx="8" ry="4" fill="#61616b"></ellipse><circle cx="22.5" cy="4.5" r="2.5" fill="#61616b" data-color="color-2"></circle><circle cx="15.5" cy="1.5" r="1.5" fill="#61616b" data-color="color-2"></circle><path d="M31.969,26.383a51.935,51.935,0,0,1,0-12.754,4.091,4.091,0,0,0-1.137-3.376,4.146,4.146,0,0,0-3.384-1.229,116.172,116.172,0,0,1-12.723.547,4.98,4.98,0,0,1-9.6-.5c-.2-.019-.406-.032-.609-.052a4.113,4.113,0,0,0-4.483,4.6A52.184,52.184,0,0,1,.425,20a52.173,52.173,0,0,1-.392,6.371A4.091,4.091,0,0,0,1.17,29.747a4.136,4.136,0,0,0,3.384,1.229,116.6,116.6,0,0,1,22.932,0A4.035,4.035,0,0,0,27.9,31a4.115,4.115,0,0,0,4.073-4.617ZM16,26c-5.607,0-10-2.636-10-6s4.393-6,10-6,10,2.636,10,6S21.607,26,16,26Z" fill="#61616b"></path><circle cx="10" cy="8" r="3" fill="#61616b" data-color="color-2"></circle></g></svg>