<svg xmlns="http://www.w3.org/2000/svg" height="48" width="48" viewBox="0 0 48 48"><title>soap 3</title><g fill="#61616b" class="nc-icon-wrapper"><circle cx="13" cy="17" r="4" fill="#61616b" data-color="color-2"></circle><path d="M26.756,10.232a6.983,6.983,0,0,1,6.636.3l6.4,3.839a6.5,6.5,0,1,0-10.1-7.782A4.455,4.455,0,0,0,27.5,6a4.447,4.447,0,0,0-4.249,5.92Z" fill="#61616b" data-color="color-2"></path><circle cx="17" cy="5" r="2" fill="#61616b" data-color="color-2"></circle><path d="M43.572,18.978,32.364,12.252a4.985,4.985,0,0,0-4.741-.218l-8.681,4.18a5.989,5.989,0,0,1-10.261,4.94l-3.85,1.854A5.029,5.029,0,0,0,2,27.514v5.221a5.024,5.024,0,0,0,2.428,4.287l11.208,6.726a4.99,4.99,0,0,0,4.741.218L43.169,32.992A5.029,5.029,0,0,0,46,28.486V23.265A5.024,5.024,0,0,0,43.572,18.978ZM39.2,24.9,20.377,33.966a4.99,4.99,0,0,1-4.741-.218L8.485,29.457a1,1,0,0,1,1.03-1.715l7.15,4.291a2.986,2.986,0,0,0,2.845.13L38.336,23.1a1,1,0,1,1,.867,1.8Z" fill="#61616b"></path></g></svg>