<svg xmlns="http://www.w3.org/2000/svg" height="64" width="64" viewBox="0 0 64 64"><title>soap 2</title><g fill="#61616b" class="nc-icon-wrapper"><path d="M57.2,24.683,42.887,15.64a5.961,5.961,0,0,0-5.825-.324L25.4,20.979a7.993,7.993,0,0,1-14.351,6.97L7.379,29.733A6.033,6.033,0,0,0,4,35.13v7.114a5.97,5.97,0,0,0,2.8,5.073L21.113,56.36a5.964,5.964,0,0,0,5.825.324L56.621,42.267A6.033,6.033,0,0,0,60,36.87V29.756A5.97,5.97,0,0,0,57.2,24.683Zm-3.767,6.13-26.5,12.871a5.964,5.964,0,0,1-5.825-.324L10.466,36.635a1,1,0,1,1,1.068-1.692l10.648,6.726a3.973,3.973,0,0,0,3.882.216l26.5-12.87a1,1,0,0,1,.874,1.8Z" fill="#61616b"></path><path d="M21.5,12A3.5,3.5,0,1,1,25,8.5,3.5,3.5,0,0,1,21.5,12Z" fill="#61616b" data-color="color-2"></path><path d="M36.188,13.518a7.962,7.962,0,0,1,7.766.43l8.3,5.242A9.5,9.5,0,0,0,35.6,10.222,5.87,5.87,0,0,0,34,10a5.978,5.978,0,0,0-5.826,7.41Z" fill="#61616b" data-color="color-2"></path><path d="M18,30a6,6,0,1,1,6-6A6.006,6.006,0,0,1,18,30Z" fill="#61616b" data-color="color-2"></path></g></svg>