<svg xmlns="http://www.w3.org/2000/svg" height="24" width="24" viewBox="0 0 24 24"><title>soap</title><g fill="#61616b" class="nc-icon-wrapper"><ellipse cx="12" cy="14" rx="5" ry="2" fill="#61616b"></ellipse><path d="M23.7,14a34.555,34.555,0,0,1,.264-4.254A4.226,4.226,0,0,0,19.3,5.028a63.757,63.757,0,0,1-8.57.381A3.978,3.978,0,0,1,3.19,5.155,4.16,4.16,0,0,0,1.245,6.244,4.27,4.27,0,0,0,.04,9.8,34.686,34.686,0,0,1,.3,14,34.686,34.686,0,0,1,.04,18.2a4.27,4.27,0,0,0,1.205,3.554A4.16,4.16,0,0,0,4.712,22.97a64.124,64.124,0,0,1,14.589,0,4.226,4.226,0,0,0,4.666-4.718A34.555,34.555,0,0,1,23.7,14ZM12,18c-3.991,0-7-1.72-7-4s3.009-4,7-4,7,1.72,7,4S15.991,18,12,18Z" fill="#61616b"></path><circle cx="7" cy="4" r="2" fill="#61616b" data-color="color-2"></circle><circle cx="15.5" cy="2.5" r="1.5" fill="#61616b" data-color="color-2"></circle><circle cx="11" cy="1" r="1" fill="#61616b" data-color="color-2"></circle></g></svg>