<svg xmlns="http://www.w3.org/2000/svg" height="64" width="64" viewBox="0 0 64 64"><title>spa rocks 2</title><g fill="#61616b" class="nc-icon-wrapper"><path d="M47.42,44.915C41.367,47.107,32.519,48,24,48a63.889,63.889,0,0,1-12.465-1.039C8.526,48.432,7,50.444,7,53c0,3.361,3.19,9,24.556,9C50.619,62,62,58.567,62,52.818,62,48.923,56.925,46.227,47.42,44.915Z" fill="#61616b"></path><path d="M46.166,31.774A68.3,68.3,0,0,1,32,33c-7.257,0-11.945-1.55-14.717-3.74C4.164,30.362,2,34.742,2,37.5,2,40.675,4.858,46,24,46c17.075,0,29-3.495,29-8.5C53,35.212,50.5,33.242,46.166,31.774ZM14.5,37c-2.485,0-4.5-.9-4.5-2s2.015-2,4.5-2,4.5.9,4.5,2S16.985,37,14.5,37Z" fill="#61616b" data-color="color-2"></path><path d="M40.259,15.388A15.04,15.04,0,0,1,30,19a15.942,15.942,0,0,1-8.748-2.431C16.874,18.292,16,21.069,16,23c0,3.867,4.2,8,16,8,6.915,0,23-.779,23-8C55,18,47.3,16.091,40.259,15.388ZM44,23c-2.209,0-4-.895-4-2s1.791-2,4-2,4,.895,4,2S46.209,23,44,23Z" fill="#61616b"></path><path d="M30,2C23.832,2,19,5.294,19,9.5S23.832,17,30,17s11-3.294,11-7.5S36.168,2,30,2ZM27.5,9C25.567,9,24,8.105,24,7s1.567-2,3.5-2S31,5.9,31,7,29.433,9,27.5,9Z" fill="#61616b" data-color="color-2"></path></g></svg>