<svg xmlns="http://www.w3.org/2000/svg" height="24" width="24" viewBox="0 0 24 24"><title>spa rocks 5</title><g fill="#61616b" class="nc-icon-wrapper"><path d="M20.1,16.829C18.3,18.078,14.962,19,9,19a25.239,25.239,0,0,1-6.476-.649A2.731,2.731,0,0,0,2,20c0,3.585,5.707,4,10,4,3.608,0,12-.39,12-4C24,18.376,22.3,17.408,20.1,16.829Z" fill="#61616b"></path><path d="M13,13c-5.072,0-7.319-1.364-8.291-2.754C2.148,10.607,0,11.473,0,13.5,0,16.637,5.136,17,9,17c6.888,0,11-1.308,11-3.5a1.8,1.8,0,0,0-.474-1.188A25.638,25.638,0,0,1,13,13Z" fill="#61616b" data-color="color-2"></path><path d="M15.89,5.114A7.51,7.51,0,0,1,10.5,7a9.093,9.093,0,0,1-3.552-.671A2.137,2.137,0,0,0,6,8c0,.7.5,3,7,3,5.636,0,9-1.122,9-3C22,6.47,19.766,5.442,15.89,5.114Z" fill="#61616b"></path><path d="M10.5,5C7.977,5,6,3.9,6,2.5S7.977,0,10.5,0,15,1.1,15,2.5,13.023,5,10.5,5Z" fill="#61616b" data-color="color-2"></path></g></svg>