<svg xmlns="http://www.w3.org/2000/svg" height="48" width="48" viewBox="0 0 48 48"><title>spa rocks 3</title><g fill="#61616b" class="nc-icon-wrapper"><path d="M36.137,33.754C31.361,35.509,24.409,36,18.146,36a53.489,53.489,0,0,1-9.752-.711C6.369,36.322,5,37.822,5,40c0,3.193,3.258,7,18.777,7C38.536,47,47,44.4,47,39.863,47,36.87,43.214,34.789,36.137,33.754Z" fill="#61616b"></path><path d="M35.558,23.177A56.564,56.564,0,0,1,25,24c-6.539,0-10.243-1.267-12.335-2.793C4.925,21.841,1,23.947,1,27.5,1,31.813,6.769,34,18.146,34,31.83,34,40,31.57,40,27.5,40,25.725,38.445,24.263,35.558,23.177Z" fill="#61616b" data-color="color-2"></path><path d="M30.727,11.264A12.363,12.363,0,0,1,22.5,14a13.317,13.317,0,0,1-6.91-1.769c-2.978,1.191-3.59,3-3.59,4.269,0,2.659,3.415,5.5,13,5.5,7.755,0,17-.954,17-5.5C42,13.105,36.375,11.76,30.727,11.264Z" fill="#61616b"></path><path d="M22.5,12C17.733,12,14,9.584,14,6.5S17.733,1,22.5,1,31,3.416,31,6.5,27.267,12,22.5,12Z" fill="#61616b" data-color="color-2"></path></g></svg>