<svg xmlns="http://www.w3.org/2000/svg" height="32" width="32" viewBox="0 0 32 32"><title>spa rocks 4</title><g fill="#61616b" class="nc-icon-wrapper"><path d="M25.838,22.812C23.016,24.252,18.34,25,11.909,25a34.79,34.79,0,0,1-7.542-.7A3.342,3.342,0,0,0,3,27c0,3.317,4.374,5,13,5,10.168,0,16-1.822,16-5C32,25.065,29.826,23.636,25.838,22.812Z" fill="#61616b"></path><path d="M25.37,16.19a34.591,34.591,0,0,1-8.11.81c-5.673,0-8.518-1.308-9.927-2.777C1.4,14.869,0,16.816,0,18.5,0,20.553,2.066,23,11.909,23,21.358,23,27,21.318,27,18.5A2.8,2.8,0,0,0,25.37,16.19Z" fill="#61616b" data-color="color-2"></path><path d="M21.807,7.23A8.712,8.712,0,0,1,15,10,9.69,9.69,0,0,1,9.615,8.5,2.936,2.936,0,0,0,8,11c0,2.5,3.461,4,9.26,4,7.41,0,12.013-1.533,12.013-4C29.273,9.088,26.5,7.741,21.807,7.23Z" fill="#61616b"></path><path d="M15,8C11.636,8,9,6.243,9,4s2.636-4,6-4,6,1.757,6,4S18.364,8,15,8Z" fill="#61616b" data-color="color-2"></path></g></svg>