<svg xmlns="http://www.w3.org/2000/svg" height="16" width="16" viewBox="0 0 16 16"><title>spa rocks</title><g fill="#61616b" class="nc-icon-wrapper"><path d="M11,2.5C11,3.881,8.385,5,5.9,5S2,3.881,2,2.5,3.415,0,5.9,0,11,1.119,11,2.5Z" fill="#61616b"></path><path d="M11.571,5.242A9.249,9.249,0,0,1,5.9,7a8.171,8.171,0,0,1-2.577-.385A1.485,1.485,0,0,0,3,7.5C3,8.881,5.044,10,8.633,10S16,8.881,16,7.5C16,6.5,14.022,5.642,11.571,5.242Z" fill="#61616b" data-color="color-2"></path><path d="M13.522,11.387A20.276,20.276,0,0,1,8.633,12a10.014,10.014,0,0,1-5.964-1.5C.94,11.038,0,11.956,0,13c0,1.657,2.358,3,6.5,3S15,14.657,15,13C15,12.406,14.433,11.853,13.522,11.387Z" fill="#61616b"></path></g></svg>