<svg xmlns="http://www.w3.org/2000/svg" height="64" width="64" viewBox="0 0 64 64"><title>towel hanger 2</title><g fill="#61616b" class="nc-icon-wrapper"><rect x="14" y="43" width="42" height="6" fill="#61616b" data-color="color-2"></rect><path d="M14,51v9a1,1,0,0,0,2,0V58h3v2a1,1,0,0,0,2,0V58h3v2a1,1,0,0,0,2,0V58h3v2a1,1,0,0,0,2,0V58h3v2a1,1,0,0,0,2,0V58h3v2a1,1,0,0,0,2,0V58h3v2a1,1,0,0,0,2,0V58h3v2a1,1,0,0,0,2,0V58h3v2a1,1,0,0,0,2,0V51Z" fill="#61616b"></path><path d="M62,8H58v2h4a1,1,0,0,0,0-2Z" fill="#61616b"></path><path d="M51,3H12A4,4,0,0,0,8,7V8H2a1,1,0,0,0,0,2H12V8H10V7a2,2,0,0,1,4,0V41H56V8A5.006,5.006,0,0,0,51,3Z" fill="#61616b"></path><path d="M12,12H8V48a1,1,0,0,0,1,1h3Z" fill="#61616b"></path></g></svg>