<svg xmlns="http://www.w3.org/2000/svg" height="24" width="24" viewBox="0 0 24 24"><title>towel hanger 5</title><g fill="#61616b" class="nc-icon-wrapper"><path d="M19,16V1a1,1,0,0,0-1-1H6A1,1,0,0,0,5,1V16Z" fill="#61616b"></path><path d="M5,23a1,1,0,0,0,2,0V22H9v1a1,1,0,0,0,2,0V22h2v1a1,1,0,0,0,2,0V22h2v1a1,1,0,0,0,2,0V18H5Z" fill="#61616b" data-color="color-2"></path><path d="M3,2H1A1,1,0,0,0,1,4H3Z" fill="#61616b" data-color="color-2"></path><path d="M23,2H21V4h2a1,1,0,0,0,0-2Z" fill="#61616b" data-color="color-2"></path></g></svg>