<svg xmlns="http://www.w3.org/2000/svg" height="32" width="32" viewBox="0 0 32 32"><title>towel hanger 4</title><g fill="#61616b" class="nc-icon-wrapper"><path d="M3,5H1A1,1,0,0,1,1,3H3Z" fill="#61616b" data-color="color-2"></path><path d="M29,3h2a1,1,0,0,1,0,2H29Z" fill="#61616b" data-color="color-2"></path><path d="M5,31a1,1,0,0,0,2,0V30H9v1a1,1,0,0,0,2,0V30h2v1a1,1,0,0,0,2,0V30h2v1a1,1,0,0,0,2,0V30h2v1a1,1,0,0,0,2,0V30h2v1a1,1,0,0,0,2,0V25H5Z" fill="#61616b" data-color="color-2"></path><path d="M6,0H26a1,1,0,0,1,1,1V23a0,0,0,0,1,0,0H5a0,0,0,0,1,0,0V1A1,1,0,0,1,6,0Z" fill="#61616b"></path></g></svg>