<svg xmlns="http://www.w3.org/2000/svg" height="48" width="48" viewBox="0 0 48 48"><title>towel hanger 3</title><g fill="#61616b" class="nc-icon-wrapper"><path d="M10,40v6a1,1,0,0,0,2,0V45h3v1a1,1,0,0,0,2,0V45h3v1a1,1,0,0,0,2,0V45h3v1a1,1,0,0,0,2,0V45h3v1a1,1,0,0,0,2,0V45h3v1a1,1,0,0,0,2,0V45h3v1a1,1,0,0,0,2,0V40Z" fill="#61616b"></path><path d="M44,5h3a1,1,0,0,1,0,2H44Z" fill="#61616b"></path><path d="M10,4V30H42V4a3,3,0,0,0-3-3H9A3,3,0,0,0,6,4V5H3A1,1,0,0,0,3,7H8V4a1,1,0,0,1,2,0Z" fill="#61616b"></path><rect x="10" y="32" width="32" height="6" fill="#61616b" data-color="color-2"></rect><path d="M6,9V37a1,1,0,0,0,1,1H8V9Z" fill="#61616b"></path></g></svg>