<svg xmlns="http://www.w3.org/2000/svg" height="48" width="48" viewBox="0 0 48 48"><title>travel makeup mirror 2</title><g fill="#61616b" class="nc-icon-wrapper"><path d="M36.109,13.305l-8.4,8.4a1,1,0,0,1-1.414-1.414l8.889-8.89A12.982,12.982,0,0,0,11.891,22.7l8.4-8.4a1,1,0,0,1,1.414,1.414L12.818,24.6A12.982,12.982,0,0,0,36.109,13.305Z" fill="#61616b" data-color="color-2"></path><path d="M31.317,33.321a17,17,0,1,0-14.634,0C12.021,33.748,7,34.733,7,37v6c0,3.808,14.161,4,17,4s17-.192,17-4V37C41,34.733,35.979,33.748,31.317,33.321ZM9,18A15,15,0,1,1,24,33,15.017,15.017,0,0,1,9,18ZM24,39c-8.717,0-13.729-1.232-14.847-2,1.118-.768,6.13-2,14.847-2s13.729,1.232,14.847,2C37.729,37.768,32.717,39,24,39Z" fill="#61616b"></path></g></svg>