<svg xmlns="http://www.w3.org/2000/svg" height="32" width="32" viewBox="0 0 32 32"><title>travel makeup mirror 5</title><g fill="#61616b" class="nc-icon-wrapper"><path d="M18.707,17.707a1,1,0,0,1-1.414-1.414l4.984-4.983.016-.017,2.331-2.331A9.989,9.989,0,0,0,6.5,17.091l6.8-6.8a1,1,0,0,1,1.414,1.414L9.724,16.69l-.017.017L7.376,19.038a9.989,9.989,0,0,0,18.129-8.129Z" fill="#61616b" data-color="color-2"></path><path d="M29,26H23.174A14,14,0,1,0,8.826,26H3a1,1,0,0,0-1,1v1a4,4,0,0,0,4,4H26a4,4,0,0,0,4-4V27A1,1,0,0,0,29,26ZM4,14A12,12,0,1,1,16,26,12.013,12.013,0,0,1,4,14Z" fill="#61616b"></path></g></svg>