<svg xmlns="http://www.w3.org/2000/svg" height="24" width="24" viewBox="0 0 24 24"><title>travel makeup mirror 4</title><g fill="#61616b" class="nc-icon-wrapper"><path d="M21,19H16.33a10,10,0,1,0-8.66,0H3a1,1,0,0,0-1,1v1a3,3,0,0,0,3,3H19a3,3,0,0,0,3-3V20A1,1,0,0,0,21,19ZM4,10a8,8,0,1,1,8,8A8.009,8.009,0,0,1,4,10Z" fill="#61616b"></path><path d="M14.707,11.707a1,1,0,0,1-1.414-1.414l3.666-3.666A5.99,5.99,0,0,0,6.175,11.411L9.293,8.293a1,1,0,0,1,1.414,1.414L7.041,13.373A5.99,5.99,0,0,0,17.825,8.589Z" fill="#61616b" data-color="color-2"></path></g></svg>