<svg xmlns="http://www.w3.org/2000/svg" height="64" width="64" viewBox="0 0 64 64"><title>travel makeup mirror 3</title><g fill="#61616b" class="nc-icon-wrapper"><path d="M38.437,46.077a23,23,0,1,0-12.874,0C18.7,46.414,9,47.426,9,50.454v8C9,62.948,31.061,63,32,63s23-.052,23-4.546v-8C55,47.426,45.3,46.414,38.437,46.077ZM11,24A21,21,0,1,1,32,45,21.024,21.024,0,0,1,11,24ZM32,53c-11.73,0-19.472-1.448-20.872-2.546,1.4-1.1,9.143-2.545,20.872-2.545s19.47,1.448,20.872,2.545C51.472,51.552,43.73,53,32,53Z" fill="#61616b"></path><path d="M49.276,16.138,36.707,28.707a1,1,0,0,1-1.414-1.414L48.3,14.287A18.975,18.975,0,0,0,14.724,31.862L27.293,19.293a1,1,0,0,1,1.414,1.414L15.7,33.713A18.975,18.975,0,0,0,49.276,16.138ZM33.707,31.707l-2,2a1,1,0,0,1-1.414-1.414l2-2a1,1,0,0,1,1.414,1.414Zm0-16-2,2a1,1,0,0,1-1.414-1.414l2-2a1,1,0,0,1,1.414,1.414Z" fill="#61616b" data-color="color-2"></path></g></svg>