<svg xmlns="http://www.w3.org/2000/svg" height="32" width="32" viewBox="0 0 32 32"><title>yoga 4</title><g fill="#61616b" class="nc-icon-wrapper"><circle cx="16" cy="5.5" r="3.5" fill="#61616b"></circle> <path d="M24.5,26H7.5a1.5,1.5,0,0,1,0-3h17a1.5,1.5,0,0,1,0,3Z" fill="#61616b"></path> <path data-color="color-2" d="M31,30H1a1,1,0,0,1,0-2H31a1,1,0,0,1,0,2Z" fill="#61616b"></path> <path d="M27.7,11.844l-3.618,1.8-4.144-3.315A1.5,1.5,0,0,0,19,10H13a1.5,1.5,0,0,0-.937.329L7.919,13.644,4.307,11.836,2.92,13.916l4.248,2.832a1.5,1.5,0,0,0,1.769-.077L12,14.221V22h8V14.221l3.063,2.45a1.5,1.5,0,0,0,1.769.077l4.248-2.832Z" fill="#61616b"></path></g></svg>