<svg xmlns="http://www.w3.org/2000/svg" height="64" width="64" viewBox="0 0 64 64"><title>yoga 2</title><g fill="#61616b" class="nc-icon-wrapper"><circle cx="32" cy="12" r="6" fill="#61616b"></circle> <path data-color="color-2" d="M62,54H40.746a6.51,6.51,0,0,1-1.625,2H62a1,1,0,0,0,0-2Z" fill="#61616b"></path> <path data-color="color-2" d="M23.254,54H2a1,1,0,0,0,0,2H24.879A6.481,6.481,0,0,1,23.254,54Z" fill="#61616b"></path> <path d="M56.776,25.811A2.657,2.657,0,0,0,53.408,24.7l-6.025,2.631-7.39-6.568A3,3,0,0,0,38,20H26a3,3,0,0,0-1.993.758l-7.39,6.568L10.592,24.7a2.655,2.655,0,0,0-2.38,4.738l7.3,4.171a3,3,0,0,0,3.481-.362L24,28.792V41H17.5a3.5,3.5,0,0,0-1.219,6.781l7.393,2.746a3.964,3.964,0,0,1,1.954-2.456,6.544,6.544,0,0,1,3.334-.8s-.332.115-1.262.476a3.449,3.449,0,0,0-2.2,3.455,3.085,3.085,0,0,0,.22,1.014,3.5,3.5,0,0,0,4.5,2.062L32,53.62l1.781.661a3.451,3.451,0,0,0,4.7-3.067l9.242-3.433A3.5,3.5,0,0,0,46.5,41H40V28.792l5.007,4.45a3,3,0,0,0,3.481.362l7.3-4.171A2.655,2.655,0,0,0,56.776,25.811Z" fill="#61616b"></path></g></svg>