<svg xmlns="http://www.w3.org/2000/svg" height="48" width="48" viewBox="0 0 48 48"><title>accessibility lift</title><g class="nc-icon-wrapper"><path d="M35,22H27.465l-1.513-9.075a3.5,3.5,0,0,0-4.027-2.877l-7.8,2a1.5,1.5,0,0,0-.8.514l-4,5a1.5,1.5,0,0,0,2.342,1.876l3.688-4.611,3.657-.944,1.532,9.192A3.5,3.5,0,0,0,24,26h9l.286,4h3.381L37,24A2,2,0,0,0,35,22Z" fill="#5a7a84"></path><path d="M20,36a9,9,0,1,1,9-9A9.01,9.01,0,0,1,20,36Z" fill="#444"></path><circle cx="20" cy="27" r="7" fill="#e6e6e6"></circle><path d="M17.707,42.293l-4-4a1,1,0,0,0-1.414,0l-4,4A1,1,0,0,0,9,44h3v3a1,1,0,0,0,2,0V44h3a1,1,0,0,0,.707-1.707Z" fill="#b3b3b3"></path><circle cx="35" cy="34" r="2" fill="#444"></circle><circle cx="22" cy="4" r="4" fill="#5a7a84"></circle><path d="M38.924,42.617A1,1,0,0,0,38,42H35V39a1,1,0,0,0-2,0v3H30a1,1,0,0,0-.707,1.707l4,4a1,1,0,0,0,1.414,0l4-4A1,1,0,0,0,38.924,42.617Z" fill="#b3b3b3"></path><circle cx="20" cy="27" r="2" fill="#444"></circle></g></svg>