<svg xmlns="http://www.w3.org/2000/svg" height="48" width="48" viewBox="0 0 48 48"><title>adaptive bike</title><g class="nc-icon-wrapper"><circle cx="38" cy="34" r="8" fill="#e6e6e6"></circle><path d="M38,25a9,9,0,1,0,9,9A9,9,0,0,0,38,25Zm0,16a7,7,0,1,1,7-7A7,7,0,0,1,38,41Z" fill="#424242"></path><path d="M38.677,31.294l-7.5-4a2.511,2.511,0,0,0-1.988-.159l-4.721,1.619-2.34-7.018,1.932,1.029A2,2,0,0,0,25,23a1.935,1.935,0,0,0,.283-.021l7-1a2,2,0,1,0-.566-3.958l-6.353.907s-6.868-3.632-7-3.667a3.978,3.978,0,0,0-5.163,5l4,12a4,4,0,0,0,5.06,2.53l7.517-2.577,6.541,3.488a2.5,2.5,0,0,0,2.354-4.412Z" fill="#477b85"></path><circle cx="15.5" cy="9.5" r="4.5" fill="#477b85"></circle><circle cx="10" cy="34" r="8" fill="#e6e6e6"></circle><path d="M10,25a9,9,0,1,0,9,9A9,9,0,0,0,10,25Zm0,16a7,7,0,1,1,7-7A7,7,0,0,1,10,41Z" fill="#424242"></path><circle cx="10" cy="34" r="2" fill="#424242"></circle></g></svg>