<svg xmlns="http://www.w3.org/2000/svg" height="48" width="48" viewBox="0 0 48 48"><title>audio description</title><g class="nc-icon-wrapper"><path d="M45,6H3A3,3,0,0,0,0,9V35a3,3,0,0,0,3,3H29.667L37.4,43.8a1,1,0,0,0,.6.2,1,1,0,0,0,1-1V38h6a3,3,0,0,0,3-3V9A3,3,0,0,0,45,6Z" fill="#444"></path><path d="M36.966,16.21a8.3,8.3,0,0,0-5.973-2.03H26.062V29.885H30.51q4.167,0,6.375-2.063a7.732,7.732,0,0,0,2.208-5.94A7.467,7.467,0,0,0,36.966,16.21ZM30.821,27.135H29.393V16.908h1.772q4.47,0,4.469,5.06Q35.634,27.134,30.821,27.135Z" fill="#b3b3b3"></path><path d="M14.45,14.115,8.907,29.885H12.5l1.139-3.739h5.725L20.5,29.885h3.588l-5.565-15.77Zm.022,9.239q1.676-5.425,2.03-6.8.087.387.284,1.052t1.778,5.748Z" fill="#b3b3b3"></path></g></svg>