<svg xmlns="http://www.w3.org/2000/svg" height="48" width="48" viewBox="0 0 48 48"><title>deaf</title><g class="nc-icon-wrapper"><path d="M20,46a8.01,8.01,0,0,1-8-8,22.634,22.634,0,0,1,.825-6.175,8.006,8.006,0,0,0,.205-4.583h0a7.325,7.325,0,0,0-1.4-2.523A11.514,11.514,0,0,1,9,17a15,15,0,0,1,30,0c0,6.134-2.477,9.094-5.1,12.229a23.722,23.722,0,0,0-4.955,8.09C27.715,40.979,26.026,45.989,20,46Z" fill="#dd9b6f"></path><path d="M14.97,26.758a9.937,9.937,0,0,1-.206,5.557A20.6,20.6,0,0,0,14,38a6.006,6.006,0,0,0,6,6c4.259-.008,5.609-3.038,7.053-7.319a25.732,25.732,0,0,1,5.315-8.736C34.854,24.974,37,22.407,37,17a13,13,0,0,0-26,0,9.552,9.552,0,0,0,2.246,6.537,9.054,9.054,0,0,1,1.724,3.221Z" fill="#eebc99"></path><path d="M29.9,19.106a.983.983,0,0,1-.186-.017,1,1,0,0,1-.8-1.167A5,5,0,1,0,19,17a1,1,0,0,1-2,0,7,7,0,1,1,13.876,1.291A1,1,0,0,1,29.9,19.106Z" fill="#dd9b6f"></path><circle cx="21" cy="24" r="3" fill="#dd9b6f"></circle><rect x="-5.699" y="22" width="59.397" height="4" rx="1" transform="translate(-9.941 24) rotate(-45)" fill="#e86c60"></rect></g></svg>