<svg xmlns="http://www.w3.org/2000/svg" height="48" width="48" viewBox="0 0 48 48"><title>escalator</title><g class="nc-icon-wrapper"><circle cx="16" cy="7" r="5" fill="#6ca5b7"></circle><path d="M19.928,25.369,20,18a4,4,0,0,0-8,0V32.228Z" fill="#3d6c7b"></path><path d="M40.5,15h-6a6.5,6.5,0,0,0-4.23,1.564L11.1,33H7.5a6.5,6.5,0,0,0,0,13h6a6.5,6.5,0,0,0,4.23-1.564L36.9,28h3.6a6.5,6.5,0,0,0,0-13Z" fill="#363636"></path><path d="M7.5,44a4.5,4.5,0,0,1,0-9h4.336L31.571,18.083A4.513,4.513,0,0,1,34.5,17h6a4.5,4.5,0,0,1,0,9H36.164L16.429,42.917A4.508,4.508,0,0,1,13.5,44Z" fill="#c8c8c8"></path><path d="M45,36H37a1,1,0,0,0-.707,1.707L39.586,41l-3.293,3.293a1,1,0,0,0,1.39,1.439l.024-.025L41,42.414l3.293,3.293A1,1,0,0,0,46,45V37A1,1,0,0,0,45,36Z" fill="#363636"></path></g></svg>