<svg xmlns="http://www.w3.org/2000/svg" height="48" width="48" viewBox="0 0 48 48"><title>low vision</title><g class="nc-icon-wrapper"><path d="M24,35C11.562,35,3.47,21.088,3.132,20.5a1,1,0,0,1,0-.989C3.466,18.915,11.5,5,24,5,36.437,5,44.53,18.912,44.868,19.5a1,1,0,0,1,0,.995C44.525,21.091,36.373,35,24,35Z" fill="#e6e6e6"></path><circle cx="24" cy="20" r="11" fill="#43a6dd"></circle><circle cx="24" cy="20" r="6" fill="#444"></circle><circle cx="19.5" cy="16.5" r="2.5" fill="#fff"></circle><path d="M47.121,44l-5.793-5.793a9.027,9.027,0,1,0-2.121,2.121L45,46.121Z" fill="#335262"></path><circle cx="34" cy="33" r="7" fill="#c8e9ec"></circle><polygon points="38 32 35 32 35 29 33 29 33 32 30 32 30 34 33 34 33 37 35 37 35 34 38 34 38 32" fill="#5a7a84"></polygon></g></svg>