<svg xmlns="http://www.w3.org/2000/svg" height="48" width="48" viewBox="0 0 48 48"><title>screen reader</title><g class="nc-icon-wrapper"><path d="M41,41H5a4,4,0,0,1-4-4V9A4,4,0,0,1,5,5H41a4,4,0,0,1,4,4V37A4,4,0,0,1,41,41Z" fill="#e6e6e6"></path><path d="M28.434,16.1a1,1,0,0,0-1.059.12L17.649,24H12a4,4,0,0,0-4,4v6a4,4,0,0,0,4,4h5.649l9.726,7.781A1,1,0,0,0,29,45V17A1,1,0,0,0,28.434,16.1Z" fill="#335262"></path><path d="M38,45.27a1,1,0,0,1-.468-1.884,14.006,14.006,0,0,0,0-24.772,1,1,0,1,1,.934-1.767,16,16,0,0,1,0,28.306A.994.994,0,0,1,38,45.27Z" fill="#ed7064"></path><path d="M35,38.93a1,1,0,0,1-.5-1.866,7,7,0,0,0,0-12.128,1,1,0,0,1,1-1.731,9,9,0,0,1,0,15.59A.989.989,0,0,1,35,38.93Z" fill="#ed7064"></path></g></svg>