<svg xmlns="http://www.w3.org/2000/svg" height="48" width="48" viewBox="0 0 48 48"><title>walking support</title><g class="nc-icon-wrapper"><path d="M45.707,12.293l-10-10a1,1,0,0,0-1.414,0l-4,4-16,16a1,1,0,0,0-.255.433L10.109,36.477,2.293,44.293a1,1,0,1,0,1.414,1.414l7.816-7.816,13.751-3.929a1,1,0,0,0,.433-.255l16-16,4-4A1,1,0,0,0,45.707,12.293ZM33,23.586,24.414,15,32,7.414,40.586,16Zm-8.523,8.523L12.456,35.544l3.435-12.021L23,16.414,31.586,25Z" fill="#b3b3b3"></path><path d="M45.707,13.707a1,1,0,0,0,0-1.414l-10-10a1,1,0,0,0-1.414,0L30.586,6,42,17.414Z" fill="#a67c52"></path></g></svg>