<svg xmlns="http://www.w3.org/2000/svg" height="48" width="48" viewBox="0 0 48 48"><title>walking aid</title><g class="nc-icon-wrapper"><path d="M34,25a7.009,7.009,0,0,0-7,7V46a1,1,0,0,0,2,0V37H39v7a1,1,0,0,0,2,0V32A7.009,7.009,0,0,0,34,25Zm5,10H29V32a5,5,0,0,1,10,0Z" fill="#b3b3b3"></path><path d="M33.9,24.21l-5.4-2.7s-4.033-8.123-4.081-8.193a4.449,4.449,0,0,0-7.259-.83l-9,10a4.472,4.472,0,0,0-1.1,3.56c.007.1,1.89,9.9,1.89,9.9L7.066,43.927a2.5,2.5,0,1,0,4.868,1.144l2-8.506a2.5,2.5,0,0,0,.02-1.048l-.961-4.95L23.008,19.44l2.2,4.446a2,2,0,0,0,.9.9l6,3A2,2,0,0,0,33.9,24.21Z" fill="#5a7a84"></path><circle cx="26" cy="5.999" r="5" fill="#5a7a84"></circle><path d="M19.446,34.479a2.5,2.5,0,0,0-.473-1.021l-2.732-3.51-1.095,1.216.771,3.972a4.451,4.451,0,0,1-.037,1.888l-.531,2.261,1.2,5.729a2.5,2.5,0,0,0,4.892-1.03Z" fill="#335262"></path><circle cx="40" cy="43.999" r="3" fill="#444"></circle><circle cx="40" cy="44" r="1" fill="#b3b3b3"></circle></g></svg>