<svg xmlns="http://www.w3.org/2000/svg" height="48" width="48" viewBox="0 0 48 48"><title>wheelchair 2</title><g class="nc-icon-wrapper"><path d="M38,24.1V17a5.006,5.006,0,0,0-5-5H12.82L10.98,2.8A1,1,0,0,0,10,2H4A1,1,0,0,0,4,4H9.181l3.485,17.43a1,1,0,0,0,.98.8.959.959,0,0,0,.2-.019,1,1,0,0,0,.784-1.177L13.22,14H33a3,3,0,0,1,3,3v7H24.94a1,1,0,1,0,0,2H37a3,3,0,0,1,3,3V39a1,1,0,0,0,2,0V29A5.009,5.009,0,0,0,38,24.1Z" fill="#b3b3b3"></path><path d="M16,46A13,13,0,1,1,29,33,13.015,13.015,0,0,1,16,46Z" fill="#444"></path><circle cx="16" cy="33" r="10" fill="#e6e6e6"></circle><path d="M16,30a3,3,0,1,0,3,3A3,3,0,0,0,16,30Z" fill="#444"></path><path d="M41,46a4,4,0,1,1,4-4A4,4,0,0,1,41,46Z" fill="#444"></path><circle cx="41" cy="42" r="2" fill="#b3b3b3"></circle><path d="M19.9,11H32.1a.9.9,0,0,1,.9.9V14a0,0,0,0,1,0,0H19a0,0,0,0,1,0,0V11.9A.9.9,0,0,1,19.9,11Z" fill="#444"></path></g></svg>