<svg xmlns="http://www.w3.org/2000/svg" height="48" width="48" viewBox="0 0 48 48"><title>wheelchair ramp</title><g class="nc-icon-wrapper"><circle cx="18.5" cy="5.5" r="4.5" fill="#5a7a84"></circle><path d="M44,47H4a1,1,0,0,1-.1-1.995l40-4a1.017,1.017,0,0,1,.771.254A1,1,0,0,1,45,42v4A1,1,0,0,1,44,47Z" fill="#c6a279"></path><path d="M34.335,32.367l3.568-.58-.935-6.144a2,2,0,0,0-2.3-1.615l-7.693,1.3L23.831,14.851a4,4,0,0,0-4.98-2.682c-.039.012-8.464,3.151-8.464,3.151a1.755,1.755,0,0,0-.943.837L6.2,22.448a1.75,1.75,0,0,0,3.11,1.606l2.939-5.691,3.879-1.449c.019.079.022.157.046.235l3,10A4,4,0,0,0,23,30a3.949,3.949,0,0,0,.647-.058L33.386,28.3Z" fill="#5a7a84"></path><circle cx="37" cy="37" r="3" fill="#444"></circle><path d="M19,42A10,10,0,1,1,29,32,10.011,10.011,0,0,1,19,42Z" fill="#444"></path><circle cx="19" cy="32" r="8" fill="#e6e6e6"></circle><circle cx="37" cy="37" r="1" fill="#e6e6e6"></circle><circle cx="19" cy="32" r="2" fill="#444"></circle></g></svg>