<svg xmlns="http://www.w3.org/2000/svg" height="48" width="48" viewBox="0 0 48 48"><title>clock anim 3</title><g fill="#61616b" class="nc-icon-wrapper"><g class="nc-loop-clock-anim-icon-f"><path d="M24,47A23,23,0,1,1,47,24,23.025,23.025,0,0,1,24,47ZM24,3A21,21,0,1,0,45,24,21.024,21.024,0,0,0,24,3Z" fill="#61616b"></path><path d="M24,13a1,1,0,0,1-1-1V8a1,1,0,0,1,2,0v4A1,1,0,0,1,24,13Z" fill="#61616b"></path><path d="M40,25H36a1,1,0,0,1,0-2h4a1,1,0,0,1,0,2Z" fill="#61616b"></path><path d="M24,41a1,1,0,0,1-1-1V36a1,1,0,0,1,2,0v4A1,1,0,0,1,24,41Z" fill="#61616b"></path><path d="M12,25H8a1,1,0,0,1,0-2h4a1,1,0,0,1,0,2Z" fill="#61616b"></path><path d="M24,26a2,2,0,0,1-2-2V8a2,2,0,0,1,4,0V24A2,2,0,0,1,24,26Z" fill="#61616b" data-color="color-2"></path><path d="M26,11V24a2,2,0,0,1-4,0V11a2,2,0,0,1,4,0Z" fill="#61616b" data-color="color-2"></path></g><style>.nc-loop-clock-anim-icon-f>*{--animation-duration:1s;transform-origin:50% 50%}.nc-loop-clock-anim-icon-f>:nth-last-child(2){animation:nc-loop-clock-anim-m calc(var(--animation-duration)/2) infinite linear}.nc-loop-clock-anim-icon-f>:nth-last-child(1){animation:nc-loop-clock-anim-h var(--animation-duration) infinite linear}@keyframes nc-loop-clock-anim-h{0%{transform:rotate(90deg)}100%{transform:rotate(450deg)}}@keyframes nc-loop-clock-anim-m{0%{transform:rotate(0)}100%{transform:rotate(360deg)}}</style></g></svg>