<svg xmlns="http://www.w3.org/2000/svg" height="24" width="24" viewBox="0 0 24 24"><title>clock anim 5</title><g fill="#61616b" class="nc-icon-wrapper"><g class="nc-loop-clock-anim-icon-f"><path d="M12,24A12,12,0,1,1,24,12,12.013,12.013,0,0,1,12,24ZM12,2A10,10,0,1,0,22,12,10.011,10.011,0,0,0,12,2Z" fill="#61616b"></path><path d="M12,13a1,1,0,0,1-1-1V5a1,1,0,0,1,2,0v7A1,1,0,0,1,12,13Z" fill="#61616b" data-color="color-2"></path><path d="M13,6v6a1,1,0,0,1-2,0V6a1,1,0,0,1,2,0Z" fill="#61616b" data-color="color-2"></path></g><style>.nc-loop-clock-anim-icon-f>*{--animation-duration:1s;transform-origin:50% 50%}.nc-loop-clock-anim-icon-f>:nth-last-child(2){animation:nc-loop-clock-anim-m calc(var(--animation-duration)/2) infinite linear}.nc-loop-clock-anim-icon-f>:nth-last-child(1){animation:nc-loop-clock-anim-h var(--animation-duration) infinite linear}@keyframes nc-loop-clock-anim-h{0%{transform:rotate(90deg)}100%{transform:rotate(450deg)}}@keyframes nc-loop-clock-anim-m{0%{transform:rotate(0)}100%{transform:rotate(360deg)}}</style></g></svg>