<svg xmlns="http://www.w3.org/2000/svg" height="32" width="32" viewBox="0 0 32 32"><title>clock anim 4</title><g fill="#61616b" class="nc-icon-wrapper"><g class="nc-loop-clock-anim-icon-f"><path d="M16,32A16,16,0,1,1,32,16,16.019,16.019,0,0,1,16,32ZM16,2A14,14,0,1,0,30,16,14.015,14.015,0,0,0,16,2Z" fill="#61616b"></path><path d="M16,17a1,1,0,0,1-1-1V6a1,1,0,0,1,2,0V16A1,1,0,0,1,16,17Z" fill="#61616b" data-color="color-2"></path><path d="M17,8v8a1,1,0,0,1-2,0V8a1,1,0,0,1,2,0Z" fill="#61616b" data-color="color-2"></path></g><style>.nc-loop-clock-anim-icon-f>*{--animation-duration:1s;transform-origin:50% 50%}.nc-loop-clock-anim-icon-f>:nth-last-child(2){animation:nc-loop-clock-anim-m calc(var(--animation-duration)/2) infinite linear}.nc-loop-clock-anim-icon-f>:nth-last-child(1){animation:nc-loop-clock-anim-h var(--animation-duration) infinite linear}@keyframes nc-loop-clock-anim-h{0%{transform:rotate(90deg)}100%{transform:rotate(450deg)}}@keyframes nc-loop-clock-anim-m{0%{transform:rotate(0)}100%{transform:rotate(360deg)}}</style></g></svg>