<svg xmlns="http://www.w3.org/2000/svg" height="16" width="16" viewBox="0 0 16 16"><title>clock anim</title><g fill="#61616b" class="nc-icon-wrapper"><g class="nc-loop-clock-anim-icon-f"><path d="M8,16a8,8,0,1,1,8-8A8.009,8.009,0,0,1,8,16ZM8,2a6,6,0,1,0,6,6A6.006,6.006,0,0,0,8,2Z" fill="#61616b"></path><path d="M8,9A1,1,0,0,1,7,8V4A1,1,0,0,1,9,4V8A1,1,0,0,1,8,9Z" fill="#61616b" data-color="color-2"></path><path d="M9,4V8A1,1,0,0,1,7,8V4A1,1,0,0,1,9,4Z" fill="#61616b" data-color="color-2"></path></g><style>.nc-loop-clock-anim-icon-f>*{--animation-duration:1s;transform-origin:50% 50%}.nc-loop-clock-anim-icon-f>:nth-last-child(2){animation:nc-loop-clock-anim-m calc(var(--animation-duration)/2) infinite linear}.nc-loop-clock-anim-icon-f>:nth-last-child(1){animation:nc-loop-clock-anim-h var(--animation-duration) infinite linear}@keyframes nc-loop-clock-anim-h{0%{transform:rotate(90deg)}100%{transform:rotate(450deg)}}@keyframes nc-loop-clock-anim-m{0%{transform:rotate(0)}100%{transform:rotate(360deg)}}</style></g></svg>