<svg xmlns="http://www.w3.org/2000/svg" height="48" width="48" viewBox="0 0 48 48"><title>mouse anim 3</title><g fill="#61616b" class="nc-icon-wrapper"><g class="nc-loop-mouse-48-icon-f"><path d="M28,47H20A11.013,11.013,0,0,1,9,36V12A11.013,11.013,0,0,1,20,1h8A11.013,11.013,0,0,1,39,12V36A11.013,11.013,0,0,1,28,47ZM20,3a9.01,9.01,0,0,0-9,9V36a9.01,9.01,0,0,0,9,9h8a9.01,9.01,0,0,0,9-9V12a9.01,9.01,0,0,0-9-9Z" fill="#61616b"></path><path d="M24,22a2.5,2.5,0,0,1-2.5-2.5v-9a2.5,2.5,0,0,1,5,0v9A2.5,2.5,0,0,1,24,22Z" fill="#61616b" data-color="color-2"></path></g><style>.nc-loop-mouse-48-icon-f>:nth-child(2){--animation-duration:1s;transform-origin:50% 50%;animation:nc-loop-mouse-anim var(--animation-duration) infinite}@keyframes nc-loop-mouse-anim{0%,100%{transform:translateY(0)}50%{transform:translateY(20%)}}</style></g></svg>