<svg xmlns="http://www.w3.org/2000/svg" height="32" width="32" viewBox="0 0 32 32"><title>mouse anim 4</title><g fill="#61616b" class="nc-icon-wrapper"><g class="nc-loop-mouse-32-icon-f"><path d="M19,32H13a7.008,7.008,0,0,1-7-7V7a7.008,7.008,0,0,1,7-7h6a7.008,7.008,0,0,1,7,7V25A7.008,7.008,0,0,1,19,32ZM13,2A5.006,5.006,0,0,0,8,7V25a5.006,5.006,0,0,0,5,5h6a5.006,5.006,0,0,0,5-5V7a5.006,5.006,0,0,0-5-5Z" fill="#61616b"></path><path d="M16,15a2,2,0,0,1-2-2V7a2,2,0,0,1,4,0v6A2,2,0,0,1,16,15Z" fill="#61616b" data-color="color-2"></path></g><style>.nc-loop-mouse-32-icon-f>:nth-child(2){--animation-duration:1s;transform-origin:50% 50%;animation:nc-loop-mouse-anim var(--animation-duration) infinite}@keyframes nc-loop-mouse-anim{0%,100%{transform:translateY(0)}50%{transform:translateY(20%)}}</style></g></svg>