<svg xmlns="http://www.w3.org/2000/svg" height="64" width="64" viewBox="0 0 64 64"><title>mouse anim 2</title><g fill="#61616b" class="nc-icon-wrapper"><g class="nc-loop-mouse-64-icon-f"><path d="M38,62H26A13.015,13.015,0,0,1,13,49V15A13.015,13.015,0,0,1,26,2H38A13.015,13.015,0,0,1,51,15V49A13.015,13.015,0,0,1,38,62ZM26,4A11.013,11.013,0,0,0,15,15V49A11.013,11.013,0,0,0,26,60H38A11.013,11.013,0,0,0,49,49V15A11.013,11.013,0,0,0,38,4Z" fill="#61616b"></path><path d="M32,29a3,3,0,0,1-3-3V14a3,3,0,0,1,6,0V26A3,3,0,0,1,32,29Z" fill="#61616b" data-color="color-2"></path></g><style>.nc-loop-mouse-64-icon-f>:nth-child(2){--animation-duration:1s;transform-origin:50% 50%;animation:nc-loop-mouse-anim var(--animation-duration) infinite}@keyframes nc-loop-mouse-anim{0%,100%{transform:translateY(0)}50%{transform:translateY(20%)}}</style></g></svg>