<svg xmlns="http://www.w3.org/2000/svg" height="16" width="16" viewBox="0 0 16 16"><title>mouse anim</title><g fill="#61616b" class="nc-icon-wrapper"><g class="nc-loop-mouse-16-icon-f"><path d="M10,0H6A4.012,4.012,0,0,0,2,4v8a4.012,4.012,0,0,0,4,4h4a4.012,4.012,0,0,0,4-4V4A4.012,4.012,0,0,0,10,0Zm2,12a2.006,2.006,0,0,1-2,2H6a2.006,2.006,0,0,1-2-2V4A2.006,2.006,0,0,1,6,2h4a2.006,2.006,0,0,1,2,2Z" fill="#61616b"></path><path d="M8,4A.945.945,0,0,0,7,5V7A.945.945,0,0,0,8,8,.945.945,0,0,0,9,7V5A.945.945,0,0,0,8,4Z" fill="#61616b" data-color="color-2"></path></g><style>.nc-loop-mouse-16-icon-f>:nth-child(2){--animation-duration:1s;transform-origin:50% 50%;animation:nc-loop-mouse-anim var(--animation-duration) infinite}@keyframes nc-loop-mouse-anim{0%,100%{transform:translateY(0)}50%{transform:translateY(20%)}}</style></g></svg>