<svg xmlns="http://www.w3.org/2000/svg" height="48" width="48" style="" viewBox="0 0 48 48"><title>bee</title><g class="nc-icon-wrapper"> <path d="M27.715 13H20.285L16.87 23H31.131L27.715 13Z" fill="url(#nc-bee-0_linear_307_368)"></path> <path d="M14.014 31.367L14.081 31.648C14.23 32.271 14.541 33.5 15.012 35H32.989C33.46 33.5 33.773 32.271 33.922 31.648L33.989 31.367L33.18 29H14.822L14.014 31.367Z" fill="url(#nc-bee-1_linear_307_368)"></path> <path d="M23.9999 47C26.7699 47 28.9789 44.224 30.6109 41H17.3879C19.0189 44.224 21.2259 47 23.9999 47Z" fill="url(#nc-bee-2_linear_307_368)"></path> <path d="M17.387 41H30.61C31.63 38.985 32.423 36.798 32.988 35H15.012C15.576 36.798 16.368 38.985 17.387 41Z" fill="url(#nc-bee-3_linear_307_368)"></path> <path d="M16.87 23L14.822 29H33.181L31.131 23H16.87Z" fill="url(#nc-bee-4_linear_307_368)"></path> <path d="M24 13C21.597 13 17 11.053 17 8C17 3.663 21.077 1 24 1C26.923 1 31 3.663 31 8C31 11.053 26.403 13 24 13Z" fill="url(#nc-bee-5_linear_307_368)"></path> <path d="M25.295 11.042L24 11L22.705 11.042C11.188 11.726 1 21.406 1 32V33H12.048C16.053 33 19.518 30.423 20.66 26.611C20.68 26.551 22.344 21.479 24 15.714C25.656 21.478 27.318 26.547 27.332 26.586C28.483 30.423 31.947 33 35.953 33H47.001V32C47.001 21.406 36.812 11.726 25.295 11.042Z" fill="url(#nc-bee-6_linear_307_368)"></path> <defs> <linearGradient id="nc-bee-0_linear_307_368" x1="24.0005" y1="13" x2="24.0005" y2="23" gradientUnits="userSpaceOnUse"> <stop stop-color="#5B5E71"></stop> <stop offset="1" stop-color="#393A46"></stop> </linearGradient> <linearGradient id="nc-bee-1_linear_307_368" x1="24.0015" y1="29" x2="24.0015" y2="35" gradientUnits="userSpaceOnUse"> <stop stop-color="#5B5E71"></stop> <stop offset="1" stop-color="#393A46"></stop> </linearGradient> <linearGradient id="nc-bee-2_linear_307_368" x1="23.9994" y1="41" x2="23.9994" y2="47" gradientUnits="userSpaceOnUse"> <stop stop-color="#5B5E71"></stop> <stop offset="1" stop-color="#393A46"></stop> </linearGradient> <linearGradient id="nc-bee-3_linear_307_368" x1="24" y1="35" x2="24" y2="41" gradientUnits="userSpaceOnUse"> <stop stop-color="#FFD36E"></stop> <stop offset="1" stop-color="#F6B828"></stop> </linearGradient> <linearGradient id="nc-bee-4_linear_307_368" x1="24.0015" y1="23" x2="24.0015" y2="29" gradientUnits="userSpaceOnUse"> <stop stop-color="#FFD36E"></stop> <stop offset="1" stop-color="#F6B828"></stop> </linearGradient> <linearGradient id="nc-bee-5_linear_307_368" x1="24" y1="1" x2="24" y2="13" gradientUnits="userSpaceOnUse"> <stop stop-color="#5B5E71"></stop> <stop offset="1" stop-color="#393A46"></stop> </linearGradient> <linearGradient id="nc-bee-6_linear_307_368" x1="24.0005" y1="11" x2="24.0005" y2="33" gradientUnits="userSpaceOnUse"> <stop stop-color="#DEF2FD"></stop> <stop offset="1" stop-color="#9ED9FA"></stop> </linearGradient> </defs> </g></svg>