<svg xmlns="http://www.w3.org/2000/svg" height="48" width="48" style="" viewBox="0 0 48 48"><title>border collie</title><g class="nc-icon-wrapper"><path d="M39.084 45.833C39.031 45.833 38.979 45.829 38.925 45.82C34.827 45.16 31.325 42.601 29.439 38.923H18.562C16.675 42.602 13.173 45.16 9.076 45.82C8.641 45.89 8.218 45.672 8.022 45.28L6.553 42.342L3.448 43.895C3.136 44.049 2.769 44.034 2.475 43.851C2.18 43.668 2 43.347 2 43C2 32.355 3.857 27.507 5.496 23.229C6.706 20.07 7.751 17.341 7.962 12.709C7.973 12.484 7.834 12.344 7.774 12.295C7.704 12.235 7.549 12.143 7.358 12.192C6.112 12.492 4.969 13.132 4.055 14.045C3.807 14.293 3.45 14.394 3.106 14.307C2.766 14.222 2.495 13.964 2.392 13.629C2.132 12.775 2 11.89 2 10.999C2 6.037 6.037 2 11 2C12.865 2 14.646 2.56 16.153 3.618C17.509 4.57 19.062 4.892 20.408 4.501C22.701 3.835 25.3 3.835 27.591 4.501C28.941 4.893 30.489 4.57 31.848 3.618C33.354 2.559 35.135 2 37 2C41.963 2 46 6.037 46 11C46 11.891 45.868 12.775 45.608 13.63C45.505 13.965 45.234 14.223 44.894 14.308C44.552 14.395 44.194 14.294 43.945 14.046C43.031 13.134 41.888 12.493 40.641 12.193C40.448 12.141 40.297 12.236 40.226 12.296C40.165 12.345 40.027 12.485 40.038 12.71C40.249 17.342 41.294 20.07 42.504 23.23C44.143 27.507 46 32.356 46 43.001C46 43.348 45.82 43.669 45.525 43.852C45.231 44.036 44.862 44.05 44.552 43.896L41.447 42.343L39.978 45.281C39.807 45.624 39.457 45.834 39.083 45.834L39.084 45.833Z" fill="url(#nc-border-collie-0_linear_318_2)"></path> <path d="M15 19C13.897 19 13 18.103 13 17C13 15.897 13.897 15 15 15C16.103 15 17 15.897 17 17C17 18.103 16.103 19 15 19Z" fill="url(#nc-border-collie-1_linear_318_2)"></path> <path d="M33 19C31.897 19 31 18.103 31 17C31 15.897 31.897 15 33 15C34.103 15 35 15.897 35 17C35 18.103 34.103 19 33 19Z" fill="url(#nc-border-collie-2_linear_318_2)"></path> <path d="M27 40C25.942 40 24.918 39.718 24 39.179C23.082 39.718 22.058 40 21 40C17.691 40 15 37.309 15 34C15 30.844 16.146 28.762 17.359 26.558C19.065 23.457 21 19.945 21 12C21 10.346 22.346 9 24 9C25.654 9 27 10.346 27 12C27 19.944 28.935 23.457 30.641 26.558C31.854 28.762 33 30.844 33 34C33 37.309 30.309 40 27 40Z" fill="url(#nc-border-collie-3_linear_318_2)"></path> <path d="M24 33C21.841 33 20.5 33.767 20.5 35C20.5 36.282 22.23 38 24 38C25.77 38 27.5 36.282 27.5 35C27.5 33.767 26.159 33 24 33Z" fill="url(#nc-border-collie-4_linear_318_2)"></path> <defs> <linearGradient id="nc-border-collie-0_linear_318_2" x1="24" y1="2" x2="24" y2="45.834" gradientUnits="userSpaceOnUse"> <stop stop-color="#A2A3B4"></stop> <stop offset="1" stop-color="#83849B"></stop> </linearGradient> <linearGradient id="nc-border-collie-1_linear_318_2" x1="15" y1="15" x2="15" y2="19" gradientUnits="userSpaceOnUse"> <stop stop-color="#5B5E71"></stop> <stop offset="1" stop-color="#393A46"></stop> </linearGradient> <linearGradient id="nc-border-collie-2_linear_318_2" x1="33" y1="15" x2="33" y2="19" gradientUnits="userSpaceOnUse"> <stop stop-color="#5B5E71"></stop> <stop offset="1" stop-color="#393A46"></stop> </linearGradient> <linearGradient id="nc-border-collie-3_linear_318_2" x1="24" y1="9" x2="24" y2="40" gradientUnits="userSpaceOnUse"> <stop stop-color="#E0E0E6"></stop> <stop offset="1" stop-color="#C2C3CD"></stop> </linearGradient> <linearGradient id="nc-border-collie-4_linear_318_2" x1="24" y1="33" x2="24" y2="38" gradientUnits="userSpaceOnUse"> <stop stop-color="#5B5E71"></stop> <stop offset="1" stop-color="#393A46"></stop> </linearGradient> </defs></g></svg>