<svg xmlns="http://www.w3.org/2000/svg" height="48" width="48" style="" viewBox="0 0 48 48"><title>chicken 2</title><g class="nc-icon-wrapper"> <path d="M41.584 22.411C41.432 22.411 41.281 22.377 41.141 22.307L22.923 13.312C22.677 13.191 22.492 12.974 22.411 12.712C22.142 11.848 22 10.91 22 10C22 5.037 26.038 1 31 1C35.646 1 39.482 4.54 39.952 9.064C43.363 9.53 46 12.462 46 16C46 18.681 44.436 21.158 42.015 22.313C41.879 22.378 41.731 22.411 41.584 22.411Z" fill="url(#nc-chicken-2-0_linear_307_330)"></path> <path d="M12 38C11.833 38 11.666 37.958 11.514 37.874L2.514 32.874C2.197 32.698 2 32.363 2 32C2 31.637 2.197 31.302 2.514 31.126L11.514 26.126C11.824 25.953 12.2 25.958 12.507 26.138C12.812 26.318 13 26.646 13 27V37C13 37.354 12.812 37.683 12.507 37.862C12.35 37.954 12.175 38 12 38Z" fill="url(#nc-chicken-2-1_linear_307_330)"></path> <path d="M43 47H11C10.448 47 10 46.553 10 46V28C10 18.626 17.626 11 27 11C36.374 11 44 18.626 44 28V46C44 46.553 43.552 47 43 47Z" fill="url(#nc-chicken-2-2_linear_307_330)"></path> <path d="M21 31C22.6569 31 24 29.6569 24 28C24 26.3431 22.6569 25 21 25C19.3431 25 18 26.3431 18 28C18 29.6569 19.3431 31 21 31Z" fill="url(#nc-chicken-2-3_linear_307_330)"></path> <defs> <linearGradient id="nc-chicken-2-0_linear_307_330" x1="34" y1="1" x2="34" y2="22.411" gradientUnits="userSpaceOnUse"> <stop stop-color="#FF666D"></stop> <stop offset="1" stop-color="#E0211F"></stop> </linearGradient> <linearGradient id="nc-chicken-2-1_linear_307_330" x1="7.5" y1="25.9995" x2="7.5" y2="38" gradientUnits="userSpaceOnUse"> <stop stop-color="#FFD36E"></stop> <stop offset="1" stop-color="#F6B828"></stop> </linearGradient> <linearGradient id="nc-chicken-2-2_linear_307_330" x1="27" y1="11" x2="27" y2="47" gradientUnits="userSpaceOnUse"> <stop stop-color="#E0E0E6"></stop> <stop offset="1" stop-color="#C2C3CD"></stop> </linearGradient> <linearGradient id="nc-chicken-2-3_linear_307_330" x1="21" y1="25" x2="21" y2="31" gradientUnits="userSpaceOnUse"> <stop stop-color="#5B5E71"></stop> <stop offset="1" stop-color="#393A46"></stop> </linearGradient> </defs> </g></svg>