<svg xmlns="http://www.w3.org/2000/svg" height="48" width="48" viewBox="0 0 48 48"><title>clover</title><g class="nc-icon-wrapper"><path d="M24,24.5C16.943,17.443,13,10,13,6a3.663,3.663,0,0,1,4-4,11.043,11.043,0,0,1,7,3,11.043,11.043,0,0,1,7-3,3.663,3.663,0,0,1,4,4C35,10,31.057,17.443,24,24.5Z" fill="#49c549"></path><path d="M35,6a3.663,3.663,0,0,0-4-4,11.043,11.043,0,0,0-7,3V24.5C31.057,17.443,35,10,35,6Z" fill="#38a838"></path><path d="M23.5,24C30.557,16.943,38,13,42,13a3.663,3.663,0,0,1,4,4,11.043,11.043,0,0,1-3,7,11.043,11.043,0,0,1,3,7,3.663,3.663,0,0,1-4,4C38,35,30.557,31.057,23.5,24Z" fill="#49c549"></path><path d="M42,35a3.663,3.663,0,0,0,4-4,11.043,11.043,0,0,0-3-7H23.5C30.557,31.057,38,35,42,35Z" fill="#38a838"></path><path d="M24,23.5C31.057,30.557,35,38,35,42a3.663,3.663,0,0,1-4,4,11.043,11.043,0,0,1-7-3,11.043,11.043,0,0,1-7,3,3.663,3.663,0,0,1-4-4C13,38,16.943,30.557,24,23.5Z" fill="#49c549"></path><path d="M13,42a3.663,3.663,0,0,0,4,4,11.043,11.043,0,0,0,7-3V23.5C16.943,30.557,13,38,13,42Z" fill="#38a838"></path><path d="M24.5,24C17.443,31.057,10,35,6,35a3.663,3.663,0,0,1-4-4,11.043,11.043,0,0,1,3-7,11.043,11.043,0,0,1-3-7,3.663,3.663,0,0,1,4-4C10,13,17.443,16.943,24.5,24Z" fill="#49c549"></path><path d="M6,13a3.663,3.663,0,0,0-4,4,11.043,11.043,0,0,0,3,7H24.5C17.443,16.943,10,13,6,13Z" fill="#38a838"></path><rect x="23" y="20" width="2" height="8" rx="1" fill="#78d478"></rect><rect x="23" y="20" width="2" height="8" rx="1" transform="translate(48 0) rotate(90)" fill="#78d478"></rect></g></svg>