<svg xmlns="http://www.w3.org/2000/svg" height="48" width="48" viewBox="0 0 48 48"><title>dog house</title><g class="nc-icon-wrapper"><polygon fill="#E6E6E6" points="7,46 7,17.09091 24,4 41,17.09091 41,46 "></polygon> <path fill="#E86C60" d="M45.99902,23c-0.22266,0-0.44629-0.07422-0.63184-0.22607L24,5.29199L2.63281,22.77393 c-0.42773,0.34912-1.05762,0.28662-1.40723-0.14062c-0.34961-0.42773-0.28613-1.05762,0.1416-1.40723l22-18 c0.36719-0.30176,0.89844-0.30176,1.26562,0l22,18c0.42773,0.34961,0.49121,0.97949,0.1416,1.40723 C46.57617,22.875,46.28906,23,45.99902,23z"></path> <path fill="#A0A0A0" d="M24,25c-3.85938,0-7,3.14062-7,7v14c0,0.55273,0.44727,1,1,1h12c0.55273,0,1-0.44727,1-1V32 C31,28.14062,27.85938,25,24,25z"></path> <path fill="#444444" d="M46,47H2c-0.55273,0-1-0.44727-1-1s0.44727-1,1-1h44c0.55273,0,1,0.44727,1,1S46.55273,47,46,47z"></path></g></svg>