<svg xmlns="http://www.w3.org/2000/svg" height="48" width="48" style="" viewBox="0 0 48 48"><title>duck</title><g class="nc-icon-wrapper"> <g clip-path="url(#nc-duck-clip-0_307_160)"> <path d="M46.23 12.027C43.98 11.375 42.145 9.74301 41.236 7.58401C39.352 3.58801 34.585 1.87601 30.588 3.76001C27.786 5.08101 25.998 7.90201 26 11C25.996 14.122 26.727 17.201 28.132 19.989V20C20.919 20.056 13.772 21.372 7.01202 23.889L1.44702 21.105C0.95302 20.858 0.35202 21.058 0.10502 21.553C0.0360197 21.692 -0.00098025 21.845 1.97505e-05 22V26C1.97505e-05 36.477 11.317 45 24 45C36.337 45 45 39.252 45 30C45 24 40 23 40 17C40 15.895 40.895 15 42 15H47C47.552 15 48 14.552 48 14C47.906 13.025 47.189 12.226 46.23 12.027Z" fill="url(#nc-duck-0_linear_307_160)"></path> <path d="M34.5 11C35.3284 11 36 10.3284 36 9.5C36 8.67157 35.3284 8 34.5 8C33.6716 8 33 8.67157 33 9.5C33 10.3284 33.6716 11 34.5 11Z" fill="url(#nc-duck-1_linear_307_160)"></path> <path d="M46.23 12.027C44.123 11.441 42.372 9.973 41.428 8V8.012C41.883 9.889 41.77 12.341 40.472 13.151C40.003 13.443 39.86 14.06 40.151 14.528C40.333 14.821 40.654 14.999 41 15H47C47.552 15 48 14.552 48 14C47.906 13.025 47.189 12.226 46.23 12.027Z" fill="url(#nc-duck-2_linear_307_160)"></path> <path d="M20 37C19.448 37 19 36.552 19 36C19 35.448 19.448 35 20 35C24.416 34.995 27.995 31.416 28 27C28 26.448 28.448 26 29 26C29.552 26 30 26.448 30 27C29.994 32.52 25.52 36.994 20 37Z" fill="url(#nc-duck-3_linear_307_160)"></path> </g> <defs> <linearGradient id="nc-duck-0_linear_307_160" x1="24" y1="2.99426" x2="24" y2="45" gradientUnits="userSpaceOnUse"> <stop stop-color="#FFD36E"></stop> <stop offset="1" stop-color="#F6B828"></stop> </linearGradient> <linearGradient id="nc-duck-1_linear_307_160" x1="34.5" y1="8" x2="34.5" y2="11" gradientUnits="userSpaceOnUse"> <stop stop-color="#5B5E71"></stop> <stop offset="1" stop-color="#393A46"></stop> </linearGradient> <linearGradient id="nc-duck-2_linear_307_160" x1="44.0001" y1="8" x2="44.0001" y2="15" gradientUnits="userSpaceOnUse"> <stop stop-color="#F98E5E"></stop> <stop offset="1" stop-color="#EA6524"></stop> </linearGradient> <linearGradient id="nc-duck-3_linear_307_160" x1="24.5" y1="26" x2="24.5" y2="37" gradientUnits="userSpaceOnUse"> <stop stop-color="#F6B828"></stop> <stop offset="1" stop-color="#C88509"></stop> </linearGradient> <clipPath id="nc-duck-clip-0_307_160"> <rect width="48" height="48" fill="white"></rect> </clipPath> </defs> </g></svg>