<svg xmlns="http://www.w3.org/2000/svg" height="48" width="48" viewBox="0 0 48 48"><title>earth science</title><g class="nc-icon-wrapper"><circle cx="24" cy="24" r="23" fill="#cbeafb"></circle><path d="M22,4c.172,1.886,3.8,3.175,5,5,1.6,2.431,1,5,3,5,1.058,0,4.1.071,11.928-4.384A22.963,22.963,0,0,0,24,1c-.515,0-1.025.023-1.532.057A6.317,6.317,0,0,0,22,4Z" fill="#78d478"></path><path d="M24,3V45A21,21,0,0,0,24,3Z" fill="#7d5731"></path><path d="M24,5V43A19,19,0,0,0,24,5Z" fill="#cc6119"></path><path d="M24,9V39A15,15,0,0,0,24,9Z" fill="#ee7c2f"></path><path d="M24,16V32a8,8,0,0,0,0-16Z" fill="#ffd764"></path><path d="M1,24A22.94,22.94,0,0,0,8.768,41.227L10.8,38.18s1.452-.419,1.765-.981c.98-1.764-.76-4.835-.76-4.835a9.974,9.974,0,0,0-.35-2.176c-.262-.653-2.091-1.548-2.091-1.548S7.6,25.765,7.6,24a2.63,2.63,0,0,1,2.483-2.743,4.288,4.288,0,0,0,2.81-2.026s2.222-.589,2.744-1.5-.587-4.175-.587-4.175a5.46,5.46,0,0,0-.022-2.62,4.955,4.955,0,0,0-1.646-1.981,10.868,10.868,0,0,0-2.56-3.8A22.967,22.967,0,0,0,1,24Z" fill="#78d478"></path></g></svg>