<svg xmlns="http://www.w3.org/2000/svg" height="48" width="48" viewBox="0 0 48 48"><title>ecology</title><g class="nc-icon-wrapper"><circle cx="24" cy="24" r="23" fill="#cbeafb"></circle><path d="M1,24A22.94,22.94,0,0,0,8.768,41.227L10.8,38.18s1.452-.419,1.765-.981c.98-1.764-.76-4.835-.76-4.835a9.974,9.974,0,0,0-.35-2.176c-.262-.653-2.091-1.548-2.091-1.548S7.6,25.765,7.6,24a2.63,2.63,0,0,1,2.483-2.743,4.288,4.288,0,0,0,2.81-2.026s2.222-.589,2.744-1.5-.587-4.175-.587-4.175a5.46,5.46,0,0,0-.022-2.62,4.955,4.955,0,0,0-1.646-1.981,10.868,10.868,0,0,0-2.56-3.8A22.967,22.967,0,0,0,1,24Z" fill="#78d478"></path><path d="M24,1c-.62,0-1.232.032-1.839.08-.2.619-1.231,2.208-.971,2.925s2.395,1.384,2.395,1.384S23.019,7.6,24,8.383s2.549-.261,3.136-.065.457,4.05.457,4.05,1.895,2.091,3.758,2.353,4.7-2.9,4.7-2.9a37.386,37.386,0,0,0,6.1-1.95A22.954,22.954,0,0,0,24,1Z" fill="#78d478"></path><path d="M38.858,25.5c.523,1.242-.982,4.412-2.222,5.031a8.421,8.421,0,0,0-3.22,2.568c-.458.719-1.059,3.684-2.561,4.272s-5.065,3.942-6.96,3.419S22,35.761,23.307,33.735c.78-1.209-.131-3.855-.2-4.769S20.3,26.352,20.3,25.438c0-1.438,3.136-5.228,3.136-5.228s2.57-.849,3.354-.653a11.848,11.848,0,0,1,2.266,1.11,15.713,15.713,0,0,1,4.051.849l1.5,1.372S38.335,24.261,38.858,25.5Z" fill="#78d478"></path><path d="M47.316,19.023a1.007,1.007,0,0,0-1.117.35A13.885,13.885,0,0,1,35,25a8.992,8.992,0,0,0-4.521,16.769A5.8,5.8,0,0,1,25,45a1,1,0,0,0,0,2c3.919,0,5.86-2,7.315-4.41A8.971,8.971,0,0,0,35,43,13.015,13.015,0,0,0,48,30V19.973A1,1,0,0,0,47.316,19.023Z" fill="#38a838"></path><path d="M40.313,28.337c-6.251,2.23-8.6,6.805-10.318,10.146-.415.807-.771,1.494-1.118,2.077a8.967,8.967,0,0,0,1.6,1.209v0h0c.438-.709.85-1.509,1.294-2.374,1.652-3.212,3.706-7.21,9.211-9.176a1,1,0,1,0-.672-1.883Z" fill="#9ee09e"></path></g></svg>