<svg xmlns="http://www.w3.org/2000/svg" height="48" width="48" viewBox="0 0 48 48"><title>elephant</title><g class="nc-icon-wrapper"><path d="M36,29a6.909,6.909,0,0,1-4.345-1.546,1,1,0,0,1-.35-.557L26.661,6.789a1,1,0,0,1,.717-1.19,11.957,11.957,0,0,0,4.156-2.18A9.983,9.983,0,0,1,38,1a9.01,9.01,0,0,1,9,9,10.5,10.5,0,0,1-2.168,6.555A8.476,8.476,0,0,0,43,22,7.009,7.009,0,0,1,36,29Z" fill="#b3b3b3"></path><path d="M33.172,26.093A4.89,4.89,0,0,0,36,27a5.006,5.006,0,0,0,5-5,10.5,10.5,0,0,1,2.168-6.555A8.476,8.476,0,0,0,45,10a7.009,7.009,0,0,0-7-7c-2.463,0-3.714.9-5.3,2.042a15.076,15.076,0,0,1-3.885,2.2Z" fill="#969696"></path><path d="M12,29a7.009,7.009,0,0,1-7-7,8.476,8.476,0,0,0-1.832-5.445A10.5,10.5,0,0,1,1,10a9.01,9.01,0,0,1,9-9,9.983,9.983,0,0,1,6.466,2.419A11.957,11.957,0,0,0,20.622,5.6a1,1,0,0,1,.717,1.19L16.7,26.9a1,1,0,0,1-.35.557A6.909,6.909,0,0,1,12,29ZM10,3a7.009,7.009,0,0,0-7,7,8.476,8.476,0,0,0,1.832,5.445A10.5,10.5,0,0,1,7,22a5.006,5.006,0,0,0,5,5,4.89,4.89,0,0,0,2.828-.907L19.182,7.242a15.076,15.076,0,0,1-3.885-2.2C13.714,3.9,12.463,3,10,3Z" fill="#b3b3b3"></path><path d="M10,3a7.009,7.009,0,0,0-7,7,8.476,8.476,0,0,0,1.832,5.445A10.5,10.5,0,0,1,7,22a5.006,5.006,0,0,0,5,5,4.89,4.89,0,0,0,2.828-.907L19.182,7.242a15.076,15.076,0,0,1-3.885-2.2C13.714,3.9,12.463,3,10,3Z" fill="#969696"></path><circle cx="24" cy="18" r="13" fill="#b3b3b3"></circle><path d="M10,5a5,5,0,0,0-3.535,8.536A1,1,0,0,0,7.879,12.12,2.972,2.972,0,0,1,7,10a3,3,0,0,1,3-3,1,1,0,0,0,0-2Z" fill="#b3b3b3"></path><path d="M38,5a1,1,0,0,0,0,2,3,3,0,0,1,3,3,2.972,2.972,0,0,1-.879,2.12,1,1,0,0,0,1.414,1.416A5,5,0,0,0,38,5Z" fill="#b3b3b3"></path><path d="M21,28.5a1.5,1.5,0,0,0-3,0V31a8.009,8.009,0,0,1-7.993,8H10a1,1,0,0,0,0,2h.008A11.013,11.013,0,0,0,21,30Z" fill="#ead8c5"></path><path d="M27,28.5a1.5,1.5,0,0,1,3,0V31a8.009,8.009,0,0,0,7.993,8H38a1,1,0,0,1,0,2h-.008A11.013,11.013,0,0,1,27,30Z" fill="#ead8c5"></path><circle cx="17.5" cy="16.5" r="1.5" fill="#444"></circle><circle cx="30.5" cy="16.5" r="1.5" fill="#444"></circle><path d="M27,31.3V21H21V31.3A19.94,19.94,0,0,0,28.008,46.5a2.181,2.181,0,0,0,2.948-.148,2.211,2.211,0,0,0,.162-2.92A19.858,19.858,0,0,1,27,31.3Z" fill="#b3b3b3"></path></g></svg>