<svg xmlns="http://www.w3.org/2000/svg" height="48" width="48" viewBox="0 0 48 48"><title>fire</title><g class="nc-icon-wrapper"><path d="M41.264,46.2a1,1,0,0,1-.342-.061L3.334,32.457a1,1,0,0,1-.6-1.282l2.736-7.518a1,1,0,0,1,1.281-.6L44.342,36.74a1,1,0,0,1,.6,1.282L42.2,45.54A1,1,0,0,1,41.264,46.2Z" fill="#87613e"></path><path d="M6.412,46.2a1,1,0,0,1-.939-.659L2.737,38.022a1,1,0,0,1,.6-1.282L40.922,23.06a1,1,0,0,1,1.281.6l2.736,7.518a1,1,0,0,1-.6,1.282L6.754,46.138A1,1,0,0,1,6.412,46.2Z" fill="#bf8c5a"></path><path d="M24,31A10.849,10.849,0,0,1,13,20.1c0-6.379,9.84-17.3,10.259-17.767a1.032,1.032,0,0,1,1.482,0C25.16,2.79,35,13.716,35,20.1A10.849,10.849,0,0,1,24,31Z" fill="#ff7163"></path><path d="M24,25a4.276,4.276,0,0,1-4.333-4.3c0-2.292,2.992-5.708,3.592-6.37a1.032,1.032,0,0,1,1.482,0c.6.662,3.592,4.079,3.592,6.37A4.276,4.276,0,0,1,24,25Z" fill="#ffd764"></path></g></svg>