<svg xmlns="http://www.w3.org/2000/svg" height="48" width="48" viewBox="0 0 48 48"><title>fishbone</title><g class="nc-icon-wrapper"><path d="M37.989,29a1.064,1.064,0,0,1-.208-.021A24.264,24.264,0,0,1,19.044,10.237,1,1,0,0,1,21,9.823,22.26,22.26,0,0,0,38.2,27.018,1,1,0,0,1,37.989,29Z" fill="#b3b3b3"></path> <path d="M28.253,33.882a1,1,0,0,1-.367-.07A24.3,24.3,0,0,1,14.207,20.133a1,1,0,0,1,1.859-.735A22.3,22.3,0,0,0,28.62,31.952a1,1,0,0,1-.367,1.93Z" fill="#b3b3b3"></path> <path d="M15.832,33.187a1,1,0,0,1-.707-1.708L31.631,14.973a1,1,0,1,1,1.414,1.414L16.539,32.894A1,1,0,0,1,15.832,33.187Z" fill="#b3b3b3"></path> <path d="M14,44a1,1,0,0,1-.707-.293l-9-9a1,1,0,0,1,.542-1.693L15.667,31.2a1.014,1.014,0,0,1,.873.28,1,1,0,0,1,.278.874L14.986,43.167a1,1,0,0,1-.682.786A1.025,1.025,0,0,1,14,44Z" fill="#76b5b5"></path> <path d="M41.9,22.452a.982.982,0,0,1-.3-.045,24.388,24.388,0,0,1-9.975-6.02,24.386,24.386,0,0,1-6.028-10,1,1,0,0,1,.675-1.256c7.219-2.107,15.6-.189,15.95-.106a1,1,0,0,1,.748.752c.08.355,1.949,8.764-.112,15.95a1,1,0,0,1-.485.6A1.013,1.013,0,0,1,41.9,22.452Z" fill="#76b5b5"></path> <circle id="color_nooutline" data-name="color nooutline" cx="34" cy="9" r="2" fill="#fff"></circle></g></svg>