<svg xmlns="http://www.w3.org/2000/svg" height="48" width="48" viewBox="0 0 48 48"><title>flower 07</title><g class="nc-icon-wrapper"><path fill="#72C472" d="M27,41h-2V31c0-0.55225-0.44727-1-1-1s-1,0.44775-1,1v5h-2c-0.55273,0-1,0.44775-1,1s0.44727,1,1,1h2v8 c0,0.55225,0.44727,1,1,1s1-0.44775,1-1v-3h2c0.55273,0,1-0.44775,1-1S27.55273,41,27,41z"></path> <path fill="#C64A4A" d="M31.46191,8.63818c-2.37402-3.55957-6.74023-6.36377-6.9248-6.48145L24,1.81445l-0.53711,0.34229 c-0.18457,0.11768-4.55078,2.92188-6.9248,6.48145l-0.41797,0.62695L24,18.54492l7.87988-9.27979L31.46191,8.63818z"></path> <path fill="#E86C60" d="M24,32c-8.27148,0-15-6.729-15-15V5.93311l1.06445,0.06885C17.41504,6.47852,22.17773,11.19189,24,13.36475 c1.82227-2.17285,6.58496-6.88623,13.93555-7.36279L39,5.93311V17C39,25.271,32.27148,32,24,32z"></path></g></svg>