<svg xmlns="http://www.w3.org/2000/svg" height="48" width="48" style="" viewBox="0 0 48 48"><title>flower rose</title><g class="nc-icon-wrapper"> <path d="M39 8C39 4.134 33.627 1 27 1C20.373 1 15 4.134 15 8V16C15 22.627 20.373 28 27 28C33.627 28 39 22.627 39 16V8Z" fill="url(#nc-flower-rose-0_linear_307_165)"></path> <path d="M8 47C7.448 47 7 46.552 7 46C7 45.448 7.448 45 8 45C17.936 45.005 25.995 36.954 26 27.018C26 27.012 26 27.006 26 27C26 26.448 26.448 26 27 26C27.552 26 28 26.448 28 27C28.005 38.041 19.059 46.995 8.018 47C8.012 47 8.006 47 8 47Z" fill="url(#nc-flower-rose-1_linear_307_165)"></path> <path d="M17.2 43.391H17.1C12.161 42.897 8.55702 38.4931 9.05102 33.554C9.15502 32.518 9.43702 31.508 9.88602 30.569C10.067 30.185 10.47 29.957 10.892 30C15.831 30.498 19.432 34.9061 18.933 39.8461C18.829 40.8781 18.547 41.884 18.1 42.82C17.935 43.168 17.585 43.39 17.2 43.391Z" fill="url(#nc-flower-rose-2_linear_307_165)"></path> <path d="M33.71 43.874C31.592 43.872 29.544 43.117 27.931 41.744C26.146 40.302 25.062 38.167 24.951 35.876C24.919 35.465 25.143 35.077 25.515 34.898C27.553 33.845 29.945 33.712 32.087 34.533C35.348 35.688 37.649 38.621 37.994 42.063C38.039 42.494 37.802 42.905 37.407 43.081C36.244 43.602 34.984 43.872 33.71 43.874Z" fill="url(#nc-flower-rose-3_linear_307_165)"></path> <path d="M27 1C20.271 1 15 4.075 15 8C15 10.744 17.55 13.161 21.655 14.31C23.883 14.859 25.699 16.466 26.516 18.61C27.347 18.066 28.214 17.578 29.11 17.15C32.064 15.66 34.85 14.241 34.987 9.834C34.849 7.11 31.4 5 27 5C26.182 5 19 5.084 19 8C19 10.916 26.182 11 27 11C27.552 11 28 10.552 28 10C28 9.448 27.552 9 27 9C25.006 9.118 23.012 8.776 21.171 8C23.012 7.224 25.006 6.882 27 7C30.536 7 33 8.581 33 10C33 11.419 30.536 13 27 13C21.579 13 17 10.71 17 8C17 5.29 21.579 3 27 3C32.421 3 37 5.29 37 8V10H36.979C36.762 15.513 33.033 17.41 30.011 18.935C27.449 20.228 26 21.054 26 23C26.003 23.529 26.147 24.047 26.419 24.5C26.671 24.992 26.476 25.594 25.984 25.846C25.528 26.079 24.969 25.93 24.69 25.5C24.241 24.743 24.003 23.88 24 23C23.978 21.974 24.291 20.97 24.891 20.138C24.509 18.224 23.052 16.705 21.155 16.245C18.825 15.67 16.696 14.468 15 12.77V16C15 22.627 20.373 28 27 28C33.627 28 39 22.627 39 16V8C39 4.075 33.729 1 27 1Z" fill="url(#nc-flower-rose-4_linear_307_165)"></path> <defs> <linearGradient id="nc-flower-rose-0_linear_307_165" x1="27" y1="1" x2="27" y2="16" gradientUnits="userSpaceOnUse"> <stop stop-color="#FF9EA8"></stop> <stop offset="1" stop-color="#FF666D"></stop> </linearGradient> <linearGradient id="nc-flower-rose-1_linear_307_165" x1="17.5" y1="26" x2="17.5" y2="47" gradientUnits="userSpaceOnUse"> <stop stop-color="#6AD084"></stop> <stop offset="1" stop-color="#3CB34B"></stop> </linearGradient> <linearGradient id="nc-flower-rose-2_linear_307_165" x1="13.9925" y1="29.9949" x2="13.9925" y2="43.391" gradientUnits="userSpaceOnUse"> <stop stop-color="#6AD084"></stop> <stop offset="1" stop-color="#3CB34B"></stop> </linearGradient> <linearGradient id="nc-flower-rose-3_linear_307_165" x1="31.4737" y1="34.0004" x2="31.4737" y2="43.874" gradientUnits="userSpaceOnUse"> <stop stop-color="#6AD084"></stop> <stop offset="1" stop-color="#3CB34B"></stop> </linearGradient> <linearGradient id="nc-flower-rose-4_linear_307_165" x1="27" y1="1" x2="27" y2="28" gradientUnits="userSpaceOnUse"> <stop stop-color="#FF666D"></stop> <stop offset="1" stop-color="#E0211F"></stop> </linearGradient> </defs> </g></svg>