<svg xmlns="http://www.w3.org/2000/svg" height="48" width="48" style="" viewBox="0 0 48 48"><title>goose</title><g class="nc-icon-wrapper"><path d="M42.802 23.035C41.557 20.339 40.008 16.983 38.99 9.858C38.232 4.559 34.62 1 30 1C27.983 1 25.917 1.385 24 2.116C22.083 1.385 20.017 1 18 1C13.38 1 9.768 4.56 9.01 9.858C7.992 16.983 6.444 20.338 5.198 23.035C4.018 25.591 3 27.798 3 32C3 40.271 9.729 47 18 47H30C38.271 47 45 40.271 45 32C45 27.798 43.981 25.591 42.802 23.035Z" fill="url(#nc-goose-0_linear_318_8)"></path> <path d="M34 15C35.1046 15 36 14.1046 36 13C36 11.8954 35.1046 11 34 11C32.8954 11 32 11.8954 32 13C32 14.1046 32.8954 15 34 15Z" fill="url(#nc-goose-1_linear_318_8)"></path> <path d="M14 15C15.1046 15 16 14.1046 16 13C16 11.8954 15.1046 11 14 11C12.8954 11 12 11.8954 12 13C12 14.1046 12.8954 15 14 15Z" fill="url(#nc-goose-2_linear_318_8)"></path> <path d="M24.021 41.016C21.708 41.016 19.383 40.398 17.311 39.154L12.57 36.904C12.328 36.789 12.141 36.58 12.054 36.326C11.966 36.072 11.985 35.794 12.105 35.554L15.183 29.398C15.744 28.276 16.107 27.077 16.261 25.834L17.038 19.566C17.236 17.026 19.418 15.002 21.999 15.002C22.382 15.002 22.765 15.048 23.138 15.139C23.71 15.278 24.288 15.278 24.861 15.139C25.234 15.048 25.617 15.002 26 15.002C28.581 15.002 30.763 17.026 30.966 19.611L31.738 25.834C31.892 27.077 32.256 28.276 32.816 29.398L35.894 35.554C36.014 35.794 36.033 36.073 35.945 36.326C35.858 36.58 35.672 36.789 35.429 36.904L30.603 39.2C28.592 40.409 26.312 41.016 24.021 41.016Z" fill="url(#nc-goose-3_linear_318_8)"></path> <path d="M34.845 35.015C31.415 35.586 29.798 35.135 28.083 34.659C26.92 34.336 25.717 34.001 24.012 34.001H24.009C22.304 34.001 21.1 34.336 19.937 34.659C18.222 35.138 16.601 35.586 13.173 35.015C12.678 34.926 12.224 35.236 12.074 35.701C12.009 35.905 11.992 36.121 12.063 36.326C12.15 36.58 12.336 36.789 12.579 36.904L17.32 39.154C19.392 40.398 21.716 41.016 24.03 41.016C26.321 41.016 28.601 40.409 30.612 39.2L35.438 36.904C35.68 36.789 35.867 36.58 35.954 36.326C36.025 36.122 36.008 35.906 35.944 35.702C35.795 35.237 35.339 34.927 34.845 35.015Z" fill="url(#nc-goose-4_linear_318_8)"></path> <defs> <linearGradient id="nc-goose-0_linear_318_8" x1="24" y1="1" x2="24" y2="47" gradientUnits="userSpaceOnUse"> <stop stop-color="#E0E0E6"></stop> <stop offset="1" stop-color="#C2C3CD"></stop> </linearGradient> <linearGradient id="nc-goose-1_linear_318_8" x1="34" y1="11" x2="34" y2="15" gradientUnits="userSpaceOnUse"> <stop stop-color="#5B5E71"></stop> <stop offset="1" stop-color="#393A46"></stop> </linearGradient> <linearGradient id="nc-goose-2_linear_318_8" x1="14" y1="11" x2="14" y2="15" gradientUnits="userSpaceOnUse"> <stop stop-color="#5B5E71"></stop> <stop offset="1" stop-color="#393A46"></stop> </linearGradient> <linearGradient id="nc-goose-3_linear_318_8" x1="23.9995" y1="15.002" x2="23.9995" y2="41.016" gradientUnits="userSpaceOnUse"> <stop stop-color="#F98E5E"></stop> <stop offset="1" stop-color="#EA6524"></stop> </linearGradient> <linearGradient id="nc-goose-4_linear_318_8" x1="24.0085" y1="34.001" x2="24.0085" y2="41.016" gradientUnits="userSpaceOnUse"> <stop stop-color="#B44F18"></stop> <stop offset="1" stop-color="#EA6524"></stop> </linearGradient> </defs></g></svg>