<svg xmlns="http://www.w3.org/2000/svg" height="48" width="48" viewBox="0 0 48 48"><title>horseshoe</title><g class="nc-icon-wrapper"><path d="M42.852,6.937l-2.426.909A53.172,53.172,0,0,1,44,26c0,11.579-8.972,21-20,21S4,37.579,4,26A53.172,53.172,0,0,1,7.574,7.846L5.148,6.937a1,1,0,0,1-.585-1.289l1.5-4a1,1,0,0,1,1.289-.585l8,3a1,1,0,0,1,.531,1.407A41.126,41.126,0,0,0,12,23c0,8.243,4.935,14,12,14s12-5.757,12-14A41.126,41.126,0,0,0,32.117,5.47a1,1,0,0,1,.531-1.407l8-3A1.038,1.038,0,0,1,41,1a1,1,0,0,1,.937.648l1.5,4A1,1,0,0,1,42.852,6.937Z" fill="#aeaeae"></path><circle cx="24" cy="41.999" r="1.5" fill="#949494"></circle><circle cx="34.25" cy="38.249" r="1.25" fill="#949494"></circle><circle cx="13.75" cy="38.249" r="1.25" fill="#949494"></circle><circle cx="39.75" cy="28.749" r="1.25" fill="#949494"></circle><circle cx="8.5" cy="29.499" r="1.25" fill="#949494"></circle></g></svg>