<svg xmlns="http://www.w3.org/2000/svg" height="48" width="48" viewBox="0 0 48 48"><title>jellyfish</title><g class="nc-icon-wrapper"><path d="M20,23a1,1,0,0,0-1,1V42a3,3,0,0,1-6,0,1,1,0,0,0-2,0,5,5,0,0,0,10,0V24A1,1,0,0,0,20,23Z" fill="#645aed"></path><path d="M13,32V24a1,1,0,0,0-2,0v8a3,3,0,0,1-6,0,1,1,0,0,0-2,0,5,5,0,0,0,10,0Z" fill="#645aed"></path><path d="M44,31a1,1,0,0,0-1,1,3,3,0,0,1-6,0V24a1,1,0,0,0-2,0v8a5,5,0,0,0,10,0A1,1,0,0,0,44,31Z" fill="#645aed"></path><path d="M36,41a1,1,0,0,0-1,1,3,3,0,0,1-6,0V24a1,1,0,0,0-2,0V42a5,5,0,0,0,10,0A1,1,0,0,0,36,41Z" fill="#645aed"></path><path d="M24,1A21.024,21.024,0,0,0,3,22v2a1,1,0,0,0,1,1H44a1,1,0,0,0,1-1V22A21.024,21.024,0,0,0,24,1Z" fill="#ada8fa"></path></g></svg>