<svg xmlns="http://www.w3.org/2000/svg" height="48" width="48" style="" viewBox="0 0 48 48"><title>leaf</title><g class="nc-icon-wrapper"><path d="M44.721 3.30702C44.493 3.07102 44.162 2.96002 43.839 3.01302C42.947 3.15902 21.907 6.67902 13.293 15.293C2.93101 25.655 9.75201 37.696 9.82201 37.816C9.91001 37.967 10.037 38.093 10.189 38.18C10.255 38.218 14.197 40.42 19.478 40.42C23.173 40.42 27.524 39.342 31.663 35.69C31.931 35.454 32.052 35.092 31.982 34.743L30.296 26.369L36.459 27.968C36.923 28.087 37.404 27.864 37.611 27.435C42.128 18.066 44.867 4.76202 44.981 4.20002C45.046 3.87802 44.949 3.54502 44.721 3.30702Z" fill="url(#nc-ui-4-0_linear_143_126)"></path> <path d="M4.00001 45C3.74401 45 3.48801 44.902 3.29301 44.707C2.90201 44.316 2.90201 43.684 3.29301 43.293L19.293 27.293C19.684 26.902 20.316 26.902 20.707 27.293C21.098 27.684 21.098 28.316 20.707 28.707L4.70701 44.707C4.51201 44.902 4.25601 45 4.00001 45Z" fill="url(#nc-ui-4-1_linear_143_126)"></path> <defs> <linearGradient id="nc-ui-4-0_linear_143_126" x1="26.2777" y1="3" x2="26.2777" y2="40.42" gradientUnits="userSpaceOnUse"> <stop stop-color="#6AD084"></stop> <stop offset="1" stop-color="#3CB34B"></stop> </linearGradient> <linearGradient id="nc-ui-4-1_linear_143_126" x1="12" y1="26.9998" x2="12" y2="45" gradientUnits="userSpaceOnUse"> <stop stop-color="#3CB34B"></stop> <stop offset="1" stop-color="#288031"></stop> </linearGradient> </defs></g></svg>