<svg xmlns="http://www.w3.org/2000/svg" height="48" width="48" viewBox="0 0 48 48"><title>lotus flower</title><g class="nc-icon-wrapper"><path d="M13.816,43.991c-.5,0-.993-.022-1.49-.07h0A16.018,16.018,0,0,1,.979,37.491a1,1,0,0,1,.126-1.33,15.953,15.953,0,0,1,23.7,2.244,1,1,0,0,1-.125,1.329A16.042,16.042,0,0,1,13.816,43.991Z" fill="#d53987"></path><path d="M23,34A22,22,0,0,0,3.7,12.183a.992.992,0,0,0-1.1.762A21.93,21.93,0,0,0,23.382,39.984L24,40A15.748,15.748,0,0,1,23,34Z" fill="#ea5da3"></path><path d="M23.321,39.734a1,1,0,0,1-.125-1.329,15.953,15.953,0,0,1,23.7-2.244,1,1,0,0,1,.126,1.33,16.018,16.018,0,0,1-11.347,6.43h0c-.5.048-.994.07-1.49.07A16.042,16.042,0,0,1,23.321,39.734Z" fill="#d53987"></path><path d="M25,34A22,22,0,0,1,44.3,12.183a.992.992,0,0,1,1.1.762A21.93,21.93,0,0,1,24.618,39.984L24,40A15.748,15.748,0,0,0,25,34Z" fill="#ea5da3"></path><ellipse cx="24" cy="29.999" rx="3.742" ry="9.577" fill="#475bea"></ellipse><path d="M24,39.884a1,1,0,0,1-.667-.255,24.99,24.99,0,0,1,0-37.258,1,1,0,0,1,1.334,0,24.99,24.99,0,0,1,0,37.258A1,1,0,0,1,24,39.884Z" fill="#f888c0"></path><path d="M24,40a1,1,0,0,1-.668-.256,14.4,14.4,0,0,1,0-21.488,1,1,0,0,1,1.336,0,14.4,14.4,0,0,1,0,21.488A1,1,0,0,1,24,40Z" fill="#fbb7d9"></path></g></svg>