<svg xmlns="http://www.w3.org/2000/svg" height="48" width="48" viewBox="0 0 48 48"><title>maple leaf</title><g class="nc-icon-wrapper"><path d="M46.555,34.168l-5.266-3.511,1.606-3.21A1,1,0,0,0,42,26H32.672l13.835-8.138a1,1,0,0,0-.191-1.81l-5.08-1.694,2.722-9.071a1,1,0,0,0-1.245-1.245L33.642,6.764l-1.694-5.08a1,1,0,0,0-1.81-.191L22,15.328V6a1,1,0,0,0-1.447-.895l-3.21,1.606L13.832,1.445A.991.991,0,0,0,12.908,1a1,1,0,0,0-.827.6L9.416,7.823,6.242,7.03A1,1,0,0,0,5.02,8.2L7.881,22.505l-4.4,2.638A1,1,0,0,0,3.553,26.9l11.7,5.85,5.85,11.7a1,1,0,0,0,.857.552H22a1,1,0,0,0,.857-.485l2.638-4.4L39.8,42.98a1.011,1.011,0,0,0,.92-.29,1,1,0,0,0,.246-.932l-.793-3.174,6.217-2.665a1,1,0,0,0,.161-1.751Z" fill="#ea9860"></path><path d="M3,46a1,1,0,0,1-.707-1.707l20-20a1,1,0,0,1,1.414,1.414l-20,20A1,1,0,0,1,3,46Z" fill="#87613e"></path></g></svg>