<svg xmlns="http://www.w3.org/2000/svg" height="48" width="48" style="" viewBox="0 0 48 48"><title>mower</title><g class="nc-icon-wrapper"> <path d="M34 19H22V28H34V19Z" fill="url(#nc-mower-0_linear_307_195)"></path> <path d="M13.409 23.754C12.923 23.754 12.508 23.403 12.425 22.924L9.444 5.659C9.278 4.701 8.447 4 7.474 4H4C3.448 4 3 3.552 3 3C3 2.448 3.448 2 4 2H7.474C9.422 1.997 11.087 3.399 11.415 5.319L14.4 22.584C14.494 23.128 14.129 23.646 13.585 23.739C13.528 23.749 13.471 23.754 13.413 23.754H13.409Z" fill="url(#nc-mower-1_linear_307_195)"></path> <path d="M37.585 24.591L11.585 21.532C8.843 21.209 6.357 23.17 6.034 25.913C6.011 26.108 6 26.304 6 26.5V38C6 38.552 6.448 39 7 39H41C41.552 39 42 38.552 42 38V29.557C42 27.022 40.103 24.888 37.585 24.591Z" fill="url(#nc-mower-2_linear_307_195)"></path> <path d="M8 43C11.3137 43 14 40.3137 14 37C14 33.6863 11.3137 31 8 31C4.68629 31 2 33.6863 2 37C2 40.3137 4.68629 43 8 43Z" fill="url(#nc-mower-3_linear_307_195)"></path> <path d="M41 43C43.7614 43 46 40.7614 46 38C46 35.2386 43.7614 33 41 33C38.2386 33 36 35.2386 36 38C36 40.7614 38.2386 43 41 43Z" fill="url(#nc-mower-4_linear_307_195)"></path> <path d="M8 44C4.134 44 1 40.866 1 37C1 33.134 4.134 30 8 30C11.866 30 15 33.134 15 37C14.995 40.864 11.864 43.995 8 44ZM8 32C5.239 32 3 34.239 3 37C3 39.761 5.239 42 8 42C10.761 42 13 39.761 13 37C12.997 34.24 10.76 32.003 8 32Z" fill="url(#nc-mower-5_linear_307_195)"></path> <path d="M41 44C37.686 44 35 41.314 35 38C35 34.686 37.686 32 41 32C44.314 32 47 34.686 47 38C46.997 41.312 44.312 43.997 41 44ZM41 34C38.791 34 37 35.791 37 38C37 40.209 38.791 42 41 42C43.209 42 45 40.209 45 38C45 35.791 43.209 34 41 34Z" fill="url(#nc-mower-6_linear_307_195)"></path> <path d="M36 14H20C19.4477 14 19 14.4477 19 15V19C19 19.5523 19.4477 20 20 20H36C36.5523 20 37 19.5523 37 19V15C37 14.4477 36.5523 14 36 14Z" fill="url(#nc-mower-7_linear_307_195)"></path> <rect x="22" y="20" width="12" height="2" fill="black" fill-opacity="0.15"></rect> <defs> <linearGradient id="nc-mower-0_linear_307_195" x1="28" y1="19" x2="28" y2="28" gradientUnits="userSpaceOnUse"> <stop stop-color="#F6B828"></stop> <stop offset="1" stop-color="#C88509"></stop> </linearGradient> <linearGradient id="nc-mower-1_linear_307_195" x1="8.70738" y1="2" x2="8.70738" y2="23.754" gradientUnits="userSpaceOnUse"> <stop stop-color="#F6B828"></stop> <stop offset="1" stop-color="#C88509"></stop> </linearGradient> <linearGradient id="nc-mower-2_linear_307_195" x1="24" y1="21.4972" x2="24" y2="39" gradientUnits="userSpaceOnUse"> <stop stop-color="#FFD36E"></stop> <stop offset="1" stop-color="#F6B828"></stop> </linearGradient> <linearGradient id="nc-mower-3_linear_307_195" x1="8" y1="31" x2="8" y2="43" gradientUnits="userSpaceOnUse"> <stop stop-color="#A2A3B4"></stop> <stop offset="1" stop-color="#83849B"></stop> </linearGradient> <linearGradient id="nc-mower-4_linear_307_195" x1="41" y1="33" x2="41" y2="43" gradientUnits="userSpaceOnUse"> <stop stop-color="#A2A3B4"></stop> <stop offset="1" stop-color="#83849B"></stop> </linearGradient> <linearGradient id="nc-mower-5_linear_307_195" x1="8" y1="30" x2="8" y2="44" gradientUnits="userSpaceOnUse"> <stop stop-color="#5B5E71"></stop> <stop offset="1" stop-color="#393A46"></stop> </linearGradient> <linearGradient id="nc-mower-6_linear_307_195" x1="41" y1="32" x2="41" y2="44" gradientUnits="userSpaceOnUse"> <stop stop-color="#5B5E71"></stop> <stop offset="1" stop-color="#393A46"></stop> </linearGradient> <linearGradient id="nc-mower-7_linear_307_195" x1="28" y1="14" x2="28" y2="20" gradientUnits="userSpaceOnUse"> <stop stop-color="#FFD36E"></stop> <stop offset="1" stop-color="#F6B828"></stop> </linearGradient> </defs> </g></svg>