<svg xmlns="http://www.w3.org/2000/svg" height="48" width="48" viewBox="0 0 48 48"><title>octopus</title><g class="nc-icon-wrapper"><path d="M18,41a1,1,0,0,1-1-1V31a1,1,0,0,1,2,0v9A1,1,0,0,1,18,41Z" fill="#f74b3b"></path><path d="M24,47a1,1,0,0,1-1-1V31a1,1,0,0,1,2,0V46A1,1,0,0,1,24,47Z" fill="#f74b3b"></path><path d="M30,41a1,1,0,0,1-1-1V31a1,1,0,0,1,2,0v9A1,1,0,0,1,30,41Z" fill="#f74b3b"></path><path d="M8,47a5.006,5.006,0,0,1-5-5,1,1,0,0,1,2,0,3,3,0,0,0,6,0V31a1,1,0,0,1,2,0V42A5.006,5.006,0,0,1,8,47Z" fill="#f74b3b"></path><path d="M40,47a5.006,5.006,0,0,1-5-5V31a1,1,0,0,1,2,0V42a3,3,0,0,0,6,0,1,1,0,0,1,2,0A5.006,5.006,0,0,1,40,47Z" fill="#f74b3b"></path><path d="M42,32H6a1,1,0,0,1-1-1V20a19,19,0,0,1,38,0V31A1,1,0,0,1,42,32Z" fill="#ff8f85"></path><circle cx="14" cy="20" r="2" fill="#444"></circle><circle cx="34" cy="20" r="2" fill="#444"></circle></g></svg>