<svg xmlns="http://www.w3.org/2000/svg" height="48" width="48" viewBox="0 0 48 48"><title>organic 2</title><g class="nc-icon-wrapper"><circle cx="24" cy="24" r="21" fill="#72c472"></circle> <path d="M24,46A22,22,0,1,1,46,24,22.025,22.025,0,0,1,24,46ZM24,4A20,20,0,1,0,44,24,20.023,20.023,0,0,0,24,4Z" fill="#4da34d"></path> <path d="M21,34h0a9,9,0,0,1-9-9V21h0a9,9,0,0,1,9,9Z" fill="#fff"></path> <path d="M36,14h0a0,0,0,0,1,0,0v7A13,13,0,0,1,23,34h0a0,0,0,0,1,0,0V27A13,13,0,0,1,36,14Z" fill="#fff"></path></g></svg>