<svg xmlns="http://www.w3.org/2000/svg" height="48" width="48" viewBox="0 0 48 48"><title>park</title><g class="nc-icon-wrapper"><path d="M28,39H2a1,1,0,0,0,0,2H4v5a1,1,0,0,0,2,0V41H24v5a1,1,0,0,0,2,0V41h2a1,1,0,0,0,0-2Z" fill="#87613e"></path><path d="M25,27H5a1,1,0,0,0-1,1V39H6V38a1,1,0,0,1,1-1H23a1,1,0,0,1,1,1v1h2V28A1,1,0,0,0,25,27Z" fill="#a67c52"></path><path d="M37,31h2a0,0,0,0,1,0,0V46a1,1,0,0,1-1,1h0a1,1,0,0,1-1-1V31A0,0,0,0,1,37,31Z" fill="#a67c52"></path><ellipse cx="38" cy="22" rx="9" ry="11" fill="#4da34d"></ellipse><ellipse cx="38" cy="10" rx="7" ry="9" fill="#4da34d"></ellipse><path d="M38,21h0a1,1,0,0,1,1,1V33a0,0,0,0,1,0,0H37a0,0,0,0,1,0,0V22A1,1,0,0,1,38,21Z" fill="#72c472"></path></g></svg>