<svg xmlns="http://www.w3.org/2000/svg" height="48" width="48" viewBox="0 0 48 48"><title>parrot</title><g class="nc-icon-wrapper"><path d="M45.949,16H32a1,1,0,0,1-1-1V2a1,1,0,0,1,1-1A15.035,15.035,0,0,1,46.946,14.93a1,1,0,0,1-1,1.07Z" fill="#ffd764"></path> <path d="M32,26A10,10,0,0,0,42,16H32Z" fill="#ddb35f"></path> <path d="M17,1A15,15,0,0,0,2,16V46a1,1,0,0,0,1,1H17A15,15,0,0,0,32,32V1Z" fill="#84c459"></path> <path d="M17,23a7,7,0,1,1,7-7A7.009,7.009,0,0,1,17,23Z" fill="#f1f2f2"></path> <path d="M17,19a3,3,0,1,1,3-3A3,3,0,0,1,17,19Z" fill="#444"></path></g></svg>