<svg xmlns="http://www.w3.org/2000/svg" height="48" width="48" viewBox="0 0 48 48"><title>pickaxe</title><g class="nc-icon-wrapper"><path d="M28.3,13.792l6.5-6.5a1,1,0,0,1,1.414,0l4.585,4.58a1,1,0,0,1,0,1.414h0l-6.5,6.505a1,1,0,0,1-1.415,0h0L28.3,15.207a1,1,0,0,1,0-1.414Z" fill="#c8c8c8"></path><path d="M47.954,30.936A47,47,0,0,0,17.162.143,1,1,0,0,0,16.2.35L12.743,3.421a1,1,0,0,0,.2,1.634,70.867,70.867,0,0,1,30.1,30.1,1,1,0,0,0,1.633.2L47.747,31.9A1,1,0,0,0,47.954,30.936Z" fill="#e0e0e0"></path><path d="M28.031,15.624,3.416,38.318a4.5,4.5,0,1,0,6.363,6.364L32.474,20.067Q30.352,17.746,28.031,15.624Z" fill="#bf8c5a"></path></g></svg>