<svg xmlns="http://www.w3.org/2000/svg" height="48" width="48" style="" viewBox="0 0 48 48"><title>plant leaf</title><g class="nc-icon-wrapper"><path d="M19.475 40.419C14.197 40.419 10.258 38.221 10.189 38.181C10.038 38.094 9.91097 37.968 9.82297 37.817C9.75297 37.697 2.93097 25.656 13.294 15.294C21.907 6.67896 42.947 3.15896 43.839 3.01296C44.151 2.95996 44.471 3.06296 44.698 3.28396C44.925 3.50496 45.034 3.82196 44.99 4.13696C44.871 5.00196 41.963 25.451 32.707 34.707C28.263 39.151 23.482 40.419 19.475 40.419Z" fill="url(#nc-ui-4-0_linear_143_154)"></path> <path d="M4.00001 45C3.74401 45 3.48801 44.902 3.29301 44.707C2.90201 44.316 2.90201 43.684 3.29301 43.293L25.293 21.293C25.684 20.902 26.316 20.902 26.707 21.293C27.098 21.684 27.098 22.316 26.707 22.707L4.70701 44.707C4.51201 44.902 4.25601 45 4.00001 45Z" fill="url(#nc-ui-4-1_linear_143_154)"></path> <defs> <linearGradient id="nc-ui-4-0_linear_143_154" x1="26.2773" y1="2.99927" x2="26.2773" y2="40.419" gradientUnits="userSpaceOnUse"> <stop stop-color="#6AD084"></stop> <stop offset="1" stop-color="#3CB34B"></stop> </linearGradient> <linearGradient id="nc-ui-4-1_linear_143_154" x1="15" y1="20.9998" x2="15" y2="45" gradientUnits="userSpaceOnUse"> <stop stop-color="#3CB34B"></stop> <stop offset="1" stop-color="#288031"></stop> </linearGradient> </defs></g></svg>