<svg xmlns="http://www.w3.org/2000/svg" height="48" width="48" style="" viewBox="0 0 48 48"><title>rat head</title><g class="nc-icon-wrapper"> <path d="M10.478 22.741C10.408 22.741 10.337 22.734 10.267 22.719C4.811 21.543 1 17.135 1 12C1 5.935 6.383 1 13 1C16.807 1 20.437 2.683 22.711 5.502C22.996 5.856 23.007 6.356 22.739 6.722L11.284 22.333C11.093 22.593 10.793 22.741 10.478 22.741Z" fill="url(#nc-rat-head-0_linear_307_262)"></path> <path d="M8.514 20.047C5.113 18.511 3 15.427 3 12C3 7.038 7.486 3 13 3C15.172 3 17.328 3.655 19.071 4.844L20.78 6.011L9.99 20.715L8.513 20.048L8.514 20.047Z" fill="url(#nc-rat-head-1_linear_307_262)"></path> <path d="M37.522 22.741C37.208 22.741 36.907 22.593 36.715 22.333L25.261 6.722C24.993 6.356 25.004 5.856 25.289 5.502C27.563 2.683 31.193 1 35 1C41.617 1 47 5.935 47 12C47 17.135 43.189 21.543 37.733 22.719C37.663 22.735 37.592 22.741 37.522 22.741Z" fill="url(#nc-rat-head-2_linear_307_262)"></path> <path d="M27.22 6.011L28.929 4.844C30.672 3.655 32.827 3 35 3C40.514 3 45 7.038 45 12C45 15.428 42.887 18.511 39.486 20.047L38.009 20.714L27.22 6.011Z" fill="url(#nc-rat-head-3_linear_307_262)"></path> <path d="M24.083 42C25.918 42 27.558 42.826 28.659 44.124C34.072 37.908 39 23.344 39 18C39 10.832 32.271 5 24 5C15.729 5 9 10.832 9 18C9 21.516 11.021 28.619 13.805 34.891C15.271 38.193 17.205 41.864 19.374 44.291C20.473 42.898 22.172 42.001 24.084 42.001L24.083 42Z" fill="url(#nc-rat-head-4_linear_307_262)"></path> <path d="M7.99899 41.3449C7.51999 41.3449 7.09799 40.9999 7.01499 40.5129C6.92199 39.9679 7.28799 39.4509 7.83199 39.3599L19.832 37.3159C20.376 37.2249 20.893 37.5889 20.985 38.1329C21.078 38.6779 20.712 39.1939 20.168 39.2859L8.16799 41.3299C8.11099 41.3399 8.05499 41.3449 7.99899 41.3449Z" fill="url(#nc-rat-head-5_linear_307_262)"></path> <path d="M18.735 35.075C18.686 35.075 18.636 35.071 18.586 35.064L5.85199 33.156C5.30599 33.074 4.92899 32.565 5.01099 32.018C5.09299 31.472 5.59399 31.107 6.14899 31.177L18.883 33.085C19.429 33.167 19.806 33.676 19.724 34.223C19.65 34.719 19.222 35.075 18.735 35.075Z" fill="url(#nc-rat-head-6_linear_307_262)"></path> <path d="M40.001 41.3449C39.945 41.3449 39.889 41.3399 39.832 41.3299L27.832 39.2859C27.288 39.1929 26.922 38.6779 27.015 38.1329C27.108 37.5889 27.624 37.2249 28.168 37.3159L40.168 39.3599C40.712 39.4519 41.078 39.9679 40.985 40.5129C40.902 40.9999 40.479 41.3449 40.001 41.3449Z" fill="url(#nc-rat-head-7_linear_307_262)"></path> <path d="M29.265 35.075C28.778 35.075 28.351 34.72 28.277 34.223C28.195 33.676 28.572 33.167 29.118 33.085L41.852 31.177C42.41 31.107 42.909 31.472 42.99 32.018C43.072 32.565 42.695 33.074 42.149 33.156L29.415 35.064C29.364 35.071 29.314 35.075 29.266 35.075H29.265Z" fill="url(#nc-rat-head-8_linear_307_262)"></path> <path d="M17 24C18.1046 24 19 23.1046 19 22C19 20.8954 18.1046 20 17 20C15.8954 20 15 20.8954 15 22C15 23.1046 15.8954 24 17 24Z" fill="url(#nc-rat-head-9_linear_307_262)"></path> <path d="M31 24C32.1046 24 33 23.1046 33 22C33 20.8954 32.1046 20 31 20C29.8954 20 29 20.8954 29 22C29 23.1046 29.8954 24 31 24Z" fill="url(#nc-rat-head-10_linear_307_262)"></path> <path d="M24 47C25.524 47 27.111 45.902 28.659 44.124C27.558 42.826 25.918 42 24.083 42C22.171 42 20.472 42.897 19.373 44.29C20.833 45.924 22.397 47 24 47Z" fill="url(#nc-rat-head-11_linear_307_262)"></path> <defs> <linearGradient id="nc-rat-head-0_linear_307_262" x1="11.9663" y1="1" x2="11.9663" y2="22.741" gradientUnits="userSpaceOnUse"> <stop stop-color="#5B5E71"></stop> <stop offset="1" stop-color="#393A46"></stop> </linearGradient> <linearGradient id="nc-rat-head-1_linear_307_262" x1="11.89" y1="3" x2="11.89" y2="20.715" gradientUnits="userSpaceOnUse"> <stop stop-color="#F4BAA4"></stop> <stop offset="1" stop-color="#ED9C7C"></stop> </linearGradient> <linearGradient id="nc-rat-head-2_linear_307_262" x1="36.0337" y1="1" x2="36.0337" y2="22.741" gradientUnits="userSpaceOnUse"> <stop stop-color="#5B5E71"></stop> <stop offset="1" stop-color="#393A46"></stop> </linearGradient> <linearGradient id="nc-rat-head-3_linear_307_262" x1="36.11" y1="3" x2="36.11" y2="20.714" gradientUnits="userSpaceOnUse"> <stop stop-color="#F4BAA4"></stop> <stop offset="1" stop-color="#ED9C7C"></stop> </linearGradient> <linearGradient id="nc-rat-head-4_linear_307_262" x1="24" y1="5" x2="24" y2="44.291" gradientUnits="userSpaceOnUse"> <stop stop-color="#A2A3B4"></stop> <stop offset="1" stop-color="#83849B"></stop> </linearGradient> <linearGradient id="nc-rat-head-5_linear_307_262" x1="14" y1="37.302" x2="14" y2="41.3449" gradientUnits="userSpaceOnUse"> <stop stop-color="#5B5E71"></stop> <stop offset="1" stop-color="#393A46"></stop> </linearGradient> <linearGradient id="nc-rat-head-6_linear_307_262" x1="12.3675" y1="31.1685" x2="12.3675" y2="35.075" gradientUnits="userSpaceOnUse"> <stop stop-color="#5B5E71"></stop> <stop offset="1" stop-color="#393A46"></stop> </linearGradient> <linearGradient id="nc-rat-head-7_linear_307_262" x1="34" y1="37.302" x2="34" y2="41.3449" gradientUnits="userSpaceOnUse"> <stop stop-color="#5B5E71"></stop> <stop offset="1" stop-color="#393A46"></stop> </linearGradient> <linearGradient id="nc-rat-head-8_linear_307_262" x1="35.6335" y1="31.1685" x2="35.6335" y2="35.075" gradientUnits="userSpaceOnUse"> <stop stop-color="#5B5E71"></stop> <stop offset="1" stop-color="#393A46"></stop> </linearGradient> <linearGradient id="nc-rat-head-9_linear_307_262" x1="17" y1="20" x2="17" y2="24" gradientUnits="userSpaceOnUse"> <stop stop-color="#FFD36E"></stop> <stop offset="1" stop-color="#F6B828"></stop> </linearGradient> <linearGradient id="nc-rat-head-10_linear_307_262" x1="31" y1="20" x2="31" y2="24" gradientUnits="userSpaceOnUse"> <stop stop-color="#FFD36E"></stop> <stop offset="1" stop-color="#F6B828"></stop> </linearGradient> <linearGradient id="nc-rat-head-11_linear_307_262" x1="24.016" y1="42" x2="24.016" y2="47" gradientUnits="userSpaceOnUse"> <stop stop-color="#5B5E71"></stop> <stop offset="1" stop-color="#393A46"></stop> </linearGradient> </defs> </g></svg>