<svg xmlns="http://www.w3.org/2000/svg" height="48" width="48" style="" viewBox="0 0 48 48"><title>rat</title><g class="nc-icon-wrapper"> <path d="M11.438 5.78406C11.003 5.57806 10.483 5.71006 10.2 6.10006C8.11701 8.98006 6.99701 12.4451 7.00001 16.0001C7.00601 17.4251 7.19001 18.8431 7.54901 20.2221C7.66201 20.6641 8.06101 20.9741 8.51701 20.9741H8.59101C12.993 20.6551 16.302 16.8281 15.983 12.4261C15.775 9.55506 14.039 7.01806 11.438 5.78406Z" fill="url(#nc-rat-0_linear_307_154)"></path> <path d="M41.373 27H41.1C44.432 19.435 41.001 10.602 33.436 7.27003C31.526 6.42903 29.461 5.99603 27.373 6.00003C16.495 6.01003 6.47298 11.901 1.17298 21.4C0.399983 22.798 0.338983 24.481 1.00898 25.931L2.15698 28.418C2.31998 28.773 2.67498 29 3.06498 29H41.373C43.03 29 44.373 30.343 44.373 32C44.373 33.657 43.03 35 41.373 35H29.373C26.612 35 24.373 37.239 24.373 40C24.373 42.761 26.612 45 29.373 45H33.373C33.925 45 34.373 44.552 34.373 44C34.373 43.448 33.925 43 33.373 43H29.373C27.716 43 26.373 41.657 26.373 40C26.373 38.343 27.716 37 29.373 37H41.373C44.134 37 46.373 34.761 46.373 32C46.373 29.239 44.134 27 41.373 27Z" fill="url(#nc-rat-1_linear_307_154)"></path> <path d="M24 29H26C26 28.852 26.016 28.705 26.044 28.56C26.255 27.09 27.515 25.999 29 26H29.224C28.645 25.732 28.117 25.366 27.663 24.918C26.602 23.891 26.002 22.477 26 21C26.003 18.24 28.24 16.003 31 16C31.552 16 32 15.552 32 15C32 14.448 31.552 14 31 14C27.134 14.002 24.002 17.138 24.004 21.004C24.004 22.659 24.592 24.26 25.661 25.523C24.614 26.374 24.004 27.651 24 29Z" fill="url(#nc-rat-2_linear_307_154)"></path> <path d="M7.75 21C8.44036 21 9 20.4404 9 19.75C9 19.0596 8.44036 18.5 7.75 18.5C7.05964 18.5 6.5 19.0596 6.5 19.75C6.5 20.4404 7.05964 21 7.75 21Z" fill="url(#nc-rat-3_linear_307_154)"></path> <path d="M17 26C17.552 26 18 25.552 18 25C18 24.448 17.552 24 17 24C14.24 24.003 12.003 26.24 12 29H14C14 27.343 15.343 26 17 26Z" fill="url(#nc-rat-4_linear_307_154)"></path> <defs> <linearGradient id="nc-rat-0_linear_307_154" x1="11.5021" y1="5.6875" x2="11.5021" y2="20.9741" gradientUnits="userSpaceOnUse"> <stop stop-color="#C2C3CD"></stop> <stop offset="1" stop-color="#A2A3B4"></stop> </linearGradient> <linearGradient id="nc-rat-1_linear_307_154" x1="23.4598" y1="6" x2="23.4598" y2="45" gradientUnits="userSpaceOnUse"> <stop stop-color="#E0E0E6"></stop> <stop offset="1" stop-color="#C2C3CD"></stop> </linearGradient> <linearGradient id="nc-rat-2_linear_307_154" x1="28" y1="14" x2="28" y2="29" gradientUnits="userSpaceOnUse"> <stop stop-color="#C2C3CD"></stop> <stop offset="1" stop-color="#A2A3B4"></stop> </linearGradient> <linearGradient id="nc-rat-3_linear_307_154" x1="7.75" y1="18.5" x2="7.75" y2="21" gradientUnits="userSpaceOnUse"> <stop stop-color="#5B5E71"></stop> <stop offset="1" stop-color="#393A46"></stop> </linearGradient> <linearGradient id="nc-rat-4_linear_307_154" x1="15" y1="24" x2="15" y2="29" gradientUnits="userSpaceOnUse"> <stop stop-color="#C2C3CD"></stop> <stop offset="1" stop-color="#A2A3B4"></stop> </linearGradient> </defs> </g></svg>