<svg xmlns="http://www.w3.org/2000/svg" height="48" width="48" viewBox="0 0 48 48"><title>shark</title><g class="nc-icon-wrapper"><path d="M23.99,2c-10.932,0-22,14.77-22,43a1,1,0,0,0,1,1h42a1,1,0,0,0,1-1C45.99,16.77,34.923,2,23.99,2ZM38.539,37.836a1,1,0,0,1-1.2-.076C37.273,37.7,30.53,32,23.99,32s-13.282,5.7-13.349,5.759a1,1,0,0,1-1.606-1.053C9.207,36.146,13.374,23,23.99,23S38.774,36.146,38.947,36.706A1,1,0,0,1,38.539,37.836Z" fill="#6ca5b7"></path><path d="M38.539,37.836a1,1,0,0,1-1.2-.076C37.273,37.7,30.53,32,23.991,32c-6.555,0-13.283,5.7-13.35,5.759a1,1,0,0,1-1.606-1.053C9.207,36.146,13.374,23,23.991,23S38.774,36.146,38.947,36.706A1,1,0,0,1,38.539,37.836Z" fill="#fff"></path><circle cx="14.99" cy="17" r="2" fill="#444"></circle><circle cx="32.99" cy="17" r="2" fill="#444"></circle><path d="M29.423,26.577,28,28l-.83-2.489a10.018,10.018,0,0,0-1.348-.333L24,27l-1.825-1.825a9.977,9.977,0,0,0-1.343.329L20,28l-1.434-1.434a18.32,18.32,0,0,0-6.33,7.57,32.144,32.144,0,0,1,4.141-2.268L17,30l1.523,1.015c.6-.206,1.206-.39,1.828-.541L22,28l1.99,2L26,28l1.649,2.473c.623.151,1.233.334,1.831.54L31,30l.621,1.862a31.789,31.789,0,0,1,4.109,2.252A18.364,18.364,0,0,0,29.423,26.577Z" fill="#f74b3b"></path></g></svg>