<svg xmlns="http://www.w3.org/2000/svg" height="48" width="48" viewBox="0 0 48 48"><title>shark 2</title><g class="nc-icon-wrapper"><path d="M13,18A32.9,32.9,0,0,1,5.487,39H39.141A28.995,28.995,0,0,0,11,3h-.018a1,1,0,0,0-.911,1.413A32.724,32.724,0,0,1,13,18Z" fill="#4d8b9d"></path><path d="M46,39a8.953,8.953,0,0,1-6.3-2.577,1,1,0,0,0-1.4,0q-.184.181-.379.352a8.979,8.979,0,0,1-12.669-.836.944.944,0,0,0-.1-.1.994.994,0,0,0-1.4.1,8.784,8.784,0,0,1-.841.841,8.971,8.971,0,0,1-12.659-.841.944.944,0,0,0-.1-.1.994.994,0,0,0-1.4.1A9.008,9.008,0,0,1,2,39H1v5a1,1,0,0,0,1,1H46a1,1,0,0,0,1-1V39Z" fill="#a0e6ee"></path></g></svg>