<svg xmlns="http://www.w3.org/2000/svg" height="48" width="48" viewBox="0 0 48 48"><title>shell</title><g class="nc-icon-wrapper"><path d="M19.325,42H13.531a4,4,0,0,1-3.969-3.5L8.43,29.438Z" fill="#c6a279"></path> <path d="M28.675,42h5.794a4,4,0,0,0,3.969-3.5l1.132-9.058Z" fill="#c6a279"></path> <path d="M47,19.354a6.935,6.935,0,0,0-6.9-6.97,6.935,6.935,0,0,0-6.9-6.97,6.779,6.779,0,0,0-3.382.929,6.83,6.83,0,0,0-11.636,0A6.779,6.779,0,0,0,14.8,5.414a6.935,6.935,0,0,0-6.9,6.97,6.956,6.956,0,0,0-5.122,11.6l15.8,18.22a6.784,6.784,0,0,0,10.84,0l15.8-18.22A6.961,6.961,0,0,0,47,19.354Z" fill="#ead8c5"></path> <path d="M21.585,29a1,1,0,0,1-.988-.851l-2.867-19a1,1,0,0,1,1.979-.3l2.866,19a1,1,0,0,1-.84,1.138A1.081,1.081,0,0,1,21.585,29Z" fill="#ddbe99"></path> <path d="M17,30.858a1,1,0,0,1-.9-.556L8.749,15.443a1,1,0,0,1,1.793-.886L17.9,29.415A1,1,0,0,1,17,30.858Z" fill="#ddbe99"></path> <path d="M26.415,29a1.081,1.081,0,0,1-.15-.011,1,1,0,0,1-.84-1.138l2.866-19a1,1,0,0,1,1.979.3l-2.867,19A1,1,0,0,1,26.415,29Z" fill="#ddbe99"></path> <path d="M31,30.858a1,1,0,0,1-.895-1.443l7.354-14.858a1,1,0,0,1,1.793.886L31.9,30.3A1,1,0,0,1,31,30.858Z" fill="#ddbe99"></path></g></svg>