<svg xmlns="http://www.w3.org/2000/svg" height="48" width="48" viewBox="0 0 48 48"><title>sloth</title><g class="nc-icon-wrapper"><path d="M44,47H4a1,1,0,0,1-1-1V22a21,21,0,0,1,42,0V46A1,1,0,0,1,44,47Z" fill="#c19f85"></path> <path d="M24,21A21,21,0,0,0,3,42v4a1,1,0,0,0,1,1H44a1,1,0,0,0,1-1V42A21,21,0,0,0,24,21Z" fill="#ead8c5"></path> <path d="M24,35a1,1,0,0,1-1-1V28a1,1,0,0,1,2,0v6A1,1,0,0,1,24,35Z" fill="#444"></path> <path d="M24,29a3,3,0,1,1,3-3A3,3,0,0,1,24,29Z" fill="#444"></path> <path d="M28,39a5,5,0,0,1-4-2,5,5,0,0,1-9-3,1,1,0,0,1,2,0,3,3,0,0,0,6,0,1,1,0,0,1,2,0,3,3,0,0,0,6,0,1,1,0,0,1,2,0A5.006,5.006,0,0,1,28,39Z" fill="#444"></path> <path d="M36,19a1,1,0,0,1-1-1,3,3,0,0,0-6,0,1,1,0,0,1-2,0,5,5,0,0,1,10,0A1,1,0,0,1,36,19Z" fill="#444"></path> <path d="M36,19a1,1,0,0,1-1-1,3,3,0,0,0-6,0,1,1,0,0,1-2,0,5,5,0,0,1,10,0A1,1,0,0,1,36,19Z" fill="#444"></path> <path d="M20,19a1,1,0,0,1-1-1,3,3,0,0,0-6,0,1,1,0,0,1-2,0,5,5,0,0,1,10,0A1,1,0,0,1,20,19Z" fill="#444"></path></g></svg>