<svg xmlns="http://www.w3.org/2000/svg" height="48" width="48" viewBox="0 0 48 48"><title>tree 03</title><g class="nc-icon-wrapper"><path fill="#72C472" d="M40.99997,39H7.00003c-0.75421,0-1.23696-0.8031-0.88312-1.46915L23.11688,5.53098 c0.37602-0.70779,1.39021-0.70779,1.76623,0l16.99997,31.99986C42.23692,38.1969,41.75417,39,40.99997,39z"></path> <path fill="#4DA34D" d="M29.70703,30.29297c-0.39062-0.39062-1.02344-0.39062-1.41406,0L25,33.58594V22c0-0.55225-0.44775-1-1-1 s-1,0.44775-1,1v6.58594l-3.29297-3.29297c-0.39062-0.39062-1.02344-0.39062-1.41406,0s-0.39062,1.02344,0,1.41406L23,31.41406V46 c0,0.55225,0.44775,1,1,1s1-0.44775,1-1v-9.58594l4.70703-4.70703C30.09766,31.31641,30.09766,30.68359,29.70703,30.29297z"></path> <path fill="#A67C52" d="M34,47H14c-0.55225,0-1-0.44775-1-1s0.44775-1,1-1h20c0.55225,0,1,0.44775,1,1S34.55225,47,34,47z"></path></g></svg>