<svg xmlns="http://www.w3.org/2000/svg" height="48" width="48" style="" viewBox="0 0 48 48"><title>turkey head</title><g class="nc-icon-wrapper"><path d="M44.223 23.757L43.859 22.939C43.291 21.66 42.997 20.277 42.997 18.878V13C42.997 5.82 37.177 0 29.997 0C27.831 0 25.793 0.537 23.997 1.474C22.201 0.537 20.163 0 17.997 0C10.818 0 4.998 5.82 4.998 13V18.878C4.998 20.277 4.704 21.661 4.136 22.939L3.772 23.757C2.132 27.448 3.148 31.777 6.262 34.349C10.064 37.49 15.171 41.708 18.928 44.812C20.4 46.028 22.198 46.638 23.998 46.643C25.798 46.638 27.596 46.028 29.068 44.812C32.825 41.708 37.931 37.49 41.734 34.349C44.848 31.777 45.863 27.448 44.223 23.757Z" fill="url(#nc-turkey-head-0_linear_230_2)"></path> <path d="M12 18.002C10.897 18.002 10 17.105 10 16.002C10 14.899 10.897 14.002 12 14.002C13.103 14.002 14 14.899 14 16.002C14 17.105 13.103 18.002 12 18.002Z" fill="url(#nc-turkey-head-1_linear_230_2)"></path> <path d="M36 18.002C34.897 18.002 34 17.105 34 16.002C34 14.899 34.897 14.002 36 14.002C37.103 14.002 38 14.899 38 16.002C38 17.105 37.103 18.002 36 18.002Z" fill="url(#nc-turkey-head-2_linear_230_2)"></path> <path d="M41.739 34.351C42.219 33.954 42.644 33.511 43.022 33.04L39.003 30.014L37.419 28.821C36.708 28.285 35.879 28.001 35.022 28.001H30.679C30.469 28.001 30.263 28.03 30.058 28.062C29.486 28.178 28.96 28.458 28.539 28.879L26.478 30.94C25.795 31.623 25.003 32.001 24.003 32.001C23.003 32.001 22.211 31.623 21.528 30.94L19.467 28.879C19.045 28.457 18.519 28.178 17.948 28.062C17.743 28.03 17.537 28.001 17.327 28.001H12.984C12.127 28.001 11.297 28.285 10.587 28.821L9.00299 30.014L4.97699 33.045C5.35299 33.515 5.77499 33.956 6.25299 34.352C10.043 37.494 15.134 41.712 18.893 44.815C21.851 47.257 26.121 47.253 29.078 44.811L41.74 34.351H41.739Z" fill="url(#nc-turkey-head-3_linear_230_2)"></path> <path d="M24 48C21.243 48 19 45.757 19 43C19 38.698 23.047 33.591 23.219 33.375C23.6 32.9 24.401 32.9 24.781 33.375C24.953 33.591 29 38.698 29 43C29 45.757 26.757 48 24 48Z" fill="url(#nc-turkey-head-4_linear_230_2)"></path> <path d="M33 22H29.806C28.946 22 28.125 21.63 27.556 20.984L27.031 20.389C26.281 19.51 25.173 18.999 24.001 18.999C22.829 18.999 21.721 19.51 20.971 20.389L20.446 20.984C19.877 21.63 19.056 22 18.196 22H15.002C11.693 22 9.00201 24.691 9.00201 28.022V30.012L10.586 28.819C11.297 28.283 12.126 27.999 12.983 27.999H17.345C18.147 27.999 18.901 28.311 19.467 28.878L21.528 30.939C22.211 31.622 23.003 32 24.003 32C25.003 32 25.795 31.622 26.478 30.939L28.539 28.878C29.105 28.312 29.859 27.999 30.661 27.999H35.023C35.88 27.999 36.71 28.283 37.42 28.819L39.004 30.012V28.022C39.004 24.691 36.313 22 33.004 22H33Z" fill="url(#nc-turkey-head-5_linear_230_2)"></path> <path d="M38.974 27.486L38.599 27.206C37.541 26.417 36.297 26 35 26H30.657C29.321 26 28.065 26.521 27.121 27.465L25.06 29.526C24.714 29.872 24.426 30.001 23.999 30.001C23.572 30.001 23.284 29.872 22.938 29.526L20.877 27.465C19.933 26.521 18.677 26 17.341 26H12.998C11.701 26 10.457 26.417 9.39899 27.206L9.02399 27.486C9.00899 27.659 8.99799 27.832 8.99799 28.009V29.999L10.597 28.809C11.306 28.279 12.136 27.999 12.998 27.999H17.341C18.143 27.999 18.897 28.311 19.463 28.878L21.524 30.939C22.238 31.653 23.047 32 23.999 32C24.951 32 25.76 31.653 26.474 30.939L28.535 28.878C29.101 28.312 29.855 27.999 30.657 27.999H35C35.862 27.999 36.692 28.278 37.401 28.809L39 29.999V28.009C39 27.832 38.989 27.659 38.974 27.486Z" fill="url(#nc-turkey-head-6_linear_230_2)"></path> <path d="M42.642 10.014C41.291 4.276 36.151 0 30 0C27.834 0 25.796 0.537 24 1.474C22.204 0.537 20.166 0 18 0C11.85 0 6.709 4.276 5.358 10.014C7.261 8.744 9.545 8 12 8C16.857 8 21.205 10.898 23.077 15.384C23.232 15.757 23.597 15.999 24 15.999C24.403 15.999 24.768 15.757 24.923 15.384C26.795 10.899 31.143 8 36 8C38.455 8 40.738 8.744 42.642 10.014Z" fill="url(#nc-turkey-head-7_linear_230_2)"></path> <path d="M24 17C25.6569 17 27 13.866 27 10C27 6.13401 25.6569 3 24 3C22.3431 3 21 6.13401 21 10C21 13.866 22.3431 17 24 17Z" fill="url(#nc-turkey-head-8_linear_230_2)"></path> <defs> <linearGradient id="nc-turkey-head-0_linear_230_2" x1="23.998" y1="0" x2="23.998" y2="46.643" gradientUnits="userSpaceOnUse"> <stop stop-color="#80B0CB"></stop> <stop offset="1" stop-color="#4480A7"></stop> </linearGradient> <linearGradient id="nc-turkey-head-1_linear_230_2" x1="12" y1="14.002" x2="12" y2="18.002" gradientUnits="userSpaceOnUse"> <stop stop-color="#5B5E71"></stop> <stop offset="1" stop-color="#393A46"></stop> </linearGradient> <linearGradient id="nc-turkey-head-2_linear_230_2" x1="36" y1="14.002" x2="36" y2="18.002" gradientUnits="userSpaceOnUse"> <stop stop-color="#5B5E71"></stop> <stop offset="1" stop-color="#393A46"></stop> </linearGradient> <linearGradient id="nc-turkey-head-3_linear_230_2" x1="23.9995" y1="28.001" x2="23.9995" y2="46.6445" gradientUnits="userSpaceOnUse"> <stop stop-color="#FF666D"></stop> <stop offset="1" stop-color="#E0211F"></stop> </linearGradient> <linearGradient id="nc-turkey-head-4_linear_230_2" x1="24" y1="33.0187" x2="24" y2="48" gradientUnits="userSpaceOnUse"> <stop stop-color="#FF9EA8"></stop> <stop offset="1" stop-color="#FF666D"></stop> </linearGradient> <linearGradient id="nc-turkey-head-5_linear_230_2" x1="24.003" y1="18.999" x2="24.003" y2="32" gradientUnits="userSpaceOnUse"> <stop stop-color="#F8D3C4"></stop> <stop offset="1" stop-color="#F4BAA4"></stop> </linearGradient> <linearGradient id="nc-turkey-head-6_linear_230_2" x1="23.999" y1="26" x2="23.999" y2="32" gradientUnits="userSpaceOnUse"> <stop stop-color="#F4BAA4"></stop> <stop offset="1" stop-color="#ED9C7C"></stop> </linearGradient> <linearGradient id="nc-turkey-head-7_linear_230_2" x1="24" y1="0" x2="24" y2="15.999" gradientUnits="userSpaceOnUse"> <stop stop-color="#C5DCE7"></stop> <stop offset="1" stop-color="#80B0CB"></stop> </linearGradient> <linearGradient id="nc-turkey-head-8_linear_230_2" x1="24" y1="3" x2="24" y2="17" gradientUnits="userSpaceOnUse"> <stop stop-color="#FF666D"></stop> <stop offset="1" stop-color="#E0211F"></stop> </linearGradient> </defs></g></svg>