<svg xmlns="http://www.w3.org/2000/svg" height="48" width="48" viewBox="0 0 48 48"><title>water surface</title><g class="nc-icon-wrapper"><path d="M47,21H1V9A1,1,0,0,1,2,8,9.175,9.175,0,0,0,8.766,4.921,1.035,1.035,0,0,1,9.512,4.6a1,1,0,0,1,.738.338A9,9,0,0,0,17,8a9,9,0,0,0,6.749-3.061.994.994,0,0,1,1.4-.1,1.007,1.007,0,0,1,.1.1A9,9,0,0,0,32,8a8.953,8.953,0,0,0,6.3-2.577,1,1,0,0,1,1.408.006A8.949,8.949,0,0,0,46.008,8,.994.994,0,0,1,47,8.994V21Z" fill="#58bfca"></path><path d="M47,33H1V21a1,1,0,0,1,1-1,9.177,9.177,0,0,0,6.767-3.079,1.035,1.035,0,0,1,.746-.321,1,1,0,0,1,.738.338,8.971,8.971,0,0,0,12.659.841,8.784,8.784,0,0,0,.841-.841.994.994,0,0,1,1.4-.1,1.007,1.007,0,0,1,.1.1,8.979,8.979,0,0,0,12.669.836q.195-.171.379-.352a1,1,0,0,1,1.408.006A8.953,8.953,0,0,0,46.008,20a.994.994,0,0,1,.992.994V33Z" fill="#a0e6ee"></path><path d="M46,44H2a1,1,0,0,1-1-1V33a1,1,0,0,1,1-1,9.179,9.179,0,0,0,6.766-3.079,1.035,1.035,0,0,1,.746-.321,1,1,0,0,1,.738.338,8.971,8.971,0,0,0,12.659.841,8.784,8.784,0,0,0,.841-.841,1.032,1.032,0,0,1,1.459-.041l.041.041a8.979,8.979,0,0,0,12.671.836c.129-.113.256-.231.379-.352a1,1,0,0,1,1.4,0A8.946,8.946,0,0,0,46,32a1,1,0,0,1,1,1V43A1,1,0,0,1,46,44Z" fill="#c2eff4"></path></g></svg>