<svg xmlns="http://www.w3.org/2000/svg" height="48" width="48" viewBox="0 0 48 48"><title>wood</title><g class="nc-icon-wrapper"><path fill="#A67C52" d="M46,47H16c-0.55273,0-1-0.44775-1-1v-7.6665L3.2002,22.6001 c-0.29883-0.39844-0.25879-0.95508,0.09277-1.30713l4-4c0.35059-0.35254,0.90918-0.39111,1.30664-0.09277L15,22V2 c0-0.55225,0.44727-1,1-1h16.00098c0.40918,0,0.77637,0.24902,0.92871,0.62891L36,9.30762l3.07227-7.6792 C39.22461,1.24902,39.5918,1,40.00098,1H46c0.55273,0,1,0.44775,1,1v44C47,46.55225,46.55273,47,46,47z"></path> <path fill="#7C5839" d="M26,47h-2V32c0-0.55228,0.44771-1,1-1h0c0.55228,0,1,0.44771,1,1V47z"></path> <path fill="#7C5839" d="M25,28c-0.55273,0-1-0.44775-1-1v-2c0-0.55225,0.44727-1,1-1s1,0.44775,1,1v2C26,27.55225,25.55273,28,25,28 z"></path></g></svg>