<svg xmlns="http://www.w3.org/2000/svg" height="64" width="64" viewBox="0 0 64 64"><title>apron 3</title><g fill="#61616b" class="nc-icon-wrapper"><path fill="#61616b" d="M58,29h-2c-6.1,0-11-4.9-11-11v-4c0-7.2-5.8-13-13-13S19,6.8,19,14v4c0,6.1-4.9,11-11,11H6c-0.6,0-1,0.4-1,1 v32c0,0.6,0.4,1,1,1h52c0.6,0,1-0.4,1-1V30C59,29.4,58.6,29,58,29z M41,46c0,5-4,9-9,9s-9-4-9-9v-6c0-0.6,0.4-1,1-1h16 c0.6,0,1,0.4,1,1V46z M43,17H21v-3c0-6.1,4.9-11,11-11s11,4.9,11,11V17z"></path> <path data-color="color-2" fill="#61616b" d="M7,27v-3c0-2.8,2.2-5,5-5c0.6,0,1-0.4,1-1s-0.4-1-1-1c-3.9,0-7,3.1-7,7v3H7z"></path> <path data-color="color-2" fill="#61616b" d="M57,27v-3c0-2.8-2.2-5-5-5c-0.6,0-1-0.4-1-1s0.4-1,1-1c3.9,0,7,3.1,7,7v3H57z"></path></g></svg>