<svg xmlns="http://www.w3.org/2000/svg" height="16" width="16" viewBox="0 0 16 16"><title>baby clothes 2</title><g fill="#61616b" class="nc-icon-wrapper"><path d="M15.607,2.012l-4.55-1a.492.492,0,0,0-.388.073.5.5,0,0,0-.213.332,2.489,2.489,0,0,1-4.912,0,.5.5,0,0,0-.6-.4l-4.55,1A.5.5,0,0,0,0,2.5v3A.5.5,0,0,0,.5,6H3v5.5a.5.5,0,0,0,.5.5A2.5,2.5,0,0,1,6,14.5a.5.5,0,0,0,.5.5h3a.5.5,0,0,0,.5-.5A2.5,2.5,0,0,1,12.5,12a.5.5,0,0,0,.5-.5V6h2.5a.5.5,0,0,0,.5-.5v-3A.5.5,0,0,0,15.607,2.012Z" fill="#61616b"></path></g></svg>