<svg xmlns="http://www.w3.org/2000/svg" height="48" width="48" viewBox="0 0 48 48"><title>baby clothes 4</title><g fill="#61616b" class="nc-icon-wrapper"><path d="M46.53,8.151l-5.568-3.48A10.994,10.994,0,0,0,35.132,3H32a1,1,0,0,0-1,1A7,7,0,0,1,17,4a1,1,0,0,0-1-1H12.868a10.994,10.994,0,0,0-5.83,1.671L1.47,8.151A1,1,0,0,0,1.02,9.2l2,10a1,1,0,0,0,.478.668,1,1,0,0,0,.818.084L9,18.388V36a1,1,0,0,0,1,1,7.008,7.008,0,0,1,7,7,1,1,0,0,0,1,1H30a1,1,0,0,0,1-1,7.008,7.008,0,0,1,7-7,1,1,0,0,0,1-1V18.388l4.684,1.56A1.011,1.011,0,0,0,44,20a1,1,0,0,0,.98-.8l2-10A1,1,0,0,0,46.53,8.151ZM29.849,25.711,24,31.561l-5.85-5.852a3.825,3.825,0,0,1-.288-.322A3.931,3.931,0,0,1,24,20.474a4.16,4.16,0,0,1,.287-.321,3.932,3.932,0,1,1,5.562,5.558Z" fill="#61616b"></path></g></svg>