<svg xmlns="http://www.w3.org/2000/svg" height="32" width="32" viewBox="0 0 32 32"><title>baby clothes 5</title><g fill="#61616b" class="nc-icon-wrapper"><path d="M27,24V14h4a1,1,0,0,0,1-1V6a1,1,0,0,0-.375-.781L28.269,2.534A7.029,7.029,0,0,0,23.9,1H21A5,5,0,0,1,11,1H8.1A7.029,7.029,0,0,0,3.731,2.534L.375,5.219A1,1,0,0,0,0,6v7a1,1,0,0,0,1,1H5V24a7,7,0,0,1,7,7h8A7,7,0,0,1,27,24Zm-6.8-7.269L16,21l-4.2-4.269a2.8,2.8,0,0,1,0-3.919,2.7,2.7,0,0,1,4.2.428,2.7,2.7,0,0,1,4.2-.428A2.8,2.8,0,0,1,20.2,16.731Z" fill="#61616b"></path></g></svg>