<svg xmlns="http://www.w3.org/2000/svg" height="24" width="24" viewBox="0 0 24 24"><title>backpack</title><g fill="#61616b" class="nc-icon-wrapper"><path data-color="color-2" d="M17,16H7a1,1,0,0,0-1,1v7H18V17A1,1,0,0,0,17,16Z" fill="#61616b"></path><path d="M19,4H16A4,4,0,0,0,8,4H5A3,3,0,0,0,2,7V21a2.99,2.99,0,0,0,2,2.816V17a3,3,0,0,1,3-3H17a3,3,0,0,1,3,3v6.816A2.99,2.99,0,0,0,22,21V7A3,3,0,0,0,19,4ZM12,2a1.956,1.956,0,0,1,2,2H10A1.956,1.956,0,0,1,12,2Zm2,8H10a1,1,0,0,1,0-2h4a1,1,0,0,1,0,2Z" fill="#61616b"></path></g></svg>