<svg xmlns="http://www.w3.org/2000/svg" height="48" width="48" viewBox="0 0 48 48"><title>backpack 2 4</title><g fill="#61616b" class="nc-icon-wrapper"><path data-color="color-2" d="M34,7H33v5a1,1,0,0,1-2,0V8.293A7.194,7.194,0,0,0,24.215,1,7,7,0,0,0,17,8v4a1,1,0,0,1-2,0V7H14a5,5,0,0,0-5,5V25a5,5,0,0,0,5,5h3V28a1,1,0,0,1,2,0v2H29V28a1,1,0,0,1,2,0v2h3a5,5,0,0,0,5-5V12A5,5,0,0,0,34,7ZM19.1,7a5,5,0,0,1,9.8,0Z" fill="#61616b"></path><path d="M41,21v4a7,7,0,0,1-7,7H31v2a1,1,0,0,1-2,0V32H19v2a1,1,0,0,1-2,0V32H14a7,7,0,0,1-7-7V21a5.006,5.006,0,0,0-5,5V41a5,5,0,0,0,5,5H9V35a1,1,0,0,1,2,0V46H37V35a1,1,0,0,1,2,0V46h2a5,5,0,0,0,5-5V26A5.006,5.006,0,0,0,41,21Z" fill="#61616b"></path></g></svg>