<svg xmlns="http://www.w3.org/2000/svg" height="32" width="32" viewBox="0 0 32 32"><title>backpack 6</title><g fill="#61616b" class="nc-icon-wrapper"><path data-color="color-2" d="M22,22H10a2,2,0,0,0-2,2v8H24V24A2,2,0,0,0,22,22Z" fill="#61616b"></path><path d="M23,5H21A5,5,0,0,0,11,5H9a6,6,0,0,0-6,6V28a3.991,3.991,0,0,0,3,3.859V24a4,4,0,0,1,4-4H22a4,4,0,0,1,4,4v7.859A3.991,3.991,0,0,0,29,28V11A6,6,0,0,0,23,5ZM16,2a2.946,2.946,0,0,1,3,3H13A2.946,2.946,0,0,1,16,2Zm4,12.5a.5.5,0,0,1-.5.5h-7a.5.5,0,0,1-.5-.5v-3a.5.5,0,0,1,.5-.5h7a.5.5,0,0,1,.5.5Z" fill="#61616b"></path></g></svg>