<svg xmlns="http://www.w3.org/2000/svg" height="24" width="24" viewBox="0 0 24 24"><title>backpack 2</title><g fill="#61616b" class="nc-icon-wrapper"><path data-color="color-2" d="M16,14H14v1a1,1,0,0,1-1,1H11a1,1,0,0,1-1-1V14H8a5.142,5.142,0,0,1-3-1V23H19V13A5.142,5.142,0,0,1,16,14Z" fill="#61616b"></path><path d="M8,12h2V11a1,1,0,0,1,1-1h2a1,1,0,0,1,1,1v1h2a3,3,0,0,0,3-3V4a3,3,0,0,0-3-3H8A3,3,0,0,0,5,4V9A3,3,0,0,0,8,12Z" fill="#61616b"></path><path d="M21,23h1a.945.945,0,0,0,1-1V12a2.913,2.913,0,0,0-2-2.8Z" fill="#61616b"></path><path d="M3,9.2A2.913,2.913,0,0,0,1,12V22a.945.945,0,0,0,1,1H3Z" fill="#61616b"></path></g></svg>