<svg xmlns="http://www.w3.org/2000/svg" height="32" width="32" viewBox="0 0 32 32"><title>backpack 2 5</title><g fill="#61616b" class="nc-icon-wrapper"><path d="M29,15V32h2a.945.945,0,0,0,1-1V18A2.946,2.946,0,0,0,29,15Z" fill="#61616b"></path><path d="M3,15a2.946,2.946,0,0,0-3,3V31a.945.945,0,0,0,1,1H3Z" fill="#61616b"></path><path d="M23,4H21V1a1,1,0,0,0-1-1H12a1,1,0,0,0-1,1V4H9A4,4,0,0,0,5,8v8a4,4,0,0,0,4,4h1V19a1,1,0,0,1,1-1h1a.945.945,0,0,1,1,1v1h6V19a.945.945,0,0,1,1-1h1a1,1,0,0,1,1,1v1h1a4,4,0,0,0,4-4V8A4,4,0,0,0,23,4ZM19,4H13V2h6Z" fill="#61616b"></path><path data-color="color-2" d="M23,22H22v1a1,1,0,0,1-1,1H20a.945.945,0,0,1-1-1V22H13v1a.945.945,0,0,1-1,1H11a1,1,0,0,1-1-1V22H9a5.969,5.969,0,0,1-4-1.54V32H27V20.46A5.969,5.969,0,0,1,23,22Z" fill="#61616b"></path></g></svg>