<svg xmlns="http://www.w3.org/2000/svg" height="48" width="48" viewBox="0 0 48 48"><title>backpack 5</title><g fill="#61616b" class="nc-icon-wrapper"><path d="M34,9H33v5a1,1,0,0,1-2,0V8A7,7,0,0,0,17,8v6a1,1,0,0,1-2,0V9H14a9.01,9.01,0,0,0-9,9V42a5.006,5.006,0,0,0,5,5h3V30a5.006,5.006,0,0,1,5-5H30a5.006,5.006,0,0,1,5,5V47h3a5.006,5.006,0,0,0,5-5V18A9.01,9.01,0,0,0,34,9ZM29,9H19V8A5,5,0,0,1,29,8Z" fill="#61616b"></path><path data-color="color-2" d="M30,27H18a3,3,0,0,0-3,3V47H33V30A3,3,0,0,0,30,27Zm-1,9a1,1,0,0,1-1,1H20a1,1,0,0,1-1-1V32a1,1,0,0,1,1-1h8a1,1,0,0,1,1,1Z" fill="#61616b"></path></g></svg>