<svg xmlns="http://www.w3.org/2000/svg" height="64" width="64" viewBox="0 0 64 64"><title>backpack 2 3</title><g fill="#61616b" class="nc-icon-wrapper"><path d="M55,28v6a8.009,8.009,0,0,1-8,8H41v3a1,1,0,0,1-2,0V42H25v3a1,1,0,0,1-2,0V42H17a8.009,8.009,0,0,1-8-8V28a6.006,6.006,0,0,0-6,6V55a6.006,6.006,0,0,0,6,6h2V45a1,1,0,0,1,2,0V61H51V45a1,1,0,0,1,2,0V61h2a6.006,6.006,0,0,0,6-6V34A6.006,6.006,0,0,0,55,28Z" fill="#61616b"></path><path data-color="color-2" d="M47,10H43v9a1,1,0,0,1-2,0V11a9,9,0,0,0-18,0v8a1,1,0,0,1-2,0V10H17a6.006,6.006,0,0,0-6,6V34a6.006,6.006,0,0,0,6,6h6V37a1,1,0,0,1,2,0v3H39V37a1,1,0,0,1,2,0v3h6a6.006,6.006,0,0,0,6-6V16A6.006,6.006,0,0,0,47,10ZM25.08,10a6.991,6.991,0,0,1,13.84,0Z" fill="#61616b"></path></g></svg>