<svg xmlns="http://www.w3.org/2000/svg" height="48" width="48" viewBox="0 0 48 48"><title>belt 4</title><g fill="#61616b" class="nc-icon-wrapper"><path fill="#61616b" d="M13,17H2c-0.6,0-1,0.4-1,1v12c0,0.6,0.4,1,1,1h11V17z"></path> <path fill="#61616b" d="M46,17H35v14h11c0.6,0,1-0.4,1-1V18C47,17.4,46.6,17,46,17z"></path> <path data-color="color-2" fill="#61616b" d="M32,13H16c-0.6,0-1,0.4-1,1v20c0,0.6,0.4,1,1,1h16c0.6,0,1-0.4,1-1V14C33,13.4,32.6,13,32,13 z M22,25h-3c-0.6,0-1-0.4-1-1s0.4-1,1-1h3c0.6,0,1,0.4,1,1S22.6,25,22,25z"></path></g></svg>