<svg xmlns="http://www.w3.org/2000/svg" height="32" width="32" viewBox="0 0 32 32"><title>bikini 5</title><g fill="#61616b" class="nc-icon-wrapper"><path d="M28,0a1,1,0,0,0-1,1V5.033c-4.788.164-8.417,1.494-11,4.078C13.417,6.527,9.788,5.2,5,5.033V1A1,1,0,0,0,3,1V11a5.006,5.006,0,0,0,5,5H24a5.006,5.006,0,0,0,5-5V1A1,1,0,0,0,28,0Z" fill="#61616b"></path> <path data-color="color-2" d="M28,22H4a1,1,0,0,0-1,1v2a1,1,0,0,0,1,1c4.581,0,8.171,2.7,8.995,5.3a1,1,0,0,0,.953.7h4.1a1,1,0,0,0,.953-.7c.824-2.606,4.414-5.3,9-5.3a1,1,0,0,0,1-1V23A1,1,0,0,0,28,22Z" fill="#61616b"></path></g></svg>