<svg xmlns="http://www.w3.org/2000/svg" height="64" width="64" viewBox="0 0 64 64"><title>bikini 3</title><g fill="#61616b" class="nc-icon-wrapper"><path d="M56,1a1,1,0,0,0-1,1V12.017c-10.26.173-17.811,3-23,8.651-5.189-5.647-12.74-8.478-23-8.651V2A1,1,0,0,0,7,2V22a9.01,9.01,0,0,0,9,9H48a9.01,9.01,0,0,0,9-9V2A1,1,0,0,0,56,1Z" fill="#61616b"></path> <path data-color="color-2" d="M36.1,63H27.9a1,1,0,0,1-.953-.7C25.187,56.746,17.621,51,8,51a1,1,0,0,1-1-1V43a1,1,0,0,1,1-1H56a1,1,0,0,1,1,1v7a1,1,0,0,1-1,1c-9.621,0-17.188,5.746-18.943,11.3A1,1,0,0,1,36.1,63Z" fill="#61616b"></path></g></svg>