<svg xmlns="http://www.w3.org/2000/svg" height="24" width="24" viewBox="0 0 24 24"><title>bikini</title><g fill="#61616b" class="nc-icon-wrapper"><path d="M21,0a1,1,0,0,0-1,1V4.045a13.1,13.1,0,0,0-8,3.576A13.1,13.1,0,0,0,4,4.045V1A1,1,0,0,0,2,1V7a5.006,5.006,0,0,0,5,5H17a5.006,5.006,0,0,0,5-5V1A1,1,0,0,0,21,0Z" fill="#61616b"></path> <path data-color="color-2" d="M21,15H3a1,1,0,0,0-1,1v2a1,1,0,0,0,1,1,7.568,7.568,0,0,1,7.071,4.372A1,1,0,0,0,11,24h2a1,1,0,0,0,.927-.625A7.571,7.571,0,0,1,21,19a1,1,0,0,0,1-1V16A1,1,0,0,0,21,15Z" fill="#61616b"></path></g></svg>