<svg xmlns="http://www.w3.org/2000/svg" height="48" width="48" viewBox="0 0 48 48"><title>bikini 4</title><g fill="#61616b" class="nc-icon-wrapper"><path d="M42,1a1,1,0,0,0-1,1V9.028a25.5,25.5,0,0,0-17,7.519A25.5,25.5,0,0,0,7,9.028V2A1,1,0,0,0,5,2V15a9.046,9.046,0,0,0,9,9H34a9.046,9.046,0,0,0,9-9V2A1,1,0,0,0,42,1Z" fill="#61616b"></path> <path data-color="color-2" d="M42,31H6a1,1,0,0,0-1,1v4a1,1,0,0,0,.3.714,1.017,1.017,0,0,0,.72.286,16.172,16.172,0,0,1,15.071,9.419A1,1,0,0,0,22,47h4a1,1,0,0,0,.908-.581A16.266,16.266,0,0,1,41.979,37a1.018,1.018,0,0,0,.72-.286A1,1,0,0,0,43,36V32A1,1,0,0,0,42,31Z" fill="#61616b"></path></g></svg>