<svg xmlns="http://www.w3.org/2000/svg" height="48" width="48" viewBox="0 0 48 48"><title>boot 4</title><g fill="#61616b" class="nc-icon-wrapper"><path fill="#61616b" d="M45,41v-3c0-5-4-9-9-9H25v-3h-5c-0.6,0-1-0.4-1-1s0.4-1,1-1h5v-4h-5c-0.6,0-1-0.4-1-1s0.4-1,1-1h5v-4h-5 c-0.6,0-1-0.4-1-1s0.4-1,1-1h5V8h-5c-0.6,0-1-0.4-1-1s0.4-1,1-1h5V2c0-0.6-0.4-1-1-1H4C3.4,1,3,1.4,3,2v39H45z"></path> <path data-color="color-2" fill="#61616b" d="M3.1,43c0.5,2.3,2.5,4,4.9,4h32c2.4,0,4.4-1.7,4.9-4H3.1z"></path></g></svg>