<svg xmlns="http://www.w3.org/2000/svg" height="16" width="16" viewBox="0 0 16 16"><title>boots</title><g fill="#61616b" class="nc-icon-wrapper"><path d="M11.742.329A1,1,0,0,0,11,0H9.277a2.507,2.507,0,0,1,.211,1.247L9.313,3h2.492L12,1.1A1,1,0,0,0,11.742.329Z" fill="#61616b" data-color="color-2"></path><path d="M7.805,3,8,1.1A1,1,0,0,0,7,0H1A1,1,0,0,0,0,1c0,.765.019,1.417.048,2Z" fill="#61616b"></path><path d="M9.589,10.7l-.725-.145a1.993,1.993,0,0,1-1.6-2.16L7.605,5H.21c.038.339.078.649.116.938A15.191,15.191,0,0,1,.5,8a11.437,11.437,0,0,1-.29,2.44A7.881,7.881,0,0,0,0,12a21.159,21.159,0,0,0,.335,3.182A1,1,0,0,0,1.318,16H3a1,1,0,0,0,1-.968A5.926,5.926,0,0,0,7,16c3.25,0,4.491-1.077,4.707-1.293A1,1,0,0,0,12,14v-.36A3.008,3.008,0,0,0,9.589,10.7Z" fill="#61616b"></path><path d="M13.589,9.7l-.725-.145a1.993,1.993,0,0,1-1.6-2.16L11.505,5H9.113L8.758,8.542a.493.493,0,0,0,.4.54l.725.146A4.508,4.508,0,0,1,13.5,13.64V14a2.5,2.5,0,0,1-.13.761,4.829,4.829,0,0,0,2.337-1.054A1,1,0,0,0,16,13v-.36A3.008,3.008,0,0,0,13.589,9.7Z" fill="#61616b" data-color="color-2"></path></g></svg>