<svg xmlns="http://www.w3.org/2000/svg" height="64" width="64" viewBox="0 0 64 64"><title>boots 2</title><g fill="#61616b" class="nc-icon-wrapper"><path d="M30.749,15,31.993,4.113A1,1,0,0,0,31,3H2A1,1,0,0,0,1,4c0,4.3.141,7.9.358,11Z" fill="#61616b" data-color="color-2"></path><path d="M4,36a31.189,31.189,0,0,1-.947,6.975A35.474,35.474,0,0,0,2,51c0,1.056.044,2.061.113,3H18a1,1,0,0,1,.2.02L28.1,56c14.5-.013,17.265-2.778,20.194-5.707a.984.984,0,0,1,.291-.193,6.958,6.958,0,0,0-5.95-4.592L39.21,45.2a7,7,0,0,1-3.381-1.236l-4.354-3.049a6.993,6.993,0,0,1-2.941-6.529L30.521,17H1.515c.43,4.937,1.052,8.448,1.565,11.325A42.727,42.727,0,0,1,4,36Z" fill="#61616b"></path><path d="M28,58a1,1,0,0,1-.2-.02L17.9,56H2.3a37.2,37.2,0,0,0,.727,4.242A1,1,0,0,0,4,61H17a1,1,0,0,0,.895-.553l.643-1.288C20.676,59.666,26.626,61,30,61c16.209,0,18.7-5.053,18.929-5.629A1,1,0,0,0,49,55V52.479c0-.023,0-.046,0-.069C46.058,55.267,42.247,58,28,58Z" fill="#61616b" data-color="color-2"></path><path d="M56.634,45.508,53.21,45.2a7,7,0,0,1-3.381-1.236l-4.354-3.049a6.993,6.993,0,0,1-2.941-6.529L44.521,17H32.534L30.521,34.609a4.994,4.994,0,0,0,2.1,4.663l4.356,3.049a4.983,4.983,0,0,0,2.413.883l3.425.312A8.957,8.957,0,0,1,51,52.479V55a2.967,2.967,0,0,1-.049.516c7.039-.92,9.145-3.026,11.342-5.223a.984.984,0,0,1,.291-.193A6.958,6.958,0,0,0,56.634,45.508Z" fill="#61616b"></path><path d="M63,52.41c-2.309,2.244-5.159,4.412-13.182,5.238A12.483,12.483,0,0,1,44.483,61c15.768-.1,18.218-5.054,18.446-5.624A1,1,0,0,0,63,55V52.479C63,52.456,63,52.433,63,52.41Z" fill="#61616b" data-color="color-2"></path><path d="M33.979,4.347,32.762,15H44.749L45.993,4.113A1,1,0,0,0,45,3H33.818A2.971,2.971,0,0,1,33.979,4.347Z" fill="#61616b" data-color="color-2"></path></g></svg>