<svg xmlns="http://www.w3.org/2000/svg" height="32" width="32" viewBox="0 0 32 32"><title>boots 4</title><g fill="#61616b" class="nc-icon-wrapper"><path d="M16.479,6,17,1.1A1,1,0,0,0,16,0H1A1,1,0,0,0,0,1C0,2.911.044,4.554.117,6Z" fill="#61616b"></path><path d="M21.785,23.537l-1.158-.231a5.008,5.008,0,0,1-2.142-1l-1.3-1.038a4.98,4.98,0,0,1-1.849-4.428L16.269,8H.245a42.1,42.1,0,0,0,1.2,7.42A13.877,13.877,0,0,1,2,19a19.179,19.179,0,0,1-.48,3.3A20.31,20.31,0,0,0,1,26a23.5,23.5,0,0,0,.53,5.242A1,1,0,0,0,2.5,32h6a1,1,0,0,0,.986-.836l.219-1.31A11.242,11.242,0,0,0,16,32c6.156,0,8.368-1.526,8.6-1.7a1,1,0,0,0,.4-.8V27.459A4.011,4.011,0,0,0,21.785,23.537Z" fill="#61616b"></path><path d="M18.49,6h4.884l.515-4.9A1,1,0,0,0,22.9,0H18.82a2.988,2.988,0,0,1,.163,1.315Z" fill="#61616b" data-color="color-2"></path><path d="M28.785,22.537l-1.157-.231a5.024,5.024,0,0,1-2.143-1l-1.3-1.038a4.98,4.98,0,0,1-1.849-4.428L23.164,8H18.28l-.953,9.05a2.989,2.989,0,0,0,1.109,2.657l1.3,1.038a2.992,2.992,0,0,0,1.284.6l1.159.232A6.015,6.015,0,0,1,27,27.459V29.5a2.992,2.992,0,0,1-.3,1.283c3.375-.427,4.72-1.35,4.9-1.483a1,1,0,0,0,.4-.8V26.459A4.011,4.011,0,0,0,28.785,22.537Z" fill="#61616b" data-color="color-2"></path></g></svg>