<svg xmlns="http://www.w3.org/2000/svg" height="48" width="48" viewBox="0 0 48 48"><title>boots 3</title><g fill="#61616b" class="nc-icon-wrapper"><path d="M23,45a29.875,29.875,0,0,1-9.172-2H1.314a23.091,23.091,0,0,0,.735,3.309A1,1,0,0,0,3,47H13a1,1,0,0,0,.895-.553l.6-1.2A28.326,28.326,0,0,0,23,47c12.847,0,14.762-4.177,14.937-4.653A.986.986,0,0,0,38,42V40.215C35.963,42.638,32.527,45,23,45Z" fill="#61616b" data-color="color-2"></path><path d="M24.229,9l.765-6.89A1,1,0,0,0,24,1H1A1,1,0,0,0,0,2C0,4.664.071,6.969.188,9Z" fill="#61616b" data-color="color-2"></path><path d="M33.552,34.61l-3.6-.4a4.981,4.981,0,0,1-2.7-1.172L24.06,30.305a4.989,4.989,0,0,1-1.715-4.348L24.006,11H.323a78.555,78.555,0,0,0,1.388,9.777A30.793,30.793,0,0,1,2.5,27a27.1,27.1,0,0,1-.687,5.317A33.083,33.083,0,0,0,1,39c0,.7.032,1.366.082,2h13.09l.162.058C18.858,42.663,21.544,43,23,43c10.549,0,12.62-2.774,14.534-5.49A4.982,4.982,0,0,0,33.552,34.61Z" fill="#61616b"></path><path d="M43.552,34.61l-3.6-.4a4.981,4.981,0,0,1-2.7-1.172L34.06,30.305a4.989,4.989,0,0,1-1.715-4.348L34.006,11H26.019L24.332,26.178a2.993,2.993,0,0,0,1.028,2.607l3.189,2.735a3,3,0,0,0,1.62.7l3.6.4A6.994,6.994,0,0,1,40,39.58V42a2.912,2.912,0,0,1-.037.418c4.7-.953,6.186-2.943,7.571-4.908A4.982,4.982,0,0,0,43.552,34.61Z" fill="#61616b"></path><path d="M26.982,2.33,26.241,9h7.988l.765-6.89A1,1,0,0,0,34,1H26.819A3,3,0,0,1,26.982,2.33Z" fill="#61616b" data-color="color-2"></path><path d="M38.815,44.627a9.794,9.794,0,0,1-3.326,2.315c10.608-.5,12.285-4.151,12.448-4.595A.986.986,0,0,0,48,42V40.215C46.447,42.062,44.073,43.87,38.815,44.627Z" fill="#61616b" data-color="color-2"></path></g></svg>