<svg xmlns="http://www.w3.org/2000/svg" height="24" width="24" viewBox="0 0 24 24"><title>boots 5</title><g fill="#61616b" class="nc-icon-wrapper"><path d="M11.8,4,12,1.066A1,1,0,0,0,11,0H1A1,1,0,0,0,0,1.062C0,1.094.081,2.334.174,4Z" fill="#61616b"></path><path d="M16.182,17.562,13,16.2a3,3,0,0,1-1.811-2.956L11.669,6H.281C.4,8.22.5,10.639.5,12c0,2-.5,6-.5,8v3a1,1,0,0,0,1,1H6a1,1,0,0,0,1-1V22a11.089,11.089,0,0,0,6,2c3,0,5-.864,5-2V20.319A3,3,0,0,0,16.182,17.562Z" fill="#61616b"></path><path d="M13.807,4h3.928l.2-2.934a1,1,0,0,0-1-1.066H13.827a2.99,2.99,0,0,1,.166,1.2Z" fill="#61616b" data-color="color-2"></path><path d="M22.182,16.562,19,15.2a3,3,0,0,1-1.811-2.956L17.6,6H13.673l-.491,7.372a1,1,0,0,0,.6.985l3.185,1.367A4.992,4.992,0,0,1,20,20.319V22a3,3,0,0,1-.166.969C22.36,22.823,24,22.026,24,21V19.319A3,3,0,0,0,22.182,16.562Z" fill="#61616b" data-color="color-2"></path></g></svg>