<svg xmlns="http://www.w3.org/2000/svg" height="64" width="64" viewBox="0 0 64 64"><title>bra 3</title><g fill="#61616b" class="nc-icon-wrapper"><path data-color="color-2" fill="#61616b" d="M2,23c1.7,0,3.4,0.1,5,0.4V10c0-0.6-0.4-1-1-1H2c-0.6,0-1,0.4-1,1v13.2C1.3,23.1,1.6,23,2,23 z"></path> <path data-color="color-2" fill="#61616b" d="M62,23c0.4,0,0.7,0.1,1,0.2V10c0-0.6-0.4-1-1-1h-4c-0.6,0-1,0.4-1,1v13.4 C58.6,23.1,60.3,23,62,23z"></path> <path fill="#61616b" d="M62,25c-17.3,0-27.1,12.7-30,17.1C29.1,37.7,19.3,25,2,25c-0.6,0-1,0.4-1,1v18c0,6.1,4.9,11,11,11h40 c6.1,0,11-4.9,11-11V26C63,25.4,62.6,25,62,25z"></path></g></svg>