<svg xmlns="http://www.w3.org/2000/svg" height="48" width="48" viewBox="0 0 48 48"><title>bra 4</title><g fill="#61616b" class="nc-icon-wrapper"><path data-color="color-2" fill="#61616b" d="M2,17c1.4,0,2.7,0.1,4,0.3V8c0-0.6-0.4-1-1-1H2C1.4,7,1,7.4,1,8v9.2C1.3,17.1,1.6,17,2,17z"></path> <path data-color="color-2" fill="#61616b" d="M46,17c0.4,0,0.7,0.1,1,0.2V8c0-0.6-0.4-1-1-1h-3c-0.6,0-1,0.4-1,1v9.3 C43.3,17.1,44.6,17,46,17z"></path> <path fill="#61616b" d="M46,19c-12.6,0-19.7,8-22,11.2C21.7,27,14.6,19,2,19c-0.6,0-1,0.4-1,1v10c0,6.1,4.9,11,11,11h24 c6.1,0,11-4.9,11-11V20C47,19.4,46.6,19,46,19z"></path></g></svg>