<svg xmlns="http://www.w3.org/2000/svg" height="32" width="32" viewBox="0 0 32 32"><title>businessman 03 5</title><g fill="#61616b" class="nc-icon-wrapper"><path fill="#61616b" d="M31,4h-6V1c0-0.6-0.4-1-1-1H8C7.4,0,7,0.4,7,1v3H1C0.4,4,0,4.4,0,5v26c0,0.6,0.4,1,1,1h7.3l4.8-13.3 c0.1-0.4,0.5-0.7,0.9-0.7h4c0.4,0,0.8,0.3,0.9,0.7L23.7,32H31c0.6,0,1-0.4,1-1V5C32,4.4,31.6,4,31,4z M9,3.2l5.3,4.7L9,11.2V3.2z M20.8,12.8l-2,2.8C18.6,15.9,18.3,16,18,16h-4c-0.3,0-0.6-0.1-0.8-0.4l-2-2.7c-0.2-0.2-0.1-0.6,0.1-0.7l4.4-2.8 c0.2-0.1,0.4-0.1,0.5,0l4.4,2.8C21,12.3,21,12.6,20.8,12.8z M23,11.2l-5.3-3.3L23,3.2V11.2z"></path></g></svg>