<svg xmlns="http://www.w3.org/2000/svg" height="48" width="48" viewBox="0 0 48 48"><title>businessman 03 4</title><g fill="#61616b" class="nc-icon-wrapper"><path fill="#61616b" d="M45,7h-8V2c0-0.552-0.448-1-1-1H12c-0.552,0-1,0.448-1,1v5H3C1.895,7,1,7.895,1,9v36c0,1.105,0.895,2,2,2 h11.027l7.033-19.342C21.204,27.263,21.579,27,22,27h4c0.421,0,0.796,0.263,0.94,0.658L33.973,47H45c1.105,0,2-0.895,2-2V9 C47,7.895,46.105,7,45,7z M13,4.135l9.331,7.775l-7.776,5.184C13.89,17.538,13,17.062,13,16.263V4.135z M30.839,19.008l-4.028,5.578 C26.622,24.846,26.321,25,26,25h-4c-0.321,0-0.622-0.154-0.81-0.414l-4.028-5.578c-0.332-0.46-0.216-1.103,0.256-1.418l6.028-4.019 c0.336-0.224,0.773-0.224,1.109,0l6.028,4.019C31.055,17.905,31.171,18.548,30.839,19.008z M33.445,17.095l-7.776-5.184L35,4.135 v12.128C35,17.062,34.11,17.538,33.445,17.095z"></path></g></svg>