<svg xmlns="http://www.w3.org/2000/svg" height="64" width="64" viewBox="0 0 64 64"><title>button 3</title><g fill="#61616b" class="nc-icon-wrapper"><path fill="#61616b" d="M32,1C14.9,1,1,14.9,1,32s13.9,31,31,31s31-13.9,31-31S49.1,1,32,1z M22,46c-2.2,0-4-1.8-4-4 c0-2.2,1.8-4,4-4s4,1.8,4,4C26,44.2,24.2,46,22,46z M22,26c-2.2,0-4-1.8-4-4c0-2.2,1.8-4,4-4s4,1.8,4,4C26,24.2,24.2,26,22,26z M42,46c-2.2,0-4-1.8-4-4c0-2.2,1.8-4,4-4s4,1.8,4,4C46,44.2,44.2,46,42,46z M42,26c-2.2,0-4-1.8-4-4c0-2.2,1.8-4,4-4s4,1.8,4,4 C46,24.2,44.2,26,42,26z"></path></g></svg>