<svg xmlns="http://www.w3.org/2000/svg" height="16" width="16" viewBox="0 0 16 16"><title>button 2</title><g fill="#61616b" class="nc-icon-wrapper"><path fill="#61616b" d="M8,0C3.6,0,0,3.6,0,8s3.6,8,8,8s8-3.6,8-8S12.4,0,8,0z M5.5,12C4.7,12,4,11.3,4,10.5S4.7,9,5.5,9 S7,9.7,7,10.5S6.3,12,5.5,12z M5.5,7C4.7,7,4,6.3,4,5.5S4.7,4,5.5,4S7,4.7,7,5.5S6.3,7,5.5,7z M10.5,12C9.7,12,9,11.3,9,10.5 S9.7,9,10.5,9S12,9.7,12,10.5S11.3,12,10.5,12z M10.5,7C9.7,7,9,6.3,9,5.5S9.7,4,10.5,4S12,4.7,12,5.5S11.3,7,10.5,7z"></path></g></svg>