<svg xmlns="http://www.w3.org/2000/svg" height="64" width="64" viewBox="0 0 64 64"><title>cap 3</title><g fill="#61616b" class="nc-icon-wrapper"><path fill="#61616b" d="M38,5c-2,0-3.9,0.2-5.7,0.7c0,0-0.1,0-0.1,0C21.2,8.3,13,18.2,13,30v7.9c-11.4,3.9-12,8.1-12,9 c0,3.6,6.5,6.7,10.4,8.2c6,2.3,12.8,3.7,17.8,3.7c10.8,0,28.2-14,30-15.5c2.2-0.9,3.2-1.7,3.3-1.8c0.3-0.2,0.4-0.5,0.4-0.8V30 C63,16.2,51.8,5,38,5z M15,30c0-10.8,7.4-19.8,17.4-22.3C43.4,10.3,51,19.4,51,30v13.7c-3.4,0.7-7.7,1.3-13,1.3 c-14.1,0-21.3-3.8-23-4.9V30z"></path></g></svg>