<svg xmlns="http://www.w3.org/2000/svg" height="64" width="64" viewBox="0 0 64 64"><title>coat 2</title><g fill="#61616b" class="nc-icon-wrapper"><path fill="#61616b" d="M62,9H50.2l-3.3-7.4C46.8,1.2,46.4,1,46,1H18c-0.4,0-0.8,0.2-0.9,0.6L13.8,9H2c-0.6,0-1,0.4-1,1v52 c0,0.6,0.4,1,1,1h60c0.6,0,1-0.4,1-1V10C63,9.4,62.6,9,62,9z M15.4,10.4C15.4,10.4,15.4,10.4,15.4,10.4l2.7-6.1l12.3,24l-3.3,5.9 L11.2,19.7L15.4,10.4z M30,58c0,0.6-0.4,1-1,1s-1-0.4-1-1v-3c0-0.6,0.4-1,1-1s1,0.4,1,1V58z M30,50c0,0.6-0.4,1-1,1s-1-0.4-1-1v-3 c0-0.6,0.4-1,1-1s1,0.4,1,1V50z M24,44L45.9,4.2l2.7,6.1c0,0,0,0,0,0l4.1,9.3L24,44z"></path></g></svg>