<svg xmlns="http://www.w3.org/2000/svg" height="48" width="48" viewBox="0 0 48 48"><title>coat 3</title><g fill="#61616b" class="nc-icon-wrapper"><path fill="#61616b" d="M46,7h-8.8l-2.3-5.4C34.8,1.2,34.4,1,34,1H14c-0.4,0-0.8,0.2-0.9,0.6L10.8,7H2C1.4,7,1,7.4,1,8v38 c0,0.6,0.4,1,1,1h44c0.6,0,1-0.4,1-1V8C47,7.4,46.6,7,46,7z M14.1,4.4l8.5,17l-2.1,4L9,15L14.1,4.4z M24,43c0,0.6-0.4,1-1,1 s-1-0.4-1-1v-2c0-0.6,0.4-1,1-1s1,0.4,1,1V43z M24,36c0,0.6-0.4,1-1,1s-1-0.4-1-1v-2c0-0.6,0.4-1,1-1s1,0.4,1,1V36z M19,32L33.9,4.3 l1.7,4.1c0,0,0,0,0,0L39,15L19,32z"></path></g></svg>