<svg xmlns="http://www.w3.org/2000/svg" height="48" width="48" viewBox="0 0 48 48"><title>corset 4</title><g fill="#61616b" class="nc-icon-wrapper"><path fill="#61616b" d="M35.2,25.7C36.2,23.4,39,15.8,39,8c0-0.6-0.4-1-1-1c-8,0-12.3,3.6-14,5.4C22.3,10.6,18,7,10,7 C9.4,7,9,7.4,9,8c0,7.8,2.8,15.4,3.8,17.7c-0.8,0.7-2.2,2.2-3.1,4.3c-3,6.5,12.2,14.1,13.9,14.9C23.7,45,23.9,45,24,45 s0.3,0,0.4-0.1c1.7-0.8,16.9-8.4,13.9-14.9C37.4,27.9,36,26.4,35.2,25.7z"></path> <path fill="#61616b" d="M10,9C9.4,9,9,8.6,9,8V2c0-0.6,0.4-1,1-1s1,0.4,1,1v6C11,8.6,10.6,9,10,9z"></path> <path fill="#61616b" d="M38,9c-0.6,0-1-0.4-1-1V2c0-0.6,0.4-1,1-1s1,0.4,1,1v6C39,8.6,38.6,9,38,9z"></path></g></svg>