<svg xmlns="http://www.w3.org/2000/svg" height="64" width="64" viewBox="0 0 64 64"><title>corset 3</title><g fill="#61616b" class="nc-icon-wrapper"><path fill="#61616b" d="M53,2c0-0.6-0.4-1-1-1s-1,0.4-1,1v7c-10.9,0.3-17,5.4-19,7.5c-2-2.1-8.1-7.2-19-7.5V2c0-0.6-0.4-1-1-1 s-1,0.4-1,1v8c0,11.1,4.6,21.3,5.8,23.9C16,35,14,37.7,12.6,40.8c-1.7,3.8,1,8.4,8.2,13.6c5.1,3.7,10.6,6.4,10.8,6.5 C31.7,61,31.9,61,32,61s0.3,0,0.4-0.1c0.2-0.1,5.7-2.8,10.8-6.5c7.2-5.2,10-9.8,8.2-13.6C50,37.7,48,35,47.2,33.9 C48.4,31.3,53,21.1,53,10V2z"></path></g></svg>