<svg xmlns="http://www.w3.org/2000/svg" height="64" width="64" viewBox="0 0 64 64"><title>dress man 2</title><g fill="#61616b" class="nc-icon-wrapper"><path fill="#61616b" d="M62,9H52l-3-7.4C48.8,1.2,48.4,1,48,1H16c-0.4,0-0.8,0.2-0.9,0.6L12,9H2c-0.6,0-1,0.4-1,1v52 c0,0.6,0.4,1,1,1h29V45.3L19.2,31.8l2.1-4.1l-11-9l3.4-8.3c0,0,0,0,0,0l2.5-6L32,34.1L47.9,4.3l2.5,6c0,0,0,0,0,0l3.4,8.3l-11,9 l2.1,4.1L33,45.3V63h29c0.6,0,1-0.4,1-1V10C63,9.4,62.6,9,62,9z M52,51h-9c-0.6,0-1-0.4-1-1s0.4-1,1-1h9c0.6,0,1,0.4,1,1 S52.6,51,52,51z"></path></g></svg>