<svg xmlns="http://www.w3.org/2000/svg" height="64" width="64" viewBox="0 0 64 64"><title>dress woman 3</title><g fill="#61616b" class="nc-icon-wrapper"><path data-color="color-2" fill="#61616b" d="M47.2,23C47.7,19.9,49,10.9,49,2c0-0.6-0.4-1-1-1c-8.9,0-14.2,3.9-16,5.6 C30.2,4.9,24.9,1,16,1c-0.6,0-1,0.4-1,1c0,8.9,1.3,17.9,1.8,21H47.2z"></path> <path fill="#61616b" d="M47.6,25H33v7c0,0.6-0.4,1-1,1s-1-0.4-1-1v-7H16.4C14,29.8,7,45.3,7,62c0,0.6,0.4,1,1,1h48c0.6,0,1-0.4,1-1 C57,45.3,50,29.8,47.6,25z"></path></g></svg>