<svg xmlns="http://www.w3.org/2000/svg" height="48" width="48" viewBox="0 0 48 48"><title>dress man 3</title><g fill="#61616b" class="nc-icon-wrapper"><path fill="#61616b" d="M46,7h-7.7L37,1.8C36.9,1.3,36.5,1,36,1H12c-0.5,0-0.9,0.3-1,0.8L9.7,7H2C1.4,7,1,7.4,1,8v38 c0,0.6,0.4,1,1,1h21V33.6l-7.8-7.8l2.1-4.2l-8.2-4.1l3.2-12.7L24,26.1L35.7,4.7l3.2,12.7l-8.2,4.1l2.1,4.2L25,33.6V47h21 c0.6,0,1-0.4,1-1V8C47,7.4,46.6,7,46,7z M38,39h-6c-0.6,0-1-0.4-1-1s0.4-1,1-1h6c0.6,0,1,0.4,1,1S38.6,39,38,39z"></path></g></svg>