<svg xmlns="http://www.w3.org/2000/svg" height="64" width="64" viewBox="0 0 64 64"><title>flip 3</title><g fill="#61616b" class="nc-icon-wrapper"><path fill="#61616b" d="M15.5,31c3.3-5.8,10.5-10.3,15.5-10.8V12c0-0.6,0.4-1,1-1s1,0.4,1,1v8.2c4.9,0.6,12.2,5,15.5,10.8l1.2-12.7 C50.4,9.5,43.5,2,34.7,2h-5.5c-8.8,0-15.7,7.5-14.9,16.3L15.5,31z"></path> <path fill="#61616b" d="M48,35.2c-1.6-7.6-11.5-13.1-16-13.1c-4.5,0-14.4,5.5-16,13.1c0,0,0,0.1,0,0.1l1.2,13.1 C17.8,56.1,24.3,62,32,62s14.2-5.9,14.9-13.6L48,35.2C48.1,35.3,48,35.2,48,35.2z"></path></g></svg>