<svg xmlns="http://www.w3.org/2000/svg" height="64" width="64" viewBox="0 0 64 64"><title>glasses 3</title><g fill="#61616b" class="nc-icon-wrapper"><path data-color="color-2" fill="#61616b" d="M13.5,33l3.3-20H23c0.6,0,1-0.4,1-1V8c0-0.6-0.4-1-1-1H12c-0.4,0-0.8,0.3-0.9,0.7L2,33H13.5z "></path> <path data-color="color-2" fill="#61616b" d="M41,13h6.2l3.3,20H62l-9-25.3C52.8,7.3,52.4,7,52,7H41c-0.6,0-1,0.4-1,1v4 C40,12.6,40.4,13,41,13z"></path> <path fill="#61616b" d="M63,35H1v17c0,2.8,2.2,5,5,5h18c2.8,0,5-2.2,5-5v-8c0-1.7,1.3-3,3-3s3,1.3,3,3v8c0,2.8,2.2,5,5,5h18 c2.8,0,5-2.2,5-5V35z"></path></g></svg>