<svg xmlns="http://www.w3.org/2000/svg" height="48" width="48" viewBox="0 0 48 48"><title>glasses 4</title><g fill="#61616b" class="nc-icon-wrapper"><path fill="#61616b" d="M46.9,27.6l-8-22C38.8,5.3,38.4,5,38,5h-6c-0.6,0-1,0.4-1,1s0.4,1,1,1h5.3l7.3,20H27h-6H3.4l7.3-20H16 c0.6,0,1-0.4,1-1s-0.4-1-1-1h-6C9.6,5,9.2,5.3,9.1,5.7l-8,22C1,27.7,1,27.9,1,28c0,0,0,0,0,0v0c0,0,0,0,0,0v10c0,2.8,2.2,5,5,5h11 c2.8,0,5-2.2,5-5v-4c0-1.1,0.9-2,2-2c1.1,0,2,0.9,2,2v4c0,2.8,2.2,5,5,5h11c2.8,0,5-2.2,5-5V28c0,0,0,0,0,0v0c0,0,0,0,0,0 C47,27.9,47,27.7,46.9,27.6z"></path></g></svg>