<svg xmlns="http://www.w3.org/2000/svg" height="64" width="64" viewBox="0 0 64 64"><title>gloves 3</title><g fill="#61616b" class="nc-icon-wrapper"><path d="M15.611,31.611a5.488,5.488,0,0,1,8.174,7.3L18.087,46H41V14.5a3.5,3.5,0,0,0-7,0V28a1,1,0,0,1-2,0V8.5a3.5,3.5,0,0,0-7,0V26a1,1,0,0,1-2,0V6.5a3.5,3.5,0,0,0-7,0V26a1,1,0,0,1-2,0V11.5a3.5,3.5,0,0,0-7,0V40.223Z" fill="#61616b"></path><path data-color="color-2" d="M34,8.5v1.761a5.46,5.46,0,0,1,5-1.048V6.5a3.49,3.49,0,0,0-6.505-1.768A5.474,5.474,0,0,1,34,8.5Z" fill="#61616b"></path><path data-color="color-2" d="M53.5,11A3.5,3.5,0,0,0,50,14.5V28a1,1,0,0,1-2,0V8.5a3.5,3.5,0,0,0-7,0v1.761A5.49,5.49,0,0,1,43,14.5V46H57V14.5A3.5,3.5,0,0,0,53.5,11Z" fill="#61616b"></path><path d="M16,48a1,1,0,0,1-.779-1.627l7-8.712a3.485,3.485,0,0,0-.249-4.636,3.585,3.585,0,0,0-4.95,0L7,43.051v3.873L5.012,59.848A1,1,0,0,0,6,61H42a1,1,0,0,0,.988-1.152L41.166,48Z" fill="#61616b"></path><path data-color="color-2" d="M57.165,48H43.189l1.776,11.544A2.972,2.972,0,0,1,44.814,61H58a1,1,0,0,0,.988-1.152Z" fill="#61616b"></path></g></svg>