<svg xmlns="http://www.w3.org/2000/svg" height="24" width="24" viewBox="0 0 24 24"><title>gloves</title><g fill="#61616b" class="nc-icon-wrapper"><path data-color="color-2" d="M20.5,4A1.5,1.5,0,0,0,19,5.5V17h3V5.5A1.5,1.5,0,0,0,20.5,4Z" fill="#61616b"></path><path data-color="color-2" d="M22.974,22.247,22.226,19H19.279l.657,2.853.009.054A3.388,3.388,0,0,1,20,22.5a3.464,3.464,0,0,1-.351,1.5H21.5A1.5,1.5,0,0,0,23,22.5,1.409,1.409,0,0,0,22.974,22.247Z" fill="#61616b"></path><path d="M5.038,12.015a3.5,3.5,0,0,1,4.948,0,3.516,3.516,0,0,1,.29,4.584l-.265.4H17V5.5a1.5,1.5,0,0,0-3,0v4a.5.5,0,0,1-1,0v-7a1.5,1.5,0,0,0-3,0v6a.5.5,0,0,1-1,0v-7a1.5,1.5,0,0,0-3,0v7a.5.5,0,0,1-1,0v-5a1.5,1.5,0,0,0-3,0V15.053Z" fill="#61616b"></path><path d="M17.974,22.247,17.226,19H6.3l2.347-3.56a1.488,1.488,0,0,0-2.192-2.011L2,17.88V18L1,22.247h.026A1.409,1.409,0,0,0,1,22.5,1.5,1.5,0,0,0,2.5,24h14A1.5,1.5,0,0,0,18,22.5,1.409,1.409,0,0,0,17.974,22.247Z" fill="#61616b"></path></g></svg>