<svg xmlns="http://www.w3.org/2000/svg" height="32" width="32" viewBox="0 0 32 32"><title>gloves 5</title><g fill="#61616b" class="nc-icon-wrapper"><path d="M6.025,17.025a3.5,3.5,0,0,1,5.365,4.446L10.343,23H21V6a2,2,0,0,0-4,0v8.5a.5.5,0,0,1-1,0V3a2,2,0,0,0-4,0V13.5a.5.5,0,0,1-1,0V2A2,2,0,0,0,7,2V13.5a.5.5,0,0,1-1,0V5A2,2,0,0,0,2,5V21.051Z" fill="#61616b"></path><path d="M7.5,25l0-.01a.487.487,0,0,1-.286-.077.5.5,0,0,1-.131-.7l2.651-3.876a1.5,1.5,0,0,0-2.3-1.9L2,23.879v.05l-.99,6.929A1,1,0,0,0,2,32H21a1,1,0,0,0,.99-1.142L21.153,25Z" fill="#61616b"></path><path data-color="color-2" d="M28,4a2,2,0,0,0-2,2v8.5a.5.5,0,0,1-1,0V3a2,2,0,0,0-3.954-.419A3.987,3.987,0,0,1,23,6V23h7V6A2,2,0,0,0,28,4Z" fill="#61616b"></path><path data-color="color-2" d="M30.153,25h-6.98l.8,5.575A3,3,0,0,1,23.815,32H30a1,1,0,0,0,.99-1.142Z" fill="#61616b"></path></g></svg>