<svg xmlns="http://www.w3.org/2000/svg" height="48" width="48" viewBox="0 0 48 48"><title>gloves 4</title><g fill="#61616b" class="nc-icon-wrapper"><path d="M11,36a1,1,0,0,1-.815-1.579L14.6,28.2a2.015,2.015,0,0,0-.19-2.609,2.047,2.047,0,0,0-2.828,0L6.613,30.56h0L4,33.172v1.773L2.915,44.892A1,1,0,0,0,3.909,46H30a1,1,0,0,0,1-1.1l-.89-8.9Z" fill="#61616b"></path><path d="M10.172,24.172a4.093,4.093,0,0,1,5.656,0,4.023,4.023,0,0,1,.4,5.2L12.937,34H30V10.5a2.5,2.5,0,0,0-5,0V21a1,1,0,0,1-2,0V6.5a2.5,2.5,0,0,0-5,0V20a1,1,0,0,1-2,0V4.5a2.5,2.5,0,0,0-5,0V20a1,1,0,0,1-2,0V8.5a2.5,2.5,0,0,0-5,0V30.344Z" fill="#61616b"></path><path data-color="color-2" d="M44,34V10.5a2.5,2.5,0,0,0-5,0V21a1,1,0,0,1-2,0V6.5a2.5,2.5,0,0,0-5,0V34Z" fill="#61616b"></path><path data-color="color-2" d="M32.115,36l.87,8.7a2.991,2.991,0,0,1-.163,1.3H44A1,1,0,0,0,45,44.9l-.89-8.9Z" fill="#61616b"></path></g></svg>