<svg xmlns="http://www.w3.org/2000/svg" height="64" width="64" viewBox="0 0 64 64"><title>gym shoes 3</title><g fill="#61616b" class="nc-icon-wrapper"><path d="M64,42V39a9.011,9.011,0,0,0-9-9H48.387l-3.653-3.32-5.027,5.027a1,1,0,0,1-1.414-1.414l4.96-4.96L39.5,21.918l-4.789,4.789a1,1,0,0,1-1.414-1.414l4.722-4.722-4.171-3.792-.018-.016-7.153-6.5a1,1,0,0,0-1.346,1.48l6.543,5.948C30.22,20.274,26.762,25,20,25c-6.11,0-10.044-3.875-12.268-7.125A4.222,4.222,0,0,0,0,20.225V42Z" fill="#61616b"></path> <path data-color="color-2" d="M0,44v1a5.006,5.006,0,0,0,5,5H59a5.006,5.006,0,0,0,5-5V44Z" fill="#61616b"></path></g></svg>