<svg xmlns="http://www.w3.org/2000/svg" height="48" width="48" viewBox="0 0 48 48"><title>gym shoes 4</title><g fill="#61616b" class="nc-icon-wrapper"><path d="M47,31V29a7.008,7.008,0,0,0-7-7H34.362L16.7,7.28a1,1,0,1,0-1.281,1.536l6.724,5.6A12.183,12.183,0,0,1,14,17a11.542,11.542,0,0,1-7.532-2.309c-.321-.21-.643-.42-1.023-.653A3,3,0,0,0,4,13.667H4a3,3,0,0,0-3,3V31Z" fill="#61616b"></path> <path data-color="color-2" d="M1,33a5.025,5.025,0,0,0,5,5H42a5.025,5.025,0,0,0,5-5H1Z" fill="#61616b"></path></g></svg>