<svg xmlns="http://www.w3.org/2000/svg" height="32" width="32" viewBox="0 0 32 32"><title>hat 2 5</title><g fill="#61616b" class="nc-icon-wrapper"><path fill="#61616b" d="M31,22h-2v-5c0-5.8-3.8-10.7-9-12.4V4c0-2.2-1.8-4-4-4s-4,1.8-4,4v0.6C6.8,6.3,3,11.2,3,17v5H1 c-0.6,0-1,0.4-1,1v8c0,0.6,0.4,1,1,1h30c0.6,0,1-0.4,1-1v-8C32,22.4,31.6,22,31,22z M15,24v6H9v-6H15z M17,24h6v6h-6V24z M14,4 c0-1.1,0.9-2,2-2s2,0.9,2,2v0.2C17.3,4.1,16.7,4,16,4s-1.3,0.1-2,0.2V4z M2,24h5v6H2V24z M30,30h-5v-6h5V30z"></path></g></svg>