<svg xmlns="http://www.w3.org/2000/svg" height="64" width="64" viewBox="0 0 64 64"><title>hat 4</title><g fill="#61616b" class="nc-icon-wrapper"><path fill="#61616b" d="M53,38V27c0-11.58-9.42-21-21-21s-21,9.42-21,21v11H53z"></path> <rect data-color="color-2" x="11" y="40" fill="#61616b" width="42" height="14"></rect> <path fill="#61616b" d="M54,58H10c-4.962,0-9-4.038-9-9c0-0.552,0.448-1,1-1s1,0.448,1,1c0,3.86,3.14,7,7,7h44c3.86,0,7-3.14,7-7 c0-0.552,0.448-1,1-1s1,0.448,1,1C63,53.962,58.962,58,54,58z"></path></g></svg>