<svg xmlns="http://www.w3.org/2000/svg" height="64" width="64" viewBox="0 0 64 64"><title>hat 2 3</title><g fill="#61616b" class="nc-icon-wrapper"><rect data-color="color-2" x="17" y="46" fill="#61616b" width="14" height="17"></rect> <rect data-color="color-2" x="33" y="46" fill="#61616b" width="14" height="17"></rect> <path data-color="color-2" fill="#61616b" d="M62,46H49v17h13c0.6,0,1-0.4,1-1V47C63,46.4,62.6,46,62,46z"></path> <path data-color="color-2" fill="#61616b" d="M15,46H2c-0.6,0-1,0.4-1,1v15c0,0.6,0.4,1,1,1h13V46z"></path> <path fill="#61616b" d="M57,44V34C57,20.2,45.8,9,32,9S7,20.2,7,34v10H57z"></path> <path data-color="color-2" fill="#61616b" d="M32,7c2.4,0,4.8,0.3,7,0.9C39,4.1,35.8,1,32,1s-7,3.1-7,6.9C27.2,7.3,29.6,7,32,7z"></path></g></svg>