<svg xmlns="http://www.w3.org/2000/svg" height="32" width="32" viewBox="0 0 32 32"><title>hat 6</title><g fill="#61616b" class="nc-icon-wrapper"><path fill="#61616b" d="M26,30H6c-3.309,0-6-2.691-6-6c0-0.552,0.448-1,1-1s1,0.448,1,1c0,2.206,1.794,4,4,4h20c2.206,0,4-1.794,4-4 c0-0.552,0.448-1,1-1s1,0.448,1,1C32,27.309,29.309,30,26,30z"></path> <path fill="#61616b" d="M27,18v-5c0-6.065-4.935-11-11-11S5,6.935,5,13v5H27z"></path> <path data-color="color-2" fill="#61616b" d="M5,20v5c0,0.552,0.448,1,1,1h20c0.552,0,1-0.448,1-1v-5H5z"></path></g></svg>