<svg xmlns="http://www.w3.org/2000/svg" height="48" width="48" viewBox="0 0 48 48"><title>hat 5</title><g fill="#61616b" class="nc-icon-wrapper"><path fill="#61616b" d="M38,43H10c-4.962,0-9-4.038-9-9c0-0.552,0.448-1,1-1s1,0.448,1,1c0,3.86,3.14,7,7,7h28c3.86,0,7-3.14,7-7 c0-0.552,0.448-1,1-1s1,0.448,1,1C47,38.962,42.962,43,38,43z"></path> <path fill="#61616b" d="M39,29v-9c0-8.271-6.729-15-15-15S9,11.729,9,20v9H39z"></path> <rect data-color="color-2" x="9" y="31" fill="#61616b" width="30" height="8"></rect></g></svg>