<svg xmlns="http://www.w3.org/2000/svg" height="48" width="48" viewBox="0 0 48 48"><title>hat 2 4</title><g fill="#61616b" class="nc-icon-wrapper"><rect data-color="color-2" x="13" y="36" fill="#61616b" width="10" height="11"></rect> <rect data-color="color-2" x="25" y="36" fill="#61616b" width="10" height="11"></rect> <path data-color="color-2" fill="#61616b" d="M46,36h-9v11h9c0.6,0,1-0.4,1-1v-9C47,36.4,46.6,36,46,36z"></path> <path data-color="color-2" fill="#61616b" d="M11,36H2c-0.6,0-1,0.4-1,1v9c0,0.6,0.4,1,1,1h9V36z"></path> <path data-color="color-2" fill="#61616b" d="M24,5c1.7,0,3.4,0.2,5,0.6C28.8,3,26.6,1,24,1s-4.8,2-5,4.6C20.6,5.2,22.3,5,24,5z"></path> <path fill="#61616b" d="M43,34v-8c0-10.5-8.5-19-19-19S5,15.5,5,26v8H43z"></path></g></svg>