<svg xmlns="http://www.w3.org/2000/svg" height="64" width="64" viewBox="0 0 64 64"><title>hat top 3</title><g fill="#61616b" class="nc-icon-wrapper"><path fill="#61616b" d="M58,59H6c-2.8,0-5-2.2-5-5c0-0.6,0.4-1,1-1s1,0.4,1,1c0,1.7,1.3,3,3,3h52c1.7,0,3-1.3,3-3c0-0.6,0.4-1,1-1 s1,0.4,1,1C63,56.8,60.8,59,58,59z"></path> <rect data-color="color-2" x="11" y="44" fill="#61616b" width="42" height="11"></rect> <path fill="#61616b" d="M53,42V6c0-0.6-0.4-1-1-1H12c-0.6,0-1,0.4-1,1v36H53z"></path></g></svg>