<svg xmlns="http://www.w3.org/2000/svg" height="32" width="32" viewBox="0 0 32 32"><title>hat top 5</title><g fill="#61616b" class="nc-icon-wrapper"><rect data-color="color-2" x="5" y="20" fill="#61616b" width="22" height="6"></rect> <path fill="#61616b" d="M31,26c-0.6,0-1,0.4-1,1c0,0.6-0.4,1-1,1H3c-0.6,0-1-0.4-1-1c0-0.6-0.4-1-1-1s-1,0.4-1,1c0,1.7,1.3,3,3,3h26 c1.7,0,3-1.3,3-3C32,26.4,31.6,26,31,26z"></path> <path fill="#61616b" d="M27,18V3c0-0.6-0.4-1-1-1H6C5.4,2,5,2.4,5,3v15H27z"></path></g></svg>