<svg xmlns="http://www.w3.org/2000/svg" height="48" width="48" viewBox="0 0 48 48"><title>hoodie 3</title><g fill="#61616b" class="nc-icon-wrapper"><path d="M41,9H40a5.142,5.142,0,0,0,1-3,4.951,4.951,0,0,0-5-5H12A4.951,4.951,0,0,0,7,6,5.142,5.142,0,0,0,8,9H7a5,5,0,0,0-5,5V41a5,5,0,0,0,5,5H41a5,5,0,0,0,5-5V14A5,5,0,0,0,41,9ZM36,9H34a.945.945,0,0,0-1,1,9.1,9.1,0,0,1-2,5.6V30a1,1,0,0,1-2,0V17.5A8.667,8.667,0,0,1,24,19a9.478,9.478,0,0,1-5-1.5V30a1,1,0,0,1-2,0V15.6A9.1,9.1,0,0,1,15,10a.945.945,0,0,0-1-1H12A2.946,2.946,0,0,1,9,6a2.946,2.946,0,0,1,3-3H36a2.946,2.946,0,0,1,3,3A2.946,2.946,0,0,1,36,9Z" fill="#61616b"></path></g></svg>