<svg xmlns="http://www.w3.org/2000/svg" height="32" width="32" viewBox="0 0 32 32"><title>hoodie 4</title><g fill="#61616b" class="nc-icon-wrapper"><path d="M29,6H27.4A3.606,3.606,0,0,0,28,4a4.012,4.012,0,0,0-4-4H8A4.012,4.012,0,0,0,4,4a3.606,3.606,0,0,0,.6,2H3A3,3,0,0,0,0,9V29a3,3,0,0,0,3,3H29a3,3,0,0,0,3-3V9A3,3,0,0,0,29,6ZM24,6H23a.945.945,0,0,0-1,1,6.114,6.114,0,0,1-1,3.3V20H19V12.2a6.025,6.025,0,0,1-6,0V20H11V10.3A6.114,6.114,0,0,1,10,7,.945.945,0,0,0,9,6H8A2,2,0,0,1,8,2H24a2,2,0,0,1,0,4Z" fill="#61616b"></path></g></svg>