<svg xmlns="http://www.w3.org/2000/svg" height="64" width="64" viewBox="0 0 64 64"><title>hoodie 2</title><g fill="#61616b" class="nc-icon-wrapper"><path d="M55,14H52.9A6.944,6.944,0,0,0,55,8.845,7.132,7.132,0,0,0,47.794,2H16.206A7.132,7.132,0,0,0,9,8.845,6.944,6.944,0,0,0,11.1,14H9a6,6,0,0,0-6,6V56a6,6,0,0,0,6,6H55a6,6,0,0,0,6-6V20A6,6,0,0,0,55,14Zm-7,0H46a.945.945,0,0,0-1,1,12.906,12.906,0,0,1-4,9.4V44a1,1,0,0,1-2,0V25.9a12.717,12.717,0,0,1-14,0V44a1,1,0,0,1-2,0V24.4A12.906,12.906,0,0,1,19,15a.945.945,0,0,0-1-1H16a4.951,4.951,0,0,1-5-5,4.951,4.951,0,0,1,5-5H48a4.951,4.951,0,0,1,5,5A4.951,4.951,0,0,1,48,14Z" fill="#61616b"></path></g></svg>