<svg xmlns="http://www.w3.org/2000/svg" height="24" width="24" viewBox="0 0 24 24"><title>iron 2</title><g fill="#61616b" class="nc-icon-wrapper"><path d="M21.949,14H0a4,4,0,0,1,4-4h9A4,4,0,0,0,9,6H3.5a1.5,1.5,0,0,1,0-3H10A11.993,11.993,0,0,1,21.949,14Z" fill="#61616b"></path><path data-color="color-2" d="M22.618,17H.382l1.723,3.447A1,1,0,0,0,3,21H23a1,1,0,0,0,.895-1.447Z" fill="#61616b"></path><path d="M22,15H0V13a3,3,0,0,1,3-3H13A4,4,0,0,0,9,6H3.5a1.5,1.5,0,0,1,0-3H10A11.974,11.974,0,0,1,22,15Z" fill="#61616b"></path></g></svg>