<svg xmlns="http://www.w3.org/2000/svg" height="48" width="48" viewBox="0 0 48 48"><title>iron 2 4</title><g fill="#61616b" class="nc-icon-wrapper"><path data-color="color-2" d="M12,22h0a1,1,0,0,0,1,1h8a1,1,0,0,0,1-1h0a1,1,0,0,0-1-1H13A1,1,0,0,0,12,22Z" fill="#61616b"></path><circle data-color="color-2" cx="41.499" cy="20.5" r="1.5" fill="#61616b"></circle><path d="M44,30a23.912,23.912,0,0,0-1.139-6.276A3.491,3.491,0,0,1,39.8,17.461,23.98,23.98,0,0,0,20,7H5.5a2.5,2.5,0,0,0,0,5H17A9.993,9.993,0,0,1,27,22H24a3,3,0,0,1-3,3H13a3,3,0,0,1-3-3H5a5.006,5.006,0,0,0-5,5v3H0v1a1,1,0,0,0,1,1H43a1,1,0,0,0,1-1V30Z" fill="#61616b"></path><path data-color="color-2" d="M47.781,39.375l-4-5A1,1,0,0,0,43,34H1a1,1,0,0,0-.781,1.625l4,5A1,1,0,0,0,5,41H47a1,1,0,0,0,.781-1.625Z" fill="#61616b"></path></g></svg>