<svg xmlns="http://www.w3.org/2000/svg" height="32" width="32" viewBox="0 0 32 32"><title>iron dont 4</title><g fill="#61616b" class="nc-icon-wrapper"><path fill="#61616b" d="M19.3,8.5C18.2,8.2,17.1,8,16,8H2V7c0-1.1,0.9-2,2-2h9c0.6,0,1-0.4,1-1s-0.4-1-1-1H4C1.8,3,0,4.8,0,7v2v10 h8.8L19.3,8.5z"></path> <path fill="#61616b" d="M17.2,19h10.7c-0.2-2.8-1.5-5.4-3.4-7.3L17.2,19z"></path> <polygon data-color="color-2" fill="#61616b" points="6.8,21 0,21 0,25 2.8,25 "></polygon> <polygon data-color="color-2" fill="#61616b" points="15.2,21 11.2,25 31,25 28,21 "></polygon> <path data-color="color-2" fill="#61616b" d="M2,31c-0.3,0-0.5-0.1-0.7-0.3c-0.4-0.4-0.4-1,0-1.4l28-28c0.4-0.4,1-0.4,1.4,0s0.4,1,0,1.4 l-28,28C2.5,30.9,2.3,31,2,31z"></path></g></svg>