<svg xmlns="http://www.w3.org/2000/svg" height="32" width="32" viewBox="0 0 32 32"><title>iron 2 5</title><g fill="#61616b" class="nc-icon-wrapper"><path data-color="color-2" d="M31.857,26.485,29.766,23H.434l2.709,4.515A1,1,0,0,0,4,28H31a1,1,0,0,0,.857-1.515Z" fill="#61616b"></path><path d="M13,4H4.107A2.074,2.074,0,0,0,2.028,5.664,2,2,0,0,0,4,8h8a5,5,0,0,1,5,5h0a3,3,0,0,1-3,3H10a3,3,0,0,1-3-3H4a4,4,0,0,0-4,4v4H29V19A16.054,16.054,0,0,0,13,4Z" fill="#61616b"></path><rect data-color="color-2" x="11" y="10" width="2" height="6" rx="1" transform="translate(-1 25) rotate(-90)" fill="#61616b"></rect></g></svg>