<svg xmlns="http://www.w3.org/2000/svg" height="64" width="64" viewBox="0 0 64 64"><title>iron 2 3</title><g fill="#61616b" class="nc-icon-wrapper"><rect data-color="color-2" x="21.001" y="22.999" width="2" height="14" rx="1" transform="translate(-7.998 52) rotate(-90)" fill="#61616b"></rect><circle data-color="color-2" cx="53.001" cy="26.999" r="2" fill="#61616b"></circle><path d="M58,42a32.788,32.788,0,0,0-2.608-11.812A3.963,3.963,0,0,1,53,31a4,4,0,0,1-1.55-7.687A32.946,32.946,0,0,0,25,10H6.5a3.5,3.5,0,0,0-3.5,3.688A3.633,3.633,0,0,0,6.7,17H22A13,13,0,0,1,35,30H31a3,3,0,0,1-3,3H16a3,3,0,0,1-3-3H9a8,8,0,0,0-8,8v4a1,1,0,0,0,1,1H57a1,1,0,0,0,.924-.617A1.86,1.86,0,0,0,58,42Z" fill="#61616b"></path><path data-color="color-2" d="M62.813,52.419l-5-7A1,1,0,0,0,57,45H2a1,1,0,0,0-.813,1.581l5,7A1,1,0,0,0,7,54H62a1,1,0,0,0,.813-1.581Z" fill="#61616b"></path></g></svg>