<svg xmlns="http://www.w3.org/2000/svg" height="32" width="32" viewBox="0 0 32 32"><title>jeans pocket 5</title><g fill="#61616b" class="nc-icon-wrapper"><path fill="#61616b" d="M29,0H3C2.4,0,2,0.4,2,1v19c0,0.3,0.1,0.6,0.4,0.8l13,10c0.2,0.1,0.4,0.2,0.6,0.2s0.4-0.1,0.6-0.2l13-10 c0.2-0.2,0.4-0.5,0.4-0.8V1C30,0.4,29.6,0,29,0z M7,7H4C3.4,7,3,6.6,3,6s0.4-1,1-1h3c0.6,0,1,0.4,1,1S7.6,7,7,7z M14,7h-3 c-0.6,0-1-0.4-1-1s0.4-1,1-1h3c0.6,0,1,0.4,1,1S14.6,7,14,7z M21,7h-3c-0.6,0-1-0.4-1-1s0.4-1,1-1h3c0.6,0,1,0.4,1,1S21.6,7,21,7z M28,7h-3c-0.6,0-1-0.4-1-1s0.4-1,1-1h3c0.6,0,1,0.4,1,1S28.6,7,28,7z"></path></g></svg>