<svg xmlns="http://www.w3.org/2000/svg" height="64" width="64" viewBox="0 0 64 64"><title>jeans 43 2</title><g fill="#61616b" class="nc-icon-wrapper"><path data-color="color-2" fill="#61616b" d="M29,1H16c-0.6,0-1,0.4-1,1v7h14V1z"></path> <path data-color="color-2" fill="#61616b" d="M56,1H43v8h14V2C57,1.4,56.6,1,56,1z"></path> <rect data-color="color-2" x="31" y="1" fill="#61616b" width="10" height="8"></rect> <path fill="#61616b" d="M15,25.6l-7.8,9.7C7,35.6,7,35.9,7,36.2l6,26c0.1,0.5,0.5,0.8,1,0.8h42c0.6,0,1-0.4,1-1V11H15V25.6z M46.5,40.9l-10,6C36.4,47,36.2,47,36,47s-0.4,0-0.5-0.1l-10-6C25.2,40.7,25,40.4,25,40V29h22v11C47,40.4,46.8,40.7,46.5,40.9z M26,23h20c0.6,0,1,0.4,1,1v3H25v-3C25,23.4,25.4,23,26,23z"></path></g></svg>