<svg xmlns="http://www.w3.org/2000/svg" height="64" width="64" viewBox="0 0 64 64"><title>jeans pocket 3</title><g fill="#61616b" class="nc-icon-wrapper"><path fill="#61616b" d="M58,1H6C5.4,1,5,1.4,5,2v38c0,0.3,0.1,0.6,0.4,0.8l26,20c0.2,0.1,0.4,0.2,0.6,0.2s0.4-0.1,0.6-0.2l26-20 c0.2-0.2,0.4-0.5,0.4-0.8V2C59,1.4,58.6,1,58,1z M14,13H8c-0.6,0-1-0.4-1-1s0.4-1,1-1h6c0.6,0,1,0.4,1,1S14.6,13,14,13z M28,13h-6 c-0.6,0-1-0.4-1-1s0.4-1,1-1h6c0.6,0,1,0.4,1,1S28.6,13,28,13z M42,13h-6c-0.6,0-1-0.4-1-1s0.4-1,1-1h6c0.6,0,1,0.4,1,1 S42.6,13,42,13z M56,13h-6c-0.6,0-1-0.4-1-1s0.4-1,1-1h6c0.6,0,1,0.4,1,1S56.6,13,56,13z"></path></g></svg>