<svg xmlns="http://www.w3.org/2000/svg" height="48" width="48" viewBox="0 0 48 48"><title>jeans 43 3</title><g fill="#61616b" class="nc-icon-wrapper"><rect data-color="color-2" x="23" y="1" fill="#61616b" width="8" height="5"></rect> <path data-color="color-2" fill="#61616b" d="M21,1h-9c-0.6,0-1,0.4-1,1v4h10V1z"></path> <path data-color="color-2" fill="#61616b" d="M42,1h-9v5h10V2C43,1.4,42.6,1,42,1z"></path> <path fill="#61616b" d="M11,19.7l-5.8,7.7C5,27.6,5,27.9,5,28.2l4,18c0.1,0.5,0.5,0.8,1,0.8h32c0.6,0,1-0.4,1-1V8H11V19.7z M35.5,30.9l-7,4C28.3,35,28.2,35,28,35s-0.3,0-0.5-0.1l-7-4C20.2,30.7,20,30.4,20,30v-8h16v8C36,30.4,35.8,30.7,35.5,30.9z M21,17 h14c0.6,0,1,0.4,1,1v2H20v-2C20,17.4,20.4,17,21,17z"></path></g></svg>