<svg xmlns="http://www.w3.org/2000/svg" height="24" width="24" viewBox="0 0 24 24"><title>jeans 41</title><g fill="#61616b" class="nc-icon-wrapper"><path data-color="color-2" fill="#61616b" d="M21,2V1c0-0.6-0.4-1-1-1H4C3.4,0,3,0.4,3,1v1H21z"></path> <path fill="#61616b" d="M16,7c0-0.6,0.4-1,1-1s1,0.4,1,1c0,1.1,0.9,2,2,2h1V4h-8v4c0,0.6-0.4,1-1,1s-1-0.4-1-1V4H3v5h1 c1.1,0,2-0.9,2-2c0-0.6,0.4-1,1-1s1,0.4,1,1c0,2.2-1.8,4-4,4H3v12c0,0.6,0.4,1,1,1h7V13c0-0.6,0.4-1,1-1s1,0.4,1,1v11h7 c0.6,0,1-0.4,1-1V11h-1C17.8,11,16,9.2,16,7z"></path></g></svg>