<svg xmlns="http://www.w3.org/2000/svg" height="32" width="32" viewBox="0 0 32 32"><title>jeans 43 4</title><g fill="#61616b" class="nc-icon-wrapper"><path fill="#61616b" d="M28,0H8C7.4,0,7,0.4,7,1v11.6l-3.8,4.7C3,17.6,3,17.9,3,18.2l3,13C6.1,31.7,6.5,32,7,32h21c0.6,0,1-0.4,1-1 V1C29,0.4,28.6,0,28,0z M16,2h4v3h-4V2z M24,13H12v-1c0-0.6,0.4-1,1-1h10c0.6,0,1,0.4,1,1V13z M9,2h5v3H9V2z M23.5,20.9l-5,3 C18.4,24,18.2,24,18,24s-0.4,0-0.5-0.1l-5-3C12.2,20.7,12,20.4,12,20v-5h12v5C24,20.4,23.8,20.7,23.5,20.9z M27,5h-5V2h5V5z"></path></g></svg>