<svg xmlns="http://www.w3.org/2000/svg" height="48" width="48" viewBox="0 0 48 48"><title>jeans 41 4</title><g fill="#61616b" class="nc-icon-wrapper"><path data-color="color-2" fill="#61616b" d="M32,6h7V2c0-0.6-0.4-1-1-1h-6V6z"></path> <rect data-color="color-2" x="18" y="1" fill="#61616b" width="12" height="5"></rect> <path data-color="color-2" fill="#61616b" d="M16,6V1h-6C9.4,1,9,1.4,9,2v4H16z"></path> <path fill="#61616b" d="M32,14v-2c0-0.6,0.4-1,1-1s1,0.4,1,1v2c0,1.7,1.3,3,3,3h2V8H25v7c0,0.6-0.4,1-1,1s-1-0.4-1-1V8H9v9h2 c1.7,0,3-1.3,3-3v-2c0-0.6,0.4-1,1-1s1,0.4,1,1v2c0,2.8-2.2,5-5,5H9v27c0,0.6,0.4,1,1,1h13V24c0-0.6,0.4-1,1-1s1,0.4,1,1v23h13 c0.6,0,1-0.4,1-1V19h-2C34.2,19,32,16.8,32,14z"></path></g></svg>