<svg xmlns="http://www.w3.org/2000/svg" height="64" width="64" viewBox="0 0 64 64"><title>jeans 41 3</title><g fill="#61616b" class="nc-icon-wrapper"><path data-color="color-2" fill="#61616b" d="M55,8V2c0-0.6-0.4-1-1-1H10C9.4,1,9,1.4,9,2v6H55z"></path> <path fill="#61616b" d="M44,15c0-0.6,0.4-1,1-1s1,0.4,1,1c0,5,4,9,9,9V10H33v12c0,0.6-0.4,1-1,1s-1-0.4-1-1V10H9v14c5,0,9-4,9-9 c0-0.6,0.4-1,1-1s1,0.4,1,1c0,6.1-4.9,11-11,11v36c0,0.6,0.4,1,1,1h21V32c0-0.6,0.4-1,1-1s1,0.4,1,1v31h21c0.6,0,1-0.4,1-1V26 C48.9,26,44,21.1,44,15z"></path></g></svg>