<svg xmlns="http://www.w3.org/2000/svg" height="64" width="64" viewBox="0 0 64 64"><title>laundry 3</title><g fill="#61616b" class="nc-icon-wrapper"><path data-color="color-2" fill="#61616b" d="M5,53h54V25.9c-1.6,0.7-3.4,1.1-5.2,1.1c-4,0-7.7-1.9-10.1-5.1c-0.2-0.3-0.5-0.4-0.8-0.4 c-0.3,0-0.6,0.1-0.8,0.4C39.7,25.1,36,27,32,27c-4,0-7.7-1.9-10.1-5.1c-0.2-0.3-0.5-0.4-0.8-0.4c-0.3,0-0.6,0.1-0.8,0.4 c-2.4,3.3-6.1,5.1-10.1,5.1c-1.8,0-3.6-0.4-5.2-1.1V53z"></path> <path fill="#61616b" d="M62,57H2c-0.6,0-1-0.4-1-1V8c0-0.6,0.4-1,1-1s1,0.4,1,1v47h58V8c0-0.6,0.4-1,1-1s1,0.4,1,1v48 C63,56.6,62.6,57,62,57z"></path></g></svg>