<svg xmlns="http://www.w3.org/2000/svg" height="24" width="24" viewBox="0 0 24 24"><title>laundry</title><g fill="#61616b" class="nc-icon-wrapper"><path d="M23,22H1a1,1,0,0,1-1-1V3A1,1,0,0,1,2,3V20H22V3a1,1,0,0,1,2,0V21A1,1,0,0,1,23,22Z" fill="#61616b"></path><path data-color="color-2" d="M20,9.268a3.2,3.2,0,0,1-1.454.368A3.149,3.149,0,0,1,16.072,8.4a1.036,1.036,0,0,0-1.6,0,3.092,3.092,0,0,1-4.946,0,1.036,1.036,0,0,0-1.6,0A3.149,3.149,0,0,1,5.454,9.636,3.2,3.2,0,0,1,4,9.268V18H20Z" fill="#61616b"></path></g></svg>