<svg xmlns="http://www.w3.org/2000/svg" height="48" width="48" viewBox="0 0 48 48"><title>laundry 4</title><g fill="#61616b" class="nc-icon-wrapper"><path fill="#61616b" d="M46,5c-0.6,0-1,0.4-1,1v3v32H3V6c0-0.6-0.4-1-1-1S1,5.4,1,6v36c0,0.6,0.4,1,1,1h44c0.6,0,1-0.4,1-1V6 C47,5.4,46.6,5,46,5z"></path> <path data-color="color-2" fill="#61616b" d="M5,39h38V18.4c-1,0.3-2,0.6-3,0.6c-2.8,0-5.5-1.3-7.2-3.7c-0.4-0.5-1.2-0.5-1.6,0 C29.5,17.7,26.8,19,24,19c-2.8,0-5.5-1.3-7.2-3.7c-0.4-0.5-1.2-0.5-1.6,0C13.5,17.7,10.8,19,8,19c-1,0-2-0.2-3-0.6V39z"></path></g></svg>