<svg xmlns="http://www.w3.org/2000/svg" height="32" width="32" viewBox="0 0 32 32"><title>laundry 5</title><g fill="#61616b" class="nc-icon-wrapper"><path data-color="color-2" d="M4,25H28V12.56a5.131,5.131,0,0,1-1.8.338,5.229,5.229,0,0,1-4.283-2.173,1,1,0,0,0-.8-.423.973.973,0,0,0-.813.392A5.353,5.353,0,0,1,16,12.9a5.225,5.225,0,0,1-4.282-2.173,1,1,0,0,0-.8-.423.967.967,0,0,0-.814.392,5.42,5.42,0,0,1-4.3,2.2A5.348,5.348,0,0,1,4,12.58Z" fill="#61616b"></path><path d="M31,29H1a1,1,0,0,1-1-1V4A1,1,0,0,1,2,4V27H30V4a1,1,0,0,1,2,0V28A1,1,0,0,1,31,29Z" fill="#61616b"></path></g></svg>