<svg xmlns="http://www.w3.org/2000/svg" height="64" width="64" viewBox="0 0 64 64"><title>lipstick 3</title><g fill="#61616b" class="nc-icon-wrapper"><path d="M49.019,42,49,37a1,1,0,0,0-1-1H16a1,1,0,0,0-1,1l-.019,5Z" fill="#61616b"></path><path d="M14.973,44l-.05,12.982V57a6.006,6.006,0,0,0,6,6H43.094a6,6,0,0,0,5.983-6.018L49.027,44Z" fill="#61616b"></path><path data-color="color-2" d="M40,34V4.219c0-.012-.006-.021-.006-.032A3.13,3.13,0,0,0,39.5,2.544c-.79-1.21-2.361-1.737-4.423-1.482a14.134,14.134,0,0,0-5.764,2.28,15.494,15.494,0,0,0-3.495,3.086,6.765,6.765,0,0,0-1.8,4.3.9.9,0,0,0-.023.115V34ZM27.367,7.693a13.494,13.494,0,0,1,3.041-2.677,12.094,12.094,0,0,1,4.914-1.968A6.028,6.028,0,0,1,36.047,3a2.08,2.08,0,0,1,1.779.638c.341.521.168,1.466-.462,2.53a12.1,12.1,0,0,1-3.772,3.713,12.108,12.108,0,0,1-4.914,1.968c-1.225.15-2.162-.07-2.5-.591C25.709,10.55,26.178,9.149,27.367,7.693Z" fill="#61616b"></path></g></svg>