<svg xmlns="http://www.w3.org/2000/svg" height="24" width="24" viewBox="0 0 24 24"><title>long sleeve</title><g fill="#61616b" class="nc-icon-wrapper"><path fill="#61616b" d="M19,13h2v4h3V4c0-2.2-1.8-4-4-4h-4c-0.6,0-1,0.4-1,1c0,1.7-1.3,3-3,3S9,2.7,9,1c0-0.6-0.4-1-1-1H4 C1.8,0,0,1.8,0,4v13h3v-4h2v11h14V13z M17,10h-4V8h4V10z"></path> <path data-color="color-2" fill="#61616b" d="M3,19H0v1c0,0.6,0.4,1,1,1h2V19z"></path> <path data-color="color-2" fill="#61616b" d="M21,19v2h2c0.6,0,1-0.4,1-1v-1H21z"></path></g></svg>