<svg xmlns="http://www.w3.org/2000/svg" height="48" width="48" viewBox="0 0 48 48"><title>long sleeve 4</title><g fill="#61616b" class="nc-icon-wrapper"><path data-color="color-2" fill="#61616b" d="M8,37H1v3c0,0.6,0.4,1,1,1h6V37z"></path> <path fill="#61616b" d="M38,22c0-0.6,0.4-1,1-1s1,0.4,1,1v13h7V8c0-3.9-3.1-7-7-7h-8c-0.6,0-1,0.4-1,1c0,3.9-3.1,7-7,7s-7-3.1-7-7 c0-0.6-0.4-1-1-1H8C4.1,1,1,4.1,1,8v27h7V22c0-0.6,0.4-1,1-1s1,0.4,1,1v25h28V22z M32,19h-4c-0.6,0-1-0.4-1-1s0.4-1,1-1h4 c0.6,0,1,0.4,1,1S32.6,19,32,19z"></path> <path data-color="color-2" fill="#61616b" d="M40,41h6c0.6,0,1-0.4,1-1v-3h-7V41z"></path></g></svg>