<svg xmlns="http://www.w3.org/2000/svg" height="64" width="64" viewBox="0 0 64 64"><title>long sleeve 3</title><g fill="#61616b" class="nc-icon-wrapper"><path data-color="color-2" fill="#61616b" d="M12,52H3v2c0,0.6,0.4,1,1,1h8V52z"></path> <path fill="#61616b" d="M50,28c0-0.6,0.4-1,1-1s1,0.4,1,1v22h10c0.6,0,1-0.4,1-1V10c0-5-4-9-9-9L44,1c-0.5,0-1,0.4-1,1 c0,6.1-4.9,11-11,11S21,8.1,21,2c0-0.5-0.5-1-1-1L10,1c-5,0-9,4-9,9v39c0,0.6,0.4,1,1,1h10V28c0-0.6,0.4-1,1-1s1,0.4,1,1v34 c0,0.6,0.4,1,1,1h34c0.6,0,1-0.4,1-1V28z M42,25h-6c-0.6,0-1-0.4-1-1s0.4-1,1-1h6c0.6,0,1,0.4,1,1S42.6,25,42,25z"></path> <path data-color="color-2" fill="#61616b" d="M52,55h8c0.6,0,1-0.4,1-1v-2h-9V55z"></path></g></svg>