<svg xmlns="http://www.w3.org/2000/svg" height="32" width="32" viewBox="0 0 32 32"><title>long sleeve 5</title><g fill="#61616b" class="nc-icon-wrapper"><path data-color="color-2" fill="#61616b" d="M27,28h4c0.6,0,1-0.4,1-1v-2h-5V28z"></path> <path fill="#61616b" d="M25,14c0-0.6,0.4-1,1-1s1,0.4,1,1v9h5V5c0-2.8-2.2-5-5-5h-5c-0.6,0-1,0.4-1,1c0,2.8-2.2,5-5,5s-5-2.2-5-5 c0-0.6-0.4-1-1-1H5C2.2,0,0,2.2,0,5v18h5v-9c0-0.6,0.4-1,1-1s1,0.4,1,1v18h18V14z M21,13h-3c-0.6,0-1-0.4-1-1s0.4-1,1-1h3 c0.6,0,1,0.4,1,1S21.6,13,21,13z"></path> <path data-color="color-2" fill="#61616b" d="M5,25H0v2c0,0.6,0.4,1,1,1h4V25z"></path></g></svg>