<svg xmlns="http://www.w3.org/2000/svg" height="48" width="48" viewBox="0 0 48 48"><title>makeup 3</title><g fill="#61616b" class="nc-icon-wrapper"><path d="M3,33V44a1,1,0,0,0,1,1H17a1,1,0,0,0,1-1V33Z" fill="#61616b"></path><path d="M15,15V7a1,1,0,0,0-.726-.962l-7-2A1,1,0,0,0,6,5V15Z" fill="#61616b" data-color="color-2"></path><path d="M44,37H35.222A17.987,17.987,0,1,0,17,6.056V8.518A16,16,0,1,1,27,37a15.838,15.838,0,0,1-7-1.623V45H40a5,5,0,0,0,5-5V38A1,1,0,0,0,44,37Z" fill="#61616b"></path><path d="M17,26H16V18a1,1,0,0,0-1-1H6a1,1,0,0,0-1,1v8H4a1,1,0,0,0-1,1v4H18V27A1,1,0,0,0,17,26Z" fill="#61616b"></path><path d="M36.069,10.345l-9.362,9.362a1,1,0,0,1-1.414-1.414l9.141-9.141A13.929,13.929,0,0,0,17,11.229V15.78A2.985,2.985,0,0,1,18,18v.586l7.293-7.293a1,1,0,0,1,1.414,1.414L18,21.414v2.758A3.006,3.006,0,0,1,20,27v6.111A13.99,13.99,0,0,0,36.069,10.345Z" fill="#61616b" data-color="color-2"></path></g></svg>