<svg xmlns="http://www.w3.org/2000/svg" height="64" width="64" viewBox="0 0 64 64"><title>makeup 2</title><g fill="#61616b" class="nc-icon-wrapper"><path d="M4,44H20a0,0,0,0,1,0,0V59a1,1,0,0,1-1,1H5a1,1,0,0,1-1-1V44A0,0,0,0,1,4,44Z" fill="#61616b"></path><path d="M7,21V9a1,1,0,0,1,1.2-.98l8,2A1,1,0,0,1,17,11V21Z" fill="#61616b" data-color="color-2"></path><path d="M19,34H18V24a1,1,0,0,0-1-1H7a1,1,0,0,0-1,1V34H5a1,1,0,0,0-1,1v7H20V35A1,1,0,0,0,19,34Z" fill="#61616b"></path><path d="M45.687,10.727l-17.98,17.98a1,1,0,0,1-1.414-1.414L43.814,9.772A20.4,20.4,0,0,0,20,15.138v6.219a3.979,3.979,0,0,1,.965,2.264L32.293,12.293a1,1,0,0,1,1.414,1.414L21,26.414v5.123A4,4,0,0,1,23,35v9.7A20.477,20.477,0,1,0,45.687,10.727Z" fill="#61616b" data-color="color-2"></path><path d="M59,50H47.253A24.494,24.494,0,1,0,19.786,9.731,3.943,3.943,0,0,1,20,11v1.219A22.493,22.493,0,1,1,42.454,49.9a.977.977,0,0,0-.491.354l-1.666,2.3a1,1,0,0,1-.832.445h-7.93a1,1,0,0,1-.832-.445l-1.594-2.284A.982.982,0,0,0,28.6,49.9,22.5,22.5,0,0,1,23,47.175V59a3.939,3.939,0,0,1-.142,1H55a5,5,0,0,0,5-5V51A1,1,0,0,0,59,50Z" fill="#61616b"></path></g></svg>