<svg xmlns="http://www.w3.org/2000/svg" height="48" width="48" viewBox="0 0 48 48"><title>needle 3</title><g fill="#61616b" class="nc-icon-wrapper"><path fill="#61616b" d="M42.6,4.3C41.1,2.8,39.1,2,36.9,2c-2.4,0-4.7,1.1-6.2,3L3.8,38.6c-0.8,1-0.9,2.2-0.4,3.4 c0.6,1.1,1.7,1.9,2.9,1.9c0.7,0,1.4-0.3,2-0.7l33.6-26.9c1.8-1.4,2.9-3.5,3-5.8C45,8.2,44.2,5.9,42.6,4.3z M37.1,11.3l-2.2,2.2 c-0.2,0.2-0.5,0.3-0.7,0.3s-0.5-0.1-0.7-0.3c-0.4-0.4-0.4-1,0-1.4l2.2-2.2c0.4-0.4,1-0.4,1.4,0C37.5,10.2,37.5,10.9,37.1,11.3z"></path> <path data-color="color-2" fill="#61616b" d="M11.8,25.4l1.3-1.6L9.2,20c-2-2-2-5.4,0-7.4c1-1,2.3-1.5,3.7-1.5s2.7,0.5,3.7,1.5l3,3 l1.3-1.6l-2.8-2.8C16.7,9.8,14.9,9,12.9,9s-3.8,0.8-5.1,2.1C5,14,5,18.6,7.8,21.4L11.8,25.4z"></path> <path data-color="color-2" fill="#61616b" d="M41.1,19.4c1.9,2.1,1.8,5.2-0.2,7.2c-2,2-5.4,2-7.4,0L32.9,26l-1.6,1.3l0.8,0.8 c1.4,1.4,3.3,2.1,5.1,2.1c1.9,0,3.7-0.7,5.1-2.1c2.7-2.7,2.8-7,0.3-9.9L41.1,19.4z"></path> <path data-color="color-2" fill="#61616b" d="M27.5,5.7l1.3-1.6l-1-1c-0.4-0.4-1-0.4-1.4,0c-0.4,0.4-0.4,1,0,1.4L27.5,5.7z"></path> <path data-color="color-2" fill="#61616b" d="M23.1,33.9l-1.6,1.3l10.6,10.6c0.2,0.2,0.5,0.3,0.7,0.3s0.5-0.1,0.7-0.3c0.4-0.4,0.4-1,0-1.4 L23.1,33.9z"></path></g></svg>