<svg xmlns="http://www.w3.org/2000/svg" height="32" width="32" viewBox="0 0 32 32"><title>pajamas 4</title><g fill="#61616b" class="nc-icon-wrapper"><path fill="#61616b" d="M31,0h-7c-0.2,0-0.5,0.1-0.7,0.2L17,5.8v15.7c0,0.6-0.4,1-1,1s-1-0.4-1-1V5.8L8.7,0.2C8.5,0.1,8.2,0,8,0H1 C0.4,0,0,0.4,0,1v30c0,0.6,0.4,1,1,1h30c0.6,0,1-0.4,1-1V1C32,0.4,31.6,0,31,0z M21,19c0,0.6-0.4,1-1,1s-1-0.4-1-1v-1 c0-0.6,0.4-1,1-1s1,0.4,1,1V19z M21,14c0,0.6-0.4,1-1,1s-1-0.4-1-1v-1c0-0.6,0.4-1,1-1s1,0.4,1,1V14z"></path></g></svg>