<svg xmlns="http://www.w3.org/2000/svg" height="64" width="64" viewBox="0 0 64 64"><title>pajamas 2</title><g fill="#61616b" class="nc-icon-wrapper"><path fill="#61616b" d="M62,1H48c-0.2,0-0.5,0.1-0.7,0.2L33,13.8v29.1c0,0.6-0.4,1-1,1s-1-0.4-1-1V13.8L16.7,1.2 C16.5,1.1,16.2,1,16,1H2C1.4,1,1,1.4,1,2v60c0,0.6,0.4,1,1,1h60c0.6,0,1-0.4,1-1V2C63,1.4,62.6,1,62,1z M40,38c0,0.6-0.4,1-1,1 s-1-0.4-1-1v-2c0-0.6,0.4-1,1-1s1,0.4,1,1V38z M40,28c0,0.6-0.4,1-1,1s-1-0.4-1-1v-2c0-0.6,0.4-1,1-1s1,0.4,1,1V28z"></path></g></svg>