<svg xmlns="http://www.w3.org/2000/svg" height="48" width="48" viewBox="0 0 48 48"><title>pajamas 3</title><g fill="#61616b" class="nc-icon-wrapper"><path fill="#61616b" d="M46,1H36c-0.2,0-0.5,0.1-0.6,0.2L25,9.9V32c0,0.6-0.4,1-1,1s-1-0.4-1-1V9.9L12.6,1.2C12.5,1.1,12.2,1,12,1H2 C1.4,1,1,1.4,1,2v44c0,0.6,0.4,1,1,1h44c0.6,0,1-0.4,1-1V2C47,1.4,46.6,1,46,1z M31,30c0,0.6-0.4,1-1,1s-1-0.4-1-1v-2 c0-0.6,0.4-1,1-1s1,0.4,1,1V30z M31,20c0,0.6-0.4,1-1,1s-1-0.4-1-1v-2c0-0.6,0.4-1,1-1s1,0.4,1,1V20z"></path></g></svg>