<svg xmlns="http://www.w3.org/2000/svg" height="64" width="64" viewBox="0 0 64 64"><title>pilgrim hat 2</title><g fill="#61616b" class="nc-icon-wrapper"><path d="M54.713,38.86l.145.769A6.66,6.66,0,0,1,55,41c0,6.841-9.888,12-23,12S9,47.841,9,41a6.873,6.873,0,0,1,.149-1.412l.015,0c.028-.16.07-.4.133-.737C4.754,41.308,2,44.5,2,48c0,7.732,13.431,14,30,14s30-6.268,30-14C62,44.505,59.25,41.313,54.713,38.86Z" fill="#61616b" data-color="color-2"></path><path d="M46.947,8.513C46.41,4.875,39.932,2,32,2S17.59,4.875,17.053,8.513c0,0-1.592,8.427-3.129,16.559,2.488,2.006,6.4,3.558,11.076,4.347V27a1,1,0,0,1,1-1H37.927a1,1,0,0,1,1,.993l.016,2.436c4.7-.786,8.634-2.342,11.132-4.356Z" fill="#61616b"></path><path d="M50.886,29.366A30.987,30.987,0,0,1,38.97,33.488l.023,3.505a1,1,0,0,1-1,1.007H26a1,1,0,0,1-1-1V33.483a30.956,30.956,0,0,1-11.887-4.117c-1.1,5.83-2,10.612-2,10.612l0,.022h0A4.859,4.859,0,0,0,11,41c0,5.523,9.4,10,21,10s21-4.477,21-10a4.859,4.859,0,0,0-.106-1Z" fill="#61616b"></path></g></svg>