<svg xmlns="http://www.w3.org/2000/svg" height="32" width="32" viewBox="0 0 32 32"><title>pilgrim hat 4</title><g fill="#61616b" class="nc-icon-wrapper"><path d="M28.722,19.106l.213,1.206A6.724,6.724,0,0,1,29,21c0,3.479-4.465,7-13,7S3,24.479,3,21c0-.2.051-.6.051-.6l.228-1.291C1.223,20.451,0,22.139,0,24c0,4.486,7.028,8,16,8s16-3.514,16-8C32,22.139,30.778,20.451,28.722,19.106Z" fill="#61616b" data-color="color-2"></path><path d="M12,14.634V13h8v1.634c2.628-.5,4.587-1.446,5.472-2.452L23.95,3.545h0C23.492,1.55,20.11,0,16,0,11.874,0,8.48,1.562,8.049,3.567L6.53,12.183C7.415,13.189,9.373,14.136,12,14.634Z" fill="#61616b"></path><path d="M25.874,14.466A14.394,14.394,0,0,1,20,16.67V19H12V16.67a14.4,14.4,0,0,1-5.873-2.2l-1.1,6.221A3.057,3.057,0,0,0,5,21c0,2.761,4.925,5,11,5s11-2.239,11-5a3.158,3.158,0,0,0-.035-.342Z" fill="#61616b"></path></g></svg>