<svg xmlns="http://www.w3.org/2000/svg" height="24" width="24" viewBox="0 0 24 24"><title>pilgrim hat 5</title><g fill="#61616b" class="nc-icon-wrapper"><path d="M21.972,14.575c.015.146.028.313.028.425,0,4.145-5.022,6-10,6S2,19.145,2,15a3.835,3.835,0,0,1,.025-.423A4.35,4.35,0,0,0,0,18c0,3.421,5.159,6,12,6s12-2.579,12-6A4.351,4.351,0,0,0,21.972,14.575Z" fill="#61616b" data-color="color-2"></path><path d="M9,9.706V8h6V9.706c1.88-.384,3.3-1.116,3.8-2L17.94,2.642C17.571.817,14.691,0,12,0S6.429.817,6.055,2.674l-.85,5.033C5.706,8.592,7.122,9.322,9,9.706Z" fill="#61616b"></path><path d="M19.211,10.148A10.444,10.444,0,0,1,15,11.741V14H9V11.741A10.449,10.449,0,0,1,4.792,10.15l-.745,4.414A2.374,2.374,0,0,0,4,15c0,2.626,4.024,4,8,4s8-1.374,8-4c0-.132-.034-.39-.034-.39Z" fill="#61616b"></path></g></svg>