<svg xmlns="http://www.w3.org/2000/svg" height="48" width="48" viewBox="0 0 48 48"><title>pilgrim hat 3</title><g fill="#61616b" class="nc-icon-wrapper"><path d="M40.652,28.417l.285,1.765c.012.089.063.572.063.818,0,5.131-7.309,9-17,9S7,36.131,7,31a4.936,4.936,0,0,1,.065-.728l.3-1.864C3.424,30.383,1,33.055,1,36c0,6.075,10.3,11,23,11s23-4.925,23-11C47,33.059,44.583,30.39,40.652,28.417Z" fill="#61616b" data-color="color-2"></path><path d="M19,22.578V21a1,1,0,0,1,1-1h8a1,1,0,0,1,1,1v1.578c3.854-.668,6.734-2.061,8.107-3.6l-2.143-13.3C34.6,3.068,29.836,1,24,1S13.4,3.068,13.036,5.679L10.9,18.987C12.276,20.523,15.153,21.911,19,22.578Z" fill="#61616b"></path><path d="M37.489,21.352A18.819,18.819,0,0,1,29,24.612V27a1,1,0,0,1-1,1H20a1,1,0,0,1-1-1V24.612a18.81,18.81,0,0,1-8.479-3.254L9.054,30.5A3.353,3.353,0,0,0,9,31c0,3.866,6.716,7,15,7s15-3.134,15-7c0-.169-.038-.5-.038-.5Z" fill="#61616b"></path></g></svg>