<svg xmlns="http://www.w3.org/2000/svg" height="64" width="64" viewBox="0 0 64 64"><title>pipe 2</title><g fill="#61616b" class="nc-icon-wrapper"><path fill="#61616b" d="M59,31H37c-0.553,0-1,0.448-1,1v8c0,2.757-2.243,5-5,5s-5-2.243-5-5V23H12v16c0,13.233,10.767,24,24,24 s24-10.767,24-24v-7C60,31.448,59.553,31,59,31z"></path> <path data-color="color-2" fill="#61616b" d="M31,19h-7V8c0-3.86-3.141-7-7-7H5C4.447,1,4,1.448,4,2v8c0,0.552,0.447,1,1,1h7 c1.103,0,2,0.897,2,2v6H7c-0.553,0-1,0.448-1,1s0.447,1,1,1h24c0.553,0,1-0.448,1-1S31.553,19,31,19z"></path></g></svg>