<svg xmlns="http://www.w3.org/2000/svg" height="32" width="32" viewBox="0 0 32 32"><title>pipe 4</title><g fill="#61616b" class="nc-icon-wrapper"><path fill="#61616b" d="M30,15H19c-0.6,0-1,0.4-1,1v4c0,1.1-0.9,2-2,2s-2-0.9-2-2v-7H6v6.5C6,26.4,11.6,32,18.5,32S31,26.4,31,19.5 V16C31,15.4,30.6,15,30,15z"></path> <path data-color="color-2" fill="#61616b" d="M16,9h-3V4c0-2.2-1.8-4-4-4H3C2.4,0,2,0.4,2,1v4c0,0.6,0.4,1,1,1h3c0.6,0,1,0.4,1,1v2H4 c-0.6,0-1,0.4-1,1s0.4,1,1,1h12c0.6,0,1-0.4,1-1S16.6,9,16,9z"></path></g></svg>