<svg xmlns="http://www.w3.org/2000/svg" height="48" width="48" viewBox="0 0 48 48"><title>pipe 3</title><g fill="#61616b" class="nc-icon-wrapper"><path fill="#61616b" d="M44,23H28c-0.553,0-1,0.448-1,1v6c0,1.654-1.346,3-3,3s-3-1.346-3-3V19H9v11c0,9.374,7.626,17,17,17h2 c9.374,0,17-7.626,17-17v-6C45,23.448,44.553,23,44,23z"></path> <path data-color="color-2" fill="#61616b" d="M24,15h-5V8c0-3.86-3.141-7-7-7H4C3.447,1,3,1.448,3,2v6c0,0.552,0.447,1,1,1h6 c0.552,0,1,0.449,1,1v5H6c-0.553,0-1,0.448-1,1s0.447,1,1,1h18c0.553,0,1-0.448,1-1S24.553,15,24,15z"></path></g></svg>