<svg xmlns="http://www.w3.org/2000/svg" height="64" width="64" viewBox="0 0 64 64"><title>scarf 3</title><g fill="#61616b" class="nc-icon-wrapper"><path fill="#61616b" d="M58,1c-0.6,0-1,0.4-1,1v3h-8V2c0-0.6-0.4-1-1-1s-1,0.4-1,1v3h-6V2c0-0.6-0.4-1-1-1s-1,0.4-1,1v3h-8V2 c0-0.6-0.4-1-1-1s-1,0.4-1,1v21H12c-3.9,0-7,3.1-7,7v32c0,0.6,0.4,1,1,1s1-0.4,1-1v-3h8v3c0,0.6,0.4,1,1,1s1-0.4,1-1v-3h6v3 c0,0.6,0.4,1,1,1s1-0.4,1-1v-3h8v3c0,0.6,0.4,1,1,1s1-0.4,1-1V39h17c3.9,0,7-3.1,7-7V2C59,1.4,58.6,1,58,1z M35,37v-7 c0-2.8,2.2-5,5-5s5,2.2,5,5v2c0,2,0.8,3.7,2.1,5H35z"></path></g></svg>