<svg xmlns="http://www.w3.org/2000/svg" height="32" width="32" viewBox="0 0 32 32"><title>scarf 5</title><g fill="#61616b" class="nc-icon-wrapper"><path fill="#61616b" d="M29,0c-0.6,0-1,0.4-1,1v1h-3V1c0-0.6-0.4-1-1-1s-1,0.4-1,1v1h-2V1c0-0.6-0.4-1-1-1s-1,0.4-1,1v1h-3V1 c0-0.6-0.4-1-1-1s-1,0.4-1,1v2v8H6c-2.2,0-4,1.8-4,4v14v2c0,0.6,0.4,1,1,1s1-0.4,1-1v-1h3v1c0,0.6,0.4,1,1,1s1-0.4,1-1v-1h2v1 c0,0.6,0.4,1,1,1s1-0.4,1-1v-1h3v1c0,0.6,0.4,1,1,1s1-0.4,1-1v-2v-9h8c2.2,0,4-1.8,4-4V3V1C30,0.4,29.6,0,29,0z M20,13 c1.1,0,2,0.9,2,2v1c0,0.7,0.2,1.4,0.6,2H18v-3C18,13.9,18.9,13,20,13z M28,16c0,1.1-0.9,2-2,2s-2-0.9-2-2v-1c0-2.2-1.8-4-4-4h-4V4 h12V16z"></path></g></svg>