<svg xmlns="http://www.w3.org/2000/svg" height="48" width="48" viewBox="0 0 48 48"><title>scarf 4</title><g fill="#61616b" class="nc-icon-wrapper"><path fill="#61616b" d="M42,1c-0.6,0-1,0.4-1,1v3h-8V2c0-0.6-0.4-1-1-1s-1,0.4-1,1v3h-8V2c0-0.6-0.4-1-1-1s-1,0.4-1,1v4v11H10 c-2.8,0-5,2.2-5,5v20v4c0,0.6,0.4,1,1,1s1-0.4,1-1v-3h8v3c0,0.6,0.4,1,1,1s1-0.4,1-1v-3h8v3c0,0.6,0.4,1,1,1s1-0.4,1-1v-4V29h11 c2.8,0,5-2.2,5-5v-6V6V2C43,1.4,42.6,1,42,1z M27,22c0-1.7,1.3-3,3-3s3,1.3,3,3v2c0,1.1,0.4,2.2,1,3h-7V22z M41,24c0,1.7-1.3,3-3,3 s-3-1.3-3-3v-2c0-2.8-2.2-5-5-5h-7V7h18v11V24z"></path></g></svg>