<svg xmlns="http://www.w3.org/2000/svg" height="48" width="48" viewBox="0 0 48 48"><title>shirt buttons 4</title><g fill="#61616b" class="nc-icon-wrapper"><path fill="#61616b" d="M46,7h-9V2c0-0.6-0.4-1-1-1H12c-0.6,0-1,0.4-1,1v5H2C1.4,7,1,7.4,1,8v38c0,0.6,0.4,1,1,1h44c0.6,0,1-0.4,1-1 V8C47,7.4,46.6,7,46,7z M13,16.3v-12l9.3,7.6l-7.8,5.2C13.9,17.5,13,17.1,13,16.3z M25,40c0,0.6-0.4,1-1,1s-1-0.4-1-1v-1 c0-0.6,0.4-1,1-1s1,0.4,1,1V40z M25,34c0,0.6-0.4,1-1,1s-1-0.4-1-1v-1c0-0.6,0.4-1,1-1s1,0.4,1,1V34z M25,28c0,0.6-0.4,1-1,1 s-1-0.4-1-1v-1c0-0.6,0.4-1,1-1s1,0.4,1,1V28z M25,22c0,0.6-0.4,1-1,1s-1-0.4-1-1v-1c0-0.6,0.4-1,1-1s1,0.4,1,1V22z M35,4.3v12 c0,0.8-0.9,1.3-1.6,0.8l-7.8-5.2L35,4.3z M41,34c0,0.4-0.2,0.7-0.5,0.9l-5,3C35.4,38,35.2,38,35,38s-0.4,0-0.5-0.1l-5-3 C29.2,34.7,29,34.4,29,34v-8c0-0.6,0.4-1,1-1h10c0.6,0,1,0.4,1,1V34z"></path></g></svg>