<svg xmlns="http://www.w3.org/2000/svg" height="32" width="32" viewBox="0 0 32 32"><title>shirt buttons 5</title><g fill="#61616b" class="nc-icon-wrapper"><path fill="#61616b" d="M31,4h-6V1c0-0.6-0.4-1-1-1H8C7.4,0,7,0.4,7,1v3H1C0.4,4,0,4.4,0,5v26c0,0.6,0.4,1,1,1h30c0.6,0,1-0.4,1-1V5 C32,4.4,31.6,4,31,4z M9,11.2V3.3l5.3,4.6L9,11.2z M17,29c0,0.6-0.4,1-1,1s-1-0.4-1-1v-1c0-0.6,0.4-1,1-1s1,0.4,1,1V29z M17,23 c0,0.6-0.4,1-1,1s-1-0.4-1-1v-1c0-0.6,0.4-1,1-1s1,0.4,1,1V23z M17,17c0,0.6-0.4,1-1,1s-1-0.4-1-1v-1c0-0.6,0.4-1,1-1s1,0.4,1,1V17z M17,11c0,0.6-0.4,1-1,1s-1-0.4-1-1v-1c0-0.6,0.4-1,1-1s1,0.4,1,1V11z M23,11.2l-5.3-3.3L23,3.3V11.2z"></path></g></svg>