<svg xmlns="http://www.w3.org/2000/svg" height="48" width="48" viewBox="0 0 48 48"><title>shirt 4</title><g fill="#61616b" class="nc-icon-wrapper"><path fill="#61616b" d="M46,7h-9V2c0-0.6-0.4-1-1-1H12c-0.6,0-1,0.4-1,1v5H2C1.4,7,1,7.4,1,8v38c0,0.6,0.4,1,1,1h21V14 c0-0.6,0.4-1,1-1s1,0.4,1,1v33h21c0.6,0,1-0.4,1-1V8C47,7.4,46.6,7,46,7z M18,41h-1c-0.6,0-1-0.4-1-1s0.4-1,1-1h1c0.6,0,1,0.4,1,1 S18.6,41,18,41z M18,34h-1c-0.6,0-1-0.4-1-1s0.4-1,1-1h1c0.6,0,1,0.4,1,1S18.6,34,18,34z M18,27h-1c-0.6,0-1-0.4-1-1s0.4-1,1-1h1 c0.6,0,1,0.4,1,1S18.6,27,18,27z M13,16.3v-12l9.3,7.6l-7.8,5.2C13.9,17.5,13,17.1,13,16.3z M33.4,17.1l-7.8-5.2L35,4.3v12 C35,17.1,34.1,17.5,33.4,17.1z"></path></g></svg>