<svg xmlns="http://www.w3.org/2000/svg" height="48" width="48" viewBox="0 0 48 48"><title>shirt business 3</title><g fill="#61616b" class="nc-icon-wrapper"><path fill="#61616b" d="M46,7h-9V2c0-0.6-0.4-1-1-1H12c-0.6,0-1,0.4-1,1v5H2C1.4,7,1,7.4,1,8v38c0,0.6,0.4,1,1,1h21V15 c0-0.6,0.4-1,1-1s1,0.4,1,1v32h21c0.6,0,1-0.4,1-1V8C47,7.4,46.6,7,46,7z M13,16.3v-12l9.3,7.6l-7.8,5.2C13.9,17.5,13,17.1,13,16.3z M35,4.3v12c0,0.8-0.9,1.3-1.6,0.8l-7.8-5.2L35,4.3z M41,34c0,0.6-0.4,1-1,1H30c-0.6,0-1-0.4-1-1v-6c0-0.6,0.4-1,1-1h10 c0.6,0,1,0.4,1,1V34z"></path></g></svg>