<svg xmlns="http://www.w3.org/2000/svg" height="64" width="64" viewBox="0 0 64 64"><title>shirt business 2</title><g fill="#61616b" class="nc-icon-wrapper"><path fill="#61616b" d="M62,9H49V2c0-0.6-0.4-1-1-1H16c-0.6,0-1,0.4-1,1v7H2c-0.6,0-1,0.4-1,1v52c0,0.6,0.4,1,1,1h29V19 c0-0.6,0.4-1,1-1s1,0.4,1,1v44h29c0.6,0,1-0.4,1-1V10C63,9.4,62.6,9,62,9z M17,22.4V4.3l13.3,11.5l-11.8,7.4 C17.9,23.7,17,23.2,17,22.4z M47,4.3v18.1c0,0.8-0.9,1.3-1.5,0.8l-11.8-7.4L47,4.3z M55,44c0,0.6-0.4,1-1,1H40c-0.6,0-1-0.4-1-1v-8 c0-0.6,0.4-1,1-1h14c0.6,0,1,0.4,1,1V44z"></path></g></svg>