<svg xmlns="http://www.w3.org/2000/svg" height="64" width="64" viewBox="0 0 64 64"><title>shirt neck 3</title><g fill="#61616b" class="nc-icon-wrapper"><path fill="#61616b" d="M62,9H49V2c0-0.6-0.4-1-1-1H16c-0.6,0-1,0.4-1,1v7H2c-0.6,0-1,0.4-1,1v52c0,0.6,0.4,1,1,1h60 c0.6,0,1-0.4,1-1V10C63,9.4,62.6,9,62,9z M17,22.4V4.3l13.3,11.5l-11.8,7.4C17.9,23.7,17,23.2,17,22.4z M33,33c0,0.6-0.4,1-1,1 s-1-0.4-1-1V20c0-0.6,0.4-1,1-1s1,0.4,1,1V33z M47,4.3v18.1c0,0.8-0.9,1.3-1.5,0.8l-11.8-7.4L47,4.3z M55,47c0,0.4-0.2,0.7-0.6,0.9 l-6,3C48.3,51,48.2,51,48,51s-0.3,0-0.4-0.1l-6-3C41.2,47.7,41,47.4,41,47V36c0-0.6,0.4-1,1-1h12c0.6,0,1,0.4,1,1V47z"></path></g></svg>