<svg xmlns="http://www.w3.org/2000/svg" height="64" width="64" viewBox="0 0 64 64"><title>shirt 3</title><g fill="#61616b" class="nc-icon-wrapper"><path fill="#61616b" d="M62,9H49V2c0-0.6-0.4-1-1-1H16c-0.6,0-1,0.4-1,1v7H2c-0.6,0-1,0.4-1,1v52c0,0.6,0.4,1,1,1h29V19 c0-0.6,0.4-1,1-1s1,0.4,1,1v44h29c0.6,0,1-0.4,1-1V10C63,9.4,62.6,9,62,9z M26,55h-1c-0.6,0-1-0.4-1-1s0.4-1,1-1h1c0.6,0,1,0.4,1,1 S26.6,55,26,55z M26,48h-1c-0.6,0-1-0.4-1-1s0.4-1,1-1h1c0.6,0,1,0.4,1,1S26.6,48,26,48z M26,41h-1c-0.6,0-1-0.4-1-1s0.4-1,1-1h1 c0.6,0,1,0.4,1,1S26.6,41,26,41z M26,34h-1c-0.6,0-1-0.4-1-1s0.4-1,1-1h1c0.6,0,1,0.4,1,1S26.6,34,26,34z M18.5,23.2 c-0.7,0.4-1.5-0.1-1.5-0.8V4.3l13.3,11.5L18.5,23.2z M47,22.4c0,0.8-0.9,1.3-1.5,0.8l-11.8-7.4L47,4.3V22.4z"></path></g></svg>