<svg xmlns="http://www.w3.org/2000/svg" height="64" width="64" viewBox="0 0 64 64"><title>shoe man 3</title><g fill="#61616b" class="nc-icon-wrapper"><path data-color="color-2" fill="#61616b" d="M1,46c0,0.6,0.4,1,1,1h16c0.6,0,1-0.4,1-1v-2H1V46z"></path> <path fill="#61616b" d="M58.5,35l-10-3.9l-8-6.2l-3.8,4.7C36.6,29.9,36.3,30,36,30c-0.2,0-0.4-0.1-0.6-0.2c-0.4-0.3-0.5-1-0.2-1.4 l3.7-4.7L35.5,21l-3.7,4.6C31.6,25.9,31.3,26,31,26c-0.2,0-0.4-0.1-0.6-0.2c-0.4-0.3-0.5-1-0.2-1.4l3.7-4.6l-3.3-2.6 C30.4,17.1,30.2,17,30,17h-4c-0.2,0-0.4,0.1-0.6,0.2c0,0-4.8,3.8-9.4,3.8c-4.6,0-9.3-3.7-9.4-3.8C6.4,17.1,6.2,17,6,17H2 c-0.6,0-1,0.4-1,1v24h18v-2l18.7,7c0.1,0,0.2,0,0.3,0h24c0.6,0,1-0.4,1-1v-4.4C63,38.6,61.2,36.1,58.5,35z"></path></g></svg>