<svg xmlns="http://www.w3.org/2000/svg" height="64" width="64" viewBox="0 0 64 64"><title>shorts 2</title><g fill="#61616b" class="nc-icon-wrapper"><path d="M15,16H58.612L58,8.913A1,1,0,0,0,57,8H7a1,1,0,0,0-1,.913L5.388,16Z" fill="#61616b" data-color="color-2"></path> <path d="M58.922,29.994,59.83,30,58.786,18H49.039C49.434,24.647,53.711,29.942,58.922,29.994Z" fill="#61616b"></path> <path d="M59.913,30.953,59.9,32l-1-.01C52.609,31.931,47.455,25.74,47.041,18H16.959C16.545,25.74,11.391,31.931,5.1,31.994L4.1,32l-.011-1.051L2,54.913A1,1,0,0,0,3,56H24a1,1,0,0,0,.937-.648l5.3-14.128a1.886,1.886,0,0,1,3.532,0h0l5.3,14.127A1,1,0,0,0,40,56H61a1,1,0,0,0,1-1.087Z" fill="#61616b"></path> <path d="M14.961,18H5.214L4.17,30l.908-.009C10.289,29.942,14.566,24.647,14.961,18Z" fill="#61616b"></path></g></svg>