<svg xmlns="http://www.w3.org/2000/svg" height="48" width="48" viewBox="0 0 48 48"><title>shorts 3</title><g fill="#61616b" class="nc-icon-wrapper"><path d="M44.314,13,44,7.938A1,1,0,0,0,43,7H5a1,1,0,0,0-1,.938L3.686,13Z" fill="#61616b" data-color="color-2"></path> <path d="M45,24h0l-.563-9H36A9.01,9.01,0,0,0,45,24Z" fill="#61616b"></path> <path d="M45,26A11.013,11.013,0,0,1,34,15H14A11.013,11.013,0,0,1,3,26H2.873L2,39.938A1,1,0,0,0,3,41H19a1,1,0,0,0,.97-.758l2.514-10.059a1.563,1.563,0,0,1,3.032,0L28.03,40.242A1,1,0,0,0,29,41H45a1,1,0,0,0,1-1.062L45.127,26Z" fill="#61616b"></path> <path d="M3,24a9.01,9.01,0,0,0,9-9H3.561L3,24Z" fill="#61616b"></path></g></svg>