<svg xmlns="http://www.w3.org/2000/svg" height="48" width="48" viewBox="0 0 48 48"><title>skirt 4</title><g fill="#61616b" class="nc-icon-wrapper"><rect data-color="color-2" x="19" y="5" fill="#61616b" width="10" height="7"></rect> <path data-color="color-2" fill="#61616b" d="M38,5h-7v7h7c0.6,0,1-0.4,1-1V6C39,5.4,38.6,5,38,5z"></path> <path data-color="color-2" fill="#61616b" d="M17,5h-7C9.4,5,9,5.4,9,6v5c0,0.6,0.4,1,1,1h7V5z"></path> <path fill="#61616b" d="M39.2,14H8.8L3,41.8c-0.1,0.3,0,0.6,0.2,0.8C3.4,42.9,3.7,43,4,43h40c0,0,0,0,0,0c0.6,0,1-0.4,1-1 c0-0.1,0-0.3-0.1-0.4L39.2,14z"></path></g></svg>