<svg xmlns="http://www.w3.org/2000/svg" height="64" width="64" viewBox="0 0 64 64"><title>skirt 3</title><g fill="#61616b" class="nc-icon-wrapper"><path data-color="color-2" fill="#61616b" d="M12,5c-0.6,0-1,0.4-1,1v8c0,0.6,0.4,1,1,1h13V5H12z"></path> <path data-color="color-2" fill="#61616b" d="M52,5H39v10h13c0.6,0,1-0.4,1-1V6C53,5.4,52.6,5,52,5z"></path> <rect data-color="color-2" x="27" y="5" fill="#61616b" width="10" height="10"></rect> <path fill="#61616b" d="M60.9,57.6L53.2,17H33v10c0,0.6-0.4,1-1,1s-1-0.4-1-1V17H10.8L3,57.8c-0.1,0.3,0,0.6,0.2,0.8 C3.4,58.9,3.7,59,4,59h56c0,0,0,0,0,0c0.6,0,1-0.4,1-1C61,57.9,61,57.7,60.9,57.6z"></path></g></svg>