<svg xmlns="http://www.w3.org/2000/svg" height="32" width="32" viewBox="0 0 32 32"><title>slacks 12 5</title><g fill="#61616b" class="nc-icon-wrapper"><path data-color="color-2" fill="#61616b" d="M15,4V0H3C2.4,0,2,0.4,2,1v3H15z"></path> <path data-color="color-2" fill="#61616b" d="M30,4V1c0-0.6-0.4-1-1-1H17v4H30z"></path> <path fill="#61616b" d="M29,14h1V6H17v4.9c0,0.6-0.4,1-1,1s-1-0.4-1-1V6H2v8h1c2.2,0,4-1.8,4-4V9h2v1c0,3.3-2.7,6-6,6H2v15 c0,0.6,0.4,1,1,1h11c0.6,0,1-0.4,1-1V19c0-0.6,0.4-1,1-1s1,0.4,1,1v12c0,0.6,0.4,1,1,1h11c0.6,0,1-0.4,1-1V16h-1c-3.3,0-6-2.7-6-6V9 h2v1C25,12.2,26.8,14,29,14z"></path></g></svg>