<svg xmlns="http://www.w3.org/2000/svg" height="64" width="64" viewBox="0 0 64 64"><title>slacks 13 2</title><g fill="#61616b" class="nc-icon-wrapper"><path data-color="color-2" fill="#61616b" d="M59,8V2c0-0.6-0.4-1-1-1H39v7H59z"></path> <rect data-color="color-2" x="27" y="1" fill="#61616b" width="10" height="7"></rect> <path data-color="color-2" fill="#61616b" d="M25,8V1H6C5.4,1,5,1.4,5,2v6H25z"></path> <path fill="#61616b" d="M48,20c0-0.6,0.4-1,1-1s1,0.4,1,1c0,5,4,9,9,9V10H33v12.8c0,0.6-0.4,1-1,1s-1-0.4-1-1V10H5v19c5,0,9-4,9-9 c0-0.6,0.4-1,1-1s1,0.4,1,1c0,6.1-4.9,11-11,11v31c0,0.6,0.4,1,1,1h22c0.6,0,1-0.4,1-1V38c0-1.7,1.3-3,3-3s3,1.3,3,3v24 c0,0.6,0.4,1,1,1h22c0.6,0,1-0.4,1-1V31C52.9,31,48,26.1,48,20z"></path></g></svg>