<svg xmlns="http://www.w3.org/2000/svg" height="24" width="24" viewBox="0 0 24 24"><title>slippers</title><g fill="#61616b" class="nc-icon-wrapper"><path d="M10.5,11.062a14.691,14.691,0,0,1,.258-2.994A12.9,12.9,0,0,0,11,5.5c0-2.07-.51-3.59-1.516-4.518A4.141,4.141,0,0,0,6.218,0C2.906.274,0,3.077,0,6a12,12,0,0,0,1.088,4.654c.238.612.483,1.244.708,1.959a22.68,22.68,0,0,1,.7,2.94A13.9,13.9,0,0,0,3.22,18.31a4,4,0,0,0,7.78-1.3,15.037,15.037,0,0,0-.234-2.769A18.374,18.374,0,0,1,10.5,11.062ZM6.381,2c.115-.01.225-.015.331-.015a2,2,0,0,1,1.416.471,3.946,3.946,0,0,1,.857,2.769A9.532,9.532,0,0,0,2.031,6.439C2.022,6.292,2,6.155,2,6,2,4.127,4.129,2.182,6.381,2ZM7,19a2.015,2.015,0,0,1-1.9-1.382,11.99,11.99,0,0,1-.63-2.43A24.929,24.929,0,0,0,3.729,12.1,5.573,5.573,0,0,1,8.5,11.219a20.324,20.324,0,0,0,.289,3.33A13.322,13.322,0,0,1,9,17,2,2,0,0,1,7,19Z" fill="#61616b"></path><path d="M13.5,14.062a14.672,14.672,0,0,0-.259-2.994A12.9,12.9,0,0,1,13,8.5c0-2.07.51-3.59,1.516-4.518A4.141,4.141,0,0,1,17.783,3C21.1,3.274,24,6.077,24,9a12,12,0,0,1-1.088,4.654c-.238.612-.483,1.244-.708,1.959a22.847,22.847,0,0,0-.7,2.94,13.834,13.834,0,0,1-.721,2.757,4,4,0,0,1-7.78-1.3,15.125,15.125,0,0,1,.234-2.769A18.356,18.356,0,0,0,13.5,14.062ZM17.62,5c-.115-.01-.225-.015-.331-.015a2,2,0,0,0-1.416.471,3.946,3.946,0,0,0-.857,2.769A9.532,9.532,0,0,1,21.97,9.439C21.979,9.292,22,9.155,22,9,22,7.127,19.872,5.182,17.62,5ZM17,22a2.015,2.015,0,0,0,1.9-1.382,11.99,11.99,0,0,0,.63-2.43,24.929,24.929,0,0,1,.737-3.087,5.573,5.573,0,0,0-4.772-.882,20.458,20.458,0,0,1-.288,3.33A13.228,13.228,0,0,0,15,20,2,2,0,0,0,17,22Z" fill="#61616b" data-color="color-2"></path></g></svg>