<svg xmlns="http://www.w3.org/2000/svg" height="64" width="64" viewBox="0 0 64 64"><title>sock 3</title><g fill="#61616b" class="nc-icon-wrapper"><path fill="#61616b" d="M29,29.6l-11,11L35.4,58l10.5-10.5c0,0,0,0,0,0C45.3,45.7,45,43.8,45,42c0-5.9,3.1-11.3,8-14.4V13H29V29.6z"></path> <path data-color="color-2" fill="#61616b" d="M53,11V2c0-0.6-0.4-1-1-1H30c-0.6,0-1,0.4-1,1v9H53z"></path> <path data-color="color-2" fill="#61616b" d="M16.6,42c-4.1,4.8-3.9,12.1,0.7,16.7c2.3,2.3,5.4,3.6,8.7,3.6c3,0,5.7-1,8-2.9L16.6,42z"></path> <path data-color="color-2" fill="#61616b" d="M47,42c0,1.3,0.2,2.6,0.5,3.9l5.2-5.2c0.2-0.2,0.3-0.4,0.3-0.7V30C49.3,32.8,47,37.3,47,42z"></path></g></svg>