<svg xmlns="http://www.w3.org/2000/svg" height="24" width="24" viewBox="0 0 24 24"><title>sports tank</title><g fill="#61616b" class="nc-icon-wrapper"><path d="M12.006,13a2.654,2.654,0,0,0,.936-.643,1.164,1.164,0,0,0,.267-.758.9.9,0,0,0-.342-.745,1.351,1.351,0,0,0-.875-.274,1.311,1.311,0,0,0-.871.277.915.915,0,0,0-.332.742,1.132,1.132,0,0,0,.264.734A2.882,2.882,0,0,0,12.006,13Z" fill="#61616b"></path> <path d="M11.9,14.805q-1.455.669-1.456,1.7a1.108,1.108,0,0,0,.41.916,1.749,1.749,0,0,0,1.122.328,1.753,1.753,0,0,0,1.175-.338,1.124,1.124,0,0,0,.39-.892,1.22,1.22,0,0,0-.386-.858A4.945,4.945,0,0,0,11.9,14.805Z" fill="#61616b"></path> <path d="M22.741,8.329A11.018,11.018,0,0,1,20,1a1,1,0,0,0-1-1H16a1,1,0,0,0-1,1A3,3,0,0,1,9,1,1,1,0,0,0,8,0H5A1,1,0,0,0,4,1,11.018,11.018,0,0,1,1.259,8.329,1,1,0,0,0,1,9V23a1,1,0,0,0,1,1H22a1,1,0,0,0,1-1V9A1,1,0,0,0,22.741,8.329Zm-8.2,10.218a4.022,4.022,0,0,1-2.536.749,4.236,4.236,0,0,1-2.577-.7,2.32,2.32,0,0,1-.937-1.976,2.621,2.621,0,0,1,.455-1.518,3.779,3.779,0,0,1,1.459-1.168,3.756,3.756,0,0,1-1.23-1.156A2.53,2.53,0,0,1,8.8,11.435,2.068,2.068,0,0,1,9.688,9.7a3.781,3.781,0,0,1,2.318-.663,3.788,3.788,0,0,1,2.314.653,2.081,2.081,0,0,1,.878,1.76,2.3,2.3,0,0,1-.424,1.364,3.608,3.608,0,0,1-1.367,1.07,4.869,4.869,0,0,1,1.611,1.254,2.342,2.342,0,0,1,.488,1.432A2.381,2.381,0,0,1,14.542,18.547Z" fill="#61616b"></path></g></svg>