<svg xmlns="http://www.w3.org/2000/svg" height="24" width="24" viewBox="0 0 24 24"><title>sport bag 5</title><g fill="#61616b" class="nc-icon-wrapper"><path d="M3,8C.928,8,0,11.516,0,15s.928,7,3,7H4V8Z" fill="#61616b" data-color="color-2"></path> <path d="M21,8H20V22h1c2.072,0,3-3.516,3-7S23.072,8,21,8Z" fill="#61616b" data-color="color-2"></path> <path d="M12,0A6.006,6.006,0,0,0,6,6V22H18V6A6.006,6.006,0,0,0,12,0ZM8,8V6a4,4,0,0,1,8,0V8Z" fill="#61616b"></path> <rect x="10" y="12" width="4" height="2" fill="#61616b"></rect></g></svg>