<svg xmlns="http://www.w3.org/2000/svg" height="32" width="32" viewBox="0 0 32 32"><title>sports tank 4</title><g fill="#61616b" class="nc-icon-wrapper"><path d="M15.9,19.185Q14.337,19.9,14.336,21a1.188,1.188,0,0,0,.44.982,1.876,1.876,0,0,0,1.2.351,1.881,1.881,0,0,0,1.261-.362,1.207,1.207,0,0,0,.417-.957,1.306,1.306,0,0,0-.414-.919A5.323,5.323,0,0,0,15.9,19.185Z" fill="#61616b"></path> <path d="M16.007,17.25a2.852,2.852,0,0,0,1-.688,1.252,1.252,0,0,0,.286-.814.97.97,0,0,0-.366-.8,1.459,1.459,0,0,0-.938-.293,1.411,1.411,0,0,0-.935.3.983.983,0,0,0-.355.8,1.219,1.219,0,0,0,.282.788A3.1,3.1,0,0,0,16.007,17.25Z" fill="#61616b"></path> <path d="M29.7,12.281C27.381,10.044,26,5.827,26,1a1,1,0,0,0-1-1H22a1,1,0,0,0-1,1A5,5,0,0,1,11,1a1,1,0,0,0-1-1H7A1,1,0,0,0,6,1c0,3.667-.974,8.56-3.707,11.293A1,1,0,0,0,2,13V31a1,1,0,0,0,1,1H29a1,1,0,0,0,1-1V13A1,1,0,0,0,29.7,12.281ZM18.726,23.2a4.316,4.316,0,0,1-2.719.8,4.537,4.537,0,0,1-2.762-.747,2.486,2.486,0,0,1-1-2.118,2.808,2.808,0,0,1,.488-1.627,4.041,4.041,0,0,1,1.564-1.253,4.012,4.012,0,0,1-1.319-1.239,2.715,2.715,0,0,1-.4-1.444,2.217,2.217,0,0,1,.953-1.861A4.047,4.047,0,0,1,16.007,13a4.063,4.063,0,0,1,2.481.7,2.232,2.232,0,0,1,.942,1.887,2.465,2.465,0,0,1-.455,1.462A3.864,3.864,0,0,1,17.51,18.2a5.2,5.2,0,0,1,1.726,1.345,2.505,2.505,0,0,1,.524,1.535A2.556,2.556,0,0,1,18.726,23.2Z" fill="#61616b"></path></g></svg>