<svg xmlns="http://www.w3.org/2000/svg" height="64" width="64" viewBox="0 0 64 64"><title>sports tank 2</title><g fill="#61616b" class="nc-icon-wrapper"><path d="M32,33.792c2.836-1.631,3.619-3.166,3.619-3.852,0-.792,0-2.44-3.619-2.44s-3.619,1.648-3.619,2.44C28.381,30.626,29.164,32.161,32,33.792Z" fill="#61616b"></path> <path d="M32,44.5c2.455,0,4.452-1.229,4.452-2.739,0-1.311-.766-2.552-4.452-4.561-3.686,2.009-4.452,3.25-4.452,4.561C27.548,43.271,29.545,44.5,32,44.5Z" fill="#61616b"></path> <path data-color="color-2" d="M6,56v5a2,2,0,0,0,2,2H56a2,2,0,0,0,2-2V56Z" fill="#61616b"></path> <path d="M58,54V26a1,1,0,0,0-.3-.713C50.75,18.452,50,6.725,50,2a1,1,0,0,0-1-1H44a1,1,0,0,0-1,1A11,11,0,0,1,21,2a1,1,0,0,0-1-1H15a1,1,0,0,0-1,1c0,4.686-.751,16.337-7.707,23.293A1,1,0,0,0,6,26V54ZM25.381,29.94c0-3.457,2.412-5.44,6.619-5.44s6.619,1.983,6.619,5.44c0,.957-.4,3.184-3.65,5.51,2.816,1.746,4.483,3.591,4.483,6.311,0,3.272-3.2,5.739-7.452,5.739s-7.452-2.467-7.452-5.739c0-2.72,1.667-4.565,4.483-6.311C25.783,33.124,25.381,30.9,25.381,29.94Z" fill="#61616b"></path></g></svg>