<svg xmlns="http://www.w3.org/2000/svg" height="48" width="48" viewBox="0 0 48 48"><title>sports tank 3</title><g fill="#61616b" class="nc-icon-wrapper"><path d="M24,23.512c2.026-1.159,2.583-2.261,2.583-2.754,0-.57,0-1.758-2.583-1.758s-2.583,1.188-2.583,1.758C21.417,21.251,21.974,22.353,24,23.512Z" fill="#61616b"></path> <path d="M24,31c1.746,0,3.167-.882,3.167-1.967,0-.939-.545-1.823-3.167-3.25-2.622,1.427-3.167,2.311-3.167,3.25C20.833,30.118,22.254,31,24,31Z" fill="#61616b"></path> <path data-color="color-2" d="M4,42v3a2,2,0,0,0,2,2H42a2,2,0,0,0,2-2V42Z" fill="#61616b"></path> <path d="M44,40V18a1,1,0,0,0-.25-.661C40.6,13.761,39,8.6,39,2a1,1,0,0,0-1-1H32a1,1,0,0,0-1,1A7,7,0,0,1,17,2a1,1,0,0,0-1-1H10A1,1,0,0,0,9,2C9,8.6,7.4,13.761,4.25,17.339A1,1,0,0,0,4,18V40ZM22.012,24.618c-2.311-1.63-2.595-3.192-2.595-3.86C19.417,18.37,21.087,17,24,17s4.583,1.37,4.583,3.758c0,.668-.284,2.23-2.595,3.86,2,1.225,3.179,2.512,3.179,4.415C29.167,31.294,26.945,33,24,33s-5.167-1.706-5.167-3.967C18.833,27.13,20.017,25.843,22.012,24.618Z" fill="#61616b"></path></g></svg>