<svg xmlns="http://www.w3.org/2000/svg" height="64" width="64" viewBox="0 0 64 64"><title>sports bra 3</title><g fill="#61616b" class="nc-icon-wrapper"><path d="M55.219,49C56.611,46.949,61,39.94,61,33.175,61,20.9,55.184,5.306,54.936,4.647A1,1,0,0,0,54,4H46a1,1,0,0,0-.94,1.341c4.017,11.091,4.125,18.25.318,21.276C42.515,28.894,38.139,30,32,30s-10.515-1.106-13.378-3.382c-3.807-3.027-3.7-10.186.318-21.277A1,1,0,0,0,18,4H10a1,1,0,0,0-.936.647C8.816,5.306,3,20.9,3,33.175,3,39.94,7.389,46.949,8.781,49Z" fill="#61616b"></path> <path d="M9,51v8a1,1,0,0,0,1,1H54a1,1,0,0,0,1-1V51Z" fill="#61616b" data-color="color-2"></path></g></svg>