<svg xmlns="http://www.w3.org/2000/svg" height="48" width="48" viewBox="0 0 48 48"><title>sports bra 2</title><g fill="#61616b" class="nc-icon-wrapper"><path d="M42.135,37C43.047,35.264,46,29.244,46,24.131c0-9.274-4.87-21.022-5.077-21.517A1,1,0,0,0,40,2H35a1,1,0,0,0-.94,1.341c1.025,2.828,4.041,12.318-.182,15.677C31.384,21,25.826,21,24,21s-7.384,0-9.878-1.983C9.9,15.659,12.915,6.169,13.94,3.341A1,1,0,0,0,13,2H8a1,1,0,0,0-.923.614C6.87,3.109,2,14.857,2,24.131,2,29.244,4.953,35.264,5.865,37Z" fill="#61616b"></path> <path d="M6,39v6a1,1,0,0,0,1,1H41a1,1,0,0,0,1-1V39Z" fill="#61616b" data-color="color-2"></path></g></svg>