<svg xmlns="http://www.w3.org/2000/svg" height="32" width="32" viewBox="0 0 32 32"><title>sports bra 4</title><g fill="#61616b" class="nc-icon-wrapper"><path d="M28,24a13.768,13.768,0,0,0,3-7.912c0-6.231-2.939-14.109-3.064-14.441A1,1,0,0,0,27,1H23a1,1,0,0,0-.94,1.341c1.927,5.321,2.034,8.711.317,10.076C20.874,13.613,18,14,16,14s-4.874-.387-6.377-1.582c-1.717-1.366-1.61-4.756.317-10.077A1,1,0,0,0,9,1H5a1,1,0,0,0-.936.647C3.939,1.979,1,9.857,1,16.088A13.768,13.768,0,0,0,4,24Z" fill="#61616b"></path> <path d="M4,26v4a1,1,0,0,0,1,1H27a1,1,0,0,0,1-1V26Z" fill="#61616b" data-color="color-2"></path></g></svg>