<svg xmlns="http://www.w3.org/2000/svg" height="24" width="24" viewBox="0 0 24 24"><title>sports bra 5</title><g fill="#61616b" class="nc-icon-wrapper"><path d="M21.153,18A13.687,13.687,0,0,0,23,12.062c0-4.49-1.973-10.155-2.057-10.393A1,1,0,0,0,20,1H18a1,1,0,0,0-.94,1.341c.833,2.3,1.151,5.228-.014,6.592C16.133,10,13.13,10,12,10S7.867,10,6.955,8.934C5.789,7.569,6.107,4.64,6.94,2.341A1,1,0,0,0,6,1H4a1,1,0,0,0-.943.669C2.973,1.907,1,7.572,1,12.062A13.687,13.687,0,0,0,2.847,18Z" fill="#61616b"></path> <path d="M3,20v2a1,1,0,0,0,1,1H20a1,1,0,0,0,1-1V20Z" fill="#61616b" data-color="color-2"></path></g></svg>