<svg xmlns="http://www.w3.org/2000/svg" height="48" width="48" viewBox="0 0 48 48"><title>sport bag 3</title><g fill="#61616b" class="nc-icon-wrapper"><path d="M6,17c-3.282,0-5,6.54-5,13S2.718,43,6,43h5V17Z" fill="#61616b" data-color="color-2"></path> <path d="M42,17H37V43h5c3.282,0,5-6.54,5-13S45.282,17,42,17Z" fill="#61616b" data-color="color-2"></path> <path d="M24,1A11,11,0,0,0,13,12V43H35V12A11,11,0,0,0,24,1Zm4,26a1,1,0,0,1-1,1H21a1,1,0,0,1-1-1V25a1,1,0,0,1,1-1h6a1,1,0,0,1,1,1Zm4-10H16V12a8,8,0,0,1,16,0Z" fill="#61616b"></path></g></svg>