<svg xmlns="http://www.w3.org/2000/svg" height="16" width="16" viewBox="0 0 16 16"><title>sports bra</title><g fill="#61616b" class="nc-icon-wrapper"><path d="M14,13a9.579,9.579,0,0,0,2-4.956,25.368,25.368,0,0,0-1.564-7.4A1,1,0,0,0,13.5,0H12a1,1,0,0,0-.94,1.341c.51,1.41.732,3.75-.183,4.476A5.909,5.909,0,0,1,8,6.5a5.9,5.9,0,0,1-2.878-.684c-.914-.725-.692-3.065-.182-4.475A1,1,0,0,0,4,0H2.5a1,1,0,0,0-.936.647A25.368,25.368,0,0,0,0,8.044,9.579,9.579,0,0,0,2,13Z" fill="#61616b"></path> <path d="M2,14v1a1,1,0,0,0,1,1H13a1,1,0,0,0,1-1V14Z" fill="#61616b" data-color="color-2"></path></g></svg>