<svg xmlns="http://www.w3.org/2000/svg" height="64" width="64" viewBox="0 0 64 64"><title>sport bag 2</title><g fill="#61616b" class="nc-icon-wrapper"><path d="M9,24c-4.547,0-7,8.759-7,17S4.453,58,9,58h5V24Z" fill="#61616b" data-color="color-2"></path> <path d="M55,24H50V58h5c4.547,0,7-8.759,7-17S59.547,24,55,24Z" fill="#61616b" data-color="color-2"></path> <path d="M32,2A15,15,0,0,0,17,17V58H47V17A15,15,0,0,0,32,2Zm7,31v6a1,1,0,0,1-1,1H26a1,1,0,0,1-1-1V33a1,1,0,0,1,1-1H38A1,1,0,0,1,39,33Zm4-9H21V17a11,11,0,0,1,22,0Z" fill="#61616b"></path></g></svg>