<svg xmlns="http://www.w3.org/2000/svg" height="48" width="48" viewBox="0 0 48 48"><title>swimsuit 3</title><g fill="#61616b" class="nc-icon-wrapper"><path data-color="color-2" d="M43,8V2a1,1,0,0,0-1-1H6A1,1,0,0,0,5,2V8Z" fill="#61616b"></path> <path d="M33,15a1,1,0,0,1,2,0c0,3.484,1.855,7,6,7h2V10H25v9a1,1,0,0,1-2,0V10H5V22H7c4.145,0,6-3.516,6-7a1,1,0,0,1,2,0c0,5.3-3.29,9-8,9H5V46a1,1,0,0,0,1,1H17a1,1,0,0,0,.97-.757l4.514-18.06a1.563,1.563,0,0,1,3.032,0l4.514,18.06A1,1,0,0,0,31,47H42a1,1,0,0,0,1-1V24H41C36.29,24,33,20.3,33,15Z" fill="#61616b"></path></g></svg>