<svg xmlns="http://www.w3.org/2000/svg" height="64" width="64" viewBox="0 0 64 64"><title>swimsuit 2</title><g fill="#61616b" class="nc-icon-wrapper"><path data-color="color-2" d="M56,9V2a1,1,0,0,0-1-1H9A1,1,0,0,0,8,2V9Z" fill="#61616b"></path> <path d="M53,28a8.009,8.009,0,0,1-8-8V16a1,1,0,0,1,2,0v4a6.006,6.006,0,0,0,6,6h3V11H33V23a1,1,0,0,1-2,0V11H8V26h3a6.006,6.006,0,0,0,6-6V16a1,1,0,0,1,2,0v4a8.009,8.009,0,0,1-8,8H8V62a1,1,0,0,0,1,1H23a1,1,0,0,0,.986-.835L28.329,36.11h0a3.722,3.722,0,0,1,7.342,0l4.343,26.055A1,1,0,0,0,41,63H55a1,1,0,0,0,1-1V28Z" fill="#61616b"></path></g></svg>