<svg xmlns="http://www.w3.org/2000/svg" height="32" width="32" viewBox="0 0 32 32"><title>swimsuit 4</title><g fill="#61616b" class="nc-icon-wrapper"><path data-color="color-2" d="M30,4V1a1,1,0,0,0-1-1H3A1,1,0,0,0,2,1V4Z" fill="#61616b"></path><path d="M24,9a1,1,0,0,1,2,0,4,4,0,0,0,4,4V6H17v6a1,1,0,0,1-2,0V6H2v7A4,4,0,0,0,6,9,1,1,0,0,1,8,9a6.006,6.006,0,0,1-6,6V31a1,1,0,0,0,1,1h8a1,1,0,0,0,.978-.791l2.581-12.044a1.474,1.474,0,0,1,2.882,0l2.581,12.044A1,1,0,0,0,21,32h8a1,1,0,0,0,1-1V15A6.006,6.006,0,0,1,24,9Z" fill="#61616b"></path></g></svg>