<svg xmlns="http://www.w3.org/2000/svg" height="24" width="24" viewBox="0 0 24 24"><title>swimsuit</title><g fill="#61616b" class="nc-icon-wrapper"><path d="M22,9V5H19V6A3,3,0,0,0,22,9Z" fill="#61616b"></path> <path data-color="color-2" d="M13,3h9V1a1,1,0,0,0-1-1H3A1,1,0,0,0,2,1V3H13Z" fill="#61616b"></path> <path d="M17,6V5H13v5H11V5H7V6a5.006,5.006,0,0,1-5,5V23a1,1,0,0,0,1,1H9a1,1,0,0,0,.994-.89l.779-7.012h0a1.235,1.235,0,0,1,2.454,0l.779,7.012A1,1,0,0,0,15,24h6a1,1,0,0,0,1-1V11A5.006,5.006,0,0,1,17,6Z" fill="#61616b"></path> <path d="M5,6V5H2V9A3,3,0,0,0,5,6Z" fill="#61616b"></path></g></svg>