<svg xmlns="http://www.w3.org/2000/svg" height="32" width="32" viewBox="0 0 32 32"><title>tie 01 5</title><g fill="#61616b" class="nc-icon-wrapper"><path data-color="color-2" fill="#61616b" d="M12.143,6.515C12.323,6.816,12.649,7,13,7h6c0.351,0,0.677-0.184,0.857-0.485l3-5 c0.186-0.309,0.19-0.694,0.013-1.007C22.693,0.194,22.36,0,22,0H10C9.64,0,9.307,0.194,9.13,0.507 C8.952,0.821,8.957,1.206,9.143,1.515L12.143,6.515z"></path> <path fill="#61616b" d="M23.961,23.725l-4-14C19.839,9.296,19.446,9,19,9h-6c-0.446,0-0.839,0.296-0.961,0.725l-4,14 c-0.1,0.35-0.002,0.725,0.254,0.982l7,7C15.488,31.902,15.744,32,16,32s0.512-0.098,0.707-0.293l7-7 C23.964,24.45,24.062,24.075,23.961,23.725z"></path></g></svg>