<svg xmlns="http://www.w3.org/2000/svg" height="64" width="64" viewBox="0 0 64 64"><title>tie bow 3</title><g fill="#61616b" class="nc-icon-wrapper"><path data-color="color-2" fill="#61616b" d="M32,19c-3.9,0-7,3.1-7,7v12c0,3.9,3.1,7,7,7s7-3.1,7-7V26C39,22.1,35.9,19,32,19z"></path> <path fill="#61616b" d="M59.5,14.2c-2.2-1.3-4.8-1.3-7-0.1l-12.8,7.2c0.8,1.3,1.3,2.9,1.3,4.6v5h7c0.6,0,1,0.4,1,1s-0.4,1-1,1h-7v5 c0,1.7-0.5,3.3-1.3,4.6l12.8,7.2c1.1,0.6,2.3,0.9,3.4,0.9c1.2,0,2.4-0.3,3.5-1c2.2-1.3,3.5-3.5,3.5-6V20.3 C63,17.7,61.7,15.5,59.5,14.2z"></path> <path fill="#61616b" d="M23,33h-7c-0.6,0-1-0.4-1-1s0.4-1,1-1h7v-5c0-1.7,0.5-3.3,1.3-4.6l-12.9-7.2c-2.2-1.2-4.8-1.2-7,0.1 c-2.2,1.3-3.5,3.5-3.5,6v23.5c0,2.5,1.3,4.8,3.5,6c1.1,0.6,2.3,1,3.5,1c1.2,0,2.4-0.3,3.4-0.9l12.9-7.2C23.5,41.3,23,39.7,23,38V33z "></path></g></svg>