<svg xmlns="http://www.w3.org/2000/svg" height="32" width="32" viewBox="0 0 32 32"><title>tie bow 5</title><g fill="#61616b" class="nc-icon-wrapper"><path data-color="color-2" fill="#61616b" d="M16,9c-2.2,0-4,1.8-4,4v6c0,2.2,1.8,4,4,4s4-1.8,4-4v-6C20,10.8,18.2,9,16,9z"></path> <path fill="#61616b" d="M30,6.7c-1.2-0.7-2.7-0.7-4,0l-5.1,2.9c0.7,1,1.1,2.2,1.1,3.5v2h3c0.6,0,1,0.4,1,1s-0.4,1-1,1h-3v2 c0,1.3-0.4,2.5-1.1,3.5l5.1,2.9c0.6,0.3,1.3,0.5,2,0.5c0.7,0,1.4-0.2,2-0.6c1.2-0.7,2-2,2-3.5V10.1C32,8.7,31.3,7.4,30,6.7z"></path> <path fill="#61616b" d="M10,17H7c-0.6,0-1-0.4-1-1s0.4-1,1-1h3v-2c0-1.3,0.4-2.5,1.1-3.5L6,6.6C4.7,5.9,3.2,6,2,6.7 c-1.2,0.7-2,2-2,3.5v11.7c0,1.4,0.7,2.7,2,3.5c0.6,0.4,1.3,0.6,2,0.6c0.7,0,1.3-0.2,2-0.5l5.1-2.9c-0.7-1-1.1-2.2-1.1-3.5V17z"></path></g></svg>