<svg xmlns="http://www.w3.org/2000/svg" height="48" width="48" viewBox="0 0 48 48"><title>tshirt sport 3</title><g fill="#61616b" class="nc-icon-wrapper"><path d="M24.011,24.512c2.025-1.159,2.583-2.261,2.583-2.754,0-.57,0-1.758-2.583-1.758s-2.583,1.188-2.583,1.758C21.428,22.251,21.985,23.354,24.011,24.512Z" fill="#61616b"></path> <path d="M24.011,26.783c-2.623,1.427-3.167,2.311-3.167,3.25,0,1.085,1.421,1.967,3.167,1.967s3.167-.882,3.167-1.967C27.178,29.094,26.633,28.21,24.011,26.783Z" fill="#61616b"></path> <path d="M38,1H32a1.007,1.007,0,0,0-1,1.011c-.009,5.61-6.652,9.694-12.485,4.811a5.157,5.157,0,0,1-1.522-4.7A1,1,0,0,0,16,1H10A8,8,0,0,0,2,9V24a1,1,0,0,0,1,1H8V19a1,1,0,0,1,2,0V46a1,1,0,0,0,1,1H37a1,1,0,0,0,1-1V19a1,1,0,0,1,2,0v6h5a1,1,0,0,0,1-1V9A8,8,0,0,0,38,1ZM24.011,34c-2.946,0-5.167-1.706-5.167-3.967,0-1.9,1.182-3.19,3.179-4.415-2.311-1.63-2.595-3.192-2.595-3.86C19.428,19.37,21.1,18,24.011,18s4.583,1.37,4.583,3.758c0,.668-.285,2.23-2.6,3.86,2,1.225,3.18,2.512,3.18,4.415C29.178,32.294,26.956,34,24.011,34Z" fill="#61616b"></path></g></svg>