<svg xmlns="http://www.w3.org/2000/svg" height="64" width="64" viewBox="0 0 64 64"><title>tshirt sport 2</title><g fill="#61616b" class="nc-icon-wrapper"><path d="M32,38.2c-3.725,2.013-4.5,3.254-4.5,4.564,0,1.51,2.019,2.739,4.5,2.739s4.5-1.229,4.5-2.739C36.5,41.451,35.725,40.21,32,38.2Z" fill="#61616b"></path> <path d="M32,34.8c2.869-1.633,3.66-3.169,3.66-3.855,0-.792,0-2.44-3.66-2.44s-3.66,1.648-3.66,2.44C28.34,31.626,29.131,33.162,32,34.8Z" fill="#61616b"></path> <path d="M51,2H42a1,1,0,0,0-1,1A9,9,0,0,1,23,3a1,1,0,0,0-1-1H13A11.013,11.013,0,0,0,2,13V31a1,1,0,0,0,1,1h8V24a1,1,0,0,1,2,0V61a1,1,0,0,0,1,1H50a1,1,0,0,0,1-1V24a1,1,0,0,1,2,0v8h8a1,1,0,0,0,1-1V13A11.013,11.013,0,0,0,51,2ZM32,48.5c-4.276,0-7.5-2.467-7.5-5.739,0-2.721,1.678-4.566,4.515-6.311-3.27-2.325-3.675-4.552-3.675-5.51,0-3.457,2.428-5.44,6.66-5.44s6.66,1.983,6.66,5.44c0,.958-.4,3.185-3.675,5.51C37.822,38.2,39.5,40.04,39.5,42.761,39.5,46.033,36.276,48.5,32,48.5Z" fill="#61616b"></path></g></svg>