<svg xmlns="http://www.w3.org/2000/svg" height="24" width="24" viewBox="0 0 24 24"><title>tshirt sport</title><g fill="#61616b" class="nc-icon-wrapper"><path d="M11.906,14.629q-1.419.654-1.419,1.652a1.079,1.079,0,0,0,.4.893,1.706,1.706,0,0,0,1.093.32,1.708,1.708,0,0,0,1.146-.33,1.1,1.1,0,0,0,.38-.869,1.192,1.192,0,0,0-.376-.836A4.837,4.837,0,0,0,11.906,14.629Z" fill="#61616b"></path> <path d="M12.006,12.87a2.6,2.6,0,0,0,.912-.626,1.134,1.134,0,0,0,.26-.739.878.878,0,0,0-.333-.726,1.32,1.32,0,0,0-.853-.267,1.281,1.281,0,0,0-.849.27.892.892,0,0,0-.323.723,1.1,1.1,0,0,0,.257.716A2.8,2.8,0,0,0,12.006,12.87Z" fill="#61616b"></path> <path d="M19,0H16a4,4,0,0,1-4,4A4,4,0,0,1,8,0H5A5.006,5.006,0,0,0,0,5v7a1,1,0,0,0,1,1H3V9.5a.5.5,0,0,1,1,0V23a1,1,0,0,0,1,1H19a1,1,0,0,0,1-1V9.5a.5.5,0,0,1,1,0V13h2a1,1,0,0,0,1-1V5A5.006,5.006,0,0,0,19,0ZM14.477,18.277a3.919,3.919,0,0,1-2.471.729,4.124,4.124,0,0,1-2.512-.679A2.261,2.261,0,0,1,8.581,16.4a2.55,2.55,0,0,1,.444-1.479,3.685,3.685,0,0,1,1.422-1.139,3.661,3.661,0,0,1-1.2-1.126,2.469,2.469,0,0,1-.366-1.312,2.012,2.012,0,0,1,.866-1.692,3.683,3.683,0,0,1,2.259-.647,3.692,3.692,0,0,1,2.255.637,2.029,2.029,0,0,1,.856,1.715,2.246,2.246,0,0,1-.413,1.329,3.52,3.52,0,0,1-1.333,1.043,4.729,4.729,0,0,1,1.57,1.222,2.282,2.282,0,0,1,.476,1.4A2.322,2.322,0,0,1,14.477,18.277Z" fill="#61616b"></path></g></svg>