<svg xmlns="http://www.w3.org/2000/svg" height="64" width="64" viewBox="0 0 64 64"><title>underwear man 3</title><g fill="#61616b" class="nc-icon-wrapper"><path fill="#61616b" d="M19,19H1v19c0,0.6,0.4,1,1,1h8c0.2,0,0.4,0,0.6,0C17.2,33.3,18.8,25.2,19,19z"></path> <path data-color="color-2" fill="#61616b" d="M63,17v-7c0-0.6-0.4-1-1-1H2c-0.6,0-1,0.4-1,1v7H63z"></path> <path fill="#61616b" d="M43,19H21c-0.1,6.2-1.7,14.3-7.9,20.4C17.6,40.8,21,45,21,50v4c0,0.6,0.4,1,1,1h20c0.6,0,1-0.4,1-1v-4 c0-5,3.4-9.2,7.9-10.6C44.8,33.3,43.2,25.2,43,19z"></path> <path fill="#61616b" d="M45,19c0.2,6.2,1.8,14.3,8.4,20c0.2,0,0.4,0,0.6,0h8c0.6,0,1-0.4,1-1V19H45z"></path></g></svg>