<svg xmlns="http://www.w3.org/2000/svg" height="48" width="48" viewBox="0 0 48 48"><title>underwear man 4</title><g fill="#61616b" class="nc-icon-wrapper"><path data-color="color-2" fill="#61616b" d="M47,14V8c0-0.6-0.4-1-1-1H2C1.4,7,1,7.4,1,8v6H47z"></path> <path fill="#61616b" d="M15,16H1v12c0,0.6,0.4,1,1,1h2c1.5,0,2.9,0.3,4.2,0.8C12,26.3,14.6,20.4,15,16z"></path> <path fill="#61616b" d="M31,16H17c-0.3,4.6-2.9,10.8-6.9,14.8c3,2,5,5.4,5,9.2c0,0.6,0.4,1,1,1h16c0.6,0,1-0.4,1-1 c0-3.8,2-7.2,5-9.2C33.9,26.8,31.4,20.6,31,16z"></path> <path fill="#61616b" d="M33,16c0.4,4.4,2.9,10.3,6.8,13.8c1.3-0.5,2.7-0.8,4.2-0.8h2c0.6,0,1-0.4,1-1V16H33z"></path></g></svg>