<svg xmlns="http://www.w3.org/2000/svg" height="32" width="32" viewBox="0 0 32 32"><title>underwear man 5</title><g fill="#61616b" class="nc-icon-wrapper"><path fill="#61616b" d="M9,10H0v9c0,0.6,0.4,1,1,1h3.8C8,16.7,8.8,12.5,9,10z"></path> <path data-color="color-2" fill="#61616b" d="M9,8h2h10h2h9V5c0-0.6-0.4-1-1-1H1C0.4,4,0,4.4,0,5v3H9z"></path> <path fill="#61616b" d="M23,10c0.1,2.5,0.9,6.7,4.2,10H31c0.6,0,1-0.4,1-1v-9H23z"></path> <path fill="#61616b" d="M21,10H11c-0.1,2.5-0.9,6.8-3.9,10.5C8.8,21.2,10,23,10,25v2c0,0.6,0.4,1,1,1h10c0.6,0,1-0.4,1-1v-2 c0-2,1.2-3.8,2.9-4.5C21.9,16.8,21.2,12.5,21,10z"></path></g></svg>