<svg xmlns="http://www.w3.org/2000/svg" height="32" width="32" viewBox="0 0 32 32"><title>wash 60 4</title><g fill="#61616b" class="nc-icon-wrapper"><path fill="#61616b" d="M20.5,16c-0.8,0-1.5,0.7-1.5,1.5v3c0,0.8,0.7,1.5,1.5,1.5s1.5-0.7,1.5-1.5v-3C22,16.7,21.3,16,20.5,16z"></path> <path fill="#61616b" d="M11,22h1c0.6,0,1-0.4,1-1s-0.4-1-1-1h-1c-0.6,0-1,0.4-1,1S10.4,22,11,22z"></path> <path fill="#61616b" d="M31,3c-0.6,0-1,0.4-1,1v4.1C29.1,8.7,28,9,26.9,9c-1.8,0-3.5-0.9-4.7-2.4c-0.4-0.5-1.2-0.5-1.6,0 C19.5,8.1,17.8,9,16,9c-1.8,0-3.5-0.9-4.7-2.4c-0.4-0.5-1.2-0.5-1.6,0C8.6,8.1,6.9,9,5.1,9C4,9,2.9,8.7,2,8.1V4c0-0.6-0.4-1-1-1 S0,3.4,0,4v24c0,0.6,0.4,1,1,1h30c0.6,0,1-0.4,1-1V4C32,3.4,31.6,3,31,3z M11,18h1c1.7,0,3,1.3,3,3s-1.3,3-3,3h-1c-1.7,0-3-1.3-3-3 c0,0,0,0,0,0v-4c0-1.7,1.3-3,3-3h3c0.6,0,1,0.4,1,1s-0.4,1-1,1h-3c-0.6,0-1,0.4-1,1v1.2C10.3,18.1,10.6,18,11,18z M24,20.5 c0,1.9-1.6,3.5-3.5,3.5S17,22.4,17,20.5v-3c0-1.9,1.6-3.5,3.5-3.5s3.5,1.6,3.5,3.5V20.5z"></path></g></svg>