<svg xmlns="http://www.w3.org/2000/svg" height="48" width="48" viewBox="0 0 48 48"><title>wash hand 3</title><g fill="#61616b" class="nc-icon-wrapper"><path fill="#61616b" d="M5,22.5V41h38V22.5c-1.3,0.5-2.7,0.6-4,0.5V4c0-0.6-0.4-1-1-1H18c-0.6,0-1,0.4-1,1v7.3L11.3,17 c-0.8,0.8-1.2,1.8-1.2,2.8c0,1,0.4,1.9,1,2.6c-1,0.4-2,0.6-3.1,0.6C7,23.1,6,22.9,5,22.5z M12.7,18.4l6-6c0.2-0.2,0.3-0.4,0.3-0.7V5 h18v29.5c0,0.8-0.7,1.5-1.5,1.5S34,35.3,34,34.5V26c0-0.6-0.4-1-1-1s-1,0.4-1,1v8.5c0,0.8-0.7,1.5-1.5,1.5S29,35.3,29,34.5V26 c0-0.6-0.4-1-1-1s-1,0.4-1,1v8.5c0,0.8-0.7,1.5-1.5,1.5S24,35.3,24,34.5V26c0-0.6-0.4-1-1-1s-1,0.4-1,1v8.5c0,0.8-0.7,1.5-1.5,1.5 S19,35.3,19,34.5V20.2c0-0.4-0.2-0.8-0.6-0.9c-0.4-0.2-0.8-0.1-1.1,0.2l-1.8,1.8c-0.8,0.8-2.1,0.8-2.8,0c-0.4-0.4-0.6-0.9-0.6-1.4 S12.3,18.8,12.7,18.4z"></path> <path fill="#61616b" d="M46,7c-0.6,0-1,0.4-1,1v35H3V8c0-0.6-0.4-1-1-1S1,7.4,1,8v36c0,0.6,0.4,1,1,1h44c0.6,0,1-0.4,1-1V8 C47,7.4,46.6,7,46,7z"></path></g></svg>