<svg xmlns="http://www.w3.org/2000/svg" height="32" width="32" viewBox="0 0 32 32"><title>wash hand 4</title><g fill="#61616b" class="nc-icon-wrapper"><path fill="#61616b" d="M31,5c-0.6,0-1,0.4-1,1v4.1c-0.9,0.6-2,0.9-3.1,0.9c-0.7,0-1.3-0.1-1.9-0.3V2c0-0.6-0.4-1-1-1H12 c-0.6,0-1,0.4-1,1v4.6l-4.1,4.1C5.3,11.2,3.5,11,2,10.1V6c0-0.6-0.4-1-1-1S0,5.4,0,6v24c0,0.6,0.4,1,1,1h30c0.6,0,1-0.4,1-1V6 C32,5.4,31.6,5,31,5z M12.7,7.7C12.9,7.5,13,7.3,13,7V3h10v16v2v3c0,0.6-0.4,1-1,1s-1-0.4-1-1v-5c0-0.6-0.4-1-1-1s-1,0.4-1,1v5 c0,0.6-0.4,1-1,1s-1-0.4-1-1v-5c0-0.6-0.4-1-1-1s-1,0.4-1,1v5c0,0.6-0.4,1-1,1s-1-0.4-1-1V13c0-0.4-0.2-0.8-0.6-0.9 c-0.4-0.2-0.8-0.1-1.1,0.2l-2.5,2.5c-0.4,0.4-1.2,0.4-1.6,0C7,14.6,6.9,14.3,6.9,14s0.1-0.6,0.3-0.8l0.9-0.9l0,0L12.7,7.7z"></path></g></svg>