<svg xmlns="http://www.w3.org/2000/svg" height="64" width="64" viewBox="0 0 64 64"><title>wash 30 2</title><g fill="#61616b" class="nc-icon-wrapper"><path fill="#61616b" d="M62,57H2c-0.6,0-1-0.4-1-1V8c0-0.6,0.4-1,1-1s1,0.4,1,1v47h58V8c0-0.6,0.4-1,1-1s1,0.4,1,1v48 C63,56.6,62.6,57,62,57z"></path> <path data-color="color-2" fill="#61616b" d="M41,28c-2.2,0-4,1.8-4,4v6c0,2.2,1.8,4,4,4s4-1.8,4-4v-6C45,29.8,43.2,28,41,28z"></path> <path data-color="color-2" fill="#61616b" d="M53.8,19c-4,0-7.7-1.9-10.1-5.1c-0.2-0.3-0.5-0.4-0.8-0.4c-0.3,0-0.6,0.1-0.8,0.4 C39.7,17.1,36,19,32,19c-4,0-7.7-1.9-10.1-5.1c-0.2-0.3-0.5-0.4-0.8-0.4c-0.3,0-0.6,0.1-0.8,0.4c-2.4,3.3-6.1,5.1-10.1,5.1 c-1.8,0-3.6-0.4-5.2-1.1V53h54V17.9C57.4,18.6,55.6,19,53.8,19z M29,39c0,2.8-2.2,5-5,5h-2c-2.8,0-5-2.2-5-5c0-0.6,0.4-1,1-1 s1,0.4,1,1c0,1.7,1.3,3,3,3h2c1.7,0,3-1.3,3-3s-1.3-3-3-3h-2c-0.6,0-1-0.4-1-1s0.4-1,1-1h2c1.7,0,3-1.3,3-3s-1.3-3-3-3h-2 c-1.7,0-3,1.3-3,3c0,0.6-0.4,1-1,1s-1-0.4-1-1c0-2.8,2.2-5,5-5h2c2.8,0,5,2.2,5,5c0,1.6-0.8,3.1-2,4C28.2,35.9,29,37.4,29,39z M47,38c0,3.3-2.7,6-6,6s-6-2.7-6-6v-6c0-3.3,2.7-6,6-6s6,2.7,6,6V38z"></path></g></svg>