<svg xmlns="http://www.w3.org/2000/svg" height="64" width="64" viewBox="0 0 64 64"><title>wash hand 2</title><g fill="#61616b" class="nc-icon-wrapper"><path fill="#61616b" d="M62,11c-0.6,0-1,0.4-1,1v47H3V12c0-0.6-0.4-1-1-1s-1,0.4-1,1v48c0,0.6,0.4,1,1,1h60c0.6,0,1-0.4,1-1V12 C63,11.4,62.6,11,62,11z"></path> <path fill="#61616b" d="M5,57h54V21.8c-1.6,0.8-3.4,1.2-5.2,1.2c-1.8,0-3.4-0.3-4.8-0.9V4c0-0.6-0.4-1-1-1H24c-0.6,0-1,0.4-1,1v9.6 l-8.7,8.7C13,22.8,11.6,23,10.2,23c-1.8,0-3.6-0.4-5.2-1.1V57z M13.7,25.7l1.8-1.8c0,0,0,0,0,0l9.2-9.2c0.2-0.2,0.3-0.4,0.3-0.7V5 h22v33v4v6c0,1.7-1.3,3-3,3s-3-1.3-3-3V38c0-0.6-0.4-1-1-1s-1,0.4-1,1v10c0,1.7-1.3,3-3,3s-3-1.3-3-3V38c0-0.6-0.4-1-1-1s-1,0.4-1,1 v10c0,1.7-1.3,3-3,3s-3-1.3-3-3V26c0-0.4-0.2-0.8-0.6-0.9c-0.4-0.2-0.8-0.1-1.1,0.2l-5,5c-1.2,1.2-3.4,1.2-4.6,0 C12.4,29,12.4,27,13.7,25.7z"></path></g></svg>