<svg xmlns="http://www.w3.org/2000/svg" height="32" width="32" viewBox="0 0 32 32"><title>watch 2 5</title><g fill="#61616b" class="nc-icon-wrapper"><path fill="#61616b" d="M28,16c0-3.056-1.158-5.841-3.046-7.961l-0.963-7.171C23.924,0.371,23.501,0,23,0H9 C8.499,0,8.076,0.371,8.009,0.867L7.046,8.039C5.158,10.159,4,12.944,4,16s1.158,5.841,3.046,7.961l0.963,7.171 C8.076,31.629,8.499,32,9,32h14c0.501,0,0.924-0.371,0.991-0.867l0.963-7.171C26.842,21.841,28,19.056,28,16z M16,6 c5.514,0,10,4.486,10,10s-4.486,10-10,10S6,21.514,6,16S10.486,6,16,6z"></path> <polygon data-color="color-2" fill="#61616b" points="22,15 17,15 17,10 15,10 15,17 22,17 "></polygon></g></svg>