<svg xmlns="http://www.w3.org/2000/svg" height="64" width="64" viewBox="0 0 64 64"><title>watch 2 3</title><g fill="#61616b" class="nc-icon-wrapper"><path data-color="color-2" fill="#61616b" d="M29.057,31.434C29.022,31.618,29,31.806,29,32c0,1.657,1.343,3,3,3s3-1.343,3-3 c0-0.267-0.046-0.521-0.112-0.767l8.672-8.672c0.586-0.585,0.586-1.536,0-2.121c-0.586-0.586-1.535-0.586-2.121,0l-8.672,8.672 C32.521,29.046,32.267,29,32,29c-0.342,0-0.664,0.069-0.97,0.174l-5.547-4.808c-0.625-0.543-1.574-0.475-2.116,0.151 c-0.543,0.626-0.475,1.573,0.151,2.116L29.057,31.434z"></path> <path data-color="color-2" fill="#61616b" d="M31,36.899V45c0,0.552,0.448,1,1,1s1-0.448,1-1v-8.101C32.677,36.965,32.342,37,32,37 S31.323,36.965,31,36.899z"></path> <path fill="#61616b" d="M55,32c0-5.979-2.295-11.431-6.048-15.526L47.107,2.735C46.975,1.746,46.123,1,45.125,1H18.875 c-0.998,0-1.85,0.746-1.982,1.734l-1.844,13.74C11.295,20.569,9,26.021,9,32s2.295,11.431,6.048,15.526l1.844,13.74 C17.025,62.254,17.877,63,18.875,63h26.251c0.998,0,1.85-0.746,1.982-1.735l1.844-13.739C52.705,43.431,55,37.979,55,32z M32,11 c11.58,0,21,9.42,21,21s-9.42,21-21,21s-21-9.42-21-21S20.42,11,32,11z"></path></g></svg>