<svg xmlns="http://www.w3.org/2000/svg" height="48" width="48" viewBox="0 0 48 48"><title>watch 2 4</title><g fill="#61616b" class="nc-icon-wrapper"><path d="M41,24a16.913,16.913,0,0,0-4.056-10.994L34.985,1.828A1,1,0,0,0,34,1H14a1,1,0,0,0-.985.828L11.056,13.006a16.928,16.928,0,0,0,0,21.988l1.959,11.178A1,1,0,0,0,14,47H34a1,1,0,0,0,.985-.828l1.959-11.178A16.913,16.913,0,0,0,41,24ZM24,9A15,15,0,1,1,9,24,15.017,15.017,0,0,1,24,9Z" fill="#61616b"></path><path data-color="color-2" d="M34,25H24a1,1,0,0,1-1-1V14a1,1,0,0,1,2,0v9h9a1,1,0,0,1,0,2Z" fill="#61616b"></path></g></svg>