<svg xmlns="http://www.w3.org/2000/svg" height="64" width="64" viewBox="0 0 64 64"><title>accessibility lift 2</title><g fill="#61616b" class="nc-icon-wrapper"><circle cx="45.5" cy="45" r="3" fill="#61616b"></circle><path d="M12.838,25.628a2,2,0,0,0,2.79-.466l4.6-6.438L25.068,17.3l.674,4.717c.087,0,.171-.013.258-.013a13.933,13.933,0,0,1,9.346,3.6l-1.391-9.734a4.351,4.351,0,0,0-5.639-3.683l-9.881,2.9a2,2,0,0,0-1.063.756l-5,7A2,2,0,0,0,12.838,25.628Z" fill="#61616b"></path><circle cx="28" cy="5" r="5" fill="#61616b"></circle><path d="M26,48A12,12,0,1,1,38,36,12.013,12.013,0,0,1,26,48Zm0-21a9,9,0,1,0,9,9A9.011,9.011,0,0,0,26,27Z" fill="#61616b"></path><circle cx="26" cy="36" r="2.5" fill="#61616b"></circle><path d="M23.707,57.293l-6-6a1,1,0,0,0-1.414,0l-6,6A1,1,0,0,0,11,59h5v4a1,1,0,0,0,2,0V59h5a1,1,0,0,0,.707-1.707Z" fill="#61616b" data-color="color-2"></path><path d="M53.707,57.707l-6,6a1,1,0,0,1-1.414,0l-6-6A1,1,0,0,1,41,56h5V52a1,1,0,0,1,2,0v4h5a1,1,0,0,1,.707,1.707Z" fill="#61616b" data-color="color-2"></path><path d="M45.5,30H38.635a13.917,13.917,0,0,1,1.315,5H43l.5,5h4l.5-7.5A2.5,2.5,0,0,0,45.5,30Z" fill="#61616b"></path></g></svg>