<svg xmlns="http://www.w3.org/2000/svg" height="48" width="48" viewBox="0 0 48 48"><title>accessibility lift 3</title><g fill="#61616b" class="nc-icon-wrapper"><path d="M17.707,42.293l-4-4a1,1,0,0,0-1.414,0l-4,4A1,1,0,0,0,9,44h3v3a1,1,0,0,0,2,0V44h3a1,1,0,0,0,.707-1.707Z" fill="#61616b" data-color="color-2"></path><circle cx="35" cy="34" r="2" fill="#61616b"></circle><path d="M9.562,19.671a1.5,1.5,0,0,0,2.109-.233l3.688-4.611,3.657-.944.358,2.149c.208-.012.415-.032.626-.032a10.945,10.945,0,0,1,6.867,2.415l-.915-5.49a3.5,3.5,0,0,0-4.027-2.877c-.052.008-7.8,2-7.8,2a1.5,1.5,0,0,0-.8.514l-4,5A1.5,1.5,0,0,0,9.562,19.671Z" fill="#61616b"></path><circle cx="22" cy="4" r="4" fill="#61616b"></circle><path d="M38.924,42.617A1,1,0,0,0,38,42H35V39a1,1,0,0,0-2,0v3H30a1,1,0,0,0-.707,1.707l4,4a1,1,0,0,0,1.414,0l4-4A1,1,0,0,0,38.924,42.617Z" fill="#61616b" data-color="color-2"></path><path d="M20,36a9,9,0,1,1,9-9A9.01,9.01,0,0,1,20,36Zm0-16a7,7,0,1,0,7,7A7.009,7.009,0,0,0,20,20Z" fill="#61616b"></path><circle cx="20" cy="27" r="2" fill="#61616b"></circle><path d="M35,22H29.79a10.942,10.942,0,0,1,1.16,4H33l.286,4h3.381L37,24A2,2,0,0,0,35,22Z" fill="#61616b"></path></g></svg>