<svg xmlns="http://www.w3.org/2000/svg" height="24" width="24" viewBox="0 0 24 24"><title>accessibility lift</title><g fill="#61616b" class="nc-icon-wrapper"><circle cx="10.5" cy="2.5" r="2.5" fill="#61616b"></circle><polygon points="9 24 6 20 3 24 9 24" fill="#61616b" data-color="color-2"></polygon><polygon points="21 20 18 24 15 20 21 20" fill="#61616b" data-color="color-2"></polygon><path d="M12.221,15a2.99,2.99,0,1,1-3.69-4.6L8.125,8.371A5,5,0,1,0,14.578,15Z" fill="#61616b"></path><path d="M17.97,12.758A1,1,0,0,0,17,12H12.93l-.8-4H17V6H10.512a2.891,2.891,0,0,0-.306.029A1.5,1.5,0,0,0,9.029,7.794l1,5A1.5,1.5,0,0,0,11.5,14h4.72l1.053,4.213,1.941-.485Z" fill="#61616b"></path></g></svg>