<svg xmlns="http://www.w3.org/2000/svg" height="64" width="64" viewBox="0 0 64 64"><title>adaptive bike 2</title><g fill="#61616b" class="nc-icon-wrapper"><circle cx="19" cy="13" r="6" fill="#61616b"></circle><path d="M22.966,43.84c.015.219.034.437.034.66a9.523,9.523,0,1,1-3.359-7.236L17.7,32.739A12.494,12.494,0,1,0,25.939,45.69,6.972,6.972,0,0,1,22.966,43.84Z" fill="#61616b" data-color="color-2"></path><path d="M50.5,32a12.446,12.446,0,0,0-5.889,1.475l2.687,2.09A9.495,9.495,0,1,1,41,44.5a9.7,9.7,0,0,1,.07-1.111L40,42.556l-1.925.6A12.643,12.643,0,0,0,38,44.5,12.5,12.5,0,1,0,50.5,32Z" fill="#61616b" data-color="color-2"></path><path d="M51.842,41.632l-9-7a3,3,0,0,0-2.744-.493l-7.7,2.427-3.365-7.852,2.912,1.1a3,3,0,0,0,1.577.145l8.413-2a2.494,2.494,0,1,0-.868-4.912l-7.779.859L23.65,20.3A4.983,4.983,0,0,0,17.4,26.97l6,14a4.905,4.905,0,0,0,5.8,2.865c.09-.019,11.2-3.5,11.2-3.5l7.758,6.034a3,3,0,1,0,3.684-4.736Z" fill="#61616b"></path></g></svg>