<svg xmlns="http://www.w3.org/2000/svg" height="32" width="32" viewBox="0 0 32 32"><title>adaptive bike 4</title><g fill="#61616b" class="nc-icon-wrapper"><path d="M10.824,22.678A4.52,4.52,0,1,1,8.5,17.491l-.851-2.383a6.5,6.5,0,1,0,4.932,8.66A4.522,4.522,0,0,1,10.824,22.678Z" fill="#61616b" data-color="color-2"></path><path d="M25.529,15a6.47,6.47,0,0,0-3.57,1.071l2.261,1.145a4.491,4.491,0,1,1-2.752,6.194L19.7,22.686l-.541.135A6.5,6.5,0,1,0,25.529,15Z" fill="#61616b" data-color="color-2"></path><path d="M20.626,17.637a1.487,1.487,0,0,0-1-.09l-3.367.857-1.608-4.5,1.941.543a1.5,1.5,0,0,0,.4.056,1.526,1.526,0,0,0,.294-.029l4.951-1.245-.49-2.451-4.7.684-4.91-1.369a2.494,2.494,0,0,0-3,3.251l2.5,7A2.5,2.5,0,0,0,14,22c.234,0,5.855-1.416,5.855-1.416l5.623,2.31,1.044-2.272Z" fill="#61616b"></path><circle cx="10" cy="6" r="3" fill="#61616b"></circle></g></svg>