<svg xmlns="http://www.w3.org/2000/svg" height="24" width="24" viewBox="0 0 24 24"><title>adaptive bike</title><g fill="#61616b" class="nc-icon-wrapper"><circle cx="7.5" cy="4.5" r="2.5" fill="#61616b"></circle><path d="M19,12a4.952,4.952,0,0,0-3.033,1.052,2.007,2.007,0,0,1,.61.219l1.517.884A2.954,2.954,0,0,1,19,14a3,3,0,1,1-2.939,3.6l-.7-.406-1.3.466A4.989,4.989,0,1,0,19,12Z" fill="#61616b" data-color="color-2"></path><path d="M8,17.007a3.026,3.026,0,1,1-.6-1.791L6.419,12.23A4.941,4.941,0,0,0,5,12a5,5,0,1,0,4.708,6.618A2.744,2.744,0,0,1,8,17.007Z" fill="#61616b" data-color="color-2"></path><path d="M16.075,14.136a1,1,0,0,0-.834-.079L12.12,15.173l-1.344-4.1,1.8.834a.989.989,0,0,0,.735.041l3.949-1.315-.633-1.9L13.06,9.926,9.207,8.155a1.732,1.732,0,0,0-1.252-.068A1.75,1.75,0,0,0,6.837,10.3l2.05,6.25a1.75,1.75,0,0,0,1.662,1.2,1.731,1.731,0,0,0,.546-.087L15.466,16.1l3.894,2.27,1.008-1.727Z" fill="#61616b"></path></g></svg>