<svg xmlns="http://www.w3.org/2000/svg" height="48" width="48" viewBox="0 0 48 48"><title>audio description 3</title><g fill="#61616b" class="nc-icon-wrapper"><path d="M16.5,16.554q-.354,1.376-2.03,6.8h4.092q-1.578-5.081-1.778-5.748T16.5,16.554Z" fill="#61616b"></path><path d="M31.165,16.908H29.393V27.135h1.428q4.812,0,4.813-5.167Q35.634,16.908,31.165,16.908Z" fill="#61616b"></path><path d="M45,6H3A3,3,0,0,0,0,9V35a3,3,0,0,0,3,3H29.667L37.4,43.8a1,1,0,0,0,.6.2,1,1,0,0,0,1-1V38h6a3,3,0,0,0,3-3V9A3,3,0,0,0,45,6ZM20.5,29.885l-1.139-3.739H13.634L12.5,29.885H8.907l5.543-15.77h4.071l5.565,15.77Zm16.387-2.063q-2.206,2.063-6.375,2.063H26.062V14.18h4.931a8.3,8.3,0,0,1,5.973,2.03,7.467,7.467,0,0,1,2.127,5.672A7.732,7.732,0,0,1,36.885,27.822Z" fill="#61616b"></path></g></svg>