<svg xmlns="http://www.w3.org/2000/svg" height="24" width="24" viewBox="0 0 24 24"><title>audio description 5</title><g fill="#61616b" class="nc-icon-wrapper"><path d="M15.824,8.8h-.617v4.4h.472a1.711,1.711,0,0,0,1.418-.561,2.711,2.711,0,0,0,.451-1.716,2.5,2.5,0,0,0-.427-1.6A1.579,1.579,0,0,0,15.824,8.8Z" fill="#61616b"></path><path d="M8.463,9.329c-.113-.454-.187-.78-.223-.976-.032.181-.1.482-.191.9s-.3,1.244-.631,2.475H9.089L8.75,10.441Q8.633,10.012,8.463,9.329Z" fill="#61616b"></path><path d="M23,3H1A1,1,0,0,0,0,4V18a1,1,0,0,0,1,1H14.667L20,23V19h3a1,1,0,0,0,1-1V4A1,1,0,0,0,23,3ZM9.916,14.942l-.387-1.471H6.978l-.4,1.471H4.25L6.812,7.058h2.83l2.594,7.884Zm8.752-1.063a4.155,4.155,0,0,1-3.043,1.063h-2.54V7.09H15.8a4.1,4.1,0,0,1,2.919.967A3.646,3.646,0,0,1,19.75,10.85,4.054,4.054,0,0,1,18.668,13.879Z" fill="#61616b"></path></g></svg>