<svg xmlns="http://www.w3.org/2000/svg" height="64" width="64" viewBox="0 0 64 64"><title>audio description 2</title><g fill="#61616b" class="nc-icon-wrapper"><path d="M21.775,22.573q-.483,1.875-2.768,9.273h5.581q-2.154-6.928-2.425-7.837C21.982,23.4,21.854,22.925,21.775,22.573Z" fill="#61616b"></path><path d="M41.771,23.057H39.354V37H41.3q6.563,0,6.562-7.046Q47.864,23.056,41.771,23.057Z" fill="#61616b"></path><path d="M60,9H4a4,4,0,0,0-4,4V47a4,4,0,0,0,4,4H41.648l9.727,7.781A1,1,0,0,0,53,58V51h7a4,4,0,0,0,4-4V13A4,4,0,0,0,60,9ZM27.225,40.752l-1.553-5.1H17.864l-1.552,5.1H11.419l7.559-21.5h5.551l7.588,21.5ZM49.57,37.939q-3.009,2.813-8.693,2.813H34.812V19.336h6.724q5.244,0,8.145,2.768a10.187,10.187,0,0,1,2.9,7.735Q52.581,35.126,49.57,37.939Z" fill="#61616b"></path></g></svg>