<svg xmlns="http://www.w3.org/2000/svg" height="16" width="16" viewBox="0 0 16 16"><title>audio description</title><g fill="#61616b" class="nc-icon-wrapper"><path d="M10.91,5.328h-.47V8.676H10.8a1.306,1.306,0,0,0,1.08-.427,2.072,2.072,0,0,0,.343-1.306A1.9,1.9,0,0,0,11.9,5.724,1.2,1.2,0,0,0,10.91,5.328Z" fill="#61616b"></path><path d="M15,1H1A1,1,0,0,0,0,2V12a1,1,0,0,0,1,1h9l3.976,3V13H15a1,1,0,0,0,1-1V2A1,1,0,0,0,15,1ZM6.414,10,6.12,8.881H4.178L3.876,10H2.1L4.051,4H6.206L8.18,10Zm6.66-.81a3.157,3.157,0,0,1-2.315.81H8.826V4.024h2.068a3.116,3.116,0,0,1,2.221.737A2.774,2.774,0,0,1,13.9,6.886,3.08,3.08,0,0,1,13.074,9.19Z" fill="#61616b"></path><path d="M5.308,5.729c-.085-.346-.142-.594-.169-.744q-.038.208-.145.686T4.513,7.555H5.784l-.257-.981Q5.437,6.249,5.308,5.729Z" fill="#61616b"></path></g></svg>