<svg xmlns="http://www.w3.org/2000/svg" height="32" width="32" viewBox="0 0 32 32"><title>audio description 4</title><g fill="#61616b" class="nc-icon-wrapper"><path d="M20.885,10.528H19.677V17.5h.974q3.281,0,3.281-3.523Q23.932,10.53,20.885,10.528Z" fill="#61616b"></path><path d="M10.888,10.286q-.242.938-1.385,4.637h2.791q-1.077-3.465-1.212-3.918C10.991,10.7,10.927,10.462,10.888,10.286Z" fill="#61616b"></path><path d="M30,3H2A2,2,0,0,0,0,5V23a2,2,0,0,0,2,2H20.649L27,30V25h3a2,2,0,0,0,2-2V5A2,2,0,0,0,30,3ZM13.612,19.376l-.776-2.549h-3.9l-.776,2.549H5.709L9.489,8.624h2.776l3.794,10.752ZM24.785,17.97a6.139,6.139,0,0,1-4.347,1.406H17.406V8.668h3.362a5.663,5.663,0,0,1,4.072,1.384,5.1,5.1,0,0,1,1.451,3.867A5.272,5.272,0,0,1,24.785,17.97Z" fill="#61616b"></path></g></svg>