<svg xmlns="http://www.w3.org/2000/svg" height="32" width="32" viewBox="0 0 32 32"><title>b eye 5</title><g fill="#61616b" class="nc-icon-wrapper"><path d="M31.376,14.2A30.485,30.485,0,0,0,26.245,9l-1.421,1.421A28.372,28.372,0,0,1,29.8,15.424a.938.938,0,0,1,0,1.155C27.837,19.111,22.576,25,16,25a12.315,12.315,0,0,1-4.753-1L9.739,25.5A14.551,14.551,0,0,0,16,27c7.463,0,13.239-6.433,15.374-9.195A2.935,2.935,0,0,0,31.376,14.2Z" fill="#61616b"></path> <path d="M25,14a8.771,8.771,0,0,0-.6-3.159L12.83,22.413A8.977,8.977,0,0,0,25,14Z" fill="#61616b"></path> <path d="M29.707,1.293a1,1,0,0,0-1.414,0L22.81,6.776A14.8,14.8,0,0,0,16,5C8.442,5,2.717,11.438.608,14.2a2.936,2.936,0,0,0,.011,3.592A30.142,30.142,0,0,0,6.23,23.356L1.293,28.293a1,1,0,1,0,1.414,1.414l27-27A1,1,0,0,0,29.707,1.293ZM2.2,16.57l0,0a.938.938,0,0,1,0-1.148A26.768,26.768,0,0,1,8.128,9.687,8.879,8.879,0,0,0,9.447,20.139L7.655,21.931A28.046,28.046,0,0,1,2.2,16.57Z" fill="#61616b"></path></g></svg>