<svg xmlns="http://www.w3.org/2000/svg" height="64" width="64" viewBox="0 0 64 64"><title>b eye 3</title><g fill="#61616b" class="nc-icon-wrapper"><path d="M13.116,46.642l1.492-1.492A53.485,53.485,0,0,1,3.354,33.591h0a1.9,1.9,0,0,1,0-2.2c5.586-7.925,11.508-12.357,16.583-14.83a16.933,16.933,0,0,0-.3,23.559L45,14.755A29.8,29.8,0,0,0,32,11.5c-5.134,0-18.363,1.826-30.289,18.743a3.91,3.91,0,0,0,.01,4.509A52.109,52.109,0,0,0,13.116,46.642Z" fill="#61616b"></path><path d="M62.276,30.228A50.056,50.056,0,0,0,48.621,16.793L59.707,5.707a1,1,0,1,0-1.414-1.414l-54,54a1,1,0,1,0,1.414,1.414L16.523,48.891A30.817,30.817,0,0,0,32,53.5c5.054,0,18.12-1.825,30.263-18.732A3.9,3.9,0,0,0,62.276,30.228ZM60.641,33.6C57.625,37.8,46.647,51.5,32,51.5a27.57,27.57,0,0,1-13.985-4.1l4.7-4.7A16.947,16.947,0,0,0,46.2,19.217l.931-.93a47.277,47.277,0,0,1,13.518,13.1A1.9,1.9,0,0,1,60.641,33.6Z" fill="#61616b"></path></g></svg>