<svg xmlns="http://www.w3.org/2000/svg" height="48" width="48" viewBox="0 0 48 48"><title>b eye 4</title><g fill="#61616b" class="nc-icon-wrapper"><path d="M1.57,25.826a43.211,43.211,0,0,0,5.717,6.645l1.438-1.438a41.06,41.06,0,0,1-5.512-6.347,1.224,1.224,0,0,1,0-1.379A36.279,36.279,0,0,1,14.554,12.613a11.909,11.909,0,0,0-.885,13.476L30.615,9.143A20.1,20.1,0,0,0,24,8h-.017C12.546,8.01,4.5,17.914,1.568,22.173a3.23,3.23,0,0,0,0,3.649Z" fill="#61616b"></path><path d="M23.991,32a12.013,12.013,0,0,0,12-12,11.867,11.867,0,0,0-1.676-6.073l-16.4,16.4A11.906,11.906,0,0,0,23.991,32Z" fill="#61616b"></path><path d="M46.42,22.162A39.848,39.848,0,0,0,36.265,11.977l-1.478,1.478a38.115,38.115,0,0,1,9.99,9.848,1.22,1.22,0,0,1,0,1.385C42.581,27.811,34.594,38,24,38a19.838,19.838,0,0,1-10.494-3.263l-1.478,1.478A22.021,22.021,0,0,0,24,40c11.244,0,19.42-9.9,22.415-14.165A3.228,3.228,0,0,0,46.42,22.162Z" fill="#61616b"></path><path data-color="color-2" d="M2,43a1,1,0,0,1-.707-1.707l38-38a1,1,0,1,1,1.414,1.414l-38,38A1,1,0,0,1,2,43Z" fill="#61616b"></path></g></svg>