<svg xmlns="http://www.w3.org/2000/svg" height="24" width="24" viewBox="0 0 24 24"><title>b eye</title><g fill="#61616b" class="nc-icon-wrapper"><path data-color="color-2" d="M20.565,7.678,19.131,9.111A19.25,19.25,0,0,1,21.783,12c-1.142,1.56-4.829,6-9.783,6a8.369,8.369,0,0,1-1.6-.162l-1.64,1.64A10.679,10.679,0,0,0,12,20c7.071,0,11.655-7.163,11.847-7.468a1,1,0,0,0,0-1.064A19.827,19.827,0,0,0,20.565,7.678Z" fill="#61616b"></path> <path d="M22.707,1.293a1,1,0,0,0-1.414,0L17.235,5.351A11.27,11.27,0,0,0,12,4C4.929,4,.345,11.163.153,11.468a1,1,0,0,0,0,1.064,19.933,19.933,0,0,0,4.859,5.042L2.293,20.293a1,1,0,1,0,1.414,1.414l19-19A1,1,0,0,0,22.707,1.293ZM2.217,12A16.7,16.7,0,0,1,8.083,6.931a4.9,4.9,0,0,0,.711,6.861L6.456,16.13A18.156,18.156,0,0,1,2.217,12Z" fill="#61616b"></path></g></svg>