<svg xmlns="http://www.w3.org/2000/svg" height="64" width="64" viewBox="0 0 64 64"><title>blindness 2</title><g fill="#61616b" class="nc-icon-wrapper"><circle cx="29" cy="8" r="6" fill="#61616b"></circle><path d="M58,61a1,1,0,0,1-.967-.748l-6-23a1,1,0,0,1,1.936-.5l6,23a1,1,0,0,1-.716,1.22A1.044,1.044,0,0,1,58,61Z" fill="#61616b" data-color="color-2"></path><path d="M23.926,43.181a8.468,8.468,0,0,1-.916-.91L15.316,57.658a3,3,0,0,0,5.368,2.684l7.094-14.188Z" fill="#61616b"></path><path d="M48.661,31.289l0-.008L41.8,27.09,33.33,17.854a5.971,5.971,0,0,0-6.994-1.224L14.686,22.3A2.985,2.985,0,0,0,13.35,23.6L9.3,32.324A2.474,2.474,0,0,0,9,33.49a2.492,2.492,0,0,0,4.7,1.166l4.494-7.387L23,24.925V37a5.985,5.985,0,0,0,2.148,4.6l9.213,7.113,2.755,11.018A3,3,0,0,0,40.024,62a3.03,3.03,0,0,0,1.468-.38A3.113,3.113,0,0,0,42.9,58.13L39.936,46.272A3,3,0,0,0,38.9,44.657L33.719,40.7h0l-3.052-2.332,3.961.694A5.93,5.93,0,0,0,35,37V28.554l2.724,2.972a2.97,2.97,0,0,0,.812.627l7.8,3.539a2.472,2.472,0,0,0,1.161.3,2.492,2.492,0,0,0,1.161-4.7Z" fill="#61616b"></path></g></svg>