<svg xmlns="http://www.w3.org/2000/svg" height="24" width="24" viewBox="0 0 24 24"><title>blindness</title><g fill="#61616b" class="nc-icon-wrapper"><circle cx="11" cy="3" r="3" fill="#61616b"></circle><path d="M8.7,17.271c-.036-.027-.067-.059-.1-.086L5.636,22.372l1.736.992,2.87-5.022Z" fill="#61616b"></path><path d="M13,10.954l1.3,1.264a1,1,0,0,0,.249.177l3.894,1.947.895-1.789-3.757-1.878L12.429,7.6a1.97,1.97,0,0,0-2.417-.333L6.077,9.094a1,1,0,0,0-.472.459L3.658,13.447l1.789.9,1.792-3.583L9,9.937V14a1.993,1.993,0,0,0,.845,1.628l4.276,2.978,1.151,4.607,1.941-.485-1.243-4.97a.992.992,0,0,0-.4-.579l-2.93-2.039A1.992,1.992,0,0,0,13,14Z" fill="#61616b"></path><path d="M22.25,22a.747.747,0,0,1-.708-.5L19.292,15a.749.749,0,1,1,1.416-.49l2.25,6.5a.749.749,0,0,1-.708,1Z" fill="#61616b" data-color="color-2"></path></g></svg>