<svg xmlns="http://www.w3.org/2000/svg" height="32" width="32" viewBox="0 0 32 32"><title>blindness 4</title><g fill="#61616b" class="nc-icon-wrapper"><circle cx="14.5" cy="3.5" r="3.5" fill="#61616b"></circle><path d="M29,30a1,1,0,0,1-.958-.713l-3-10a1,1,0,0,1,1.916-.574l3,10a1,1,0,0,1-.671,1.245A1.023,1.023,0,0,1,29,30Z" fill="#61616b" data-color="color-2"></path><path d="M11.66,23.406a5.06,5.06,0,0,1-.827-.563L6.905,30.4,9.1,31.6l4.111-7.188Z" fill="#61616b"></path><path d="M17,14.084l1.426,1.463a1.561,1.561,0,0,0,.345.265l4.622,2.28,1.214-2.185L20.42,13.3l-4.26-4.37a2.964,2.964,0,0,0-3.253-.714v0L7.4,10.626a1.506,1.506,0,0,0-.763.753l-2.272,5.6,2.276,1.034,2.49-4.873L11,12.323V19a2.991,2.991,0,0,0,1.667,2.675l5.045,3.277,2.038,6.4,2.449-.7-1.757-7.07a1.5,1.5,0,0,0-.625-.846l-3.29-2.137A2.977,2.977,0,0,0,17,19Z" fill="#61616b"></path></g></svg>