<svg xmlns="http://www.w3.org/2000/svg" height="32" width="32" viewBox="0 0 32 32"><title>braille 4</title><g fill="#61616b" class="nc-icon-wrapper"><path d="M23.5,19.5A3.5,3.5,0,1,1,27,16,3.5,3.5,0,0,1,23.5,19.5Z" fill="#61616b" data-color="color-2"></path><path d="M8.5,8A3.5,3.5,0,1,1,12,4.5,3.5,3.5,0,0,1,8.5,8Z" fill="#61616b" data-color="color-2"></path><path d="M23.5,8A3.5,3.5,0,1,1,27,4.5,3.5,3.5,0,0,1,23.5,8Z" fill="#61616b" data-color="color-2"></path><path d="M8.5,31A3.5,3.5,0,1,1,12,27.5,3.5,3.5,0,0,1,8.5,31Z" fill="#61616b" data-color="color-2"></path><path d="M8.5,18.5A2.5,2.5,0,1,1,11,16,2.5,2.5,0,0,1,8.5,18.5Z" fill="#61616b"></path><path d="M23.5,30A2.5,2.5,0,1,1,26,27.5,2.5,2.5,0,0,1,23.5,30Z" fill="#61616b"></path></g></svg>