<svg xmlns="http://www.w3.org/2000/svg" height="24" width="24" viewBox="0 0 24 24"><title>braille</title><g fill="#61616b" class="nc-icon-wrapper"><path d="M6,6A3,3,0,1,1,9,3,3,3,0,0,1,6,6Z" fill="#61616b" data-color="color-2"></path><path d="M6,24a3,3,0,1,1,3-3A3,3,0,0,1,6,24Z" fill="#61616b" data-color="color-2"></path><path d="M18,6a3,3,0,1,1,3-3A3,3,0,0,1,18,6Z" fill="#61616b" data-color="color-2"></path><path d="M18,15a3,3,0,1,1,3-3A3,3,0,0,1,18,15Z" fill="#61616b" data-color="color-2"></path><circle cx="6" cy="12" r="2" fill="#61616b"></circle><circle cx="18" cy="21" r="2" fill="#61616b"></circle></g></svg>