<svg xmlns="http://www.w3.org/2000/svg" height="48" width="48" viewBox="0 0 48 48"><title>closed captioning 3</title><g fill="#61616b" class="nc-icon-wrapper"><path d="M45,8H3a3,3,0,0,0-3,3V37a3,3,0,0,0,3,3H45a3,3,0,0,0,3-3V11A3,3,0,0,0,45,8ZM18.376,29.3a12.445,12.445,0,0,0,4.007-.827v2.793a11.127,11.127,0,0,1-4.318.806A6.591,6.591,0,0,1,12.823,30a8.806,8.806,0,0,1-1.816-5.968,9.737,9.737,0,0,1,.892-4.292,6.436,6.436,0,0,1,2.562-2.824,7.561,7.561,0,0,1,3.915-.984,10.564,10.564,0,0,1,4.6,1.107L21.9,19.741a17.623,17.623,0,0,0-1.773-.731,5.272,5.272,0,0,0-1.751-.311,3.392,3.392,0,0,0-2.911,1.413,6.573,6.573,0,0,0-1.031,3.936Q14.434,29.3,18.376,29.3Zm14.019,0a12.45,12.45,0,0,0,4.007-.827v2.793a11.132,11.132,0,0,1-4.319.806A6.591,6.591,0,0,1,26.841,30a8.806,8.806,0,0,1-1.815-5.968,9.751,9.751,0,0,1,.891-4.292,6.438,6.438,0,0,1,2.563-2.824,7.559,7.559,0,0,1,3.915-.984,10.567,10.567,0,0,1,4.6,1.107l-1.075,2.707a17.511,17.511,0,0,0-1.772-.731A5.281,5.281,0,0,0,32.4,18.7a3.39,3.39,0,0,0-2.911,1.413,6.565,6.565,0,0,0-1.031,3.936Q28.453,29.3,32.4,29.3Z" fill="#61616b"></path></g></svg>