<svg xmlns="http://www.w3.org/2000/svg" height="64" width="64" viewBox="0 0 64 64"><title>closed captioning 2</title><g fill="#61616b" class="nc-icon-wrapper"><path d="M60,11H4a4,4,0,0,0-4,4V49a4,4,0,0,0,4,4H60a4,4,0,0,0,4-4V15A4,4,0,0,0,60,11ZM24.049,39.229A17,17,0,0,0,29.513,38.1V41.91a15.184,15.184,0,0,1-5.889,1.1q-4.672,0-7.148-2.834T14,32.037a13.288,13.288,0,0,1,1.216-5.853,8.768,8.768,0,0,1,3.494-3.851,10.319,10.319,0,0,1,5.339-1.341A14.418,14.418,0,0,1,30.318,22.5l-1.464,3.692a24.24,24.24,0,0,0-2.417-1,7.221,7.221,0,0,0-2.388-.425,4.629,4.629,0,0,0-3.97,1.927,8.962,8.962,0,0,0-1.406,5.368Q18.673,39.229,24.049,39.229Zm19.116,0A17,17,0,0,0,48.629,38.1V41.91a15.184,15.184,0,0,1-5.889,1.1q-4.673,0-7.148-2.834t-2.476-8.137a13.288,13.288,0,0,1,1.216-5.853,8.78,8.78,0,0,1,3.494-3.851,10.319,10.319,0,0,1,5.339-1.341,14.425,14.425,0,0,1,6.27,1.508L47.97,26.192a24.24,24.24,0,0,0-2.417-1,7.221,7.221,0,0,0-2.388-.425A4.629,4.629,0,0,0,39.2,26.7a8.962,8.962,0,0,0-1.406,5.368Q37.789,39.229,43.165,39.229Z" fill="#61616b"></path></g></svg>