<svg xmlns="http://www.w3.org/2000/svg" height="32" width="32" viewBox="0 0 32 32"><title>closed captioning 4</title><g fill="#61616b" class="nc-icon-wrapper"><path d="M30,5H2A2,2,0,0,0,0,7V25a2,2,0,0,0,2,2H30a2,2,0,0,0,2-2V7A2,2,0,0,0,30,5ZM12.024,19.615a8.495,8.495,0,0,0,2.732-.564v1.9a7.589,7.589,0,0,1-2.944.549,4.492,4.492,0,0,1-3.574-1.417A6,6,0,0,1,7,16.018a6.65,6.65,0,0,1,.608-2.926,4.391,4.391,0,0,1,1.747-1.926,5.163,5.163,0,0,1,2.669-.67,7.206,7.206,0,0,1,3.135.754L14.427,13.1a12.32,12.32,0,0,0-1.209-.5,3.594,3.594,0,0,0-1.194-.213,2.313,2.313,0,0,0-1.984.964,4.477,4.477,0,0,0-.7,2.684Q9.336,19.615,12.024,19.615Zm9.559,0a8.495,8.495,0,0,0,2.731-.564v1.9a7.586,7.586,0,0,1-2.944.549A4.492,4.492,0,0,1,17.8,20.087a6,6,0,0,1-1.238-4.069,6.65,6.65,0,0,1,.608-2.926,4.391,4.391,0,0,1,1.747-1.926,5.165,5.165,0,0,1,2.67-.67,7.2,7.2,0,0,1,3.134.754L23.985,13.1a12.32,12.32,0,0,0-1.209-.5,3.593,3.593,0,0,0-1.193-.213,2.313,2.313,0,0,0-1.985.964,4.477,4.477,0,0,0-.7,2.684Q18.9,19.615,21.583,19.615Z" fill="#61616b"></path></g></svg>