<svg xmlns="http://www.w3.org/2000/svg" height="16" width="16" viewBox="0 0 16 16"><title>closed captioning</title><g fill="#61616b" class="nc-icon-wrapper"><path d="M15,2H1A1,1,0,0,0,0,3V13a1,1,0,0,0,1,1H15a1,1,0,0,0,1-1V3A1,1,0,0,0,15,2ZM5.981,9.757a2.693,2.693,0,0,0,.772-.11A7.755,7.755,0,0,0,7.5,9.38v1.37a4.143,4.143,0,0,1-1.7.333A2.686,2.686,0,0,1,3.724,10.3,3.246,3.246,0,0,1,3,8.019a3.629,3.629,0,0,1,.351-1.637A2.5,2.5,0,0,1,4.359,5.3a3.048,3.048,0,0,1,1.549-.38,4.276,4.276,0,0,1,1.858.423l-.5,1.276a5.56,5.56,0,0,0-.665-.263,2.35,2.35,0,0,0-.713-.106,1.035,1.035,0,0,0-.9.473,2.293,2.293,0,0,0-.324,1.307Q4.665,9.758,5.981,9.757Zm5.452,0a2.691,2.691,0,0,0,.771-.11,7.772,7.772,0,0,0,.751-.267v1.37a4.151,4.151,0,0,1-1.7.333A2.687,2.687,0,0,1,9.175,10.3a3.246,3.246,0,0,1-.724-2.276A3.629,3.629,0,0,1,8.8,6.382,2.512,2.512,0,0,1,9.811,5.3a3.047,3.047,0,0,1,1.548-.38,4.276,4.276,0,0,1,1.858.423l-.5,1.276a5.56,5.56,0,0,0-.665-.263,2.35,2.35,0,0,0-.713-.106,1.035,1.035,0,0,0-.9.473,2.293,2.293,0,0,0-.324,1.307Q10.116,9.758,11.433,9.757Z" fill="#61616b"></path></g></svg>