<svg xmlns="http://www.w3.org/2000/svg" height="24" width="24" viewBox="0 0 24 24"><title>closed captioning 5</title><g fill="#61616b" class="nc-icon-wrapper"><path d="M23,4H1A1,1,0,0,0,0,5V19a1,1,0,0,0,1,1H23a1,1,0,0,0,1-1V5A1,1,0,0,0,23,4ZM9.215,14.3a3.525,3.525,0,0,0,1.01-.146,9.73,9.73,0,0,0,.983-.349V15.6a5.445,5.445,0,0,1-2.224.435,3.512,3.512,0,0,1-2.725-1.031,4.248,4.248,0,0,1-.949-2.981,4.771,4.771,0,0,1,.459-2.143A3.3,3.3,0,0,1,7.091,8.46a3.993,3.993,0,0,1,2.027-.5,5.587,5.587,0,0,1,2.434.553l-.65,1.67a7.241,7.241,0,0,0-.871-.343A3.01,3.01,0,0,0,9.1,9.7a1.352,1.352,0,0,0-1.182.62,3,3,0,0,0-.424,1.711Q7.491,14.3,9.215,14.3Zm7.138,0a3.525,3.525,0,0,0,1.01-.146,9.73,9.73,0,0,0,.983-.349V15.6a5.442,5.442,0,0,1-2.224.435A3.514,3.514,0,0,1,13.4,15.005a4.248,4.248,0,0,1-.949-2.981,4.771,4.771,0,0,1,.459-2.143A3.3,3.3,0,0,1,14.229,8.46a4,4,0,0,1,2.028-.5,5.586,5.586,0,0,1,2.433.553l-.65,1.67a7.294,7.294,0,0,0-.87-.343,3.017,3.017,0,0,0-.935-.14,1.352,1.352,0,0,0-1.182.62,3,3,0,0,0-.424,1.711Q14.629,14.3,16.353,14.3Z" fill="#61616b"></path></g></svg>