<svg xmlns="http://www.w3.org/2000/svg" height="48" width="48" viewBox="0 0 48 48"><title>deaf 3</title><g fill="#61616b" class="nc-icon-wrapper"><path d="M29.9,19.106a.983.983,0,0,1-.186-.017,1,1,0,0,1-.8-1.167A5,5,0,1,0,19,17a1,1,0,0,1-2,0,7,7,0,1,1,13.876,1.291A1,1,0,0,1,29.9,19.106Z" fill="#61616b"></path><path d="M45.707,3.707,44.293,2.293a1,1,0,0,0-1.414,0L37.912,7.26a16.919,16.919,0,0,1,1.958,3.7l5.837-5.837A1,1,0,0,0,45.707,3.707Z" fill="#61616b" data-color="color-2"></path><path d="M3.707,45.707a1,1,0,0,0,1.414,0L29,21.828,26.172,19,2.293,42.879a1,1,0,0,0,0,1.414Z" fill="#61616b" data-color="color-2"></path><path d="M24,2A15.017,15.017,0,0,0,9,17a1,1,0,0,0,2,0,13,13,0,0,1,26,0c0,5.407-2.146,7.974-4.632,10.945a25.732,25.732,0,0,0-5.315,8.736C25.609,40.962,24.259,43.992,20,44a6,6,0,0,1-5.811-4.533l-1.582,1.582A8.009,8.009,0,0,0,20,46h0c6.024-.011,7.713-5.021,8.945-8.681a23.722,23.722,0,0,1,4.955-8.09C36.523,26.094,39,23.134,39,17A15.017,15.017,0,0,0,24,2Z" fill="#61616b"></path></g></svg>