<svg xmlns="http://www.w3.org/2000/svg" height="32" width="32" viewBox="0 0 32 32"><title>deaf 4</title><g fill="#61616b" class="nc-icon-wrapper"><path d="M19.8,13.205a1,1,0,0,1-.953-1.3A2.937,2.937,0,0,0,19,11a3,3,0,0,0-6,0,1,1,0,0,1-2,0,5,5,0,1,1,9.748,1.508A1,1,0,0,1,19.8,13.205Z" fill="#61616b"></path><path d="M30.707,2,30,1.293a1,1,0,0,0-1.414,0L25.792,4.087a12,12,0,0,1,1.46,2.782l3.455-3.455A1,1,0,0,0,30.707,2Z" fill="#61616b" data-color="color-2"></path><path d="M16.651,13.228,1.293,28.586a1,1,0,0,0,0,1.414L2,30.707a1,1,0,0,0,1.414,0L18.772,15.349Z" fill="#61616b" data-color="color-2"></path><path d="M16,1A10.011,10.011,0,0,0,6,11a1,1,0,0,0,2,0,8,8,0,0,1,16,0c0,3.327-1.212,4.863-2.617,6.643a13.709,13.709,0,0,0-3.373,7.215C17.715,26.92,16.361,29,14,29a4,4,0,0,1-3.657-2.393L8.864,28.086A6,6,0,0,0,14,31c3.082,0,5.489-2.354,5.99-5.858a11.7,11.7,0,0,1,2.964-6.26C24.451,16.984,26,15.021,26,11A10.011,10.011,0,0,0,16,1Z" fill="#61616b"></path></g></svg>