<svg xmlns="http://www.w3.org/2000/svg" height="64" width="64" viewBox="0 0 64 64"><title>deaf 2</title><g fill="#61616b" class="nc-icon-wrapper"><path d="M20,37a1,1,0,0,1-.516-1.857C19.529,35.116,24,32.358,24,28a7.037,7.037,0,0,0-.385-2.085A12.792,12.792,0,0,1,23,22a9,9,0,1,1,17.6,2.648,1,1,0,1,1-1.913-.589A7,7,0,1,0,25,22a10.752,10.752,0,0,0,.536,3.358A8.959,8.959,0,0,1,26,28c0,5.5-5.262,8.723-5.485,8.857A.994.994,0,0,1,20,37Z" fill="#61616b"></path><path d="M5.707,59.707,4.293,58.293a1,1,0,0,1,0-1.414L35.172,26,38,28.828,7.121,59.707A1,1,0,0,1,5.707,59.707Z" fill="#61616b" data-color="color-2"></path><path d="M59.707,5.707,58.293,4.293a1,1,0,0,0-1.414,0l-6.905,6.9a20.88,20.88,0,0,1,1.815,3.842l7.918-7.918A1,1,0,0,0,59.707,5.707Z" fill="#61616b" data-color="color-2"></path><path d="M32,3A19.021,19.021,0,0,0,13,22a1,1,0,0,0,2,0,17,17,0,0,1,34,0c0,7-2.524,10.2-5.448,13.9-2.6,3.3-5.554,7.037-6.542,13.954C36.359,54.409,33.321,59,28,59a9,9,0,0,1-8.968-8.375l-1.763,1.763A11.013,11.013,0,0,0,28,61c5.646,0,10.062-4.363,10.99-10.858.912-6.385,3.566-9.746,6.132-13C48.012,33.482,51,29.7,51,22A19.021,19.021,0,0,0,32,3Z" fill="#61616b"></path></g></svg>