<svg xmlns="http://www.w3.org/2000/svg" height="24" width="24" viewBox="0 0 24 24"><title>deaf</title><g fill="#61616b" class="nc-icon-wrapper"><path d="M1.293,23.414l-.707-.707a1,1,0,0,1,0-1.414L12,9.879,14.121,12,2.707,23.414A1,1,0,0,1,1.293,23.414Z" fill="#61616b" data-color="color-2"></path><path d="M14.683,10.316a1,1,0,0,1-.9-1.442A1.974,1.974,0,0,0,14,8a2,2,0,0,0-4,0A1,1,0,0,1,8,8a4,4,0,0,1,8,0,3.961,3.961,0,0,1-.419,1.759A1,1,0,0,1,14.683,10.316Z" fill="#61616b"></path><path d="M23.414,1.293,22.707.586a1,1,0,0,0-1.414,0L19.937,1.942a9.956,9.956,0,0,1,1.49,2.752l1.987-1.987A1,1,0,0,0,23.414,1.293Z" fill="#61616b" data-color="color-2"></path><path d="M10,24c2.456-.015,4.364-1.852,4.963-4.8a8.759,8.759,0,0,1,2.286-4.212A9.591,9.591,0,0,0,20,8,8,8,0,0,0,4,8,1,1,0,0,0,6,8,6,6,0,0,1,18,8a7.614,7.614,0,0,1-2.284,5.7A10.682,10.682,0,0,0,13,18.8c-.152.749-.818,3.187-3,3.2a3,3,0,0,1-2.463-1.3L6.124,22.119A4.971,4.971,0,0,0,10,24Z" fill="#61616b"></path></g></svg>