<svg xmlns="http://www.w3.org/2000/svg" height="64" width="64" viewBox="0 0 64 64"><title>escalator 2</title><g fill="#61616b" class="nc-icon-wrapper"><path d="M26.933,29.822V22a5,5,0,0,0-10,0V38.378Z" fill="#61616b"></path><path d="M53.019,23.042H45.933a5.007,5.007,0,0,0-3.251,1.2L16.085,47h-5.1a5,5,0,0,0,0,10h6.952a5,5,0,0,0,3.251-1.2l26.6-22.757h5.238a5,5,0,1,0,0-10Z" fill="#61616b"></path><path d="M53.019,19.042H45.933A9,9,0,0,0,40.082,21.2L14.608,43H10.981a9,9,0,0,0,0,18h6.952a9,9,0,0,0,5.852-2.162l25.473-21.8h3.761a9,9,0,1,0,0-18Zm0,16h-4.5L22.485,57.318A7.009,7.009,0,0,1,17.933,59H10.981a7,7,0,0,1,0-14h4.366L41.381,22.724a7.009,7.009,0,0,1,4.552-1.682h7.086a7,7,0,1,1,0,14Z" fill="#61616b" data-color="color-2"></path><circle cx="21.933" cy="9" r="6" fill="#61616b"></circle><path d="M60.933,46h-12a1,1,0,0,0-.707,1.707L53.519,53l-6.293,6.293a1,1,0,1,0,1.414,1.414l6.293-6.293,5.293,5.293a1,1,0,0,0,.707.293.987.987,0,0,0,.383-.076A1,1,0,0,0,61.933,59V47A1,1,0,0,0,60.933,46Z" fill="#61616b" data-color="color-2"></path></g></svg>