<svg xmlns="http://www.w3.org/2000/svg" height="48" width="48" viewBox="0 0 48 48"><title>escalator 3</title><g fill="#61616b" class="nc-icon-wrapper"><circle cx="16" cy="7" r="5" fill="#61616b"></circle><path d="M40.5,15h-6a6.5,6.5,0,0,0-4.23,1.564L11.1,33H7.5a6.5,6.5,0,0,0,0,13h6a6.5,6.5,0,0,0,4.23-1.564L36.9,28h3.6a6.5,6.5,0,0,0,0-13Z" fill="#61616b"></path><path d="M20,22.733V18a4,4,0,0,0-8,0V29.59Z" fill="#61616b"></path><path d="M45,36H37a1,1,0,0,0-.707,1.707L39.586,41l-3.293,3.293a1,1,0,1,0,1.414,1.414L41,42.414l3.293,3.293A1,1,0,0,0,45,46a.987.987,0,0,0,.383-.076A1,1,0,0,0,46,45V37A1,1,0,0,0,45,36Z" fill="#61616b" data-color="color-2"></path></g></svg>