<svg xmlns="http://www.w3.org/2000/svg" height="32" width="32" viewBox="0 0 32 32"><title>escalator 4</title><g fill="#61616b" class="nc-icon-wrapper"><path d="M9,32H5A5,5,0,0,1,5,22H7.15l12.6-10.8A5,5,0,0,1,23,10h4a5,5,0,0,1,0,10H24.85L12.25,30.8A5,5,0,0,1,9,32Z" fill="#61616b"></path><circle cx="10.5" cy="3.5" r="3.5" fill="#61616b"></circle><path d="M14,13.5v-2a3.5,3.5,0,0,0-7,0v8Z" fill="#61616b"></path><path data-color="color-2" d="M31.5,23h-7a.5.5,0,0,0-.354.854l2.793,2.792-2.646,2.647a1,1,0,1,0,1.414,1.414l2.647-2.646,2.792,2.793A.5.5,0,0,0,31.5,31a.489.489,0,0,0,.191-.038A.5.5,0,0,0,32,30.5v-7A.5.5,0,0,0,31.5,23Z" fill="#61616b"></path></g></svg>