<svg xmlns="http://www.w3.org/2000/svg" height="24" width="24" viewBox="0 0 24 24"><title>escalator 5</title><g fill="#61616b" class="nc-icon-wrapper"><circle cx="8" cy="3" r="3" fill="#61616b"></circle><path d="M6,9v4.967l4-3.6V9A2,2,0,0,0,6,9Z" fill="#61616b"></path><path d="M20.5,15a3.5,3.5,0,0,0,0-7H17a3.5,3.5,0,0,0-2.343.9l-9,8.1H3.5a3.5,3.5,0,0,0,0,7H7a3.5,3.5,0,0,0,2.343-.9l9-8.1Z" fill="#61616b"></path><path data-color="color-2" d="M23.5,17h-5a.5.5,0,0,0-.354.854l1.793,1.792-2.646,2.647a1,1,0,1,0,1.414,1.414l2.647-2.646,1.792,1.793A.5.5,0,0,0,23.5,23a.489.489,0,0,0,.191-.038A.5.5,0,0,0,24,22.5v-5A.5.5,0,0,0,23.5,17Z" fill="#61616b"></path></g></svg>