<svg xmlns="http://www.w3.org/2000/svg" height="24" width="24" viewBox="0 0 24 24"><title>lift 5</title><g fill="#61616b" class="nc-icon-wrapper"><path d="M1,0H7V24H1a1,1,0,0,1-1-1V1A1,1,0,0,1,1,0Z" fill="#61616b"></path><path d="M9,0h6a1,1,0,0,1,1,1V23a1,1,0,0,1-1,1H9V0Z" fill="#61616b"></path><path data-color="color-2" d="M18.5,9.994h5a.5.5,0,0,0,.407-.791l-2.5-3.5a.52.52,0,0,0-.814,0l-2.5,3.5a.5.5,0,0,0,.407.791Z" fill="#61616b"></path><path data-color="color-2" d="M23.5,13.994h-5a.5.5,0,0,0-.407.79l2.5,3.5a.5.5,0,0,0,.814,0l2.5-3.5a.5.5,0,0,0-.407-.79Z" fill="#61616b"></path></g></svg>