<svg xmlns="http://www.w3.org/2000/svg" height="24" width="24" viewBox="0 0 24 24"><title>low vision</title><g fill="#61616b" class="nc-icon-wrapper"><path d="M18,11a6,6,0,1,0,6,6A6,6,0,0,0,18,11Zm3,7H19v2H17V18H15V16h2V14h2v2h2Z" fill="#61616b" data-color="color-2"></path><path d="M10,17a8.058,8.058,0,0,1,.1-1.222C6.127,14.866,3.211,11.351,2.218,10A16.683,16.683,0,0,1,8.083,4.931a4.958,4.958,0,0,0,3.049,7.982,7.991,7.991,0,0,1,5.741-3.825,4.85,4.85,0,0,0-.95-4.15,16.789,16.789,0,0,1,5.793,4.981,8.014,8.014,0,0,1,1.715,1.219c.237-.33.386-.558.416-.606a1,1,0,0,0,0-1.064C23.655,9.163,19.071,2,12,2S.345,9.163.153,9.468a1,1,0,0,0,0,1.064C.327,10.808,4.1,16.67,10.04,17.8,10.014,17.535,10,17.269,10,17Z" fill="#61616b"></path></g></svg>