<svg xmlns="http://www.w3.org/2000/svg" height="48" width="48" viewBox="0 0 48 48"><title>low vision 3</title><g fill="#61616b" class="nc-icon-wrapper"><path d="M47.059,44l-5.793-5.793a9.027,9.027,0,1,0-2.121,2.121l5.793,5.793ZM26.938,33a7,7,0,1,1,12.1,4.775l-.328.328A6.988,6.988,0,0,1,26.938,33Z" fill="#61616b" data-color="color-2"></path><polygon points="37.938 32 34.938 32 34.938 29 32.938 29 32.938 32 29.938 32 29.938 34 32.938 34 32.938 37 34.938 37 34.938 34 37.938 34 37.938 32" fill="#61616b" data-color="color-2"></polygon><path d="M46.358,18.162C43.393,13.9,35.273,4,23.937,4,12.169,4,3.792,14.849,1.506,18.172a3.231,3.231,0,0,0,0,3.654c2.912,4.183,10.809,13.825,21.85,14.156a10.87,10.87,0,0,1-.371-2.013C12.778,33.393,5.257,23.71,3.153,20.687a1.219,1.219,0,0,1,0-1.38c1.61-2.341,6.425-8.656,13.284-11.667A11.988,11.988,0,0,0,23.7,28.988,10.994,10.994,0,0,1,33.938,22c.3,0,.587.021.877.044A11.96,11.96,0,0,0,31.521,7.7c6.766,3.034,11.576,9.276,13.194,11.6a1.22,1.22,0,0,1,0,1.385,42.114,42.114,0,0,1-3.381,4.185,11.059,11.059,0,0,1,1.356,1.48,44.426,44.426,0,0,0,3.663-4.517A3.229,3.229,0,0,0,46.358,18.162ZM18.938,17a3,3,0,1,1,3-3A3,3,0,0,1,18.938,17Z" fill="#61616b"></path></g></svg>