<svg xmlns="http://www.w3.org/2000/svg" height="64" width="64" viewBox="0 0 64 64"><title>low vision 2</title><g fill="#61616b" class="nc-icon-wrapper"><polygon points="49.022 42.022 45.022 42.022 45.022 38.022 43.022 38.022 43.022 42.022 39.022 42.022 39.022 44.022 43.022 44.022 43.022 48.022 45.022 48.022 45.022 44.022 49.022 44.022 49.022 42.022" fill="#61616b" data-color="color-2"></polygon><path d="M61.436,57.608l-6.214-6.217a14.09,14.09,0,0,1-2.831,2.831l6.217,6.217a2,2,0,0,0,2.828-2.828Z" fill="#61616b" data-color="color-2"></path><path d="M44.022,55.022a12,12,0,1,1,12-12A12,12,0,0,1,44.022,55.022Zm0-22a10,10,0,1,0,10,10A10,10,0,0,0,44.022,33.022Z" fill="#61616b" data-color="color-2"></path><path d="M62.275,24.73C50.23,7.825,37.091,6,32,6,26.866,6,13.633,7.826,1.714,24.744a3.9,3.9,0,0,0,.009,4.508c3.055,4.3,14.031,18.086,29.2,18.718a13.826,13.826,0,0,1-.611-2.036c-13.91-.981-24.091-13.8-26.963-17.841a1.9,1.9,0,0,1-.005-2.2c6.773-9.611,14.04-14.087,19.694-16.156a15.994,15.994,0,0,0,7.566,29.19,13.984,13.984,0,0,1,16.113-9.661A16,16,0,0,0,41,9.774c5.618,2.084,12.839,6.562,19.646,16.116A1.9,1.9,0,0,1,60.64,28.1a57.154,57.154,0,0,1-5.472,6.478A14,14,0,0,1,56.29,36.29a59.313,59.313,0,0,0,5.975-7.022A3.9,3.9,0,0,0,62.275,24.73ZM26,22.881a4,4,0,1,1,4-4A4,4,0,0,1,26,22.881Z" fill="#61616b"></path></g></svg>