<svg xmlns="http://www.w3.org/2000/svg" height="32" width="32" viewBox="0 0 32 32"><title>low vision 4</title><g fill="#61616b" class="nc-icon-wrapper"><path d="M23.994,16a7,7,0,1,0,7,7A7,7,0,0,0,23.994,16Zm4,8h-3v3h-2V24h-3V22h3V19h2v3h3Z" fill="#61616b" data-color="color-2"></path><path d="M31.377,12.2C29.24,9.433,23.463,3,16,3,8.442,3,2.717,9.438.608,12.2a2.934,2.934,0,0,0,.01,3.59c2.062,2.67,7.515,8.735,14.6,9.165A9.024,9.024,0,0,1,14.994,23c0-.019,0-.037,0-.055-6.106-.553-10.939-5.971-12.8-8.379a.935.935,0,0,1,0-1.147,24.7,24.7,0,0,1,8.058-6.986,7.988,7.988,0,0,0,5.271,13.543,8.99,8.99,0,0,1,8.2-5.963,7.923,7.923,0,0,0-1.964-7.546A25.29,25.29,0,0,1,29.8,13.424a.938.938,0,0,1,0,1.155c-.2.258-.463.587-.773.955a9.02,9.02,0,0,1,1.518,1.3c.337-.4.621-.753.835-1.03A2.934,2.934,0,0,0,31.377,12.2ZM12.994,12a2,2,0,1,1,2-2A2,2,0,0,1,12.994,12Z" fill="#61616b"></path></g></svg>