<svg xmlns="http://www.w3.org/2000/svg" height="16" width="16" viewBox="0 0 16 16"><title>low vision 5</title><g fill="#61616b" class="nc-icon-wrapper"><circle cx="8" cy="7" r="2" fill="#61616b"></circle><polygon points="16 12 14 12 14 10 12 10 12 12 10 12 10 14 12 14 12 16 14 16 14 14 16 14 16 12" fill="#61616b" data-color="color-2"></polygon><path d="M8.437,10.973A4.2,4.2,0,0,1,8,11C5.159,11,2.962,8.162,2.181,7,2.958,5.835,5.146,3,8,3s5.036,2.835,5.818,4c-.179.266-.434.621-.751,1.007a4.938,4.938,0,0,1,2.124.519,11.982,11.982,0,0,0,.68-1.034,1,1,0,0,0,0-.98C15.746,6.287,12.731,1,8,1,3.245,1,.251,6.289.126,6.514a1,1,0,0,0,0,.975C.254,7.713,3.269,13,8,13A4.957,4.957,0,0,1,8.437,10.973Z" fill="#61616b"></path></g></svg>