<svg xmlns="http://www.w3.org/2000/svg" height="64" width="64" viewBox="0 0 64 64"><title>screen reader 2</title><g fill="#61616b" class="nc-icon-wrapper"><path d="M56,7H8a6.006,6.006,0,0,0-6,6V51a6.006,6.006,0,0,0,6,6H22a1,1,0,0,0,0-2H8a4,4,0,0,1-4-4V13A4,4,0,0,1,8,9H56a4,4,0,0,1,4,4v9a1,1,0,0,0,2,0V13A6.006,6.006,0,0,0,56,7Z" fill="#61616b"></path><path d="M37.421,21.093a1,1,0,0,0-1.067.143L23.634,32H16a5.006,5.006,0,0,0-5,5v8a5.006,5.006,0,0,0,5,5h7.634l12.72,10.764A1,1,0,0,0,37,61a1,1,0,0,0,1-1V22A1,1,0,0,0,37.421,21.093Z" fill="#61616b" data-color="color-2"></path><path d="M51.475,23.383a1,1,0,0,0-.95,1.76,18.006,18.006,0,0,1,0,31.714,1,1,0,0,0,.95,1.76,20.006,20.006,0,0,0,0-35.234Z" fill="#61616b" data-color="color-2"></path><path d="M55,41a12.958,12.958,0,0,0-7.06-11.566,1,1,0,0,0-.914,1.779,11,11,0,0,1,0,19.573,1,1,0,0,0,.459,1.89.974.974,0,0,0,.457-.112A12.955,12.955,0,0,0,55,41Z" fill="#61616b" data-color="color-2"></path><path d="M44.923,35.76a1,1,0,1,0-.975,1.746,4,4,0,0,1,.012,6.982,1,1,0,0,0,.491,1.871.983.983,0,0,0,.489-.129,6,6,0,0,0-.017-10.47Z" fill="#61616b" data-color="color-2"></path></g></svg>