<svg xmlns="http://www.w3.org/2000/svg" height="32" width="32" viewBox="0 0 32 32"><title>screen reader 4</title><g fill="#61616b" class="nc-icon-wrapper"><path d="M28,2H4A4,4,0,0,0,0,6V26a4,4,0,0,0,4,4H14V28H4a2,2,0,0,1-2-2V6A2,2,0,0,1,4,4H28a2,2,0,0,1,2,2v5h2V6A4,4,0,0,0,28,2Z" fill="#61616b"></path><path d="M7,17v6a2,2,0,0,0,2,2h4.638L21,31.135V8.865L13.638,15H9A2,2,0,0,0,7,17Z" fill="#61616b" data-color="color-2"></path><path d="M26.585,11.111l-.918,1.778a8,8,0,0,1,0,14.222l.918,1.778a10,10,0,0,0,0-17.778Z" fill="#61616b" data-color="color-2"></path><path d="M24.5,15.67l-1,1.73a3,3,0,0,1,0,5.2l1,1.73a5,5,0,0,0,0-8.66Z" fill="#61616b" data-color="color-2"></path></g></svg>