<svg xmlns="http://www.w3.org/2000/svg" height="24" width="24" viewBox="0 0 24 24"><title>screen reader</title><g fill="#61616b" class="nc-icon-wrapper"><path d="M21,2H3A3,3,0,0,0,0,5V19a3,3,0,0,0,3,3H4V20H3a1,1,0,0,1-1-1V5A1,1,0,0,1,3,4H21a1,1,0,0,1,1,1V9h2V5A3,3,0,0,0,21,2Z" fill="#61616b"></path><path d="M6,13v6a1,1,0,0,0,1,1h4.667L17,24V8l-5.333,4H7A1,1,0,0,0,6,13Z" fill="#61616b" data-color="color-2"></path><path d="M20.871,10.167l-1.107,1.666a5,5,0,0,1,0,8.334l1.107,1.666a7,7,0,0,0,0-11.666Z" fill="#61616b" data-color="color-2"></path></g></svg>