<svg xmlns="http://www.w3.org/2000/svg" height="48" width="48" viewBox="0 0 48 48"><title>screen reader 3</title><g fill="#61616b" class="nc-icon-wrapper"><path d="M42,5H6a5.006,5.006,0,0,0-5,5V38a5.006,5.006,0,0,0,5,5h9a1,1,0,0,0,0-2H6a3,3,0,0,1-3-3V10A3,3,0,0,1,6,7H42a3,3,0,0,1,3,3v5a1,1,0,0,0,2,0V10A5.006,5.006,0,0,0,42,5Z" fill="#61616b"></path><path d="M28.434,15.1a1,1,0,0,0-1.059.12L17.649,23H12a4,4,0,0,0-4,4v6a4,4,0,0,0,4,4h5.649l9.726,7.781A1,1,0,0,0,29,44V16A1,1,0,0,0,28.434,15.1Z" fill="#61616b" data-color="color-2"></path><path d="M38.467,15.847a1,1,0,1,0-.934,1.767,14.006,14.006,0,0,1,0,24.772,1,1,0,1,0,.934,1.767,16,16,0,0,0,0-28.306Z" fill="#61616b" data-color="color-2"></path><path d="M40,30a9.031,9.031,0,0,0-4.5-7.8,1,1,0,0,0-1,1.731,7,7,0,0,1,0,12.128,1,1,0,1,0,1,1.731A9.031,9.031,0,0,0,40,30Z" fill="#61616b" data-color="color-2"></path></g></svg>