<svg xmlns="http://www.w3.org/2000/svg" height="64" width="64" viewBox="0 0 64 64"><title>sign language 2</title><g fill="#61616b" class="nc-icon-wrapper"><path d="M18,44.5V31.137L12.17,15.118a2.768,2.768,0,0,0-3.034-1.847,2.668,2.668,0,0,0-2.027,3.537l6.733,18.5a.667.667,0,0,1-.944.815L6.354,32.576a3.326,3.326,0,0,0-3.8,5.441l16.869,14.39c.3.25.609.485.925.711A17.381,17.381,0,0,1,18,44.5Z" fill="#61616b" data-color="color-2"></path><path d="M33.277,18.531,36.722,12.4l-.224-.617a2.669,2.669,0,0,0-3.827-1.406,2.765,2.765,0,0,0-1.136,3.364Z" fill="#61616b" data-color="color-2"></path><path d="M24.407,17.554a4.988,4.988,0,0,1,3.422,3.529l.033.126.709,5.69,2.983-5.3L25.837,5.887A2.768,2.768,0,0,0,22.8,4.04a2.668,2.668,0,0,0-2.027,3.537Z" fill="#61616b" data-color="color-2"></path><path d="M18,23.34v-.823a5.185,5.185,0,0,1,3.57-4.961L17.863,7.37A2.767,2.767,0,0,0,14.83,5.523,2.668,2.668,0,0,0,12.8,9.06Z" fill="#61616b" data-color="color-2"></path><path d="M60.788,27.494a2.87,2.87,0,0,0-3.468,1.25L51.445,39.033a1.333,1.333,0,0,1-2.316-1.322l10.509-18.4a2.766,2.766,0,0,0-.552-3.508,2.669,2.669,0,0,0-4.009.74L44.5,35.066a1.333,1.333,0,0,1-2.316-1.322l11.17-19.561a2.767,2.767,0,0,0-.552-3.508,2.669,2.669,0,0,0-4.009.74L37.55,31.1a1.333,1.333,0,1,1-2.315-1.323L43.76,14.848a2.767,2.767,0,0,0-.552-3.509,2.669,2.669,0,0,0-4.009.74L28.331,31.409a.667.667,0,0,1-1.243-.244l-1.194-9.58a2.993,2.993,0,0,0-3.153-2.238A3.125,3.125,0,0,0,20,22.516V44.489a15.315,15.315,0,0,0,7.718,13.24c7.993,4.564,18.026,2.042,22.408-5.631l11.9-20.842A2.666,2.666,0,0,0,60.788,27.494Z" fill="#61616b"></path></g></svg>