<svg xmlns="http://www.w3.org/2000/svg" height="24" width="24" viewBox="0 0 24 24"><title>text size</title><g fill="#61616b" class="nc-icon-wrapper"><path d="M19.707,6.293c-.391-.391-1.023-.391-1.414,0l-3,3c-.391,.391-.391,1.023,0,1.414s1.023,.391,1.414,0l2.293-2.293,2.293,2.293c.195,.195,.451,.293,.707,.293s.512-.098,.707-.293c.391-.391,.391-1.023,0-1.414l-3-3Z" fill="#61616b" data-color="color-2"></path><path d="M21.293,14.293l-2.293,2.293-2.293-2.293c-.391-.391-1.023-.391-1.414,0s-.391,1.023,0,1.414l3,3c.195,.195,.451,.293,.707,.293s.512-.098,.707-.293l3-3c.391-.391,.391-1.023,0-1.414s-1.023-.391-1.414,0Z" fill="#61616b" data-color="color-2"></path><path d="M19,3c.553,0,1-.448,1-1s-.447-1-1-1H1c-.553,0-1,.448-1,1s.447,1,1,1H9V22c0,.552,.447,1,1,1s1-.448,1-1V3h8Z" fill="#61616b"></path></g></svg>