<svg xmlns="http://www.w3.org/2000/svg" height="32" width="32" viewBox="0 0 32 32"><title>text size 5</title><g fill="#61616b" class="nc-icon-wrapper"><path d="M26.707,10.293c-.391-.391-1.023-.391-1.414,0l-4,4c-.391,.391-.391,1.023,0,1.414s1.023,.391,1.414,0l3.293-3.293,3.293,3.293c.195,.195,.451,.293,.707,.293s.512-.098,.707-.293c.391-.391,.391-1.023,0-1.414l-4-4Z" fill="#61616b" data-color="color-2"></path><path d="M29.293,20.293l-3.293,3.293-3.293-3.293c-.391-.391-1.023-.391-1.414,0s-.391,1.023,0,1.414l4,4c.195,.195,.451,.293,.707,.293s.512-.098,.707-.293l4-4c.391-.391,.391-1.023,0-1.414s-1.023-.391-1.414,0Z" fill="#61616b" data-color="color-2"></path><path d="M25,2.5c0-.829-.672-1.5-1.5-1.5H2.5c-.828,0-1.5,.671-1.5,1.5s.672,1.5,1.5,1.5H11V29c0,1.104,.896,2,2,2s2-.896,2-2V4h8.5c.828,0,1.5-.671,1.5-1.5Z" fill="#61616b"></path></g></svg>