<svg xmlns="http://www.w3.org/2000/svg" height="48" width="48" viewBox="0 0 48 48"><title>text size 4</title><g fill="#61616b" class="nc-icon-wrapper"><path d="M37,6c1.104,0,2-.896,2-2s-.896-2-2-2H3c-1.104,0-2,.896-2,2s.896,2,2,2h15V44c0,1.104,.896,2,2,2s2-.896,2-2V6h15Z" fill="#61616b"></path><path d="M38.707,13.293c-.391-.391-1.023-.391-1.414,0l-6,6c-.391,.391-.391,1.023,0,1.414s1.023,.391,1.414,0l5.293-5.293,5.293,5.293c.195,.195,.451,.293,.707,.293s.512-.098,.707-.293c.391-.391,.391-1.023,0-1.414l-6-6Z" fill="#61616b" data-color="color-2"></path><path d="M43.293,29.293l-5.293,5.293-5.293-5.293c-.391-.391-1.023-.391-1.414,0s-.391,1.023,0,1.414l6,6c.195,.195,.451,.293,.707,.293s.512-.098,.707-.293l6-6c.391-.391,.391-1.023,0-1.414s-1.023-.391-1.414,0Z" fill="#61616b" data-color="color-2"></path></g></svg>