<svg xmlns="http://www.w3.org/2000/svg" height="16" width="16" viewBox="0 0 16 16"><title>text size 2</title><g fill="#61616b" class="nc-icon-wrapper"><path data-color="color-2" d="M13.384,5.18c-.189-.228-.578-.228-.768,0l-2.5,3c-.125,.149-.151,.357-.069,.532,.083,.176,.259,.288,.453,.288h5c.194,0,.37-.112,.453-.288,.082-.175,.056-.383-.069-.532l-2.5-3Z" fill="#61616b"></path><path data-color="color-2" d="M15.5,11h-5c-.194,0-.37,.112-.453,.288-.082,.175-.056,.383,.069,.532l2.5,3c.095,.114,.235,.18,.384,.18s.289-.066,.384-.18l2.5-3c.125-.149,.151-.357,.069-.532-.083-.176-.259-.288-.453-.288Z" fill="#61616b"></path><path d="M13,3c.553,0,1-.448,1-1s-.447-1-1-1H1c-.553,0-1,.448-1,1s.447,1,1,1H6V14c0,.552,.447,1,1,1s1-.448,1-1V3h5Z" fill="#61616b"></path></g></svg>