<svg xmlns="http://www.w3.org/2000/svg" height="64" width="64" viewBox="0 0 64 64"><title>text size 3</title><g fill="#61616b" class="nc-icon-wrapper"><path d="M52.809,20.412c-.377-.517-1.24-.517-1.617,0l-8,11c-.222,.304-.253,.707-.082,1.042,.17,.335,.515,.546,.891,.546h16c.376,0,.721-.211,.891-.546,.171-.335,.14-.738-.082-1.042l-8-11Z" fill="#61616b" data-color="color-2"></path><path d="M60,39h-16c-.376,0-.721,.211-.891,.546-.171,.335-.14,.738,.082,1.042l8,11c.188,.258,.488,.412,.809,.412s.62-.153,.809-.412l8-11c.222-.304,.253-.707,.082-1.042-.17-.335-.515-.546-.891-.546Z" fill="#61616b" data-color="color-2"></path><path d="M55,5c0-1.104-.896-2-2-2H5c-1.104,0-2,.896-2,2s.896,2,2,2H26V60c0,1.657,1.343,3,3,3s3-1.343,3-3V7h21c1.104,0,2-.896,2-2Z" fill="#61616b"></path></g></svg>