<svg xmlns="http://www.w3.org/2000/svg" height="48" width="48" viewBox="0 0 48 48"><title>tty 2</title><g fill="#61616b" class="nc-icon-wrapper"><path d="M40.488,19.665a2.373,2.373,0,0,1-.847-.158l-7.271-2.8a2.362,2.362,0,0,1-1.5-2.464l.478-4.3a29.326,29.326,0,0,0-14.7,0l.478,4.305a2.362,2.362,0,0,1-1.5,2.464l-7.27,2.8A2.4,2.4,0,0,1,5.475,18.5L2.344,13.2a2.417,2.417,0,0,1,.61-3.165,35.01,35.01,0,0,1,42.092,0,2.416,2.416,0,0,1,.609,3.165L42.524,18.5A2.369,2.369,0,0,1,40.488,19.665Z" fill="#61616b"></path><path d="M9,33H3a1,1,0,0,1-1-1V26a1,1,0,0,1,1-1H9a1,1,0,0,1,1,1v6A1,1,0,0,1,9,33Z" fill="#61616b" data-color="color-2"></path><path d="M21,33H15a1,1,0,0,1-1-1V26a1,1,0,0,1,1-1h6a1,1,0,0,1,1,1v6A1,1,0,0,1,21,33Z" fill="#61616b" data-color="color-2"></path><path d="M15,45H9a1,1,0,0,1-1-1V38a1,1,0,0,1,1-1h6a1,1,0,0,1,1,1v6A1,1,0,0,1,15,45Z" fill="#61616b" data-color="color-2"></path><path d="M27,45H21a1,1,0,0,1-1-1V38a1,1,0,0,1,1-1h6a1,1,0,0,1,1,1v6A1,1,0,0,1,27,45Z" fill="#61616b" data-color="color-2"></path><path d="M39,45H33a1,1,0,0,1-1-1V38a1,1,0,0,1,1-1h6a1,1,0,0,1,1,1v6A1,1,0,0,1,39,45Z" fill="#61616b" data-color="color-2"></path><path d="M33,33H27a1,1,0,0,1-1-1V26a1,1,0,0,1,1-1h6a1,1,0,0,1,1,1v6A1,1,0,0,1,33,33Z" fill="#61616b" data-color="color-2"></path><path d="M45,33H39a1,1,0,0,1-1-1V26a1,1,0,0,1,1-1h6a1,1,0,0,1,1,1v6A1,1,0,0,1,45,33Z" fill="#61616b" data-color="color-2"></path></g></svg>