<svg xmlns="http://www.w3.org/2000/svg" height="32" width="32" viewBox="0 0 32 32"><title>tty 4</title><g fill="#61616b" class="nc-icon-wrapper"><path d="M6,23H2a1,1,0,0,1-1-1V18a1,1,0,0,1,1-1H6a1,1,0,0,1,1,1v4A1,1,0,0,1,6,23Z" fill="#61616b" data-color="color-2"></path><path d="M14,23H10a1,1,0,0,1-1-1V18a1,1,0,0,1,1-1h4a1,1,0,0,1,1,1v4A1,1,0,0,1,14,23Z" fill="#61616b" data-color="color-2"></path><path d="M10,31H6a1,1,0,0,1-1-1V26a1,1,0,0,1,1-1h4a1,1,0,0,1,1,1v4A1,1,0,0,1,10,31Z" fill="#61616b" data-color="color-2"></path><path d="M18,31H14a1,1,0,0,1-1-1V26a1,1,0,0,1,1-1h4a1,1,0,0,1,1,1v4A1,1,0,0,1,18,31Z" fill="#61616b" data-color="color-2"></path><path d="M26,31H22a1,1,0,0,1-1-1V26a1,1,0,0,1,1-1h4a1,1,0,0,1,1,1v4A1,1,0,0,1,26,31Z" fill="#61616b" data-color="color-2"></path><path d="M22,23H18a1,1,0,0,1-1-1V18a1,1,0,0,1,1-1h4a1,1,0,0,1,1,1v4A1,1,0,0,1,22,23Z" fill="#61616b" data-color="color-2"></path><path d="M30,23H26a1,1,0,0,1-1-1V18a1,1,0,0,1,1-1h4a1,1,0,0,1,1,1v4A1,1,0,0,1,30,23Z" fill="#61616b" data-color="color-2"></path><path d="M31.278,6.062A25.48,25.48,0,0,0,16,1h0A25.48,25.48,0,0,0,.722,6.061,1.778,1.778,0,0,0,.244,8.388l2.212,3.763a1.721,1.721,0,0,0,2.1.733L9.9,10.829a1.72,1.72,0,0,0,1.092-1.795l-.375-3.37h.01a22.063,22.063,0,0,1,10.756,0h.01l-.375,3.37a1.72,1.72,0,0,0,1.092,1.8l5.338,2.055a1.721,1.721,0,0,0,2.1-.733l2.212-3.763A1.778,1.778,0,0,0,31.278,6.062Z" fill="#61616b"></path></g></svg>