<svg xmlns="http://www.w3.org/2000/svg" height="64" width="64" viewBox="0 0 64 64"><title>tty 3</title><g fill="#61616b" class="nc-icon-wrapper"><path d="M15,45H7a1,1,0,0,1-1-1V36a1,1,0,0,1,1-1h8a1,1,0,0,1,1,1v8A1,1,0,0,1,15,45Z" fill="#61616b" data-color="color-2"></path><path d="M29,45H21a1,1,0,0,1-1-1V36a1,1,0,0,1,1-1h8a1,1,0,0,1,1,1v8A1,1,0,0,1,29,45Z" fill="#61616b" data-color="color-2"></path><path d="M43,45H35a1,1,0,0,1-1-1V36a1,1,0,0,1,1-1h8a1,1,0,0,1,1,1v8A1,1,0,0,1,43,45Z" fill="#61616b" data-color="color-2"></path><path d="M22,59H14a1,1,0,0,1-1-1V50a1,1,0,0,1,1-1h8a1,1,0,0,1,1,1v8A1,1,0,0,1,22,59Z" fill="#61616b" data-color="color-2"></path><path d="M36,59H28a1,1,0,0,1-1-1V50a1,1,0,0,1,1-1h8a1,1,0,0,1,1,1v8A1,1,0,0,1,36,59Z" fill="#61616b" data-color="color-2"></path><path d="M50,59H42a1,1,0,0,1-1-1V50a1,1,0,0,1,1-1h8a1,1,0,0,1,1,1v8A1,1,0,0,1,50,59Z" fill="#61616b" data-color="color-2"></path><path d="M57,45H49a1,1,0,0,1-1-1V36a1,1,0,0,1,1-1h8a1,1,0,0,1,1,1v8A1,1,0,0,1,57,45Z" fill="#61616b" data-color="color-2"></path><path d="M60.78,15.7a47.545,47.545,0,0,0-57.56,0,3.112,3.112,0,0,0-.8,4.038l4.318,7.42a3.219,3.219,0,0,0,3.937,1.385l9.906-3.814a3.221,3.221,0,0,0,2.044-3.362l-.673-6.054a39.081,39.081,0,0,1,20.09,0l-.673,6.054a3.221,3.221,0,0,0,2.044,3.362l9.906,3.814a3.219,3.219,0,0,0,3.937-1.385l4.318-7.42A3.112,3.112,0,0,0,60.78,15.7Z" fill="#61616b"></path></g></svg>