<svg xmlns="http://www.w3.org/2000/svg" height="24" width="24" viewBox="0 0 24 24"><title>tty</title><g fill="#61616b" class="nc-icon-wrapper"><path d="M23.6,5.866a19.339,19.339,0,0,0-23.2,0A1,1,0,0,0,.105,7.113l1.667,3.334a1,1,0,0,0,1.191.508L7.8,9.455a1,1,0,0,0,.694-1.1L8.153,6h7.694L15.51,8.358a1,1,0,0,0,.694,1.1l4.833,1.5a1,1,0,0,0,1.19-.508l1.667-3.334A1,1,0,0,0,23.6,5.866Z" fill="#61616b"></path><rect x="1" y="13" width="4" height="4" rx="1" fill="#61616b" data-color="color-2"></rect><rect x="7" y="13" width="4" height="4" rx="1" fill="#61616b" data-color="color-2"></rect><rect x="13" y="13" width="4" height="4" rx="1" fill="#61616b" data-color="color-2"></rect><rect x="19" y="13" width="4" height="4" rx="1" fill="#61616b" data-color="color-2"></rect><rect x="4" y="19" width="4" height="4" rx="1" fill="#61616b" data-color="color-2"></rect><rect x="16" y="19" width="4" height="4" rx="1" fill="#61616b" data-color="color-2"></rect><rect x="10" y="19" width="4" height="4" rx="1" fill="#61616b" data-color="color-2"></rect></g></svg>