<svg xmlns="http://www.w3.org/2000/svg" height="64" width="64" viewBox="0 0 64 64"><title>walking aid 3</title><g fill="#61616b" class="nc-icon-wrapper"><circle cx="35" cy="9" r="6" fill="#61616b"></circle><path d="M25.434,45.425a3.5,3.5,0,0,0-.762-1.663L20.1,38.267l-1.3,1.418.672,6.772a5.511,5.511,0,0,1-.167,1.989l-.252.783,1.994,9.26a2.992,2.992,0,1,0,5.9-.984Z" fill="#61616b"></path><path d="M54,55.184V41.5a9.507,9.507,0,0,0-6.092-8.857A4.5,4.5,0,0,1,48,33.5a4.434,4.434,0,0,1-.206,1.273A7.5,7.5,0,0,1,52,41.5V43H37V41.5a7.464,7.464,0,0,1,1.982-5.062l-1.922-.828A9.446,9.446,0,0,0,35,41.5V60a1,1,0,0,0,2,0V51H52v4.184a3,3,0,1,0,2,0ZM52,49H37V45H52Z" fill="#61616b" data-color="color-2"></path><path d="M44.614,31.273l-7.02-4.08L31.1,16.838a6,6,0,0,0-9.678-.714l-11,12a5.981,5.981,0,0,0-1.376,4.552H9.038L10.453,46.7,8.117,57.214a2.988,2.988,0,1,0,5.766,1.572l3.494-10.865a3.514,3.514,0,0,0,.106-1.267l-.759-7.662L29.3,25.268,32.959,31.1a3,3,0,0,0,1.2,1.089l8.228,3.543A2.475,2.475,0,0,0,43.5,36a2.493,2.493,0,0,0,1.114-4.727Z" fill="#61616b"></path></g></svg>