<svg xmlns="http://www.w3.org/2000/svg" height="24" width="24" viewBox="0 0 24 24"><title>walking aid 4</title><g fill="#61616b" class="nc-icon-wrapper"><circle cx="14" cy="3" r="3" fill="#61616b"></circle><path d="M14.1,10.131,11.6,6.816a1.971,1.971,0,0,0-3.164-.065l-4,5A1.983,1.983,0,0,0,4.009,13L4,23H6V15a2,2,0,0,0,1.562-.751l3.674-4.593L12.7,11.6a1.013,1.013,0,0,0,.524.36L17.206,13.1l.55-1.923Z" fill="#61616b"></path><path d="M21,20.389V15a3.993,3.993,0,0,0-2.271-3.591l-.564,1.973A1.991,1.991,0,0,1,19,15v1H15V15a1.991,1.991,0,0,1,.526-1.341l-2.015-.575A3.94,3.94,0,0,0,13,15v8h2V18h4v2.389a1.5,1.5,0,1,0,2,0Z" fill="#61616b" data-color="color-2"></path></g></svg>