<svg xmlns="http://www.w3.org/2000/svg" height="48" width="48" viewBox="0 0 48 48"><title>walking aid 2</title><g fill="#61616b" class="nc-icon-wrapper"><path d="M33.9,24.211l-5.4-2.7s-4.033-8.123-4.081-8.194a4.45,4.45,0,0,0-7.259-.829l-9,10a4.472,4.472,0,0,0-1.1,3.56c.007.1,1.89,9.9,1.89,9.9L7.066,43.928a2.5,2.5,0,1,0,4.868,1.144l2-8.506a2.5,2.5,0,0,0,.02-1.048l-.961-4.95L23.008,19.44l2.2,4.447a2,2,0,0,0,.9.9l6,3a2,2,0,0,0,1.79-3.578Z" fill="#61616b"></path><circle cx="27" cy="6" r="5" fill="#61616b"></circle><path d="M19.446,34.479a2.5,2.5,0,0,0-.473-1.02l-2.732-3.51-1.095,1.216.771,3.972a4.451,4.451,0,0,1-.037,1.888l-.531,2.261,1.2,5.729a2.5,2.5,0,0,0,4.892-1.03Z" fill="#61616b"></path><path d="M41,41.184V32a7,7,0,0,0-4.025-6.327,3.956,3.956,0,0,1-.381,2.074A4.984,4.984,0,0,1,39,32v3H29V32a4.952,4.952,0,0,1,1.034-3.01l-1.827-.914A6.961,6.961,0,0,0,27,32V46a1,1,0,0,0,2,0V37H39v4.184a3,3,0,1,0,2,0Z" fill="#61616b" data-color="color-2"></path></g></svg>