<svg xmlns="http://www.w3.org/2000/svg" height="32" width="32" viewBox="0 0 32 32"><title>walking aid</title><g fill="#61616b" class="nc-icon-wrapper"><path d="M18.465,13.771l-2.99-4.466a5.428,5.428,0,0,0-.55-.606,3,3,0,0,0-4.225.375l-5.022,6a2.985,2.985,0,0,0-.666,2.312L5,31H7.5l.458-11,.019,0a2.991,2.991,0,0,0,2.3-1.074l4.384-5.237,1.617,2.182a1.5,1.5,0,0,0,.664.522l5.093,1.767.928-2.32Z" fill="#61616b"></path><circle cx="17.5" cy="4.5" r="3.5" fill="#61616b"></circle><path d="M27,27.278V21a4.994,4.994,0,0,0-2.273-4.181l-.77,1.925A2.986,2.986,0,0,1,25,21v2H19V21a2.984,2.984,0,0,1,.477-1.611l-1.905-.661A4.939,4.939,0,0,0,17,21V31h2V25h6v2.278a2,2,0,1,0,2,0Z" fill="#61616b" data-color="color-2"></path></g></svg>