<svg xmlns="http://www.w3.org/2000/svg" height="64" width="64" viewBox="0 0 64 64"><title>wheelchair ramp 2</title><g fill="#61616b" class="nc-icon-wrapper"><circle cx="23.5" cy="6.5" r="5.5" fill="#61616b"></circle><circle cx="46.5" cy="49.5" r="3.5" fill="#61616b"></circle><path d="M60,62H4a1,1,0,0,1-.106-1.994l56-6A1,1,0,0,1,61,55v6A1,1,0,0,1,60,62Z" fill="#61616b" data-color="color-2"></path><path d="M24,30A11,11,0,1,0,35,41,11.012,11.012,0,0,0,24,30Zm0,25A14,14,0,1,1,38,41,14.015,14.015,0,0,1,24,55Z" fill="#61616b"></path><circle cx="24" cy="41" r="3" fill="#61616b"></circle><path d="M9.5,32a2.5,2.5,0,0,0,2.211-1.331L15.8,22.949l4.571-1.96,1.2,4.214a15.643,15.643,0,0,1,11.071,2.345l-2.835-9.922a5,5,0,0,0-6.182-3.434c-.116.034-10.611,4.51-10.611,4.51a2.5,2.5,0,0,0-1.224,1.128l-4.5,8.5A2.5,2.5,0,0,0,9.5,32Z" fill="#61616b"></path><path d="M47.987,32.729a3,3,0,0,0-3.359-2.706l-8.12,1.015a15.934,15.934,0,0,1,2.9,5.684l2.889-.361L43.5,44.252l5-.454Z" fill="#61616b"></path></g></svg>