<svg xmlns="http://www.w3.org/2000/svg" height="64" width="64" viewBox="0 0 64 64"><title>wheelchair 2 3</title><g fill="#61616b" class="nc-icon-wrapper"><path data-color="color-2" d="M22,62A18,18,0,1,1,40,44,18.021,18.021,0,0,1,22,62Zm0-32A14,14,0,1,0,36,44,14.015,14.015,0,0,0,22,30Z" fill="#61616b"></path><circle data-color="color-2" cx="22" cy="44" r="4" fill="#61616b"></circle><circle data-color="color-2" cx="55" cy="57" r="5" fill="#61616b"></circle><path d="M51,34.09V24a6.006,6.006,0,0,0-6-6H19.153L16.99,2.858A1,1,0,0,0,16,2H8A1,1,0,0,0,8,4h7.133l2.913,20.4a19.53,19.53,0,0,1,1.979-.295L19.439,20H45a4,4,0,0,1,4,4V34H39.3a20,20,0,0,1,1.022,2H50a4,4,0,0,1,4,4V50.08a6.29,6.29,0,0,1,2,0V40A6.006,6.006,0,0,0,51,34.09Z" fill="#61616b"></path><path d="M22,56A12,12,0,1,1,34,44,12.013,12.013,0,0,1,22,56Zm0-22A10,10,0,1,0,32,44,10.011,10.011,0,0,0,22,34Z" fill="#61616b"></path></g></svg>