<svg xmlns="http://www.w3.org/2000/svg" height="24" width="24" viewBox="0 0 24 24"><title>wheelchair</title><g fill="#61616b" class="nc-icon-wrapper"><path d="M11,6c-1.657,0-3-1.343-3-3s1.343-3,3-3,3,1.343,3,3-1.343,3-3,3Z" fill="#61616b"></path><circle cx="20" cy="22" r="2" fill="#61616b" data-color="color-2"></circle><path d="M10,22c-2.198,.012-3.989-1.76-4.001-3.957-.008-1.447,.77-2.784,2.032-3.492l-.41-2.051-.309,.156c-2.955,1.489-4.144,5.092-2.655,8.047,1.489,2.955,5.092,4.144,8.047,2.655,2.023-1.019,3.299-3.093,3.296-5.358h-2c0,2.209-1.791,4-4,4Z" fill="#61616b" data-color="color-2"></path><path d="M19,14h-4.961l-1.078-5.393c-.217-1.083-1.27-1.784-2.353-1.568l-5.769,.974c-.298,.05-.557,.232-.706,.495l-2.003,3.536c-.272,.481-.103,1.091,.378,1.363h0c.481,.272,1.09,.102,1.362-.378l1.766-3.123,3.4-.573c0,.02,0,.039,.006,.06l1,5c.187,.933,1.006,1.606,1.958,1.607h7v2h2v-2c0-1.105-.895-2-2-2Z" fill="#61616b"></path></g></svg>