<svg xmlns="http://www.w3.org/2000/svg" height="48" width="48" viewBox="0 0 48 48"><title>wheelchair 2 4</title><g fill="#61616b" class="nc-icon-wrapper"><path data-color="color-2" d="M16,46A13,13,0,1,1,29,33,13.015,13.015,0,0,1,16,46Zm0-23A10,10,0,1,0,26,33,10.011,10.011,0,0,0,16,23Z" fill="#61616b"></path><path data-color="color-2" d="M16,30a3,3,0,1,0,3,3A3,3,0,0,0,16,30Z" fill="#61616b"></path><path data-color="color-2" d="M41,38a4,4,0,1,0,4,4A4,4,0,0,0,41,38Z" fill="#61616b"></path><path d="M40,29v7.09a5.6,5.6,0,0,1,2,0V29a5.009,5.009,0,0,0-4-4.9V17a5.006,5.006,0,0,0-5-5H12.82L10.98,2.8A1,1,0,0,0,10,2H4A1,1,0,0,0,4,4H9.181l2.906,14.534a14.925,14.925,0,0,1,1.961-.393L13.22,14H33a3,3,0,0,1,3,3v7H27.98a15.106,15.106,0,0,1,1.282,2H37A3,3,0,0,1,40,29Z" fill="#61616b"></path></g></svg>