<svg xmlns="http://www.w3.org/2000/svg" height="48" width="48" viewBox="0 0 48 48"><title>wheelchair ramp 3</title><g fill="#61616b" class="nc-icon-wrapper"><path d="M44,47H4a1,1,0,0,1-.1-1.995l40-4a1.017,1.017,0,0,1,.771.254A1,1,0,0,1,45,42v4A1,1,0,0,1,44,47Z" fill="#61616b" data-color="color-2"></path><path d="M19,42A10,10,0,1,1,29,32,10.011,10.011,0,0,1,19,42Zm0-18a8,8,0,1,0,8,8A8.009,8.009,0,0,0,19,24Z" fill="#61616b"></path><circle cx="18.5" cy="5.5" r="4.5" fill="#61616b"></circle><path d="M34.335,32.368l3.568-.58-.935-6.144a2,2,0,0,0-2.3-1.614l-5.912,1a11.95,11.95,0,0,1,1.8,3.751l2.835-.478Z" fill="#61616b"></path><path d="M9.3,24.055l2.94-5.69,3.879-1.449c.019.078.022.157.046.235l.905,3.018a11.751,11.751,0,0,1,9,2.151l-2.24-7.468A4,4,0,0,0,18.85,12.17c-.038.012-8.464,3.152-8.464,3.152a1.745,1.745,0,0,0-.942.837L6.2,22.45A1.749,1.749,0,1,0,9.3,24.055Z" fill="#61616b"></path><circle cx="19" cy="32" r="2" fill="#61616b"></circle><circle cx="37" cy="37" r="3" fill="#61616b"></circle></g></svg>