<svg xmlns="http://www.w3.org/2000/svg" height="32" width="32" viewBox="0 0 32 32"><title>wheelchair 2 5</title><g fill="#61616b" class="nc-icon-wrapper"><circle data-color="color-2" cx="11" cy="22" r="3" fill="#61616b"></circle><path data-color="color-2" d="M27,31a3,3,0,1,1,3-3A3,3,0,0,1,27,31Z" fill="#61616b"></path><path d="M24,16H17.689A8.971,8.971,0,0,0,11,13c-.092,0-.182.011-.273.014L10.3,10H24a1,1,0,0,0,0-2H10.01L8.99.858A1,1,0,0,0,8,0H4A1,1,0,0,0,4,2H7.133L8.747,13.3A9.014,9.014,0,1,0,19.05,18H24a2,2,0,0,1,2,2v3.1a5,5,0,0,1,2,0V20A4,4,0,0,0,24,16ZM11,29a7,7,0,0,1-1-13.92h.013l0,0A7,7,0,1,1,11,29Z" fill="#61616b"></path></g></svg>