<svg xmlns="http://www.w3.org/2000/svg" height="48" width="48" viewBox="0 0 48 48"><title>wheelchair 5</title><g fill="#61616b" class="nc-icon-wrapper"><path data-color="color-2" d="M19,25A11,11,0,1,0,30,36,11,11,0,0,0,19,25Zm0,19a8,8,0,1,1,8-8A8.009,8.009,0,0,1,19,44Z" fill="#61616b"></path><circle cx="22" cy="6" r="5" fill="#61616b"></circle><circle data-color="color-2" cx="37.5" cy="43.5" r="3.5" fill="#61616b"></circle><circle data-color="color-2" cx="19" cy="36" r="3" fill="#61616b"></circle><path d="M7.008,26.736a2,2,0,0,0,2.728-.744l3.6-6.3,4.733-1.4v.016l.855,4.7c.024,0,.048,0,.073,0a12.966,12.966,0,0,1,9.91,4.6L26.928,16.7A4.506,4.506,0,0,0,21.7,13.072c-.083.015-10.262,3.01-10.262,3.01a2.008,2.008,0,0,0-1.169.926l-4,7A2,2,0,0,0,7.008,26.736Z" fill="#61616b"></path><path d="M37.5,28H29.233a12.931,12.931,0,0,1,2.405,5H35v5h5V30.5A2.5,2.5,0,0,0,37.5,28Z" fill="#61616b"></path></g></svg>