<svg xmlns="http://www.w3.org/2000/svg" height="24" width="24" viewBox="0 0 24 24"><title>wheelchair ramp</title><g fill="#61616b" class="nc-icon-wrapper"><path d="M11.882,14.786A2.993,2.993,0,1,1,7.711,11.3l-.4-1.99a4.988,4.988,0,1,0,6.646,5.094Z" fill="#61616b"></path><path d="M8.5,5A2.5,2.5,0,1,1,11,2.5,2.5,2.5,0,0,1,8.5,5Z" fill="#61616b"></path><rect x="0.95" y="20" width="22.1" height="2" transform="translate(-2.032 1.3) rotate(-5.716)" fill="#61616b" data-color="color-2"></rect><path d="M16.97,11.758a.993.993,0,0,0-1.149-.741l-3.944.718L11.13,8H16V6H9.522a1.547,1.547,0,0,0-.316.028A1.5,1.5,0,0,0,8.029,7.794l1,5A1.5,1.5,0,0,0,10.5,14a1.571,1.571,0,0,0,.234-.023l1.536-.28,2.988-.545,1.015,4.061,1.941-.485Z" fill="#61616b"></path></g></svg>