<svg xmlns="http://www.w3.org/2000/svg" height="24" width="24" viewBox="0 0 24 24"><title>wheelchair 2</title><g fill="#61616b" class="nc-icon-wrapper"><circle data-color="color-2" cx="8" cy="16" r="2" fill="#61616b"></circle><path data-color="color-2" d="M20,23a2,2,0,1,1,2-2A2,2,0,0,1,20,23Z" fill="#61616b"></path><path d="M18,11H12.889A6.971,6.971,0,0,0,8,9c-.127,0-.251.012-.377.019L7.22,7H17a1,1,0,0,0,0-2H6.82L5.98.8A1,1,0,0,0,5,0H2A1,1,0,0,0,2,2H4.18L5.662,9.41A7.01,7.01,0,1,0,14.315,13H18a1,1,0,0,1,1,1v3.141a3.617,3.617,0,0,1,2,0V14A3,3,0,0,0,18,11ZM8,21a5,5,0,1,1,5-5A5.006,5.006,0,0,1,8,21Z" fill="#61616b"></path></g></svg>