<svg xmlns="http://www.w3.org/2000/svg" height="32" width="32" viewBox="0 0 32 32"><title>wheelchair 6</title><g fill="#61616b" class="nc-icon-wrapper"><circle cx="14.5" cy="3.5" r="3.5" fill="#61616b"></circle><circle cx="26" cy="29" r="3" fill="#61616b" data-color="color-2"></circle><path d="M18.91,23c.557,3.267-1.64,6.366-4.906,6.923s-6.366-1.64-6.923-4.906c-.491-2.88,1.164-5.695,3.919-6.667l-.287-2.012c-4.26,1.243-6.706,5.705-5.463,9.965,1.243,4.26,5.705,6.706,9.965,5.463,3.808-1.111,6.235-4.834,5.716-8.766h-2.021Z" fill="#61616b" data-color="color-2"></path><path d="M26,18h-6.97l-1.06-7.424c-.229-1.636-1.742-2.777-3.379-2.547-.212,.03-.42,.082-.621,.156l-7.091,2.273c-.567,.189-1.048,.574-1.355,1.087l-1.953,3.965c-.32,.649-.052,1.434,.597,1.752h0c.605,.297,1.337,.085,1.69-.49l2.171-3.537,4.074-1.3,.927,6.489c.211,1.478,1.477,2.576,2.97,2.576h8.5l.25,3h2.5l.25-4.5c0-.828-.672-1.5-1.5-1.5Z" fill="#61616b"></path><circle cx="13" cy="24" r="2" fill="#61616b" data-color="color-2"></circle></g></svg>