<svg xmlns="http://www.w3.org/2000/svg" height="64" width="64" viewBox="0 0 64 64"><title>wheelchair 4</title><g fill="#61616b" class="nc-icon-wrapper"><path data-color="color-2" d="M26,63A16,16,0,1,1,42,47,16.019,16.019,0,0,1,26,63Zm0-28A12,12,0,1,0,38,47,12.013,12.013,0,0,0,26,35Z" fill="#61616b"></path><circle data-color="color-2" cx="52" cy="59" r="4" fill="#61616b"></circle><circle cx="29" cy="7" r="6" fill="#61616b"></circle><path data-color="color-2" d="M26,51a4,4,0,1,1,4-4A4,4,0,0,1,26,51Z" fill="#61616b"></path><path d="M11.562,32.911h0l0-.005.008-.011,6.3-8.319,6.344-1.868L25.4,29.03c.2-.006.4-.03.6-.03a17.932,17.932,0,0,1,12.566,5.125L35.9,19.9a6.008,6.008,0,0,0-7-4.792c-.256.047-13.743,4.019-13.743,4.019a2.994,2.994,0,0,0-1.628,1.184L7.437,30.088h0a2.5,2.5,0,1,0,4.124,2.822Z" fill="#61616b"></path><path d="M52,36H40.226a17.916,17.916,0,0,1,3.312,7H48.5L49,53.011l6-.047L55.5,39.5A3.5,3.5,0,0,0,52,36Z" fill="#61616b"></path></g></svg>