<svg xmlns="http://www.w3.org/2000/svg" height="32" width="32" viewBox="0 0 32 32"><title>wheelchair ramp 4</title><g fill="#61616b" class="nc-icon-wrapper"><rect x="0.92" y="27.5" width="30.16" height="2" transform="translate(-2.95 1.87) rotate(-6.125)" fill="#61616b" data-color="color-2"></rect><circle cx="10" cy="3" r="3" fill="#61616b"></circle><path d="M20.649,17.9l2.269,6.112,1.9-.633L22.686,16.1a1.245,1.245,0,0,0-1.381-.838l-5.367.682L14.061,9.365,21,9V7l-9.5.01a2.461,2.461,0,0,0-.687.086A2.5,2.5,0,0,0,9.1,10.187l2,7a2.5,2.5,0,0,0,2.768,1.787Z" fill="#61616b"></path><path d="M16.731,20.545a4.987,4.987,0,1,1-8.217-5.118l-.6-2.1A7,7,0,1,0,18.889,20.2Z" fill="#61616b"></path></g></svg>