<svg xmlns="http://www.w3.org/2000/svg" height="24" width="24" viewBox="0 0 32 32"><g stroke-linecap="round" fill="#61616b" stroke-linejoin="round" class="nc-icon-wrapper"><path d="M18.985,4A11.993,11.993,0,0,0,7.157,14.053,7,7,0,0,0,7.985,28h11a12,12,0,0,0,0-24Z" fill="none" stroke="#61616b" stroke-width="2"></path><path data-cap="butt" data-color="color-2" d="M12.1,17A5,5,0,0,1,21,15" fill="none" stroke="#61616b" stroke-width="2"></path><path data-cap="butt" data-color="color-2" d="M21.9,19A5,5,0,0,1,13,21" fill="none" stroke="#61616b" stroke-width="2"></path><path data-color="color-2" data-stroke="none" d="M22.691,12.038a.5.5,0,0,0-.545.108l-4,4A.5.5,0,0,0,18.5,17h4a.5.5,0,0,0,.5-.5v-4A.5.5,0,0,0,22.691,12.038Z" fill="#61616b" stroke="none"></path><path data-color="color-2" data-stroke="none" d="M15.854,19.854A.5.5,0,0,0,15.5,19h-4a.5.5,0,0,0-.5.5v4a.5.5,0,0,0,.309.462.5.5,0,0,0,.545-.108Z" fill="#61616b" stroke="none"></path></g></svg>