<svg xmlns="http://www.w3.org/2000/svg" height="24" width="24" viewBox="0 0 48 48"><g stroke-linecap="round" fill="#61616b" stroke-linejoin="round" class="nc-icon-wrapper"><path data-color="color-2" d="M19.224,22A9,9,0,0,1,35,18.342" fill="none" stroke="#61616b" stroke-width="2"></path><polygon data-color="color-2" data-stroke="none" points="37.899 14.101 30.828 21.172 39 22 37.899 14.101" fill="#61616b" stroke="none"></polygon><path data-color="color-2" d="M36.776,26A9,9,0,0,1,21,29.658" fill="none" stroke="#61616b" stroke-width="2"></path><polygon data-color="color-2" data-stroke="none" points="18.101 33.899 25.172 26.828 17 26 18.101 33.899" fill="#61616b" stroke="none"></polygon><path d="M29,6A16.994,16.994,0,0,0,12.278,20.014c-.093,0-.184-.014-.278-.014a10,10,0,0,0,0,20H29A17,17,0,0,0,29,6Z" fill="none" stroke="#61616b" stroke-width="2"></path></g></svg>