<svg xmlns="http://www.w3.org/2000/svg" height="24" width="24" viewBox="0 0 64 64"><g stroke-linecap="round" fill="#61616b" stroke-linejoin="round" class="nc-icon-wrapper"><polyline points="41 16 32 25 23 16" fill="none" stroke="#61616b" stroke-width="2"></polyline><path data-cap="butt" d="M32,39v8.5A13.5,13.5,0,0,1,18.5,61h0A13.5,13.5,0,0,1,5,47.5v-2A13.5,13.5,0,0,1,18.5,32h27A13.5,13.5,0,0,0,59,18.5v-2A13.5,13.5,0,0,0,45.5,3h0A13.5,13.5,0,0,0,32,16.5V25" fill="none" stroke="#61616b" stroke-width="2"></path><polyline points="23 48 32 39 41 48" fill="none" stroke="#61616b" stroke-width="2"></polyline></g></svg>