<svg xmlns="http://www.w3.org/2000/svg" height="24" width="24" viewBox="0 0 32 32"><g stroke-linecap="round" fill="#61616b" stroke-linejoin="round" class="nc-icon-wrapper"><path data-cap="butt" data-color="color-2" fill="none" stroke="#61616b" stroke-width="2" d="M16,12V9c0-3.9,3.1-7,7-7h0 c3.9,0,7,3.1,7,7v0c0,3.9-3.1,7-7,7h-7H9c-3.9,0-7,3.1-7,7v0c0,3.9,3.1,7,7,7h0c3.9,0,7-3.1,7-7v-3"></path> <polyline fill="none" stroke="#61616b" stroke-width="2" points="20,8 16,12 12,8 "></polyline> <polyline fill="none" stroke="#61616b" stroke-width="2" points="12,24 16,20 20,24 "></polyline></g></svg>