<svg xmlns="http://www.w3.org/2000/svg" height="24" width="24" viewBox="0 0 48 48"><g stroke-linecap="round" fill="#61616b" stroke-linejoin="round" class="nc-icon-wrapper"><path data-cap="butt" fill="none" stroke="#61616b" stroke-width="2" d="M24,18v-5c0-6.1,4.9-11,11-11h0 c6.1,0,11,4.9,11,11v0c0,6.1-4.9,11-11,11H13C6.9,24,2,28.9,2,35v0c0,6.1,4.9,11,11,11h0c6.1,0,11-4.9,11-11l0-5"></path><polyline fill="none" stroke="#61616b" stroke-width="2" points="30,12 24,18 18,12 "></polyline><polyline fill="none" stroke="#61616b" stroke-width="2" points="18,36 24,30 30,36 "></polyline></g></svg>