<svg xmlns="http://www.w3.org/2000/svg" height="24" width="24" viewBox="0 0 48 48"><g stroke-linecap="round" fill="#61616b" stroke-linejoin="round" class="nc-icon-wrapper"><line x1="28.999" y1="44" x2="18.999" y2="44" fill="none" stroke="#61616b" stroke-width="2"></line><line x1="28.999" y1="4" x2="18.999" y2="4" fill="none" stroke="#61616b" stroke-width="2"></line><line x1="4" y1="19.001" x2="4" y2="29.001" fill="none" stroke="#61616b" stroke-width="2"></line><line x1="44" y1="19.001" x2="44" y2="29.001" fill="none" stroke="#61616b" stroke-width="2"></line><path d="M4,36v4a4,4,0,0,0,4,4h4" fill="none" stroke="#61616b" stroke-width="2"></path><path d="M36,44h4a4,4,0,0,0,4-4V36" fill="none" stroke="#61616b" stroke-width="2"></path><path d="M44,12V8a4,4,0,0,0-4-4H36" fill="none" stroke="#61616b" stroke-width="2"></path><path d="M12,4H8A4,4,0,0,0,4,8v4" fill="none" stroke="#61616b" stroke-width="2"></path><line data-cap="butt" data-color="color-2" x1="24" y1="14" x2="24" y2="34" fill="none" stroke="#61616b" stroke-width="2"></line><polyline data-color="color-2" points="16 26 24 34 32 26" fill="none" stroke="#61616b" stroke-width="2"></polyline></g></svg>