<svg xmlns="http://www.w3.org/2000/svg" height="24" width="24" viewBox="0 0 24 24"><g stroke-linecap="round" fill="#61616b" stroke-linejoin="round" class="nc-icon-wrapper"><polyline data-cap="butt" points="23 15 16 15 16 18 8 18 8 15 1 15" fill="none" stroke="#61616b" stroke-width="2"></polyline><line data-cap="butt" data-color="color-2" x1="12" y1="1" x2="12" y2="11" fill="none" stroke="#61616b" stroke-width="2"></line><path d="M18.558,6a2,2,0,0,1,1.9,1.368L23,15v6a2,2,0,0,1-2,2H3a2,2,0,0,1-2-2V15L3.544,7.368A2,2,0,0,1,5.442,6" fill="none" stroke="#61616b" stroke-width="2"></path><polyline data-color="color-2" points="15 8 12 11 9 8" fill="none" stroke="#61616b" stroke-width="2"></polyline></g></svg>