<svg xmlns="http://www.w3.org/2000/svg" height="24" width="24" viewBox="0 0 24 24"><g stroke-linecap="round" fill="#61616b" stroke-linejoin="round" class="nc-icon-wrapper"><line x1="12" y1="20" x2="12" y2="16" fill="none" stroke="#61616b" stroke-width="2"></line><line data-color="color-2" x1="4" y1="12" x2="8" y2="12" fill="none" stroke="#61616b" stroke-width="2"></line><line x1="12" y1="4" x2="12" y2="8" fill="none" stroke="#61616b" stroke-width="2"></line><line data-color="color-2" x1="20" y1="12" x2="16" y2="12" fill="none" stroke="#61616b" stroke-width="2"></line><path data-stroke="none" d="M12.376.171a.514.514,0,0,0-.752,0l-3.5,4A.5.5,0,0,0,8.5,5h7a.5.5,0,0,0,.376-.829Z" fill="#61616b" stroke="none"></path><path data-color="color-2" data-stroke="none" d="M19.829,8.124A.5.5,0,0,0,19,8.5v7a.5.5,0,0,0,.829.376l4-3.5a.5.5,0,0,0,0-.752Z" fill="#61616b" stroke="none"></path><path data-stroke="none" d="M15.5,19h-7a.5.5,0,0,0-.376.829l3.5,4a.5.5,0,0,0,.752,0l3.5-4A.5.5,0,0,0,15.5,19Z" fill="#61616b" stroke="none"></path><path data-color="color-2" data-stroke="none" d="M4.707,8.045a.5.5,0,0,0-.536.079l-4,3.5a.5.5,0,0,0,0,.752l4,3.5A.5.5,0,0,0,4.5,16a.5.5,0,0,0,.5-.5v-7A.5.5,0,0,0,4.707,8.045Z" fill="#61616b" stroke="none"></path></g></svg>