<svg xmlns="http://www.w3.org/2000/svg" height="24" width="24" viewBox="0 0 24 24"><g stroke-linecap="round" fill="#61616b" stroke-linejoin="round" class="nc-icon-wrapper"><path data-stroke="none" d="M12.376.171a.516.516,0,0,0-.752,0l-3.5,4A.5.5,0,0,0,8.5,5h7a.5.5,0,0,0,.376-.829Z" fill="#61616b" stroke="none"></path><path data-stroke="none" d="M23.829,11.624l-4-3.5A.5.5,0,0,0,19,8.5v7a.5.5,0,0,0,.829.376l4-3.5a.5.5,0,0,0,0-.752Z" fill="#61616b" stroke="none"></path><path data-stroke="none" d="M15.5,19h-7a.5.5,0,0,0-.376.829l3.5,4a.5.5,0,0,0,.752,0l3.5-4A.5.5,0,0,0,15.5,19Z" fill="#61616b" stroke="none"></path><path data-stroke="none" d="M4.707,8.045a.493.493,0,0,0-.536.079l-4,3.5a.5.5,0,0,0,0,.752l4,3.5A.5.5,0,0,0,4.5,16a.5.5,0,0,0,.5-.5v-7A.5.5,0,0,0,4.707,8.045Z" fill="#61616b" stroke="none"></path><circle data-color="color-2" cx="12" cy="12" r="3" fill="none" stroke="#61616b" stroke-width="2"></circle></g></svg>