<svg xmlns="http://www.w3.org/2000/svg" height="24" width="24" viewBox="0 0 12 12"><g fill="#61616b" class="nc-icon-wrapper"><path d="M9.5,10.5H10A1.5,1.5,0,0,0,11.5,9V2A1.5,1.5,0,0,0,10,.5H2A1.5,1.5,0,0,0,.5,2V9A1.5,1.5,0,0,0,2,10.5h.5" fill="none" stroke="#61616b" stroke-linecap="round" stroke-linejoin="round"></path><line x1="0.5" y1="3.5" x2="11.5" y2="3.5" fill="none" stroke="#61616b" stroke-linecap="round" stroke-linejoin="round"></line><path data-color="color-2" data-stroke="none" d="M8.884,8.18l-2.5-3a.517.517,0,0,0-.73-.038c-.013.012-.026.025-.038.038l-2.5,3A.5.5,0,0,0,3.5,9H5v2.5a.5.5,0,0,0,.5.5h1a.5.5,0,0,0,.5-.5V9H8.5a.5.5,0,0,0,.384-.82Z" fill="#61616b" stroke="none"></path></g></svg>