<svg xmlns="http://www.w3.org/2000/svg" height="24" width="24" viewBox="0 0 24 24"><g stroke-linecap="round" fill="#61616b" stroke-linejoin="round" class="nc-icon-wrapper"><path data-color="color-2" data-stroke="none" d="M15.6,13.868a2.273,2.273,0,0,1-.825,1.833,4.1,4.1,0,0,1-2.31.829V18h-.982V16.558a7.95,7.95,0,0,1-3.07-.617V14.048a8.328,8.328,0,0,0,1.5.545,8.019,8.019,0,0,0,1.568.28V12.649L11,12.463a5.357,5.357,0,0,1-2.012-1.216A2.332,2.332,0,0,1,8.4,9.622a2.121,2.121,0,0,1,.814-1.71,4.143,4.143,0,0,1,2.27-.812V6h.982V7.069a8.126,8.126,0,0,1,2.97.66l-.674,1.678a7.768,7.768,0,0,0-2.3-.559v2.116a11.005,11.005,0,0,1,1.991.932,2.723,2.723,0,0,1,.867.868A2.143,2.143,0,0,1,15.6,13.868ZM10.558,9.622a.678.678,0,0,0,.219.52,2.569,2.569,0,0,0,.707.42V8.876Q10.559,9.013,10.558,9.622Zm2.884,4.354a.646.646,0,0,0-.244-.509,3.173,3.173,0,0,0-.732-.431v1.786Q13.441,14.657,13.442,13.976Z" fill="#61616b" stroke="none"></path><polyline points="2.966 1.13 2.237 6.927 7.929 5.341" fill="none" stroke="#61616b" stroke-width="2"></polyline><path data-cap="butt" d="M2.237,6.927A11,11,0,1,1,1,12" fill="none" stroke="#61616b" stroke-width="2"></path></g></svg>