<svg xmlns="http://www.w3.org/2000/svg" height="24" width="24" viewBox="0 0 12 12"><g fill="#61616b" class="nc-icon-wrapper"><polygon data-color="color-2" points="9.5 5.5 6 1.5 2.5 5.5 4.5 5.5 4.5 9.5 7.5 9.5 7.5 5.5 9.5 5.5" fill="none" stroke="#61616b" stroke-linecap="round" stroke-linejoin="round"></polygon><path d="M11.5,8.5V10A1.5,1.5,0,0,1,10,11.5H8.5" fill="none" stroke="#61616b" stroke-linecap="round" stroke-linejoin="round"></path><path d="M.5,8.5V10A1.5,1.5,0,0,0,2,11.5H3.5" fill="none" stroke="#61616b" stroke-linecap="round" stroke-linejoin="round"></path><path d="M11.5,3.5V2A1.5,1.5,0,0,0,10,.5H8.5" fill="none" stroke="#61616b" stroke-linecap="round" stroke-linejoin="round"></path><path d="M.5,3.5V2A1.5,1.5,0,0,1,2,.5H3.5" fill="none" stroke="#61616b" stroke-linecap="round" stroke-linejoin="round"></path></g></svg>