<svg xmlns="http://www.w3.org/2000/svg" height="24" width="24" viewBox="0 0 64 64"><g stroke-linecap="round" fill="#61616b" stroke-linejoin="round" class="nc-icon-wrapper"><line data-cap="butt" data-color="color-2" x1="32" y1="48" x2="32" y2="16" fill="none" stroke="#61616b" stroke-width="2"></line><polyline data-color="color-2" points="44 28 32 16 20 28" fill="none" stroke="#61616b" stroke-width="2"></polyline><path d="M5,17V10a5,5,0,0,1,5-5h7" fill="none" stroke="#61616b" stroke-width="2"></path><path d="M47,5h7a5,5,0,0,1,5,5v7" fill="none" stroke="#61616b" stroke-width="2"></path><path d="M59,47v7a5,5,0,0,1-5,5H47" fill="none" stroke="#61616b" stroke-width="2"></path><path d="M17,59H10a5,5,0,0,1-5-5V47" fill="none" stroke="#61616b" stroke-width="2"></path><line x1="25" y1="5" x2="39" y2="5" fill="none" stroke="#61616b" stroke-width="2"></line><line x1="25" y1="59" x2="39" y2="59" fill="none" stroke="#61616b" stroke-width="2"></line><line x1="59" y1="25" x2="59" y2="39" fill="none" stroke="#61616b" stroke-width="2"></line><line x1="5" y1="25" x2="5" y2="39" fill="none" stroke="#61616b" stroke-width="2"></line></g></svg>