<svg xmlns="http://www.w3.org/2000/svg" height="24" width="24" viewBox="0 0 16 16"><g fill="#61616b" class="nc-icon-wrapper"><polygon data-color="color-2" points="12.5 7.5 8 2.5 3.5 7.5 6.5 7.5 6.5 13.5 9.5 13.5 9.5 7.5 12.5 7.5" fill="none" stroke="#61616b" stroke-linecap="round" stroke-linejoin="round"></polygon><path d="M.5,5.5V2A1.5,1.5,0,0,1,2,.5H5" fill="none" stroke="#61616b" stroke-linecap="round" stroke-linejoin="round"></path><path d="M10.5.5H14A1.5,1.5,0,0,1,15.5,2V5.5" fill="none" stroke="#61616b" stroke-linecap="round" stroke-linejoin="round"></path><path d="M15.5,10.5V14A1.5,1.5,0,0,1,14,15.5H10.5" fill="none" stroke="#61616b" stroke-linecap="round" stroke-linejoin="round"></path><path d="M5.5,15.5H2A1.5,1.5,0,0,1,.5,14V10.5" fill="none" stroke="#61616b" stroke-linecap="round" stroke-linejoin="round"></path></g></svg>