<svg xmlns="http://www.w3.org/2000/svg" height="48" width="48" viewBox="0 0 48 48"><title>address book 3</title><g fill="#61616b" class="nc-icon-wrapper"><rect data-color="color-2" x="44" y="9" fill="#61616b" width="2" height="8"></rect> <rect data-color="color-2" x="44" y="22" fill="#61616b" width="2" height="8"></rect> <path data-color="color-2" fill="#61616b" d="M9,1H5C4.447,1,4,1.448,4,2v44c0,0.552,0.447,1,1,1h4V1z"></path> <path fill="#61616b" d="M35,1H11v46h24c3.859,0,7-3.14,7-7V8C42,4.14,38.859,1,35,1z M26,15c2.209,0,4,1.791,4,4 c0,2.209-1.791,4-4,4s-4-1.791-4-4C22,16.791,23.791,15,26,15z M19,31c0-3.314,2.686-6,6-6h2c3.314,0,6,2.686,6,6H19z"></path></g></svg>