<svg xmlns="http://www.w3.org/2000/svg" height="32" width="32" viewBox="0 0 32 32"><title>address book 4</title><g fill="#61616b" class="nc-icon-wrapper"><path d="M31,11c-.553,0-1-.448-1-1V6c0-.552,.447-1,1-1s1,.448,1,1v4c0,.552-.447,1-1,1Z" fill="#61616b" data-color="color-2"></path><path d="M31,19c-.553,0-1-.448-1-1v-4c0-.552,.447-1,1-1s1,.448,1,1v4c0,.552-.447,1-1,1Z" fill="#61616b" data-color="color-2"></path><path d="M24,0H2c-.553,0-1,.448-1,1V31c0,.552,.447,1,1,1H24c2.206,0,4-1.794,4-4V4c0-2.206-1.794-4-4-4ZM14,7c1.93,0,3.5,1.57,3.5,3.5s-1.57,3.5-3.5,3.5-3.5-1.57-3.5-3.5,1.57-3.5,3.5-3.5Zm6,17H8c-.553,0-1-.448-1-1,0-3.86,3.141-7,7-7s7,3.14,7,7c0,.552-.447,1-1,1Z" fill="#61616b"></path></g></svg>