<svg xmlns="http://www.w3.org/2000/svg" height="24" width="24" viewBox="0 0 24 24"><title>address book</title><g fill="#61616b" class="nc-icon-wrapper"><rect x="22" y="4" width="2" height="6" rx=".5" ry=".5" fill="#61616b" data-color="color-2"></rect><path d="M18,0H2c-.553,0-1,.448-1,1V23c0,.552,.447,1,1,1H18c1.654,0,3-1.346,3-3V3c0-1.654-1.346-3-3-3Zm-7,6c1.381,0,2.5,1.119,2.5,2.5s-1.119,2.5-2.5,2.5-2.5-1.119-2.5-2.5,1.119-2.5,2.5-2.5Zm3.868,12H7.132c-.653,0-1.137-.619-.974-1.251,.555-2.156,2.513-3.749,4.842-3.749s4.287,1.593,4.842,3.749c.163,.633-.321,1.251-.974,1.251Z" fill="#61616b"></path></g></svg>