<svg xmlns="http://www.w3.org/2000/svg" height="64" width="64" viewBox="0 0 64 64"><title>address book 2</title><g fill="#61616b" class="nc-icon-wrapper"><path data-color="color-2" fill="#61616b" d="M62,20h-3V8h3c0.552,0,1,0.448,1,1v10C63,19.552,62.552,20,62,20z"></path> <path data-color="color-2" fill="#61616b" d="M62,36h-3V24h3c0.552,0,1,0.448,1,1v10C63,35.552,62.552,36,62,36z"></path> <path fill="#61616b" d="M51.818,1H15v62h36.818C54.676,63,57,60.757,57,58V6C57,3.243,54.676,1,51.818,1z M36,20 c2.757,0,5,2.243,5,5s-2.243,5-5,5s-5-2.243-5-5S33.243,20,36,20z M46,43H26c-0.553,0-1-0.448-1-1c0-4.962,4.037-9,9-9h4 c4.963,0,9,4.038,9,9C47,42.552,46.553,43,46,43z"></path> <path data-color="color-2" fill="#61616b" d="M13,1H7C5.895,1,5,1.895,5,3v58c0,1.105,0.895,2,2,2h6V1z"></path></g></svg>