<svg xmlns="http://www.w3.org/2000/svg" height="48" width="48" viewBox="0 0 48 48"><title>agenda 4</title><g fill="#61616b" class="nc-icon-wrapper"><path fill="#61616b" d="M33,1H23v14c0,0.385-0.221,0.734-0.566,0.901C22.296,15.968,22.147,16,22,16 c-0.223,0-0.444-0.074-0.625-0.219L17,12.28l-4.375,3.501c-0.301,0.24-0.711,0.286-1.059,0.12C11.221,15.734,11,15.385,11,15V1H6 C5.448,1,5,1.448,5,2v44c0,0.552,0.448,1,1,1h27V1z M26,36H12c-0.553,0-1-0.447-1-1v-7c0-0.553,0.447-1,1-1h14c0.553,0,1,0.447,1,1 v7C27,35.553,26.553,36,26,36z"></path> <path data-color="color-2" fill="#61616b" d="M36,1h-1v46h1c3.866,0,7-3.134,7-7V8C43,4.134,39.866,1,36,1z"></path></g></svg>