<svg xmlns="http://www.w3.org/2000/svg" height="64" width="64" viewBox="0 0 64 64"><title>agenda 3</title><g fill="#61616b" class="nc-icon-wrapper"><rect data-color="color-2" x="50" y="38" fill="#61616b" width="8" height="13"></rect> <path fill="#61616b" d="M50,36h8V6c0-2.757-2.324-5-5.182-5H50V36z"></path> <rect data-color="color-2" x="6" y="38" fill="#61616b" width="42" height="13"></rect> <path fill="#61616b" d="M48,36V1H35v22c0,0.379-0.214,0.725-0.553,0.895C34.306,23.965,34.152,24,34,24 c-0.212,0-0.424-0.067-0.6-0.2L26,18.25l-7.4,5.55c-0.302,0.229-0.708,0.264-1.047,0.095C17.214,23.725,17,23.379,17,23V1h-1h-2h-2 H8C6.895,1,6,1.895,6,3v33H48z"></path> <path fill="#61616b" d="M50,53v10h2.818C55.676,63,58,60.757,58,58v-5H50z"></path> <path fill="#61616b" d="M48,53H6v8c0,1.105,0.895,2,2,2h4h2h2h3h29V53z"></path></g></svg>