<svg xmlns="http://www.w3.org/2000/svg" height="64" width="64" viewBox="0 0 64 64"><title>algorithm 2</title><g fill="#61616b" class="nc-icon-wrapper"><path d="M41.542,23.951l-3.955.99a8.969,8.969,0,0,0-2.245-1.3l-1.12-3.918A1,1,0,0,0,33.261,19H30.769a1,1,0,0,0-.961.725l-1.119,3.918a8.958,8.958,0,0,0-2.246,1.3l-3.954-.99a1,1,0,0,0-1.109.47l-1.246,2.158a1,1,0,0,0,.147,1.2l2.838,2.933a8.09,8.09,0,0,0,0,2.586l-2.838,2.933a1,1,0,0,0-.147,1.2l1.246,2.158a1,1,0,0,0,1.109.47l3.954-.99a8.958,8.958,0,0,0,2.246,1.3l1.119,3.918a1,1,0,0,0,.961.725h2.492a1,1,0,0,0,.961-.725l1.12-3.918a8.969,8.969,0,0,0,2.245-1.3l3.955.99a1,1,0,0,0,1.109-.47L43.9,37.421a1,1,0,0,0-.147-1.2l-2.837-2.933a8.167,8.167,0,0,0,0-2.586l2.837-2.933a1,1,0,0,0,.147-1.2l-1.245-2.158A1,1,0,0,0,41.542,23.951ZM32.015,35a3,3,0,1,1,3-3A3,3,0,0,1,32.015,35Z" fill="#61616b" data-color="color-2"></path><path d="M29,10h6a1,1,0,0,0,1-1V3a1,1,0,0,0-1-1H29a1,1,0,0,0-1,1V9A1,1,0,0,0,29,10Z" fill="#61616b"></path><path d="M29,62h6a1,1,0,0,0,1-1V55a1,1,0,0,0-1-1H29a1,1,0,0,0-1,1v6A1,1,0,0,0,29,62Z" fill="#61616b"></path><path d="M10,12a5,5,0,1,1,5-5A5.006,5.006,0,0,1,10,12Z" fill="#61616b"></path><path d="M10,62a5,5,0,1,1,5-5A5.006,5.006,0,0,1,10,62Z" fill="#61616b"></path><path d="M54,62a5,5,0,1,1,5-5A5.006,5.006,0,0,1,54,62Z" fill="#61616b"></path><path d="M54,12a5,5,0,1,1,5-5A5.006,5.006,0,0,1,54,12Z" fill="#61616b"></path><path d="M11,17.586V13.92A7.026,7.026,0,0,1,10,14a7.026,7.026,0,0,1-1-.08V18a1,1,0,0,0,.293.707l5,5a1,1,0,0,0,1.414-1.414Z" fill="#61616b"></path><path d="M31,12v4a1,1,0,0,0,2,0V12Z" fill="#61616b"></path><path d="M54,14a7.026,7.026,0,0,1-1-.08v3.666l-4.707,4.707a1,1,0,1,0,1.414,1.414l5-5A1,1,0,0,0,55,18V13.92A7.026,7.026,0,0,1,54,14Z" fill="#61616b"></path><path d="M10,50a7.026,7.026,0,0,1,1,.08V46.414l4.707-4.707a1,1,0,0,0-1.414-1.414l-5,5A1,1,0,0,0,9,46v4.08A7.026,7.026,0,0,1,10,50Z" fill="#61616b"></path><path d="M33,52V48a1,1,0,0,0-2,0v4Z" fill="#61616b"></path><path d="M53,46.414V50.08a6.29,6.29,0,0,1,2,0V46a1,1,0,0,0-.293-.707l-5-5a1,1,0,0,0-1.414,1.414Z" fill="#61616b"></path></g></svg>