<svg xmlns="http://www.w3.org/2000/svg" height="64" width="64" viewBox="0 0 64 64"><title>amex 2</title><g fill="#61616b" class="nc-icon-wrapper"><path data-color="color-2" fill="#61616b" d="M48.685,27.714l-2.621,2.743l-2.446-2.743h-8.037v8.571h7.862l2.621-2.914l2.271,2.914h2.621 L47.287,32l3.844-4.286H48.685z M42.395,34.4h-4.892v-1.714h4.368v-1.714h-4.368v-1.543h5.067l2.097,2.4L42.395,34.4z"></path> <path data-color="color-2" fill="#61616b" d="M28.069,33.543l-2.621-5.829h-3.32v8.057l-3.32-8.057h-2.97l-3.669,8.571h2.271L15.14,34.4 h4.193l0.699,1.886h4.018V29.6l2.97,6.686h1.747l2.97-6.686v6.686h1.922h0.175v-8.571h-3.32L28.069,33.543z M15.839,32.514 l1.398-3.429l1.398,3.429H15.839z"></path> <path fill="#61616b" d="M58,9H6c-2.757,0-5,2.243-5,5v36c0,2.757,2.243,5,5,5h52c2.757,0,5-2.243,5-5V14C63,11.243,60.757,9,58,9z M54.276,38h-7.163l-1.572-1.886L43.793,38H29.816v-1.543L29.292,38h-3.494l-0.524-1.371V38H18.46l-0.699-1.886h-1.747L15.315,38 H9.2l5.067-12h5.241l0.699,1.371V26h6.115l1.398,3.086L29.117,26h15.2l1.572,1.886L47.637,26H54.8l-5.067,6L54.276,38z"></path></g></svg>