<svg xmlns="http://www.w3.org/2000/svg" height="48" width="48" viewBox="0 0 48 48"><title>android card</title><g fill="#61616b" class="nc-icon-wrapper"><path fill="#61616b" d="M43,7H5c-2.206,0-4,1.794-4,4v26c0,2.206,1.794,4,4,4h38c2.206,0,4-1.794,4-4V11C47,8.794,45.206,7,43,7z M18,26c0,0.552-0.448,1-1,1s-1-0.448-1-1v-4c0-0.552,0.448-1,1-1s1,0.448,1,1V26z M29,29c0,0.552-0.448,1-1,1h-1v2 c0,0.552-0.448,1-1,1s-1-0.448-1-1v-2h-2v2c0,0.552-0.448,1-1,1s-1-0.448-1-1v-2h-1c-0.552,0-1-0.448-1-1v-8h10V29z M19,20 c0-1.555,0.724-2.926,1.837-3.843l-1.253-1.88c-0.153-0.229-0.091-0.54,0.139-0.693c0.229-0.153,0.541-0.092,0.693,0.139 l1.253,1.879C22.368,15.23,23.153,15,24,15s1.632,0.23,2.331,0.602l1.253-1.879c0.152-0.23,0.462-0.292,0.693-0.139 c0.23,0.153,0.292,0.464,0.139,0.693l-1.253,1.88C28.276,17.074,29,18.445,29,20H19z M32,26c0,0.552-0.448,1-1,1s-1-0.448-1-1v-4 c0-0.552,0.448-1,1-1s1,0.448,1,1V26z"></path></g></svg>