<svg xmlns="http://www.w3.org/2000/svg" height="64" width="64" viewBox="0 0 64 64"><title>android card 2</title><g fill="#61616b" class="nc-icon-wrapper"><path fill="#61616b" d="M58,9H6c-2.757,0-5,2.243-5,5v36c0,2.757,2.243,5,5,5h52c2.757,0,5-2.243,5-5V14C63,11.243,60.757,9,58,9z M25,34.5c0,0.828-0.672,1.5-1.5,1.5S22,35.328,22,34.5v-5c0-0.828,0.672-1.5,1.5-1.5s1.5,0.672,1.5,1.5V34.5z M38,39 c0,0.552-0.448,1-1,1h-1v2.5c0,0.828-0.672,1.5-1.5,1.5S33,43.328,33,42.5V40h-2v2.5c0,0.828-0.672,1.5-1.5,1.5S28,43.328,28,42.5 V40h-1c-0.552,0-1-0.448-1-1V28h12V39z M26,27c0-1.674,0.687-3.187,1.794-4.276L26.2,20.599c-0.332-0.441-0.242-1.068,0.2-1.399 c0.443-0.331,1.069-0.241,1.4,0.2l1.636,2.181C30.214,21.212,31.081,21,32,21s1.786,0.213,2.564,0.582L36.2,19.4 c0.331-0.441,0.957-0.531,1.4-0.2c0.442,0.331,0.531,0.958,0.2,1.399l-1.594,2.125C37.313,23.812,38,25.325,38,27H26z M42,34.5 c0,0.828-0.672,1.5-1.5,1.5S39,35.328,39,34.5v-5c0-0.828,0.672-1.5,1.5-1.5s1.5,0.672,1.5,1.5V34.5z"></path></g></svg>