<svg xmlns="http://www.w3.org/2000/svg" height="48" width="48" viewBox="0 0 48 48"><title>app services 3</title><g fill="#61616b" class="nc-icon-wrapper"><path d="M18,13a6,6,0,0,1,5-5.91V3H6A3,3,0,0,0,3,6V23H8.024A1,1,0,0,1,9,24.031a4.04,4.04,0,0,0,5.984,3.489A4.1,4.1,0,0,0,17,23.93,1,1,0,0,1,18,23h5V18.91A6,6,0,0,1,18,13Z" fill="#61616b"></path><path d="M13,30a6,6,0,0,1-5.91-5H3V42a3,3,0,0,0,3,3H23V39.976A1,1,0,0,1,24.031,39a4.04,4.04,0,0,0,3.489-5.984A4.1,4.1,0,0,0,23.93,31,1,1,0,0,1,23,30V25H18.91A6,6,0,0,1,13,30Z" fill="#61616b" data-color="color-2"></path><path d="M30,35a6,6,0,0,1-5,5.91V45H42a3,3,0,0,0,3-3V25H39.976A1,1,0,0,1,39,23.969a4.04,4.04,0,0,0-5.984-3.489A4.1,4.1,0,0,0,31,24.07,1,1,0,0,1,30,25H25v4.09A6,6,0,0,1,30,35Z" fill="#61616b"></path><path d="M35,18a6,6,0,0,1,5.91,5H45V6a3,3,0,0,0-3-3H25V8.024A1,1,0,0,1,23.969,9a4.04,4.04,0,0,0-3.489,5.984A4.1,4.1,0,0,0,24.07,17,1,1,0,0,1,25,18v5h4.09A6,6,0,0,1,35,18Z" fill="#61616b" data-color="color-2"></path></g></svg>