<svg xmlns="http://www.w3.org/2000/svg" height="24" width="24" viewBox="0 0 24 24"><title>app services</title><g fill="#61616b" class="nc-icon-wrapper"><path d="M8,6a3.991,3.991,0,0,1,3-3.859V1H2A1,1,0,0,0,1,2v9H4v1a2,2,0,0,0,4,0V11h3V9.859A3.992,3.992,0,0,1,8,6Z" fill="#61616b"></path><path d="M18,8a3.991,3.991,0,0,1,3.859,3H23V2a1,1,0,0,0-1-1H13V4H12a2,2,0,0,0,0,4h1v3h1.141A3.992,3.992,0,0,1,18,8Z" fill="#61616b" data-color="color-2"></path><path d="M6,16a3.991,3.991,0,0,1-3.859-3H1v9a1,1,0,0,0,1,1h9V20h1a2,2,0,0,0,0-4H11V13H9.859A3.992,3.992,0,0,1,6,16Z" fill="#61616b" data-color="color-2"></path><path d="M16,18a3.991,3.991,0,0,1-3,3.859V23h9a1,1,0,0,0,1-1V13H20V12a2,2,0,0,0-4,0v1H13v1.141A3.992,3.992,0,0,1,16,18Z" fill="#61616b"></path></g></svg>