<svg xmlns="http://www.w3.org/2000/svg" height="32" width="32" viewBox="0 0 32 32"><title>app services 4</title><g fill="#61616b" class="nc-icon-wrapper"><path d="M15.893,22H15V17H11.859a3.982,3.982,0,0,1-7.718,0H1V29a2,2,0,0,0,2,2H15V26h1a2,2,0,0,0,1.973-2.336A2.075,2.075,0,0,0,15.893,22Z" fill="#61616b" data-color="color-2"></path><path d="M22,16.107V17H17v3.141a3.982,3.982,0,0,1,0,7.718V31H29a2,2,0,0,0,2-2V17H26V16a2,2,0,0,0-2.336-1.973A2.075,2.075,0,0,0,22,16.107Z" fill="#61616b"></path><path d="M16.107,10H17v5h3.141a3.982,3.982,0,0,1,7.718,0H31V3a2,2,0,0,0-2-2H17V6H16a2,2,0,0,0-1.973,2.336A2.075,2.075,0,0,0,16.107,10Z" fill="#61616b" data-color="color-2"></path><path d="M12,8a3.991,3.991,0,0,1,3-3.859V1H3A2,2,0,0,0,1,3V15H6v.893a2.075,2.075,0,0,0,1.664,2.08A2,2,0,0,0,10,16V15h5V11.859A3.992,3.992,0,0,1,12,8Z" fill="#61616b"></path></g></svg>