<svg xmlns="http://www.w3.org/2000/svg" height="64" width="64" viewBox="0 0 64 64"><title>archery target 3</title><g fill="#61616b" class="nc-icon-wrapper"><path fill="#61616b" d="M26,63C12.215,63,1,51.785,1,38s11.215-25,25-25c3.242,0,6.396,0.611,9.375,1.817 c0.512,0.207,0.759,0.79,0.551,1.302c-0.207,0.513-0.789,0.76-1.302,0.552C31.885,15.562,28.983,15,26,15C13.318,15,3,25.317,3,38 s10.318,23,23,23s23-10.317,23-23c0-2.982-0.562-5.885-1.671-8.625c-0.208-0.512,0.04-1.095,0.552-1.302 c0.513-0.208,1.095,0.04,1.302,0.552C50.389,31.604,51,34.759,51,38C51,51.785,39.785,63,26,63z"></path> <path fill="#61616b" d="M26,52c-7.72,0-14-6.28-14-14s6.28-14,14-14s14,6.28,14,14S33.72,52,26,52z M26,26c-6.617,0-12,5.383-12,12 s5.383,12,12,12s12-5.383,12-12S32.617,26,26,26z"></path> <path data-color="color-2" fill="#61616b" d="M61.957,14.71c-0.107-0.353-0.399-0.618-0.761-0.69l-8.168-1.633l5.679-5.679 c0.391-0.391,0.391-1.023,0-1.414s-1.023-0.391-1.414,0l-5.679,5.679L49.98,2.804c-0.072-0.361-0.338-0.654-0.691-0.761 c-0.354-0.108-0.736-0.011-0.997,0.25l-8,8c-0.236,0.236-0.339,0.575-0.273,0.903l1.895,9.475L27.286,35.3 C26.895,35.113,26.462,35,26,35c-1.657,0-3,1.343-3,3s1.343,3,3,3s3-1.343,3-3c0-0.462-0.113-0.895-0.3-1.286l14.629-14.629 l9.475,1.895C52.869,23.993,52.935,24,53,24c0.263,0,0.518-0.104,0.707-0.293l8-8C61.968,15.446,62.064,15.063,61.957,14.71z"></path></g></svg>