<svg xmlns="http://www.w3.org/2000/svg" height="48" width="48" viewBox="0 0 48 48"><title>atm 4</title><g fill="#61616b" class="nc-icon-wrapper"><path data-color="color-2" fill="#61616b" d="M46,46H2c-0.552,0-1-0.447-1-1s0.448-1,1-1h44c0.552,0,1,0.447,1,1S46.552,46,46,46z"></path> <path fill="#61616b" d="M42,7c0-2.757-2.243-5-5-5H11C8.243,2,6,4.243,6,7v35h36V7z M35,30H13c-0.552,0-1-0.447-1-1s0.448-1,1-1h22 c0.552,0,1,0.447,1,1S35.552,30,35,30z M36,23c0,0.553-0.448,1-1,1H13c-0.552,0-1-0.447-1-1V9c0-0.553,0.448-1,1-1h22 c0.552,0,1,0.447,1,1V23z"></path></g></svg>