<svg xmlns="http://www.w3.org/2000/svg" height="64" width="64" viewBox="0 0 64 64"><title>atm 3</title><g fill="#61616b" class="nc-icon-wrapper"><path data-color="color-2" fill="#61616b" d="M62,62H2c-0.552,0-1-0.447-1-1s0.448-1,1-1h60c0.552,0,1,0.447,1,1S62.552,62,62,62z"></path> <path fill="#61616b" d="M52,2H12C9.243,2,7,4.243,7,7v51h50V7C57,4.243,54.757,2,52,2z M21,44h-5c-0.552,0-1-0.447-1-1s0.448-1,1-1 h5c0.552,0,1,0.447,1,1S21.552,44,21,44z M21,36h-5c-0.552,0-1-0.447-1-1s0.448-1,1-1h5c0.552,0,1,0.447,1,1S21.552,36,21,36z M32,44h-5c-0.552,0-1-0.447-1-1s0.448-1,1-1h5c0.552,0,1,0.447,1,1S32.552,44,32,44z M32,36h-5c-0.552,0-1-0.447-1-1s0.448-1,1-1h5 c0.552,0,1,0.447,1,1S32.552,36,32,36z M48,36H38c-0.552,0-1-0.447-1-1s0.448-1,1-1h10c0.552,0,1,0.447,1,1S48.552,36,48,36z M49,27 c0,0.553-0.448,1-1,1H16c-0.552,0-1-0.447-1-1V11c0-0.553,0.448-1,1-1h32c0.552,0,1,0.447,1,1V27z"></path></g></svg>