<svg xmlns="http://www.w3.org/2000/svg" height="48" width="48" viewBox="0 0 48 48"><title>award 49 4</title><g fill="#61616b" class="nc-icon-wrapper"><path data-color="color-2" fill="#61616b" d="M37,37c-2.614,0-5.027-0.849-7-2.273V46c0,0.347,0.18,0.668,0.475,0.851 s0.662,0.197,0.973,0.044L37,44.118l5.553,2.776C42.694,46.965,42.847,47,43,47c0.183,0,0.365-0.05,0.525-0.149 C43.82,46.668,44,46.347,44,46V34.727C42.027,36.151,39.614,37,37,37z"></path> <path data-color="color-2" fill="#61616b" d="M37,15c-5.514,0-10,4.486-10,10s4.486,10,10,10s10-4.486,10-10S42.514,15,37,15z"></path> <path fill="#61616b" d="M37,1H2C1.447,1,1,1.448,1,2v38c0,0.552,0.447,1,1,1h26v-8.089c-1.861-2.115-3-4.879-3-7.911 c0-6.617,5.383-12,12-12c0.338,0,0.669,0.023,1,0.051V2C38,1.448,37.553,1,37,1z M18,31H8c-0.553,0-1-0.448-1-1s0.447-1,1-1h10 c0.553,0,1,0.448,1,1S18.553,31,18,31z M18,22H8c-0.553,0-1-0.448-1-1s0.447-1,1-1h10c0.553,0,1,0.448,1,1S18.553,22,18,22z M24,13 H8c-0.553,0-1-0.448-1-1s0.447-1,1-1h16c0.553,0,1,0.448,1,1S24.553,13,24,13z"></path></g></svg>