<svg xmlns="http://www.w3.org/2000/svg" height="16" width="16" viewBox="0 0 16 16"><title>award 49 2</title><g fill="#61616b" class="nc-icon-wrapper"><path fill="#61616b" d="M13,16H1c-0.6,0-1-0.4-1-1V1c0-0.6,0.4-1,1-1h12v2H2v12h10v-1h2v2C14,15.6,13.6,16,13,16z"></path> <path data-color="color-2" fill="#61616b" d="M16,6c0-1.7-1.3-3-3-3s-3,1.3-3,3c0,0.9,0.4,1.7,1,2.2V12l2-2l2,2V8.2C15.6,7.7,16,6.9,16,6z "></path> <rect x="4" y="5" fill="#61616b" width="4" height="2"></rect> <rect x="4" y="9" fill="#61616b" width="5" height="2"></rect></g></svg>