<svg xmlns="http://www.w3.org/2000/svg" height="32" width="32" viewBox="0 0 32 32"><title>award 49 5</title><g fill="#61616b" class="nc-icon-wrapper"><path fill="#61616b" d="M24,0H1C0.447,0,0,0.448,0,1v26c0,0.552,0.447,1,1,1h16v-7.356c-1.248-1.545-2-3.508-2-5.644 c0-4.962,4.037-9,9-9c0.338,0,0.671,0.022,1,0.059V1C25,0.448,24.553,0,24,0z M11,20H4v-2h7V20z M11,15H4v-2h7V15z M13,10H4V8h9V10z "></path> <path data-color="color-2" fill="#61616b" d="M24,24c-1.849,0-3.569-0.562-5-1.522v9.14l5-2.5l5,2.5v-9.14C27.569,23.438,25.849,24,24,24z"></path> <circle data-color="color-2" fill="#61616b" cx="24" cy="15" r="7"></circle></g></svg>