<svg xmlns="http://www.w3.org/2000/svg" height="64" width="64" viewBox="0 0 64 64"><title>bank statement 2</title><g fill="#61616b" class="nc-icon-wrapper"><path d="M53,2H11A4,4,0,0,0,7,6V58a4,4,0,0,0,4,4H53a4,4,0,0,0,4-4V6A4,4,0,0,0,53,2ZM32,53H17a1,1,0,0,1,0-2H32a1,1,0,0,1,0,2Zm15-7H17a1,1,0,0,1,0-2H47a1,1,0,0,1,0,2Zm0-7H17a1,1,0,0,1,0-2H47a1,1,0,0,1,0,2Zm0-8H25a1,1,0,0,1,0-2h1V21h2v8h4V21h2v8h4V21h2v8h4V21h2v8h1a1,1,0,0,1,0,2Zm1-13a1,1,0,0,1-1,1H25a1,1,0,0,1-1-1V17a1,1,0,0,1,.463-.843l11-7a1,1,0,0,1,1.074,0l11,7A1,1,0,0,1,48,17Z" fill="#61616b"></path></g></svg>