<svg xmlns="http://www.w3.org/2000/svg" height="64" width="64" viewBox="0 0 64 64"><title>bill 2</title><g fill="#61616b" class="nc-icon-wrapper"><path d="M55,2H9A2,2,0,0,0,7,4V61a1,1,0,0,0,1.53.848L16,57.18l7.47,4.668a1,1,0,0,0,1.06,0L32,57.18l7.47,4.668a1,1,0,0,0,1.06,0L48,57.18l7.47,4.668A1,1,0,0,0,57,61V4A2,2,0,0,0,55,2ZM34,45H18a1,1,0,0,1,0-2H34a1,1,0,0,1,0,2Zm0-8H18a1,1,0,0,1,0-2H34a1,1,0,0,1,0,2Zm-2-9a8,8,0,1,1,8-8A8,8,0,0,1,32,28ZM46,45H42a1,1,0,0,1,0-2h4a1,1,0,0,1,0,2Zm0-8H42a1,1,0,0,1,0-2h4a1,1,0,0,1,0,2Z" fill="#61616b"></path></g></svg>