<svg xmlns="http://www.w3.org/2000/svg" height="16" width="16" viewBox="0 0 16 16"><title>bitcoin 2</title><g fill="#61616b" class="nc-icon-wrapper"><path d="M7.3,8.093l-.482,1.933c.595.148,2.43.737,2.7-.353C9.8,8.536,7.9,8.242,7.3,8.093Z" fill="#61616b"></path><path d="M7.958,5.456,7.521,7.209c.5.123,2.024.627,2.271-.365C10.05,5.81,8.454,5.58,7.958,5.456Z" fill="#61616b"></path><path d="M8,0a8,8,0,1,0,8,8A8,8,0,0,0,8,0Zm3.526,6.86a1.4,1.4,0,0,1-1.121,1.289,1.54,1.54,0,0,1,.807,2.129c-.474,1.354-1.6,1.468-3.1,1.185l-.364,1.456L6.875,12.7l.358-1.436c-.227-.057-.46-.117-.7-.182l-.36,1.443L5.3,12.307l.363-1.459c-.205-.053-.413-.108-.626-.162L3.892,10.4l.436-1s.647.172.638.159a.32.32,0,0,0,.4-.209l.574-2.3.093.023a.7.7,0,0,0-.091-.029L6.353,5.4a.467.467,0,0,0-.409-.511c.014-.009-.637-.158-.637-.158L5.54,3.79l1.211.3V4.1c.182.045.369.088.56.132l.36-1.442.878.219L8.2,4.419c.236.054.473.108.7.166l.35-1.4.878.218L9.767,4.841C10.875,5.223,11.686,5.8,11.526,6.86Z" fill="#61616b"></path></g></svg>