<svg xmlns="http://www.w3.org/2000/svg" height="48" width="48" viewBox="0 0 48 48"><title>bitcoin 4</title><g fill="#61616b" class="nc-icon-wrapper"><path d="M23.875,16.368l-1.311,5.258c1.487.371,6.07,1.882,6.812-1.093C30.15,17.43,25.362,16.739,23.875,16.368Z" fill="#61616b"></path><path d="M21.9,24.28l-1.446,5.8c1.785.444,7.291,2.212,8.105-1.059C29.412,25.608,23.688,24.725,21.9,24.28Z" fill="#61616b"></path><path d="M24,1A23,23,0,1,0,47,24,23.025,23.025,0,0,0,24,1ZM34.579,20.581a4.2,4.2,0,0,1-3.363,3.866c2.363,1.23,3.566,3.117,2.42,6.387-1.421,4.062-4.8,4.4-9.289,3.555l-1.09,4.367L20.624,38.1,21.7,33.791c-.682-.17-1.38-.35-2.1-.545l-1.08,4.33-2.63-.656,1.09-4.376-5.305-1.339,1.308-3.015s1.94.516,1.914.478a.96.96,0,0,0,1.207-.626L19.06,16.19a1.4,1.4,0,0,0-1.227-1.531c.041-.028-1.913-.476-1.913-.476l.7-2.813,5.31,1.316,1.08-4.325,2.632.656-1.058,4.241c.707.161,1.418.324,2.11.5l1.05-4.212,2.634.656L29.3,14.524C32.625,15.67,35.057,17.387,34.579,20.581Z" fill="#61616b"></path></g></svg>