<svg xmlns="http://www.w3.org/2000/svg" height="24" width="24" viewBox="0 0 24 24"><title>bitcoin</title><g fill="#61616b" class="nc-icon-wrapper"><path d="M10.951,12.14l-.723,2.9c.893.221,3.646,1.1,4.053-.53C14.706,12.8,11.844,12.363,10.951,12.14Z" fill="#61616b"></path><path d="M11.938,8.184l-.656,2.629c.743.185,3.035.941,3.406-.546C15.075,8.715,12.681,8.369,11.938,8.184Z" fill="#61616b"></path><path d="M12,0A12,12,0,1,0,24,12,12,12,0,0,0,12,0Zm5.29,10.29a2.1,2.1,0,0,1-1.682,1.934,2.309,2.309,0,0,1,1.21,3.193c-.711,2.031-2.4,2.2-4.644,1.777l-.545,2.184-1.317-.328L10.85,16.9c-.342-.085-.69-.175-1.05-.273l-.539,2.165L7.945,18.46l.545-2.188L5.838,15.6,6.492,14.1s.97.258.957.239a.479.479,0,0,0,.6-.313L9.53,8.1a.7.7,0,0,0-.614-.766c.021-.014-.956-.237-.956-.237l.35-1.407,2.656.658.539-2.163,1.316.329-.529,2.12c.354.08.709.162,1.055.248l.526-2.106,1.316.328L14.65,7.262C16.313,7.835,17.528,8.693,17.29,10.29Z" fill="#61616b"></path></g></svg>