<svg xmlns="http://www.w3.org/2000/svg" height="32" width="32" viewBox="0 0 32 32"><title>bitcoin 5</title><g fill="#61616b" class="nc-icon-wrapper"><path d="M14.6,16.187l-.964,3.865c1.19.3,4.861,1.474,5.4-.706C19.608,17.072,15.792,16.484,14.6,16.187Z" fill="#61616b"></path><path d="M15.917,10.912l-.874,3.5c.991.247,4.046,1.255,4.541-.728C20.1,11.62,16.908,11.159,15.917,10.912Z" fill="#61616b"></path><path d="M16,0A16,16,0,1,0,32,16,16,16,0,0,0,16,0Zm7.053,13.72A2.8,2.8,0,0,1,20.811,16.3c1.575.82,2.377,2.078,1.613,4.258-.947,2.708-3.2,2.936-6.193,2.37l-.726,2.912L13.749,25.4l.717-2.873c-.455-.113-.92-.233-1.4-.363l-.719,2.887-1.754-.438L11.32,21.7,7.784,20.8l.872-2.01s1.293.344,1.276.319a.638.638,0,0,0,.8-.417l1.971-7.9a.935.935,0,0,0-.818-1.022c.027-.018-1.276-.317-1.276-.317L11.08,7.58l3.541.877.719-2.883,1.755.438-.7,2.826c.471.108.945.216,1.407.331l.7-2.808,1.755.438-.719,2.884C21.75,10.447,23.371,11.591,23.053,13.72Z" fill="#61616b"></path></g></svg>