<svg xmlns="http://www.w3.org/2000/svg" height="32" width="32" viewBox="0 0 32 32"><title>board 29 4</title><g fill="#61616b" class="nc-icon-wrapper"><path data-color="color-2" fill="#61616b" d="M31,23H1c-0.553,0-1,0.448-1,1s0.447,1,1,1h9.826l-4.585,5.349l1.518,1.302L13.46,25H15v6h2 v-6h1.54l5.701,6.651l1.518-1.302L21.174,25H31c0.553,0,1-0.448,1-1S31.553,23,31,23z"></path> <path fill="#61616b" d="M28,1H4C3.447,1,3,1.448,3,2v18c0,0.552,0.447,1,1,1h24c0.553,0,1-0.448,1-1V2C29,1.448,28.553,1,28,1z M16,16c-2.761,0-5-2.239-5-5s2.239-5,5-5v5h5C21,13.761,18.761,16,16,16z"></path></g></svg>