<svg xmlns="http://www.w3.org/2000/svg" height="48" width="48" viewBox="0 0 48 48"><title>board 27 4</title><g fill="#61616b" class="nc-icon-wrapper"><path fill="#61616b" d="M5,33h38V3c0-0.552-0.448-1-1-1H6C5.448,2,5,2.448,5,3V33z"></path> <path data-color="color-2" fill="#61616b" d="M46,35H2c-0.553,0-1,0.448-1,1s0.447,1,1,1h15.919l-6.7,8.375 c-0.345,0.431-0.274,1.061,0.156,1.405c0.434,0.346,1.062,0.273,1.406-0.156l7.7-9.625H23v7c0,0.552,0.447,1,1,1s1-0.448,1-1v-7 h2.519l7.7,9.625c0.344,0.429,0.973,0.503,1.406,0.156c0.431-0.345,0.501-0.974,0.156-1.405L30.081,37H46c0.553,0,1-0.448,1-1 S46.553,35,46,35z"></path></g></svg>