<svg xmlns="http://www.w3.org/2000/svg" height="48" width="48" viewBox="0 0 48 48"><title>board 28 4</title><g fill="#61616b" class="nc-icon-wrapper"><path data-color="color-2" fill="#61616b" d="M46,35H2c-0.553,0-1,0.448-1,1s0.447,1,1,1h15.919l-6.7,8.375 c-0.345,0.431-0.274,1.061,0.156,1.405c0.434,0.346,1.062,0.273,1.406-0.156l7.7-9.625H23v7c0,0.552,0.447,1,1,1s1-0.448,1-1v-7 h2.519l7.7,9.625c0.344,0.429,0.973,0.503,1.406,0.156c0.431-0.345,0.501-0.974,0.156-1.405L30.081,37H46c0.553,0,1-0.448,1-1 S46.553,35,46,35z"></path> <path fill="#61616b" d="M42,2H6C5.448,2,5,2.448,5,3v30h38V3C43,2.448,42.552,2,42,2z M35,20c0,0.552-0.447,1-1,1s-1-0.448-1-1 v-4.586l-8.293,8.293C24.512,23.902,24.256,24,24,24s-0.512-0.098-0.707-0.293L18,18.414l-3.293,3.293 c-0.391,0.391-1.023,0.391-1.414,0s-0.391-1.023,0-1.414l4-4c0.391-0.391,1.023-0.391,1.414,0L24,21.586L31.586,14H27 c-0.553,0-1-0.448-1-1s0.447-1,1-1h7c0.553,0,1,0.448,1,1V20z"></path></g></svg>