<svg xmlns="http://www.w3.org/2000/svg" height="64" width="64" viewBox="0 0 64 64"><title>books 3</title><g fill="#61616b" class="nc-icon-wrapper"><path fill="#61616b" d="M18,43V5c0-0.553-0.448-1-1-1H3C2.448,4,2,4.447,2,5v38H18z M9,16c0-0.553,0.448-1,1-1s1,0.447,1,1v12 c0,0.553-0.448,1-1,1s-1-0.447-1-1V16z"></path> <path data-color="color-2" fill="#61616b" d="M2,45v16c0,0.553,0.448,1,1,1h14c0.552,0,1-0.447,1-1V45H2z"></path> <path fill="#61616b" d="M37,43V5c0-0.553-0.448-1-1-1H22c-0.552,0-1,0.447-1,1v38H37z M28,16c0-0.553,0.448-1,1-1s1,0.447,1,1v12 c0,0.553-0.448,1-1,1s-1-0.447-1-1V16z"></path> <path data-color="color-2" fill="#61616b" d="M21,45v16c0,0.553,0.448,1,1,1h14c0.552,0,1-0.447,1-1V45H21z"></path> <path fill="#61616b" d="M57.941,40.48L50.728,3.171c-0.05-0.261-0.202-0.49-0.422-0.639c-0.22-0.149-0.491-0.206-0.75-0.153 L35.81,5.037c-0.542,0.104-0.896,0.629-0.792,1.171l7.214,37.31L57.941,40.48z M44.771,14.508c0.539-0.11,1.066,0.249,1.172,0.792 l2.278,11.782c0.104,0.542-0.25,1.066-0.792,1.171c-0.064,0.013-0.128,0.019-0.191,0.019c-0.47,0-0.888-0.332-0.981-0.811 l-2.278-11.782C43.875,15.137,44.229,14.612,44.771,14.508z"></path> <path data-color="color-2" fill="#61616b" d="M42.611,45.481l3.037,15.709C45.741,61.668,46.16,62,46.629,62 c0.063,0,0.126-0.006,0.191-0.019l13.746-2.657c0.26-0.05,0.49-0.202,0.639-0.422s0.204-0.489,0.153-0.749l-3.037-15.71 L42.611,45.481z"></path></g></svg>