<svg xmlns="http://www.w3.org/2000/svg" height="24" width="24" viewBox="0 0 24 24"><title>books</title><g fill="#61616b" class="nc-icon-wrapper"><path data-color="color-2" d="M0,16v5a1,1,0,0,0,1,1H5a1,1,0,0,0,1-1V16Z" fill="#61616b"></path><path d="M6,14V3A1,1,0,0,0,5,2H1A1,1,0,0,0,0,3V14Z" fill="#61616b"></path><path data-color="color-2" d="M8,16v5a1,1,0,0,0,1,1h4a1,1,0,0,0,1-1V16Z" fill="#61616b"></path><path d="M14,14V3a1,1,0,0,0-1-1H9A1,1,0,0,0,8,3V14Z" fill="#61616b"></path><path d="M16.49,14.433l5.83-1.416L19.725,2.328a1,1,0,0,0-1.207-.736l-3.888.944A1,1,0,0,0,13.9,3.743Z" fill="#61616b"></path><path data-color="color-2" d="M23.971,19.82l-1.179-4.859-5.831,1.415,1.18,4.859a1,1,0,0,0,1.208.736l3.887-.943A1,1,0,0,0,23.971,19.82Z" fill="#61616b"></path></g></svg>