<svg xmlns="http://www.w3.org/2000/svg" height="32" width="32" viewBox="0 0 32 32"><title>books 5</title><g fill="#61616b" class="nc-icon-wrapper"><path d="M8,21V3A1,1,0,0,0,7,2H1A1,1,0,0,0,0,3V21ZM3.5,7h1a.5.5,0,0,1,.5.5v5a.5.5,0,0,1-.5.5h-1a.5.5,0,0,1-.5-.5v-5A.5.5,0,0,1,3.5,7Z" fill="#61616b"></path><path data-color="color-2" d="M0,23v6a1,1,0,0,0,1,1H7a1,1,0,0,0,1-1V23Z" fill="#61616b"></path><path d="M18,21V3a1,1,0,0,0-1-1H11a1,1,0,0,0-1,1V21ZM13.5,7h1a.5.5,0,0,1,.5.5v5a.5.5,0,0,1-.5.5h-1a.5.5,0,0,1-.5-.5v-5A.5.5,0,0,1,13.5,7Z" fill="#61616b"></path><path data-color="color-2" d="M10,23v6a1,1,0,0,0,1,1h6a1,1,0,0,0,1-1V23Z" fill="#61616b"></path><path data-color="color-2" d="M30.808,22.055l-7.917,1.152.864,5.937a1,1,0,0,0,1.134.845l5.938-.864a1,1,0,0,0,.846-1.133Z" fill="#61616b"></path><path d="M30.52,20.075,27.927,2.264a1,1,0,0,0-.392-.658,1.016,1.016,0,0,0-.742-.188l-5.938.864a1,1,0,0,0-.846,1.133L22.6,21.227ZM25.607,7.148l.72,4.948a.5.5,0,0,1-.423.567l-.989.144a.5.5,0,0,1-.567-.423l-.72-4.948a.5.5,0,0,1,.423-.567l.989-.144A.5.5,0,0,1,25.607,7.148Z" fill="#61616b"></path></g></svg>