<svg xmlns="http://www.w3.org/2000/svg" height="48" width="48" viewBox="0 0 48 48"><title>books 4</title><g fill="#61616b" class="nc-icon-wrapper"><path fill="#61616b" d="M13,31V4c0-0.553-0.448-1-1-1H2C1.448,3,1,3.447,1,4v27H13z M6,10c0-0.553,0.448-1,1-1s1,0.447,1,1v8 c0,0.553-0.448,1-1,1s-1-0.447-1-1V10z"></path> <path data-color="color-2" fill="#61616b" d="M1,33v11c0,0.553,0.448,1,1,1h10c0.552,0,1-0.447,1-1V33H1z"></path> <path fill="#61616b" d="M27,31V4c0-0.553-0.448-1-1-1H16c-0.552,0-1,0.447-1,1v27H27z M20,10c0-0.553,0.448-1,1-1s1,0.447,1,1v8 c0,0.553-0.448,1-1,1s-1-0.447-1-1V10z"></path> <path data-color="color-2" fill="#61616b" d="M15,33v11c0,0.553,0.448,1,1,1h10c0.552,0,1-0.447,1-1V33H15z"></path> <path data-color="color-2" fill="#61616b" d="M33.343,33.274l1.643,10.876C35.06,44.645,35.487,45,35.973,45c0.05,0,0.1-0.004,0.151-0.011 l9.888-1.493c0.262-0.04,0.498-0.183,0.655-0.396c0.158-0.214,0.224-0.48,0.184-0.743l-1.643-10.876L33.343,33.274z"></path> <path fill="#61616b" d="M44.909,29.503L40.876,2.806c-0.082-0.546-0.59-0.915-1.138-0.84l-9.888,1.493 c-0.262,0.04-0.498,0.183-0.655,0.396c-0.158,0.214-0.224,0.48-0.184,0.743l4.033,26.697L44.909,29.503z M35.69,8.646 c0.547-0.075,1.056,0.294,1.138,0.84l1.195,7.91c0.083,0.546-0.293,1.056-0.839,1.139c-0.051,0.007-0.101,0.011-0.151,0.011 c-0.486,0-0.913-0.355-0.987-0.851l-1.195-7.91C34.769,9.238,35.145,8.729,35.69,8.646z"></path></g></svg>