<svg xmlns="http://www.w3.org/2000/svg" height="24" width="24" viewBox="0 0 24 24"><title>briefcase 25</title><g fill="#61616b" class="nc-icon-wrapper"><path fill="#61616b" d="M16,0H8C7.448,0,7,0.448,7,1v3v2v11h10V6V4V1C17,0.448,16.552,0,16,0z M9,4V2h6v2H9z"></path> <path fill="#61616b" d="M0,5v11c0,0.552,0.448,1,1,1h4V4H1C0.448,4,0,4.448,0,5z"></path> <path fill="#61616b" d="M23,4h-4v13h4c0.552,0,1-0.448,1-1V5C24,4.448,23.552,4,23,4z"></path> <path data-color="color-2" fill="#61616b" d="M1,19v4c0,0.552,0.448,1,1,1h3v-5H1z"></path> <path data-color="color-2" fill="#61616b" d="M19,19v5h3c0.552,0,1-0.448,1-1v-4H19z"></path> <rect data-color="color-2" x="7" y="19" fill="#61616b" width="10" height="5"></rect></g></svg>