<svg xmlns="http://www.w3.org/2000/svg" height="16" width="16" viewBox="0 0 16 16"><title>briefcase 26 2</title><g fill="#61616b" class="nc-icon-wrapper"><path data-color="color-2" fill="#61616b" d="M15,13h-5c0,0.6-0.4,1-1,1H7c-0.6,0-1-0.4-1-1H1v2c0,0.6,0.4,1,1,1h12c0.6,0,1-0.4,1-1V13z"></path> <path fill="#61616b" d="M15,4h-3V1c0-0.6-0.4-1-1-1H5C4.4,0,4,0.4,4,1v3H1C0.4,4,0,4.4,0,5v6c0,0.6,0.4,1,1,1h5v-1c0-0.6,0.4-1,1-1 h2c0.6,0,1,0.4,1,1v1h5c0.6,0,1-0.4,1-1V5C16,4.4,15.6,4,15,4z M10,4H6V2h4V4z"></path></g></svg>