<svg xmlns="http://www.w3.org/2000/svg" height="64" width="64" viewBox="0 0 64 64"><title>briefcase 24 4</title><g fill="#61616b" class="nc-icon-wrapper"><path data-color="color-2" fill="#61616b" d="M43,10h-2V5H23v5h-2V4c0-0.552,0.448-1,1-1h20c0.552,0,1,0.448,1,1V10z"></path> <path data-color="color-2" fill="#61616b" d="M39,46v3c0,0.552-0.448,1-1,1H26c-0.552,0-1-0.448-1-1v-3H5v11c0,2.209,1.791,4,4,4h46 c2.209,0,4-1.791,4-4V46H39z"></path> <path fill="#61616b" d="M59,12H5c-2.209,0-4,1.791-4,4v27c0,0.552,0.448,1,1,1h23v-3c0-0.552,0.448-1,1-1h12c0.552,0,1,0.448,1,1v3 h23c0.552,0,1-0.448,1-1V16C63,13.791,61.209,12,59,12z"></path></g></svg>