<svg xmlns="http://www.w3.org/2000/svg" height="32" width="32" viewBox="0 0 32 32"><title>briefcase 25 5</title><g fill="#61616b" class="nc-icon-wrapper"><path fill="#61616b" d="M6,23h6v-2h8v2h6V6h-4V2c0-0.552-0.448-1-1-1H11c-0.552,0-1,0.448-1,1v4H6V23z M12,3h8v3h-8V3z"></path> <path fill="#61616b" d="M4,6H1C0.448,6,0,6.448,0,7v15c0,0.552,0.448,1,1,1h3V6z"></path> <path fill="#61616b" d="M31,6h-3v17h3c0.552,0,1-0.448,1-1V7C32,6.448,31.552,6,31,6z"></path> <path data-color="color-2" fill="#61616b" d="M4,25H1v5c0,0.552,0.448,1,1,1h2V25z"></path> <polygon data-color="color-2" fill="#61616b" points="6,25 6,31 26,31 26,25 20,25 20,27 12,27 12,25 "></polygon> <path data-color="color-2" fill="#61616b" d="M28,25v6h2c0.552,0,1-0.448,1-1v-5H28z"></path></g></svg>