<svg xmlns="http://www.w3.org/2000/svg" height="12" width="12" viewBox="0 0 12 12"><title>briefcase 24 2</title><g fill="#61616b" class="nc-icon-wrapper"><path d="M9,2H8V1H4V2H3V.5A.5.5,0,0,1,3.5,0h5A.5.5,0,0,1,9,.5Z" fill="#61616b" data-color="color-2"></path><path d="M4,7V6.5A.5.5,0,0,1,4.5,6h3a.5.5,0,0,1,.5.5V7h4V4a1,1,0,0,0-1-1H1A1,1,0,0,0,0,4V7Z" fill="#61616b"></path><path d="M8,8v.5a.5.5,0,0,1-.5.5h-3A.5.5,0,0,1,4,8.5V8H0v3a1,1,0,0,0,1,1H11a1,1,0,0,0,1-1V8Z" fill="#61616b"></path></g></svg>