<svg xmlns="http://www.w3.org/2000/svg" height="48" width="48" viewBox="0 0 48 48"><title>briefcase 25 4</title><g fill="#61616b" class="nc-icon-wrapper"><path data-color="color-2" fill="#61616b" d="M18,4h12v4h2V3c0-0.552-0.448-1-1-1H17c-0.552,0-1,0.448-1,1v5h2V4z"></path> <path data-color="color-2" fill="#61616b" d="M29,36c0,0.552-0.448,1-1,1h-8c-0.552,0-1-0.448-1-1v-2h-8v12h26V34h-8V36z"></path> <path data-color="color-2" fill="#61616b" d="M39,46h4c1.105,0,2-0.895,2-2V34h-6V46z"></path> <path data-color="color-2" fill="#61616b" d="M3,44c0,1.105,0.895,2,2,2h4V34H3V44z"></path> <path fill="#61616b" d="M1,12v19c0,0.552,0.448,1,1,1h7V10H3C1.895,10,1,10.895,1,12z"></path> <path fill="#61616b" d="M11,32h8v-2c0-0.552,0.448-1,1-1h8c0.552,0,1,0.448,1,1v2h8V10H11V32z"></path> <path fill="#61616b" d="M45,10h-6v22h7c0.552,0,1-0.448,1-1V12C47,10.895,46.105,10,45,10z"></path></g></svg>