<svg xmlns="http://www.w3.org/2000/svg" height="24" width="24" viewBox="0 0 24 24"><title>bulb 63</title><g fill="#61616b" class="nc-icon-wrapper"><rect data-color="color-2" y="11" fill="#61616b" width="3" height="2"></rect> <rect data-color="color-2" x="3.575" y="3.075" transform="matrix(0.7071 -0.7071 0.7071 0.7071 -1.8951 4.5752)" fill="#61616b" width="2" height="3"></rect> <rect data-color="color-2" x="11" fill="#61616b" width="2" height="3"></rect> <rect data-color="color-2" x="17.925" y="3.575" transform="matrix(0.7071 -0.7071 0.7071 0.7071 2.4542 15.0755)" fill="#61616b" width="3" height="2"></rect> <rect data-color="color-2" x="21" y="11" fill="#61616b" width="3" height="2"></rect> <path fill="#61616b" d="M12,5c-3.86,0-7,3.141-7,7c0,2.714,1.581,5.17,4,6.319V23h6v-4.681c2.419-1.148,4-3.604,4-6.319 C19,8.141,15.86,5,12,5z"></path></g></svg>