<svg xmlns="http://www.w3.org/2000/svg" height="48" width="48" viewBox="0 0 48 48"><title>bulb 61 4</title><g fill="#61616b" class="nc-icon-wrapper"><path fill="#61616b" d="M24,1C14.626,1,7,8.626,7,18c0,6.728,3.903,12.733,10,15.485V41h14v-7.515C37.097,30.733,41,24.728,41,18 C41,8.626,33.374,1,24,1z M24,11c-3.86,0-7,3.141-7,7c0,0.553-0.448,1-1,1s-1-0.447-1-1c0-4.963,4.038-9,9-9c0.552,0,1,0.447,1,1 S24.552,11,24,11z"></path> <path data-color="color-2" fill="#61616b" d="M31,43H17v0c0,2.209,1.791,4,4,4h6C29.209,47,31,45.209,31,43L31,43z"></path></g></svg>