<svg xmlns="http://www.w3.org/2000/svg" height="48" width="48" viewBox="0 0 48 48"><title>bulb 62 4</title><g fill="#61616b" class="nc-icon-wrapper"><path data-color="color-2" fill="#61616b" d="M31,43H17v0c0,2.209,1.791,4,4,4h6C29.209,47,31,45.209,31,43L31,43z"></path> <path fill="#61616b" d="M24,1C14.626,1,7,8.626,7,18c0,6.728,3.903,12.733,10,15.485V41h14v-7.515C37.097,30.733,41,24.728,41,18 C41,8.626,33.374,1,24,1z M32.707,18.707l-4,4C28.512,22.902,28.256,23,28,23s-0.512-0.098-0.707-0.293L24,19.414l-3.293,3.293 c-0.391,0.391-1.023,0.391-1.414,0l-4-4c-0.391-0.391-0.391-1.023,0-1.414s1.023-0.391,1.414,0L20,20.586l3.293-3.293 c0.391-0.391,1.023-0.391,1.414,0L28,20.586l3.293-3.293c0.391-0.391,1.023-0.391,1.414,0S33.098,18.316,32.707,18.707z"></path></g></svg>