<svg xmlns="http://www.w3.org/2000/svg" height="64" width="64" viewBox="0 0 64 64"><title>bulb 62 3</title><g fill="#61616b" class="nc-icon-wrapper"><path data-color="color-2" fill="#61616b" d="M28,63h8c3.866,0,7-3.134,7-7v0H21v0C21,59.866,24.134,63,28,63z"></path> <path fill="#61616b" d="M32,1C19.318,1,9,11.317,9,24c0,8.46,4.582,16.137,12,20.182V54h22v-9.818C50.418,40.137,55,32.46,55,24 C55,11.317,44.682,1,32,1z M45.707,27.707l-7,7C38.512,34.902,38.256,35,38,35s-0.512-0.098-0.707-0.293L32,29.414l-5.293,5.293 c-0.391,0.391-1.023,0.391-1.414,0l-7-7c-0.391-0.391-0.391-1.023,0-1.414s1.023-0.391,1.414,0L26,32.586l5.293-5.293 c0.391-0.391,1.023-0.391,1.414,0L38,32.586l6.293-6.293c0.391-0.391,1.023-0.391,1.414,0S46.098,27.316,45.707,27.707z"></path></g></svg>