<svg xmlns="http://www.w3.org/2000/svg" height="32" width="32" viewBox="0 0 32 32"><title>bulb 62 5</title><g fill="#61616b" class="nc-icon-wrapper"><path data-color="color-2" fill="#61616b" d="M21,32H11c-0.552,0-1-0.448-1-1v-1h12v1C22,31.552,21.552,32,21,32z"></path> <path fill="#61616b" d="M16,0C9.383,0,4,5.383,4,12c0,4.314,2.284,8.238,6,10.383V28h12v-5.617c3.716-2.145,6-6.068,6-10.383 C28,5.383,22.617,0,16,0z M19,16.414l-3-3l-3,3L8.586,12L10,10.586l3,3l3-3l3,3l3-3L23.414,12L19,16.414z"></path></g></svg>