<svg xmlns="http://www.w3.org/2000/svg" height="32" width="32" viewBox="0 0 32 32"><title>bulb 63 5</title><g fill="#61616b" class="nc-icon-wrapper"><rect data-color="color-2" y="15" fill="#61616b" width="4" height="2"></rect> <rect data-color="color-2" x="5.101" y="4.101" transform="matrix(0.7071 -0.7071 0.7071 0.7071 -2.5269 6.1006)" fill="#61616b" width="2" height="4"></rect> <rect data-color="color-2" x="15" fill="#61616b" width="2" height="4"></rect> <rect data-color="color-2" x="23.9" y="5.101" transform="matrix(0.7071 -0.7071 0.7071 0.7071 3.272 20.1005)" fill="#61616b" width="4" height="2"></rect> <rect data-color="color-2" x="28" y="15" fill="#61616b" width="4" height="2"></rect> <path fill="#61616b" d="M11,30v1c0,0.552,0.448,1,1,1h8c0.552,0,1-0.448,1-1v-1H11z"></path> <path fill="#61616b" d="M16,6C10.486,6,6,10.486,6,16c0,3.604,1.9,6.864,5,8.651V28h10v-3.349c3.1-1.787,5-5.047,5-8.651 C26,10.486,21.514,6,16,6z"></path></g></svg>