<svg xmlns="http://www.w3.org/2000/svg" height="64" width="64" viewBox="0 0 64 64"><title>bulb 63 3</title><g fill="#61616b" class="nc-icon-wrapper"><path data-color="color-2" fill="#61616b" d="M8,31H2c-0.552,0-1,0.447-1,1s0.448,1,1,1h6c0.552,0,1-0.447,1-1S8.552,31,8,31z"></path> <path data-color="color-2" fill="#61616b" d="M15.029,16.029c0.256,0,0.512-0.098,0.707-0.293c0.391-0.391,0.391-1.023,0-1.414 l-4.243-4.242c-0.391-0.391-1.023-0.391-1.414,0s-0.391,1.023,0,1.414l4.243,4.242C14.518,15.932,14.773,16.029,15.029,16.029z"></path> <path data-color="color-2" fill="#61616b" d="M32,9c0.552,0,1-0.447,1-1V2c0-0.553-0.448-1-1-1s-1,0.447-1,1v6C31,8.553,31.448,9,32,9z"></path> <path data-color="color-2" fill="#61616b" d="M52.506,10.08l-4.243,4.242c-0.391,0.391-0.391,1.023,0,1.414 c0.195,0.195,0.451,0.293,0.707,0.293s0.512-0.098,0.707-0.293l4.243-4.242c0.391-0.391,0.391-1.023,0-1.414 S52.897,9.689,52.506,10.08z"></path> <path data-color="color-2" fill="#61616b" d="M62,31h-6c-0.552,0-1,0.447-1,1s0.448,1,1,1h6c0.552,0,1-0.447,1-1S62.552,31,62,31z"></path> <path fill="#61616b" d="M32,14c-9.925,0-18,8.075-18,18c0,6.827,3.904,13.081,10,16.111V56h16v-7.889c6.096-3.03,10-9.284,10-16.111 C50,22.075,41.925,14,32,14z"></path> <path data-color="color-2" fill="#61616b" d="M29,63h6c2.761,0,5-2.239,5-5H24C24,60.761,26.239,63,29,63z"></path></g></svg>