<svg xmlns="http://www.w3.org/2000/svg" height="64" width="64" viewBox="0 0 64 64"><title>bulb 61 3</title><g fill="#61616b" class="nc-icon-wrapper"><path data-color="color-2" fill="#61616b" d="M28,63h8c3.866,0,7-3.134,7-7v0H21v0C21,59.866,24.134,63,28,63z"></path> <path fill="#61616b" d="M40,27c-1.654,0-3,1.346-3,3v3h3c1.654,0,3-1.346,3-3S41.654,27,40,27z"></path> <path fill="#61616b" d="M27,30c0-1.654-1.346-3-3-3s-3,1.346-3,3s1.346,3,3,3h3V30z"></path> <path fill="#61616b" d="M32,1C19.318,1,9,11.317,9,24c0,8.46,4.582,16.137,12,20.182V54h22v-9.818C50.418,40.137,55,32.46,55,24 C55,11.317,44.682,1,32,1z M40,35h-3v13c0,0.553-0.448,1-1,1s-1-0.447-1-1V35h-6v13c0,0.553-0.448,1-1,1s-1-0.447-1-1V35h-3 c-2.757,0-5-2.243-5-5s2.243-5,5-5s5,2.243,5,5v3h6v-3c0-2.757,2.243-5,5-5s5,2.243,5,5S42.757,35,40,35z"></path></g></svg>