<svg xmlns="http://www.w3.org/2000/svg" height="64" width="64" viewBox="0 0 64 64"><title>business contact 86 2</title><g fill="#61616b" class="nc-icon-wrapper"><path data-color="color-2" fill="#61616b" d="M55.431,42.95L41,37l-7.211,14.422c-0.737,1.474-2.841,1.474-3.578,0L23,37L8.569,42.95 C5.199,44.339,3,47.625,3,51.27V62c0,0.552,0.448,1,1,1h56c0.552,0,1-0.448,1-1V51.27C61,47.625,58.801,44.339,55.431,42.95z"></path> <path fill="#61616b" d="M32,1c-8.271,0-15,6.729-15,15v4c0,8.024,6.415,17,15,17s15-8.976,15-17v-4C47,7.729,40.271,1,32,1z M32,35 c-7.321,0-13-8.063-13-15v-2.965C20.907,17.666,22.915,18,25,18c4.648,0,8.961-1.598,12.001-4.414 c2.11,1.946,4.897,3.324,7.999,3.975V20C45,26.937,39.321,35,32,35z"></path></g></svg>