<svg xmlns="http://www.w3.org/2000/svg" height="64" width="64" viewBox="0 0 64 64"><title>business contact 88 3</title><g fill="#61616b" class="nc-icon-wrapper"><path data-color="color-2" fill="#61616b" d="M55.431,42.95L41,37l-7.211,14.422c-0.737,1.474-2.841,1.474-3.578,0L23,37L8.569,42.95 C5.199,44.339,3,47.625,3,51.27V62c0,0.552,0.448,1,1,1h56c0.552,0,1-0.448,1-1V51.27C61,47.625,58.801,44.339,55.431,42.95z"></path> <path fill="#61616b" d="M54.26,36.928l-0.503-0.582C47.373,28.959,47,16,47,16c0-8.271-6.729-15-15-15S17,7.729,17,16 c0,0-0.373,12.959-6.757,20.346L9.74,36.928c0.682,1,1.063,1.581,1.995,2.554l12.514-5.163C26.484,35.97,29.114,37,32,37 s5.516-1.03,7.751-2.681l12.514,5.163C53.197,38.509,53.578,37.928,54.26,36.928z M19,20v-2.965C20.907,17.666,22.915,18,25,18 c4.648,0,8.961-1.598,12.001-4.414c2.11,1.946,4.897,3.324,7.999,3.975V20c0,6.937-5.679,15-13,15S19,26.937,19,20z"></path></g></svg>