<svg xmlns="http://www.w3.org/2000/svg" height="64" width="64" viewBox="0 0 64 64"><title>businessman 03 3</title><g fill="#61616b" class="nc-icon-wrapper"><path fill="#61616b" d="M59,9H49V2c0-0.552-0.448-1-1-1H16c-0.552,0-1,0.448-1,1v7H5c-2.209,0-4,1.791-4,4v46c0,2.209,1.791,4,4,4 h12.89l9.156-29.298C27.176,33.284,27.563,33,28,33h8c0.437,0,0.824,0.284,0.955,0.702L46.11,63H59c2.209,0,4-1.791,4-4V13 C63,10.791,61.209,9,59,9z M17,22.392V4.204l12.315,10.775c0.505,0.442,0.44,1.245-0.129,1.601L18.53,23.24 C17.864,23.656,17,23.177,17,22.392z M41.446,24.358l-4.643,6.239C36.614,30.851,36.316,31,36,31h-8 c-0.316,0-0.614-0.149-0.802-0.403l-4.643-6.239c-0.349-0.469-0.223-1.135,0.272-1.445l8.643-5.402c0.324-0.203,0.736-0.203,1.06,0 l8.643,5.402C41.669,23.222,41.794,23.889,41.446,24.358z M47,22.392c0,0.785-0.864,1.264-1.53,0.848l-10.656-6.66 c-0.569-0.355-0.633-1.159-0.129-1.601L47,4.204V22.392z"></path></g></svg>