<svg xmlns="http://www.w3.org/2000/svg" height="48" width="48" viewBox="0 0 48 48"><title>business contact 86 3</title><g fill="#61616b" class="nc-icon-wrapper"><path fill="#61616b" d="M24,1c-7.412,0-12,6.748-12,13c0,9.265,6.229,15,12,15s12-5.735,12-15C36,7.748,31.412,1,24,1z M24,27 c-4.593,0-9.523-4.542-9.957-11.946c0.649,0.094,1.291,0.157,1.928,0.157c3.73,0,7.245-1.353,10.001-3.827 c2.231,1.996,5.011,3.269,7.986,3.673C33.522,22.459,28.593,27,24,27z"></path> <path data-color="color-2" fill="#61616b" d="M42.573,33.978l-10.398-6.239C29.738,29.843,26.825,31,24,31s-5.738-1.157-8.175-3.261 L5.427,33.978C3.93,34.876,3,36.519,3,38.265V46c0,0.553,0.448,1,1,1h19V37c0-0.553,0.447-1,1-1s1,0.447,1,1v10h19 c0.552,0,1-0.447,1-1v-7.735C45,36.519,44.07,34.876,42.573,33.978z"></path></g></svg>