<svg xmlns="http://www.w3.org/2000/svg" height="32" width="32" viewBox="0 0 32 32"><title>business contact 85 4</title><g fill="#61616b" class="nc-icon-wrapper"><path fill="#61616b" d="M28.396,22.986l-7.372-4.035C23.421,16.794,25,13.138,25,9c0-4.963-4.038-9-9-9S7,4.037,7,9 c0,4.138,1.579,7.794,3.976,9.952l-7.37,4.034C1.999,23.861,1,25.543,1,27.375V31c0,0.553,0.448,1,1,1h28c0.552,0,1-0.447,1-1 v-3.625C31,25.543,30.001,23.861,28.396,22.986z M9.022,9.595C9.976,9.854,10.982,10,12,10c2.418,0,4.68-0.735,6.357-2.042 c1.249,1.094,2.859,1.78,4.608,1.977C22.623,14.937,19.574,19,16,19C12.346,19,9.247,14.751,9.022,9.595z M25,28h-6v-2h6V28z"></path> </g></svg>