<svg xmlns="http://www.w3.org/2000/svg" height="32" width="32" viewBox="0 0 32 32"><title>business contact 87</title><g fill="#61616b" class="nc-icon-wrapper"><path fill="#61616b" d="M28.064,23.269l-7.093-4.274C23.397,16.843,25,13.168,25,9c0-4.963-4.037-9-9-9S7,4.037,7,9 c0,4.168,1.603,7.843,4.029,9.995l-7.094,4.274C2.741,23.988,2,25.301,2,26.694V31c0,0.553,0.447,1,1,1h26c0.553,0,1-0.447,1-1 v-4.306C30,25.301,29.259,23.988,28.064,23.269z M9.022,9.595C9.976,9.854,10.982,10,12,10c2.418,0,4.68-0.735,6.357-2.042 c1.249,1.095,2.859,1.78,4.608,1.977C22.623,14.937,19.573,19,16,19C12.346,19,9.247,14.751,9.022,9.595z M24,28h-5v-2h5V28z"></path> <path data-color="color-2" fill="#61616b" d="M4.937,21.497l4.486-2.702c-1.398-1.586-2.412-3.64-2.959-5.913 C5.99,14.782,5.098,16.927,3.4,18.2l-0.668,0.501l0.373,0.746C3.526,20.289,4.218,20.967,4.937,21.497z"></path> <path data-color="color-2" fill="#61616b" d="M27.063,21.497l-4.486-2.702c1.398-1.586,2.412-3.64,2.959-5.913 c0.474,1.9,1.366,4.045,3.064,5.318l0.668,0.501l-0.373,0.746C28.474,20.289,27.782,20.967,27.063,21.497z"></path></g></svg>