<svg xmlns="http://www.w3.org/2000/svg" height="48" width="48" viewBox="0 0 48 48"><title>business contact 87 4</title><g fill="#61616b" class="nc-icon-wrapper"><path data-color="color-2" fill="#61616b" d="M42.573,33.978l-10.398-6.239C29.738,29.843,26.825,31,24,31s-5.738-1.157-8.175-3.261 L5.427,33.978C3.93,34.876,3,36.519,3,38.265V46c0,0.553,0.448,1,1,1h40c0.552,0,1-0.447,1-1v-7.735 C45,36.519,44.07,34.876,42.573,33.978z M35,40h-6c-0.552,0-1-0.447-1-1s0.448-1,1-1h6c0.552,0,1,0.447,1,1S35.552,40,35,40z"></path> <path fill="#61616b" d="M36,14c0-6.252-4.588-13-12-13S12,7.748,12,14c0,0,0.208,7.792-6,12c0.444,1.774,1.512,2.975,2.564,3.763 l7.53-4.522C18.339,27.657,21.219,29,24,29s5.661-1.343,7.906-3.759l7.53,4.522C40.488,28.975,41.556,27.774,42,26 C35.792,21.792,36,14,36,14z M24,27c-4.593,0-9.523-4.542-9.957-11.946c0.649,0.094,1.291,0.157,1.928,0.157 c3.73,0,7.245-1.353,10.001-3.827c2.231,1.996,5.011,3.269,7.986,3.673C33.522,22.459,28.593,27,24,27z"></path></g></svg>