<svg xmlns="http://www.w3.org/2000/svg" height="32" width="32" viewBox="0 0 32 32"><title>calculator 5</title><g fill="#61616b" class="nc-icon-wrapper"><path fill="#61616b" d="M29,0H3C2.447,0,2,0.448,2,1v30c0,0.552,0.447,1,1,1h26c0.553,0,1-0.448,1-1V1C30,0.448,29.553,0,29,0z M10,28H6v-3h4V28z M10,22H6v-3h4V22z M10,16H6v-3h4V16z M18,28h-4v-3h4V28z M18,22h-4v-3h4V22z M18,16h-4v-3h4V16z M26,28h-4v-9h4 V28z M26,16h-4v-3h4V16z M26,9c0,0.552-0.447,1-1,1H7c-0.553,0-1-0.448-1-1V5c0-0.552,0.447-1,1-1h18c0.553,0,1,0.448,1,1V9z"></path></g></svg>