<svg xmlns="http://www.w3.org/2000/svg" height="24" width="24" viewBox="0 0 24 24"><title>candlestick chart 5</title><g fill="#61616b" class="nc-icon-wrapper"><path d="M5,1H1A1,1,0,0,0,0,2V16a1,1,0,0,0,1,1H2v6H4V17H5a1,1,0,0,0,1-1V2A1,1,0,0,0,5,1Z" fill="#61616b"></path><path d="M14,9H13V4H11V9H10a1,1,0,0,0-1,1v8a1,1,0,0,0,1,1h1v4h2V19h1a1,1,0,0,0,1-1V10A1,1,0,0,0,14,9Z" fill="#61616b" data-color="color-2"></path><path d="M23,7H22V1H20V7H19a1,1,0,0,0-1,1V22a1,1,0,0,0,1,1h4a1,1,0,0,0,1-1V8A1,1,0,0,0,23,7Z" fill="#61616b"></path></g></svg>