<svg xmlns="http://www.w3.org/2000/svg" height="32" width="32" viewBox="0 0 32 32"><title>candlestick chart 4</title><g fill="#61616b" class="nc-icon-wrapper"><path d="M19,14H17V6H15v8H13a1,1,0,0,0-1,1V25a1,1,0,0,0,1,1h2v3h2V26h2a1,1,0,0,0,1-1V15A1,1,0,0,0,19,14Z" fill="#61616b" data-color="color-2"></path><path d="M31,8H29V2H27V8H25a1,1,0,0,0-1,1V27a1,1,0,0,0,1,1h2v4h2V28h2a1,1,0,0,0,1-1V9A1,1,0,0,0,31,8Z" fill="#61616b"></path><path d="M7,3H5V0H3V3H1A1,1,0,0,0,0,4V23a1,1,0,0,0,1,1H3v6H5V24H7a1,1,0,0,0,1-1V4A1,1,0,0,0,7,3Z" fill="#61616b"></path></g></svg>