<svg xmlns="http://www.w3.org/2000/svg" height="48" width="48" viewBox="0 0 48 48"><title>candlestick chart 3</title><g fill="#61616b" class="nc-icon-wrapper"><path d="M28,22H25V13a1,1,0,0,0-2,0v9H20a1,1,0,0,0-1,1V39a1,1,0,0,0,1,1h3v6a1,1,0,0,0,2,0V40h3a1,1,0,0,0,1-1V23A1,1,0,0,0,28,22Z" fill="#61616b" data-color="color-2"></path><path d="M12,7H9V4A1,1,0,0,0,7,4V7H4A1,1,0,0,0,3,8V32a1,1,0,0,0,1,1H7v8a1,1,0,0,0,2,0V33h3a1,1,0,0,0,1-1V8A1,1,0,0,0,12,7Z" fill="#61616b"></path><path d="M44,14H41V4a1,1,0,0,0-2,0V14H36a1,1,0,0,0-1,1V38a1,1,0,0,0,1,1h3v5a1,1,0,0,0,2,0V39h3a1,1,0,0,0,1-1V15A1,1,0,0,0,44,14Z" fill="#61616b"></path></g></svg>