<svg xmlns="http://www.w3.org/2000/svg" height="64" width="64" viewBox="0 0 64 64"><title>candlestick chart 2</title><g fill="#61616b" class="nc-icon-wrapper"><path d="M37,29H33V15a1,1,0,0,0-2,0V29H27a1,1,0,0,0-1,1V50a1,1,0,0,0,1,1h4v9a1,1,0,0,0,2,0V51h4a1,1,0,0,0,1-1V30A1,1,0,0,0,37,29Z" fill="#61616b" data-color="color-2"></path><path d="M16,11H12V4a1,1,0,0,0-2,0v7H6a1,1,0,0,0-1,1V46a1,1,0,0,0,1,1h4v9a1,1,0,0,0,2,0V47h4a1,1,0,0,0,1-1V12A1,1,0,0,0,16,11Z" fill="#61616b"></path><path d="M58,16H54V4a1,1,0,0,0-2,0V16H48a1,1,0,0,0-1,1V48a1,1,0,0,0,1,1h4v7a1,1,0,0,0,2,0V49h4a1,1,0,0,0,1-1V17A1,1,0,0,0,58,16Z" fill="#61616b"></path></g></svg>