<svg xmlns="http://www.w3.org/2000/svg" height="48" width="48" viewBox="0 0 48 48"><title>card switch</title><g fill="#61616b" class="nc-icon-wrapper"><path fill="#61616b" d="M43,7H5c-2.206,0-4,1.794-4,4v26c0,2.206,1.794,4,4,4h38c2.206,0,4-1.794,4-4V11C47,8.794,45.206,7,43,7z M25.806,32.588c-3.675,2.393-8.595,1.354-10.988-2.321l2.282-1.533c1.554,2.386,4.749,3.061,7.135,1.507 c2.386-1.554,3.061-4.748,1.507-7.135l2.385-1.506C30.52,25.275,29.481,30.194,25.806,32.588z M31.097,19.802 c-1.557-2.384-4.753-3.055-7.137-1.498c-2.384,1.557-3.055,4.753-1.498,7.137l-2.323,1.47c-2.398-3.672-1.365-8.593,2.307-10.991 c3.672-2.398,8.593-1.365,10.991,2.307L31.097,19.802z"></path></g></svg>