<svg xmlns="http://www.w3.org/2000/svg" height="48" width="48" viewBox="0 0 48 48"><title>card edit 4</title><g fill="#61616b" class="nc-icon-wrapper"><path fill="#61616b" d="M19,28H9c-0.553,0-1-0.448-1-1s0.447-1,1-1h10c0.553,0,1,0.448,1,1S19.553,28,19,28z"></path> <path fill="#61616b" d="M43,2H5C2.794,2,1,3.794,1,6v26c0,2.206,1.794,4,4,4h18v-2H5c-1.103,0-2-0.897-2-2V19h42v9h2V6 C47,3.794,45.206,2,43,2z M45,11H3V6c0-1.103,0.897-2,2-2h38c1.103,0,2,0.897,2,2V11z"></path> <path data-color="color-2" fill="#61616b" d="M25,46l1-5l11.172-11.172c1.103-1.103,2.894-1.106,4,0c1.105,1.105,1.105,2.895,0,4L30,45 L25,46z"></path></g></svg>