<svg xmlns="http://www.w3.org/2000/svg" height="64" width="64" viewBox="0 0 64 64"><title>card remove 3</title><g fill="#61616b" class="nc-icon-wrapper"><path fill="#61616b" d="M10,36c-0.553,0-1,0.448-1,1s0.447,1,1,1h14c0.553,0,1-0.448,1-1s-0.447-1-1-1H10z"></path> <path fill="#61616b" d="M58,4H6C3.243,4,1,6.243,1,9v36c0,2.757,2.243,5,5,5h25v-2H6c-1.654,0-3-1.346-3-3V27h58v10h2V9 C63,6.243,60.757,4,58,4z M61,17H3V9c0-1.654,1.346-3,3-3h52c1.654,0,3,1.346,3,3V17z"></path> <path data-color="color-2" fill="#61616b" d="M48,36c-6.627,0-12,5.373-12,12s5.373,12,12,12s12-5.373,12-12S54.627,36,48,36z M53,49H43 c-0.552,0-1-0.448-1-1s0.448-1,1-1h10c0.552,0,1,0.448,1,1S53.552,49,53,49z"></path></g></svg>