<svg xmlns="http://www.w3.org/2000/svg" height="64" width="64" viewBox="0 0 64 64"><title>card switch 2</title><g fill="#61616b" class="nc-icon-wrapper"><path fill="#61616b" d="M58,9H6c-2.757,0-5,2.243-5,5v36c0,2.757,2.243,5,5,5h52c2.757,0,5-2.243,5-5V14C63,11.243,60.757,9,58,9z M34.155,42.32c-4.439,2.891-10.381,1.636-13.271-2.803l2.756-1.852c1.877,2.882,5.735,3.697,8.618,1.82 c2.882-1.877,3.697-5.735,1.82-8.618l2.881-1.819C39.849,33.488,38.594,39.43,34.155,42.32z M40.545,26.878 c-1.881-2.88-5.74-3.69-8.62-1.809s-3.69,5.74-1.809,8.62l-2.806,1.775c-2.896-4.435-1.649-10.378,2.786-13.275 s10.378-1.649,13.275,2.786L40.545,26.878z"></path></g></svg>