<svg xmlns="http://www.w3.org/2000/svg" height="48" width="48" viewBox="0 0 48 48"><title>card favorite 4</title><g fill="#61616b" class="nc-icon-wrapper"><path data-color="color-2" fill="#61616b" d="M44.535,28.763c-2.415-2.626-6.59-2.262-8.535,0.717c-1.949-2.984-6.129-3.34-8.541-0.711 c-2.039,2.223-1.806,5.717,0.309,7.867l7.517,7.64c0.392,0.398,1.034,0.398,1.426,0l7.519-7.64 C46.349,34.484,46.579,30.985,44.535,28.763z"></path> <path fill="#61616b" d="M19,28H9c-0.553,0-1-0.448-1-1s0.447-1,1-1h10c0.553,0,1,0.448,1,1S19.553,28,19,28z"></path> <path fill="#61616b" d="M43,2H5C2.794,2,1,3.794,1,6v26c0,2.206,1.794,4,4,4h16v-2H5c-1.103,0-2-0.897-2-2V19h42v5h2V6 C47,3.794,45.206,2,43,2z M45,11H3V6c0-1.103,0.897-2,2-2h38c1.103,0,2,0.897,2,2V11z"></path></g></svg>