<svg xmlns="http://www.w3.org/2000/svg" height="32" width="32" viewBox="0 0 32 32"><title>card favorite 5</title><g fill="#61616b" class="nc-icon-wrapper"><path data-color="color-2" fill="#61616b" d="M30.041,19.992c-1.46-1.511-3.895-1.264-5.041,0.523c-1.147-1.789-3.583-2.032-5.041-0.523 c-1.278,1.323-1.278,3.467,0,4.79L24.999,30l5.042-5.218C31.32,23.459,31.32,21.315,30.041,19.992z"></path> <path fill="#61616b" d="M29,3H3C1.346,3,0,4.346,0,6v18c0,1.654,1.346,3,3,3h13v-2H3c-0.552,0-1-0.449-1-1v-8h30V6 C32,4.346,30.654,3,29,3z M3,5h26c0.552,0,1,0.449,1,1v3H2V6C2,5.449,2.448,5,3,5z"></path> <rect x="4" y="20" fill="#61616b" width="9" height="2"></rect></g></svg>