<svg xmlns="http://www.w3.org/2000/svg" height="16" width="16" viewBox="0 0 16 16"><title>card favorite 2</title><g fill="#61616b" class="nc-icon-wrapper"><path fill="#61616b" d="M15,1H1C0.447,1,0,1.448,0,2v10c0,0.552,0.447,1,1,1h3v-2H2V7h12v2h2V2C16,1.448,15.553,1,15,1z M2,5V3h12v2 H2z"></path> <path fill="#61616b" d="M13.361,9.631C12.388,8.67,10.764,8.827,10,9.964C9.235,8.826,7.611,8.671,6.639,9.631 c-0.852,0.842-0.852,2.207,0,3.048L10,16l3.361-3.321C14.213,11.838,14.213,10.473,13.361,9.631z" data-color="color-2"></path></g></svg>