<svg xmlns="http://www.w3.org/2000/svg" height="48" width="48" viewBox="0 0 48 48"><title>card update 3</title><g fill="#61616b" class="nc-icon-wrapper"><path fill="#61616b" d="M19,28H9c-0.553,0-1-0.448-1-1s0.447-1,1-1h10c0.553,0,1,0.448,1,1S19.553,28,19,28z"></path> <path fill="#61616b" d="M43,2H5C2.794,2,1,3.794,1,6v26c0,2.206,1.794,4,4,4h17v-2H5c-1.103,0-2-0.897-2-2V19h42v8h2V6 C47,3.794,45.206,2,43,2z M45,11H3V6c0-1.103,0.897-2,2-2h38c1.103,0,2,0.897,2,2V11z"></path> <path data-color="color-2" fill="#61616b" d="M42.761,34.481l-0.606-6.893l-2.216,2.384c-1.494-1.26-3.383-1.957-5.4-1.957 c-4.513,0-8.206,3.538-8.474,7.985h2.001c0.273-3.293,3.123-5.985,6.473-5.985c1.501,0,2.907,0.511,4.033,1.429l-2.497,2.686 L42.761,34.481z"></path> <path data-color="color-2" fill="#61616b" d="M40.934,37c-0.273,3.293-3.123,5.985-6.473,5.985c-1.501,0-2.907-0.511-4.033-1.429 l2.497-2.686l-6.687-0.351l0.606,6.893l2.216-2.384c1.494,1.26,3.383,1.957,5.4,1.957c4.513,0,8.206-3.538,8.474-7.985H40.934z"></path></g></svg>