<svg xmlns="http://www.w3.org/2000/svg" height="32" width="32" viewBox="0 0 32 32"><title>card update 4</title><g fill="#61616b" class="nc-icon-wrapper"><path data-color="color-2" fill="#61616b" d="M27.701,18.299C26.655,17.465,25.368,17,24,17c-3.309,0-6,2.691-6,6h2c0-2.206,1.794-4,4-4 c0.826,0,1.599,0.276,2.259,0.741L24,22h6v-6L27.701,18.299z"></path> <path data-color="color-2" fill="#61616b" d="M24,28c-0.826,0-1.599-0.276-2.259-0.741L24,25h-6v6l2.299-2.299 C21.345,29.535,22.632,30,24,30c3.309,0,6-2.691,6-6h-2C28,26.206,26.206,28,24,28z"></path> <path fill="#61616b" d="M29,1H3C1.346,1,0,2.346,0,4v18c0,1.654,1.346,3,3,3h11v-2H3c-0.552,0-1-0.449-1-1v-8h30V4 C32,2.346,30.654,1,29,1z M3,3h26c0.552,0,1,0.449,1,1v3H2V4C2,3.449,2.448,3,3,3z"></path> <rect x="4" y="18" fill="#61616b" width="9" height="2"></rect></g></svg>