<svg xmlns="http://www.w3.org/2000/svg" height="64" width="64" viewBox="0 0 64 64"><title>card update 2</title><g fill="#61616b" class="nc-icon-wrapper"><path data-color="color-2" fill="#61616b" d="M37.201,47c0.466,0,0.883-0.327,0.979-0.801C39.027,42.028,42.736,39,47,39 c3,0,5.677,1.506,7.311,4H49c-0.553,0-1,0.448-1,1s0.447,1,1,1h7c0.553,0,1-0.448,1-1v-7c0-0.552-0.447-1-1-1s-1,0.448-1,1v3.599 C52.986,38.328,50.136,37,47,37c-5.211,0-9.744,3.701-10.78,8.801c-0.109,0.542,0.24,1.069,0.781,1.179 C37.068,46.994,37.136,47,37.201,47z"></path> <path data-color="color-2" fill="#61616b" d="M56.999,49.02c-0.55-0.112-1.069,0.241-1.18,0.781C54.973,53.972,51.264,57,47,57 c-3,0-5.677-1.506-7.311-4H45c0.553,0,1-0.448,1-1s-0.447-1-1-1h-7c-0.553,0-1,0.448-1,1v7c0,0.552,0.447,1,1,1s1-0.448,1-1v-3.599 C41.014,57.672,43.864,59,47,59c5.211,0,9.744-3.701,10.78-8.801C57.89,49.658,57.54,49.13,56.999,49.02z"></path> <path fill="#61616b" d="M10,36c-0.553,0-1,0.448-1,1s0.447,1,1,1h14c0.553,0,1-0.448,1-1s-0.447-1-1-1H10z"></path> <path fill="#61616b" d="M58,4H6C3.243,4,1,6.243,1,9v36c0,2.757,2.243,5,5,5h25v-2H6c-1.654,0-3-1.346-3-3V27h58v10h2V9 C63,6.243,60.757,4,58,4z M61,17H3V9c0-1.654,1.346-3,3-3h52c1.654,0,3,1.346,3,3V17z"></path></g></svg>