<svg xmlns="http://www.w3.org/2000/svg" height="64" width="64" viewBox="0 0 64 64"><title>card favorite 3</title><g fill="#61616b" class="nc-icon-wrapper"><path data-color="color-2" fill="#61616b" d="M51.73,36.036c-1.824,0.181-3.49,1.025-4.73,2.365c-1.239-1.34-2.904-2.183-4.729-2.364 c-2.263-0.224-4.474,0.595-6.073,2.252c-2.922,3.024-2.922,7.946,0,10.97L46.28,59.695C46.468,59.89,46.728,60,46.999,60 s0.53-0.11,0.719-0.305l10.084-10.436c2.922-3.024,2.922-7.946,0-10.97C56.202,36.633,53.987,35.811,51.73,36.036z"></path> <path fill="#61616b" d="M10,36c-0.553,0-1,0.448-1,1s0.447,1,1,1h14c0.553,0,1-0.448,1-1s-0.447-1-1-1H10z"></path> <path fill="#61616b" d="M58,4H6C3.243,4,1,6.243,1,9v36c0,2.757,2.243,5,5,5h23v-2H6c-1.654,0-3-1.346-3-3V27h58v9h2V9 C63,6.243,60.757,4,58,4z M61,17H3V9c0-1.654,1.346-3,3-3h52c1.654,0,3,1.346,3,3V17z"></path></g></svg>