<svg xmlns="http://www.w3.org/2000/svg" height="32" width="32" viewBox="0 0 32 32"><title>card edit 5</title><g fill="#61616b" class="nc-icon-wrapper"><path fill="#61616b" d="M29,2H3C1.346,2,0,3.346,0,5v18c0,1.654,1.346,3,3,3h13v-2H3c-0.552,0-1-0.449-1-1v-8h30V5 C32,3.346,30.654,2,29,2z M3,4h26c0.552,0,1,0.449,1,1v3H2V5C2,4.449,2.448,4,3,4z"></path> <rect x="4" y="19" fill="#61616b" width="9" height="2"></rect> <path data-color="color-2" fill="#61616b" d="M28.379,18.621L21,26l-1,4l4-1l7.379-7.379c0.824-0.824,0.831-2.169,0-3 C30.55,17.793,29.207,17.793,28.379,18.621z"></path></g></svg>