<svg xmlns="http://www.w3.org/2000/svg" height="32" width="32" viewBox="0 0 32 32"><title>certificate 5</title><g fill="#61616b" class="nc-icon-wrapper"><path fill="#61616b" d="M28,5h-5.832l-7.631-4.844c-0.326-0.208-0.741-0.208-1.067-0.004L5.714,5H1C0.448,5,0,5.447,0,6v20 c0,0.553,0.448,1,1,1h18v-3H3V8h23v6h3V6C29,5.447,28.552,5,28,5z M13.995,2.183L18.422,5H9.487L13.995,2.183z"></path> <rect x="7" y="12" fill="#61616b" width="11" height="2"></rect> <rect x="7" y="18" fill="#61616b" width="7" height="2"></rect> <circle data-color="color-2" fill="#61616b" cx="26" cy="18" r="6"></circle> <path data-color="color-2" fill="#61616b" d="M26,26c-1.892,0-3.629-0.663-5-1.765v7.383l4.995-2.498L31,31.675v-7.44 C29.629,25.337,27.892,26,26,26z"></path></g></svg>