<svg xmlns="http://www.w3.org/2000/svg" height="64" width="64" viewBox="0 0 64 64"><title>certificate 3</title><g fill="#61616b" class="nc-icon-wrapper"><path fill="#61616b" d="M36,25c0-0.553-0.448-1-1-1H13c-0.552,0-1,0.447-1,1s0.448,1,1,1h22C35.552,26,36,25.553,36,25z"></path> <path fill="#61616b" d="M29,32H13c-0.552,0-1,0.447-1,1s0.448,1,1,1h16c0.552,0,1-0.447,1-1S29.552,32,29,32z"></path> <path fill="#61616b" d="M29,40H13c-0.552,0-1,0.447-1,1s0.448,1,1,1h16c0.552,0,1-0.447,1-1S29.552,40,29,40z"></path> <path data-color="color-2" fill="#61616b" d="M42,49.667V62c0,0.356,0.189,0.686,0.498,0.865c0.309,0.179,0.689,0.181,0.998,0.003 L50,59.152l6.504,3.716C56.657,62.956,56.829,63,57,63c0.174,0,0.347-0.045,0.502-0.135C57.811,62.686,58,62.356,58,62V49.667 C55.681,51.136,52.943,52,50,52S44.319,51.136,42,49.667z"></path> <path fill="#61616b" d="M5,15h49v7.558c1.431,0.397,2.774,0.999,4,1.776V12c0-0.552-0.448-1-1-1H2c-0.552,0-1,0.448-1,1v42 c0,0.552,0.448,1,1,1h38v-4H5V15z"></path> <path data-color="color-2" fill="#61616b" d="M50,24c-7.168,0-13,5.832-13,13s5.832,13,13,13s13-5.832,13-13S57.168,24,50,24z"></path> <path data-color="color-2" fill="#61616b" d="M29,3.191L37.977,9h3.683L29.543,1.16c-0.331-0.213-0.756-0.213-1.087,0L16.34,9h3.683 L29,3.191z"></path></g></svg>