<svg xmlns="http://www.w3.org/2000/svg" height="48" width="48" viewBox="0 0 48 48"><title>certificate 4</title><g fill="#61616b" class="nc-icon-wrapper"><path fill="#61616b" d="M25,21c0-0.553-0.448-1-1-1H11c-0.552,0-1,0.447-1,1s0.448,1,1,1h13C24.552,22,25,21.553,25,21z"></path> <path fill="#61616b" d="M11,28c-0.552,0-1,0.447-1,1s0.448,1,1,1h7c0.552,0,1-0.447,1-1s-0.448-1-1-1H11z"></path> <path data-color="color-2" fill="#61616b" d="M38,38c-2.214,0-4.273-0.663-6-1.792V46c0,0.36,0.194,0.692,0.507,0.87 c0.312,0.178,0.698,0.173,1.007-0.013L38,44.166l4.485,2.691C42.644,46.952,42.822,47,43,47c0.17,0,0.34-0.043,0.493-0.13 C43.806,46.692,44,46.36,44,46v-9.792C42.273,37.337,40.214,38,38,38z"></path> <path fill="#61616b" d="M5,13h34v3.051c1.43,0.13,2.779,0.537,4,1.164V11c0-1.104-0.896-2-2-2h-8.197L22.555,2.168 c-0.336-0.225-0.773-0.225-1.109,0L11.197,9H3c-1.104,0-2,0.896-2,2v28c0,1.104,0.896,2,2,2h27v-4H5V13z M22,4.202L29.197,9H14.803 L22,4.202z"></path> <path data-color="color-2" fill="#61616b" d="M38,18c-4.962,0-9,4.037-9,9s4.038,9,9,9s9-4.037,9-9S42.962,18,38,18z"></path></g></svg>