<svg xmlns="http://www.w3.org/2000/svg" height="32" width="32" viewBox="0 0 32 32"><title>chart growth 5</title><g fill="#61616b" class="nc-icon-wrapper"><path data-color="color-2" fill="#61616b" d="M10,18H4c-0.552,0-1,0.448-1,1v12c0,0.552,0.448,1,1,1h6c0.552,0,1-0.448,1-1V19 C11,18.448,10.552,18,10,18z"></path> <path fill="#61616b" d="M30.774,12.367l-9-11c-0.38-0.464-1.168-0.464-1.548,0l-9,11c-0.245,0.299-0.295,0.712-0.13,1.062 S11.614,14,12,14h5v17c0,0.552,0.448,1,1,1h6c0.552,0,1-0.448,1-1V14h5c0.386,0,0.738-0.223,0.904-0.572 S31.019,12.666,30.774,12.367z"></path></g></svg>