<svg xmlns="http://www.w3.org/2000/svg" height="32" width="32" viewBox="0 0 32 32"><title>chart bar 32 5</title><g fill="#61616b" class="nc-icon-wrapper"><path data-color="color-2" fill="#61616b" d="M19,2h-6c-0.552,0-1,0.448-1,1v26c0,0.552,0.448,1,1,1h6c0.552,0,1-0.448,1-1V3 C20,2.448,19.552,2,19,2z"></path> <path fill="#61616b" d="M7,18H1c-0.552,0-1,0.448-1,1v10c0,0.552,0.448,1,1,1h6c0.552,0,1-0.448,1-1V19C8,18.448,7.552,18,7,18z"></path> <path fill="#61616b" d="M31,10h-6c-0.552,0-1,0.448-1,1v18c0,0.552,0.448,1,1,1h6c0.552,0,1-0.448,1-1V11C32,10.448,31.552,10,31,10 z"></path></g></svg>