<svg xmlns="http://www.w3.org/2000/svg" height="64" width="64" viewBox="0 0 64 64"><title>chart growth 3</title><g fill="#61616b" class="nc-icon-wrapper"><path data-color="color-2" fill="#61616b" d="M23,37H11c-0.552,0-1,0.448-1,1v24c0,0.552,0.448,1,1,1h12c0.552,0,1-0.448,1-1V38 C24,37.448,23.552,37,23,37z"></path> <path fill="#61616b" d="M58.792,23.389l-17-22c-0.379-0.49-1.204-0.49-1.583,0l-17,22c-0.233,0.302-0.274,0.71-0.106,1.052 C23.271,24.783,23.619,25,24,25h10v37c0,0.552,0.448,1,1,1h12c0.552,0,1-0.448,1-1V25h10c0.381,0,0.729-0.217,0.897-0.559 C59.066,24.099,59.024,23.69,58.792,23.389z"></path></g></svg>