<svg xmlns="http://www.w3.org/2000/svg" height="48" width="48" viewBox="0 0 48 48"><title>chart growth 4</title><g fill="#61616b" class="nc-icon-wrapper"><path data-color="color-2" fill="#61616b" d="M17,27H9c-0.552,0-1,0.448-1,1v18c0,0.552,0.448,1,1,1h8c0.552,0,1-0.448,1-1V28 C18,27.448,17.552,27,17,27z"></path> <path fill="#61616b" d="M43.781,16.375l-12-15c-0.379-0.475-1.183-0.475-1.562,0l-12,15c-0.24,0.3-0.287,0.711-0.121,1.058 C18.265,17.78,18.616,18,19,18h7v28c0,0.552,0.448,1,1,1h8c0.552,0,1-0.448,1-1V18h7c0.384,0,0.735-0.22,0.901-0.567 C44.068,17.087,44.021,16.675,43.781,16.375z"></path></g></svg>