<svg xmlns="http://www.w3.org/2000/svg" height="64" width="64" viewBox="0 0 64 64"><title>chart bar 33 2</title><g fill="#61616b" class="nc-icon-wrapper"><path fill="#61616b" d="M39,36H25c-0.552,0-1,0.448-1,1v24c0,0.552,0.448,1,1,1h14c0.552,0,1-0.448,1-1V37 C40,36.448,39.552,36,39,36z"></path> <path fill="#61616b" d="M16,48H2c-0.552,0-1,0.448-1,1v12c0,0.552,0.448,1,1,1h14c0.552,0,1-0.448,1-1V49C17,48.448,16.552,48,16,48 z"></path> <path fill="#61616b" d="M62,24H48c-0.552,0-1,0.448-1,1v36c0,0.552,0.448,1,1,1h14c0.552,0,1-0.448,1-1V25 C63,24.448,62.552,24,62,24z"></path> <path data-color="color-2" fill="#61616b" d="M32.707,25.707L53,5.414V17c0,0.552,0.448,1,1,1s1-0.448,1-1V3c0-0.552-0.448-1-1-1H40 c-0.552,0-1,0.448-1,1s0.448,1,1,1h11.586L32,23.586l-9.293-9.293c-0.391-0.391-1.023-0.391-1.414,0l-12,12l1.414,1.414L22,16.414 l9.293,9.293C31.684,26.098,32.316,26.098,32.707,25.707z"></path></g></svg>