<svg xmlns="http://www.w3.org/2000/svg" height="48" width="48" viewBox="0 0 48 48"><title>chart 4</title><g fill="#61616b" class="nc-icon-wrapper"><path data-color="color-2" fill="#61616b" d="M25,13.051c5.268,0.478,9.472,4.681,9.949,9.949h12.025C46.463,11.112,36.888,1.537,25,1.025 V13.051z"></path> <path fill="#61616b" d="M15.313,30.723C13.869,28.862,13,26.533,13,24c0-5.728,4.402-10.442,10-10.949V1.025 C10.78,1.551,1,11.653,1,24c0,5.755,2.13,11.019,5.636,15.057L15.313,30.723z"></path> <path fill="#61616b" d="M34.949,25C34.442,30.598,29.728,35,24,35c-2.814,0-5.376-1.071-7.323-2.815L8.01,40.51 C12.152,44.523,17.791,47,24,47c12.347,0,22.449-9.78,22.975-22H34.949z"></path></g></svg>