<svg xmlns="http://www.w3.org/2000/svg" height="48" width="48" viewBox="0 0 48 48"><title>chart bar 32 4</title><g fill="#61616b" class="nc-icon-wrapper"><path data-color="color-2" fill="#61616b" d="M28,3h-8c-0.552,0-1,0.448-1,1v40c0,0.552,0.448,1,1,1h8c0.552,0,1-0.448,1-1V4 C29,3.448,28.552,3,28,3z"></path> <path fill="#61616b" d="M10,30H2c-0.552,0-1,0.448-1,1v13c0,0.552,0.448,1,1,1h8c0.552,0,1-0.448,1-1V31C11,30.448,10.552,30,10,30z "></path> <path fill="#61616b" d="M46,16h-8c-0.552,0-1,0.448-1,1v27c0,0.552,0.448,1,1,1h8c0.552,0,1-0.448,1-1V17C47,16.448,46.552,16,46,16 z"></path></g></svg>