<svg xmlns="http://www.w3.org/2000/svg" height="16" width="16" viewBox="0 0 16 16"><title>chart growth 2</title><g fill="#61616b" class="nc-icon-wrapper"><path fill="#61616b" d="M8,0L3,6h3v9c0,0.6,0.4,1,1,1h2c0.6,0,1-0.4,1-1V6h3L8,0z"></path> <path data-color="color-2" fill="#61616b" d="M3,11H1c-0.6,0-1,0.4-1,1v3c0,0.6,0.4,1,1,1h2c0.6,0,1-0.4,1-1v-3C4,11.4,3.6,11,3,11z"></path> <path data-color="color-2" fill="#61616b" d="M15,8h-2c-0.6,0-1,0.4-1,1v6c0,0.6,0.4,1,1,1h2c0.6,0,1-0.4,1-1V9C16,8.4,15.6,8,15,8z"></path></g></svg>