<svg xmlns="http://www.w3.org/2000/svg" height="64" width="64" viewBox="0 0 64 64"><title>chart 3</title><g fill="#61616b" class="nc-icon-wrapper"><path d="M44.949,33c-.512,6.711-6.107,12-12.949,12-3.23,0-6.178-1.185-8.452-3.134l-12.038,12.038c5.363,5.019,12.565,8.097,20.489,8.097,16.233,0,29.446-12.895,29.975-29h-17.025Z" fill="#61616b"></path><path data-color="color-2" d="M33,19.051c6.38,.487,11.463,5.57,11.949,11.949h17.025c-.518-15.772-13.203-28.457-28.975-28.975V19.051Z" fill="#61616b"></path><path d="M22.134,40.452c-1.95-2.273-3.134-5.222-3.134-8.452,0-6.842,5.289-12.437,12-12.949V2.025C14.895,2.554,2,15.767,2,32c0,7.924,3.078,15.126,8.097,20.489l12.038-12.038Z" fill="#61616b"></path></g></svg>