<svg xmlns="http://www.w3.org/2000/svg" height="48" width="48" viewBox="0 0 48 48"><title>chart bar 33 3</title><g fill="#61616b" class="nc-icon-wrapper"><path fill="#61616b" d="M28,27h-8c-0.552,0-1,0.448-1,1v18c0,0.552,0.448,1,1,1h8c0.552,0,1-0.448,1-1V28C29,27.448,28.552,27,28,27 z"></path> <path fill="#61616b" d="M10,37H2c-0.552,0-1,0.448-1,1v8c0,0.552,0.448,1,1,1h8c0.552,0,1-0.448,1-1v-8C11,37.448,10.552,37,10,37z"></path> <path fill="#61616b" d="M46,17h-8c-0.552,0-1,0.448-1,1v28c0,0.552,0.448,1,1,1h8c0.552,0,1-0.448,1-1V18C47,17.448,46.552,17,46,17 z"></path> <path data-color="color-2" fill="#61616b" d="M24.707,16.707L37,4.414V11c0,0.552,0.448,1,1,1s1-0.448,1-1V2c0-0.552-0.448-1-1-1h-9 c-0.552,0-1,0.448-1,1s0.448,1,1,1h6.586L24,14.586l-7.293-7.293c-0.391-0.391-1.023-0.391-1.414,0l-10,10l1.414,1.414L16,9.414 l7.293,7.293C23.684,17.098,24.316,17.098,24.707,16.707z"></path></g></svg>