<svg xmlns="http://www.w3.org/2000/svg" height="64" width="64" viewBox="0 0 64 64"><title>chart bar 32 3</title><g fill="#61616b" class="nc-icon-wrapper"><path data-color="color-2" fill="#61616b" d="M39,5H25c-0.552,0-1,0.448-1,1v52c0,0.552,0.448,1,1,1h14c0.552,0,1-0.448,1-1V6 C40,5.448,39.552,5,39,5z"></path> <path fill="#61616b" d="M16,41H2c-0.552,0-1,0.448-1,1v16c0,0.552,0.448,1,1,1h14c0.552,0,1-0.448,1-1V42C17,41.448,16.552,41,16,41 z"></path> <path fill="#61616b" d="M62,25H48c-0.552,0-1,0.448-1,1v32c0,0.552,0.448,1,1,1h14c0.552,0,1-0.448,1-1V26 C63,25.448,62.552,25,62,25z"></path></g></svg>