<svg xmlns="http://www.w3.org/2000/svg" height="48" width="48" viewBox="0 0 48 48"><title>cheque 4</title><g fill="#61616b" class="nc-icon-wrapper"><path fill="#61616b" d="M46,21H32c-0.552,0-1,0.447-1,1s0.448,1,1,1h13v22H3V23h5c0.552,0,1-0.447,1-1s-0.448-1-1-1H2 c-0.552,0-1,0.447-1,1v24c0,0.553,0.448,1,1,1h44c0.552,0,1-0.447,1-1V22C47,21.447,46.552,21,46,21z"></path> <path fill="#61616b" d="M12,30c0.092,0,0.184-0.013,0.275-0.038l7-2c0.163-0.047,0.312-0.135,0.432-0.255l19-19 c0.391-0.391,0.391-1.023,0-1.414l-5-5c-0.391-0.391-1.023-0.391-1.414,0l-19,19c-0.12,0.12-0.208,0.269-0.254,0.433l-2,7 c-0.1,0.349-0.002,0.725,0.254,0.981C11.483,29.897,11.738,30,12,30z"></path> <path data-color="color-2" fill="#61616b" d="M11,40h26c0.552,0,1-0.447,1-1s-0.448-1-1-1H11c-0.552,0-1,0.447-1,1S10.448,40,11,40z"></path> <path data-color="color-2" fill="#61616b" d="M25,32h12c0.552,0,1-0.447,1-1s-0.448-1-1-1H25c-0.552,0-1,0.447-1,1S24.448,32,25,32z"></path></g></svg>