<svg xmlns="http://www.w3.org/2000/svg" height="64" width="64" viewBox="0 0 64 64"><title>cheque 3</title><g fill="#61616b" class="nc-icon-wrapper"><path fill="#61616b" d="M62,31H39c-0.552,0-1,0.447-1,1s0.448,1,1,1h22v28H3V33h7c0.552,0,1-0.447,1-1s-0.448-1-1-1H2 c-0.552,0-1,0.447-1,1v30c0,0.553,0.448,1,1,1h60c0.552,0,1-0.447,1-1V32C63,31.447,62.552,31,62,31z"></path> <path fill="#61616b" d="M15,40c0.096,0,0.193-0.014,0.287-0.042l10-3c0.159-0.048,0.303-0.134,0.42-0.251l26-26 c0.391-0.391,0.391-1.023,0-1.414l-7-7c-0.391-0.391-1.023-0.391-1.414,0l-26,26c-0.117,0.117-0.203,0.261-0.251,0.42l-3,10 c-0.105,0.353-0.009,0.734,0.251,0.994C14.483,39.897,14.739,40,15,40z"></path> <path data-color="color-2" fill="#61616b" d="M14,47h36c0.552,0,1-0.447,1-1s-0.448-1-1-1H14c-0.552,0-1,0.447-1,1S13.448,47,14,47z"></path> <path data-color="color-2" fill="#61616b" d="M14,55h16c0.552,0,1-0.447,1-1s-0.448-1-1-1H14c-0.552,0-1,0.447-1,1S13.448,55,14,55z"></path> <path data-color="color-2" fill="#61616b" d="M50,53h-8c-0.552,0-1,0.447-1,1s0.448,1,1,1h8c0.552,0,1-0.447,1-1S50.552,53,50,53z"></path></g></svg>