<svg xmlns="http://www.w3.org/2000/svg" height="64" width="64" viewBox="0 0 64 64"><title>chess tower 3</title><g fill="#61616b" class="nc-icon-wrapper"><path data-color="color-2" d="M13,52H51a4,4,0,0,1,4,4v5a1,1,0,0,1-1,1H10a1,1,0,0,1-1-1V56A4,4,0,0,1,13,52Z" fill="#61616b"></path><path d="M49,2H45a1,1,0,0,0-.948.683L42.279,8h-4.05L36.973,2.767A1,1,0,0,0,36,2H28a1,1,0,0,0-.973.767L25.771,8h-4.05L19.948,2.684A1,1,0,0,0,19,2H15a1,1,0,0,0-1,1V13l.23.639L22,23H42l7.77-9.365A1,1,0,0,0,50,13V3A1,1,0,0,0,49,2Z" fill="#61616b"></path><polygon points="48.549 50 42 25 22 25 15.451 50 48.549 50" fill="#61616b"></polygon></g></svg>