<svg xmlns="http://www.w3.org/2000/svg" height="64" width="64" viewBox="0 0 64 64"><title>chess knight 2</title><g fill="#61616b" class="nc-icon-wrapper"><path data-color="color-2" d="M13,52.983H51a4,4,0,0,1,4,4v5a1,1,0,0,1-1,1H10a1,1,0,0,1-1-1v-5A4,4,0,0,1,13,52.983Z" fill="#61616b"></path><path d="M52,30.983A29.876,29.876,0,0,0,23.034,1a.981.981,0,0,0-.729.28,1,1,0,0,0-.3.719V5.983L11.5,17.432a1,1,0,0,0-.121,1.19l2.2,3.672a1,1,0,0,0,1.175.435L26,18.983a13.7,13.7,0,0,1,2,7c0,3.524-2.4,6.376-4.938,9.4C20.6,38.3,17.9,41.536,16.67,45.983h0a18.69,18.69,0,0,0-.67,5H44.316a30.313,30.313,0,0,0,3.632-5h0A29.874,29.874,0,0,0,52,30.983ZM43.271,47.6A1,1,0,0,1,41.7,46.367,24.741,24.741,0,0,0,47,30.983,24.973,24.973,0,0,0,24.886,6.154a1,1,0,1,1,.167-1.993l.061.007A26.971,26.971,0,0,1,49,30.983,26.7,26.7,0,0,1,43.271,47.6Z" fill="#61616b"></path></g></svg>