<svg xmlns="http://www.w3.org/2000/svg" height="32" width="32" viewBox="0 0 32 32"><title>chess tower 5</title><g fill="#61616b" class="nc-icon-wrapper"><path data-color="color-2" d="M27,27H5a2,2,0,0,0-2,2v3H29V29A2,2,0,0,0,27,27Z" fill="#61616b"></path><polygon points="21.326 14 10.674 14 7.531 25 24.469 25 21.326 14" fill="#61616b"></polygon><path d="M9.586,12H22.851l2.774-2.219A1,1,0,0,0,26,9V2a1,1,0,0,0-1-1H23.5a1,1,0,0,0-.937.648L21.307,5H19.281L18.47,1.758A1,1,0,0,0,17.5,1h-3a1,1,0,0,0-.97.758L12.719,5H10.693L9.437,1.648A1,1,0,0,0,8.5,1H7A1,1,0,0,0,6,2V8a1,1,0,0,0,.293.707Z" fill="#61616b"></path></g></svg>