<svg xmlns="http://www.w3.org/2000/svg" height="48" width="48" viewBox="0 0 48 48"><title>chess tower 4</title><g fill="#61616b" class="nc-icon-wrapper"><path d="M37,2H34a1,1,0,0,0-.929.629L31.323,7H29.03L27.97,2.757A1,1,0,0,0,27,2H21a1,1,0,0,0-.971.758L18.97,7H16.677L14.929,2.629A1,1,0,0,0,14,2H11a1,1,0,0,0-1,1v8a1,1,0,0,0,.322.735L16.026,17H31.974l5.7-5.265A1,1,0,0,0,38,11V3A1,1,0,0,0,37,2Z" fill="#61616b"></path><polygon points="16 19 11.22 37 36.78 37 32 19 16 19" fill="#61616b"></polygon><path data-color="color-2" d="M41,47H7a1,1,0,0,1-1-1V42a3,3,0,0,1,3-3H39a3,3,0,0,1,3,3v4A1,1,0,0,1,41,47Z" fill="#61616b"></path></g></svg>