<svg xmlns="http://www.w3.org/2000/svg" height="24" width="24" viewBox="0 0 24 24"><title>chess tower</title><g fill="#61616b" class="nc-icon-wrapper"><path data-color="color-2" d="M21,20H3a1,1,0,0,0-1,1v3H22V21A1,1,0,0,0,21,20Z" fill="#61616b"></path><path d="M7.856,9.393,5.509,18H18.491L16.144,9.393,19.6,6.8A1,1,0,0,0,20,6V2a1,1,0,0,0-1-1H18a1,1,0,0,0-.949.684L16.279,4H14.721l-.772-2.316A1,1,0,0,0,13,1H11a1,1,0,0,0-.949.684L9.279,4H7.721L6.949,1.684A1,1,0,0,0,6,1H5A1,1,0,0,0,4,2V6a1,1,0,0,0,.4.8Z" fill="#61616b"></path></g></svg>