<svg xmlns="http://www.w3.org/2000/svg" height="48" width="48" viewBox="0 0 48 48"><title>chess knight 3</title><g fill="#61616b" class="nc-icon-wrapper"><path data-color="color-2" d="M41,47H7a1,1,0,0,1-1-1V42a3,3,0,0,1,3-3H39a3,3,0,0,1,3,3v4A1,1,0,0,1,41,47Z" fill="#61616b"></path><path d="M39,23A21.966,21.966,0,0,0,18.047,1.024,1,1,0,0,0,17,1.976c0,.016,0,.032,0,.048V4L9.45,12.494a1,1,0,0,0-.15,1.112l1.321,2.642a1,1,0,0,0,1.182.51L21,14c2.1,5.259-.211,8.021-2.893,11.22-1.93,2.3-4.077,4.877-4.825,8.78h-.005A15.889,15.889,0,0,0,13,37H33.971a22.055,22.055,0,0,0,2.083-3h-.021A22.086,22.086,0,0,0,39,23ZM33.266,34.582a1,1,0,1,1-1.625-1.164,17.937,17.937,0,0,0-11.8-28.171,1,1,0,0,1,.314-1.975,19.935,19.935,0,0,1,13.109,31.31Z" fill="#61616b"></path></g></svg>