<svg xmlns="http://www.w3.org/2000/svg" height="32" width="32" viewBox="0 0 32 32"><title>cloud mining 4</title><g fill="#61616b" class="nc-icon-wrapper"><path d="M25.157,6A9.986,9.986,0,0,0,6.843,6,7,7,0,0,0,7,20H25a7,7,0,0,0,.157-14Z" fill="#61616b"></path><path d="M17,26.184V22H15v4.184a3,3,0,1,0,2,0Z" fill="#61616b" data-color="color-2"></path><path d="M7,22v2.593L5.318,26.317A2.968,2.968,0,0,0,4,26a3.021,3.021,0,1,0,2.718,1.746l2-2.048A1,1,0,0,0,9,25V22Z" fill="#61616b" data-color="color-2"></path><path d="M28,26a2.968,2.968,0,0,0-1.318.317L25,24.593V22H23v3a1,1,0,0,0,.284.7l2,2.048A3,3,0,1,0,28,26Z" fill="#61616b" data-color="color-2"></path></g></svg>