<svg xmlns="http://www.w3.org/2000/svg" height="24" width="24" viewBox="0 0 24 24"><title>cloud mining 5</title><g fill="#61616b" class="nc-icon-wrapper"><path d="M18.5,4a4.448,4.448,0,0,0-.822.083,5.99,5.99,0,0,0-11.356,0A4.448,4.448,0,0,0,5.5,4a4.5,4.5,0,0,0,0,9h13a4.5,4.5,0,0,0,0-9Z" fill="#61616b"></path><path d="M6,15v2.586L4.409,19.177a2.519,2.519,0,1,0,1.414,1.414l1.884-1.884A1,1,0,0,0,8,18V15Z" fill="#61616b" data-color="color-2"></path><path d="M13,19.212V15H11v4.212a2.5,2.5,0,1,0,2,0Z" fill="#61616b" data-color="color-2"></path><path d="M20.5,19a2.481,2.481,0,0,0-.909.177L18,17.586V15H16v3a1,1,0,0,0,.293.707l1.884,1.884A2.5,2.5,0,1,0,20.5,19Z" fill="#61616b" data-color="color-2"></path></g></svg>