<svg xmlns="http://www.w3.org/2000/svg" height="16" width="16" viewBox="0 0 16 16"><title>cloud mining</title><g fill="#61616b" class="nc-icon-wrapper"><path d="M12.5,2a3.542,3.542,0,0,0-.719.075,4.482,4.482,0,0,0-7.562,0A3.542,3.542,0,0,0,3.5,2a3.5,3.5,0,0,0,0,7h9a3.5,3.5,0,0,0,0-7Z" fill="#61616b"></path><path d="M3,10v1.586l-.945.945A1.7,1.7,0,0,0,1.75,12.5,1.75,1.75,0,1,0,3.5,14.25a1.7,1.7,0,0,0-.031-.3l1.238-1.238A1,1,0,0,0,5,12V10Z" fill="#61616b" data-color="color-2"></path><path d="M9,12.818V10H7v2.818a1.75,1.75,0,1,0,2,0Z" fill="#61616b" data-color="color-2"></path><path d="M14.25,12.5a1.714,1.714,0,0,0-.3.031L13,11.586V10H11v2a1,1,0,0,0,.293.707l1.238,1.238a1.7,1.7,0,0,0-.031.3,1.75,1.75,0,1,0,1.75-1.75Z" fill="#61616b" data-color="color-2"></path></g></svg>