<svg xmlns="http://www.w3.org/2000/svg" height="48" width="48" viewBox="0 0 48 48"><title>cloud mining 3</title><g fill="#61616b" class="nc-icon-wrapper"><path d="M25,39.142V31H23v8.142a4,4,0,1,0,2,0Z" fill="#61616b" data-color="color-2"></path><path d="M42,39a3.947,3.947,0,0,0-2.019.567L37,36.586V31H35v6a1,1,0,0,0,.293.707l3.274,3.274A3.947,3.947,0,0,0,38,43a4,4,0,1,0,4-4Z" fill="#61616b" data-color="color-2"></path><path d="M11,31v5.586L8.019,39.567A3.947,3.947,0,0,0,6,39a4,4,0,1,0,4,4,3.947,3.947,0,0,0-.567-2.019l3.274-3.274A1,1,0,0,0,13,37V31Z" fill="#61616b" data-color="color-2"></path><path d="M22.689,16.175l-.9,3.623c1.116.277,4.558,1.382,5.066-.662C27.383,17.005,23.805,16.453,22.689,16.175Z" fill="#61616b"></path><path d="M23.922,11.23,23.1,14.516c.929.232,3.793,1.177,4.257-.683C27.844,11.894,24.851,11.462,23.922,11.23Z" fill="#61616b"></path><path d="M37,9c-.118,0-.234,0-.351.009A14.063,14.063,0,0,0,26.185,1.186l-.236-.036c-.247-.035-.493-.069-.736-.089a13.021,13.021,0,0,0-2.418,0c-.251.02-.5.054-.825.1l-.142.022A14.069,14.069,0,0,0,11.351,9.009C11.234,9,11.118,9,11,9a10,10,0,0,0,0,20H37A10,10,0,0,0,37,9Zm-6.388,4.863a2.626,2.626,0,0,1-2.1,2.417,2.887,2.887,0,0,1,1.513,3.991c-.889,2.539-3,2.753-5.806,2.222l-.681,2.73-1.646-.41.672-2.694c-.427-.106-.862-.218-1.312-.34l-.674,2.706-1.644-.41.681-2.735L16.3,20.5l.817-1.884s1.212.322,1.2.3a.6.6,0,0,0,.754-.391l1.847-7.407a.874.874,0,0,0-.767-.957c.026-.018-1.2-.3-1.2-.3l.438-1.759,3.319.823.675-2.7,1.645.41-.661,2.65c.441.1.886.2,1.318.31l.657-2.632,1.646.41-.675,2.7C29.391,10.794,30.911,11.867,30.612,13.863Z" fill="#61616b"></path></g></svg>