<svg xmlns="http://www.w3.org/2000/svg" height="64" width="64" viewBox="0 0 64 64"><title>cloud mining 2</title><g fill="#61616b" class="nc-icon-wrapper"><path d="M26,54.141V40H24V54.141a4,4,0,1,0,2,0Z" fill="#61616b" data-color="color-2"></path><path d="M30.284,21.229,29.1,25.972c1.46.363,5.966,1.81,6.631-.866C36.428,22.315,31.745,21.594,30.284,21.229Z" fill="#61616b"></path><path d="M31.9,14.756l-1.073,4.3c1.217.3,4.966,1.54,5.574-.894C37.032,15.625,33.114,15.059,31.9,14.756Z" fill="#61616b"></path><path d="M49,14h-.028a18,18,0,0,0-33.944,0H15a12,12,0,0,0,0,24H49a12,12,0,0,0,0-24Zm-8.344,4.2A3.438,3.438,0,0,1,37.9,21.366c1.934,1.006,2.917,2.55,1.98,5.226-1.163,3.323-3.926,3.6-7.6,2.908l-.892,3.573-2.154-.537.88-3.525c-.559-.139-1.13-.286-1.717-.446l-.884,3.542-2.152-.536.892-3.581L21.917,26.9l1.07-2.467s1.587.422,1.566.391a.783.783,0,0,0,.987-.512l2.418-9.7a1.146,1.146,0,0,0-1-1.253c.034-.023-1.565-.389-1.565-.389l.573-2.3,4.345,1.076L31.19,8.2l2.154.537-.865,3.47c.578.132,1.16.265,1.726.406l.859-3.447,2.155.537-.883,3.54C39.057,14.184,41.047,15.589,40.656,18.2Z" fill="#61616b"></path><path d="M54,54.141V49a1,1,0,0,0-.293-.707L50,44.586V40H48v5a1,1,0,0,0,.293.707L52,49.414v4.727a4,4,0,1,0,2,0Z" fill="#61616b" data-color="color-2"></path><path d="M10,54.141V49a1,1,0,0,1,.293-.707L14,44.586V40h2v5a1,1,0,0,1-.293.707L12,49.414v4.727a4,4,0,1,1-2,0Z" fill="#61616b" data-color="color-2"></path><path d="M40,54.141V40H38V54.141a4,4,0,1,0,2,0Z" fill="#61616b" data-color="color-2"></path></g></svg>