<svg xmlns="http://www.w3.org/2000/svg" height="64" width="64" viewBox="0 0 64 64"><title>coins 3</title><g fill="#61616b" class="nc-icon-wrapper"><path fill="#61616b" d="M14,27c-5.702,0-10.456-1.726-13-4.393V26c0,3.925,5.71,7,13,7s13-3.075,13-7v-3.393 C24.456,25.274,19.702,27,14,27z"></path> <path fill="#61616b" d="M14,19c-5.702,0-10.456-1.726-13-4.393V18c0,3.925,5.71,7,13,7s13-3.075,13-7v-3.393 C24.456,17.274,19.702,19,14,19z"></path> <path fill="#61616b" d="M50,27c-5.702,0-10.456-1.726-13-4.393V26c0,3.925,5.71,7,13,7s13-3.075,13-7v-3.393 C60.456,25.274,55.702,27,50,27z"></path> <path fill="#61616b" d="M50,11c-7.29,0-13,3.075-13,7s5.71,7,13,7s13-3.075,13-7S57.29,11,50,11z"></path> <path fill="#61616b" d="M14,3C6.71,3,1,6.075,1,10s5.71,7,13,7s13-3.075,13-7S21.29,3,14,3z"></path> <path fill="#61616b" d="M50,43c-1.039,0-2.036-0.07-3-0.185v5.98C47.964,48.917,48.958,49,50,49c7.29,0,13-3.075,13-7v-3.393 C60.456,41.274,55.702,43,50,43z"></path> <path fill="#61616b" d="M50,35c-1.391,0-2.723-0.106-3.982-0.3C46.646,35.714,47,36.821,47,38v2.799C47.964,40.92,48.959,41,50,41 c7.29,0,13-3.075,13-7v-3.393C60.456,33.274,55.702,35,50,35z"></path> <path data-color="color-2" fill="#61616b" d="M32,55c-5.702,0-10.456-1.726-13-4.393V54c0,3.925,5.71,7,13,7s13-3.075,13-7v-3.393 C42.456,53.274,37.702,55,32,55z"></path> <path data-color="color-2" fill="#61616b" d="M32,47c-5.702,0-10.456-1.726-13-4.393V46c0,3.925,5.71,7,13,7s13-3.075,13-7v-3.393 C42.456,45.274,37.702,47,32,47z"></path> <path data-color="color-2" fill="#61616b" d="M32,31c-7.29,0-13,3.075-13,7s5.71,7,13,7s13-3.075,13-7S39.29,31,32,31z"></path> <path fill="#61616b" d="M17,42.815C16.032,42.924,15.039,43,14,43c-5.702,0-10.456-1.726-13-4.393V42c0,3.925,5.71,7,13,7 c1.038,0,2.038-0.069,3-0.187V42.815z"></path> <path fill="#61616b" d="M17,38c0-1.179,0.354-2.286,0.982-3.3C16.723,34.894,15.391,35,14,35c-5.702,0-10.456-1.726-13-4.393V34 c0,3.925,5.71,7,13,7c1.041,0,2.036-0.08,3-0.201V38z"></path></g></svg>