<svg xmlns="http://www.w3.org/2000/svg" height="16" width="16" viewBox="0 0 16 16"><title>coins 2</title><g fill="#61616b" class="nc-icon-wrapper"><path fill="#61616b" d="M8,6c2.9,0,6-0.9,6-3s-3.1-3-6-3S2,0.9,2,3S5.1,6,8,6z"></path> <path data-color="color-2" fill="#61616b" d="M2,6.5V8c0,2.1,3.1,3,6,3s6-0.9,6-3V6.5C12.6,7.4,10.5,8,8,8S3.4,7.4,2,6.5z"></path> <path data-color="color-2" fill="#61616b" d="M2,11.5V13c0,2.1,3.1,3,6,3s6-0.9,6-3v-1.5c-1.4,1-3.5,1.5-6,1.5S3.4,12.4,2,11.5z"></path></g></svg>