<svg xmlns="http://www.w3.org/2000/svg" height="48" width="48" viewBox="0 0 48 48"><title>coins 4</title><g fill="#61616b" class="nc-icon-wrapper"><path fill="#61616b" d="M14,2C7.159,2,2,3.72,2,6s5.159,4,12,4s12-1.72,12-4S20.841,2,14,2z"></path> <path data-color="color-2" fill="#61616b" d="M34,40c-4.412,0-9.327-0.735-12-2.612V42c0,2.28,5.159,4,12,4s12-1.72,12-4v-4.612 C43.327,39.265,38.412,40,34,40z"></path> <path data-color="color-2" fill="#61616b" d="M34,32c-4.412,0-9.327-0.735-12-2.612V34c0,2.28,5.159,4,12,4s12-1.72,12-4v-4.612 C43.327,31.265,38.412,32,34,32z"></path> <path data-color="color-2" fill="#61616b" d="M34,24c-4.412,0-9.327-0.735-12-2.612V26c0,2.28,5.159,4,12,4s12-1.72,12-4v-4.612 C43.327,23.265,38.412,24,34,24z"></path> <path data-color="color-2" fill="#61616b" d="M34,14c-6.841,0-12,1.72-12,4s5.159,4,12,4s12-1.72,12-4S40.841,14,34,14z"></path> <path fill="#61616b" d="M14,18c2.242,0,4.297-0.188,6.056-0.516c0.324-2.281,2.758-3.737,5.944-4.569V9.388 C23.327,11.265,18.412,12,14,12S4.673,11.265,2,9.388V14C2,16.28,7.159,18,14,18z"></path> <path fill="#61616b" d="M14,26c2.218,0,4.254-0.183,6-0.505v-5.988C18.062,19.841,15.984,20,14,20c-4.412,0-9.327-0.735-12-2.612V22 C2,24.28,7.159,26,14,26z"></path> <path fill="#61616b" d="M14,34c2.218,0,4.254-0.183,6-0.505v-5.988C18.062,27.841,15.984,28,14,28c-4.412,0-9.327-0.735-12-2.612V30 C2,32.28,7.159,34,14,34z"></path> <path fill="#61616b" d="M20,35.507C18.062,35.841,15.984,36,14,36c-4.412,0-9.327-0.735-12-2.612V38c0,2.28,5.159,4,12,4 c2.218,0,4.254-0.183,6-0.505V35.507z"></path></g></svg>