<svg xmlns="http://www.w3.org/2000/svg" height="48" width="48" viewBox="0 0 48 48"><title>conference room 3</title><g fill="#61616b" class="nc-icon-wrapper"><path d="M5.5,16A4.5,4.5,0,1,1,10,11.5,4.5,4.5,0,0,1,5.5,16Z" fill="#61616b" data-color="color-2"></path><path d="M5.5,28.5A4.5,4.5,0,1,1,10,24,4.5,4.5,0,0,1,5.5,28.5Z" fill="#61616b" data-color="color-2"></path><path d="M5.5,41A4.5,4.5,0,1,1,10,36.5,4.5,4.5,0,0,1,5.5,41Z" fill="#61616b" data-color="color-2"></path><path d="M42.5,16A4.5,4.5,0,1,1,47,11.5,4.5,4.5,0,0,1,42.5,16Z" fill="#61616b" data-color="color-2"></path><path d="M42.5,28.5A4.5,4.5,0,1,1,47,24,4.5,4.5,0,0,1,42.5,28.5Z" fill="#61616b" data-color="color-2"></path><path d="M42.5,41A4.5,4.5,0,1,1,47,36.5,4.5,4.5,0,0,1,42.5,41Z" fill="#61616b" data-color="color-2"></path><path d="M32,5H16a3,3,0,0,0-3,3V40a3,3,0,0,0,3,3H32a3,3,0,0,0,3-3V8A3,3,0,0,0,32,5ZM26,27a1,1,0,0,1-1,1H23a1,1,0,0,1-1-1V22a1,1,0,0,1,1-1h2a1,1,0,0,1,1,1Z" fill="#61616b"></path></g></svg>