<svg xmlns="http://www.w3.org/2000/svg" height="32" width="32" viewBox="0 0 32 32"><title>conference room 4</title><g fill="#61616b" class="nc-icon-wrapper"><path d="M22,29H10a2,2,0,0,1-2-2V5a2,2,0,0,1,2-2H22a2,2,0,0,1,2,2V27A2,2,0,0,1,22,29Z" fill="#61616b"></path><path d="M3,10A3,3,0,1,1,6,7,3,3,0,0,1,3,10Z" fill="#61616b" data-color="color-2"></path><path d="M3,19a3,3,0,1,1,3-3A3,3,0,0,1,3,19Z" fill="#61616b" data-color="color-2"></path><path d="M3,28a3,3,0,1,1,3-3A3,3,0,0,1,3,28Z" fill="#61616b" data-color="color-2"></path><path d="M29,10a3,3,0,1,1,3-3A3,3,0,0,1,29,10Z" fill="#61616b" data-color="color-2"></path><path d="M29,19a3,3,0,1,1,3-3A3,3,0,0,1,29,19Z" fill="#61616b" data-color="color-2"></path><path d="M29,28a3,3,0,1,1,3-3A3,3,0,0,1,29,28Z" fill="#61616b" data-color="color-2"></path></g></svg>