<svg xmlns="http://www.w3.org/2000/svg" height="64" width="64" viewBox="0 0 64 64"><title>conference room 2</title><g fill="#61616b" class="nc-icon-wrapper"><path d="M9,18a5,5,0,1,1,5-5A5.006,5.006,0,0,1,9,18Z" fill="#61616b" data-color="color-2"></path><path d="M9,44a5,5,0,1,1,5-5A5.006,5.006,0,0,1,9,44Z" fill="#61616b" data-color="color-2"></path><path d="M9,31a5,5,0,1,1,5-5A5.006,5.006,0,0,1,9,31Z" fill="#61616b" data-color="color-2"></path><path d="M9,57a5,5,0,1,1,5-5A5.006,5.006,0,0,1,9,57Z" fill="#61616b" data-color="color-2"></path><path d="M55,31a5,5,0,1,1,5-5A5.006,5.006,0,0,1,55,31Z" fill="#61616b" data-color="color-2"></path><path d="M55,18a5,5,0,1,1,5-5A5.006,5.006,0,0,1,55,18Z" fill="#61616b" data-color="color-2"></path><path d="M55,44a5,5,0,1,1,5-5A5.006,5.006,0,0,1,55,44Z" fill="#61616b" data-color="color-2"></path><path d="M55,57a5,5,0,1,1,5-5A5.006,5.006,0,0,1,55,57Z" fill="#61616b" data-color="color-2"></path><path d="M42,8H22a4,4,0,0,0-4,4V53a4,4,0,0,0,4,4H42a4,4,0,0,0,4-4V12A4,4,0,0,0,42,8ZM35,37a1,1,0,0,1-1,1H30a1,1,0,0,1-1-1V28a1,1,0,0,1,1-1h4a1,1,0,0,1,1,1Z" fill="#61616b"></path></g></svg>