<svg xmlns="http://www.w3.org/2000/svg" height="24" width="24" viewBox="0 0 24 24"><title>conference room 5</title><g fill="#61616b" class="nc-icon-wrapper"><path d="M17,22H7a1,1,0,0,1-1-1V3A1,1,0,0,1,7,2H17a1,1,0,0,1,1,1V21A1,1,0,0,1,17,22Z" fill="#61616b"></path><path d="M2,8A2,2,0,1,1,4,6,2,2,0,0,1,2,8ZM2,6H2Z" fill="#61616b" data-color="color-2"></path><path d="M2,14a2,2,0,1,1,2-2A2,2,0,0,1,2,14Zm0-2H2Z" fill="#61616b" data-color="color-2"></path><path d="M2,20a2,2,0,1,1,2-2A2,2,0,0,1,2,20Zm0-2H2Z" fill="#61616b" data-color="color-2"></path><path d="M22,8a2,2,0,1,1,2-2A2,2,0,0,1,22,8Zm0-2h0Z" fill="#61616b" data-color="color-2"></path><path d="M22,14a2,2,0,1,1,2-2A2,2,0,0,1,22,14Zm0-2h0Z" fill="#61616b" data-color="color-2"></path><path d="M22,20a2,2,0,1,1,2-2A2,2,0,0,1,22,20Zm0-2h0Z" fill="#61616b" data-color="color-2"></path></g></svg>