<svg xmlns="http://www.w3.org/2000/svg" height="48" width="48" viewBox="0 0 48 48"><title>connect 4</title><g fill="#61616b" class="nc-icon-wrapper"><path data-color="color-2" fill="#61616b" d="M26,35h-9.069c-0.495-3.94-3.859-7-7.931-7c-4.411,0-8,3.589-8,8s3.589,8,8,8 c4.072,0,7.436-3.06,7.931-7H26c0.553,0,1-0.447,1-1S26.553,35,26,35z"></path> <path fill="#61616b" d="M39,28c-1.199,0-2.332,0.272-3.354,0.747l-3.904-6.246c-0.292-0.468-0.909-0.611-1.378-0.317 c-0.468,0.292-0.61,0.909-0.317,1.378l3.902,6.242C32.151,31.272,31,33.503,31,36c0,4.411,3.589,8,8,8s8-3.589,8-8S43.411,28,39,28z "></path> <path fill="#61616b" d="M24,4c-4.411,0-8,3.589-8,8c0,2.497,1.151,4.728,2.948,6.196l-3.796,6.073 c-0.293,0.469-0.15,1.086,0.317,1.378c0.165,0.104,0.349,0.152,0.529,0.152c0.333,0,0.659-0.166,0.849-0.47l3.799-6.077 C21.668,19.728,22.801,20,24,20c4.411,0,8-3.589,8-8S28.411,4,24,4z"></path></g></svg>