<svg xmlns="http://www.w3.org/2000/svg" height="64" width="64" viewBox="0 0 64 64"><title>connect 3</title><g fill="#61616b" class="nc-icon-wrapper"><path fill="#61616b" d="M12,37C5.935,37,1,41.935,1,48s4.935,11,11,11s11-4.935,11-11S18.065,37,12,37z"></path> <path data-color="color-2" fill="#61616b" d="M24.949,47C24.975,47.331,25,47.662,25,48s-0.025,0.669-0.051,1h14.101 C39.025,48.669,39,48.338,39,48s0.025-0.669,0.051-1H24.949z"></path> <path fill="#61616b" d="M52,37c-6.065,0-11,4.935-11,11s4.935,11,11,11s11-4.935,11-11S58.065,37,52,37z"></path> <path data-color="color-2" fill="#61616b" d="M25.983,27.513c-0.594-0.312-1.155-0.672-1.691-1.068l-6.276,10.043 c0.594,0.312,1.155,0.672,1.691,1.068L25.983,27.513z"></path> <path data-color="color-2" fill="#61616b" d="M38.017,27.513l6.276,10.043c0.535-0.396,1.097-0.757,1.691-1.068l-6.276-10.043 C39.172,26.841,38.61,27.201,38.017,27.513z"></path> <path fill="#61616b" d="M32,27c6.065,0,11-4.935,11-11S38.065,5,32,5S21,9.935,21,16S25.935,27,32,27z"></path></g></svg>