<svg xmlns="http://www.w3.org/2000/svg" height="16" width="16" viewBox="0 0 16 16"><title>contacts 2</title><g fill="#61616b" class="nc-icon-wrapper"><path d="M11,0H1C.448,0,0,.448,0,1V15c0,.552,.448,1,1,1H11c1.1,0,2-.9,2-2V2c0-1.1-.9-2-2-2Zm-1.5,7H3.5c-.276,0-.5-.224-.5-.5V3.5c0-.276,.224-.5,.5-.5h6c.276,0,.5,.224,.5,.5v3c0,.276-.224,.5-.5,.5Z" fill="#61616b"></path><rect x="14" y="3" width="2" height="3" rx=".5" ry=".5" fill="#61616b" data-color="color-2"></rect><rect x="14" y="7" width="2" height="3" rx=".5" ry=".5" fill="#61616b" data-color="color-2"></rect></g></svg>