<svg xmlns="http://www.w3.org/2000/svg" height="24" width="24" viewBox="0 0 24 24"><title>contacts</title><g fill="#61616b" class="nc-icon-wrapper"><rect x="22" y="4" width="2" height="6" rx=".5" ry=".5" fill="#61616b" data-color="color-2"></rect><path d="M3,0H1C.447,0,0,.447,0,1V23c0,.553,.447,1,1,1H3V0Z" fill="#61616b" data-color="color-2"></path><path d="M18,0H5V24h13c1.654,0,3-1.346,3-3V3c0-1.654-1.346-3-3-3Zm-1.5,14h-7c-.276,0-.5-.224-.5-.5v-1c0-.276,.224-.5,.5-.5h7c.276,0,.5,.224,.5,.5v1c0,.276-.224,.5-.5,.5Zm0-4h-7c-.276,0-.5-.224-.5-.5V4.5c0-.276,.224-.5,.5-.5h7c.276,0,.5,.224,.5,.5v5c0,.276-.224,.5-.5,.5Z" fill="#61616b"></path></g></svg>