<svg xmlns="http://www.w3.org/2000/svg" height="32" width="32" viewBox="0 0 32 32"><title>contacts 5</title><g fill="#61616b" class="nc-icon-wrapper"><path d="M31,11c-.552,0-1-.448-1-1V6c0-.552,.448-1,1-1s1,.448,1,1v4c0,.552-.448,1-1,1Z" fill="#61616b" data-color="color-2"></path><path d="M31,19c-.552,0-1-.448-1-1v-4c0-.552,.448-1,1-1s1,.448,1,1v4c0,.552-.448,1-1,1Z" fill="#61616b" data-color="color-2"></path><path d="M5,0H2c-.552,0-1,.448-1,1V31c0,.552,.448,1,1,1h3V0Z" fill="#61616b" data-color="color-2"></path><path d="M24,0H7V32H24c2.206,0,4-1.794,4-4V4c0-2.206-1.794-4-4-4Zm-1,20H12c-.552,0-1-.448-1-1s.448-1,1-1h11c.552,0,1,.448,1,1s-.448,1-1,1Zm1-6c0,.552-.448,1-1,1H12c-.552,0-1-.448-1-1V7c0-.552,.448-1,1-1h11c.552,0,1,.448,1,1v7Z" fill="#61616b"></path></g></svg>