<svg xmlns="http://www.w3.org/2000/svg" height="48" width="48" viewBox="0 0 48 48"><title>contacts 4</title><g fill="#61616b" class="nc-icon-wrapper"><rect data-color="color-2" x="44" y="9" fill="#61616b" width="2" height="8"></rect> <rect data-color="color-2" x="44" y="22" fill="#61616b" width="2" height="8"></rect> <path data-color="color-2" fill="#61616b" d="M9,1H5C4.447,1,4,1.448,4,2v44c0,0.552,0.447,1,1,1h4V1z"></path> <path fill="#61616b" d="M35,1H11v46h24c3.859,0,7-3.14,7-7V8C42,4.14,38.859,1,35,1z M34,26H19c-0.553,0-1-0.447-1-1s0.447-1,1-1h15 c0.553,0,1,0.447,1,1S34.553,26,34,26z M35,19c0,0.553-0.447,1-1,1H19c-0.553,0-1-0.447-1-1v-9c0-0.553,0.447-1,1-1h15 c0.553,0,1,0.447,1,1V19z"></path></g></svg>