<svg xmlns="http://www.w3.org/2000/svg" height="12" width="12" viewBox="0 0 12 12"><title>copyright 6</title><g fill="#61616b" class="nc-icon-wrapper"><path d="M6.036,8.75A2.434,2.434,0,0,1,3.5,6,2.434,2.434,0,0,1,6.036,3.25a2.6,2.6,0,0,1,1.19.268.5.5,0,0,1-.452.892,1.624,1.624,0,0,0-.738-.16C5.656,4.25,4.5,4.25,4.5,6S5.656,7.75,6.036,7.75a1.624,1.624,0,0,0,.738-.16.5.5,0,0,1,.452.892A2.6,2.6,0,0,1,6.036,8.75Z" fill="#61616b" data-color="color-2"></path><path d="M6,0a6,6,0,1,0,6,6A6,6,0,0,0,6,0ZM6,10a4,4,0,1,1,4-4A4,4,0,0,1,6,10Z" fill="#61616b"></path></g></svg>