<svg xmlns="http://www.w3.org/2000/svg" height="24" width="24" viewBox="0 0 24 24"><title>copyright 5</title><g fill="#61616b" class="nc-icon-wrapper"><path d="M12,24A12,12,0,1,1,24,12,12.013,12.013,0,0,1,12,24ZM12,2A10,10,0,1,0,22,12,10.011,10.011,0,0,0,12,2Z" fill="#61616b"></path><path d="M12.476,8a3.654,3.654,0,0,1,1.681.361l1.34.676,1.352-2.678L15.51,5.684A6.65,6.65,0,0,0,12.476,5C8.421,5,6,7.617,6,12s2.421,7,6.476,7a6.65,6.65,0,0,0,3.034-.684l1.339-.675L15.5,14.963l-1.34.676A3.654,3.654,0,0,1,12.476,16C11.616,16,9,16,9,12S11.616,8,12.476,8Z" fill="#61616b" data-color="color-2"></path></g></svg>