<svg xmlns="http://www.w3.org/2000/svg" height="16" width="16" viewBox="0 0 16 16"><title>copyright</title><g fill="#61616b" class="nc-icon-wrapper"><path d="M8,0a8,8,0,1,0,8,8A8.009,8.009,0,0,0,8,0ZM8,14a6,6,0,1,1,6-6A6.006,6.006,0,0,1,8,14Z" fill="#61616b"></path><path d="M8.214,6a1.8,1.8,0,0,1,.833.177l.892.453.9-1.784-.891-.452A3.806,3.806,0,0,0,8.214,4C5.923,4,4.5,5.532,4.5,8s1.423,4,3.714,4a3.806,3.806,0,0,0,1.739-.394l.891-.452-.9-1.784-.892.453A1.8,1.8,0,0,1,8.214,10C7.7,10,6.5,10,6.5,8S7.7,6,8.214,6Z" fill="#61616b" data-color="color-2"></path></g></svg>