<svg xmlns="http://www.w3.org/2000/svg" height="64" width="64" viewBox="0 0 64 64"><title>credit card 3</title><g fill="#61616b" class="nc-icon-wrapper"><path data-color="color-2" fill="#61616b" d="M63,22V12c0-1.657-1.343-3-3-3H4c-1.657,0-3,1.343-3,3v10H63z"></path> <path fill="#61616b" d="M1,31v21c0,1.657,1.343,3,3,3h56c1.657,0,3-1.343,3-3V31H1z M24,45H10c-0.552,0-1-0.448-1-1s0.448-1,1-1h14 c0.552,0,1,0.448,1,1S24.552,45,24,45z M54,45h-4c-0.552,0-1-0.448-1-1s0.448-1,1-1h4c0.552,0,1,0.448,1,1S54.552,45,54,45z"></path></g></svg>