<svg xmlns="http://www.w3.org/2000/svg" height="64" width="64" viewBox="0 0 64 64"><title>credit card in 3</title><g fill="#61616b" class="nc-icon-wrapper"><path fill="#61616b" d="M9,9v49c0,2.757,2.243,5,5,5h6V8H10C9.448,8,9,8.447,9,9z"></path> <path fill="#61616b" d="M55,9c0-0.553-0.448-1-1-1H30v55h20c2.757,0,5-2.243,5-5V9z M45,52c0,0.553-0.448,1-1,1s-1-0.447-1-1V40 c0-0.553,0.448-1,1-1s1,0.447,1,1V52z M45,24c0,0.553-0.448,1-1,1s-1-0.447-1-1v-5c0-0.553,0.448-1,1-1s1,0.447,1,1V24z"></path> <path data-color="color-2" fill="#61616b" d="M56,1H8C4.14,1,1,4.141,1,8c0,3.519,2.613,6.432,6,6.92v-2.021C4.721,12.434,3,10.414,3,8 c0-2.757,2.243-5,5-5h48c2.757,0,5,2.243,5,5c0,2.414-1.721,4.434-4,4.899v2.021c3.387-0.488,6-3.401,6-6.92C63,4.141,59.86,1,56,1z "></path></g></svg>