<svg xmlns="http://www.w3.org/2000/svg" height="32" width="32" viewBox="0 0 32 32"><title>credit locked 4</title><g fill="#61616b" class="nc-icon-wrapper"><rect x="4" y="18" fill="#61616b" width="9" height="2"></rect> <path data-color="color-2" fill="#61616b" d="M28,21h-1v-2c0-2.243-1.757-4-4-4s-4,1.757-4,4v2h-1c-0.553,0-1,0.448-1,1v8 c0,0.552,0.447,1,1,1h10c0.553,0,1-0.448,1-1v-8C29,21.448,28.553,21,28,21z M25,21h-4v-2c0-1.14,0.859-2,2-2s2,0.86,2,2V21z"></path> <path fill="#61616b" d="M2,22v-9h28v6h2V4c0-1.654-1.346-3-3-3H3C1.346,1,0,2.346,0,4v18c0,1.654,1.346,3,3,3h12v-2H3 C2.448,23,2,22.551,2,22z M2,4c0-0.551,0.448-1,1-1h26c0.552,0,1,0.449,1,1v3H2V4z"></path></g></svg>