<svg xmlns="http://www.w3.org/2000/svg" height="48" width="48" viewBox="0 0 48 48"><title>credit locked 3</title><g fill="#61616b" class="nc-icon-wrapper"><path fill="#61616b" d="M19,27H9c-0.553,0-1-0.448-1-1s0.447-1,1-1h10c0.553,0,1,0.448,1,1S19.553,27,19,27z"></path> <path fill="#61616b" d="M43,1H5C2.794,1,1,2.794,1,5v26c0,2.206,1.794,4,4,4h18v-2H5c-1.103,0-2-0.897-2-2V18h42v12h2V5 C47,2.794,45.206,1,43,1z M45,10H3V5c0-1.103,0.897-2,2-2h38c1.103,0,2,0.897,2,2V10z"></path> <path data-color="color-2" fill="#61616b" d="M42,31h-3v-3c0-2.757-2.243-5-5-5s-5,2.243-5,5v3h-3c-0.553,0-1,0.448-1,1v14 c0,0.552,0.447,1,1,1h16c0.553,0,1-0.448,1-1V32C43,31.448,42.553,31,42,31z M35,40.816V43h-2v-2.184c-1.163-0.413-2-1.512-2-2.816 c0-1.657,1.343-3,3-3s3,1.343,3,3C37,39.304,36.163,40.403,35,40.816z M37,31h-6v-3c0-1.654,1.346-3,3-3s3,1.346,3,3V31z"></path></g></svg>