<svg xmlns="http://www.w3.org/2000/svg" height="48" width="48" viewBox="0 0 48 48"><title>credit card 4</title><g fill="#61616b" class="nc-icon-wrapper"><path data-color="color-2" fill="#61616b" d="M47,16V9c0-1.105-0.895-2-2-2H3C1.895,7,1,7.895,1,9v7H47z"></path> <path fill="#61616b" d="M1,22v17c0,1.105,0.895,2,2,2h42c1.105,0,2-0.895,2-2V22H1z M18,33H8c-0.552,0-1-0.448-1-1s0.448-1,1-1h10 c0.552,0,1,0.448,1,1S18.552,33,18,33z M40,33h-5c-0.552,0-1-0.448-1-1s0.448-1,1-1h5c0.552,0,1,0.448,1,1S40.552,33,40,33z"></path></g></svg>