<svg xmlns="http://www.w3.org/2000/svg" height="64" width="64" viewBox="0 0 64 64"><title>credit locked 2</title><g fill="#61616b" class="nc-icon-wrapper"><path fill="#61616b" d="M10,35c-0.553,0-1,0.448-1,1s0.447,1,1,1h14c0.553,0,1-0.448,1-1s-0.447-1-1-1H10z"></path> <path fill="#61616b" d="M58,3H6C3.243,3,1,5.243,1,8v36c0,2.757,2.243,5,5,5h25v-2H6c-1.654,0-3-1.346-3-3V26h58v18h2V8 C63,5.243,60.757,3,58,3z M61,16H3V8c0-1.654,1.346-3,3-3h52c1.654,0,3,1.346,3,3V16z"></path> <path data-color="color-2" fill="#61616b" d="M56,41h-3v-3c0-3.925-3.075-7-7-7s-7,3.075-7,7v3h-3c-0.553,0-1,0.448-1,1v18 c0,0.552,0.447,1,1,1h20c0.553,0,1-0.448,1-1V42C57,41.448,56.553,41,56,41z M47,51.816V55c0,0.552-0.448,1-1,1s-1-0.448-1-1v-3.184 c-1.163-0.413-2-1.512-2-2.816c0-1.657,1.343-3,3-3s3,1.343,3,3C49,50.304,48.163,51.403,47,51.816z M51,41H41v-3 c0-2.851,2.149-5,5-5s5,2.149,5,5V41z"></path></g></svg>