<svg xmlns="http://www.w3.org/2000/svg" height="48" width="48" viewBox="0 0 48 48"><title>credit card in 4</title><g fill="#61616b" class="nc-icon-wrapper"><path fill="#61616b" d="M7,7v37c0,1.657,1.343,3,3,3h6V7H7z"></path> <path data-color="color-2" fill="#61616b" d="M40,1H8C4.14,1,1,4.141,1,8c0,2.784,1.639,5.184,4,6.309v-2.333C3.792,11.062,3,9.628,3,8 c0-2.757,2.243-5,5-5h32c2.757,0,5,2.243,5,5c0,1.628-0.792,3.062-2,3.976v2.333c2.361-1.124,4-3.524,4-6.309C47,4.141,43.86,1,40,1 z"></path> <path fill="#61616b" d="M41,7H24v40h14c1.657,0,3-1.343,3-3V7z M33,38c0,0.553-0.448,1-1,1s-1-0.447-1-1V28c0-0.553,0.448-1,1-1 s1,0.447,1,1V38z"></path></g></svg>