<svg xmlns="http://www.w3.org/2000/svg" height="48" width="48" viewBox="0 0 48 48"><title>crypto wallet 3</title><g fill="#61616b" class="nc-icon-wrapper"><path d="M13.932,9.837l-.715,2.868c.811.2,3.311,1.027,3.716-.6C17.354,10.417,14.743,10.039,13.932,9.837Z" fill="#61616b" data-color="color-2"></path><path d="M14,1A13,13,0,1,0,27,14,13.015,13.015,0,0,0,14,1Zm5.77,11.135a2.29,2.29,0,0,1-1.834,2.109,2.52,2.52,0,0,1,1.32,3.484c-.775,2.215-2.617,2.4-5.067,1.939L13.6,22.049l-1.436-.358.586-2.35c-.372-.093-.753-.191-1.145-.3l-.588,2.361-1.435-.358.594-2.387-2.893-.73.713-1.645s1.058.282,1.044.261a.522.522,0,0,0,.658-.341L11.305,9.74a.763.763,0,0,0-.669-.835c.023-.015-1.043-.26-1.043-.26l.382-1.534,2.9.718L13.46,5.47l1.436.358-.577,2.313c.386.087.773.176,1.151.27l.573-2.3,1.436.358-.588,2.359C18.7,9.456,20.031,10.393,19.77,12.135Z" fill="#61616b" data-color="color-2"></path><path d="M12.856,14.153l-.789,3.162c.974.242,3.977,1.206,4.421-.578C16.952,14.877,13.83,14.4,12.856,14.153Z" fill="#61616b" data-color="color-2"></path><path d="M47,26H38a4,4,0,0,0,0,8h9a1,1,0,0,0,1-1V27A1,1,0,0,0,47,26Zm-9,5.5A1.5,1.5,0,1,1,39.5,30,1.5,1.5,0,0,1,38,31.5Z" fill="#61616b"></path><path d="M14,29A14.963,14.963,0,0,1,2,22.973V39a8,8,0,0,0,8,8H44a1,1,0,0,0,1-1V36H38a6.007,6.007,0,0,1-5.949-6.789A6.139,6.139,0,0,1,38.208,24H45V17H28.7A15,15,0,0,1,14,29Z" fill="#61616b"></path><path d="M44,13H28.95c.021.332.05.662.05,1s-.029.668-.05,1H45V14A1,1,0,0,0,44,13Z" fill="#61616b"></path></g></svg>