<svg xmlns="http://www.w3.org/2000/svg" height="64" width="64" viewBox="0 0 64 64"><title>crypto wallet 2</title><g fill="#61616b" class="nc-icon-wrapper"><path d="M16.915,11.863l-.894,3.585c1.014.253,4.138,1.283,4.645-.745C21.193,12.587,17.929,12.116,16.915,11.863Z" fill="#61616b" data-color="color-2"></path><path d="M15.57,17.258l-.986,3.952c1.217.3,4.971,1.508,5.526-.722C20.69,18.163,16.787,17.561,15.57,17.258Z" fill="#61616b" data-color="color-2"></path><path d="M16.934,1.066A15.934,15.934,0,1,0,32.866,17,15.951,15.951,0,0,0,16.934,1.066Zm7.279,13.669a2.865,2.865,0,0,1-2.293,2.637c1.611.838,2.431,2.125,1.65,4.354-.969,2.77-3.271,3-6.333,2.424l-.743,2.978-1.8-.448.733-2.938q-.7-.173-1.431-.371l-.735,2.952-1.794-.448.743-2.983L8.6,21.979l.892-2.055s1.323.351,1.3.325a.654.654,0,0,0,.823-.426l2.015-8.081A.955.955,0,0,0,12.8,10.7c.028-.019-1.3-.325-1.3-.325l.478-1.917,3.62.9L16.325,6.4l1.8.447L17.4,9.742c.482.11.966.221,1.438.339l.716-2.872,1.8.447-.735,2.95C22.881,11.387,24.539,12.558,24.213,14.735Z" fill="#61616b" data-color="color-2"></path><path d="M44,40a6,6,0,0,0,6,6H63a1,1,0,0,0,1-1V35a1,1,0,0,0-1-1H50A6,6,0,0,0,44,40Zm8,0a2,2,0,1,1-2-2A2,2,0,0,1,52,40Z" fill="#61616b"></path><path d="M50.283,32H60V22H34.143A17.913,17.913,0,0,1,2,26.91V53A10,10,0,0,0,12,63H59a1,1,0,0,0,1-1V48H50a8.009,8.009,0,0,1-7.982-8.548A8.19,8.19,0,0,1,50.283,32Z" fill="#61616b"></path><path d="M60,20V18a1,1,0,0,0-1-1H34.866a17.983,17.983,0,0,1-.271,3Z" fill="#61616b"></path></g></svg>