<svg xmlns="http://www.w3.org/2000/svg" height="24" width="24" viewBox="0 0 24 24"><title>crypto wallet 4</title><g fill="#61616b" class="nc-icon-wrapper"><path d="M7,0a7,7,0,1,0,7,7A7.008,7.008,0,0,0,7,0ZM9.707,5.707l-4,4A1,1,0,0,1,4.293,8.293l4-4A1,1,0,1,1,9.707,5.707Z" fill="#61616b" data-color="color-2"></path><path d="M23,6H15.941A8.935,8.935,0,0,1,16,7,8.993,8.993,0,0,1,0,12.644V20a4,4,0,0,0,4,4H23a1,1,0,0,0,1-1V7A1,1,0,0,0,23,6ZM18,17a2,2,0,1,1,2-2A2,2,0,0,1,18,17Z" fill="#61616b"></path></g></svg>