<svg xmlns="http://www.w3.org/2000/svg" height="32" width="32" viewBox="0 0 32 32"><title>crypto wallet 5</title><g fill="#61616b" class="nc-icon-wrapper"><path d="M30,8H19.949c.03.33.051.662.051,1A10.984,10.984,0,0,1,1,16.526V27a5,5,0,0,0,5,5H30a1,1,0,0,0,1-1V9A1,1,0,0,0,30,8ZM25,22a2,2,0,1,1,2-2A2,2,0,0,1,25,22Z" fill="#61616b"></path><path d="M9,0a9,9,0,1,0,9,9A9,9,0,0,0,9,0Zm3.707,6.707-6,6a1,1,0,0,1-1.414-1.414l6-6a1,1,0,1,1,1.414,1.414Z" fill="#61616b" data-color="color-2"></path></g></svg>