<svg xmlns="http://www.w3.org/2000/svg" height="48" width="48" viewBox="0 0 48 48"><title>currency dollar 4</title><g fill="#61616b" class="nc-icon-wrapper"><path d="M26,20.855V8.543a27.156,27.156,0,0,1,7.126,1.3l2.337.876,1.756-4.682-2.341-.878A31.727,31.727,0,0,0,26,3.538V.056H22V3.64C15.155,4.379,11,8.2,11,14c0,6.593,5.718,9.071,11,10.818V37.425a33.066,33.066,0,0,1-8.651-1.778L11,34.8,9.3,39.5l2.351.849A38.233,38.233,0,0,0,22,42.42v5.636h4V42.445C36.788,41.792,38,34.993,38,32,38,24.987,31.532,22.628,26,20.855ZM16,14c0-3.66,3.114-4.936,6-5.335V19.522C17.938,18.04,16,16.674,16,14ZM26,37.441V26.124c4.746,1.628,7,2.99,7,5.875C33,33.391,33,36.942,26,37.441Z" fill="#61616b"></path></g></svg>