<svg xmlns="http://www.w3.org/2000/svg" height="32" width="32" viewBox="0 0 32 32"><title>currency euro 5</title><g fill="#61616b" class="nc-icon-wrapper"><path d="M19.108,5a8.592,8.592,0,0,1,5.441,1.694l1.967,1.542L29.6,4.3,27.633,2.759A13.462,13.462,0,0,0,19.108,0C11.415,0,7.083,4.991,5.584,11H1v3H5.075c-.062.665-.105,1.332-.105,2s.043,1.335.105,2H1v3H5.584c1.5,6.009,5.831,11,13.524,11a13.462,13.462,0,0,0,8.525-2.759L29.6,27.7l-3.085-3.935-1.967,1.542A8.592,8.592,0,0,1,19.108,27a8.172,8.172,0,0,1-8.349-6H20V18H10.091a16.589,16.589,0,0,1,0-4H20V11H10.759A8.172,8.172,0,0,1,19.108,5Z" fill="#61616b"></path></g></svg>