<svg xmlns="http://www.w3.org/2000/svg" height="48" width="48" viewBox="0 0 48 48"><title>currency exchange 5</title><g fill="#61616b" class="nc-icon-wrapper"><path fill="#61616b" d="M19,10c0-4.962-4.038-9-9-9s-9,4.038-9,9s4.038,9,9,9S19,14.962,19,10z M3,10c0-3.86,3.14-7,7-7s7,3.14,7,7 s-3.14,7-7,7S3,13.86,3,10z"></path> <path fill="#61616b" d="M38,29c-4.962,0-9,4.038-9,9s4.038,9,9,9s9-4.038,9-9S42.962,29,38,29z M38,45c-3.86,0-7-3.14-7-7 s3.14-7,7-7s7,3.14,7,7S41.86,45,38,45z"></path> <path data-color="color-2" fill="#61616b" d="M25.293,10.707l6,6C31.488,16.902,31.744,17,32,17s0.512-0.098,0.707-0.293 c0.391-0.391,0.391-1.023,0-1.414L28.414,11H34c3.86,0,7,3.14,7,7v4c0,0.552,0.448,1,1,1s1-0.448,1-1v-4c0-4.962-4.038-9-9-9h-5.586 l4.293-4.293c0.391-0.391,0.391-1.023,0-1.414s-1.023-0.391-1.414,0l-6,6c-0.092,0.092-0.165,0.203-0.216,0.325 c-0.101,0.245-0.101,0.52,0,0.764C25.128,10.505,25.201,10.615,25.293,10.707z"></path> <path data-color="color-2" fill="#61616b" d="M22.923,37.618c-0.051-0.122-0.124-0.233-0.216-0.325l-6-6c-0.391-0.391-1.023-0.391-1.414,0 s-0.391,1.023,0,1.414L19.586,37H14c-3.86,0-7-3.14-7-7v-4c0-0.552-0.448-1-1-1s-1,0.448-1,1v4c0,4.962,4.038,9,9,9h5.586 l-4.293,4.293c-0.391,0.391-0.391,1.023,0,1.414C15.488,44.902,15.744,45,16,45s0.512-0.098,0.707-0.293l6-6 c0.092-0.092,0.165-0.203,0.216-0.325C23.024,38.138,23.024,37.862,22.923,37.618z"></path> <circle fill="#61616b" cx="10" cy="10" r="5"></circle> <circle fill="#61616b" cx="38" cy="38" r="5"></circle></g></svg>