<svg xmlns="http://www.w3.org/2000/svg" height="48" width="48" viewBox="0 0 48 48"><title>currency pound 4</title><g fill="#61616b" class="nc-icon-wrapper"><path fill="#61616b" d="M19.3,36.816c0.585-1.224,0.878-2.737,0.878-4.537V27H31v-4H20.178v-8.088c0-2.521,0.562-4.339,1.688-5.456 c1.125-1.116,2.795-1.674,5.01-1.674c2.574,0,5.248,0.694,8.022,2.08l1.648-3.592C33.484,4.756,30.243,4,26.822,4 c-3.421,0-6.141,0.923-8.157,2.768c-2.017,1.846-3.025,4.371-3.025,7.576V23H10v4h5.641v5.332c0,4.394-1.95,6.822-5.641,7.668v4h28 v-4H16.424C17.756,39.208,18.715,38.04,19.3,36.816z"></path></g></svg>