<svg xmlns="http://www.w3.org/2000/svg" height="64" width="64" viewBox="0 0 64 64"><title>currency exchange 4</title><g fill="#61616b" class="nc-icon-wrapper"><circle fill="#61616b" cx="14" cy="14" r="6"></circle> <path fill="#61616b" d="M14,1C6.832,1,1,6.832,1,14s5.832,13,13,13s13-5.832,13-13S21.168,1,14,1z M14,22c-4.411,0-8-3.589-8-8 s3.589-8,8-8s8,3.589,8,8S18.411,22,14,22z"></path> <circle fill="#61616b" cx="50" cy="50" r="6"></circle> <path fill="#61616b" d="M50,37c-7.168,0-13,5.832-13,13s5.832,13,13,13s13-5.832,13-13S57.168,37,50,37z M50,58 c-4.411,0-8-3.589-8-8s3.589-8,8-8s8,3.589,8,8S54.411,58,50,58z"></path> <path data-color="color-2" fill="#61616b" d="M48,15h-9.586l6.293-6.293c0.391-0.391,0.391-1.023,0-1.414s-1.023-0.391-1.414,0l-8,8 c-0.391,0.391-0.391,1.023,0,1.414l8,8C43.488,24.902,43.744,25,44,25s0.512-0.098,0.707-0.293c0.391-0.391,0.391-1.023,0-1.414 L38.414,17H48c3.86,0,7,3.14,7,7v6c0,0.552,0.448,1,1,1s1-0.448,1-1v-6C57,19.038,52.962,15,48,15z"></path> <path data-color="color-2" fill="#61616b" d="M20.707,39.293c-0.391-0.391-1.023-0.391-1.414,0s-0.391,1.023,0,1.414L25.586,47H16 c-3.86,0-7-3.14-7-7v-6c0-0.552-0.448-1-1-1s-1,0.448-1,1v6c0,4.962,4.038,9,9,9h9.586l-6.293,6.293 c-0.391,0.391-0.391,1.023,0,1.414C19.488,56.902,19.744,57,20,57s0.512-0.098,0.707-0.293l8-8c0.391-0.391,0.391-1.023,0-1.414 L20.707,39.293z"></path></g></svg>