<svg xmlns="http://www.w3.org/2000/svg" height="64" width="64" viewBox="0 0 64 64"><title>currency pound 3</title><g fill="#61616b" class="nc-icon-wrapper"><path fill="#61616b" d="M35.952,4c4.789,0,9.326,1.059,13.612,3.176l-2.306,5.029c-3.882-1.941-7.626-2.912-11.231-2.912 c-3.101,0-5.439,0.781-7.014,2.344c-1.576,1.563-2.364,4.109-2.364,7.638V31H42v5H26.65v7.589c0,2.521-0.409,4.638-1.229,6.352 c-0.82,1.715-2.161,3.126-4.026,4.235H51V60H12.545v-5.332c5.168-1.185,7.752-4.853,7.752-11.003V36H13v-5h7.297V18.482 c0-4.487,1.412-8.022,4.235-10.607C27.356,5.292,31.162,4,35.952,4z"></path></g></svg>