<svg xmlns="http://www.w3.org/2000/svg" height="64" width="64" viewBox="0 0 64 64"><title>currency euro 3</title><g fill="#61616b" class="nc-icon-wrapper"><path d="M48.622,52.161A18.836,18.836,0,0,1,36.5,56c-4.052,0-16.015-1.3-19.2-16H36V36H16.68c-.117-1.254-.18-2.585-.18-4s.063-2.746.18-4H36V24H17.3C20.485,9.3,32.448,8,36.5,8a18.773,18.773,0,0,1,12.117,3.861l2.335,1.883,3.767-4.671L52.383,7.189A24.607,24.607,0,0,0,36.5,2C20.95,2,13.531,12.611,11.275,24H2v4h8.691c-.128,1.344-.191,2.682-.191,4s.063,2.656.191,4H2v4h9.275C13.531,51.389,20.95,62,36.5,62c6.271,0,11.613-1.736,15.878-5.161l2.34-1.878-3.757-4.679Z" fill="#61616b"></path></g></svg>