<svg xmlns="http://www.w3.org/2000/svg" height="32" width="32" viewBox="0 0 32 32"><title>currency exchange 2 4</title><g fill="#61616b" class="nc-icon-wrapper"><path d="M17,30a1,1,0,0,0-1-1A12.982,12.982,0,0,1,6.473,7.18L9.146,9.854a.5.5,0,0,0,.839-.233l2-8a.5.5,0,0,0-.364-.606A.522.522,0,0,0,11.445,1l-9,1a.5.5,0,0,0-.3.851L5.059,5.766A14.98,14.98,0,0,0,16,31,1,1,0,0,0,17,30Z" fill="#61616b"></path><path d="M15,2a1,1,0,0,0,1,1,12.982,12.982,0,0,1,9.527,21.82l-2.673-2.674a.5.5,0,0,0-.839.233l-2,8a.5.5,0,0,0,.364.606.522.522,0,0,0,.176.012l9-1a.5.5,0,0,0,.3-.851l-2.913-2.912A14.98,14.98,0,0,0,16,1,1,1,0,0,0,15,2Z" fill="#61616b"></path><path data-color="color-2" d="M20.818,16.8c-.972-1.079-2.936-1.762-4.052-2.187V10.256a12.782,12.782,0,0,1,3.73.885l.872-2.188a13.168,13.168,0,0,0-4.6-.98V6h-1.59V8.008A6.367,6.367,0,0,0,11.691,9.3a3.372,3.372,0,0,0-1.286,2.714,3.821,3.821,0,0,0,.9,2.588,9.194,9.194,0,0,0,3.867,2.17v4.471a12.857,12.857,0,0,1-4.865-1.2v2.523a12.343,12.343,0,0,0,4.865.908V26h1.59V23.406a6.453,6.453,0,0,0,3.658-1.387,3.651,3.651,0,0,0,1.267-2.858A3.4,3.4,0,0,0,20.818,16.8ZM13.64,13.13A1.6,1.6,0,0,1,13.215,12a1.407,1.407,0,0,1,.5-1.1,2.786,2.786,0,0,1,1.458-.586v3.717a4.329,4.329,0,0,1-1.533-.9Zm3.126,8.021V17.333a4.985,4.985,0,0,1,1.62.867,1.484,1.484,0,0,1,.484,1.141q0,1.483-2.1,1.8Z" fill="#61616b"></path></g></svg>