<svg xmlns="http://www.w3.org/2000/svg" height="48" width="48" viewBox="0 0 48 48"><title>currency euro 4</title><g fill="#61616b" class="nc-icon-wrapper"><path d="M28.1,5.5a14.718,14.718,0,0,1,9.321,2.932l1.968,1.541,3.083-3.937L40.507,4.494A19.593,19.593,0,0,0,28.1.5C20.011.5,10.767,4.967,8.2,17H2v4H7.619c-.077.961-.119,1.959-.119,3s.042,2.039.119,3H2v4H8.2C10.767,43.033,20.011,47.5,28.1,47.5a19.593,19.593,0,0,0,12.4-3.994l1.969-1.542-3.083-3.937-1.968,1.541A14.718,14.718,0,0,1,28.1,42.5c-8.477,0-12.923-5.192-14.682-11.5H28V27H12.666a27.191,27.191,0,0,1,0-6H28V17H13.422C15.181,10.692,19.627,5.5,28.1,5.5Z" fill="#61616b"></path></g></svg>