<svg xmlns="http://www.w3.org/2000/svg" height="24" width="24" viewBox="0 0 24 24"><title>currency euro</title><g fill="#61616b" class="nc-icon-wrapper"><path d="M14,3a6.839,6.839,0,0,1,4.955,1.831l1.076,1.045,2.09-2.152L21.045,2.679A9.733,9.733,0,0,0,14,0C8.09,0,5.094,3.76,4,8H0v2H3.623a16.322,16.322,0,0,0,0,4H0v2H4c1.093,4.24,4.089,8,10,8a9.733,9.733,0,0,0,7.045-2.679l1.076-1.045-2.09-2.152-1.076,1.045A6.839,6.839,0,0,1,14,21a6.755,6.755,0,0,1-6.848-5H14V14H6.663A13.319,13.319,0,0,1,6.5,12a13.319,13.319,0,0,1,.163-2H14V8H7.152A6.755,6.755,0,0,1,14,3Z" fill="#61616b"></path></g></svg>