<svg xmlns="http://www.w3.org/2000/svg" height="24" width="24" viewBox="0 0 24 24"><title>currency exchange 2</title><g fill="#61616b" class="nc-icon-wrapper"><path d="M21.055,19.848A11.981,11.981,0,0,0,12,0a1,1,0,0,0,0,2,9.986,9.986,0,0,1,7.64,16.433l-1.786-1.787a.5.5,0,0,0-.847.272l-1,6a.5.5,0,0,0,.493.582.454.454,0,0,0,.082-.007l6-1a.5.5,0,0,0,.272-.847Z" fill="#61616b"></path><path d="M12,22A9.988,9.988,0,0,1,4.359,5.566L6.146,7.354A.5.5,0,0,0,6.5,7.5a.5.5,0,0,0,.493-.418l1-6A.5.5,0,0,0,7.418.507l-6,1a.5.5,0,0,0-.272.847L2.935,4.142A12,12,0,0,0,12,24a1,1,0,0,0,0-2Z" fill="#61616b"></path><path data-color="color-2" d="M15.983,14.214a2.554,2.554,0,0,1-.887,2,4.508,4.508,0,0,1-2.561.971V19H11.423V17.234A8.637,8.637,0,0,1,8.017,16.6V14.833a8.566,8.566,0,0,0,1.682.59,7.606,7.606,0,0,0,1.724.247V12.54l-.7-.26a4.948,4.948,0,0,1-2.005-1.259A2.674,2.674,0,0,1,8.084,9.21a2.358,2.358,0,0,1,.9-1.9,4.458,4.458,0,0,1,2.44-.9V5h1.112V6.381a9.241,9.241,0,0,1,3.222.686L15.146,8.6a9.005,9.005,0,0,0-2.611-.619v3.046l.636.243a5.794,5.794,0,0,1,2.2,1.289A2.385,2.385,0,0,1,15.983,14.214ZM10.05,9.193a1.121,1.121,0,0,0,.3.794,3.016,3.016,0,0,0,1.076.628v-2.6a1.952,1.952,0,0,0-1.022.41A.989.989,0,0,0,10.05,9.193Zm3.958,5.146a1.043,1.043,0,0,0-.339-.8,3.473,3.473,0,0,0-1.134-.607V15.6Q14.008,15.377,14.008,14.339Z" fill="#61616b"></path></g></svg>