<svg xmlns="http://www.w3.org/2000/svg" height="32" width="32" viewBox="0 0 32 32"><title>currency pound 5</title><g fill="#61616b" class="nc-icon-wrapper"><path fill="#61616b" d="M17.872,2c2.445,0,4.808,0.517,7.09,1.55l-1.437,3.441c-2.042-0.895-3.832-1.342-5.369-1.342 c-2.584,0-3.876,1.38-3.876,4.14v4.613h7.506v3.252H14.28v3.441c0,1.147-0.208,2.124-0.624,2.93 c-0.416,0.807-1.128,1.407-2.136,1.974H26v4H6v-3.687c1.235-0.378,2.337-0.983,2.929-1.815s0.889-1.953,0.889-3.365v-3.479H6.263 v-3.252h3.554v-4.84c0-2.369,0.714-4.222,2.145-5.558C13.394,2.668,15.363,2,17.872,2z"></path></g></svg>