<svg xmlns="http://www.w3.org/2000/svg" height="32" width="32" viewBox="0 0 32 32"><title>currency dollar 5</title><g fill="#61616b" class="nc-icon-wrapper"><path d="M17.5,13.863V6.889a15.487,15.487,0,0,1,3.907.743l1.85.739,1.485-3.714-1.858-.743A18.87,18.87,0,0,0,17.5,2.874V0h-3V2.912c-4.118.439-8.059,2.7-8.059,7.111,0,4.687,4.276,6.143,8.059,7.172v7.311a15.7,15.7,0,0,1-5.165-1.152l-1.789-.895L5.758,26.037l1.788.895A19.4,19.4,0,0,0,14.5,28.511V32h3V28.485c4.941-.45,8.059-3.141,8.059-7.123C25.559,16.518,21.209,14.9,17.5,13.863Zm-7.059-3.84c0-1.974,2.275-2.787,4.059-3.068V13.03C11.765,12.214,10.441,11.484,10.441,10.023ZM17.5,24.466V18.039c2.732.847,4.059,1.663,4.059,3.323C21.559,23.554,19.239,24.251,17.5,24.466Z" fill="#61616b"></path></g></svg>