<svg xmlns="http://www.w3.org/2000/svg" height="16" width="16" viewBox="0 0 16 16"><title>currency euro 2</title><g fill="#61616b" class="nc-icon-wrapper"><path d="M11.334,12.523A4.117,4.117,0,0,1,8.5,13.5,3.967,3.967,0,0,1,4.605,11H10V9H4.068A8.511,8.511,0,0,1,4,8a8.511,8.511,0,0,1,.068-1H10V5H4.605A3.967,3.967,0,0,1,8.5,2.5a4.117,4.117,0,0,1,2.834.977l.747.666,1.331-1.494-.746-.665A6.055,6.055,0,0,0,8.5.5,5.994,5.994,0,0,0,2.456,5H0V7H2.053C2.021,7.336,2,7.671,2,8s.021.664.053,1H0v2H2.456A5.994,5.994,0,0,0,8.5,15.5a6.055,6.055,0,0,0,4.166-1.484l.746-.665-1.331-1.494Z" fill="#61616b"></path></g></svg>