<svg xmlns="http://www.w3.org/2000/svg" height="64" width="64" viewBox="0 0 64 64"><title>debt 2</title><g fill="#61616b" class="nc-icon-wrapper"><path d="M15,1A11,11,0,1,0,26,12,11.013,11.013,0,0,0,15,1Zm4.707,11.707-4,4a1,1,0,0,1-1.414,0l-4-4a1,1,0,0,1,0-1.414l4-4a1,1,0,0,1,1.414,0l4,4A1,1,0,0,1,19.707,12.707Z" fill="#61616b" data-color="color-2"></path><circle cx="48" cy="12" r="6" fill="#61616b"></circle><path d="M28.888,44.949a8.044,8.044,0,0,1-2.037-1.665v5.983l-8.817,7.348.006.008a2.988,2.988,0,1,0,3.622,4.754l.007.009,10.8-7.6A3.5,3.5,0,0,0,33.851,51V47.526C28.961,44.989,28.925,44.97,28.888,44.949Z" fill="#61616b"></path><path d="M44.463,42.894l-5.784-3L46.06,26.977a6,6,0,0,0-6.929-8.72L13.616,26.11a2.5,2.5,0,1,0,1.471,4.78l18.1-5.575-5.548,9.708a6,6,0,0,0,2.233,8.186c.028.016,9.476,4.918,9.476,4.918L39.851,59a3,3,0,0,0,6,0l.5-13A3.5,3.5,0,0,0,44.463,42.894Z" fill="#61616b"></path></g></svg>