<svg xmlns="http://www.w3.org/2000/svg" height="48" width="48" viewBox="0 0 48 48"><title>debt 3</title><g fill="#61616b" class="nc-icon-wrapper"><circle cx="36" cy="7" r="5" fill="#61616b"></circle><path d="M20.961,32.925h0A6.407,6.407,0,0,1,20,32.158V36.25L13,41.5a2.5,2.5,0,1,0,3,4l8-6a2.5,2.5,0,0,0,1-2V35.6C22.055,33.653,21.219,33.1,20.961,32.925Z" fill="#61616b"></path><path d="M32.655,12.55a4.469,4.469,0,0,0-3.341-.384L9.43,18.083a2,2,0,1,0,1.14,3.834l14.145-4.209L20.55,25.345a4.484,4.484,0,0,0,1.5,5.905c.04.03,6.948,4.6,6.948,4.6V43.5a2.5,2.5,0,0,0,5,0v-9a2.5,2.5,0,0,0-1.124-2.088l-4.362-2.874L34.45,18.655A4.5,4.5,0,0,0,32.655,12.55Z" fill="#61616b"></path><path d="M10,0a8,8,0,1,0,8,8A8.009,8.009,0,0,0,10,0Zm3.707,8.707-3,3a1,1,0,0,1-1.414,0l-3-3a1,1,0,0,1,0-1.414l3-3a1,1,0,0,1,1.414,0l3,3A1,1,0,0,1,13.707,8.707Z" fill="#61616b" data-color="color-2"></path></g></svg>