<svg xmlns="http://www.w3.org/2000/svg" height="24" width="24" viewBox="0 0 24 24"><title>debt</title><g fill="#61616b" class="nc-icon-wrapper"><path d="M18,6a3,3,0,1,1,3-3A3,3,0,0,1,18,6Z" fill="#61616b"></path><path d="M9,16.955V18.5L4.6,21.8l1.2,1.6,4.8-3.6A1,1,0,0,0,11,19v-.868C9.865,17.467,9.3,17.131,9,16.955Z" fill="#61616b"></path><path d="M16.176,6.383a1.986,1.986,0,0,0-1.756-.29L3.752,9.335l.582,1.913,7.489-2.281L9.382,12.323a2,2,0,0,0,.442,2.794C9.881,15.159,14,17.573,14,17.573V23h2V17a1,1,0,0,0-.494-.862l-2.77-1.625,3.882-5.336A2,2,0,0,0,16.176,6.383Z" fill="#61616b"></path><path d="M4.5,0A3.5,3.5,0,1,0,8,3.5,3.5,3.5,0,0,0,4.5,0Z" fill="#61616b" data-color="color-2"></path></g></svg>