<svg xmlns="http://www.w3.org/2000/svg" height="32" width="32" viewBox="0 0 32 32"><title>debt 4</title><g fill="#61616b" class="nc-icon-wrapper"><circle cx="23.5" cy="5.5" r="3.5" fill="#61616b"></circle><path d="M8,10a5,5,0,1,1,5-5A5.006,5.006,0,0,1,8,10Z" fill="#61616b" data-color="color-2"></path><path d="M13.546,23.355A5.014,5.014,0,0,1,13,22.967v1.812L7.7,29.656l1.562,1.952,6.171-4.937A1.5,1.5,0,0,0,16,25.5v-.879C13.587,23.378,13.575,23.372,13.546,23.355Z" fill="#61616b"></path><path d="M21.488,9.4a2.986,2.986,0,0,0-2.223-.3L5.158,12.948l.672,2.46,10.182-2.476L13.4,17.512A3,3,0,0,0,14.512,21.6c.014.009,4.488,2.311,4.488,2.311L19.5,31H22V23a1.5,1.5,0,0,0-.814-1.334l-2.506-1.31L22.6,13.488A3,3,0,0,0,21.488,9.4Z" fill="#61616b"></path></g></svg>