<svg xmlns="http://www.w3.org/2000/svg" height="16" width="16" viewBox="0 0 16 16"><title>decentralize</title><g fill="#61616b" class="nc-icon-wrapper"><path d="M12,6a1,1,0,0,0,1-1A5,5,0,0,0,3,5,1,1,0,0,0,5,5a3,3,0,0,1,6,0A1,1,0,0,0,12,6Z" fill="#61616b"></path><circle cx="8" cy="5" r="1" fill="#61616b"></circle><path d="M9,12.277V9A1,1,0,0,0,7,9v3.277a2,2,0,1,0,2,0Z" fill="#61616b" data-color="color-2"></path><path d="M15,12.277V10a1,1,0,0,0-.445-.832l-2-1.333A1,1,0,0,0,11.445,9.5L13,10.535v1.742a2,2,0,1,0,2,0Z" fill="#61616b" data-color="color-2"></path><path d="M3.445,7.835l-2,1.333A1,1,0,0,0,1,10v2.277a2,2,0,1,0,2,0V10.535L4.555,9.5a1,1,0,1,0-1.11-1.664Z" fill="#61616b" data-color="color-2"></path></g></svg>