<svg xmlns="http://www.w3.org/2000/svg" height="64" width="64" viewBox="0 0 64 64"><title>decentralize 2</title><g fill="#61616b" class="nc-icon-wrapper"><path d="M19.4,38.8a1,1,0,0,0,1.2-1.6,19,19,0,1,1,22.8,0,1,1,0,0,0,1.2,1.6,21,21,0,1,0-25.2,0Z" fill="#61616b"></path><circle cx="32" cy="22" r="10" fill="#61616b"></circle><path d="M48,49.1V46a1,1,0,0,0-.586-.91L36.932,40.325a4.975,4.975,0,0,0-9.864,0L16.586,45.09A1,1,0,0,0,16,46v3.1a5,5,0,1,0,2,0V46.644l9.238-4.2A5,5,0,0,0,31,45.9v7.2a5,5,0,1,0,2,0V45.9a5,5,0,0,0,3.762-3.454L46,46.644V49.1a5,5,0,1,0,2,0Z" fill="#61616b" data-color="color-2"></path></g></svg>