<svg xmlns="http://www.w3.org/2000/svg" height="32" width="32" viewBox="0 0 32 32"><title>decentralize 4</title><g fill="#61616b" class="nc-icon-wrapper"><path d="M17,24.142V19a1,1,0,0,0-2,0v5.142a4,4,0,1,0,2,0Z" fill="#61616b" data-color="color-2"></path><path d="M28,22.142V19a1,1,0,0,0-.4-.8l-4-3a1,1,0,0,0-1.2,1.6L26,19.5v2.642a4,4,0,1,0,2,0Z" fill="#61616b" data-color="color-2"></path><path d="M23.8,11.778a1,1,0,0,0,.754,1.2,1.055,1.055,0,0,0,.222.024,1,1,0,0,0,.974-.778,10,10,0,1,0-19.5,0,1,1,0,1,0,1.95-.444A8,8,0,1,1,24,10,8.082,8.082,0,0,1,23.8,11.778Z" fill="#61616b"></path><circle cx="16" cy="10" r="5" fill="#61616b"></circle><path d="M8.4,15.2l-4,3A1,1,0,0,0,4,19v3.142a4,4,0,1,0,2,0V19.5l3.6-2.7a1,1,0,0,0-1.2-1.6Z" fill="#61616b" data-color="color-2"></path></g></svg>