<svg xmlns="http://www.w3.org/2000/svg" height="24" width="24" viewBox="0 0 24 24"><title>decentralize 5</title><g fill="#61616b" class="nc-icon-wrapper"><path d="M5.576,10.958a1,1,0,0,0,.673-1.244,6,6,0,1,1,11.5,0,1,1,0,0,0,.673,1.244A1.021,1.021,0,0,0,18.71,11a1,1,0,0,0,.958-.714,8,8,0,1,0-15.336,0A1,1,0,0,0,5.576,10.958Z" fill="#61616b"></path><circle cx="12" cy="8" r="4" fill="#61616b"></circle><path d="M13,18.184V15a1,1,0,0,0-2,0v3.184a3,3,0,1,0,2,0Z" fill="#61616b" data-color="color-2"></path><path d="M21,18.184V16a1,1,0,0,0-.445-.832l-3-2a1,1,0,0,0-1.11,1.664L19,16.535v1.649a3,3,0,1,0,2,0Z" fill="#61616b" data-color="color-2"></path><path d="M6.445,13.168l-3,2A1,1,0,0,0,3,16v2.184a3,3,0,1,0,2,0V16.535l2.555-1.7a1,1,0,1,0-1.11-1.664Z" fill="#61616b" data-color="color-2"></path></g></svg>