<svg xmlns="http://www.w3.org/2000/svg" height="48" width="48" viewBox="0 0 48 48"><title>decentralize 3</title><g fill="#61616b" class="nc-icon-wrapper"><path d="M24,1A15,15,0,0,0,13.5,26.714a1,1,0,1,0,1.4-1.428,13,13,0,1,1,18.2,0,1,1,0,1,0,1.4,1.428A15,15,0,0,0,24,1Z" fill="#61616b"></path><circle cx="24" cy="16" r="7" fill="#61616b"></circle><path d="M36,36.142V33a1,1,0,0,0-.553-.9l-7.513-3.756a3.985,3.985,0,0,0-7.868,0L12.553,32.1A1,1,0,0,0,12,33v3.142a4,4,0,1,0,2,0V33.618l6.289-3.144A4,4,0,0,0,23,32.858v6.284a4,4,0,1,0,2,0V32.858a4,4,0,0,0,2.711-2.384L34,33.618v2.524a4,4,0,1,0,2,0Z" fill="#61616b" data-color="color-2"></path></g></svg>