<svg xmlns="http://www.w3.org/2000/svg" height="48" width="48" viewBox="0 0 48 48"><title>decision process 2</title><g fill="#61616b" class="nc-icon-wrapper"><path d="M14,16a1,1,0,0,1-.515-.143l-10-6a1,1,0,0,1,0-1.714l10-6a1,1,0,0,1,1.03,0l10,6a1,1,0,0,1,0,1.714l-10,6A1,1,0,0,1,14,16Z" fill="#61616b"></path><path d="M45,30H29a1,1,0,0,1-1-1V19a1,1,0,0,1,1-1H45a1,1,0,0,1,1,1V29A1,1,0,0,1,45,30Z" fill="#61616b" data-color="color-2"></path><path d="M18,46H10a6,6,0,0,1,0-12h8a6,6,0,0,1,0,12Z" fill="#61616b"></path><path d="M36,32v7H26v2H37a1,1,0,0,0,1-1V32Z" fill="#61616b"></path><rect x="13" y="18" width="2" height="14" fill="#61616b"></rect><path d="M37,8H27v2h9v6h2V9A1,1,0,0,0,37,8Z" fill="#61616b"></path></g></svg>