<svg xmlns="http://www.w3.org/2000/svg" height="48" width="48" viewBox="0 0 48 48"><title>dice 5</title><g fill="#61616b" class="nc-icon-wrapper"><path d="M23,21.647l-20-9V36a1,1,0,0,0,.59.912L23,45.647ZM8.5,24.5a2.292,2.292,0,0,1-2-2.5,2.292,2.292,0,0,1,2-2.5,2.292,2.292,0,0,1,2,2.5A2.292,2.292,0,0,1,8.5,24.5ZM13,32a2.292,2.292,0,0,1-2-2.5A2.292,2.292,0,0,1,13,27a2.292,2.292,0,0,1,2,2.5A2.292,2.292,0,0,1,13,32Zm4.5,7.5a2.292,2.292,0,0,1-2-2.5,2.292,2.292,0,0,1,2-2.5,2.292,2.292,0,0,1,2,2.5A2.292,2.292,0,0,1,17.5,39.5Z" fill="#61616b"></path><path data-color="color-2" d="M24,19.9l20-9L24.41,2.088a1,1,0,0,0-.82,0L4,10.9ZM29.5,9.5c1.381,0,2.5.672,2.5,1.5s-1.119,1.5-2.5,1.5S27,11.828,27,11,28.119,9.5,29.5,9.5Zm-11,0c1.381,0,2.5.672,2.5,1.5s-1.119,1.5-2.5,1.5S16,11.828,16,11,17.119,9.5,18.5,9.5Z" fill="#61616b"></path><path d="M25,21.647v24l19.41-8.735A1,1,0,0,0,45,36V12.647ZM35,32a2.292,2.292,0,0,1-2-2.5A2.292,2.292,0,0,1,35,27a2.292,2.292,0,0,1,2,2.5A2.292,2.292,0,0,1,35,32Z" fill="#61616b"></path></g></svg>