<svg xmlns="http://www.w3.org/2000/svg" height="32" width="32" viewBox="0 0 32 32"><title>dice 6</title><g fill="#61616b" class="nc-icon-wrapper"><path data-color="color-2" d="M16,10.938l14-5L16.336,1.059a.982.982,0,0,0-.672,0L2,5.938ZM19.5,5c1.105,0,2,.448,2,1s-.895,1-2,1-2-.448-2-1S18.4,5,19.5,5Zm-7,0c1.105,0,2,.448,2,1s-.895,1-2,1-2-.448-2-1S11.4,5,12.5,5Z" fill="#61616b"></path><path d="M15,12.7,1,7.7V25a1,1,0,0,0,.664.941L15,30.7ZM5,16.5c-.828,0-1.5-.895-1.5-2s.672-2,1.5-2,1.5.895,1.5,2S5.828,16.5,5,16.5Zm3,5c-.828,0-1.5-.895-1.5-2s.672-2,1.5-2,1.5.895,1.5,2S8.828,21.5,8,21.5Zm3,5c-.828,0-1.5-.895-1.5-2s.672-2,1.5-2,1.5.895,1.5,2S11.828,26.5,11,26.5Z" fill="#61616b"></path><path d="M17,12.7v18l13.336-4.763A1,1,0,0,0,31,25V7.7Zm7,8.8c-.828,0-1.5-.895-1.5-2s.672-2,1.5-2,1.5.895,1.5,2S24.828,21.5,24,21.5Z" fill="#61616b"></path></g></svg>