<svg xmlns="http://www.w3.org/2000/svg" height="24" width="24" viewBox="0 0 24 24"><title>dice</title><g fill="#61616b" class="nc-icon-wrapper"><path d="M11,10.65l-9-4V18a1,1,0,0,0,.594.914L11,22.65Zm-6,3.1A1.147,1.147,0,0,1,4,12.5a1.147,1.147,0,0,1,1-1.25A1.147,1.147,0,0,1,6,12.5,1.147,1.147,0,0,1,5,13.75Zm3,5A1.147,1.147,0,0,1,7,17.5a1.147,1.147,0,0,1,1-1.25A1.147,1.147,0,0,1,9,17.5,1.147,1.147,0,0,1,8,18.75Z" fill="#61616b"></path><path d="M13,10.65v12l8.406-3.736A1,1,0,0,0,22,18V6.65Zm4.5,5.6a1.147,1.147,0,0,1-1-1.25,1.147,1.147,0,0,1,1-1.25,1.147,1.147,0,0,1,1,1.25A1.147,1.147,0,0,1,17.5,16.25Z" fill="#61616b"></path><path data-color="color-2" d="M12,8.9l9-4L12.406,1.086a1,1,0,0,0-.812,0L3,4.906Z" fill="#61616b"></path></g></svg>