<svg xmlns="http://www.w3.org/2000/svg" height="64" width="64" viewBox="0 0 64 64"><title>dice 4</title><g fill="#61616b" class="nc-icon-wrapper"><path d="M31,24.7l-28-10V50a1,1,0,0,0,.664.941L31,60.7ZM11,32c-1.683,0-3-1.757-3-4s1.317-4,3-4,3,1.757,3,4S12.683,32,11,32Zm6,10c-1.683,0-3-1.757-3-4s1.317-4,3-4,3,1.757,3,4S18.683,42,17,42Zm6,10c-1.683,0-3-1.757-3-4s1.317-4,3-4,3,1.757,3,4S24.683,52,23,52Z" fill="#61616b"></path><path d="M33,24.7v36l27.336-9.763A1,1,0,0,0,61,50V14.7ZM47,42c-1.683,0-3-1.757-3-4s1.317-4,3-4,3,1.757,3,4S48.683,42,47,42Z" fill="#61616b"></path><path data-color="color-2" d="M32,22.938l28-10L32.336,3.059a.982.982,0,0,0-.672,0L4,12.939ZM39,10.5c2.317,0,4,1.052,4,2.5s-1.683,2.5-4,2.5-4-1.052-4-2.5S36.683,10.5,39,10.5Zm-14,0c2.317,0,4,1.052,4,2.5s-1.683,2.5-4,2.5-4-1.052-4-2.5S22.683,10.5,25,10.5Z" fill="#61616b"></path></g></svg>