<svg xmlns="http://www.w3.org/2000/svg" height="48" width="48" viewBox="0 0 48 48"><title>factory 4</title><g fill="#61616b" class="nc-icon-wrapper"><path data-color="color-2" fill="#61616b" d="M2,11h26c0.5,0,1-0.4,1-0.9c0,0,0-0.1,0-0.1c0-3.9-3.1-7-7-7c-1.7,0-3.4,0.7-4.7,1.8 C15.6,2.4,12.9,1,10,1c-5,0-9,4-9,9C1,10.6,1.4,11,2,11z"></path> <path fill="#61616b" d="M46.5,15.1c-0.3-0.2-0.7-0.1-1,0.1L33,24.1V16c0-0.4-0.2-0.7-0.5-0.9c-0.3-0.2-0.7-0.2-1,0l-15.1,9.5 l-5.5-9.1C10.7,15.2,10.4,15,10,15H2c-0.6,0-1,0.4-1,1v30c0,0.6,0.4,1,1,1h44c0.6,0,1-0.4,1-1V16C47,15.6,46.8,15.3,46.5,15.1z M27,38c0,0.6-0.4,1-1,1h-4c-0.6,0-1-0.4-1-1v-4c0-0.6,0.4-1,1-1h4c0.6,0,1,0.4,1,1V38z M41,38c0,0.6-0.4,1-1,1h-4c-0.6,0-1-0.4-1-1 v-4c0-0.6,0.4-1,1-1h4c0.6,0,1,0.4,1,1V38z"></path></g></svg>