<svg xmlns="http://www.w3.org/2000/svg" height="64" width="64" viewBox="0 0 64 64"><title>factory 3</title><g fill="#61616b" class="nc-icon-wrapper"><path data-color="color-2" fill="#61616b" d="M3,13h33.899c0.284,0,0.556-0.121,0.745-0.333c0.19-0.213,0.28-0.495,0.249-0.778 C37.325,6.821,33.071,3,28,3c-2.338,0-4.545,0.801-6.331,2.277C19.59,2.579,16.429,1,13,1C6.935,1,2,5.935,2,12 C2,12.553,2.447,13,3,13z"></path> <path fill="#61616b" d="M61.439,19.102c-0.344-0.168-0.751-0.126-1.054,0.109L44,31.955V20c0-0.373-0.207-0.715-0.538-0.887 c-0.331-0.173-0.729-0.147-1.035,0.067L23.238,32.612l-9.425-13.193C13.626,19.156,13.323,19,13,19H3c-0.553,0-1,0.447-1,1v42 c0,0.553,0.447,1,1,1h58c0.553,0,1-0.447,1-1V20C62,19.618,61.782,19.27,61.439,19.102z M36,53c0,0.553-0.447,1-1,1h-8 c-0.553,0-1-0.447-1-1v-8c0-0.553,0.447-1,1-1h8c0.553,0,1,0.447,1,1V53z M52,53c0,0.553-0.447,1-1,1h-8c-0.553,0-1-0.447-1-1v-8 c0-0.553,0.447-1,1-1h8c0.553,0,1,0.447,1,1V53z"></path></g></svg>