<svg xmlns="http://www.w3.org/2000/svg" height="32" width="32" viewBox="0 0 32 32"><title>globe 5</title><g fill="#61616b" class="nc-icon-wrapper"><path fill="#61616b" d="M16,0C7.178,0,0,7.178,0,16s7.178,16,16,16s16-7.178,16-16S24.822,0,16,0z M2.051,17h4.407 c0.076,2.153,0.395,4.175,0.915,6H3.894C2.855,21.211,2.205,19.175,2.051,17z M17,7V2.143C18.872,2.625,20.55,4.419,21.742,7H17z M22.512,9c0.578,1.799,0.943,3.838,1.031,6H17V9H22.512z M15,2.143V7h-4.742C11.45,4.419,13.128,2.625,15,2.143z M15,9v6H8.457 c0.087-2.162,0.453-4.201,1.031-6H15z M6.458,15H2.051c0.155-2.175,0.805-4.211,1.844-6h3.478C6.853,10.825,6.534,12.847,6.458,15z M8.457,17H15v6H9.488C8.91,21.201,8.544,19.162,8.457,17z M15,25v4.857c-1.872-0.481-3.55-2.275-4.742-4.857H15z M17,29.857V25 h4.742C20.55,27.581,18.872,29.375,17,29.857z M17,23v-6h6.543c-0.087,2.162-0.453,4.201-1.031,6H17z M25.542,17h4.407 c-0.155,2.175-0.805,4.211-1.844,6h-3.478C25.147,21.175,25.466,19.153,25.542,17z M25.542,15c-0.076-2.153-0.395-4.175-0.915-6 h3.478c1.039,1.789,1.689,3.825,1.844,6H25.542z M26.708,7H23.96c-0.567-1.415-1.272-2.65-2.076-3.686 C23.75,4.183,25.397,5.442,26.708,7z M10.116,3.314C9.312,4.35,8.607,5.585,8.04,7H5.292C6.603,5.442,8.25,4.183,10.116,3.314z M5.292,25H8.04c0.567,1.415,1.272,2.65,2.076,3.686C8.25,27.817,6.603,26.558,5.292,25z M21.884,28.686 c0.804-1.036,1.51-2.271,2.076-3.686h2.748C25.397,26.558,23.75,27.817,21.884,28.686z"></path></g></svg>