<svg xmlns="http://www.w3.org/2000/svg" height="48" width="48" viewBox="0 0 48 48"><title>globe 4</title><g fill="#61616b" class="nc-icon-wrapper"><path fill="#61616b" d="M24,1C11.317,1,1,11.318,1,24s10.317,23,23,23s23-10.318,23-23S36.683,1,24,1z M40.429,33.5h-6.032 c0.632-2.582,1.009-5.449,1.078-8.5h7.475C42.788,28.085,41.896,30.974,40.429,33.5z M27.28,42.697 c-0.746,0.131-1.507,0.212-2.28,0.253V35.5h6.706C30.602,38.731,29.06,41.266,27.28,42.697z M16.294,35.5H23v7.449 c-0.773-0.041-1.534-0.122-2.28-0.253C18.94,41.266,17.398,38.731,16.294,35.5z M5.051,25h7.475c0.069,3.051,0.445,5.918,1.078,8.5 H7.571C6.104,30.974,5.212,28.085,5.051,25z M7.571,14.5h6.032c-0.632,2.582-1.009,5.449-1.078,8.5H5.051 C5.212,19.915,6.104,17.026,7.571,14.5z M20.72,5.303c0.746-0.131,1.507-0.212,2.28-0.253V12.5h-6.706 C17.398,9.269,18.94,6.734,20.72,5.303z M31.706,12.5H25V5.051c0.773,0.041,1.534,0.122,2.28,0.253 C29.06,6.734,30.602,9.269,31.706,12.5z M32.317,14.5c0.677,2.564,1.082,5.457,1.158,8.5H25v-8.5H32.317z M23,14.5V23h-8.475 c0.076-3.043,0.481-5.936,1.158-8.5H23z M14.525,25H23v8.5h-7.317C15.006,30.936,14.601,28.043,14.525,25z M25,33.5V25h8.475 c-0.076,3.043-0.481,5.936-1.158,8.5H25z M35.474,23c-0.069-3.051-0.445-5.918-1.078-8.5h6.032c1.466,2.526,2.358,5.415,2.52,8.5 H35.474z M39.089,12.5h-5.25c-0.762-2.417-1.759-4.512-2.939-6.184C34.168,7.596,36.99,9.753,39.089,12.5z M17.1,6.316 c-1.18,1.672-2.177,3.766-2.939,6.184h-5.25C11.01,9.753,13.832,7.596,17.1,6.316z M8.911,35.5h5.25 c0.762,2.417,1.759,4.512,2.939,6.184C13.832,40.404,11.01,38.247,8.911,35.5z M30.9,41.684c1.18-1.672,2.177-3.766,2.939-6.184 h5.25C36.99,38.247,34.168,40.404,30.9,41.684z"></path></g></svg>