<svg xmlns="http://www.w3.org/2000/svg" height="64" width="64" viewBox="0 0 64 64"><title>goal 65 3</title><g fill="#61616b" class="nc-icon-wrapper"><path fill="#61616b" d="M26,51C12.215,51,1,39.785,1,26S12.215,1,26,1s25,11.215,25,25c0,0.553-0.448,1-1,1s-1-0.447-1-1 C49,13.317,38.682,3,26,3S3,13.317,3,26s10.318,23,23,23c0.552,0,1,0.447,1,1S26.552,51,26,51z"></path> <path data-color="color-2" fill="#61616b" d="M62.707,51.293L51.414,40l7.293-7.293c0.269-0.269,0.362-0.667,0.24-1.027 s-0.438-0.621-0.815-0.671l-30-4c-0.312-0.042-0.619,0.063-0.839,0.284c-0.22,0.22-0.325,0.53-0.284,0.839l4,30 c0.05,0.378,0.31,0.693,0.67,0.815c0.36,0.12,0.759,0.029,1.028-0.24L40,51.414l11.293,11.293C51.488,62.902,51.744,63,52,63 s0.512-0.098,0.707-0.293l10-10C63.098,52.316,63.098,51.684,62.707,51.293z"></path> <path fill="#61616b" d="M24.001,38.834c-0.055,0-0.11-0.004-0.167-0.014C17.557,37.767,13,32.375,13,26c0-7.168,5.832-13,13-13 c6.375,0,11.767,4.557,12.82,10.835c0.091,0.544-0.276,1.06-0.821,1.151c-0.547,0.098-1.06-0.276-1.152-0.821 C35.957,18.854,31.395,15,26,15c-6.065,0-11,4.935-11,11c0,5.395,3.855,9.957,9.166,10.848c0.544,0.092,0.912,0.607,0.821,1.151 C24.905,38.488,24.481,38.834,24.001,38.834z"></path></g></svg>