<svg xmlns="http://www.w3.org/2000/svg" height="32" width="32" viewBox="0 0 32 32"><title>goal 65 5</title><g fill="#61616b" class="nc-icon-wrapper"><path fill="#61616b" d="M2,13C2,6.935,6.935,2,13,2c5.681,0,10.496,4.428,10.962,10.081l1.993-0.164C25.404,5.234,19.713,0,13,0 C5.832,0,0,5.832,0,13c0,6.713,5.235,12.403,11.917,12.956l0.165-1.994C6.429,23.495,2,18.68,2,13z"></path> <path fill="#61616b" d="M13,7c2.967,0,5.521,2.211,5.939,5.143l1.979-0.283C20.36,7.949,16.956,5,13,5c-4.411,0-8,3.589-8,8 c0,3.955,2.948,7.359,6.857,7.919l0.283-1.98C9.21,18.52,7,15.966,7,13C7,9.691,9.691,7,13,7z"></path> <path data-color="color-2" fill="#61616b" d="M31.707,25.293L26.414,20l3.293-3.293c0.269-0.269,0.362-0.667,0.24-1.027 s-0.438-0.621-0.815-0.671l-15-2c-0.31-0.041-0.62,0.064-0.839,0.284c-0.22,0.22-0.325,0.53-0.284,0.839l2,15 c0.05,0.378,0.31,0.693,0.67,0.815c0.359,0.121,0.759,0.028,1.028-0.24L20,26.414l5.293,5.293C25.488,31.902,25.744,32,26,32 s0.512-0.098,0.707-0.293l5-5C32.098,26.316,32.098,25.684,31.707,25.293z"></path></g></svg>