<svg xmlns="http://www.w3.org/2000/svg" height="48" width="48" viewBox="0 0 48 48"><title>goal 65 4</title><g fill="#61616b" class="nc-icon-wrapper"><path fill="#61616b" d="M16.001,38.554c-0.073,0-0.147-0.008-0.222-0.024C7.077,36.555,1,28.936,1,20C1,9.523,9.523,1,20,1 c8.935,0,16.555,6.077,18.529,14.778c0.123,0.539-0.215,1.074-0.754,1.197c-0.535,0.122-1.074-0.216-1.196-0.754 C34.812,8.437,27.995,3,20,3C10.626,3,3,10.626,3,20c0,7.995,5.437,14.812,13.221,16.578c0.539,0.122,0.876,0.658,0.754,1.197 C16.87,38.239,16.458,38.554,16.001,38.554z"></path> <path fill="#61616b" d="M15.002,29.664c-0.17,0-0.342-0.043-0.5-0.134C11.109,27.568,9,23.917,9,20c0-6.065,4.935-11,11-11 c3.917,0,7.568,2.108,9.53,5.503c0.276,0.478,0.113,1.09-0.365,1.366c-0.479,0.275-1.09,0.112-1.366-0.366 C26.192,12.726,23.205,11,20,11c-4.962,0-9,4.037-9,9c0,3.205,1.726,6.193,4.504,7.798c0.478,0.276,0.642,0.889,0.365,1.366 C15.684,29.485,15.348,29.664,15.002,29.664z"></path> <path data-color="color-2" fill="#61616b" d="M46.707,38.293L37.414,29l5.293-5.293c0.269-0.269,0.362-0.666,0.241-1.026 c-0.122-0.36-0.436-0.62-0.812-0.672l-22-3c-0.312-0.041-0.622,0.063-0.842,0.284c-0.221,0.221-0.326,0.532-0.284,0.842l3,22 c0.051,0.377,0.312,0.691,0.671,0.812c0.358,0.121,0.758,0.028,1.026-0.24L29,37.414l9.293,9.293C38.488,46.902,38.744,47,39,47 s0.512-0.098,0.707-0.293l7-7C47.098,39.316,47.098,38.684,46.707,38.293z"></path></g></svg>