<svg xmlns="http://www.w3.org/2000/svg" height="64" width="64" viewBox="0 0 64 64"><title>gold 2</title><g fill="#61616b" class="nc-icon-wrapper"><path fill="#61616b" d="M52.9,41.6C52.7,41.2,52.4,41,52,41H38c-0.4,0-0.8,0.3-0.9,0.6L32,55.2l-5.1-13.5C26.8,41.3,26.4,41,26,41 H12c-0.4,0-0.7,0.2-0.9,0.6l-8,16c-0.2,0.3-0.1,0.7,0,1S3.7,59,4,59h28h28c0.3,0,0.7-0.2,0.9-0.5s0.2-0.7,0-1L52.9,41.6z"></path> <path fill="#61616b" d="M16.1,38.5c0.2,0.3,0.5,0.5,0.9,0.5h30c0.3,0,0.7-0.2,0.9-0.5s0.2-0.7,0-1l-8-16C39.7,21.2,39.4,21,39,21H25 c-0.4,0-0.7,0.2-0.9,0.6l-8,16C16,37.9,16,38.2,16.1,38.5z"></path> <path data-color="color-2" fill="#61616b" d="M9,34c0-0.6-0.4-1-1-1H2c-0.6,0-1,0.4-1,1s0.4,1,1,1h6C8.6,35,9,34.6,9,34z"></path> <path data-color="color-2" fill="#61616b" d="M14.3,17.7c0.2,0.2,0.5,0.3,0.7,0.3s0.5-0.1,0.7-0.3c0.4-0.4,0.4-1,0-1.4l-4.2-4.2 c-0.4-0.4-1-0.4-1.4,0s-0.4,1,0,1.4L14.3,17.7z"></path> <path data-color="color-2" fill="#61616b" d="M32,11c0.6,0,1-0.4,1-1V4c0-0.6-0.4-1-1-1s-1,0.4-1,1v6C31,10.6,31.4,11,32,11z"></path> <path data-color="color-2" fill="#61616b" d="M49,18c0.3,0,0.5-0.1,0.7-0.3l4.2-4.2c0.4-0.4,0.4-1,0-1.4s-1-0.4-1.4,0l-4.2,4.2 c-0.4,0.4-0.4,1,0,1.4C48.5,17.9,48.7,18,49,18z"></path> <path data-color="color-2" fill="#61616b" d="M62,33h-6c-0.6,0-1,0.4-1,1s0.4,1,1,1h6c0.6,0,1-0.4,1-1S62.6,33,62,33z"></path></g></svg>