<svg xmlns="http://www.w3.org/2000/svg" height="48" width="48" viewBox="0 0 48 48"><title>gold 3</title><g fill="#61616b" class="nc-icon-wrapper"><path fill="#61616b" d="M40.9,31.7C40.8,31.3,40.4,31,40,31H28c-0.4,0-0.8,0.3-0.9,0.7L24,40.8l-3.1-9.2C20.8,31.3,20.4,31,20,31H8 c-0.4,0-0.8,0.3-0.9,0.7l-4,12C2.9,44,3,44.3,3.2,44.6S3.7,45,4,45h20h20c0.3,0,0.6-0.2,0.8-0.4s0.2-0.6,0.1-0.9L40.9,31.7z"></path> <path fill="#61616b" d="M14,29h20c0.3,0,0.6-0.2,0.8-0.4s0.2-0.6,0.1-0.9l-4-12C30.8,15.3,30.4,15,30,15H18c-0.4,0-0.8,0.3-0.9,0.7 l-4,12c-0.1,0.3-0.1,0.6,0.1,0.9S13.7,29,14,29z"></path> <path data-color="color-2" fill="#61616b" d="M7,24c0-0.6-0.4-1-1-1H2c-0.6,0-1,0.4-1,1s0.4,1,1,1h4C6.6,25,7,24.6,7,24z"></path> <path data-color="color-2" fill="#61616b" d="M10.6,12c0.2,0.2,0.5,0.3,0.7,0.3s0.5-0.1,0.7-0.3c0.4-0.4,0.4-1,0-1.4L9.2,7.7 c-0.4-0.4-1-0.4-1.4,0s-0.4,1,0,1.4L10.6,12z"></path> <path data-color="color-2" fill="#61616b" d="M24,7c0.6,0,1-0.4,1-1V2c0-0.6-0.4-1-1-1s-1,0.4-1,1v4C23,6.6,23.4,7,24,7z"></path> <path data-color="color-2" fill="#61616b" d="M36.7,12.3c0.3,0,0.5-0.1,0.7-0.3l2.8-2.8c0.4-0.4,0.4-1,0-1.4s-1-0.4-1.4,0L36,10.6 c-0.4,0.4-0.4,1,0,1.4C36.2,12.2,36.5,12.3,36.7,12.3z"></path> <path data-color="color-2" fill="#61616b" d="M46,23h-4c-0.6,0-1,0.4-1,1s0.4,1,1,1h4c0.6,0,1-0.4,1-1S46.6,23,46,23z"></path></g></svg>