<svg xmlns="http://www.w3.org/2000/svg" height="32" width="32" viewBox="0 0 32 32"><title>hammer 5</title><g fill="#61616b" class="nc-icon-wrapper"><path fill="#61616b" d="M17.293,15.707C17.488,15.902,17.744,16,18,16s0.512-0.098,0.707-0.293l2.793-2.793l4.793,4.793 C26.488,17.902,26.744,18,27,18s0.512-0.098,0.707-0.293l2-2c0.391-0.391,0.391-1.023,0-1.414L24.914,9.5l2.793-2.793 c0.391-0.391,0.391-1.023,0-1.414l-4-4c-0.391-0.391-1.023-0.391-1.414,0l-9,9c-0.391,0.391-0.391,1.023,0,1.414L17.293,15.707z"></path> <rect data-color="color-2" x="3" y="16" fill="#61616b" width="6" height="2"></rect> <rect data-color="color-2" x="7.05" y="9.05" transform="matrix(0.7071 -0.7071 0.7071 0.7071 -6.163 9.2219)" fill="#61616b" width="2" height="6.001"></rect> <path fill="#61616b" d="M31,20H1c-0.301,0-0.586,0.136-0.775,0.369c-0.19,0.233-0.265,0.539-0.204,0.834 C0.068,21.43,1.243,26.544,9,26.959V31c0,0.553,0.447,1,1,1h16c0.553,0,1-0.447,1-1c0-2.206,1.794-4,4-4c0.553,0,1-0.447,1-1v-5 C32,20.447,31.553,20,31,20z"></path></g></svg>