<svg xmlns="http://www.w3.org/2000/svg" height="64" width="64" viewBox="0 0 64 64"><title>hand card 2</title><g fill="#61616b" class="nc-icon-wrapper"><path fill="#61616b" d="M45,18H25.062c0.494,3.941,3.866,7,7.938,7l8,0c0.553,0,1,0.445,1,0.998C41.998,31.447,47.55,37,53,37 c0.552,0,1,0.448,1,1s-0.448,1-1,1c-3.302,0-6.565-1.64-9-4.097V41c0,1.105-0.895,2-2,2H10.295c0.863,2.888,3.541,5,6.705,5h18 c0.552,0,1,0.448,1,1l0,0c0,0.552-0.448,1-1,1H16v1c0,2.761,2.239,5,5,5h24c10.72,0,19.395-8.924,18.986-19.733 C63.597,25.985,55.289,18,45,18z"></path> <path data-color="color-2" fill="#61616b" d="M41,9H1c-0.552,0-1,0.448-1,1v6h42v-6C42,9.448,41.552,9,41,9z"></path> <path data-color="color-2" fill="#61616b" d="M33,27c-3.273,0-6.175-1.588-8-4.025V23H0v17c0,0.552,0.448,1,1,1h40c0.552,0,1-0.448,1-1 v-7.584c-1.061-1.666-1.765-3.521-1.951-5.416H33z M18,33H7c-0.552,0-1-0.448-1-1s0.448-1,1-1h11c0.552,0,1,0.448,1,1 S18.552,33,18,33z"></path></g></svg>