<svg xmlns="http://www.w3.org/2000/svg" height="48" width="48" viewBox="0 0 48 48"><title>hand card 3</title><g fill="#61616b" class="nc-icon-wrapper"><path fill="#61616b" d="M33.261,13h-14.19c0.487,3.388,3.408,6,6.929,6h5.001v1c0,2.785,1.639,5.188,3.999,6.314V32 c0,1.105-0.895,2-2,2H8.385l0.029,0.191c0.345,2.245,2.16,3.975,4.418,4.212l18.99,1.999C39.935,41.256,47,34.896,47,26.739 C47,19.151,40.849,13,33.261,13z"></path> <path data-color="color-2" fill="#61616b" d="M31.001,6h-28c-1.105,0-2,0.895-2,2v3h32V8C33.001,6.895,32.106,6,31.001,6z"></path> <path data-color="color-2" fill="#61616b" d="M29.057,21H26c-2.656,0-5.04-1.164-6.689-3H1.001v12c0,1.105,0.895,2,2,2h28 c1.105,0,2-0.895,2-2v-2.531C30.855,26.028,29.356,23.695,29.057,21z M14,26H7c-0.552,0-1-0.448-1-1s0.448-1,1-1h7 c0.552,0,1,0.448,1,1S14.552,26,14,26z"></path></g></svg>