<svg xmlns="http://www.w3.org/2000/svg" height="32" width="32" viewBox="0 0 32 32"><title>hierarchy 56 4</title><g fill="#61616b" class="nc-icon-wrapper"><path fill="#61616b" d="M13,9h6c0.553,0,1-0.447,1-1V2c0-0.553-0.447-1-1-1h-6c-0.553,0-1,0.447-1,1v6C12,8.553,12.447,9,13,9z"></path> <path data-color="color-2" fill="#61616b" d="M5,17h10v4h2v-4h10v4h2v-5c0-0.553-0.447-1-1-1H17v-4h-2v4H4c-0.553,0-1,0.447-1,1v5h2V17z"></path> <circle fill="#61616b" cx="4" cy="27" r="4"></circle> <circle fill="#61616b" cx="16" cy="27" r="4"></circle> <circle fill="#61616b" cx="28" cy="27" r="4"></circle></g></svg>