<svg xmlns="http://www.w3.org/2000/svg" height="48" width="48" viewBox="0 0 48 48"><title>hierarchy 54 3</title><g fill="#61616b" class="nc-icon-wrapper"><path fill="#61616b" d="M29,35H19c-0.552,0-1,0.447-1,1v10c0,0.553,0.448,1,1,1h10c0.552,0,1-0.447,1-1V36 C30,35.447,29.552,35,29,35z"></path> <path fill="#61616b" d="M46,35H36c-0.552,0-1,0.447-1,1v10c0,0.553,0.448,1,1,1h10c0.552,0,1-0.447,1-1V36 C47,35.447,46.552,35,46,35z"></path> <path fill="#61616b" d="M12,35H2c-0.552,0-1,0.447-1,1v10c0,0.553,0.448,1,1,1h10c0.552,0,1-0.447,1-1V36C13,35.447,12.552,35,12,35 z"></path> <path data-color="color-2" fill="#61616b" d="M7,31c0.552,0,1-0.447,1-1v-5h15v5c0,0.553,0.448,1,1,1s1-0.447,1-1v-5h15v5 c0,0.553,0.448,1,1,1s1-0.447,1-1v-6c0-0.553-0.448-1-1-1H25v-5c0-0.553-0.448-1-1-1s-1,0.447-1,1v5H7c-0.552,0-1,0.447-1,1v6 C6,30.553,6.448,31,7,31z"></path> <circle fill="#61616b" cx="24" cy="7" r="6"></circle></g></svg>