<svg xmlns="http://www.w3.org/2000/svg" height="32" width="32" viewBox="0 0 32 32"><title>hierarchy 53 5</title><g fill="#61616b" class="nc-icon-wrapper"><path fill="#61616b" d="M19,23h-6c-0.552,0-1,0.447-1,1v6c0,0.553,0.448,1,1,1h6c0.552,0,1-0.447,1-1v-6C20,23.447,19.552,23,19,23z "></path> <path fill="#61616b" d="M13,9h6c0.552,0,1-0.447,1-1V2c0-0.553-0.448-1-1-1h-6c-0.552,0-1,0.447-1,1v6C12,8.553,12.448,9,13,9z"></path> <path fill="#61616b" d="M31,23h-6c-0.552,0-1,0.447-1,1v6c0,0.553,0.448,1,1,1h6c0.552,0,1-0.447,1-1v-6C32,23.447,31.552,23,31,23z "></path> <path fill="#61616b" d="M7,23H1c-0.552,0-1,0.447-1,1v6c0,0.553,0.448,1,1,1h6c0.552,0,1-0.447,1-1v-6C8,23.447,7.552,23,7,23z"></path> <path data-color="color-2" fill="#61616b" d="M5,17h10v4h2v-4h10v4h2v-5c0-0.553-0.448-1-1-1H17v-4h-2v4H4c-0.552,0-1,0.447-1,1v5h2V17z"></path></g></svg>