<svg xmlns="http://www.w3.org/2000/svg" height="64" width="64" viewBox="0 0 64 64"><title>hierarchy 53 3</title><g fill="#61616b" class="nc-icon-wrapper"><path fill="#61616b" d="M16,45H2c-0.552,0-1,0.447-1,1v14c0,0.553,0.448,1,1,1h14c0.552,0,1-0.447,1-1V46C17,45.447,16.552,45,16,45 z"></path> <path fill="#61616b" d="M39,45H25c-0.552,0-1,0.447-1,1v14c0,0.553,0.448,1,1,1h14c0.552,0,1-0.447,1-1V46 C40,45.447,39.552,45,39,45z"></path> <path fill="#61616b" d="M25,19h14c0.552,0,1-0.447,1-1V4c0-0.553-0.448-1-1-1H25c-0.552,0-1,0.447-1,1v14C24,18.553,24.448,19,25,19 z"></path> <path fill="#61616b" d="M62,45H48c-0.552,0-1,0.447-1,1v14c0,0.553,0.448,1,1,1h14c0.552,0,1-0.447,1-1V46 C63,45.447,62.552,45,62,45z"></path> <path data-color="color-2" fill="#61616b" d="M9,41c0.552,0,1-0.447,1-1v-7h21v7c0,0.553,0.448,1,1,1s1-0.447,1-1v-7h21v7 c0,0.553,0.448,1,1,1s1-0.447,1-1v-8c0-0.553-0.448-1-1-1H33v-7c0-0.553-0.448-1-1-1s-1,0.447-1,1v7H9c-0.552,0-1,0.447-1,1v8 C8,40.553,8.448,41,9,41z"></path></g></svg>