<svg xmlns="http://www.w3.org/2000/svg" height="48" width="48" viewBox="0 0 48 48"><title>hierarchy 56 3</title><g fill="#61616b" class="nc-icon-wrapper"><path fill="#61616b" d="M19,13h10c0.553,0,1-0.447,1-1V2c0-0.553-0.447-1-1-1H19c-0.553,0-1,0.447-1,1v10C18,12.553,18.447,13,19,13 z"></path> <path data-color="color-2" fill="#61616b" d="M7,31c0.553,0,1-0.447,1-1v-5h15v5c0,0.553,0.447,1,1,1s1-0.447,1-1v-5h15v5 c0,0.553,0.447,1,1,1s1-0.447,1-1v-6c0-0.553-0.447-1-1-1H25v-5c0-0.553-0.447-1-1-1s-1,0.447-1,1v5H7c-0.553,0-1,0.447-1,1v6 C6,30.553,6.447,31,7,31z"></path> <circle fill="#61616b" cx="7" cy="41" r="6"></circle> <circle fill="#61616b" cx="24" cy="41" r="6"></circle> <circle fill="#61616b" cx="41" cy="41" r="6"></circle></g></svg>