<svg xmlns="http://www.w3.org/2000/svg" height="64" width="64" viewBox="0 0 64 64"><title>info point 3</title><g fill="#61616b" class="nc-icon-wrapper"><path d="M32,15h0a7,7,0,0,1-7-7h0a7,7,0,0,1,7-7h0a7,7,0,0,1,7,7h0A7,7,0,0,1,32,15Z" fill="#61616b"></path><path d="M49,35H15a1,1,0,0,0-1,1v4a1,1,0,0,0,1,1h3V62a1,1,0,0,0,1,1H45a1,1,0,0,0,1-1V41h3a1,1,0,0,0,1-1V36A1,1,0,0,0,49,35Z" fill="#61616b" data-color="color-2"></path><path d="M38,17H37l-5,5-5-5H26a6,6,0,0,0-6,6V33H44V23A6,6,0,0,0,38,17Z" fill="#61616b"></path></g></svg>