<svg xmlns="http://www.w3.org/2000/svg" height="32" width="32" viewBox="0 0 32 32"><title>info point 5</title><g fill="#61616b" class="nc-icon-wrapper"><path d="M22,16H10v-3c0-2.209,1.791-4,4-4h4c2.209,0,4,1.791,4,4v3Z" fill="#61616b" data-color="color-2"></path><path d="M4,19h0c0,.552,.448,1,1,1h2v11c0,.552,.448,1,1,1H24c.552,0,1-.448,1-1v-11h2c.552,0,1-.448,1-1h0c0-.552-.448-1-1-1H5c-.552,0-1,.448-1,1Z" fill="#61616b"></path><path d="M16,7c-1.933,0-3.5-1.567-3.5-3.5s1.567-3.5,3.5-3.5,3.5,1.567,3.5,3.5-1.567,3.5-3.5,3.5Z" fill="#61616b" data-color="color-2"></path></g></svg>