<svg xmlns="http://www.w3.org/2000/svg" height="48" width="48" viewBox="0 0 48 48"><title>info point 4</title><g fill="#61616b" class="nc-icon-wrapper"><path d="M24,11h0a5,5,0,0,1-5-5h0a5,5,0,0,1,5-5h0a5,5,0,0,1,5,5h0A5,5,0,0,1,24,11Z" fill="#61616b"></path><path d="M37,26H11a1,1,0,0,0-1,1v3a1,1,0,0,0,1,1h2V46a1,1,0,0,0,1,1H34a1,1,0,0,0,1-1V31h2a1,1,0,0,0,1-1V27A1,1,0,0,0,37,26Z" fill="#61616b" data-color="color-2"></path><path d="M33,17a4,4,0,0,0-4-4H28l-4,4-4-4H19a4,4,0,0,0-4,4v7H33Z" fill="#61616b"></path></g></svg>