<svg xmlns="http://www.w3.org/2000/svg" height="64" width="64" viewBox="0 0 64 64"><title>joint account 2</title><g fill="#61616b" class="nc-icon-wrapper"><path d="M50,15a7,7,0,1,1,7-7A7.009,7.009,0,0,1,50,15Z" fill="#61616b"></path><path d="M14,15a7,7,0,1,1,7-7A7.009,7.009,0,0,1,14,15Z" fill="#61616b"></path><path d="M60.543,21.723A20.558,20.558,0,0,0,50,19a20.384,20.384,0,0,0-10.564,2.718A5.026,5.026,0,0,0,37,26.014v4.707A18.056,18.056,0,0,1,47.564,39H62a1,1,0,0,0,1-1V26.034A5.031,5.031,0,0,0,60.543,21.723Z" fill="#61616b"></path><path d="M27,30.721V26.014a5.027,5.027,0,0,0-2.435-4.3A20.391,20.391,0,0,0,14,19,20.554,20.554,0,0,0,3.456,21.724,5.029,5.029,0,0,0,1,26.034V38a1,1,0,0,0,1,1H16.436A18.056,18.056,0,0,1,27,30.721Z" fill="#61616b"></path><path d="M32,33A15,15,0,1,0,47,48,15.017,15.017,0,0,0,32,33Zm5.707,15.707-5,5a1,1,0,0,1-1.414,0l-5-5a1,1,0,0,1,0-1.414l5-5a1,1,0,0,1,1.414,0l5,5A1,1,0,0,1,37.707,48.707Z" fill="#61616b" data-color="color-2"></path></g></svg>