<svg xmlns="http://www.w3.org/2000/svg" height="24" width="24" viewBox="0 0 24 24"><title>joint account</title><g fill="#61616b" class="nc-icon-wrapper"><circle cx="5.5" cy="3.5" r="3.5" fill="#61616b"></circle><path d="M9.947,10.277c-1.001-1.377-2.619-2.277-4.447-2.277-3.032,0-5.5,2.467-5.5,5.5v.5c0,.552,.447,1,1,1h3.589c.937-2.307,2.92-4.074,5.358-4.723Z" fill="#61616b"></path><circle cx="18.5" cy="3.5" r="3.5" fill="#61616b"></circle><path d="M14.053,10.277c1.001-1.377,2.619-2.277,4.447-2.277,3.032,0,5.5,2.467,5.5,5.5v.5c0,.552-.447,1-1,1h-3.589c-.937-2.307-2.92-4.074-5.358-4.723Z" fill="#61616b"></path><path d="M12,12c-3.314,0-6,2.686-6,6s2.686,6,6,6,6-2.686,6-6c-.003-3.312-2.688-5.997-6-6Zm.5,9h-1c-.276,0-.5-.224-.5-.5v-5c0-.276,.224-.5,.5-.5h1c.276,0,.5,.224,.5,.5v5c0,.276-.224,.5-.5,.5Z" fill="#61616b" data-color="color-2"></path></g></svg>