<svg xmlns="http://www.w3.org/2000/svg" height="48" width="48" viewBox="0 0 48 48"><title>joint account 3</title><g fill="#61616b" class="nc-icon-wrapper"><circle cx="11" cy="7" r="6" fill="#61616b"></circle><circle cx="37" cy="7" r="6" fill="#61616b"></circle><path d="M21,23.362v-.69a4.931,4.931,0,0,0-1.854-3.892A12.932,12.932,0,0,0,11,16a12.932,12.932,0,0,0-8.146,2.78A4.931,4.931,0,0,0,1,22.672V27a1,1,0,0,0,1,1H13.767A12.982,12.982,0,0,1,21,23.362Z" fill="#61616b"></path><path d="M45.146,18.78a13.325,13.325,0,0,0-16.292,0A4.931,4.931,0,0,0,27,22.672v.69A12.982,12.982,0,0,1,34.233,28H46a1,1,0,0,0,1-1V22.672A4.931,4.931,0,0,0,45.146,18.78Z" fill="#61616b"></path><path d="M24,25A11,11,0,1,0,35,36,11.013,11.013,0,0,0,24,25Zm4.707,11.707-4,4a1,1,0,0,1-1.414,0l-4-4a1,1,0,0,1,0-1.414l4-4a1,1,0,0,1,1.414,0l4,4A1,1,0,0,1,28.707,36.707Z" fill="#61616b" data-color="color-2"></path></g></svg>