<svg xmlns="http://www.w3.org/2000/svg" height="32" width="32" viewBox="0 0 32 32"><title>joint account 4</title><g fill="#61616b" class="nc-icon-wrapper"><circle cx="7" cy="4" r="4" fill="#61616b"></circle><path d="M13.471,14.337c-1.05-2.542-3.554-4.337-6.471-4.337-3.859,0-7,3.14-7,7v3c0,.552,.447,1,1,1H6.461c1.027-3.259,3.685-5.792,7.009-6.663Z" fill="#61616b"></path><circle cx="25" cy="4" r="4" fill="#61616b"></circle><path d="M18.529,14.337c1.05-2.542,3.554-4.337,6.471-4.337,3.859,0,7,3.14,7,7v3c0,.552-.447,1-1,1h-5.461c-1.027-3.259-3.685-5.792-7.009-6.663Z" fill="#61616b"></path><path d="M16,16c-4.418,0-8,3.582-8,8s3.582,8,8,8,8-3.582,8-8c-.005-4.416-3.584-7.995-8-8Zm0,12h0c-.552,0-1-.448-1-1v-6c0-.552,.448-1,1-1h0c.552,0,1,.448,1,1v6c0,.552-.448,1-1,1Z" fill="#61616b" data-color="color-2"></path></g></svg>