<svg xmlns="http://www.w3.org/2000/svg" height="32" width="32" viewBox="0 0 32 32"><title>laptop 72 4</title><g fill="#61616b" class="nc-icon-wrapper"><rect data-color="color-2" x="15" y="8" fill="#61616b" width="2" height="11"></rect> <rect data-color="color-2" x="9" y="15" fill="#61616b" width="2" height="4"></rect> <rect data-color="color-2" x="21" y="11" fill="#61616b" width="2" height="8"></rect> <path fill="#61616b" d="M0,23v1c0,2.757,2.243,5,5,5h22c2.757,0,5-2.243,5-5v-1H0z"></path> <path fill="#61616b" d="M5,6c0-0.551,0.448-1,1-1h20c0.552,0,1,0.449,1,1v15h2V6c0-1.654-1.346-3-3-3H6C4.346,3,3,4.346,3,6v15h2V6z "></path></g></svg>