<svg xmlns="http://www.w3.org/2000/svg" height="48" width="48" viewBox="0 0 48 48"><title>laptop 72 3</title><g fill="#61616b" class="nc-icon-wrapper"><path data-color="color-2" fill="#61616b" d="M23,14v11c0,0.553,0.448,1,1,1s1-0.447,1-1V14c0-0.553-0.448-1-1-1S23,13.447,23,14z"></path> <path data-color="color-2" fill="#61616b" d="M31,18v7c0,0.553,0.448,1,1,1s1-0.447,1-1v-7c0-0.553-0.448-1-1-1S31,17.447,31,18z"></path> <path data-color="color-2" fill="#61616b" d="M15,22v3c0,0.553,0.448,1,1,1s1-0.447,1-1v-3c0-0.553-0.448-1-1-1S15,21.447,15,22z"></path> <path fill="#61616b" d="M7,12c0-1.654,1.346-3,3-3h28c1.654,0,3,1.346,3,3v17h2V12c0-2.757-2.243-5-5-5H10c-2.757,0-5,2.243-5,5v17 h2V12z"></path> <path fill="#61616b" d="M46,31H30v3H18v-3H2c-0.552,0-1,0.448-1,1v3c0,2.761,2.239,5,5,5h36c2.761,0,5-2.239,5-5v-3 C47,31.448,46.552,31,46,31z"></path></g></svg>