<svg xmlns="http://www.w3.org/2000/svg" height="64" width="64" viewBox="0 0 64 64"><title>laptop 91 2</title><g fill="#61616b" class="nc-icon-wrapper"><path data-color="color-2" fill="#61616b" d="M32,39c-6.065,0-11-4.935-11-11s4.935-11,11-11v11h11C43,34.065,38.065,39,32,39z"></path> <path fill="#61616b" d="M10,14c0-1.103,0.897-2,2-2h40c1.103,0,2,0.897,2,2v29h4V14c0-3.309-2.691-6-6-6H12c-3.309,0-6,2.691-6,6v29 h4V14z"></path> <path fill="#61616b" d="M62,45H40v3H24v-3H2c-0.553,0-1,0.448-1,1c0,4.962,4.037,9,9,9h44c4.963,0,9-4.038,9-9 C63,45.448,62.553,45,62,45z"></path></g></svg>