<svg xmlns="http://www.w3.org/2000/svg" height="48" width="48" viewBox="0 0 48 48"><title>laptop 71 3</title><g fill="#61616b" class="nc-icon-wrapper"><path data-color="color-2" fill="#61616b" d="M33,23c0.552,0,1-0.447,1-1v-7c0-0.553-0.448-1-1-1h-7c-0.552,0-1,0.447-1,1s0.448,1,1,1 h4.586L23,23.586l-5.293-5.293c-0.391-0.391-1.023-0.391-1.414,0l-4,4l1.414,1.414L17,20.414l5.293,5.293 C22.488,25.902,22.744,26,23,26s0.512-0.098,0.707-0.293L32,17.414V22C32,22.553,32.448,23,33,23z"></path> <path fill="#61616b" d="M7,12c0-1.654,1.346-3,3-3h28c1.654,0,3,1.346,3,3v17h2V12c0-2.757-2.243-5-5-5H10c-2.757,0-5,2.243-5,5v17 h2V12z"></path> <path fill="#61616b" d="M46,31H30v3H18v-3H2c-0.552,0-1,0.448-1,1v3c0,2.761,2.239,5,5,5h36c2.761,0,5-2.239,5-5v-3 C47,31.448,46.552,31,46,31z"></path></g></svg>