<svg xmlns="http://www.w3.org/2000/svg" height="32" width="32" viewBox="0 0 32 32"><title>laptop 71 4</title><g fill="#61616b" class="nc-icon-wrapper"><path data-color="color-2" fill="#61616b" d="M23,16v-5c0-0.553-0.448-1-1-1h-5v2h2.586L16,15.586l-3.293-3.293 c-0.391-0.391-1.023-0.391-1.414,0l-3,3l1.414,1.414L12,14.414l3.293,3.293C15.488,17.902,15.744,18,16,18s0.512-0.098,0.707-0.293 L21,13.414V16H23z"></path> <path fill="#61616b" d="M0,24c0,2.757,2.243,5,5,5h22c2.757,0,5-2.243,5-5v-1H0V24z"></path> <path fill="#61616b" d="M5,6c0-0.551,0.448-1,1-1h20c0.552,0,1,0.449,1,1v15h2V6c0-1.654-1.346-3-3-3H6C4.346,3,3,4.346,3,6v15h2V6z "></path></g></svg>