<svg xmlns="http://www.w3.org/2000/svg" height="64" width="64" viewBox="0 0 64 64"><title>laptop 71 2</title><g fill="#61616b" class="nc-icon-wrapper"><path data-color="color-2" fill="#61616b" d="M46,31c0.552,0,1-0.447,1-1v-9c0-0.553-0.448-1-1-1h-9c-0.552,0-1,0.447-1,1s0.448,1,1,1 h6.586L33,32.586l-7.293-7.293c-0.391-0.391-1.023-0.391-1.414,0l-8,8c-0.391,0.391-0.391,1.023,0,1.414s1.023,0.391,1.414,0 L25,27.414l7.293,7.293C32.488,34.902,32.744,35,33,35s0.512-0.098,0.707-0.293L45,23.414V30C45,30.553,45.448,31,46,31z"></path> <path fill="#61616b" d="M10,14c0-1.103,0.897-2,2-2h40c1.103,0,2,0.897,2,2v29h4V14c0-3.309-2.691-6-6-6H12c-3.309,0-6,2.691-6,6v29 h4V14z"></path> <path fill="#61616b" d="M62,45H40v3H24v-3H2c-0.553,0-1,0.448-1,1c0,4.962,4.037,9,9,9h44c4.963,0,9-4.038,9-9 C63,45.448,62.553,45,62,45z"></path></g></svg>