<svg xmlns="http://www.w3.org/2000/svg" height="24" width="24" viewBox="0 0 24 24"><title>laptop 71</title><g fill="#61616b" class="nc-icon-wrapper"><path data-color="color-2" fill="#61616b" d="M17,12h-2V9.414l-5.293,5.293l-1.414-1.414L13.586,8H11V6h5c0.553,0,1,0.448,1,1V12z"></path> <path fill="#61616b" d="M4,5c0-0.551,0.448-1,1-1h14c0.552,0,1,0.449,1,1v9h2V5c0-1.654-1.346-3-3-3H5C3.346,2,2,3.346,2,5v9h2V5z"></path> <path fill="#61616b" d="M0,16v1c0,1.654,1.346,3,3,3h18c1.654,0,3-1.346,3-3v-1H0z"></path></g></svg>