<svg xmlns="http://www.w3.org/2000/svg" height="48" width="48" viewBox="0 0 48 48"><title>law 3</title><g fill="#61616b" class="nc-icon-wrapper"><path data-color="color-2" fill="#61616b" d="M8,35H2c-0.552,0-1-0.447-1-1s0.448-1,1-1h6c0.552,0,1,0.447,1,1S8.552,35,8,35z"></path> <path data-color="color-2" fill="#61616b" d="M10.929,27.929c-0.256,0-0.512-0.098-0.707-0.293l-4.242-4.242 c-0.391-0.391-0.391-1.023,0-1.414s1.023-0.391,1.414,0l4.242,4.242c0.391,0.391,0.391,1.023,0,1.414 C11.44,27.831,11.185,27.929,10.929,27.929z"></path> <path fill="#61616b" d="M33,45h-3v-5c0-0.553-0.448-1-1-1H6c-0.552,0-1,0.447-1,1v5H2c-0.552,0-1,0.447-1,1s0.448,1,1,1h31 c0.552,0,1-0.447,1-1S33.552,45,33,45z"></path> <path fill="#61616b" d="M45.707,28.293l-8.879-8.879l-5.414,5.414l8.879,8.879C40.488,33.902,40.744,34,41,34 s0.512-0.098,0.707-0.293l4-4C46.098,29.316,46.098,28.684,45.707,28.293z"></path> <path fill="#61616b" d="M41.707,10.293l-8-8c-0.391-0.391-1.023-0.391-1.414,0l-18,18c-0.391,0.391-0.391,1.023,0,1.414l8,8 C22.488,29.902,22.744,30,23,30s0.512-0.098,0.707-0.293l18-18C42.098,11.316,42.098,10.684,41.707,10.293z"></path></g></svg>