<svg xmlns="http://www.w3.org/2000/svg" height="32" width="32" viewBox="0 0 32 32"><title>law 4</title><g fill="#61616b" class="nc-icon-wrapper"><path fill="#61616b" d="M30.707,20.293L22.414,12l4.293-4.293c0.391-0.391,0.391-1.023,0-1.414l-5-5 c-0.391-0.391-1.023-0.391-1.414,0l-12,12c-0.391,0.391-0.391,1.023,0,1.414l5,5C13.488,19.902,13.744,20,14,20 s0.512-0.098,0.707-0.293L19,15.414l8.293,8.293C27.488,23.902,27.744,24,28,24s0.512-0.098,0.707-0.293l2-2 C31.098,21.316,31.098,20.684,30.707,20.293z"></path> <path fill="#61616b" d="M20,26c0-0.553-0.448-1-1-1H3c-0.552,0-1,0.447-1,1v4H0v2h22v-2h-2V26z"></path> <rect data-color="color-2" y="21" fill="#61616b" width="5" height="2"></rect> <rect data-color="color-2" x="3.697" y="14.197" transform="matrix(0.7073 -0.707 0.707 0.7073 -10.429 8.2084)" fill="#61616b" width="2" height="5"></rect></g></svg>