<svg xmlns="http://www.w3.org/2000/svg" height="64" width="64" viewBox="0 0 64 64"><title>line chart 2</title><g fill="#61616b" class="nc-icon-wrapper"><path d="M62.954,14.913,61.3,13.784a1,1,0,0,0-1.39.261L48.231,31.119,36.839,9.283a.971.971,0,0,0-.908-.537,1,1,0,0,0-.884.575L20.7,39.938,13.707,29.457a1,1,0,0,0-1.727.107L.764,52a1,1,0,0,0,.447,1.342L3,54.235a.994.994,0,0,0,.764.054,1,1,0,0,0,.578-.5l8.905-17.811L20.32,46.586a.984.984,0,0,0,.908.442,1,1,0,0,0,.83-.572L36.1,16.508,47,37.4a1,1,0,0,0,.827.535,1.02,1.02,0,0,0,.885-.433L63.215,16.3a1,1,0,0,0-.261-1.39Z" fill="#61616b"></path></g></svg>