<svg xmlns="http://www.w3.org/2000/svg" height="32" width="32" viewBox="0 0 32 32"><title>loan 4</title><g fill="#61616b" class="nc-icon-wrapper"><path d="M19.007,0A6.993,6.993,0,1,0,26,6.993,7,7,0,0,0,19.007,0ZM20,10H18V4h2Z" fill="#61616b" data-color="color-2"></path><path d="M31.909,22.313h0A2.946,2.946,0,0,0,29.032,20H22.85A6.972,6.972,0,0,1,23,21.44v1a1,1,0,0,1-1,1H10v-2H21a5,5,0,0,0-5-5H9.538A7.469,7.469,0,0,0,4,14H0V25L9.19,29.6a8,8,0,0,0,5.825.523l14.844-4.345A2.945,2.945,0,0,0,31.909,22.313Z" fill="#61616b"></path></g></svg>