<svg xmlns="http://www.w3.org/2000/svg" height="48" width="48" viewBox="0 0 48 48"><title>mastercard</title><g fill="#61616b" class="nc-icon-wrapper"><circle data-color="color-2" cx="19" cy="24" r="8" fill="#61616b" opacity="0.85"></circle> <path d="M43,7H5a4,4,0,0,0-4,4V37a4,4,0,0,0,4,4H43a4,4,0,0,0,4-4V11A4,4,0,0,0,43,7ZM29,34a9.928,9.928,0,0,1-5-1.353,10,10,0,1,1,0-17.294A10,10,0,1,1,29,34Z" fill="#61616b"></path> <circle data-color="color-2" cx="29" cy="24" r="8" fill="#61616b" opacity="0.5"></circle></g></svg>