<svg xmlns="http://www.w3.org/2000/svg" height="48" width="48" viewBox="0 0 48 48"><title>math 4</title><g fill="#61616b" class="nc-icon-wrapper"><path d="M42,3H25V23H45V6A3,3,0,0,0,42,3ZM39.207,15.793a1,1,0,1,1-1.414,1.414L35,14.414l-2.793,2.793a1,1,0,0,1-1.414-1.414L33.586,13l-2.793-2.793a1,1,0,0,1,1.414-1.414L35,11.586l2.793-2.793a1,1,0,0,1,1.414,1.414L36.414,13Z" fill="#61616b"></path><path d="M6,3A3,3,0,0,0,3,6V23H23V3ZM17,14H9a1,1,0,0,1,0-2h8a1,1,0,0,1,0,2Z" fill="#61616b"></path><path data-color="color-2" d="M25,25V45H42a3,3,0,0,0,3-3V25ZM39,38H31a1,1,0,0,1,0-2h8a1,1,0,0,1,0,2Zm0-4H31a1,1,0,0,1,0-2h8a1,1,0,0,1,0,2Z" fill="#61616b"></path><path d="M3,25V42a3,3,0,0,0,3,3H23V25ZM17,36H14v3a1,1,0,0,1-2,0V36H9a1,1,0,0,1,0-2h3V31a1,1,0,0,1,2,0v3h3a1,1,0,0,1,0,2Z" fill="#61616b"></path></g></svg>