<svg xmlns="http://www.w3.org/2000/svg" height="24" width="24" viewBox="0 0 24 24"><title>math</title><g fill="#61616b" class="nc-icon-wrapper"><path d="M1,0A1,1,0,0,0,0,1V11H11V0ZM9,6a.5.5,0,0,1-.5.5h-6A.5.5,0,0,1,2,6V5a.5.5,0,0,1,.5-.5h6A.5.5,0,0,1,9,5Z" fill="#61616b"></path><path data-color="color-2" d="M13,13V24H23a1,1,0,0,0,1-1V13Zm9,7.5a.5.5,0,0,1-.5.5h-6a.5.5,0,0,1-.5-.5v-1a.5.5,0,0,1,.5-.5h6a.5.5,0,0,1,.5.5Zm0-3a.5.5,0,0,1-.5.5h-6a.5.5,0,0,1-.5-.5v-1a.5.5,0,0,1,.5-.5h6a.5.5,0,0,1,.5.5Z" fill="#61616b"></path><path d="M0,13V23a1,1,0,0,0,1,1H11V13Zm9,6a.5.5,0,0,1-.5.5h-2v2A.5.5,0,0,1,6,22H5a.5.5,0,0,1-.5-.5v-2h-2A.5.5,0,0,1,2,19V18a.5.5,0,0,1,.5-.5h2v-2A.5.5,0,0,1,5,15H6a.5.5,0,0,1,.5.5v2h2A.5.5,0,0,1,9,18Z" fill="#61616b"></path><path d="M23,0H13V11H24V1A1,1,0,0,0,23,0ZM21.328,6.914a.5.5,0,0,1,0,.707l-.707.707a.5.5,0,0,1-.707,0L18.5,6.914,17.086,8.328a.5.5,0,0,1-.707,0l-.707-.707a.5.5,0,0,1,0-.707L17.086,5.5,15.672,4.086a.5.5,0,0,1,0-.707l.707-.707a.5.5,0,0,1,.707,0L18.5,4.086l1.414-1.414a.5.5,0,0,1,.707,0l.707.707a.5.5,0,0,1,0,.707L19.914,5.5Z" fill="#61616b"></path></g></svg>