<svg xmlns="http://www.w3.org/2000/svg" height="32" width="32" viewBox="0 0 32 32"><title>math 5</title><g fill="#61616b" class="nc-icon-wrapper"><path d="M3,1A2,2,0,0,0,1,3V15H15V1Zm9,7.5a.5.5,0,0,1-.5.5h-7A.5.5,0,0,1,4,8.5v-1A.5.5,0,0,1,4.5,7h7a.5.5,0,0,1,.5.5Z" fill="#61616b"></path><path d="M1,17V29a2,2,0,0,0,2,2H15V17Zm11,7.5a.5.5,0,0,1-.5.5H9v2.5a.5.5,0,0,1-.5.5h-1a.5.5,0,0,1-.5-.5V25H4.5a.5.5,0,0,1-.5-.5v-1a.5.5,0,0,1,.5-.5H7V20.5a.5.5,0,0,1,.5-.5h1a.5.5,0,0,1,.5.5V23h2.5a.5.5,0,0,1,.5.5Z" fill="#61616b"></path><path d="M29,1H17V15H31V3A2,2,0,0,0,29,1ZM27.182,9.768a.5.5,0,0,1,0,.707l-.707.707a.5.5,0,0,1-.707,0L24,9.414l-1.768,1.768a.5.5,0,0,1-.707,0l-.707-.707a.5.5,0,0,1,0-.707L22.586,8,20.818,6.232a.5.5,0,0,1,0-.707l.707-.707a.5.5,0,0,1,.707,0L24,6.586l1.768-1.768a.5.5,0,0,1,.707,0l.707.707a.5.5,0,0,1,0,.707L25.414,8Z" fill="#61616b"></path><path data-color="color-2" d="M17,17V31H29a2,2,0,0,0,2-2V17Zm11,9.5a.5.5,0,0,1-.5.5h-7a.5.5,0,0,1-.5-.5v-1a.5.5,0,0,1,.5-.5h7a.5.5,0,0,1,.5.5Zm0-4a.5.5,0,0,1-.5.5h-7a.5.5,0,0,1-.5-.5v-1a.5.5,0,0,1,.5-.5h7a.5.5,0,0,1,.5.5Z" fill="#61616b"></path></g></svg>