<svg xmlns="http://www.w3.org/2000/svg" height="64" width="64" viewBox="0 0 64 64"><title>math 3</title><g fill="#61616b" class="nc-icon-wrapper"><path d="M57,4H33V31H60V7A3,3,0,0,0,57,4ZM51.964,20.843a1,1,0,0,1,0,1.414l-.707.707a1,1,0,0,1-1.414,0L46.5,19.621l-3.343,3.343a1,1,0,0,1-1.414,0l-.707-.707a1,1,0,0,1,0-1.414L44.379,17.5l-3.343-3.343a1,1,0,0,1,0-1.414l.707-.707a1,1,0,0,1,1.414,0L46.5,15.379l3.343-3.343a1,1,0,0,1,1.414,0l.707.707a1,1,0,0,1,0,1.414L48.621,17.5Z" fill="#61616b"></path><path d="M7,4A3,3,0,0,0,4,7V31H31V4ZM24,18a1,1,0,0,1-1,1H12a1,1,0,0,1-1-1V17a1,1,0,0,1,1-1H23a1,1,0,0,1,1,1Z" fill="#61616b"></path><path data-color="color-2" d="M33,33V60H57a3,3,0,0,0,3-3V33ZM53,50a1,1,0,0,1-1,1H41a1,1,0,0,1-1-1V49a1,1,0,0,1,1-1H52a1,1,0,0,1,1,1Zm0-6a1,1,0,0,1-1,1H41a1,1,0,0,1-1-1V43a1,1,0,0,1,1-1H52a1,1,0,0,1,1,1Z" fill="#61616b"></path><path d="M4,33V57a3,3,0,0,0,3,3H31V33ZM24,47a1,1,0,0,1-1,1H19v4a1,1,0,0,1-1,1H17a1,1,0,0,1-1-1V48H12a1,1,0,0,1-1-1V46a1,1,0,0,1,1-1h4V41a1,1,0,0,1,1-1h1a1,1,0,0,1,1,1v4h4a1,1,0,0,1,1,1Z" fill="#61616b"></path></g></svg>