<svg xmlns="http://www.w3.org/2000/svg" height="64" width="64" viewBox="0 0 64 64"><title>miner 2</title><g fill="#61616b" class="nc-icon-wrapper"><path d="M50,18H48.95A16.981,16.981,0,0,0,36,2.5V4a1,1,0,0,1-2,0V1a1,1,0,0,0-1-1H31a1,1,0,0,0-1,1V4a1,1,0,0,1-2,0V2.5A16.981,16.981,0,0,0,15.05,18H14a1,1,0,0,0-1,1v1a1,1,0,0,0,1,1h3.039C17.451,32.69,24.931,39,32,39s14.549-6.31,14.961-18H50a1,1,0,0,0,1-1V19A1,1,0,0,0,50,18ZM32,10a3,3,0,1,1-3,3A3,3,0,0,1,32,10Zm0,27c-8.1,0-12.614-8.066-12.966-16H44.966C44.614,28.934,40.1,37,32,37Z" fill="#61616b"></path><path d="M20,48a5.006,5.006,0,0,0,5,5H39a5.006,5.006,0,0,0,5-5V41.7l-3.59-1.615A1.1,1.1,0,0,0,40,40c-.291,0-.4.063-.946.35a15.9,15.9,0,0,1-14.108,0C24.4,40.063,24.291,40,24,40a1.1,1.1,0,0,0-.41.088L20,41.7Z" fill="#61616b"></path><path d="M39,55H25a7.009,7.009,0,0,1-7-7V42.6l-4,1.8V62H50V44.4l-4-1.8V48A7.009,7.009,0,0,1,39,55Z" fill="#61616b" data-color="color-2"></path><path d="M12,45.3,8.307,46.965A9.015,9.015,0,0,0,3,55.172V61a1,1,0,0,0,1,1h8Z" fill="#61616b"></path><path d="M55.693,46.965,52,45.3V62h8a1,1,0,0,0,1-1V55.172A9.015,9.015,0,0,0,55.693,46.965Z" fill="#61616b"></path></g></svg>