<svg xmlns="http://www.w3.org/2000/svg" height="32" width="32" viewBox="0 0 32 32"><title>miner 4</title><g fill="#61616b" class="nc-icon-wrapper"><path d="M29.227,23,23.7,20.252A10.478,10.478,0,0,1,16,24a10.478,10.478,0,0,1-7.7-3.748L2.773,23A5,5,0,0,0,0,27.478V31a1,1,0,0,0,1,1H15V27a1,1,0,0,1,2,0v5H31a1,1,0,0,0,1-1V27.478A5,5,0,0,0,29.227,23Z" fill="#61616b" data-color="color-2"></path><path d="M26,10A10,10,0,0,0,17,.05V2a1,1,0,0,1-2,0V.05A10,10,0,0,0,6,10a1,1,0,0,0,0,2H7.043C7.477,18.2,11.889,22,16,22s8.523-3.8,8.957-10H26a1,1,0,0,0,0-2ZM16,6a2,2,0,1,1-2,2A2,2,0,0,1,16,6Zm0,14c-2.665,0-6.531-2.552-6.957-8H22.957C22.531,17.448,18.665,20,16,20Z" fill="#61616b"></path></g></svg>