<svg xmlns="http://www.w3.org/2000/svg" height="48" width="48" viewBox="0 0 48 48"><title>mobile card 3</title><g fill="#61616b" class="nc-icon-wrapper"><path fill="#61616b" d="M26,24v11c0,0.552-0.448,1-1,1H6c-0.552,0-1-0.448-1-1V8c0-0.552,0.448-1,1-1h8V3H5C2.791,3,1,4.791,1,7v36 c0,2.209,1.791,4,4,4h21c2.209,0,4-1.791,4-4V24H26z M15.5,44c-1.378,0-2.5-1.122-2.5-2.5s1.122-2.5,2.5-2.5s2.5,1.122,2.5,2.5 S16.878,44,15.5,44z"></path> <path data-color="color-2" fill="#61616b" d="M44.964,1H18.036C16.913,1,16,1.947,16,3.111v16.777C16,21.053,16.913,22,18.036,22h26.929 C46.087,22,47,21.053,47,19.889V3.111C47,1.947,46.087,1,44.964,1z M18.036,3h26.922C44.972,3.01,45,3.048,45,3.111V7H18V3.111 C18,3.042,18.034,3.004,18.036,3z M44.964,20l-26.918,0.002C18.034,19.996,18,19.958,18,19.889V12h27v7.889 C45,19.958,44.966,19.996,44.964,20z"></path> <path data-color="color-2" fill="#61616b" d="M29,15h-6c-0.552,0-1,0.448-1,1s0.448,1,1,1h6c0.552,0,1-0.448,1-1S29.552,15,29,15z"></path></g></svg>