<svg xmlns="http://www.w3.org/2000/svg" height="64" width="64" viewBox="0 0 64 64"><title>mobile banking 2</title><g fill="#61616b" class="nc-icon-wrapper"><path d="M42.247,36.7a6.577,6.577,0,0,1-2.282,5.145,11.615,11.615,0,0,1-6.587,2.5v4.672H30.515V44.472a22.208,22.208,0,0,1-8.762-1.636V38.294a21.825,21.825,0,0,0,4.327,1.518,19.52,19.52,0,0,0,4.435.635V32.4l-1.809-.668a12.717,12.717,0,0,1-5.155-3.239,6.879,6.879,0,0,1-1.626-4.661,6.066,6.066,0,0,1,2.315-4.887,11.47,11.47,0,0,1,6.275-2.324V13h2.863v3.552a23.745,23.745,0,0,1,8.288,1.765l-1.572,3.94a23.071,23.071,0,0,0-6.716-1.593V28.5l1.636.625a14.95,14.95,0,0,1,5.661,3.315A6.139,6.139,0,0,1,42.247,36.7ZM26.984,23.785a2.877,2.877,0,0,0,.764,2.045,7.837,7.837,0,0,0,2.767,1.615V20.75a5.032,5.032,0,0,0-2.627,1.055A2.535,2.535,0,0,0,26.984,23.785ZM37.166,37.024a2.679,2.679,0,0,0-.871-2.056,8.984,8.984,0,0,0-2.917-1.56v6.867Q37.165,39.693,37.166,37.024Z" fill="#61616b" data-color="color-2"></path><path d="M48,1H16a6,6,0,0,0-6,6V57a6,6,0,0,0,6,6H48a6,6,0,0,0,6-6V7A6,6,0,0,0,48,1Zm4,53a1,1,0,0,1-1,1H13a1,1,0,0,1-1-1V8a1,1,0,0,1,1-1H51a1,1,0,0,1,1,1Z" fill="#61616b"></path></g></svg>