<svg xmlns="http://www.w3.org/2000/svg" height="24" width="24" viewBox="0 0 24 24"><title>mobile banking</title><g fill="#61616b" class="nc-icon-wrapper"><path d="M18,0H6A3,3,0,0,0,3,3V21a3,3,0,0,0,3,3H18a3,3,0,0,0,3-3V3A3,3,0,0,0,18,0Zm1,20a1,1,0,0,1-1,1H6a1,1,0,0,1-1-1V4A1,1,0,0,1,6,3H18a1,1,0,0,1,1,1Z" fill="#61616b"></path><path d="M15.546,12.582a6.125,6.125,0,0,0-2.312-1.353l-.668-.255v-3.2a9.419,9.419,0,0,1,2.743.65l.641-1.608A9.688,9.688,0,0,0,12.566,6.1V4.643H11.4V6.118a4.688,4.688,0,0,0-2.563.949,2.479,2.479,0,0,0-.944,2,2.81,2.81,0,0,0,.663,1.9,5.191,5.191,0,0,0,2.1,1.322l.739.273v3.287a8.035,8.035,0,0,1-1.811-.259,8.931,8.931,0,0,1-1.767-.62v1.857a9.084,9.084,0,0,0,3.578.668v1.852h1.168V17.44a4.741,4.741,0,0,0,2.69-1.02,2.68,2.68,0,0,0,.937-2.1A2.5,2.5,0,0,0,15.546,12.582ZM11.393,10.54a3.173,3.173,0,0,1-1.129-.659,1.171,1.171,0,0,1-.313-.835,1.035,1.035,0,0,1,.369-.808,2.06,2.06,0,0,1,1.073-.431Zm1.168,5.235v-2.8a3.665,3.665,0,0,1,1.191.633,1.09,1.09,0,0,1,.356.84Q14.11,15.537,12.561,15.775Z" fill="#61616b" data-color="color-2"></path></g></svg>