<svg xmlns="http://www.w3.org/2000/svg" height="48" width="48" viewBox="0 0 48 48"><title>mobile banking 3</title><g fill="#61616b" class="nc-icon-wrapper"><path d="M30.833,26.789a4.384,4.384,0,0,1-1.522,3.431,7.747,7.747,0,0,1-4.392,1.665V35H23.01V31.971a14.82,14.82,0,0,1-5.843-1.091V27.852a14.65,14.65,0,0,0,2.886,1.012,13.02,13.02,0,0,0,2.957.423V23.919L21.8,23.474a8.477,8.477,0,0,1-3.438-2.161,4.586,4.586,0,0,1-1.084-3.107,4.045,4.045,0,0,1,1.543-3.259A7.648,7.648,0,0,1,23.01,13.4V10.985h1.909v2.369a15.812,15.812,0,0,1,5.526,1.177L29.4,17.158A15.414,15.414,0,0,0,24.919,16.1V21.32l1.091.417a9.986,9.986,0,0,1,3.775,2.21A4.1,4.1,0,0,1,30.833,26.789ZM20.655,18.177a1.917,1.917,0,0,0,.51,1.363,5.223,5.223,0,0,0,1.845,1.077V16.153a3.356,3.356,0,0,0-1.752.7A1.691,1.691,0,0,0,20.655,18.177Zm6.79,8.828a1.788,1.788,0,0,0-.581-1.371,6,6,0,0,0-1.945-1.041v4.579Q27.445,28.785,27.445,27.005Z" fill="#61616b" data-color="color-2"></path><path d="M35,1H13A5.006,5.006,0,0,0,8,6V42a5.006,5.006,0,0,0,5,5H35a5.006,5.006,0,0,0,5-5V6A5.006,5.006,0,0,0,35,1Zm3,38a1,1,0,0,1-1,1H11a1,1,0,0,1-1-1V7a1,1,0,0,1,1-1H37a1,1,0,0,1,1,1Z" fill="#61616b"></path></g></svg>