<svg xmlns="http://www.w3.org/2000/svg" height="64" width="64" viewBox="0 0 64 64"><title>mobile card 2</title><g fill="#61616b" class="nc-icon-wrapper"><path fill="#61616b" d="M41,31v16c0,1.105-0.895,2-2,2H11c-1.105,0-2-0.895-2-2V11c0-1.105,0.895-2,2-2h7V5h-8c-2.757,0-5,2.243-5,5 v48c0,2.757,2.243,5,5,5h30c2.757,0,5-2.243,5-5V31H41z M25,59c-1.654,0-3-1.346-3-3s1.346-3,3-3s3,1.346,3,3S26.654,59,25,59z"></path> <path data-color="color-2" fill="#61616b" d="M60,7V3c0-1.105-0.895-2-2-2H24c-1.105,0-2,0.895-2,2v4H60z"></path> <path data-color="color-2" fill="#61616b" d="M22,12v13c0,1.105,0.895,2,2,2h34c1.105,0,2-0.895,2-2V12H22z M38,20h-8 c-0.552,0-1-0.448-1-1s0.448-1,1-1h8c0.552,0,1,0.448,1,1S38.552,20,38,20z"></path></g></svg>