<svg xmlns="http://www.w3.org/2000/svg" height="32" width="32" viewBox="0 0 32 32"><title>mobile card 4</title><g fill="#61616b" class="nc-icon-wrapper"><path fill="#61616b" d="M11,17c-1.105,0-2-0.895-2-2V2H2C0.895,2,0,2.895,0,4v26c0,1.105,0.895,2,2,2h16c1.105,0,2-0.895,2-2V17H11z M10,28c-1.105,0-2-0.895-2-2c0-1.105,0.895-2,2-2s2,0.895,2,2C12,27.105,11.105,28,10,28z"></path> <path data-color="color-2" fill="#61616b" d="M31,0H12c-0.552,0-1,0.448-1,1v13c0,0.552,0.448,1,1,1h19c0.552,0,1-0.448,1-1V1 C32,0.448,31.552,0,31,0z M30,2v2H13V2H30z M13,13V7h17v6H13z"></path> <rect data-color="color-2" x="15" y="9" fill="#61616b" width="5" height="2"></rect> <rect data-color="color-2" x="26" y="9" fill="#61616b" width="2" height="2"></rect></g></svg>