<svg xmlns="http://www.w3.org/2000/svg" height="32" width="32" viewBox="0 0 32 32"><title>mobile banking 4</title><g fill="#61616b" class="nc-icon-wrapper"><path d="M24,0H8A3,3,0,0,0,5,3V29a3,3,0,0,0,3,3H24a3,3,0,0,0,3-3h0V3A3,3,0,0,0,24,0Zm1,27a1,1,0,0,1-1,1H8a1,1,0,0,1-1-1V5A1,1,0,0,1,8,4H24a1,1,0,0,1,1,1Z" fill="#61616b"></path><path d="M20.338,16.718a7.477,7.477,0,0,0-2.83-1.657l-.818-.312V10.831a11.528,11.528,0,0,1,3.358.8l.785-1.97a11.843,11.843,0,0,0-4.143-.883V7H15.259V8.8a5.729,5.729,0,0,0-3.137,1.163,3.03,3.03,0,0,0-1.158,2.443,3.444,3.444,0,0,0,.813,2.331,6.355,6.355,0,0,0,2.577,1.619l.9.333v4.023a9.776,9.776,0,0,1-2.218-.315,10.93,10.93,0,0,1-2.163-.758v2.27a11.106,11.106,0,0,0,4.381.819V25h1.431V22.665a5.8,5.8,0,0,0,3.293-1.249,3.288,3.288,0,0,0,1.144-2.567A3.071,3.071,0,0,0,20.338,16.718Zm-5.079-2.5a3.932,3.932,0,0,1-1.384-.808,1.439,1.439,0,0,1-.382-1.023,1.267,1.267,0,0,1,.452-.99,2.528,2.528,0,0,1,1.314-.527Zm1.428,6.414V17.2a4.5,4.5,0,0,1,1.459.781,1.343,1.343,0,0,1,.435,1.028Q18.581,20.341,16.687,20.632Z" fill="#61616b" data-color="color-2"></path></g></svg>