<svg xmlns="http://www.w3.org/2000/svg" height="64" width="64" viewBox="0 0 64 64"><title>money 13 3</title><g fill="#61616b" class="nc-icon-wrapper"><path data-color="color-2" fill="#61616b" d="M52,8H12c-0.552,0-1,0.448-1,1v4h42V9C53,8.448,52.552,8,52,8z"></path> <path data-color="color-2" fill="#61616b" d="M42,2H22c-0.552,0-1,0.448-1,1v3h22V3C43,2.448,42.552,2,42,2z"></path> <path fill="#61616b" d="M45.053,25H18.947C18.5,29.231,15.231,32.5,11,32.947v10.105c4.231,0.448,7.5,3.716,7.947,7.947h26.105 c0.448-4.231,3.716-7.5,7.947-7.947V32.947C48.769,32.5,45.5,29.231,45.053,25z M32,44c-3.314,0-6-2.686-6-6s2.686-6,6-6 s6,2.686,6,6S35.314,44,32,44z"></path> <path fill="#61616b" d="M62,15H2c-0.552,0-1,0.448-1,1v44c0,0.552,0.448,1,1,1h60c0.552,0,1-0.448,1-1V16C63,15.448,62.552,15,62,15 z M55,44c0,0.552-0.448,1-1,1c-3.991,0-7,3.009-7,7c0,0.552-0.448,1-1,1H18c-0.552,0-1-0.448-1-1c0-3.991-3.009-7-7-7 c-0.552,0-1-0.448-1-1V32c0-0.552,0.448-1,1-1c3.991,0,7-3.009,7-7c0-0.552,0.448-1,1-1h28c0.552,0,1,0.448,1,1c0,3.991,3.009,7,7,7 c0.552,0,1,0.448,1,1V44z"></path></g></svg>