<svg xmlns="http://www.w3.org/2000/svg" height="32" width="32" viewBox="0 0 32 32"><title>money coins 4</title><g fill="#61616b" class="nc-icon-wrapper"><path fill="#61616b" d="M31,0H1C0.448,0,0,0.448,0,1v22c0,0.552,0.448,1,1,1h15v-4H7.953v-1c0-1.71-1.29-3-3-3h-1V8h1 c1.71,0,3-1.29,3-3V4h16v1c0,1.71,1.29,3,3,3h1v6.239c1.638,0.277,3.021,0.784,4.047,1.474V1C32,0.448,31.552,0,31,0z"></path> <path fill="#61616b" d="M22.049,6H9.857C9.469,7.986,7.939,9.516,5.953,9.904v4.191C7.939,14.484,9.469,16.014,9.857,18h6.213 c0.53-2.284,4.274-4,8.929-4c0.325,0,0.641,0.011,0.953,0.026V9.904C23.967,9.516,22.437,7.986,22.049,6z M16,14 c-1.105,0-2-0.895-2-2s0.895-2,2-2s2,0.895,2,2S17.105,14,16,14z"></path> <path data-color="color-2" fill="#61616b" d="M25,24c-2.951,0-5.403-0.639-7-1.712V24c0,1.657,3.134,3,7,3s7-1.343,7-3v-1.712 C30.403,23.361,27.951,24,25,24z"></path> <path data-color="color-2" fill="#61616b" d="M25,29c-2.951,0-5.403-0.639-7-1.712V29c0,1.657,3.134,3,7,3s7-1.343,7-3v-1.712 C30.403,28.361,27.951,29,25,29z"></path> <ellipse data-color="color-2" fill="#61616b" cx="25" cy="19" rx="7" ry="3"></ellipse></g></svg>