<svg xmlns="http://www.w3.org/2000/svg" height="64" width="64" viewBox="0 0 64 64"><title>money 11 3</title><g fill="#61616b" class="nc-icon-wrapper"><path data-color="color-2" fill="#61616b" d="M45.053,19H18.947C18.5,23.231,15.231,26.5,11,26.947v10.105 c4.231,0.448,7.5,3.716,7.947,7.947h26.105c0.448-4.231,3.716-7.5,7.947-7.947V26.947C48.769,26.5,45.5,23.231,45.053,19z M32,38 c-3.314,0-6-2.686-6-6s2.686-6,6-6s6,2.686,6,6S35.314,38,32,38z"></path> <path fill="#61616b" d="M62,9H2c-0.552,0-1,0.448-1,1v44c0,0.552,0.448,1,1,1h60c0.552,0,1-0.448,1-1V10C63,9.448,62.552,9,62,9z M55,38c0,0.552-0.448,1-1,1c-3.991,0-7,3.009-7,7c0,0.552-0.448,1-1,1H18c-0.552,0-1-0.448-1-1c0-3.991-3.009-7-7-7 c-0.552,0-1-0.448-1-1V26c0-0.552,0.448-1,1-1c3.991,0,7-3.009,7-7c0-0.552,0.448-1,1-1h28c0.552,0,1,0.448,1,1c0,3.991,3.009,7,7,7 c0.552,0,1,0.448,1,1V38z"></path></g></svg>