<svg xmlns="http://www.w3.org/2000/svg" height="48" width="48" viewBox="0 0 48 48"><title>money 11 4</title><g fill="#61616b" class="nc-icon-wrapper"><path data-color="color-2" fill="#61616b" d="M33.071,15H14.929c-0.44,3.061-2.868,5.489-5.929,5.929v6.143 c3.061,0.44,5.489,2.868,5.929,5.929h18.143c0.44-3.061,2.868-5.489,5.929-5.929v-6.143C35.939,20.489,33.511,18.061,33.071,15z M24,28c-2.209,0-4-1.791-4-4s1.791-4,4-4c2.209,0,4,1.791,4,4S26.209,28,24,28z"></path> <path fill="#61616b" d="M46,7H2C1.448,7,1,7.448,1,8v32c0,0.552,0.448,1,1,1h44c0.552,0,1-0.448,1-1V8C47,7.448,46.552,7,46,7z M41,28c0,0.552-0.448,1-1,1c-2.757,0-5,2.243-5,5c0,0.552-0.448,1-1,1H14c-0.552,0-1-0.448-1-1c0-2.757-2.243-5-5-5 c-0.552,0-1-0.448-1-1v-8c0-0.552,0.448-1,1-1c2.757,0,5-2.243,5-5c0-0.552,0.448-1,1-1h20c0.552,0,1,0.448,1,1c0,2.757,2.243,5,5,5 c0.552,0,1,0.448,1,1V28z"></path></g></svg>