<svg xmlns="http://www.w3.org/2000/svg" height="24" width="24" viewBox="0 0 24 24"><title>money growth</title><g fill="#61616b" class="nc-icon-wrapper"><path data-color="color-2" fill="#61616b" d="M18,18c-2.088,0-3.925,1.068-5,2.686V16h-2v8h1h1h1c3.314,0,6-2.686,6-6H18z"></path> <path fill="#61616b" d="M23,0H1C0.448,0,0,0.448,0,1v12c0,0.552,0.448,1,1,1h22c0.552,0,1-0.448,1-1V1C24,0.448,23.552,0,23,0z M12,9c-1.105,0-2-0.895-2-2c0-1.105,0.895-2,2-2c1.105,0,2,0.895,2,2C14,8.105,13.105,9,12,9z"></path></g></svg>