<svg xmlns="http://www.w3.org/2000/svg" height="48" width="48" viewBox="0 0 48 48"><title>money growth 3</title><g fill="#61616b" class="nc-icon-wrapper"><path fill="#61616b" d="M46,1H2C1.448,1,1,1.448,1,2v24c0,0.552,0.448,1,1,1h44c0.552,0,1-0.448,1-1V2C47,1.448,46.552,1,46,1z M13,10H9c-0.552,0-1-0.448-1-1s0.448-1,1-1h4c0.552,0,1,0.448,1,1S13.552,10,13,10z M24,19c-2.757,0-5-2.243-5-5s2.243-5,5-5 s5,2.243,5,5S26.757,19,24,19z M39,20h-4c-0.552,0-1-0.448-1-1s0.448-1,1-1h4c0.552,0,1,0.448,1,1S39.552,20,39,20z"></path> <path data-color="color-2" fill="#61616b" d="M39,32h-4c-4.171,0-7.849,2.142-10,5.381V29h-2v17c0,0.552,0.448,1,1,1h4 c6.617,0,12-5.383,12-12v-2C40,32.448,39.552,32,39,32z"></path></g></svg>