<svg xmlns="http://www.w3.org/2000/svg" height="64" width="64" viewBox="0 0 64 64"><title>money growth 2</title><g fill="#61616b" class="nc-icon-wrapper"><path fill="#61616b" d="M62,1H2C1.448,1,1,1.448,1,2v32c0,0.552,0.448,1,1,1h60c0.552,0,1-0.448,1-1V2C63,1.448,62.552,1,62,1z M17,10H9c-0.552,0-1-0.448-1-1s0.448-1,1-1h8c0.552,0,1,0.448,1,1S17.552,10,17,10z M32,25c-3.86,0-7-3.14-7-7s3.14-7,7-7 s7,3.14,7,7S35.86,25,32,25z M55,28h-8c-0.552,0-1-0.448-1-1s0.448-1,1-1h8c0.552,0,1,0.448,1,1S55.552,28,55,28z"></path> <path data-color="color-2" fill="#61616b" d="M50,45h-4c-5.558,0-10.409,3.046-13,7.549V37h-2v23v2c0,0.552,0.448,1,1,1h4 c8.271,0,15-6.729,15-15v-2C51,45.448,50.552,45,50,45z"></path></g></svg>