<svg xmlns="http://www.w3.org/2000/svg" height="32" width="32" viewBox="0 0 32 32"><title>money 11 5</title><g fill="#61616b" class="nc-icon-wrapper"><path fill="#61616b" d="M31,4H1C0.448,4,0,4.448,0,5v22c0,0.552,0.448,1,1,1h30c0.552,0,1-0.448,1-1V5C32,4.448,31.552,4,31,4z M28,20h-1c-1.71,0-3,1.29-3,3v1H8v-1c0-1.71-1.29-3-3-3H4v-8h1c1.71,0,3-1.29,3-3V8h16v1c0,1.71,1.29,3,3,3h1V20z"></path> <path data-color="color-2" fill="#61616b" d="M22.096,10H9.904C9.516,11.986,7.986,13.516,6,13.904v4.191 C7.986,18.484,9.516,20.014,9.904,22h12.191c0.389-1.986,1.918-3.516,3.904-3.904v-4.191C24.014,13.516,22.484,11.986,22.096,10z M16,19c-1.657,0-3-1.343-3-3s1.343-3,3-3s3,1.343,3,3S17.657,19,16,19z"></path></g></svg>