<svg xmlns="http://www.w3.org/2000/svg" height="48" width="48" viewBox="0 0 48 48"><title>money coins 3</title><g fill="#61616b" class="nc-icon-wrapper"><path data-color="color-2" fill="#61616b" d="M37,43c-4.421,0-7.943-0.917-10-2.458V43c0,2.28,4.299,4,10,4s10-1.72,10-4v-2.458 C44.943,42.083,41.421,43,37,43z"></path> <path data-color="color-2" fill="#61616b" d="M37,37c-4.421,0-7.943-0.917-10-2.458V37c0,2.28,4.299,4,10,4s10-1.72,10-4v-2.458 C44.943,36.083,41.421,37,37,37z"></path> <path data-color="color-2" fill="#61616b" d="M37,31c-4.421,0-7.943-0.917-10-2.458V31c0,2.28,4.299,4,10,4s10-1.72,10-4v-2.458 C44.943,30.083,41.421,31,37,31z"></path> <path data-color="color-2" fill="#61616b" d="M37,21c-5.701,0-10,1.72-10,4s4.299,4,10,4s10-1.72,10-4S42.701,21,37,21z"></path> <path fill="#61616b" d="M25,25c0-3.589,4.822-6,12-6c2.26,0,4.284,0.24,6,0.679v-1.857V2c0-0.552-0.448-1-1-1H2C1.448,1,1,1.448,1,2 v28c0,0.552,0.448,1,1,1h23V25z M18,16c0-2.209,1.791-4,4-4s4,1.791,4,4s-1.791,4-4,4S18,18.209,18,16z"></path></g></svg>