<svg xmlns="http://www.w3.org/2000/svg" height="24" width="24" viewBox="0 0 24 24"><title>money transfer</title><g fill="#61616b" class="nc-icon-wrapper"><path d="M23.854,8.146l-4-4A.5.5,0,0,0,19,4.5V7H16.894A6.988,6.988,0,0,0,7.106,7H2A1,1,0,0,0,2,9H5.683a6.93,6.93,0,0,0,0,6H.5a.5.5,0,0,0-.354.854l4,4A.5.5,0,0,0,4.5,20a.493.493,0,0,0,.191-.038A.5.5,0,0,0,5,19.5V17H7.106a6.988,6.988,0,0,0,9.788,0H22a1,1,0,0,0,0-2H18.317a6.93,6.93,0,0,0,0-6H23.5a.5.5,0,0,0,.354-.854ZM13,14.5a.5.5,0,0,1-.5.5h-1a.5.5,0,0,1-.5-.5v-5a.5.5,0,0,1,.5-.5h1a.5.5,0,0,1,.5.5Z" fill="#61616b"></path></g></svg>