<svg xmlns="http://www.w3.org/2000/svg" height="48" width="48" viewBox="0 0 48 48"><title>money time 3</title><g fill="#61616b" class="nc-icon-wrapper"><path fill="#61616b" d="M22,1C10.402,1,1,10.402,1,22s9.402,21,21,21c1.021,0,2.018-0.098,3-0.239V25c0-3.589,4.822-6,12-6 c2.199,0,4.174,0.229,5.86,0.646C41.688,9.157,32.801,1,22,1z M23,22c0,0.552-0.447,1-1,1H12c-0.553,0-1-0.448-1-1s0.447-1,1-1h9v-9 c0-0.552,0.447-1,1-1s1,0.448,1,1V22z"></path> <path data-color="color-2" fill="#61616b" d="M37,43c-4.421,0-7.943-0.917-10-2.458V43c0,2.28,4.299,4,10,4s10-1.72,10-4v-2.458 C44.943,42.083,41.421,43,37,43z"></path> <path data-color="color-2" fill="#61616b" d="M37,37c-4.421,0-7.943-0.917-10-2.458V37c0,2.28,4.299,4,10,4s10-1.72,10-4v-2.458 C44.943,36.083,41.421,37,37,37z"></path> <path data-color="color-2" fill="#61616b" d="M37,31c-4.421,0-7.943-0.917-10-2.458V31c0,2.28,4.299,4,10,4s10-1.72,10-4v-2.458 C44.943,30.083,41.421,31,37,31z"></path> <path data-color="color-2" fill="#61616b" d="M37,21c-5.701,0-10,1.72-10,4s4.299,4,10,4s10-1.72,10-4S42.701,21,37,21z"></path></g></svg>