<svg xmlns="http://www.w3.org/2000/svg" height="32" width="32" viewBox="0 0 32 32"><title>money time 4</title><g fill="#61616b" class="nc-icon-wrapper"><path data-color="color-2" fill="#61616b" d="M25,24c-2.951,0-5.403-0.639-7-1.712V24c0,1.657,3.134,3,7,3s7-1.343,7-3v-1.712 C30.403,23.361,27.951,24,25,24z"></path> <path data-color="color-2" fill="#61616b" d="M25,29c-2.951,0-5.403-0.639-7-1.712V29c0,1.657,3.134,3,7,3s7-1.343,7-3v-1.712 C30.403,28.361,27.951,29,25,29z"></path> <ellipse data-color="color-2" fill="#61616b" cx="25" cy="19" rx="7" ry="3"></ellipse> <path fill="#61616b" d="M14,0C6.28,0,0,6.28,0,14s6.28,14,14,14c0.681,0,1.345-0.065,2-0.16v-9.283C16,16,19.972,14,25,14 c1.068,0,2.067,0.087,2.988,0.245C27.989,14.162,28,14.083,28,14C28,6.28,21.72,0,14,0z M15,15H7v-2h6V7h2V15z"></path></g></svg>