<svg xmlns="http://www.w3.org/2000/svg" height="48" width="48" viewBox="0 0 48 48"><title>money 13 4</title><g fill="#61616b" class="nc-icon-wrapper"><path data-color="color-2" fill="#61616b" d="M43,8V4c0-0.552-0.448-1-1-1H6C5.448,3,5,3.448,5,4v4H43z"></path> <path fill="#61616b" d="M33.071,18H14.929c-0.44,3.061-2.868,5.489-5.929,5.929v6.143c3.061,0.44,5.489,2.868,5.929,5.929h18.143 c0.44-3.061,2.868-5.489,5.929-5.929v-6.143C35.939,23.489,33.511,21.061,33.071,18z M24,31c-2.209,0-4-1.791-4-4s1.791-4,4-4 c2.209,0,4,1.791,4,4S26.209,31,24,31z"></path> <path fill="#61616b" d="M46,10H2c-0.552,0-1,0.448-1,1v32c0,0.552,0.448,1,1,1h44c0.552,0,1-0.448,1-1V11C47,10.448,46.552,10,46,10 z M41,31c0,0.552-0.448,1-1,1c-2.757,0-5,2.243-5,5c0,0.552-0.448,1-1,1H14c-0.552,0-1-0.448-1-1c0-2.757-2.243-5-5-5 c-0.552,0-1-0.448-1-1v-8c0-0.552,0.448-1,1-1c2.757,0,5-2.243,5-5c0-0.552,0.448-1,1-1h20c0.552,0,1,0.448,1,1c0,2.757,2.243,5,5,5 c0.552,0,1,0.448,1,1V31z"></path></g></svg>