<svg xmlns="http://www.w3.org/2000/svg" height="32" width="32" viewBox="0 0 32 32"><title>money 13 5</title><g fill="#61616b" class="nc-icon-wrapper"><path fill="#61616b" d="M22.096,13H9.904C9.516,14.986,7.986,16.516,6,16.904v4.191C7.986,21.484,9.516,23.014,9.904,25h12.191 c0.389-1.986,1.918-3.516,3.904-3.904v-4.191C24.014,16.516,22.484,14.986,22.096,13z M16,22c-1.657,0-3-1.343-3-3s1.343-3,3-3 s3,1.343,3,3S17.657,22,16,22z"></path> <path fill="#61616b" d="M31,7H1C0.448,7,0,7.448,0,8v22c0,0.552,0.448,1,1,1h30c0.552,0,1-0.448,1-1V8C32,7.448,31.552,7,31,7z M28,23h-1c-1.71,0-3,1.29-3,3v1H8v-1c0-1.71-1.29-3-3-3H4v-8h1c1.71,0,3-1.29,3-3v-1h16v1c0,1.71,1.29,3,3,3h1V23z"></path> <path data-color="color-2" fill="#61616b" d="M29,5H3V2c0-0.552,0.448-1,1-1h24c0.552,0,1,0.448,1,1V5z"></path></g></svg>