<svg xmlns="http://www.w3.org/2000/svg" height="64" width="64" viewBox="0 0 64 64"><title>money transfer 2</title><g fill="#61616b" class="nc-icon-wrapper"><path d="M56.576,23.905A.986.986,0,0,0,57,24a1.007,1.007,0,0,0,.641-.231l6-5a1,1,0,0,0,0-1.538l-6-5A1,1,0,0,0,56,13v4H46.669a20.932,20.932,0,0,0-29.338,0H2a1,1,0,0,0,0,2H15.539a20.886,20.886,0,0,0,0,26H8V41a1,1,0,0,0-1.641-.769l-6,5a1,1,0,0,0,0,1.538l6,5A1.007,1.007,0,0,0,7,52a.986.986,0,0,0,.424-.095A1,1,0,0,0,8,51V47h9.331a20.932,20.932,0,0,0,29.338,0H62a1,1,0,0,0,0-2H48.461a20.886,20.886,0,0,0,0-26H56v4A1,1,0,0,0,56.576,23.905Zm-15.869,8.8-8,8a1,1,0,0,1-1.414,0l-8-8a1,1,0,0,1,0-1.414l8-8a1,1,0,0,1,1.414,0l8,8A1,1,0,0,1,40.707,32.707Z" fill="#61616b"></path></g></svg>