<svg xmlns="http://www.w3.org/2000/svg" height="48" width="48" viewBox="0 0 48 48"><title>money 12 4</title><g fill="#61616b" class="nc-icon-wrapper"><path fill="#61616b" d="M33.071,20H14.929c-0.44,3.061-2.868,5.489-5.929,5.929v6.143c3.061,0.44,5.489,2.868,5.929,5.929h18.143 c0.44-3.061,2.868-5.489,5.929-5.929v-6.143C35.939,25.489,33.511,23.061,33.071,20z M24,33c-2.209,0-4-1.791-4-4s1.791-4,4-4 c2.209,0,4,1.791,4,4S26.209,33,24,33z"></path> <path fill="#61616b" d="M46,12H2c-0.552,0-1,0.448-1,1v32c0,0.552,0.448,1,1,1h44c0.552,0,1-0.448,1-1V13C47,12.448,46.552,12,46,12 z M41,33c0,0.552-0.448,1-1,1c-2.757,0-5,2.243-5,5c0,0.552-0.448,1-1,1H14c-0.552,0-1-0.448-1-1c0-2.757-2.243-5-5-5 c-0.552,0-1-0.448-1-1v-8c0-0.552,0.448-1,1-1c2.757,0,5-2.243,5-5c0-0.552,0.448-1,1-1h20c0.552,0,1,0.448,1,1c0,2.757,2.243,5,5,5 c0.552,0,1,0.448,1,1V33z"></path> <path data-color="color-2" fill="#61616b" d="M41,10H7V8c0-0.552,0.448-1,1-1h32c0.552,0,1,0.448,1,1V10z"></path> <path data-color="color-2" fill="#61616b" d="M33,5H15V3c0-0.552,0.448-1,1-1h16c0.552,0,1,0.448,1,1V5z"></path></g></svg>