<svg xmlns="http://www.w3.org/2000/svg" height="64" width="64" viewBox="0 0 64 64"><title>money bag 3</title><g fill="#61616b" class="nc-icon-wrapper"><path data-color="color-2" d="M22.882,16H41.118l3.357-6.713a1.815,1.815,0,0,0-1.049-2.532l-2.957-.986-2.338,4.678a1,1,0,1,1-1.789-.894L39.9,2.447A1,1,0,0,0,39,1H25a1,1,0,0,0-.895,1.447l3.553,7.106a1,1,0,1,1-1.789.894L23.53,5.769l-2.955.985a1.816,1.816,0,0,0-1.05,2.533Z" fill="#61616b"></path><path d="M28.082,34.361c0,1.739,1.271,2.121,2.916,2.8V32C29.466,32.243,28.082,32.805,28.082,34.361Z" fill="#61616b"></path><path d="M33,41.9v5.323c1.931-.312,3.034-1.152,3.034-2.523C36.032,43.062,34.637,42.5,33,41.9Z" fill="#61616b"></path><path d="M40.422,18H23.578C20.45,21.417,7,36.7,7,46.875,7,60.905,22.662,63,32,63s25-2.095,25-16.125C57,36.7,43.55,21.417,40.422,18ZM38.213,48.461A9.466,9.466,0,0,1,32.995,50.3V54H31V50.506a18.482,18.482,0,0,1-7-1.276V45.685a18,18,0,0,0,7,1.677v-6.3l-1.572-.5A9.913,9.913,0,0,1,25.4,38.033,5.381,5.381,0,0,1,24.132,34.4a4.742,4.742,0,0,1,1.807-3.821A9.706,9.706,0,0,1,31,28.762V26h2v2.758a19.168,19.168,0,0,1,6.545,1.335l-1.226,3.075A18.888,18.888,0,0,0,33,31.932v6.132l1.352.465a11.673,11.673,0,0,1,4.42,2.588A4.788,4.788,0,0,1,40,44.445,5.129,5.129,0,0,1,38.213,48.461Z" fill="#61616b"></path></g></svg>