<svg xmlns="http://www.w3.org/2000/svg" height="48" width="48" viewBox="0 0 48 48"><title>money bag 4</title><g fill="#61616b" class="nc-icon-wrapper"><path d="M21.213,25.988a1.6,1.6,0,0,0,.424,1.136,4.377,4.377,0,0,0,1.537.9V24.3a2.794,2.794,0,0,0-1.458.586A1.4,1.4,0,0,0,21.213,25.988Z" fill="#61616b"></path><path d="M24.765,31.334v3.814q2.1-.324,2.1-1.806a1.489,1.489,0,0,0-.484-1.142A4.982,4.982,0,0,0,24.765,31.334Z" fill="#61616b"></path><path d="M30.345,14H17.655C15.158,16.824,6,27.679,6,35c0,4.481,2.338,12,18,12s18-7.519,18-12C42,27.679,32.842,16.824,30.345,14ZM28.424,36.02a6.457,6.457,0,0,1-3.659,1.388V40H23.174V37.48a12.329,12.329,0,0,1-4.866-.91V34.048a12.151,12.151,0,0,0,2.4.843,10.845,10.845,0,0,0,2.463.353V30.771l-1-.37a7.088,7.088,0,0,1-2.864-1.8,3.819,3.819,0,0,1-.9-2.589A3.365,3.365,0,0,1,19.688,23.3a6.364,6.364,0,0,1,3.486-1.292V20h1.591v1.973a13.2,13.2,0,0,1,4.6.981L28.5,25.142a12.847,12.847,0,0,0-3.73-.885V28.61l.909.347a8.3,8.3,0,0,1,3.145,1.837,3.411,3.411,0,0,1,.872,2.369A3.652,3.652,0,0,1,28.424,36.02Z" fill="#61616b"></path><path data-color="color-2" d="M17.277,12H30.723l3.145-5.5a1,1,0,0,0-.513-1.431l-2.128-.81-2.1,4.192a1,1,0,1,1-1.789-.894l2.552-5.106A1,1,0,0,0,29,1H19a1,1,0,0,0-.895,1.447l2.553,5.106a1,1,0,1,1-1.789.894l-2.1-4.192-2.129.81A1,1,0,0,0,14.132,6.5Z" fill="#61616b"></path></g></svg>