<svg xmlns="http://www.w3.org/2000/svg" height="32" width="32" viewBox="0 0 32 32"><title>money 12 5</title><g fill="#61616b" class="nc-icon-wrapper"><path fill="#61616b" d="M22.096,14H9.904C9.516,15.986,7.986,17.516,6,17.904v4.191C7.986,22.484,9.516,24.014,9.904,26h12.191 c0.389-1.986,1.918-3.516,3.904-3.904v-4.191C24.014,17.516,22.484,15.986,22.096,14z M16,23c-1.657,0-3-1.343-3-3s1.343-3,3-3 s3,1.343,3,3S17.657,23,16,23z"></path> <path fill="#61616b" d="M31,8H1C0.448,8,0,8.448,0,9v22c0,0.552,0.448,1,1,1h30c0.552,0,1-0.448,1-1V9C32,8.448,31.552,8,31,8z M28,24h-1c-1.71,0-3,1.29-3,3v1H8v-1c0-1.71-1.29-3-3-3H4v-8h1c1.71,0,3-1.29,3-3v-1h16v1c0,1.71,1.29,3,3,3h1V24z"></path> <rect data-color="color-2" x="5" y="4" fill="#61616b" width="22" height="2"></rect> <rect data-color="color-2" x="10" fill="#61616b" width="12" height="2"></rect></g></svg>