<svg xmlns="http://www.w3.org/2000/svg" height="64" width="64" viewBox="0 0 64 64"><title>money 12 3</title><g fill="#61616b" class="nc-icon-wrapper"><path fill="#61616b" d="M45.053,23H18.947C18.5,27.231,15.231,30.5,11,30.947v10.105c4.231,0.448,7.5,3.716,7.947,7.947h26.105 c0.448-4.231,3.716-7.5,7.947-7.947V30.947C48.769,30.5,45.5,27.231,45.053,23z M32,42c-3.314,0-6-2.686-6-6s2.686-6,6-6 s6,2.686,6,6S35.314,42,32,42z"></path> <path fill="#61616b" d="M62,13H2c-0.552,0-1,0.448-1,1v44c0,0.552,0.448,1,1,1h60c0.552,0,1-0.448,1-1V14C63,13.448,62.552,13,62,13 z M55,42c0,0.552-0.448,1-1,1c-3.991,0-7,3.009-7,7c0,0.552-0.448,1-1,1H18c-0.552,0-1-0.448-1-1c0-3.991-3.009-7-7-7 c-0.552,0-1-0.448-1-1V30c0-0.552,0.448-1,1-1c3.991,0,7-3.009,7-7c0-0.552,0.448-1,1-1h28c0.552,0,1,0.448,1,1c0,3.991,3.009,7,7,7 c0.552,0,1,0.448,1,1V42z"></path> <path data-color="color-2" fill="#61616b" d="M56,11H8V5c0-0.552,0.448-1,1-1h46c0.552,0,1,0.448,1,1V11z"></path></g></svg>