<svg xmlns="http://www.w3.org/2000/svg" height="24" width="24" viewBox="0 0 24 24"><title>mortgage</title><g fill="#61616b" class="nc-icon-wrapper"><path d="M20,16H16.7a8.806,8.806,0,0,1,.266,2.011,1,1,0,0,1-1,.989H8a1,1,0,0,1,0-2h7a4,4,0,0,0-4-4H7c-1.2-1.711-3.695-2-4.9-2H0v8.5l8.192,3.763a4.388,4.388,0,0,0,3.248.268L24,19.667S23.208,16,20,16Z" fill="#61616b"></path><path data-color="color-2" d="M21.515,3.143l-5-3a1,1,0,0,0-1.03,0l-5,3A1,1,0,0,0,10,4v6a1,1,0,0,0,1,1h3V7h4v4h3a1,1,0,0,0,1-1V4A1,1,0,0,0,21.515,3.143Z" fill="#61616b"></path></g></svg>