<svg xmlns="http://www.w3.org/2000/svg" height="32" width="32" viewBox="0 0 32 32"><title>mortgage 4</title><g fill="#61616b" class="nc-icon-wrapper"><path data-color="color-2" d="M28,14H24V10a1,1,0,0,0-1-1H21a1,1,0,0,0-1,1v4H16a1,1,0,0,1-1-1V6a1,1,0,0,1,.36-.769l6-5a1,1,0,0,1,1.28,0l6,5A1,1,0,0,1,29,6v7A1,1,0,0,1,28,14Z" fill="#61616b"></path><path d="M29.05,20H22.976c.015.2.027.4.023.607A2.482,2.482,0,0,1,20.5,23H11a1,1,0,0,1-1-1h0a1,1,0,0,1,1-1h9.5a.492.492,0,0,0,.5-.472A4.505,4.505,0,0,0,16.5,16H9.179A6.475,6.475,0,0,0,4.5,14H.5a.5.5,0,0,0-.5.5v10a.5.5,0,0,0,.276.447L9.741,29.68a7.467,7.467,0,0,0,5.613.443l14.683-4.637a2.8,2.8,0,0,0,1.948-2.972A2.905,2.905,0,0,0,29.05,20Z" fill="#61616b"></path></g></svg>