<svg xmlns="http://www.w3.org/2000/svg" height="64" width="64" viewBox="0 0 64 64"><title>name card 2</title><g fill="#61616b" class="nc-icon-wrapper"><path d="M61,4H3A1,1,0,0,0,2,5V39a1,1,0,0,0,1,1H21V36a3,3,0,0,1,3-3H40a3,3,0,0,1,3,3v4H61a1,1,0,0,0,1-1V5A1,1,0,0,0,61,4ZM47,27H17a1,1,0,0,1,0-2H47a1,1,0,0,1,0,2Zm0-10H17a1,1,0,0,1,0-2H47a1,1,0,0,1,0,2Z" fill="#61616b"></path> <path d="M46,58H34V44h6a1,1,0,0,0,1-1V36a1,1,0,0,0-1-1H24a1,1,0,0,0-1,1v7a1,1,0,0,0,1,1h6V58H18a1,1,0,0,0,0,2H46a1,1,0,0,0,0-2Z" fill="#61616b" data-color="color-2"></path></g></svg>