<svg xmlns="http://www.w3.org/2000/svg" height="48" width="48" viewBox="0 0 48 48"><title>name card 3</title><g fill="#61616b" class="nc-icon-wrapper"><path d="M34,42H25V34h5a1,1,0,0,0,1-1V27a1,1,0,0,0-1-1H18a1,1,0,0,0-1,1v6a1,1,0,0,0,1,1h5v8H14a1,1,0,0,0,0,2H34a1,1,0,0,0,0-2Z" fill="#61616b" data-color="color-2"></path> <path d="M46,4H2A1,1,0,0,0,1,5V29a1,1,0,0,0,1,1H15V27a3,3,0,0,1,3-3H30a3,3,0,0,1,3,3v3H46a1,1,0,0,0,1-1V5A1,1,0,0,0,46,4ZM34,20H14a1,1,0,0,1,0-2H34a1,1,0,0,1,0,2Zm0-7H14a1,1,0,0,1,0-2H34a1,1,0,0,1,0,2Z" fill="#61616b"></path></g></svg>