<svg xmlns="http://www.w3.org/2000/svg" height="64" width="64" viewBox="0 0 64 64"><title>negative judgement 2</title><g fill="#61616b" class="nc-icon-wrapper"><path d="M32,15h0a7,7,0,0,1-7-7h0a7,7,0,0,1,7-7h0a7,7,0,0,1,7,7h0A7,7,0,0,1,32,15Z" fill="#61616b" data-color="color-2"></path><path d="M38,17H37l-5,5-5-5H26a6,6,0,0,0-6,6V33H44V23A6,6,0,0,0,38,17Z" fill="#61616b" data-color="color-2"></path><path d="M53,35H11a1,1,0,0,0,0,2h3V62a1,1,0,0,0,1,1H49a1,1,0,0,0,1-1V37h3a1,1,0,0,0,0-2ZM38.707,54.293a1,1,0,1,1-1.414,1.414L32,50.414l-5.293,5.293a1,1,0,0,1-1.414-1.414L30.586,49l-5.293-5.293a1,1,0,0,1,1.414-1.414L32,47.586l5.293-5.293a1,1,0,0,1,1.414,1.414L33.414,49Z" fill="#61616b"></path></g></svg>