<svg xmlns="http://www.w3.org/2000/svg" height="48" width="48" viewBox="0 0 48 48"><title>negative judgement 3</title><g fill="#61616b" class="nc-icon-wrapper"><path d="M24,11h0a5,5,0,0,1-5-5h0a5,5,0,0,1,5-5h0a5,5,0,0,1,5,5h0A5,5,0,0,1,24,11Z" fill="#61616b" data-color="color-2"></path><path d="M33,17a4,4,0,0,0-4-4H28l-4,4-4-4H19a4,4,0,0,0-4,4v7H33Z" fill="#61616b" data-color="color-2"></path><path d="M41,27a1,1,0,0,0-1-1H7.966a1,1,0,0,0-1,1.035h0a1,1,0,0,0,1,.965H10V46a1,1,0,0,0,1,1H37a1,1,0,0,0,1-1V28h2a1,1,0,0,0,1-1ZM28.707,40.293a1,1,0,1,1-1.414,1.414L24,38.414l-3.293,3.293a1,1,0,0,1-1.414-1.414L22.586,37l-3.293-3.293a1,1,0,0,1,1.414-1.414L24,35.586l3.293-3.293a1,1,0,0,1,1.414,1.414L25.414,37Z" fill="#61616b"></path></g></svg>