<svg xmlns="http://www.w3.org/2000/svg" height="32" width="32" viewBox="0 0 32 32"><title>net 5</title><g fill="#61616b" class="nc-icon-wrapper"><path fill="#61616b" d="M31,15h-2.468c-1.175-0.852-5.058-7.296-5.38-8.899l1.463-2.42c0.286-0.473,0.135-1.088-0.338-1.373 c-0.476-0.286-1.089-0.135-1.373,0.338l-1.427,2.36c-1.281,0.606-9.674,0.606-10.955,0l-1.427-2.36 C8.811,2.173,8.197,2.021,7.723,2.308c-0.473,0.285-0.624,0.9-0.338,1.373l1.463,2.42C8.526,7.704,4.643,14.148,3.468,15H1 c-0.553,0-1,0.447-1,1s0.447,1,1,1h2.468c1.175,0.852,5.057,7.295,5.38,8.899l-1.463,2.42c-0.286,0.473-0.135,1.088,0.338,1.373 c0.476,0.286,1.088,0.133,1.373-0.338l1.427-2.36c1.28-0.606,9.675-0.606,10.955,0l1.427,2.36c0.285,0.471,0.897,0.624,1.373,0.338 c0.473-0.285,0.624-0.9,0.338-1.373l-1.463-2.42c0.322-1.604,4.205-8.047,5.38-8.899H31c0.553,0,1-0.447,1-1S31.553,15,31,15z M23.109,10.687c1.042,1.839,1.962,3.275,2.762,4.313h-2.758c-0.68-0.634-2.396-3.25-2.784-4.229l1.521-2.516 C22.149,8.908,22.547,9.693,23.109,10.687z M19.088,19.269c-0.207,0.365-0.373,0.681-0.5,0.957 c-0.587-0.085-1.412-0.139-2.588-0.139s-2.001,0.054-2.588,0.139c-0.127-0.276-0.293-0.592-0.5-0.957 C12.36,18.297,11.518,16.924,10.68,16c0.838-0.924,1.681-2.297,2.232-3.269c0.207-0.365,0.373-0.681,0.5-0.957 c0.587,0.085,1.412,0.139,2.588,0.139s2.001-0.054,2.588-0.139c0.127,0.276,0.293,0.592,0.5,0.957 c0.552,0.972,1.395,2.345,2.232,3.269C20.482,16.924,19.64,18.297,19.088,19.269z M16,7.462c1.8,0,3.117-0.068,4.098-0.174 L18.616,9.74c-0.922,0.231-4.309,0.231-5.231,0l-1.482-2.452C12.883,7.394,14.2,7.462,16,7.462z M11.671,10.771 C11.283,11.75,9.567,14.366,8.887,15H6.129c0.799-1.038,1.72-2.474,2.762-4.313c0.562-0.993,0.961-1.778,1.26-2.431L11.671,10.771z M8.891,21.313C7.849,19.474,6.928,18.038,6.129,17h2.758c0.68,0.634,2.395,3.249,2.784,4.228l-1.521,2.516 C9.851,23.091,9.453,22.307,8.891,21.313z M16,24.538c-1.8,0-3.118,0.068-4.098,0.174l1.482-2.452c0.921-0.231,4.311-0.231,5.232,0 l1.482,2.452C19.118,24.606,17.8,24.538,16,24.538z M20.329,21.228c0.389-0.979,2.104-3.594,2.784-4.228h2.758 c-0.799,1.038-1.72,2.474-2.762,4.313c-0.562,0.993-0.96,1.778-1.259,2.431L20.329,21.228z"></path> <circle data-color="color-2" fill="#61616b" cx="16" cy="16" r="2"></circle></g></svg>