<svg xmlns="http://www.w3.org/2000/svg" height="16" width="16" viewBox="0 0 16 16"><title>net 2</title><g fill="#61616b" class="nc-icon-wrapper"><path fill="#61616b" d="M16,7h-1.3c-0.6-0.7-2.1-3.1-2.5-4.1L13,1.7l-1.7-1l-0.8,1.3c-0.9,0.2-4.1,0.2-5,0L4.7,0.6L3,1.7l0.8,1.3 C3.4,3.9,2,6.3,1.3,7H0v2h1.3c0.6,0.7,2.1,3.1,2.5,4.1L3,14.3l1.7,1l0.8-1.3c0.9-0.2,4.1-0.2,5,0l0.8,1.3l1.7-1l-0.8-1.3 c0.3-0.9,1.8-3.4,2.5-4.1H16V7z M12.2,7H9.8L11,5C11.1,5.1,11.9,6.6,12.2,7z M9.2,4L8,6.1L6.8,4C7.5,4.1,8.6,4.1,9.2,4z M6.2,7H3.8 C4.1,6.6,4.6,5.7,5,5L6.2,7z M3.8,9h2.4L5,11C4.8,10.5,4.2,9.5,3.8,9z M6.8,12l1.2-2l1.2,2C8.6,11.9,7.5,11.8,6.8,12z M9.8,9h2.4 c-0.3,0.4-0.9,1.3-1.2,2L9.8,9z"></path></g></svg>