<svg xmlns="http://www.w3.org/2000/svg" height="48" width="48" viewBox="0 0 48 48"><title>new construction 3</title><g fill="#61616b" class="nc-icon-wrapper"><path d="M28,16H10a1,1,0,0,0-1,1V45a1,1,0,0,0,1,1H28a1,1,0,0,0,1-1V17A1,1,0,0,0,28,16ZM23,38H15a1,1,0,0,1,0-2h8a1,1,0,0,1,0,2Zm0-6H15a1,1,0,0,1,0-2h8a1,1,0,0,1,0,2Zm0-6H15a1,1,0,0,1,0-2h8a1,1,0,0,1,0,2Z" fill="#61616b" data-color="color-2"></path><path d="M46.263,8.035l-22-6A1,1,0,0,0,23,3V14h5a3,3,0,0,1,3,3V46H46a1,1,0,0,0,1-1V9A1,1,0,0,0,46.263,8.035ZM37,37a1,1,0,0,1-2,0V15a1,1,0,0,1,2,0Zm6,0a1,1,0,0,1-2,0V17a1,1,0,0,1,2,0Z" fill="#61616b"></path><path d="M2,24a1,1,0,0,0-1,1V45a1,1,0,0,0,1,1H7V24Z" fill="#61616b"></path></g></svg>