<svg xmlns="http://www.w3.org/2000/svg" height="32" width="32" viewBox="0 0 32 32"><title>new construction 4</title><g fill="#61616b" class="nc-icon-wrapper"><rect data-color="color-2" x="22" y="7" width="2" height="19" rx="0.5" fill="#61616b"></rect><rect data-color="color-2" x="26" y="9" width="2" height="17" rx="0.5" fill="#61616b"></rect><path d="M31.336,5.059l-14-5A1,1,0,0,0,16,1V9h2V2.419L30,6.705V29H20V12a1,1,0,0,0-1-1H6a1,1,0,0,0-1,1V29H3V16H1a1,1,0,0,0-1,1V30a1,1,0,0,0,1,1H31a1,1,0,0,0,1-1V6A1,1,0,0,0,31.336,5.059ZM14.5,26h-4a.5.5,0,0,1-.5-.5v-1a.5.5,0,0,1,.5-.5h4a.5.5,0,0,1,.5.5v1A.5.5,0,0,1,14.5,26Zm0-4h-4a.5.5,0,0,1-.5-.5v-1a.5.5,0,0,1,.5-.5h4a.5.5,0,0,1,.5.5v1A.5.5,0,0,1,14.5,22Zm0-4h-4a.5.5,0,0,1-.5-.5v-1a.5.5,0,0,1,.5-.5h4a.5.5,0,0,1,.5.5v1A.5.5,0,0,1,14.5,18Z" fill="#61616b"></path></g></svg>