<svg xmlns="http://www.w3.org/2000/svg" height="32" width="32" viewBox="0 0 32 32"><title>nodes 4</title><g fill="#61616b" class="nc-icon-wrapper"><path d="M28,19.163V12.837a3.491,3.491,0,1,0-3.463-5.819L19.422,4.227a3.5,3.5,0,1,0-6.843,0L7.463,7.018A3.493,3.493,0,1,0,4,12.837v6.326a3.491,3.491,0,1,0,3.463,5.819l5.115,2.791a3.5,3.5,0,1,0,6.843,0l5.116-2.791A3.493,3.493,0,1,0,28,19.163Zm-20.632-7.1,5.246,3.1a3.144,3.144,0,0,0,0,1.678l-5.246,3.1A3.483,3.483,0,0,0,6,19.163V12.837A3.483,3.483,0,0,0,7.368,12.061Zm16.245-1.722-5.245,3.1A3.483,3.483,0,0,0,17,12.663V6.837a3.493,3.493,0,0,0,1.463-.854l5.115,2.79a3.285,3.285,0,0,0,.035,1.566ZM15,6.837v5.826a3.486,3.486,0,0,0-1.367.776l-5.246-3.1a3.285,3.285,0,0,0,.035-1.566l5.115-2.791A3.512,3.512,0,0,0,15,6.837ZM8.387,21.661l5.246-3.1A3.486,3.486,0,0,0,15,19.337v5.826a3.493,3.493,0,0,0-1.463.854l-5.115-2.79a3.285,3.285,0,0,0-.035-1.566ZM17,19.337a3.483,3.483,0,0,0,1.368-.776l5.245,3.1a3.285,3.285,0,0,0-.035,1.566l-5.115,2.791A3.5,3.5,0,0,0,17,25.164Zm2.387-2.5a3.179,3.179,0,0,0,0-1.68l5.245-3.1A3.483,3.483,0,0,0,26,12.837v6.326a3.483,3.483,0,0,0-1.368.776Z" fill="#61616b"></path></g></svg>