<svg xmlns="http://www.w3.org/2000/svg" height="16" width="16" viewBox="0 0 16 16"><title>nodes</title><g fill="#61616b" class="nc-icon-wrapper"><circle cx="8" cy="8" r="2" fill="#61616b" data-color="color-2"></circle><path d="M2,5.289V8A1,1,0,0,0,4,8V5.289a2.5,2.5,0,1,0-2,0Z" fill="#61616b"></path><path d="M14,10.711V8a1,1,0,0,0-2,0v2.711a2.5,2.5,0,1,0,2,0Z" fill="#61616b"></path><path d="M8,4h2.711a2.5,2.5,0,1,0,0-2H8A1,1,0,0,0,8,4Z" fill="#61616b"></path><path d="M8,12H5.289a2.5,2.5,0,1,0,0,2H8a1,1,0,0,0,0-2Z" fill="#61616b"></path></g></svg>