<svg xmlns="http://www.w3.org/2000/svg" height="24" width="24" viewBox="0 0 24 24"><title>nodes 5</title><g fill="#61616b" class="nc-icon-wrapper"><path d="M21,14.211V9.789a2.5,2.5,0,1,0-2.412-4.351L14.464,2.861A2.523,2.523,0,0,0,14.5,2.5a2.5,2.5,0,0,0-5,0,2.523,2.523,0,0,0,.036.361L5.412,5.438A2.5,2.5,0,1,0,3,9.789v4.422a2.5,2.5,0,1,0,2.412,4.351l4.124,2.577a2.5,2.5,0,1,0,4.928,0l4.124-2.577A2.5,2.5,0,1,0,21,14.211Zm-2.5.3-4.026-2.265A2.448,2.448,0,0,0,14.5,12a2.448,2.448,0,0,0-.025-.245L18.5,9.49a2.491,2.491,0,0,0,.5.3v4.422A2.491,2.491,0,0,0,18.5,14.51Zm-.976-6.765L13.5,10.01a2.491,2.491,0,0,0-.5-.3V4.789a2.429,2.429,0,0,0,.412-.228L17.536,7.14a2.509,2.509,0,0,0-.036.36A2.448,2.448,0,0,0,17.525,7.745ZM11,4.789V9.711a2.491,2.491,0,0,0-.5.3L6.475,7.745A2.448,2.448,0,0,0,6.5,7.5a2.509,2.509,0,0,0-.036-.36l4.124-2.579A2.429,2.429,0,0,0,11,4.789ZM5.5,9.49l4.026,2.265A2.448,2.448,0,0,0,9.5,12a2.448,2.448,0,0,0,.025.245L5.5,14.51a2.491,2.491,0,0,0-.5-.3V9.789A2.491,2.491,0,0,0,5.5,9.49Zm.976,6.765L10.5,13.99a2.491,2.491,0,0,0,.5.3v4.922a2.429,2.429,0,0,0-.412.228L6.464,16.86A2.509,2.509,0,0,0,6.5,16.5,2.448,2.448,0,0,0,6.475,16.255ZM13,19.211V14.289a2.491,2.491,0,0,0,.5-.3l4.026,2.265a2.448,2.448,0,0,0-.025.245,2.509,2.509,0,0,0,.036.36l-4.124,2.579A2.429,2.429,0,0,0,13,19.211Z" fill="#61616b"></path></g></svg>