<svg xmlns="http://www.w3.org/2000/svg" height="32" width="32" viewBox="0 0 32 32"><title>notes 5</title><g fill="#61616b" class="nc-icon-wrapper"><rect data-color="color-2" x="9" y="13" fill="#61616b" width="14" height="2"></rect> <rect data-color="color-2" x="9" y="18" fill="#61616b" width="14" height="2"></rect> <rect data-color="color-2" x="9" y="23" fill="#61616b" width="7" height="2"></rect> <path fill="#61616b" d="M29,4h-4v3h2v22H5V7h2V4H3C2.447,4,2,4.448,2,5v26c0,0.552,0.447,1,1,1h26c0.553,0,1-0.448,1-1V5 C30,4.448,29.553,4,29,4z"></path> <path fill="#61616b" d="M23,4h-3c0-2.209-1.791-4-4-4s-4,1.791-4,4H9v5h14V4z"></path></g></svg>