<svg xmlns="http://www.w3.org/2000/svg" height="64" width="64" viewBox="0 0 64 64"><title>office chair 3</title><g fill="#61616b" class="nc-icon-wrapper"><path data-color="color-2" fill="#61616b" d="M46,61H33v-7h-2v7H18c-0.553,0-1,0.448-1,1s0.447,1,1,1h28c0.553,0,1-0.448,1-1 S46.553,61,46,61z"></path> <path fill="#61616b" d="M16,38h32c0.553,0,1-0.448,1-1V2c0-0.552-0.447-1-1-1H16c-0.553,0-1,0.448-1,1v35C15,37.552,15.447,38,16,38 z"></path> <path fill="#61616b" d="M60,30h-5c-0.553,0-1,0.448-1,1s0.447,1,1,1h4v16h-4v-1c0-3.86-3.141-7-7-7H16c-3.859,0-7,3.14-7,7v1H5V32h4 c0.553,0,1-0.448,1-1s-0.447-1-1-1H4c-0.553,0-1,0.448-1,1v18c0,0.552,0.447,1,1,1h56c0.553,0,1-0.448,1-1V31 C61,30.448,60.553,30,60,30z"></path></g></svg>