<svg xmlns="http://www.w3.org/2000/svg" height="32" width="32" viewBox="0 0 32 32"><title>office pass 6</title><g fill="#61616b" class="nc-icon-wrapper"><path d="M28,6h-7v3c0,1.654-1.346,3-3,3h-4c-1.654,0-3-1.346-3-3v-3H4C1.794,6,0,7.794,0,10V27c0,2.206,1.794,4,4,4H28c2.206,0,4-1.794,4-4V10c0-2.206-1.794-4-4-4ZM15,24c0,.552-.448,1-1,1H6c-.552,0-1-.448-1-1v-8c0-.552,.448-1,1-1H14c.552,0,1,.448,1,1v8Zm11,0h-7c-.552,0-1-.448-1-1s.448-1,1-1h7c.552,0,1,.448,1,1s-.448,1-1,1Zm0-6h-7c-.552,0-1-.448-1-1s.448-1,1-1h7c.552,0,1,.448,1,1s-.448,1-1,1Z" fill="#61616b"></path><path d="M18,10h-4c-.552,0-1-.448-1-1V3c0-1.657,1.343-3,3-3h0c1.657,0,3,1.343,3,3v6c0,.552-.448,1-1,1Z" fill="#61616b" data-color="color-2"></path></g></svg>