<svg xmlns="http://www.w3.org/2000/svg" height="64" width="64" viewBox="0 0 64 64"><title>office pass 4</title><g fill="#61616b" class="nc-icon-wrapper"><path fill="#61616b" d="M61,15H40v6c0,1.105-0.895,2-2,2H26c-1.105,0-2-0.895-2-2v-6H3c-1.105,0-2,0.895-2,2v44c0,1.105,0.895,2,2,2 h58c1.105,0,2-0.895,2-2V17C63,15.895,62.105,15,61,15z M29,50c0,0.552-0.448,1-1,1H12c-0.552,0-1-0.448-1-1V34c0-0.552,0.448-1,1-1 h16c0.552,0,1,0.448,1,1V50z M52,49H36c-0.552,0-1-0.448-1-1s0.448-1,1-1h16c0.552,0,1,0.448,1,1S52.552,49,52,49z M52,37H36 c-0.552,0-1-0.448-1-1s0.448-1,1-1h16c0.552,0,1,0.448,1,1S52.552,37,52,37z"></path> <path data-color="color-2" fill="#61616b" d="M32,1c-3.314,0-6,2.686-6,6v13c0,0.552,0.448,1,1,1h10c0.552,0,1-0.448,1-1V7 C38,3.686,35.314,1,32,1z M32,9c-1.105,0-2-0.895-2-2c0-1.105,0.895-2,2-2s2,0.895,2,2C34,8.105,33.105,9,32,9z"></path></g></svg>