<svg xmlns="http://www.w3.org/2000/svg" height="16" width="16" viewBox="0 0 16 16"><title>office pass 3</title><g fill="#61616b" class="nc-icon-wrapper"><rect x="4" y="8" width="3" height="3" rx=".5" ry=".5" fill="#61616b" data-color="color-2"></rect><path d="M8,0h0c1.104,0,2,.896,2,2v3c0,.552-.448,1-1,1h-2c-.552,0-1-.448-1-1V2c0-1.104,.896-2,2-2Z" fill="#61616b"></path><path d="M14,4h-2v2h2v7H2V6h2v-2H2c-1.105,0-2,.895-2,2v7c0,1.105,.895,2,2,2H14c1.105,0,2-.895,2-2V6c0-1.105-.895-2-2-2Z" fill="#61616b"></path><path d="M11.5,9h-3c-.276,0-.5-.224-.5-.5s.224-.5,.5-.5h3c.276,0,.5,.224,.5,.5s-.224,.5-.5,.5Z" fill="#61616b" data-color="color-2"></path><path d="M11.5,11h-3c-.276,0-.5-.224-.5-.5s.224-.5,.5-.5h3c.276,0,.5,.224,.5,.5s-.224,.5-.5,.5Z" fill="#61616b" data-color="color-2"></path></g></svg>