<svg xmlns="http://www.w3.org/2000/svg" height="12" width="12" viewBox="0 0 12 12"><title>office pass 2</title><g fill="#61616b" class="nc-icon-wrapper"><path d="M10,2h-2v2h2v6H2V4h2V2H2C.895,2,0,2.895,0,4v6c0,1.105,.895,2,2,2H10c1.105,0,2-.895,2-2V4c0-1.105-.895-2-2-2Z" fill="#61616b"></path><path d="M8.5,7H3.5c-.276,0-.5-.224-.5-.5s.224-.5,.5-.5h5c.276,0,.5,.224,.5,.5s-.224,.5-.5,.5Z" fill="#61616b" data-color="color-2"></path><path d="M8.5,9H3.5c-.276,0-.5-.224-.5-.5s.224-.5,.5-.5h5c.276,0,.5,.224,.5,.5s-.224,.5-.5,.5Z" fill="#61616b" data-color="color-2"></path><path d="M6.5,5h-1c-.276,0-.5-.224-.5-.5V1c0-.552,.448-1,1-1h0c.552,0,1,.448,1,1v3.5c0,.276-.224,.5-.5,.5Z" fill="#61616b"></path></g></svg>