<svg xmlns="http://www.w3.org/2000/svg" height="48" width="48" viewBox="0 0 48 48"><title>office pass 5</title><g fill="#61616b" class="nc-icon-wrapper"><path data-color="color-2" fill="#61616b" d="M27,16h-6c-0.552,0-1-0.448-1-1V5c0-2.209,1.791-4,4-4h0c2.209,0,4,1.791,4,4v10 C28,15.552,27.552,16,27,16z"></path> <path fill="#61616b" d="M45,11H30v5c0,1.105-0.895,2-2,2h-8c-1.105,0-2-0.895-2-2v-5H3c-1.105,0-2,0.895-2,2v32c0,1.105,0.895,2,2,2 h42c1.105,0,2-0.895,2-2V13C47,11.895,46.105,11,45,11z M23,37c0,0.552-0.448,1-1,1H10c-0.552,0-1-0.448-1-1V25c0-0.552,0.448-1,1-1 h12c0.552,0,1,0.448,1,1V37z M38,36H28c-0.552,0-1-0.448-1-1s0.448-1,1-1h10c0.552,0,1,0.448,1,1S38.552,36,38,36z M38,28H28 c-0.552,0-1-0.448-1-1s0.448-1,1-1h10c0.552,0,1,0.448,1,1S38.552,28,38,28z"></path></g></svg>