<svg xmlns="http://www.w3.org/2000/svg" height="64" width="64" viewBox="0 0 64 64"><title>office 3</title><g fill="#61616b" class="nc-icon-wrapper"><path data-color="color-2" fill="#61616b" d="M47,7H33V2c0-0.553-0.447-1-1-1s-1,0.447-1,1v5H17c-0.553,0-1,0.447-1,1v30h9 c1.654,0,3,1.346,3,3v22h8V34c0-1.654,1.346-3,3-3h9V8C48,7.447,47.553,7,47,7z M39,24H25c-0.553,0-1-0.447-1-1s0.447-1,1-1h14 c0.553,0,1,0.447,1,1S39.553,24,39,24z M39,17H25c-0.553,0-1-0.447-1-1s0.447-1,1-1h14c0.553,0,1,0.447,1,1S39.553,17,39,17z"></path> <path fill="#61616b" d="M61,33H39c-0.553,0-1,0.447-1,1v28c0,0.553,0.447,1,1,1h22c0.553,0,1-0.447,1-1V34 C62,33.447,61.553,33,61,33z M54,56h-8c-0.553,0-1-0.447-1-1s0.447-1,1-1h8c0.553,0,1,0.447,1,1S54.553,56,54,56z M54,49h-8 c-0.553,0-1-0.447-1-1s0.447-1,1-1h8c0.553,0,1,0.447,1,1S54.553,49,54,49z M54,42h-8c-0.553,0-1-0.447-1-1s0.447-1,1-1h8 c0.553,0,1,0.447,1,1S54.553,42,54,42z"></path> <path fill="#61616b" d="M25,40H3c-0.553,0-1,0.447-1,1v21c0,0.553,0.447,1,1,1h22c0.553,0,1-0.447,1-1V41C26,40.447,25.553,40,25,40 z M18,56h-8c-0.553,0-1-0.447-1-1s0.447-1,1-1h8c0.553,0,1,0.447,1,1S18.553,56,18,56z M18,49h-8c-0.553,0-1-0.447-1-1s0.447-1,1-1 h8c0.553,0,1,0.447,1,1S18.553,49,18,49z"></path></g></svg>