<svg xmlns="http://www.w3.org/2000/svg" height="24" width="24" viewBox="0 0 24 24"><title>office pass</title><g fill="#61616b" class="nc-icon-wrapper"><path d="M12,0h0c-1.105,0-2,.895-2,2V6c0,.552,.448,1,1,1h2c.552,0,1-.448,1-1V2c0-1.105-.895-2-2-2Z" fill="#61616b" data-color="color-2"></path><path d="M21,5h-5v1c0,1.654-1.346,3-3,3h-2c-1.654,0-3-1.346-3-3v-1H3c-1.654,0-3,1.346-3,3v13c0,1.654,1.346,3,3,3H21c1.654,0,3-1.346,3-3V8c0-1.654-1.346-3-3-3Zm-9,14.5c0,.276-.224,.5-.5,.5H4.5c-.276,0-.5-.224-.5-.5v-7c0-.276,.224-.5,.5-.5h7c.276,0,.5,.224,.5,.5v7Zm8-1c0,.276-.224,.5-.5,.5h-5c-.276,0-.5-.224-.5-.5v-1c0-.276,.224-.5,.5-.5h5c.276,0,.5,.224,.5,.5v1Zm0-4c0,.276-.224,.5-.5,.5h-5c-.276,0-.5-.224-.5-.5v-1c0-.276,.224-.5,.5-.5h5c.276,0,.5,.224,.5,.5v1Z" fill="#61616b"></path></g></svg>