<svg xmlns="http://www.w3.org/2000/svg" height="48" width="48" viewBox="0 0 48 48"><title>online banking 3</title><g fill="#61616b" class="nc-icon-wrapper"><path d="M29.457,25.6a3.578,3.578,0,0,1-1.242,2.8,6.326,6.326,0,0,1-3.586,1.36V32.3H23.07V29.83a12.085,12.085,0,0,1-4.769-.891V26.467a11.938,11.938,0,0,0,2.355.826,10.637,10.637,0,0,0,2.414.346V23.256l-.984-.363a6.95,6.95,0,0,1-2.807-1.764,3.746,3.746,0,0,1-.884-2.537,3.3,3.3,0,0,1,1.259-2.66,6.235,6.235,0,0,1,3.416-1.266V12.7h1.559v1.934a12.919,12.919,0,0,1,4.512.961l-.856,2.144a12.581,12.581,0,0,0-3.656-.867v4.266l.891.34a8.139,8.139,0,0,1,3.082,1.8A3.344,3.344,0,0,1,29.457,25.6Zm-8.309-7.032a1.57,1.57,0,0,0,.416,1.114,4.3,4.3,0,0,0,1.506.879V16.916a2.74,2.74,0,0,0-1.429.574A1.377,1.377,0,0,0,21.148,18.568Zm5.543,7.207a1.459,1.459,0,0,0-.474-1.119,4.886,4.886,0,0,0-1.588-.849v3.738Q26.692,27.228,26.691,25.775Z" fill="#61616b" data-color="color-2"></path><path d="M6,10H42V32h2V10a4,4,0,0,0-4-4H8a4,4,0,0,0-4,4V32H6Z" fill="#61616b"></path><path d="M31,34v3H17V34H0a8,8,0,0,0,8,8H40a8,8,0,0,0,8-8Z" fill="#61616b"></path></g></svg>