<svg xmlns="http://www.w3.org/2000/svg" height="24" width="24" viewBox="0 0 24 24"><title>online banking</title><g fill="#61616b" class="nc-icon-wrapper"><path d="M22,15H20V5a1,1,0,0,0-1-1H5A1,1,0,0,0,4,5V15H2V5A3,3,0,0,1,5,2H19a3,3,0,0,1,3,3Z" fill="#61616b"></path><path d="M24,17a4,4,0,0,1-4,4H4a4,4,0,0,1-4-4Z" fill="#61616b"></path><path d="M14.865,11.545a1.705,1.705,0,0,1-.617,1.373,3.075,3.075,0,0,1-1.73.62v1.1h-.736V13.56a5.979,5.979,0,0,1-2.3-.462V11.68a6.279,6.279,0,0,0,1.125.408,6,6,0,0,0,1.174.209V10.632l-.36-.139a4.014,4.014,0,0,1-1.506-.911,1.745,1.745,0,0,1-.443-1.216,1.587,1.587,0,0,1,.609-1.281,3.1,3.1,0,0,1,1.7-.61V5.653h.736v.8a6.078,6.078,0,0,1,2.224.494l-.505,1.257a5.814,5.814,0,0,0-1.719-.419V9.37a8.4,8.4,0,0,1,1.491.7,2.035,2.035,0,0,1,.649.65A1.612,1.612,0,0,1,14.865,11.545ZM11.089,8.366a.51.51,0,0,0,.164.389,1.94,1.94,0,0,0,.529.314V7.807Q11.089,7.909,11.089,8.366Zm2.16,3.26a.483.483,0,0,0-.183-.381,2.383,2.383,0,0,0-.548-.323V12.26Q13.249,12.136,13.249,11.626Z" fill="#61616b" data-color="color-2"></path></g></svg>