<svg xmlns="http://www.w3.org/2000/svg" height="64" width="64" viewBox="0 0 64 64"><title>online banking 2</title><g fill="#61616b" class="nc-icon-wrapper"><path d="M8,14a1,1,0,0,1,1-1H55a1,1,0,0,1,1,1V44h2V12a5,5,0,0,0-5-5H11a5,5,0,0,0-5,5V44H8Z" fill="#61616b"></path><path d="M63,46H41v4H23V46H1a1,1,0,0,0-1,1A10.011,10.011,0,0,0,10,57H54A10.011,10.011,0,0,0,64,47,1,1,0,0,0,63,46Z" fill="#61616b"></path><path d="M40,35.445a4.793,4.793,0,0,0-1.228-3.328,11.689,11.689,0,0,0-4.42-2.588L33,29.064V22.932a18.9,18.9,0,0,1,5.319,1.236l1.226-3.075A19.173,19.173,0,0,0,33,19.758V17H31v2.762a9.708,9.708,0,0,0-5.059,1.817A4.739,4.739,0,0,0,24.134,25.4,5.374,5.374,0,0,0,25.4,29.033a9.913,9.913,0,0,0,4.025,2.529l1.572.5v6.3a17.992,17.992,0,0,1-7-1.677v3.545a18.486,18.486,0,0,0,7,1.276V45h2V41.3a9.465,9.465,0,0,0,5.218-1.839A5.133,5.133,0,0,0,40,35.445ZM28.084,25.361c0-1.556,1.384-2.118,2.916-2.358v5.16C29.355,27.482,28.084,27.1,28.084,25.361ZM33,38.223V32.9c1.639.6,3.034,1.162,3.034,2.8C36.034,37.071,34.931,37.911,33,38.223Z" fill="#61616b" data-color="color-2"></path></g></svg>