<svg xmlns="http://www.w3.org/2000/svg" height="64" width="64" viewBox="0 0 64 64"><title>payee 4</title><g fill="#61616b" class="nc-icon-wrapper"><path d="M29,34c8.585,0,15-8.975,15-17a15,15,0,0,0-30,0C14,25.025,20.415,34,29,34Z" fill="#61616b"></path><path d="M37,52a14.941,14.941,0,0,1,4.706-10.881A68.529,68.529,0,0,0,29,40c-11.118,0-18.568,2.268-22.859,4.172A6.989,6.989,0,0,0,2,50.566V61a1,1,0,0,0,1,1H40.851A14.92,14.92,0,0,1,37,52Z" fill="#61616b"></path><path d="M52,40A12,12,0,1,1,40,52,12,12,0,0,1,52,40ZM46.3,52.712l4.995,4.995a1,1,0,0,0,1.414-1.414L49.418,53,58,53a1,1,0,0,0,0-2l-8.581,0,3.288-3.288A1,1,0,0,0,51.293,46.3l-4.995,5A1,1,0,0,0,46.3,52.712Z" fill="#61616b" data-color="color-2"></path></g></svg>