<svg xmlns="http://www.w3.org/2000/svg" height="24" width="24" viewBox="0 0 24 24"><title>payee 2</title><g fill="#61616b" class="nc-icon-wrapper"><circle cx="10" cy="5.5" r="5.5" fill="#61616b"></circle><path d="M11.336,21.496c-.837-.558-1.336-1.491-1.336-2.496s.499-1.938,1.336-2.496l3.435-2.29c-1.419-.774-3.044-1.214-4.771-1.214C4.486,13,0,17.486,0,23c0,.552,.447,1,1,1H15.092l-3.756-2.504Z" fill="#61616b"></path><path d="M23,18h-3v-3c0-.369-.203-.708-.528-.882-.324-.174-.72-.155-1.026,.05l-6,4c-.278,.186-.445,.498-.445,.832s.167,.646,.445,.832l6,4c.167,.112,.36,.168,.555,.168,.162,0,.324-.039,.472-.118,.325-.174,.528-.513,.528-.882v-3h3c.553,0,1-.448,1-1s-.447-1-1-1Z" fill="#61616b" data-color="color-2"></path></g></svg>