<svg xmlns="http://www.w3.org/2000/svg" height="32" width="32" viewBox="0 0 32 32"><title>payee 3</title><g fill="#61616b" class="nc-icon-wrapper"><circle cx="13.475" cy="8" r="7" fill="#61616b"></circle><path d="M17.079,27.305c-.687-.573-1.079-1.413-1.079-2.305s.393-1.732,1.078-2.303l4.011-3.343c-2.168-1.483-4.786-2.354-7.615-2.354C6.208,17,.289,22.693,0,29.96c-.011,.272,.09,.536,.278,.732s.448,.307,.721,.307H21.514l-4.435-3.695Z" fill="#61616b"></path><path d="M31,24h-5v-4c0-.388-.225-.741-.576-.906-.348-.163-.765-.111-1.064,.138l-6,5c-.228,.19-.359,.471-.359,.768s.132,.578,.359,.768l6,5c.184,.153,.411,.232,.641,.232,.144,0,.289-.031,.424-.094,.352-.165,.576-.518,.576-.906v-4h5c.553,0,1-.448,1-1s-.447-1-1-1Z" fill="#61616b" data-color="color-2"></path></g></svg>