<svg xmlns="http://www.w3.org/2000/svg" height="48" width="48" viewBox="0 0 48 48"><title>payee</title><g fill="#61616b" class="nc-icon-wrapper"><path d="M23,28c6.2,0,11-6.988,11-13V13a11,11,0,0,0-22,0v2C12,21.012,16.805,28,23,28Z" fill="#61616b"></path><path d="M27,38a10.938,10.938,0,0,1,2.24-6.634A54.178,54.178,0,0,0,7.722,33.185,7.952,7.952,0,0,0,2,40.856V45a1,1,0,0,0,1,1H30.466A10.959,10.959,0,0,1,27,38Z" fill="#61616b"></path><path d="M38,29a9,9,0,1,1-9,9A9,9,0,0,1,38,29Zm-4.923,9.382a.99.99,0,0,0,.217.326l4,4a1,1,0,0,0,1.414-1.414L36.414,39H42a1,1,0,0,0,0-2H36.414l2.293-2.293a1,1,0,0,0-1.414-1.414l-4,4a.99.99,0,0,0-.217.326A1,1,0,0,0,33.077,38.382Z" fill="#61616b" data-color="color-2"></path></g></svg>