<svg xmlns="http://www.w3.org/2000/svg" height="32" width="32" viewBox="0 0 32 32"><title>payment 4</title><g fill="#61616b" class="nc-icon-wrapper"><path fill="#61616b" d="M10,3c0-1.105-0.895-2-2-2S6,1.895,6,3v2h4V3z"></path> <path fill="#61616b" d="M15,3c0-1.105-0.895-2-2-2s-2,0.895-2,2v2h4V3z"></path> <path fill="#61616b" d="M20,2c0-1.105-0.895-2-2-2s-2,0.895-2,2v3h4V2z"></path> <path fill="#61616b" d="M25,3c0-1.105-0.895-2-2-2s-2,0.895-2,2v2h4V3z"></path> <circle data-color="color-2" fill="#61616b" cx="16" cy="14" r="3"></circle> <path fill="#61616b" d="M31,6H1C0.447,6,0,6.448,0,7v14c0,0.552,0.447,1,1,1h5.025C6.288,27.565,10.87,32,16.5,32 s10.212-4.435,10.475-10H31c0.553,0,1-0.448,1-1V7C32,6.448,31.553,6,31,6z M30,20h-3v-9c-2.761,0-5,2.239-5,5v3 c-1.268,0-2.505,0.371-3.526,1c-2.068,1.438-2.756,3.719-2.756,3.719s-0.504-1.4-0.033-3.719H2V8h28V20z"></path></g></svg>