<svg xmlns="http://www.w3.org/2000/svg" height="64" width="64" viewBox="0 0 64 64"><title>payment 2</title><g fill="#61616b" class="nc-icon-wrapper"><path fill="#61616b" d="M60,15H4c-0.553,0-1,0.448-1,1v26c0,0.552,0.447,1,1,1h11c0,11.028,8.972,20,20,20s20-8.972,20-20h5 c0.553,0,1-0.448,1-1V16C61,15.448,60.553,15,60,15z M59,41h-4V24c0-0.552-0.447-1-1-1c-4.411,0-8,3.589-8,8v6.034 c-3.538,0.241-6.721,1.75-8.922,3.966H5V17h54V41z"></path> <path fill="#61616b" d="M22,8.5C22,6.567,20.433,5,18.5,5S15,6.567,15,8.5V13h7V8.5z"></path> <path fill="#61616b" d="M31,6.5C31,4.567,29.433,3,27.5,3S24,4.567,24,6.5V13h7V6.5z"></path> <path fill="#61616b" d="M40,4.5C40,2.567,38.433,1,36.5,1S33,2.567,33,4.5V13h7V4.5z"></path> <path fill="#61616b" d="M49,6.5C49,4.567,47.433,3,45.5,3S42,4.567,42,6.5V13h7V6.5z"></path> <circle data-color="color-2" fill="#61616b" cx="32" cy="29" r="6"></circle> <path data-color="color-2" fill="#61616b" d="M12,25h8c0.553,0,1-0.448,1-1s-0.447-1-1-1h-8c-0.553,0-1,0.448-1,1S11.447,25,12,25z"></path></g></svg>