<svg xmlns="http://www.w3.org/2000/svg" height="48" width="48" viewBox="0 0 48 48"><title>payment 3</title><g fill="#61616b" class="nc-icon-wrapper"><path fill="#61616b" d="M22,4.5C22,3.119,20.881,2,19.5,2S17,3.119,17,4.5V8h5V4.5z"></path> <path fill="#61616b" d="M36,4.5C36,3.119,34.881,2,33.5,2S31,3.119,31,4.5V8h5V4.5z"></path> <path fill="#61616b" d="M29,3.5C29,2.119,27.881,1,26.5,1S24,2.119,24,3.5V8h5V3.5z"></path> <circle data-color="color-2" fill="#61616b" cx="23" cy="21" r="5"></circle> <path data-color="color-2" fill="#61616b" d="M9,18h4c0.553,0,1-0.448,1-1s-0.447-1-1-1H9c-0.553,0-1,0.448-1,1S8.447,18,9,18z"></path> <path fill="#61616b" d="M15,5.5C15,4.119,13.881,3,12.5,3S10,4.119,10,5.5V8h5V5.5z"></path> <path fill="#61616b" d="M45,10H3c-0.553,0-1,0.448-1,1v20c0,0.552,0.447,1,1,1h6.05c0.246,4.033,1.954,7.761,4.907,10.578 C16.964,45.446,20.855,47,24.991,47c0.259,0,0.521-0.006,0.781-0.019c8.073-0.38,14.483-6.844,15.16-14.982H45c0.553,0,1-0.448,1-1 V11C46,10.448,45.553,10,45,10z M44,30h-3V18c0-0.552-0.447-1-1-1c-3.309,0-6,2.691-6,6v5.049c-1.889,0.187-3.594,0.732-5.119,1.951 c-2.628,2.141-3.256,4.75-3.256,4.75s-0.448-2.312,0.431-4.75H4V12h40V30z"></path></g></svg>