<svg xmlns="http://www.w3.org/2000/svg" height="24" width="24" viewBox="0 0 24 24"><title>payor</title><g fill="#61616b" class="nc-icon-wrapper"><circle cx="10" cy="5.5" r="5.5" fill="#61616b"></circle><path d="M14,23v-1h-1c-1.654,0-3-1.346-3-3s1.346-3,3-3h1v-1c0-.37,.073-.728,.2-1.063-1.279-.595-2.699-.937-4.2-.937C4.486,13,0,17.486,0,23c0,.552,.447,1,1,1H14.178c-.112-.317-.178-.652-.178-1Z" fill="#61616b"></path><path d="M13,18h3s0-3,0-3c0-.369,.203-.708,.528-.882,.324-.174,.72-.155,1.026,.05l6,4c.278,.186,.445,.498,.445,.832,0,.334-.167,.646-.445,.832l-6,4c-.167,.112-.36,.168-.555,.168-.162,0-.324-.039-.472-.118-.325-.174-.528-.513-.528-.882v-3s-3,0-3,0c-.553,0-1-.448-1-1,0-.552,.447-1,1-1Z" fill="#61616b" data-color="color-2"></path></g></svg>