<svg xmlns="http://www.w3.org/2000/svg" height="32" width="32" viewBox="0 0 32 32"><title>payor 3</title><g fill="#61616b" class="nc-icon-wrapper"><circle cx="13.525" cy="8" r="7" fill="#61616b"></circle><path d="M22,30v-2h-3c-1.654,0-3-1.346-3-3s1.346-3,3-3h3v-2s.001-.009,.001-.014c-2.316-1.87-5.263-2.986-8.476-2.986C6.258,17,.339,22.693,.052,29.96c-.011,.272,.089,.536,.278,.732,.189,.196,.449,.307,.721,.307H22.181c-.113-.317-.181-.653-.181-1Z" fill="#61616b"></path><path d="M31.64,24.232l-6-5c-.298-.25-.715-.302-1.064-.138-.351,.165-.576,.518-.576,.906v4h-5c-.552,0-1,.448-1,1s.448,1,1,1h5v4c0,.388,.225,.741,.576,.906,.136,.063,.28,.094,.424,.094,.229,0,.457-.079,.64-.232l6-5c.228-.19,.36-.471,.36-.768s-.132-.578-.36-.768Z" fill="#61616b" data-color="color-2"></path></g></svg>