<svg xmlns="http://www.w3.org/2000/svg" height="64" width="64" viewBox="0 0 64 64"><title>percentage 38 2</title><g fill="#61616b" class="nc-icon-wrapper"><circle fill="#61616b" cx="22" cy="22" r="4"></circle> <circle fill="#61616b" cx="42" cy="42" r="4"></circle> <path fill="#61616b" d="M32,1C14.906,1,1,14.907,1,32s13.906,31,31,31s31-13.907,31-31S49.094,1,32,1z M16,22c0-3.309,2.691-6,6-6 s6,2.691,6,6s-2.691,6-6,6S16,25.309,16,22z M19.707,45.707C19.512,45.902,19.256,46,19,46s-0.512-0.098-0.707-0.293 c-0.391-0.391-0.391-1.023,0-1.414l26-26c0.391-0.391,1.023-0.391,1.414,0s0.391,1.023,0,1.414L19.707,45.707z M42,48 c-3.309,0-6-2.691-6-6s2.691-6,6-6s6,2.691,6,6S45.309,48,42,48z"></path></g></svg>