<svg xmlns="http://www.w3.org/2000/svg" height="16" width="16" viewBox="0 0 16 16"><title>percentage 39 2</title><g fill="#61616b" class="nc-icon-wrapper"><path data-color="color-2" fill="#61616b" d="M4,7c1.7,0,3-1.3,3-3S5.7,1,4,1S1,2.3,1,4S2.3,7,4,7z M4,3c0.6,0,1,0.4,1,1S4.6,5,4,5 S3,4.6,3,4S3.4,3,4,3z"></path> <path data-color="color-2" fill="#61616b" d="M12,9c-1.7,0-3,1.3-3,3s1.3,3,3,3s3-1.3,3-3S13.7,9,12,9z M12,13c-0.6,0-1-0.4-1-1s0.4-1,1-1 s1,0.4,1,1S12.6,13,12,13z"></path> <path fill="#61616b" d="M14,1H9v2h2.6L1.3,13.3c-0.4,0.4-0.4,1,0,1.4C1.5,14.9,1.7,15,2,15s0.5-0.1,0.7-0.3L13,4.4V7h2V2 C15,1.4,14.6,1,14,1z"></path></g></svg>