<svg xmlns="http://www.w3.org/2000/svg" height="32" width="32" viewBox="0 0 32 32"><title>percentage 38 4</title><g fill="#61616b" class="nc-icon-wrapper"><path fill="#61616b" d="M16,1C7.729,1,1,7.729,1,16s6.729,15,15,15s15-6.729,15-15S24.271,1,16,1z M11.5,9 c1.381,0,2.5,1.119,2.5,2.5c0,1.381-1.119,2.5-2.5,2.5S9,12.881,9,11.5C9,10.119,10.119,9,11.5,9z M20.5,23 c-1.381,0-2.5-1.119-2.5-2.5c0-1.381,1.119-2.5,2.5-2.5s2.5,1.119,2.5,2.5C23,21.881,21.881,23,20.5,23z M10,23.414L8.586,22 L22,8.586L23.414,10L10,23.414z"></path></g></svg>