<svg xmlns="http://www.w3.org/2000/svg" height="48" width="48" viewBox="0 0 48 48"><title>percentage 38 3</title><g fill="#61616b" class="nc-icon-wrapper"><path data-color="color-2" fill="#61616b" d="M9.998,46c-0.396,0-0.796-0.117-1.145-0.361c-0.905-0.634-1.125-1.881-0.492-2.786l28-40 c0.635-0.904,1.882-1.125,2.785-0.492c0.905,0.634,1.125,1.881,0.492,2.786l-28,40C11.249,45.703,10.629,46,9.998,46z"></path> <path fill="#61616b" d="M12.5,21C7.813,21,4,17.187,4,12.5v-3C4,4.813,7.813,1,12.5,1S21,4.813,21,9.5v3 C21,17.187,17.187,21,12.5,21z M12.5,5C10.019,5,8,7.019,8,9.5v3c0,2.481,2.019,4.5,4.5,4.5s4.5-2.019,4.5-4.5v-3 C17,7.019,14.981,5,12.5,5z"></path> <path fill="#61616b" d="M35.5,47c-4.687,0-8.5-3.813-8.5-8.5v-3c0-4.687,3.813-8.5,8.5-8.5s8.5,3.813,8.5,8.5v3 C44,43.187,40.187,47,35.5,47z M35.5,31c-2.481,0-4.5,2.019-4.5,4.5v3c0,2.481,2.019,4.5,4.5,4.5s4.5-2.019,4.5-4.5v-3 C40,33.019,37.981,31,35.5,31z"></path></g></svg>