<svg xmlns="http://www.w3.org/2000/svg" height="48" width="48" viewBox="0 0 48 48"><title>percentage 39 4</title><g fill="#61616b" class="nc-icon-wrapper"><circle fill="#61616b" cx="32" cy="32" r="3"></circle> <circle fill="#61616b" cx="16" cy="16" r="3"></circle> <path fill="#61616b" d="M24,1C11.317,1,1,11.318,1,24s10.317,23,23,23s23-10.318,23-23S36.683,1,24,1z M11,16c0-2.757,2.243-5,5-5 s5,2.243,5,5s-2.243,5-5,5S11,18.757,11,16z M16.707,32.707C16.512,32.902,16.256,33,16,33s-0.512-0.098-0.707-0.293 c-0.391-0.391-0.391-1.023,0-1.414L31.586,15H26c-0.553,0-1-0.448-1-1s0.447-1,1-1h8c0.553,0,1,0.448,1,1v8c0,0.552-0.447,1-1,1 s-1-0.448-1-1v-5.586L16.707,32.707z M32,37c-2.757,0-5-2.243-5-5s2.243-5,5-5s5,2.243,5,5S34.757,37,32,37z"></path></g></svg>