<svg xmlns="http://www.w3.org/2000/svg" height="32" width="32" viewBox="0 0 32 32"><title>personal trainer 4</title><g fill="#61616b" class="nc-icon-wrapper"><path d="M28.28,17.464l-6-5A2,2,0,0,0,21,12H11a2,2,0,0,0-1.281.464l-6,5a2,2,0,0,0-.577,2.279l2,5A2,2,0,0,0,7,26a2,2,0,0,0,1.828-2.817L7.4,19.606,10,17.437V30a1,1,0,0,0,1,1H21a1,1,0,0,0,1-1V17.437l2.6,2.169-1.432,3.578A2,2,0,0,0,25,26a2,2,0,0,0,1.857-1.258l2-5A2,2,0,0,0,28.28,17.464Z" fill="#61616b"></path> <circle cx="16" cy="5" r="5" fill="#61616b"></circle></g></svg>