<svg xmlns="http://www.w3.org/2000/svg" height="64" width="64" viewBox="0 0 64 64"><title>personal trainer 2</title><g fill="#61616b" class="nc-icon-wrapper"><circle cx="32" cy="11" r="9" fill="#61616b"></circle> <path d="M56.533,32.9l-11-9A4,4,0,0,0,43,23H21a4,4,0,0,0-2.533.9l-11,9a4,4,0,0,0-.859,5.215l4.563,8.951a3.674,3.674,0,0,0,6.412-3.57l-2.325-6.634L20,32.986V60a1,1,0,0,0,1,1H43a1,1,0,0,0,1-1V32.986l4.742,3.88L46.417,43.5a3.674,3.674,0,0,0,6.412,3.57l4.563-8.951A4,4,0,0,0,56.533,32.9ZM39,34a1,1,0,0,1-1,1H32a1,1,0,0,1-1-1V31a1,1,0,0,1,1-1h6a1,1,0,0,1,1,1Z" fill="#61616b"></path></g></svg>