<svg xmlns="http://www.w3.org/2000/svg" height="48" width="48" viewBox="0 0 48 48"><title>personal trainer 3</title><g fill="#61616b" class="nc-icon-wrapper"><circle cx="24" cy="8" r="7" fill="#61616b"></circle> <path d="M42.976,24.742l-8-7A3,3,0,0,0,33,17H15a3,3,0,0,0-1.976.742l-8,7a3,3,0,0,0-.629,3.746L8.573,35.8A2.642,2.642,0,0,0,13.3,33.452l-2.476-5.81L15,23.986V46a1,1,0,0,0,1,1H32a1,1,0,0,0,1-1V23.986l4.178,3.656L34.7,33.452A2.642,2.642,0,0,0,39.427,35.8l4.178-7.311A3,3,0,0,0,42.976,24.742ZM29,25H25a1,1,0,0,1,0-2h4a1,1,0,0,1,0,2Z" fill="#61616b"></path></g></svg>