<svg xmlns="http://www.w3.org/2000/svg" height="24" width="24" viewBox="0 0 24 24"><title>personal trainer 5</title><g fill="#61616b" class="nc-icon-wrapper"><path d="M22,14.885l-5-4.5A1.5,1.5,0,0,0,16,10H8a1.5,1.5,0,0,0-1,.385l-5,4.5a1.5,1.5,0,0,0-.308,1.844l2.5,4.5a1.5,1.5,0,1,0,2.622-1.458L4.892,16.315,7,14.418V23a1,1,0,0,0,1,1h8a1,1,0,0,0,1-1V14.418l2.108,1.9-1.919,3.456a1.5,1.5,0,0,0,2.622,1.458l2.5-4.5A1.5,1.5,0,0,0,22,14.885Z" fill="#61616b"></path> <circle cx="12" cy="4" r="4" fill="#61616b"></circle></g></svg>