<svg xmlns="http://www.w3.org/2000/svg" height="48" width="48" viewBox="0 0 48 48"><title>pig 3</title><g fill="#61616b" class="nc-icon-wrapper"><circle data-color="color-2" fill="#61616b" cx="28" cy="6" r="5"></circle> <path fill="#61616b" d="M33.5,15H19.638c-2.363-4.709-6.844-4.668-8.961-3.946c-0.504,0.172-0.785,0.709-0.639,1.221l1.52,5.319 C9.667,18.978,8.143,20.86,7.182,23H2c-0.552,0-1,0.447-1,1v10c0,0.553,0.448,1,1,1h5.682c1.598,2.901,4.213,5.125,7.318,6.228V46 c0,0.553,0.448,1,1,1h6c0.552,0,1-0.447,1-1v-4h7v4c0,0.553,0.448,1,1,1h6c0.552,0,1-0.447,1-1v-4.778c5.335-1.89,9-7.017,9-12.722 C47,21.056,40.944,15,33.5,15z M15,27c-1.103,0-2-0.897-2-2s0.897-2,2-2s2,0.897,2,2S16.103,27,15,27z M32,23h-8 c-0.552,0-1-0.447-1-1s0.448-1,1-1h8c0.552,0,1,0.447,1,1S32.552,23,32,23z"></path></g></svg>