<svg xmlns="http://www.w3.org/2000/svg" height="32" width="32" viewBox="0 0 32 32"><title>pig 4</title><g fill="#61616b" class="nc-icon-wrapper"><circle data-color="color-2" fill="#61616b" cx="19" cy="4" r="4"></circle> <path fill="#61616b" d="M23,10h-9.923c-2.226-3.405-5.749-3.448-7.365-2.957L4.726,7.34l1.568,4.704 C5.027,13.085,4.069,14.453,3.522,16H0v9h5.297c1.252,1.4,2.886,2.362,4.703,2.773V32h6v-4h4v4h6v-4.521 c3.569-1.259,6-4.641,6-8.479C32,14.037,27.962,10,23,10z M9.5,19C8.672,19,8,18.328,8,17.5S8.672,16,9.5,16s1.5,0.672,1.5,1.5 S10.328,19,9.5,19z M23,16h-8v-2h8V16z"></path></g></svg>