<svg xmlns="http://www.w3.org/2000/svg" height="64" width="64" viewBox="0 0 64 64"><title>pin 3</title><g fill="#61616b" class="nc-icon-wrapper"><path data-color="color-2" fill="#61616b" d="M20.465,42.121L3.293,59.293c-0.391,0.391-0.391,1.023,0,1.414C3.488,60.902,3.744,61,4,61 s0.512-0.098,0.707-0.293l17.172-17.172L20.465,42.121z"></path> <path fill="#61616b" d="M60.707,23.293l-20-20c-0.391-0.391-1.023-0.391-1.414,0s-0.391,1.023,0,1.414l3.111,3.111l-30.26,18.912 l-5.438-5.438c-0.391-0.391-1.023-0.391-1.414,0s-0.391,1.023,0,1.414l36,36C41.488,58.902,41.744,59,42,59s0.512-0.098,0.707-0.293 c0.391-0.391,0.391-1.023,0-1.414l-5.438-5.438l18.912-30.26l3.111,3.111C59.488,24.902,59.744,25,60,25s0.512-0.098,0.707-0.293 C61.098,24.316,61.098,23.684,60.707,23.293z"></path></g></svg>