<svg xmlns="http://www.w3.org/2000/svg" height="64" width="64" viewBox="0 0 64 64"><title>plug 4</title><g fill="#61616b" class="nc-icon-wrapper"><path data-color="color-2" d="M57,13H46V2a1,1,0,0,0-2,0V13H20V2a1,1,0,0,0-2,0V13H7a1,1,0,0,0-1,1v4a1,1,0,0,0,1,1H57a1,1,0,0,0,1-1V14A1,1,0,0,0,57,13Z" fill="#61616b"></path><path d="M12,21v5A19.024,19.024,0,0,0,24,43.646V50a1,1,0,0,0,1,1H39a1,1,0,0,0,1-1V43.646A19.024,19.024,0,0,0,52,26V21Z" fill="#61616b"></path><path data-color="color-2" d="M31,53v9a1,1,0,0,0,2,0V53Z" fill="#61616b"></path></g></svg>