<svg xmlns="http://www.w3.org/2000/svg" height="64" width="64" viewBox="0 0 64 64"><title>pos 2</title><g fill="#61616b" class="nc-icon-wrapper"><path fill="#61616b" d="M52,0H12c-0.552,0-1,0.448-1,1v39c0,3.909,2.51,7.235,6,8.475V37c0-1.654,1.346-3,3-3h24 c1.654,0,3,1.346,3,3v11.475c3.49-1.24,6-4.565,6-8.475V1C53,0.448,52.552,0,52,0z M46,18c0,0.552-0.448,1-1,1H19 c-0.552,0-1-0.448-1-1V8c0-0.552,0.448-1,1-1h26c0.552,0,1,0.448,1,1V18z"></path> <path data-color="color-2" fill="#61616b" d="M25,36h-5c-0.552,0-1,0.448-1,1v25c0,1.105,0.895,2,2,2h4V36z"></path> <path data-color="color-2" fill="#61616b" d="M44,36H30v28h13c1.105,0,2-0.895,2-2V37C45,36.448,44.552,36,44,36z M39,57 c0,0.552-0.448,1-1,1s-1-0.448-1-1v-8c0-0.552,0.448-1,1-1s1,0.448,1,1V57z"></path></g></svg>