<svg xmlns="http://www.w3.org/2000/svg" height="48" width="48" viewBox="0 0 48 48"><title>pos 3</title><g fill="#61616b" class="nc-icon-wrapper"><path fill="#61616b" d="M40,1H8C7.448,1,7,1.448,7,2v28c0,3.165,2.112,5.842,5,6.705V26c0-0.552,0.448-1,1-1h22c0.552,0,1,0.448,1,1 v10.705c2.888-0.863,5-3.541,5-6.705V2C41,1.448,40.552,1,40,1z M36,14c0,0.552-0.448,1-1,1H13c-0.552,0-1-0.448-1-1V7 c0-0.552,0.448-1,1-1h22c0.552,0,1,0.448,1,1V14z"></path> <path data-color="color-2" fill="#61616b" d="M23,27v20h9c1.105,0,2-0.895,2-2V27H23z"></path> <path data-color="color-2" fill="#61616b" d="M19,27h-5v18c0,1.105,0.895,2,2,2h3V27z"></path></g></svg>