<svg xmlns="http://www.w3.org/2000/svg" height="24" width="24" viewBox="0 0 24 24"><title>positive judgement</title><g fill="#61616b" class="nc-icon-wrapper"><path d="M12,6c-1.657,0-3-1.343-3-3s1.343-3,3-3,3,1.343,3,3-1.343,3-3,3Z" fill="#61616b" data-color="color-2"></path><path d="M17,11H7v-2c0-1.105,.895-2,2-2h6c1.105,0,2,.895,2,2v2Z" fill="#61616b" data-color="color-2"></path><path d="M21,13H3c-.553,0-1,.448-1,1s.447,1,1,1h1v8c0,.552,.447,1,1,1h14c.553,0,1-.448,1-1V15h1c.553,0,1-.448,1-1s-.447-1-1-1Zm-4.94,4.354l-4.707,4.707c-.195,.195-.512,.195-.707,0l-2.707-2.707c-.195-.195-.195-.512,0-.707l.707-.707c.195-.195,.512-.195,.707,0l1.646,1.646,3.646-3.646c.195-.195,.512-.195,.707,0l.707,.707c.195,.195,.195,.512,0,.707Z" fill="#61616b"></path></g></svg>