<svg xmlns="http://www.w3.org/2000/svg" height="48" width="48" viewBox="0 0 48 48"><title>presentation 3</title><g fill="#61616b" class="nc-icon-wrapper"><circle cx="8" cy="6" r="5" fill="#61616b"></circle> <path d="M45,5H27V2a1,1,0,0,0-2,0V5H14.92a6.868,6.868,0,0,1-2.031,6H27a4,4,0,0,1,0,8H16V34H45a1,1,0,0,0,1-1V6A1,1,0,0,0,45,5Z" fill="#61616b" data-color="color-2"></path> <path d="M29,15a2,2,0,0,0-2-2H7a5.006,5.006,0,0,0-5,5V44.5a2.5,2.5,0,0,0,5,0V32H9V44.5a2.5,2.5,0,0,0,5,0V17H27A2,2,0,0,0,29,15Z" fill="#61616b"></path> <path d="M33.8,36H31.627l4.454,10.394A1,1,0,0,0,37,47a.979.979,0,0,0,.394-.081,1,1,0,0,0,.525-1.313Z" fill="#61616b" data-color="color-2"></path></g></svg>