<svg xmlns="http://www.w3.org/2000/svg" height="64" width="64" viewBox="0 0 64 64"><title>presentation 2</title><g fill="#61616b" class="nc-icon-wrapper"><path d="M48.082,49H44.543l7.685,12.3a1.5,1.5,0,0,0,2.544-1.59Z" fill="#61616b" data-color="color-2"></path> <circle cx="12" cy="8" r="6" fill="#61616b"></circle> <path d="M58,7H36V3a1,1,0,0,0-2,0V7H19.931a7.876,7.876,0,0,1-2.657,7H39.268a4.672,4.672,0,0,1,4.7,4.018,4.552,4.552,0,0,1-4.318,5.091L22,23.911V47H58a2,2,0,0,0,2-2V9A2,2,0,0,0,58,7Z" fill="#61616b" data-color="color-2"></path> <path d="M39.443,16H10a6,6,0,0,0-6,6V58.935A3.065,3.065,0,0,0,7.065,62h0a3.065,3.065,0,0,0,3.062-2.932L11,39h2l.873,20.068A3.065,3.065,0,0,0,16.935,62h0A3.065,3.065,0,0,0,20,58.935V22l19.559-.889A2.556,2.556,0,0,0,42,18.557h0A2.557,2.557,0,0,0,39.443,16Z" fill="#61616b"></path></g></svg>