<svg xmlns="http://www.w3.org/2000/svg" height="16" width="16" viewBox="0 0 16 16"><title>privacy policy</title><g fill="#61616b" class="nc-icon-wrapper"><circle cx="2.75" cy="3.25" r="1.75" fill="#61616b"></circle><circle cx="13.25" cy="3.25" r="1.75" fill="#61616b" data-color="color-2"></circle><path d="M13.5,6c-1.401,.131-2.673,.874-3.474,2.032-.158,.187-.344,.345-.52,.514,.333,.393,.544,.897,.544,1.454,0,.025-.007,.048-.007,.073,.351-.258,.681-.543,.958-.882v4.809c0,.552,.448,1,1,1h3c.552,0,1-.448,1-1v-5.5c0-1.381-1.119-2.5-2.5-2.5Z" fill="#61616b" data-color="color-2"></path><path d="M7.8,9.25c-.693,0-1.144-.463-1.823-1.218-.801-1.158-2.074-1.902-3.477-2.032-1.381,0-2.5,1.119-2.5,2.5v5.5c0,.552,.448,1,1,1h3c.552,0,1-.448,1-1v-4.809c.65,.916,1.679,1.489,2.8,1.559,.414,0,.75-.336,.75-.75s-.336-.75-.75-.75Z" fill="#61616b"></path></g></svg>