<svg xmlns="http://www.w3.org/2000/svg" height="24" width="24" viewBox="0 0 24 24"><title>progress</title><g fill="#61616b" class="nc-icon-wrapper"><polygon data-color="color-2" fill="#61616b" points="13,13 6,13 6,11 11,11 11,6 13,6 "></polygon> <path fill="#61616b" d="M21,12c0,4.963-4.037,9-9,9s-9-4.037-9-9s4.037-9,9-9c1.989,0,3.873,0.65,5.43,1.833l-2.722,2.543 l7.604,1.062l-0.645-7.584l-2.76,2.588C16.957,1.862,14.545,1,12,1C5.935,1,1,5.935,1,12s4.935,11,11,11s11-4.935,11-11H21z"></path></g></svg>