<svg xmlns="http://www.w3.org/2000/svg" height="48" width="48" viewBox="0 0 48 48"><title>progress 4</title><g fill="#61616b" class="nc-icon-wrapper"><path data-color="color-2" fill="#61616b" d="M22.989,30.517h-8.71v-1.564l3.313-3.331c0.979-1.002,1.627-1.712,1.946-2.132 c1.3-1.702,1.037-3.124,0.396-3.739c-0.35-0.334-0.831-0.501-1.446-0.501c-1.199,0-2.078,0.513-3.023,1.257l-1.116-1.362 c0.715-0.604,1.409-1.031,2.083-1.283c1.552-0.58,3.72-0.575,5.027,0.559c0.721,0.623,1.081,1.463,1.081,2.518 c0,1.263-0.496,2.267-1.27,3.266c-0.71,0.909-1.617,1.73-4.382,4.407v0.088h6.1V30.517z"></path> <path data-color="color-2" fill="#61616b" d="M33.721,27.713h-1.731v2.804h-2.013v-2.804h-5.871v-1.591l5.871-8.49h2.013V26h1.731V27.713z M29.977,26c0-3.334-0.02-4.696,0.088-6.047h-0.07c-0.424,1-0.94,1.649-3.964,6.047H29.977z"></path> <path fill="#61616b" d="M45,23c-0.553,0-1,0.447-1,1c0,11.028-8.972,20-20,20S4,35.028,4,24S12.972,4,24,4 c4.337,0,8.527,1.42,11.956,3.975l-5.44,5.067c-0.244,0.227-0.339,0.573-0.244,0.893c0.094,0.32,0.361,0.56,0.689,0.618 l13.003,2.331c0.26,0.048,0.545-0.026,0.756-0.223c0.203-0.188,0.304-0.462,0.275-0.738L43.591,2.788 c-0.035-0.331-0.255-0.615-0.568-0.731c-0.312-0.119-0.664-0.047-0.908,0.181l-4.677,4.356C33.616,3.645,28.894,2,24,2 C11.869,2,2,11.869,2,24s9.869,22,22,22s22-9.869,22-22C46,23.447,45.553,23,45,23z"></path></g></svg>