<svg xmlns="http://www.w3.org/2000/svg" height="64" width="64" viewBox="0 0 64 64"><title>progress 3</title><g fill="#61616b" class="nc-icon-wrapper"><path data-color="color-2" fill="#61616b" d="M30.54,41.414H17.959v-2.26l4.786-4.812c2.693-2.758,4.139-4.262,4.139-6.5 c0-0.838-0.252-1.498-0.755-1.98c-1.01-0.967-3.398-1.312-6.456,1.092l-1.612-1.968c1.854-1.566,3.681-2.399,6.119-2.399 c3.229,0,5.713,1.738,5.713,4.989c0,0.838-0.15,1.634-0.451,2.387c-0.3,0.753-0.762,1.529-1.383,2.33 c-0.969,1.243-2.033,2.206-6.329,6.366v0.127h8.811V41.414z"></path> <path data-color="color-2" fill="#61616b" d="M46.041,37.364H43.54v4.05h-2.907v-4.05h-8.48v-2.298l8.48-12.264h2.907v12.086h2.501V37.364 z M40.633,34.888c0-4.889-0.029-6.798,0.127-8.734h-0.102c-0.602,1.418-1.28,2.268-5.726,8.734H40.633z"></path> <path fill="#61616b" d="M61,31c-0.553,0-1,0.447-1,1c0,15.439-12.561,28-28,28S4,47.439,4,32S16.561,4,32,4 c6.218,0,12.162,2.037,17.031,5.779l-7.235,7.066c-0.273,0.268-0.371,0.666-0.252,1.028c0.12,0.363,0.436,0.626,0.813,0.678 l17.52,2.416c0.046,0.007,0.092,0.01,0.137,0.01c0.257,0,0.506-0.099,0.693-0.279c0.221-0.213,0.332-0.515,0.302-0.819l-1.77-17.797 c-0.038-0.383-0.292-0.71-0.653-0.841c-0.36-0.132-0.766-0.045-1.04,0.224l-7.067,6.901C45.219,4.243,38.76,2,32,2 C15.458,2,2,15.458,2,32s13.458,30,30,30s30-13.458,30-30C62,31.447,61.553,31,61,31z"></path></g></svg>