<svg xmlns="http://www.w3.org/2000/svg" height="64" width="64" viewBox="0 0 64 64"><title>puzzle 10 3</title><g fill="#61616b" class="nc-icon-wrapper"><path fill="#61616b" d="M55,25.055V10c0-0.552-0.447-1-1-1H37.944C37.445,4.506,33.625,1,29,1s-8.445,3.506-8.944,8H2 c-0.553,0-1,0.448-1,1v14c0,0.552,0.447,1,1,1c4.963,0,9,4.038,9,9s-4.037,9-9,9c-0.553,0-1,0.448-1,1v18c0,0.552,0.447,1,1,1h17 c0.553,0,1-0.448,1-1c0-4.962,4.037-9,9-9s9,4.038,9,9c0,0.552,0.447,1,1,1h15c0.553,0,1-0.448,1-1V42.945 c4.494-0.499,8-4.32,8-8.945S59.494,25.554,55,25.055z"></path></g></svg>