<svg xmlns="http://www.w3.org/2000/svg" height="48" width="48" viewBox="0 0 48 48"><title>puzzle 10 4</title><g fill="#61616b" class="nc-icon-wrapper"><path fill="#61616b" d="M40,21c-0.332,0-0.665,0.026-1,0.079V10c0-0.552-0.447-1-1-1H26.921C26.974,8.665,27,8.332,27,8 c0-3.86-3.141-7-7-7s-7,3.14-7,7c0,0.332,0.026,0.665,0.079,1H2c-0.553,0-1,0.448-1,1v12c0,0.552,0.447,1,1,1c2.757,0,5,2.243,5,5 s-2.243,5-5,5c-0.553,0-1,0.448-1,1v12c0,0.552,0.447,1,1,1h12c0.553,0,1-0.448,1-1c0-2.757,2.243-5,5-5s5,2.243,5,5 c0,0.552,0.447,1,1,1h12c0.553,0,1-0.448,1-1V34.921C39.335,34.974,39.668,35,40,35c3.859,0,7-3.14,7-7S43.859,21,40,21z"></path></g></svg>