<svg xmlns="http://www.w3.org/2000/svg" height="48" width="48" viewBox="0 0 48 48"><title>puzzle 09 4</title><g fill="#61616b" class="nc-icon-wrapper"><path fill="#61616b" d="M40,17c-0.3,0-0.7,0-1,0.1V6c0-0.6-0.4-1-1-1h-8c-0.6,0-1,0.4-1,1c0,2.8-2.2,5-5,5s-5-2.2-5-5 c0-0.6-0.4-1-1-1h-8C9.4,5,9,5.4,9,6v11.1C8.7,17,8.3,17,8,17c-3.9,0-7,3.1-7,7s3.1,7,7,7c0.3,0,0.7,0,1-0.1V42c0,0.6,0.4,1,1,1h8 c0.6,0,1-0.4,1-1c0-2.8,2.2-5,5-5s5,2.2,5,5c0,0.6,0.4,1,1,1h8c0.6,0,1-0.4,1-1V30.9c0.3,0.1,0.7,0.1,1,0.1c3.9,0,7-3.1,7-7 S43.9,17,40,17z"></path></g></svg>