<svg xmlns="http://www.w3.org/2000/svg" height="32" width="32" viewBox="0 0 32 32"><title>puzzle 10 5</title><g fill="#61616b" class="nc-icon-wrapper"><path fill="#61616b" d="M28,13.101V5c0-0.552-0.447-1-1-1h-8.101C18.435,1.721,16.415,0,14,0S9.565,1.721,9.101,4H1 C0.447,4,0,4.448,0,5v8c0,0.552,0.447,1,1,1c2.206,0,4,1.794,4,4s-1.794,4-4,4c-0.553,0-1,0.448-1,1v8c0,0.552,0.447,1,1,1h8 c0.553,0,1-0.448,1-1c0-2.206,1.794-4,4-4s4,1.794,4,4c0,0.552,0.447,1,1,1h8c0.553,0,1-0.448,1-1v-8.101 c2.279-0.464,4-2.485,4-4.899S30.279,13.565,28,13.101z"></path></g></svg>