<svg xmlns="http://www.w3.org/2000/svg" height="24" width="24" viewBox="0 0 24 24"><title>rate up</title><g fill="#61616b" class="nc-icon-wrapper"><path data-color="color-2" d="M17,14a3,3,0,1,0-3,3A3,3,0,0,0,17,14Zm-4,0a1,1,0,1,1,1,1A1,1,0,0,1,13,14Z" fill="#61616b"></path><path data-color="color-2" d="M21,18a3,3,0,1,0,3,3A3,3,0,0,0,21,18Zm0,4a1,1,0,1,1,1-1A1,1,0,0,1,21,22Z" fill="#61616b"></path><path data-color="color-2" d="M22.707,12.318a1,1,0,0,0-1.414-.025l-9,9a1,1,0,1,0,1.414,1.414l9-9A1,1,0,0,0,22.707,12.318Z" fill="#61616b"></path><path d="M13,9a1,1,0,0,0,.759-1.651l-6-7a1.033,1.033,0,0,0-1.518,0l-6,7A1,1,0,0,0,1,9H5V23a1,1,0,0,0,1,1H8a1,1,0,0,0,1-1V9Z" fill="#61616b"></path></g></svg>