<svg xmlns="http://www.w3.org/2000/svg" height="48" width="48" viewBox="0 0 48 48"><title>rate up 4</title><g fill="#61616b" class="nc-icon-wrapper"><path d="M14,1a1,1,0,0,0-.759.35l-12,14A1,1,0,0,0,2,17H9V46a1,1,0,0,0,1,1h8a1,1,0,0,0,1-1V17h7a1,1,0,0,0,.759-1.65l-12-14A1,1,0,0,0,14,1Z" fill="#61616b"></path><path d="M30,33a5,5,0,1,1,5-5A5.006,5.006,0,0,1,30,33Zm0-8a3,3,0,1,0,3,3A3,3,0,0,0,30,25Z" fill="#61616b" data-color="color-2"></path><path d="M42,47a5,5,0,1,1,5-5A5.006,5.006,0,0,1,42,47Zm0-8a3,3,0,1,0,3,3A3,3,0,0,0,42,39Z" fill="#61616b" data-color="color-2"></path><path d="M27,47a1,1,0,0,1-.774-1.633l18-22a1,1,0,0,1,1.549,1.266l-18,22A1,1,0,0,1,27,47Z" fill="#61616b" data-color="color-2"></path></g></svg>