<svg xmlns="http://www.w3.org/2000/svg" height="24" width="24" viewBox="0 0 24 24"><title>refund</title><g fill="#61616b" class="nc-icon-wrapper"><path data-color="color-2" d="M11.484,6V7.1a4.143,4.143,0,0,0-2.27.812A2.123,2.123,0,0,0,8.4,9.622a2.332,2.332,0,0,0,.588,1.625A5.336,5.336,0,0,0,11,12.463l.481.186v2.224a8.019,8.019,0,0,1-1.568-.28,8.328,8.328,0,0,1-1.5-.545v1.893a7.95,7.95,0,0,0,3.07.617V18h.982V16.53a4.1,4.1,0,0,0,2.31-.829,2.273,2.273,0,0,0,.825-1.833,2.141,2.141,0,0,0-.28-1.1,2.723,2.723,0,0,0-.867-.868,11.005,11.005,0,0,0-1.991-.932V8.848a7.768,7.768,0,0,1,2.3.559l.674-1.678a8.126,8.126,0,0,0-2.97-.66V6Zm0,4.562a2.569,2.569,0,0,1-.707-.42.678.678,0,0,1-.219-.52q0-.609.926-.746Zm.982,2.474a3.173,3.173,0,0,1,.732.431.646.646,0,0,1,.244.509q0,.681-.976.846Z" fill="#61616b"></path><path d="M18.883,21.83A12,12,0,1,0,5.115,2.172L3.537.192A.5.5,0,0,0,3.146,0a.46.46,0,0,0-.091.009A.5.5,0,0,0,2.67.351L.628,6.728a.492.492,0,0,0-.022.194.5.5,0,0,0,.541.456L7.819,6.81A.49.49,0,0,0,8.087,6.7.5.5,0,0,0,8.168,6l-1.8-2.26A10.023,10.023,0,1,1,1.984,12a1,1,0,0,0-2,0,12.011,12.011,0,0,0,18.9,9.829Z" fill="#61616b"></path></g></svg>