<svg xmlns="http://www.w3.org/2000/svg" height="32" width="32" viewBox="0 0 32 32"><title>refund 4</title><g fill="#61616b" class="nc-icon-wrapper"><path data-color="color-2" d="M13.1,20.4a14.316,14.316,0,0,1-2.2-.8v2.3a13.158,13.158,0,0,0,4.4.8V25h1.4V22.6A5.545,5.545,0,0,0,20,21.4a3.632,3.632,0,0,0,1.1-2.6,2.8,2.8,0,0,0-.9-2,6.236,6.236,0,0,0-2.8-1.7l-.8-.3V10.9a12.956,12.956,0,0,1,3.4.8l.8-2a9.785,9.785,0,0,0-4.1-.9V7H15.3V8.9a5.95,5.95,0,0,0-3.1,1.2A3.044,3.044,0,0,0,11,12.5a3.775,3.775,0,0,0,.8,2.3,6.333,6.333,0,0,0,2.6,1.6l.9.3v4A8.307,8.307,0,0,1,13.1,20.4Zm3.6-3.2a5.287,5.287,0,0,1,1.5.8,1.3,1.3,0,0,1,.4,1c0,.9-.6,1.4-1.9,1.6Zm-2.8-3.8a1.285,1.285,0,0,1-.4-1,1.354,1.354,0,0,1,.5-1,2.106,2.106,0,0,1,1.3-.5v3.3A3.919,3.919,0,0,1,13.9,13.4Z" fill="#61616b"></path><path d="M23.235,1.716A15.968,15.968,0,0,0,6.64,3.02L3.966.346A1,1,0,0,0,2.275.871L.658,9.567a1,1,0,0,0,.984,1.183.971.971,0,0,0,.193-.019l8.617-1.7a1,1,0,0,0,.514-1.688L8.073,4.453A14,14,0,1,1,2,16a1,1,0,0,0-2,0,16,16,0,0,0,30.284,7.224A16,16,0,0,0,23.235,1.716Z" fill="#61616b"></path></g></svg>