<svg xmlns="http://www.w3.org/2000/svg" height="64" width="64" viewBox="0 0 64 64"><title>round dollar 2</title><g fill="#61616b" class="nc-icon-wrapper"><path fill="#61616b" d="M26.025,24.331c0,2.655,1.795,3.667,4.322,4.633v-8.607C28.01,20.783,26.025,21.946,26.025,24.331z"></path> <path fill="#61616b" d="M33.652,33.79v8.693c3.146-0.478,4.729-1.848,4.729-4.124C38.381,35.642,36.322,34.727,33.652,33.79z"></path> <path fill="#61616b" d="M32,1C14.906,1,1,14.907,1,32s13.906,31,31,31s31-13.907,31-31S49.094,1,32,1z M39.917,43.136 c-1.503,1.304-3.594,2.133-6.265,2.492V51h-3.304v-5.146c-2.597-0.018-6.217-0.397-8.569-1.487v-3.524 c2.43,1.084,5.88,1.853,8.569,1.89V32.729c-4.697-1.523-8.14-3.468-8.14-8.352c0-4.317,3.798-6.598,8.14-7.125V13h3.304v4.183 c2.709,0.094,5.325,0.642,7.846,1.659l-1.175,2.959c-2.188-0.866-4.412-1.383-6.672-1.562v9.841 c2.276,0.733,3.991,1.449,5.136,2.146c2.454,1.495,3.433,3.31,3.433,5.839C42.221,40.113,41.453,41.803,39.917,43.136z"></path></g></svg>