<svg xmlns="http://www.w3.org/2000/svg" height="32" width="32" viewBox="0 0 32 32"><title>round dollar 4</title><g fill="#61616b" class="nc-icon-wrapper"><path fill="#61616b" d="M13.211,10.598c-0.543,0.33-0.785,0.76-0.785,1.394c0,1.297,0.952,1.946,2.574,2.547v-4.47 C14.307,10.148,13.681,10.313,13.211,10.598z"></path> <path fill="#61616b" d="M18.681,21.242c0.57-0.408,0.836-0.983,0.836-1.81c0-1.01-0.82-1.525-2.517-2.116v4.528 C17.662,21.742,18.245,21.554,18.681,21.242z"></path> <path fill="#61616b" d="M16,0C7.178,0,0,7.178,0,16s7.178,16,16,16s16-7.178,16-16S24.822,0,16,0z M21.517,19.433 c0,1.465-0.578,2.654-1.672,3.437c-0.775,0.554-1.765,0.857-2.845,0.986V27h-2v-3.104c-1.669-0.09-3.388-0.458-4.807-0.942 l-0.946-0.323l0.646-1.893l0.947,0.323c1.277,0.435,2.771,0.758,4.16,0.849v-5.247c-2.223-0.738-4.574-1.814-4.574-4.673 c0-1.336,0.604-2.409,1.747-3.103c0.79-0.479,1.781-0.731,2.827-0.828V5h2v3.047c1.825,0.128,3.554,0.594,4.461,1.066l0.888,0.461 l-0.922,1.775l-0.888-0.461c-0.722-0.375-2.108-0.721-3.539-0.836v5.152C19.132,15.887,21.517,16.832,21.517,19.433z"></path></g></svg>