<svg xmlns="http://www.w3.org/2000/svg" height="32" width="32" viewBox="0 0 32 32"><title>round euro 4</title><g fill="#61616b" class="nc-icon-wrapper"><path fill="#61616b" d="M16,0C7.178,0,0,7.178,0,16s7.178,16,16,16s16-7.178,16-16S24.822,0,16,0z M17,13v2h-5.941 C11.024,15.325,11,15.656,11,16s0.024,0.675,0.059,1H17v2h-5.477c0.922,2.449,3.002,4,5.678,4c0.946,0,1.867-0.231,2.736-0.686 l0.887-0.463l0.927,1.772l-0.886,0.464C19.705,24.692,18.473,25,17.2,25c-3.779,0-6.726-2.398-7.778-6H6v-2h3.045 C9.016,16.673,9,16.34,9,16s0.016-0.673,0.045-1H6v-2h3.423c1.052-3.602,3.999-6,7.778-6c1.447,0,2.7,0.319,3.724,0.948l0.853,0.524 l-1.048,1.704l-0.852-0.523C19.173,9.219,18.272,9,17.2,9c-2.676,0-4.755,1.551-5.678,4H17z"></path></g></svg>