<svg xmlns="http://www.w3.org/2000/svg" height="64" width="64" viewBox="0 0 64 64"><title>round euro 2</title><g fill="#61616b" class="nc-icon-wrapper"><path fill="#61616b" d="M32,1C14.906,1,1,14.907,1,32s13.906,31,31,31s31-13.907,31-31S49.094,1,32,1z M37.614,27.036v3.309H25.815 c-0.067,2.044-0.057,2.574-0.024,3.309h11.823v3.309H26.177c0.557,2.715,1.602,4.952,3.133,6.437 c1.53,1.486,3.577,2.228,6.142,2.228c2.353,0,4.683-0.498,6.99-1.493v3.393C40.239,48.51,37.849,49,35.271,49 c-3.574,0-6.451-1.014-8.63-3.043c-2.18-2.028-3.616-5.118-4.309-8.994h-3.745v-3.309h3.398c-0.02-0.546-0.015-0.48-0.015-1.417 l0.045-1.892h-3.429v-2.482v-0.827h3.785c0.628-3.705,1.988-6.622,4.1-8.733C28.672,16.101,31.561,15,35.135,15 c3.031,0,5.791,0.732,8.279,2.194l-1.606,3.144c-2.504-1.297-4.728-1.945-6.673-1.945c-4.682,0-7.645,2.887-8.898,8.643H37.614z"></path></g></svg>