<svg xmlns="http://www.w3.org/2000/svg" height="48" width="48" viewBox="0 0 48 48"><title>round pound 3</title><g fill="#61616b" class="nc-icon-wrapper"><path fill="#61616b" d="M24,1C11.317,1,1,11.318,1,24s10.317,23,23,23s23-10.318,23-23S36.683,1,24,1z M33,36.2H15v-3.318 c1.111-0.34,2.103-0.885,2.636-1.633c0.533-0.749,0.8-1.758,0.8-3.029v-3.131h-3.199v-2.927h3.199v-4.356 c0-2.132,0.643-3.8,1.931-5.003C21.655,11.601,23.427,11,25.685,11c2.2,0,4.327,0.465,6.381,1.395l-1.293,3.097 c-1.838-0.805-3.449-1.208-4.832-1.208c-2.326,0-3.488,1.242-3.488,3.726v4.152h6.755v2.927h-6.755v3.097 c0,1.033-0.187,1.912-0.562,2.637c-0.374,0.726-1.016,1.266-1.923,1.777H33V36.2z"></path></g></svg>