<svg xmlns="http://www.w3.org/2000/svg" height="64" width="64" viewBox="0 0 64 64"><title>round pound 2</title><g fill="#61616b" class="nc-icon-wrapper"><path fill="#61616b" d="M32,1C14.906,1,1,14.907,1,32s13.906,31,31,31s31-13.907,31-31S49.094,1,32,1z M43.9,48H20.1v-3.4 c3.137-0.719,4.795-2.783,4.795-6.518V33.55H20.1v-3.4h4.795v-7.357c0-2.724,0.857-4.871,2.571-6.44 C29.18,14.785,31.491,14,34.399,14c2.907,0,5.662,0.643,8.265,1.928l-1.4,3.053c-2.357-1.178-4.63-1.768-6.818-1.768 c-1.883,0-3.303,0.475-4.259,1.423c-0.957,0.949-1.435,2.495-1.435,4.637v6.875h9.198v3.4h-9.198v4.486 c0,1.531-0.249,2.816-0.746,3.857c-0.498,1.041-1.313,2.034-2.445,2.707H43.9V48z"></path></g></svg>