<svg xmlns="http://www.w3.org/2000/svg" height="64" width="64" viewBox="0 0 64 64"><title>safe 3</title><g fill="#61616b" class="nc-icon-wrapper"><path fill="#61616b" d="M26.402,34.184C25.526,33.015,25,31.57,25,30s0.526-3.015,1.402-4.184l-4.263-4.263 C20.187,23.827,19,26.775,19,30s1.187,6.173,3.138,8.447L26.402,34.184z"></path> <path fill="#61616b" d="M27.816,24.402C28.985,23.526,30.43,23,32,23s3.015,0.526,4.184,1.402l4.263-4.263 C38.173,18.187,35.225,17,32,17s-6.173,1.187-8.447,3.138L27.816,24.402z"></path> <path fill="#61616b" d="M37.598,25.816C38.474,26.985,39,28.43,39,30s-0.526,3.015-1.402,4.184l4.263,4.263 C43.813,36.173,45,33.225,45,30s-1.187-6.173-3.138-8.447L37.598,25.816z"></path> <path data-color="color-2" fill="#61616b" d="M10,49h44V11H10V49z M32,15c8.271,0,15,6.729,15,15s-6.729,15-15,15s-15-6.729-15-15 S23.729,15,32,15z"></path> <path fill="#61616b" d="M61,2H3C1.895,2,1,2.895,1,4v52c0,1.105,0.895,2,2,2h58c1.105,0,2-0.895,2-2V4C63,2.895,62.105,2,61,2z M56,50c0,0.552-0.448,1-1,1H9c-0.552,0-1-0.448-1-1V10c0-0.552,0.448-1,1-1h46c0.552,0,1,0.448,1,1V50z"></path> <path fill="#61616b" d="M36.184,35.598C35.015,36.474,33.57,37,32,37s-3.015-0.526-4.184-1.402l-4.263,4.263 C25.827,41.813,28.775,43,32,43s6.173-1.187,8.447-3.138L36.184,35.598z"></path> <circle fill="#61616b" cx="32" cy="30" r="5"></circle> <path data-color="color-2" fill="#61616b" d="M16,60H8v2c0,0.552,0.448,1,1,1h6c0.552,0,1-0.448,1-1V60z"></path> <path data-color="color-2" fill="#61616b" d="M56,60h-8v2c0,0.552,0.448,1,1,1h6c0.552,0,1-0.448,1-1V60z"></path></g></svg>