<svg xmlns="http://www.w3.org/2000/svg" height="24" width="24" viewBox="0 0 24 24"><title>safe</title><g fill="#61616b" class="nc-icon-wrapper"><path d="M9.3,12.285a2.893,2.893,0,0,1,0-2.57L7.833,8.247a4.966,4.966,0,0,0,0,5.506Z" fill="#61616b"></path><path d="M21,0H3A3,3,0,0,0,0,3V19a3,3,0,0,0,3,3H4v1a1,1,0,0,0,2,0V22H18v1a1,1,0,0,0,2,0V22h1a3,3,0,0,0,3-3V3A3,3,0,0,0,21,0ZM12,18a7,7,0,1,1,7-7A7.008,7.008,0,0,1,12,18Z" fill="#61616b"></path><path d="M10.715,8.3a2.9,2.9,0,0,1,2.571,0l1.468-1.468a4.967,4.967,0,0,0-5.507,0Z" fill="#61616b"></path><path d="M14.7,9.715a2.9,2.9,0,0,1,0,2.57l1.468,1.468a4.964,4.964,0,0,0,0-5.505Z" fill="#61616b"></path><path d="M13.285,13.7a2.893,2.893,0,0,1-2.57,0L9.248,15.167a4.964,4.964,0,0,0,5.505,0Z" fill="#61616b"></path></g></svg>