<svg xmlns="http://www.w3.org/2000/svg" height="32" width="32" viewBox="0 0 32 32"><title>safe 5</title><g fill="#61616b" class="nc-icon-wrapper"><path data-color="color-2" d="M12.567,17.019a3.878,3.878,0,0,1,0-4.038L9.688,10.1a7.947,7.947,0,0,0,0,9.794Z" fill="#61616b"></path><path data-color="color-2" d="M13.981,11.567a3.878,3.878,0,0,1,4.038,0L20.9,8.688a7.95,7.95,0,0,0-9.8,0Z" fill="#61616b"></path><path data-color="color-2" d="M18.019,18.433a3.878,3.878,0,0,1-4.038,0L11.1,21.312a7.95,7.95,0,0,0,9.8,0Z" fill="#61616b"></path><circle data-color="color-2" cx="16" cy="15" r="2" fill="#61616b"></circle><path data-color="color-2" d="M19.433,12.981a3.878,3.878,0,0,1,0,4.038L22.312,19.9a7.947,7.947,0,0,0,0-9.794Z" fill="#61616b"></path><path d="M27,1H5A4,4,0,0,0,1,5V25a4,4,0,0,0,4,4v1a1,1,0,0,0,2,0V29H25v1a1,1,0,0,0,2,0V29a4,4,0,0,0,4-4V5A4,4,0,0,0,27,1ZM16,25A10,10,0,1,1,26,15,10.011,10.011,0,0,1,16,25Z" fill="#61616b"></path></g></svg>