<svg xmlns="http://www.w3.org/2000/svg" height="48" width="48" viewBox="0 0 48 48"><title>safe 4</title><g fill="#61616b" class="nc-icon-wrapper"><path fill="#61616b" d="M19.258,25.328C18.594,24.385,18.2,23.239,18.2,22s0.394-2.385,1.057-3.328l-3.706-3.706 C13.961,16.875,13,19.327,13,22s0.961,5.125,2.552,7.034L19.258,25.328z"></path> <path fill="#61616b" d="M27.328,26.742C26.385,27.406,25.239,27.8,24,27.8s-2.385-0.394-3.328-1.057l-3.706,3.706 C18.875,32.039,21.327,33,24,33s5.125-0.961,7.034-2.552L27.328,26.742z"></path> <circle fill="#61616b" cx="24" cy="22" r="3.8"></circle> <path fill="#61616b" d="M28.742,18.672C29.406,19.615,29.8,20.761,29.8,22s-0.394,2.385-1.057,3.328l3.706,3.706 C34.039,27.125,35,24.673,35,22s-0.961-5.125-2.552-7.034L28.742,18.672z"></path> <path fill="#61616b" d="M46,1H2C1.448,1,1,1.448,1,2v40c0,0.552,0.448,1,1,1h6v4h4v-4h24v4h4v-4h6c0.552,0,1-0.448,1-1V2 C47,1.448,46.552,1,46,1z M24,35c-7.168,0-13-5.832-13-13S16.832,9,24,9s13,5.832,13,13S31.168,35,24,35z"></path> <path fill="#61616b" d="M20.672,17.258C21.615,16.594,22.761,16.2,24,16.2s2.385,0.394,3.328,1.057l3.706-3.706 C29.125,11.961,26.673,11,24,11s-5.125,0.961-7.034,2.552L20.672,17.258z"></path></g></svg>