<svg xmlns="http://www.w3.org/2000/svg" height="48" width="48" viewBox="0 0 48 48"><title>scale 3</title><g fill="#61616b" class="nc-icon-wrapper"><path data-color="color-2" fill="#61616b" d="M34,43H14c-0.552,0-1,0.447-1,1s0.448,1,1,1h20c0.552,0,1-0.447,1-1S34.552,43,34,43z"></path> <path fill="#61616b" d="M46.814,21.419L36.823,7.432c-0.104-0.149-0.249-0.273-0.429-0.351C36.259,7.022,36.125,7.006,35.978,7 h-9.162C26.515,6.152,25.848,5.485,25,5.184V2c0-0.553-0.448-1-1-1s-1,0.447-1,1v3.184C22.152,5.485,21.485,6.152,21.184,7h-9.162 c-0.129,0.001-0.28,0.022-0.416,0.081c-0.18,0.077-0.326,0.201-0.429,0.351L1.186,21.419C1.065,21.588,1,21.792,1,22 c0,4.963,4.038,9,9,9s9-4.037,9-9c0-0.136-0.027-0.27-0.081-0.394L13.517,9h7.667c0.302,0.848,0.968,1.515,1.816,1.816V41h2V10.816 c0.848-0.302,1.515-0.968,1.816-1.816h7.667l-5.402,12.606C29.027,21.73,29,21.864,29,22c0,4.963,4.038,9,9,9s9-4.037,9-9 C47,21.792,46.935,21.588,46.814,21.419z M16.483,21H3.943l7.838-10.973L16.483,21z M31.517,21l4.702-10.973L44.057,21H31.517z"></path></g></svg>