<svg xmlns="http://www.w3.org/2000/svg" height="32" width="32" viewBox="0 0 32 32"><title>scale 4</title><g fill="#61616b" class="nc-icon-wrapper"><rect data-color="color-2" x="7" y="28" fill="#61616b" width="18" height="2"></rect> <path fill="#61616b" d="M31.832,14.445l-6-9C25.646,5.167,25.334,5,25,5h-8V3c0-0.553-0.448-1-1-1s-1,0.447-1,1v2H7 C6.666,5,6.354,5.167,6.168,5.445l-6,9C0.059,14.609,0,14.803,0,15c0,2.886,2.676,6,7,6s7-3.114,7-6 c0-0.197-0.059-0.391-0.168-0.555L8.869,7H15v19h2V7h6.131l-4.963,7.445C18.059,14.609,18,14.803,18,15c0,2.886,2.676,6,7,6 s7-3.114,7-6C32,14.803,31.941,14.609,31.832,14.445z M11.131,14H2.869L7,7.803L11.131,14z M20.869,14L25,7.803L29.131,14H20.869z"></path></g></svg>