<svg xmlns="http://www.w3.org/2000/svg" height="32" width="32" viewBox="0 0 32 32"><title>signature 5</title><g fill="#61616b" class="nc-icon-wrapper"><path fill="#61616b" d="M28.707,11.293l-10-10c-0.294-0.295-0.74-0.375-1.121-0.203l-11,5C6.293,6.223,6.082,6.488,6.02,6.804 L2.079,26.507l9.223-9.223c-0.53-1.114-0.345-2.483,0.577-3.406c1.172-1.172,3.071-1.172,4.243,0s1.172,3.071,0,4.243 c-0.922,0.922-2.292,1.107-3.406,0.577l-9.223,9.223l19.703-3.941c0.315-0.063,0.581-0.274,0.714-0.567l5-11 C29.083,12.034,29.002,11.588,28.707,11.293z"></path> <path data-color="color-2" fill="#61616b" d="M31,32H1c-0.553,0-1-0.448-1-1s0.447-1,1-1h30c0.553,0,1,0.448,1,1S31.553,32,31,32z"></path></g></svg>