<svg xmlns="http://www.w3.org/2000/svg" height="32" width="32" viewBox="0 0 32 32"><title>sign 5</title><g fill="#61616b" class="nc-icon-wrapper"><path data-color="color-2" fill="#61616b" d="M31,30H1c-0.552,0-1,0.448-1,1s0.448,1,1,1h30c0.552,0,1-0.448,1-1S31.552,30,31,30z"></path> <path fill="#61616b" d="M3,28.414l2.084-2.084c0.736,0.464,1.574,0.704,2.416,0.704c1.162,0,2.323-0.442,3.207-1.326L28.671,7.743 C29.528,6.886,30,5.747,30,4.536c0-1.212-0.472-2.351-1.329-3.207C27.815,0.472,26.676,0,25.464,0c-1.211,0-2.351,0.472-3.207,1.329 L4.293,19.293c-1.525,1.525-1.727,3.871-0.623,5.623L1.586,27L3,28.414z"></path> <polygon fill="#61616b" points="24,21.414 31.414,14 28,10.586 26.586,12 28.586,14 22.586,20 "></polygon></g></svg>