<svg xmlns="http://www.w3.org/2000/svg" height="16" width="16" viewBox="0 0 16 16"><title>signature 2</title><g fill="#61616b" class="nc-icon-wrapper"><path fill="#61616b" d="M2.1,13l9-1c0.4,0,0.7-0.3,0.8-0.7l1.8-5.2c0.1-0.4,0-0.8-0.2-1L8.9,0.5c-0.3-0.3-0.7-0.4-1-0.2L2.7,2.1 C2.3,2.2,2,2.5,2,2.9l-1,9C1,12.6,1.4,13.1,2.1,13z M3.9,3.7l4-1.4l3.7,3.7l-1.4,4l-7.1,0.8L3.9,3.7z"></path> <rect data-color="color-2" y="14" fill="#61616b" width="16" height="2"></rect> <circle data-color="color-2" fill="#61616b" cx="6" cy="8" r="1"></circle></g></svg>