<svg xmlns="http://www.w3.org/2000/svg" height="48" width="48" viewBox="0 0 48 48"><title>sign 4</title><g fill="#61616b" class="nc-icon-wrapper"><path data-color="color-2" fill="#61616b" d="M46,47H2c-0.552,0-1-0.448-1-1s0.448-1,1-1h44c0.552,0,1,0.448,1,1S46.552,47,46,47z"></path> <path data-color="color-2" fill="#61616b" d="M17.006,36.11c-0.35-3.143-1.009-4.699-2.713-6.403s-3.261-2.364-6.403-2.713 c-0.069-0.008-0.126-0.04-0.189-0.06C5.481,29.65,4.16,37.884,4.012,38.849c-0.048,0.314,0.056,0.633,0.281,0.858 C4.482,39.896,4.737,40,5,40c0.05,0,0.101-0.004,0.152-0.012c0.964-0.148,9.195-1.47,11.913-3.687 C17.044,36.238,17.014,36.179,17.006,36.11z"></path> <path fill="#61616b" d="M41.05,2.95c-2.596-2.596-6.819-2.595-9.414,0L9.403,25.183c2.793,0.46,4.533,1.34,6.304,3.11 s2.651,3.511,3.11,6.304L41.05,12.364C43.646,9.769,43.646,5.545,41.05,2.95z"></path> <path fill="#61616b" d="M44.707,18.293l-3.379-3.379l-1.414,1.414L42.586,19l-7.293,7.293c-0.391,0.391-0.391,1.023,0,1.414 C35.488,27.902,35.744,28,36,28s0.512-0.098,0.707-0.293l8-8C45.098,19.316,45.098,18.684,44.707,18.293z"></path></g></svg>