<svg xmlns="http://www.w3.org/2000/svg" height="64" width="64" viewBox="0 0 64 64"><title>signature 3</title><g fill="#61616b" class="nc-icon-wrapper"><path fill="#61616b" d="M57.688,21.275l-20-19c-0.287-0.272-0.707-0.35-1.069-0.199l-24.009,9.9 c-0.312,0.128-0.536,0.403-0.601,0.733l-7.933,40.8l21.036-21.036C24.393,31.464,24,30.264,24,29c0-1.603,0.624-3.109,1.758-4.243 C26.891,23.624,28.397,23,30,23s3.109,0.624,4.242,1.757C35.376,25.891,36,27.397,36,29s-0.624,3.109-1.758,4.243 C33.109,34.376,31.603,35,30,35c-1.264,0-2.465-0.393-3.473-1.113L5.48,54.934l41.684-6.947c0.345-0.058,0.635-0.291,0.765-0.615 l10-25C58.08,21.991,57.985,21.557,57.688,21.275z"></path> <path data-color="color-2" fill="#61616b" d="M62,63H2c-0.553,0-1-0.448-1-1s0.447-1,1-1h60c0.553,0,1,0.448,1,1S62.553,63,62,63z"></path></g></svg>