<svg xmlns="http://www.w3.org/2000/svg" height="48" width="48" viewBox="0 0 48 48"><title>signature 4</title><g fill="#61616b" class="nc-icon-wrapper"><path fill="#61616b" d="M41.707,16.293l-15-15c-0.285-0.285-0.715-0.372-1.088-0.218l-17,7C8.3,8.207,8.07,8.495,8.014,8.835 L3.07,38.5l13.757-13.851C15.61,22.735,15.83,20.17,17.5,18.5c1.933-1.933,5.067-1.933,7,0s1.933,5.067,0,7 c-1.71,1.71-4.355,1.901-6.282,0.587L4.462,39.937l29.702-4.95c0.342-0.057,0.629-0.286,0.761-0.605l7-17 C42.078,17.007,41.992,16.578,41.707,16.293z"></path> <path data-color="color-2" fill="#61616b" d="M46,47H2c-0.553,0-1-0.448-1-1s0.447-1,1-1h44c0.553,0,1,0.448,1,1S46.553,47,46,47z"></path></g></svg>