<svg xmlns="http://www.w3.org/2000/svg" height="64" width="64" viewBox="0 0 64 64"><title>solo 2</title><g fill="#61616b" class="nc-icon-wrapper"><path data-color="color-2" fill="#61616b" d="M32,20c-6.617,0-12,5.383-12,12s5.383,12,12,12s12-5.383,12-12S38.617,20,32,20z M33.497,38.987c-2.951,1.922-6.901,1.087-8.823-1.864l1.832-1.231c1.248,1.916,3.813,2.458,5.729,1.21s2.458-3.813,1.21-5.729 l1.915-1.209C37.282,33.115,36.448,37.065,33.497,38.987z M37.745,28.72c-1.25-1.915-3.816-2.453-5.731-1.203 c-1.915,1.25-2.453,3.816-1.203,5.731l-1.865,1.18c-1.926-2.949-1.096-6.9,1.852-8.826s6.9-1.096,8.826,1.852L37.745,28.72z"></path> <path fill="#61616b" d="M58,9H6c-2.757,0-5,2.243-5,5v36c0,2.757,2.243,5,5,5h52c2.757,0,5-2.243,5-5V14C63,11.243,60.757,9,58,9z M32,46c-7.72,0-14-6.28-14-14s6.28-14,14-14s14,6.28,14,14S39.72,46,32,46z"></path></g></svg>