<svg xmlns="http://www.w3.org/2000/svg" height="24" width="24" viewBox="0 0 24 24"><title>statistics 5</title><g fill="#61616b" class="nc-icon-wrapper"><rect x="1" y="18" width="4" height="5" rx="0.5" fill="#61616b"></rect><rect x="7" y="11" width="4" height="12" rx="0.5" fill="#61616b"></rect><rect x="13" y="18" width="4" height="5" rx="0.5" fill="#61616b"></rect><rect x="19" y="11" width="4" height="12" rx="0.5" fill="#61616b"></rect><path d="M21.293,1.293,15,7.586,9.707,2.293a1,1,0,0,0-1.414,0l-7,7a1,1,0,1,0,1.414,1.414L9,4.414l5.293,5.293a1,1,0,0,0,1.414,0l7-7a1,1,0,0,0-1.414-1.414Z" fill="#61616b" data-color="color-2"></path></g></svg>