<svg xmlns="http://www.w3.org/2000/svg" height="32" width="32" viewBox="0 0 32 32"><title>stock market 5</title><g fill="#61616b" class="nc-icon-wrapper"><path data-color="color-2" fill="#61616b" d="M27.062,20.353l-3.722-3.102l1.28-1.536l2.319,1.932L32,12.586V3c0-0.552-0.448-1-1-1H21 v8.184c1.163,0.413,2,1.512,2,2.816s-0.837,2.403-2,2.816V30h10c0.552,0,1-0.448,1-1V15.414L27.062,20.353z"></path> <path fill="#61616b" d="M19,15.816c-1.163-0.413-2-1.512-2-2.816s0.837-2.403,2-2.816V2H1C0.448,2,0,2.448,0,3v16.61l8.049-6.976 l5.013,5.013l2.298-1.915l1.28,1.536l-3.702,3.085l-4.987-4.987L0,22.257V29c0,0.552,0.448,1,1,1h18V15.816z"></path></g></svg>