<svg xmlns="http://www.w3.org/2000/svg" height="64" width="64" viewBox="0 0 64 64"><title>stripe 2</title><g fill="#61616b" class="nc-icon-wrapper"><path d="M39.213 29.509a1.758 1.758 0 00-1.405.578l.012 4.38a1.765 1.765 0 001.393.555c1.086 0 1.818-1.18 1.818-2.762 0-1.547-.744-2.751-1.818-2.751zM48.976 29.285c-.743 0-1.558.555-1.558 1.889h3.046c0-1.334-.764-1.889-1.488-1.889z" fill="#61616b"></path><path d="M58 9H6a5 5 0 00-5 5v36a5 5 0 005 5h52a5 5 0 005-5V14a5 5 0 00-5-5zM14.1 37.631a8.172 8.172 0 01-3.223-.673v-2.809a7.349 7.349 0 003.223.944c.661 0 1.133-.177 1.133-.72 0-1.4-4.486-.886-4.486-4.144 0-2.089 1.594-3.341 3.99-3.341a7.8 7.8 0 012.928.543v2.775a6.57 6.57 0 00-2.928-.756c-.625 0-1 .177-1 .637 0 1.323 4.5.7 4.51 4.215 0 2.113-1.689 3.329-4.147 3.329zm9.849-8.031h-2.243v4.191c0 1.748 1.865 1.205 2.243 1.051v2.4a4.57 4.57 0 01-2.066.389 2.966 2.966 0 01-3.058-3.031l.012-9.456 2.88-.614-.011 2.562h2.243zm6.127.2a2.082 2.082 0 00-2.243.614v7h-2.952V27.089h2.55l.189.873a2 2 0 012.456-.873zm3.683 7.615H30.8V27.089h2.963zm0-11.865l-2.963.638v-2.405l2.963-.625zm6.151 12.069a3.326 3.326 0 01-2.09-.743l-.012 3.341-2.951.625V27.077h2.6l.154.732a3.334 3.334 0 012.314-.921c2.065 0 4.013 1.865 4.025 5.289-.003 3.742-1.927 5.442-4.04 5.442zm13.316-4.273h-5.773c.13 1.393 1.146 1.794 2.291 1.794a6.275 6.275 0 002.892-.649v2.361a6.578 6.578 0 01-3.27.767c-2.881 0-4.888-1.794-4.888-5.348 0-3 1.7-5.383 4.51-5.383s4.262 2.385 4.262 5.412c0 .278-.024.892-.024 1.046z" fill="#61616b"></path></g></svg>