<svg xmlns="http://www.w3.org/2000/svg" height="48" width="48" viewBox="0 0 48 48"><title>stripe</title><g fill="#61616b" class="nc-icon-wrapper"><path d="M29.728 22.022a1.4 1.4 0 00-1.116.459l.01 3.478a1.4 1.4 0 001.106.441c.863 0 1.444-.938 1.444-2.194 0-1.228-.591-2.184-1.444-2.184zM37.481 21.844c-.59 0-1.237.44-1.237 1.5h2.418c0-1.06-.609-1.5-1.181-1.5z" fill="#61616b"></path><path d="M43 7H5a4 4 0 00-4 4v26a4 4 0 004 4h38a4 4 0 004-4V11a4 4 0 00-4-4zM9.787 28.472a6.515 6.515 0 01-2.559-.534v-2.232a5.826 5.826 0 002.559.75c.525 0 .9-.14.9-.572 0-1.115-3.563-.7-3.563-3.29 0-1.66 1.266-2.653 3.169-2.653a6.17 6.17 0 012.325.431v2.2a5.237 5.237 0 00-2.325-.6c-.5 0-.8.141-.8.506 0 1.05 3.572.553 3.581 3.347.004 1.681-1.337 2.647-3.287 2.647zm7.819-6.372h-1.781v3.328c0 1.387 1.481.956 1.781.834v1.9a3.614 3.614 0 01-1.64.31 2.356 2.356 0 01-2.429-2.41l.01-7.509 2.287-.487-.009 2.034h1.781zm4.866.159a1.653 1.653 0 00-1.781.488V28.3h-2.344v-8.2h2.025l.15.694a1.59 1.59 0 011.95-.694zM25.4 28.3h-2.356v-8.2H25.4zm0-9.422l-2.353.507v-1.91l2.353-.5zm4.884 9.581a2.636 2.636 0 01-1.659-.59l-.01 2.653-2.343.5V20.091h2.062l.122.581a2.649 2.649 0 011.838-.731c1.64 0 3.187 1.481 3.2 4.2-.007 2.971-1.535 4.321-3.213 4.321zm10.575-3.393h-4.587c.1 1.106.909 1.425 1.819 1.425a4.977 4.977 0 002.3-.516v1.875a5.234 5.234 0 01-2.6.609c-2.288 0-3.882-1.425-3.882-4.246 0-2.382 1.35-4.275 3.582-4.275s3.384 1.893 3.384 4.293c0 .228-.019.716-.019.838z" fill="#61616b"></path></g></svg>