<svg xmlns="http://www.w3.org/2000/svg" height="64" width="64" viewBox="0 0 64 64"><title>tactic 3</title><g fill="#61616b" class="nc-icon-wrapper"><path data-color="color-2" d="M6.293,20.707a1,1,0,0,0,1.414,0L15,13.414l7.293,7.293a1,1,0,0,0,1.414-1.414L16.414,12l7.293-7.293a1,1,0,1,0-1.414-1.414L15,10.586,7.707,3.293A1,1,0,0,0,6.293,4.707L13.586,12,6.293,19.293A1,1,0,0,0,6.293,20.707Z" fill="#61616b"></path> <path data-color="color-2" d="M60.707,40.293a1,1,0,0,0-1.414,0L52,47.586l-7.293-7.293a1,1,0,0,0-1.414,1.414L50.586,49l-7.293,7.293a1,1,0,1,0,1.414,1.414L52,50.414l7.293,7.293a1,1,0,0,0,1.414-1.414L53.414,49l7.293-7.293A1,1,0,0,0,60.707,40.293Z" fill="#61616b"></path> <circle cx="15" cy="49" r="13" fill="#61616b"></circle> <path d="M60,3H42a1,1,0,0,0-.707,1.707L49.586,13,29.293,33.293a1,1,0,1,0,1.414,1.414L51,14.414l8.293,8.293A1,1,0,0,0,61,22V4A1,1,0,0,0,60,3Z" fill="#61616b"></path></g></svg>