<svg xmlns="http://www.w3.org/2000/svg" height="24" width="24" viewBox="0 0 24 24"><title>tactic</title><g fill="#61616b" class="nc-icon-wrapper"><circle cx="6" cy="18" r="5" fill="#61616b"></circle> <path d="M21,10h2V2a1,1,0,0,0-1-1H14V3h5.586l-8.293,8.293a1,1,0,1,0,1.414,1.414L21,4.414Z" fill="#61616b"></path> <polygon data-color="color-2" points="2 9.414 5 6.414 8 9.414 9.414 8 6.414 5 9.414 2 8 0.586 5 3.586 2 0.586 0.586 2 3.586 5 0.586 8 2 9.414" fill="#61616b"></polygon> <polygon data-color="color-2" points="23.414 16 22 14.586 19 17.586 16 14.586 14.586 16 17.586 19 14.586 22 16 23.414 19 20.414 22 23.414 23.414 22 20.414 19 23.414 16" fill="#61616b"></polygon></g></svg>