<svg xmlns="http://www.w3.org/2000/svg" height="32" width="32" viewBox="0 0 32 32"><title>tactic 5</title><g fill="#61616b" class="nc-icon-wrapper"><path data-color="color-2" d="M3.293,10.707a1,1,0,0,0,1.414,0L8,7.414l3.293,3.293a1,1,0,0,0,1.414-1.414L9.414,6l3.293-3.293a1,1,0,0,0-1.414-1.414L8,4.586,4.707,1.293A1,1,0,0,0,3.293,2.707L6.586,6,3.293,9.293A1,1,0,0,0,3.293,10.707Z" fill="#61616b"></path> <path data-color="color-2" d="M30.707,19.293a1,1,0,0,0-1.414,0L26,22.586l-3.293-3.293a1,1,0,0,0-1.414,1.414L24.586,24l-3.293,3.293a1,1,0,1,0,1.414,1.414L26,25.414l3.293,3.293a1,1,0,0,0,1.414-1.414L27.414,24l3.293-3.293A1,1,0,0,0,30.707,19.293Z" fill="#61616b"></path> <circle cx="8" cy="24" r="7" fill="#61616b"></circle> <path d="M30,1H20V3h7.586L14.293,16.293l1.414,1.414L29,4.414V12h2V2A1,1,0,0,0,30,1Z" fill="#61616b"></path></g></svg>