<svg xmlns="http://www.w3.org/2000/svg" height="48" width="48" viewBox="0 0 48 48"><title>temple 4</title><g fill="#61616b" class="nc-icon-wrapper"><path d="M45,40H43V23H41V40H37V23H35V40H31V23H29V40H25V23H23V40H19V23H17V40H13V23H11V40H7V23H5V40H3a1,1,0,0,0-1,1v4a1,1,0,0,0,1,1H45a1,1,0,0,0,1-1V41A1,1,0,0,0,45,40Z" fill="#61616b"></path><path data-color="color-2" d="M45.5,14.132l-21-12a1,1,0,0,0-.992,0l-21,12A1,1,0,0,0,2,15v5a1,1,0,0,0,1,1H45a1,1,0,0,0,1-1V15A1,1,0,0,0,45.5,14.132ZM24,16a3,3,0,1,1,3-3A3,3,0,0,1,24,16Z" fill="#61616b"></path></g></svg>