<svg xmlns="http://www.w3.org/2000/svg" height="32" width="32" viewBox="0 0 32 32"><title>temple 5</title><g fill="#61616b" class="nc-icon-wrapper"><path data-color="color-2" d="M30.5,8.132l-14-8a1,1,0,0,0-.992,0l-14,8A1,1,0,0,0,1,9v3a1,1,0,0,0,1,1H30a1,1,0,0,0,1-1V9A1,1,0,0,0,30.5,8.132ZM16,9a2,2,0,1,1,2-2A2,2,0,0,1,16,9Z" fill="#61616b"></path><path d="M30,26H29V15H27V26H23V15H21V26H17V15H15V26H11V15H9V26H5V15H3V26H2a1,1,0,0,0-1,1v3a1,1,0,0,0,1,1H30a1,1,0,0,0,1-1V27A1,1,0,0,0,30,26Z" fill="#61616b"></path></g></svg>