<svg xmlns="http://www.w3.org/2000/svg" height="64" width="64" viewBox="0 0 64 64"><title>temple 3</title><g fill="#61616b" class="nc-icon-wrapper"><path data-color="color-2" d="M60.5,20.132l-28-16a1,1,0,0,0-.992,0l-28,16A1,1,0,0,0,3,21v6a1,1,0,0,0,1,1H60a1,1,0,0,0,1-1V21A1,1,0,0,0,60.5,20.132ZM32,22a4.5,4.5,0,1,1,4.5-4.5A4.505,4.505,0,0,1,32,22Z" fill="#61616b"></path><path d="M60,54H58V30H54V54H50V30H46V54H42V30H38V54H34V30H30V54H26V30H22V54H18V30H14V54H10V30H6V54H4a1,1,0,0,0-1,1v5a1,1,0,0,0,1,1H60a1,1,0,0,0,1-1V55A1,1,0,0,0,60,54Z" fill="#61616b"></path></g></svg>