<svg xmlns="http://www.w3.org/2000/svg" height="16" width="16" viewBox="0 0 16 16"><title>tie 01 2</title><g fill="#61616b" class="nc-icon-wrapper"><path fill="#61616b" d="M11.9,11.7l-2-6C9.8,5.3,9.4,5,9,5H7C6.6,5,6.2,5.3,6.1,5.7l-2,6c-0.1,0.4,0,0.8,0.2,1l3,3 C7.5,15.9,7.7,16,8,16s0.5-0.1,0.7-0.3l3-3C12,12.4,12.1,12,11.9,11.7z"></path> <path data-color="color-2" fill="#61616b" d="M5.3,2.7C5.5,2.9,5.7,3,6,3h4c0.3,0,0.5-0.1,0.7-0.3l1-1C12.3,1.1,12,0,11,0H5 C4,0,3.8,1.1,4.3,1.7L5.3,2.7z"></path></g></svg>