<svg xmlns="http://www.w3.org/2000/svg" height="64" width="64" viewBox="0 0 64 64"><title>tie 02 3</title><g fill="#61616b" class="nc-icon-wrapper"><path data-color="color-2" fill="#61616b" d="M52.825,32.269L41.478,15.685L47.1,39.578l5.633-6.064 C53.051,33.171,53.089,32.654,52.825,32.269z"></path> <path fill="#61616b" d="M24.382,13h15.236l5.277-10.553c0.155-0.31,0.138-0.678-0.044-0.973C44.668,1.18,44.347,1,44,1H20 c-0.347,0-0.668,0.18-0.851,0.474c-0.182,0.295-0.199,0.663-0.044,0.973L24.382,13z"></path> <path fill="#61616b" d="M46.974,47.771L39.262,15H24.738l-7.711,32.771c-0.079,0.337,0.021,0.691,0.267,0.936l14,14 C31.488,62.902,31.744,63,32,63s0.512-0.098,0.707-0.293l14-14C46.952,48.462,47.053,48.108,46.974,47.771z"></path></g></svg>