<svg xmlns="http://www.w3.org/2000/svg" height="48" width="48" viewBox="0 0 48 48"><title>tie 02 4</title><g fill="#61616b" class="nc-icon-wrapper"><path data-color="color-2" fill="#61616b" d="M39.792,23.414l-8.325-10.823l4.056,16.9l4.228-4.807 C40.066,24.325,40.084,23.793,39.792,23.414z"></path> <path fill="#61616b" d="M18.3,10H29.7l4.174-7.514c0.172-0.31,0.167-0.688-0.012-0.993C33.682,1.188,33.354,1,33,1H15 c-0.354,0-0.682,0.188-0.862,0.493c-0.18,0.306-0.185,0.683-0.012,0.993L18.3,10z"></path> <path fill="#61616b" d="M29.269,12H18.731l-5.703,23.767c-0.082,0.338,0.019,0.694,0.265,0.94l10,10C23.488,46.902,23.744,47,24,47 s0.512-0.098,0.707-0.293l10-10c0.246-0.246,0.347-0.602,0.265-0.94L29.269,12z"></path></g></svg>