<svg xmlns="http://www.w3.org/2000/svg" height="32" width="32" viewBox="0 0 32 32"><title>transaction 4</title><g fill="#61616b" class="nc-icon-wrapper"><path d="M16,25a9,9,0,1,1,9-9A9.01,9.01,0,0,1,16,25ZM16,9a7,7,0,1,0,7,7A7.008,7.008,0,0,0,16,9Z" fill="#61616b" data-color="color-2"></path><circle cx="16" cy="16" r="5" fill="#61616b" data-color="color-2"></circle><path d="M10.5,4H6V.5A.5.5,0,0,0,5.7.043a.508.508,0,0,0-.538.085l-5,4.5a.5.5,0,0,0,0,.744l5,4.5A.5.5,0,0,0,5.5,10a.522.522,0,0,0,.2-.043A.5.5,0,0,0,6,9.5V6h4.5a.5.5,0,0,0,.5-.5v-1A.5.5,0,0,0,10.5,4Z" fill="#61616b"></path><path d="M31.834,26.628l-5-4.5A.5.5,0,0,0,26,22.5V26H21.5a.5.5,0,0,0-.5.5v1a.5.5,0,0,0,.5.5H26v3.5a.5.5,0,0,0,.3.457.522.522,0,0,0,.2.043.5.5,0,0,0,.334-.128l5-4.5a.5.5,0,0,0,0-.744Z" fill="#61616b"></path></g></svg>