<svg xmlns="http://www.w3.org/2000/svg" height="16" width="16" viewBox="0 0 16 16"><title>transaction 6</title><g fill="#61616b" class="nc-icon-wrapper"><circle cx="8" cy="8" r="3" fill="#61616b" data-color="color-2"></circle><path d="M6.5,2H4V.5A.5.5,0,0,0,3.18.116l-3,2.5a.5.5,0,0,0,0,.768l3,2.5A.494.494,0,0,0,3.5,6a.507.507,0,0,0,.212-.047A.5.5,0,0,0,4,5.5V4H6.5A.5.5,0,0,0,7,3.5v-1A.5.5,0,0,0,6.5,2Z" fill="#61616b"></path><path d="M15.82,12.616l-3-2.5A.5.5,0,0,0,12,10.5V12H9.5a.5.5,0,0,0-.5.5v1a.5.5,0,0,0,.5.5H12v1.5a.5.5,0,0,0,.288.453A.507.507,0,0,0,12.5,16a.494.494,0,0,0,.32-.116l3-2.5a.5.5,0,0,0,0-.768Z" fill="#61616b"></path></g></svg>