<svg xmlns="http://www.w3.org/2000/svg" height="24" width="24" viewBox="0 0 24 24"><title>transaction 5</title><g fill="#61616b" class="nc-icon-wrapper"><path d="M12,18a6,6,0,1,1,6-6A6.006,6.006,0,0,1,12,18Z" fill="#61616b" data-color="color-2"></path><path d="M8.5,3H5V.5A.5.5,0,0,0,4.707.045a.5.5,0,0,0-.536.079l-4,3.5a.5.5,0,0,0,0,.752l4,3.5A.5.5,0,0,0,4.5,8,.5.5,0,0,0,5,7.5V5H8.5A.5.5,0,0,0,9,4.5v-1A.5.5,0,0,0,8.5,3Z" fill="#61616b"></path><path d="M23.829,19.624l-4-3.5A.5.5,0,0,0,19,16.5V19H15.5a.5.5,0,0,0-.5.5v1a.5.5,0,0,0,.5.5H19v2.5a.5.5,0,0,0,.829.376l4-3.5a.5.5,0,0,0,0-.752Z" fill="#61616b"></path></g></svg>