<svg xmlns="http://www.w3.org/2000/svg" height="12" width="12" viewBox="0 0 12 12"><title>transaction</title><g fill="#61616b" class="nc-icon-wrapper"><path d="M7,3.5v-1A.5.5,0,0,0,6.5,2H4V.5A.5.5,0,0,0,3.18.116l-3,2.5a.5.5,0,0,0,0,.768l3,2.5A.494.494,0,0,0,3.5,6a.507.507,0,0,0,.212-.047A.5.5,0,0,0,4,5.5V4H6.5A.5.5,0,0,0,7,3.5Z" fill="#61616b"></path><path d="M11.82,8.616l-3-2.5A.5.5,0,0,0,8,6.5V8H5.5a.5.5,0,0,0-.5.5v1a.5.5,0,0,0,.5.5H8v1.5a.5.5,0,0,0,.288.453A.507.507,0,0,0,8.5,12a.494.494,0,0,0,.32-.116l3-2.5a.5.5,0,0,0,0-.768Z" fill="#61616b" data-color="color-2"></path></g></svg>