<svg xmlns="http://www.w3.org/2000/svg" height="48" width="48" viewBox="0 0 48 48"><title>transaction 3</title><g fill="#61616b" class="nc-icon-wrapper"><path d="M16,4H9V1A1,1,0,0,0,7.35.241l-7,6a1,1,0,0,0,0,1.518l7,6A1,1,0,0,0,9,13V10h7a1,1,0,0,0,1-1V5A1,1,0,0,0,16,4Z" fill="#61616b"></path><path d="M47.65,40.241l-7-6A1,1,0,0,0,39,35v3H32a1,1,0,0,0-1,1v4a1,1,0,0,0,1,1h7v3a1,1,0,0,0,1.65.759l7-6a1,1,0,0,0,0-1.518Z" fill="#61616b"></path><path d="M24,11A13,13,0,1,0,37,24,13.015,13.015,0,0,0,24,11Zm0,24A11,11,0,1,1,35,24,11.013,11.013,0,0,1,24,35Z" fill="#61616b" data-color="color-2"></path><circle cx="24" cy="24" r="9" fill="#61616b" data-color="color-2"></circle></g></svg>