<svg xmlns="http://www.w3.org/2000/svg" height="48" width="48" viewBox="0 0 48 48"><title>wallet 90 4</title><g fill="#61616b" class="nc-icon-wrapper"><path data-color="color-2" fill="#61616b" d="M46,26h-9c-2.206,0-4,1.794-4,4s1.794,4,4,4h9c0.552,0,1-0.448,1-1v-6 C47,26.448,46.552,26,46,26z"></path> <path data-color="color-2" fill="#61616b" d="M38,1H10C9.447,1,9,1.447,9,2v7c0,0.553,0.447,1,1,1h28c0.553,0,1-0.447,1-1V2 C39,1.447,38.553,1,38,1z"></path> <path fill="#61616b" d="M43,13H6c-1.654,0-3-1.346-3-3s1.346-3,3-3h1V5H6c-2.757,0-5,2.243-5,5v30c0,3.86,3.14,7,7,7h35 c0.552,0,1-0.448,1-1V36h-7c-3.309,0-6-2.691-6-6s2.691-6,6-6h7V14C44,13.448,43.552,13,43,13z"></path></g></svg>