<svg xmlns="http://www.w3.org/2000/svg" height="32" width="32" viewBox="0 0 32 32"><title>wallet 90</title><g fill="#61616b" class="nc-icon-wrapper"><path data-color="color-2" fill="#61616b" d="M8,1v5h19V1c0-0.552-0.448-1-1-1H9C8.448,0,8,0.448,8,1z"></path> <path fill="#61616b" d="M30,8H5C3.897,8,3,7.103,3,6s0.897-2,2-2h1V2H5C2.794,2,1,3.794,1,6v21c0,2.757,2.243,5,5,5h24 c0.552,0,1-0.448,1-1V9C31,8.448,30.552,8,30,8z M25,22c-1.105,0-2-0.895-2-2c0-1.105,0.895-2,2-2s2,0.895,2,2 C27,21.105,26.105,22,25,22z"></path></g></svg>