<svg xmlns="http://www.w3.org/2000/svg" height="64" width="64" viewBox="0 0 64 64"><title>wallet 43 3</title><g fill="#61616b" class="nc-icon-wrapper"><path fill="#61616b" d="M49,45c-4.411,0-8-3.589-8-8s3.589-8,8-8h10V15c0-0.552-0.448-1-1-1H7c-2.206,0-4-1.794-4-4s1.794-4,4-4h39 v5h2V5c0-0.552-0.448-1-1-1H7c-3.309,0-6,2.691-6,6v41c0,4.962,4.038,9,9,9h48c0.552,0,1-0.448,1-1V45H49z"></path> <path data-color="color-2" fill="#61616b" d="M43,37c0,3.314,2.686,6,6,6h13c0.552,0,1-0.448,1-1V32c0-0.552-0.448-1-1-1H49 C45.686,31,43,33.686,43,37z M51,37c0,1.105-0.895,2-2,2s-2-0.895-2-2s0.895-2,2-2S51,35.895,51,37z"></path></g></svg>