<svg xmlns="http://www.w3.org/2000/svg" height="48" width="48" viewBox="0 0 48 48"><title>wallet 44 4</title><g fill="#61616b" class="nc-icon-wrapper"><path fill="#61616b" d="M46,11H6c-1.654,0-3-1.346-3-3s1.346-3,3-3h27v4h2V4c0-0.552-0.448-1-1-1H6C3.243,3,1,5.243,1,8v30 c0,3.86,3.14,7,7,7h38c0.552,0,1-0.448,1-1V12C47,11.448,46.552,11,46,11z M10,40H6c-0.552,0-1-0.448-1-1s0.448-1,1-1h4 c0.552,0,1,0.448,1,1S10.552,40,10,40z M10,18H6c-0.552,0-1-0.448-1-1s0.448-1,1-1h4c0.552,0,1,0.448,1,1S10.552,18,10,18z M21,40 h-4c-0.552,0-1-0.448-1-1s0.448-1,1-1h4c0.552,0,1,0.448,1,1S21.552,40,21,40z M21,18h-4c-0.552,0-1-0.448-1-1s0.448-1,1-1h4 c0.552,0,1,0.448,1,1S21.552,18,21,18z M32,40h-4c-0.552,0-1-0.448-1-1s0.448-1,1-1h4c0.552,0,1,0.448,1,1S32.552,40,32,40z M32,18 h-4c-0.552,0-1-0.448-1-1s0.448-1,1-1h4c0.552,0,1,0.448,1,1S32.552,18,32,18z M43,40h-4c-0.552,0-1-0.448-1-1s0.448-1,1-1h4 c0.552,0,1,0.448,1,1S43.552,40,43,40z M41,31c-1.657,0-3-1.343-3-3s1.343-3,3-3s3,1.343,3,3S42.657,31,41,31z M43,18h-4 c-0.552,0-1-0.448-1-1s0.448-1,1-1h4c0.552,0,1,0.448,1,1S43.552,18,43,18z"></path></g></svg>