<svg xmlns="http://www.w3.org/2000/svg" height="64" width="64" viewBox="0 0 64 64"><title>wallet 90 3</title><g fill="#61616b" class="nc-icon-wrapper"><path fill="#61616b" d="M43,40c0,3.314,2.686,6,6,6h13c0.552,0,1-0.448,1-1V35c0-0.552-0.448-1-1-1H49C45.686,34,43,36.686,43,40z M51,40c0,1.105-0.895,2-2,2s-2-0.895-2-2s0.895-2,2-2S51,38.895,51,40z"></path> <path data-color="color-2" fill="#61616b" d="M12,2v11h38V2c0-0.552-0.448-1-1-1H13C12.448,1,12,1.448,12,2z"></path> <path fill="#61616b" d="M49,32h10V18c0-0.552-0.448-1-1-1H7c-2.206,0-4-1.794-4-4s1.794-4,4-4h3V7H7c-3.309,0-6,2.691-6,6v41 c0,4.962,4.038,9,9,9h48c0.552,0,1-0.448,1-1V48H49c-4.411,0-8-3.589-8-8S44.589,32,49,32z"></path></g></svg>